<?xml version="1.0" encoding="us-ascii" standalone="no"?><svg xmlns="http://www.w3.org/2000/svg" xmlns:xlink="http://www.w3.org/1999/xlink" contentStyleType="text/css" height="1294px" preserveAspectRatio="none" style="width:509px;height:1294px;background:#FFFFFF;" version="1.1" viewBox="0 0 509 1294" width="509px" zoomAndPan="magnify"><defs/><g><text fill="#000000" font-family="sans-serif" font-size="14" font-weight="bold" lengthAdjust="spacing" textLength="481" x="10" y="25.1074">"US1006 - Display all the personal data of a candidate" Class Diagram</text><!--class PhoneNumber--><g id="elem_PhoneNumber"><rect codeLine="4" fill="#F1F1F1" height="66.6211" id="PhoneNumber" rx="2.5" ry="2.5" style="stroke:#181818;stroke-width:0.5;" width="123" x="77" y="990.1211"/><ellipse cx="92.45" cy="1006.1211" fill="#ADD1B2" rx="11" ry="11" style="stroke:#181818;stroke-width:1.0;"/><path d="M95.2156,1001.9961 Q95.3719,1001.7773 95.5594,1001.668 Q95.7469,1001.5586 95.9656,1001.5586 Q96.3406,1001.5586 96.575,1001.8242 Q96.8094,1002.0742 96.8094,1002.6836 L96.8094,1004.1367 Q96.8094,1004.7461 96.575,1005.0117 Q96.3406,1005.2773 95.9656,1005.2773 Q95.6219,1005.2773 95.4188,1005.0742 Q95.2156,1004.8867 95.1063,1004.3711 Q95.0594,1004.0117 94.8719,1003.8242 Q94.5438,1003.4492 93.9344,1003.2305 Q93.325,1003.0117 92.7,1003.0117 Q91.9344,1003.0117 91.2938,1003.3398 Q90.6688,1003.668 90.1688,1004.418 Q89.6844,1005.168 89.6844,1006.1992 L89.6844,1007.293 Q89.6844,1008.5273 90.575,1009.3555 Q91.4656,1010.168 93.0594,1010.168 Q93.9969,1010.168 94.6531,1009.918 Q95.0438,1009.7617 95.4656,1009.3242 Q95.7313,1009.0586 95.8719,1008.9805 Q96.0281,1008.9023 96.2313,1008.9023 Q96.5594,1008.9023 96.8094,1009.168 Q97.075,1009.418 97.075,1009.7617 Q97.075,1010.1055 96.7313,1010.5117 Q96.2313,1011.0898 95.4344,1011.418 Q94.3563,1011.8711 93.0594,1011.8711 Q91.5438,1011.8711 90.3406,1011.2461 Q89.3563,1010.7461 88.6688,1009.6836 Q87.9813,1008.6055 87.9813,1007.3242 L87.9813,1006.168 Q87.9813,1004.8398 88.5906,1003.6992 Q89.2156,1002.543 90.3094,1001.9336 Q91.4031,1001.3086 92.6375,1001.3086 Q93.3719,1001.3086 94.0125,1001.4805 Q94.6688,1001.6367 95.2156,1001.9961 Z " fill="#000000"/><text fill="#000000" font-family="sans-serif" font-size="14" lengthAdjust="spacing" textLength="90" x="106.55" y="1011.918">PhoneNumber</text><line style="stroke:#181818;stroke-width:0.5;" x1="78" x2="199" y1="1022.1211" y2="1022.1211"/><rect fill="none" height="6" style="stroke:#C82930;stroke-width:1.0;" width="6" x="85" y="1033.9316"/><text fill="#000000" font-family="sans-serif" font-size="14" lengthAdjust="spacing" textLength="97" x="97" y="1041.2285">number : String</text><line style="stroke:#181818;stroke-width:0.5;" x1="78" x2="199" y1="1048.7422" y2="1048.7422"/></g><!--class Candidate--><g id="elem_Candidate"><rect codeLine="10" fill="#F1F1F1" height="159.7266" id="Candidate" rx="2.5" ry="2.5" style="stroke:#181818;stroke-width:0.5;" width="227" x="140" y="722.6211"/><ellipse cx="216.75" cy="738.6211" fill="#ADD1B2" rx="11" ry="11" style="stroke:#181818;stroke-width:1.0;"/><path d="M219.5156,734.4961 Q219.6719,734.2773 219.8594,734.168 Q220.0469,734.0586 220.2656,734.0586 Q220.6406,734.0586 220.875,734.3242 Q221.1094,734.5742 221.1094,735.1836 L221.1094,736.6367 Q221.1094,737.2461 220.875,737.5117 Q220.6406,737.7773 220.2656,737.7773 Q219.9219,737.7773 219.7188,737.5742 Q219.5156,737.3867 219.4063,736.8711 Q219.3594,736.5117 219.1719,736.3242 Q218.8438,735.9492 218.2344,735.7305 Q217.625,735.5117 217,735.5117 Q216.2344,735.5117 215.5938,735.8398 Q214.9688,736.168 214.4688,736.918 Q213.9844,737.668 213.9844,738.6992 L213.9844,739.793 Q213.9844,741.0273 214.875,741.8555 Q215.7656,742.668 217.3594,742.668 Q218.2969,742.668 218.9531,742.418 Q219.3438,742.2617 219.7656,741.8242 Q220.0313,741.5586 220.1719,741.4805 Q220.3281,741.4023 220.5313,741.4023 Q220.8594,741.4023 221.1094,741.668 Q221.375,741.918 221.375,742.2617 Q221.375,742.6055 221.0313,743.0117 Q220.5313,743.5898 219.7344,743.918 Q218.6563,744.3711 217.3594,744.3711 Q215.8438,744.3711 214.6406,743.7461 Q213.6563,743.2461 212.9688,742.1836 Q212.2813,741.1055 212.2813,739.8242 L212.2813,738.668 Q212.2813,737.3398 212.8906,736.1992 Q213.5156,735.043 214.6094,734.4336 Q215.7031,733.8086 216.9375,733.8086 Q217.6719,733.8086 218.3125,733.9805 Q218.9688,734.1367 219.5156,734.4961 Z " fill="#000000"/><text fill="#000000" font-family="sans-serif" font-size="14" lengthAdjust="spacing" textLength="65" x="237.25" y="744.418">Candidate</text><line style="stroke:#181818;stroke-width:0.5;" x1="141" x2="366" y1="754.6211" y2="754.6211"/><rect fill="none" height="6" style="stroke:#C82930;stroke-width:1.0;" width="6" x="148" y="766.4316"/><text fill="#000000" font-family="sans-serif" font-size="14" lengthAdjust="spacing" textLength="160" x="160" y="773.7285">systemUser : SystemUser</text><rect fill="none" height="6" style="stroke:#C82930;stroke-width:1.0;" width="6" x="148" y="785.0527"/><text fill="#000000" font-family="sans-serif" font-size="14" lengthAdjust="spacing" textLength="191" x="160" y="792.3496">phoneNumber : PhoneNumber</text><rect fill="none" height="6" style="stroke:#C82930;stroke-width:1.0;" width="6" x="148" y="803.6738"/><text fill="#000000" font-family="sans-serif" font-size="14" lengthAdjust="spacing" textLength="109" x="160" y="810.9707">id : EmailAddress</text><line style="stroke:#181818;stroke-width:0.5;" x1="141" x2="366" y1="818.4844" y2="818.4844"/><ellipse cx="151" cy="833.2949" fill="#84BE84" rx="3" ry="3" style="stroke:#038048;stroke-width:1.0;"/><text fill="#000000" font-family="sans-serif" font-size="14" lengthAdjust="spacing" textLength="125" x="160" y="837.5918">user() : SystemUser</text><ellipse cx="151" cy="851.916" fill="#84BE84" rx="3" ry="3" style="stroke:#038048;stroke-width:1.0;"/><text fill="#000000" font-family="sans-serif" font-size="14" lengthAdjust="spacing" textLength="201" x="160" y="856.2129">phoneNumber() : PhoneNumber</text><ellipse cx="151" cy="870.5371" fill="#84BE84" rx="3" ry="3" style="stroke:#038048;stroke-width:1.0;"/><text fill="#000000" font-family="sans-serif" font-size="14" lengthAdjust="spacing" textLength="139" x="160" y="874.834">getId() : EmailAddress</text></g><!--class EmailAddress--><g id="elem_EmailAddress"><rect codeLine="20" fill="#F1F1F1" height="66.6211" id="EmailAddress" rx="2.5" ry="2.5" style="stroke:#181818;stroke-width:0.5;" width="118" x="194.5" y="1192.1211"/><ellipse cx="209.5" cy="1208.1211" fill="#ADD1B2" rx="11" ry="11" style="stroke:#181818;stroke-width:1.0;"/><path d="M212.2656,1203.9961 Q212.4219,1203.7773 212.6094,1203.668 Q212.7969,1203.5586 213.0156,1203.5586 Q213.3906,1203.5586 213.625,1203.8242 Q213.8594,1204.0742 213.8594,1204.6836 L213.8594,1206.1367 Q213.8594,1206.7461 213.625,1207.0117 Q213.3906,1207.2773 213.0156,1207.2773 Q212.6719,1207.2773 212.4688,1207.0742 Q212.2656,1206.8867 212.1563,1206.3711 Q212.1094,1206.0117 211.9219,1205.8242 Q211.5938,1205.4492 210.9844,1205.2305 Q210.375,1205.0117 209.75,1205.0117 Q208.9844,1205.0117 208.3438,1205.3398 Q207.7188,1205.668 207.2188,1206.418 Q206.7344,1207.168 206.7344,1208.1992 L206.7344,1209.293 Q206.7344,1210.5273 207.625,1211.3555 Q208.5156,1212.168 210.1094,1212.168 Q211.0469,1212.168 211.7031,1211.918 Q212.0938,1211.7617 212.5156,1211.3242 Q212.7813,1211.0586 212.9219,1210.9805 Q213.0781,1210.9023 213.2813,1210.9023 Q213.6094,1210.9023 213.8594,1211.168 Q214.125,1211.418 214.125,1211.7617 Q214.125,1212.1055 213.7813,1212.5117 Q213.2813,1213.0898 212.4844,1213.418 Q211.4063,1213.8711 210.1094,1213.8711 Q208.5938,1213.8711 207.3906,1213.2461 Q206.4063,1212.7461 205.7188,1211.6836 Q205.0313,1210.6055 205.0313,1209.3242 L205.0313,1208.168 Q205.0313,1206.8398 205.6406,1205.6992 Q206.2656,1204.543 207.3594,1203.9336 Q208.4531,1203.3086 209.6875,1203.3086 Q210.4219,1203.3086 211.0625,1203.4805 Q211.7188,1203.6367 212.2656,1203.9961 Z " fill="#000000"/><text fill="#000000" font-family="sans-serif" font-size="14" lengthAdjust="spacing" textLength="86" x="223.5" y="1213.918">EmailAddress</text><line style="stroke:#181818;stroke-width:0.5;" x1="195.5" x2="311.5" y1="1224.1211" y2="1224.1211"/><rect fill="none" height="6" style="stroke:#C82930;stroke-width:1.0;" width="6" x="202.5" y="1235.9316"/><text fill="#000000" font-family="sans-serif" font-size="14" lengthAdjust="spacing" textLength="82" x="214.5" y="1243.2285">email : String</text><line style="stroke:#181818;stroke-width:0.5;" x1="195.5" x2="311.5" y1="1250.7422" y2="1250.7422"/></g><!--class SystemUser--><g id="elem_SystemUser"><rect codeLine="25" fill="#F1F1F1" height="159.7266" id="SystemUser" rx="2.5" ry="2.5" style="stroke:#181818;stroke-width:0.5;" width="171" x="307" y="943.6211"/><ellipse cx="350.8" cy="959.6211" fill="#ADD1B2" rx="11" ry="11" style="stroke:#181818;stroke-width:1.0;"/><path d="M353.5656,955.4961 Q353.7219,955.2773 353.9094,955.168 Q354.0969,955.0586 354.3156,955.0586 Q354.6906,955.0586 354.925,955.3242 Q355.1594,955.5742 355.1594,956.1836 L355.1594,957.6367 Q355.1594,958.2461 354.925,958.5117 Q354.6906,958.7773 354.3156,958.7773 Q353.9719,958.7773 353.7688,958.5742 Q353.5656,958.3867 353.4563,957.8711 Q353.4094,957.5117 353.2219,957.3242 Q352.8938,956.9492 352.2844,956.7305 Q351.675,956.5117 351.05,956.5117 Q350.2844,956.5117 349.6438,956.8398 Q349.0188,957.168 348.5188,957.918 Q348.0344,958.668 348.0344,959.6992 L348.0344,960.793 Q348.0344,962.0273 348.925,962.8555 Q349.8156,963.668 351.4094,963.668 Q352.3469,963.668 353.0031,963.418 Q353.3938,963.2617 353.8156,962.8242 Q354.0813,962.5586 354.2219,962.4805 Q354.3781,962.4023 354.5813,962.4023 Q354.9094,962.4023 355.1594,962.668 Q355.425,962.918 355.425,963.2617 Q355.425,963.6055 355.0813,964.0117 Q354.5813,964.5898 353.7844,964.918 Q352.7063,965.3711 351.4094,965.3711 Q349.8938,965.3711 348.6906,964.7461 Q347.7063,964.2461 347.0188,963.1836 Q346.3313,962.1055 346.3313,960.8242 L346.3313,959.668 Q346.3313,958.3398 346.9406,957.1992 Q347.5656,956.043 348.6594,955.4336 Q349.7531,954.8086 350.9875,954.8086 Q351.7219,954.8086 352.3625,954.9805 Q353.0188,955.1367 353.5656,955.4961 Z " fill="#000000"/><text fill="#000000" font-family="sans-serif" font-size="14" lengthAdjust="spacing" textLength="75" x="371.2" y="965.418">SystemUser</text><line style="stroke:#181818;stroke-width:0.5;" x1="308" x2="477" y1="975.6211" y2="975.6211"/><rect fill="none" height="6" style="stroke:#C82930;stroke-width:1.0;" width="6" x="315" y="987.4316"/><text fill="#000000" font-family="sans-serif" font-size="14" lengthAdjust="spacing" textLength="139" x="327" y="994.7285">username : Username</text><rect fill="none" height="6" style="stroke:#C82930;stroke-width:1.0;" width="6" x="315" y="1006.0527"/><text fill="#000000" font-family="sans-serif" font-size="14" lengthAdjust="spacing" textLength="83" x="327" y="1013.3496">name : Name</text><rect fill="none" height="6" style="stroke:#C82930;stroke-width:1.0;" width="6" x="315" y="1024.6738"/><text fill="#000000" font-family="sans-serif" font-size="14" lengthAdjust="spacing" textLength="131" x="327" y="1031.9707">email : EmailAddress</text><line style="stroke:#181818;stroke-width:0.5;" x1="308" x2="477" y1="1039.4844" y2="1039.4844"/><ellipse cx="318" cy="1054.2949" fill="#84BE84" rx="3" ry="3" style="stroke:#038048;stroke-width:1.0;"/><text fill="#000000" font-family="sans-serif" font-size="14" lengthAdjust="spacing" textLength="131" x="327" y="1058.5918">identity() : Username</text><ellipse cx="318" cy="1072.916" fill="#84BE84" rx="3" ry="3" style="stroke:#038048;stroke-width:1.0;"/><text fill="#000000" font-family="sans-serif" font-size="14" lengthAdjust="spacing" textLength="145" x="327" y="1077.2129">email()  : EmailAddress</text><ellipse cx="318" cy="1091.5371" fill="#84BE84" rx="3" ry="3" style="stroke:#038048;stroke-width:1.0;"/><text fill="#000000" font-family="sans-serif" font-size="14" lengthAdjust="spacing" textLength="93" x="327" y="1095.834">name() : Name</text></g><!--class Name--><g id="elem_Name"><rect codeLine="34" fill="#F1F1F1" height="122.4844" id="Name" rx="2.5" ry="2.5" style="stroke:#181818;stroke-width:0.5;" width="144" x="347.5" y="1164.6211"/><ellipse cx="397.25" cy="1180.6211" fill="#ADD1B2" rx="11" ry="11" style="stroke:#181818;stroke-width:1.0;"/><path d="M400.0156,1176.4961 Q400.1719,1176.2773 400.3594,1176.168 Q400.5469,1176.0586 400.7656,1176.0586 Q401.1406,1176.0586 401.375,1176.3242 Q401.6094,1176.5742 401.6094,1177.1836 L401.6094,1178.6367 Q401.6094,1179.2461 401.375,1179.5117 Q401.1406,1179.7773 400.7656,1179.7773 Q400.4219,1179.7773 400.2188,1179.5742 Q400.0156,1179.3867 399.9063,1178.8711 Q399.8594,1178.5117 399.6719,1178.3242 Q399.3438,1177.9492 398.7344,1177.7305 Q398.125,1177.5117 397.5,1177.5117 Q396.7344,1177.5117 396.0938,1177.8398 Q395.4688,1178.168 394.9688,1178.918 Q394.4844,1179.668 394.4844,1180.6992 L394.4844,1181.793 Q394.4844,1183.0273 395.375,1183.8555 Q396.2656,1184.668 397.8594,1184.668 Q398.7969,1184.668 399.4531,1184.418 Q399.8438,1184.2617 400.2656,1183.8242 Q400.5313,1183.5586 400.6719,1183.4805 Q400.8281,1183.4023 401.0313,1183.4023 Q401.3594,1183.4023 401.6094,1183.668 Q401.875,1183.918 401.875,1184.2617 Q401.875,1184.6055 401.5313,1185.0117 Q401.0313,1185.5898 400.2344,1185.918 Q399.1563,1186.3711 397.8594,1186.3711 Q396.3438,1186.3711 395.1406,1185.7461 Q394.1563,1185.2461 393.4688,1184.1836 Q392.7813,1183.1055 392.7813,1181.8242 L392.7813,1180.668 Q392.7813,1179.3398 393.3906,1178.1992 Q394.0156,1177.043 395.1094,1176.4336 Q396.2031,1175.8086 397.4375,1175.8086 Q398.1719,1175.8086 398.8125,1175.9805 Q399.4688,1176.1367 400.0156,1176.4961 Z " fill="#000000"/><text fill="#000000" font-family="sans-serif" font-size="14" lengthAdjust="spacing" textLength="36" x="417.75" y="1186.418">Name</text><line style="stroke:#181818;stroke-width:0.5;" x1="348.5" x2="490.5" y1="1196.6211" y2="1196.6211"/><rect fill="none" height="6" style="stroke:#C82930;stroke-width:1.0;" width="6" x="355.5" y="1208.4316"/><text fill="#000000" font-family="sans-serif" font-size="14" lengthAdjust="spacing" textLength="108" x="367.5" y="1215.7285">firstName : String</text><rect fill="none" height="6" style="stroke:#C82930;stroke-width:1.0;" width="6" x="355.5" y="1227.0527"/><text fill="#000000" font-family="sans-serif" font-size="14" lengthAdjust="spacing" textLength="107" x="367.5" y="1234.3496">lastName : String</text><line style="stroke:#181818;stroke-width:0.5;" x1="348.5" x2="490.5" y1="1241.8633" y2="1241.8633"/><ellipse cx="358.5" cy="1256.6738" fill="#84BE84" rx="3" ry="3" style="stroke:#038048;stroke-width:1.0;"/><text fill="#000000" font-family="sans-serif" font-size="14" lengthAdjust="spacing" textLength="118" x="367.5" y="1260.9707">firstName() : String</text><ellipse cx="358.5" cy="1275.2949" fill="#84BE84" rx="3" ry="3" style="stroke:#038048;stroke-width:1.0;"/><text fill="#000000" font-family="sans-serif" font-size="14" lengthAdjust="spacing" textLength="117" x="367.5" y="1279.5918">lastName() : String</text></g><!--class DisplayCandidateDataUI--><g id="elem_DisplayCandidateDataUI"><rect codeLine="41" fill="#F1F1F1" height="66.6211" id="DisplayCandidateDataUI" rx="2.5" ry="2.5" style="stroke:#181818;stroke-width:0.5;" width="362" x="94.5" y="46.6211"/><ellipse cx="194.75" cy="62.6211" fill="#ADD1B2" rx="11" ry="11" style="stroke:#181818;stroke-width:1.0;"/><path d="M197.5156,58.4961 Q197.6719,58.2773 197.8594,58.168 Q198.0469,58.0586 198.2656,58.0586 Q198.6406,58.0586 198.875,58.3242 Q199.1094,58.5742 199.1094,59.1836 L199.1094,60.6367 Q199.1094,61.2461 198.875,61.5117 Q198.6406,61.7773 198.2656,61.7773 Q197.9219,61.7773 197.7188,61.5742 Q197.5156,61.3867 197.4063,60.8711 Q197.3594,60.5117 197.1719,60.3242 Q196.8438,59.9492 196.2344,59.7305 Q195.625,59.5117 195,59.5117 Q194.2344,59.5117 193.5938,59.8398 Q192.9688,60.168 192.4688,60.918 Q191.9844,61.668 191.9844,62.6992 L191.9844,63.793 Q191.9844,65.0273 192.875,65.8555 Q193.7656,66.668 195.3594,66.668 Q196.2969,66.668 196.9531,66.418 Q197.3438,66.2617 197.7656,65.8242 Q198.0313,65.5586 198.1719,65.4805 Q198.3281,65.4023 198.5313,65.4023 Q198.8594,65.4023 199.1094,65.668 Q199.375,65.918 199.375,66.2617 Q199.375,66.6055 199.0313,67.0117 Q198.5313,67.5898 197.7344,67.918 Q196.6563,68.3711 195.3594,68.3711 Q193.8438,68.3711 192.6406,67.7461 Q191.6563,67.2461 190.9688,66.1836 Q190.2813,65.1055 190.2813,63.8242 L190.2813,62.668 Q190.2813,61.3398 190.8906,60.1992 Q191.5156,59.043 192.6094,58.4336 Q193.7031,57.8086 194.9375,57.8086 Q195.6719,57.8086 196.3125,57.9805 Q196.9688,58.1367 197.5156,58.4961 Z " fill="#000000"/><text fill="#000000" font-family="sans-serif" font-size="14" lengthAdjust="spacing" textLength="153" x="215.25" y="68.418">DisplayCandidateDataUI</text><line style="stroke:#181818;stroke-width:0.5;" x1="95.5" x2="455.5" y1="78.6211" y2="78.6211"/><line style="stroke:#181818;stroke-width:0.5;" x1="95.5" x2="455.5" y1="86.6211" y2="86.6211"/><ellipse cx="105.5" cy="101.4316" fill="#84BE84" rx="3" ry="3" style="stroke:#038048;stroke-width:1.0;"/><text fill="#000000" font-family="sans-serif" font-size="14" lengthAdjust="spacing" textLength="336" x="114.5" y="105.7285">displayCandidatePersonalData(Candidate candidate)</text></g><!--class DisplayCandidateDataController--><g id="elem_DisplayCandidateDataController"><rect codeLine="46" fill="#F1F1F1" height="66.6211" id="DisplayCandidateDataController" rx="2.5" ry="2.5" style="stroke:#181818;stroke-width:0.5;" width="235" x="158" y="174.6211"/><ellipse cx="173" cy="190.6211" fill="#ADD1B2" rx="11" ry="11" style="stroke:#181818;stroke-width:1.0;"/><path d="M175.7656,186.4961 Q175.9219,186.2773 176.1094,186.168 Q176.2969,186.0586 176.5156,186.0586 Q176.8906,186.0586 177.125,186.3242 Q177.3594,186.5742 177.3594,187.1836 L177.3594,188.6367 Q177.3594,189.2461 177.125,189.5117 Q176.8906,189.7773 176.5156,189.7773 Q176.1719,189.7773 175.9688,189.5742 Q175.7656,189.3867 175.6563,188.8711 Q175.6094,188.5117 175.4219,188.3242 Q175.0938,187.9492 174.4844,187.7305 Q173.875,187.5117 173.25,187.5117 Q172.4844,187.5117 171.8438,187.8398 Q171.2188,188.168 170.7188,188.918 Q170.2344,189.668 170.2344,190.6992 L170.2344,191.793 Q170.2344,193.0273 171.125,193.8555 Q172.0156,194.668 173.6094,194.668 Q174.5469,194.668 175.2031,194.418 Q175.5938,194.2617 176.0156,193.8242 Q176.2813,193.5586 176.4219,193.4805 Q176.5781,193.4023 176.7813,193.4023 Q177.1094,193.4023 177.3594,193.668 Q177.625,193.918 177.625,194.2617 Q177.625,194.6055 177.2813,195.0117 Q176.7813,195.5898 175.9844,195.918 Q174.9063,196.3711 173.6094,196.3711 Q172.0938,196.3711 170.8906,195.7461 Q169.9063,195.2461 169.2188,194.1836 Q168.5313,193.1055 168.5313,191.8242 L168.5313,190.668 Q168.5313,189.3398 169.1406,188.1992 Q169.7656,187.043 170.8594,186.4336 Q171.9531,185.8086 173.1875,185.8086 Q173.9219,185.8086 174.5625,185.9805 Q175.2188,186.1367 175.7656,186.4961 Z " fill="#000000"/><text fill="#000000" font-family="sans-serif" font-size="14" lengthAdjust="spacing" textLength="203" x="187" y="196.418">DisplayCandidateDataController</text><line style="stroke:#181818;stroke-width:0.5;" x1="159" x2="392" y1="206.6211" y2="206.6211"/><line style="stroke:#181818;stroke-width:0.5;" x1="159" x2="392" y1="214.6211" y2="214.6211"/><ellipse cx="169" cy="229.4316" fill="#84BE84" rx="3" ry="3" style="stroke:#038048;stroke-width:1.0;"/><text fill="#000000" font-family="sans-serif" font-size="14" lengthAdjust="spacing" textLength="134" x="178" y="233.7285">allActiveCandidates()</text></g><!--class PersistenceContext--><g id="elem_PersistenceContext"><rect codeLine="50" fill="#F1F1F1" height="66.6211" id="PersistenceContext" rx="2.5" ry="2.5" style="stroke:#181818;stroke-width:0.5;" width="154" x="126.5" y="302.6211"/><ellipse cx="141.5" cy="318.6211" fill="#ADD1B2" rx="11" ry="11" style="stroke:#181818;stroke-width:1.0;"/><path d="M144.2656,314.4961 Q144.4219,314.2773 144.6094,314.168 Q144.7969,314.0586 145.0156,314.0586 Q145.3906,314.0586 145.625,314.3242 Q145.8594,314.5742 145.8594,315.1836 L145.8594,316.6367 Q145.8594,317.2461 145.625,317.5117 Q145.3906,317.7773 145.0156,317.7773 Q144.6719,317.7773 144.4688,317.5742 Q144.2656,317.3867 144.1563,316.8711 Q144.1094,316.5117 143.9219,316.3242 Q143.5938,315.9492 142.9844,315.7305 Q142.375,315.5117 141.75,315.5117 Q140.9844,315.5117 140.3438,315.8398 Q139.7188,316.168 139.2188,316.918 Q138.7344,317.668 138.7344,318.6992 L138.7344,319.793 Q138.7344,321.0273 139.625,321.8555 Q140.5156,322.668 142.1094,322.668 Q143.0469,322.668 143.7031,322.418 Q144.0938,322.2617 144.5156,321.8242 Q144.7813,321.5586 144.9219,321.4805 Q145.0781,321.4023 145.2813,321.4023 Q145.6094,321.4023 145.8594,321.668 Q146.125,321.918 146.125,322.2617 Q146.125,322.6055 145.7813,323.0117 Q145.2813,323.5898 144.4844,323.918 Q143.4063,324.3711 142.1094,324.3711 Q140.5938,324.3711 139.3906,323.7461 Q138.4063,323.2461 137.7188,322.1836 Q137.0313,321.1055 137.0313,319.8242 L137.0313,318.668 Q137.0313,317.3398 137.6406,316.1992 Q138.2656,315.043 139.3594,314.4336 Q140.4531,313.8086 141.6875,313.8086 Q142.4219,313.8086 143.0625,313.9805 Q143.7188,314.1367 144.2656,314.4961 Z " fill="#000000"/><text fill="#000000" font-family="sans-serif" font-size="14" lengthAdjust="spacing" textLength="122" x="155.5" y="324.418">PersistenceContext</text><line style="stroke:#181818;stroke-width:0.5;" x1="127.5" x2="279.5" y1="334.6211" y2="334.6211"/><line style="stroke:#181818;stroke-width:0.5;" x1="127.5" x2="279.5" y1="342.6211" y2="342.6211"/><ellipse cx="137.5" cy="357.4316" fill="#84BE84" rx="3" ry="3" style="stroke:#038048;stroke-width:1.0;"/><text fill="#000000" font-family="sans-serif" font-size="14" lengthAdjust="spacing" textLength="84" x="146.5" y="361.7285">repositories()</text></g><!--class RepositoryFactory--><g id="elem_RepositoryFactory"><rect codeLine="54" fill="#F1F1F1" height="85.2422" id="RepositoryFactory" rx="2.5" ry="2.5" style="stroke:#181818;stroke-width:0.5;" width="272" x="23.5" y="430.6211"/><ellipse cx="97.25" cy="446.6211" fill="#B4A7E5" rx="11" ry="11" style="stroke:#181818;stroke-width:1.0;"/><path d="M98.2031,443.2617 L98.2031,449.918 L99.9219,449.918 Q100.5313,449.918 100.7969,450.1523 Q101.0625,450.3867 101.0625,450.7773 Q101.0625,451.1523 100.7969,451.3867 Q100.5313,451.6211 99.9219,451.6211 L94.7813,451.6211 Q94.1719,451.6211 93.9063,451.3867 Q93.6406,451.1523 93.6406,450.7617 Q93.6406,450.3867 93.9063,450.1523 Q94.1719,449.918 94.7813,449.918 L96.5,449.918 L96.5,443.2617 L94.7813,443.2617 Q94.1719,443.2617 93.9063,443.0273 Q93.6406,442.793 93.6406,442.4023 Q93.6406,442.0273 93.9063,441.793 Q94.1719,441.5586 94.7813,441.5586 L99.9219,441.5586 Q100.5313,441.5586 100.7969,441.793 Q101.0625,442.0273 101.0625,442.4023 Q101.0625,442.793 100.7969,443.0273 Q100.5313,443.2617 99.9219,443.2617 L98.2031,443.2617 Z " fill="#000000"/><text fill="#000000" font-family="sans-serif" font-size="14" font-style="italic" lengthAdjust="spacing" textLength="116" x="117.75" y="452.418">RepositoryFactory</text><line style="stroke:#181818;stroke-width:0.5;" x1="24.5" x2="294.5" y1="462.6211" y2="462.6211"/><line style="stroke:#181818;stroke-width:0.5;" x1="24.5" x2="294.5" y1="470.6211" y2="470.6211"/><text fill="#000000" font-family="sans-serif" font-size="14" lengthAdjust="spacing" textLength="79" x="29.5" y="489.7285">candidates()</text><text fill="#000000" font-family="sans-serif" font-size="14" lengthAdjust="spacing" textLength="260" x="29.5" y="508.3496">candidates(TransactionalContext autoTx)</text></g><!--class CandidateRepository--><g id="elem_CandidateRepository"><rect codeLine="60" fill="#F1F1F1" height="66.6211" id="CandidateRepository" rx="2.5" ry="2.5" style="stroke:#181818;stroke-width:0.5;" width="165" x="171" y="576.6211"/><ellipse cx="186" cy="592.6211" fill="#B4A7E5" rx="11" ry="11" style="stroke:#181818;stroke-width:1.0;"/><path d="M186.9531,589.2617 L186.9531,595.918 L188.6719,595.918 Q189.2813,595.918 189.5469,596.1523 Q189.8125,596.3867 189.8125,596.7773 Q189.8125,597.1523 189.5469,597.3867 Q189.2813,597.6211 188.6719,597.6211 L183.5313,597.6211 Q182.9219,597.6211 182.6563,597.3867 Q182.3906,597.1523 182.3906,596.7617 Q182.3906,596.3867 182.6563,596.1523 Q182.9219,595.918 183.5313,595.918 L185.25,595.918 L185.25,589.2617 L183.5313,589.2617 Q182.9219,589.2617 182.6563,589.0273 Q182.3906,588.793 182.3906,588.4023 Q182.3906,588.0273 182.6563,587.793 Q182.9219,587.5586 183.5313,587.5586 L188.6719,587.5586 Q189.2813,587.5586 189.5469,587.793 Q189.8125,588.0273 189.8125,588.4023 Q189.8125,588.793 189.5469,589.0273 Q189.2813,589.2617 188.6719,589.2617 L186.9531,589.2617 Z " fill="#000000"/><text fill="#000000" font-family="sans-serif" font-size="14" font-style="italic" lengthAdjust="spacing" textLength="133" x="200" y="598.418">CandidateRepository</text><line style="stroke:#181818;stroke-width:0.5;" x1="172" x2="335" y1="608.6211" y2="608.6211"/><line style="stroke:#181818;stroke-width:0.5;" x1="172" x2="335" y1="616.6211" y2="616.6211"/><text fill="#000000" font-family="sans-serif" font-size="14" lengthAdjust="spacing" textLength="86" x="177" y="635.7285">findAllActive()</text></g><!--link Candidate to SystemUser--><g id="link_Candidate_SystemUser"><path codeLine="64" d="M303.68,882.6811 C316.2,902.4111 326.4134,918.5062 338.9434,938.2362 " fill="none" id="Candidate-to-SystemUser" style="stroke:#181818;stroke-width:1.0;"/><polygon fill="#181818" points="342.16,943.3011,340.7117,933.5593,339.4795,939.0803,333.9585,937.8481,342.16,943.3011" style="stroke:#181818;stroke-width:1.0;"/></g><!--link SystemUser to EmailAddress--><g id="link_SystemUser_EmailAddress"><path codeLine="66" d="M337.56,1103.6711 C316.16,1134.4611 296.2645,1163.0943 279.6245,1187.0343 " fill="none" id="SystemUser-to-EmailAddress" style="stroke:#181818;stroke-width:1.0;"/><polygon fill="#181818" points="276.2,1191.9611,284.6212,1186.8539,279.0537,1187.8554,278.0522,1182.288,276.2,1191.9611" style="stroke:#181818;stroke-width:1.0;"/></g><!--link SystemUser to Name--><g id="link_SystemUser_Name"><path codeLine="67" d="M403.17,1103.6711 C405.9,1123.8611 407.9895,1139.3147 410.5595,1158.4047 " fill="none" id="SystemUser-to-Name" style="stroke:#181818;stroke-width:1.0;"/><polygon fill="#181818" points="411.36,1164.3511,414.1234,1154.8979,410.6929,1159.3958,406.195,1155.9652,411.36,1164.3511" style="stroke:#181818;stroke-width:1.0;"/></g><!--link Candidate to EmailAddress--><g id="link_Candidate_EmailAddress"><path codeLine="68" d="M253.5,882.8111 C253.5,975.9411 253.5,1120.1711 253.5,1185.9811 " fill="none" id="Candidate-to-EmailAddress" style="stroke:#181818;stroke-width:1.0;"/><polygon fill="#181818" points="253.5,1191.9811,257.5,1182.9811,253.5,1186.9811,249.5,1182.9811,253.5,1191.9811" style="stroke:#181818;stroke-width:1.0;"/></g><!--link Candidate to PhoneNumber--><g id="link_Candidate_PhoneNumber"><path codeLine="69" d="M211.98,882.6811 C192.55,919.6811 173.2695,956.409 158.4295,984.669 " fill="none" id="Candidate-to-PhoneNumber" style="stroke:#181818;stroke-width:1.0;"/><polygon fill="#181818" points="155.64,989.9811,163.3657,983.8726,157.9646,985.5543,156.2829,980.1532,155.64,989.9811" style="stroke:#181818;stroke-width:1.0;"/></g><!--link DisplayCandidateDataUI to DisplayCandidateDataController--><g id="link_DisplayCandidateDataUI_DisplayCandidateDataController"><path codeLine="71" d="M275.5,113.9011 C275.5,132.5611 275.5,149.8711 275.5,168.5111 " fill="none" id="DisplayCandidateDataUI-to-DisplayCandidateDataController" style="stroke:#181818;stroke-width:1.0;stroke-dasharray:7.0,7.0;"/><polygon fill="#181818" points="275.5,174.5111,279.5,165.5111,275.5,169.5111,271.5,165.5111,275.5,174.5111" style="stroke:#181818;stroke-width:1.0;"/></g><!--link DisplayCandidateDataController to CandidateRepository--><g id="link_DisplayCandidateDataController_CandidateRepository"><path codeLine="73" d="M287.87,242.0211 C307.41,298.9011 340.49,418.8211 312.5,515.6211 C306.16,537.5611 296.4785,554.451 284.1785,571.441 " fill="none" id="DisplayCandidateDataController-to-CandidateRepository" style="stroke:#181818;stroke-width:1.0;stroke-dasharray:7.0,7.0;"/><polygon fill="#181818" points="280.66,576.3011,289.1778,571.3566,283.5921,572.251,282.6977,566.6653,280.66,576.3011" style="stroke:#181818;stroke-width:1.0;"/></g><!--link CandidateRepository to Candidate--><g id="link_CandidateRepository_Candidate"><path codeLine="75" d="M253.5,643.8711 C253.5,665.5711 253.5,689.0211 253.5,716.6011 " fill="none" id="CandidateRepository-to-Candidate" style="stroke:#181818;stroke-width:1.0;"/><polygon fill="#181818" points="253.5,722.6011,257.5,713.6011,253.5,717.6011,249.5,713.6011,253.5,722.6011" style="stroke:#181818;stroke-width:1.0;"/><text fill="#000000" font-family="sans-serif" font-size="13" lengthAdjust="spacing" textLength="36" x="254.5" y="688.6494">stores</text><text fill="#000000" font-family="sans-serif" font-size="13" lengthAdjust="spacing" textLength="5" x="248.2695" y="711.495">*</text></g><!--link DisplayCandidateDataController to PersistenceContext--><g id="link_DisplayCandidateDataController_PersistenceContext"><path codeLine="77" d="M256.77,241.9011 C246.1,260.5611 235.7665,278.6615 225.1165,297.3015 " fill="none" id="DisplayCandidateDataController-to-PersistenceContext" style="stroke:#181818;stroke-width:1.0;stroke-dasharray:7.0,7.0;"/><polygon fill="#181818" points="222.14,302.5111,230.0779,296.681,224.6204,298.1697,223.1317,292.7123,222.14,302.5111" style="stroke:#181818;stroke-width:1.0;"/></g><!--link PersistenceContext to RepositoryFactory--><g id="link_PersistenceContext_RepositoryFactory"><path codeLine="79" d="M192.85,369.8011 C186.9,388.0611 181.2805,405.2968 174.9105,424.8268 " fill="none" id="PersistenceContext-to-RepositoryFactory" style="stroke:#181818;stroke-width:1.0;"/><polygon fill="#181818" points="173.05,430.5311,179.6436,423.2151,174.6004,425.7776,172.038,420.7344,173.05,430.5311" style="stroke:#181818;stroke-width:1.0;"/></g><!--link RepositoryFactory to CandidateRepository--><g id="link_RepositoryFactory_CandidateRepository"><path codeLine="82" d="M188.47,515.7311 C202.06,535.2511 214.601,553.2575 227.311,571.5075 " fill="none" id="RepositoryFactory-to-CandidateRepository" style="stroke:#181818;stroke-width:1.0;stroke-dasharray:7.0,7.0;"/><polygon fill="#181818" points="230.74,576.4311,228.8789,566.7597,227.8825,572.3281,222.3141,571.3317,230.74,576.4311" style="stroke:#181818;stroke-width:1.0;"/></g><!--SRC=[ZLDDJyCm3BtdLrWx3QgYSU700MaQ8Eqo8M0_83JU5YbDfoH3J1F_7ITjavIEZrqM-pq_lyIkaquXJDOlrxFP3PHmB-rUyIDmfS3j4FPeRAEv0i4TXsO372gkXQGG9x1Gt5gguLl3QyQg43xj6eshG_s6viHA7Gvm2o_EIBrbduprn4KlH3Hxj0xhjMsfCM3bFgaHaccpKWhAFDHSghaG1grbh3XGqVHYg55a6W7BLOejkgK8wO7KP-yopv9HG1yFxzCIKqUYUH-QrqZ4TNUajsWJgn3qEeEk1KY1sabt38vYQT6sfUIumXC2E-X6tpuY8njfh5krZJlBGB-IE6VIHQItZvWXVK4En6RTsiI9tjEsh9Sd6eZuXZnr2-KPqvXDItNnk-YYqSuqIlb7BcX9vvMJxnWfTfhL-rQIPg8hz6NuuQZ6uBwnqZL6zcH9aDdm2k6vnuwFlF9_9rRbobdmQhYsH9B-Bfqwy8DhNZ-2QAOQpINv4zj8BUQz_TP7UeoolCltbwLpW0Rp_uQ57HWg3UX3AFyGsFaPmjNLtH-JE5-Qy21nvXMoAwTay3MvdAG2kBK4eFrNc_7C6HldGfFHj6bgezoFthy0]--></g></svg>