<?xml version="1.0" encoding="us-ascii" standalone="no"?><svg xmlns="http://www.w3.org/2000/svg" xmlns:xlink="http://www.w3.org/1999/xlink" contentStyleType="text/css" height="699px" preserveAspectRatio="none" style="width:1156px;height:699px;background:#FFFFFF;" version="1.1" viewBox="0 0 1156 699" width="1156px" zoomAndPan="magnify"><defs/><g><text fill="#000000" font-family="sans-serif" font-size="14" font-weight="bold" lengthAdjust="spacing" textLength="945" x="104.5" y="30.1074">"US 3003 - As Customer, I want to be notified in my application when the state (phase) of my job openings changes." Sequence Diagram</text><rect fill="#FFFFFF" height="386.1523" style="stroke:#181818;stroke-width:1.0;" width="10" x="175" y="186.4453"/><rect fill="#FFFFFF" height="218.6973" style="stroke:#181818;stroke-width:1.0;" width="10" x="442" y="285.3184"/><rect fill="#FFFFFF" height="156.1152" style="stroke:#181818;stroke-width:1.0;" width="10" x="679" y="316.6094"/><rect fill="#FFFFFF" height="31.291" style="stroke:#181818;stroke-width:1.0;" width="10" x="821.5" y="410.1426"/><rect fill="#FFFFFF" height="31.291" style="stroke:#181818;stroke-width:1.0;" width="10" x="935" y="222.7363"/><line style="stroke:#181818;stroke-width:0.5;stroke-dasharray:5.0,5.0;" x1="179.5" x2="179.5" y1="113.8633" y2="628.8887"/><line style="stroke:#181818;stroke-width:0.5;stroke-dasharray:5.0,5.0;" x1="446.5" x2="446.5" y1="113.8633" y2="628.8887"/><line style="stroke:#181818;stroke-width:0.5;stroke-dasharray:5.0,5.0;" x1="684" x2="684" y1="113.8633" y2="628.8887"/><line style="stroke:#181818;stroke-width:0.5;stroke-dasharray:5.0,5.0;" x1="826" x2="826" y1="365.7305" y2="628.8887"/><line style="stroke:#181818;stroke-width:0.5;stroke-dasharray:5.0,5.0;" x1="940" x2="940" y1="113.8633" y2="628.8887"/><line style="stroke:#181818;stroke-width:0.5;stroke-dasharray:5.0,5.0;" x1="1072" x2="1072" y1="113.8633" y2="628.8887"/><rect fill="#E3E3E3" height="51.2422" rx="2.5" ry="2.5" style="stroke:#181818;stroke-width:0.5;" width="103" x="128.5" y="61.6211"/><text fill="#000000" font-family="sans-serif" font-size="14" font-style="italic" lengthAdjust="spacing" textLength="62" x="149" y="83.7285">&#171;System&#187;</text><text fill="#000000" font-family="sans-serif" font-size="14" lengthAdjust="spacing" textLength="89" x="135.5" y="102.3496">:ClientHandler</text><rect fill="#E3E3E3" height="51.2422" rx="2.5" ry="2.5" style="stroke:#181818;stroke-width:0.5;" width="103" x="128.5" y="627.8887"/><text fill="#000000" font-family="sans-serif" font-size="14" font-style="italic" lengthAdjust="spacing" textLength="62" x="149" y="649.9961">&#171;System&#187;</text><text fill="#000000" font-family="sans-serif" font-size="14" lengthAdjust="spacing" textLength="89" x="135.5" y="668.6172">:ClientHandler</text><text fill="#000000" font-family="sans-serif" font-size="14" font-style="italic" lengthAdjust="spacing" textLength="84" x="402" y="91.7285">&#171;application&#187;</text><text fill="#000000" font-family="sans-serif" font-size="14" lengthAdjust="spacing" textLength="127" x="380.5" y="110.3496">:NotifyReqController</text><ellipse cx="447" cy="60.6211" fill="#E3E3E3" rx="12" ry="12" style="stroke:#181818;stroke-width:0.5;"/><polygon fill="#181818" points="443,48.6211,449,43.6211,447,48.6211,449,53.6211,443,48.6211" style="stroke:#181818;stroke-width:1.0;"/><text fill="#000000" font-family="sans-serif" font-size="14" font-style="italic" lengthAdjust="spacing" textLength="84" x="402" y="642.9961">&#171;application&#187;</text><text fill="#000000" font-family="sans-serif" font-size="14" lengthAdjust="spacing" textLength="127" x="380.5" y="661.6172">:NotifyReqController</text><ellipse cx="447" cy="681.1309" fill="#E3E3E3" rx="12" ry="12" style="stroke:#181818;stroke-width:0.5;"/><polygon fill="#181818" points="443,669.1309,449,664.1309,447,669.1309,449,674.1309,443,669.1309" style="stroke:#181818;stroke-width:1.0;"/><rect fill="#E3E3E3" height="51.2422" rx="2.5" ry="2.5" style="stroke:#181818;stroke-width:0.5;" width="134" x="617" y="61.6211"/><text fill="#000000" font-family="sans-serif" font-size="14" font-style="italic" lengthAdjust="spacing" textLength="62" x="653" y="83.7285">&#171;domain&#187;</text><text fill="#000000" font-family="sans-serif" font-size="14" lengthAdjust="spacing" textLength="120" x="624" y="102.3496">:NotificationService</text><rect fill="#E3E3E3" height="51.2422" rx="2.5" ry="2.5" style="stroke:#181818;stroke-width:0.5;" width="134" x="617" y="627.8887"/><text fill="#000000" font-family="sans-serif" font-size="14" font-style="italic" lengthAdjust="spacing" textLength="62" x="653" y="649.9961">&#171;domain&#187;</text><text fill="#000000" font-family="sans-serif" font-size="14" lengthAdjust="spacing" textLength="120" x="624" y="668.6172">:NotificationService</text><rect fill="#E3E3E3" height="51.2422" rx="2.5" ry="2.5" style="stroke:#181818;stroke-width:0.5;" width="117" x="768" y="627.8887"/><text fill="#000000" font-family="sans-serif" font-size="14" font-style="italic" lengthAdjust="spacing" textLength="62" x="795.5" y="649.9961">&#171;domain&#187;</text><text fill="#000000" font-family="sans-serif" font-size="14" lengthAdjust="spacing" textLength="103" x="775" y="668.6172">:NotificationDTO</text><rect fill="#E3E3E3" height="51.2422" rx="2.5" ry="2.5" style="stroke:#181818;stroke-width:0.5;" width="90" x="895" y="61.6211"/><text fill="#000000" font-family="sans-serif" font-size="14" font-style="italic" lengthAdjust="spacing" textLength="62" x="909" y="83.7285">&#171;domain&#187;</text><text fill="#000000" font-family="sans-serif" font-size="14" lengthAdjust="spacing" textLength="76" x="902" y="102.3496">:SerializeUtil</text><rect fill="#E3E3E3" height="51.2422" rx="2.5" ry="2.5" style="stroke:#181818;stroke-width:0.5;" width="90" x="895" y="627.8887"/><text fill="#000000" font-family="sans-serif" font-size="14" font-style="italic" lengthAdjust="spacing" textLength="62" x="909" y="649.9961">&#171;domain&#187;</text><text fill="#000000" font-family="sans-serif" font-size="14" lengthAdjust="spacing" textLength="76" x="902" y="668.6172">:SerializeUtil</text><rect fill="#E3E3E3" height="51.2422" rx="2.5" ry="2.5" style="stroke:#181818;stroke-width:0.5;" width="155" x="995" y="61.6211"/><text fill="#000000" font-family="sans-serif" font-size="14" font-style="italic" lengthAdjust="spacing" textLength="79" x="1033" y="83.7285">&#171;repository&#187;</text><text fill="#000000" font-family="sans-serif" font-size="14" lengthAdjust="spacing" textLength="141" x="1002" y="102.3496">:NotificationRepository</text><rect fill="#E3E3E3" height="51.2422" rx="2.5" ry="2.5" style="stroke:#181818;stroke-width:0.5;" width="155" x="995" y="627.8887"/><text fill="#000000" font-family="sans-serif" font-size="14" font-style="italic" lengthAdjust="spacing" textLength="79" x="1033" y="649.9961">&#171;repository&#187;</text><text fill="#000000" font-family="sans-serif" font-size="14" lengthAdjust="spacing" textLength="141" x="1002" y="668.6172">:NotificationRepository</text><rect fill="#FFFFFF" height="386.1523" style="stroke:#181818;stroke-width:1.0;" width="10" x="175" y="186.4453"/><rect fill="#FFFFFF" height="218.6973" style="stroke:#181818;stroke-width:1.0;" width="10" x="442" y="285.3184"/><rect fill="#FFFFFF" height="156.1152" style="stroke:#181818;stroke-width:1.0;" width="10" x="679" y="316.6094"/><rect fill="#FFFFFF" height="31.291" style="stroke:#181818;stroke-width:1.0;" width="10" x="821.5" y="410.1426"/><rect fill="#FFFFFF" height="31.291" style="stroke:#181818;stroke-width:1.0;" width="10" x="935" y="222.7363"/><polygon fill="#181818" points="168,143.1543,178,147.1543,168,151.1543,172,147.1543" style="stroke:#181818;stroke-width:1.0;"/><line style="stroke:#181818;stroke-width:1.0;" x1="0" x2="174" y1="147.1543" y2="147.1543"/><text fill="#000000" font-family="sans-serif" font-size="13" font-weight="bold" lengthAdjust="spacing" textLength="7" x="7" y="141.8916">1</text><text fill="#000000" font-family="sans-serif" font-size="13" lengthAdjust="spacing" textLength="131" x="18" y="141.8916">(tcp) maskAsReadRep</text><line style="stroke:#181818;stroke-width:1.0;" x1="180" x2="227" y1="173.4453" y2="173.4453"/><line style="stroke:#181818;stroke-width:1.0;" x1="227" x2="227" y1="173.4453" y2="186.4453"/><line style="stroke:#181818;stroke-width:1.0;" x1="186" x2="227" y1="186.4453" y2="186.4453"/><polygon fill="#181818" points="196,182.4453,186,186.4453,196,190.4453,192,186.4453" style="stroke:#181818;stroke-width:1.0;"/><text fill="#000000" font-family="sans-serif" font-size="13" font-weight="bold" lengthAdjust="spacing" textLength="7" x="192" y="168.1826">2</text><text fill="#000000" font-family="sans-serif" font-size="13" lengthAdjust="spacing" textLength="218" x="203" y="168.1826">maskAsReadRep(version, code, data)</text><polygon fill="#181818" points="923,218.7363,933,222.7363,923,226.7363,927,222.7363" style="stroke:#181818;stroke-width:1.0;"/><line style="stroke:#181818;stroke-width:1.0;" x1="185" x2="929" y1="222.7363" y2="222.7363"/><text fill="#000000" font-family="sans-serif" font-size="13" font-weight="bold" lengthAdjust="spacing" textLength="7" x="192" y="217.4736">3</text><text fill="#000000" font-family="sans-serif" font-size="13" lengthAdjust="spacing" textLength="108" x="203" y="217.4736">deserializeObject()</text><polygon fill="#181818" points="196,250.0273,186,254.0273,196,258.0273,192,254.0273" style="stroke:#181818;stroke-width:1.0;"/><line style="stroke:#181818;stroke-width:1.0;stroke-dasharray:2.0,2.0;" x1="190" x2="939" y1="254.0273" y2="254.0273"/><text fill="#000000" font-family="sans-serif" font-size="13" font-weight="bold" lengthAdjust="spacing" textLength="7" x="202" y="248.7646">4</text><text fill="#000000" font-family="sans-serif" font-size="13" lengthAdjust="spacing" textLength="88" x="213" y="248.7646">notificationDTO</text><polygon fill="#181818" points="430,281.3184,440,285.3184,430,289.3184,434,285.3184" style="stroke:#181818;stroke-width:1.0;"/><line style="stroke:#181818;stroke-width:1.0;" x1="185" x2="436" y1="285.3184" y2="285.3184"/><text fill="#000000" font-family="sans-serif" font-size="13" font-weight="bold" lengthAdjust="spacing" textLength="7" x="192" y="280.0557">5</text><text fill="#000000" font-family="sans-serif" font-size="13" lengthAdjust="spacing" textLength="197" x="203" y="280.0557">maskAsReadRep(notificationDTO)</text><polygon fill="#181818" points="667,312.6094,677,316.6094,667,320.6094,671,316.6094" style="stroke:#181818;stroke-width:1.0;"/><line style="stroke:#181818;stroke-width:1.0;" x1="452" x2="673" y1="316.6094" y2="316.6094"/><text fill="#000000" font-family="sans-serif" font-size="13" font-weight="bold" lengthAdjust="spacing" textLength="7" x="459" y="311.3467">6</text><text fill="#000000" font-family="sans-serif" font-size="13" lengthAdjust="spacing" textLength="197" x="470" y="311.3467">maskAsReadRep(notificationDTO)</text><polygon fill="#181818" points="756,343.9004,766,347.9004,756,351.9004,760,347.9004" style="stroke:#181818;stroke-width:1.0;"/><line style="stroke:#181818;stroke-width:1.0;stroke-dasharray:2.0,2.0;" x1="689" x2="762" y1="347.9004" y2="347.9004"/><text fill="#000000" font-family="sans-serif" font-size="13" font-weight="bold" lengthAdjust="spacing" textLength="7" x="696" y="342.6377">7</text><text fill="#000000" font-family="sans-serif" font-size="13" lengthAdjust="spacing" textLength="44" x="707" y="342.6377">create()</text><rect fill="#E3E3E3" height="51.2422" rx="2.5" ry="2.5" style="stroke:#181818;stroke-width:0.5;" width="117" x="768" y="324.6094"/><text fill="#000000" font-family="sans-serif" font-size="14" font-style="italic" lengthAdjust="spacing" textLength="62" x="795.5" y="346.7168">&#171;domain&#187;</text><text fill="#000000" font-family="sans-serif" font-size="14" lengthAdjust="spacing" textLength="103" x="775" y="365.3379">:NotificationDTO</text><polygon fill="#181818" points="809.5,406.1426,819.5,410.1426,809.5,414.1426,813.5,410.1426" style="stroke:#181818;stroke-width:1.0;"/><line style="stroke:#181818;stroke-width:1.0;" x1="689" x2="815.5" y1="410.1426" y2="410.1426"/><text fill="#000000" font-family="sans-serif" font-size="13" font-weight="bold" lengthAdjust="spacing" textLength="7" x="696" y="404.8799">8</text><text fill="#000000" font-family="sans-serif" font-size="13" lengthAdjust="spacing" textLength="57" x="707" y="404.8799">toObject()</text><polygon fill="#181818" points="700,437.4336,690,441.4336,700,445.4336,696,441.4336" style="stroke:#181818;stroke-width:1.0;"/><line style="stroke:#181818;stroke-width:1.0;stroke-dasharray:2.0,2.0;" x1="694" x2="825.5" y1="441.4336" y2="441.4336"/><text fill="#000000" font-family="sans-serif" font-size="13" font-weight="bold" lengthAdjust="spacing" textLength="7" x="706" y="436.1709">9</text><text fill="#000000" font-family="sans-serif" font-size="13" lengthAdjust="spacing" textLength="24" x="717" y="436.1709">notif</text><polygon fill="#181818" points="463,468.7246,453,472.7246,463,476.7246,459,472.7246" style="stroke:#181818;stroke-width:1.0;"/><line style="stroke:#181818;stroke-width:1.0;stroke-dasharray:2.0,2.0;" x1="457" x2="683" y1="472.7246" y2="472.7246"/><text fill="#000000" font-family="sans-serif" font-size="13" font-weight="bold" lengthAdjust="spacing" textLength="14" x="469" y="467.4619">10</text><text fill="#000000" font-family="sans-serif" font-size="13" lengthAdjust="spacing" textLength="24" x="487" y="467.4619">notif</text><polygon fill="#181818" points="196,500.0156,186,504.0156,196,508.0156,192,504.0156" style="stroke:#181818;stroke-width:1.0;"/><line style="stroke:#181818;stroke-width:1.0;stroke-dasharray:2.0,2.0;" x1="190" x2="446" y1="504.0156" y2="504.0156"/><text fill="#000000" font-family="sans-serif" font-size="13" font-weight="bold" lengthAdjust="spacing" textLength="14" x="202" y="498.7529">11</text><text fill="#000000" font-family="sans-serif" font-size="13" lengthAdjust="spacing" textLength="24" x="220" y="498.7529">notif</text><polygon fill="#181818" points="1060.5,531.3066,1070.5,535.3066,1060.5,539.3066,1064.5,535.3066" style="stroke:#181818;stroke-width:1.0;"/><line style="stroke:#181818;stroke-width:1.0;" x1="185" x2="1066.5" y1="535.3066" y2="535.3066"/><text fill="#000000" font-family="sans-serif" font-size="13" font-weight="bold" lengthAdjust="spacing" textLength="14" x="192" y="530.0439">12</text><text fill="#000000" font-family="sans-serif" font-size="13" lengthAdjust="spacing" textLength="58" x="210" y="530.0439">save(notif)</text><line style="stroke:#181818;stroke-width:1.0;stroke-dasharray:2.0,2.0;" x1="185" x2="227" y1="571.5977" y2="571.5977"/><line style="stroke:#181818;stroke-width:1.0;stroke-dasharray:2.0,2.0;" x1="227" x2="227" y1="571.5977" y2="584.5977"/><line style="stroke:#181818;stroke-width:1.0;stroke-dasharray:2.0,2.0;" x1="180" x2="227" y1="584.5977" y2="584.5977"/><polygon fill="#181818" points="190,580.5977,180,584.5977,190,588.5977,186,584.5977" style="stroke:#181818;stroke-width:1.0;"/><text fill="#000000" font-family="sans-serif" font-size="13" font-weight="bold" lengthAdjust="spacing" textLength="14" x="192" y="566.335">13</text><text fill="#000000" font-family="sans-serif" font-size="13" lengthAdjust="spacing" textLength="225" x="210" y="566.335">maskAsReadResp(version, code, data)</text><polygon fill="#181818" points="11,606.8887,1,610.8887,11,614.8887,7,610.8887" style="stroke:#181818;stroke-width:1.0;"/><line style="stroke:#181818;stroke-width:1.0;stroke-dasharray:2.0,2.0;" x1="5" x2="179" y1="610.8887" y2="610.8887"/><text fill="#000000" font-family="sans-serif" font-size="13" font-weight="bold" lengthAdjust="spacing" textLength="14" x="17" y="605.626">14</text><text fill="#000000" font-family="sans-serif" font-size="13" lengthAdjust="spacing" textLength="138" x="35" y="605.626">(tcp) maskAsReadResp</text><!--SRC=[fLLTRjim37xNAOYy92cQe5lVZ290bsBOXg81qlK0Yit4Ict9bPHssNLsb5rib1pPiZCN0-OyH1BvaH_57vbd8IkkUGcbaYhDjIeHh3uWCusaukapt-6ZFHO86bFBvQw85KpEC_Kcv0wsl33863zO9G_b1ZLZLbY2ZPuUuVhgwXfcS6jWUJ2M7EbB-0flN5gm2ZO8Kbcn5PY1a50UWLTL8L9kXPBmbgC4coCOoot2fCgvmIcehLFSgmse2YKnC93cH0_DV0IF-790cIBS2RuZdcoSYmnXgvJTg1_CVSJVYbHKZiCeMHO2fVt2PLQW7W4tP4A_eeQRcyUZiLWk5YnLqcfLaFQ3OtjSuykoFWgOvVVrFI4YzWJhEYApWXVY9pvPKGH7xGcXCrLouO0zf7TwCkl8YHGRehIEaSF0k-yh3wB_633k8hwfpMqRmnehPOHL-kYXxPOiw6RpFv4EyptttNTAtsmHifN0nARL54fkdc_D6db62CPEujcYKUieJEZCaBDBI5M6bv1nowSCU6h5gokv6aLc83OKXP90XYQSh3PxQfJ9rEl7Dbf0CDMUpE8OP3TXNZl3GLE1awk-VcGzKuvKOyVfCpRs_-SHKIDJurc7nUo9efjCvqZvAYYoCQ46w3ZHMMI-BnBmSA_nJZGj7L_L_n1GDr44Sa65zMmHrMi2Mo6pJySbzRcWBECa3QkfmpI6Meod6-r3ecfk-qwZc7jXR0s80kpRAfIgWCHv7rsB0- -OU08xj0rfy-3dwsUbgKzNzV2Rx9jbdHvu9vfUF2UFL7VUxchRUWhwxuJJygLq991gTFTwJi8LykcCbh7RqpMaehw6I35oUpgjVm0eCt-HjEjHkBY8I4H29wECMTNfpou_Lf_r-FcIgoKzGYno7OgyqUxMU5sNlhR366fr8rNVb2v4aj6JAtQvTV6Q0prizlSlbRZTXpczaAvkDDXZHQyclNPQk7G1V9p3o0r8cgXoDu9cLjPYTs_EChN8NqTP0iqSwxIQyRr6l8RRlj_r8SYuVurBs7Yu-mCdD-U92dyziPYsOsvWY9k1ASvwQQ0v3ZUp6GHsv-y5SNJV7m00]--></g></svg>