<?xml version="1.0" encoding="us-ascii" standalone="no"?><svg xmlns="http://www.w3.org/2000/svg" xmlns:xlink="http://www.w3.org/1999/xlink" contentStyleType="text/css" height="742px" preserveAspectRatio="none" style="width:1592px;height:742px;background:#FFFFFF;" version="1.1" viewBox="0 0 1592 742" width="1592px" zoomAndPan="magnify"><defs/><g><!--cluster Job Opening Aggregate--><g id="cluster_Job Opening Aggregate"><path d="M8.5,6.0137 L176.5,6.0137 A3.75,3.75 0 0 1 179,8.5137 L186,30.6348 L1385.5,30.6348 A2.5,2.5 0 0 1 1388,33.1348 L1388,732.5137 A2.5,2.5 0 0 1 1385.5,735.0137 L8.5,735.0137 A2.5,2.5 0 0 1 6,732.5137 L6,8.5137 A2.5,2.5 0 0 1 8.5,6.0137 " fill="none" style="stroke:#000000;stroke-width:1.5;"/><line style="stroke:#000000;stroke-width:1.5;" x1="6" x2="186" y1="30.6348" y2="30.6348"/><text fill="#000000" font-family="sans-serif" font-size="14" font-weight="bold" lengthAdjust="spacing" textLength="167" x="10" y="23.1211">Job Opening Aggregate</text></g><!--cluster Notification Aggregate--><g id="cluster_Notification Aggregate"><path d="M1414.5,591.0137 L1572.5,591.0137 A3.75,3.75 0 0 1 1575,593.5137 L1582,615.6348 L1582.5,615.6348 A2.5,2.5 0 0 1 1585,618.1348 L1585,704.5137 A2.5,2.5 0 0 1 1582.5,707.0137 L1414.5,707.0137 A2.5,2.5 0 0 1 1412,704.5137 L1412,593.5137 A2.5,2.5 0 0 1 1414.5,591.0137 " fill="none" style="stroke:#000000;stroke-width:1.5;"/><line style="stroke:#000000;stroke-width:1.5;" x1="1412" x2="1582" y1="615.6348" y2="615.6348"/><text fill="#000000" font-family="sans-serif" font-size="14" font-weight="bold" lengthAdjust="spacing" textLength="157" x="1416" y="608.1211">Notification Aggregate</text></g><!--class RecruitmentProcess--><g id="elem_RecruitmentProcess"><rect codeLine="5" fill="#F1F1F1" height="81.8633" id="RecruitmentProcess" rx="2.5" ry="2.5" style="stroke:#181818;stroke-width:0.5;" width="159" x="833.5" y="439.0137"/><ellipse cx="848.5" cy="462.6348" fill="#ADD1B2" rx="11" ry="11" style="stroke:#181818;stroke-width:1.0;"/><path d="M851.2656,458.5098 Q851.4219,458.291 851.6094,458.1816 Q851.7969,458.0723 852.0156,458.0723 Q852.3906,458.0723 852.625,458.3379 Q852.8594,458.5879 852.8594,459.1973 L852.8594,460.6504 Q852.8594,461.2598 852.625,461.5254 Q852.3906,461.791 852.0156,461.791 Q851.6719,461.791 851.4688,461.5879 Q851.2656,461.4004 851.1563,460.8848 Q851.1094,460.5254 850.9219,460.3379 Q850.5938,459.9629 849.9844,459.7441 Q849.375,459.5254 848.75,459.5254 Q847.9844,459.5254 847.3438,459.8535 Q846.7188,460.1816 846.2188,460.9316 Q845.7344,461.6816 845.7344,462.7129 L845.7344,463.8066 Q845.7344,465.041 846.625,465.8691 Q847.5156,466.6816 849.1094,466.6816 Q850.0469,466.6816 850.7031,466.4316 Q851.0938,466.2754 851.5156,465.8379 Q851.7813,465.5723 851.9219,465.4941 Q852.0781,465.416 852.2813,465.416 Q852.6094,465.416 852.8594,465.6816 Q853.125,465.9316 853.125,466.2754 Q853.125,466.6191 852.7813,467.0254 Q852.2813,467.6035 851.4844,467.9316 Q850.4063,468.3848 849.1094,468.3848 Q847.5938,468.3848 846.3906,467.7598 Q845.4063,467.2598 844.7188,466.1973 Q844.0313,465.1191 844.0313,463.8379 L844.0313,462.6816 Q844.0313,461.3535 844.6406,460.2129 Q845.2656,459.0566 846.3594,458.4473 Q847.4531,457.8223 848.6875,457.8223 Q849.4219,457.8223 850.0625,457.9941 Q850.7188,458.1504 851.2656,458.5098 Z " fill="#000000"/><text fill="#000000" font-family="sans-serif" font-size="14" lengthAdjust="spacing" textLength="50" x="901" y="459.1211">&#171;entity&#187;</text><text fill="#000000" font-family="sans-serif" font-size="14" lengthAdjust="spacing" textLength="127" x="862.5" y="477.7422">RecruitmentProcess</text><line style="stroke:#181818;stroke-width:0.5;" x1="834.5" x2="991.5" y1="486.2559" y2="486.2559"/><text fill="#000000" font-family="sans-serif" font-size="14" lengthAdjust="spacing" textLength="119" x="839.5" y="505.3633">HasInterviewPhase</text><line style="stroke:#181818;stroke-width:0.5;" x1="834.5" x2="991.5" y1="512.877" y2="512.877"/></g><!--class Phase--><g id="elem_Phase"><rect codeLine="9" fill="#F1F1F1" height="119.1055" id="Phase" rx="2.5" ry="2.5" style="stroke:#181818;stroke-width:0.5;" width="87" x="348.5" y="600.0137"/><ellipse cx="365.75" cy="623.6348" fill="#ADD1B2" rx="11" ry="11" style="stroke:#181818;stroke-width:1.0;"/><path d="M368.5156,619.5098 Q368.6719,619.291 368.8594,619.1816 Q369.0469,619.0723 369.2656,619.0723 Q369.6406,619.0723 369.875,619.3379 Q370.1094,619.5879 370.1094,620.1973 L370.1094,621.6504 Q370.1094,622.2598 369.875,622.5254 Q369.6406,622.791 369.2656,622.791 Q368.9219,622.791 368.7188,622.5879 Q368.5156,622.4004 368.4063,621.8848 Q368.3594,621.5254 368.1719,621.3379 Q367.8438,620.9629 367.2344,620.7441 Q366.625,620.5254 366,620.5254 Q365.2344,620.5254 364.5938,620.8535 Q363.9688,621.1816 363.4688,621.9316 Q362.9844,622.6816 362.9844,623.7129 L362.9844,624.8066 Q362.9844,626.041 363.875,626.8691 Q364.7656,627.6816 366.3594,627.6816 Q367.2969,627.6816 367.9531,627.4316 Q368.3438,627.2754 368.7656,626.8379 Q369.0313,626.5723 369.1719,626.4941 Q369.3281,626.416 369.5313,626.416 Q369.8594,626.416 370.1094,626.6816 Q370.375,626.9316 370.375,627.2754 Q370.375,627.6191 370.0313,628.0254 Q369.5313,628.6035 368.7344,628.9316 Q367.6563,629.3848 366.3594,629.3848 Q364.8438,629.3848 363.6406,628.7598 Q362.6563,628.2598 361.9688,627.1973 Q361.2813,626.1191 361.2813,624.8379 L361.2813,623.6816 Q361.2813,622.3535 361.8906,621.2129 Q362.5156,620.0566 363.6094,619.4473 Q364.7031,618.8223 365.9375,618.8223 Q366.6719,618.8223 367.3125,618.9941 Q367.9688,619.1504 368.5156,619.5098 Z " fill="#000000"/><text fill="#000000" font-family="sans-serif" font-size="14" lengthAdjust="spacing" textLength="50" x="380.25" y="620.1211">&#171;entity&#187;</text><text fill="#000000" font-family="sans-serif" font-size="14" lengthAdjust="spacing" textLength="40" x="385.25" y="638.7422">Phase</text><line style="stroke:#181818;stroke-width:0.5;" x1="349.5" x2="434.5" y1="647.2559" y2="647.2559"/><text fill="#000000" font-family="sans-serif" font-size="14" lengthAdjust="spacing" textLength="75" x="354.5" y="666.3633">phaseName</text><text fill="#000000" font-family="sans-serif" font-size="14" lengthAdjust="spacing" textLength="58" x="354.5" y="684.9844">startDate</text><text fill="#000000" font-family="sans-serif" font-size="14" lengthAdjust="spacing" textLength="54" x="354.5" y="703.6055">endDate</text><line style="stroke:#181818;stroke-width:0.5;" x1="349.5" x2="434.5" y1="711.1191" y2="711.1191"/></g><!--class PhaseNames--><g id="elem_PhaseNames"><rect codeLine="15" fill="#F1F1F1" height="63.2422" id="PhaseNames" rx="2.5" ry="2.5" style="stroke:#181818;stroke-width:0.5;" width="124" x="1077" y="448.5137"/><ellipse cx="1092" cy="472.1348" fill="#ADD1B2" rx="11" ry="11" style="stroke:#181818;stroke-width:1.0;"/><path d="M1094.7656,468.0098 Q1094.9219,467.791 1095.1094,467.6816 Q1095.2969,467.5723 1095.5156,467.5723 Q1095.8906,467.5723 1096.125,467.8379 Q1096.3594,468.0879 1096.3594,468.6973 L1096.3594,470.1504 Q1096.3594,470.7598 1096.125,471.0254 Q1095.8906,471.291 1095.5156,471.291 Q1095.1719,471.291 1094.9688,471.0879 Q1094.7656,470.9004 1094.6563,470.3848 Q1094.6094,470.0254 1094.4219,469.8379 Q1094.0938,469.4629 1093.4844,469.2441 Q1092.875,469.0254 1092.25,469.0254 Q1091.4844,469.0254 1090.8438,469.3535 Q1090.2188,469.6816 1089.7188,470.4316 Q1089.2344,471.1816 1089.2344,472.2129 L1089.2344,473.3066 Q1089.2344,474.541 1090.125,475.3691 Q1091.0156,476.1816 1092.6094,476.1816 Q1093.5469,476.1816 1094.2031,475.9316 Q1094.5938,475.7754 1095.0156,475.3379 Q1095.2813,475.0723 1095.4219,474.9941 Q1095.5781,474.916 1095.7813,474.916 Q1096.1094,474.916 1096.3594,475.1816 Q1096.625,475.4316 1096.625,475.7754 Q1096.625,476.1191 1096.2813,476.5254 Q1095.7813,477.1035 1094.9844,477.4316 Q1093.9063,477.8848 1092.6094,477.8848 Q1091.0938,477.8848 1089.8906,477.2598 Q1088.9063,476.7598 1088.2188,475.6973 Q1087.5313,474.6191 1087.5313,473.3379 L1087.5313,472.1816 Q1087.5313,470.8535 1088.1406,469.7129 Q1088.7656,468.5566 1089.8594,467.9473 Q1090.9531,467.3223 1092.1875,467.3223 Q1092.9219,467.3223 1093.5625,467.4941 Q1094.2188,467.6504 1094.7656,468.0098 Z " fill="#000000"/><text fill="#000000" font-family="sans-serif" font-size="14" lengthAdjust="spacing" textLength="92" x="1106" y="468.6211">&#171;value object&#187;</text><text fill="#000000" font-family="sans-serif" font-size="14" lengthAdjust="spacing" textLength="83" x="1110.5" y="487.2422">PhaseNames</text><line style="stroke:#181818;stroke-width:0.5;" x1="1078" x2="1200" y1="495.7559" y2="495.7559"/><line style="stroke:#181818;stroke-width:0.5;" x1="1078" x2="1200" y1="503.7559" y2="503.7559"/></g><!--class ScreeningPhase--><g id="elem_ScreeningPhase"><rect codeLine="20" fill="#F1F1F1" height="63.2422" id="ScreeningPhase" rx="2.5" ry="2.5" style="stroke:#181818;stroke-width:0.5;" width="136" x="1236" y="448.5137"/><ellipse cx="1251" cy="472.1348" fill="#ADD1B2" rx="11" ry="11" style="stroke:#181818;stroke-width:1.0;"/><path d="M1253.7656,468.0098 Q1253.9219,467.791 1254.1094,467.6816 Q1254.2969,467.5723 1254.5156,467.5723 Q1254.8906,467.5723 1255.125,467.8379 Q1255.3594,468.0879 1255.3594,468.6973 L1255.3594,470.1504 Q1255.3594,470.7598 1255.125,471.0254 Q1254.8906,471.291 1254.5156,471.291 Q1254.1719,471.291 1253.9688,471.0879 Q1253.7656,470.9004 1253.6563,470.3848 Q1253.6094,470.0254 1253.4219,469.8379 Q1253.0938,469.4629 1252.4844,469.2441 Q1251.875,469.0254 1251.25,469.0254 Q1250.4844,469.0254 1249.8438,469.3535 Q1249.2188,469.6816 1248.7188,470.4316 Q1248.2344,471.1816 1248.2344,472.2129 L1248.2344,473.3066 Q1248.2344,474.541 1249.125,475.3691 Q1250.0156,476.1816 1251.6094,476.1816 Q1252.5469,476.1816 1253.2031,475.9316 Q1253.5938,475.7754 1254.0156,475.3379 Q1254.2813,475.0723 1254.4219,474.9941 Q1254.5781,474.916 1254.7813,474.916 Q1255.1094,474.916 1255.3594,475.1816 Q1255.625,475.4316 1255.625,475.7754 Q1255.625,476.1191 1255.2813,476.5254 Q1254.7813,477.1035 1253.9844,477.4316 Q1252.9063,477.8848 1251.6094,477.8848 Q1250.0938,477.8848 1248.8906,477.2598 Q1247.9063,476.7598 1247.2188,475.6973 Q1246.5313,474.6191 1246.5313,473.3379 L1246.5313,472.1816 Q1246.5313,470.8535 1247.1406,469.7129 Q1247.7656,468.5566 1248.8594,467.9473 Q1249.9531,467.3223 1251.1875,467.3223 Q1251.9219,467.3223 1252.5625,467.4941 Q1253.2188,467.6504 1253.7656,468.0098 Z " fill="#000000"/><text fill="#000000" font-family="sans-serif" font-size="14" lengthAdjust="spacing" textLength="50" x="1292" y="468.6211">&#171;entity&#187;</text><text fill="#000000" font-family="sans-serif" font-size="14" lengthAdjust="spacing" textLength="104" x="1265" y="487.2422">ScreeningPhase</text><line style="stroke:#181818;stroke-width:0.5;" x1="1237" x2="1371" y1="495.7559" y2="495.7559"/><line style="stroke:#181818;stroke-width:0.5;" x1="1237" x2="1371" y1="503.7559" y2="503.7559"/></g><!--class ResultPhase--><g id="elem_ResultPhase"><rect codeLine="24" fill="#F1F1F1" height="63.2422" id="ResultPhase" rx="2.5" ry="2.5" style="stroke:#181818;stroke-width:0.5;" width="112" x="181" y="448.5137"/><ellipse cx="196" cy="472.1348" fill="#ADD1B2" rx="11" ry="11" style="stroke:#181818;stroke-width:1.0;"/><path d="M198.7656,468.0098 Q198.9219,467.791 199.1094,467.6816 Q199.2969,467.5723 199.5156,467.5723 Q199.8906,467.5723 200.125,467.8379 Q200.3594,468.0879 200.3594,468.6973 L200.3594,470.1504 Q200.3594,470.7598 200.125,471.0254 Q199.8906,471.291 199.5156,471.291 Q199.1719,471.291 198.9688,471.0879 Q198.7656,470.9004 198.6563,470.3848 Q198.6094,470.0254 198.4219,469.8379 Q198.0938,469.4629 197.4844,469.2441 Q196.875,469.0254 196.25,469.0254 Q195.4844,469.0254 194.8438,469.3535 Q194.2188,469.6816 193.7188,470.4316 Q193.2344,471.1816 193.2344,472.2129 L193.2344,473.3066 Q193.2344,474.541 194.125,475.3691 Q195.0156,476.1816 196.6094,476.1816 Q197.5469,476.1816 198.2031,475.9316 Q198.5938,475.7754 199.0156,475.3379 Q199.2813,475.0723 199.4219,474.9941 Q199.5781,474.916 199.7813,474.916 Q200.1094,474.916 200.3594,475.1816 Q200.625,475.4316 200.625,475.7754 Q200.625,476.1191 200.2813,476.5254 Q199.7813,477.1035 198.9844,477.4316 Q197.9063,477.8848 196.6094,477.8848 Q195.0938,477.8848 193.8906,477.2598 Q192.9063,476.7598 192.2188,475.6973 Q191.5313,474.6191 191.5313,473.3379 L191.5313,472.1816 Q191.5313,470.8535 192.1406,469.7129 Q192.7656,468.5566 193.8594,467.9473 Q194.9531,467.3223 196.1875,467.3223 Q196.9219,467.3223 197.5625,467.4941 Q198.2188,467.6504 198.7656,468.0098 Z " fill="#000000"/><text fill="#000000" font-family="sans-serif" font-size="14" lengthAdjust="spacing" textLength="50" x="225" y="468.6211">&#171;entity&#187;</text><text fill="#000000" font-family="sans-serif" font-size="14" lengthAdjust="spacing" textLength="80" x="210" y="487.2422">ResultPhase</text><line style="stroke:#181818;stroke-width:0.5;" x1="182" x2="292" y1="495.7559" y2="495.7559"/><line style="stroke:#181818;stroke-width:0.5;" x1="182" x2="292" y1="503.7559" y2="503.7559"/></g><!--class AnalysisPhase--><g id="elem_AnalysisPhase"><rect codeLine="27" fill="#F1F1F1" height="63.2422" id="AnalysisPhase" rx="2.5" ry="2.5" style="stroke:#181818;stroke-width:0.5;" width="124" x="22" y="448.5137"/><ellipse cx="37" cy="472.1348" fill="#ADD1B2" rx="11" ry="11" style="stroke:#181818;stroke-width:1.0;"/><path d="M39.7656,468.0098 Q39.9219,467.791 40.1094,467.6816 Q40.2969,467.5723 40.5156,467.5723 Q40.8906,467.5723 41.125,467.8379 Q41.3594,468.0879 41.3594,468.6973 L41.3594,470.1504 Q41.3594,470.7598 41.125,471.0254 Q40.8906,471.291 40.5156,471.291 Q40.1719,471.291 39.9688,471.0879 Q39.7656,470.9004 39.6563,470.3848 Q39.6094,470.0254 39.4219,469.8379 Q39.0938,469.4629 38.4844,469.2441 Q37.875,469.0254 37.25,469.0254 Q36.4844,469.0254 35.8438,469.3535 Q35.2188,469.6816 34.7188,470.4316 Q34.2344,471.1816 34.2344,472.2129 L34.2344,473.3066 Q34.2344,474.541 35.125,475.3691 Q36.0156,476.1816 37.6094,476.1816 Q38.5469,476.1816 39.2031,475.9316 Q39.5938,475.7754 40.0156,475.3379 Q40.2813,475.0723 40.4219,474.9941 Q40.5781,474.916 40.7813,474.916 Q41.1094,474.916 41.3594,475.1816 Q41.625,475.4316 41.625,475.7754 Q41.625,476.1191 41.2813,476.5254 Q40.7813,477.1035 39.9844,477.4316 Q38.9063,477.8848 37.6094,477.8848 Q36.0938,477.8848 34.8906,477.2598 Q33.9063,476.7598 33.2188,475.6973 Q32.5313,474.6191 32.5313,473.3379 L32.5313,472.1816 Q32.5313,470.8535 33.1406,469.7129 Q33.7656,468.5566 34.8594,467.9473 Q35.9531,467.3223 37.1875,467.3223 Q37.9219,467.3223 38.5625,467.4941 Q39.2188,467.6504 39.7656,468.0098 Z " fill="#000000"/><text fill="#000000" font-family="sans-serif" font-size="14" lengthAdjust="spacing" textLength="50" x="72" y="468.6211">&#171;entity&#187;</text><text fill="#000000" font-family="sans-serif" font-size="14" lengthAdjust="spacing" textLength="92" x="51" y="487.2422">AnalysisPhase</text><line style="stroke:#181818;stroke-width:0.5;" x1="23" x2="145" y1="495.7559" y2="495.7559"/><line style="stroke:#181818;stroke-width:0.5;" x1="23" x2="145" y1="503.7559" y2="503.7559"/></g><!--class JobOpening--><g id="elem_JobOpening"><rect codeLine="31" fill="#F1F1F1" height="81.8633" id="JobOpening" rx="2.5" ry="2.5" style="stroke:#181818;stroke-width:0.5;" width="108" x="682" y="278.0137"/><ellipse cx="697" cy="310.9453" fill="#ADD1B2" rx="11" ry="11" style="stroke:#181818;stroke-width:1.0;"/><path d="M699.7656,306.8203 Q699.9219,306.6016 700.1094,306.4922 Q700.2969,306.3828 700.5156,306.3828 Q700.8906,306.3828 701.125,306.6484 Q701.3594,306.8984 701.3594,307.5078 L701.3594,308.9609 Q701.3594,309.5703 701.125,309.8359 Q700.8906,310.1016 700.5156,310.1016 Q700.1719,310.1016 699.9688,309.8984 Q699.7656,309.7109 699.6563,309.1953 Q699.6094,308.8359 699.4219,308.6484 Q699.0938,308.2734 698.4844,308.0547 Q697.875,307.8359 697.25,307.8359 Q696.4844,307.8359 695.8438,308.1641 Q695.2188,308.4922 694.7188,309.2422 Q694.2344,309.9922 694.2344,311.0234 L694.2344,312.1172 Q694.2344,313.3516 695.125,314.1797 Q696.0156,314.9922 697.6094,314.9922 Q698.5469,314.9922 699.2031,314.7422 Q699.5938,314.5859 700.0156,314.1484 Q700.2813,313.8828 700.4219,313.8047 Q700.5781,313.7266 700.7813,313.7266 Q701.1094,313.7266 701.3594,313.9922 Q701.625,314.2422 701.625,314.5859 Q701.625,314.9297 701.2813,315.3359 Q700.7813,315.9141 699.9844,316.2422 Q698.9063,316.6953 697.6094,316.6953 Q696.0938,316.6953 694.8906,316.0703 Q693.9063,315.5703 693.2188,314.5078 Q692.5313,313.4297 692.5313,312.1484 L692.5313,310.9922 Q692.5313,309.6641 693.1406,308.5234 Q693.7656,307.3672 694.8594,306.7578 Q695.9531,306.1328 697.1875,306.1328 Q697.9219,306.1328 698.5625,306.3047 Q699.2188,306.4609 699.7656,306.8203 Z " fill="#000000"/><text fill="#000000" font-family="sans-serif" font-size="14" lengthAdjust="spacing" textLength="41" x="728.5" y="298.1211">&#171;root&#187;</text><text fill="#000000" font-family="sans-serif" font-size="14" lengthAdjust="spacing" textLength="50" x="722" y="316.7422">&#171;entity&#187;</text><text fill="#000000" font-family="sans-serif" font-size="14" lengthAdjust="spacing" textLength="76" x="711" y="335.3633">JobOpening</text><line style="stroke:#181818;stroke-width:0.5;" x1="683" x2="789" y1="343.877" y2="343.877"/><line style="stroke:#181818;stroke-width:0.5;" x1="683" x2="789" y1="351.877" y2="351.877"/></g><!--class JogOpeningStatus--><g id="elem_JogOpeningStatus"><rect codeLine="36" fill="#F1F1F1" height="63.2422" id="JogOpeningStatus" rx="2.5" ry="2.5" style="stroke:#181818;stroke-width:0.5;" width="148" x="491" y="448.5137"/><ellipse cx="506" cy="472.1348" fill="#ADD1B2" rx="11" ry="11" style="stroke:#181818;stroke-width:1.0;"/><path d="M508.7656,468.0098 Q508.9219,467.791 509.1094,467.6816 Q509.2969,467.5723 509.5156,467.5723 Q509.8906,467.5723 510.125,467.8379 Q510.3594,468.0879 510.3594,468.6973 L510.3594,470.1504 Q510.3594,470.7598 510.125,471.0254 Q509.8906,471.291 509.5156,471.291 Q509.1719,471.291 508.9688,471.0879 Q508.7656,470.9004 508.6563,470.3848 Q508.6094,470.0254 508.4219,469.8379 Q508.0938,469.4629 507.4844,469.2441 Q506.875,469.0254 506.25,469.0254 Q505.4844,469.0254 504.8438,469.3535 Q504.2188,469.6816 503.7188,470.4316 Q503.2344,471.1816 503.2344,472.2129 L503.2344,473.3066 Q503.2344,474.541 504.125,475.3691 Q505.0156,476.1816 506.6094,476.1816 Q507.5469,476.1816 508.2031,475.9316 Q508.5938,475.7754 509.0156,475.3379 Q509.2813,475.0723 509.4219,474.9941 Q509.5781,474.916 509.7813,474.916 Q510.1094,474.916 510.3594,475.1816 Q510.625,475.4316 510.625,475.7754 Q510.625,476.1191 510.2813,476.5254 Q509.7813,477.1035 508.9844,477.4316 Q507.9063,477.8848 506.6094,477.8848 Q505.0938,477.8848 503.8906,477.2598 Q502.9063,476.7598 502.2188,475.6973 Q501.5313,474.6191 501.5313,473.3379 L501.5313,472.1816 Q501.5313,470.8535 502.1406,469.7129 Q502.7656,468.5566 503.8594,467.9473 Q504.9531,467.3223 506.1875,467.3223 Q506.9219,467.3223 507.5625,467.4941 Q508.2188,467.6504 508.7656,468.0098 Z " fill="#000000"/><text fill="#000000" font-family="sans-serif" font-size="14" lengthAdjust="spacing" textLength="92" x="532" y="468.6211">&#171;value object&#187;</text><text fill="#000000" font-family="sans-serif" font-size="14" lengthAdjust="spacing" textLength="116" x="520" y="487.2422">JogOpeningStatus</text><line style="stroke:#181818;stroke-width:0.5;" x1="492" x2="638" y1="495.7559" y2="495.7559"/><line style="stroke:#181818;stroke-width:0.5;" x1="492" x2="638" y1="503.7559" y2="503.7559"/></g><!--class ContractType--><g id="elem_ContractType"><rect codeLine="39" fill="#F1F1F1" height="63.2422" id="ContractType" rx="2.5" ry="2.5" style="stroke:#181818;stroke-width:0.5;" width="124" x="1083" y="89.5137"/><ellipse cx="1098" cy="113.1348" fill="#ADD1B2" rx="11" ry="11" style="stroke:#181818;stroke-width:1.0;"/><path d="M1100.7656,109.0098 Q1100.9219,108.791 1101.1094,108.6816 Q1101.2969,108.5723 1101.5156,108.5723 Q1101.8906,108.5723 1102.125,108.8379 Q1102.3594,109.0879 1102.3594,109.6973 L1102.3594,111.1504 Q1102.3594,111.7598 1102.125,112.0254 Q1101.8906,112.291 1101.5156,112.291 Q1101.1719,112.291 1100.9688,112.0879 Q1100.7656,111.9004 1100.6563,111.3848 Q1100.6094,111.0254 1100.4219,110.8379 Q1100.0938,110.4629 1099.4844,110.2441 Q1098.875,110.0254 1098.25,110.0254 Q1097.4844,110.0254 1096.8438,110.3535 Q1096.2188,110.6816 1095.7188,111.4316 Q1095.2344,112.1816 1095.2344,113.2129 L1095.2344,114.3066 Q1095.2344,115.541 1096.125,116.3691 Q1097.0156,117.1816 1098.6094,117.1816 Q1099.5469,117.1816 1100.2031,116.9316 Q1100.5938,116.7754 1101.0156,116.3379 Q1101.2813,116.0723 1101.4219,115.9941 Q1101.5781,115.916 1101.7813,115.916 Q1102.1094,115.916 1102.3594,116.1816 Q1102.625,116.4316 1102.625,116.7754 Q1102.625,117.1191 1102.2813,117.5254 Q1101.7813,118.1035 1100.9844,118.4316 Q1099.9063,118.8848 1098.6094,118.8848 Q1097.0938,118.8848 1095.8906,118.2598 Q1094.9063,117.7598 1094.2188,116.6973 Q1093.5313,115.6191 1093.5313,114.3379 L1093.5313,113.1816 Q1093.5313,111.8535 1094.1406,110.7129 Q1094.7656,109.5566 1095.8594,108.9473 Q1096.9531,108.3223 1098.1875,108.3223 Q1098.9219,108.3223 1099.5625,108.4941 Q1100.2188,108.6504 1100.7656,109.0098 Z " fill="#000000"/><text fill="#000000" font-family="sans-serif" font-size="14" lengthAdjust="spacing" textLength="92" x="1112" y="109.6211">&#171;value object&#187;</text><text fill="#000000" font-family="sans-serif" font-size="14" lengthAdjust="spacing" textLength="86" x="1115" y="128.2422">ContractType</text><line style="stroke:#181818;stroke-width:0.5;" x1="1084" x2="1206" y1="136.7559" y2="136.7559"/><line style="stroke:#181818;stroke-width:0.5;" x1="1084" x2="1206" y1="144.7559" y2="144.7559"/></g><!--class Mode--><g id="elem_Mode"><rect codeLine="42" fill="#F1F1F1" height="63.2422" id="Mode" rx="2.5" ry="2.5" style="stroke:#181818;stroke-width:0.5;" width="124" x="924" y="89.5137"/><ellipse cx="939" cy="113.1348" fill="#ADD1B2" rx="11" ry="11" style="stroke:#181818;stroke-width:1.0;"/><path d="M941.7656,109.0098 Q941.9219,108.791 942.1094,108.6816 Q942.2969,108.5723 942.5156,108.5723 Q942.8906,108.5723 943.125,108.8379 Q943.3594,109.0879 943.3594,109.6973 L943.3594,111.1504 Q943.3594,111.7598 943.125,112.0254 Q942.8906,112.291 942.5156,112.291 Q942.1719,112.291 941.9688,112.0879 Q941.7656,111.9004 941.6563,111.3848 Q941.6094,111.0254 941.4219,110.8379 Q941.0938,110.4629 940.4844,110.2441 Q939.875,110.0254 939.25,110.0254 Q938.4844,110.0254 937.8438,110.3535 Q937.2188,110.6816 936.7188,111.4316 Q936.2344,112.1816 936.2344,113.2129 L936.2344,114.3066 Q936.2344,115.541 937.125,116.3691 Q938.0156,117.1816 939.6094,117.1816 Q940.5469,117.1816 941.2031,116.9316 Q941.5938,116.7754 942.0156,116.3379 Q942.2813,116.0723 942.4219,115.9941 Q942.5781,115.916 942.7813,115.916 Q943.1094,115.916 943.3594,116.1816 Q943.625,116.4316 943.625,116.7754 Q943.625,117.1191 943.2813,117.5254 Q942.7813,118.1035 941.9844,118.4316 Q940.9063,118.8848 939.6094,118.8848 Q938.0938,118.8848 936.8906,118.2598 Q935.9063,117.7598 935.2188,116.6973 Q934.5313,115.6191 934.5313,114.3379 L934.5313,113.1816 Q934.5313,111.8535 935.1406,110.7129 Q935.7656,109.5566 936.8594,108.9473 Q937.9531,108.3223 939.1875,108.3223 Q939.9219,108.3223 940.5625,108.4941 Q941.2188,108.6504 941.7656,109.0098 Z " fill="#000000"/><text fill="#000000" font-family="sans-serif" font-size="14" lengthAdjust="spacing" textLength="92" x="953" y="109.6211">&#171;value object&#187;</text><text fill="#000000" font-family="sans-serif" font-size="14" lengthAdjust="spacing" textLength="35" x="981.5" y="128.2422">Mode</text><line style="stroke:#181818;stroke-width:0.5;" x1="925" x2="1047" y1="136.7559" y2="136.7559"/><line style="stroke:#181818;stroke-width:0.5;" x1="925" x2="1047" y1="144.7559" y2="144.7559"/></g><!--class JobFunction--><g id="elem_JobFunction"><rect codeLine="46" fill="#F1F1F1" height="63.2422" id="JobFunction" rx="2.5" ry="2.5" style="stroke:#181818;stroke-width:0.5;" width="124" x="765" y="89.5137"/><ellipse cx="780" cy="113.1348" fill="#ADD1B2" rx="11" ry="11" style="stroke:#181818;stroke-width:1.0;"/><path d="M782.7656,109.0098 Q782.9219,108.791 783.1094,108.6816 Q783.2969,108.5723 783.5156,108.5723 Q783.8906,108.5723 784.125,108.8379 Q784.3594,109.0879 784.3594,109.6973 L784.3594,111.1504 Q784.3594,111.7598 784.125,112.0254 Q783.8906,112.291 783.5156,112.291 Q783.1719,112.291 782.9688,112.0879 Q782.7656,111.9004 782.6563,111.3848 Q782.6094,111.0254 782.4219,110.8379 Q782.0938,110.4629 781.4844,110.2441 Q780.875,110.0254 780.25,110.0254 Q779.4844,110.0254 778.8438,110.3535 Q778.2188,110.6816 777.7188,111.4316 Q777.2344,112.1816 777.2344,113.2129 L777.2344,114.3066 Q777.2344,115.541 778.125,116.3691 Q779.0156,117.1816 780.6094,117.1816 Q781.5469,117.1816 782.2031,116.9316 Q782.5938,116.7754 783.0156,116.3379 Q783.2813,116.0723 783.4219,115.9941 Q783.5781,115.916 783.7813,115.916 Q784.1094,115.916 784.3594,116.1816 Q784.625,116.4316 784.625,116.7754 Q784.625,117.1191 784.2813,117.5254 Q783.7813,118.1035 782.9844,118.4316 Q781.9063,118.8848 780.6094,118.8848 Q779.0938,118.8848 777.8906,118.2598 Q776.9063,117.7598 776.2188,116.6973 Q775.5313,115.6191 775.5313,114.3379 L775.5313,113.1816 Q775.5313,111.8535 776.1406,110.7129 Q776.7656,109.5566 777.8594,108.9473 Q778.9531,108.3223 780.1875,108.3223 Q780.9219,108.3223 781.5625,108.4941 Q782.2188,108.6504 782.7656,109.0098 Z " fill="#000000"/><text fill="#000000" font-family="sans-serif" font-size="14" lengthAdjust="spacing" textLength="92" x="794" y="109.6211">&#171;value object&#187;</text><text fill="#000000" font-family="sans-serif" font-size="14" lengthAdjust="spacing" textLength="77" x="801.5" y="128.2422">JobFunction</text><line style="stroke:#181818;stroke-width:0.5;" x1="766" x2="888" y1="136.7559" y2="136.7559"/><line style="stroke:#181818;stroke-width:0.5;" x1="766" x2="888" y1="144.7559" y2="144.7559"/></g><!--class NumberOfVacancies--><g id="elem_NumberOfVacancies"><rect codeLine="50" fill="#F1F1F1" height="63.2422" id="NumberOfVacancies" rx="2.5" ry="2.5" style="stroke:#181818;stroke-width:0.5;" width="165" x="564.5" y="89.5137"/><ellipse cx="579.5" cy="113.1348" fill="#ADD1B2" rx="11" ry="11" style="stroke:#181818;stroke-width:1.0;"/><path d="M582.2656,109.0098 Q582.4219,108.791 582.6094,108.6816 Q582.7969,108.5723 583.0156,108.5723 Q583.3906,108.5723 583.625,108.8379 Q583.8594,109.0879 583.8594,109.6973 L583.8594,111.1504 Q583.8594,111.7598 583.625,112.0254 Q583.3906,112.291 583.0156,112.291 Q582.6719,112.291 582.4688,112.0879 Q582.2656,111.9004 582.1563,111.3848 Q582.1094,111.0254 581.9219,110.8379 Q581.5938,110.4629 580.9844,110.2441 Q580.375,110.0254 579.75,110.0254 Q578.9844,110.0254 578.3438,110.3535 Q577.7188,110.6816 577.2188,111.4316 Q576.7344,112.1816 576.7344,113.2129 L576.7344,114.3066 Q576.7344,115.541 577.625,116.3691 Q578.5156,117.1816 580.1094,117.1816 Q581.0469,117.1816 581.7031,116.9316 Q582.0938,116.7754 582.5156,116.3379 Q582.7813,116.0723 582.9219,115.9941 Q583.0781,115.916 583.2813,115.916 Q583.6094,115.916 583.8594,116.1816 Q584.125,116.4316 584.125,116.7754 Q584.125,117.1191 583.7813,117.5254 Q583.2813,118.1035 582.4844,118.4316 Q581.4063,118.8848 580.1094,118.8848 Q578.5938,118.8848 577.3906,118.2598 Q576.4063,117.7598 575.7188,116.6973 Q575.0313,115.6191 575.0313,114.3379 L575.0313,113.1816 Q575.0313,111.8535 575.6406,110.7129 Q576.2656,109.5566 577.3594,108.9473 Q578.4531,108.3223 579.6875,108.3223 Q580.4219,108.3223 581.0625,108.4941 Q581.7188,108.6504 582.2656,109.0098 Z " fill="#000000"/><text fill="#000000" font-family="sans-serif" font-size="14" lengthAdjust="spacing" textLength="92" x="614" y="109.6211">&#171;value object&#187;</text><text fill="#000000" font-family="sans-serif" font-size="14" lengthAdjust="spacing" textLength="129" x="597.5" y="128.2422">NumberOfVacancies</text><line style="stroke:#181818;stroke-width:0.5;" x1="565.5" x2="728.5" y1="136.7559" y2="136.7559"/><line style="stroke:#181818;stroke-width:0.5;" x1="565.5" x2="728.5" y1="144.7559" y2="144.7559"/></g><!--class Description--><g id="elem_Description"><rect codeLine="54" fill="#F1F1F1" height="63.2422" id="Description" rx="2.5" ry="2.5" style="stroke:#181818;stroke-width:0.5;" width="124" x="405" y="89.5137"/><ellipse cx="420" cy="113.1348" fill="#ADD1B2" rx="11" ry="11" style="stroke:#181818;stroke-width:1.0;"/><path d="M422.7656,109.0098 Q422.9219,108.791 423.1094,108.6816 Q423.2969,108.5723 423.5156,108.5723 Q423.8906,108.5723 424.125,108.8379 Q424.3594,109.0879 424.3594,109.6973 L424.3594,111.1504 Q424.3594,111.7598 424.125,112.0254 Q423.8906,112.291 423.5156,112.291 Q423.1719,112.291 422.9688,112.0879 Q422.7656,111.9004 422.6563,111.3848 Q422.6094,111.0254 422.4219,110.8379 Q422.0938,110.4629 421.4844,110.2441 Q420.875,110.0254 420.25,110.0254 Q419.4844,110.0254 418.8438,110.3535 Q418.2188,110.6816 417.7188,111.4316 Q417.2344,112.1816 417.2344,113.2129 L417.2344,114.3066 Q417.2344,115.541 418.125,116.3691 Q419.0156,117.1816 420.6094,117.1816 Q421.5469,117.1816 422.2031,116.9316 Q422.5938,116.7754 423.0156,116.3379 Q423.2813,116.0723 423.4219,115.9941 Q423.5781,115.916 423.7813,115.916 Q424.1094,115.916 424.3594,116.1816 Q424.625,116.4316 424.625,116.7754 Q424.625,117.1191 424.2813,117.5254 Q423.7813,118.1035 422.9844,118.4316 Q421.9063,118.8848 420.6094,118.8848 Q419.0938,118.8848 417.8906,118.2598 Q416.9063,117.7598 416.2188,116.6973 Q415.5313,115.6191 415.5313,114.3379 L415.5313,113.1816 Q415.5313,111.8535 416.1406,110.7129 Q416.7656,109.5566 417.8594,108.9473 Q418.9531,108.3223 420.1875,108.3223 Q420.9219,108.3223 421.5625,108.4941 Q422.2188,108.6504 422.7656,109.0098 Z " fill="#000000"/><text fill="#000000" font-family="sans-serif" font-size="14" lengthAdjust="spacing" textLength="92" x="434" y="109.6211">&#171;value object&#187;</text><text fill="#000000" font-family="sans-serif" font-size="14" lengthAdjust="spacing" textLength="71" x="444.5" y="128.2422">Description</text><line style="stroke:#181818;stroke-width:0.5;" x1="406" x2="528" y1="136.7559" y2="136.7559"/><line style="stroke:#181818;stroke-width:0.5;" x1="406" x2="528" y1="144.7559" y2="144.7559"/></g><!--class Address1--><g id="elem_Address1"><rect codeLine="59" fill="#F1F1F1" height="156.3477" id="Address1" rx="2.5" ry="2.5" style="stroke:#181818;stroke-width:0.5;" width="124" x="246" y="43.0137"/><ellipse cx="261" cy="66.6348" fill="#ADD1B2" rx="11" ry="11" style="stroke:#181818;stroke-width:1.0;"/><path d="M263.7656,62.5098 Q263.9219,62.291 264.1094,62.1816 Q264.2969,62.0723 264.5156,62.0723 Q264.8906,62.0723 265.125,62.3379 Q265.3594,62.5879 265.3594,63.1973 L265.3594,64.6504 Q265.3594,65.2598 265.125,65.5254 Q264.8906,65.791 264.5156,65.791 Q264.1719,65.791 263.9688,65.5879 Q263.7656,65.4004 263.6563,64.8848 Q263.6094,64.5254 263.4219,64.3379 Q263.0938,63.9629 262.4844,63.7441 Q261.875,63.5254 261.25,63.5254 Q260.4844,63.5254 259.8438,63.8535 Q259.2188,64.1816 258.7188,64.9316 Q258.2344,65.6816 258.2344,66.7129 L258.2344,67.8066 Q258.2344,69.041 259.125,69.8691 Q260.0156,70.6816 261.6094,70.6816 Q262.5469,70.6816 263.2031,70.4316 Q263.5938,70.2754 264.0156,69.8379 Q264.2813,69.5723 264.4219,69.4941 Q264.5781,69.416 264.7813,69.416 Q265.1094,69.416 265.3594,69.6816 Q265.625,69.9316 265.625,70.2754 Q265.625,70.6191 265.2813,71.0254 Q264.7813,71.6035 263.9844,71.9316 Q262.9063,72.3848 261.6094,72.3848 Q260.0938,72.3848 258.8906,71.7598 Q257.9063,71.2598 257.2188,70.1973 Q256.5313,69.1191 256.5313,67.8379 L256.5313,66.6816 Q256.5313,65.3535 257.1406,64.2129 Q257.7656,63.0566 258.8594,62.4473 Q259.9531,61.8223 261.1875,61.8223 Q261.9219,61.8223 262.5625,61.9941 Q263.2188,62.1504 263.7656,62.5098 Z " fill="#000000"/><text fill="#000000" font-family="sans-serif" font-size="14" lengthAdjust="spacing" textLength="92" x="275" y="63.1211">&#171;value object&#187;</text><text fill="#000000" font-family="sans-serif" font-size="14" lengthAdjust="spacing" textLength="52" x="295" y="81.7422">Address</text><line style="stroke:#181818;stroke-width:0.5;" x1="247" x2="369" y1="90.2559" y2="90.2559"/><text fill="#000000" font-family="sans-serif" font-size="14" lengthAdjust="spacing" textLength="38" x="252" y="109.3633">Street</text><text fill="#000000" font-family="sans-serif" font-size="14" lengthAdjust="spacing" textLength="24" x="252" y="127.9844">City</text><text fill="#000000" font-family="sans-serif" font-size="14" lengthAdjust="spacing" textLength="33" x="252" y="146.6055">State</text><text fill="#000000" font-family="sans-serif" font-size="14" lengthAdjust="spacing" textLength="50" x="252" y="165.2266">Country</text><text fill="#000000" font-family="sans-serif" font-size="14" lengthAdjust="spacing" textLength="50" x="252" y="183.8477">Zipcode</text><line style="stroke:#181818;stroke-width:0.5;" x1="247" x2="369" y1="191.3613" y2="191.3613"/></g><!--class JobReference--><g id="elem_JobReference"><rect codeLine="67" fill="#F1F1F1" height="81.8633" id="JobReference" rx="2.5" ry="2.5" style="stroke:#181818;stroke-width:0.5;" width="124" x="674" y="439.0137"/><ellipse cx="689" cy="471.9453" fill="#ADD1B2" rx="11" ry="11" style="stroke:#181818;stroke-width:1.0;"/><path d="M691.7656,467.8203 Q691.9219,467.6016 692.1094,467.4922 Q692.2969,467.3828 692.5156,467.3828 Q692.8906,467.3828 693.125,467.6484 Q693.3594,467.8984 693.3594,468.5078 L693.3594,469.9609 Q693.3594,470.5703 693.125,470.8359 Q692.8906,471.1016 692.5156,471.1016 Q692.1719,471.1016 691.9688,470.8984 Q691.7656,470.7109 691.6563,470.1953 Q691.6094,469.8359 691.4219,469.6484 Q691.0938,469.2734 690.4844,469.0547 Q689.875,468.8359 689.25,468.8359 Q688.4844,468.8359 687.8438,469.1641 Q687.2188,469.4922 686.7188,470.2422 Q686.2344,470.9922 686.2344,472.0234 L686.2344,473.1172 Q686.2344,474.3516 687.125,475.1797 Q688.0156,475.9922 689.6094,475.9922 Q690.5469,475.9922 691.2031,475.7422 Q691.5938,475.5859 692.0156,475.1484 Q692.2813,474.8828 692.4219,474.8047 Q692.5781,474.7266 692.7813,474.7266 Q693.1094,474.7266 693.3594,474.9922 Q693.625,475.2422 693.625,475.5859 Q693.625,475.9297 693.2813,476.3359 Q692.7813,476.9141 691.9844,477.2422 Q690.9063,477.6953 689.6094,477.6953 Q688.0938,477.6953 686.8906,477.0703 Q685.9063,476.5703 685.2188,475.5078 Q684.5313,474.4297 684.5313,473.1484 L684.5313,471.9922 Q684.5313,470.6641 685.1406,469.5234 Q685.7656,468.3672 686.8594,467.7578 Q687.9531,467.1328 689.1875,467.1328 Q689.9219,467.1328 690.5625,467.3047 Q691.2188,467.4609 691.7656,467.8203 Z " fill="#000000"/><text fill="#000000" font-family="sans-serif" font-size="14" lengthAdjust="spacing" textLength="92" x="703" y="459.1211">&#171;value object&#187;</text><text fill="#000000" font-family="sans-serif" font-size="14" lengthAdjust="spacing" textLength="70" x="714" y="477.7422">&#171;identifier&#187;</text><text fill="#000000" font-family="sans-serif" font-size="14" lengthAdjust="spacing" textLength="88" x="705" y="496.3633">JobReference</text><line style="stroke:#181818;stroke-width:0.5;" x1="675" x2="797" y1="504.877" y2="504.877"/><line style="stroke:#181818;stroke-width:0.5;" x1="675" x2="797" y1="512.877" y2="512.877"/></g><!--class InterviewPhase--><g id="elem_InterviewPhase"><rect codeLine="70" fill="#F1F1F1" height="63.2422" id="InterviewPhase" rx="2.5" ry="2.5" style="stroke:#181818;stroke-width:0.5;" width="127" x="328.5" y="448.5137"/><ellipse cx="343.5" cy="472.1348" fill="#ADD1B2" rx="11" ry="11" style="stroke:#181818;stroke-width:1.0;"/><path d="M346.2656,468.0098 Q346.4219,467.791 346.6094,467.6816 Q346.7969,467.5723 347.0156,467.5723 Q347.3906,467.5723 347.625,467.8379 Q347.8594,468.0879 347.8594,468.6973 L347.8594,470.1504 Q347.8594,470.7598 347.625,471.0254 Q347.3906,471.291 347.0156,471.291 Q346.6719,471.291 346.4688,471.0879 Q346.2656,470.9004 346.1563,470.3848 Q346.1094,470.0254 345.9219,469.8379 Q345.5938,469.4629 344.9844,469.2441 Q344.375,469.0254 343.75,469.0254 Q342.9844,469.0254 342.3438,469.3535 Q341.7188,469.6816 341.2188,470.4316 Q340.7344,471.1816 340.7344,472.2129 L340.7344,473.3066 Q340.7344,474.541 341.625,475.3691 Q342.5156,476.1816 344.1094,476.1816 Q345.0469,476.1816 345.7031,475.9316 Q346.0938,475.7754 346.5156,475.3379 Q346.7813,475.0723 346.9219,474.9941 Q347.0781,474.916 347.2813,474.916 Q347.6094,474.916 347.8594,475.1816 Q348.125,475.4316 348.125,475.7754 Q348.125,476.1191 347.7813,476.5254 Q347.2813,477.1035 346.4844,477.4316 Q345.4063,477.8848 344.1094,477.8848 Q342.5938,477.8848 341.3906,477.2598 Q340.4063,476.7598 339.7188,475.6973 Q339.0313,474.6191 339.0313,473.3379 L339.0313,472.1816 Q339.0313,470.8535 339.6406,469.7129 Q340.2656,468.5566 341.3594,467.9473 Q342.4531,467.3223 343.6875,467.3223 Q344.4219,467.3223 345.0625,467.4941 Q345.7188,467.6504 346.2656,468.0098 Z " fill="#000000"/><text fill="#000000" font-family="sans-serif" font-size="14" lengthAdjust="spacing" textLength="50" x="380" y="468.6211">&#171;entity&#187;</text><text fill="#000000" font-family="sans-serif" font-size="14" lengthAdjust="spacing" textLength="95" x="357.5" y="487.2422">InterviewPhase</text><line style="stroke:#181818;stroke-width:0.5;" x1="329.5" x2="454.5" y1="495.7559" y2="495.7559"/><line style="stroke:#181818;stroke-width:0.5;" x1="329.5" x2="454.5" y1="503.7559" y2="503.7559"/></g><!--class Notification--><g id="elem_Notification"><rect codeLine="77" fill="#F1F1F1" height="63.2422" id="Notification" rx="2.5" ry="2.5" style="stroke:#181818;stroke-width:0.5;" width="101" x="1428.5" y="628.0137"/><ellipse cx="1443.5" cy="651.6348" fill="#ADD1B2" rx="11" ry="11" style="stroke:#181818;stroke-width:1.0;"/><path d="M1446.2656,647.5098 Q1446.4219,647.291 1446.6094,647.1816 Q1446.7969,647.0723 1447.0156,647.0723 Q1447.3906,647.0723 1447.625,647.3379 Q1447.8594,647.5879 1447.8594,648.1973 L1447.8594,649.6504 Q1447.8594,650.2598 1447.625,650.5254 Q1447.3906,650.791 1447.0156,650.791 Q1446.6719,650.791 1446.4688,650.5879 Q1446.2656,650.4004 1446.1563,649.8848 Q1446.1094,649.5254 1445.9219,649.3379 Q1445.5938,648.9629 1444.9844,648.7441 Q1444.375,648.5254 1443.75,648.5254 Q1442.9844,648.5254 1442.3438,648.8535 Q1441.7188,649.1816 1441.2188,649.9316 Q1440.7344,650.6816 1440.7344,651.7129 L1440.7344,652.8066 Q1440.7344,654.041 1441.625,654.8691 Q1442.5156,655.6816 1444.1094,655.6816 Q1445.0469,655.6816 1445.7031,655.4316 Q1446.0938,655.2754 1446.5156,654.8379 Q1446.7813,654.5723 1446.9219,654.4941 Q1447.0781,654.416 1447.2813,654.416 Q1447.6094,654.416 1447.8594,654.6816 Q1448.125,654.9316 1448.125,655.2754 Q1448.125,655.6191 1447.7813,656.0254 Q1447.2813,656.6035 1446.4844,656.9316 Q1445.4063,657.3848 1444.1094,657.3848 Q1442.5938,657.3848 1441.3906,656.7598 Q1440.4063,656.2598 1439.7188,655.1973 Q1439.0313,654.1191 1439.0313,652.8379 L1439.0313,651.6816 Q1439.0313,650.3535 1439.6406,649.2129 Q1440.2656,648.0566 1441.3594,647.4473 Q1442.4531,646.8223 1443.6875,646.8223 Q1444.4219,646.8223 1445.0625,646.9941 Q1445.7188,647.1504 1446.2656,647.5098 Z " fill="#000000"/><text fill="#000000" font-family="sans-serif" font-size="14" lengthAdjust="spacing" textLength="50" x="1467" y="648.1211">&#171;entity&#187;</text><text fill="#000000" font-family="sans-serif" font-size="14" lengthAdjust="spacing" textLength="69" x="1457.5" y="666.7422">Notification</text><line style="stroke:#181818;stroke-width:0.5;" x1="1429.5" x2="1528.5" y1="675.2559" y2="675.2559"/><line style="stroke:#181818;stroke-width:0.5;" x1="1429.5" x2="1528.5" y1="683.2559" y2="683.2559"/></g><!--reverse link Mode to JobOpening--><g id="link_Mode_JobOpening"><path codeLine="82" d="M952.4793,157.1082 C938.0393,171.6982 924.28,184.7437 907,199.0137 C869.63,229.8737 824.53,261.0337 790.03,283.7237 " fill="none" id="Mode-backto-JobOpening" style="stroke:#181818;stroke-width:1.0;"/><polygon fill="#181818" points="956.7,152.8437,947.526,156.4267,953.1828,156.3974,953.212,162.0542,956.7,152.8437" style="stroke:#181818;stroke-width:1.0;"/><text fill="#000000" font-family="sans-serif" font-size="13" lengthAdjust="spacing" textLength="48" x="867" y="244.042">includes</text><text fill="#000000" font-family="sans-serif" font-size="13" lengthAdjust="spacing" textLength="7" x="943.2425" y="174.8168">1</text><text fill="#000000" font-family="sans-serif" font-size="13" lengthAdjust="spacing" textLength="7" x="798.1202" y="274.6241">1</text></g><!--reverse link JobFunction to JobOpening--><g id="link_JobFunction_JobOpening"><path codeLine="83" d="M810.2542,158.0761 C794.6142,191.7761 771.92,240.6437 754.69,277.7537 " fill="none" id="JobFunction-backto-JobOpening" style="stroke:#181818;stroke-width:1.0;"/><polygon fill="#181818" points="812.78,152.6337,805.363,159.1135,810.6752,157.169,812.6196,162.4812,812.78,152.6337" style="stroke:#181818;stroke-width:1.0;"/><text fill="#000000" font-family="sans-serif" font-size="13" lengthAdjust="spacing" textLength="48" x="777" y="244.042">includes</text><text fill="#000000" font-family="sans-serif" font-size="13" lengthAdjust="spacing" textLength="7" x="802.1252" y="174.9418">1</text><text fill="#000000" font-family="sans-serif" font-size="13" lengthAdjust="spacing" textLength="7" x="750.1109" y="266.8856">1</text></g><!--reverse link NumberOfVacancies to JobOpening--><g id="link_NumberOfVacancies_JobOpening"><path codeLine="84" d="M663.3904,158.097 C678.6904,191.797 700.87,240.6437 717.72,277.7537 " fill="none" id="NumberOfVacancies-backto-JobOpening" style="stroke:#181818;stroke-width:1.0;"/><polygon fill="#181818" points="660.91,152.6337,660.9884,162.4822,662.977,157.1864,668.2728,159.1751,660.91,152.6337" style="stroke:#181818;stroke-width:1.0;"/><text fill="#000000" font-family="sans-serif" font-size="13" lengthAdjust="spacing" textLength="48" x="703" y="244.042">includes</text><text fill="#000000" font-family="sans-serif" font-size="13" lengthAdjust="spacing" textLength="7" x="656.0571" y="174.9418">1</text><text fill="#000000" font-family="sans-serif" font-size="13" lengthAdjust="spacing" textLength="7" x="707.2488" y="266.8856">1</text></g><!--reverse link Description to JobOpening--><g id="link_Description_JobOpening"><path codeLine="85" d="M500.2867,157.0522 C514.9167,171.7922 529.09,184.9937 547,199.0137 C590.05,232.7137 643.02,265.3937 681.91,287.9437 " fill="none" id="Description-backto-JobOpening" style="stroke:#181818;stroke-width:1.0;"/><polygon fill="#181818" points="496.06,152.7937,499.5611,161.9992,499.5823,156.3424,505.2391,156.3636,496.06,152.7937" style="stroke:#181818;stroke-width:1.0;"/><text fill="#000000" font-family="sans-serif" font-size="13" lengthAdjust="spacing" textLength="48" x="613" y="244.042">includes</text><text fill="#000000" font-family="sans-serif" font-size="13" lengthAdjust="spacing" textLength="7" x="494.0921" y="174.7569">1</text><text fill="#000000" font-family="sans-serif" font-size="13" lengthAdjust="spacing" textLength="7" x="667.1713" y="279.6835">1</text></g><!--reverse link Address1 to JobOpening--><g id="link_Address1_JobOpening"><path codeLine="86" d="M374.8238,190.1931 C380.6338,194.7431 381.91,195.2937 388,199.0137 C483.25,257.1337 610.62,291.3537 681.87,307.2237 " fill="none" id="Address1-backto-JobOpening" style="stroke:#181818;stroke-width:1.0;"/><polygon fill="#181818" points="370.1,186.4937,374.7195,195.192,374.0365,189.5765,379.652,188.8935,370.1,186.4937" style="stroke:#181818;stroke-width:1.0;"/><text fill="#000000" font-family="sans-serif" font-size="13" lengthAdjust="spacing" textLength="48" x="488" y="244.042">includes</text><text fill="#000000" font-family="sans-serif" font-size="13" lengthAdjust="spacing" textLength="7" x="378.095" y="190.463">1</text><text fill="#000000" font-family="sans-serif" font-size="13" lengthAdjust="spacing" textLength="7" x="667.126" y="301.5543">1</text></g><!--reverse link ContractType to JobOpening--><g id="link_ContractType_JobOpening"><path codeLine="87" d="M1115.2948,157.0566 C1100.9148,172.6666 1085.97,186.5137 1066,199.0137 C976.95,254.7637 858.08,289.4137 790,306.0837 " fill="none" id="ContractType-backto-JobOpening" style="stroke:#181818;stroke-width:1.0;"/><polygon fill="#181818" points="1119.36,152.6437,1110.3202,156.5529,1115.9723,156.3211,1116.2041,161.9732,1119.36,152.6437" style="stroke:#181818;stroke-width:1.0;"/><text fill="#000000" font-family="sans-serif" font-size="13" lengthAdjust="spacing" textLength="48" x="1008" y="244.042">includes</text><text fill="#000000" font-family="sans-serif" font-size="13" lengthAdjust="spacing" textLength="7" x="1106.3499" y="174.9538">1</text><text fill="#000000" font-family="sans-serif" font-size="13" lengthAdjust="spacing" textLength="7" x="798.0859" y="300.1285">1</text></g><!--link JobOpening to JobReference--><g id="link_JobOpening_JobReference"><path codeLine="91" d="M736,360.1337 C736,384.2437 736,408.8037 736,432.9037 " fill="none" id="JobOpening-to-JobReference" style="stroke:#181818;stroke-width:1.0;"/><polygon fill="#181818" points="736,438.9037,740,429.9037,736,433.9037,732,429.9037,736,438.9037" style="stroke:#181818;stroke-width:1.0;"/><text fill="#000000" font-family="sans-serif" font-size="13" lengthAdjust="spacing" textLength="69" x="737" y="405.042">identified by</text><text fill="#000000" font-family="sans-serif" font-size="13" lengthAdjust="spacing" textLength="7" x="728.4641" y="381.7928">1</text><text fill="#000000" font-family="sans-serif" font-size="13" lengthAdjust="spacing" textLength="7" x="728.4203" y="427.7508">1</text></g><!--link JobOpening to JogOpeningStatus--><g id="link_JobOpening_JogOpeningStatus"><path codeLine="93" d="M692.85,360.1337 C663.37,387.5537 629.2836,419.2375 602.2736,444.3575 " fill="none" id="JobOpening-to-JogOpeningStatus" style="stroke:#181818;stroke-width:1.0;"/><polygon fill="#181818" points="597.88,448.4437,607.1945,445.2435,601.5413,445.0386,601.7463,439.3854,597.88,448.4437" style="stroke:#181818;stroke-width:1.0;"/><text fill="#000000" font-family="sans-serif" font-size="13" lengthAdjust="spacing" textLength="48" x="656" y="405.042">includes</text><text fill="#000000" font-family="sans-serif" font-size="13" lengthAdjust="spacing" textLength="7" x="678.7067" y="381.7928">1</text><text fill="#000000" font-family="sans-serif" font-size="13" lengthAdjust="spacing" textLength="7" x="596.9396" y="437.2126">1</text></g><!--reverse link RecruitmentProcess to Phase--><g id="link_RecruitmentProcess_Phase"><path codeLine="94" d="M822.0803,518.8241 C816.2603,521.0941 821.64,518.9437 816,521.0137 C678.73,571.4937 513.04,622.3837 435.72,645.5637 " fill="none" id="RecruitmentProcess-backto-Phase" style="stroke:#181818;stroke-width:1.0;"/><polygon fill="#181818" points="833.26,514.4637,826.2166,512.9173,822.0803,518.8241,829.1236,520.3705,833.26,514.4637" style="stroke:#181818;stroke-width:1.0;"/><text fill="#000000" font-family="sans-serif" font-size="13" lengthAdjust="spacing" textLength="36" x="724" y="566.042">part of</text><text fill="#000000" font-family="sans-serif" font-size="13" lengthAdjust="spacing" textLength="7" x="818.5863" y="513.904">1</text><text fill="#000000" font-family="sans-serif" font-size="13" lengthAdjust="spacing" textLength="22" x="443.415" y="639.448">4..5</text></g><!--link RecruitmentProcess to PhaseNames--><g id="link_RecruitmentProcess_PhaseNames"><path codeLine="95" d="M992.68,480.0137 C1020.26,480.0137 1044.74,480.0137 1070.72,480.0137 " fill="none" id="RecruitmentProcess-to-PhaseNames" style="stroke:#181818;stroke-width:1.0;"/><polygon fill="#181818" points="1076.72,480.0137,1067.72,476.0137,1071.72,480.0137,1067.72,484.0137,1076.72,480.0137" style="stroke:#181818;stroke-width:1.0;"/><text fill="#000000" font-family="sans-serif" font-size="13" lengthAdjust="spacing" textLength="48" x="1010.75" y="473.042">includes</text><text fill="#000000" font-family="sans-serif" font-size="13" lengthAdjust="spacing" textLength="7" x="1000.6081" y="476.2522">1</text><text fill="#000000" font-family="sans-serif" font-size="13" lengthAdjust="spacing" textLength="7" x="1062.1142" y="476.062">1</text></g><!--link JobOpening to RecruitmentProcess--><g id="link_JobOpening_RecruitmentProcess"><path codeLine="96" d="M781.62,360.2637 C792.58,369.9837 804.22,380.3437 815,390.0137 C832.62,405.8237 847.4924,419.2754 864.2724,434.5454 " fill="none" id="JobOpening-to-RecruitmentProcess" style="stroke:#181818;stroke-width:1.0;"/><polygon fill="#181818" points="868.71,438.5837,864.7458,429.5679,865.012,435.2184,859.3614,435.4847,868.71,438.5837" style="stroke:#181818;stroke-width:1.0;"/><text fill="#000000" font-family="sans-serif" font-size="13" lengthAdjust="spacing" textLength="48" x="834" y="405.042">includes</text><text fill="#000000" font-family="sans-serif" font-size="13" lengthAdjust="spacing" textLength="7" x="781.0696" y="381.9427">1</text><text fill="#000000" font-family="sans-serif" font-size="13" lengthAdjust="spacing" textLength="7" x="854.0935" y="427.6885">1</text></g><!--link ScreeningPhase to Phase--><g id="link_ScreeningPhase_Phase"><path codeLine="99" d="M1244.45,511.5237 C1236.05,515.0937 1227.41,518.3937 1219,521.0137 C928.25,611.6837 578.2279,644.6249 453.5279,654.1349 " fill="none" id="ScreeningPhase-to-Phase" style="stroke:#181818;stroke-width:1.0;"/><polygon fill="none" points="435.58,655.5037,453.9841,660.1175,453.0716,648.1523,435.58,655.5037" style="stroke:#181818;stroke-width:1.0;"/></g><!--link ResultPhase to Phase--><g id="link_ResultPhase_Phase"><path codeLine="100" d="M263.65,511.5237 C286.93,538.1937 309.3411,563.8549 336.6011,595.0749 " fill="none" id="ResultPhase-to-Phase" style="stroke:#181818;stroke-width:1.0;"/><polygon fill="none" points="348.44,608.6337,341.1206,591.1286,332.0815,599.0212,348.44,608.6337" style="stroke:#181818;stroke-width:1.0;"/></g><!--link InterviewPhase to Phase--><g id="link_InterviewPhase_Phase"><path codeLine="101" d="M392,511.5237 C392,535.7137 392,552.2237 392,581.7337 " fill="none" id="InterviewPhase-to-Phase" style="stroke:#181818;stroke-width:1.0;"/><polygon fill="none" points="392,599.7337,398,581.7337,386,581.7337,392,599.7337" style="stroke:#181818;stroke-width:1.0;"/></g><!--link AnalysisPhase to Phase--><g id="link_AnalysisPhase_Phase"><path codeLine="102" d="M136.95,511.5237 C196.63,545.9237 276.9745,592.2259 332.6045,624.2859 " fill="none" id="AnalysisPhase-to-Phase" style="stroke:#181818;stroke-width:1.0;"/><polygon fill="none" points="348.2,633.2737,335.6004,619.0874,329.6086,629.4844,348.2,633.2737" style="stroke:#181818;stroke-width:1.0;"/></g><!--link ScreeningPhase to Notification--><g id="link_ScreeningPhase_Notification"><path codeLine="104" d="M1334.08,511.5237 C1366.14,544.0337 1412.3883,590.9403 1444.5083,623.5303 " fill="none" id="ScreeningPhase-to-Notification" style="stroke:#181818;stroke-width:1.0;"/><polygon fill="#181818" points="1448.72,627.8037,1445.2513,618.5858,1445.2102,624.2426,1439.5535,624.2015,1448.72,627.8037" style="stroke:#181818;stroke-width:1.0;"/><text fill="#000000" font-family="sans-serif" font-size="13" lengthAdjust="spacing" textLength="35" x="1392" y="566.042">sends</text></g><!--link RecruitmentProcess to Notification--><g id="link_RecruitmentProcess_Notification"><path codeLine="105" d="M992.82,503.9637 C1014.53,509.8637 1038.09,515.9737 1060,521.0137 C1078.07,525.1737 1371.22,575.1237 1388,583.0137 C1411.03,593.8537 1428.7398,607.7819 1445.3798,623.5119 " fill="none" id="RecruitmentProcess-to-Notification" style="stroke:#181818;stroke-width:1.0;"/><polygon fill="#181818" points="1449.74,627.6337,1445.9475,618.5443,1446.1065,624.1989,1440.4519,624.3579,1449.74,627.6337" style="stroke:#181818;stroke-width:1.0;"/><text fill="#000000" font-family="sans-serif" font-size="13" lengthAdjust="spacing" textLength="35" x="1329" y="566.042">sends</text></g><!--SRC=[ZLNDYjim4BxxAOGlXO8J5jfBA86GfRGBpIwRqaFPYonFl6fjoKZobk3cYVOHUikJLP9_9CNE9hhOCvhvvaUVHk-UbQhaOZwl2inKNHOpmiivAR2KIKPnBd0PHHKclt4EABxZARglW56MerMU2yYnWhY98gINTKBnyHMOecf__FV47e68cgfIQnu49o1bZB14OtLZ4SpwWkLNfa2yKFZpy8mbs9r36s8gXZMoiFRF8LL6tE0I1erKMAXRdVAW0POv-N1InmikQa0y_GL43P4Ce7JXhDWrGFj7KnbkYG3RCvTggEhyHmduZPHrePo_9pVHswuhXekzfD8v1ngNU-0lEBSrEoJqnFJnTwTlSPpOHDCefnsyutddiLLOrRA32PMecJxoKx0rPqfWehxlgxOkNz5STwJVUDRwcf_csYBIppKZYdBMjw6NhqH0cxfCGTplVc226Q4TeSRgA_5kGH91go4ZJ_Qf-HR4Aij4Vpsx_njtbRPAqrKDubeJmjlpBzIQr_eGtEvFMX7TsglAEBxIpB1jHq5qZNw47GXW1FfE3ue9seUy3wU8zGzLhZK7RyHjk4c0ODEyOCQTkLw-lGtYA_eaJViDmr1y4wDFIMA-xlQW1QAC57K6ClB8TDbun9VBBXurBXltHBXewD-y7jPyfgtryZQqNP8iE-lXU8rzJuOCfVkpBYUpmmipVcLiQkzrQXzciuznEy3HejAF0kAxS_R9qdxSj3yvBYyfbBJ64qWBh_fm-6kdlyiMFlB6kgyEUUll1AFStnW7MGRCr4L8_VXDTkcihLx_0G00]--></g></svg>