<?xml version="1.0" encoding="us-ascii" standalone="no"?><svg xmlns="http://www.w3.org/2000/svg" xmlns:xlink="http://www.w3.org/1999/xlink" contentStyleType="text/css" height="681px" preserveAspectRatio="none" style="width:823px;height:681px;background:#FFFFFF;" version="1.1" viewBox="0 0 823 681" width="823px" zoomAndPan="magnify"><defs/><g><text fill="#000000" font-family="sans-serif" font-size="14" font-weight="bold" lengthAdjust="spacing" textLength="795" x="10" y="30.1074">US 30013- As Customer, I want to be notified in my application when the state (phase) of my job openings changes</text><rect fill="#FFFFFF" height="446.7344" style="stroke:#181818;stroke-width:1.0;" width="10" x="116.25" y="133.2422"/><rect fill="#FFFFFF" height="235.6973" style="stroke:#181818;stroke-width:1.0;" width="10" x="313.25" y="156.5332"/><rect fill="#FFFFFF" height="156.4551" style="stroke:#181818;stroke-width:1.0;" width="10" x="313.25" y="423.5215"/><rect fill="#FFFFFF" height="93.873" style="stroke:#181818;stroke-width:1.0;" width="10" x="489.25" y="267.0664"/><rect fill="#FFFFFF" height="93.873" style="stroke:#181818;stroke-width:1.0;" width="10" x="489.25" y="454.8125"/><rect fill="#FFFFFF" height="31.291" style="stroke:#181818;stroke-width:1.0;" width="10" x="679.25" y="298.3574"/><rect fill="#FFFFFF" height="31.291" style="stroke:#181818;stroke-width:1.0;" width="10" x="679.25" y="486.1035"/><line style="stroke:#181818;stroke-width:0.5;stroke-dasharray:5.0,5.0;" x1="120.75" x2="120.75" y1="123.2422" y2="597.9766"/><line style="stroke:#181818;stroke-width:0.5;stroke-dasharray:5.0,5.0;" x1="317.75" x2="317.75" y1="123.2422" y2="597.9766"/><line style="stroke:#181818;stroke-width:0.5;stroke-dasharray:5.0,5.0;" x1="493.75" x2="493.75" y1="214.1543" y2="597.9766"/><line style="stroke:#181818;stroke-width:0.5;stroke-dasharray:5.0,5.0;" x1="684.25" x2="684.25" y1="123.2422" y2="597.9766"/><text fill="#000000" font-family="sans-serif" font-size="14" lengthAdjust="spacing" textLength="61" x="87.75" y="119.7285">Customer</text><ellipse cx="121.25" cy="53.1211" fill="#E3E3E3" rx="8" ry="8" style="stroke:#181818;stroke-width:0.5;"/><path d="M121.25,61.1211 L121.25,88.1211 M108.25,69.1211 L134.25,69.1211 M121.25,88.1211 L108.25,103.1211 M121.25,88.1211 L134.25,103.1211 " fill="none" style="stroke:#181818;stroke-width:0.5;"/><text fill="#000000" font-family="sans-serif" font-size="14" lengthAdjust="spacing" textLength="61" x="87.75" y="612.084">Customer</text><ellipse cx="121.25" cy="624.0977" fill="#E3E3E3" rx="8" ry="8" style="stroke:#181818;stroke-width:0.5;"/><path d="M121.25,632.0977 L121.25,659.0977 M108.25,640.0977 L134.25,640.0977 M121.25,659.0977 L108.25,674.0977 M121.25,659.0977 L134.25,674.0977 " fill="none" style="stroke:#181818;stroke-width:0.5;"/><rect fill="#E3E3E3" height="51.2422" rx="2.5" ry="2.5" style="stroke:#181818;stroke-width:0.5;" width="119" x="258.75" y="71"/><text fill="#000000" font-family="sans-serif" font-size="14" font-style="italic" lengthAdjust="spacing" textLength="95" x="270.75" y="93.1074">&#171;presentation&#187;</text><text fill="#000000" font-family="sans-serif" font-size="14" lengthAdjust="spacing" textLength="105" x="265.75" y="111.7285">:NotifCustomerUI</text><rect fill="#E3E3E3" height="51.2422" rx="2.5" ry="2.5" style="stroke:#181818;stroke-width:0.5;" width="119" x="258.75" y="596.9766"/><text fill="#000000" font-family="sans-serif" font-size="14" font-style="italic" lengthAdjust="spacing" textLength="95" x="270.75" y="619.084">&#171;presentation&#187;</text><text fill="#000000" font-family="sans-serif" font-size="14" lengthAdjust="spacing" textLength="105" x="265.75" y="637.7051">:NotifCustomerUI</text><text fill="#000000" font-family="sans-serif" font-size="14" font-style="italic" lengthAdjust="spacing" textLength="84" x="449.25" y="612.084">&#171;application&#187;</text><text fill="#000000" font-family="sans-serif" font-size="14" lengthAdjust="spacing" textLength="155" x="413.75" y="630.7051">:NotifCustomerController</text><ellipse cx="494.25" cy="650.2188" fill="#E3E3E3" rx="12" ry="12" style="stroke:#181818;stroke-width:0.5;"/><polygon fill="#181818" points="490.25,638.2188,496.25,633.2188,494.25,638.2188,496.25,643.2188,490.25,638.2188" style="stroke:#181818;stroke-width:1.0;"/><rect fill="#E3E3E3" height="51.2422" rx="2.5" ry="2.5" style="stroke:#181818;stroke-width:0.5;" width="88" x="640.25" y="71"/><text fill="#000000" font-family="sans-serif" font-size="14" font-style="italic" lengthAdjust="spacing" textLength="62" x="653.25" y="93.1074">&#171;System&#187;</text><text fill="#000000" font-family="sans-serif" font-size="14" lengthAdjust="spacing" textLength="74" x="647.25" y="111.7285">:TCPServer</text><rect fill="#E3E3E3" height="51.2422" rx="2.5" ry="2.5" style="stroke:#181818;stroke-width:0.5;" width="88" x="640.25" y="596.9766"/><text fill="#000000" font-family="sans-serif" font-size="14" font-style="italic" lengthAdjust="spacing" textLength="62" x="653.25" y="619.084">&#171;System&#187;</text><text fill="#000000" font-family="sans-serif" font-size="14" lengthAdjust="spacing" textLength="74" x="647.25" y="637.7051">:TCPServer</text><rect fill="#FFFFFF" height="446.7344" style="stroke:#181818;stroke-width:1.0;" width="10" x="116.25" y="133.2422"/><rect fill="#FFFFFF" height="235.6973" style="stroke:#181818;stroke-width:1.0;" width="10" x="313.25" y="156.5332"/><rect fill="#FFFFFF" height="156.4551" style="stroke:#181818;stroke-width:1.0;" width="10" x="313.25" y="423.5215"/><rect fill="#FFFFFF" height="93.873" style="stroke:#181818;stroke-width:1.0;" width="10" x="489.25" y="267.0664"/><rect fill="#FFFFFF" height="93.873" style="stroke:#181818;stroke-width:1.0;" width="10" x="489.25" y="454.8125"/><rect fill="#FFFFFF" height="31.291" style="stroke:#181818;stroke-width:1.0;" width="10" x="679.25" y="298.3574"/><rect fill="#FFFFFF" height="31.291" style="stroke:#181818;stroke-width:1.0;" width="10" x="679.25" y="486.1035"/><polygon fill="#181818" points="301.25,152.5332,311.25,156.5332,301.25,160.5332,305.25,156.5332" style="stroke:#181818;stroke-width:1.0;"/><line style="stroke:#181818;stroke-width:1.0;" x1="126.25" x2="307.25" y1="156.5332" y2="156.5332"/><text fill="#000000" font-family="sans-serif" font-size="13" font-weight="bold" lengthAdjust="spacing" textLength="7" x="133.25" y="151.2705">1</text><text fill="#000000" font-family="sans-serif" font-size="13" lengthAdjust="spacing" textLength="141" x="144.25" y="151.2705">asks to see notifications</text><polygon fill="#181818" points="401.75,183.8242,411.75,187.8242,401.75,191.8242,405.75,187.8242" style="stroke:#181818;stroke-width:1.0;"/><line style="stroke:#181818;stroke-width:1.0;" x1="323.25" x2="407.75" y1="187.8242" y2="187.8242"/><text fill="#000000" font-family="sans-serif" font-size="13" font-weight="bold" lengthAdjust="spacing" textLength="7" x="330.25" y="182.5615">2</text><text fill="#000000" font-family="sans-serif" font-size="13" lengthAdjust="spacing" textLength="36" x="341.25" y="182.5615">create</text><text fill="#000000" font-family="sans-serif" font-size="14" font-style="italic" lengthAdjust="spacing" textLength="84" x="449.25" y="211.6406">&#171;application&#187;</text><text fill="#000000" font-family="sans-serif" font-size="14" lengthAdjust="spacing" textLength="155" x="413.75" y="230.2617">:NotifCustomerController</text><ellipse cx="494.25" cy="180.5332" fill="#E3E3E3" rx="12" ry="12" style="stroke:#181818;stroke-width:0.5;"/><polygon fill="#181818" points="490.25,168.5332,496.25,163.5332,494.25,168.5332,496.25,173.5332,490.25,168.5332" style="stroke:#181818;stroke-width:1.0;"/><polygon fill="#181818" points="477.25,263.0664,487.25,267.0664,477.25,271.0664,481.25,267.0664" style="stroke:#181818;stroke-width:1.0;"/><line style="stroke:#181818;stroke-width:1.0;" x1="323.25" x2="483.25" y1="267.0664" y2="267.0664"/><text fill="#000000" font-family="sans-serif" font-size="13" font-weight="bold" lengthAdjust="spacing" textLength="7" x="330.25" y="261.8037">3</text><text fill="#000000" font-family="sans-serif" font-size="13" lengthAdjust="spacing" textLength="62" x="341.25" y="261.8037">notifyReq()</text><polygon fill="#181818" points="667.25,294.3574,677.25,298.3574,667.25,302.3574,671.25,298.3574" style="stroke:#181818;stroke-width:1.0;"/><line style="stroke:#181818;stroke-width:1.0;" x1="499.25" x2="673.25" y1="298.3574" y2="298.3574"/><text fill="#000000" font-family="sans-serif" font-size="13" font-weight="bold" lengthAdjust="spacing" textLength="7" x="506.25" y="293.0947">4</text><text fill="#000000" font-family="sans-serif" font-size="13" lengthAdjust="spacing" textLength="84" x="517.25" y="293.0947">(tcp) notifyReq</text><polygon fill="#181818" points="510.25,325.6484,500.25,329.6484,510.25,333.6484,506.25,329.6484" style="stroke:#181818;stroke-width:1.0;"/><line style="stroke:#181818;stroke-width:1.0;stroke-dasharray:2.0,2.0;" x1="504.25" x2="683.25" y1="329.6484" y2="329.6484"/><text fill="#000000" font-family="sans-serif" font-size="13" font-weight="bold" lengthAdjust="spacing" textLength="7" x="516.25" y="324.3857">5</text><text fill="#000000" font-family="sans-serif" font-size="13" lengthAdjust="spacing" textLength="91" x="527.25" y="324.3857">(tcp) notifyResp</text><polygon fill="#181818" points="334.25,356.9395,324.25,360.9395,334.25,364.9395,330.25,360.9395" style="stroke:#181818;stroke-width:1.0;"/><line style="stroke:#181818;stroke-width:1.0;stroke-dasharray:2.0,2.0;" x1="328.25" x2="493.25" y1="360.9395" y2="360.9395"/><text fill="#000000" font-family="sans-serif" font-size="13" font-weight="bold" lengthAdjust="spacing" textLength="7" x="340.25" y="355.6768">6</text><text fill="#000000" font-family="sans-serif" font-size="13" lengthAdjust="spacing" textLength="61" x="351.25" y="355.6768">notifyResp</text><polygon fill="#181818" points="137.25,388.2305,127.25,392.2305,137.25,396.2305,133.25,392.2305" style="stroke:#181818;stroke-width:1.0;"/><line style="stroke:#181818;stroke-width:1.0;stroke-dasharray:2.0,2.0;" x1="131.25" x2="317.25" y1="392.2305" y2="392.2305"/><text fill="#000000" font-family="sans-serif" font-size="13" font-weight="bold" lengthAdjust="spacing" textLength="7" x="143.25" y="386.9678">7</text><text fill="#000000" font-family="sans-serif" font-size="13" lengthAdjust="spacing" textLength="138" x="154.25" y="386.9678">show list of notifications</text><polygon fill="#181818" points="301.25,419.5215,311.25,423.5215,301.25,427.5215,305.25,423.5215" style="stroke:#181818;stroke-width:1.0;"/><line style="stroke:#181818;stroke-width:1.0;" x1="126.25" x2="307.25" y1="423.5215" y2="423.5215"/><text fill="#000000" font-family="sans-serif" font-size="13" font-weight="bold" lengthAdjust="spacing" textLength="7" x="133.25" y="418.2588">8</text><text fill="#000000" font-family="sans-serif" font-size="13" lengthAdjust="spacing" textLength="108" x="144.25" y="418.2588">choose notification</text><polygon fill="#181818" points="477.25,450.8125,487.25,454.8125,477.25,458.8125,481.25,454.8125" style="stroke:#181818;stroke-width:1.0;"/><line style="stroke:#181818;stroke-width:1.0;" x1="323.25" x2="483.25" y1="454.8125" y2="454.8125"/><text fill="#000000" font-family="sans-serif" font-size="13" font-weight="bold" lengthAdjust="spacing" textLength="7" x="330.25" y="449.5498">9</text><text fill="#000000" font-family="sans-serif" font-size="13" lengthAdjust="spacing" textLength="136" x="341.25" y="449.5498">markNotification(select)</text><polygon fill="#181818" points="667.25,482.1035,677.25,486.1035,667.25,490.1035,671.25,486.1035" style="stroke:#181818;stroke-width:1.0;"/><line style="stroke:#181818;stroke-width:1.0;" x1="499.25" x2="673.25" y1="486.1035" y2="486.1035"/><text fill="#000000" font-family="sans-serif" font-size="13" font-weight="bold" lengthAdjust="spacing" textLength="14" x="506.25" y="480.8408">10</text><text fill="#000000" font-family="sans-serif" font-size="13" lengthAdjust="spacing" textLength="131" x="524.25" y="480.8408">(tcp) maskAsReadRep</text><polygon fill="#181818" points="510.25,513.3945,500.25,517.3945,510.25,521.3945,506.25,517.3945" style="stroke:#181818;stroke-width:1.0;"/><line style="stroke:#181818;stroke-width:1.0;stroke-dasharray:2.0,2.0;" x1="504.25" x2="683.25" y1="517.3945" y2="517.3945"/><text fill="#000000" font-family="sans-serif" font-size="13" font-weight="bold" lengthAdjust="spacing" textLength="14" x="516.25" y="512.1318">11</text><text fill="#000000" font-family="sans-serif" font-size="13" lengthAdjust="spacing" textLength="138" x="534.25" y="512.1318">(tcp) maskAsReadResp</text><polygon fill="#181818" points="334.25,544.6855,324.25,548.6855,334.25,552.6855,330.25,548.6855" style="stroke:#181818;stroke-width:1.0;"/><line style="stroke:#181818;stroke-width:1.0;stroke-dasharray:2.0,2.0;" x1="328.25" x2="493.25" y1="548.6855" y2="548.6855"/><text fill="#000000" font-family="sans-serif" font-size="13" font-weight="bold" lengthAdjust="spacing" textLength="14" x="340.25" y="543.4229">12</text><text fill="#000000" font-family="sans-serif" font-size="13" lengthAdjust="spacing" textLength="53" x="358.25" y="543.4229">message</text><polygon fill="#181818" points="132.25,575.9766,122.25,579.9766,132.25,583.9766,128.25,579.9766" style="stroke:#181818;stroke-width:1.0;"/><line style="stroke:#181818;stroke-width:1.0;stroke-dasharray:2.0,2.0;" x1="126.25" x2="317.25" y1="579.9766" y2="579.9766"/><text fill="#000000" font-family="sans-serif" font-size="13" font-weight="bold" lengthAdjust="spacing" textLength="14" x="138.25" y="574.7139">13</text><text fill="#000000" font-family="sans-serif" font-size="13" lengthAdjust="spacing" textLength="145" x="156.25" y="574.7139">shows list of notifications</text><!--SRC=[fLJDRk8m4BxxAKOvGLMahdf35LB52MbLhQ0yW343yHB_h6Seukrtd92GPb5RTNC2-_kR-G9qi3xgf1suu8CfKt08d8wegBk9sXpq7bTyhX0I6jP-N_K1LEfjE5c_Xvsk29NIHmx-w3QOb6BBGYlMAtXyUFZnE85dWlcHM8pIFIpWf3q31zWW-C1sPt4BreCxWuwniaQp3HvE9NhW4e5OCy8ebffm366NWR_31a94Bma8J2dna0f9OJWaA5gp0hGuAoMPsHeRisynVScUBMIzg47h1JmznOI4dclxsKoPu3c5QiYODyTLA_-w_2dSNdAXlZTydVzQONgx49gFGbcTYT49EiUsRtb8oGhop64oov6cWZzGNXLXkwl6WrI3p4_7NY-wCo6BHCvsToSo9g40LE_wSZjjLCzB_3CQtv3CcEwq7bM8bmccC68JnrU5NgQhGWE-NZJV9nV_VqGeTj0j3aK6ITebVSojH-XFdgs5HMKuGMM9yoirsEqD6LdkrNuogurD6GAzB-PsBJStxtGwlFIe8y9AVchVhS79k_9CIzJR9SR_gQ8lz9qw71B9dySNkv0gSXFqIHM39lgQwYy0]--></g></svg>