<?xml version="1.0" encoding="us-ascii" standalone="no"?><svg xmlns="http://www.w3.org/2000/svg" xmlns:xlink="http://www.w3.org/1999/xlink" contentStyleType="text/css" height="819px" preserveAspectRatio="none" style="width:1210px;height:819px;background:#FFFFFF;" version="1.1" viewBox="0 0 1210 819" width="1210px" zoomAndPan="magnify"><defs/><g><text fill="#000000" font-family="sans-serif" font-size="14" font-weight="bold" lengthAdjust="spacing" textLength="945" x="131.5" y="30.1074">"US 3003 - As Customer, I want to be notified in my application when the state (phase) of my job openings changes." Sequence Diagram</text><rect fill="#FFFFFF" height="506.0254" style="stroke:#181818;stroke-width:1.0;" width="10" x="128" y="186.4453"/><rect fill="#FFFFFF" height="307.2793" style="stroke:#181818;stroke-width:1.0;" width="10" x="348" y="285.3184"/><rect fill="#FFFFFF" height="31.291" style="stroke:#181818;stroke-width:1.0;" width="10" x="498" y="222.7363"/><rect fill="#FFFFFF" height="244.6973" style="stroke:#181818;stroke-width:1.0;" width="10" x="648.5" y="316.6094"/><rect fill="#FFFFFF" height="104.5332" style="stroke:#181818;stroke-width:1.0;" width="10" x="653.5" y="418.4824"/><rect fill="#FFFFFF" height="31.291" style="stroke:#181818;stroke-width:1.0;" width="10" x="989" y="623.8887"/><rect fill="#FFFFFF" height="31.291" style="stroke:#181818;stroke-width:1.0;" width="10" x="1121.5" y="347.9004"/><line style="stroke:#181818;stroke-width:0.5;stroke-dasharray:5.0,5.0;" x1="132.5" x2="132.5" y1="113.8633" y2="748.7617"/><line style="stroke:#181818;stroke-width:0.5;stroke-dasharray:5.0,5.0;" x1="352.5" x2="352.5" y1="113.8633" y2="748.7617"/><line style="stroke:#181818;stroke-width:0.5;stroke-dasharray:5.0,5.0;" x1="502.5" x2="502.5" y1="113.8633" y2="748.7617"/><line style="stroke:#181818;stroke-width:0.5;stroke-dasharray:5.0,5.0;" x1="653.5" x2="653.5" y1="113.8633" y2="748.7617"/><line style="stroke:#181818;stroke-width:0.5;stroke-dasharray:5.0,5.0;" x1="880" x2="880" y1="472.6035" y2="748.7617"/><line style="stroke:#181818;stroke-width:0.5;stroke-dasharray:5.0,5.0;" x1="994" x2="994" y1="113.8633" y2="748.7617"/><line style="stroke:#181818;stroke-width:0.5;stroke-dasharray:5.0,5.0;" x1="1126" x2="1126" y1="113.8633" y2="748.7617"/><rect fill="#E3E3E3" height="51.2422" rx="2.5" ry="2.5" style="stroke:#181818;stroke-width:0.5;" width="103" x="81.5" y="61.6211"/><text fill="#000000" font-family="sans-serif" font-size="14" font-style="italic" lengthAdjust="spacing" textLength="62" x="102" y="83.7285">&#171;System&#187;</text><text fill="#000000" font-family="sans-serif" font-size="14" lengthAdjust="spacing" textLength="89" x="88.5" y="102.3496">:ClientHandler</text><rect fill="#E3E3E3" height="51.2422" rx="2.5" ry="2.5" style="stroke:#181818;stroke-width:0.5;" width="103" x="81.5" y="747.7617"/><text fill="#000000" font-family="sans-serif" font-size="14" font-style="italic" lengthAdjust="spacing" textLength="62" x="102" y="769.8691">&#171;System&#187;</text><text fill="#000000" font-family="sans-serif" font-size="14" lengthAdjust="spacing" textLength="89" x="88.5" y="788.4902">:ClientHandler</text><text fill="#000000" font-family="sans-serif" font-size="14" font-style="italic" lengthAdjust="spacing" textLength="84" x="308" y="91.7285">&#171;application&#187;</text><text fill="#000000" font-family="sans-serif" font-size="14" lengthAdjust="spacing" textLength="127" x="286.5" y="110.3496">:NotifyReqController</text><ellipse cx="353" cy="60.6211" fill="#E3E3E3" rx="12" ry="12" style="stroke:#181818;stroke-width:0.5;"/><polygon fill="#181818" points="349,48.6211,355,43.6211,353,48.6211,355,53.6211,349,48.6211" style="stroke:#181818;stroke-width:1.0;"/><text fill="#000000" font-family="sans-serif" font-size="14" font-style="italic" lengthAdjust="spacing" textLength="84" x="308" y="762.8691">&#171;application&#187;</text><text fill="#000000" font-family="sans-serif" font-size="14" lengthAdjust="spacing" textLength="127" x="286.5" y="781.4902">:NotifyReqController</text><ellipse cx="353" cy="801.0039" fill="#E3E3E3" rx="12" ry="12" style="stroke:#181818;stroke-width:0.5;"/><polygon fill="#181818" points="349,789.0039,355,784.0039,353,789.0039,355,794.0039,349,789.0039" style="stroke:#181818;stroke-width:1.0;"/><rect fill="#E3E3E3" height="51.2422" rx="2.5" ry="2.5" style="stroke:#181818;stroke-width:0.5;" width="147" x="429.5" y="61.6211"/><text fill="#000000" font-family="sans-serif" font-size="14" font-style="italic" lengthAdjust="spacing" textLength="60" x="473" y="83.7285">&#171;service&#187;</text><text fill="#000000" font-family="sans-serif" font-size="14" lengthAdjust="spacing" textLength="133" x="436.5" y="102.3496">:AuthorizationService</text><rect fill="#E3E3E3" height="51.2422" rx="2.5" ry="2.5" style="stroke:#181818;stroke-width:0.5;" width="147" x="429.5" y="747.7617"/><text fill="#000000" font-family="sans-serif" font-size="14" font-style="italic" lengthAdjust="spacing" textLength="60" x="473" y="769.8691">&#171;service&#187;</text><text fill="#000000" font-family="sans-serif" font-size="14" lengthAdjust="spacing" textLength="133" x="436.5" y="788.4902">:AuthorizationService</text><rect fill="#E3E3E3" height="51.2422" rx="2.5" ry="2.5" style="stroke:#181818;stroke-width:0.5;" width="134" x="586.5" y="61.6211"/><text fill="#000000" font-family="sans-serif" font-size="14" font-style="italic" lengthAdjust="spacing" textLength="62" x="622.5" y="83.7285">&#171;domain&#187;</text><text fill="#000000" font-family="sans-serif" font-size="14" lengthAdjust="spacing" textLength="120" x="593.5" y="102.3496">:NotificationService</text><rect fill="#E3E3E3" height="51.2422" rx="2.5" ry="2.5" style="stroke:#181818;stroke-width:0.5;" width="134" x="586.5" y="747.7617"/><text fill="#000000" font-family="sans-serif" font-size="14" font-style="italic" lengthAdjust="spacing" textLength="62" x="622.5" y="769.8691">&#171;domain&#187;</text><text fill="#000000" font-family="sans-serif" font-size="14" lengthAdjust="spacing" textLength="120" x="593.5" y="788.4902">:NotificationService</text><rect fill="#E3E3E3" height="51.2422" rx="2.5" ry="2.5" style="stroke:#181818;stroke-width:0.5;" width="117" x="822" y="747.7617"/><text fill="#000000" font-family="sans-serif" font-size="14" font-style="italic" lengthAdjust="spacing" textLength="62" x="849.5" y="769.8691">&#171;domain&#187;</text><text fill="#000000" font-family="sans-serif" font-size="14" lengthAdjust="spacing" textLength="103" x="829" y="788.4902">:NotificationDTO</text><rect fill="#E3E3E3" height="51.2422" rx="2.5" ry="2.5" style="stroke:#181818;stroke-width:0.5;" width="90" x="949" y="61.6211"/><text fill="#000000" font-family="sans-serif" font-size="14" font-style="italic" lengthAdjust="spacing" textLength="62" x="963" y="83.7285">&#171;domain&#187;</text><text fill="#000000" font-family="sans-serif" font-size="14" lengthAdjust="spacing" textLength="76" x="956" y="102.3496">:SerializeUtil</text><rect fill="#E3E3E3" height="51.2422" rx="2.5" ry="2.5" style="stroke:#181818;stroke-width:0.5;" width="90" x="949" y="747.7617"/><text fill="#000000" font-family="sans-serif" font-size="14" font-style="italic" lengthAdjust="spacing" textLength="62" x="963" y="769.8691">&#171;domain&#187;</text><text fill="#000000" font-family="sans-serif" font-size="14" lengthAdjust="spacing" textLength="76" x="956" y="788.4902">:SerializeUtil</text><rect fill="#E3E3E3" height="51.2422" rx="2.5" ry="2.5" style="stroke:#181818;stroke-width:0.5;" width="155" x="1049" y="61.6211"/><text fill="#000000" font-family="sans-serif" font-size="14" font-style="italic" lengthAdjust="spacing" textLength="79" x="1087" y="83.7285">&#171;repository&#187;</text><text fill="#000000" font-family="sans-serif" font-size="14" lengthAdjust="spacing" textLength="141" x="1056" y="102.3496">:NotificationRepository</text><rect fill="#E3E3E3" height="51.2422" rx="2.5" ry="2.5" style="stroke:#181818;stroke-width:0.5;" width="155" x="1049" y="747.7617"/><text fill="#000000" font-family="sans-serif" font-size="14" font-style="italic" lengthAdjust="spacing" textLength="79" x="1087" y="769.8691">&#171;repository&#187;</text><text fill="#000000" font-family="sans-serif" font-size="14" lengthAdjust="spacing" textLength="141" x="1056" y="788.4902">:NotificationRepository</text><rect fill="#FFFFFF" height="506.0254" style="stroke:#181818;stroke-width:1.0;" width="10" x="128" y="186.4453"/><rect fill="#FFFFFF" height="307.2793" style="stroke:#181818;stroke-width:1.0;" width="10" x="348" y="285.3184"/><rect fill="#FFFFFF" height="31.291" style="stroke:#181818;stroke-width:1.0;" width="10" x="498" y="222.7363"/><rect fill="#FFFFFF" height="244.6973" style="stroke:#181818;stroke-width:1.0;" width="10" x="648.5" y="316.6094"/><rect fill="#FFFFFF" height="104.5332" style="stroke:#181818;stroke-width:1.0;" width="10" x="653.5" y="418.4824"/><rect fill="#FFFFFF" height="31.291" style="stroke:#181818;stroke-width:1.0;" width="10" x="989" y="623.8887"/><rect fill="#FFFFFF" height="31.291" style="stroke:#181818;stroke-width:1.0;" width="10" x="1121.5" y="347.9004"/><polygon fill="#181818" points="121,143.1543,131,147.1543,121,151.1543,125,147.1543" style="stroke:#181818;stroke-width:1.0;"/><line style="stroke:#181818;stroke-width:1.0;" x1="0" x2="127" y1="147.1543" y2="147.1543"/><text fill="#000000" font-family="sans-serif" font-size="13" font-weight="bold" lengthAdjust="spacing" textLength="7" x="7" y="141.8916">1</text><text fill="#000000" font-family="sans-serif" font-size="13" lengthAdjust="spacing" textLength="84" x="18" y="141.8916">(tcp) notifyReq</text><line style="stroke:#181818;stroke-width:1.0;" x1="133" x2="180" y1="173.4453" y2="173.4453"/><line style="stroke:#181818;stroke-width:1.0;" x1="180" x2="180" y1="173.4453" y2="186.4453"/><line style="stroke:#181818;stroke-width:1.0;" x1="139" x2="180" y1="186.4453" y2="186.4453"/><polygon fill="#181818" points="149,182.4453,139,186.4453,149,190.4453,145,186.4453" style="stroke:#181818;stroke-width:1.0;"/><text fill="#000000" font-family="sans-serif" font-size="13" font-weight="bold" lengthAdjust="spacing" textLength="7" x="145" y="168.1826">2</text><text fill="#000000" font-family="sans-serif" font-size="13" lengthAdjust="spacing" textLength="171" x="156" y="168.1826">notifyReq(version, code, data)</text><polygon fill="#181818" points="486,218.7363,496,222.7363,486,226.7363,490,222.7363" style="stroke:#181818;stroke-width:1.0;"/><line style="stroke:#181818;stroke-width:1.0;" x1="138" x2="492" y1="222.7363" y2="222.7363"/><text fill="#000000" font-family="sans-serif" font-size="13" font-weight="bold" lengthAdjust="spacing" textLength="7" x="145" y="217.4736">3</text><text fill="#000000" font-family="sans-serif" font-size="13" lengthAdjust="spacing" textLength="156" x="156" y="217.4736">authenticatedUser().email()</text><polygon fill="#181818" points="149,250.0273,139,254.0273,149,258.0273,145,254.0273" style="stroke:#181818;stroke-width:1.0;"/><line style="stroke:#181818;stroke-width:1.0;stroke-dasharray:2.0,2.0;" x1="143" x2="502" y1="254.0273" y2="254.0273"/><text fill="#000000" font-family="sans-serif" font-size="13" font-weight="bold" lengthAdjust="spacing" textLength="7" x="155" y="248.7646">4</text><text fill="#000000" font-family="sans-serif" font-size="13" lengthAdjust="spacing" textLength="31" x="166" y="248.7646">email</text><polygon fill="#181818" points="336,281.3184,346,285.3184,336,289.3184,340,285.3184" style="stroke:#181818;stroke-width:1.0;"/><line style="stroke:#181818;stroke-width:1.0;" x1="138" x2="342" y1="285.3184" y2="285.3184"/><text fill="#000000" font-family="sans-serif" font-size="13" font-weight="bold" lengthAdjust="spacing" textLength="7" x="145" y="280.0557">5</text><text fill="#000000" font-family="sans-serif" font-size="13" lengthAdjust="spacing" textLength="93" x="156" y="280.0557">nofityRep(email)</text><polygon fill="#181818" points="636.5,312.6094,646.5,316.6094,636.5,320.6094,640.5,316.6094" style="stroke:#181818;stroke-width:1.0;"/><line style="stroke:#181818;stroke-width:1.0;" x1="358" x2="642.5" y1="316.6094" y2="316.6094"/><text fill="#000000" font-family="sans-serif" font-size="13" font-weight="bold" lengthAdjust="spacing" textLength="7" x="365" y="311.3467">6</text><text fill="#000000" font-family="sans-serif" font-size="13" lengthAdjust="spacing" textLength="157" x="376" y="311.3467">findByReceiverEmail(email)</text><polygon fill="#181818" points="1109.5,343.9004,1119.5,347.9004,1109.5,351.9004,1113.5,347.9004" style="stroke:#181818;stroke-width:1.0;"/><line style="stroke:#181818;stroke-width:1.0;stroke-dasharray:2.0,2.0;" x1="658.5" x2="1115.5" y1="347.9004" y2="347.9004"/><text fill="#000000" font-family="sans-serif" font-size="13" font-weight="bold" lengthAdjust="spacing" textLength="7" x="665.5" y="342.6377">7</text><text fill="#000000" font-family="sans-serif" font-size="13" lengthAdjust="spacing" textLength="157" x="676.5" y="342.6377">findByReceiverEmail(email)</text><polygon fill="#181818" points="669.5,375.1914,659.5,379.1914,669.5,383.1914,665.5,379.1914" style="stroke:#181818;stroke-width:1.0;"/><line style="stroke:#181818;stroke-width:1.0;stroke-dasharray:2.0,2.0;" x1="663.5" x2="1125.5" y1="379.1914" y2="379.1914"/><text fill="#000000" font-family="sans-serif" font-size="13" font-weight="bold" lengthAdjust="spacing" textLength="7" x="675.5" y="373.9287">8</text><text fill="#000000" font-family="sans-serif" font-size="13" lengthAdjust="spacing" textLength="90" x="686.5" y="373.9287">notificationsList</text><line style="stroke:#181818;stroke-width:1.0;" x1="658.5" x2="705.5" y1="405.4824" y2="405.4824"/><line style="stroke:#181818;stroke-width:1.0;" x1="705.5" x2="705.5" y1="405.4824" y2="418.4824"/><line style="stroke:#181818;stroke-width:1.0;" x1="664.5" x2="705.5" y1="418.4824" y2="418.4824"/><polygon fill="#181818" points="674.5,414.4824,664.5,418.4824,674.5,422.4824,670.5,418.4824" style="stroke:#181818;stroke-width:1.0;"/><text fill="#000000" font-family="sans-serif" font-size="13" font-weight="bold" lengthAdjust="spacing" textLength="7" x="670.5" y="400.2197">9</text><text fill="#000000" font-family="sans-serif" font-size="13" lengthAdjust="spacing" textLength="192" x="681.5" y="400.2197">transformToDTO(notificationsList)</text><polygon fill="#181818" points="810,450.7734,820,454.7734,810,458.7734,814,454.7734" style="stroke:#181818;stroke-width:1.0;"/><line style="stroke:#181818;stroke-width:1.0;stroke-dasharray:2.0,2.0;" x1="663.5" x2="816" y1="454.7734" y2="454.7734"/><text fill="#000000" font-family="sans-serif" font-size="13" font-weight="bold" lengthAdjust="spacing" textLength="14" x="670.5" y="449.5107">10</text><text fill="#000000" font-family="sans-serif" font-size="13" lengthAdjust="spacing" textLength="44" x="688.5" y="449.5107">create()</text><rect fill="#E3E3E3" height="51.2422" rx="2.5" ry="2.5" style="stroke:#181818;stroke-width:0.5;" width="117" x="822" y="431.4824"/><text fill="#000000" font-family="sans-serif" font-size="14" font-style="italic" lengthAdjust="spacing" textLength="62" x="849.5" y="453.5898">&#171;domain&#187;</text><text fill="#000000" font-family="sans-serif" font-size="14" lengthAdjust="spacing" textLength="103" x="829" y="472.2109">:NotificationDTO</text><line style="stroke:#181818;stroke-width:1.0;stroke-dasharray:2.0,2.0;" x1="663.5" x2="705.5" y1="522.0156" y2="522.0156"/><line style="stroke:#181818;stroke-width:1.0;stroke-dasharray:2.0,2.0;" x1="705.5" x2="705.5" y1="522.0156" y2="535.0156"/><line style="stroke:#181818;stroke-width:1.0;stroke-dasharray:2.0,2.0;" x1="658.5" x2="705.5" y1="535.0156" y2="535.0156"/><polygon fill="#181818" points="668.5,531.0156,658.5,535.0156,668.5,539.0156,664.5,535.0156" style="stroke:#181818;stroke-width:1.0;"/><text fill="#000000" font-family="sans-serif" font-size="13" font-weight="bold" lengthAdjust="spacing" textLength="14" x="670.5" y="516.7529">11</text><text fill="#000000" font-family="sans-serif" font-size="13" lengthAdjust="spacing" textLength="90" x="688.5" y="516.7529">notificationsList</text><polygon fill="#181818" points="369,557.3066,359,561.3066,369,565.3066,365,561.3066" style="stroke:#181818;stroke-width:1.0;"/><line style="stroke:#181818;stroke-width:1.0;stroke-dasharray:2.0,2.0;" x1="363" x2="652.5" y1="561.3066" y2="561.3066"/><text fill="#000000" font-family="sans-serif" font-size="13" font-weight="bold" lengthAdjust="spacing" textLength="14" x="375" y="556.0439">12</text><text fill="#000000" font-family="sans-serif" font-size="13" lengthAdjust="spacing" textLength="90" x="393" y="556.0439">notificationsList</text><polygon fill="#181818" points="149,588.5977,139,592.5977,149,596.5977,145,592.5977" style="stroke:#181818;stroke-width:1.0;"/><line style="stroke:#181818;stroke-width:1.0;stroke-dasharray:2.0,2.0;" x1="143" x2="352" y1="592.5977" y2="592.5977"/><text fill="#000000" font-family="sans-serif" font-size="13" font-weight="bold" lengthAdjust="spacing" textLength="14" x="155" y="587.335">13</text><text fill="#000000" font-family="sans-serif" font-size="13" lengthAdjust="spacing" textLength="90" x="173" y="587.335">notificationsList</text><polygon fill="#181818" points="977,619.8887,987,623.8887,977,627.8887,981,623.8887" style="stroke:#181818;stroke-width:1.0;"/><line style="stroke:#181818;stroke-width:1.0;" x1="138" x2="983" y1="623.8887" y2="623.8887"/><text fill="#000000" font-family="sans-serif" font-size="13" font-weight="bold" lengthAdjust="spacing" textLength="14" x="145" y="618.626">14</text><text fill="#000000" font-family="sans-serif" font-size="13" lengthAdjust="spacing" textLength="146" x="163" y="618.626">serialize(notificationsList)</text><polygon fill="#181818" points="149,651.1797,139,655.1797,149,659.1797,145,655.1797" style="stroke:#181818;stroke-width:1.0;"/><line style="stroke:#181818;stroke-width:1.0;stroke-dasharray:2.0,2.0;" x1="143" x2="993" y1="655.1797" y2="655.1797"/><text fill="#000000" font-family="sans-serif" font-size="13" font-weight="bold" lengthAdjust="spacing" textLength="14" x="155" y="649.917">15</text><text fill="#000000" font-family="sans-serif" font-size="13" lengthAdjust="spacing" textLength="61" x="173" y="649.917">notifyResp</text><line style="stroke:#181818;stroke-width:1.0;stroke-dasharray:2.0,2.0;" x1="138" x2="180" y1="691.4707" y2="691.4707"/><line style="stroke:#181818;stroke-width:1.0;stroke-dasharray:2.0,2.0;" x1="180" x2="180" y1="691.4707" y2="704.4707"/><line style="stroke:#181818;stroke-width:1.0;stroke-dasharray:2.0,2.0;" x1="133" x2="180" y1="704.4707" y2="704.4707"/><polygon fill="#181818" points="143,700.4707,133,704.4707,143,708.4707,139,704.4707" style="stroke:#181818;stroke-width:1.0;"/><text fill="#000000" font-family="sans-serif" font-size="13" font-weight="bold" lengthAdjust="spacing" textLength="14" x="145" y="686.208">16</text><text fill="#000000" font-family="sans-serif" font-size="13" lengthAdjust="spacing" textLength="178" x="163" y="686.208">notifyResp(version, code, data)</text><polygon fill="#181818" points="11,726.7617,1,730.7617,11,734.7617,7,730.7617" style="stroke:#181818;stroke-width:1.0;"/><line style="stroke:#181818;stroke-width:1.0;stroke-dasharray:2.0,2.0;" x1="5" x2="132" y1="730.7617" y2="730.7617"/><text fill="#000000" font-family="sans-serif" font-size="13" font-weight="bold" lengthAdjust="spacing" textLength="14" x="17" y="725.499">17</text><text fill="#000000" font-family="sans-serif" font-size="13" lengthAdjust="spacing" textLength="91" x="35" y="725.499">(tcp) notifyResp</text><!--SRC=[ZLPHKjim4FtNANRo4wT365h-CancQ6YdxJ0mG-00Yhs91Ovaf0qqNAT7wSMwacDRDYwGV4JIxdlxThMIuXwKBgMLMzWQRTBScYq2sHqArrXAcJx83IvfNo1OJ4dgJH4xk5ncvbdf3QnbuL08kIEZTziLMY584SD6TqiuFJavXIcSErZi774WUmG_uLbg0ZAmGj26r5fX1ah3TW-oB0kLIb96mtEE6YX7S2G98IbpwN02PkqTxyqAJ8cQ5JX8SvQ7xdW4ItpSeKuHBfJSi4unpbM6i3Q6LkQty1_MJofLfTSmcYqAXPf-I9qLQ4SW7LFO9xHmThRSEyBjV2vIeycQWhsllDhz3JukggKQixYzkMH4f9vXtK3dEygDLI_1wcEe50DsoC1ShXenJuyeQ3X4YNbQQ6QsKhrM40ClRgy3Y7zZmBYB-6LMvsrADrWQfyZOVO2sKsQmpUHLMDQbPA5Uy8vKKIjjLpwcjnUxP-eB4DDvlOqpI2Wj9rMV-PqJuc2QpXkNnfZmt37d4QGcmoF89Cc909cIUl8zM26Oek4OtBqPy6dWxYKl4RCxtijaSeoSPP5CFBeX789xXw7rQPnL8FEU6Rv3rkRhkzGdkrR4oPP9uF1w6WRluSy8X55LeIgXjTBPLqQbg9ZhMqYbmNSB5AAEeHvFvr6dr4GBFd2Aguj9Meyc7jCGjHWnzePsNfUXqdNVQL5tgHnLWAWkVQx2c1BOdFVHbRajTmkSmGQf4UskmaNttLW-8TVLBPJSDyD9nVD6Dhry3X5vRmBlzRgDLFk_aKwhbq_p35ABlgwlHR2rNkDX7FPGXbHLPOWSex27rUeBW3eBXUIPY3NqZ-Q7MwS7zBRUqZHkI1tPgctl7eOXlgOZMngoKhkriTjRmmachrZvzCDGV_lLJk4_VOfABphMTqJ7gcl-3hvwNlw77eBtQj4iXrDTNtp3X14it0P-izcF_mMeJKv-vzsEtrhw-yVC_EppCJ_Q_WHPe7t93pa_m5RvnWNuSWmZVp7phQut8sZkwChiEyWp2n5ToEt3C0DNJuUsHSJPjQX0raxxoN8REcw5RcrYT7DR3ZmFhXn-7tgL3W_4sNGATUJk2-JZy-SV]--></g></svg>