<?xml version="1.0" encoding="us-ascii" standalone="no"?><svg xmlns="http://www.w3.org/2000/svg" xmlns:xlink="http://www.w3.org/1999/xlink" contentStyleType="text/css" height="1180px" preserveAspectRatio="none" style="width:2051px;height:1180px;background:#FFFFFF;" version="1.1" viewBox="0 0 2051 1180" width="2051px" zoomAndPan="magnify"><defs/><g><!--cluster Rank Aggregate--><g id="cluster_Rank Aggregate"><path d="M316.5,6.0137 L429.5,6.0137 A3.75,3.75 0 0 1 432,8.5137 L439,30.6348 L605.5,30.6348 A2.5,2.5 0 0 1 608,33.1348 L608,304.5137 A2.5,2.5 0 0 1 605.5,307.0137 L316.5,307.0137 A2.5,2.5 0 0 1 314,304.5137 L314,8.5137 A2.5,2.5 0 0 1 316.5,6.0137 " fill="none" style="stroke:#000000;stroke-width:1.5;"/><line style="stroke:#000000;stroke-width:1.5;" x1="314" x2="439" y1="30.6348" y2="30.6348"/><text fill="#000000" font-family="sans-serif" font-size="14" font-weight="bold" lengthAdjust="spacing" textLength="112" x="318" y="23.1211">Rank Aggregate</text></g><!--cluster JobApplication Aggregate--><g id="cluster_JobApplication Aggregate"><path d="M8.5,715.0137 L190.5,715.0137 A3.75,3.75 0 0 1 193,717.5137 L200,739.6348 L636.5,739.6348 A2.5,2.5 0 0 1 639,742.1348 L639,1171.0137 A2.5,2.5 0 0 1 636.5,1173.5137 L8.5,1173.5137 A2.5,2.5 0 0 1 6,1171.0137 L6,717.5137 A2.5,2.5 0 0 1 8.5,715.0137 " fill="none" style="stroke:#000000;stroke-width:1.5;"/><line style="stroke:#000000;stroke-width:1.5;" x1="6" x2="200" y1="739.6348" y2="739.6348"/><text fill="#000000" font-family="sans-serif" font-size="14" font-weight="bold" lengthAdjust="spacing" textLength="181" x="10" y="732.1211">JobApplication Aggregate</text></g><!--cluster Job Opening Aggregate--><g id="cluster_Job Opening Aggregate"><path d="M665.5,135.0137 L833.5,135.0137 A3.75,3.75 0 0 1 836,137.5137 L843,159.6348 L2041.5,159.6348 A2.5,2.5 0 0 1 2044,162.1348 L2044,866.0137 A2.5,2.5 0 0 1 2041.5,868.5137 L665.5,868.5137 A2.5,2.5 0 0 1 663,866.0137 L663,137.5137 A2.5,2.5 0 0 1 665.5,135.0137 " fill="none" style="stroke:#000000;stroke-width:1.5;"/><line style="stroke:#000000;stroke-width:1.5;" x1="663" x2="843" y1="159.6348" y2="159.6348"/><text fill="#000000" font-family="sans-serif" font-size="14" font-weight="bold" lengthAdjust="spacing" textLength="167" x="667" y="152.1211">Job Opening Aggregate</text></g><!--class Rank--><g id="elem_Rank"><rect codeLine="5" fill="#F1F1F1" height="81.8633" id="Rank" rx="2.5" ry="2.5" style="stroke:#181818;stroke-width:0.5;" width="82" x="420" y="209.0137"/><ellipse cx="435" cy="241.9453" fill="#ADD1B2" rx="11" ry="11" style="stroke:#181818;stroke-width:1.0;"/><path d="M437.7656,237.8203 Q437.9219,237.6016 438.1094,237.4922 Q438.2969,237.3828 438.5156,237.3828 Q438.8906,237.3828 439.125,237.6484 Q439.3594,237.8984 439.3594,238.5078 L439.3594,239.9609 Q439.3594,240.5703 439.125,240.8359 Q438.8906,241.1016 438.5156,241.1016 Q438.1719,241.1016 437.9688,240.8984 Q437.7656,240.7109 437.6563,240.1953 Q437.6094,239.8359 437.4219,239.6484 Q437.0938,239.2734 436.4844,239.0547 Q435.875,238.8359 435.25,238.8359 Q434.4844,238.8359 433.8438,239.1641 Q433.2188,239.4922 432.7188,240.2422 Q432.2344,240.9922 432.2344,242.0234 L432.2344,243.1172 Q432.2344,244.3516 433.125,245.1797 Q434.0156,245.9922 435.6094,245.9922 Q436.5469,245.9922 437.2031,245.7422 Q437.5938,245.5859 438.0156,245.1484 Q438.2813,244.8828 438.4219,244.8047 Q438.5781,244.7266 438.7813,244.7266 Q439.1094,244.7266 439.3594,244.9922 Q439.625,245.2422 439.625,245.5859 Q439.625,245.9297 439.2813,246.3359 Q438.7813,246.9141 437.9844,247.2422 Q436.9063,247.6953 435.6094,247.6953 Q434.0938,247.6953 432.8906,247.0703 Q431.9063,246.5703 431.2188,245.5078 Q430.5313,244.4297 430.5313,243.1484 L430.5313,241.9922 Q430.5313,240.6641 431.1406,239.5234 Q431.7656,238.3672 432.8594,237.7578 Q433.9531,237.1328 435.1875,237.1328 Q435.9219,237.1328 436.5625,237.3047 Q437.2188,237.4609 437.7656,237.8203 Z " fill="#000000"/><text fill="#000000" font-family="sans-serif" font-size="14" lengthAdjust="spacing" textLength="50" x="449" y="229.1211">&#171;entity&#187;</text><text fill="#000000" font-family="sans-serif" font-size="14" lengthAdjust="spacing" textLength="41" x="453.5" y="247.7422">&#171;root&#187;</text><text fill="#000000" font-family="sans-serif" font-size="14" lengthAdjust="spacing" textLength="33" x="457.5" y="266.3633">Rank</text><line style="stroke:#181818;stroke-width:0.5;" x1="421" x2="501" y1="274.877" y2="274.877"/><line style="stroke:#181818;stroke-width:0.5;" x1="421" x2="501" y1="282.877" y2="282.877"/></g><g id="elem_N6"><path d="M330.5,43.0137 L330.5,87.5957 A0,0 0 0 0 330.5,87.5957 L457,87.5957 L461,208.7537 L465,87.5957 L591.5,87.5957 A0,0 0 0 0 591.5,87.5957 L591.5,53.0137 L581.5,43.0137 L330.5,43.0137 A0,0 0 0 0 330.5,43.0137 " fill="#FEFFDD" style="stroke:#181818;stroke-width:0.5;"/><path d="M581.5,43.0137 L581.5,53.0137 L591.5,53.0137 L581.5,43.0137 " fill="#FEFFDD" style="stroke:#181818;stroke-width:0.5;"/><text fill="#000000" font-family="sans-serif" font-size="13" lengthAdjust="spacing" textLength="179" x="336.5" y="62.042">The identifier of the entity Rank</text><text fill="#000000" font-family="sans-serif" font-size="13" lengthAdjust="spacing" textLength="240" x="336.5" y="79.333">is the JobReference(id) of the JobOpening</text></g><!--class JobApplication--><g id="elem_JobApplication"><rect codeLine="17" fill="#F1F1F1" height="81.8633" id="JobApplication" rx="2.5" ry="2.5" style="stroke:#181818;stroke-width:0.5;" width="123" x="352.5" y="752.0137"/><ellipse cx="367.5" cy="784.9453" fill="#ADD1B2" rx="11" ry="11" style="stroke:#181818;stroke-width:1.0;"/><path d="M370.2656,780.8203 Q370.4219,780.6016 370.6094,780.4922 Q370.7969,780.3828 371.0156,780.3828 Q371.3906,780.3828 371.625,780.6484 Q371.8594,780.8984 371.8594,781.5078 L371.8594,782.9609 Q371.8594,783.5703 371.625,783.8359 Q371.3906,784.1016 371.0156,784.1016 Q370.6719,784.1016 370.4688,783.8984 Q370.2656,783.7109 370.1563,783.1953 Q370.1094,782.8359 369.9219,782.6484 Q369.5938,782.2734 368.9844,782.0547 Q368.375,781.8359 367.75,781.8359 Q366.9844,781.8359 366.3438,782.1641 Q365.7188,782.4922 365.2188,783.2422 Q364.7344,783.9922 364.7344,785.0234 L364.7344,786.1172 Q364.7344,787.3516 365.625,788.1797 Q366.5156,788.9922 368.1094,788.9922 Q369.0469,788.9922 369.7031,788.7422 Q370.0938,788.5859 370.5156,788.1484 Q370.7813,787.8828 370.9219,787.8047 Q371.0781,787.7266 371.2813,787.7266 Q371.6094,787.7266 371.8594,787.9922 Q372.125,788.2422 372.125,788.5859 Q372.125,788.9297 371.7813,789.3359 Q371.2813,789.9141 370.4844,790.2422 Q369.4063,790.6953 368.1094,790.6953 Q366.5938,790.6953 365.3906,790.0703 Q364.4063,789.5703 363.7188,788.5078 Q363.0313,787.4297 363.0313,786.1484 L363.0313,784.9922 Q363.0313,783.6641 363.6406,782.5234 Q364.2656,781.3672 365.3594,780.7578 Q366.4531,780.1328 367.6875,780.1328 Q368.4219,780.1328 369.0625,780.3047 Q369.7188,780.4609 370.2656,780.8203 Z " fill="#000000"/><text fill="#000000" font-family="sans-serif" font-size="14" lengthAdjust="spacing" textLength="41" x="406.5" y="772.1211">&#171;root&#187;</text><text fill="#000000" font-family="sans-serif" font-size="14" lengthAdjust="spacing" textLength="50" x="402" y="790.7422">&#171;entity&#187;</text><text fill="#000000" font-family="sans-serif" font-size="14" lengthAdjust="spacing" textLength="91" x="381.5" y="809.3633">JobApplication</text><line style="stroke:#181818;stroke-width:0.5;" x1="353.5" x2="474.5" y1="817.877" y2="817.877"/><line style="stroke:#181818;stroke-width:0.5;" x1="353.5" x2="474.5" y1="825.877" y2="825.877"/></g><!--class Status--><g id="elem_Status"><rect codeLine="20" fill="#F1F1F1" height="63.2422" id="Status" rx="2.5" ry="2.5" style="stroke:#181818;stroke-width:0.5;" width="124" x="22" y="952.0137"/><ellipse cx="37" cy="975.6348" fill="#ADD1B2" rx="11" ry="11" style="stroke:#181818;stroke-width:1.0;"/><path d="M39.7656,971.5098 Q39.9219,971.291 40.1094,971.1816 Q40.2969,971.0723 40.5156,971.0723 Q40.8906,971.0723 41.125,971.3379 Q41.3594,971.5879 41.3594,972.1973 L41.3594,973.6504 Q41.3594,974.2598 41.125,974.5254 Q40.8906,974.791 40.5156,974.791 Q40.1719,974.791 39.9688,974.5879 Q39.7656,974.4004 39.6563,973.8848 Q39.6094,973.5254 39.4219,973.3379 Q39.0938,972.9629 38.4844,972.7441 Q37.875,972.5254 37.25,972.5254 Q36.4844,972.5254 35.8438,972.8535 Q35.2188,973.1816 34.7188,973.9316 Q34.2344,974.6816 34.2344,975.7129 L34.2344,976.8066 Q34.2344,978.041 35.125,978.8691 Q36.0156,979.6816 37.6094,979.6816 Q38.5469,979.6816 39.2031,979.4316 Q39.5938,979.2754 40.0156,978.8379 Q40.2813,978.5723 40.4219,978.4941 Q40.5781,978.416 40.7813,978.416 Q41.1094,978.416 41.3594,978.6816 Q41.625,978.9316 41.625,979.2754 Q41.625,979.6191 41.2813,980.0254 Q40.7813,980.6035 39.9844,980.9316 Q38.9063,981.3848 37.6094,981.3848 Q36.0938,981.3848 34.8906,980.7598 Q33.9063,980.2598 33.2188,979.1973 Q32.5313,978.1191 32.5313,976.8379 L32.5313,975.6816 Q32.5313,974.3535 33.1406,973.2129 Q33.7656,972.0566 34.8594,971.4473 Q35.9531,970.8223 37.1875,970.8223 Q37.9219,970.8223 38.5625,970.9941 Q39.2188,971.1504 39.7656,971.5098 Z " fill="#000000"/><text fill="#000000" font-family="sans-serif" font-size="14" lengthAdjust="spacing" textLength="92" x="51" y="972.1211">&#171;value object&#187;</text><text fill="#000000" font-family="sans-serif" font-size="14" lengthAdjust="spacing" textLength="40" x="77" y="990.7422">Status</text><line style="stroke:#181818;stroke-width:0.5;" x1="23" x2="145" y1="999.2559" y2="999.2559"/><line style="stroke:#181818;stroke-width:0.5;" x1="23" x2="145" y1="1007.2559" y2="1007.2559"/></g><!--class ID--><g id="elem_ID"><rect codeLine="23" fill="#F1F1F1" height="81.8633" id="ID" rx="2.5" ry="2.5" style="stroke:#181818;stroke-width:0.5;" width="124" x="181" y="942.5137"/><ellipse cx="196" cy="975.4453" fill="#ADD1B2" rx="11" ry="11" style="stroke:#181818;stroke-width:1.0;"/><path d="M198.7656,971.3203 Q198.9219,971.1016 199.1094,970.9922 Q199.2969,970.8828 199.5156,970.8828 Q199.8906,970.8828 200.125,971.1484 Q200.3594,971.3984 200.3594,972.0078 L200.3594,973.4609 Q200.3594,974.0703 200.125,974.3359 Q199.8906,974.6016 199.5156,974.6016 Q199.1719,974.6016 198.9688,974.3984 Q198.7656,974.2109 198.6563,973.6953 Q198.6094,973.3359 198.4219,973.1484 Q198.0938,972.7734 197.4844,972.5547 Q196.875,972.3359 196.25,972.3359 Q195.4844,972.3359 194.8438,972.6641 Q194.2188,972.9922 193.7188,973.7422 Q193.2344,974.4922 193.2344,975.5234 L193.2344,976.6172 Q193.2344,977.8516 194.125,978.6797 Q195.0156,979.4922 196.6094,979.4922 Q197.5469,979.4922 198.2031,979.2422 Q198.5938,979.0859 199.0156,978.6484 Q199.2813,978.3828 199.4219,978.3047 Q199.5781,978.2266 199.7813,978.2266 Q200.1094,978.2266 200.3594,978.4922 Q200.625,978.7422 200.625,979.0859 Q200.625,979.4297 200.2813,979.8359 Q199.7813,980.4141 198.9844,980.7422 Q197.9063,981.1953 196.6094,981.1953 Q195.0938,981.1953 193.8906,980.5703 Q192.9063,980.0703 192.2188,979.0078 Q191.5313,977.9297 191.5313,976.6484 L191.5313,975.4922 Q191.5313,974.1641 192.1406,973.0234 Q192.7656,971.8672 193.8594,971.2578 Q194.9531,970.6328 196.1875,970.6328 Q196.9219,970.6328 197.5625,970.8047 Q198.2188,970.9609 198.7656,971.3203 Z " fill="#000000"/><text fill="#000000" font-family="sans-serif" font-size="14" lengthAdjust="spacing" textLength="92" x="210" y="962.6211">&#171;value object&#187;</text><text fill="#000000" font-family="sans-serif" font-size="14" lengthAdjust="spacing" textLength="70" x="221" y="981.2422">&#171;identifier&#187;</text><text fill="#000000" font-family="sans-serif" font-size="14" lengthAdjust="spacing" textLength="11" x="250.5" y="999.8633">Id</text><line style="stroke:#181818;stroke-width:0.5;" x1="182" x2="304" y1="1008.377" y2="1008.377"/><line style="stroke:#181818;stroke-width:0.5;" x1="182" x2="304" y1="1016.377" y2="1016.377"/></g><!--class Grade--><g id="elem_Grade"><rect codeLine="26" fill="#F1F1F1" height="81.8633" id="Grade" rx="2.5" ry="2.5" style="stroke:#181818;stroke-width:0.5;" width="124" x="340" y="942.5137"/><ellipse cx="355" cy="975.4453" fill="#ADD1B2" rx="11" ry="11" style="stroke:#181818;stroke-width:1.0;"/><path d="M357.7656,971.3203 Q357.9219,971.1016 358.1094,970.9922 Q358.2969,970.8828 358.5156,970.8828 Q358.8906,970.8828 359.125,971.1484 Q359.3594,971.3984 359.3594,972.0078 L359.3594,973.4609 Q359.3594,974.0703 359.125,974.3359 Q358.8906,974.6016 358.5156,974.6016 Q358.1719,974.6016 357.9688,974.3984 Q357.7656,974.2109 357.6563,973.6953 Q357.6094,973.3359 357.4219,973.1484 Q357.0938,972.7734 356.4844,972.5547 Q355.875,972.3359 355.25,972.3359 Q354.4844,972.3359 353.8438,972.6641 Q353.2188,972.9922 352.7188,973.7422 Q352.2344,974.4922 352.2344,975.5234 L352.2344,976.6172 Q352.2344,977.8516 353.125,978.6797 Q354.0156,979.4922 355.6094,979.4922 Q356.5469,979.4922 357.2031,979.2422 Q357.5938,979.0859 358.0156,978.6484 Q358.2813,978.3828 358.4219,978.3047 Q358.5781,978.2266 358.7813,978.2266 Q359.1094,978.2266 359.3594,978.4922 Q359.625,978.7422 359.625,979.0859 Q359.625,979.4297 359.2813,979.8359 Q358.7813,980.4141 357.9844,980.7422 Q356.9063,981.1953 355.6094,981.1953 Q354.0938,981.1953 352.8906,980.5703 Q351.9063,980.0703 351.2188,979.0078 Q350.5313,977.9297 350.5313,976.6484 L350.5313,975.4922 Q350.5313,974.1641 351.1406,973.0234 Q351.7656,971.8672 352.8594,971.2578 Q353.9531,970.6328 355.1875,970.6328 Q355.9219,970.6328 356.5625,970.8047 Q357.2188,970.9609 357.7656,971.3203 Z " fill="#000000"/><text fill="#000000" font-family="sans-serif" font-size="14" lengthAdjust="spacing" textLength="92" x="369" y="962.6211">&#171;value object&#187;</text><text fill="#000000" font-family="sans-serif" font-size="14" lengthAdjust="spacing" textLength="80" x="375" y="981.2422">&#171;calculated&#187;</text><text fill="#000000" font-family="sans-serif" font-size="14" lengthAdjust="spacing" textLength="40" x="395" y="999.8633">Grade</text><line style="stroke:#181818;stroke-width:0.5;" x1="341" x2="463" y1="1008.377" y2="1008.377"/><line style="stroke:#181818;stroke-width:0.5;" x1="341" x2="463" y1="1016.377" y2="1016.377"/></g><!--class ApplicationFile--><g id="elem_ApplicationFile"><rect codeLine="29" fill="#F1F1F1" height="100.4844" id="ApplicationFile" rx="2.5" ry="2.5" style="stroke:#181818;stroke-width:0.5;" width="124" x="499" y="933.5137"/><ellipse cx="514" cy="957.1348" fill="#ADD1B2" rx="11" ry="11" style="stroke:#181818;stroke-width:1.0;"/><path d="M516.7656,953.0098 Q516.9219,952.791 517.1094,952.6816 Q517.2969,952.5723 517.5156,952.5723 Q517.8906,952.5723 518.125,952.8379 Q518.3594,953.0879 518.3594,953.6973 L518.3594,955.1504 Q518.3594,955.7598 518.125,956.0254 Q517.8906,956.291 517.5156,956.291 Q517.1719,956.291 516.9688,956.0879 Q516.7656,955.9004 516.6563,955.3848 Q516.6094,955.0254 516.4219,954.8379 Q516.0938,954.4629 515.4844,954.2441 Q514.875,954.0254 514.25,954.0254 Q513.4844,954.0254 512.8438,954.3535 Q512.2188,954.6816 511.7188,955.4316 Q511.2344,956.1816 511.2344,957.2129 L511.2344,958.3066 Q511.2344,959.541 512.125,960.3691 Q513.0156,961.1816 514.6094,961.1816 Q515.5469,961.1816 516.2031,960.9316 Q516.5938,960.7754 517.0156,960.3379 Q517.2813,960.0723 517.4219,959.9941 Q517.5781,959.916 517.7813,959.916 Q518.1094,959.916 518.3594,960.1816 Q518.625,960.4316 518.625,960.7754 Q518.625,961.1191 518.2813,961.5254 Q517.7813,962.1035 516.9844,962.4316 Q515.9063,962.8848 514.6094,962.8848 Q513.0938,962.8848 511.8906,962.2598 Q510.9063,961.7598 510.2188,960.6973 Q509.5313,959.6191 509.5313,958.3379 L509.5313,957.1816 Q509.5313,955.8535 510.1406,954.7129 Q510.7656,953.5566 511.8594,952.9473 Q512.9531,952.3223 514.1875,952.3223 Q514.9219,952.3223 515.5625,952.4941 Q516.2188,952.6504 516.7656,953.0098 Z " fill="#000000"/><text fill="#000000" font-family="sans-serif" font-size="14" lengthAdjust="spacing" textLength="92" x="528" y="953.6211">&#171;value object&#187;</text><text fill="#000000" font-family="sans-serif" font-size="14" lengthAdjust="spacing" textLength="92" x="528" y="972.2422">ApplicationFile</text><line style="stroke:#181818;stroke-width:0.5;" x1="500" x2="622" y1="980.7559" y2="980.7559"/><text fill="#000000" font-family="sans-serif" font-size="14" lengthAdjust="spacing" textLength="98" x="505" y="999.8633">relativeFilePath</text><text fill="#000000" font-family="sans-serif" font-size="14" lengthAdjust="spacing" textLength="68" x="505" y="1018.4844">fileContent</text><line style="stroke:#181818;stroke-width:0.5;" x1="500" x2="622" y1="1025.998" y2="1025.998"/></g><!--class Type--><g id="elem_Type"><rect codeLine="36" fill="#F1F1F1" height="63.2422" id="Type" rx="2.5" ry="2.5" style="stroke:#181818;stroke-width:0.5;" width="124" x="499" y="1094.5137"/><ellipse cx="514" cy="1118.1348" fill="#ADD1B2" rx="11" ry="11" style="stroke:#181818;stroke-width:1.0;"/><path d="M516.7656,1114.0098 Q516.9219,1113.791 517.1094,1113.6816 Q517.2969,1113.5723 517.5156,1113.5723 Q517.8906,1113.5723 518.125,1113.8379 Q518.3594,1114.0879 518.3594,1114.6973 L518.3594,1116.1504 Q518.3594,1116.7598 518.125,1117.0254 Q517.8906,1117.291 517.5156,1117.291 Q517.1719,1117.291 516.9688,1117.0879 Q516.7656,1116.9004 516.6563,1116.3848 Q516.6094,1116.0254 516.4219,1115.8379 Q516.0938,1115.4629 515.4844,1115.2441 Q514.875,1115.0254 514.25,1115.0254 Q513.4844,1115.0254 512.8438,1115.3535 Q512.2188,1115.6816 511.7188,1116.4316 Q511.2344,1117.1816 511.2344,1118.2129 L511.2344,1119.3066 Q511.2344,1120.541 512.125,1121.3691 Q513.0156,1122.1816 514.6094,1122.1816 Q515.5469,1122.1816 516.2031,1121.9316 Q516.5938,1121.7754 517.0156,1121.3379 Q517.2813,1121.0723 517.4219,1120.9941 Q517.5781,1120.916 517.7813,1120.916 Q518.1094,1120.916 518.3594,1121.1816 Q518.625,1121.4316 518.625,1121.7754 Q518.625,1122.1191 518.2813,1122.5254 Q517.7813,1123.1035 516.9844,1123.4316 Q515.9063,1123.8848 514.6094,1123.8848 Q513.0938,1123.8848 511.8906,1123.2598 Q510.9063,1122.7598 510.2188,1121.6973 Q509.5313,1120.6191 509.5313,1119.3379 L509.5313,1118.1816 Q509.5313,1116.8535 510.1406,1115.7129 Q510.7656,1114.5566 511.8594,1113.9473 Q512.9531,1113.3223 514.1875,1113.3223 Q514.9219,1113.3223 515.5625,1113.4941 Q516.2188,1113.6504 516.7656,1114.0098 Z " fill="#000000"/><text fill="#000000" font-family="sans-serif" font-size="14" lengthAdjust="spacing" textLength="92" x="528" y="1114.6211">&#171;value object&#187;</text><text fill="#000000" font-family="sans-serif" font-size="14" lengthAdjust="spacing" textLength="32" x="558" y="1133.2422">Type</text><line style="stroke:#181818;stroke-width:0.5;" x1="500" x2="622" y1="1141.7559" y2="1141.7559"/><line style="stroke:#181818;stroke-width:0.5;" x1="500" x2="622" y1="1149.7559" y2="1149.7559"/></g><!--class RecruitmentProcess--><g id="elem_RecruitmentProcess"><rect codeLine="43" fill="#F1F1F1" height="81.8633" id="RecruitmentProcess" rx="2.5" ry="2.5" style="stroke:#181818;stroke-width:0.5;" width="159" x="841.5" y="568.0137"/><ellipse cx="856.5" cy="591.6348" fill="#ADD1B2" rx="11" ry="11" style="stroke:#181818;stroke-width:1.0;"/><path d="M859.2656,587.5098 Q859.4219,587.291 859.6094,587.1816 Q859.7969,587.0723 860.0156,587.0723 Q860.3906,587.0723 860.625,587.3379 Q860.8594,587.5879 860.8594,588.1973 L860.8594,589.6504 Q860.8594,590.2598 860.625,590.5254 Q860.3906,590.791 860.0156,590.791 Q859.6719,590.791 859.4688,590.5879 Q859.2656,590.4004 859.1563,589.8848 Q859.1094,589.5254 858.9219,589.3379 Q858.5938,588.9629 857.9844,588.7441 Q857.375,588.5254 856.75,588.5254 Q855.9844,588.5254 855.3438,588.8535 Q854.7188,589.1816 854.2188,589.9316 Q853.7344,590.6816 853.7344,591.7129 L853.7344,592.8066 Q853.7344,594.041 854.625,594.8691 Q855.5156,595.6816 857.1094,595.6816 Q858.0469,595.6816 858.7031,595.4316 Q859.0938,595.2754 859.5156,594.8379 Q859.7813,594.5723 859.9219,594.4941 Q860.0781,594.416 860.2813,594.416 Q860.6094,594.416 860.8594,594.6816 Q861.125,594.9316 861.125,595.2754 Q861.125,595.6191 860.7813,596.0254 Q860.2813,596.6035 859.4844,596.9316 Q858.4063,597.3848 857.1094,597.3848 Q855.5938,597.3848 854.3906,596.7598 Q853.4063,596.2598 852.7188,595.1973 Q852.0313,594.1191 852.0313,592.8379 L852.0313,591.6816 Q852.0313,590.3535 852.6406,589.2129 Q853.2656,588.0566 854.3594,587.4473 Q855.4531,586.8223 856.6875,586.8223 Q857.4219,586.8223 858.0625,586.9941 Q858.7188,587.1504 859.2656,587.5098 Z " fill="#000000"/><text fill="#000000" font-family="sans-serif" font-size="14" lengthAdjust="spacing" textLength="50" x="909" y="588.1211">&#171;entity&#187;</text><text fill="#000000" font-family="sans-serif" font-size="14" lengthAdjust="spacing" textLength="127" x="870.5" y="606.7422">RecruitmentProcess</text><line style="stroke:#181818;stroke-width:0.5;" x1="842.5" x2="999.5" y1="615.2559" y2="615.2559"/><text fill="#000000" font-family="sans-serif" font-size="14" lengthAdjust="spacing" textLength="119" x="847.5" y="634.3633">HasInterviewPhase</text><line style="stroke:#181818;stroke-width:0.5;" x1="842.5" x2="999.5" y1="641.877" y2="641.877"/></g><!--class Phase--><g id="elem_Phase"><rect codeLine="47" fill="#F1F1F1" height="119.1055" id="Phase" rx="2.5" ry="2.5" style="stroke:#181818;stroke-width:0.5;" width="87" x="1604.5" y="733.5137"/><ellipse cx="1621.75" cy="757.1348" fill="#ADD1B2" rx="11" ry="11" style="stroke:#181818;stroke-width:1.0;"/><path d="M1624.5156,753.0098 Q1624.6719,752.791 1624.8594,752.6816 Q1625.0469,752.5723 1625.2656,752.5723 Q1625.6406,752.5723 1625.875,752.8379 Q1626.1094,753.0879 1626.1094,753.6973 L1626.1094,755.1504 Q1626.1094,755.7598 1625.875,756.0254 Q1625.6406,756.291 1625.2656,756.291 Q1624.9219,756.291 1624.7188,756.0879 Q1624.5156,755.9004 1624.4063,755.3848 Q1624.3594,755.0254 1624.1719,754.8379 Q1623.8438,754.4629 1623.2344,754.2441 Q1622.625,754.0254 1622,754.0254 Q1621.2344,754.0254 1620.5938,754.3535 Q1619.9688,754.6816 1619.4688,755.4316 Q1618.9844,756.1816 1618.9844,757.2129 L1618.9844,758.3066 Q1618.9844,759.541 1619.875,760.3691 Q1620.7656,761.1816 1622.3594,761.1816 Q1623.2969,761.1816 1623.9531,760.9316 Q1624.3438,760.7754 1624.7656,760.3379 Q1625.0313,760.0723 1625.1719,759.9941 Q1625.3281,759.916 1625.5313,759.916 Q1625.8594,759.916 1626.1094,760.1816 Q1626.375,760.4316 1626.375,760.7754 Q1626.375,761.1191 1626.0313,761.5254 Q1625.5313,762.1035 1624.7344,762.4316 Q1623.6563,762.8848 1622.3594,762.8848 Q1620.8438,762.8848 1619.6406,762.2598 Q1618.6563,761.7598 1617.9688,760.6973 Q1617.2813,759.6191 1617.2813,758.3379 L1617.2813,757.1816 Q1617.2813,755.8535 1617.8906,754.7129 Q1618.5156,753.5566 1619.6094,752.9473 Q1620.7031,752.3223 1621.9375,752.3223 Q1622.6719,752.3223 1623.3125,752.4941 Q1623.9688,752.6504 1624.5156,753.0098 Z " fill="#000000"/><text fill="#000000" font-family="sans-serif" font-size="14" lengthAdjust="spacing" textLength="50" x="1636.25" y="753.6211">&#171;entity&#187;</text><text fill="#000000" font-family="sans-serif" font-size="14" lengthAdjust="spacing" textLength="40" x="1641.25" y="772.2422">Phase</text><line style="stroke:#181818;stroke-width:0.5;" x1="1605.5" x2="1690.5" y1="780.7559" y2="780.7559"/><text fill="#000000" font-family="sans-serif" font-size="14" lengthAdjust="spacing" textLength="75" x="1610.5" y="799.8633">phaseName</text><text fill="#000000" font-family="sans-serif" font-size="14" lengthAdjust="spacing" textLength="58" x="1610.5" y="818.4844">startDate</text><text fill="#000000" font-family="sans-serif" font-size="14" lengthAdjust="spacing" textLength="54" x="1610.5" y="837.1055">endDate</text><line style="stroke:#181818;stroke-width:0.5;" x1="1605.5" x2="1690.5" y1="844.6191" y2="844.6191"/></g><!--class PhaseNames--><g id="elem_PhaseNames"><rect codeLine="53" fill="#F1F1F1" height="63.2422" id="PhaseNames" rx="2.5" ry="2.5" style="stroke:#181818;stroke-width:0.5;" width="124" x="1085" y="577.5137"/><ellipse cx="1100" cy="601.1348" fill="#ADD1B2" rx="11" ry="11" style="stroke:#181818;stroke-width:1.0;"/><path d="M1102.7656,597.0098 Q1102.9219,596.791 1103.1094,596.6816 Q1103.2969,596.5723 1103.5156,596.5723 Q1103.8906,596.5723 1104.125,596.8379 Q1104.3594,597.0879 1104.3594,597.6973 L1104.3594,599.1504 Q1104.3594,599.7598 1104.125,600.0254 Q1103.8906,600.291 1103.5156,600.291 Q1103.1719,600.291 1102.9688,600.0879 Q1102.7656,599.9004 1102.6563,599.3848 Q1102.6094,599.0254 1102.4219,598.8379 Q1102.0938,598.4629 1101.4844,598.2441 Q1100.875,598.0254 1100.25,598.0254 Q1099.4844,598.0254 1098.8438,598.3535 Q1098.2188,598.6816 1097.7188,599.4316 Q1097.2344,600.1816 1097.2344,601.2129 L1097.2344,602.3066 Q1097.2344,603.541 1098.125,604.3691 Q1099.0156,605.1816 1100.6094,605.1816 Q1101.5469,605.1816 1102.2031,604.9316 Q1102.5938,604.7754 1103.0156,604.3379 Q1103.2813,604.0723 1103.4219,603.9941 Q1103.5781,603.916 1103.7813,603.916 Q1104.1094,603.916 1104.3594,604.1816 Q1104.625,604.4316 1104.625,604.7754 Q1104.625,605.1191 1104.2813,605.5254 Q1103.7813,606.1035 1102.9844,606.4316 Q1101.9063,606.8848 1100.6094,606.8848 Q1099.0938,606.8848 1097.8906,606.2598 Q1096.9063,605.7598 1096.2188,604.6973 Q1095.5313,603.6191 1095.5313,602.3379 L1095.5313,601.1816 Q1095.5313,599.8535 1096.1406,598.7129 Q1096.7656,597.5566 1097.8594,596.9473 Q1098.9531,596.3223 1100.1875,596.3223 Q1100.9219,596.3223 1101.5625,596.4941 Q1102.2188,596.6504 1102.7656,597.0098 Z " fill="#000000"/><text fill="#000000" font-family="sans-serif" font-size="14" lengthAdjust="spacing" textLength="92" x="1114" y="597.6211">&#171;value object&#187;</text><text fill="#000000" font-family="sans-serif" font-size="14" lengthAdjust="spacing" textLength="83" x="1118.5" y="616.2422">PhaseNames</text><line style="stroke:#181818;stroke-width:0.5;" x1="1086" x2="1208" y1="624.7559" y2="624.7559"/><line style="stroke:#181818;stroke-width:0.5;" x1="1086" x2="1208" y1="632.7559" y2="632.7559"/></g><!--class ScreeningPhase--><g id="elem_ScreeningPhase"><rect codeLine="58" fill="#F1F1F1" height="63.2422" id="ScreeningPhase" rx="2.5" ry="2.5" style="stroke:#181818;stroke-width:0.5;" width="136" x="1892" y="577.5137"/><ellipse cx="1907" cy="601.1348" fill="#ADD1B2" rx="11" ry="11" style="stroke:#181818;stroke-width:1.0;"/><path d="M1909.7656,597.0098 Q1909.9219,596.791 1910.1094,596.6816 Q1910.2969,596.5723 1910.5156,596.5723 Q1910.8906,596.5723 1911.125,596.8379 Q1911.3594,597.0879 1911.3594,597.6973 L1911.3594,599.1504 Q1911.3594,599.7598 1911.125,600.0254 Q1910.8906,600.291 1910.5156,600.291 Q1910.1719,600.291 1909.9688,600.0879 Q1909.7656,599.9004 1909.6563,599.3848 Q1909.6094,599.0254 1909.4219,598.8379 Q1909.0938,598.4629 1908.4844,598.2441 Q1907.875,598.0254 1907.25,598.0254 Q1906.4844,598.0254 1905.8438,598.3535 Q1905.2188,598.6816 1904.7188,599.4316 Q1904.2344,600.1816 1904.2344,601.2129 L1904.2344,602.3066 Q1904.2344,603.541 1905.125,604.3691 Q1906.0156,605.1816 1907.6094,605.1816 Q1908.5469,605.1816 1909.2031,604.9316 Q1909.5938,604.7754 1910.0156,604.3379 Q1910.2813,604.0723 1910.4219,603.9941 Q1910.5781,603.916 1910.7813,603.916 Q1911.1094,603.916 1911.3594,604.1816 Q1911.625,604.4316 1911.625,604.7754 Q1911.625,605.1191 1911.2813,605.5254 Q1910.7813,606.1035 1909.9844,606.4316 Q1908.9063,606.8848 1907.6094,606.8848 Q1906.0938,606.8848 1904.8906,606.2598 Q1903.9063,605.7598 1903.2188,604.6973 Q1902.5313,603.6191 1902.5313,602.3379 L1902.5313,601.1816 Q1902.5313,599.8535 1903.1406,598.7129 Q1903.7656,597.5566 1904.8594,596.9473 Q1905.9531,596.3223 1907.1875,596.3223 Q1907.9219,596.3223 1908.5625,596.4941 Q1909.2188,596.6504 1909.7656,597.0098 Z " fill="#000000"/><text fill="#000000" font-family="sans-serif" font-size="14" lengthAdjust="spacing" textLength="50" x="1948" y="597.6211">&#171;entity&#187;</text><text fill="#000000" font-family="sans-serif" font-size="14" lengthAdjust="spacing" textLength="104" x="1921" y="616.2422">ScreeningPhase</text><line style="stroke:#181818;stroke-width:0.5;" x1="1893" x2="2027" y1="624.7559" y2="624.7559"/><line style="stroke:#181818;stroke-width:0.5;" x1="1893" x2="2027" y1="632.7559" y2="632.7559"/></g><!--class ResultPhase--><g id="elem_ResultPhase"><rect codeLine="62" fill="#F1F1F1" height="63.2422" id="ResultPhase" rx="2.5" ry="2.5" style="stroke:#181818;stroke-width:0.5;" width="112" x="1745" y="577.5137"/><ellipse cx="1760" cy="601.1348" fill="#ADD1B2" rx="11" ry="11" style="stroke:#181818;stroke-width:1.0;"/><path d="M1762.7656,597.0098 Q1762.9219,596.791 1763.1094,596.6816 Q1763.2969,596.5723 1763.5156,596.5723 Q1763.8906,596.5723 1764.125,596.8379 Q1764.3594,597.0879 1764.3594,597.6973 L1764.3594,599.1504 Q1764.3594,599.7598 1764.125,600.0254 Q1763.8906,600.291 1763.5156,600.291 Q1763.1719,600.291 1762.9688,600.0879 Q1762.7656,599.9004 1762.6563,599.3848 Q1762.6094,599.0254 1762.4219,598.8379 Q1762.0938,598.4629 1761.4844,598.2441 Q1760.875,598.0254 1760.25,598.0254 Q1759.4844,598.0254 1758.8438,598.3535 Q1758.2188,598.6816 1757.7188,599.4316 Q1757.2344,600.1816 1757.2344,601.2129 L1757.2344,602.3066 Q1757.2344,603.541 1758.125,604.3691 Q1759.0156,605.1816 1760.6094,605.1816 Q1761.5469,605.1816 1762.2031,604.9316 Q1762.5938,604.7754 1763.0156,604.3379 Q1763.2813,604.0723 1763.4219,603.9941 Q1763.5781,603.916 1763.7813,603.916 Q1764.1094,603.916 1764.3594,604.1816 Q1764.625,604.4316 1764.625,604.7754 Q1764.625,605.1191 1764.2813,605.5254 Q1763.7813,606.1035 1762.9844,606.4316 Q1761.9063,606.8848 1760.6094,606.8848 Q1759.0938,606.8848 1757.8906,606.2598 Q1756.9063,605.7598 1756.2188,604.6973 Q1755.5313,603.6191 1755.5313,602.3379 L1755.5313,601.1816 Q1755.5313,599.8535 1756.1406,598.7129 Q1756.7656,597.5566 1757.8594,596.9473 Q1758.9531,596.3223 1760.1875,596.3223 Q1760.9219,596.3223 1761.5625,596.4941 Q1762.2188,596.6504 1762.7656,597.0098 Z " fill="#000000"/><text fill="#000000" font-family="sans-serif" font-size="14" lengthAdjust="spacing" textLength="50" x="1789" y="597.6211">&#171;entity&#187;</text><text fill="#000000" font-family="sans-serif" font-size="14" lengthAdjust="spacing" textLength="80" x="1774" y="616.2422">ResultPhase</text><line style="stroke:#181818;stroke-width:0.5;" x1="1746" x2="1856" y1="624.7559" y2="624.7559"/><line style="stroke:#181818;stroke-width:0.5;" x1="1746" x2="1856" y1="632.7559" y2="632.7559"/></g><!--class AnalysisPhase--><g id="elem_AnalysisPhase"><rect codeLine="65" fill="#F1F1F1" height="63.2422" id="AnalysisPhase" rx="2.5" ry="2.5" style="stroke:#181818;stroke-width:0.5;" width="124" x="1586" y="577.5137"/><ellipse cx="1601" cy="601.1348" fill="#ADD1B2" rx="11" ry="11" style="stroke:#181818;stroke-width:1.0;"/><path d="M1603.7656,597.0098 Q1603.9219,596.791 1604.1094,596.6816 Q1604.2969,596.5723 1604.5156,596.5723 Q1604.8906,596.5723 1605.125,596.8379 Q1605.3594,597.0879 1605.3594,597.6973 L1605.3594,599.1504 Q1605.3594,599.7598 1605.125,600.0254 Q1604.8906,600.291 1604.5156,600.291 Q1604.1719,600.291 1603.9688,600.0879 Q1603.7656,599.9004 1603.6563,599.3848 Q1603.6094,599.0254 1603.4219,598.8379 Q1603.0938,598.4629 1602.4844,598.2441 Q1601.875,598.0254 1601.25,598.0254 Q1600.4844,598.0254 1599.8438,598.3535 Q1599.2188,598.6816 1598.7188,599.4316 Q1598.2344,600.1816 1598.2344,601.2129 L1598.2344,602.3066 Q1598.2344,603.541 1599.125,604.3691 Q1600.0156,605.1816 1601.6094,605.1816 Q1602.5469,605.1816 1603.2031,604.9316 Q1603.5938,604.7754 1604.0156,604.3379 Q1604.2813,604.0723 1604.4219,603.9941 Q1604.5781,603.916 1604.7813,603.916 Q1605.1094,603.916 1605.3594,604.1816 Q1605.625,604.4316 1605.625,604.7754 Q1605.625,605.1191 1605.2813,605.5254 Q1604.7813,606.1035 1603.9844,606.4316 Q1602.9063,606.8848 1601.6094,606.8848 Q1600.0938,606.8848 1598.8906,606.2598 Q1597.9063,605.7598 1597.2188,604.6973 Q1596.5313,603.6191 1596.5313,602.3379 L1596.5313,601.1816 Q1596.5313,599.8535 1597.1406,598.7129 Q1597.7656,597.5566 1598.8594,596.9473 Q1599.9531,596.3223 1601.1875,596.3223 Q1601.9219,596.3223 1602.5625,596.4941 Q1603.2188,596.6504 1603.7656,597.0098 Z " fill="#000000"/><text fill="#000000" font-family="sans-serif" font-size="14" lengthAdjust="spacing" textLength="50" x="1636" y="597.6211">&#171;entity&#187;</text><text fill="#000000" font-family="sans-serif" font-size="14" lengthAdjust="spacing" textLength="92" x="1615" y="616.2422">AnalysisPhase</text><line style="stroke:#181818;stroke-width:0.5;" x1="1587" x2="1709" y1="624.7559" y2="624.7559"/><line style="stroke:#181818;stroke-width:0.5;" x1="1587" x2="1709" y1="632.7559" y2="632.7559"/></g><!--class JobOpening--><g id="elem_JobOpening"><rect codeLine="69" fill="#F1F1F1" height="81.8633" id="JobOpening" rx="2.5" ry="2.5" style="stroke:#181818;stroke-width:0.5;" width="108" x="1026" y="407.0137"/><ellipse cx="1041" cy="439.9453" fill="#ADD1B2" rx="11" ry="11" style="stroke:#181818;stroke-width:1.0;"/><path d="M1043.7656,435.8203 Q1043.9219,435.6016 1044.1094,435.4922 Q1044.2969,435.3828 1044.5156,435.3828 Q1044.8906,435.3828 1045.125,435.6484 Q1045.3594,435.8984 1045.3594,436.5078 L1045.3594,437.9609 Q1045.3594,438.5703 1045.125,438.8359 Q1044.8906,439.1016 1044.5156,439.1016 Q1044.1719,439.1016 1043.9688,438.8984 Q1043.7656,438.7109 1043.6563,438.1953 Q1043.6094,437.8359 1043.4219,437.6484 Q1043.0938,437.2734 1042.4844,437.0547 Q1041.875,436.8359 1041.25,436.8359 Q1040.4844,436.8359 1039.8438,437.1641 Q1039.2188,437.4922 1038.7188,438.2422 Q1038.2344,438.9922 1038.2344,440.0234 L1038.2344,441.1172 Q1038.2344,442.3516 1039.125,443.1797 Q1040.0156,443.9922 1041.6094,443.9922 Q1042.5469,443.9922 1043.2031,443.7422 Q1043.5938,443.5859 1044.0156,443.1484 Q1044.2813,442.8828 1044.4219,442.8047 Q1044.5781,442.7266 1044.7813,442.7266 Q1045.1094,442.7266 1045.3594,442.9922 Q1045.625,443.2422 1045.625,443.5859 Q1045.625,443.9297 1045.2813,444.3359 Q1044.7813,444.9141 1043.9844,445.2422 Q1042.9063,445.6953 1041.6094,445.6953 Q1040.0938,445.6953 1038.8906,445.0703 Q1037.9063,444.5703 1037.2188,443.5078 Q1036.5313,442.4297 1036.5313,441.1484 L1036.5313,439.9922 Q1036.5313,438.6641 1037.1406,437.5234 Q1037.7656,436.3672 1038.8594,435.7578 Q1039.9531,435.1328 1041.1875,435.1328 Q1041.9219,435.1328 1042.5625,435.3047 Q1043.2188,435.4609 1043.7656,435.8203 Z " fill="#000000"/><text fill="#000000" font-family="sans-serif" font-size="14" lengthAdjust="spacing" textLength="41" x="1072.5" y="427.1211">&#171;root&#187;</text><text fill="#000000" font-family="sans-serif" font-size="14" lengthAdjust="spacing" textLength="50" x="1066" y="445.7422">&#171;entity&#187;</text><text fill="#000000" font-family="sans-serif" font-size="14" lengthAdjust="spacing" textLength="76" x="1055" y="464.3633">JobOpening</text><line style="stroke:#181818;stroke-width:0.5;" x1="1027" x2="1133" y1="472.877" y2="472.877"/><line style="stroke:#181818;stroke-width:0.5;" x1="1027" x2="1133" y1="480.877" y2="480.877"/></g><!--class JogOpeningStatus--><g id="elem_JogOpeningStatus"><rect codeLine="74" fill="#F1F1F1" height="63.2422" id="JogOpeningStatus" rx="2.5" ry="2.5" style="stroke:#181818;stroke-width:0.5;" width="148" x="1244" y="577.5137"/><ellipse cx="1259" cy="601.1348" fill="#ADD1B2" rx="11" ry="11" style="stroke:#181818;stroke-width:1.0;"/><path d="M1261.7656,597.0098 Q1261.9219,596.791 1262.1094,596.6816 Q1262.2969,596.5723 1262.5156,596.5723 Q1262.8906,596.5723 1263.125,596.8379 Q1263.3594,597.0879 1263.3594,597.6973 L1263.3594,599.1504 Q1263.3594,599.7598 1263.125,600.0254 Q1262.8906,600.291 1262.5156,600.291 Q1262.1719,600.291 1261.9688,600.0879 Q1261.7656,599.9004 1261.6563,599.3848 Q1261.6094,599.0254 1261.4219,598.8379 Q1261.0938,598.4629 1260.4844,598.2441 Q1259.875,598.0254 1259.25,598.0254 Q1258.4844,598.0254 1257.8438,598.3535 Q1257.2188,598.6816 1256.7188,599.4316 Q1256.2344,600.1816 1256.2344,601.2129 L1256.2344,602.3066 Q1256.2344,603.541 1257.125,604.3691 Q1258.0156,605.1816 1259.6094,605.1816 Q1260.5469,605.1816 1261.2031,604.9316 Q1261.5938,604.7754 1262.0156,604.3379 Q1262.2813,604.0723 1262.4219,603.9941 Q1262.5781,603.916 1262.7813,603.916 Q1263.1094,603.916 1263.3594,604.1816 Q1263.625,604.4316 1263.625,604.7754 Q1263.625,605.1191 1263.2813,605.5254 Q1262.7813,606.1035 1261.9844,606.4316 Q1260.9063,606.8848 1259.6094,606.8848 Q1258.0938,606.8848 1256.8906,606.2598 Q1255.9063,605.7598 1255.2188,604.6973 Q1254.5313,603.6191 1254.5313,602.3379 L1254.5313,601.1816 Q1254.5313,599.8535 1255.1406,598.7129 Q1255.7656,597.5566 1256.8594,596.9473 Q1257.9531,596.3223 1259.1875,596.3223 Q1259.9219,596.3223 1260.5625,596.4941 Q1261.2188,596.6504 1261.7656,597.0098 Z " fill="#000000"/><text fill="#000000" font-family="sans-serif" font-size="14" lengthAdjust="spacing" textLength="92" x="1285" y="597.6211">&#171;value object&#187;</text><text fill="#000000" font-family="sans-serif" font-size="14" lengthAdjust="spacing" textLength="116" x="1273" y="616.2422">JogOpeningStatus</text><line style="stroke:#181818;stroke-width:0.5;" x1="1245" x2="1391" y1="624.7559" y2="624.7559"/><line style="stroke:#181818;stroke-width:0.5;" x1="1245" x2="1391" y1="632.7559" y2="632.7559"/></g><!--class ContractType--><g id="elem_ContractType"><rect codeLine="77" fill="#F1F1F1" height="63.2422" id="ContractType" rx="2.5" ry="2.5" style="stroke:#181818;stroke-width:0.5;" width="124" x="1516" y="218.5137"/><ellipse cx="1531" cy="242.1348" fill="#ADD1B2" rx="11" ry="11" style="stroke:#181818;stroke-width:1.0;"/><path d="M1533.7656,238.0098 Q1533.9219,237.791 1534.1094,237.6816 Q1534.2969,237.5723 1534.5156,237.5723 Q1534.8906,237.5723 1535.125,237.8379 Q1535.3594,238.0879 1535.3594,238.6973 L1535.3594,240.1504 Q1535.3594,240.7598 1535.125,241.0254 Q1534.8906,241.291 1534.5156,241.291 Q1534.1719,241.291 1533.9688,241.0879 Q1533.7656,240.9004 1533.6563,240.3848 Q1533.6094,240.0254 1533.4219,239.8379 Q1533.0938,239.4629 1532.4844,239.2441 Q1531.875,239.0254 1531.25,239.0254 Q1530.4844,239.0254 1529.8438,239.3535 Q1529.2188,239.6816 1528.7188,240.4316 Q1528.2344,241.1816 1528.2344,242.2129 L1528.2344,243.3066 Q1528.2344,244.541 1529.125,245.3691 Q1530.0156,246.1816 1531.6094,246.1816 Q1532.5469,246.1816 1533.2031,245.9316 Q1533.5938,245.7754 1534.0156,245.3379 Q1534.2813,245.0723 1534.4219,244.9941 Q1534.5781,244.916 1534.7813,244.916 Q1535.1094,244.916 1535.3594,245.1816 Q1535.625,245.4316 1535.625,245.7754 Q1535.625,246.1191 1535.2813,246.5254 Q1534.7813,247.1035 1533.9844,247.4316 Q1532.9063,247.8848 1531.6094,247.8848 Q1530.0938,247.8848 1528.8906,247.2598 Q1527.9063,246.7598 1527.2188,245.6973 Q1526.5313,244.6191 1526.5313,243.3379 L1526.5313,242.1816 Q1526.5313,240.8535 1527.1406,239.7129 Q1527.7656,238.5566 1528.8594,237.9473 Q1529.9531,237.3223 1531.1875,237.3223 Q1531.9219,237.3223 1532.5625,237.4941 Q1533.2188,237.6504 1533.7656,238.0098 Z " fill="#000000"/><text fill="#000000" font-family="sans-serif" font-size="14" lengthAdjust="spacing" textLength="92" x="1545" y="238.6211">&#171;value object&#187;</text><text fill="#000000" font-family="sans-serif" font-size="14" lengthAdjust="spacing" textLength="86" x="1548" y="257.2422">ContractType</text><line style="stroke:#181818;stroke-width:0.5;" x1="1517" x2="1639" y1="265.7559" y2="265.7559"/><line style="stroke:#181818;stroke-width:0.5;" x1="1517" x2="1639" y1="273.7559" y2="273.7559"/></g><!--class Mode--><g id="elem_Mode"><rect codeLine="80" fill="#F1F1F1" height="63.2422" id="Mode" rx="2.5" ry="2.5" style="stroke:#181818;stroke-width:0.5;" width="124" x="1357" y="218.5137"/><ellipse cx="1372" cy="242.1348" fill="#ADD1B2" rx="11" ry="11" style="stroke:#181818;stroke-width:1.0;"/><path d="M1374.7656,238.0098 Q1374.9219,237.791 1375.1094,237.6816 Q1375.2969,237.5723 1375.5156,237.5723 Q1375.8906,237.5723 1376.125,237.8379 Q1376.3594,238.0879 1376.3594,238.6973 L1376.3594,240.1504 Q1376.3594,240.7598 1376.125,241.0254 Q1375.8906,241.291 1375.5156,241.291 Q1375.1719,241.291 1374.9688,241.0879 Q1374.7656,240.9004 1374.6563,240.3848 Q1374.6094,240.0254 1374.4219,239.8379 Q1374.0938,239.4629 1373.4844,239.2441 Q1372.875,239.0254 1372.25,239.0254 Q1371.4844,239.0254 1370.8438,239.3535 Q1370.2188,239.6816 1369.7188,240.4316 Q1369.2344,241.1816 1369.2344,242.2129 L1369.2344,243.3066 Q1369.2344,244.541 1370.125,245.3691 Q1371.0156,246.1816 1372.6094,246.1816 Q1373.5469,246.1816 1374.2031,245.9316 Q1374.5938,245.7754 1375.0156,245.3379 Q1375.2813,245.0723 1375.4219,244.9941 Q1375.5781,244.916 1375.7813,244.916 Q1376.1094,244.916 1376.3594,245.1816 Q1376.625,245.4316 1376.625,245.7754 Q1376.625,246.1191 1376.2813,246.5254 Q1375.7813,247.1035 1374.9844,247.4316 Q1373.9063,247.8848 1372.6094,247.8848 Q1371.0938,247.8848 1369.8906,247.2598 Q1368.9063,246.7598 1368.2188,245.6973 Q1367.5313,244.6191 1367.5313,243.3379 L1367.5313,242.1816 Q1367.5313,240.8535 1368.1406,239.7129 Q1368.7656,238.5566 1369.8594,237.9473 Q1370.9531,237.3223 1372.1875,237.3223 Q1372.9219,237.3223 1373.5625,237.4941 Q1374.2188,237.6504 1374.7656,238.0098 Z " fill="#000000"/><text fill="#000000" font-family="sans-serif" font-size="14" lengthAdjust="spacing" textLength="92" x="1386" y="238.6211">&#171;value object&#187;</text><text fill="#000000" font-family="sans-serif" font-size="14" lengthAdjust="spacing" textLength="35" x="1414.5" y="257.2422">Mode</text><line style="stroke:#181818;stroke-width:0.5;" x1="1358" x2="1480" y1="265.7559" y2="265.7559"/><line style="stroke:#181818;stroke-width:0.5;" x1="1358" x2="1480" y1="273.7559" y2="273.7559"/></g><!--class JobFunction--><g id="elem_JobFunction"><rect codeLine="84" fill="#F1F1F1" height="63.2422" id="JobFunction" rx="2.5" ry="2.5" style="stroke:#181818;stroke-width:0.5;" width="124" x="1198" y="218.5137"/><ellipse cx="1213" cy="242.1348" fill="#ADD1B2" rx="11" ry="11" style="stroke:#181818;stroke-width:1.0;"/><path d="M1215.7656,238.0098 Q1215.9219,237.791 1216.1094,237.6816 Q1216.2969,237.5723 1216.5156,237.5723 Q1216.8906,237.5723 1217.125,237.8379 Q1217.3594,238.0879 1217.3594,238.6973 L1217.3594,240.1504 Q1217.3594,240.7598 1217.125,241.0254 Q1216.8906,241.291 1216.5156,241.291 Q1216.1719,241.291 1215.9688,241.0879 Q1215.7656,240.9004 1215.6563,240.3848 Q1215.6094,240.0254 1215.4219,239.8379 Q1215.0938,239.4629 1214.4844,239.2441 Q1213.875,239.0254 1213.25,239.0254 Q1212.4844,239.0254 1211.8438,239.3535 Q1211.2188,239.6816 1210.7188,240.4316 Q1210.2344,241.1816 1210.2344,242.2129 L1210.2344,243.3066 Q1210.2344,244.541 1211.125,245.3691 Q1212.0156,246.1816 1213.6094,246.1816 Q1214.5469,246.1816 1215.2031,245.9316 Q1215.5938,245.7754 1216.0156,245.3379 Q1216.2813,245.0723 1216.4219,244.9941 Q1216.5781,244.916 1216.7813,244.916 Q1217.1094,244.916 1217.3594,245.1816 Q1217.625,245.4316 1217.625,245.7754 Q1217.625,246.1191 1217.2813,246.5254 Q1216.7813,247.1035 1215.9844,247.4316 Q1214.9063,247.8848 1213.6094,247.8848 Q1212.0938,247.8848 1210.8906,247.2598 Q1209.9063,246.7598 1209.2188,245.6973 Q1208.5313,244.6191 1208.5313,243.3379 L1208.5313,242.1816 Q1208.5313,240.8535 1209.1406,239.7129 Q1209.7656,238.5566 1210.8594,237.9473 Q1211.9531,237.3223 1213.1875,237.3223 Q1213.9219,237.3223 1214.5625,237.4941 Q1215.2188,237.6504 1215.7656,238.0098 Z " fill="#000000"/><text fill="#000000" font-family="sans-serif" font-size="14" lengthAdjust="spacing" textLength="92" x="1227" y="238.6211">&#171;value object&#187;</text><text fill="#000000" font-family="sans-serif" font-size="14" lengthAdjust="spacing" textLength="77" x="1234.5" y="257.2422">JobFunction</text><line style="stroke:#181818;stroke-width:0.5;" x1="1199" x2="1321" y1="265.7559" y2="265.7559"/><line style="stroke:#181818;stroke-width:0.5;" x1="1199" x2="1321" y1="273.7559" y2="273.7559"/></g><!--class NumberOfVacancies--><g id="elem_NumberOfVacancies"><rect codeLine="88" fill="#F1F1F1" height="63.2422" id="NumberOfVacancies" rx="2.5" ry="2.5" style="stroke:#181818;stroke-width:0.5;" width="165" x="997.5" y="218.5137"/><ellipse cx="1012.5" cy="242.1348" fill="#ADD1B2" rx="11" ry="11" style="stroke:#181818;stroke-width:1.0;"/><path d="M1015.2656,238.0098 Q1015.4219,237.791 1015.6094,237.6816 Q1015.7969,237.5723 1016.0156,237.5723 Q1016.3906,237.5723 1016.625,237.8379 Q1016.8594,238.0879 1016.8594,238.6973 L1016.8594,240.1504 Q1016.8594,240.7598 1016.625,241.0254 Q1016.3906,241.291 1016.0156,241.291 Q1015.6719,241.291 1015.4688,241.0879 Q1015.2656,240.9004 1015.1563,240.3848 Q1015.1094,240.0254 1014.9219,239.8379 Q1014.5938,239.4629 1013.9844,239.2441 Q1013.375,239.0254 1012.75,239.0254 Q1011.9844,239.0254 1011.3438,239.3535 Q1010.7188,239.6816 1010.2188,240.4316 Q1009.7344,241.1816 1009.7344,242.2129 L1009.7344,243.3066 Q1009.7344,244.541 1010.625,245.3691 Q1011.5156,246.1816 1013.1094,246.1816 Q1014.0469,246.1816 1014.7031,245.9316 Q1015.0938,245.7754 1015.5156,245.3379 Q1015.7813,245.0723 1015.9219,244.9941 Q1016.0781,244.916 1016.2813,244.916 Q1016.6094,244.916 1016.8594,245.1816 Q1017.125,245.4316 1017.125,245.7754 Q1017.125,246.1191 1016.7813,246.5254 Q1016.2813,247.1035 1015.4844,247.4316 Q1014.4063,247.8848 1013.1094,247.8848 Q1011.5938,247.8848 1010.3906,247.2598 Q1009.4063,246.7598 1008.7188,245.6973 Q1008.0313,244.6191 1008.0313,243.3379 L1008.0313,242.1816 Q1008.0313,240.8535 1008.6406,239.7129 Q1009.2656,238.5566 1010.3594,237.9473 Q1011.4531,237.3223 1012.6875,237.3223 Q1013.4219,237.3223 1014.0625,237.4941 Q1014.7188,237.6504 1015.2656,238.0098 Z " fill="#000000"/><text fill="#000000" font-family="sans-serif" font-size="14" lengthAdjust="spacing" textLength="92" x="1047" y="238.6211">&#171;value object&#187;</text><text fill="#000000" font-family="sans-serif" font-size="14" lengthAdjust="spacing" textLength="129" x="1030.5" y="257.2422">NumberOfVacancies</text><line style="stroke:#181818;stroke-width:0.5;" x1="998.5" x2="1161.5" y1="265.7559" y2="265.7559"/><line style="stroke:#181818;stroke-width:0.5;" x1="998.5" x2="1161.5" y1="273.7559" y2="273.7559"/></g><!--class Description--><g id="elem_Description"><rect codeLine="92" fill="#F1F1F1" height="63.2422" id="Description" rx="2.5" ry="2.5" style="stroke:#181818;stroke-width:0.5;" width="124" x="838" y="218.5137"/><ellipse cx="853" cy="242.1348" fill="#ADD1B2" rx="11" ry="11" style="stroke:#181818;stroke-width:1.0;"/><path d="M855.7656,238.0098 Q855.9219,237.791 856.1094,237.6816 Q856.2969,237.5723 856.5156,237.5723 Q856.8906,237.5723 857.125,237.8379 Q857.3594,238.0879 857.3594,238.6973 L857.3594,240.1504 Q857.3594,240.7598 857.125,241.0254 Q856.8906,241.291 856.5156,241.291 Q856.1719,241.291 855.9688,241.0879 Q855.7656,240.9004 855.6563,240.3848 Q855.6094,240.0254 855.4219,239.8379 Q855.0938,239.4629 854.4844,239.2441 Q853.875,239.0254 853.25,239.0254 Q852.4844,239.0254 851.8438,239.3535 Q851.2188,239.6816 850.7188,240.4316 Q850.2344,241.1816 850.2344,242.2129 L850.2344,243.3066 Q850.2344,244.541 851.125,245.3691 Q852.0156,246.1816 853.6094,246.1816 Q854.5469,246.1816 855.2031,245.9316 Q855.5938,245.7754 856.0156,245.3379 Q856.2813,245.0723 856.4219,244.9941 Q856.5781,244.916 856.7813,244.916 Q857.1094,244.916 857.3594,245.1816 Q857.625,245.4316 857.625,245.7754 Q857.625,246.1191 857.2813,246.5254 Q856.7813,247.1035 855.9844,247.4316 Q854.9063,247.8848 853.6094,247.8848 Q852.0938,247.8848 850.8906,247.2598 Q849.9063,246.7598 849.2188,245.6973 Q848.5313,244.6191 848.5313,243.3379 L848.5313,242.1816 Q848.5313,240.8535 849.1406,239.7129 Q849.7656,238.5566 850.8594,237.9473 Q851.9531,237.3223 853.1875,237.3223 Q853.9219,237.3223 854.5625,237.4941 Q855.2188,237.6504 855.7656,238.0098 Z " fill="#000000"/><text fill="#000000" font-family="sans-serif" font-size="14" lengthAdjust="spacing" textLength="92" x="867" y="238.6211">&#171;value object&#187;</text><text fill="#000000" font-family="sans-serif" font-size="14" lengthAdjust="spacing" textLength="71" x="877.5" y="257.2422">Description</text><line style="stroke:#181818;stroke-width:0.5;" x1="839" x2="961" y1="265.7559" y2="265.7559"/><line style="stroke:#181818;stroke-width:0.5;" x1="839" x2="961" y1="273.7559" y2="273.7559"/></g><!--class Address1--><g id="elem_Address1"><rect codeLine="97" fill="#F1F1F1" height="156.3477" id="Address1" rx="2.5" ry="2.5" style="stroke:#181818;stroke-width:0.5;" width="124" x="679" y="172.0137"/><ellipse cx="694" cy="195.6348" fill="#ADD1B2" rx="11" ry="11" style="stroke:#181818;stroke-width:1.0;"/><path d="M696.7656,191.5098 Q696.9219,191.291 697.1094,191.1816 Q697.2969,191.0723 697.5156,191.0723 Q697.8906,191.0723 698.125,191.3379 Q698.3594,191.5879 698.3594,192.1973 L698.3594,193.6504 Q698.3594,194.2598 698.125,194.5254 Q697.8906,194.791 697.5156,194.791 Q697.1719,194.791 696.9688,194.5879 Q696.7656,194.4004 696.6563,193.8848 Q696.6094,193.5254 696.4219,193.3379 Q696.0938,192.9629 695.4844,192.7441 Q694.875,192.5254 694.25,192.5254 Q693.4844,192.5254 692.8438,192.8535 Q692.2188,193.1816 691.7188,193.9316 Q691.2344,194.6816 691.2344,195.7129 L691.2344,196.8066 Q691.2344,198.041 692.125,198.8691 Q693.0156,199.6816 694.6094,199.6816 Q695.5469,199.6816 696.2031,199.4316 Q696.5938,199.2754 697.0156,198.8379 Q697.2813,198.5723 697.4219,198.4941 Q697.5781,198.416 697.7813,198.416 Q698.1094,198.416 698.3594,198.6816 Q698.625,198.9316 698.625,199.2754 Q698.625,199.6191 698.2813,200.0254 Q697.7813,200.6035 696.9844,200.9316 Q695.9063,201.3848 694.6094,201.3848 Q693.0938,201.3848 691.8906,200.7598 Q690.9063,200.2598 690.2188,199.1973 Q689.5313,198.1191 689.5313,196.8379 L689.5313,195.6816 Q689.5313,194.3535 690.1406,193.2129 Q690.7656,192.0566 691.8594,191.4473 Q692.9531,190.8223 694.1875,190.8223 Q694.9219,190.8223 695.5625,190.9941 Q696.2188,191.1504 696.7656,191.5098 Z " fill="#000000"/><text fill="#000000" font-family="sans-serif" font-size="14" lengthAdjust="spacing" textLength="92" x="708" y="192.1211">&#171;value object&#187;</text><text fill="#000000" font-family="sans-serif" font-size="14" lengthAdjust="spacing" textLength="52" x="728" y="210.7422">Address</text><line style="stroke:#181818;stroke-width:0.5;" x1="680" x2="802" y1="219.2559" y2="219.2559"/><text fill="#000000" font-family="sans-serif" font-size="14" lengthAdjust="spacing" textLength="38" x="685" y="238.3633">Street</text><text fill="#000000" font-family="sans-serif" font-size="14" lengthAdjust="spacing" textLength="24" x="685" y="256.9844">City</text><text fill="#000000" font-family="sans-serif" font-size="14" lengthAdjust="spacing" textLength="33" x="685" y="275.6055">State</text><text fill="#000000" font-family="sans-serif" font-size="14" lengthAdjust="spacing" textLength="50" x="685" y="294.2266">Country</text><text fill="#000000" font-family="sans-serif" font-size="14" lengthAdjust="spacing" textLength="50" x="685" y="312.8477">Zipcode</text><line style="stroke:#181818;stroke-width:0.5;" x1="680" x2="802" y1="320.3613" y2="320.3613"/></g><!--class JobReference--><g id="elem_JobReference"><rect codeLine="105" fill="#F1F1F1" height="81.8633" id="JobReference" rx="2.5" ry="2.5" style="stroke:#181818;stroke-width:0.5;" width="124" x="1427" y="568.0137"/><ellipse cx="1442" cy="600.9453" fill="#ADD1B2" rx="11" ry="11" style="stroke:#181818;stroke-width:1.0;"/><path d="M1444.7656,596.8203 Q1444.9219,596.6016 1445.1094,596.4922 Q1445.2969,596.3828 1445.5156,596.3828 Q1445.8906,596.3828 1446.125,596.6484 Q1446.3594,596.8984 1446.3594,597.5078 L1446.3594,598.9609 Q1446.3594,599.5703 1446.125,599.8359 Q1445.8906,600.1016 1445.5156,600.1016 Q1445.1719,600.1016 1444.9688,599.8984 Q1444.7656,599.7109 1444.6563,599.1953 Q1444.6094,598.8359 1444.4219,598.6484 Q1444.0938,598.2734 1443.4844,598.0547 Q1442.875,597.8359 1442.25,597.8359 Q1441.4844,597.8359 1440.8438,598.1641 Q1440.2188,598.4922 1439.7188,599.2422 Q1439.2344,599.9922 1439.2344,601.0234 L1439.2344,602.1172 Q1439.2344,603.3516 1440.125,604.1797 Q1441.0156,604.9922 1442.6094,604.9922 Q1443.5469,604.9922 1444.2031,604.7422 Q1444.5938,604.5859 1445.0156,604.1484 Q1445.2813,603.8828 1445.4219,603.8047 Q1445.5781,603.7266 1445.7813,603.7266 Q1446.1094,603.7266 1446.3594,603.9922 Q1446.625,604.2422 1446.625,604.5859 Q1446.625,604.9297 1446.2813,605.3359 Q1445.7813,605.9141 1444.9844,606.2422 Q1443.9063,606.6953 1442.6094,606.6953 Q1441.0938,606.6953 1439.8906,606.0703 Q1438.9063,605.5703 1438.2188,604.5078 Q1437.5313,603.4297 1437.5313,602.1484 L1437.5313,600.9922 Q1437.5313,599.6641 1438.1406,598.5234 Q1438.7656,597.3672 1439.8594,596.7578 Q1440.9531,596.1328 1442.1875,596.1328 Q1442.9219,596.1328 1443.5625,596.3047 Q1444.2188,596.4609 1444.7656,596.8203 Z " fill="#000000"/><text fill="#000000" font-family="sans-serif" font-size="14" lengthAdjust="spacing" textLength="92" x="1456" y="588.1211">&#171;value object&#187;</text><text fill="#000000" font-family="sans-serif" font-size="14" lengthAdjust="spacing" textLength="70" x="1467" y="606.7422">&#171;identifier&#187;</text><text fill="#000000" font-family="sans-serif" font-size="14" lengthAdjust="spacing" textLength="88" x="1458" y="625.3633">JobReference</text><line style="stroke:#181818;stroke-width:0.5;" x1="1428" x2="1550" y1="633.877" y2="633.877"/><line style="stroke:#181818;stroke-width:0.5;" x1="1428" x2="1550" y1="641.877" y2="641.877"/></g><!--class InterviewPhase--><g id="elem_InterviewPhase"><rect codeLine="108" fill="#F1F1F1" height="63.2422" id="InterviewPhase" rx="2.5" ry="2.5" style="stroke:#181818;stroke-width:0.5;" width="127" x="679.5" y="577.5137"/><ellipse cx="694.5" cy="601.1348" fill="#ADD1B2" rx="11" ry="11" style="stroke:#181818;stroke-width:1.0;"/><path d="M697.2656,597.0098 Q697.4219,596.791 697.6094,596.6816 Q697.7969,596.5723 698.0156,596.5723 Q698.3906,596.5723 698.625,596.8379 Q698.8594,597.0879 698.8594,597.6973 L698.8594,599.1504 Q698.8594,599.7598 698.625,600.0254 Q698.3906,600.291 698.0156,600.291 Q697.6719,600.291 697.4688,600.0879 Q697.2656,599.9004 697.1563,599.3848 Q697.1094,599.0254 696.9219,598.8379 Q696.5938,598.4629 695.9844,598.2441 Q695.375,598.0254 694.75,598.0254 Q693.9844,598.0254 693.3438,598.3535 Q692.7188,598.6816 692.2188,599.4316 Q691.7344,600.1816 691.7344,601.2129 L691.7344,602.3066 Q691.7344,603.541 692.625,604.3691 Q693.5156,605.1816 695.1094,605.1816 Q696.0469,605.1816 696.7031,604.9316 Q697.0938,604.7754 697.5156,604.3379 Q697.7813,604.0723 697.9219,603.9941 Q698.0781,603.916 698.2813,603.916 Q698.6094,603.916 698.8594,604.1816 Q699.125,604.4316 699.125,604.7754 Q699.125,605.1191 698.7813,605.5254 Q698.2813,606.1035 697.4844,606.4316 Q696.4063,606.8848 695.1094,606.8848 Q693.5938,606.8848 692.3906,606.2598 Q691.4063,605.7598 690.7188,604.6973 Q690.0313,603.6191 690.0313,602.3379 L690.0313,601.1816 Q690.0313,599.8535 690.6406,598.7129 Q691.2656,597.5566 692.3594,596.9473 Q693.4531,596.3223 694.6875,596.3223 Q695.4219,596.3223 696.0625,596.4941 Q696.7188,596.6504 697.2656,597.0098 Z " fill="#000000"/><text fill="#000000" font-family="sans-serif" font-size="14" lengthAdjust="spacing" textLength="50" x="731" y="597.6211">&#171;entity&#187;</text><text fill="#000000" font-family="sans-serif" font-size="14" lengthAdjust="spacing" textLength="95" x="708.5" y="616.2422">InterviewPhase</text><line style="stroke:#181818;stroke-width:0.5;" x1="680.5" x2="805.5" y1="624.7559" y2="624.7559"/><line style="stroke:#181818;stroke-width:0.5;" x1="680.5" x2="805.5" y1="632.7559" y2="632.7559"/></g><!--link Rank to JobOpening--><g id="link_Rank_JobOpening"><path codeLine="116" d="M502.36,266.9037 C543.16,282.5437 607.32,307.0637 663,328.0137 C721.57,350.0437 735.18,358.6337 795,377.0137 C874.38,401.4137 962.3573,421.8375 1020.0573,434.3975 " fill="none" id="Rank-to-JobOpening" style="stroke:#181818;stroke-width:1.0;"/><polygon fill="#181818" points="1025.92,435.6737,1017.9767,429.8509,1021.0344,434.6102,1016.2751,437.6679,1025.92,435.6737" style="stroke:#181818;stroke-width:1.0;"/><text fill="#000000" font-family="sans-serif" font-size="13" lengthAdjust="spacing" textLength="69" x="796" y="373.042">identified by</text><text fill="#000000" font-family="sans-serif" font-size="13" lengthAdjust="spacing" textLength="7" x="510.0703" y="265.4108">1</text><text fill="#000000" font-family="sans-serif" font-size="13" lengthAdjust="spacing" textLength="7" x="1010.8228" y="449.1921">1</text></g><!--link JobApplication to ID--><g id="link_JobApplication_ID"><path codeLine="119" d="M375.07,834.1937 C360.19,849.7637 343.15,867.8237 328,884.5137 C311.04,903.1937 296.5615,919.7339 281.2415,937.5539 " fill="none" id="JobApplication-to-ID" style="stroke:#181818;stroke-width:1.0;"/><polygon fill="#181818" points="277.33,942.1037,286.2304,937.8867,280.5896,938.3122,280.164,932.6714,277.33,942.1037" style="stroke:#181818;stroke-width:1.0;"/><text fill="#000000" font-family="sans-serif" font-size="13" lengthAdjust="spacing" textLength="69" x="329" y="899.542">identified by</text><text fill="#000000" font-family="sans-serif" font-size="13" lengthAdjust="spacing" textLength="7" x="361.5729" y="855.862">1</text><text fill="#000000" font-family="sans-serif" font-size="13" lengthAdjust="spacing" textLength="7" x="275.2435" y="931.2117">1</text></g><!--link JobApplication to Grade--><g id="link_JobApplication_Grade"><path codeLine="120" d="M411.43,834.4537 C409.39,866.3637 406.9502,904.6657 404.9302,936.4757 " fill="none" id="JobApplication-to-Grade" style="stroke:#181818;stroke-width:1.0;"/><polygon fill="#181818" points="404.55,942.4637,409.1123,933.7353,404.8669,937.4737,401.1284,933.2283,404.55,942.4637" style="stroke:#181818;stroke-width:1.0;"/><text fill="#000000" font-family="sans-serif" font-size="13" lengthAdjust="spacing" textLength="48" x="409" y="899.542">includes</text><text fill="#000000" font-family="sans-serif" font-size="13" lengthAdjust="spacing" textLength="22" x="381.1505" y="931.3207">0..1</text></g><!--link JobApplication to ApplicationFile--><g id="link_JobApplication_ApplicationFile"><path codeLine="122" d="M445.54,834.4537 C468.14,863.4437 495.0297,897.9228 519.0397,928.7028 " fill="none" id="JobApplication-to-ApplicationFile" style="stroke:#181818;stroke-width:1.0;"/><polygon fill="#181818" points="522.73,933.4337,520.3484,923.8771,519.6547,929.4913,514.0406,928.7976,522.73,933.4337" style="stroke:#181818;stroke-width:1.0;"/><text fill="#000000" font-family="sans-serif" font-size="13" lengthAdjust="spacing" textLength="7" x="442.6584" y="855.8483">1</text><text fill="#000000" font-family="sans-serif" font-size="13" lengthAdjust="spacing" textLength="20" x="495.942" y="922.2106">1..*</text></g><!--link Rank to JobApplication--><g id="link_Rank_JobApplication"><path codeLine="124" d="M457.51,291.2337 C448.79,391.5137 426.7092,645.7462 418.0092,745.9162 " fill="none" id="Rank-to-JobApplication" style="stroke:#181818;stroke-width:1.0;"/><polygon fill="#181818" points="417.49,751.8937,422.2537,743.2735,417.9226,746.9124,414.2837,742.5813,417.49,751.8937" style="stroke:#181818;stroke-width:1.0;"/><text fill="#000000" font-family="sans-serif" font-size="13" lengthAdjust="spacing" textLength="48" x="438" y="534.042">includes</text><text fill="#000000" font-family="sans-serif" font-size="13" lengthAdjust="spacing" textLength="7" x="449.4397" y="312.9081">1</text><text fill="#000000" font-family="sans-serif" font-size="13" lengthAdjust="spacing" textLength="20" x="396.4118" y="740.7391">1..*</text></g><!--link JobApplication to Status--><g id="link_JobApplication_Status"><path codeLine="127" d="M352.48,827.4337 C301.63,855.2737 227.71,896.2437 164,933.5137 C154.02,939.3537 148.5461,942.6054 138.4361,948.7554 " fill="none" id="JobApplication-to-Status" style="stroke:#181818;stroke-width:1.0;"/><polygon fill="#181818" points="133.31,951.8737,143.0779,950.6137,137.5817,949.2751,138.9203,943.7789,133.31,951.8737" style="stroke:#181818;stroke-width:1.0;"/><text fill="#000000" font-family="sans-serif" font-size="13" lengthAdjust="spacing" textLength="21" x="246" y="899.542">has</text><text fill="#000000" font-family="sans-serif" font-size="13" lengthAdjust="spacing" textLength="7" x="337.5557" y="827.6471">1</text><text fill="#000000" font-family="sans-serif" font-size="13" lengthAdjust="spacing" textLength="7" x="135.7583" y="940.6282">1</text></g><!--link ApplicationFile to Type--><g id="link_ApplicationFile_Type"><path codeLine="128" d="M561,1033.6537 C561,1053.7537 561,1070.3937 561,1088.1137 " fill="none" id="ApplicationFile-to-Type" style="stroke:#181818;stroke-width:1.0;"/><polygon fill="#181818" points="561,1094.1137,565,1085.1137,561,1089.1137,557,1085.1137,561,1094.1137" style="stroke:#181818;stroke-width:1.0;"/><text fill="#000000" font-family="sans-serif" font-size="13" lengthAdjust="spacing" textLength="7" x="553.5078" y="1055.9146">1</text><text fill="#000000" font-family="sans-serif" font-size="13" lengthAdjust="spacing" textLength="7" x="553.3109" y="1083.193">1</text></g><!--reverse link Mode to JobOpening--><g id="link_Mode_JobOpening"><path codeLine="131" d="M1388.0921,286.0975 C1373.6921,301.3575 1359.11,314.9137 1340,328.0137 C1274.28,373.0637 1188.77,408.4037 1134.12,428.4937 " fill="none" id="Mode-backto-JobOpening" style="stroke:#181818;stroke-width:1.0;"/><polygon fill="#181818" points="1392.21,281.7337,1383.1239,285.5341,1388.7784,285.3702,1388.9424,291.0247,1392.21,281.7337" style="stroke:#181818;stroke-width:1.0;"/><text fill="#000000" font-family="sans-serif" font-size="13" lengthAdjust="spacing" textLength="48" x="1287" y="373.042">includes</text><text fill="#000000" font-family="sans-serif" font-size="13" lengthAdjust="spacing" textLength="7" x="1379.2467" y="303.6851">1</text><text fill="#000000" font-family="sans-serif" font-size="13" lengthAdjust="spacing" textLength="7" x="1141.8627" y="421.7855">1</text></g><!--reverse link JobFunction to JobOpening--><g id="link_JobFunction_JobOpening"><path codeLine="132" d="M1227.8215,286.0528 C1196.8715,319.7528 1151.06,369.6437 1116.97,406.7537 " fill="none" id="JobFunction-backto-JobOpening" style="stroke:#181818;stroke-width:1.0;"/><polygon fill="#181818" points="1231.88,281.6337,1222.8462,285.5567,1228.4979,285.3163,1228.7383,290.968,1231.88,281.6337" style="stroke:#181818;stroke-width:1.0;"/><text fill="#000000" font-family="sans-serif" font-size="13" lengthAdjust="spacing" textLength="48" x="1160" y="373.042">includes</text><text fill="#000000" font-family="sans-serif" font-size="13" lengthAdjust="spacing" textLength="7" x="1218.3584" y="303.9418">1</text><text fill="#000000" font-family="sans-serif" font-size="13" lengthAdjust="spacing" textLength="7" x="1115.3043" y="395.8856">1</text></g><!--reverse link NumberOfVacancies to JobOpening--><g id="link_NumberOfVacancies_JobOpening"><path codeLine="133" d="M1080,287.6337 C1080,321.3337 1080,369.6437 1080,406.7537 " fill="none" id="NumberOfVacancies-backto-JobOpening" style="stroke:#181818;stroke-width:1.0;"/><polygon fill="#181818" points="1080,281.6337,1076,290.6337,1080,286.6337,1084,290.6337,1080,281.6337" style="stroke:#181818;stroke-width:1.0;"/><text fill="#000000" font-family="sans-serif" font-size="13" lengthAdjust="spacing" textLength="48" x="1081" y="373.042">includes</text><text fill="#000000" font-family="sans-serif" font-size="13" lengthAdjust="spacing" textLength="7" x="1072.2781" y="303.9418">1</text><text fill="#000000" font-family="sans-serif" font-size="13" lengthAdjust="spacing" textLength="7" x="1072.4422" y="395.8856">1</text></g><!--reverse link Description to JobOpening--><g id="link_Description_JobOpening"><path codeLine="134" d="M932.1785,286.0528 C963.1285,319.7528 1008.94,369.6437 1043.03,406.7537 " fill="none" id="Description-backto-JobOpening" style="stroke:#181818;stroke-width:1.0;"/><polygon fill="#181818" points="928.12,281.6337,931.2617,290.968,931.5021,285.3163,937.1538,285.5567,928.12,281.6337" style="stroke:#181818;stroke-width:1.0;"/><text fill="#000000" font-family="sans-serif" font-size="13" lengthAdjust="spacing" textLength="48" x="1012" y="373.042">includes</text><text fill="#000000" font-family="sans-serif" font-size="13" lengthAdjust="spacing" textLength="7" x="926.1979" y="303.9418">1</text><text fill="#000000" font-family="sans-serif" font-size="13" lengthAdjust="spacing" textLength="7" x="1029.5801" y="395.8856">1</text></g><!--reverse link Address1 to JobOpening--><g id="link_Address1_JobOpening"><path codeLine="135" d="M807.7,318.2699 C813.56,323.0999 814.95,323.8837 821,328.0137 C886.52,372.6937 971.5,408.0637 1025.9,428.2737 " fill="none" id="Address1-backto-JobOpening" style="stroke:#181818;stroke-width:1.0;"/><polygon fill="#181818" points="803.07,314.4537,807.4709,323.2646,806.9283,317.6338,812.5591,317.0913,803.07,314.4537" style="stroke:#181818;stroke-width:1.0;"/><text fill="#000000" font-family="sans-serif" font-size="13" lengthAdjust="spacing" textLength="48" x="903" y="373.042">includes</text><text fill="#000000" font-family="sans-serif" font-size="13" lengthAdjust="spacing" textLength="7" x="811.0613" y="318.2962">1</text><text fill="#000000" font-family="sans-serif" font-size="13" lengthAdjust="spacing" textLength="7" x="1011.16" y="421.536">1</text></g><!--reverse link ContractType to JobOpening--><g id="link_ContractType_JobOpening"><path codeLine="136" d="M1548.8633,286.0327 C1534.5133,301.8127 1519.38,315.8137 1499,328.0137 C1380.42,398.9937 1217.62,429.2737 1134.16,440.7937 " fill="none" id="ContractType-backto-JobOpening" style="stroke:#181818;stroke-width:1.0;"/><polygon fill="#181818" points="1552.9,281.5937,1543.8856,285.561,1549.5361,285.2928,1549.8042,290.9433,1552.9,281.5937" style="stroke:#181818;stroke-width:1.0;"/><text fill="#000000" font-family="sans-serif" font-size="13" lengthAdjust="spacing" textLength="48" x="1437" y="373.042">includes</text><text fill="#000000" font-family="sans-serif" font-size="13" lengthAdjust="spacing" textLength="7" x="1540.0013" y="303.8935">1</text><text fill="#000000" font-family="sans-serif" font-size="13" lengthAdjust="spacing" textLength="7" x="1141.9081" y="435.7384">1</text></g><!--link JobOpening to JobReference--><g id="link_JobOpening_JobReference"><path codeLine="139" d="M1134.23,466.2937 C1200.27,487.8637 1314.8,526.9337 1410,568.0137 C1415.5,570.3937 1415.7433,570.4143 1421.3833,573.0743 " fill="none" id="JobOpening-to-JobReference" style="stroke:#181818;stroke-width:1.0;"/><polygon fill="#181818" points="1426.81,575.6337,1420.3762,568.1767,1422.2877,573.5008,1416.9636,575.4124,1426.81,575.6337" style="stroke:#181818;stroke-width:1.0;"/><text fill="#000000" font-family="sans-serif" font-size="13" lengthAdjust="spacing" textLength="69" x="1330" y="534.042">identified by</text><text fill="#000000" font-family="sans-serif" font-size="13" lengthAdjust="spacing" textLength="7" x="1141.9875" y="464.6649">1</text><text fill="#000000" font-family="sans-serif" font-size="13" lengthAdjust="spacing" textLength="7" x="1411.804" y="567.5839">1</text></g><!--link JobOpening to JogOpeningStatus--><g id="link_JobOpening_JogOpeningStatus"><path codeLine="141" d="M1134.01,485.0937 C1175.7,512.9437 1227.7604,547.7314 1267.2304,574.0914 " fill="none" id="JobOpening-to-JogOpeningStatus" style="stroke:#181818;stroke-width:1.0;"/><polygon fill="#181818" points="1272.22,577.4237,1266.9572,569.0989,1268.062,574.6468,1262.5141,575.7516,1272.22,577.4237" style="stroke:#181818;stroke-width:1.0;"/><text fill="#000000" font-family="sans-serif" font-size="13" lengthAdjust="spacing" textLength="48" x="1207" y="534.042">includes</text><text fill="#000000" font-family="sans-serif" font-size="13" lengthAdjust="spacing" textLength="7" x="1142.0973" y="486.1711">1</text><text fill="#000000" font-family="sans-serif" font-size="13" lengthAdjust="spacing" textLength="7" x="1255.056" y="566.1885">1</text></g><!--reverse link JobOpening to JobApplication--><g id="link_JobOpening_JobApplication"><path codeLine="142" d="M1020.0233,453.0514 C928.7433,461.1114 746.81,486.5337 613,568.0137 C535.91,614.9537 471.91,701.1537 438.66,751.8437 " fill="none" id="JobOpening-backto-JobApplication" style="stroke:#181818;stroke-width:1.0;"/><polygon fill="#181818" points="1026,452.5237,1016.6831,449.3308,1021.0194,452.9635,1017.3867,457.2998,1026,452.5237" style="stroke:#181818;stroke-width:1.0;"/><text fill="#000000" font-family="sans-serif" font-size="13" lengthAdjust="spacing" textLength="47" x="614" y="614.542">refers to</text><text fill="#000000" font-family="sans-serif" font-size="13" lengthAdjust="spacing" textLength="7" x="1010.9141" y="468.4116">1</text><text fill="#000000" font-family="sans-serif" font-size="13" lengthAdjust="spacing" textLength="5" x="437.3303" y="740.6808">*</text></g><!--link JobOpening to RecruitmentProcess--><g id="link_JobOpening_RecruitmentProcess"><path codeLine="143" d="M1039.88,489.1337 C1015.77,513.2437 989.4526,539.561 965.3526,563.661 " fill="none" id="JobOpening-to-RecruitmentProcess" style="stroke:#181818;stroke-width:1.0;"/><polygon fill="#181818" points="961.11,567.9037,970.3024,564.3681,964.6455,564.3681,964.6455,558.7113,961.11,567.9037" style="stroke:#181818;stroke-width:1.0;"/><text fill="#000000" font-family="sans-serif" font-size="13" lengthAdjust="spacing" textLength="48" x="1006" y="534.042">includes</text><text fill="#000000" font-family="sans-serif" font-size="13" lengthAdjust="spacing" textLength="7" x="1026.2007" y="510.7928">1</text><text fill="#000000" font-family="sans-serif" font-size="13" lengthAdjust="spacing" textLength="7" x="960.1735" y="556.7508">1</text></g><!--reverse link RecruitmentProcess to Phase--><g id="link_RecruitmentProcess_Phase"><path codeLine="146" d="M1012.2096,635.2321 C1034.0196,641.1621 1046.11,644.3537 1068,650.0137 C1267.74,701.6337 1507.42,758.8037 1604.25,781.7037 " fill="none" id="RecruitmentProcess-backto-Phase" style="stroke:#181818;stroke-width:1.0;"/><polygon fill="#181818" points="1000.63,632.0837,1005.3703,637.5178,1012.2096,635.2321,1007.4693,629.798,1000.63,632.0837" style="stroke:#181818;stroke-width:1.0;"/><text fill="#000000" font-family="sans-serif" font-size="13" lengthAdjust="spacing" textLength="36" x="1260" y="695.042">part of</text><text fill="#000000" font-family="sans-serif" font-size="13" lengthAdjust="spacing" textLength="7" x="1008.5533" y="630.5211">1</text><text fill="#000000" font-family="sans-serif" font-size="13" lengthAdjust="spacing" textLength="22" x="1574.5508" y="775.9593">4..5</text></g><!--link RecruitmentProcess to PhaseNames--><g id="link_RecruitmentProcess_PhaseNames"><path codeLine="147" d="M1000.68,609.0137 C1028.26,609.0137 1052.74,609.0137 1078.72,609.0137 " fill="none" id="RecruitmentProcess-to-PhaseNames" style="stroke:#181818;stroke-width:1.0;"/><polygon fill="#181818" points="1084.72,609.0137,1075.72,605.0137,1079.72,609.0137,1075.72,613.0137,1084.72,609.0137" style="stroke:#181818;stroke-width:1.0;"/><text fill="#000000" font-family="sans-serif" font-size="13" lengthAdjust="spacing" textLength="48" x="1018.75" y="602.042">includes</text><text fill="#000000" font-family="sans-serif" font-size="13" lengthAdjust="spacing" textLength="7" x="1008.6081" y="605.2522">1</text><text fill="#000000" font-family="sans-serif" font-size="13" lengthAdjust="spacing" textLength="7" x="1070.1142" y="605.062">1</text></g><!--link ScreeningPhase to Phase--><g id="link_ScreeningPhase_Phase"><path codeLine="149" d="M1907.43,640.6837 C1846.82,676.0337 1763.8481,724.4342 1707.2581,757.4442 " fill="none" id="ScreeningPhase-to-Phase" style="stroke:#181818;stroke-width:1.0;"/><polygon fill="none" points="1691.71,766.5137,1710.2813,762.6269,1704.235,752.2615,1691.71,766.5137" style="stroke:#181818;stroke-width:1.0;"/></g><!--link ResultPhase to Phase--><g id="link_ResultPhase_Phase"><path codeLine="150" d="M1775.05,640.8837 C1752.28,667.9637 1730.2933,694.1259 1703.3733,726.1459 " fill="none" id="ResultPhase-to-Phase" style="stroke:#181818;stroke-width:1.0;"/><polygon fill="none" points="1691.79,739.9237,1707.9659,730.007,1698.7807,722.2848,1691.79,739.9237" style="stroke:#181818;stroke-width:1.0;"/></g><!--link InterviewPhase to Phase--><g id="link_InterviewPhase_Phase"><path codeLine="151" d="M799.67,640.5337 C807.69,644.0937 815.95,647.3937 824,650.0137 C1112.84,744.0237 1462.0746,777.8224 1586.5546,787.5424 " fill="none" id="InterviewPhase-to-Phase" style="stroke:#181818;stroke-width:1.0;"/><polygon fill="none" points="1604.5,788.9437,1587.0217,781.5606,1586.0875,793.5242,1604.5,788.9437" style="stroke:#181818;stroke-width:1.0;"/></g><!--link AnalysisPhase to Phase--><g id="link_AnalysisPhase_Phase"><path codeLine="152" d="M1648,640.8837 C1648,666.1437 1648,684.5737 1648,715.3437 " fill="none" id="AnalysisPhase-to-Phase" style="stroke:#181818;stroke-width:1.0;"/><polygon fill="none" points="1648,733.3437,1654,715.3437,1642,715.3437,1648,733.3437" style="stroke:#181818;stroke-width:1.0;"/></g><!--SRC=[ZLRTQjim5BxNKmZVR2l4NM7hHHY5qj0jXQMXARiOkr5anT7go4QIEqBM9-eZx2vFjYFvHvAT9Wu1wtm-V_fqZexVhRKkrFZylCY8qEKcYsc-EQSPKMgKS99Aia6e8FI9f0n73qGyuUiqbImbcaKxX33yh3QEzgzCQAwt-t-_nFvLvhasAsCIOQAmMUoi_Wj28jVCWBDBzBXcc2V6TCMPnFaAQq0gLzO8SMMXktpvm5PCCa7PUvvyQ5G1lo-Ou295J2JOk4O8OhYqGUEwA39EYUQv23OGvD_axEyajBKx2Q6QX9VGrJF9IeRpvMz6hSk59hfKrhnQjbJWetRxLyUDaQU9zJ6TLFQDWoFsb6Iqp62tYP6_If8mwyAkTeQdemwydTxoh3BjO5Kgaa4G_imCCYTwRS4L23UvqB05XD2GX1-tHHN4B1gIkgU9wmCVL8iFZCgIwmqWSvbJfgfZwCCrfV3xHjGKafRFdFsPhubYXm_BnR1ArgrTEK-54MTamrf4QIBr159k4QXQ9v_YPzuuL2wS5TiwXEU131TKCikPIpM4QljU0ZwHgioqi_Va7JfkUYr8jbLSEUC0sHskZNu_OjkGzUatpLYBku4LTfUdjONNb5qG3-nFKzoIKDsMhGyCxD7lUTsIPh4RkedbRIceVoSrya0FU5PkbapUhtuGIWJbTK7ruO7-9anHoOis8q_sI_FeNPCaicdFUdtXMccXeLnrAzv0GNZl_8QwoKiu1FVs9oyeK8k6NPZXXUjFdORf5ZXGzc7TXxT8TNK7aAC6_hDBF1fLCm_PKHjTH81SsQShT3ns0pF1ootGsfbI5n5O6QFffAVS6ORM_SSu1cKx4Oo-e5cPCDLrwwKJnsTHTmp0JZf9MwsE3z_z0VzrtdKJZZ5mX3fn0bPCcu4ZqpbM_W84mZCagmdeDSbfvLuVd3RnIlwqSbFW9nNz6wLnso-8WDG6TuJwLTkldpTCEbTYoAHd00cDehEeTzBIH8IFjxoZtvnUVmJZiRUH0w-DyHa4-nJ7dwDg-E5n0GCLFWRVqgyhnKtAWAvm249cVwygLUIDDnyE-zT_4umq_yL_]--></g></svg>