<?xml version="1.0" encoding="us-ascii" standalone="no"?><svg xmlns="http://www.w3.org/2000/svg" xmlns:xlink="http://www.w3.org/1999/xlink" contentStyleType="text/css" height="1401px" preserveAspectRatio="none" style="width:1621px;height:1401px;background:#FFFFFF;" version="1.1" viewBox="0 0 1621 1401" width="1621px" zoomAndPan="magnify"><defs/><g><text fill="#000000" font-family="sans-serif" font-size="14" font-weight="bold" lengthAdjust="spacing" textLength="481" x="571.5" y="30.1074">"US1013 - Rank the candidates for a job opening" Sequence Diagram</text><rect fill="#FFFFFF" height="1176.1367" style="stroke:#181818;stroke-width:1.0;" width="10" x="88.5" y="133.2422"/><rect fill="#FFFFFF" height="235.6973" style="stroke:#181818;stroke-width:1.0;" width="10" x="484.5" y="156.5332"/><rect fill="#FFFFFF" height="403.4922" style="stroke:#181818;stroke-width:1.0;" width="10" x="484.5" y="449.8125"/><rect fill="#FFFFFF" height="42.291" style="stroke:#181818;stroke-width:1.0;" width="10" x="489.5" y="765.7227"/><rect fill="#FFFFFF" height="31.291" style="stroke:#181818;stroke-width:1.0;" width="10" x="484.5" y="910.8867"/><rect fill="#FFFFFF" height="31.291" style="stroke:#181818;stroke-width:1.0;" width="10" x="484.5" y="973.4688"/><rect fill="#FFFFFF" height="31.291" style="stroke:#181818;stroke-width:1.0;" width="10" x="484.5" y="1036.0508"/><rect fill="#FFFFFF" height="187.7461" style="stroke:#181818;stroke-width:1.0;" width="10" x="484.5" y="1105.6328"/><rect fill="#FFFFFF" height="93.873" style="stroke:#181818;stroke-width:1.0;" width="10" x="937.5" y="267.0664"/><rect fill="#FFFFFF" height="93.873" style="stroke:#181818;stroke-width:1.0;" width="10" x="937.5" y="481.1035"/><rect fill="#FFFFFF" height="93.873" style="stroke:#181818;stroke-width:1.0;" width="10" x="937.5" y="606.2676"/><rect fill="#FFFFFF" height="125.1641" style="stroke:#181818;stroke-width:1.0;" width="10" x="937.5" y="1136.9238"/><rect fill="#FFFFFF" height="31.291" style="stroke:#181818;stroke-width:1.0;" width="10" x="1117" y="298.3574"/><rect fill="#FFFFFF" height="31.291" style="stroke:#181818;stroke-width:1.0;" width="10" x="1296.5" y="512.3945"/><rect fill="#FFFFFF" height="31.291" style="stroke:#181818;stroke-width:1.0;" width="10" x="1433" y="1168.2148"/><rect fill="#FFFFFF" height="31.291" style="stroke:#181818;stroke-width:1.0;" width="10" x="1540.5" y="637.5586"/><rect fill="none" height="894.1484" style="stroke:#000000;stroke-width:1.5;" width="1605" x="10" y="407.2305"/><rect fill="none" height="107.873" style="stroke:#000000;stroke-width:1.5;" width="532" x="415.5" y="715.1406"/><rect fill="none" height="207.0371" style="stroke:#000000;stroke-width:1.5;" width="543.5" x="20" y="868.3047"/><line style="stroke:#181818;stroke-width:0.5;stroke-dasharray:5.0,5.0;" x1="93" x2="93" y1="123.2422" y2="1318.3789"/><line style="stroke:#181818;stroke-width:0.5;stroke-dasharray:5.0,5.0;" x1="489.5" x2="489.5" y1="123.2422" y2="1318.3789"/><line style="stroke:#181818;stroke-width:0.5;stroke-dasharray:5.0,5.0;" x1="942" x2="942" y1="214.1543" y2="1318.3789"/><line style="stroke:#181818;stroke-width:0.5;stroke-dasharray:5.0,5.0;" x1="1122" x2="1122" y1="123.2422" y2="1318.3789"/><line style="stroke:#181818;stroke-width:0.5;stroke-dasharray:5.0,5.0;" x1="1301" x2="1301" y1="123.2422" y2="1318.3789"/><line style="stroke:#181818;stroke-width:0.5;stroke-dasharray:5.0,5.0;" x1="1438" x2="1438" y1="123.2422" y2="1318.3789"/><line style="stroke:#181818;stroke-width:0.5;stroke-dasharray:5.0,5.0;" x1="1545" x2="1545" y1="123.2422" y2="1318.3789"/><text fill="#000000" font-family="sans-serif" font-size="14" lengthAdjust="spacing" textLength="121" x="30" y="119.7285">Customer Manager</text><ellipse cx="93.5" cy="53.1211" fill="#E3E3E3" rx="8" ry="8" style="stroke:#181818;stroke-width:0.5;"/><path d="M93.5,61.1211 L93.5,88.1211 M80.5,69.1211 L106.5,69.1211 M93.5,88.1211 L80.5,103.1211 M93.5,88.1211 L106.5,103.1211 " fill="none" style="stroke:#181818;stroke-width:0.5;"/><text fill="#000000" font-family="sans-serif" font-size="14" lengthAdjust="spacing" textLength="121" x="30" y="1332.4863">Customer Manager</text><ellipse cx="93.5" cy="1344.5" fill="#E3E3E3" rx="8" ry="8" style="stroke:#181818;stroke-width:0.5;"/><path d="M93.5,1352.5 L93.5,1379.5 M80.5,1360.5 L106.5,1360.5 M93.5,1379.5 L80.5,1394.5 M93.5,1379.5 L106.5,1394.5 " fill="none" style="stroke:#181818;stroke-width:0.5;"/><rect fill="#E3E3E3" height="51.2422" rx="2.5" ry="2.5" style="stroke:#181818;stroke-width:0.5;" width="128" x="425.5" y="71"/><text fill="#000000" font-family="sans-serif" font-size="14" font-style="italic" lengthAdjust="spacing" textLength="95" x="442" y="93.1074">&#171;presentation&#187;</text><text fill="#000000" font-family="sans-serif" font-size="14" lengthAdjust="spacing" textLength="114" x="432.5" y="111.7285">:RankCandidateUI</text><rect fill="#E3E3E3" height="51.2422" rx="2.5" ry="2.5" style="stroke:#181818;stroke-width:0.5;" width="128" x="425.5" y="1317.3789"/><text fill="#000000" font-family="sans-serif" font-size="14" font-style="italic" lengthAdjust="spacing" textLength="95" x="442" y="1339.4863">&#171;presentation&#187;</text><text fill="#000000" font-family="sans-serif" font-size="14" lengthAdjust="spacing" textLength="114" x="432.5" y="1358.1074">:RankCandidateUI</text><text fill="#000000" font-family="sans-serif" font-size="14" font-style="italic" lengthAdjust="spacing" textLength="84" x="897.5" y="1332.4863">&#171;application&#187;</text><text fill="#000000" font-family="sans-serif" font-size="14" lengthAdjust="spacing" textLength="171" x="854" y="1351.1074">:RankCandidatesController</text><ellipse cx="942.5" cy="1370.6211" fill="#E3E3E3" rx="12" ry="12" style="stroke:#181818;stroke-width:0.5;"/><polygon fill="#181818" points="938.5,1358.6211,944.5,1353.6211,942.5,1358.6211,944.5,1363.6211,938.5,1358.6211" style="stroke:#181818;stroke-width:1.0;"/><rect fill="#E3E3E3" height="51.2422" rx="2.5" ry="2.5" style="stroke:#181818;stroke-width:0.5;" width="162" x="1041" y="71"/><text fill="#000000" font-family="sans-serif" font-size="14" font-style="italic" lengthAdjust="spacing" textLength="79" x="1082.5" y="93.1074">&#171;repository&#187;</text><text fill="#000000" font-family="sans-serif" font-size="14" lengthAdjust="spacing" textLength="148" x="1048" y="111.7285">:JobOpeningRepository</text><rect fill="#E3E3E3" height="51.2422" rx="2.5" ry="2.5" style="stroke:#181818;stroke-width:0.5;" width="162" x="1041" y="1317.3789"/><text fill="#000000" font-family="sans-serif" font-size="14" font-style="italic" lengthAdjust="spacing" textLength="79" x="1082.5" y="1339.4863">&#171;repository&#187;</text><text fill="#000000" font-family="sans-serif" font-size="14" lengthAdjust="spacing" textLength="148" x="1048" y="1358.1074">:JobOpeningRepository</text><rect fill="#E3E3E3" height="51.2422" rx="2.5" ry="2.5" style="stroke:#181818;stroke-width:0.5;" width="177" x="1213" y="71"/><text fill="#000000" font-family="sans-serif" font-size="14" font-style="italic" lengthAdjust="spacing" textLength="79" x="1262" y="93.1074">&#171;repository&#187;</text><text fill="#000000" font-family="sans-serif" font-size="14" lengthAdjust="spacing" textLength="163" x="1220" y="111.7285">:JobApplicationRepository</text><rect fill="#E3E3E3" height="51.2422" rx="2.5" ry="2.5" style="stroke:#181818;stroke-width:0.5;" width="177" x="1213" y="1317.3789"/><text fill="#000000" font-family="sans-serif" font-size="14" font-style="italic" lengthAdjust="spacing" textLength="79" x="1262" y="1339.4863">&#171;repository&#187;</text><text fill="#000000" font-family="sans-serif" font-size="14" lengthAdjust="spacing" textLength="163" x="1220" y="1358.1074">:JobApplicationRepository</text><rect fill="#E3E3E3" height="51.2422" rx="2.5" ry="2.5" style="stroke:#181818;stroke-width:0.5;" width="76" x="1400" y="71"/><text fill="#000000" font-family="sans-serif" font-size="14" font-style="italic" lengthAdjust="spacing" textLength="62" x="1407" y="93.1074">&#171;domain&#187;</text><text fill="#000000" font-family="sans-serif" font-size="14" lengthAdjust="spacing" textLength="37" x="1419.5" y="111.7285">:Rank</text><rect fill="#E3E3E3" height="51.2422" rx="2.5" ry="2.5" style="stroke:#181818;stroke-width:0.5;" width="76" x="1400" y="1317.3789"/><text fill="#000000" font-family="sans-serif" font-size="14" font-style="italic" lengthAdjust="spacing" textLength="62" x="1407" y="1339.4863">&#171;domain&#187;</text><text fill="#000000" font-family="sans-serif" font-size="14" lengthAdjust="spacing" textLength="37" x="1419.5" y="1358.1074">:Rank</text><rect fill="#E3E3E3" height="51.2422" rx="2.5" ry="2.5" style="stroke:#181818;stroke-width:0.5;" width="119" x="1486" y="71"/><text fill="#000000" font-family="sans-serif" font-size="14" font-style="italic" lengthAdjust="spacing" textLength="79" x="1506" y="93.1074">&#171;repository&#187;</text><text fill="#000000" font-family="sans-serif" font-size="14" lengthAdjust="spacing" textLength="105" x="1493" y="111.7285">:RankRepository</text><rect fill="#E3E3E3" height="51.2422" rx="2.5" ry="2.5" style="stroke:#181818;stroke-width:0.5;" width="119" x="1486" y="1317.3789"/><text fill="#000000" font-family="sans-serif" font-size="14" font-style="italic" lengthAdjust="spacing" textLength="79" x="1506" y="1339.4863">&#171;repository&#187;</text><text fill="#000000" font-family="sans-serif" font-size="14" lengthAdjust="spacing" textLength="105" x="1493" y="1358.1074">:RankRepository</text><rect fill="#FFFFFF" height="1176.1367" style="stroke:#181818;stroke-width:1.0;" width="10" x="88.5" y="133.2422"/><rect fill="#FFFFFF" height="235.6973" style="stroke:#181818;stroke-width:1.0;" width="10" x="484.5" y="156.5332"/><rect fill="#FFFFFF" height="403.4922" style="stroke:#181818;stroke-width:1.0;" width="10" x="484.5" y="449.8125"/><rect fill="#FFFFFF" height="42.291" style="stroke:#181818;stroke-width:1.0;" width="10" x="489.5" y="765.7227"/><rect fill="#FFFFFF" height="31.291" style="stroke:#181818;stroke-width:1.0;" width="10" x="484.5" y="910.8867"/><rect fill="#FFFFFF" height="31.291" style="stroke:#181818;stroke-width:1.0;" width="10" x="484.5" y="973.4688"/><rect fill="#FFFFFF" height="31.291" style="stroke:#181818;stroke-width:1.0;" width="10" x="484.5" y="1036.0508"/><rect fill="#FFFFFF" height="187.7461" style="stroke:#181818;stroke-width:1.0;" width="10" x="484.5" y="1105.6328"/><rect fill="#FFFFFF" height="93.873" style="stroke:#181818;stroke-width:1.0;" width="10" x="937.5" y="267.0664"/><rect fill="#FFFFFF" height="93.873" style="stroke:#181818;stroke-width:1.0;" width="10" x="937.5" y="481.1035"/><rect fill="#FFFFFF" height="93.873" style="stroke:#181818;stroke-width:1.0;" width="10" x="937.5" y="606.2676"/><rect fill="#FFFFFF" height="125.1641" style="stroke:#181818;stroke-width:1.0;" width="10" x="937.5" y="1136.9238"/><rect fill="#FFFFFF" height="31.291" style="stroke:#181818;stroke-width:1.0;" width="10" x="1117" y="298.3574"/><rect fill="#FFFFFF" height="31.291" style="stroke:#181818;stroke-width:1.0;" width="10" x="1296.5" y="512.3945"/><rect fill="#FFFFFF" height="31.291" style="stroke:#181818;stroke-width:1.0;" width="10" x="1433" y="1168.2148"/><rect fill="#FFFFFF" height="31.291" style="stroke:#181818;stroke-width:1.0;" width="10" x="1540.5" y="637.5586"/><polygon fill="#181818" points="472.5,152.5332,482.5,156.5332,472.5,160.5332,476.5,156.5332" style="stroke:#181818;stroke-width:1.0;"/><line style="stroke:#181818;stroke-width:1.0;" x1="98.5" x2="478.5" y1="156.5332" y2="156.5332"/><text fill="#000000" font-family="sans-serif" font-size="13" font-weight="bold" lengthAdjust="spacing" textLength="7" x="105.5" y="151.2705">1</text><text fill="#000000" font-family="sans-serif" font-size="13" lengthAdjust="spacing" textLength="255" x="116.5" y="151.2705">Asks to rank all candidates of a JobOpening</text><polygon fill="#181818" points="842,183.8242,852,187.8242,842,191.8242,846,187.8242" style="stroke:#181818;stroke-width:1.0;"/><line style="stroke:#181818;stroke-width:1.0;" x1="494.5" x2="848" y1="187.8242" y2="187.8242"/><text fill="#000000" font-family="sans-serif" font-size="13" font-weight="bold" lengthAdjust="spacing" textLength="7" x="501.5" y="182.5615">2</text><text fill="#000000" font-family="sans-serif" font-size="13" lengthAdjust="spacing" textLength="36" x="512.5" y="182.5615">create</text><text fill="#000000" font-family="sans-serif" font-size="14" font-style="italic" lengthAdjust="spacing" textLength="84" x="897.5" y="211.6406">&#171;application&#187;</text><text fill="#000000" font-family="sans-serif" font-size="14" lengthAdjust="spacing" textLength="171" x="854" y="230.2617">:RankCandidatesController</text><ellipse cx="942.5" cy="180.5332" fill="#E3E3E3" rx="12" ry="12" style="stroke:#181818;stroke-width:0.5;"/><polygon fill="#181818" points="938.5,168.5332,944.5,163.5332,942.5,168.5332,944.5,173.5332,938.5,168.5332" style="stroke:#181818;stroke-width:1.0;"/><polygon fill="#181818" points="925.5,263.0664,935.5,267.0664,925.5,271.0664,929.5,267.0664" style="stroke:#181818;stroke-width:1.0;"/><line style="stroke:#181818;stroke-width:1.0;" x1="494.5" x2="931.5" y1="267.0664" y2="267.0664"/><text fill="#000000" font-family="sans-serif" font-size="13" font-weight="bold" lengthAdjust="spacing" textLength="7" x="501.5" y="261.8037">3</text><text fill="#000000" font-family="sans-serif" font-size="13" lengthAdjust="spacing" textLength="115" x="512.5" y="261.8037">listAllJobOpenings()</text><polygon fill="#181818" points="1105,294.3574,1115,298.3574,1105,302.3574,1109,298.3574" style="stroke:#181818;stroke-width:1.0;"/><line style="stroke:#181818;stroke-width:1.0;" x1="947.5" x2="1111" y1="298.3574" y2="298.3574"/><text fill="#000000" font-family="sans-serif" font-size="13" font-weight="bold" lengthAdjust="spacing" textLength="7" x="954.5" y="293.0947">4</text><text fill="#000000" font-family="sans-serif" font-size="13" lengthAdjust="spacing" textLength="43" x="965.5" y="293.0947">findAll()</text><polygon fill="#181818" points="958.5,325.6484,948.5,329.6484,958.5,333.6484,954.5,329.6484" style="stroke:#181818;stroke-width:1.0;"/><line style="stroke:#181818;stroke-width:1.0;stroke-dasharray:2.0,2.0;" x1="952.5" x2="1121" y1="329.6484" y2="329.6484"/><text fill="#000000" font-family="sans-serif" font-size="13" font-weight="bold" lengthAdjust="spacing" textLength="7" x="964.5" y="324.3857">5</text><text fill="#000000" font-family="sans-serif" font-size="13" lengthAdjust="spacing" textLength="88" x="975.5" y="324.3857">allJobOpenings</text><polygon fill="#181818" points="505.5,356.9395,495.5,360.9395,505.5,364.9395,501.5,360.9395" style="stroke:#181818;stroke-width:1.0;"/><line style="stroke:#181818;stroke-width:1.0;stroke-dasharray:2.0,2.0;" x1="499.5" x2="941.5" y1="360.9395" y2="360.9395"/><text fill="#000000" font-family="sans-serif" font-size="13" font-weight="bold" lengthAdjust="spacing" textLength="7" x="511.5" y="355.6768">6</text><text fill="#000000" font-family="sans-serif" font-size="13" lengthAdjust="spacing" textLength="88" x="522.5" y="355.6768">allJobOpenings</text><polygon fill="#181818" points="109.5,388.2305,99.5,392.2305,109.5,396.2305,105.5,392.2305" style="stroke:#181818;stroke-width:1.0;"/><line style="stroke:#181818;stroke-width:1.0;stroke-dasharray:2.0,2.0;" x1="103.5" x2="488.5" y1="392.2305" y2="392.2305"/><text fill="#000000" font-family="sans-serif" font-size="13" font-weight="bold" lengthAdjust="spacing" textLength="7" x="115.5" y="386.9678">7</text><text fill="#000000" font-family="sans-serif" font-size="13" lengthAdjust="spacing" textLength="255" x="126.5" y="386.9678">Shows the list of the jobOpenings to choose</text><path d="M10,407.2305 L71,407.2305 L71,416.5215 L61,426.5215 L10,426.5215 L10,407.2305 " fill="#EEEEEE" style="stroke:#000000;stroke-width:1.5;"/><rect fill="none" height="894.1484" style="stroke:#000000;stroke-width:1.5;" width="1605" x="10" y="407.2305"/><text fill="#000000" font-family="sans-serif" font-size="13" font-weight="bold" lengthAdjust="spacing" textLength="16" x="25" y="422.2588">alt</text><text fill="#000000" font-family="sans-serif" font-size="11" font-weight="bold" lengthAdjust="spacing" textLength="64" x="86" y="421.1006">[option != 0]</text><polygon fill="#181818" points="472.5,445.8125,482.5,449.8125,472.5,453.8125,476.5,449.8125" style="stroke:#181818;stroke-width:1.0;"/><line style="stroke:#181818;stroke-width:1.0;" x1="98.5" x2="478.5" y1="449.8125" y2="449.8125"/><text fill="#000000" font-family="sans-serif" font-size="13" font-weight="bold" lengthAdjust="spacing" textLength="7" x="105.5" y="444.5498">8</text><text fill="#000000" font-family="sans-serif" font-size="13" lengthAdjust="spacing" textLength="301" x="116.5" y="444.5498">Choose the JobOpening to list all of their candidates</text><polygon fill="#181818" points="925.5,477.1035,935.5,481.1035,925.5,485.1035,929.5,481.1035" style="stroke:#181818;stroke-width:1.0;"/><line style="stroke:#181818;stroke-width:1.0;" x1="494.5" x2="931.5" y1="481.1035" y2="481.1035"/><text fill="#000000" font-family="sans-serif" font-size="13" font-weight="bold" lengthAdjust="spacing" textLength="7" x="501.5" y="475.8408">9</text><text fill="#000000" font-family="sans-serif" font-size="13" lengthAdjust="spacing" textLength="209" x="512.5" y="475.8408">findCandidates(jobOpeningSelected)</text><polygon fill="#181818" points="1284.5,508.3945,1294.5,512.3945,1284.5,516.3945,1288.5,512.3945" style="stroke:#181818;stroke-width:1.0;"/><line style="stroke:#181818;stroke-width:1.0;" x1="947.5" x2="1290.5" y1="512.3945" y2="512.3945"/><text fill="#000000" font-family="sans-serif" font-size="13" font-weight="bold" lengthAdjust="spacing" textLength="14" x="954.5" y="507.1318">10</text><text fill="#000000" font-family="sans-serif" font-size="13" lengthAdjust="spacing" textLength="228" x="972.5" y="507.1318">findByJobOpening(jobOpeningSelected)</text><polygon fill="#181818" points="958.5,539.6855,948.5,543.6855,958.5,547.6855,954.5,543.6855" style="stroke:#181818;stroke-width:1.0;"/><line style="stroke:#181818;stroke-width:1.0;stroke-dasharray:2.0,2.0;" x1="952.5" x2="1300.5" y1="543.6855" y2="543.6855"/><text fill="#000000" font-family="sans-serif" font-size="13" font-weight="bold" lengthAdjust="spacing" textLength="14" x="964.5" y="538.4229">11</text><text fill="#000000" font-family="sans-serif" font-size="13" lengthAdjust="spacing" textLength="147" x="982.5" y="538.4229">candidatesByJobOpening</text><polygon fill="#181818" points="505.5,570.9766,495.5,574.9766,505.5,578.9766,501.5,574.9766" style="stroke:#181818;stroke-width:1.0;"/><line style="stroke:#181818;stroke-width:1.0;stroke-dasharray:2.0,2.0;" x1="499.5" x2="941.5" y1="574.9766" y2="574.9766"/><text fill="#000000" font-family="sans-serif" font-size="13" font-weight="bold" lengthAdjust="spacing" textLength="14" x="511.5" y="569.7139">12</text><text fill="#000000" font-family="sans-serif" font-size="13" lengthAdjust="spacing" textLength="147" x="529.5" y="569.7139">candidatesByJobOpening</text><polygon fill="#181818" points="925.5,602.2676,935.5,606.2676,925.5,610.2676,929.5,606.2676" style="stroke:#181818;stroke-width:1.0;"/><line style="stroke:#181818;stroke-width:1.0;" x1="494.5" x2="931.5" y1="606.2676" y2="606.2676"/><text fill="#000000" font-family="sans-serif" font-size="13" font-weight="bold" lengthAdjust="spacing" textLength="14" x="501.5" y="601.0049">13</text><text fill="#000000" font-family="sans-serif" font-size="13" lengthAdjust="spacing" textLength="355" x="519.5" y="601.0049">findRankByJobReference(jobOpeningSelected.jobReference())</text><polygon fill="#181818" points="1528.5,633.5586,1538.5,637.5586,1528.5,641.5586,1532.5,637.5586" style="stroke:#181818;stroke-width:1.0;"/><line style="stroke:#181818;stroke-width:1.0;" x1="947.5" x2="1534.5" y1="637.5586" y2="637.5586"/><text fill="#000000" font-family="sans-serif" font-size="13" font-weight="bold" lengthAdjust="spacing" textLength="14" x="954.5" y="632.2959">14</text><text fill="#000000" font-family="sans-serif" font-size="13" lengthAdjust="spacing" textLength="197" x="972.5" y="632.2959">findByJobReference(jobReference)</text><polygon fill="#181818" points="958.5,664.8496,948.5,668.8496,958.5,672.8496,954.5,668.8496" style="stroke:#181818;stroke-width:1.0;"/><line style="stroke:#181818;stroke-width:1.0;stroke-dasharray:2.0,2.0;" x1="952.5" x2="1544.5" y1="668.8496" y2="668.8496"/><text fill="#000000" font-family="sans-serif" font-size="13" font-weight="bold" lengthAdjust="spacing" textLength="14" x="964.5" y="663.5869">15</text><text fill="#000000" font-family="sans-serif" font-size="13" lengthAdjust="spacing" textLength="60" x="982.5" y="663.5869">rankSaved</text><polygon fill="#181818" points="505.5,696.1406,495.5,700.1406,505.5,704.1406,501.5,700.1406" style="stroke:#181818;stroke-width:1.0;"/><line style="stroke:#181818;stroke-width:1.0;stroke-dasharray:2.0,2.0;" x1="499.5" x2="941.5" y1="700.1406" y2="700.1406"/><text fill="#000000" font-family="sans-serif" font-size="13" font-weight="bold" lengthAdjust="spacing" textLength="14" x="511.5" y="694.8779">16</text><text fill="#000000" font-family="sans-serif" font-size="13" lengthAdjust="spacing" textLength="81" x="529.5" y="694.8779">rankSavedList</text><path d="M415.5,715.1406 L476.5,715.1406 L476.5,724.4316 L466.5,734.4316 L415.5,734.4316 L415.5,715.1406 " fill="#EEEEEE" style="stroke:#000000;stroke-width:1.5;"/><rect fill="none" height="107.873" style="stroke:#000000;stroke-width:1.5;" width="532" x="415.5" y="715.1406"/><text fill="#000000" font-family="sans-serif" font-size="13" font-weight="bold" lengthAdjust="spacing" textLength="16" x="430.5" y="730.1689">alt</text><text fill="#000000" font-family="sans-serif" font-size="11" font-weight="bold" lengthAdjust="spacing" textLength="142" x="491.5" y="729.0107">[rankSavedList.hasNext()]</text><line style="stroke:#181818;stroke-width:1.0;" x1="494.5" x2="541.5" y1="752.7227" y2="752.7227"/><line style="stroke:#181818;stroke-width:1.0;" x1="541.5" x2="541.5" y1="752.7227" y2="765.7227"/><line style="stroke:#181818;stroke-width:1.0;" x1="500.5" x2="541.5" y1="765.7227" y2="765.7227"/><polygon fill="#181818" points="510.5,761.7227,500.5,765.7227,510.5,769.7227,506.5,765.7227" style="stroke:#181818;stroke-width:1.0;"/><text fill="#000000" font-family="sans-serif" font-size="13" font-weight="bold" lengthAdjust="spacing" textLength="14" x="506.5" y="747.46">17</text><text fill="#000000" font-family="sans-serif" font-size="13" lengthAdjust="spacing" textLength="411" x="524.5" y="747.46">transferRankingData(ranked, rankedSaveList,candidatesByJobOpening)</text><line style="stroke:#181818;stroke-width:1.0;" x1="499.5" x2="541.5" y1="807.0137" y2="807.0137"/><line style="stroke:#181818;stroke-width:1.0;" x1="541.5" x2="541.5" y1="807.0137" y2="820.0137"/><line style="stroke:#181818;stroke-width:1.0;" x1="494.5" x2="541.5" y1="820.0137" y2="820.0137"/><polygon fill="#181818" points="504.5,816.0137,494.5,820.0137,504.5,824.0137,500.5,820.0137" style="stroke:#181818;stroke-width:1.0;"/><text fill="#000000" font-family="sans-serif" font-size="13" font-weight="bold" lengthAdjust="spacing" textLength="14" x="506.5" y="801.751">18</text><text fill="#000000" font-family="sans-serif" font-size="13" lengthAdjust="spacing" textLength="39" x="524.5" y="801.751">ranked</text><polygon fill="#181818" points="109.5,849.3047,99.5,853.3047,109.5,857.3047,105.5,853.3047" style="stroke:#181818;stroke-width:1.0;"/><line style="stroke:#181818;stroke-width:1.0;stroke-dasharray:2.0,2.0;" x1="103.5" x2="488.5" y1="853.3047" y2="853.3047"/><text fill="#000000" font-family="sans-serif" font-size="13" font-weight="bold" lengthAdjust="spacing" textLength="14" x="115.5" y="848.042">19</text><text fill="#000000" font-family="sans-serif" font-size="13" lengthAdjust="spacing" textLength="314" x="133.5" y="848.042">Shows the list of the candidates filtered by jobOpening</text><path d="M20,868.3047 L93,868.3047 L93,877.5957 L83,887.5957 L20,887.5957 L20,868.3047 " fill="#EEEEEE" style="stroke:#000000;stroke-width:1.5;"/><rect fill="none" height="207.0371" style="stroke:#000000;stroke-width:1.5;" width="543.5" x="20" y="868.3047"/><text fill="#000000" font-family="sans-serif" font-size="13" font-weight="bold" lengthAdjust="spacing" textLength="28" x="35" y="883.333">loop</text><text fill="#000000" font-family="sans-serif" font-size="11" font-weight="bold" lengthAdjust="spacing" textLength="64" x="108" y="882.1748">[option != 0]</text><polygon fill="#181818" points="472.5,906.8867,482.5,910.8867,472.5,914.8867,476.5,910.8867" style="stroke:#181818;stroke-width:1.0;"/><line style="stroke:#181818;stroke-width:1.0;" x1="98.5" x2="478.5" y1="910.8867" y2="910.8867"/><text fill="#000000" font-family="sans-serif" font-size="13" font-weight="bold" lengthAdjust="spacing" textLength="14" x="105.5" y="905.624">20</text><text fill="#000000" font-family="sans-serif" font-size="13" lengthAdjust="spacing" textLength="177" x="123.5" y="905.624">Choose to rank the candidates</text><polygon fill="#181818" points="109.5,938.1777,99.5,942.1777,109.5,946.1777,105.5,942.1777" style="stroke:#181818;stroke-width:1.0;"/><line style="stroke:#181818;stroke-width:1.0;stroke-dasharray:2.0,2.0;" x1="103.5" x2="488.5" y1="942.1777" y2="942.1777"/><text fill="#000000" font-family="sans-serif" font-size="13" font-weight="bold" lengthAdjust="spacing" textLength="14" x="115.5" y="936.915">21</text><text fill="#000000" font-family="sans-serif" font-size="13" lengthAdjust="spacing" textLength="273" x="133.5" y="936.915">Ask to choose the candidates you want to rank</text><polygon fill="#181818" points="472.5,969.4688,482.5,973.4688,472.5,977.4688,476.5,973.4688" style="stroke:#181818;stroke-width:1.0;"/><line style="stroke:#181818;stroke-width:1.0;" x1="98.5" x2="478.5" y1="973.4688" y2="973.4688"/><text fill="#000000" font-family="sans-serif" font-size="13" font-weight="bold" lengthAdjust="spacing" textLength="14" x="105.5" y="968.2061">22</text><text fill="#000000" font-family="sans-serif" font-size="13" lengthAdjust="spacing" textLength="228" x="123.5" y="968.2061">Choose one or more candidates to rank</text><polygon fill="#181818" points="109.5,1000.7598,99.5,1004.7598,109.5,1008.7598,105.5,1004.7598" style="stroke:#181818;stroke-width:1.0;"/><line style="stroke:#181818;stroke-width:1.0;stroke-dasharray:2.0,2.0;" x1="103.5" x2="488.5" y1="1004.7598" y2="1004.7598"/><text fill="#000000" font-family="sans-serif" font-size="13" font-weight="bold" lengthAdjust="spacing" textLength="14" x="115.5" y="999.4971">23</text><text fill="#000000" font-family="sans-serif" font-size="13" lengthAdjust="spacing" textLength="344" x="133.5" y="999.4971">Ask to choose the positions you want to put the candidates</text><polygon fill="#181818" points="472.5,1032.0508,482.5,1036.0508,472.5,1040.0508,476.5,1036.0508" style="stroke:#181818;stroke-width:1.0;"/><line style="stroke:#181818;stroke-width:1.0;" x1="98.5" x2="478.5" y1="1036.0508" y2="1036.0508"/><text fill="#000000" font-family="sans-serif" font-size="13" font-weight="bold" lengthAdjust="spacing" textLength="14" x="105.5" y="1030.7881">24</text><text fill="#000000" font-family="sans-serif" font-size="13" lengthAdjust="spacing" textLength="287" x="123.5" y="1030.7881">Choose the respective positions of the candidates</text><polygon fill="#181818" points="109.5,1063.3418,99.5,1067.3418,109.5,1071.3418,105.5,1067.3418" style="stroke:#181818;stroke-width:1.0;"/><line style="stroke:#181818;stroke-width:1.0;stroke-dasharray:2.0,2.0;" x1="103.5" x2="488.5" y1="1067.3418" y2="1067.3418"/><text fill="#000000" font-family="sans-serif" font-size="13" font-weight="bold" lengthAdjust="spacing" textLength="14" x="115.5" y="1062.0791">25</text><text fill="#000000" font-family="sans-serif" font-size="13" lengthAdjust="spacing" textLength="297" x="133.5" y="1062.0791">Shows the list of the candidates with the new ranks</text><polygon fill="#181818" points="472.5,1101.6328,482.5,1105.6328,472.5,1109.6328,476.5,1105.6328" style="stroke:#181818;stroke-width:1.0;"/><line style="stroke:#181818;stroke-width:1.0;" x1="98.5" x2="478.5" y1="1105.6328" y2="1105.6328"/><text fill="#000000" font-family="sans-serif" font-size="13" font-weight="bold" lengthAdjust="spacing" textLength="14" x="105.5" y="1100.3701">26</text><text fill="#000000" font-family="sans-serif" font-size="13" lengthAdjust="spacing" textLength="318" x="123.5" y="1100.3701">Choose the option to end the ranking process and save</text><polygon fill="#181818" points="925.5,1132.9238,935.5,1136.9238,925.5,1140.9238,929.5,1136.9238" style="stroke:#181818;stroke-width:1.0;"/><line style="stroke:#181818;stroke-width:1.0;" x1="494.5" x2="931.5" y1="1136.9238" y2="1136.9238"/><text fill="#000000" font-family="sans-serif" font-size="13" font-weight="bold" lengthAdjust="spacing" textLength="14" x="501.5" y="1131.6611">27</text><text fill="#000000" font-family="sans-serif" font-size="13" lengthAdjust="spacing" textLength="334" x="519.5" y="1131.6611">storeRank( candidatesFinalRanks, jobOpeningReference )</text><polygon fill="#181818" points="1421,1164.2148,1431,1168.2148,1421,1172.2148,1425,1168.2148" style="stroke:#181818;stroke-width:1.0;"/><line style="stroke:#181818;stroke-width:1.0;" x1="947.5" x2="1427" y1="1168.2148" y2="1168.2148"/><text fill="#000000" font-family="sans-serif" font-size="13" font-weight="bold" lengthAdjust="spacing" textLength="14" x="954.5" y="1162.9521">28</text><text fill="#000000" font-family="sans-serif" font-size="13" lengthAdjust="spacing" textLength="36" x="972.5" y="1162.9521">create</text><polygon fill="#181818" points="958.5,1195.5059,948.5,1199.5059,958.5,1203.5059,954.5,1199.5059" style="stroke:#181818;stroke-width:1.0;"/><line style="stroke:#181818;stroke-width:1.0;" x1="952.5" x2="1437" y1="1199.5059" y2="1199.5059"/><text fill="#000000" font-family="sans-serif" font-size="13" font-weight="bold" lengthAdjust="spacing" textLength="14" x="964.5" y="1194.2432">29</text><text fill="#000000" font-family="sans-serif" font-size="13" lengthAdjust="spacing" textLength="25" x="982.5" y="1194.2432">rank</text><polygon fill="#181818" points="1533.5,1226.7969,1543.5,1230.7969,1533.5,1234.7969,1537.5,1230.7969" style="stroke:#181818;stroke-width:1.0;"/><line style="stroke:#181818;stroke-width:1.0;" x1="947.5" x2="1539.5" y1="1230.7969" y2="1230.7969"/><text fill="#000000" font-family="sans-serif" font-size="13" font-weight="bold" lengthAdjust="spacing" textLength="14" x="954.5" y="1225.5342">30</text><text fill="#000000" font-family="sans-serif" font-size="13" lengthAdjust="spacing" textLength="59" x="972.5" y="1225.5342">save(rank)</text><polygon fill="#181818" points="505.5,1258.0879,495.5,1262.0879,505.5,1266.0879,501.5,1262.0879" style="stroke:#181818;stroke-width:1.0;"/><line style="stroke:#181818;stroke-width:1.0;stroke-dasharray:2.0,2.0;" x1="499.5" x2="941.5" y1="1262.0879" y2="1262.0879"/><text fill="#000000" font-family="sans-serif" font-size="13" font-weight="bold" lengthAdjust="spacing" textLength="14" x="511.5" y="1256.8252">31</text><text fill="#000000" font-family="sans-serif" font-size="13" lengthAdjust="spacing" textLength="49" x="529.5" y="1256.8252">success</text><polygon fill="#181818" points="109.5,1289.3789,99.5,1293.3789,109.5,1297.3789,105.5,1293.3789" style="stroke:#181818;stroke-width:1.0;"/><line style="stroke:#181818;stroke-width:1.0;stroke-dasharray:2.0,2.0;" x1="103.5" x2="488.5" y1="1293.3789" y2="1293.3789"/><text fill="#000000" font-family="sans-serif" font-size="13" font-weight="bold" lengthAdjust="spacing" textLength="14" x="115.5" y="1288.1162">32</text><text fill="#000000" font-family="sans-serif" font-size="13" lengthAdjust="spacing" textLength="134" x="133.5" y="1288.1162">Show it was a success</text><!--SRC=[fLV1RkCs4BthAwQ-n5d4oIvwCx86t0H5NRGDOAy_W9PeYubCgYGLn_dwpaYAIKgKasmL19P9pfitCuz3-YAtjZJJcvkoOD9M- -8wLViRm_-jk4pv91Difza-ISoJa2N3LzWhgT9Sgpq7golkpPGiVM8xlhB7WeFcgMLoL_WBJCuoTH1o1rjM69uahB9ALliDruaL5gr6wzMthzz-XGaicNm2ctD8cSn4nYmti5KQ63og3QYIIyGPmQfb2lSjqujSP1nNAhjHBmbBBTgCxYfZaR26lvb4Xde4pC2SvX9aPaKgIemUHbFoUlVcSBserwqNS7jRQcwujCmA9MUp95NIQbLqBSnTCrwqBjnNX61bMOZq3U4YS3olRFwwv3jXh3usx9RmZisKZ9GMh_NqYkjdaVB6TltZZrNFEZJ-KsqUcYGkUQcCm5mqZcCJYALFNs9GS-Uf3nUTF0z9MQtDQndStcPgpuICBklu2uUwNfAB7m_t3rEOPmYY9DD0W1nGCaB3fZ8f8uaLM0S6_0K_iEWarDIAPonmAnh0ftw3oOpqWO3coO1Le8alAmfVjcgBa2wjjJKz9z3r8acQqVK20Prgldn1w5HpHXnY2t2QkCwBmk6RyMKImBlb63-unurFPYYtAR28e13Cit5vMFh3yoKYrA9xeqjczESlcSm2ukJjrLkHSHyzwREaPCVKEOMja1dce0qy81epSE1HiIDHt-sKwkcbDuaGFk_53u6mruiUPWpKhrlYLg04CDkalYciSdKmTPia6P3IwFtH0PCcqrmfwhOUD2cE5MXGKgdXb-_mDOce-gwsh34TMOAilP7C6u-uTvpUavwsOK2wL3RNEyUEzeeNU7pmpDKphcQ0g9nReKJxJkFrjwEBvxpVhfYYe1qcWpslfooNDPzHY1RAx2F-OteRy3JeQZ3DA8oWZar2gUtMm4k-vPfEv4XQhn_z-SkXB7-mmc6dz-eQK3XzkKm6t8KudLMTusJI2PtQ_OezysmuaMVXEvMYGfqW_y8zzldwqAuE8AvpPlxXBtRSIG1jH_9dSRN1715FhDKzisnC03oxWkQJe0ZfAgwXi8p-ne-vQo13Aft6v4zncGNDxuCTqByqYiAY0ZBO7Bt6E9pOBWCeb2hxZV9qhX6D9hItRjdU0a8UWqbAXYB3AuNhtjseZgg20rs2McyVpMUVhfBuh_5QhmC7CToVf5rh7xCNiYuhUov5dug1SF22Nd8oyHtsv30Sp_-Gs47Ol1wJ_51dpPnLLyTLBN7e1GXjF_12R4M8oKER9kXcqqAfLSgD0UG41hVhGAlhQRlRpF5GnbzAcbCp67iX_YuaAsZGN7cRwDHROR2v1dUOTvgvk-iED-f8U-v5qDDjjnqddpXNA2EOqBebNhxNlMbnbL8bVkvSHH1FSo0ixXOiwhkWZQhSqtJD_m00]--></g></svg>