<?xml version="1.0" encoding="us-ascii" standalone="no"?><svg xmlns="http://www.w3.org/2000/svg" xmlns:xlink="http://www.w3.org/1999/xlink" contentStyleType="text/css" height="1250.9px" preserveAspectRatio="none" style="width:1511px;height:1250px;background:#FFFFFF;" version="1.1" viewBox="0 0 1511 1250" width="1512px" zoomAndPan="magnify"><defs/><g><text fill="#000000" font-family="sans-serif" font-size="9.8" font-weight="bold" lengthAdjust="spacing" textLength="261.8" x="624.4" y="21.0752">"US1002 - Register a job opening" Sequence Diagram</text><rect fill="#FFFFFF" height="1087.0439" style="stroke:#181818;stroke-width:0.6999999999999998;" width="7" x="44.45" y="93.2695"/><rect fill="#FFFFFF" height="371.2215" style="stroke:#181818;stroke-width:0.6999999999999998;" width="7" x="411.25" y="109.5732"/><rect fill="#FFFFFF" height="21.9037" style="stroke:#181818;stroke-width:0.6999999999999998;" width="7" x="411.25" y="502.6984"/><rect fill="#FFFFFF" height="52.9074" style="stroke:#181818;stroke-width:0.6999999999999998;" width="7" x="411.25" y="546.5059"/><rect fill="#FFFFFF" height="52.9074" style="stroke:#181818;stroke-width:0.6999999999999998;" width="7" x="411.25" y="621.317"/><rect fill="#FFFFFF" height="21.9037" style="stroke:#181818;stroke-width:0.6999999999999998;" width="7" x="411.25" y="696.1281"/><rect fill="#FFFFFF" height="440.3779" style="stroke:#181818;stroke-width:0.6999999999999998;" width="7" x="411.25" y="739.9355"/><rect fill="#FFFFFF" height="240.9408" style="stroke:#181818;stroke-width:0.6999999999999998;" width="7" x="714.35" y="186.9465"/><rect fill="#FFFFFF" height="175.2297" style="stroke:#181818;stroke-width:0.6999999999999998;" width="7" x="714.35" y="761.8393"/><rect fill="#FFFFFF" height="21.9037" style="stroke:#181818;stroke-width:0.6999999999999998;" width="7" x="714.35" y="958.9727"/><rect fill="#FFFFFF" height="143.526" style="stroke:#181818;stroke-width:0.6999999999999998;" width="7" x="714.35" y="1014.8838"/><rect fill="#FFFFFF" height="43.8074" style="stroke:#181818;stroke-width:0.6999999999999998;" width="7" x="829.15" y="208.8502"/><rect fill="#FFFFFF" height="87.6148" style="stroke:#181818;stroke-width:0.6999999999999998;" width="7" x="1029" y="274.5613"/><rect fill="#FFFFFF" height="87.6148" style="stroke:#181818;stroke-width:0.6999999999999998;" width="7" x="1029" y="783.743"/><rect fill="#FFFFFF" height="43.8074" style="stroke:#181818;stroke-width:0.6999999999999998;" width="7" x="1154.3" y="296.465"/><rect fill="#FFFFFF" height="43.8074" style="stroke:#181818;stroke-width:0.6999999999999998;" width="7" x="1154.3" y="805.6467"/><rect fill="#FFFFFF" height="21.9037" style="stroke:#181818;stroke-width:0.6999999999999998;" width="7" x="1259.65" y="384.0799"/><rect fill="#FFFFFF" height="21.9037" style="stroke:#181818;stroke-width:0.6999999999999998;" width="7" x="1259.65" y="893.2615"/><rect fill="#FFFFFF" height="21.9037" style="stroke:#181818;stroke-width:0.6999999999999998;" width="7" x="1351" y="1048.8912"/><rect fill="#FFFFFF" height="21.9037" style="stroke:#181818;stroke-width:0.6999999999999998;" width="7" x="1447.6" y="1114.6023"/><line style="stroke:#181818;stroke-width:0.3499999999999999;stroke-dasharray:5.0,5.0;" x1="47.6" x2="47.6" y1="86.2695" y2="1192.9135"/><line style="stroke:#181818;stroke-width:0.3499999999999999;stroke-dasharray:5.0,5.0;" x1="414.4" x2="414.4" y1="86.2695" y2="1192.9135"/><line style="stroke:#181818;stroke-width:0.3499999999999999;stroke-dasharray:5.0,5.0;" x1="717.5" x2="717.5" y1="149.908" y2="1192.9135"/><line style="stroke:#181818;stroke-width:0.3499999999999999;stroke-dasharray:5.0,5.0;" x1="832.3" x2="832.3" y1="86.2695" y2="1192.9135"/><line style="stroke:#181818;stroke-width:0.3499999999999999;stroke-dasharray:5.0,5.0;" x1="926.1" x2="926.1" y1="86.2695" y2="1192.9135"/><line style="stroke:#181818;stroke-width:0.3499999999999999;stroke-dasharray:5.0,5.0;" x1="1032.5" x2="1032.5" y1="86.2695" y2="1192.9135"/><line style="stroke:#181818;stroke-width:0.3499999999999999;stroke-dasharray:5.0,5.0;" x1="1157.8" x2="1157.8" y1="86.2695" y2="1192.9135"/><line style="stroke:#181818;stroke-width:0.3499999999999999;stroke-dasharray:5.0,5.0;" x1="1262.8" x2="1262.8" y1="86.2695" y2="1192.9135"/><line style="stroke:#181818;stroke-width:0.3499999999999999;stroke-dasharray:5.0,5.0;" x1="1354.5" x2="1354.5" y1="86.2695" y2="1192.9135"/><line style="stroke:#181818;stroke-width:0.3499999999999999;stroke-dasharray:5.0,5.0;" x1="1451.1" x2="1451.1" y1="86.2695" y2="1192.9135"/><text fill="#000000" font-family="sans-serif" font-size="9.8" lengthAdjust="spacing" textLength="84.7" x="3.5" y="83.81">Costumer Manager</text><ellipse cx="47.95" cy="37.1848" fill="#E3E3E3" rx="5.6" ry="5.6" style="stroke:#181818;stroke-width:0.3499999999999999;"/><path d="M47.95,42.7848 L47.95,61.6848 M38.85,48.3848 L57.05,48.3848 M47.95,61.6848 L38.85,72.1848 M47.95,61.6848 L57.05,72.1848 " fill="none" style="stroke:#181818;stroke-width:0.3499999999999999;"/><text fill="#000000" font-family="sans-serif" font-size="9.8" lengthAdjust="spacing" textLength="84.7" x="3.5" y="1202.7887">Costumer Manager</text><ellipse cx="47.95" cy="1211.1982" fill="#E3E3E3" rx="5.6" ry="5.6" style="stroke:#181818;stroke-width:0.3499999999999999;"/><path d="M47.95,1216.7982 L47.95,1235.6982 M38.85,1222.3982 L57.05,1222.3982 M47.95,1235.6982 L38.85,1246.1982 M47.95,1235.6982 L57.05,1246.1982 " fill="none" style="stroke:#181818;stroke-width:0.3499999999999999;"/><rect fill="#E3E3E3" height="35.8695" rx="1.75" ry="1.75" style="stroke:#181818;stroke-width:0.3499999999999999;" width="111.3" x="359.1" y="49.7"/><text fill="#000000" font-family="sans-serif" font-size="9.8" font-style="italic" lengthAdjust="spacing" textLength="66.5" x="381.5" y="65.1752">&#171;presentation&#187;</text><text fill="#000000" font-family="sans-serif" font-size="9.8" lengthAdjust="spacing" textLength="101.5" x="364" y="78.21">:RegisterJobOpeningUI</text><rect fill="#E3E3E3" height="35.8695" rx="1.75" ry="1.75" style="stroke:#181818;stroke-width:0.3499999999999999;" width="111.3" x="359.1" y="1192.2135"/><text fill="#000000" font-family="sans-serif" font-size="9.8" font-style="italic" lengthAdjust="spacing" textLength="66.5" x="381.5" y="1207.6887">&#171;presentation&#187;</text><text fill="#000000" font-family="sans-serif" font-size="9.8" lengthAdjust="spacing" textLength="101.5" x="364" y="1220.7234">:RegisterJobOpeningUI</text><text fill="#000000" font-family="sans-serif" font-size="9.8" font-style="italic" lengthAdjust="spacing" textLength="58.8" x="686.35" y="1202.7887">&#171;application&#187;</text><text fill="#000000" font-family="sans-serif" font-size="9.8" lengthAdjust="spacing" textLength="136.5" x="647.5" y="1215.8234">:RegisterJobOpeningController</text><ellipse cx="717.85" cy="1229.483" fill="#E3E3E3" rx="8.4" ry="8.4" style="stroke:#181818;stroke-width:0.3499999999999999;"/><polygon fill="#181818" points="715.05,1221.083,719.25,1217.583,717.85,1221.083,719.25,1224.583,715.05,1221.083" style="stroke:#181818;stroke-width:0.6999999999999998;"/><rect fill="#E3E3E3" height="35.8695" rx="1.75" ry="1.75" style="stroke:#181818;stroke-width:0.3499999999999999;" width="70.7" x="797.3" y="49.7"/><text fill="#000000" font-family="sans-serif" font-size="9.8" font-style="italic" lengthAdjust="spacing" textLength="58.8" x="803.25" y="65.1752">&#171;application&#187;</text><text fill="#000000" font-family="sans-serif" font-size="9.8" lengthAdjust="spacing" textLength="60.9" x="802.2" y="78.21">AuthzRegistry</text><rect fill="#E3E3E3" height="35.8695" rx="1.75" ry="1.75" style="stroke:#181818;stroke-width:0.3499999999999999;" width="70.7" x="797.3" y="1192.2135"/><text fill="#000000" font-family="sans-serif" font-size="9.8" font-style="italic" lengthAdjust="spacing" textLength="58.8" x="803.25" y="1207.6887">&#171;application&#187;</text><text fill="#000000" font-family="sans-serif" font-size="9.8" lengthAdjust="spacing" textLength="60.9" x="802.2" y="1220.7234">AuthzRegistry</text><rect fill="#E3E3E3" height="35.8695" rx="1.75" ry="1.75" style="stroke:#181818;stroke-width:0.3499999999999999;" width="102.9" x="875" y="49.7"/><text fill="#000000" font-family="sans-serif" font-size="9.8" font-style="italic" lengthAdjust="spacing" textLength="58.8" x="897.05" y="65.1752">&#171;application&#187;</text><text fill="#000000" font-family="sans-serif" font-size="9.8" lengthAdjust="spacing" textLength="93.1" x="879.9" y="78.21">:AuthorizationService</text><rect fill="#E3E3E3" height="35.8695" rx="1.75" ry="1.75" style="stroke:#181818;stroke-width:0.3499999999999999;" width="102.9" x="875" y="1192.2135"/><text fill="#000000" font-family="sans-serif" font-size="9.8" font-style="italic" lengthAdjust="spacing" textLength="58.8" x="897.05" y="1207.6887">&#171;application&#187;</text><text fill="#000000" font-family="sans-serif" font-size="9.8" lengthAdjust="spacing" textLength="93.1" x="879.9" y="1220.7234">:AuthorizationService</text><rect fill="#E3E3E3" height="35.8695" rx="1.75" ry="1.75" style="stroke:#181818;stroke-width:0.3499999999999999;" width="95.2" x="984.9" y="49.7"/><text fill="#000000" font-family="sans-serif" font-size="9.8" font-style="italic" lengthAdjust="spacing" textLength="62.3" x="1001.35" y="65.1752">&#171;persistence&#187;</text><text fill="#000000" font-family="sans-serif" font-size="9.8" lengthAdjust="spacing" textLength="85.4" x="989.8" y="78.21">PersistenceContext</text><rect fill="#E3E3E3" height="35.8695" rx="1.75" ry="1.75" style="stroke:#181818;stroke-width:0.3499999999999999;" width="95.2" x="984.9" y="1192.2135"/><text fill="#000000" font-family="sans-serif" font-size="9.8" font-style="italic" lengthAdjust="spacing" textLength="62.3" x="1001.35" y="1207.6887">&#171;persistence&#187;</text><text fill="#000000" font-family="sans-serif" font-size="9.8" lengthAdjust="spacing" textLength="85.4" x="989.8" y="1220.7234">PersistenceContext</text><rect fill="#E3E3E3" height="35.8695" rx="1.75" ry="1.75" style="stroke:#181818;stroke-width:0.3499999999999999;" width="93.8" x="1110.9" y="49.7"/><text fill="#000000" font-family="sans-serif" font-size="9.8" font-style="italic" lengthAdjust="spacing" textLength="62.3" x="1126.65" y="65.1752">&#171;persistence&#187;</text><text fill="#000000" font-family="sans-serif" font-size="9.8" lengthAdjust="spacing" textLength="84" x="1115.8" y="78.21">:RepositoryFactory</text><rect fill="#E3E3E3" height="35.8695" rx="1.75" ry="1.75" style="stroke:#181818;stroke-width:0.3499999999999999;" width="93.8" x="1110.9" y="1192.2135"/><text fill="#000000" font-family="sans-serif" font-size="9.8" font-style="italic" lengthAdjust="spacing" textLength="62.3" x="1126.65" y="1207.6887">&#171;persistence&#187;</text><text fill="#000000" font-family="sans-serif" font-size="9.8" lengthAdjust="spacing" textLength="84" x="1115.8" y="1220.7234">:RepositoryFactory</text><rect fill="#E3E3E3" height="35.8695" rx="1.75" ry="1.75" style="stroke:#181818;stroke-width:0.3499999999999999;" width="102.9" x="1211.7" y="49.7"/><text fill="#000000" font-family="sans-serif" font-size="9.8" font-style="italic" lengthAdjust="spacing" textLength="55.3" x="1235.5" y="65.1752">&#171;repository&#187;</text><text fill="#000000" font-family="sans-serif" font-size="9.8" lengthAdjust="spacing" textLength="93.1" x="1216.6" y="78.21">:CustomerRepository</text><rect fill="#E3E3E3" height="35.8695" rx="1.75" ry="1.75" style="stroke:#181818;stroke-width:0.3499999999999999;" width="102.9" x="1211.7" y="1192.2135"/><text fill="#000000" font-family="sans-serif" font-size="9.8" font-style="italic" lengthAdjust="spacing" textLength="55.3" x="1235.5" y="1207.6887">&#171;repository&#187;</text><text fill="#000000" font-family="sans-serif" font-size="9.8" lengthAdjust="spacing" textLength="93.1" x="1216.6" y="1220.7234">:CustomerRepository</text><rect fill="#E3E3E3" height="35.8695" rx="1.75" ry="1.75" style="stroke:#181818;stroke-width:0.3499999999999999;" width="65.8" x="1321.6" y="49.7"/><text fill="#000000" font-family="sans-serif" font-size="9.8" font-style="italic" lengthAdjust="spacing" textLength="43.4" x="1332.8" y="65.1752">&#171;domain&#187;</text><text fill="#000000" font-family="sans-serif" font-size="9.8" lengthAdjust="spacing" textLength="56" x="1326.5" y="78.21">:JobOpening</text><rect fill="#E3E3E3" height="35.8695" rx="1.75" ry="1.75" style="stroke:#181818;stroke-width:0.3499999999999999;" width="65.8" x="1321.6" y="1192.2135"/><text fill="#000000" font-family="sans-serif" font-size="9.8" font-style="italic" lengthAdjust="spacing" textLength="43.4" x="1332.8" y="1207.6887">&#171;domain&#187;</text><text fill="#000000" font-family="sans-serif" font-size="9.8" lengthAdjust="spacing" textLength="56" x="1326.5" y="1220.7234">:JobOpening</text><rect fill="#E3E3E3" height="35.8695" rx="1.75" ry="1.75" style="stroke:#181818;stroke-width:0.3499999999999999;" width="113.4" x="1394.4" y="49.7"/><text fill="#000000" font-family="sans-serif" font-size="9.8" font-style="italic" lengthAdjust="spacing" textLength="55.3" x="1423.45" y="65.1752">&#171;repository&#187;</text><text fill="#000000" font-family="sans-serif" font-size="9.8" lengthAdjust="spacing" textLength="103.6" x="1399.3" y="78.21">:JobOpeningRepository</text><rect fill="#E3E3E3" height="35.8695" rx="1.75" ry="1.75" style="stroke:#181818;stroke-width:0.3499999999999999;" width="113.4" x="1394.4" y="1192.2135"/><text fill="#000000" font-family="sans-serif" font-size="9.8" font-style="italic" lengthAdjust="spacing" textLength="55.3" x="1423.45" y="1207.6887">&#171;repository&#187;</text><text fill="#000000" font-family="sans-serif" font-size="9.8" lengthAdjust="spacing" textLength="103.6" x="1399.3" y="1220.7234">:JobOpeningRepository</text><rect fill="#FFFFFF" height="1087.0439" style="stroke:#181818;stroke-width:0.6999999999999998;" width="7" x="44.45" y="93.2695"/><rect fill="#FFFFFF" height="371.2215" style="stroke:#181818;stroke-width:0.6999999999999998;" width="7" x="411.25" y="109.5732"/><rect fill="#FFFFFF" height="21.9037" style="stroke:#181818;stroke-width:0.6999999999999998;" width="7" x="411.25" y="502.6984"/><rect fill="#FFFFFF" height="52.9074" style="stroke:#181818;stroke-width:0.6999999999999998;" width="7" x="411.25" y="546.5059"/><rect fill="#FFFFFF" height="52.9074" style="stroke:#181818;stroke-width:0.6999999999999998;" width="7" x="411.25" y="621.317"/><rect fill="#FFFFFF" height="21.9037" style="stroke:#181818;stroke-width:0.6999999999999998;" width="7" x="411.25" y="696.1281"/><rect fill="#FFFFFF" height="440.3779" style="stroke:#181818;stroke-width:0.6999999999999998;" width="7" x="411.25" y="739.9355"/><rect fill="#FFFFFF" height="240.9408" style="stroke:#181818;stroke-width:0.6999999999999998;" width="7" x="714.35" y="186.9465"/><rect fill="#FFFFFF" height="175.2297" style="stroke:#181818;stroke-width:0.6999999999999998;" width="7" x="714.35" y="761.8393"/><rect fill="#FFFFFF" height="21.9037" style="stroke:#181818;stroke-width:0.6999999999999998;" width="7" x="714.35" y="958.9727"/><rect fill="#FFFFFF" height="143.526" style="stroke:#181818;stroke-width:0.6999999999999998;" width="7" x="714.35" y="1014.8838"/><rect fill="#FFFFFF" height="43.8074" style="stroke:#181818;stroke-width:0.6999999999999998;" width="7" x="829.15" y="208.8502"/><rect fill="#FFFFFF" height="87.6148" style="stroke:#181818;stroke-width:0.6999999999999998;" width="7" x="1029" y="274.5613"/><rect fill="#FFFFFF" height="87.6148" style="stroke:#181818;stroke-width:0.6999999999999998;" width="7" x="1029" y="783.743"/><rect fill="#FFFFFF" height="43.8074" style="stroke:#181818;stroke-width:0.6999999999999998;" width="7" x="1154.3" y="296.465"/><rect fill="#FFFFFF" height="43.8074" style="stroke:#181818;stroke-width:0.6999999999999998;" width="7" x="1154.3" y="805.6467"/><rect fill="#FFFFFF" height="21.9037" style="stroke:#181818;stroke-width:0.6999999999999998;" width="7" x="1259.65" y="384.0799"/><rect fill="#FFFFFF" height="21.9037" style="stroke:#181818;stroke-width:0.6999999999999998;" width="7" x="1259.65" y="893.2615"/><rect fill="#FFFFFF" height="21.9037" style="stroke:#181818;stroke-width:0.6999999999999998;" width="7" x="1351" y="1048.8912"/><rect fill="#FFFFFF" height="21.9037" style="stroke:#181818;stroke-width:0.6999999999999998;" width="7" x="1447.6" y="1114.6023"/><polygon fill="#181818" points="402.85,106.7732,409.85,109.5732,402.85,112.3732,405.65,109.5732" style="stroke:#181818;stroke-width:0.6999999999999998;"/><line style="stroke:#181818;stroke-width:0.6999999999999998;" x1="51.45" x2="407.05" y1="109.5732" y2="109.5732"/><text fill="#000000" font-family="sans-serif" font-size="9.1" font-weight="bold" lengthAdjust="spacing" textLength="4.9" x="56.35" y="105.8894">1</text><text fill="#000000" font-family="sans-serif" font-size="9.1" lengthAdjust="spacing" textLength="119.7" x="64.05" y="105.8894">asks to register a job opening</text><polygon fill="#181818" points="639.1,128.677,646.1,131.477,639.1,134.277,641.9,131.477" style="stroke:#181818;stroke-width:0.6999999999999998;"/><line style="stroke:#181818;stroke-width:0.6999999999999998;" x1="418.25" x2="643.3" y1="131.477" y2="131.477"/><text fill="#000000" font-family="sans-serif" font-size="9.1" font-weight="bold" lengthAdjust="spacing" textLength="4.9" x="423.15" y="127.7931">2</text><text fill="#000000" font-family="sans-serif" font-size="9.1" lengthAdjust="spacing" textLength="25.2" x="430.85" y="127.7931">create</text><text fill="#000000" font-family="sans-serif" font-size="9.8" font-style="italic" lengthAdjust="spacing" textLength="58.8" x="686.35" y="148.1484">&#171;application&#187;</text><text fill="#000000" font-family="sans-serif" font-size="9.8" lengthAdjust="spacing" textLength="136.5" x="647.5" y="161.1832">:RegisterJobOpeningController</text><ellipse cx="717.85" cy="126.3732" fill="#E3E3E3" rx="8.4" ry="8.4" style="stroke:#181818;stroke-width:0.3499999999999999;"/><polygon fill="#181818" points="715.05,117.9732,719.25,114.4732,717.85,117.9732,719.25,121.4732,715.05,117.9732" style="stroke:#181818;stroke-width:0.6999999999999998;"/><polygon fill="#181818" points="705.95,184.1465,712.95,186.9465,705.95,189.7465,708.75,186.9465" style="stroke:#181818;stroke-width:0.6999999999999998;"/><line style="stroke:#181818;stroke-width:0.6999999999999998;" x1="418.25" x2="710.15" y1="186.9465" y2="186.9465"/><text fill="#000000" font-family="sans-serif" font-size="9.1" font-weight="bold" lengthAdjust="spacing" textLength="4.9" x="423.15" y="183.2626">3</text><text fill="#000000" font-family="sans-serif" font-size="9.1" lengthAdjust="spacing" textLength="123.2" x="430.85" y="183.2626">filterCustomerBySystemUser()</text><polygon fill="#181818" points="820.75,206.0502,827.75,208.8502,820.75,211.6502,823.55,208.8502" style="stroke:#181818;stroke-width:0.6999999999999998;"/><line style="stroke:#181818;stroke-width:0.6999999999999998;" x1="721.35" x2="824.95" y1="208.8502" y2="208.8502"/><text fill="#000000" font-family="sans-serif" font-size="9.1" font-weight="bold" lengthAdjust="spacing" textLength="4.9" x="726.25" y="205.1663">4</text><text fill="#000000" font-family="sans-serif" font-size="9.1" lengthAdjust="spacing" textLength="86.8" x="733.95" y="205.1663">authorizationService()</text><polygon fill="#181818" points="918.05,227.9539,925.05,230.7539,918.05,233.5539,920.85,230.7539" style="stroke:#181818;stroke-width:0.6999999999999998;"/><line style="stroke:#181818;stroke-width:0.6999999999999998;" x1="836.15" x2="922.25" y1="230.7539" y2="230.7539"/><text fill="#000000" font-family="sans-serif" font-size="9.1" font-weight="bold" lengthAdjust="spacing" textLength="4.9" x="841.05" y="227.07">5</text><text fill="#000000" font-family="sans-serif" font-size="9.1" lengthAdjust="spacing" textLength="30.8" x="848.75" y="227.07">create()</text><polygon fill="#181818" points="729.05,249.8576,722.05,252.6576,729.05,255.4576,726.25,252.6576" style="stroke:#181818;stroke-width:0.6999999999999998;"/><line style="stroke:#181818;stroke-width:0.6999999999999998;stroke-dasharray:2.0,2.0;" x1="724.85" x2="831.95" y1="252.6576" y2="252.6576"/><text fill="#000000" font-family="sans-serif" font-size="9.1" font-weight="bold" lengthAdjust="spacing" textLength="4.9" x="733.25" y="248.9737">6</text><text fill="#000000" font-family="sans-serif" font-size="9.1" lengthAdjust="spacing" textLength="22.4" x="740.95" y="248.9737">authz</text><polygon fill="#181818" points="1020.6,271.7613,1027.6,274.5613,1020.6,277.3613,1023.4,274.5613" style="stroke:#181818;stroke-width:0.6999999999999998;"/><line style="stroke:#181818;stroke-width:0.6999999999999998;" x1="721.35" x2="1024.8" y1="274.5613" y2="274.5613"/><text fill="#000000" font-family="sans-serif" font-size="9.1" font-weight="bold" lengthAdjust="spacing" textLength="4.9" x="726.25" y="270.8774">7</text><text fill="#000000" font-family="sans-serif" font-size="9.1" lengthAdjust="spacing" textLength="52.5" x="733.95" y="270.8774">repositories()</text><polygon fill="#181818" points="1145.9,293.665,1152.9,296.465,1145.9,299.265,1148.7,296.465" style="stroke:#181818;stroke-width:0.6999999999999998;"/><line style="stroke:#181818;stroke-width:0.6999999999999998;" x1="1036" x2="1150.1" y1="296.465" y2="296.465"/><text fill="#000000" font-family="sans-serif" font-size="9.1" font-weight="bold" lengthAdjust="spacing" textLength="4.9" x="1040.9" y="292.7812">8</text><text fill="#000000" font-family="sans-serif" font-size="9.1" lengthAdjust="spacing" textLength="48.3" x="1048.6" y="292.7812">customers()</text><polygon fill="#181818" points="1254.75,315.5687,1261.75,318.3687,1254.75,321.1687,1257.55,318.3687" style="stroke:#181818;stroke-width:0.6999999999999998;"/><line style="stroke:#181818;stroke-width:0.6999999999999998;" x1="1161.3" x2="1258.95" y1="318.3687" y2="318.3687"/><text fill="#000000" font-family="sans-serif" font-size="9.1" font-weight="bold" lengthAdjust="spacing" textLength="4.9" x="1166.2" y="314.6849">9</text><text fill="#000000" font-family="sans-serif" font-size="9.1" lengthAdjust="spacing" textLength="30.8" x="1173.9" y="314.6849">create()</text><polygon fill="#181818" points="1043.7,337.4725,1036.7,340.2725,1043.7,343.0725,1040.9,340.2725" style="stroke:#181818;stroke-width:0.6999999999999998;"/><line style="stroke:#181818;stroke-width:0.6999999999999998;stroke-dasharray:2.0,2.0;" x1="1039.5" x2="1157.1" y1="340.2725" y2="340.2725"/><text fill="#000000" font-family="sans-serif" font-size="9.1" font-weight="bold" lengthAdjust="spacing" textLength="9.8" x="1047.9" y="336.5886">10</text><text fill="#000000" font-family="sans-serif" font-size="9.1" lengthAdjust="spacing" textLength="81.2" x="1060.5" y="336.5886">customerRepository</text><polygon fill="#181818" points="729.05,359.3762,722.05,362.1762,729.05,364.9762,726.25,362.1762" style="stroke:#181818;stroke-width:0.6999999999999998;"/><line style="stroke:#181818;stroke-width:0.6999999999999998;stroke-dasharray:2.0,2.0;" x1="724.85" x2="1031.8" y1="362.1762" y2="362.1762"/><text fill="#000000" font-family="sans-serif" font-size="9.1" font-weight="bold" lengthAdjust="spacing" textLength="9.8" x="733.25" y="358.4923">11</text><text fill="#000000" font-family="sans-serif" font-size="9.1" lengthAdjust="spacing" textLength="81.2" x="745.85" y="358.4923">customerRepository</text><polygon fill="#181818" points="1251.25,381.2799,1258.25,384.0799,1251.25,386.8799,1254.05,384.0799" style="stroke:#181818;stroke-width:0.6999999999999998;"/><line style="stroke:#181818;stroke-width:0.6999999999999998;" x1="721.35" x2="1255.45" y1="384.0799" y2="384.0799"/><text fill="#000000" font-family="sans-serif" font-size="9.1" font-weight="bold" lengthAdjust="spacing" textLength="9.8" x="726.25" y="380.396">12</text><text fill="#000000" font-family="sans-serif" font-size="9.1" lengthAdjust="spacing" textLength="30.1" x="738.85" y="380.396">findAll()</text><polygon fill="#181818" points="729.05,403.1836,722.05,405.9836,729.05,408.7836,726.25,405.9836" style="stroke:#181818;stroke-width:0.6999999999999998;"/><line style="stroke:#181818;stroke-width:0.6999999999999998;stroke-dasharray:2.0,2.0;" x1="724.85" x2="1262.45" y1="405.9836" y2="405.9836"/><text fill="#000000" font-family="sans-serif" font-size="9.1" font-weight="bold" lengthAdjust="spacing" textLength="9.8" x="733.25" y="402.2997">13</text><text fill="#000000" font-family="sans-serif" font-size="9.1" lengthAdjust="spacing" textLength="53.2" x="745.85" y="402.2997">allCustomers</text><polygon fill="#181818" points="425.95,425.0873,418.95,427.8873,425.95,430.6873,423.15,427.8873" style="stroke:#181818;stroke-width:0.6999999999999998;"/><line style="stroke:#181818;stroke-width:0.6999999999999998;stroke-dasharray:2.0,2.0;" x1="421.75" x2="717.15" y1="427.8873" y2="427.8873"/><text fill="#000000" font-family="sans-serif" font-size="9.1" font-weight="bold" lengthAdjust="spacing" textLength="9.8" x="430.15" y="424.2034">14</text><text fill="#000000" font-family="sans-serif" font-size="9.1" lengthAdjust="spacing" textLength="70.7" x="442.75" y="424.2034">filteredCustomers</text><line style="stroke:#181818;stroke-width:0.6999999999999998;" x1="418.25" x2="447.65" y1="453.291" y2="453.291"/><line style="stroke:#181818;stroke-width:0.6999999999999998;" x1="447.65" x2="447.65" y1="453.291" y2="462.391"/><line style="stroke:#181818;stroke-width:0.6999999999999998;" x1="414.75" x2="447.65" y1="462.391" y2="462.391"/><polygon fill="#181818" points="421.75,459.591,414.75,462.391,421.75,465.191,418.95,462.391" style="stroke:#181818;stroke-width:0.6999999999999998;"/><text fill="#000000" font-family="sans-serif" font-size="9.1" font-weight="bold" lengthAdjust="spacing" textLength="9.8" x="423.15" y="449.6071">15</text><text fill="#000000" font-family="sans-serif" font-size="9.1" lengthAdjust="spacing" textLength="90.3" x="435.75" y="449.6071">displayCustomerMenu</text><polygon fill="#181818" points="59.15,477.9947,52.15,480.7947,59.15,483.5947,56.35,480.7947" style="stroke:#181818;stroke-width:0.6999999999999998;"/><line style="stroke:#181818;stroke-width:0.6999999999999998;stroke-dasharray:2.0,2.0;" x1="54.95" x2="414.05" y1="480.7947" y2="480.7947"/><text fill="#000000" font-family="sans-serif" font-size="9.1" font-weight="bold" lengthAdjust="spacing" textLength="9.8" x="63.35" y="477.1108">16</text><text fill="#000000" font-family="sans-serif" font-size="9.1" lengthAdjust="spacing" textLength="177.1" x="75.95" y="477.1108">Shows company list and asks to select one</text><polygon fill="#181818" points="402.85,499.8984,409.85,502.6984,402.85,505.4984,405.65,502.6984" style="stroke:#181818;stroke-width:0.6999999999999998;"/><line style="stroke:#181818;stroke-width:0.6999999999999998;" x1="51.45" x2="407.05" y1="502.6984" y2="502.6984"/><text fill="#000000" font-family="sans-serif" font-size="9.1" font-weight="bold" lengthAdjust="spacing" textLength="9.8" x="56.35" y="499.0146">17</text><text fill="#000000" font-family="sans-serif" font-size="9.1" lengthAdjust="spacing" textLength="117.6" x="68.95" y="499.0146">Selects the wanted company</text><polygon fill="#181818" points="59.15,521.8021,52.15,524.6021,59.15,527.4021,56.35,524.6021" style="stroke:#181818;stroke-width:0.6999999999999998;"/><line style="stroke:#181818;stroke-width:0.6999999999999998;stroke-dasharray:2.0,2.0;" x1="54.95" x2="414.05" y1="524.6021" y2="524.6021"/><text fill="#000000" font-family="sans-serif" font-size="9.1" font-weight="bold" lengthAdjust="spacing" textLength="9.8" x="63.35" y="520.9183">18</text><text fill="#000000" font-family="sans-serif" font-size="9.1" lengthAdjust="spacing" textLength="251.3" x="75.95" y="520.9183">Requests typed data (Number of Vacancies and Job Function)</text><polygon fill="#181818" points="402.85,543.7059,409.85,546.5059,402.85,549.3059,405.65,546.5059" style="stroke:#181818;stroke-width:0.6999999999999998;"/><line style="stroke:#181818;stroke-width:0.6999999999999998;" x1="51.45" x2="407.05" y1="546.5059" y2="546.5059"/><text fill="#000000" font-family="sans-serif" font-size="9.1" font-weight="bold" lengthAdjust="spacing" textLength="9.8" x="56.35" y="542.822">19</text><text fill="#000000" font-family="sans-serif" font-size="9.1" lengthAdjust="spacing" textLength="102.9" x="68.95" y="542.822">Types the requested data</text><line style="stroke:#181818;stroke-width:0.6999999999999998;" x1="418.25" x2="447.65" y1="568.4096" y2="568.4096"/><line style="stroke:#181818;stroke-width:0.6999999999999998;" x1="447.65" x2="447.65" y1="568.4096" y2="577.5096"/><line style="stroke:#181818;stroke-width:0.6999999999999998;" x1="418.95" x2="447.65" y1="577.5096" y2="577.5096"/><polygon fill="#181818" points="425.95,574.7096,418.95,577.5096,425.95,580.3096,423.15,577.5096" style="stroke:#181818;stroke-width:0.6999999999999998;"/><text fill="#000000" font-family="sans-serif" font-size="9.1" font-weight="bold" lengthAdjust="spacing" textLength="9.8" x="423.15" y="564.7257">20</text><text fill="#000000" font-family="sans-serif" font-size="9.1" lengthAdjust="spacing" textLength="52.5" x="435.75" y="564.7257">selectMode()</text><polygon fill="#181818" points="59.15,596.6133,52.15,599.4133,59.15,602.2133,56.35,599.4133" style="stroke:#181818;stroke-width:0.6999999999999998;"/><line style="stroke:#181818;stroke-width:0.6999999999999998;stroke-dasharray:2.0,2.0;" x1="54.95" x2="414.05" y1="599.4133" y2="599.4133"/><text fill="#000000" font-family="sans-serif" font-size="9.1" font-weight="bold" lengthAdjust="spacing" textLength="9.8" x="63.35" y="595.7294">21</text><text fill="#000000" font-family="sans-serif" font-size="9.1" lengthAdjust="spacing" textLength="267.4" x="75.95" y="595.7294">Shows Mode list (remote, hybrid, onsite...) and asks to select one</text><polygon fill="#181818" points="402.85,618.517,409.85,621.317,402.85,624.117,405.65,621.317" style="stroke:#181818;stroke-width:0.6999999999999998;"/><line style="stroke:#181818;stroke-width:0.6999999999999998;" x1="51.45" x2="407.05" y1="621.317" y2="621.317"/><text fill="#000000" font-family="sans-serif" font-size="9.1" font-weight="bold" lengthAdjust="spacing" textLength="9.8" x="56.35" y="617.6331">22</text><text fill="#000000" font-family="sans-serif" font-size="9.1" lengthAdjust="spacing" textLength="102.9" x="68.95" y="617.6331">Selects the wanted Mode</text><line style="stroke:#181818;stroke-width:0.6999999999999998;" x1="418.25" x2="447.65" y1="643.2207" y2="643.2207"/><line style="stroke:#181818;stroke-width:0.6999999999999998;" x1="447.65" x2="447.65" y1="643.2207" y2="652.3207"/><line style="stroke:#181818;stroke-width:0.6999999999999998;" x1="418.95" x2="447.65" y1="652.3207" y2="652.3207"/><polygon fill="#181818" points="425.95,649.5207,418.95,652.3207,425.95,655.1207,423.15,652.3207" style="stroke:#181818;stroke-width:0.6999999999999998;"/><text fill="#000000" font-family="sans-serif" font-size="9.1" font-weight="bold" lengthAdjust="spacing" textLength="9.8" x="423.15" y="639.5368">23</text><text fill="#000000" font-family="sans-serif" font-size="9.1" lengthAdjust="spacing" textLength="84" x="435.75" y="639.5368">selectContractType()</text><polygon fill="#181818" points="59.15,671.4244,52.15,674.2244,59.15,677.0244,56.35,674.2244" style="stroke:#181818;stroke-width:0.6999999999999998;"/><line style="stroke:#181818;stroke-width:0.6999999999999998;stroke-dasharray:2.0,2.0;" x1="54.95" x2="414.05" y1="674.2244" y2="674.2244"/><text fill="#000000" font-family="sans-serif" font-size="9.1" font-weight="bold" lengthAdjust="spacing" textLength="9.8" x="63.35" y="670.5405">24</text><text fill="#000000" font-family="sans-serif" font-size="9.1" lengthAdjust="spacing" textLength="294" x="75.95" y="670.5405">Shows Contract Types list (full-time, part-time,...) and asks to select one</text><polygon fill="#181818" points="402.85,693.3281,409.85,696.1281,402.85,698.9281,405.65,696.1281" style="stroke:#181818;stroke-width:0.6999999999999998;"/><line style="stroke:#181818;stroke-width:0.6999999999999998;" x1="51.45" x2="407.05" y1="696.1281" y2="696.1281"/><text fill="#000000" font-family="sans-serif" font-size="9.1" font-weight="bold" lengthAdjust="spacing" textLength="9.8" x="56.35" y="692.4442">25</text><text fill="#000000" font-family="sans-serif" font-size="9.1" lengthAdjust="spacing" textLength="134.4" x="68.95" y="692.4442">Selects the wanted ContractType</text><polygon fill="#181818" points="59.15,715.2318,52.15,718.0318,59.15,720.8318,56.35,718.0318" style="stroke:#181818;stroke-width:0.6999999999999998;"/><line style="stroke:#181818;stroke-width:0.6999999999999998;stroke-dasharray:2.0,2.0;" x1="54.95" x2="414.05" y1="718.0318" y2="718.0318"/><text fill="#000000" font-family="sans-serif" font-size="9.1" font-weight="bold" lengthAdjust="spacing" textLength="9.8" x="63.35" y="714.3479">26</text><text fill="#000000" font-family="sans-serif" font-size="9.1" lengthAdjust="spacing" textLength="330.4" x="75.95" y="714.3479">Requests typed data( Address (street, city, state, country, zip-code), Description)</text><polygon fill="#181818" points="402.85,737.1355,409.85,739.9355,402.85,742.7355,405.65,739.9355" style="stroke:#181818;stroke-width:0.6999999999999998;"/><line style="stroke:#181818;stroke-width:0.6999999999999998;" x1="51.45" x2="407.05" y1="739.9355" y2="739.9355"/><text fill="#000000" font-family="sans-serif" font-size="9.1" font-weight="bold" lengthAdjust="spacing" textLength="9.8" x="56.35" y="736.2517">27</text><text fill="#000000" font-family="sans-serif" font-size="9.1" lengthAdjust="spacing" textLength="87.5" x="68.95" y="736.2517">Types requested data</text><polygon fill="#181818" points="705.95,759.0393,712.95,761.8393,705.95,764.6393,708.75,761.8393" style="stroke:#181818;stroke-width:0.6999999999999998;"/><line style="stroke:#181818;stroke-width:0.6999999999999998;" x1="418.25" x2="710.15" y1="761.8393" y2="761.8393"/><text fill="#000000" font-family="sans-serif" font-size="9.1" font-weight="bold" lengthAdjust="spacing" textLength="9.8" x="423.15" y="758.1554">28</text><text fill="#000000" font-family="sans-serif" font-size="9.1" lengthAdjust="spacing" textLength="90.3" x="435.75" y="758.1554">getLastJobReference()</text><polygon fill="#181818" points="1020.6,780.943,1027.6,783.743,1020.6,786.543,1023.4,783.743" style="stroke:#181818;stroke-width:0.6999999999999998;"/><line style="stroke:#181818;stroke-width:0.6999999999999998;" x1="721.35" x2="1024.8" y1="783.743" y2="783.743"/><text fill="#000000" font-family="sans-serif" font-size="9.1" font-weight="bold" lengthAdjust="spacing" textLength="9.8" x="726.25" y="780.0591">29</text><text fill="#000000" font-family="sans-serif" font-size="9.1" lengthAdjust="spacing" textLength="52.5" x="738.85" y="780.0591">repositories()</text><polygon fill="#181818" points="1145.9,802.8467,1152.9,805.6467,1145.9,808.4467,1148.7,805.6467" style="stroke:#181818;stroke-width:0.6999999999999998;"/><line style="stroke:#181818;stroke-width:0.6999999999999998;" x1="1036" x2="1150.1" y1="805.6467" y2="805.6467"/><text fill="#000000" font-family="sans-serif" font-size="9.1" font-weight="bold" lengthAdjust="spacing" textLength="9.8" x="1040.9" y="801.9628">30</text><text fill="#000000" font-family="sans-serif" font-size="9.1" lengthAdjust="spacing" textLength="56" x="1053.5" y="801.9628">jobOpenings()</text><polygon fill="#181818" points="1254.75,824.7504,1261.75,827.5504,1254.75,830.3504,1257.55,827.5504" style="stroke:#181818;stroke-width:0.6999999999999998;"/><line style="stroke:#181818;stroke-width:0.6999999999999998;" x1="1161.3" x2="1258.95" y1="827.5504" y2="827.5504"/><text fill="#000000" font-family="sans-serif" font-size="9.1" font-weight="bold" lengthAdjust="spacing" textLength="9.8" x="1166.2" y="823.8665">31</text><text fill="#000000" font-family="sans-serif" font-size="9.1" lengthAdjust="spacing" textLength="30.8" x="1178.8" y="823.8665">create()</text><polygon fill="#181818" points="1043.7,846.6541,1036.7,849.4541,1043.7,852.2541,1040.9,849.4541" style="stroke:#181818;stroke-width:0.6999999999999998;"/><line style="stroke:#181818;stroke-width:0.6999999999999998;stroke-dasharray:2.0,2.0;" x1="1039.5" x2="1157.1" y1="849.4541" y2="849.4541"/><text fill="#000000" font-family="sans-serif" font-size="9.1" font-weight="bold" lengthAdjust="spacing" textLength="9.8" x="1047.9" y="845.7702">32</text><text fill="#000000" font-family="sans-serif" font-size="9.1" lengthAdjust="spacing" textLength="88.9" x="1060.5" y="845.7702">jobOpeningRepository</text><polygon fill="#181818" points="729.05,868.5578,722.05,871.3578,729.05,874.1578,726.25,871.3578" style="stroke:#181818;stroke-width:0.6999999999999998;"/><line style="stroke:#181818;stroke-width:0.6999999999999998;stroke-dasharray:2.0,2.0;" x1="724.85" x2="1031.8" y1="871.3578" y2="871.3578"/><text fill="#000000" font-family="sans-serif" font-size="9.1" font-weight="bold" lengthAdjust="spacing" textLength="9.8" x="733.25" y="867.6739">33</text><text fill="#000000" font-family="sans-serif" font-size="9.1" lengthAdjust="spacing" textLength="88.9" x="745.85" y="867.6739">jobOpeningRepository</text><polygon fill="#181818" points="1251.25,890.4615,1258.25,893.2615,1251.25,896.0615,1254.05,893.2615" style="stroke:#181818;stroke-width:0.6999999999999998;"/><line style="stroke:#181818;stroke-width:0.6999999999999998;" x1="721.35" x2="1255.45" y1="893.2615" y2="893.2615"/><text fill="#000000" font-family="sans-serif" font-size="9.1" font-weight="bold" lengthAdjust="spacing" textLength="9.8" x="726.25" y="889.5776">34</text><text fill="#000000" font-family="sans-serif" font-size="9.1" lengthAdjust="spacing" textLength="30.1" x="738.85" y="889.5776">findAll()</text><polygon fill="#181818" points="729.05,912.3652,722.05,915.1652,729.05,917.9652,726.25,915.1652" style="stroke:#181818;stroke-width:0.6999999999999998;"/><line style="stroke:#181818;stroke-width:0.6999999999999998;stroke-dasharray:2.0,2.0;" x1="724.85" x2="1262.45" y1="915.1652" y2="915.1652"/><text fill="#000000" font-family="sans-serif" font-size="9.1" font-weight="bold" lengthAdjust="spacing" textLength="9.8" x="733.25" y="911.4813">35</text><text fill="#000000" font-family="sans-serif" font-size="9.1" lengthAdjust="spacing" textLength="50.4" x="745.85" y="911.4813">jobOpenings</text><polygon fill="#181818" points="425.95,934.2689,418.95,937.0689,425.95,939.8689,423.15,937.0689" style="stroke:#181818;stroke-width:0.6999999999999998;"/><line style="stroke:#181818;stroke-width:0.6999999999999998;stroke-dasharray:2.0,2.0;" x1="421.75" x2="717.15" y1="937.0689" y2="937.0689"/><text fill="#000000" font-family="sans-serif" font-size="9.1" font-weight="bold" lengthAdjust="spacing" textLength="9.8" x="430.15" y="933.3851">36</text><text fill="#000000" font-family="sans-serif" font-size="9.1" lengthAdjust="spacing" textLength="102.9" x="442.75" y="933.3851">lastJobOpeningReference</text><polygon fill="#181818" points="705.95,956.1727,712.95,958.9727,705.95,961.7727,708.75,958.9727" style="stroke:#181818;stroke-width:0.6999999999999998;"/><line style="stroke:#181818;stroke-width:0.6999999999999998;" x1="418.25" x2="710.15" y1="958.9727" y2="958.9727"/><text fill="#000000" font-family="sans-serif" font-size="9.1" font-weight="bold" lengthAdjust="spacing" textLength="9.8" x="423.15" y="955.2888">37</text><text fill="#000000" font-family="sans-serif" font-size="9.1" lengthAdjust="spacing" textLength="217" x="435.75" y="955.2888">generateNextJobReference(lastJobOpeningReference)</text><polygon fill="#181818" points="425.95,978.0764,418.95,980.8764,425.95,983.6764,423.15,980.8764" style="stroke:#181818;stroke-width:0.6999999999999998;"/><line style="stroke:#181818;stroke-width:0.6999999999999998;stroke-dasharray:2.0,2.0;" x1="421.75" x2="717.15" y1="980.8764" y2="980.8764"/><text fill="#000000" font-family="sans-serif" font-size="9.1" font-weight="bold" lengthAdjust="spacing" textLength="9.8" x="430.15" y="977.1925">38</text><text fill="#000000" font-family="sans-serif" font-size="9.1" lengthAdjust="spacing" textLength="52.5" x="442.75" y="977.1925">jobReference</text><polygon fill="#181818" points="705.95,1012.0838,712.95,1014.8838,705.95,1017.6838,708.75,1014.8838" style="stroke:#181818;stroke-width:0.6999999999999998;"/><line style="stroke:#181818;stroke-width:0.6999999999999998;" x1="418.25" x2="710.15" y1="1014.8838" y2="1014.8838"/><text fill="#000000" font-family="sans-serif" font-size="9.1" font-weight="bold" lengthAdjust="spacing" textLength="9.8" x="423.15" y="1005.148">39</text><text fill="#000000" font-family="sans-serif" font-size="9.1" lengthAdjust="spacing" textLength="245.7" x="435.75" y="999.0962">registerJobOpening(numberOfVacancies, jobFunction, mode,</text><text fill="#000000" font-family="sans-serif" font-size="9.1" lengthAdjust="spacing" textLength="267.4" x="438.55" y="1011.1999">contractType, jobReference, address, companyName, description)</text><polygon fill="#181818" points="1342.6,1046.0912,1349.6,1048.8912,1342.6,1051.6912,1345.4,1048.8912" style="stroke:#181818;stroke-width:0.6999999999999998;"/><line style="stroke:#181818;stroke-width:0.6999999999999998;" x1="721.35" x2="1346.8" y1="1048.8912" y2="1048.8912"/><text fill="#000000" font-family="sans-serif" font-size="9.1" font-weight="bold" lengthAdjust="spacing" textLength="9.8" x="726.25" y="1039.1555">40</text><text fill="#000000" font-family="sans-serif" font-size="9.1" lengthAdjust="spacing" textLength="208.6" x="738.85" y="1033.1036">new JobOpening(JobFunction, ContractType, Mode,</text><text fill="#000000" font-family="sans-serif" font-size="9.1" lengthAdjust="spacing" textLength="220.5" x="738.85" y="1045.2073">Address, Company, NumberOfVacancies, Description)</text><polygon fill="#181818" points="729.05,1067.9949,722.05,1070.7949,729.05,1073.5949,726.25,1070.7949" style="stroke:#181818;stroke-width:0.6999999999999998;"/><line style="stroke:#181818;stroke-width:0.6999999999999998;stroke-dasharray:2.0,2.0;" x1="724.85" x2="1353.8" y1="1070.7949" y2="1070.7949"/><text fill="#000000" font-family="sans-serif" font-size="9.1" font-weight="bold" lengthAdjust="spacing" textLength="9.8" x="733.25" y="1067.111">41</text><text fill="#000000" font-family="sans-serif" font-size="9.1" lengthAdjust="spacing" textLength="45.5" x="745.85" y="1067.111">jobOpening</text><polygon fill="#181818" points="1346.1,1089.8986,1353.1,1092.6986,1346.1,1095.4986,1348.9,1092.6986" style="stroke:#181818;stroke-width:0.6999999999999998;"/><line style="stroke:#181818;stroke-width:0.6999999999999998;" x1="721.35" x2="1350.3" y1="1092.6986" y2="1092.6986"/><text fill="#000000" font-family="sans-serif" font-size="9.1" font-weight="bold" lengthAdjust="spacing" textLength="9.8" x="726.25" y="1089.0147">42</text><text fill="#000000" font-family="sans-serif" font-size="9.1" lengthAdjust="spacing" textLength="77.7" x="738.85" y="1089.0147">setId(jobReference)</text><polygon fill="#181818" points="1439.2,1111.8023,1446.2,1114.6023,1439.2,1117.4023,1442,1114.6023" style="stroke:#181818;stroke-width:0.6999999999999998;"/><line style="stroke:#181818;stroke-width:0.6999999999999998;" x1="721.35" x2="1443.4" y1="1114.6023" y2="1114.6023"/><text fill="#000000" font-family="sans-serif" font-size="9.1" font-weight="bold" lengthAdjust="spacing" textLength="9.8" x="726.25" y="1110.9185">43</text><text fill="#000000" font-family="sans-serif" font-size="9.1" lengthAdjust="spacing" textLength="69.3" x="738.85" y="1110.9185">save(jobOpening)</text><polygon fill="#181818" points="729.05,1133.7061,722.05,1136.5061,729.05,1139.3061,726.25,1136.5061" style="stroke:#181818;stroke-width:0.6999999999999998;"/><line style="stroke:#181818;stroke-width:0.6999999999999998;stroke-dasharray:2.0,2.0;" x1="724.85" x2="1450.4" y1="1136.5061" y2="1136.5061"/><text fill="#000000" font-family="sans-serif" font-size="9.1" font-weight="bold" lengthAdjust="spacing" textLength="9.8" x="733.25" y="1132.8222">44</text><text fill="#000000" font-family="sans-serif" font-size="9.1" lengthAdjust="spacing" textLength="45.5" x="745.85" y="1132.8222">jobOpening</text><polygon fill="#181818" points="425.95,1155.6098,418.95,1158.4098,425.95,1161.2098,423.15,1158.4098" style="stroke:#181818;stroke-width:0.6999999999999998;"/><line style="stroke:#181818;stroke-width:0.6999999999999998;stroke-dasharray:2.0,2.0;" x1="421.75" x2="717.15" y1="1158.4098" y2="1158.4098"/><text fill="#000000" font-family="sans-serif" font-size="9.1" font-weight="bold" lengthAdjust="spacing" textLength="9.8" x="430.15" y="1154.7259">45</text><text fill="#000000" font-family="sans-serif" font-size="9.1" lengthAdjust="spacing" textLength="45.5" x="442.75" y="1154.7259">jobOpening</text><polygon fill="#181818" points="55.65,1177.5135,48.65,1180.3135,55.65,1183.1135,52.85,1180.3135" style="stroke:#181818;stroke-width:0.6999999999999998;"/><line style="stroke:#181818;stroke-width:0.6999999999999998;stroke-dasharray:2.0,2.0;" x1="51.45" x2="414.05" y1="1180.3135" y2="1180.3135"/><text fill="#000000" font-family="sans-serif" font-size="9.1" font-weight="bold" lengthAdjust="spacing" textLength="9.8" x="59.85" y="1176.6296">46</text><text fill="#000000" font-family="sans-serif" font-size="9.1" lengthAdjust="spacing" textLength="270.2" x="72.45" y="1176.6296">display operation success and the data of the Job Opening created</text><!--SRC=[jLTDRziu4BtpLmnoMQUGW-uUZSA0Lq6m2UeaaEEUUg6biSr49hKabTJvzJiKBOcoP7UBjZubvhmtRuRpGPiN8Gkk-GvsIgfqgzKEmUeIcMbE2fw-y0qkx3v7q9XQBZTvQ62sF5DlGcvWpNE3ZF7IAbdkLgWPiy8Ix6Av-FFZnxzW30bkXB6eWSEpMe4gK1Bo0XRuRuaoHRWMV4Eix8-jo13MIjcL-iPuQfM6YrWPM-u8FUUIDEaBu0RYEICXLgIYuDB2nQJsSQTM3vv_ULjPBc_XqwT2eq5fkHLAJgSiLT9gbG_2Od-MruwUaiz4m8iY5scDxxYUbNRxxddqliBC4ZWFcJYCqkAzEbsWVXKfUkZowP_5UV0ZQkCqK-ASLlncA-HZxE9ipte-4ooK4PJI_KsLMQyrkVaEB2wDfGhHBTpd9I6SRhxhmTg4LkPt3sIUgHqNBfwJjaTExXvwNaYwUEKMNGKme4yyX_7KtVA442y6hAA27QetRzxWbxV-2_SXD76ug_xmWNXIZMJH7eS6TBmMEP7NUVbxlzYJiztIe1vT1lh8E61m_uwdL1aaS-3o2TdQjY9dIVZrB266ga1gZGGBPPxw470yFQXttj__1oR3K0KxykF3UOmdpUK8DDqWkf4ynhspntWyfVAZM0wfD8FXD1J9JUyikQ6uaicPP903YjrrH-kdhJ9s9ke1TwIuoUEFaL7ulMEVGvA_5ZARvVcvzCN903wfGgllDS_haZJdb0mndJYkcCTrT_conwprmaASAtVV9fLr9aoHytrjF4TPiY5t3jPjH1VId1WMM_Lc85KxcX9xoAcZWSkiQNA3EUqbK1A7UAcxcoZQ0R6eC0JV8hpHxC6ivcUzZBlvCAWhSLlBE9PzGGGPjnn6zzNg0xM6BppbCgLkgDJIQ8ERKgQkrIyzNrSb2-Gz4Q4NfxsF0pqB0SlRyTHP-_ZdAdDrty-RE_196sdSAOiHRFShBRA8KaRrYbTNLvUd4jgLU3w1pj6HmDhSCrOBbGnST4TIuI2sDZbamCjUbta-jc97ojswy7_-AjMXADQzy-_SzGXcMKRF2GCZMlY8De9Ks7q4XfuNf3LL9L7J_- -Y6AUKdCi8hj6aMXI-24xAzC6VkNh6EdjeW_OpDvPABC4rTQQiraYtjNxfd7vkzdGrgN_Ve7uUU13ynAZ-KRhVFwo3JFxah3uUAVHaOfsvdViIQH9mg9JUx3wkBOcQpkxfUTafi1DqntNNrV0SCB1Jqx_ZN_VUvIF_w-9XtGpOoAMn7guH_Ph9CFeg8GrQkp9fN4V0VUj6zTY_vswyP65xTc-o4jZkmgbxo4v0uXi4okv26N77lPkE4NoLizfnx1r7SDyFv_gaZhi7huAy3rPHlme6L1kqjzaeJ8ZhmzR4lKqDVyLHonjSgoiiveo6-eeTLU1mZtQB0axWEm_dS1WVdXJkFQ-hjpEOCatT97OBmGttQXVJ3dP_kyrxO3yybhF1_JlqPQXcplu3]--></g></svg>