<?xml version="1.0" encoding="us-ascii" standalone="no"?><svg xmlns="http://www.w3.org/2000/svg" xmlns:xlink="http://www.w3.org/1999/xlink" contentStyleType="text/css" height="1297.6px" preserveAspectRatio="none" style="width:1555px;height:1297px;background:#FFFFFF;" version="1.1" viewBox="0 0 1555 1297" width="1555.2px" zoomAndPan="magnify"><defs/><g><text fill="#000000" font-family="sans-serif" font-size="11.2" font-weight="bold" lengthAdjust="spacing" textLength="266.4" x="645.2" y="24.0859">"US1003 - List Job Opening" Sequence Diagram</text><rect fill="#FFFFFF" height="1110.7484" style="stroke:#181818;stroke-width:0.8000000000000002;" width="8" x="50.8" y="106.5938"/><rect fill="#FFFFFF" height="102.2594" style="stroke:#181818;stroke-width:0.8000000000000002;" width="8" x="432.4" y="125.2266"/><rect fill="#FFFFFF" height="964.8234" style="stroke:#181818;stroke-width:0.8000000000000002;" width="8" x="432.4" y="252.5188"/><rect fill="#FFFFFF" height="275.3609" style="stroke:#181818;stroke-width:0.8000000000000002;" width="8" x="718" y="298.5844"/><rect fill="#FFFFFF" height="200.2625" style="stroke:#181818;stroke-width:0.8000000000000002;" width="8" x="718" y="612.2828"/><rect fill="#FFFFFF" height="75.0984" style="stroke:#181818;stroke-width:0.8000000000000002;" width="8" x="718" y="873.0109"/><rect fill="#FFFFFF" height="200.2625" style="stroke:#181818;stroke-width:0.8000000000000002;" width="8" x="718" y="986.4469"/><rect fill="#FFFFFF" height="50.0656" style="stroke:#181818;stroke-width:0.8000000000000002;" width="8" x="849.2" y="323.6172"/><rect fill="#FFFFFF" height="100.1313" style="stroke:#181818;stroke-width:0.8000000000000002;" width="8" x="1077.6" y="398.7156"/><rect fill="#FFFFFF" height="100.1313" style="stroke:#181818;stroke-width:0.8000000000000002;" width="8" x="1077.6" y="637.3156"/><rect fill="#FFFFFF" height="100.1313" style="stroke:#181818;stroke-width:0.8000000000000002;" width="8" x="1077.6" y="1011.4797"/><rect fill="#FFFFFF" height="50.0656" style="stroke:#181818;stroke-width:0.8000000000000002;" width="8" x="1220.8" y="423.7484"/><rect fill="#FFFFFF" height="50.0656" style="stroke:#181818;stroke-width:0.8000000000000002;" width="8" x="1220.8" y="662.3484"/><rect fill="#FFFFFF" height="50.0656" style="stroke:#181818;stroke-width:0.8000000000000002;" width="8" x="1220.8" y="1036.5125"/><rect fill="#FFFFFF" height="25.0328" style="stroke:#181818;stroke-width:0.8000000000000002;" width="8" x="1347.2" y="523.8797"/><rect fill="#FFFFFF" height="25.0328" style="stroke:#181818;stroke-width:0.8000000000000002;" width="8" x="1347.2" y="762.4797"/><rect fill="#FFFFFF" height="25.0328" style="stroke:#181818;stroke-width:0.8000000000000002;" width="8" x="1347.2" y="898.0438"/><rect fill="#FFFFFF" height="25.0328" style="stroke:#181818;stroke-width:0.8000000000000002;" width="8" x="1347.2" y="1136.6438"/><rect fill="none" height="928.5906" style="stroke:#000000;stroke-width:1.2000000000000002;" width="1172.4" x="377.2" y="264.5188"/><line style="stroke:#181818;stroke-width:0.4000000000000001;stroke-dasharray:5.0,5.0;" x1="54.4" x2="54.4" y1="98.5938" y2="1231.7422"/><line style="stroke:#181818;stroke-width:0.4000000000000001;stroke-dasharray:5.0,5.0;" x1="436.4" x2="436.4" y1="98.5938" y2="1231.7422"/><line style="stroke:#181818;stroke-width:0.4000000000000001;stroke-dasharray:5.0,5.0;" x1="722" x2="722" y1="171.3234" y2="1231.7422"/><line style="stroke:#181818;stroke-width:0.4000000000000001;stroke-dasharray:5.0,5.0;" x1="852.8" x2="852.8" y1="98.5938" y2="1231.7422"/><line style="stroke:#181818;stroke-width:0.4000000000000001;stroke-dasharray:5.0,5.0;" x1="960" x2="960" y1="98.5938" y2="1231.7422"/><line style="stroke:#181818;stroke-width:0.4000000000000001;stroke-dasharray:5.0,5.0;" x1="1081.6" x2="1081.6" y1="98.5938" y2="1231.7422"/><line style="stroke:#181818;stroke-width:0.4000000000000001;stroke-dasharray:5.0,5.0;" x1="1224.8" x2="1224.8" y1="98.5938" y2="1231.7422"/><line style="stroke:#181818;stroke-width:0.4000000000000001;stroke-dasharray:5.0,5.0;" x1="1351.2" x2="1351.2" y1="98.5938" y2="1231.7422"/><line style="stroke:#181818;stroke-width:0.4000000000000001;stroke-dasharray:5.0,5.0;" x1="1482.4" x2="1482.4" y1="98.5938" y2="1231.7422"/><text fill="#000000" font-family="sans-serif" font-size="11.2" lengthAdjust="spacing" textLength="96.8" x="4" y="95.7828">Costumer Manager</text><ellipse cx="54.8" cy="42.4969" fill="#E3E3E3" rx="6.4" ry="6.4" style="stroke:#181818;stroke-width:0.4000000000000001;"/><path d="M54.8,48.8969 L54.8,70.4969 M44.4,55.2969 L65.2,55.2969 M54.8,70.4969 L44.4,82.4969 M54.8,70.4969 L65.2,82.4969 " fill="none" style="stroke:#181818;stroke-width:0.4000000000000001;"/><text fill="#000000" font-family="sans-serif" font-size="11.2" lengthAdjust="spacing" textLength="96.8" x="4" y="1243.0281">Costumer Manager</text><ellipse cx="54.8" cy="1252.6391" fill="#E3E3E3" rx="6.4" ry="6.4" style="stroke:#181818;stroke-width:0.4000000000000001;"/><path d="M54.8,1259.0391 L54.8,1280.6391 M44.4,1265.4391 L65.2,1265.4391 M54.8,1280.6391 L44.4,1292.6391 M54.8,1280.6391 L65.2,1292.6391 " fill="none" style="stroke:#181818;stroke-width:0.4000000000000001;"/><rect fill="#E3E3E3" height="40.9938" rx="2" ry="2" style="stroke:#181818;stroke-width:0.4000000000000001;" width="102.4" x="385.2" y="56.8"/><text fill="#000000" font-family="sans-serif" font-size="11.2" font-style="italic" lengthAdjust="spacing" textLength="76" x="398.4" y="74.4859">&#171;presentation&#187;</text><text fill="#000000" font-family="sans-serif" font-size="11.2" lengthAdjust="spacing" textLength="91.2" x="390.8" y="89.3828">:ListJobOpeningUI</text><rect fill="#E3E3E3" height="40.9938" rx="2" ry="2" style="stroke:#181818;stroke-width:0.4000000000000001;" width="102.4" x="385.2" y="1230.9422"/><text fill="#000000" font-family="sans-serif" font-size="11.2" font-style="italic" lengthAdjust="spacing" textLength="76" x="398.4" y="1248.6281">&#171;presentation&#187;</text><text fill="#000000" font-family="sans-serif" font-size="11.2" lengthAdjust="spacing" textLength="91.2" x="390.8" y="1263.525">:ListJobOpeningUI</text><text fill="#000000" font-family="sans-serif" font-size="11.2" font-style="italic" lengthAdjust="spacing" textLength="67.2" x="686" y="1243.0281">&#171;application&#187;</text><text fill="#000000" font-family="sans-serif" font-size="11.2" lengthAdjust="spacing" textLength="131.2" x="654" y="1257.925">:ListJobOpeningController</text><ellipse cx="722" cy="1273.5359" fill="#E3E3E3" rx="9.6" ry="9.6" style="stroke:#181818;stroke-width:0.4000000000000001;"/><polygon fill="#181818" points="718.8,1263.9359,723.6,1259.9359,722,1263.9359,723.6,1267.9359,718.8,1263.9359" style="stroke:#181818;stroke-width:0.8000000000000002;"/><rect fill="#E3E3E3" height="40.9938" rx="2" ry="2" style="stroke:#181818;stroke-width:0.4000000000000001;" width="80.8" x="812.8" y="56.8"/><text fill="#000000" font-family="sans-serif" font-size="11.2" font-style="italic" lengthAdjust="spacing" textLength="67.2" x="819.6" y="74.4859">&#171;application&#187;</text><text fill="#000000" font-family="sans-serif" font-size="11.2" lengthAdjust="spacing" textLength="69.6" x="818.4" y="89.3828">AuthzRegistry</text><rect fill="#E3E3E3" height="40.9938" rx="2" ry="2" style="stroke:#181818;stroke-width:0.4000000000000001;" width="80.8" x="812.8" y="1230.9422"/><text fill="#000000" font-family="sans-serif" font-size="11.2" font-style="italic" lengthAdjust="spacing" textLength="67.2" x="819.6" y="1248.6281">&#171;application&#187;</text><text fill="#000000" font-family="sans-serif" font-size="11.2" lengthAdjust="spacing" textLength="69.6" x="818.4" y="1263.525">AuthzRegistry</text><rect fill="#E3E3E3" height="40.9938" rx="2" ry="2" style="stroke:#181818;stroke-width:0.4000000000000001;" width="117.6" x="901.6" y="56.8"/><text fill="#000000" font-family="sans-serif" font-size="11.2" font-style="italic" lengthAdjust="spacing" textLength="67.2" x="926.8" y="74.4859">&#171;application&#187;</text><text fill="#000000" font-family="sans-serif" font-size="11.2" lengthAdjust="spacing" textLength="106.4" x="907.2" y="89.3828">:AuthorizationService</text><rect fill="#E3E3E3" height="40.9938" rx="2" ry="2" style="stroke:#181818;stroke-width:0.4000000000000001;" width="117.6" x="901.6" y="1230.9422"/><text fill="#000000" font-family="sans-serif" font-size="11.2" font-style="italic" lengthAdjust="spacing" textLength="67.2" x="926.8" y="1248.6281">&#171;application&#187;</text><text fill="#000000" font-family="sans-serif" font-size="11.2" lengthAdjust="spacing" textLength="106.4" x="907.2" y="1263.525">:AuthorizationService</text><rect fill="#E3E3E3" height="40.9938" rx="2" ry="2" style="stroke:#181818;stroke-width:0.4000000000000001;" width="108.8" x="1027.2" y="56.8"/><text fill="#000000" font-family="sans-serif" font-size="11.2" font-style="italic" lengthAdjust="spacing" textLength="71.2" x="1046" y="74.4859">&#171;persistence&#187;</text><text fill="#000000" font-family="sans-serif" font-size="11.2" lengthAdjust="spacing" textLength="97.6" x="1032.8" y="89.3828">PersistenceContext</text><rect fill="#E3E3E3" height="40.9938" rx="2" ry="2" style="stroke:#181818;stroke-width:0.4000000000000001;" width="108.8" x="1027.2" y="1230.9422"/><text fill="#000000" font-family="sans-serif" font-size="11.2" font-style="italic" lengthAdjust="spacing" textLength="71.2" x="1046" y="1248.6281">&#171;persistence&#187;</text><text fill="#000000" font-family="sans-serif" font-size="11.2" lengthAdjust="spacing" textLength="97.6" x="1032.8" y="1263.525">PersistenceContext</text><rect fill="#E3E3E3" height="40.9938" rx="2" ry="2" style="stroke:#181818;stroke-width:0.4000000000000001;" width="107.2" x="1171.2" y="56.8"/><text fill="#000000" font-family="sans-serif" font-size="11.2" font-style="italic" lengthAdjust="spacing" textLength="71.2" x="1189.2" y="74.4859">&#171;persistence&#187;</text><text fill="#000000" font-family="sans-serif" font-size="11.2" lengthAdjust="spacing" textLength="96" x="1176.8" y="89.3828">:RepositoryFactory</text><rect fill="#E3E3E3" height="40.9938" rx="2" ry="2" style="stroke:#181818;stroke-width:0.4000000000000001;" width="107.2" x="1171.2" y="1230.9422"/><text fill="#000000" font-family="sans-serif" font-size="11.2" font-style="italic" lengthAdjust="spacing" textLength="71.2" x="1189.2" y="1248.6281">&#171;persistence&#187;</text><text fill="#000000" font-family="sans-serif" font-size="11.2" lengthAdjust="spacing" textLength="96" x="1176.8" y="1263.525">:RepositoryFactory</text><rect fill="#E3E3E3" height="40.9938" rx="2" ry="2" style="stroke:#181818;stroke-width:0.4000000000000001;" width="129.6" x="1286.4" y="56.8"/><text fill="#000000" font-family="sans-serif" font-size="11.2" font-style="italic" lengthAdjust="spacing" textLength="63.2" x="1319.6" y="74.4859">&#171;repository&#187;</text><text fill="#000000" font-family="sans-serif" font-size="11.2" lengthAdjust="spacing" textLength="118.4" x="1292" y="89.3828">:JobOpeningRepository</text><rect fill="#E3E3E3" height="40.9938" rx="2" ry="2" style="stroke:#181818;stroke-width:0.4000000000000001;" width="129.6" x="1286.4" y="1230.9422"/><text fill="#000000" font-family="sans-serif" font-size="11.2" font-style="italic" lengthAdjust="spacing" textLength="63.2" x="1319.6" y="1248.6281">&#171;repository&#187;</text><text fill="#000000" font-family="sans-serif" font-size="11.2" lengthAdjust="spacing" textLength="118.4" x="1292" y="1263.525">:JobOpeningRepository</text><rect fill="#E3E3E3" height="40.9938" rx="2" ry="2" style="stroke:#181818;stroke-width:0.4000000000000001;" width="117.6" x="1424" y="56.8"/><text fill="#000000" font-family="sans-serif" font-size="11.2" font-style="italic" lengthAdjust="spacing" textLength="63.2" x="1451.2" y="74.4859">&#171;repository&#187;</text><text fill="#000000" font-family="sans-serif" font-size="11.2" lengthAdjust="spacing" textLength="106.4" x="1429.6" y="89.3828">:CustomerRepository</text><rect fill="#E3E3E3" height="40.9938" rx="2" ry="2" style="stroke:#181818;stroke-width:0.4000000000000001;" width="117.6" x="1424" y="1230.9422"/><text fill="#000000" font-family="sans-serif" font-size="11.2" font-style="italic" lengthAdjust="spacing" textLength="63.2" x="1451.2" y="1248.6281">&#171;repository&#187;</text><text fill="#000000" font-family="sans-serif" font-size="11.2" lengthAdjust="spacing" textLength="106.4" x="1429.6" y="1263.525">:CustomerRepository</text><rect fill="#FFFFFF" height="1110.7484" style="stroke:#181818;stroke-width:0.8000000000000002;" width="8" x="50.8" y="106.5938"/><rect fill="#FFFFFF" height="102.2594" style="stroke:#181818;stroke-width:0.8000000000000002;" width="8" x="432.4" y="125.2266"/><rect fill="#FFFFFF" height="964.8234" style="stroke:#181818;stroke-width:0.8000000000000002;" width="8" x="432.4" y="252.5188"/><rect fill="#FFFFFF" height="275.3609" style="stroke:#181818;stroke-width:0.8000000000000002;" width="8" x="718" y="298.5844"/><rect fill="#FFFFFF" height="200.2625" style="stroke:#181818;stroke-width:0.8000000000000002;" width="8" x="718" y="612.2828"/><rect fill="#FFFFFF" height="75.0984" style="stroke:#181818;stroke-width:0.8000000000000002;" width="8" x="718" y="873.0109"/><rect fill="#FFFFFF" height="200.2625" style="stroke:#181818;stroke-width:0.8000000000000002;" width="8" x="718" y="986.4469"/><rect fill="#FFFFFF" height="50.0656" style="stroke:#181818;stroke-width:0.8000000000000002;" width="8" x="849.2" y="323.6172"/><rect fill="#FFFFFF" height="100.1313" style="stroke:#181818;stroke-width:0.8000000000000002;" width="8" x="1077.6" y="398.7156"/><rect fill="#FFFFFF" height="100.1313" style="stroke:#181818;stroke-width:0.8000000000000002;" width="8" x="1077.6" y="637.3156"/><rect fill="#FFFFFF" height="100.1313" style="stroke:#181818;stroke-width:0.8000000000000002;" width="8" x="1077.6" y="1011.4797"/><rect fill="#FFFFFF" height="50.0656" style="stroke:#181818;stroke-width:0.8000000000000002;" width="8" x="1220.8" y="423.7484"/><rect fill="#FFFFFF" height="50.0656" style="stroke:#181818;stroke-width:0.8000000000000002;" width="8" x="1220.8" y="662.3484"/><rect fill="#FFFFFF" height="50.0656" style="stroke:#181818;stroke-width:0.8000000000000002;" width="8" x="1220.8" y="1036.5125"/><rect fill="#FFFFFF" height="25.0328" style="stroke:#181818;stroke-width:0.8000000000000002;" width="8" x="1347.2" y="523.8797"/><rect fill="#FFFFFF" height="25.0328" style="stroke:#181818;stroke-width:0.8000000000000002;" width="8" x="1347.2" y="762.4797"/><rect fill="#FFFFFF" height="25.0328" style="stroke:#181818;stroke-width:0.8000000000000002;" width="8" x="1347.2" y="898.0438"/><rect fill="#FFFFFF" height="25.0328" style="stroke:#181818;stroke-width:0.8000000000000002;" width="8" x="1347.2" y="1136.6438"/><polygon fill="#181818" points="422.8,122.0266,430.8,125.2266,422.8,128.4266,426,125.2266" style="stroke:#181818;stroke-width:0.8000000000000002;"/><line style="stroke:#181818;stroke-width:0.8000000000000002;" x1="58.8" x2="427.6" y1="125.2266" y2="125.2266"/><text fill="#000000" font-family="sans-serif" font-size="10.4" font-weight="bold" lengthAdjust="spacing" textLength="5.6" x="64.4" y="121.0164">1</text><text fill="#000000" font-family="sans-serif" font-size="10.4" lengthAdjust="spacing" textLength="112.8" x="73.2" y="121.0164">asks to list job openings</text><polygon fill="#181818" points="644.4,147.0594,652.4,150.2594,644.4,153.4594,647.6,150.2594" style="stroke:#181818;stroke-width:0.8000000000000002;"/><line style="stroke:#181818;stroke-width:0.8000000000000002;" x1="440.4" x2="649.2" y1="150.2594" y2="150.2594"/><text fill="#000000" font-family="sans-serif" font-size="10.4" font-weight="bold" lengthAdjust="spacing" textLength="5.6" x="446" y="146.0492">2</text><text fill="#000000" font-family="sans-serif" font-size="10.4" lengthAdjust="spacing" textLength="28.8" x="454.8" y="146.0492">create</text><text fill="#000000" font-family="sans-serif" font-size="11.2" font-style="italic" lengthAdjust="spacing" textLength="67.2" x="686" y="169.3125">&#171;application&#187;</text><text fill="#000000" font-family="sans-serif" font-size="11.2" lengthAdjust="spacing" textLength="131.2" x="654" y="184.2094">:ListJobOpeningController</text><ellipse cx="722" cy="144.4266" fill="#E3E3E3" rx="9.6" ry="9.6" style="stroke:#181818;stroke-width:0.4000000000000001;"/><polygon fill="#181818" points="718.8,134.8266,723.6,130.8266,722,134.8266,723.6,138.8266,718.8,134.8266" style="stroke:#181818;stroke-width:0.8000000000000002;"/><polygon fill="#181818" points="67.6,224.2859,59.6,227.4859,67.6,230.6859,64.4,227.4859" style="stroke:#181818;stroke-width:0.8000000000000002;"/><line style="stroke:#181818;stroke-width:0.8000000000000002;stroke-dasharray:2.0,2.0;" x1="62.8" x2="435.6" y1="227.4859" y2="227.4859"/><text fill="#000000" font-family="sans-serif" font-size="10.4" font-weight="bold" lengthAdjust="spacing" textLength="5.6" x="72.4" y="216.3594">3</text><text fill="#000000" font-family="sans-serif" font-size="10.4" lengthAdjust="spacing" textLength="311.2" x="81.2" y="209.443">Shows options to filter the job Openings (1. Show all Job Openings;</text><text fill="#000000" font-family="sans-serif" font-size="10.4" lengthAdjust="spacing" textLength="345.6" x="81.2" y="223.2758">2. Filter by Customer; 3.Filter by Registration Date) and asks to select one</text><polygon fill="#181818" points="422.8,249.3188,430.8,252.5188,422.8,255.7188,426,252.5188" style="stroke:#181818;stroke-width:0.8000000000000002;"/><line style="stroke:#181818;stroke-width:0.8000000000000002;" x1="58.8" x2="427.6" y1="252.5188" y2="252.5188"/><text fill="#000000" font-family="sans-serif" font-size="10.4" font-weight="bold" lengthAdjust="spacing" textLength="5.6" x="64.4" y="248.3086">4</text><text fill="#000000" font-family="sans-serif" font-size="10.4" lengthAdjust="spacing" textLength="153.6" x="73.2" y="248.3086">selects way to filter job Openings</text><path d="M377.2,264.5188 L426,264.5188 L426,271.9516 L418,279.9516 L377.2,279.9516 L377.2,264.5188 " fill="#EEEEEE" style="stroke:#000000;stroke-width:1.2000000000000002;"/><rect fill="none" height="928.5906" style="stroke:#000000;stroke-width:1.2000000000000002;" width="1172.4" x="377.2" y="264.5188"/><text fill="#000000" font-family="sans-serif" font-size="10.4" font-weight="bold" lengthAdjust="spacing" textLength="12.8" x="389.2" y="276.5414">alt</text><text fill="#000000" font-family="sans-serif" font-size="8.8" font-weight="bold" lengthAdjust="spacing" textLength="187.2" x="438" y="275.6148">["filterOption = 1. Show All Job Openings "]</text><polygon fill="#181818" points="708.4,295.3844,716.4,298.5844,708.4,301.7844,711.6,298.5844" style="stroke:#181818;stroke-width:0.8000000000000002;"/><line style="stroke:#181818;stroke-width:0.8000000000000002;" x1="440.4" x2="713.2" y1="298.5844" y2="298.5844"/><text fill="#000000" font-family="sans-serif" font-size="10.4" font-weight="bold" lengthAdjust="spacing" textLength="5.6" x="446" y="294.3742">5</text><text fill="#000000" font-family="sans-serif" font-size="10.4" lengthAdjust="spacing" textLength="76.8" x="454.8" y="294.3742">allJobOpenings()</text><polygon fill="#181818" points="839.6,320.4172,847.6,323.6172,839.6,326.8172,842.8,323.6172" style="stroke:#181818;stroke-width:0.8000000000000002;"/><line style="stroke:#181818;stroke-width:0.8000000000000002;" x1="726" x2="844.4" y1="323.6172" y2="323.6172"/><text fill="#000000" font-family="sans-serif" font-size="10.4" font-weight="bold" lengthAdjust="spacing" textLength="5.6" x="731.6" y="319.407">6</text><text fill="#000000" font-family="sans-serif" font-size="10.4" lengthAdjust="spacing" textLength="99.2" x="740.4" y="319.407">authorizationService()</text><polygon fill="#181818" points="950.8,345.45,958.8,348.65,950.8,351.85,954,348.65" style="stroke:#181818;stroke-width:0.8000000000000002;"/><line style="stroke:#181818;stroke-width:0.8000000000000002;" x1="857.2" x2="955.6" y1="348.65" y2="348.65"/><text fill="#000000" font-family="sans-serif" font-size="10.4" font-weight="bold" lengthAdjust="spacing" textLength="5.6" x="862.8" y="344.4398">7</text><text fill="#000000" font-family="sans-serif" font-size="10.4" lengthAdjust="spacing" textLength="35.2" x="871.6" y="344.4398">create()</text><polygon fill="#181818" points="734.8,370.4828,726.8,373.6828,734.8,376.8828,731.6,373.6828" style="stroke:#181818;stroke-width:0.8000000000000002;"/><line style="stroke:#181818;stroke-width:0.8000000000000002;stroke-dasharray:2.0,2.0;" x1="730" x2="852.4" y1="373.6828" y2="373.6828"/><text fill="#000000" font-family="sans-serif" font-size="10.4" font-weight="bold" lengthAdjust="spacing" textLength="5.6" x="739.6" y="369.4727">8</text><text fill="#000000" font-family="sans-serif" font-size="10.4" lengthAdjust="spacing" textLength="25.6" x="748.4" y="369.4727">authz</text><polygon fill="#181818" points="1068,395.5156,1076,398.7156,1068,401.9156,1071.2,398.7156" style="stroke:#181818;stroke-width:0.8000000000000002;"/><line style="stroke:#181818;stroke-width:0.8000000000000002;" x1="726" x2="1072.8" y1="398.7156" y2="398.7156"/><text fill="#000000" font-family="sans-serif" font-size="10.4" font-weight="bold" lengthAdjust="spacing" textLength="5.6" x="731.6" y="394.5055">9</text><text fill="#000000" font-family="sans-serif" font-size="10.4" lengthAdjust="spacing" textLength="60" x="740.4" y="394.5055">repositories()</text><polygon fill="#181818" points="1211.2,420.5484,1219.2,423.7484,1211.2,426.9484,1214.4,423.7484" style="stroke:#181818;stroke-width:0.8000000000000002;"/><line style="stroke:#181818;stroke-width:0.8000000000000002;" x1="1085.6" x2="1216" y1="423.7484" y2="423.7484"/><text fill="#000000" font-family="sans-serif" font-size="10.4" font-weight="bold" lengthAdjust="spacing" textLength="11.2" x="1091.2" y="419.5383">10</text><text fill="#000000" font-family="sans-serif" font-size="10.4" lengthAdjust="spacing" textLength="64" x="1105.6" y="419.5383">jobOpenings()</text><polygon fill="#181818" points="1341.6,445.5813,1349.6,448.7813,1341.6,451.9813,1344.8,448.7813" style="stroke:#181818;stroke-width:0.8000000000000002;"/><line style="stroke:#181818;stroke-width:0.8000000000000002;" x1="1228.8" x2="1346.4" y1="448.7813" y2="448.7813"/><text fill="#000000" font-family="sans-serif" font-size="10.4" font-weight="bold" lengthAdjust="spacing" textLength="11.2" x="1234.4" y="444.5711">11</text><text fill="#000000" font-family="sans-serif" font-size="10.4" lengthAdjust="spacing" textLength="35.2" x="1248.8" y="444.5711">create()</text><polygon fill="#181818" points="1094.4,470.6141,1086.4,473.8141,1094.4,477.0141,1091.2,473.8141" style="stroke:#181818;stroke-width:0.8000000000000002;"/><line style="stroke:#181818;stroke-width:0.8000000000000002;stroke-dasharray:2.0,2.0;" x1="1089.6" x2="1224" y1="473.8141" y2="473.8141"/><text fill="#000000" font-family="sans-serif" font-size="10.4" font-weight="bold" lengthAdjust="spacing" textLength="11.2" x="1099.2" y="469.6039">12</text><text fill="#000000" font-family="sans-serif" font-size="10.4" lengthAdjust="spacing" textLength="101.6" x="1113.6" y="469.6039">jobOpeningRepository</text><polygon fill="#181818" points="734.8,495.6469,726.8,498.8469,734.8,502.0469,731.6,498.8469" style="stroke:#181818;stroke-width:0.8000000000000002;"/><line style="stroke:#181818;stroke-width:0.8000000000000002;stroke-dasharray:2.0,2.0;" x1="730" x2="1080.8" y1="498.8469" y2="498.8469"/><text fill="#000000" font-family="sans-serif" font-size="10.4" font-weight="bold" lengthAdjust="spacing" textLength="11.2" x="739.6" y="494.6367">13</text><text fill="#000000" font-family="sans-serif" font-size="10.4" lengthAdjust="spacing" textLength="101.6" x="754" y="494.6367">jobOpeningRepository</text><polygon fill="#181818" points="1337.6,520.6797,1345.6,523.8797,1337.6,527.0797,1340.8,523.8797" style="stroke:#181818;stroke-width:0.8000000000000002;"/><line style="stroke:#181818;stroke-width:0.8000000000000002;" x1="726" x2="1342.4" y1="523.8797" y2="523.8797"/><text fill="#000000" font-family="sans-serif" font-size="10.4" font-weight="bold" lengthAdjust="spacing" textLength="11.2" x="731.6" y="519.6695">14</text><text fill="#000000" font-family="sans-serif" font-size="10.4" lengthAdjust="spacing" textLength="64" x="746" y="519.6695">jobOpenings()</text><polygon fill="#181818" points="734.8,545.7125,726.8,548.9125,734.8,552.1125,731.6,548.9125" style="stroke:#181818;stroke-width:0.8000000000000002;"/><line style="stroke:#181818;stroke-width:0.8000000000000002;stroke-dasharray:2.0,2.0;" x1="730" x2="1350.4" y1="548.9125" y2="548.9125"/><text fill="#000000" font-family="sans-serif" font-size="10.4" font-weight="bold" lengthAdjust="spacing" textLength="11.2" x="739.6" y="544.7023">15</text><text fill="#000000" font-family="sans-serif" font-size="10.4" lengthAdjust="spacing" textLength="70.4" x="754" y="544.7023">allJobOpenings</text><polygon fill="#181818" points="449.2,570.7453,441.2,573.9453,449.2,577.1453,446,573.9453" style="stroke:#181818;stroke-width:0.8000000000000002;"/><line style="stroke:#181818;stroke-width:0.8000000000000002;stroke-dasharray:2.0,2.0;" x1="444.4" x2="721.2" y1="573.9453" y2="573.9453"/><text fill="#000000" font-family="sans-serif" font-size="10.4" font-weight="bold" lengthAdjust="spacing" textLength="11.2" x="454" y="569.7352">16</text><text fill="#000000" font-family="sans-serif" font-size="10.4" lengthAdjust="spacing" textLength="70.4" x="468.4" y="569.7352">allJobOpenings</text><line style="stroke:#000000;stroke-width:0.8000000000000002;stroke-dasharray:2.0,2.0;" x1="377.2" x2="1549.6" y1="581.1453" y2="581.1453"/><text fill="#000000" font-family="sans-serif" font-size="8.8" font-weight="bold" lengthAdjust="spacing" textLength="231.2" x="381.2" y="590.6414">["filterOption = 2. Filter Job Openings By Customer "]</text><polygon fill="#181818" points="708.4,609.0828,716.4,612.2828,708.4,615.4828,711.6,612.2828" style="stroke:#181818;stroke-width:0.8000000000000002;"/><line style="stroke:#181818;stroke-width:0.8000000000000002;" x1="440.4" x2="713.2" y1="612.2828" y2="612.2828"/><text fill="#000000" font-family="sans-serif" font-size="10.4" font-weight="bold" lengthAdjust="spacing" textLength="11.2" x="446" y="608.0727">17</text><text fill="#000000" font-family="sans-serif" font-size="10.4" lengthAdjust="spacing" textLength="146.4" x="460.4" y="608.0727">filterCustomersBySystemUser()</text><polygon fill="#181818" points="1068,634.1156,1076,637.3156,1068,640.5156,1071.2,637.3156" style="stroke:#181818;stroke-width:0.8000000000000002;"/><line style="stroke:#181818;stroke-width:0.8000000000000002;" x1="726" x2="1072.8" y1="637.3156" y2="637.3156"/><text fill="#000000" font-family="sans-serif" font-size="10.4" font-weight="bold" lengthAdjust="spacing" textLength="11.2" x="731.6" y="633.1055">18</text><text fill="#000000" font-family="sans-serif" font-size="10.4" lengthAdjust="spacing" textLength="60" x="746" y="633.1055">repositories()</text><polygon fill="#181818" points="1211.2,659.1484,1219.2,662.3484,1211.2,665.5484,1214.4,662.3484" style="stroke:#181818;stroke-width:0.8000000000000002;"/><line style="stroke:#181818;stroke-width:0.8000000000000002;" x1="1085.6" x2="1216" y1="662.3484" y2="662.3484"/><text fill="#000000" font-family="sans-serif" font-size="10.4" font-weight="bold" lengthAdjust="spacing" textLength="11.2" x="1091.2" y="658.1383">19</text><text fill="#000000" font-family="sans-serif" font-size="10.4" lengthAdjust="spacing" textLength="55.2" x="1105.6" y="658.1383">customers()</text><polygon fill="#181818" points="1473.2,684.1813,1481.2,687.3813,1473.2,690.5813,1476.4,687.3813" style="stroke:#181818;stroke-width:0.8000000000000002;"/><line style="stroke:#181818;stroke-width:0.8000000000000002;" x1="1228.8" x2="1478" y1="687.3813" y2="687.3813"/><text fill="#000000" font-family="sans-serif" font-size="10.4" font-weight="bold" lengthAdjust="spacing" textLength="11.2" x="1234.4" y="683.1711">20</text><text fill="#000000" font-family="sans-serif" font-size="10.4" lengthAdjust="spacing" textLength="35.2" x="1248.8" y="683.1711">create()</text><polygon fill="#181818" points="1094.4,709.2141,1086.4,712.4141,1094.4,715.6141,1091.2,712.4141" style="stroke:#181818;stroke-width:0.8000000000000002;"/><line style="stroke:#181818;stroke-width:0.8000000000000002;stroke-dasharray:2.0,2.0;" x1="1089.6" x2="1224" y1="712.4141" y2="712.4141"/><text fill="#000000" font-family="sans-serif" font-size="10.4" font-weight="bold" lengthAdjust="spacing" textLength="11.2" x="1099.2" y="708.2039">21</text><text fill="#000000" font-family="sans-serif" font-size="10.4" lengthAdjust="spacing" textLength="92.8" x="1113.6" y="708.2039">customerRepository</text><polygon fill="#181818" points="734.8,734.2469,726.8,737.4469,734.8,740.6469,731.6,737.4469" style="stroke:#181818;stroke-width:0.8000000000000002;"/><line style="stroke:#181818;stroke-width:0.8000000000000002;stroke-dasharray:2.0,2.0;" x1="730" x2="1080.8" y1="737.4469" y2="737.4469"/><text fill="#000000" font-family="sans-serif" font-size="10.4" font-weight="bold" lengthAdjust="spacing" textLength="11.2" x="739.6" y="733.2367">22</text><text fill="#000000" font-family="sans-serif" font-size="10.4" lengthAdjust="spacing" textLength="92.8" x="754" y="733.2367">customerRepository</text><polygon fill="#181818" points="1337.6,759.2797,1345.6,762.4797,1337.6,765.6797,1340.8,762.4797" style="stroke:#181818;stroke-width:0.8000000000000002;"/><line style="stroke:#181818;stroke-width:0.8000000000000002;" x1="726" x2="1342.4" y1="762.4797" y2="762.4797"/><text fill="#000000" font-family="sans-serif" font-size="10.4" font-weight="bold" lengthAdjust="spacing" textLength="11.2" x="731.6" y="758.2695">23</text><text fill="#000000" font-family="sans-serif" font-size="10.4" lengthAdjust="spacing" textLength="34.4" x="746" y="758.2695">findAll()</text><polygon fill="#181818" points="734.8,784.3125,726.8,787.5125,734.8,790.7125,731.6,787.5125" style="stroke:#181818;stroke-width:0.8000000000000002;"/><line style="stroke:#181818;stroke-width:0.8000000000000002;stroke-dasharray:2.0,2.0;" x1="730" x2="1350.4" y1="787.5125" y2="787.5125"/><text fill="#000000" font-family="sans-serif" font-size="10.4" font-weight="bold" lengthAdjust="spacing" textLength="11.2" x="739.6" y="783.3023">24</text><text fill="#000000" font-family="sans-serif" font-size="10.4" lengthAdjust="spacing" textLength="60.8" x="754" y="783.3023">allCustomers</text><polygon fill="#181818" points="449.2,809.3453,441.2,812.5453,449.2,815.7453,446,812.5453" style="stroke:#181818;stroke-width:0.8000000000000002;"/><line style="stroke:#181818;stroke-width:0.8000000000000002;stroke-dasharray:2.0,2.0;" x1="444.4" x2="721.2" y1="812.5453" y2="812.5453"/><text fill="#000000" font-family="sans-serif" font-size="10.4" font-weight="bold" lengthAdjust="spacing" textLength="11.2" x="454" y="808.3352">25</text><text fill="#000000" font-family="sans-serif" font-size="10.4" lengthAdjust="spacing" textLength="80.8" x="468.4" y="808.3352">filteredCustomers</text><line style="stroke:#181818;stroke-width:0.8000000000000002;" x1="440.4" x2="474" y1="837.5781" y2="837.5781"/><line style="stroke:#181818;stroke-width:0.8000000000000002;" x1="474" x2="474" y1="837.5781" y2="847.9781"/><line style="stroke:#181818;stroke-width:0.8000000000000002;" x1="441.2" x2="474" y1="847.9781" y2="847.9781"/><polygon fill="#181818" points="449.2,844.7781,441.2,847.9781,449.2,851.1781,446,847.9781" style="stroke:#181818;stroke-width:0.8000000000000002;"/><text fill="#000000" font-family="sans-serif" font-size="10.4" font-weight="bold" lengthAdjust="spacing" textLength="11.2" x="446" y="833.368">26</text><text fill="#000000" font-family="sans-serif" font-size="10.4" lengthAdjust="spacing" textLength="158.4" x="460.4" y="833.368">displayCustomerMenu(customers)</text><polygon fill="#181818" points="708.4,869.8109,716.4,873.0109,708.4,876.2109,711.6,873.0109" style="stroke:#181818;stroke-width:0.8000000000000002;"/><line style="stroke:#181818;stroke-width:0.8000000000000002;" x1="440.4" x2="713.2" y1="873.0109" y2="873.0109"/><text fill="#000000" font-family="sans-serif" font-size="10.4" font-weight="bold" lengthAdjust="spacing" textLength="11.2" x="446" y="868.8008">27</text><text fill="#000000" font-family="sans-serif" font-size="10.4" lengthAdjust="spacing" textLength="186.4" x="460.4" y="868.8008">filterJobOpeningsByCustomer(customer)</text><polygon fill="#181818" points="1337.6,894.8438,1345.6,898.0438,1337.6,901.2438,1340.8,898.0438" style="stroke:#181818;stroke-width:0.8000000000000002;"/><line style="stroke:#181818;stroke-width:0.8000000000000002;" x1="726" x2="1342.4" y1="898.0438" y2="898.0438"/><text fill="#000000" font-family="sans-serif" font-size="10.4" font-weight="bold" lengthAdjust="spacing" textLength="11.2" x="731.6" y="893.8336">28</text><text fill="#000000" font-family="sans-serif" font-size="10.4" lengthAdjust="spacing" textLength="34.4" x="746" y="893.8336">findAll()</text><polygon fill="#181818" points="734.8,919.8766,726.8,923.0766,734.8,926.2766,731.6,923.0766" style="stroke:#181818;stroke-width:0.8000000000000002;"/><line style="stroke:#181818;stroke-width:0.8000000000000002;stroke-dasharray:2.0,2.0;" x1="730" x2="1350.4" y1="923.0766" y2="923.0766"/><text fill="#000000" font-family="sans-serif" font-size="10.4" font-weight="bold" lengthAdjust="spacing" textLength="11.2" x="739.6" y="918.8664">29</text><text fill="#000000" font-family="sans-serif" font-size="10.4" lengthAdjust="spacing" textLength="76.8" x="754" y="918.8664">allJobOpenings()</text><polygon fill="#181818" points="449.2,944.9094,441.2,948.1094,449.2,951.3094,446,948.1094" style="stroke:#181818;stroke-width:0.8000000000000002;"/><line style="stroke:#181818;stroke-width:0.8000000000000002;stroke-dasharray:2.0,2.0;" x1="444.4" x2="721.2" y1="948.1094" y2="948.1094"/><text fill="#000000" font-family="sans-serif" font-size="10.4" font-weight="bold" lengthAdjust="spacing" textLength="11.2" x="454" y="943.8992">30</text><text fill="#000000" font-family="sans-serif" font-size="10.4" lengthAdjust="spacing" textLength="90.4" x="468.4" y="943.8992">filteredJobOpenings</text><line style="stroke:#000000;stroke-width:0.8000000000000002;stroke-dasharray:2.0,2.0;" x1="377.2" x2="1549.6" y1="955.3094" y2="955.3094"/><text fill="#000000" font-family="sans-serif" font-size="8.8" font-weight="bold" lengthAdjust="spacing" textLength="261.6" x="381.2" y="964.8055">["filterOption = 3. Filter Job Openings By Registration Date "]</text><polygon fill="#181818" points="708.4,983.2469,716.4,986.4469,708.4,989.6469,711.6,986.4469" style="stroke:#181818;stroke-width:0.8000000000000002;"/><line style="stroke:#181818;stroke-width:0.8000000000000002;" x1="440.4" x2="713.2" y1="986.4469" y2="986.4469"/><text fill="#000000" font-family="sans-serif" font-size="10.4" font-weight="bold" lengthAdjust="spacing" textLength="11.2" x="446" y="982.2367">31</text><text fill="#000000" font-family="sans-serif" font-size="10.4" lengthAdjust="spacing" textLength="248" x="460.4" y="982.2367">filterJobOpeningsByRegistrationDate(registrationDate)</text><polygon fill="#181818" points="1068,1008.2797,1076,1011.4797,1068,1014.6797,1071.2,1011.4797" style="stroke:#181818;stroke-width:0.8000000000000002;"/><line style="stroke:#181818;stroke-width:0.8000000000000002;" x1="726" x2="1072.8" y1="1011.4797" y2="1011.4797"/><text fill="#000000" font-family="sans-serif" font-size="10.4" font-weight="bold" lengthAdjust="spacing" textLength="11.2" x="731.6" y="1007.2695">32</text><text fill="#000000" font-family="sans-serif" font-size="10.4" lengthAdjust="spacing" textLength="60" x="746" y="1007.2695">repositories()</text><polygon fill="#181818" points="1211.2,1033.3125,1219.2,1036.5125,1211.2,1039.7125,1214.4,1036.5125" style="stroke:#181818;stroke-width:0.8000000000000002;"/><line style="stroke:#181818;stroke-width:0.8000000000000002;" x1="1085.6" x2="1216" y1="1036.5125" y2="1036.5125"/><text fill="#000000" font-family="sans-serif" font-size="10.4" font-weight="bold" lengthAdjust="spacing" textLength="11.2" x="1091.2" y="1032.3023">33</text><text fill="#000000" font-family="sans-serif" font-size="10.4" lengthAdjust="spacing" textLength="64" x="1105.6" y="1032.3023">jobOpenings()</text><polygon fill="#181818" points="1341.6,1058.3453,1349.6,1061.5453,1341.6,1064.7453,1344.8,1061.5453" style="stroke:#181818;stroke-width:0.8000000000000002;"/><line style="stroke:#181818;stroke-width:0.8000000000000002;" x1="1228.8" x2="1346.4" y1="1061.5453" y2="1061.5453"/><text fill="#000000" font-family="sans-serif" font-size="10.4" font-weight="bold" lengthAdjust="spacing" textLength="11.2" x="1234.4" y="1057.3352">34</text><text fill="#000000" font-family="sans-serif" font-size="10.4" lengthAdjust="spacing" textLength="35.2" x="1248.8" y="1057.3352">create()</text><polygon fill="#181818" points="1094.4,1083.3781,1086.4,1086.5781,1094.4,1089.7781,1091.2,1086.5781" style="stroke:#181818;stroke-width:0.8000000000000002;"/><line style="stroke:#181818;stroke-width:0.8000000000000002;stroke-dasharray:2.0,2.0;" x1="1089.6" x2="1224" y1="1086.5781" y2="1086.5781"/><text fill="#000000" font-family="sans-serif" font-size="10.4" font-weight="bold" lengthAdjust="spacing" textLength="11.2" x="1099.2" y="1082.368">35</text><text fill="#000000" font-family="sans-serif" font-size="10.4" lengthAdjust="spacing" textLength="101.6" x="1113.6" y="1082.368">jobOpeningRepository</text><polygon fill="#181818" points="734.8,1108.4109,726.8,1111.6109,734.8,1114.8109,731.6,1111.6109" style="stroke:#181818;stroke-width:0.8000000000000002;"/><line style="stroke:#181818;stroke-width:0.8000000000000002;stroke-dasharray:2.0,2.0;" x1="730" x2="1080.8" y1="1111.6109" y2="1111.6109"/><text fill="#000000" font-family="sans-serif" font-size="10.4" font-weight="bold" lengthAdjust="spacing" textLength="11.2" x="739.6" y="1107.4008">36</text><text fill="#000000" font-family="sans-serif" font-size="10.4" lengthAdjust="spacing" textLength="101.6" x="754" y="1107.4008">jobOpeningRepository</text><polygon fill="#181818" points="1337.6,1133.4438,1345.6,1136.6438,1337.6,1139.8438,1340.8,1136.6438" style="stroke:#181818;stroke-width:0.8000000000000002;"/><line style="stroke:#181818;stroke-width:0.8000000000000002;" x1="726" x2="1342.4" y1="1136.6438" y2="1136.6438"/><text fill="#000000" font-family="sans-serif" font-size="10.4" font-weight="bold" lengthAdjust="spacing" textLength="11.2" x="731.6" y="1132.4336">37</text><text fill="#000000" font-family="sans-serif" font-size="10.4" lengthAdjust="spacing" textLength="34.4" x="746" y="1132.4336">findAll()</text><polygon fill="#181818" points="734.8,1158.4766,726.8,1161.6766,734.8,1164.8766,731.6,1161.6766" style="stroke:#181818;stroke-width:0.8000000000000002;"/><line style="stroke:#181818;stroke-width:0.8000000000000002;stroke-dasharray:2.0,2.0;" x1="730" x2="1350.4" y1="1161.6766" y2="1161.6766"/><text fill="#000000" font-family="sans-serif" font-size="10.4" font-weight="bold" lengthAdjust="spacing" textLength="11.2" x="739.6" y="1157.4664">38</text><text fill="#000000" font-family="sans-serif" font-size="10.4" lengthAdjust="spacing" textLength="76.8" x="754" y="1157.4664">allJobOpenings()</text><polygon fill="#181818" points="449.2,1183.5094,441.2,1186.7094,449.2,1189.9094,446,1186.7094" style="stroke:#181818;stroke-width:0.8000000000000002;"/><line style="stroke:#181818;stroke-width:0.8000000000000002;stroke-dasharray:2.0,2.0;" x1="444.4" x2="721.2" y1="1186.7094" y2="1186.7094"/><text fill="#000000" font-family="sans-serif" font-size="10.4" font-weight="bold" lengthAdjust="spacing" textLength="11.2" x="454" y="1182.4992">39</text><text fill="#000000" font-family="sans-serif" font-size="10.4" lengthAdjust="spacing" textLength="57.6" x="468.4" y="1182.4992">jobOpenings</text><polygon fill="#181818" points="63.6,1214.1422,55.6,1217.3422,63.6,1220.5422,60.4,1217.3422" style="stroke:#181818;stroke-width:0.8000000000000002;"/><line style="stroke:#181818;stroke-width:0.8000000000000002;stroke-dasharray:2.0,2.0;" x1="58.8" x2="435.6" y1="1217.3422" y2="1217.3422"/><text fill="#000000" font-family="sans-serif" font-size="10.4" font-weight="bold" lengthAdjust="spacing" textLength="11.2" x="68.4" y="1213.132">40</text><text fill="#000000" font-family="sans-serif" font-size="10.4" lengthAdjust="spacing" textLength="252.8" x="82.8" y="1213.132">shows job opening list following the filter option chosen</text><!--SRC=[xLTDRnen4BtxLuouDAb4b3GtaYAHZL0J1GKjuTQBMGmuMUojRP9iVdt7NjRx2HGfxQa-slFUVBtnUlKB5mbLT0rhAMIqKdBDmAWD8zgV93HweKisCMdCGB78KB6ComPwHUVoZOibB6Yi6I5qOwJOh6TC4MAuGLXdEhauFx-4BZnmRU1Upk0nOG8n7PYmNnic8WQtd2wHZv0lApvdi93IpEGxeP6H2Zg1r6QpPWf6L60ugWDKGp0Y68FX4K-eCD3fMNfatv9FxvpLz0xW-ZfHJ3DXgE5IzFiaai8e6JSmGROVvnwUmWUBfaaIyoW7LvmEDcRr4R8bqgZKWGRXVaJFGgJY7-vqmjGhZrY6d3xzc3J0f0eVCwNHcIsQZPQz6uST1pRBugpXDMI9r1ohcGvTKRDWms43LiCLnIaO7FJ-qIQg_6R3Ox3H1YMbQhYW0SDu-2irp7QK0AvW1Ds-xLmF0IyQZ8JOIkSPfIEpO7HcwQ7Jksp3BWGYt3RlwrUaY1H3YygfFHxXqMGbtpHIsb8xDmiU6vIPMJ7dR9kvXfEBCsSCD8xB2jPNy5DyEuDXXfkba6Tz1PTdnUvM8QwdS8lXd08LSv-TPZ7E5aXHX3bdvTpotL9bCeo6DvgM8Yz7xL6LAk6YCVOd0powtE4xv0aEQWb2noAWjeeIsnx5SQ4IVNBQD2ywZ8Z6gTtizd5kaAfbDf0GTYzFFGZtcGr2zE3cAnT4MvnLGBUV9sY7V9zngLaO1cacDmvwNlASwLfA7ZmEAllZeDl72UtPhkughyU6myf-EEpsSKHxxSaYgnq2l3NAvCMaaXtPrPnWWBv8nz2KydHe3CLU9_L46pcYKP67HNIz2giYR1iZ2zxJE4oj5fI_WzgfMpYSl0d33o4q1gou9IhZTLDS6MxKofELCUJ7-YQTf7XDhwUQATlGcblo9rBR9xUAvABSg_Mqcw8cY5nvGLbuBHQ5-gB6L-90areYzXeyZWpJto731HTpl0YFbw3lrIu1aggqiWwpUO5hg2aJXBEUSvt4DCsDHqniJdoVJW_Sqfchaf1lF94dENXrVth1xbi7_ZEcDY_jCQFRFhcNEoUtyLd74Jws2MKEIt6YQXi7c_B_4_DlXlllQVNvgC-Bc9FMrwnshzdI8pbxDI_mXoRxHRFFskqxCNlpGhII-5z4cW_EijSH-Gq0]--></g></svg>