<?xml version="1.0" encoding="us-ascii" standalone="no"?><svg xmlns="http://www.w3.org/2000/svg" xmlns:xlink="http://www.w3.org/1999/xlink" contentStyleType="text/css" height="2109px" preserveAspectRatio="none" style="width:1683px;height:2109px;background:#FFFFFF;" version="1.1" viewBox="0 0 1683 2109" width="1683px" zoomAndPan="magnify"><defs/><g><text fill="#000000" font-family="sans-serif" font-size="14" font-weight="bold" lengthAdjust="spacing" textLength="302" x="683.75" y="25.1074">"US1003 - List job openings" Class Diagram</text><!--class JobOpening--><g id="elem_JobOpening"><rect codeLine="4" fill="#F1F1F1" height="494.9063" id="JobOpening" rx="2.5" ry="2.5" style="stroke:#181818;stroke-width:0.5;" width="297" x="601" y="944.6211"/><ellipse cx="707.25" cy="960.6211" fill="#ADD1B2" rx="11" ry="11" style="stroke:#181818;stroke-width:1.0;"/><path d="M710.0156,956.4961 Q710.1719,956.2773 710.3594,956.168 Q710.5469,956.0586 710.7656,956.0586 Q711.1406,956.0586 711.375,956.3242 Q711.6094,956.5742 711.6094,957.1836 L711.6094,958.6367 Q711.6094,959.2461 711.375,959.5117 Q711.1406,959.7773 710.7656,959.7773 Q710.4219,959.7773 710.2188,959.5742 Q710.0156,959.3867 709.9063,958.8711 Q709.8594,958.5117 709.6719,958.3242 Q709.3438,957.9492 708.7344,957.7305 Q708.125,957.5117 707.5,957.5117 Q706.7344,957.5117 706.0938,957.8398 Q705.4688,958.168 704.9688,958.918 Q704.4844,959.668 704.4844,960.6992 L704.4844,961.793 Q704.4844,963.0273 705.375,963.8555 Q706.2656,964.668 707.8594,964.668 Q708.7969,964.668 709.4531,964.418 Q709.8438,964.2617 710.2656,963.8242 Q710.5313,963.5586 710.6719,963.4805 Q710.8281,963.4023 711.0313,963.4023 Q711.3594,963.4023 711.6094,963.668 Q711.875,963.918 711.875,964.2617 Q711.875,964.6055 711.5313,965.0117 Q711.0313,965.5898 710.2344,965.918 Q709.1563,966.3711 707.8594,966.3711 Q706.3438,966.3711 705.1406,965.7461 Q704.1563,965.2461 703.4688,964.1836 Q702.7813,963.1055 702.7813,961.8242 L702.7813,960.668 Q702.7813,959.3398 703.3906,958.1992 Q704.0156,957.043 705.1094,956.4336 Q706.2031,955.8086 707.4375,955.8086 Q708.1719,955.8086 708.8125,955.9805 Q709.4688,956.1367 710.0156,956.4961 Z " fill="#000000"/><text fill="#000000" font-family="sans-serif" font-size="14" lengthAdjust="spacing" textLength="76" x="727.75" y="966.418">JobOpening</text><line style="stroke:#181818;stroke-width:0.5;" x1="602" x2="897" y1="976.6211" y2="976.6211"/><rect fill="none" height="6" style="stroke:#C82930;stroke-width:1.0;" width="6" x="609" y="988.4316"/><text fill="#000000" font-family="sans-serif" font-size="14" lengthAdjust="spacing" textLength="185" x="621" y="995.7285">jobReference : JobReference</text><rect fill="none" height="6" style="stroke:#C82930;stroke-width:1.0;" width="6" x="609" y="1007.0527"/><text fill="#000000" font-family="sans-serif" font-size="14" lengthAdjust="spacing" textLength="269" x="621" y="1014.3496">numberOfVacancies : NumberOfVacancies</text><rect fill="none" height="6" style="stroke:#C82930;stroke-width:1.0;" width="6" x="609" y="1025.6738"/><text fill="#000000" font-family="sans-serif" font-size="14" lengthAdjust="spacing" textLength="163" x="621" y="1032.9707">jobFunction : JobFunction</text><rect fill="none" height="6" style="stroke:#C82930;stroke-width:1.0;" width="6" x="609" y="1044.2949"/><text fill="#000000" font-family="sans-serif" font-size="14" lengthAdjust="spacing" textLength="181" x="621" y="1051.5918">contractType : ContractType</text><rect fill="none" height="6" style="stroke:#C82930;stroke-width:1.0;" width="6" x="609" y="1062.916"/><text fill="#000000" font-family="sans-serif" font-size="14" lengthAdjust="spacing" textLength="82" x="621" y="1070.2129">mode : Mode</text><rect fill="none" height="6" style="stroke:#C82930;stroke-width:1.0;" width="6" x="609" y="1081.5371"/><text fill="#000000" font-family="sans-serif" font-size="14" lengthAdjust="spacing" textLength="115" x="621" y="1088.834">address : Address</text><rect fill="none" height="6" style="stroke:#C82930;stroke-width:1.0;" width="6" x="609" y="1100.1582"/><text fill="#000000" font-family="sans-serif" font-size="14" lengthAdjust="spacing" textLength="166" x="621" y="1107.4551">companyName : Customer</text><rect fill="none" height="6" style="stroke:#C82930;stroke-width:1.0;" width="6" x="609" y="1118.7793"/><text fill="#000000" font-family="sans-serif" font-size="14" lengthAdjust="spacing" textLength="148" x="621" y="1126.0762">description :Description</text><rect fill="none" height="6" style="stroke:#C82930;stroke-width:1.0;" width="6" x="609" y="1137.4004"/><text fill="#000000" font-family="sans-serif" font-size="14" lengthAdjust="spacing" textLength="171" x="621" y="1144.6973">registrationDate : Calendar</text><rect fill="none" height="6" style="stroke:#C82930;stroke-width:1.0;" width="6" x="609" y="1156.0215"/><text fill="#000000" font-family="sans-serif" font-size="14" lengthAdjust="spacing" textLength="261" x="621" y="1163.3184">recruitmentProcess : RecruitmentProcess</text><rect fill="none" height="6" style="stroke:#C82930;stroke-width:1.0;" width="6" x="609" y="1174.6426"/><text fill="#000000" font-family="sans-serif" font-size="14" lengthAdjust="spacing" textLength="173" x="621" y="1181.9395">requirementsPlugin : Plugin</text><rect fill="none" height="6" style="stroke:#C82930;stroke-width:1.0;" width="6" x="609" y="1193.2637"/><text fill="#000000" font-family="sans-serif" font-size="14" lengthAdjust="spacing" textLength="141" x="621" y="1200.5605">interviewPlugin :Plugin</text><line style="stroke:#181818;stroke-width:0.5;" x1="602" x2="897" y1="1208.0742" y2="1208.0742"/><ellipse cx="612" cy="1222.8848" fill="#84BE84" rx="3" ry="3" style="stroke:#038048;stroke-width:1.0;"/><text fill="#000000" font-family="sans-serif" font-size="14" lengthAdjust="spacing" textLength="191" x="621" y="1227.1816">jobReference() :JobReference</text><ellipse cx="612" cy="1241.5059" fill="#84BE84" rx="3" ry="3" style="stroke:#038048;stroke-width:1.0;"/><text fill="#000000" font-family="sans-serif" font-size="14" lengthAdjust="spacing" textLength="173" x="621" y="1245.8027">jobFunction() : JobFunction</text><ellipse cx="612" cy="1260.127" fill="#84BE84" rx="3" ry="3" style="stroke:#038048;stroke-width:1.0;"/><text fill="#000000" font-family="sans-serif" font-size="14" lengthAdjust="spacing" textLength="191" x="621" y="1264.4238">contractType() : ContractType</text><ellipse cx="612" cy="1278.748" fill="#84BE84" rx="3" ry="3" style="stroke:#038048;stroke-width:1.0;"/><text fill="#000000" font-family="sans-serif" font-size="14" lengthAdjust="spacing" textLength="92" x="621" y="1283.0449">mode() : Mode</text><ellipse cx="612" cy="1297.3691" fill="#84BE84" rx="3" ry="3" style="stroke:#038048;stroke-width:1.0;"/><text fill="#000000" font-family="sans-serif" font-size="14" lengthAdjust="spacing" textLength="125" x="621" y="1301.666">address() : Address</text><ellipse cx="612" cy="1315.9902" fill="#84BE84" rx="3" ry="3" style="stroke:#038048;stroke-width:1.0;"/><text fill="#000000" font-family="sans-serif" font-size="14" lengthAdjust="spacing" textLength="176" x="621" y="1320.2871">companyName() : Customer</text><ellipse cx="612" cy="1334.6113" fill="#84BE84" rx="3" ry="3" style="stroke:#038048;stroke-width:1.0;"/><text fill="#000000" font-family="sans-serif" font-size="14" lengthAdjust="spacing" textLength="162" x="621" y="1338.9082">description() : Description</text><ellipse cx="612" cy="1353.2324" fill="#84BE84" rx="3" ry="3" style="stroke:#038048;stroke-width:1.0;"/><text fill="#000000" font-family="sans-serif" font-size="14" lengthAdjust="spacing" textLength="181" x="621" y="1357.5293">registrationDate() : Calendar</text><ellipse cx="612" cy="1371.8535" fill="#84BE84" rx="3" ry="3" style="stroke:#038048;stroke-width:1.0;"/><text fill="#000000" font-family="sans-serif" font-size="14" lengthAdjust="spacing" textLength="217" x="621" y="1376.1504">setId(JobReference jobReference)</text><ellipse cx="612" cy="1390.4746" fill="#84BE84" rx="3" ry="3" style="stroke:#038048;stroke-width:1.0;"/><text fill="#000000" font-family="sans-serif" font-size="14" lengthAdjust="spacing" textLength="271" x="621" y="1394.7715">recruitmentProcess() : RecruitmentProcess</text><ellipse cx="612" cy="1409.0957" fill="#84BE84" rx="3" ry="3" style="stroke:#038048;stroke-width:1.0;"/><text fill="#000000" font-family="sans-serif" font-size="14" lengthAdjust="spacing" textLength="183" x="621" y="1413.3926">requirementsPlugin() : Plugin</text><ellipse cx="612" cy="1427.7168" fill="#84BE84" rx="3" ry="3" style="stroke:#038048;stroke-width:1.0;"/><text fill="#000000" font-family="sans-serif" font-size="14" lengthAdjust="spacing" textLength="155" x="621" y="1432.0137">interviewPlugin() : Plugin</text></g><!--class JobFunction--><g id="elem_JobFunction"><rect codeLine="32" fill="#F1F1F1" height="66.6211" id="JobFunction" rx="2.5" ry="2.5" style="stroke:#181818;stroke-width:0.5;" width="165" x="667" y="1565.6211"/><ellipse cx="707.2" cy="1581.6211" fill="#ADD1B2" rx="11" ry="11" style="stroke:#181818;stroke-width:1.0;"/><path d="M709.9656,1577.4961 Q710.1219,1577.2773 710.3094,1577.168 Q710.4969,1577.0586 710.7156,1577.0586 Q711.0906,1577.0586 711.325,1577.3242 Q711.5594,1577.5742 711.5594,1578.1836 L711.5594,1579.6367 Q711.5594,1580.2461 711.325,1580.5117 Q711.0906,1580.7773 710.7156,1580.7773 Q710.3719,1580.7773 710.1688,1580.5742 Q709.9656,1580.3867 709.8563,1579.8711 Q709.8094,1579.5117 709.6219,1579.3242 Q709.2938,1578.9492 708.6844,1578.7305 Q708.075,1578.5117 707.45,1578.5117 Q706.6844,1578.5117 706.0438,1578.8398 Q705.4188,1579.168 704.9188,1579.918 Q704.4344,1580.668 704.4344,1581.6992 L704.4344,1582.793 Q704.4344,1584.0273 705.325,1584.8555 Q706.2156,1585.668 707.8094,1585.668 Q708.7469,1585.668 709.4031,1585.418 Q709.7938,1585.2617 710.2156,1584.8242 Q710.4813,1584.5586 710.6219,1584.4805 Q710.7781,1584.4023 710.9813,1584.4023 Q711.3094,1584.4023 711.5594,1584.668 Q711.825,1584.918 711.825,1585.2617 Q711.825,1585.6055 711.4813,1586.0117 Q710.9813,1586.5898 710.1844,1586.918 Q709.1063,1587.3711 707.8094,1587.3711 Q706.2938,1587.3711 705.0906,1586.7461 Q704.1063,1586.2461 703.4188,1585.1836 Q702.7313,1584.1055 702.7313,1582.8242 L702.7313,1581.668 Q702.7313,1580.3398 703.3406,1579.1992 Q703.9656,1578.043 705.0594,1577.4336 Q706.1531,1576.8086 707.3875,1576.8086 Q708.1219,1576.8086 708.7625,1576.9805 Q709.4188,1577.1367 709.9656,1577.4961 Z " fill="#000000"/><text fill="#000000" font-family="sans-serif" font-size="14" lengthAdjust="spacing" textLength="77" x="726.8" y="1587.418">JobFunction</text><line style="stroke:#181818;stroke-width:0.5;" x1="668" x2="831" y1="1597.6211" y2="1597.6211"/><rect fill="none" height="6" style="stroke:#C82930;stroke-width:1.0;" width="6" x="675" y="1609.4316"/><text fill="#000000" font-family="sans-serif" font-size="14" lengthAdjust="spacing" textLength="139" x="687" y="1616.7285">jobDescription : String</text><line style="stroke:#181818;stroke-width:0.5;" x1="668" x2="831" y1="1624.2422" y2="1624.2422"/></g><!--class NumberOfVacancies--><g id="elem_NumberOfVacancies"><rect codeLine="36" fill="#F1F1F1" height="66.6211" id="NumberOfVacancies" rx="2.5" ry="2.5" style="stroke:#181818;stroke-width:0.5;" width="161" x="7" y="1565.6211"/><ellipse cx="22" cy="1581.6211" fill="#ADD1B2" rx="11" ry="11" style="stroke:#181818;stroke-width:1.0;"/><path d="M24.7656,1577.4961 Q24.9219,1577.2773 25.1094,1577.168 Q25.2969,1577.0586 25.5156,1577.0586 Q25.8906,1577.0586 26.125,1577.3242 Q26.3594,1577.5742 26.3594,1578.1836 L26.3594,1579.6367 Q26.3594,1580.2461 26.125,1580.5117 Q25.8906,1580.7773 25.5156,1580.7773 Q25.1719,1580.7773 24.9688,1580.5742 Q24.7656,1580.3867 24.6563,1579.8711 Q24.6094,1579.5117 24.4219,1579.3242 Q24.0938,1578.9492 23.4844,1578.7305 Q22.875,1578.5117 22.25,1578.5117 Q21.4844,1578.5117 20.8438,1578.8398 Q20.2188,1579.168 19.7188,1579.918 Q19.2344,1580.668 19.2344,1581.6992 L19.2344,1582.793 Q19.2344,1584.0273 20.125,1584.8555 Q21.0156,1585.668 22.6094,1585.668 Q23.5469,1585.668 24.2031,1585.418 Q24.5938,1585.2617 25.0156,1584.8242 Q25.2813,1584.5586 25.4219,1584.4805 Q25.5781,1584.4023 25.7813,1584.4023 Q26.1094,1584.4023 26.3594,1584.668 Q26.625,1584.918 26.625,1585.2617 Q26.625,1585.6055 26.2813,1586.0117 Q25.7813,1586.5898 24.9844,1586.918 Q23.9063,1587.3711 22.6094,1587.3711 Q21.0938,1587.3711 19.8906,1586.7461 Q18.9063,1586.2461 18.2188,1585.1836 Q17.5313,1584.1055 17.5313,1582.8242 L17.5313,1581.668 Q17.5313,1580.3398 18.1406,1579.1992 Q18.7656,1578.043 19.8594,1577.4336 Q20.9531,1576.8086 22.1875,1576.8086 Q22.9219,1576.8086 23.5625,1576.9805 Q24.2188,1577.1367 24.7656,1577.4961 Z " fill="#000000"/><text fill="#000000" font-family="sans-serif" font-size="14" lengthAdjust="spacing" textLength="129" x="36" y="1587.418">NumberOfVacancies</text><line style="stroke:#181818;stroke-width:0.5;" x1="8" x2="167" y1="1597.6211" y2="1597.6211"/><rect fill="none" height="6" style="stroke:#C82930;stroke-width:1.0;" width="6" x="15" y="1609.4316"/><text fill="#000000" font-family="sans-serif" font-size="14" lengthAdjust="spacing" textLength="104" x="27" y="1616.7285">number : Integer</text><line style="stroke:#181818;stroke-width:0.5;" x1="8" x2="167" y1="1624.2422" y2="1624.2422"/></g><!--class Description--><g id="elem_Description"><rect codeLine="40" fill="#F1F1F1" height="66.6211" id="Description" rx="2.5" ry="2.5" style="stroke:#181818;stroke-width:0.5;" width="144" x="203.5" y="1565.6211"/><ellipse cx="236.95" cy="1581.6211" fill="#ADD1B2" rx="11" ry="11" style="stroke:#181818;stroke-width:1.0;"/><path d="M239.7156,1577.4961 Q239.8719,1577.2773 240.0594,1577.168 Q240.2469,1577.0586 240.4656,1577.0586 Q240.8406,1577.0586 241.075,1577.3242 Q241.3094,1577.5742 241.3094,1578.1836 L241.3094,1579.6367 Q241.3094,1580.2461 241.075,1580.5117 Q240.8406,1580.7773 240.4656,1580.7773 Q240.1219,1580.7773 239.9188,1580.5742 Q239.7156,1580.3867 239.6063,1579.8711 Q239.5594,1579.5117 239.3719,1579.3242 Q239.0438,1578.9492 238.4344,1578.7305 Q237.825,1578.5117 237.2,1578.5117 Q236.4344,1578.5117 235.7938,1578.8398 Q235.1688,1579.168 234.6688,1579.918 Q234.1844,1580.668 234.1844,1581.6992 L234.1844,1582.793 Q234.1844,1584.0273 235.075,1584.8555 Q235.9656,1585.668 237.5594,1585.668 Q238.4969,1585.668 239.1531,1585.418 Q239.5438,1585.2617 239.9656,1584.8242 Q240.2313,1584.5586 240.3719,1584.4805 Q240.5281,1584.4023 240.7313,1584.4023 Q241.0594,1584.4023 241.3094,1584.668 Q241.575,1584.918 241.575,1585.2617 Q241.575,1585.6055 241.2313,1586.0117 Q240.7313,1586.5898 239.9344,1586.918 Q238.8563,1587.3711 237.5594,1587.3711 Q236.0438,1587.3711 234.8406,1586.7461 Q233.8563,1586.2461 233.1688,1585.1836 Q232.4813,1584.1055 232.4813,1582.8242 L232.4813,1581.668 Q232.4813,1580.3398 233.0906,1579.1992 Q233.7156,1578.043 234.8094,1577.4336 Q235.9031,1576.8086 237.1375,1576.8086 Q237.8719,1576.8086 238.5125,1576.9805 Q239.1688,1577.1367 239.7156,1577.4961 Z " fill="#000000"/><text fill="#000000" font-family="sans-serif" font-size="14" lengthAdjust="spacing" textLength="71" x="255.05" y="1587.418">Description</text><line style="stroke:#181818;stroke-width:0.5;" x1="204.5" x2="346.5" y1="1597.6211" y2="1597.6211"/><rect fill="none" height="6" style="stroke:#C82930;stroke-width:1.0;" width="6" x="211.5" y="1609.4316"/><text fill="#000000" font-family="sans-serif" font-size="14" lengthAdjust="spacing" textLength="118" x="223.5" y="1616.7285">description : String</text><line style="stroke:#181818;stroke-width:0.5;" x1="204.5" x2="346.5" y1="1624.2422" y2="1624.2422"/></g><!--class JobReference--><g id="elem_JobReference"><rect codeLine="44" fill="#F1F1F1" height="85.2422" id="JobReference" rx="2.5" ry="2.5" style="stroke:#181818;stroke-width:0.5;" width="177" x="383" y="1556.6211"/><ellipse cx="423.65" cy="1572.6211" fill="#ADD1B2" rx="11" ry="11" style="stroke:#181818;stroke-width:1.0;"/><path d="M426.4156,1568.4961 Q426.5719,1568.2773 426.7594,1568.168 Q426.9469,1568.0586 427.1656,1568.0586 Q427.5406,1568.0586 427.775,1568.3242 Q428.0094,1568.5742 428.0094,1569.1836 L428.0094,1570.6367 Q428.0094,1571.2461 427.775,1571.5117 Q427.5406,1571.7773 427.1656,1571.7773 Q426.8219,1571.7773 426.6188,1571.5742 Q426.4156,1571.3867 426.3063,1570.8711 Q426.2594,1570.5117 426.0719,1570.3242 Q425.7438,1569.9492 425.1344,1569.7305 Q424.525,1569.5117 423.9,1569.5117 Q423.1344,1569.5117 422.4938,1569.8398 Q421.8688,1570.168 421.3688,1570.918 Q420.8844,1571.668 420.8844,1572.6992 L420.8844,1573.793 Q420.8844,1575.0273 421.775,1575.8555 Q422.6656,1576.668 424.2594,1576.668 Q425.1969,1576.668 425.8531,1576.418 Q426.2438,1576.2617 426.6656,1575.8242 Q426.9313,1575.5586 427.0719,1575.4805 Q427.2281,1575.4023 427.4313,1575.4023 Q427.7594,1575.4023 428.0094,1575.668 Q428.275,1575.918 428.275,1576.2617 Q428.275,1576.6055 427.9313,1577.0117 Q427.4313,1577.5898 426.6344,1577.918 Q425.5563,1578.3711 424.2594,1578.3711 Q422.7438,1578.3711 421.5406,1577.7461 Q420.5563,1577.2461 419.8688,1576.1836 Q419.1813,1575.1055 419.1813,1573.8242 L419.1813,1572.668 Q419.1813,1571.3398 419.7906,1570.1992 Q420.4156,1569.043 421.5094,1568.4336 Q422.6031,1567.8086 423.8375,1567.8086 Q424.5719,1567.8086 425.2125,1567.9805 Q425.8688,1568.1367 426.4156,1568.4961 Z " fill="#000000"/><text fill="#000000" font-family="sans-serif" font-size="14" lengthAdjust="spacing" textLength="88" x="443.35" y="1578.418">JobReference</text><line style="stroke:#181818;stroke-width:0.5;" x1="384" x2="559" y1="1588.6211" y2="1588.6211"/><rect fill="none" height="6" style="stroke:#C82930;stroke-width:1.0;" width="6" x="391" y="1600.4316"/><text fill="#000000" font-family="sans-serif" font-size="14" lengthAdjust="spacing" textLength="141" x="403" y="1607.7285">jobReference : Integer</text><line style="stroke:#181818;stroke-width:0.5;" x1="384" x2="559" y1="1615.2422" y2="1615.2422"/><ellipse cx="394" cy="1630.0527" fill="#84BE84" rx="3" ry="3" style="stroke:#038048;stroke-width:1.0;"/><text fill="#000000" font-family="sans-serif" font-size="14" lengthAdjust="spacing" textLength="151" x="403" y="1634.3496">jobReference() : Integer</text></g><!--class Address--><g id="elem_Address"><rect codeLine="49" fill="#F1F1F1" height="159.7266" id="Address" rx="2.5" ry="2.5" style="stroke:#181818;stroke-width:0.5;" width="247" x="765" y="1758.6211"/><ellipse cx="858.25" cy="1774.6211" fill="#ADD1B2" rx="11" ry="11" style="stroke:#181818;stroke-width:1.0;"/><path d="M861.0156,1770.4961 Q861.1719,1770.2773 861.3594,1770.168 Q861.5469,1770.0586 861.7656,1770.0586 Q862.1406,1770.0586 862.375,1770.3242 Q862.6094,1770.5742 862.6094,1771.1836 L862.6094,1772.6367 Q862.6094,1773.2461 862.375,1773.5117 Q862.1406,1773.7773 861.7656,1773.7773 Q861.4219,1773.7773 861.2188,1773.5742 Q861.0156,1773.3867 860.9063,1772.8711 Q860.8594,1772.5117 860.6719,1772.3242 Q860.3438,1771.9492 859.7344,1771.7305 Q859.125,1771.5117 858.5,1771.5117 Q857.7344,1771.5117 857.0938,1771.8398 Q856.4688,1772.168 855.9688,1772.918 Q855.4844,1773.668 855.4844,1774.6992 L855.4844,1775.793 Q855.4844,1777.0273 856.375,1777.8555 Q857.2656,1778.668 858.8594,1778.668 Q859.7969,1778.668 860.4531,1778.418 Q860.8438,1778.2617 861.2656,1777.8242 Q861.5313,1777.5586 861.6719,1777.4805 Q861.8281,1777.4023 862.0313,1777.4023 Q862.3594,1777.4023 862.6094,1777.668 Q862.875,1777.918 862.875,1778.2617 Q862.875,1778.6055 862.5313,1779.0117 Q862.0313,1779.5898 861.2344,1779.918 Q860.1563,1780.3711 858.8594,1780.3711 Q857.3438,1780.3711 856.1406,1779.7461 Q855.1563,1779.2461 854.4688,1778.1836 Q853.7813,1777.1055 853.7813,1775.8242 L853.7813,1774.668 Q853.7813,1773.3398 854.3906,1772.1992 Q855.0156,1771.043 856.1094,1770.4336 Q857.2031,1769.8086 858.4375,1769.8086 Q859.1719,1769.8086 859.8125,1769.9805 Q860.4688,1770.1367 861.0156,1770.4961 Z " fill="#000000"/><text fill="#000000" font-family="sans-serif" font-size="14" lengthAdjust="spacing" textLength="52" x="878.75" y="1780.418">Address</text><line style="stroke:#181818;stroke-width:0.5;" x1="766" x2="1011" y1="1790.6211" y2="1790.6211"/><rect fill="none" height="6" style="stroke:#C82930;stroke-width:1.0;" width="6" x="773" y="1802.4316"/><text fill="#000000" font-family="sans-serif" font-size="14" lengthAdjust="spacing" textLength="85" x="785" y="1809.7285">street : String</text><rect fill="none" height="6" style="stroke:#C82930;stroke-width:1.0;" width="6" x="773" y="1821.0527"/><text fill="#000000" font-family="sans-serif" font-size="14" lengthAdjust="spacing" textLength="70" x="785" y="1828.3496">city : String</text><rect fill="none" height="6" style="stroke:#C82930;stroke-width:1.0;" width="6" x="773" y="1839.6738"/><text fill="#000000" font-family="sans-serif" font-size="14" lengthAdjust="spacing" textLength="80" x="785" y="1846.9707">state : String</text><rect fill="none" height="6" style="stroke:#C82930;stroke-width:1.0;" width="6" x="773" y="1858.2949"/><text fill="#000000" font-family="sans-serif" font-size="14" lengthAdjust="spacing" textLength="96" x="785" y="1865.5918">country : String</text><rect fill="none" height="6" style="stroke:#C82930;stroke-width:1.0;" width="6" x="773" y="1876.916"/><text fill="#000000" font-family="sans-serif" font-size="14" lengthAdjust="spacing" textLength="97" x="785" y="1884.2129">zipcode : String</text><line style="stroke:#181818;stroke-width:0.5;" x1="766" x2="1011" y1="1891.7266" y2="1891.7266"/><rect fill="#F24D5C" height="6" style="stroke:#C82930;stroke-width:1.0;" width="6" x="773" y="1903.5371"/><text fill="#000000" font-family="sans-serif" font-size="14" lengthAdjust="spacing" textLength="221" x="785" y="1910.834">validateZipcode(zipcode) : Boolean</text></g><!--class Customer--><g id="elem_Customer"><rect codeLine="60" fill="#F1F1F1" height="196.9688" id="Customer" rx="2.5" ry="2.5" style="stroke:#181818;stroke-width:0.5;" width="306" x="1237.5" y="1500.6211"/><ellipse cx="1355.75" cy="1516.6211" fill="#ADD1B2" rx="11" ry="11" style="stroke:#181818;stroke-width:1.0;"/><path d="M1358.5156,1512.4961 Q1358.6719,1512.2773 1358.8594,1512.168 Q1359.0469,1512.0586 1359.2656,1512.0586 Q1359.6406,1512.0586 1359.875,1512.3242 Q1360.1094,1512.5742 1360.1094,1513.1836 L1360.1094,1514.6367 Q1360.1094,1515.2461 1359.875,1515.5117 Q1359.6406,1515.7773 1359.2656,1515.7773 Q1358.9219,1515.7773 1358.7188,1515.5742 Q1358.5156,1515.3867 1358.4063,1514.8711 Q1358.3594,1514.5117 1358.1719,1514.3242 Q1357.8438,1513.9492 1357.2344,1513.7305 Q1356.625,1513.5117 1356,1513.5117 Q1355.2344,1513.5117 1354.5938,1513.8398 Q1353.9688,1514.168 1353.4688,1514.918 Q1352.9844,1515.668 1352.9844,1516.6992 L1352.9844,1517.793 Q1352.9844,1519.0273 1353.875,1519.8555 Q1354.7656,1520.668 1356.3594,1520.668 Q1357.2969,1520.668 1357.9531,1520.418 Q1358.3438,1520.2617 1358.7656,1519.8242 Q1359.0313,1519.5586 1359.1719,1519.4805 Q1359.3281,1519.4023 1359.5313,1519.4023 Q1359.8594,1519.4023 1360.1094,1519.668 Q1360.375,1519.918 1360.375,1520.2617 Q1360.375,1520.6055 1360.0313,1521.0117 Q1359.5313,1521.5898 1358.7344,1521.918 Q1357.6563,1522.3711 1356.3594,1522.3711 Q1354.8438,1522.3711 1353.6406,1521.7461 Q1352.6563,1521.2461 1351.9688,1520.1836 Q1351.2813,1519.1055 1351.2813,1517.8242 L1351.2813,1516.668 Q1351.2813,1515.3398 1351.8906,1514.1992 Q1352.5156,1513.043 1353.6094,1512.4336 Q1354.7031,1511.8086 1355.9375,1511.8086 Q1356.6719,1511.8086 1357.3125,1511.9805 Q1357.9688,1512.1367 1358.5156,1512.4961 Z " fill="#000000"/><text fill="#000000" font-family="sans-serif" font-size="14" lengthAdjust="spacing" textLength="61" x="1376.25" y="1522.418">Customer</text><line style="stroke:#181818;stroke-width:0.5;" x1="1238.5" x2="1542.5" y1="1532.6211" y2="1532.6211"/><rect fill="none" height="6" style="stroke:#C82930;stroke-width:1.0;" width="6" x="1245.5" y="1544.4316"/><text fill="#000000" font-family="sans-serif" font-size="14" lengthAdjust="spacing" textLength="160" x="1257.5" y="1551.7285">systemUser : SystemUser</text><rect fill="none" height="6" style="stroke:#C82930;stroke-width:1.0;" width="6" x="1245.5" y="1563.0527"/><text fill="#000000" font-family="sans-serif" font-size="14" lengthAdjust="spacing" textLength="77" x="1257.5" y="1570.3496">code : Code</text><rect fill="none" height="6" style="stroke:#C82930;stroke-width:1.0;" width="6" x="1245.5" y="1581.6738"/><text fill="#000000" font-family="sans-serif" font-size="14" lengthAdjust="spacing" textLength="115" x="1257.5" y="1588.9707">address : Address</text><rect fill="none" height="6" style="stroke:#C82930;stroke-width:1.0;" width="6" x="1245.5" y="1600.2949"/><text fill="#000000" font-family="sans-serif" font-size="14" lengthAdjust="spacing" textLength="201" x="1257.5" y="1607.5918">customerManager : SystemUser</text><line style="stroke:#181818;stroke-width:0.5;" x1="1238.5" x2="1542.5" y1="1615.1055" y2="1615.1055"/><ellipse cx="1248.5" cy="1629.916" fill="#84BE84" rx="3" ry="3" style="stroke:#038048;stroke-width:1.0;"/><text fill="#000000" font-family="sans-serif" font-size="14" lengthAdjust="spacing" textLength="125" x="1257.5" y="1634.2129">user() : SystemUser</text><ellipse cx="1248.5" cy="1648.5371" fill="#84BE84" rx="3" ry="3" style="stroke:#038048;stroke-width:1.0;"/><text fill="#000000" font-family="sans-serif" font-size="14" lengthAdjust="spacing" textLength="89" x="1257.5" y="1652.834">getID() : Code</text><ellipse cx="1248.5" cy="1667.1582" fill="#84BE84" rx="3" ry="3" style="stroke:#038048;stroke-width:1.0;"/><text fill="#000000" font-family="sans-serif" font-size="14" lengthAdjust="spacing" textLength="125" x="1257.5" y="1671.4551">address() : Address</text><ellipse cx="1248.5" cy="1685.7793" fill="#84BE84" rx="3" ry="3" style="stroke:#038048;stroke-width:1.0;"/><text fill="#000000" font-family="sans-serif" font-size="14" lengthAdjust="spacing" textLength="280" x="1257.5" y="1690.0762">customerManagerAssociated() : SystemUser</text></g><!--class EmailAddress--><g id="elem_EmailAddress"><rect codeLine="72" fill="#F1F1F1" height="66.6211" id="EmailAddress" rx="2.5" ry="2.5" style="stroke:#181818;stroke-width:0.5;" width="118" x="1379.5" y="2007.1211"/><ellipse cx="1394.5" cy="2023.1211" fill="#ADD1B2" rx="11" ry="11" style="stroke:#181818;stroke-width:1.0;"/><path d="M1397.2656,2018.9961 Q1397.4219,2018.7773 1397.6094,2018.668 Q1397.7969,2018.5586 1398.0156,2018.5586 Q1398.3906,2018.5586 1398.625,2018.8242 Q1398.8594,2019.0742 1398.8594,2019.6836 L1398.8594,2021.1367 Q1398.8594,2021.7461 1398.625,2022.0117 Q1398.3906,2022.2773 1398.0156,2022.2773 Q1397.6719,2022.2773 1397.4688,2022.0742 Q1397.2656,2021.8867 1397.1563,2021.3711 Q1397.1094,2021.0117 1396.9219,2020.8242 Q1396.5938,2020.4492 1395.9844,2020.2305 Q1395.375,2020.0117 1394.75,2020.0117 Q1393.9844,2020.0117 1393.3438,2020.3398 Q1392.7188,2020.668 1392.2188,2021.418 Q1391.7344,2022.168 1391.7344,2023.1992 L1391.7344,2024.293 Q1391.7344,2025.5273 1392.625,2026.3555 Q1393.5156,2027.168 1395.1094,2027.168 Q1396.0469,2027.168 1396.7031,2026.918 Q1397.0938,2026.7617 1397.5156,2026.3242 Q1397.7813,2026.0586 1397.9219,2025.9805 Q1398.0781,2025.9023 1398.2813,2025.9023 Q1398.6094,2025.9023 1398.8594,2026.168 Q1399.125,2026.418 1399.125,2026.7617 Q1399.125,2027.1055 1398.7813,2027.5117 Q1398.2813,2028.0898 1397.4844,2028.418 Q1396.4063,2028.8711 1395.1094,2028.8711 Q1393.5938,2028.8711 1392.3906,2028.2461 Q1391.4063,2027.7461 1390.7188,2026.6836 Q1390.0313,2025.6055 1390.0313,2024.3242 L1390.0313,2023.168 Q1390.0313,2021.8398 1390.6406,2020.6992 Q1391.2656,2019.543 1392.3594,2018.9336 Q1393.4531,2018.3086 1394.6875,2018.3086 Q1395.4219,2018.3086 1396.0625,2018.4805 Q1396.7188,2018.6367 1397.2656,2018.9961 Z " fill="#000000"/><text fill="#000000" font-family="sans-serif" font-size="14" lengthAdjust="spacing" textLength="86" x="1408.5" y="2028.918">EmailAddress</text><line style="stroke:#181818;stroke-width:0.5;" x1="1380.5" x2="1496.5" y1="2039.1211" y2="2039.1211"/><rect fill="none" height="6" style="stroke:#C82930;stroke-width:1.0;" width="6" x="1387.5" y="2050.9316"/><text fill="#000000" font-family="sans-serif" font-size="14" lengthAdjust="spacing" textLength="82" x="1399.5" y="2058.2285">email : String</text><line style="stroke:#181818;stroke-width:0.5;" x1="1380.5" x2="1496.5" y1="2065.7422" y2="2065.7422"/></g><!--class Name--><g id="elem_Name"><rect codeLine="77" fill="#F1F1F1" height="122.4844" id="Name" rx="2.5" ry="2.5" style="stroke:#181818;stroke-width:0.5;" width="144" x="1532.5" y="1979.6211"/><ellipse cx="1582.25" cy="1995.6211" fill="#ADD1B2" rx="11" ry="11" style="stroke:#181818;stroke-width:1.0;"/><path d="M1585.0156,1991.4961 Q1585.1719,1991.2773 1585.3594,1991.168 Q1585.5469,1991.0586 1585.7656,1991.0586 Q1586.1406,1991.0586 1586.375,1991.3242 Q1586.6094,1991.5742 1586.6094,1992.1836 L1586.6094,1993.6367 Q1586.6094,1994.2461 1586.375,1994.5117 Q1586.1406,1994.7773 1585.7656,1994.7773 Q1585.4219,1994.7773 1585.2188,1994.5742 Q1585.0156,1994.3867 1584.9063,1993.8711 Q1584.8594,1993.5117 1584.6719,1993.3242 Q1584.3438,1992.9492 1583.7344,1992.7305 Q1583.125,1992.5117 1582.5,1992.5117 Q1581.7344,1992.5117 1581.0938,1992.8398 Q1580.4688,1993.168 1579.9688,1993.918 Q1579.4844,1994.668 1579.4844,1995.6992 L1579.4844,1996.793 Q1579.4844,1998.0273 1580.375,1998.8555 Q1581.2656,1999.668 1582.8594,1999.668 Q1583.7969,1999.668 1584.4531,1999.418 Q1584.8438,1999.2617 1585.2656,1998.8242 Q1585.5313,1998.5586 1585.6719,1998.4805 Q1585.8281,1998.4023 1586.0313,1998.4023 Q1586.3594,1998.4023 1586.6094,1998.668 Q1586.875,1998.918 1586.875,1999.2617 Q1586.875,1999.6055 1586.5313,2000.0117 Q1586.0313,2000.5898 1585.2344,2000.918 Q1584.1563,2001.3711 1582.8594,2001.3711 Q1581.3438,2001.3711 1580.1406,2000.7461 Q1579.1563,2000.2461 1578.4688,1999.1836 Q1577.7813,1998.1055 1577.7813,1996.8242 L1577.7813,1995.668 Q1577.7813,1994.3398 1578.3906,1993.1992 Q1579.0156,1992.043 1580.1094,1991.4336 Q1581.2031,1990.8086 1582.4375,1990.8086 Q1583.1719,1990.8086 1583.8125,1990.9805 Q1584.4688,1991.1367 1585.0156,1991.4961 Z " fill="#000000"/><text fill="#000000" font-family="sans-serif" font-size="14" lengthAdjust="spacing" textLength="36" x="1602.75" y="2001.418">Name</text><line style="stroke:#181818;stroke-width:0.5;" x1="1533.5" x2="1675.5" y1="2011.6211" y2="2011.6211"/><rect fill="none" height="6" style="stroke:#C82930;stroke-width:1.0;" width="6" x="1540.5" y="2023.4316"/><text fill="#000000" font-family="sans-serif" font-size="14" lengthAdjust="spacing" textLength="108" x="1552.5" y="2030.7285">firstName : String</text><rect fill="none" height="6" style="stroke:#C82930;stroke-width:1.0;" width="6" x="1540.5" y="2042.0527"/><text fill="#000000" font-family="sans-serif" font-size="14" lengthAdjust="spacing" textLength="107" x="1552.5" y="2049.3496">lastName : String</text><line style="stroke:#181818;stroke-width:0.5;" x1="1533.5" x2="1675.5" y1="2056.8633" y2="2056.8633"/><ellipse cx="1543.5" cy="2071.6738" fill="#84BE84" rx="3" ry="3" style="stroke:#038048;stroke-width:1.0;"/><text fill="#000000" font-family="sans-serif" font-size="14" lengthAdjust="spacing" textLength="118" x="1552.5" y="2075.9707">firstName() : String</text><ellipse cx="1543.5" cy="2090.2949" fill="#84BE84" rx="3" ry="3" style="stroke:#038048;stroke-width:1.0;"/><text fill="#000000" font-family="sans-serif" font-size="14" lengthAdjust="spacing" textLength="117" x="1552.5" y="2094.5918">lastName() : String</text></g><!--class Code--><g id="elem_Code"><rect codeLine="84" fill="#F1F1F1" height="85.2422" id="Code" rx="2.5" ry="2.5" style="stroke:#181818;stroke-width:0.5;" width="139" x="1264" y="1796.1211"/><ellipse cx="1312.25" cy="1812.1211" fill="#ADD1B2" rx="11" ry="11" style="stroke:#181818;stroke-width:1.0;"/><path d="M1315.0156,1807.9961 Q1315.1719,1807.7773 1315.3594,1807.668 Q1315.5469,1807.5586 1315.7656,1807.5586 Q1316.1406,1807.5586 1316.375,1807.8242 Q1316.6094,1808.0742 1316.6094,1808.6836 L1316.6094,1810.1367 Q1316.6094,1810.7461 1316.375,1811.0117 Q1316.1406,1811.2773 1315.7656,1811.2773 Q1315.4219,1811.2773 1315.2188,1811.0742 Q1315.0156,1810.8867 1314.9063,1810.3711 Q1314.8594,1810.0117 1314.6719,1809.8242 Q1314.3438,1809.4492 1313.7344,1809.2305 Q1313.125,1809.0117 1312.5,1809.0117 Q1311.7344,1809.0117 1311.0938,1809.3398 Q1310.4688,1809.668 1309.9688,1810.418 Q1309.4844,1811.168 1309.4844,1812.1992 L1309.4844,1813.293 Q1309.4844,1814.5273 1310.375,1815.3555 Q1311.2656,1816.168 1312.8594,1816.168 Q1313.7969,1816.168 1314.4531,1815.918 Q1314.8438,1815.7617 1315.2656,1815.3242 Q1315.5313,1815.0586 1315.6719,1814.9805 Q1315.8281,1814.9023 1316.0313,1814.9023 Q1316.3594,1814.9023 1316.6094,1815.168 Q1316.875,1815.418 1316.875,1815.7617 Q1316.875,1816.1055 1316.5313,1816.5117 Q1316.0313,1817.0898 1315.2344,1817.418 Q1314.1563,1817.8711 1312.8594,1817.8711 Q1311.3438,1817.8711 1310.1406,1817.2461 Q1309.1563,1816.7461 1308.4688,1815.6836 Q1307.7813,1814.6055 1307.7813,1813.3242 L1307.7813,1812.168 Q1307.7813,1810.8398 1308.3906,1809.6992 Q1309.0156,1808.543 1310.1094,1807.9336 Q1311.2031,1807.3086 1312.4375,1807.3086 Q1313.1719,1807.3086 1313.8125,1807.4805 Q1314.4688,1807.6367 1315.0156,1807.9961 Z " fill="#000000"/><text fill="#000000" font-family="sans-serif" font-size="14" lengthAdjust="spacing" textLength="34" x="1332.75" y="1817.918">Code</text><line style="stroke:#181818;stroke-width:0.5;" x1="1265" x2="1402" y1="1828.1211" y2="1828.1211"/><rect fill="none" height="6" style="stroke:#C82930;stroke-width:1.0;" width="6" x="1272" y="1839.9316"/><text fill="#000000" font-family="sans-serif" font-size="14" lengthAdjust="spacing" textLength="80" x="1284" y="1847.2285">code : String</text><line style="stroke:#181818;stroke-width:0.5;" x1="1265" x2="1402" y1="1854.7422" y2="1854.7422"/><ellipse cx="1275" cy="1869.5527" fill="#84BE84" rx="3" ry="3" style="stroke:#038048;stroke-width:1.0;"/><text fill="#000000" font-family="sans-serif" font-size="14" lengthAdjust="spacing" textLength="113" x="1284" y="1873.8496">getCode() : String</text></g><!--class SystemUser--><g id="elem_SystemUser"><rect codeLine="90" fill="#F1F1F1" height="122.4844" id="SystemUser" rx="2.5" ry="2.5" style="stroke:#181818;stroke-width:0.5;" width="167" x="1438" y="1777.6211"/><ellipse cx="1480" cy="1793.6211" fill="#ADD1B2" rx="11" ry="11" style="stroke:#181818;stroke-width:1.0;"/><path d="M1482.7656,1789.4961 Q1482.9219,1789.2773 1483.1094,1789.168 Q1483.2969,1789.0586 1483.5156,1789.0586 Q1483.8906,1789.0586 1484.125,1789.3242 Q1484.3594,1789.5742 1484.3594,1790.1836 L1484.3594,1791.6367 Q1484.3594,1792.2461 1484.125,1792.5117 Q1483.8906,1792.7773 1483.5156,1792.7773 Q1483.1719,1792.7773 1482.9688,1792.5742 Q1482.7656,1792.3867 1482.6563,1791.8711 Q1482.6094,1791.5117 1482.4219,1791.3242 Q1482.0938,1790.9492 1481.4844,1790.7305 Q1480.875,1790.5117 1480.25,1790.5117 Q1479.4844,1790.5117 1478.8438,1790.8398 Q1478.2188,1791.168 1477.7188,1791.918 Q1477.2344,1792.668 1477.2344,1793.6992 L1477.2344,1794.793 Q1477.2344,1796.0273 1478.125,1796.8555 Q1479.0156,1797.668 1480.6094,1797.668 Q1481.5469,1797.668 1482.2031,1797.418 Q1482.5938,1797.2617 1483.0156,1796.8242 Q1483.2813,1796.5586 1483.4219,1796.4805 Q1483.5781,1796.4023 1483.7813,1796.4023 Q1484.1094,1796.4023 1484.3594,1796.668 Q1484.625,1796.918 1484.625,1797.2617 Q1484.625,1797.6055 1484.2813,1798.0117 Q1483.7813,1798.5898 1482.9844,1798.918 Q1481.9063,1799.3711 1480.6094,1799.3711 Q1479.0938,1799.3711 1477.8906,1798.7461 Q1476.9063,1798.2461 1476.2188,1797.1836 Q1475.5313,1796.1055 1475.5313,1794.8242 L1475.5313,1793.668 Q1475.5313,1792.3398 1476.1406,1791.1992 Q1476.7656,1790.043 1477.8594,1789.4336 Q1478.9531,1788.8086 1480.1875,1788.8086 Q1480.9219,1788.8086 1481.5625,1788.9805 Q1482.2188,1789.1367 1482.7656,1789.4961 Z " fill="#000000"/><text fill="#000000" font-family="sans-serif" font-size="14" lengthAdjust="spacing" textLength="75" x="1500" y="1799.418">SystemUser</text><line style="stroke:#181818;stroke-width:0.5;" x1="1439" x2="1604" y1="1809.6211" y2="1809.6211"/><rect fill="none" height="6" style="stroke:#C82930;stroke-width:1.0;" width="6" x="1446" y="1821.4316"/><text fill="#000000" font-family="sans-serif" font-size="14" lengthAdjust="spacing" textLength="83" x="1458" y="1828.7285">name : Name</text><rect fill="none" height="6" style="stroke:#C82930;stroke-width:1.0;" width="6" x="1446" y="1840.0527"/><text fill="#000000" font-family="sans-serif" font-size="14" lengthAdjust="spacing" textLength="131" x="1458" y="1847.3496">email : EmailAddress</text><line style="stroke:#181818;stroke-width:0.5;" x1="1439" x2="1604" y1="1854.8633" y2="1854.8633"/><ellipse cx="1449" cy="1869.6738" fill="#84BE84" rx="3" ry="3" style="stroke:#038048;stroke-width:1.0;"/><text fill="#000000" font-family="sans-serif" font-size="14" lengthAdjust="spacing" textLength="141" x="1458" y="1873.9707">email() : EmailAddress</text><ellipse cx="1449" cy="1888.2949" fill="#84BE84" rx="3" ry="3" style="stroke:#038048;stroke-width:1.0;"/><text fill="#000000" font-family="sans-serif" font-size="14" lengthAdjust="spacing" textLength="93" x="1458" y="1892.5918">name() : Name</text></g><!--class Mode--><g id="elem_Mode"><rect codeLine="98" fill="#F1F1F1" height="85.2422" id="Mode" rx="2.5" ry="2.5" style="stroke:#181818;stroke-width:0.5;" width="142" x="867.5" y="1556.6211"/><ellipse cx="916.75" cy="1572.6211" fill="#ADD1B2" rx="11" ry="11" style="stroke:#181818;stroke-width:1.0;"/><path d="M919.5156,1568.4961 Q919.6719,1568.2773 919.8594,1568.168 Q920.0469,1568.0586 920.2656,1568.0586 Q920.6406,1568.0586 920.875,1568.3242 Q921.1094,1568.5742 921.1094,1569.1836 L921.1094,1570.6367 Q921.1094,1571.2461 920.875,1571.5117 Q920.6406,1571.7773 920.2656,1571.7773 Q919.9219,1571.7773 919.7188,1571.5742 Q919.5156,1571.3867 919.4063,1570.8711 Q919.3594,1570.5117 919.1719,1570.3242 Q918.8438,1569.9492 918.2344,1569.7305 Q917.625,1569.5117 917,1569.5117 Q916.2344,1569.5117 915.5938,1569.8398 Q914.9688,1570.168 914.4688,1570.918 Q913.9844,1571.668 913.9844,1572.6992 L913.9844,1573.793 Q913.9844,1575.0273 914.875,1575.8555 Q915.7656,1576.668 917.3594,1576.668 Q918.2969,1576.668 918.9531,1576.418 Q919.3438,1576.2617 919.7656,1575.8242 Q920.0313,1575.5586 920.1719,1575.4805 Q920.3281,1575.4023 920.5313,1575.4023 Q920.8594,1575.4023 921.1094,1575.668 Q921.375,1575.918 921.375,1576.2617 Q921.375,1576.6055 921.0313,1577.0117 Q920.5313,1577.5898 919.7344,1577.918 Q918.6563,1578.3711 917.3594,1578.3711 Q915.8438,1578.3711 914.6406,1577.7461 Q913.6563,1577.2461 912.9688,1576.1836 Q912.2813,1575.1055 912.2813,1573.8242 L912.2813,1572.668 Q912.2813,1571.3398 912.8906,1570.1992 Q913.5156,1569.043 914.6094,1568.4336 Q915.7031,1567.8086 916.9375,1567.8086 Q917.6719,1567.8086 918.3125,1567.9805 Q918.9688,1568.1367 919.5156,1568.4961 Z " fill="#000000"/><text fill="#000000" font-family="sans-serif" font-size="14" lengthAdjust="spacing" textLength="35" x="937.25" y="1578.418">Mode</text><line style="stroke:#181818;stroke-width:0.5;" x1="868.5" x2="1008.5" y1="1588.6211" y2="1588.6211"/><rect fill="none" height="6" style="stroke:#C82930;stroke-width:1.0;" width="6" x="875.5" y="1600.4316"/><text fill="#000000" font-family="sans-serif" font-size="14" lengthAdjust="spacing" textLength="106" x="887.5" y="1607.7285">modeDescription</text><line style="stroke:#181818;stroke-width:0.5;" x1="868.5" x2="1008.5" y1="1615.2422" y2="1615.2422"/><ellipse cx="878.5" cy="1630.0527" fill="#84BE84" rx="3" ry="3" style="stroke:#038048;stroke-width:1.0;"/><text fill="#000000" font-family="sans-serif" font-size="14" lengthAdjust="spacing" textLength="116" x="887.5" y="1634.3496">modeDescription()</text></g><!--class ContractType--><g id="elem_ContractType"><rect codeLine="103" fill="#F1F1F1" height="85.2422" id="ContractType" rx="2.5" ry="2.5" style="stroke:#181818;stroke-width:0.5;" width="158" x="1044.5" y="1556.6211"/><ellipse cx="1077.5" cy="1572.6211" fill="#ADD1B2" rx="11" ry="11" style="stroke:#181818;stroke-width:1.0;"/><path d="M1080.2656,1568.4961 Q1080.4219,1568.2773 1080.6094,1568.168 Q1080.7969,1568.0586 1081.0156,1568.0586 Q1081.3906,1568.0586 1081.625,1568.3242 Q1081.8594,1568.5742 1081.8594,1569.1836 L1081.8594,1570.6367 Q1081.8594,1571.2461 1081.625,1571.5117 Q1081.3906,1571.7773 1081.0156,1571.7773 Q1080.6719,1571.7773 1080.4688,1571.5742 Q1080.2656,1571.3867 1080.1563,1570.8711 Q1080.1094,1570.5117 1079.9219,1570.3242 Q1079.5938,1569.9492 1078.9844,1569.7305 Q1078.375,1569.5117 1077.75,1569.5117 Q1076.9844,1569.5117 1076.3438,1569.8398 Q1075.7188,1570.168 1075.2188,1570.918 Q1074.7344,1571.668 1074.7344,1572.6992 L1074.7344,1573.793 Q1074.7344,1575.0273 1075.625,1575.8555 Q1076.5156,1576.668 1078.1094,1576.668 Q1079.0469,1576.668 1079.7031,1576.418 Q1080.0938,1576.2617 1080.5156,1575.8242 Q1080.7813,1575.5586 1080.9219,1575.4805 Q1081.0781,1575.4023 1081.2813,1575.4023 Q1081.6094,1575.4023 1081.8594,1575.668 Q1082.125,1575.918 1082.125,1576.2617 Q1082.125,1576.6055 1081.7813,1577.0117 Q1081.2813,1577.5898 1080.4844,1577.918 Q1079.4063,1578.3711 1078.1094,1578.3711 Q1076.5938,1578.3711 1075.3906,1577.7461 Q1074.4063,1577.2461 1073.7188,1576.1836 Q1073.0313,1575.1055 1073.0313,1573.8242 L1073.0313,1572.668 Q1073.0313,1571.3398 1073.6406,1570.1992 Q1074.2656,1569.043 1075.3594,1568.4336 Q1076.4531,1567.8086 1077.6875,1567.8086 Q1078.4219,1567.8086 1079.0625,1567.9805 Q1079.7188,1568.1367 1080.2656,1568.4961 Z " fill="#000000"/><text fill="#000000" font-family="sans-serif" font-size="14" lengthAdjust="spacing" textLength="86" x="1095.5" y="1578.418">ContractType</text><line style="stroke:#181818;stroke-width:0.5;" x1="1045.5" x2="1201.5" y1="1588.6211" y2="1588.6211"/><rect fill="none" height="6" style="stroke:#C82930;stroke-width:1.0;" width="6" x="1052.5" y="1600.4316"/><text fill="#000000" font-family="sans-serif" font-size="14" lengthAdjust="spacing" textLength="132" x="1064.5" y="1607.7285">contractType : String</text><line style="stroke:#181818;stroke-width:0.5;" x1="1045.5" x2="1201.5" y1="1615.2422" y2="1615.2422"/><ellipse cx="1055.5" cy="1630.0527" fill="#84BE84" rx="3" ry="3" style="stroke:#038048;stroke-width:1.0;"/><text fill="#000000" font-family="sans-serif" font-size="14" lengthAdjust="spacing" textLength="93" x="1064.5" y="1634.3496">contractType()</text></g><!--class ListJobOpeningUI--><g id="elem_ListJobOpeningUI"><rect codeLine="110" fill="#F1F1F1" height="141.1055" id="ListJobOpeningUI" rx="2.5" ry="2.5" style="stroke:#181818;stroke-width:0.5;" width="403" x="866" y="46.6211"/><ellipse cx="1008.25" cy="62.6211" fill="#ADD1B2" rx="11" ry="11" style="stroke:#181818;stroke-width:1.0;"/><path d="M1011.0156,58.4961 Q1011.1719,58.2773 1011.3594,58.168 Q1011.5469,58.0586 1011.7656,58.0586 Q1012.1406,58.0586 1012.375,58.3242 Q1012.6094,58.5742 1012.6094,59.1836 L1012.6094,60.6367 Q1012.6094,61.2461 1012.375,61.5117 Q1012.1406,61.7773 1011.7656,61.7773 Q1011.4219,61.7773 1011.2188,61.5742 Q1011.0156,61.3867 1010.9063,60.8711 Q1010.8594,60.5117 1010.6719,60.3242 Q1010.3438,59.9492 1009.7344,59.7305 Q1009.125,59.5117 1008.5,59.5117 Q1007.7344,59.5117 1007.0938,59.8398 Q1006.4688,60.168 1005.9688,60.918 Q1005.4844,61.668 1005.4844,62.6992 L1005.4844,63.793 Q1005.4844,65.0273 1006.375,65.8555 Q1007.2656,66.668 1008.8594,66.668 Q1009.7969,66.668 1010.4531,66.418 Q1010.8438,66.2617 1011.2656,65.8242 Q1011.5313,65.5586 1011.6719,65.4805 Q1011.8281,65.4023 1012.0313,65.4023 Q1012.3594,65.4023 1012.6094,65.668 Q1012.875,65.918 1012.875,66.2617 Q1012.875,66.6055 1012.5313,67.0117 Q1012.0313,67.5898 1011.2344,67.918 Q1010.1563,68.3711 1008.8594,68.3711 Q1007.3438,68.3711 1006.1406,67.7461 Q1005.1563,67.2461 1004.4688,66.1836 Q1003.7813,65.1055 1003.7813,63.8242 L1003.7813,62.668 Q1003.7813,61.3398 1004.3906,60.1992 Q1005.0156,59.043 1006.1094,58.4336 Q1007.2031,57.8086 1008.4375,57.8086 Q1009.1719,57.8086 1009.8125,57.9805 Q1010.4688,58.1367 1011.0156,58.4961 Z " fill="#000000"/><text fill="#000000" font-family="sans-serif" font-size="14" lengthAdjust="spacing" textLength="110" x="1028.75" y="68.418">ListJobOpeningUI</text><line style="stroke:#181818;stroke-width:0.5;" x1="867" x2="1268" y1="78.6211" y2="78.6211"/><line style="stroke:#181818;stroke-width:0.5;" x1="867" x2="1268" y1="86.6211" y2="86.6211"/><text fill="#000000" font-family="sans-serif" font-size="14" lengthAdjust="spacing" textLength="181" x="872" y="105.7285">selectCustomer() : Customer</text><text fill="#000000" font-family="sans-serif" font-size="14" lengthAdjust="spacing" textLength="195" x="872" y="124.3496">selectRegistrationDate() : Date</text><text fill="#000000" font-family="sans-serif" font-size="14" lengthAdjust="spacing" textLength="360" x="872" y="142.9707">displayJobOpenings(Iterable&lt;JobOpening&gt; jobOpenings)</text><text fill="#000000" font-family="sans-serif" font-size="14" lengthAdjust="spacing" textLength="391" x="872" y="161.5918">displayCustomerMenu(List&lt;Customer&gt; customers) : Customer</text><text fill="#000000" font-family="sans-serif" font-size="14" lengthAdjust="spacing" textLength="387" x="872" y="180.2129">displayRegisterDates(List&lt;Calendar&gt; registrationDate) : Date</text></g><!--class ListJobOpeningController--><g id="elem_ListJobOpeningController"><rect codeLine="118" fill="#F1F1F1" height="159.7266" id="ListJobOpeningController" rx="2.5" ry="2.5" style="stroke:#181818;stroke-width:0.5;" width="561" x="787" y="248.6211"/><ellipse cx="983.25" cy="264.6211" fill="#ADD1B2" rx="11" ry="11" style="stroke:#181818;stroke-width:1.0;"/><path d="M986.0156,260.4961 Q986.1719,260.2773 986.3594,260.168 Q986.5469,260.0586 986.7656,260.0586 Q987.1406,260.0586 987.375,260.3242 Q987.6094,260.5742 987.6094,261.1836 L987.6094,262.6367 Q987.6094,263.2461 987.375,263.5117 Q987.1406,263.7773 986.7656,263.7773 Q986.4219,263.7773 986.2188,263.5742 Q986.0156,263.3867 985.9063,262.8711 Q985.8594,262.5117 985.6719,262.3242 Q985.3438,261.9492 984.7344,261.7305 Q984.125,261.5117 983.5,261.5117 Q982.7344,261.5117 982.0938,261.8398 Q981.4688,262.168 980.9688,262.918 Q980.4844,263.668 980.4844,264.6992 L980.4844,265.793 Q980.4844,267.0273 981.375,267.8555 Q982.2656,268.668 983.8594,268.668 Q984.7969,268.668 985.4531,268.418 Q985.8438,268.2617 986.2656,267.8242 Q986.5313,267.5586 986.6719,267.4805 Q986.8281,267.4023 987.0313,267.4023 Q987.3594,267.4023 987.6094,267.668 Q987.875,267.918 987.875,268.2617 Q987.875,268.6055 987.5313,269.0117 Q987.0313,269.5898 986.2344,269.918 Q985.1563,270.3711 983.8594,270.3711 Q982.3438,270.3711 981.1406,269.7461 Q980.1563,269.2461 979.4688,268.1836 Q978.7813,267.1055 978.7813,265.8242 L978.7813,264.668 Q978.7813,263.3398 979.3906,262.1992 Q980.0156,261.043 981.1094,260.4336 Q982.2031,259.8086 983.4375,259.8086 Q984.1719,259.8086 984.8125,259.9805 Q985.4688,260.1367 986.0156,260.4961 Z " fill="#000000"/><text fill="#000000" font-family="sans-serif" font-size="14" lengthAdjust="spacing" textLength="160" x="1003.75" y="270.418">ListJobOpeningController</text><line style="stroke:#181818;stroke-width:0.5;" x1="788" x2="1347" y1="280.6211" y2="280.6211"/><line style="stroke:#181818;stroke-width:0.5;" x1="788" x2="1347" y1="288.6211" y2="288.6211"/><ellipse cx="798" cy="303.4316" fill="#84BE84" rx="3" ry="3" style="stroke:#038048;stroke-width:1.0;"/><text fill="#000000" font-family="sans-serif" font-size="14" lengthAdjust="spacing" textLength="258" x="807" y="307.7285">allJobOpenings() : Iterable&lt;JobOpening&gt;</text><ellipse cx="798" cy="322.0527" fill="#84BE84" rx="3" ry="3" style="stroke:#038048;stroke-width:1.0;"/><text fill="#000000" font-family="sans-serif" font-size="14" lengthAdjust="spacing" textLength="293" x="807" y="326.3496">allJobOpeningRegistrationDates() : List&lt;Date&gt;</text><ellipse cx="798" cy="340.6738" fill="#84BE84" rx="3" ry="3" style="stroke:#038048;stroke-width:1.0;"/><text fill="#000000" font-family="sans-serif" font-size="14" lengthAdjust="spacing" textLength="337" x="807" y="344.9707">filterJobOpeningsBySystemUser() : List&lt;JobOpening&gt;</text><ellipse cx="798" cy="359.2949" fill="#84BE84" rx="3" ry="3" style="stroke:#038048;stroke-width:1.0;"/><text fill="#000000" font-family="sans-serif" font-size="14" lengthAdjust="spacing" textLength="307" x="807" y="363.5918">filterCustomersBySystemUser() : List&lt;Customer&gt;</text><ellipse cx="798" cy="377.916" fill="#84BE84" rx="3" ry="3" style="stroke:#038048;stroke-width:1.0;"/><text fill="#000000" font-family="sans-serif" font-size="14" lengthAdjust="spacing" textLength="446" x="807" y="382.2129">filterJobOpeningsByCustomer(Customer customer) : List&lt;JobOpening&gt;</text><ellipse cx="798" cy="396.5371" fill="#84BE84" rx="3" ry="3" style="stroke:#038048;stroke-width:1.0;"/><text fill="#000000" font-family="sans-serif" font-size="14" lengthAdjust="spacing" textLength="535" x="807" y="400.834">filterJobOpeningsByRegistrationDate(Calendar registrationDate) :  List&lt;JobOpening&gt;</text></g><!--class PersistenceContext--><g id="elem_PersistenceContext"><rect codeLine="128" fill="#F1F1F1" height="66.6211" id="PersistenceContext" rx="2.5" ry="2.5" style="stroke:#181818;stroke-width:0.5;" width="154" x="990.5" y="469.6211"/><ellipse cx="1005.5" cy="485.6211" fill="#ADD1B2" rx="11" ry="11" style="stroke:#181818;stroke-width:1.0;"/><path d="M1008.2656,481.4961 Q1008.4219,481.2773 1008.6094,481.168 Q1008.7969,481.0586 1009.0156,481.0586 Q1009.3906,481.0586 1009.625,481.3242 Q1009.8594,481.5742 1009.8594,482.1836 L1009.8594,483.6367 Q1009.8594,484.2461 1009.625,484.5117 Q1009.3906,484.7773 1009.0156,484.7773 Q1008.6719,484.7773 1008.4688,484.5742 Q1008.2656,484.3867 1008.1563,483.8711 Q1008.1094,483.5117 1007.9219,483.3242 Q1007.5938,482.9492 1006.9844,482.7305 Q1006.375,482.5117 1005.75,482.5117 Q1004.9844,482.5117 1004.3438,482.8398 Q1003.7188,483.168 1003.2188,483.918 Q1002.7344,484.668 1002.7344,485.6992 L1002.7344,486.793 Q1002.7344,488.0273 1003.625,488.8555 Q1004.5156,489.668 1006.1094,489.668 Q1007.0469,489.668 1007.7031,489.418 Q1008.0938,489.2617 1008.5156,488.8242 Q1008.7813,488.5586 1008.9219,488.4805 Q1009.0781,488.4023 1009.2813,488.4023 Q1009.6094,488.4023 1009.8594,488.668 Q1010.125,488.918 1010.125,489.2617 Q1010.125,489.6055 1009.7813,490.0117 Q1009.2813,490.5898 1008.4844,490.918 Q1007.4063,491.3711 1006.1094,491.3711 Q1004.5938,491.3711 1003.3906,490.7461 Q1002.4063,490.2461 1001.7188,489.1836 Q1001.0313,488.1055 1001.0313,486.8242 L1001.0313,485.668 Q1001.0313,484.3398 1001.6406,483.1992 Q1002.2656,482.043 1003.3594,481.4336 Q1004.4531,480.8086 1005.6875,480.8086 Q1006.4219,480.8086 1007.0625,480.9805 Q1007.7188,481.1367 1008.2656,481.4961 Z " fill="#000000"/><text fill="#000000" font-family="sans-serif" font-size="14" lengthAdjust="spacing" textLength="122" x="1019.5" y="491.418">PersistenceContext</text><line style="stroke:#181818;stroke-width:0.5;" x1="991.5" x2="1143.5" y1="501.6211" y2="501.6211"/><line style="stroke:#181818;stroke-width:0.5;" x1="991.5" x2="1143.5" y1="509.6211" y2="509.6211"/><ellipse cx="1001.5" cy="524.4316" fill="#84BE84" rx="3" ry="3" style="stroke:#038048;stroke-width:1.0;"/><text fill="#000000" font-family="sans-serif" font-size="14" lengthAdjust="spacing" textLength="84" x="1010.5" y="528.7285">repositories()</text></g><!--class RepositoryFactory--><g id="elem_RepositoryFactory"><rect codeLine="132" fill="#F1F1F1" height="122.4844" id="RepositoryFactory" rx="2.5" ry="2.5" style="stroke:#181818;stroke-width:0.5;" width="268" x="933.5" y="597.6211"/><ellipse cx="1005.25" cy="613.6211" fill="#B4A7E5" rx="11" ry="11" style="stroke:#181818;stroke-width:1.0;"/><path d="M1006.2031,610.2617 L1006.2031,616.918 L1007.9219,616.918 Q1008.5313,616.918 1008.7969,617.1523 Q1009.0625,617.3867 1009.0625,617.7773 Q1009.0625,618.1523 1008.7969,618.3867 Q1008.5313,618.6211 1007.9219,618.6211 L1002.7813,618.6211 Q1002.1719,618.6211 1001.9063,618.3867 Q1001.6406,618.1523 1001.6406,617.7617 Q1001.6406,617.3867 1001.9063,617.1523 Q1002.1719,616.918 1002.7813,616.918 L1004.5,616.918 L1004.5,610.2617 L1002.7813,610.2617 Q1002.1719,610.2617 1001.9063,610.0273 Q1001.6406,609.793 1001.6406,609.4023 Q1001.6406,609.0273 1001.9063,608.793 Q1002.1719,608.5586 1002.7813,608.5586 L1007.9219,608.5586 Q1008.5313,608.5586 1008.7969,608.793 Q1009.0625,609.0273 1009.0625,609.4023 Q1009.0625,609.793 1008.7969,610.0273 Q1008.5313,610.2617 1007.9219,610.2617 L1006.2031,610.2617 Z " fill="#000000"/><text fill="#000000" font-family="sans-serif" font-size="14" font-style="italic" lengthAdjust="spacing" textLength="116" x="1025.75" y="619.418">RepositoryFactory</text><line style="stroke:#181818;stroke-width:0.5;" x1="934.5" x2="1200.5" y1="629.6211" y2="629.6211"/><line style="stroke:#181818;stroke-width:0.5;" x1="934.5" x2="1200.5" y1="637.6211" y2="637.6211"/><text fill="#000000" font-family="sans-serif" font-size="14" lengthAdjust="spacing" textLength="90" x="939.5" y="656.7285">jobOpenings()</text><text fill="#000000" font-family="sans-serif" font-size="14" lengthAdjust="spacing" textLength="238" x="939.5" y="675.3496">jobOpenings(TransactionalContext tx)</text><text fill="#000000" font-family="sans-serif" font-size="14" lengthAdjust="spacing" textLength="75" x="939.5" y="693.9707">customers()</text><text fill="#000000" font-family="sans-serif" font-size="14" lengthAdjust="spacing" textLength="256" x="939.5" y="712.5918">customers(TransactionalContext autoTx)</text></g><!--class CustomerRepository--><g id="elem_CustomerRepository"><rect codeLine="139" fill="#F1F1F1" height="66.6211" id="CustomerRepository" rx="2.5" ry="2.5" style="stroke:#181818;stroke-width:0.5;" width="161" x="1174" y="789.6211"/><ellipse cx="1189" cy="805.6211" fill="#B4A7E5" rx="11" ry="11" style="stroke:#181818;stroke-width:1.0;"/><path d="M1189.9531,802.2617 L1189.9531,808.918 L1191.6719,808.918 Q1192.2813,808.918 1192.5469,809.1523 Q1192.8125,809.3867 1192.8125,809.7773 Q1192.8125,810.1523 1192.5469,810.3867 Q1192.2813,810.6211 1191.6719,810.6211 L1186.5313,810.6211 Q1185.9219,810.6211 1185.6563,810.3867 Q1185.3906,810.1523 1185.3906,809.7617 Q1185.3906,809.3867 1185.6563,809.1523 Q1185.9219,808.918 1186.5313,808.918 L1188.25,808.918 L1188.25,802.2617 L1186.5313,802.2617 Q1185.9219,802.2617 1185.6563,802.0273 Q1185.3906,801.793 1185.3906,801.4023 Q1185.3906,801.0273 1185.6563,800.793 Q1185.9219,800.5586 1186.5313,800.5586 L1191.6719,800.5586 Q1192.2813,800.5586 1192.5469,800.793 Q1192.8125,801.0273 1192.8125,801.4023 Q1192.8125,801.793 1192.5469,802.0273 Q1192.2813,802.2617 1191.6719,802.2617 L1189.9531,802.2617 Z " fill="#000000"/><text fill="#000000" font-family="sans-serif" font-size="14" font-style="italic" lengthAdjust="spacing" textLength="129" x="1203" y="811.418">CustomerRepository</text><line style="stroke:#181818;stroke-width:0.5;" x1="1175" x2="1334" y1="821.6211" y2="821.6211"/><line style="stroke:#181818;stroke-width:0.5;" x1="1175" x2="1334" y1="829.6211" y2="829.6211"/><text fill="#000000" font-family="sans-serif" font-size="14" lengthAdjust="spacing" textLength="48" x="1180" y="848.7285">findAll()</text></g><!--class JobOpeningRepository--><g id="elem_JobOpeningRepository"><rect codeLine="143" fill="#F1F1F1" height="85.2422" id="JobOpeningRepository" rx="2.5" ry="2.5" style="stroke:#181818;stroke-width:0.5;" width="177" x="792" y="780.6211"/><ellipse cx="807" cy="796.6211" fill="#B4A7E5" rx="11" ry="11" style="stroke:#181818;stroke-width:1.0;"/><path d="M807.9531,793.2617 L807.9531,799.918 L809.6719,799.918 Q810.2813,799.918 810.5469,800.1523 Q810.8125,800.3867 810.8125,800.7773 Q810.8125,801.1523 810.5469,801.3867 Q810.2813,801.6211 809.6719,801.6211 L804.5313,801.6211 Q803.9219,801.6211 803.6563,801.3867 Q803.3906,801.1523 803.3906,800.7617 Q803.3906,800.3867 803.6563,800.1523 Q803.9219,799.918 804.5313,799.918 L806.25,799.918 L806.25,793.2617 L804.5313,793.2617 Q803.9219,793.2617 803.6563,793.0273 Q803.3906,792.793 803.3906,792.4023 Q803.3906,792.0273 803.6563,791.793 Q803.9219,791.5586 804.5313,791.5586 L809.6719,791.5586 Q810.2813,791.5586 810.5469,791.793 Q810.8125,792.0273 810.8125,792.4023 Q810.8125,792.793 810.5469,793.0273 Q810.2813,793.2617 809.6719,793.2617 L807.9531,793.2617 Z " fill="#000000"/><text fill="#000000" font-family="sans-serif" font-size="14" font-style="italic" lengthAdjust="spacing" textLength="145" x="821" y="802.418">JobOpeningRepository</text><line style="stroke:#181818;stroke-width:0.5;" x1="793" x2="968" y1="812.6211" y2="812.6211"/><line style="stroke:#181818;stroke-width:0.5;" x1="793" x2="968" y1="820.6211" y2="820.6211"/><text fill="#000000" font-family="sans-serif" font-size="14" lengthAdjust="spacing" textLength="48" x="798" y="839.7285">findAll()</text><text fill="#000000" font-family="sans-serif" font-size="14" lengthAdjust="spacing" textLength="90" x="798" y="858.3496">jobOpenings()</text></g><!--link JobOpening to Address--><g id="link_JobOpening_Address"><path codeLine="150" d="M634.07,1439.8811 C610.67,1525.7611 604.99,1619.9611 649.5,1697.6211 C674.91,1741.9511 715.0035,1770.958 759.5335,1792.808 " fill="none" id="JobOpening-to-Address" style="stroke:#181818;stroke-width:1.0;"/><polygon fill="#181818" points="764.92,1795.4511,758.6023,1787.8955,760.4313,1793.2486,755.0782,1795.0775,764.92,1795.4511" style="stroke:#181818;stroke-width:1.0;"/></g><!--link JobOpening to Mode--><g id="link_JobOpening_Mode"><path codeLine="151" d="M864.62,1439.8011 C885.66,1484.8911 902.7334,1521.4637 916.4534,1550.8737 " fill="none" id="JobOpening-to-Mode" style="stroke:#181818;stroke-width:1.0;"/><polygon fill="#181818" points="918.99,1556.3111,918.81,1546.4639,916.8762,1551.7799,911.5601,1549.846,918.99,1556.3111" style="stroke:#181818;stroke-width:1.0;"/></g><!--link JobOpening to ContractType--><g id="link_JobOpening_ContractType"><path codeLine="152" d="M898.12,1354.0611 C965.99,1427.5611 1036.8497,1504.2829 1080.9397,1552.0329 " fill="none" id="JobOpening-to-ContractType" style="stroke:#181818;stroke-width:1.0;"/><polygon fill="#181818" points="1085.01,1556.4411,1081.8433,1547.1152,1081.6181,1552.7676,1075.9657,1552.5423,1085.01,1556.4411" style="stroke:#181818;stroke-width:1.0;"/></g><!--link JobOpening to Customer--><g id="link_JobOpening_Customer"><path codeLine="153" d="M898.17,1287.0511 C999.97,1351.3711 1129.5274,1433.2366 1232.2774,1498.1466 " fill="none" id="JobOpening-to-Customer" style="stroke:#181818;stroke-width:1.0;"/><polygon fill="#181818" points="1237.35,1501.3511,1231.8774,1493.1626,1233.1228,1498.6807,1227.6048,1499.9261,1237.35,1501.3511" style="stroke:#181818;stroke-width:1.0;"/></g><!--link JobOpening to JobFunction--><g id="link_JobOpening_JobFunction"><path codeLine="154" d="M749.5,1439.8011 C749.5,1489.8411 749.5,1530.1011 749.5,1559.5311 " fill="none" id="JobOpening-to-JobFunction" style="stroke:#181818;stroke-width:1.0;"/><polygon fill="#181818" points="749.5,1565.5311,753.5,1556.5311,749.5,1560.5311,745.5,1556.5311,749.5,1565.5311" style="stroke:#181818;stroke-width:1.0;"/></g><!--link JobOpening to JobReference--><g id="link_JobOpening_JobReference"><path codeLine="155" d="M600.94,1409.5511 C562.29,1465.8511 528.0353,1515.7542 503.3953,1551.6542 " fill="none" id="JobOpening-to-JobReference" style="stroke:#181818;stroke-width:1.0;"/><polygon fill="#181818" points="500,1556.6011,508.3909,1551.4443,502.8294,1552.4787,501.795,1546.9172,500,1556.6011" style="stroke:#181818;stroke-width:1.0;"/></g><!--link JobOpening to Description--><g id="link_JobOpening_Description"><path codeLine="156" d="M600.7,1303.8711 C527.68,1360.3011 439.69,1431.4711 365.5,1500.6211 C343.59,1521.0411 324.7001,1541.3624 307.5001,1560.8524 " fill="none" id="JobOpening-to-Description" style="stroke:#181818;stroke-width:1.0;"/><polygon fill="#181818" points="303.53,1565.3511,312.4843,1561.2498,306.8384,1561.6022,306.486,1555.9563,303.53,1565.3511" style="stroke:#181818;stroke-width:1.0;"/></g><!--link JobOpening to NumberOfVacancies--><g id="link_JobOpening_NumberOfVacancies"><path codeLine="157" d="M600.99,1259.7111 C483.08,1315.8911 316.79,1402.6711 185.5,1500.6211 C159.92,1519.7111 138.5227,1540.8658 119.9727,1561.0258 " fill="none" id="JobOpening-to-NumberOfVacancies" style="stroke:#181818;stroke-width:1.0;"/><polygon fill="#181818" points="115.91,1565.4411,124.9475,1561.5266,119.2956,1561.7617,119.0605,1556.1097,115.91,1565.4411" style="stroke:#181818;stroke-width:1.0;"/></g><!--link Customer to Code--><g id="link_Customer_Code"><path codeLine="160" d="M1367.07,1697.7511 C1358.84,1732.0411 1351.4302,1762.9168 1344.9002,1790.1268 " fill="none" id="Customer-to-Code" style="stroke:#181818;stroke-width:1.0;"/><polygon fill="#181818" points="1343.5,1795.9611,1349.4898,1788.143,1344.6668,1791.0991,1341.7107,1786.2761,1343.5,1795.9611" style="stroke:#181818;stroke-width:1.0;"/></g><!--link Customer to SystemUser--><g id="link_Customer_SystemUser"><path codeLine="161" d="M1444.35,1697.7511 C1459.24,1724.7411 1472.0617,1747.9876 1485.4017,1772.1676 " fill="none" id="Customer-to-SystemUser" style="stroke:#181818;stroke-width:1.0;"/><polygon fill="#181818" points="1488.3,1777.4211,1487.4548,1767.6086,1485.8847,1773.0432,1480.4501,1771.473,1488.3,1777.4211" style="stroke:#181818;stroke-width:1.0;"/></g><!--link Customer to Address--><g id="link_Customer_Address"><path codeLine="162" d="M1237.13,1689.1911 C1231.54,1692.0811 1225.99,1694.9011 1220.5,1697.6211 C1152.95,1731.0811 1081.0025,1761.812 1017.8625,1787.342 " fill="none" id="Customer-to-Address" style="stroke:#181818;stroke-width:1.0;"/><polygon fill="#181818" points="1012.3,1789.5911,1022.1432,1789.9257,1016.9354,1787.7168,1019.1443,1782.5091,1012.3,1789.5911" style="stroke:#181818;stroke-width:1.0;"/></g><!--link ListJobOpeningUI to ListJobOpeningController--><g id="link_ListJobOpeningUI_ListJobOpeningController"><path codeLine="164" d="M1067.5,187.8811 C1067.5,207.2811 1067.5,222.4911 1067.5,242.4011 " fill="none" id="ListJobOpeningUI-to-ListJobOpeningController" style="stroke:#181818;stroke-width:1.0;stroke-dasharray:7.0,7.0;"/><polygon fill="#181818" points="1067.5,248.4011,1071.5,239.4011,1067.5,243.4011,1063.5,239.4011,1067.5,248.4011" style="stroke:#181818;stroke-width:1.0;"/></g><!--link ListJobOpeningController to JobOpeningRepository--><g id="link_ListJobOpeningController_JobOpeningRepository"><path codeLine="166" d="M1010.23,408.7711 C997.14,428.2511 983.78,449.3411 972.5,469.6211 C942.23,524.0411 933.12,537.8911 915.5,597.6211 C897.14,659.8611 888.4866,728.837 884.2366,774.457 " fill="none" id="ListJobOpeningController-to-JobOpeningRepository" style="stroke:#181818;stroke-width:1.0;stroke-dasharray:7.0,7.0;"/><polygon fill="#181818" points="883.68,780.4311,888.4976,771.8409,884.1438,775.4527,880.5321,771.0989,883.68,780.4311" style="stroke:#181818;stroke-width:1.0;"/></g><!--link ListJobOpeningController to CustomerRepository--><g id="link_ListJobOpeningController_CustomerRepository"><path codeLine="167" d="M1124.77,408.7711 C1137.86,428.2511 1151.22,449.3411 1162.5,469.6211 C1192.77,524.0411 1201.88,537.8911 1219.5,597.6211 C1239.14,664.2111 1247.8035,739.3734 1251.6235,783.5834 " fill="none" id="ListJobOpeningController-to-CustomerRepository" style="stroke:#181818;stroke-width:1.0;stroke-dasharray:7.0,7.0;"/><polygon fill="#181818" points="1252.14,789.5611,1255.3504,780.2502,1251.7096,784.5797,1247.3801,780.9388,1252.14,789.5611" style="stroke:#181818;stroke-width:1.0;"/></g><!--link JobOpeningRepository to JobOpening--><g id="link_JobOpeningRepository_JobOpening"><path codeLine="169" d="M865.6,865.8611 C858.09,886.9011 850.3274,908.6504 839.6274,938.6204 " fill="none" id="JobOpeningRepository-to-JobOpening" style="stroke:#181818;stroke-width:1.0;"/><polygon fill="#181818" points="837.61,944.2711,844.4032,937.14,839.2912,939.5622,836.869,934.4501,837.61,944.2711" style="stroke:#181818;stroke-width:1.0;"/><text fill="#000000" font-family="sans-serif" font-size="13" lengthAdjust="spacing" textLength="36" x="853.5" y="910.6494">stores</text><text fill="#000000" font-family="sans-serif" font-size="13" lengthAdjust="spacing" textLength="5" x="835.1515" y="933.6947">*</text></g><!--link CustomerRepository to Customer--><g id="link_CustomerRepository_Customer"><path codeLine="171" d="M1260.26,856.8811 C1279.57,966.8011 1341.5215,1319.4016 1372.2715,1494.3816 " fill="none" id="CustomerRepository-to-Customer" style="stroke:#181818;stroke-width:1.0;"/><polygon fill="#181818" points="1373.31,1500.2911,1375.6919,1490.7346,1372.4446,1495.3666,1367.8126,1492.1193,1373.31,1500.2911" style="stroke:#181818;stroke-width:1.0;"/><text fill="#000000" font-family="sans-serif" font-size="13" lengthAdjust="spacing" textLength="36" x="1363.5" y="1197.6494">stores</text><text fill="#000000" font-family="sans-serif" font-size="13" lengthAdjust="spacing" textLength="5" x="1366.864" y="1489.4492">*</text></g><!--link ListJobOpeningController to PersistenceContext--><g id="link_ListJobOpeningController_PersistenceContext"><path codeLine="173" d="M1067.5,408.8011 C1067.5,430.2411 1067.5,446.2611 1067.5,463.5211 " fill="none" id="ListJobOpeningController-to-PersistenceContext" style="stroke:#181818;stroke-width:1.0;"/><polygon fill="#181818" points="1067.5,469.5211,1071.5,460.5211,1067.5,464.5211,1063.5,460.5211,1067.5,469.5211" style="stroke:#181818;stroke-width:1.0;"/></g><!--link PersistenceContext to RepositoryFactory--><g id="link_PersistenceContext_RepositoryFactory"><path codeLine="175" d="M1067.5,536.6711 C1067.5,554.3611 1067.5,570.8011 1067.5,591.5411 " fill="none" id="PersistenceContext-to-RepositoryFactory" style="stroke:#181818;stroke-width:1.0;"/><polygon fill="#181818" points="1067.5,597.5411,1071.5,588.5411,1067.5,592.5411,1063.5,588.5411,1067.5,597.5411" style="stroke:#181818;stroke-width:1.0;"/></g><!--link SystemUser to Name--><g id="link_SystemUser_Name"><path codeLine="176" d="M1546.4,1899.6311 C1556.86,1924.8211 1566.7003,1948.5393 1577.1703,1973.7693 " fill="none" id="SystemUser-to-Name" style="stroke:#181818;stroke-width:1.0;"/><polygon fill="#181818" points="1579.47,1979.3111,1579.7149,1969.4653,1577.5536,1974.693,1572.3259,1972.5316,1579.47,1979.3111" style="stroke:#181818;stroke-width:1.0;"/></g><!--link SystemUser to EmailAddress--><g id="link_SystemUser_EmailAddress"><path codeLine="177" d="M1496.6,1899.6311 C1481.99,1934.8411 1466.39,1972.4194 1454.35,2001.4294 " fill="none" id="SystemUser-to-EmailAddress" style="stroke:#181818;stroke-width:1.0;"/><polygon fill="#181818" points="1452.05,2006.9711,1459.1944,2000.1919,1453.9666,2002.353,1451.8055,1997.1253,1452.05,2006.9711" style="stroke:#181818;stroke-width:1.0;"/></g><!--link RepositoryFactory to JobOpeningRepository--><g id="link_RepositoryFactory_JobOpeningRepository"><path codeLine="178" d="M998.4,719.6711 C975.09,739.9211 954.139,758.1256 932.849,776.6256 " fill="none" id="RepositoryFactory-to-JobOpeningRepository" style="stroke:#181818;stroke-width:1.0;stroke-dasharray:7.0,7.0;"/><polygon fill="#181818" points="928.32,780.5611,937.7372,777.6772,932.0942,777.2815,932.4898,771.6385,928.32,780.5611" style="stroke:#181818;stroke-width:1.0;"/></g><!--link RepositoryFactory to CustomerRepository--><g id="link_RepositoryFactory_CustomerRepository"><path codeLine="179" d="M1136.6,719.6711 C1163.76,743.2611 1189.3304,765.4963 1212.3304,785.4763 " fill="none" id="RepositoryFactory-to-CustomerRepository" style="stroke:#181818;stroke-width:1.0;stroke-dasharray:7.0,7.0;"/><polygon fill="#181818" points="1216.86,789.4111,1212.6888,780.4891,1213.0853,786.1321,1207.4424,786.5286,1216.86,789.4111" style="stroke:#181818;stroke-width:1.0;"/></g><!--SRC=[VLPRRzCm57xthuZsr1853V4seKhR2j8GOzCkFF3c9cxboN6AxOoLYF-EZntVMvuId_lv_FdOYYf6ghFdnm_dvn-hflf6fQfUXaqrx0cdV2VFgck6fQpM5Ey4xX5gpVBhiBcp5jM46ktmGBP44DwIwWAKVeaQFlOR8kwsFt2BUKk9r1RVSvc9yMNahQ83jo7S2ZNjm9N0hNewx27yTRH4JJzq8BpL7zJWhXD4GePB-mVE_HxpmtVS6zzHgg4d0ZKTaQsWUvjl7HQe4MIdKH0OLckiZ1jcX7TOWB8L8rKzuUfU3ArDzb08mV3NI0K1cRnduuv2M_O7DPGh8buf-UqqimBLCPIBPNMHO5b7884oWQcEOJBQ1AWQW39Y0rKzGsKa3gmw0ij6S73L4Ln64oDMvuXPNuTPBOcwwHPn9rNSvX82v02Q44TmhKjSZUaCO9qX6-l-HkHrg5dohcCkL8zAQ5u7yuAiaoErDhxH-NOQ86yTnPeobXMHOqZAO-H25vmeayuRg6FeRI14XLnDIzKXMafb6UtLmwX94blyeVlMdgbPWffNp6Yd_NvQrM8sWLAkXe4HRC2TQt6SWM8EKf7-MHga7lq2idRs99ywj7ECMypnBlT6zQW_1eX8MkyqozOpxqyJF0ryAUNGKjrPbuVpq7xkCMK1NmBB29l04drcj7vBXLJpi768QdqcghsPpJjBdM4iz0cWgyb3vrnqrzVkO0UFsINq0vIr5K3yq4RSdGRMY4siH55pLvJnzYNTsf9WiYJp81Cibd4NOIPDnMXtNQMZ34KmmmKLBf_dcmb9maYh7ElIiMLr3yV64_oWZiezmuSGK2vkzFp06qO-1U4AnfKpM3edb-IMy741PNroabNbQ2QJQcP7MmuHK86SFUTPkQhoKUfBFO60mNDW3BQunep5hPXHSQITp327npgQkc2v0hOo7IOAVNK8r0hMIGhhute_uU4HEvh3xwdxyRZ-BsKIejXwX_HHeCkOuIpTwoPWs_GC1ip9cvhWCjeFagf1K40DhCtziyLwW3yutU6BPhB-JEWbtfnazIGmbzXSIPZDyIlrjaIUIOlu_wWv7jNmz9PLuQ0BrKneItbtoLXUSCo8OyPfzO0CYfw1JRFoOpOJcmT79alU9hdE7PXC7hzsIbLu9cMwU3Hbgl8TYf0dcorJbvv8eZiYaViXca-ewltxrSb3cvi7ZN4xjYN_zoZtEzwb83KrdxqxYr_o5zfL00Pb46_kU_R69yi1b_BK85JAZ6bnNb20scuMt3sPBBccYWYdCInDJw3t3m00]--></g></svg>