<?xml version="1.0" encoding="us-ascii" standalone="no"?><svg xmlns="http://www.w3.org/2000/svg" xmlns:xlink="http://www.w3.org/1999/xlink" contentStyleType="text/css" height="343px" preserveAspectRatio="none" style="width:1230px;height:343px;background:#FFFFFF;" version="1.1" viewBox="0 0 1230 343" width="1230px" zoomAndPan="magnify"><defs/><g><!--cluster Job Opening Aggregate--><g id="cluster_Job Opening Aggregate"><path d="M298.25,3 L382.25,3 A1.875,1.875 0 0 1 383.5,4.25 L387,13.8203 L792.25,13.8203 A1.25,1.25 0 0 1 793.5,15.0703 L793.5,338.25 A1.25,1.25 0 0 1 792.25,339.5 L298.25,339.5 A1.25,1.25 0 0 1 297,338.25 L297,4.25 A1.25,1.25 0 0 1 298.25,3 " fill="none" style="stroke:#000000;stroke-width:0.75;"/><line style="stroke:#000000;stroke-width:0.75;" x1="297" x2="387" y1="13.8203" y2="13.8203"/><text fill="#000000" font-family="sans-serif" font-size="7" font-weight="bold" lengthAdjust="spacing" textLength="83.5" x="299" y="10.3369">Job Opening Aggregate</text></g><!--cluster Plugin Aggregate--><g id="cluster_Plugin Aggregate"><path d="M806.75,18.5 L867.75,18.5 A1.875,1.875 0 0 1 869,19.75 L872.5,29.3203 L1225.25,29.3203 A1.25,1.25 0 0 1 1226.5,30.5703 L1226.5,168.75 A1.25,1.25 0 0 1 1225.25,170 L806.75,170 A1.25,1.25 0 0 1 805.5,168.75 L805.5,19.75 A1.25,1.25 0 0 1 806.75,18.5 " fill="none" style="stroke:#000000;stroke-width:0.75;"/><line style="stroke:#000000;stroke-width:0.75;" x1="805.5" x2="872.5" y1="29.3203" y2="29.3203"/><text fill="#000000" font-family="sans-serif" font-size="7" font-weight="bold" lengthAdjust="spacing" textLength="60.5" x="807.5" y="25.8369">Plugin Aggregate</text></g><!--cluster Customer Aggregate--><g id="cluster_Customer Aggregate"><path d="M4.25,3 L77.25,3 A1.875,1.875 0 0 1 78.5,4.25 L82,13.8203 L283.75,13.8203 A1.25,1.25 0 0 1 285,15.0703 L285,247.25 A1.25,1.25 0 0 1 283.75,248.5 L4.25,248.5 A1.25,1.25 0 0 1 3,247.25 L3,4.25 A1.25,1.25 0 0 1 4.25,3 " fill="none" style="stroke:#000000;stroke-width:0.75;"/><line style="stroke:#000000;stroke-width:0.75;" x1="3" x2="82" y1="13.8203" y2="13.8203"/><text fill="#000000" font-family="sans-serif" font-size="7" font-weight="bold" lengthAdjust="spacing" textLength="72.5" x="5" y="10.3369">Customer Aggregate</text></g><!--class RecruitmentProcess--><g id="elem_RecruitmentProcess"><rect codeLine="5" fill="#F1F1F1" height="36.4609" id="RecruitmentProcess" rx="1.25" ry="1.25" style="stroke:#181818;stroke-width:0.25;" width="79.5" x="330.25" y="202.5"/><ellipse cx="337.75" cy="212.8203" fill="#ADD1B2" rx="5.5" ry="5.5" style="stroke:#181818;stroke-width:0.5;"/><path d="M339.1328,210.7578 Q339.2109,210.6484 339.3047,210.5938 Q339.3984,210.5391 339.5078,210.5391 Q339.6953,210.5391 339.8125,210.6719 Q339.9297,210.7969 339.9297,211.1016 L339.9297,211.8281 Q339.9297,212.1328 339.8125,212.2656 Q339.6953,212.3984 339.5078,212.3984 Q339.3359,212.3984 339.2344,212.2969 Q339.1328,212.2031 339.0781,211.9453 Q339.0547,211.7656 338.9609,211.6719 Q338.7969,211.4844 338.4922,211.375 Q338.1875,211.2656 337.875,211.2656 Q337.4922,211.2656 337.1719,211.4297 Q336.8594,211.5938 336.6094,211.9688 Q336.3672,212.3438 336.3672,212.8594 L336.3672,213.4063 Q336.3672,214.0234 336.8125,214.4375 Q337.2578,214.8438 338.0547,214.8438 Q338.5234,214.8438 338.8516,214.7188 Q339.0469,214.6406 339.2578,214.4219 Q339.3906,214.2891 339.4609,214.25 Q339.5391,214.2109 339.6406,214.2109 Q339.8047,214.2109 339.9297,214.3438 Q340.0625,214.4688 340.0625,214.6406 Q340.0625,214.8125 339.8906,215.0156 Q339.6406,215.3047 339.2422,215.4688 Q338.7031,215.6953 338.0547,215.6953 Q337.2969,215.6953 336.6953,215.3828 Q336.2031,215.1328 335.8594,214.6016 Q335.5156,214.0625 335.5156,213.4219 L335.5156,212.8438 Q335.5156,212.1797 335.8203,211.6094 Q336.1328,211.0313 336.6797,210.7266 Q337.2266,210.4141 337.8438,210.4141 Q338.2109,210.4141 338.5313,210.5 Q338.8594,210.5781 339.1328,210.7578 Z " fill="#000000"/><text fill="#000000" font-family="sans-serif" font-size="7" lengthAdjust="spacing" textLength="25" x="364" y="211.3369">&#171;entity&#187;</text><text fill="#000000" font-family="sans-serif" font-size="7" lengthAdjust="spacing" textLength="63.5" x="344.75" y="219.1572">RecruitmentProcess</text><line style="stroke:#181818;stroke-width:0.25;" x1="330.75" x2="409.25" y1="223.1406" y2="223.1406"/><text fill="#000000" font-family="sans-serif" font-size="7" lengthAdjust="spacing" textLength="39.5" x="333.25" y="231.4775">HasInterview</text><line style="stroke:#181818;stroke-width:0.25;" x1="330.75" x2="409.25" y1="234.9609" y2="234.9609"/></g><!--class Phase--><g id="elem_Phase"><rect codeLine="9" fill="#F1F1F1" height="52.1016" id="Phase" rx="1.25" ry="1.25" style="stroke:#181818;stroke-width:0.25;" width="41" x="349.5" y="279.5"/><ellipse cx="357" cy="289.8203" fill="#ADD1B2" rx="5.5" ry="5.5" style="stroke:#181818;stroke-width:0.5;"/><path d="M358.3828,287.7578 Q358.4609,287.6484 358.5547,287.5938 Q358.6484,287.5391 358.7578,287.5391 Q358.9453,287.5391 359.0625,287.6719 Q359.1797,287.7969 359.1797,288.1016 L359.1797,288.8281 Q359.1797,289.1328 359.0625,289.2656 Q358.9453,289.3984 358.7578,289.3984 Q358.5859,289.3984 358.4844,289.2969 Q358.3828,289.2031 358.3281,288.9453 Q358.3047,288.7656 358.2109,288.6719 Q358.0469,288.4844 357.7422,288.375 Q357.4375,288.2656 357.125,288.2656 Q356.7422,288.2656 356.4219,288.4297 Q356.1094,288.5938 355.8594,288.9688 Q355.6172,289.3438 355.6172,289.8594 L355.6172,290.4063 Q355.6172,291.0234 356.0625,291.4375 Q356.5078,291.8438 357.3047,291.8438 Q357.7734,291.8438 358.1016,291.7188 Q358.2969,291.6406 358.5078,291.4219 Q358.6406,291.2891 358.7109,291.25 Q358.7891,291.2109 358.8906,291.2109 Q359.0547,291.2109 359.1797,291.3438 Q359.3125,291.4688 359.3125,291.6406 Q359.3125,291.8125 359.1406,292.0156 Q358.8906,292.3047 358.4922,292.4688 Q357.9531,292.6953 357.3047,292.6953 Q356.5469,292.6953 355.9453,292.3828 Q355.4531,292.1328 355.1094,291.6016 Q354.7656,291.0625 354.7656,290.4219 L354.7656,289.8438 Q354.7656,289.1797 355.0703,288.6094 Q355.3828,288.0313 355.9297,287.7266 Q356.4766,287.4141 357.0938,287.4141 Q357.4609,287.4141 357.7813,287.5 Q358.1094,287.5781 358.3828,287.7578 Z " fill="#000000"/><text fill="#000000" font-family="sans-serif" font-size="7" lengthAdjust="spacing" textLength="25" x="364" y="288.3369">&#171;entity&#187;</text><text fill="#000000" font-family="sans-serif" font-size="7" lengthAdjust="spacing" textLength="20" x="366.5" y="296.1572">Phase</text><line style="stroke:#181818;stroke-width:0.25;" x1="350" x2="390" y1="300.1406" y2="300.1406"/><text fill="#000000" font-family="sans-serif" font-size="7" lengthAdjust="spacing" textLength="34.5" x="352.5" y="308.4775">description</text><text fill="#000000" font-family="sans-serif" font-size="7" lengthAdjust="spacing" textLength="32.5" x="352.5" y="316.2979">beginDate</text><text fill="#000000" font-family="sans-serif" font-size="7" lengthAdjust="spacing" textLength="28" x="352.5" y="324.1182">finalDate</text><line style="stroke:#181818;stroke-width:0.25;" x1="350" x2="390" y1="327.6016" y2="327.6016"/></g><!--class JobOpening--><g id="elem_JobOpening"><rect codeLine="16" fill="#F1F1F1" height="36.4609" id="JobOpening" rx="1.25" ry="1.25" style="stroke:#181818;stroke-width:0.25;" width="54" x="512.5" y="125.5"/><ellipse cx="520" cy="139.7305" fill="#ADD1B2" rx="5.5" ry="5.5" style="stroke:#181818;stroke-width:0.5;"/><path d="M521.3828,137.668 Q521.4609,137.5586 521.5547,137.5039 Q521.6484,137.4492 521.7578,137.4492 Q521.9453,137.4492 522.0625,137.582 Q522.1797,137.707 522.1797,138.0117 L522.1797,138.7383 Q522.1797,139.043 522.0625,139.1758 Q521.9453,139.3086 521.7578,139.3086 Q521.5859,139.3086 521.4844,139.207 Q521.3828,139.1133 521.3281,138.8555 Q521.3047,138.6758 521.2109,138.582 Q521.0469,138.3945 520.7422,138.2852 Q520.4375,138.1758 520.125,138.1758 Q519.7422,138.1758 519.4219,138.3398 Q519.1094,138.5039 518.8594,138.8789 Q518.6172,139.2539 518.6172,139.7695 L518.6172,140.3164 Q518.6172,140.9336 519.0625,141.3477 Q519.5078,141.7539 520.3047,141.7539 Q520.7734,141.7539 521.1016,141.6289 Q521.2969,141.5508 521.5078,141.332 Q521.6406,141.1992 521.7109,141.1602 Q521.7891,141.1211 521.8906,141.1211 Q522.0547,141.1211 522.1797,141.2539 Q522.3125,141.3789 522.3125,141.5508 Q522.3125,141.7227 522.1406,141.9258 Q521.8906,142.2148 521.4922,142.3789 Q520.9531,142.6055 520.3047,142.6055 Q519.5469,142.6055 518.9453,142.293 Q518.4531,142.043 518.1094,141.5117 Q517.7656,140.9727 517.7656,140.332 L517.7656,139.7539 Q517.7656,139.0898 518.0703,138.5195 Q518.3828,137.9414 518.9297,137.6367 Q519.4766,137.3242 520.0938,137.3242 Q520.4609,137.3242 520.7813,137.4102 Q521.1094,137.4883 521.3828,137.668 Z " fill="#000000"/><text fill="#000000" font-family="sans-serif" font-size="7" lengthAdjust="spacing" textLength="20.5" x="535.75" y="134.3369">&#171;root&#187;</text><text fill="#000000" font-family="sans-serif" font-size="7" lengthAdjust="spacing" textLength="25" x="532.5" y="142.1572">&#171;entity&#187;</text><text fill="#000000" font-family="sans-serif" font-size="7" lengthAdjust="spacing" textLength="38" x="527" y="149.9775">JobOpening</text><line style="stroke:#181818;stroke-width:0.25;" x1="513" x2="566" y1="153.9609" y2="153.9609"/><line style="stroke:#181818;stroke-width:0.25;" x1="513" x2="566" y1="157.9609" y2="157.9609"/></g><!--class SetupStatus--><g id="elem_SetupStatus"><rect codeLine="21" fill="#F1F1F1" height="24" id="SetupStatus" rx="1.25" ry="1.25" style="stroke:#181818;stroke-width:0.25;" width="54.5" x="427.25" y="208.75"/><ellipse cx="434.75" cy="216.75" fill="#ADD1B2" rx="5.5" ry="5.5" style="stroke:#181818;stroke-width:0.5;"/><path d="M436.1328,214.6875 Q436.2109,214.5781 436.3047,214.5234 Q436.3984,214.4688 436.5078,214.4688 Q436.6953,214.4688 436.8125,214.6016 Q436.9297,214.7266 436.9297,215.0313 L436.9297,215.7578 Q436.9297,216.0625 436.8125,216.1953 Q436.6953,216.3281 436.5078,216.3281 Q436.3359,216.3281 436.2344,216.2266 Q436.1328,216.1328 436.0781,215.875 Q436.0547,215.6953 435.9609,215.6016 Q435.7969,215.4141 435.4922,215.3047 Q435.1875,215.1953 434.875,215.1953 Q434.4922,215.1953 434.1719,215.3594 Q433.8594,215.5234 433.6094,215.8984 Q433.3672,216.2734 433.3672,216.7891 L433.3672,217.3359 Q433.3672,217.9531 433.8125,218.3672 Q434.2578,218.7734 435.0547,218.7734 Q435.5234,218.7734 435.8516,218.6484 Q436.0469,218.5703 436.2578,218.3516 Q436.3906,218.2188 436.4609,218.1797 Q436.5391,218.1406 436.6406,218.1406 Q436.8047,218.1406 436.9297,218.2734 Q437.0625,218.3984 437.0625,218.5703 Q437.0625,218.7422 436.8906,218.9453 Q436.6406,219.2344 436.2422,219.3984 Q435.7031,219.625 435.0547,219.625 Q434.2969,219.625 433.6953,219.3125 Q433.2031,219.0625 432.8594,218.5313 Q432.5156,217.9922 432.5156,217.3516 L432.5156,216.7734 Q432.5156,216.1094 432.8203,215.5391 Q433.1328,214.9609 433.6797,214.6563 Q434.2266,214.3438 434.8438,214.3438 Q435.2109,214.3438 435.5313,214.4297 Q435.8594,214.5078 436.1328,214.6875 Z " fill="#000000"/><text fill="#000000" font-family="sans-serif" font-size="7" lengthAdjust="spacing" textLength="38.5" x="441.75" y="219.1768">SetupStatus</text><line style="stroke:#181818;stroke-width:0.25;" x1="427.75" x2="481.25" y1="224.75" y2="224.75"/><line style="stroke:#181818;stroke-width:0.25;" x1="427.75" x2="481.25" y1="228.75" y2="228.75"/></g><!--class RequirementsStatus--><g id="elem_RequirementsStatus"><rect codeLine="24" fill="#F1F1F1" height="24" id="RequirementsStatus" rx="1.25" ry="1.25" style="stroke:#181818;stroke-width:0.25;" width="80" x="499.5" y="208.75"/><ellipse cx="507" cy="216.75" fill="#ADD1B2" rx="5.5" ry="5.5" style="stroke:#181818;stroke-width:0.5;"/><path d="M508.3828,214.6875 Q508.4609,214.5781 508.5547,214.5234 Q508.6484,214.4688 508.7578,214.4688 Q508.9453,214.4688 509.0625,214.6016 Q509.1797,214.7266 509.1797,215.0313 L509.1797,215.7578 Q509.1797,216.0625 509.0625,216.1953 Q508.9453,216.3281 508.7578,216.3281 Q508.5859,216.3281 508.4844,216.2266 Q508.3828,216.1328 508.3281,215.875 Q508.3047,215.6953 508.2109,215.6016 Q508.0469,215.4141 507.7422,215.3047 Q507.4375,215.1953 507.125,215.1953 Q506.7422,215.1953 506.4219,215.3594 Q506.1094,215.5234 505.8594,215.8984 Q505.6172,216.2734 505.6172,216.7891 L505.6172,217.3359 Q505.6172,217.9531 506.0625,218.3672 Q506.5078,218.7734 507.3047,218.7734 Q507.7734,218.7734 508.1016,218.6484 Q508.2969,218.5703 508.5078,218.3516 Q508.6406,218.2188 508.7109,218.1797 Q508.7891,218.1406 508.8906,218.1406 Q509.0547,218.1406 509.1797,218.2734 Q509.3125,218.3984 509.3125,218.5703 Q509.3125,218.7422 509.1406,218.9453 Q508.8906,219.2344 508.4922,219.3984 Q507.9531,219.625 507.3047,219.625 Q506.5469,219.625 505.9453,219.3125 Q505.4531,219.0625 505.1094,218.5313 Q504.7656,217.9922 504.7656,217.3516 L504.7656,216.7734 Q504.7656,216.1094 505.0703,215.5391 Q505.3828,214.9609 505.9297,214.6563 Q506.4766,214.3438 507.0938,214.3438 Q507.4609,214.3438 507.7813,214.4297 Q508.1094,214.5078 508.3828,214.6875 Z " fill="#000000"/><text fill="#000000" font-family="sans-serif" font-size="7" lengthAdjust="spacing" textLength="64" x="514" y="219.1768">RequirementsStatus</text><line style="stroke:#181818;stroke-width:0.25;" x1="500" x2="579" y1="224.75" y2="224.75"/><line style="stroke:#181818;stroke-width:0.25;" x1="500" x2="579" y1="228.75" y2="228.75"/></g><!--class InterviewPhaseStatus--><g id="elem_InterviewPhaseStatus"><rect codeLine="27" fill="#F1F1F1" height="28.6406" id="InterviewPhaseStatus" rx="1.25" ry="1.25" style="stroke:#181818;stroke-width:0.25;" width="83.5" x="597.25" y="206.5"/><ellipse cx="604.75" cy="216.8203" fill="#ADD1B2" rx="5.5" ry="5.5" style="stroke:#181818;stroke-width:0.5;"/><path d="M606.1328,214.7578 Q606.2109,214.6484 606.3047,214.5938 Q606.3984,214.5391 606.5078,214.5391 Q606.6953,214.5391 606.8125,214.6719 Q606.9297,214.7969 606.9297,215.1016 L606.9297,215.8281 Q606.9297,216.1328 606.8125,216.2656 Q606.6953,216.3984 606.5078,216.3984 Q606.3359,216.3984 606.2344,216.2969 Q606.1328,216.2031 606.0781,215.9453 Q606.0547,215.7656 605.9609,215.6719 Q605.7969,215.4844 605.4922,215.375 Q605.1875,215.2656 604.875,215.2656 Q604.4922,215.2656 604.1719,215.4297 Q603.8594,215.5938 603.6094,215.9688 Q603.3672,216.3438 603.3672,216.8594 L603.3672,217.4063 Q603.3672,218.0234 603.8125,218.4375 Q604.2578,218.8438 605.0547,218.8438 Q605.5234,218.8438 605.8516,218.7188 Q606.0469,218.6406 606.2578,218.4219 Q606.3906,218.2891 606.4609,218.25 Q606.5391,218.2109 606.6406,218.2109 Q606.8047,218.2109 606.9297,218.3438 Q607.0625,218.4688 607.0625,218.6406 Q607.0625,218.8125 606.8906,219.0156 Q606.6406,219.3047 606.2422,219.4688 Q605.7031,219.6953 605.0547,219.6953 Q604.2969,219.6953 603.6953,219.3828 Q603.2031,219.1328 602.8594,218.6016 Q602.5156,218.0625 602.5156,217.4219 L602.5156,216.8438 Q602.5156,216.1797 602.8203,215.6094 Q603.1328,215.0313 603.6797,214.7266 Q604.2266,214.4141 604.8438,214.4141 Q605.2109,214.4141 605.5313,214.5 Q605.8594,214.5781 606.1328,214.7578 Z " fill="#000000"/><text fill="#000000" font-family="sans-serif" font-size="7" lengthAdjust="spacing" textLength="46" x="622.5" y="215.3369">&#171;value object&#187;</text><text fill="#000000" font-family="sans-serif" font-size="7" lengthAdjust="spacing" textLength="67.5" x="611.75" y="223.1572">InterviewPhaseStatus</text><line style="stroke:#181818;stroke-width:0.25;" x1="597.75" x2="680.25" y1="227.1406" y2="227.1406"/><line style="stroke:#181818;stroke-width:0.25;" x1="597.75" x2="680.25" y1="231.1406" y2="231.1406"/></g><!--class ContractType--><g id="elem_ContractType"><rect codeLine="30" fill="#F1F1F1" height="28.6406" id="ContractType" rx="1.25" ry="1.25" style="stroke:#181818;stroke-width:0.25;" width="62" x="723.5" y="39.5"/><ellipse cx="731" cy="49.8203" fill="#ADD1B2" rx="5.5" ry="5.5" style="stroke:#181818;stroke-width:0.5;"/><path d="M732.3828,47.7578 Q732.4609,47.6484 732.5547,47.5938 Q732.6484,47.5391 732.7578,47.5391 Q732.9453,47.5391 733.0625,47.6719 Q733.1797,47.7969 733.1797,48.1016 L733.1797,48.8281 Q733.1797,49.1328 733.0625,49.2656 Q732.9453,49.3984 732.7578,49.3984 Q732.5859,49.3984 732.4844,49.2969 Q732.3828,49.2031 732.3281,48.9453 Q732.3047,48.7656 732.2109,48.6719 Q732.0469,48.4844 731.7422,48.375 Q731.4375,48.2656 731.125,48.2656 Q730.7422,48.2656 730.4219,48.4297 Q730.1094,48.5938 729.8594,48.9688 Q729.6172,49.3438 729.6172,49.8594 L729.6172,50.4063 Q729.6172,51.0234 730.0625,51.4375 Q730.5078,51.8438 731.3047,51.8438 Q731.7734,51.8438 732.1016,51.7188 Q732.2969,51.6406 732.5078,51.4219 Q732.6406,51.2891 732.7109,51.25 Q732.7891,51.2109 732.8906,51.2109 Q733.0547,51.2109 733.1797,51.3438 Q733.3125,51.4688 733.3125,51.6406 Q733.3125,51.8125 733.1406,52.0156 Q732.8906,52.3047 732.4922,52.4688 Q731.9531,52.6953 731.3047,52.6953 Q730.5469,52.6953 729.9453,52.3828 Q729.4531,52.1328 729.1094,51.6016 Q728.7656,51.0625 728.7656,50.4219 L728.7656,49.8438 Q728.7656,49.1797 729.0703,48.6094 Q729.3828,48.0313 729.9297,47.7266 Q730.4766,47.4141 731.0938,47.4141 Q731.4609,47.4141 731.7813,47.5 Q732.1094,47.5781 732.3828,47.7578 Z " fill="#000000"/><text fill="#000000" font-family="sans-serif" font-size="7" lengthAdjust="spacing" textLength="46" x="738" y="48.3369">&#171;value object&#187;</text><text fill="#000000" font-family="sans-serif" font-size="7" lengthAdjust="spacing" textLength="43" x="739.5" y="56.1572">ContractType</text><line style="stroke:#181818;stroke-width:0.25;" x1="724" x2="785" y1="60.1406" y2="60.1406"/><line style="stroke:#181818;stroke-width:0.25;" x1="724" x2="785" y1="64.1406" y2="64.1406"/></g><!--class Mode--><g id="elem_Mode"><rect codeLine="33" fill="#F1F1F1" height="36.4609" id="Mode" rx="1.25" ry="1.25" style="stroke:#181818;stroke-width:0.25;" width="62" x="644" y="35.5"/><ellipse cx="651.5" cy="45.8203" fill="#ADD1B2" rx="5.5" ry="5.5" style="stroke:#181818;stroke-width:0.5;"/><path d="M652.8828,43.7578 Q652.9609,43.6484 653.0547,43.5938 Q653.1484,43.5391 653.2578,43.5391 Q653.4453,43.5391 653.5625,43.6719 Q653.6797,43.7969 653.6797,44.1016 L653.6797,44.8281 Q653.6797,45.1328 653.5625,45.2656 Q653.4453,45.3984 653.2578,45.3984 Q653.0859,45.3984 652.9844,45.2969 Q652.8828,45.2031 652.8281,44.9453 Q652.8047,44.7656 652.7109,44.6719 Q652.5469,44.4844 652.2422,44.375 Q651.9375,44.2656 651.625,44.2656 Q651.2422,44.2656 650.9219,44.4297 Q650.6094,44.5938 650.3594,44.9688 Q650.1172,45.3438 650.1172,45.8594 L650.1172,46.4063 Q650.1172,47.0234 650.5625,47.4375 Q651.0078,47.8438 651.8047,47.8438 Q652.2734,47.8438 652.6016,47.7188 Q652.7969,47.6406 653.0078,47.4219 Q653.1406,47.2891 653.2109,47.25 Q653.2891,47.2109 653.3906,47.2109 Q653.5547,47.2109 653.6797,47.3438 Q653.8125,47.4688 653.8125,47.6406 Q653.8125,47.8125 653.6406,48.0156 Q653.3906,48.3047 652.9922,48.4688 Q652.4531,48.6953 651.8047,48.6953 Q651.0469,48.6953 650.4453,48.3828 Q649.9531,48.1328 649.6094,47.6016 Q649.2656,47.0625 649.2656,46.4219 L649.2656,45.8438 Q649.2656,45.1797 649.5703,44.6094 Q649.8828,44.0313 650.4297,43.7266 Q650.9766,43.4141 651.5938,43.4141 Q651.9609,43.4141 652.2813,43.5 Q652.6094,43.5781 652.8828,43.7578 Z " fill="#000000"/><text fill="#000000" font-family="sans-serif" font-size="7" lengthAdjust="spacing" textLength="46" x="658.5" y="44.3369">&#171;value object&#187;</text><text fill="#000000" font-family="sans-serif" font-size="7" lengthAdjust="spacing" textLength="17.5" x="672.75" y="52.1572">Mode</text><line style="stroke:#181818;stroke-width:0.25;" x1="644.5" x2="705.5" y1="56.1406" y2="56.1406"/><text fill="#000000" font-family="sans-serif" font-size="7" lengthAdjust="spacing" textLength="34.5" x="647" y="64.4775">description</text><line style="stroke:#181818;stroke-width:0.25;" x1="644.5" x2="705.5" y1="67.9609" y2="67.9609"/></g><!--class JobFunction--><g id="elem_JobFunction"><rect codeLine="37" fill="#F1F1F1" height="36.4609" id="JobFunction" rx="1.25" ry="1.25" style="stroke:#181818;stroke-width:0.25;" width="62" x="564.5" y="35.5"/><ellipse cx="572" cy="45.8203" fill="#ADD1B2" rx="5.5" ry="5.5" style="stroke:#181818;stroke-width:0.5;"/><path d="M573.3828,43.7578 Q573.4609,43.6484 573.5547,43.5938 Q573.6484,43.5391 573.7578,43.5391 Q573.9453,43.5391 574.0625,43.6719 Q574.1797,43.7969 574.1797,44.1016 L574.1797,44.8281 Q574.1797,45.1328 574.0625,45.2656 Q573.9453,45.3984 573.7578,45.3984 Q573.5859,45.3984 573.4844,45.2969 Q573.3828,45.2031 573.3281,44.9453 Q573.3047,44.7656 573.2109,44.6719 Q573.0469,44.4844 572.7422,44.375 Q572.4375,44.2656 572.125,44.2656 Q571.7422,44.2656 571.4219,44.4297 Q571.1094,44.5938 570.8594,44.9688 Q570.6172,45.3438 570.6172,45.8594 L570.6172,46.4063 Q570.6172,47.0234 571.0625,47.4375 Q571.5078,47.8438 572.3047,47.8438 Q572.7734,47.8438 573.1016,47.7188 Q573.2969,47.6406 573.5078,47.4219 Q573.6406,47.2891 573.7109,47.25 Q573.7891,47.2109 573.8906,47.2109 Q574.0547,47.2109 574.1797,47.3438 Q574.3125,47.4688 574.3125,47.6406 Q574.3125,47.8125 574.1406,48.0156 Q573.8906,48.3047 573.4922,48.4688 Q572.9531,48.6953 572.3047,48.6953 Q571.5469,48.6953 570.9453,48.3828 Q570.4531,48.1328 570.1094,47.6016 Q569.7656,47.0625 569.7656,46.4219 L569.7656,45.8438 Q569.7656,45.1797 570.0703,44.6094 Q570.3828,44.0313 570.9297,43.7266 Q571.4766,43.4141 572.0938,43.4141 Q572.4609,43.4141 572.7813,43.5 Q573.1094,43.5781 573.3828,43.7578 Z " fill="#000000"/><text fill="#000000" font-family="sans-serif" font-size="7" lengthAdjust="spacing" textLength="46" x="579" y="44.3369">&#171;value object&#187;</text><text fill="#000000" font-family="sans-serif" font-size="7" lengthAdjust="spacing" textLength="38.5" x="582.75" y="52.1572">JobFunction</text><line style="stroke:#181818;stroke-width:0.25;" x1="565" x2="626" y1="56.1406" y2="56.1406"/><text fill="#000000" font-family="sans-serif" font-size="7" lengthAdjust="spacing" textLength="34.5" x="567.5" y="64.4775">description</text><line style="stroke:#181818;stroke-width:0.25;" x1="565" x2="626" y1="67.9609" y2="67.9609"/></g><!--class NumberOfVacancies--><g id="elem_NumberOfVacancies"><rect codeLine="41" fill="#F1F1F1" height="28.6406" id="NumberOfVacancies" rx="1.25" ry="1.25" style="stroke:#181818;stroke-width:0.25;" width="82.5" x="464.25" y="39.5"/><ellipse cx="471.75" cy="49.8203" fill="#ADD1B2" rx="5.5" ry="5.5" style="stroke:#181818;stroke-width:0.5;"/><path d="M473.1328,47.7578 Q473.2109,47.6484 473.3047,47.5938 Q473.3984,47.5391 473.5078,47.5391 Q473.6953,47.5391 473.8125,47.6719 Q473.9297,47.7969 473.9297,48.1016 L473.9297,48.8281 Q473.9297,49.1328 473.8125,49.2656 Q473.6953,49.3984 473.5078,49.3984 Q473.3359,49.3984 473.2344,49.2969 Q473.1328,49.2031 473.0781,48.9453 Q473.0547,48.7656 472.9609,48.6719 Q472.7969,48.4844 472.4922,48.375 Q472.1875,48.2656 471.875,48.2656 Q471.4922,48.2656 471.1719,48.4297 Q470.8594,48.5938 470.6094,48.9688 Q470.3672,49.3438 470.3672,49.8594 L470.3672,50.4063 Q470.3672,51.0234 470.8125,51.4375 Q471.2578,51.8438 472.0547,51.8438 Q472.5234,51.8438 472.8516,51.7188 Q473.0469,51.6406 473.2578,51.4219 Q473.3906,51.2891 473.4609,51.25 Q473.5391,51.2109 473.6406,51.2109 Q473.8047,51.2109 473.9297,51.3438 Q474.0625,51.4688 474.0625,51.6406 Q474.0625,51.8125 473.8906,52.0156 Q473.6406,52.3047 473.2422,52.4688 Q472.7031,52.6953 472.0547,52.6953 Q471.2969,52.6953 470.6953,52.3828 Q470.2031,52.1328 469.8594,51.6016 Q469.5156,51.0625 469.5156,50.4219 L469.5156,49.8438 Q469.5156,49.1797 469.8203,48.6094 Q470.1328,48.0313 470.6797,47.7266 Q471.2266,47.4141 471.8438,47.4141 Q472.2109,47.4141 472.5313,47.5 Q472.8594,47.5781 473.1328,47.7578 Z " fill="#000000"/><text fill="#000000" font-family="sans-serif" font-size="7" lengthAdjust="spacing" textLength="46" x="489" y="48.3369">&#171;value object&#187;</text><text fill="#000000" font-family="sans-serif" font-size="7" lengthAdjust="spacing" textLength="64.5" x="480.75" y="56.1572">NumberOfVacancies</text><line style="stroke:#181818;stroke-width:0.25;" x1="464.75" x2="546.25" y1="60.1406" y2="60.1406"/><line style="stroke:#181818;stroke-width:0.25;" x1="464.75" x2="546.25" y1="64.1406" y2="64.1406"/></g><!--class Description--><g id="elem_Description"><rect codeLine="45" fill="#F1F1F1" height="36.4609" id="Description" rx="1.25" ry="1.25" style="stroke:#181818;stroke-width:0.25;" width="62" x="384.5" y="35.5"/><ellipse cx="392" cy="45.8203" fill="#ADD1B2" rx="5.5" ry="5.5" style="stroke:#181818;stroke-width:0.5;"/><path d="M393.3828,43.7578 Q393.4609,43.6484 393.5547,43.5938 Q393.6484,43.5391 393.7578,43.5391 Q393.9453,43.5391 394.0625,43.6719 Q394.1797,43.7969 394.1797,44.1016 L394.1797,44.8281 Q394.1797,45.1328 394.0625,45.2656 Q393.9453,45.3984 393.7578,45.3984 Q393.5859,45.3984 393.4844,45.2969 Q393.3828,45.2031 393.3281,44.9453 Q393.3047,44.7656 393.2109,44.6719 Q393.0469,44.4844 392.7422,44.375 Q392.4375,44.2656 392.125,44.2656 Q391.7422,44.2656 391.4219,44.4297 Q391.1094,44.5938 390.8594,44.9688 Q390.6172,45.3438 390.6172,45.8594 L390.6172,46.4063 Q390.6172,47.0234 391.0625,47.4375 Q391.5078,47.8438 392.3047,47.8438 Q392.7734,47.8438 393.1016,47.7188 Q393.2969,47.6406 393.5078,47.4219 Q393.6406,47.2891 393.7109,47.25 Q393.7891,47.2109 393.8906,47.2109 Q394.0547,47.2109 394.1797,47.3438 Q394.3125,47.4688 394.3125,47.6406 Q394.3125,47.8125 394.1406,48.0156 Q393.8906,48.3047 393.4922,48.4688 Q392.9531,48.6953 392.3047,48.6953 Q391.5469,48.6953 390.9453,48.3828 Q390.4531,48.1328 390.1094,47.6016 Q389.7656,47.0625 389.7656,46.4219 L389.7656,45.8438 Q389.7656,45.1797 390.0703,44.6094 Q390.3828,44.0313 390.9297,43.7266 Q391.4766,43.4141 392.0938,43.4141 Q392.4609,43.4141 392.7813,43.5 Q393.1094,43.5781 393.3828,43.7578 Z " fill="#000000"/><text fill="#000000" font-family="sans-serif" font-size="7" lengthAdjust="spacing" textLength="46" x="399" y="44.3369">&#171;value object&#187;</text><text fill="#000000" font-family="sans-serif" font-size="7" lengthAdjust="spacing" textLength="35.5" x="404.25" y="52.1572">Description</text><line style="stroke:#181818;stroke-width:0.25;" x1="385" x2="446" y1="56.1406" y2="56.1406"/><text fill="#000000" font-family="sans-serif" font-size="7" lengthAdjust="spacing" textLength="34.5" x="387.5" y="64.4775">description</text><line style="stroke:#181818;stroke-width:0.25;" x1="385" x2="446" y1="67.9609" y2="67.9609"/></g><!--class Address1--><g id="elem_Address1"><rect codeLine="50" fill="#F1F1F1" height="67.7422" id="Address1" rx="1.25" ry="1.25" style="stroke:#181818;stroke-width:0.25;" width="62" x="305" y="20"/><ellipse cx="312.5" cy="30.3203" fill="#ADD1B2" rx="5.5" ry="5.5" style="stroke:#181818;stroke-width:0.5;"/><path d="M313.8828,28.2578 Q313.9609,28.1484 314.0547,28.0938 Q314.1484,28.0391 314.2578,28.0391 Q314.4453,28.0391 314.5625,28.1719 Q314.6797,28.2969 314.6797,28.6016 L314.6797,29.3281 Q314.6797,29.6328 314.5625,29.7656 Q314.4453,29.8984 314.2578,29.8984 Q314.0859,29.8984 313.9844,29.7969 Q313.8828,29.7031 313.8281,29.4453 Q313.8047,29.2656 313.7109,29.1719 Q313.5469,28.9844 313.2422,28.875 Q312.9375,28.7656 312.625,28.7656 Q312.2422,28.7656 311.9219,28.9297 Q311.6094,29.0938 311.3594,29.4688 Q311.1172,29.8438 311.1172,30.3594 L311.1172,30.9063 Q311.1172,31.5234 311.5625,31.9375 Q312.0078,32.3438 312.8047,32.3438 Q313.2734,32.3438 313.6016,32.2188 Q313.7969,32.1406 314.0078,31.9219 Q314.1406,31.7891 314.2109,31.75 Q314.2891,31.7109 314.3906,31.7109 Q314.5547,31.7109 314.6797,31.8438 Q314.8125,31.9688 314.8125,32.1406 Q314.8125,32.3125 314.6406,32.5156 Q314.3906,32.8047 313.9922,32.9688 Q313.4531,33.1953 312.8047,33.1953 Q312.0469,33.1953 311.4453,32.8828 Q310.9531,32.6328 310.6094,32.1016 Q310.2656,31.5625 310.2656,30.9219 L310.2656,30.3438 Q310.2656,29.6797 310.5703,29.1094 Q310.8828,28.5313 311.4297,28.2266 Q311.9766,27.9141 312.5938,27.9141 Q312.9609,27.9141 313.2813,28 Q313.6094,28.0781 313.8828,28.2578 Z " fill="#000000"/><text fill="#000000" font-family="sans-serif" font-size="7" lengthAdjust="spacing" textLength="46" x="319.5" y="28.8369">&#171;value object&#187;</text><text fill="#000000" font-family="sans-serif" font-size="7" lengthAdjust="spacing" textLength="26" x="329.5" y="36.6572">Address</text><line style="stroke:#181818;stroke-width:0.25;" x1="305.5" x2="366.5" y1="40.6406" y2="40.6406"/><text fill="#000000" font-family="sans-serif" font-size="7" lengthAdjust="spacing" textLength="19" x="308" y="48.9775">Street</text><text fill="#000000" font-family="sans-serif" font-size="7" lengthAdjust="spacing" textLength="12" x="308" y="56.7979">City</text><text fill="#000000" font-family="sans-serif" font-size="7" lengthAdjust="spacing" textLength="16.5" x="308" y="64.6182">State</text><text fill="#000000" font-family="sans-serif" font-size="7" lengthAdjust="spacing" textLength="25" x="308" y="72.4385">Country</text><text fill="#000000" font-family="sans-serif" font-size="7" lengthAdjust="spacing" textLength="25" x="308" y="80.2588">Zipcode</text><line style="stroke:#181818;stroke-width:0.25;" x1="305.5" x2="366.5" y1="83.7422" y2="83.7422"/></g><!--class JobReference--><g id="elem_JobReference"><rect codeLine="58" fill="#F1F1F1" height="36.4609" id="JobReference" rx="1.25" ry="1.25" style="stroke:#181818;stroke-width:0.25;" width="62" x="698.5" y="202.5"/><ellipse cx="706" cy="216.7305" fill="#ADD1B2" rx="5.5" ry="5.5" style="stroke:#181818;stroke-width:0.5;"/><path d="M707.3828,214.668 Q707.4609,214.5586 707.5547,214.5039 Q707.6484,214.4492 707.7578,214.4492 Q707.9453,214.4492 708.0625,214.582 Q708.1797,214.707 708.1797,215.0117 L708.1797,215.7383 Q708.1797,216.043 708.0625,216.1758 Q707.9453,216.3086 707.7578,216.3086 Q707.5859,216.3086 707.4844,216.207 Q707.3828,216.1133 707.3281,215.8555 Q707.3047,215.6758 707.2109,215.582 Q707.0469,215.3945 706.7422,215.2852 Q706.4375,215.1758 706.125,215.1758 Q705.7422,215.1758 705.4219,215.3398 Q705.1094,215.5039 704.8594,215.8789 Q704.6172,216.2539 704.6172,216.7695 L704.6172,217.3164 Q704.6172,217.9336 705.0625,218.3477 Q705.5078,218.7539 706.3047,218.7539 Q706.7734,218.7539 707.1016,218.6289 Q707.2969,218.5508 707.5078,218.332 Q707.6406,218.1992 707.7109,218.1602 Q707.7891,218.1211 707.8906,218.1211 Q708.0547,218.1211 708.1797,218.2539 Q708.3125,218.3789 708.3125,218.5508 Q708.3125,218.7227 708.1406,218.9258 Q707.8906,219.2148 707.4922,219.3789 Q706.9531,219.6055 706.3047,219.6055 Q705.5469,219.6055 704.9453,219.293 Q704.4531,219.043 704.1094,218.5117 Q703.7656,217.9727 703.7656,217.332 L703.7656,216.7539 Q703.7656,216.0898 704.0703,215.5195 Q704.3828,214.9414 704.9297,214.6367 Q705.4766,214.3242 706.0938,214.3242 Q706.4609,214.3242 706.7813,214.4102 Q707.1094,214.4883 707.3828,214.668 Z " fill="#000000"/><text fill="#000000" font-family="sans-serif" font-size="7" lengthAdjust="spacing" textLength="46" x="713" y="211.3369">&#171;value object&#187;</text><text fill="#000000" font-family="sans-serif" font-size="7" lengthAdjust="spacing" textLength="35" x="718.5" y="219.1572">&#171;identifier&#187;</text><text fill="#000000" font-family="sans-serif" font-size="7" lengthAdjust="spacing" textLength="44" x="714" y="226.9775">JobReference</text><line style="stroke:#181818;stroke-width:0.25;" x1="699" x2="760" y1="230.9609" y2="230.9609"/><line style="stroke:#181818;stroke-width:0.25;" x1="699" x2="760" y1="234.9609" y2="234.9609"/></g><!--class Plugin--><g id="elem_Plugin"><rect codeLine="64" fill="#F1F1F1" height="36.4609" id="Plugin" rx="1.25" ry="1.25" style="stroke:#181818;stroke-width:0.25;" width="41" x="950" y="35.5"/><ellipse cx="957.5" cy="49.7305" fill="#ADD1B2" rx="5.5" ry="5.5" style="stroke:#181818;stroke-width:0.5;"/><path d="M958.8828,47.668 Q958.9609,47.5586 959.0547,47.5039 Q959.1484,47.4492 959.2578,47.4492 Q959.4453,47.4492 959.5625,47.582 Q959.6797,47.707 959.6797,48.0117 L959.6797,48.7383 Q959.6797,49.043 959.5625,49.1758 Q959.4453,49.3086 959.2578,49.3086 Q959.0859,49.3086 958.9844,49.207 Q958.8828,49.1133 958.8281,48.8555 Q958.8047,48.6758 958.7109,48.582 Q958.5469,48.3945 958.2422,48.2852 Q957.9375,48.1758 957.625,48.1758 Q957.2422,48.1758 956.9219,48.3398 Q956.6094,48.5039 956.3594,48.8789 Q956.1172,49.2539 956.1172,49.7695 L956.1172,50.3164 Q956.1172,50.9336 956.5625,51.3477 Q957.0078,51.7539 957.8047,51.7539 Q958.2734,51.7539 958.6016,51.6289 Q958.7969,51.5508 959.0078,51.332 Q959.1406,51.1992 959.2109,51.1602 Q959.2891,51.1211 959.3906,51.1211 Q959.5547,51.1211 959.6797,51.2539 Q959.8125,51.3789 959.8125,51.5508 Q959.8125,51.7227 959.6406,51.9258 Q959.3906,52.2148 958.9922,52.3789 Q958.4531,52.6055 957.8047,52.6055 Q957.0469,52.6055 956.4453,52.293 Q955.9531,52.043 955.6094,51.5117 Q955.2656,50.9727 955.2656,50.332 L955.2656,49.7539 Q955.2656,49.0898 955.5703,48.5195 Q955.8828,47.9414 956.4297,47.6367 Q956.9766,47.3242 957.5938,47.3242 Q957.9609,47.3242 958.2813,47.4102 Q958.6094,47.4883 958.8828,47.668 Z " fill="#000000"/><text fill="#000000" font-family="sans-serif" font-size="7" lengthAdjust="spacing" textLength="20.5" x="966.75" y="44.3369">&#171;root&#187;</text><text fill="#000000" font-family="sans-serif" font-size="7" lengthAdjust="spacing" textLength="25" x="964.5" y="52.1572">&#171;entity&#187;</text><text fill="#000000" font-family="sans-serif" font-size="7" lengthAdjust="spacing" textLength="19.5" x="967.25" y="59.9775">Plugin</text><line style="stroke:#181818;stroke-width:0.25;" x1="950.5" x2="990.5" y1="63.9609" y2="63.9609"/><line style="stroke:#181818;stroke-width:0.25;" x1="950.5" x2="990.5" y1="67.9609" y2="67.9609"/></g><!--class PlugID--><g id="elem_PlugID"><rect codeLine="66" fill="#F1F1F1" height="36.4609" id="PlugID" rx="1.25" ry="1.25" style="stroke:#181818;stroke-width:0.25;" width="62.5" x="813.75" y="125.5"/><ellipse cx="821.25" cy="139.7305" fill="#ADD1B2" rx="5.5" ry="5.5" style="stroke:#181818;stroke-width:0.5;"/><path d="M822.6328,137.668 Q822.7109,137.5586 822.8047,137.5039 Q822.8984,137.4492 823.0078,137.4492 Q823.1953,137.4492 823.3125,137.582 Q823.4297,137.707 823.4297,138.0117 L823.4297,138.7383 Q823.4297,139.043 823.3125,139.1758 Q823.1953,139.3086 823.0078,139.3086 Q822.8359,139.3086 822.7344,139.207 Q822.6328,139.1133 822.5781,138.8555 Q822.5547,138.6758 822.4609,138.582 Q822.2969,138.3945 821.9922,138.2852 Q821.6875,138.1758 821.375,138.1758 Q820.9922,138.1758 820.6719,138.3398 Q820.3594,138.5039 820.1094,138.8789 Q819.8672,139.2539 819.8672,139.7695 L819.8672,140.3164 Q819.8672,140.9336 820.3125,141.3477 Q820.7578,141.7539 821.5547,141.7539 Q822.0234,141.7539 822.3516,141.6289 Q822.5469,141.5508 822.7578,141.332 Q822.8906,141.1992 822.9609,141.1602 Q823.0391,141.1211 823.1406,141.1211 Q823.3047,141.1211 823.4297,141.2539 Q823.5625,141.3789 823.5625,141.5508 Q823.5625,141.7227 823.3906,141.9258 Q823.1406,142.2148 822.7422,142.3789 Q822.2031,142.6055 821.5547,142.6055 Q820.7969,142.6055 820.1953,142.293 Q819.7031,142.043 819.3594,141.5117 Q819.0156,140.9727 819.0156,140.332 L819.0156,139.7539 Q819.0156,139.0898 819.3203,138.5195 Q819.6328,137.9414 820.1797,137.6367 Q820.7266,137.3242 821.3438,137.3242 Q821.7109,137.3242 822.0313,137.4102 Q822.3594,137.4883 822.6328,137.668 Z " fill="#000000"/><text fill="#000000" font-family="sans-serif" font-size="7" lengthAdjust="spacing" textLength="46" x="828.5" y="134.3369">&#171;value object&#187;</text><text fill="#000000" font-family="sans-serif" font-size="7" lengthAdjust="spacing" textLength="35" x="834" y="142.1572">&#171;identifier&#187;</text><text fill="#000000" font-family="sans-serif" font-size="7" lengthAdjust="spacing" textLength="46.5" x="828.25" y="149.9775">PluginIdentifier</text><line style="stroke:#181818;stroke-width:0.25;" x1="814.25" x2="875.75" y1="153.9609" y2="153.9609"/><line style="stroke:#181818;stroke-width:0.25;" x1="814.25" x2="875.75" y1="157.9609" y2="157.9609"/></g><!--class PlugType--><g id="elem_PlugType"><rect codeLine="68" fill="#F1F1F1" height="28.6406" id="PlugType" rx="1.25" ry="1.25" style="stroke:#181818;stroke-width:0.25;" width="62" x="894" y="129.5"/><ellipse cx="901.5" cy="139.8203" fill="#ADD1B2" rx="5.5" ry="5.5" style="stroke:#181818;stroke-width:0.5;"/><path d="M902.8828,137.7578 Q902.9609,137.6484 903.0547,137.5938 Q903.1484,137.5391 903.2578,137.5391 Q903.4453,137.5391 903.5625,137.6719 Q903.6797,137.7969 903.6797,138.1016 L903.6797,138.8281 Q903.6797,139.1328 903.5625,139.2656 Q903.4453,139.3984 903.2578,139.3984 Q903.0859,139.3984 902.9844,139.2969 Q902.8828,139.2031 902.8281,138.9453 Q902.8047,138.7656 902.7109,138.6719 Q902.5469,138.4844 902.2422,138.375 Q901.9375,138.2656 901.625,138.2656 Q901.2422,138.2656 900.9219,138.4297 Q900.6094,138.5938 900.3594,138.9688 Q900.1172,139.3438 900.1172,139.8594 L900.1172,140.4063 Q900.1172,141.0234 900.5625,141.4375 Q901.0078,141.8438 901.8047,141.8438 Q902.2734,141.8438 902.6016,141.7188 Q902.7969,141.6406 903.0078,141.4219 Q903.1406,141.2891 903.2109,141.25 Q903.2891,141.2109 903.3906,141.2109 Q903.5547,141.2109 903.6797,141.3438 Q903.8125,141.4688 903.8125,141.6406 Q903.8125,141.8125 903.6406,142.0156 Q903.3906,142.3047 902.9922,142.4688 Q902.4531,142.6953 901.8047,142.6953 Q901.0469,142.6953 900.4453,142.3828 Q899.9531,142.1328 899.6094,141.6016 Q899.2656,141.0625 899.2656,140.4219 L899.2656,139.8438 Q899.2656,139.1797 899.5703,138.6094 Q899.8828,138.0313 900.4297,137.7266 Q900.9766,137.4141 901.5938,137.4141 Q901.9609,137.4141 902.2813,137.5 Q902.6094,137.5781 902.8828,137.7578 Z " fill="#000000"/><text fill="#000000" font-family="sans-serif" font-size="7" lengthAdjust="spacing" textLength="46" x="908.5" y="138.3369">&#171;value object&#187;</text><text fill="#000000" font-family="sans-serif" font-size="7" lengthAdjust="spacing" textLength="35.5" x="913.75" y="146.1572">PluginType</text><line style="stroke:#181818;stroke-width:0.25;" x1="894.5" x2="955.5" y1="150.1406" y2="150.1406"/><line style="stroke:#181818;stroke-width:0.25;" x1="894.5" x2="955.5" y1="154.1406" y2="154.1406"/></g><!--class PlugClass--><g id="elem_PlugClass"><rect codeLine="70" fill="#F1F1F1" height="28.6406" id="PlugClass" rx="1.25" ry="1.25" style="stroke:#181818;stroke-width:0.25;" width="86" x="973.5" y="129.5"/><ellipse cx="981" cy="139.8203" fill="#ADD1B2" rx="5.5" ry="5.5" style="stroke:#181818;stroke-width:0.5;"/><path d="M982.3828,137.7578 Q982.4609,137.6484 982.5547,137.5938 Q982.6484,137.5391 982.7578,137.5391 Q982.9453,137.5391 983.0625,137.6719 Q983.1797,137.7969 983.1797,138.1016 L983.1797,138.8281 Q983.1797,139.1328 983.0625,139.2656 Q982.9453,139.3984 982.7578,139.3984 Q982.5859,139.3984 982.4844,139.2969 Q982.3828,139.2031 982.3281,138.9453 Q982.3047,138.7656 982.2109,138.6719 Q982.0469,138.4844 981.7422,138.375 Q981.4375,138.2656 981.125,138.2656 Q980.7422,138.2656 980.4219,138.4297 Q980.1094,138.5938 979.8594,138.9688 Q979.6172,139.3438 979.6172,139.8594 L979.6172,140.4063 Q979.6172,141.0234 980.0625,141.4375 Q980.5078,141.8438 981.3047,141.8438 Q981.7734,141.8438 982.1016,141.7188 Q982.2969,141.6406 982.5078,141.4219 Q982.6406,141.2891 982.7109,141.25 Q982.7891,141.2109 982.8906,141.2109 Q983.0547,141.2109 983.1797,141.3438 Q983.3125,141.4688 983.3125,141.6406 Q983.3125,141.8125 983.1406,142.0156 Q982.8906,142.3047 982.4922,142.4688 Q981.9531,142.6953 981.3047,142.6953 Q980.5469,142.6953 979.9453,142.3828 Q979.4531,142.1328 979.1094,141.6016 Q978.7656,141.0625 978.7656,140.4219 L978.7656,139.8438 Q978.7656,139.1797 979.0703,138.6094 Q979.3828,138.0313 979.9297,137.7266 Q980.4766,137.4141 981.0938,137.4141 Q981.4609,137.4141 981.7813,137.5 Q982.1094,137.5781 982.3828,137.7578 Z " fill="#000000"/><text fill="#000000" font-family="sans-serif" font-size="7" lengthAdjust="spacing" textLength="46" x="1000" y="138.3369">&#171;value object&#187;</text><text fill="#000000" font-family="sans-serif" font-size="7" lengthAdjust="spacing" textLength="70" x="988" y="146.1572">PluginMainClassName</text><line style="stroke:#181818;stroke-width:0.25;" x1="974" x2="1059" y1="150.1406" y2="150.1406"/><line style="stroke:#181818;stroke-width:0.25;" x1="974" x2="1059" y1="154.1406" y2="154.1406"/></g><!--class JarFile--><g id="elem_JarFile"><rect codeLine="72" fill="#F1F1F1" height="28.6406" id="JarFile" rx="1.25" ry="1.25" style="stroke:#181818;stroke-width:0.25;" width="62" x="1077" y="129.5"/><ellipse cx="1084.5" cy="139.8203" fill="#ADD1B2" rx="5.5" ry="5.5" style="stroke:#181818;stroke-width:0.5;"/><path d="M1085.8828,137.7578 Q1085.9609,137.6484 1086.0547,137.5938 Q1086.1484,137.5391 1086.2578,137.5391 Q1086.4453,137.5391 1086.5625,137.6719 Q1086.6797,137.7969 1086.6797,138.1016 L1086.6797,138.8281 Q1086.6797,139.1328 1086.5625,139.2656 Q1086.4453,139.3984 1086.2578,139.3984 Q1086.0859,139.3984 1085.9844,139.2969 Q1085.8828,139.2031 1085.8281,138.9453 Q1085.8047,138.7656 1085.7109,138.6719 Q1085.5469,138.4844 1085.2422,138.375 Q1084.9375,138.2656 1084.625,138.2656 Q1084.2422,138.2656 1083.9219,138.4297 Q1083.6094,138.5938 1083.3594,138.9688 Q1083.1172,139.3438 1083.1172,139.8594 L1083.1172,140.4063 Q1083.1172,141.0234 1083.5625,141.4375 Q1084.0078,141.8438 1084.8047,141.8438 Q1085.2734,141.8438 1085.6016,141.7188 Q1085.7969,141.6406 1086.0078,141.4219 Q1086.1406,141.2891 1086.2109,141.25 Q1086.2891,141.2109 1086.3906,141.2109 Q1086.5547,141.2109 1086.6797,141.3438 Q1086.8125,141.4688 1086.8125,141.6406 Q1086.8125,141.8125 1086.6406,142.0156 Q1086.3906,142.3047 1085.9922,142.4688 Q1085.4531,142.6953 1084.8047,142.6953 Q1084.0469,142.6953 1083.4453,142.3828 Q1082.9531,142.1328 1082.6094,141.6016 Q1082.2656,141.0625 1082.2656,140.4219 L1082.2656,139.8438 Q1082.2656,139.1797 1082.5703,138.6094 Q1082.8828,138.0313 1083.4297,137.7266 Q1083.9766,137.4141 1084.5938,137.4141 Q1084.9609,137.4141 1085.2813,137.5 Q1085.6094,137.5781 1085.8828,137.7578 Z " fill="#000000"/><text fill="#000000" font-family="sans-serif" font-size="7" lengthAdjust="spacing" textLength="46" x="1091.5" y="138.3369">&#171;value object&#187;</text><text fill="#000000" font-family="sans-serif" font-size="7" lengthAdjust="spacing" textLength="39" x="1095" y="146.1572">JarFileName</text><line style="stroke:#181818;stroke-width:0.25;" x1="1077.5" x2="1138.5" y1="150.1406" y2="150.1406"/><line style="stroke:#181818;stroke-width:0.25;" x1="1077.5" x2="1138.5" y1="154.1406" y2="154.1406"/></g><!--class PlugDesc--><g id="elem_PlugDesc"><rect codeLine="74" fill="#F1F1F1" height="28.6406" id="PlugDesc" rx="1.25" ry="1.25" style="stroke:#181818;stroke-width:0.25;" width="62" x="1156.5" y="129.5"/><ellipse cx="1164" cy="139.8203" fill="#ADD1B2" rx="5.5" ry="5.5" style="stroke:#181818;stroke-width:0.5;"/><path d="M1165.3828,137.7578 Q1165.4609,137.6484 1165.5547,137.5938 Q1165.6484,137.5391 1165.7578,137.5391 Q1165.9453,137.5391 1166.0625,137.6719 Q1166.1797,137.7969 1166.1797,138.1016 L1166.1797,138.8281 Q1166.1797,139.1328 1166.0625,139.2656 Q1165.9453,139.3984 1165.7578,139.3984 Q1165.5859,139.3984 1165.4844,139.2969 Q1165.3828,139.2031 1165.3281,138.9453 Q1165.3047,138.7656 1165.2109,138.6719 Q1165.0469,138.4844 1164.7422,138.375 Q1164.4375,138.2656 1164.125,138.2656 Q1163.7422,138.2656 1163.4219,138.4297 Q1163.1094,138.5938 1162.8594,138.9688 Q1162.6172,139.3438 1162.6172,139.8594 L1162.6172,140.4063 Q1162.6172,141.0234 1163.0625,141.4375 Q1163.5078,141.8438 1164.3047,141.8438 Q1164.7734,141.8438 1165.1016,141.7188 Q1165.2969,141.6406 1165.5078,141.4219 Q1165.6406,141.2891 1165.7109,141.25 Q1165.7891,141.2109 1165.8906,141.2109 Q1166.0547,141.2109 1166.1797,141.3438 Q1166.3125,141.4688 1166.3125,141.6406 Q1166.3125,141.8125 1166.1406,142.0156 Q1165.8906,142.3047 1165.4922,142.4688 Q1164.9531,142.6953 1164.3047,142.6953 Q1163.5469,142.6953 1162.9453,142.3828 Q1162.4531,142.1328 1162.1094,141.6016 Q1161.7656,141.0625 1161.7656,140.4219 L1161.7656,139.8438 Q1161.7656,139.1797 1162.0703,138.6094 Q1162.3828,138.0313 1162.9297,137.7266 Q1163.4766,137.4141 1164.0938,137.4141 Q1164.4609,137.4141 1164.7813,137.5 Q1165.1094,137.5781 1165.3828,137.7578 Z " fill="#000000"/><text fill="#000000" font-family="sans-serif" font-size="7" lengthAdjust="spacing" textLength="46" x="1171" y="138.3369">&#171;value object&#187;</text><text fill="#000000" font-family="sans-serif" font-size="7" lengthAdjust="spacing" textLength="35.5" x="1176.25" y="146.1572">Description</text><line style="stroke:#181818;stroke-width:0.25;" x1="1157" x2="1218" y1="150.1406" y2="150.1406"/><line style="stroke:#181818;stroke-width:0.25;" x1="1157" x2="1218" y1="154.1406" y2="154.1406"/></g><!--class Customer--><g id="elem_Customer"><rect codeLine="79" fill="#F1F1F1" height="36.4609" id="Customer" rx="1.25" ry="1.25" style="stroke:#181818;stroke-width:0.25;" width="46.5" x="143.25" y="125.5"/><ellipse cx="150.75" cy="139.7305" fill="#ADD1B2" rx="5.5" ry="5.5" style="stroke:#181818;stroke-width:0.5;"/><path d="M152.1328,137.668 Q152.2109,137.5586 152.3047,137.5039 Q152.3984,137.4492 152.5078,137.4492 Q152.6953,137.4492 152.8125,137.582 Q152.9297,137.707 152.9297,138.0117 L152.9297,138.7383 Q152.9297,139.043 152.8125,139.1758 Q152.6953,139.3086 152.5078,139.3086 Q152.3359,139.3086 152.2344,139.207 Q152.1328,139.1133 152.0781,138.8555 Q152.0547,138.6758 151.9609,138.582 Q151.7969,138.3945 151.4922,138.2852 Q151.1875,138.1758 150.875,138.1758 Q150.4922,138.1758 150.1719,138.3398 Q149.8594,138.5039 149.6094,138.8789 Q149.3672,139.2539 149.3672,139.7695 L149.3672,140.3164 Q149.3672,140.9336 149.8125,141.3477 Q150.2578,141.7539 151.0547,141.7539 Q151.5234,141.7539 151.8516,141.6289 Q152.0469,141.5508 152.2578,141.332 Q152.3906,141.1992 152.4609,141.1602 Q152.5391,141.1211 152.6406,141.1211 Q152.8047,141.1211 152.9297,141.2539 Q153.0625,141.3789 153.0625,141.5508 Q153.0625,141.7227 152.8906,141.9258 Q152.6406,142.2148 152.2422,142.3789 Q151.7031,142.6055 151.0547,142.6055 Q150.2969,142.6055 149.6953,142.293 Q149.2031,142.043 148.8594,141.5117 Q148.5156,140.9727 148.5156,140.332 L148.5156,139.7539 Q148.5156,139.0898 148.8203,138.5195 Q149.1328,137.9414 149.6797,137.6367 Q150.2266,137.3242 150.8438,137.3242 Q151.2109,137.3242 151.5313,137.4102 Q151.8594,137.4883 152.1328,137.668 Z " fill="#000000"/><text fill="#000000" font-family="sans-serif" font-size="7" lengthAdjust="spacing" textLength="25" x="160.5" y="134.3369">&#171;entity&#187;</text><text fill="#000000" font-family="sans-serif" font-size="7" lengthAdjust="spacing" textLength="20.5" x="162.75" y="142.1572">&#171;root&#187;</text><text fill="#000000" font-family="sans-serif" font-size="7" lengthAdjust="spacing" textLength="30.5" x="157.75" y="149.9775">Customer</text><line style="stroke:#181818;stroke-width:0.25;" x1="143.75" x2="189.25" y1="153.9609" y2="153.9609"/><line style="stroke:#181818;stroke-width:0.25;" x1="143.75" x2="189.25" y1="157.9609" y2="157.9609"/></g><!--class SystemUser--><g id="elem_SystemUser"><rect codeLine="83" fill="#F1F1F1" height="24" id="SystemUser" rx="1.25" ry="1.25" style="stroke:#181818;stroke-width:0.25;" width="53.5" x="11.25" y="208.75"/><ellipse cx="18.75" cy="216.75" fill="#ADD1B2" rx="5.5" ry="5.5" style="stroke:#181818;stroke-width:0.5;"/><path d="M20.1328,214.6875 Q20.2109,214.5781 20.3047,214.5234 Q20.3984,214.4688 20.5078,214.4688 Q20.6953,214.4688 20.8125,214.6016 Q20.9297,214.7266 20.9297,215.0313 L20.9297,215.7578 Q20.9297,216.0625 20.8125,216.1953 Q20.6953,216.3281 20.5078,216.3281 Q20.3359,216.3281 20.2344,216.2266 Q20.1328,216.1328 20.0781,215.875 Q20.0547,215.6953 19.9609,215.6016 Q19.7969,215.4141 19.4922,215.3047 Q19.1875,215.1953 18.875,215.1953 Q18.4922,215.1953 18.1719,215.3594 Q17.8594,215.5234 17.6094,215.8984 Q17.3672,216.2734 17.3672,216.7891 L17.3672,217.3359 Q17.3672,217.9531 17.8125,218.3672 Q18.2578,218.7734 19.0547,218.7734 Q19.5234,218.7734 19.8516,218.6484 Q20.0469,218.5703 20.2578,218.3516 Q20.3906,218.2188 20.4609,218.1797 Q20.5391,218.1406 20.6406,218.1406 Q20.8047,218.1406 20.9297,218.2734 Q21.0625,218.3984 21.0625,218.5703 Q21.0625,218.7422 20.8906,218.9453 Q20.6406,219.2344 20.2422,219.3984 Q19.7031,219.625 19.0547,219.625 Q18.2969,219.625 17.6953,219.3125 Q17.2031,219.0625 16.8594,218.5313 Q16.5156,217.9922 16.5156,217.3516 L16.5156,216.7734 Q16.5156,216.1094 16.8203,215.5391 Q17.1328,214.9609 17.6797,214.6563 Q18.2266,214.3438 18.8438,214.3438 Q19.2109,214.3438 19.5313,214.4297 Q19.8594,214.5078 20.1328,214.6875 Z " fill="#000000"/><text fill="#000000" font-family="sans-serif" font-size="7" lengthAdjust="spacing" textLength="37.5" x="25.75" y="219.1768">SystemUser</text><line style="stroke:#181818;stroke-width:0.25;" x1="11.75" x2="64.25" y1="224.75" y2="224.75"/><line style="stroke:#181818;stroke-width:0.25;" x1="11.75" x2="64.25" y1="228.75" y2="228.75"/></g><!--class Name1--><g id="elem_Name1"><rect codeLine="86" fill="#F1F1F1" height="39.6406" id="Name1" rx="1.25" ry="1.25" style="stroke:#181818;stroke-width:0.25;" width="35.5" x="82.25" y="201"/><ellipse cx="90.425" cy="209" fill="#ADD1B2" rx="5.5" ry="5.5" style="stroke:#181818;stroke-width:0.5;"/><path d="M91.8078,206.9375 Q91.8859,206.8281 91.9797,206.7734 Q92.0734,206.7188 92.1828,206.7188 Q92.3703,206.7188 92.4875,206.8516 Q92.6047,206.9766 92.6047,207.2813 L92.6047,208.0078 Q92.6047,208.3125 92.4875,208.4453 Q92.3703,208.5781 92.1828,208.5781 Q92.0109,208.5781 91.9094,208.4766 Q91.8078,208.3828 91.7531,208.125 Q91.7297,207.9453 91.6359,207.8516 Q91.4719,207.6641 91.1672,207.5547 Q90.8625,207.4453 90.55,207.4453 Q90.1672,207.4453 89.8469,207.6094 Q89.5344,207.7734 89.2844,208.1484 Q89.0422,208.5234 89.0422,209.0391 L89.0422,209.5859 Q89.0422,210.2031 89.4875,210.6172 Q89.9328,211.0234 90.7297,211.0234 Q91.1984,211.0234 91.5266,210.8984 Q91.7219,210.8203 91.9328,210.6016 Q92.0656,210.4688 92.1359,210.4297 Q92.2141,210.3906 92.3156,210.3906 Q92.4797,210.3906 92.6047,210.5234 Q92.7375,210.6484 92.7375,210.8203 Q92.7375,210.9922 92.5656,211.1953 Q92.3156,211.4844 91.9172,211.6484 Q91.3781,211.875 90.7297,211.875 Q89.9719,211.875 89.3703,211.5625 Q88.8781,211.3125 88.5344,210.7813 Q88.1906,210.2422 88.1906,209.6016 L88.1906,209.0234 Q88.1906,208.3594 88.4953,207.7891 Q88.8078,207.2109 89.3547,206.9063 Q89.9016,206.5938 90.5188,206.5938 Q90.8859,206.5938 91.2063,206.6797 Q91.5344,206.7578 91.8078,206.9375 Z " fill="#000000"/><text fill="#000000" font-family="sans-serif" font-size="7" lengthAdjust="spacing" textLength="18" x="97.575" y="211.4268">Name</text><line style="stroke:#181818;stroke-width:0.25;" x1="82.75" x2="117.25" y1="217" y2="217"/><text fill="#000000" font-family="sans-serif" font-size="7" lengthAdjust="spacing" textLength="29.5" x="85.25" y="225.3369">firstName</text><text fill="#000000" font-family="sans-serif" font-size="7" lengthAdjust="spacing" textLength="29" x="85.25" y="233.1572">lastName</text><line style="stroke:#181818;stroke-width:0.25;" x1="82.75" x2="117.25" y1="236.6406" y2="236.6406"/></g><!--class EMail1--><g id="elem_EMail1"><rect codeLine="90" fill="#F1F1F1" height="28.6406" id="EMail1" rx="1.25" ry="1.25" style="stroke:#181818;stroke-width:0.25;" width="62" x="135.5" y="206.5"/><ellipse cx="143" cy="216.8203" fill="#ADD1B2" rx="5.5" ry="5.5" style="stroke:#181818;stroke-width:0.5;"/><path d="M144.3828,214.7578 Q144.4609,214.6484 144.5547,214.5938 Q144.6484,214.5391 144.7578,214.5391 Q144.9453,214.5391 145.0625,214.6719 Q145.1797,214.7969 145.1797,215.1016 L145.1797,215.8281 Q145.1797,216.1328 145.0625,216.2656 Q144.9453,216.3984 144.7578,216.3984 Q144.5859,216.3984 144.4844,216.2969 Q144.3828,216.2031 144.3281,215.9453 Q144.3047,215.7656 144.2109,215.6719 Q144.0469,215.4844 143.7422,215.375 Q143.4375,215.2656 143.125,215.2656 Q142.7422,215.2656 142.4219,215.4297 Q142.1094,215.5938 141.8594,215.9688 Q141.6172,216.3438 141.6172,216.8594 L141.6172,217.4063 Q141.6172,218.0234 142.0625,218.4375 Q142.5078,218.8438 143.3047,218.8438 Q143.7734,218.8438 144.1016,218.7188 Q144.2969,218.6406 144.5078,218.4219 Q144.6406,218.2891 144.7109,218.25 Q144.7891,218.2109 144.8906,218.2109 Q145.0547,218.2109 145.1797,218.3438 Q145.3125,218.4688 145.3125,218.6406 Q145.3125,218.8125 145.1406,219.0156 Q144.8906,219.3047 144.4922,219.4688 Q143.9531,219.6953 143.3047,219.6953 Q142.5469,219.6953 141.9453,219.3828 Q141.4531,219.1328 141.1094,218.6016 Q140.7656,218.0625 140.7656,217.4219 L140.7656,216.8438 Q140.7656,216.1797 141.0703,215.6094 Q141.3828,215.0313 141.9297,214.7266 Q142.4766,214.4141 143.0938,214.4141 Q143.4609,214.4141 143.7813,214.5 Q144.1094,214.5781 144.3828,214.7578 Z " fill="#000000"/><text fill="#000000" font-family="sans-serif" font-size="7" lengthAdjust="spacing" textLength="46" x="150" y="215.3369">&#171;value object&#187;</text><text fill="#000000" font-family="sans-serif" font-size="7" lengthAdjust="spacing" textLength="19.5" x="163.25" y="223.1572">E-Mail</text><line style="stroke:#181818;stroke-width:0.25;" x1="136" x2="197" y1="227.1406" y2="227.1406"/><line style="stroke:#181818;stroke-width:0.25;" x1="136" x2="197" y1="231.1406" y2="231.1406"/></g><!--class Address2--><g id="elem_Address2"><rect codeLine="93" fill="#F1F1F1" height="67.7422" id="Address2" rx="1.25" ry="1.25" style="stroke:#181818;stroke-width:0.25;" width="62" x="135.5" y="20"/><ellipse cx="143" cy="30.3203" fill="#ADD1B2" rx="5.5" ry="5.5" style="stroke:#181818;stroke-width:0.5;"/><path d="M144.3828,28.2578 Q144.4609,28.1484 144.5547,28.0938 Q144.6484,28.0391 144.7578,28.0391 Q144.9453,28.0391 145.0625,28.1719 Q145.1797,28.2969 145.1797,28.6016 L145.1797,29.3281 Q145.1797,29.6328 145.0625,29.7656 Q144.9453,29.8984 144.7578,29.8984 Q144.5859,29.8984 144.4844,29.7969 Q144.3828,29.7031 144.3281,29.4453 Q144.3047,29.2656 144.2109,29.1719 Q144.0469,28.9844 143.7422,28.875 Q143.4375,28.7656 143.125,28.7656 Q142.7422,28.7656 142.4219,28.9297 Q142.1094,29.0938 141.8594,29.4688 Q141.6172,29.8438 141.6172,30.3594 L141.6172,30.9063 Q141.6172,31.5234 142.0625,31.9375 Q142.5078,32.3438 143.3047,32.3438 Q143.7734,32.3438 144.1016,32.2188 Q144.2969,32.1406 144.5078,31.9219 Q144.6406,31.7891 144.7109,31.75 Q144.7891,31.7109 144.8906,31.7109 Q145.0547,31.7109 145.1797,31.8438 Q145.3125,31.9688 145.3125,32.1406 Q145.3125,32.3125 145.1406,32.5156 Q144.8906,32.8047 144.4922,32.9688 Q143.9531,33.1953 143.3047,33.1953 Q142.5469,33.1953 141.9453,32.8828 Q141.4531,32.6328 141.1094,32.1016 Q140.7656,31.5625 140.7656,30.9219 L140.7656,30.3438 Q140.7656,29.6797 141.0703,29.1094 Q141.3828,28.5313 141.9297,28.2266 Q142.4766,27.9141 143.0938,27.9141 Q143.4609,27.9141 143.7813,28 Q144.1094,28.0781 144.3828,28.2578 Z " fill="#000000"/><text fill="#000000" font-family="sans-serif" font-size="7" lengthAdjust="spacing" textLength="46" x="150" y="28.8369">&#171;value object&#187;</text><text fill="#000000" font-family="sans-serif" font-size="7" lengthAdjust="spacing" textLength="26" x="160" y="36.6572">Address</text><line style="stroke:#181818;stroke-width:0.25;" x1="136" x2="197" y1="40.6406" y2="40.6406"/><text fill="#000000" font-family="sans-serif" font-size="7" lengthAdjust="spacing" textLength="19" x="138.5" y="48.9775">Street</text><text fill="#000000" font-family="sans-serif" font-size="7" lengthAdjust="spacing" textLength="12" x="138.5" y="56.7979">City</text><text fill="#000000" font-family="sans-serif" font-size="7" lengthAdjust="spacing" textLength="16.5" x="138.5" y="64.6182">State</text><text fill="#000000" font-family="sans-serif" font-size="7" lengthAdjust="spacing" textLength="25" x="138.5" y="72.4385">Country</text><text fill="#000000" font-family="sans-serif" font-size="7" lengthAdjust="spacing" textLength="25" x="138.5" y="80.2588">Zipcode</text><line style="stroke:#181818;stroke-width:0.25;" x1="136" x2="197" y1="83.7422" y2="83.7422"/></g><!--class Code--><g id="elem_Code"><rect codeLine="101" fill="#F1F1F1" height="28.6406" id="Code" rx="1.25" ry="1.25" style="stroke:#181818;stroke-width:0.25;" width="62" x="215" y="206.5"/><ellipse cx="222.5" cy="216.8203" fill="#ADD1B2" rx="5.5" ry="5.5" style="stroke:#181818;stroke-width:0.5;"/><path d="M223.8828,214.7578 Q223.9609,214.6484 224.0547,214.5938 Q224.1484,214.5391 224.2578,214.5391 Q224.4453,214.5391 224.5625,214.6719 Q224.6797,214.7969 224.6797,215.1016 L224.6797,215.8281 Q224.6797,216.1328 224.5625,216.2656 Q224.4453,216.3984 224.2578,216.3984 Q224.0859,216.3984 223.9844,216.2969 Q223.8828,216.2031 223.8281,215.9453 Q223.8047,215.7656 223.7109,215.6719 Q223.5469,215.4844 223.2422,215.375 Q222.9375,215.2656 222.625,215.2656 Q222.2422,215.2656 221.9219,215.4297 Q221.6094,215.5938 221.3594,215.9688 Q221.1172,216.3438 221.1172,216.8594 L221.1172,217.4063 Q221.1172,218.0234 221.5625,218.4375 Q222.0078,218.8438 222.8047,218.8438 Q223.2734,218.8438 223.6016,218.7188 Q223.7969,218.6406 224.0078,218.4219 Q224.1406,218.2891 224.2109,218.25 Q224.2891,218.2109 224.3906,218.2109 Q224.5547,218.2109 224.6797,218.3438 Q224.8125,218.4688 224.8125,218.6406 Q224.8125,218.8125 224.6406,219.0156 Q224.3906,219.3047 223.9922,219.4688 Q223.4531,219.6953 222.8047,219.6953 Q222.0469,219.6953 221.4453,219.3828 Q220.9531,219.1328 220.6094,218.6016 Q220.2656,218.0625 220.2656,217.4219 L220.2656,216.8438 Q220.2656,216.1797 220.5703,215.6094 Q220.8828,215.0313 221.4297,214.7266 Q221.9766,214.4141 222.5938,214.4141 Q222.9609,214.4141 223.2813,214.5 Q223.6094,214.5781 223.8828,214.7578 Z " fill="#000000"/><text fill="#000000" font-family="sans-serif" font-size="7" lengthAdjust="spacing" textLength="46" x="229.5" y="215.3369">&#171;value object&#187;</text><text fill="#000000" font-family="sans-serif" font-size="7" lengthAdjust="spacing" textLength="17" x="244" y="223.1572">Code</text><line style="stroke:#181818;stroke-width:0.25;" x1="215.5" x2="276.5" y1="227.1406" y2="227.1406"/><line style="stroke:#181818;stroke-width:0.25;" x1="215.5" x2="276.5" y1="231.1406" y2="231.1406"/></g><!--link Customer to EMail1--><g id="link_Customer_EMail1"><path codeLine="106" d="M166.5,162.07 C166.5,175.58 166.5,190.89 166.5,203.335 " fill="none" id="Customer-to-EMail1" style="stroke:#181818;stroke-width:0.5;"/><polygon fill="#181818" points="166.5,206.335,168.5,201.835,166.5,203.835,164.5,201.835,166.5,206.335" style="stroke:#181818;stroke-width:0.5;"/><text fill="#000000" font-family="sans-serif" font-size="6.5" lengthAdjust="spacing" textLength="19.5" x="167" y="184.3843">has an</text><text fill="#000000" font-family="sans-serif" font-size="6.5" lengthAdjust="spacing" textLength="3.5" x="162.6883" y="171.8678">1</text><text fill="#000000" font-family="sans-serif" font-size="6.5" lengthAdjust="spacing" textLength="3.5" x="162.5953" y="201.0904">1</text></g><!--reverse link Address2 to Customer--><g id="link_Address2_Customer"><path codeLine="107" d="M166.5,90.515 C166.5,103.355 166.5,114.525 166.5,125.365 " fill="none" id="Address2-backto-Customer" style="stroke:#181818;stroke-width:0.5;"/><polygon fill="#181818" points="166.5,87.515,164.5,92.015,166.5,90.015,168.5,92.015,166.5,87.515" style="stroke:#181818;stroke-width:0.5;"/><text fill="#000000" font-family="sans-serif" font-size="6.5" lengthAdjust="spacing" textLength="19.5" x="167" y="108.8843">has an</text></g><!--link Customer to Code--><g id="link_Customer_Code"><path codeLine="109" d="M185.14,162.07 C199.32,175.625 216.3814,191.9371 229.4064,204.3871 " fill="none" id="Customer-to-Code" style="stroke:#181818;stroke-width:0.5;"/><polygon fill="#181818" points="231.575,206.46,229.704,201.9049,229.7678,204.7326,226.9401,204.7964,231.575,206.46" style="stroke:#181818;stroke-width:0.5;"/><text fill="#000000" font-family="sans-serif" font-size="6.5" lengthAdjust="spacing" textLength="34.5" x="209.5" y="184.3843">identified by</text></g><!--link Customer to Name1--><g id="link_Customer_Name1"><path codeLine="110" d="M150.91,162.07 C140.695,173.74 129.3305,186.7273 118.8655,198.6873 " fill="none" id="Customer-to-Name1" style="stroke:#181818;stroke-width:0.5;"/><polygon fill="#181818" points="116.89,200.945,121.3584,198.8754,118.5363,199.0636,118.3481,196.2414,116.89,200.945" style="stroke:#181818;stroke-width:0.5;"/><text fill="#000000" font-family="sans-serif" font-size="6.5" lengthAdjust="spacing" textLength="10.5" x="136" y="184.3843">has</text></g><!--link Customer to SystemUser--><g id="link_Customer_SystemUser"><path codeLine="111" d="M143.11,152.92 C127.795,159.025 107.62,167.885 91,178 C76.225,186.995 63.1921,197.6081 52.8571,206.7031 " fill="none" id="Customer-to-SystemUser" style="stroke:#181818;stroke-width:0.5;"/><polygon fill="#181818" points="50.605,208.685,55.3045,207.2136,52.4818,207.0334,52.6619,204.2107,50.605,208.685" style="stroke:#181818;stroke-width:0.5;"/><text fill="#000000" font-family="sans-serif" font-size="6.5" lengthAdjust="spacing" textLength="35.5" x="91.5" y="184.3843">managed by</text></g><!--reverse link Mode to JobOpening--><g id="link_Mode_JobOpening"><path codeLine="113" d="M652.9519,73.9752 C646.8019,79.1902 642.17,82.81 635.5,87.5 C613.19,103.19 586.215,118.565 566.545,129.185 " fill="none" id="Mode-backto-JobOpening" style="stroke:#181818;stroke-width:0.5;"/><polygon fill="#181818" points="655.24,72.035,650.5143,73.42,653.3332,73.6519,653.1013,76.4708,655.24,72.035" style="stroke:#181818;stroke-width:0.5;"/><text fill="#000000" font-family="sans-serif" font-size="6.5" lengthAdjust="spacing" textLength="24" x="613" y="108.8843">includes</text><text fill="#000000" font-family="sans-serif" font-size="6.5" lengthAdjust="spacing" textLength="3.5" x="647.9085" y="81.8265">1</text><text fill="#000000" font-family="sans-serif" font-size="6.5" lengthAdjust="spacing" textLength="3.5" x="570.4143" y="125.662">1</text></g><!--reverse link JobFunction to JobOpening--><g id="link_JobFunction_JobOpening"><path codeLine="114" d="M582.7027,74.5844 C572.9377,90.1094 560.44,109.97 550.68,125.485 " fill="none" id="JobFunction-backto-JobOpening" style="stroke:#181818;stroke-width:0.5;"/><polygon fill="#181818" points="584.3,72.045,580.2111,74.7893,582.9689,74.1612,583.5971,76.919,584.3,72.045" style="stroke:#181818;stroke-width:0.5;"/><text fill="#000000" font-family="sans-serif" font-size="6.5" lengthAdjust="spacing" textLength="24" x="564.5" y="108.8843">includes</text><text fill="#000000" font-family="sans-serif" font-size="6.5" lengthAdjust="spacing" textLength="3.5" x="578.4933" y="81.8383">1</text><text fill="#000000" font-family="sans-serif" font-size="6.5" lengthAdjust="spacing" textLength="3.5" x="549.0365" y="120.1139">1</text></g><!--reverse link NumberOfVacancies to JobOpening--><g id="link_NumberOfVacancies_JobOpening"><path codeLine="115" d="M511.881,70.9573 C517.786,86.4073 526.26,108.59 532.7,125.455 " fill="none" id="NumberOfVacancies-backto-JobOpening" style="stroke:#181818;stroke-width:0.5;"/><polygon fill="#181818" points="510.81,68.155,510.5484,73.0725,511.7025,70.4902,514.2848,71.6444,510.81,68.155" style="stroke:#181818;stroke-width:0.5;"/><text fill="#000000" font-family="sans-serif" font-size="6.5" lengthAdjust="spacing" textLength="24" x="527" y="108.8843">includes</text><text fill="#000000" font-family="sans-serif" font-size="6.5" lengthAdjust="spacing" textLength="3.5" x="508.0887" y="77.9692">1</text><text fill="#000000" font-family="sans-serif" font-size="6.5" lengthAdjust="spacing" textLength="3.5" x="527.5167" y="120.078">1</text></g><!--reverse link Description to JobOpening--><g id="link_Description_JobOpening"><path codeLine="116" d="M438.4303,74.0348 C444.5603,79.1398 449.05,82.7 455.5,87.5 C473.965,101.24 495.625,115.575 512.325,126.265 " fill="none" id="Description-backto-JobOpening" style="stroke:#181818;stroke-width:0.5;"/><polygon fill="#181818" points="436.125,72.115,438.303,76.5316,438.0461,73.7148,440.8628,73.4579,436.125,72.115" style="stroke:#181818;stroke-width:0.5;"/><text fill="#000000" font-family="sans-serif" font-size="6.5" lengthAdjust="spacing" textLength="24" x="487.5" y="108.8843">includes</text><text fill="#000000" font-family="sans-serif" font-size="6.5" lengthAdjust="spacing" textLength="3.5" x="435.8691" y="81.7832">1</text><text fill="#000000" font-family="sans-serif" font-size="6.5" lengthAdjust="spacing" textLength="3.5" x="504.9382" y="122.3496">1</text></g><!--reverse link Address1 to JobOpening--><g id="link_Address1_JobOpening"><path codeLine="117" d="M369.5629,83.5901 C372.4779,85.6301 373.005,85.82 376,87.5 C420.86,112.655 478.995,129.125 512.48,137.26 " fill="none" id="Address1-backto-JobOpening" style="stroke:#181818;stroke-width:0.5;"/><polygon fill="#181818" points="367.105,81.87,369.6451,86.0888,369.1532,83.3034,371.9386,82.8116,367.105,81.87" style="stroke:#181818;stroke-width:0.5;"/><text fill="#000000" font-family="sans-serif" font-size="6.5" lengthAdjust="spacing" textLength="24" x="423.5" y="108.8843">includes</text><text fill="#000000" font-family="sans-serif" font-size="6.5" lengthAdjust="spacing" textLength="3.5" x="370.9039" y="83.6021">1</text><text fill="#000000" font-family="sans-serif" font-size="6.5" lengthAdjust="spacing" textLength="3.5" x="504.9342" y="134.7606">1</text></g><!--reverse link ContractType to JobOpening--><g id="link_ContractType_JobOpening"><path codeLine="118" d="M738.6725,70.0719 C731.4875,76.7169 724.42,82.31 715,87.5 C666.07,114.46 602.165,130.59 566.525,138.115 " fill="none" id="ContractType-backto-JobOpening" style="stroke:#181818;stroke-width:0.5;"/><polygon fill="#181818" points="740.875,68.035,736.2133,69.6221,739.0396,69.7325,738.9293,72.5587,740.875,68.035" style="stroke:#181818;stroke-width:0.5;"/><text fill="#000000" font-family="sans-serif" font-size="6.5" lengthAdjust="spacing" textLength="24" x="683.5" y="108.8843">includes</text><text fill="#000000" font-family="sans-serif" font-size="6.5" lengthAdjust="spacing" textLength="3.5" x="733.8195" y="78.0461">1</text><text fill="#000000" font-family="sans-serif" font-size="6.5" lengthAdjust="spacing" textLength="3.5" x="570.5715" y="135.7358">1</text></g><!--link JobOpening to SetupStatus--><g id="link_JobOpening_SetupStatus"><path codeLine="119" d="M519.57,162.07 C503.475,176.46 483.5366,194.2906 469.6716,206.6856 " fill="none" id="JobOpening-to-SetupStatus" style="stroke:#181818;stroke-width:0.5;"/><polygon fill="#181818" points="467.435,208.685,472.1228,207.1769,469.2988,207.0188,469.4569,204.1948,467.435,208.685" style="stroke:#181818;stroke-width:0.5;"/><text fill="#000000" font-family="sans-serif" font-size="6.5" lengthAdjust="spacing" textLength="24" x="500" y="184.3843">includes</text><text fill="#000000" font-family="sans-serif" font-size="6.5" lengthAdjust="spacing" textLength="3.5" x="512.2083" y="171.8678">1</text><text fill="#000000" font-family="sans-serif" font-size="6.5" lengthAdjust="spacing" textLength="3.5" x="466.941" y="203.4214">1</text></g><!--link JobOpening to RequirementsStatus--><g id="link_JobOpening_RequirementsStatus"><path codeLine="120" d="M539.5,162.07 C539.5,176.46 539.5,193.29 539.5,205.685 " fill="none" id="JobOpening-to-RequirementsStatus" style="stroke:#181818;stroke-width:0.5;"/><polygon fill="#181818" points="539.5,208.685,541.5,204.185,539.5,206.185,537.5,204.185,539.5,208.685" style="stroke:#181818;stroke-width:0.5;"/><text fill="#000000" font-family="sans-serif" font-size="6.5" lengthAdjust="spacing" textLength="24" x="540" y="184.3843">includes</text><text fill="#000000" font-family="sans-serif" font-size="6.5" lengthAdjust="spacing" textLength="3.5" x="535.6883" y="171.8678">1</text><text fill="#000000" font-family="sans-serif" font-size="6.5" lengthAdjust="spacing" textLength="3.5" x="535.5297" y="203.4214">1</text></g><!--link JobOpening to InterviewPhaseStatus--><g id="link_JobOpening_InterviewPhaseStatus"><path codeLine="121" d="M562.83,162.07 C580.575,175.625 602.2609,192.189 618.5609,204.639 " fill="none" id="JobOpening-to-InterviewPhaseStatus" style="stroke:#181818;stroke-width:0.5;"/><polygon fill="#181818" points="620.945,206.46,618.5828,202.1391,618.9582,204.9425,616.1548,205.3179,620.945,206.46" style="stroke:#181818;stroke-width:0.5;"/><text fill="#000000" font-family="sans-serif" font-size="6.5" lengthAdjust="spacing" textLength="24" x="592.5" y="184.3843">includes</text><text fill="#000000" font-family="sans-serif" font-size="6.5" lengthAdjust="spacing" textLength="3.5" x="563.1739" y="171.8678">1</text><text fill="#000000" font-family="sans-serif" font-size="6.5" lengthAdjust="spacing" textLength="3.5" x="612.6175" y="201.0227">1</text></g><!--link JobOpening to RecruitmentProcess--><g id="link_JobOpening_RecruitmentProcess"><path codeLine="122" d="M512.455,156.375 C484.74,168.8 444.0923,187.0273 412.4773,201.2073 " fill="none" id="JobOpening-to-RecruitmentProcess" style="stroke:#181818;stroke-width:0.5;"/><polygon fill="#181818" points="409.74,202.435,414.6644,202.4183,412.0211,201.4119,413.0274,198.7686,409.74,202.435" style="stroke:#181818;stroke-width:0.5;"/><text fill="#000000" font-family="sans-serif" font-size="6.5" lengthAdjust="spacing" textLength="24" x="460" y="184.3843">includes</text><text fill="#000000" font-family="sans-serif" font-size="6.5" lengthAdjust="spacing" textLength="3.5" x="505.0857" y="156.5057">1</text><text fill="#000000" font-family="sans-serif" font-size="6.5" lengthAdjust="spacing" textLength="3.5" x="413.4818" y="197.1895">1</text></g><!--link JobOpening to JobReference--><g id="link_JobOpening_JobReference"><path codeLine="123" d="M566.605,153.705 C596.865,164.44 647.15,182.84 689.5,201 C692.405,202.245 692.6794,202.3316 695.6694,203.7066 " fill="none" id="JobOpening-to-JobReference" style="stroke:#181818;stroke-width:0.5;"/><polygon fill="#181818" points="698.395,204.96,695.1422,201.2628,696.1237,203.9155,693.471,204.8969,698.395,204.96" style="stroke:#181818;stroke-width:0.5;"/><text fill="#000000" font-family="sans-serif" font-size="6.5" lengthAdjust="spacing" textLength="24" x="653" y="184.3843">includes</text><text fill="#000000" font-family="sans-serif" font-size="6.5" lengthAdjust="spacing" textLength="3.5" x="570.4824" y="153.4769">1</text><text fill="#000000" font-family="sans-serif" font-size="6.5" lengthAdjust="spacing" textLength="3.5" x="691.0961" y="201.6313">1</text></g><!--reverse link Customer to JobOpening--><g id="link_Customer_JobOpening"><path codeLine="124" d="M192.835,143.75 C258.62,143.75 442.37,143.75 512.47,143.75 " fill="none" id="Customer-backto-JobOpening" style="stroke:#181818;stroke-width:0.5;"/><polygon fill="#181818" points="189.835,143.75,194.335,145.75,192.335,143.75,194.335,141.75,189.835,143.75" style="stroke:#181818;stroke-width:0.5;"/><text fill="#000000" font-family="sans-serif" font-size="6.5" lengthAdjust="spacing" textLength="24" x="339.125" y="140.6343">includes</text><text fill="#000000" font-family="sans-serif" font-size="6.5" lengthAdjust="spacing" textLength="3.5" x="193.6761" y="142.1214">1</text><text fill="#000000" font-family="sans-serif" font-size="6.5" lengthAdjust="spacing" textLength="3.5" x="504.9228" y="142.1632">1</text></g><!--reverse link Plugin to JobOpening--><g id="link_Plugin_JobOpening"><path codeLine="125" d="M947.0039,59.5816 C903.2839,69.4666 800.77,92.42 712,110.5 C660.7,120.95 600.59,132.12 566.585,138.34 " fill="none" id="Plugin-backto-JobOpening" style="stroke:#181818;stroke-width:0.5;"/><polygon fill="#181818" points="949.93,58.92,945.0997,57.9616,947.4916,59.4713,945.9819,61.8632,949.93,58.92" style="stroke:#181818;stroke-width:0.5;"/><text fill="#000000" font-family="sans-serif" font-size="6.5" lengthAdjust="spacing" textLength="24" x="747.5" y="108.8843">includes</text><text fill="#000000" font-family="sans-serif" font-size="6.5" lengthAdjust="spacing" textLength="11" x="934.938" y="58.083">0..2</text><text fill="#000000" font-family="sans-serif" font-size="6.5" lengthAdjust="spacing" textLength="3.5" x="570.4597" y="143.9878">1</text></g><!--reverse link RecruitmentProcess to Phase--><g id="link_RecruitmentProcess_Phase"><path codeLine="127" d="M370,245.01 C370,256.775 370,266.39 370,279.48 " fill="none" id="RecruitmentProcess-backto-Phase" style="stroke:#181818;stroke-width:0.5;"/><polygon fill="#181818" points="370,239.01,368,242.01,370,245.01,372,242.01,370,239.01" style="stroke:#181818;stroke-width:0.5;"/><text fill="#000000" font-family="sans-serif" font-size="6.5" lengthAdjust="spacing" textLength="18" x="370.5" y="262.8843">part of</text><text fill="#000000" font-family="sans-serif" font-size="6.5" lengthAdjust="spacing" textLength="3.5" x="366.1883" y="248.7971">1</text><text fill="#000000" font-family="sans-serif" font-size="6.5" lengthAdjust="spacing" textLength="11" x="358.1922" y="274.0403">4..5</text></g><!--link Plugin to PlugClass--><g id="link_Plugin_PlugClass"><path codeLine="128" d="M979.7,72.045 C988.43,88.94 999.9926,111.3149 1007.9726,126.7549 " fill="none" id="Plugin-to-PlugClass" style="stroke:#181818;stroke-width:0.5;"/><polygon fill="#181818" points="1009.35,129.42,1009.0606,124.5041,1008.2021,127.1991,1005.5071,126.3406,1009.35,129.42" style="stroke:#181818;stroke-width:0.5;"/><text fill="#000000" font-family="sans-serif" font-size="6.5" lengthAdjust="spacing" textLength="24" x="999" y="108.8843">includes</text><text fill="#000000" font-family="sans-serif" font-size="6.5" lengthAdjust="spacing" textLength="3.5" x="977.527" y="81.8383">1</text><text fill="#000000" font-family="sans-serif" font-size="6.5" lengthAdjust="spacing" textLength="3.5" x="1003.7919" y="124.1951">1</text></g><!--link Plugin to JarFile--><g id="link_Plugin_JarFile"><path codeLine="129" d="M991.085,67.575 C1016.78,84.205 1058.0016,110.8847 1084.0766,127.7647 " fill="none" id="Plugin-to-JarFile" style="stroke:#181818;stroke-width:0.5;"/><polygon fill="#181818" points="1086.595,129.395,1083.9043,125.2707,1084.4964,128.0364,1081.7306,128.6285,1086.595,129.395" style="stroke:#181818;stroke-width:0.5;"/><text fill="#000000" font-family="sans-serif" font-size="6.5" lengthAdjust="spacing" textLength="24" x="1056" y="108.8843">includes</text><text fill="#000000" font-family="sans-serif" font-size="6.5" lengthAdjust="spacing" textLength="3.5" x="995.0634" y="76.5721">1</text><text fill="#000000" font-family="sans-serif" font-size="6.5" lengthAdjust="spacing" textLength="3.5" x="1077.7404" y="124.1643">1</text></g><!--link Plugin to PlugDesc--><g id="link_Plugin_PlugDesc"><path codeLine="130" d="M991.11,62.21 C1024.31,75.1 1091.62,101.53 1148,125.5 C1150.975,126.765 1151.3183,126.8986 1154.4033,128.2536 " fill="none" id="Plugin-to-PlugDesc" style="stroke:#181818;stroke-width:0.5;"/><polygon fill="#181818" points="1157.15,129.46,1153.8342,125.8192,1154.8611,128.4546,1152.2256,129.4815,1157.15,129.46" style="stroke:#181818;stroke-width:0.5;"/><text fill="#000000" font-family="sans-serif" font-size="6.5" lengthAdjust="spacing" textLength="24" x="1109.5" y="108.8843">includes</text><text fill="#000000" font-family="sans-serif" font-size="6.5" lengthAdjust="spacing" textLength="3.5" x="994.9531" y="61.9726">1</text><text fill="#000000" font-family="sans-serif" font-size="6.5" lengthAdjust="spacing" textLength="3.5" x="1148.9353" y="125.7403">1</text></g><!--link Plugin to PlugID--><g id="link_Plugin_PlugID"><path codeLine="131" d="M949.915,68.845 C928.08,84.33 896.0171,107.0696 872.5871,123.6846 " fill="none" id="Plugin-to-PlugID" style="stroke:#181818;stroke-width:0.5;"/><polygon fill="#181818" points="870.14,125.42,874.9676,124.4484,872.1793,123.9739,872.6538,121.1855,870.14,125.42" style="stroke:#181818;stroke-width:0.5;"/><text fill="#000000" font-family="sans-serif" font-size="6.5" lengthAdjust="spacing" textLength="34.5" x="900.5" y="108.8843">identified by</text><text fill="#000000" font-family="sans-serif" font-size="6.5" lengthAdjust="spacing" textLength="3.5" x="942.4366" y="69.8214">1</text><text fill="#000000" font-family="sans-serif" font-size="6.5" lengthAdjust="spacing" textLength="3.5" x="871.0987" y="120.1716">1</text></g><!--link Plugin to PlugType--><g id="link_Plugin_PlugType"><path codeLine="132" d="M961.4,72.045 C952.765,88.94 941.3308,111.3089 933.4358,126.7489 " fill="none" id="Plugin-to-PlugType" style="stroke:#181818;stroke-width:0.5;"/><polygon fill="#181818" points="932.07,129.42,935.8994,126.3239,933.2082,127.1941,932.338,124.5029,932.07,129.42" style="stroke:#181818;stroke-width:0.5;"/><text fill="#000000" font-family="sans-serif" font-size="6.5" lengthAdjust="spacing" textLength="16" x="945.5" y="108.8843">has a</text><text fill="#000000" font-family="sans-serif" font-size="6.5" lengthAdjust="spacing" textLength="3.5" x="955.9673" y="81.8383">1</text><text fill="#000000" font-family="sans-serif" font-size="6.5" lengthAdjust="spacing" textLength="3.5" x="929.8003" y="124.1951">1</text></g><!--SRC=[bLPBRjim4Dth58Gs1GhOgODsOmG50YT14o0V96qNHJQqD5ROIfHAKYaCmoVA4RhBoK9I_CcIBKKmJ78uysOuF_B3an0LdnyTLJcceYxoQL8MHqcEEP-a16SC5r5KuUGFpW35L-KItLP02StGQPOnoB20U1D5I7vQ2CMlBq054UlN_u_q7X9M4r58oXqh4-0yHfYZBdcZ4TJt3VDBAe0z4_YdYTi6lG_-xWbpq8Xwva5G2ZnXf1Aaf9wuX8pGCscn9wq8nRadILtjex2o54gJrueUgVI2SOBMxPSR8xuDKHv0rDM3mABcQDFTleU_DM6WVC7tSqbJdd5U0ogNlo7H9ZalwRCtejgUlerDlojtCHSb5GmdulkwQlmQ4ZREHmSnhikqaLKJ7vBTY0p1IAzUr3HH_DRBTdqWpaEewAOkbi1kLpznWcb2e75Pbxo9Hk6TUVqQA5WVjl8mx6cQCbiiPZxpU0-20GYtNCYy3FR2_5wKjOoVt_r5gaH6PTJHNbz8gf9-HO2PWDp32XZG16n47C7brpRe5dTvBGkkrIYynlxgaZMjXPgYrbCB_IvZ6z5BHtDubsUZy1fvLmPgwKjWbEmr9dIXM6vmuK4qPHJA5MON90SdRTQZP7UpKcbMD2iS1cbHSr4MmFQ4gTLlVSIiLDCapCBNZEbyQowW-C7LJZlRtAdKP8PyQgy8uq8H7KKAUC9se7-TJwJRSuryhcQpTizwLy4T1mNSBRfEuNMBhwy0TujmJ4jERIjEWnOiVovoyIoUJBxAVtDeD4UoyoDC8tiKT3APk33vRGyXvRK2kUSAAKNBTPkZYPOMRs_uIClT0bEPMLewKdU0iayR84T_LofDDCbhsHkZeBSFCtTQzR18K0_3pBRV3ZA6TwE5LSFUCrggZrVuDXZYxNae38dqlGJs2-b8oh7xEaFpmth2cw3beI13JmxunbmKyQVfzDWvVGzlr6EUuluedVzvElqIDsz1DAym4wXS6N1pFZMuFjmr8U0o_RRFJ7rkDTY-siza_MdkdKvfjLGwHfrDfaBV0000]--></g></svg>