<?xml version="1.0" encoding="us-ascii" standalone="no"?><svg xmlns="http://www.w3.org/2000/svg" xmlns:xlink="http://www.w3.org/1999/xlink" contentStyleType="text/css" height="1552px" preserveAspectRatio="none" style="width:1339px;height:1552px;background:#FFFFFF;" version="1.1" viewBox="0 0 1339 1552" width="1339px" zoomAndPan="magnify"><defs/><g><text fill="#000000" font-family="sans-serif" font-size="14" font-weight="bold" lengthAdjust="spacing" textLength="531" x="397.25" y="25.1074">"US1000 - Add, List and Disable or Enable User of Backoffice" Class Diagram</text><!--class AddUserUI--><g id="elem_AddUserUI"><rect codeLine="4" fill="#F1F1F1" height="66.6211" id="AddUserUI" rx="2.5" ry="2.5" style="stroke:#181818;stroke-width:0.5;" width="330" x="118.5" y="46.6211"/><ellipse cx="246.25" cy="62.6211" fill="#ADD1B2" rx="11" ry="11" style="stroke:#181818;stroke-width:1.0;"/><path d="M249.0156,58.4961 Q249.1719,58.2773 249.3594,58.168 Q249.5469,58.0586 249.7656,58.0586 Q250.1406,58.0586 250.375,58.3242 Q250.6094,58.5742 250.6094,59.1836 L250.6094,60.6367 Q250.6094,61.2461 250.375,61.5117 Q250.1406,61.7773 249.7656,61.7773 Q249.4219,61.7773 249.2188,61.5742 Q249.0156,61.3867 248.9063,60.8711 Q248.8594,60.5117 248.6719,60.3242 Q248.3438,59.9492 247.7344,59.7305 Q247.125,59.5117 246.5,59.5117 Q245.7344,59.5117 245.0938,59.8398 Q244.4688,60.168 243.9688,60.918 Q243.4844,61.668 243.4844,62.6992 L243.4844,63.793 Q243.4844,65.0273 244.375,65.8555 Q245.2656,66.668 246.8594,66.668 Q247.7969,66.668 248.4531,66.418 Q248.8438,66.2617 249.2656,65.8242 Q249.5313,65.5586 249.6719,65.4805 Q249.8281,65.4023 250.0313,65.4023 Q250.3594,65.4023 250.6094,65.668 Q250.875,65.918 250.875,66.2617 Q250.875,66.6055 250.5313,67.0117 Q250.0313,67.5898 249.2344,67.918 Q248.1563,68.3711 246.8594,68.3711 Q245.3438,68.3711 244.1406,67.7461 Q243.1563,67.2461 242.4688,66.1836 Q241.7813,65.1055 241.7813,63.8242 L241.7813,62.668 Q241.7813,61.3398 242.3906,60.1992 Q243.0156,59.043 244.1094,58.4336 Q245.2031,57.8086 246.4375,57.8086 Q247.1719,57.8086 247.8125,57.9805 Q248.4688,58.1367 249.0156,58.4961 Z " fill="#000000"/><text fill="#000000" font-family="sans-serif" font-size="14" lengthAdjust="spacing" textLength="66" x="266.75" y="68.418">AddUserUI</text><line style="stroke:#181818;stroke-width:0.5;" x1="119.5" x2="447.5" y1="78.6211" y2="78.6211"/><line style="stroke:#181818;stroke-width:0.5;" x1="119.5" x2="447.5" y1="86.6211" y2="86.6211"/><ellipse cx="129.5" cy="101.4316" fill="#84BE84" rx="3" ry="3" style="stroke:#038048;stroke-width:1.0;"/><text fill="#000000" font-family="sans-serif" font-size="14" lengthAdjust="spacing" textLength="304" x="138.5" y="105.7285">showRoles(final Set&lt;Role&gt; roleTypes) : boolean</text></g><!--class AddUserController--><g id="elem_AddUserController"><rect codeLine="8" fill="#F1F1F1" height="178.3477" id="AddUserController" rx="2.5" ry="2.5" style="stroke:#181818;stroke-width:0.5;" width="553" x="7" y="174.6211"/><ellipse cx="221.25" cy="190.6211" fill="#ADD1B2" rx="11" ry="11" style="stroke:#181818;stroke-width:1.0;"/><path d="M224.0156,186.4961 Q224.1719,186.2773 224.3594,186.168 Q224.5469,186.0586 224.7656,186.0586 Q225.1406,186.0586 225.375,186.3242 Q225.6094,186.5742 225.6094,187.1836 L225.6094,188.6367 Q225.6094,189.2461 225.375,189.5117 Q225.1406,189.7773 224.7656,189.7773 Q224.4219,189.7773 224.2188,189.5742 Q224.0156,189.3867 223.9063,188.8711 Q223.8594,188.5117 223.6719,188.3242 Q223.3438,187.9492 222.7344,187.7305 Q222.125,187.5117 221.5,187.5117 Q220.7344,187.5117 220.0938,187.8398 Q219.4688,188.168 218.9688,188.918 Q218.4844,189.668 218.4844,190.6992 L218.4844,191.793 Q218.4844,193.0273 219.375,193.8555 Q220.2656,194.668 221.8594,194.668 Q222.7969,194.668 223.4531,194.418 Q223.8438,194.2617 224.2656,193.8242 Q224.5313,193.5586 224.6719,193.4805 Q224.8281,193.4023 225.0313,193.4023 Q225.3594,193.4023 225.6094,193.668 Q225.875,193.918 225.875,194.2617 Q225.875,194.6055 225.5313,195.0117 Q225.0313,195.5898 224.2344,195.918 Q223.1563,196.3711 221.8594,196.3711 Q220.3438,196.3711 219.1406,195.7461 Q218.1563,195.2461 217.4688,194.1836 Q216.7813,193.1055 216.7813,191.8242 L216.7813,190.668 Q216.7813,189.3398 217.3906,188.1992 Q218.0156,187.043 219.1094,186.4336 Q220.2031,185.8086 221.4375,185.8086 Q222.1719,185.8086 222.8125,185.9805 Q223.4688,186.1367 224.0156,186.4961 Z " fill="#000000"/><text fill="#000000" font-family="sans-serif" font-size="14" lengthAdjust="spacing" textLength="116" x="241.75" y="196.418">AddUserController</text><line style="stroke:#181818;stroke-width:0.5;" x1="8" x2="559" y1="206.6211" y2="206.6211"/><rect fill="none" height="6" style="stroke:#C82930;stroke-width:1.0;" width="6" x="15" y="218.4316"/><text fill="#000000" font-family="sans-serif" font-size="14" lengthAdjust="spacing" textLength="221" x="27" y="225.7285">userSvc : UserManagementService</text><line style="stroke:#181818;stroke-width:0.5;" x1="8" x2="559" y1="233.2422" y2="233.2422"/><ellipse cx="18" cy="248.0527" fill="#84BE84" rx="3" ry="3" style="stroke:#038048;stroke-width:1.0;"/><text fill="#000000" font-family="sans-serif" font-size="14" lengthAdjust="spacing" textLength="305" x="27" y="252.3496">addUser(final String email, final String password,</text><text fill="#000000" font-family="sans-serif" font-size="14" lengthAdjust="spacing" textLength="498" x="27" y="270.9707">final String firstName, final String lastName, final Set&lt;Role&gt; roles) : SystemUser</text><ellipse cx="18" cy="285.2949" fill="#84BE84" rx="3" ry="3" style="stroke:#038048;stroke-width:1.0;"/><text fill="#000000" font-family="sans-serif" font-size="14" lengthAdjust="spacing" textLength="443" x="27" y="289.5918">addUser(final String email, final String password, final String firstName,</text><text fill="#000000" font-family="sans-serif" font-size="14" lengthAdjust="spacing" textLength="527" x="27" y="308.2129">final String lastName, final Set&lt;Role&gt; roles, final Calendar createdOn) : SystemUser</text><ellipse cx="18" cy="322.5371" fill="#84BE84" rx="3" ry="3" style="stroke:#038048;stroke-width:1.0;"/><text fill="#000000" font-family="sans-serif" font-size="14" lengthAdjust="spacing" textLength="147" x="27" y="326.834">getRoleTypes() : Role[]</text><ellipse cx="18" cy="341.1582" fill="#84BE84" rx="3" ry="3" style="stroke:#038048;stroke-width:1.0;"/><text fill="#000000" font-family="sans-serif" font-size="14" lengthAdjust="spacing" textLength="177" x="27" y="345.4551">generatePassword() : String</text></g><!--class ListUsersUI--><g id="elem_ListUsersUI"><rect codeLine="22" fill="#F1F1F1" height="48" id="ListUsersUI" rx="2.5" ry="2.5" style="stroke:#181818;stroke-width:0.5;" width="102" x="718.5" y="56.1211"/><ellipse cx="733.5" cy="72.1211" fill="#ADD1B2" rx="11" ry="11" style="stroke:#181818;stroke-width:1.0;"/><path d="M736.2656,67.9961 Q736.4219,67.7773 736.6094,67.668 Q736.7969,67.5586 737.0156,67.5586 Q737.3906,67.5586 737.625,67.8242 Q737.8594,68.0742 737.8594,68.6836 L737.8594,70.1367 Q737.8594,70.7461 737.625,71.0117 Q737.3906,71.2773 737.0156,71.2773 Q736.6719,71.2773 736.4688,71.0742 Q736.2656,70.8867 736.1563,70.3711 Q736.1094,70.0117 735.9219,69.8242 Q735.5938,69.4492 734.9844,69.2305 Q734.375,69.0117 733.75,69.0117 Q732.9844,69.0117 732.3438,69.3398 Q731.7188,69.668 731.2188,70.418 Q730.7344,71.168 730.7344,72.1992 L730.7344,73.293 Q730.7344,74.5273 731.625,75.3555 Q732.5156,76.168 734.1094,76.168 Q735.0469,76.168 735.7031,75.918 Q736.0938,75.7617 736.5156,75.3242 Q736.7813,75.0586 736.9219,74.9805 Q737.0781,74.9023 737.2813,74.9023 Q737.6094,74.9023 737.8594,75.168 Q738.125,75.418 738.125,75.7617 Q738.125,76.1055 737.7813,76.5117 Q737.2813,77.0898 736.4844,77.418 Q735.4063,77.8711 734.1094,77.8711 Q732.5938,77.8711 731.3906,77.2461 Q730.4063,76.7461 729.7188,75.6836 Q729.0313,74.6055 729.0313,73.3242 L729.0313,72.168 Q729.0313,70.8398 729.6406,69.6992 Q730.2656,68.543 731.3594,67.9336 Q732.4531,67.3086 733.6875,67.3086 Q734.4219,67.3086 735.0625,67.4805 Q735.7188,67.6367 736.2656,67.9961 Z " fill="#000000"/><text fill="#000000" font-family="sans-serif" font-size="14" lengthAdjust="spacing" textLength="70" x="747.5" y="77.918">ListUsersUI</text><line style="stroke:#181818;stroke-width:0.5;" x1="719.5" x2="819.5" y1="88.1211" y2="88.1211"/><line style="stroke:#181818;stroke-width:0.5;" x1="719.5" x2="819.5" y1="96.1211" y2="96.1211"/></g><!--class ListUsersController--><g id="elem_ListUsersController"><rect codeLine="25" fill="#F1F1F1" height="122.4844" id="ListUsersController" rx="2.5" ry="2.5" style="stroke:#181818;stroke-width:0.5;" width="348" x="595.5" y="202.6211"/><ellipse cx="705.25" cy="218.6211" fill="#ADD1B2" rx="11" ry="11" style="stroke:#181818;stroke-width:1.0;"/><path d="M708.0156,214.4961 Q708.1719,214.2773 708.3594,214.168 Q708.5469,214.0586 708.7656,214.0586 Q709.1406,214.0586 709.375,214.3242 Q709.6094,214.5742 709.6094,215.1836 L709.6094,216.6367 Q709.6094,217.2461 709.375,217.5117 Q709.1406,217.7773 708.7656,217.7773 Q708.4219,217.7773 708.2188,217.5742 Q708.0156,217.3867 707.9063,216.8711 Q707.8594,216.5117 707.6719,216.3242 Q707.3438,215.9492 706.7344,215.7305 Q706.125,215.5117 705.5,215.5117 Q704.7344,215.5117 704.0938,215.8398 Q703.4688,216.168 702.9688,216.918 Q702.4844,217.668 702.4844,218.6992 L702.4844,219.793 Q702.4844,221.0273 703.375,221.8555 Q704.2656,222.668 705.8594,222.668 Q706.7969,222.668 707.4531,222.418 Q707.8438,222.2617 708.2656,221.8242 Q708.5313,221.5586 708.6719,221.4805 Q708.8281,221.4023 709.0313,221.4023 Q709.3594,221.4023 709.6094,221.668 Q709.875,221.918 709.875,222.2617 Q709.875,222.6055 709.5313,223.0117 Q709.0313,223.5898 708.2344,223.918 Q707.1563,224.3711 705.8594,224.3711 Q704.3438,224.3711 703.1406,223.7461 Q702.1563,223.2461 701.4688,222.1836 Q700.7813,221.1055 700.7813,219.8242 L700.7813,218.668 Q700.7813,217.3398 701.3906,216.1992 Q702.0156,215.043 703.1094,214.4336 Q704.2031,213.8086 705.4375,213.8086 Q706.1719,213.8086 706.8125,213.9805 Q707.4688,214.1367 708.0156,214.4961 Z " fill="#000000"/><text fill="#000000" font-family="sans-serif" font-size="14" lengthAdjust="spacing" textLength="120" x="725.75" y="224.418">ListUsersController</text><line style="stroke:#181818;stroke-width:0.5;" x1="596.5" x2="942.5" y1="234.6211" y2="234.6211"/><rect fill="none" height="6" style="stroke:#C82930;stroke-width:1.0;" width="6" x="603.5" y="246.4316"/><text fill="#000000" font-family="sans-serif" font-size="14" lengthAdjust="spacing" textLength="221" x="615.5" y="253.7285">userSvc : UserManagementService</text><line style="stroke:#181818;stroke-width:0.5;" x1="596.5" x2="942.5" y1="261.2422" y2="261.2422"/><ellipse cx="606.5" cy="276.0527" fill="#84BE84" rx="3" ry="3" style="stroke:#038048;stroke-width:1.0;"/><text fill="#000000" font-family="sans-serif" font-size="14" lengthAdjust="spacing" textLength="322" x="615.5" y="280.3496">filteredUsersOfBackOffice() : Iterable&lt;SystemUser&gt;</text><ellipse cx="606.5" cy="294.6738" fill="#84BE84" rx="3" ry="3" style="stroke:#038048;stroke-width:1.0;"/><text fill="#000000" font-family="sans-serif" font-size="14" lengthAdjust="spacing" textLength="210" x="615.5" y="298.9707">allUsers() : Iterable&lt;SystemUser&gt;</text><ellipse cx="606.5" cy="313.2949" fill="#84BE84" rx="3" ry="3" style="stroke:#038048;stroke-width:1.0;"/><text fill="#000000" font-family="sans-serif" font-size="14" lengthAdjust="spacing" textLength="295" x="615.5" y="317.5918">find(final Username u) : Optional&lt;SystemUser&gt;</text></g><!--class DeactivateUserUI--><g id="elem_DeactivateUserUI"><rect codeLine="35" fill="#F1F1F1" height="48" id="DeactivateUserUI" rx="2.5" ry="2.5" style="stroke:#181818;stroke-width:0.5;" width="140" x="1085.5" y="56.1211"/><ellipse cx="1100.5" cy="72.1211" fill="#ADD1B2" rx="11" ry="11" style="stroke:#181818;stroke-width:1.0;"/><path d="M1103.2656,67.9961 Q1103.4219,67.7773 1103.6094,67.668 Q1103.7969,67.5586 1104.0156,67.5586 Q1104.3906,67.5586 1104.625,67.8242 Q1104.8594,68.0742 1104.8594,68.6836 L1104.8594,70.1367 Q1104.8594,70.7461 1104.625,71.0117 Q1104.3906,71.2773 1104.0156,71.2773 Q1103.6719,71.2773 1103.4688,71.0742 Q1103.2656,70.8867 1103.1563,70.3711 Q1103.1094,70.0117 1102.9219,69.8242 Q1102.5938,69.4492 1101.9844,69.2305 Q1101.375,69.0117 1100.75,69.0117 Q1099.9844,69.0117 1099.3438,69.3398 Q1098.7188,69.668 1098.2188,70.418 Q1097.7344,71.168 1097.7344,72.1992 L1097.7344,73.293 Q1097.7344,74.5273 1098.625,75.3555 Q1099.5156,76.168 1101.1094,76.168 Q1102.0469,76.168 1102.7031,75.918 Q1103.0938,75.7617 1103.5156,75.3242 Q1103.7813,75.0586 1103.9219,74.9805 Q1104.0781,74.9023 1104.2813,74.9023 Q1104.6094,74.9023 1104.8594,75.168 Q1105.125,75.418 1105.125,75.7617 Q1105.125,76.1055 1104.7813,76.5117 Q1104.2813,77.0898 1103.4844,77.418 Q1102.4063,77.8711 1101.1094,77.8711 Q1099.5938,77.8711 1098.3906,77.2461 Q1097.4063,76.7461 1096.7188,75.6836 Q1096.0313,74.6055 1096.0313,73.3242 L1096.0313,72.168 Q1096.0313,70.8398 1096.6406,69.6992 Q1097.2656,68.543 1098.3594,67.9336 Q1099.4531,67.3086 1100.6875,67.3086 Q1101.4219,67.3086 1102.0625,67.4805 Q1102.7188,67.6367 1103.2656,67.9961 Z " fill="#000000"/><text fill="#000000" font-family="sans-serif" font-size="14" lengthAdjust="spacing" textLength="108" x="1114.5" y="77.918">DeactivateUserUI</text><line style="stroke:#181818;stroke-width:0.5;" x1="1086.5" x2="1224.5" y1="88.1211" y2="88.1211"/><line style="stroke:#181818;stroke-width:0.5;" x1="1086.5" x2="1224.5" y1="96.1211" y2="96.1211"/></g><!--class DeactivateUserController--><g id="elem_DeactivateUserController"><rect codeLine="38" fill="#F1F1F1" height="141.1055" id="DeactivateUserController" rx="2.5" ry="2.5" style="stroke:#181818;stroke-width:0.5;" width="354" x="978.5" y="193.1211"/><ellipse cx="1072.25" cy="209.1211" fill="#ADD1B2" rx="11" ry="11" style="stroke:#181818;stroke-width:1.0;"/><path d="M1075.0156,204.9961 Q1075.1719,204.7773 1075.3594,204.668 Q1075.5469,204.5586 1075.7656,204.5586 Q1076.1406,204.5586 1076.375,204.8242 Q1076.6094,205.0742 1076.6094,205.6836 L1076.6094,207.1367 Q1076.6094,207.7461 1076.375,208.0117 Q1076.1406,208.2773 1075.7656,208.2773 Q1075.4219,208.2773 1075.2188,208.0742 Q1075.0156,207.8867 1074.9063,207.3711 Q1074.8594,207.0117 1074.6719,206.8242 Q1074.3438,206.4492 1073.7344,206.2305 Q1073.125,206.0117 1072.5,206.0117 Q1071.7344,206.0117 1071.0938,206.3398 Q1070.4688,206.668 1069.9688,207.418 Q1069.4844,208.168 1069.4844,209.1992 L1069.4844,210.293 Q1069.4844,211.5273 1070.375,212.3555 Q1071.2656,213.168 1072.8594,213.168 Q1073.7969,213.168 1074.4531,212.918 Q1074.8438,212.7617 1075.2656,212.3242 Q1075.5313,212.0586 1075.6719,211.9805 Q1075.8281,211.9023 1076.0313,211.9023 Q1076.3594,211.9023 1076.6094,212.168 Q1076.875,212.418 1076.875,212.7617 Q1076.875,213.1055 1076.5313,213.5117 Q1076.0313,214.0898 1075.2344,214.418 Q1074.1563,214.8711 1072.8594,214.8711 Q1071.3438,214.8711 1070.1406,214.2461 Q1069.1563,213.7461 1068.4688,212.6836 Q1067.7813,211.6055 1067.7813,210.3242 L1067.7813,209.168 Q1067.7813,207.8398 1068.3906,206.6992 Q1069.0156,205.543 1070.1094,204.9336 Q1071.2031,204.3086 1072.4375,204.3086 Q1073.1719,204.3086 1073.8125,204.4805 Q1074.4688,204.6367 1075.0156,204.9961 Z " fill="#000000"/><text fill="#000000" font-family="sans-serif" font-size="14" lengthAdjust="spacing" textLength="158" x="1092.75" y="214.918">DeactivateUserController</text><line style="stroke:#181818;stroke-width:0.5;" x1="979.5" x2="1331.5" y1="225.1211" y2="225.1211"/><rect fill="none" height="6" style="stroke:#C82930;stroke-width:1.0;" width="6" x="986.5" y="236.9316"/><text fill="#000000" font-family="sans-serif" font-size="14" lengthAdjust="spacing" textLength="221" x="998.5" y="244.2285">userSvc : UserManagementService</text><line style="stroke:#181818;stroke-width:0.5;" x1="979.5" x2="1331.5" y1="251.7422" y2="251.7422"/><ellipse cx="989.5" cy="266.5527" fill="#84BE84" rx="3" ry="3" style="stroke:#038048;stroke-width:1.0;"/><text fill="#000000" font-family="sans-serif" font-size="14" lengthAdjust="spacing" textLength="233" x="998.5" y="270.8496">activeUsers() : Iterable&lt;SystemUser&gt;</text><ellipse cx="989.5" cy="285.1738" fill="#84BE84" rx="3" ry="3" style="stroke:#038048;stroke-width:1.0;"/><text fill="#000000" font-family="sans-serif" font-size="14" lengthAdjust="spacing" textLength="249" x="998.5" y="289.4707">deactiveUsers() : Iterable&lt;SystemUser&gt;</text><ellipse cx="989.5" cy="303.7949" fill="#84BE84" rx="3" ry="3" style="stroke:#038048;stroke-width:1.0;"/><text fill="#000000" font-family="sans-serif" font-size="14" lengthAdjust="spacing" textLength="312" x="998.5" y="308.0918">activateUser(final SystemUser user) : SystemUser</text><ellipse cx="989.5" cy="322.416" fill="#84BE84" rx="3" ry="3" style="stroke:#038048;stroke-width:1.0;"/><text fill="#000000" font-family="sans-serif" font-size="14" lengthAdjust="spacing" textLength="328" x="998.5" y="326.7129">deactivateUser(final SystemUser user) : SystemUser</text></g><!--class UserManagementService--><g id="elem_UserManagementService"><rect codeLine="50" fill="#F1F1F1" height="327.3164" id="UserManagementService" rx="2.5" ry="2.5" style="stroke:#181818;stroke-width:0.5;" width="576" x="481.5" y="413.6211"/><ellipse cx="686.25" cy="429.6211" fill="#ADD1B2" rx="11" ry="11" style="stroke:#181818;stroke-width:1.0;"/><path d="M689.0156,425.4961 Q689.1719,425.2773 689.3594,425.168 Q689.5469,425.0586 689.7656,425.0586 Q690.1406,425.0586 690.375,425.3242 Q690.6094,425.5742 690.6094,426.1836 L690.6094,427.6367 Q690.6094,428.2461 690.375,428.5117 Q690.1406,428.7773 689.7656,428.7773 Q689.4219,428.7773 689.2188,428.5742 Q689.0156,428.3867 688.9063,427.8711 Q688.8594,427.5117 688.6719,427.3242 Q688.3438,426.9492 687.7344,426.7305 Q687.125,426.5117 686.5,426.5117 Q685.7344,426.5117 685.0938,426.8398 Q684.4688,427.168 683.9688,427.918 Q683.4844,428.668 683.4844,429.6992 L683.4844,430.793 Q683.4844,432.0273 684.375,432.8555 Q685.2656,433.668 686.8594,433.668 Q687.7969,433.668 688.4531,433.418 Q688.8438,433.2617 689.2656,432.8242 Q689.5313,432.5586 689.6719,432.4805 Q689.8281,432.4023 690.0313,432.4023 Q690.3594,432.4023 690.6094,432.668 Q690.875,432.918 690.875,433.2617 Q690.875,433.6055 690.5313,434.0117 Q690.0313,434.5898 689.2344,434.918 Q688.1563,435.3711 686.8594,435.3711 Q685.3438,435.3711 684.1406,434.7461 Q683.1563,434.2461 682.4688,433.1836 Q681.7813,432.1055 681.7813,430.8242 L681.7813,429.668 Q681.7813,428.3398 682.3906,427.1992 Q683.0156,426.043 684.1094,425.4336 Q685.2031,424.8086 686.4375,424.8086 Q687.1719,424.8086 687.8125,424.9805 Q688.4688,425.1367 689.0156,425.4961 Z " fill="#000000"/><text fill="#000000" font-family="sans-serif" font-size="14" lengthAdjust="spacing" textLength="158" x="706.75" y="435.418">UserManagementService</text><line style="stroke:#181818;stroke-width:0.5;" x1="482.5" x2="1056.5" y1="445.6211" y2="445.6211"/><rect fill="none" height="6" style="stroke:#C82930;stroke-width:1.0;" width="6" x="489.5" y="457.4316"/><text fill="#000000" font-family="sans-serif" font-size="14" lengthAdjust="spacing" textLength="205" x="501.5" y="464.7285">userRepository : UserRepository</text><rect fill="none" height="6" style="stroke:#C82930;stroke-width:1.0;" width="6" x="489.5" y="476.0527"/><text fill="#000000" font-family="sans-serif" font-size="14" lengthAdjust="spacing" textLength="178" x="501.5" y="483.3496">encoder : PasswordEncoder</text><rect fill="none" height="6" style="stroke:#C82930;stroke-width:1.0;" width="6" x="489.5" y="494.6738"/><text fill="#000000" font-family="sans-serif" font-size="14" lengthAdjust="spacing" textLength="146" x="501.5" y="501.9707">policy : PasswordPolicy</text><line style="stroke:#181818;stroke-width:0.5;" x1="482.5" x2="1056.5" y1="509.4844" y2="509.4844"/><ellipse cx="492.5" cy="533.6055" fill="#84BE84" rx="3" ry="3" style="stroke:#038048;stroke-width:1.0;"/><text fill="#000000" font-family="sans-serif" font-size="14" lengthAdjust="spacing" textLength="546" x="501.5" y="528.5918">registerNewUser(final String username, final String rawPassword, final String firstName,</text><text fill="#000000" font-family="sans-serif" font-size="14" lengthAdjust="spacing" textLength="384" x="501.5" y="547.2129">final String lastName, final String email, final Set&lt;Role&gt; roles,</text><text fill="#000000" font-family="sans-serif" font-size="14" lengthAdjust="spacing" textLength="251" x="501.5" y="565.834">final Calendar createdOn) : SystemUser</text><ellipse cx="492.5" cy="580.1582" fill="#84BE84" rx="3" ry="3" style="stroke:#038048;stroke-width:1.0;"/><text fill="#000000" font-family="sans-serif" font-size="14" lengthAdjust="spacing" textLength="546" x="501.5" y="584.4551">registerNewUser(final String username, final String rawPassword, final String firstName,</text><text fill="#000000" font-family="sans-serif" font-size="14" lengthAdjust="spacing" textLength="472" x="501.5" y="603.0762">final String lastName, final String email, final Set&lt;Role&gt; roles) : SystemUser</text><ellipse cx="492.5" cy="617.4004" fill="#84BE84" rx="3" ry="3" style="stroke:#038048;stroke-width:1.0;"/><text fill="#000000" font-family="sans-serif" font-size="14" lengthAdjust="spacing" textLength="523" x="501.5" y="621.6973">registerUser(final Username username, final Password password, final Name name,</text><text fill="#000000" font-family="sans-serif" font-size="14" lengthAdjust="spacing" textLength="384" x="501.5" y="640.3184">final EmailAddress email, final Set&lt;Role&gt; roles) : SystemUser</text><ellipse cx="492.5" cy="654.6426" fill="#84BE84" rx="3" ry="3" style="stroke:#038048;stroke-width:1.0;"/><text fill="#000000" font-family="sans-serif" font-size="14" lengthAdjust="spacing" textLength="233" x="501.5" y="658.9395">activeUsers() : Iterable&lt;SystemUser&gt;</text><ellipse cx="492.5" cy="673.2637" fill="#84BE84" rx="3" ry="3" style="stroke:#038048;stroke-width:1.0;"/><text fill="#000000" font-family="sans-serif" font-size="14" lengthAdjust="spacing" textLength="269" x="501.5" y="677.5605">deactivatedUsers() : Iterable&lt;SystemUser&gt;</text><ellipse cx="492.5" cy="691.8848" fill="#84BE84" rx="3" ry="3" style="stroke:#038048;stroke-width:1.0;"/><text fill="#000000" font-family="sans-serif" font-size="14" lengthAdjust="spacing" textLength="312" x="501.5" y="696.1816">activateUser(final SystemUser user) : SystemUser</text><ellipse cx="492.5" cy="710.5059" fill="#84BE84" rx="3" ry="3" style="stroke:#038048;stroke-width:1.0;"/><text fill="#000000" font-family="sans-serif" font-size="14" lengthAdjust="spacing" textLength="328" x="501.5" y="714.8027">deactivateUser(final SystemUser user) : SystemUser</text><ellipse cx="492.5" cy="729.127" fill="#84BE84" rx="3" ry="3" style="stroke:#038048;stroke-width:1.0;"/><text fill="#000000" font-family="sans-serif" font-size="14" lengthAdjust="spacing" textLength="210" x="501.5" y="733.4238">allUsers() : Iterable&lt;SystemUser&gt;</text></g><!--class EmailAddress--><g id="elem_EmailAddress"><rect codeLine="69" fill="#F1F1F1" height="66.6211" id="EmailAddress" rx="2.5" ry="2.5" style="stroke:#181818;stroke-width:0.5;" width="118" x="617.5" y="1450.1211"/><ellipse cx="632.5" cy="1466.1211" fill="#ADD1B2" rx="11" ry="11" style="stroke:#181818;stroke-width:1.0;"/><path d="M635.2656,1461.9961 Q635.4219,1461.7773 635.6094,1461.668 Q635.7969,1461.5586 636.0156,1461.5586 Q636.3906,1461.5586 636.625,1461.8242 Q636.8594,1462.0742 636.8594,1462.6836 L636.8594,1464.1367 Q636.8594,1464.7461 636.625,1465.0117 Q636.3906,1465.2773 636.0156,1465.2773 Q635.6719,1465.2773 635.4688,1465.0742 Q635.2656,1464.8867 635.1563,1464.3711 Q635.1094,1464.0117 634.9219,1463.8242 Q634.5938,1463.4492 633.9844,1463.2305 Q633.375,1463.0117 632.75,1463.0117 Q631.9844,1463.0117 631.3438,1463.3398 Q630.7188,1463.668 630.2188,1464.418 Q629.7344,1465.168 629.7344,1466.1992 L629.7344,1467.293 Q629.7344,1468.5273 630.625,1469.3555 Q631.5156,1470.168 633.1094,1470.168 Q634.0469,1470.168 634.7031,1469.918 Q635.0938,1469.7617 635.5156,1469.3242 Q635.7813,1469.0586 635.9219,1468.9805 Q636.0781,1468.9023 636.2813,1468.9023 Q636.6094,1468.9023 636.8594,1469.168 Q637.125,1469.418 637.125,1469.7617 Q637.125,1470.1055 636.7813,1470.5117 Q636.2813,1471.0898 635.4844,1471.418 Q634.4063,1471.8711 633.1094,1471.8711 Q631.5938,1471.8711 630.3906,1471.2461 Q629.4063,1470.7461 628.7188,1469.6836 Q628.0313,1468.6055 628.0313,1467.3242 L628.0313,1466.168 Q628.0313,1464.8398 628.6406,1463.6992 Q629.2656,1462.543 630.3594,1461.9336 Q631.4531,1461.3086 632.6875,1461.3086 Q633.4219,1461.3086 634.0625,1461.4805 Q634.7188,1461.6367 635.2656,1461.9961 Z " fill="#000000"/><text fill="#000000" font-family="sans-serif" font-size="14" lengthAdjust="spacing" textLength="86" x="646.5" y="1471.918">EmailAddress</text><line style="stroke:#181818;stroke-width:0.5;" x1="618.5" x2="734.5" y1="1482.1211" y2="1482.1211"/><rect fill="none" height="6" style="stroke:#C82930;stroke-width:1.0;" width="6" x="625.5" y="1493.9316"/><text fill="#000000" font-family="sans-serif" font-size="14" lengthAdjust="spacing" textLength="82" x="637.5" y="1501.2285">email : String</text><line style="stroke:#181818;stroke-width:0.5;" x1="618.5" x2="734.5" y1="1508.7422" y2="1508.7422"/></g><!--class Name--><g id="elem_Name"><rect codeLine="74" fill="#F1F1F1" height="122.4844" id="Name" rx="2.5" ry="2.5" style="stroke:#181818;stroke-width:0.5;" width="144" x="770.5" y="1422.6211"/><ellipse cx="820.25" cy="1438.6211" fill="#ADD1B2" rx="11" ry="11" style="stroke:#181818;stroke-width:1.0;"/><path d="M823.0156,1434.4961 Q823.1719,1434.2773 823.3594,1434.168 Q823.5469,1434.0586 823.7656,1434.0586 Q824.1406,1434.0586 824.375,1434.3242 Q824.6094,1434.5742 824.6094,1435.1836 L824.6094,1436.6367 Q824.6094,1437.2461 824.375,1437.5117 Q824.1406,1437.7773 823.7656,1437.7773 Q823.4219,1437.7773 823.2188,1437.5742 Q823.0156,1437.3867 822.9063,1436.8711 Q822.8594,1436.5117 822.6719,1436.3242 Q822.3438,1435.9492 821.7344,1435.7305 Q821.125,1435.5117 820.5,1435.5117 Q819.7344,1435.5117 819.0938,1435.8398 Q818.4688,1436.168 817.9688,1436.918 Q817.4844,1437.668 817.4844,1438.6992 L817.4844,1439.793 Q817.4844,1441.0273 818.375,1441.8555 Q819.2656,1442.668 820.8594,1442.668 Q821.7969,1442.668 822.4531,1442.418 Q822.8438,1442.2617 823.2656,1441.8242 Q823.5313,1441.5586 823.6719,1441.4805 Q823.8281,1441.4023 824.0313,1441.4023 Q824.3594,1441.4023 824.6094,1441.668 Q824.875,1441.918 824.875,1442.2617 Q824.875,1442.6055 824.5313,1443.0117 Q824.0313,1443.5898 823.2344,1443.918 Q822.1563,1444.3711 820.8594,1444.3711 Q819.3438,1444.3711 818.1406,1443.7461 Q817.1563,1443.2461 816.4688,1442.1836 Q815.7813,1441.1055 815.7813,1439.8242 L815.7813,1438.668 Q815.7813,1437.3398 816.3906,1436.1992 Q817.0156,1435.043 818.1094,1434.4336 Q819.2031,1433.8086 820.4375,1433.8086 Q821.1719,1433.8086 821.8125,1433.9805 Q822.4688,1434.1367 823.0156,1434.4961 Z " fill="#000000"/><text fill="#000000" font-family="sans-serif" font-size="14" lengthAdjust="spacing" textLength="36" x="840.75" y="1444.418">Name</text><line style="stroke:#181818;stroke-width:0.5;" x1="771.5" x2="913.5" y1="1454.6211" y2="1454.6211"/><rect fill="none" height="6" style="stroke:#C82930;stroke-width:1.0;" width="6" x="778.5" y="1466.4316"/><text fill="#000000" font-family="sans-serif" font-size="14" lengthAdjust="spacing" textLength="108" x="790.5" y="1473.7285">firstName : String</text><rect fill="none" height="6" style="stroke:#C82930;stroke-width:1.0;" width="6" x="778.5" y="1485.0527"/><text fill="#000000" font-family="sans-serif" font-size="14" lengthAdjust="spacing" textLength="107" x="790.5" y="1492.3496">lastName : String</text><line style="stroke:#181818;stroke-width:0.5;" x1="771.5" x2="913.5" y1="1499.8633" y2="1499.8633"/><ellipse cx="781.5" cy="1514.6738" fill="#84BE84" rx="3" ry="3" style="stroke:#038048;stroke-width:1.0;"/><text fill="#000000" font-family="sans-serif" font-size="14" lengthAdjust="spacing" textLength="118" x="790.5" y="1518.9707">firstName() : String</text><ellipse cx="781.5" cy="1533.2949" fill="#84BE84" rx="3" ry="3" style="stroke:#038048;stroke-width:1.0;"/><text fill="#000000" font-family="sans-serif" font-size="14" lengthAdjust="spacing" textLength="117" x="790.5" y="1537.5918">lastName() : String</text></g><!--class SystemUser--><g id="elem_SystemUser"><rect codeLine="81" fill="#F1F1F1" height="122.4844" id="SystemUser" rx="2.5" ry="2.5" style="stroke:#181818;stroke-width:0.5;" width="167" x="676" y="1239.6211"/><ellipse cx="718" cy="1255.6211" fill="#ADD1B2" rx="11" ry="11" style="stroke:#181818;stroke-width:1.0;"/><path d="M720.7656,1251.4961 Q720.9219,1251.2773 721.1094,1251.168 Q721.2969,1251.0586 721.5156,1251.0586 Q721.8906,1251.0586 722.125,1251.3242 Q722.3594,1251.5742 722.3594,1252.1836 L722.3594,1253.6367 Q722.3594,1254.2461 722.125,1254.5117 Q721.8906,1254.7773 721.5156,1254.7773 Q721.1719,1254.7773 720.9688,1254.5742 Q720.7656,1254.3867 720.6563,1253.8711 Q720.6094,1253.5117 720.4219,1253.3242 Q720.0938,1252.9492 719.4844,1252.7305 Q718.875,1252.5117 718.25,1252.5117 Q717.4844,1252.5117 716.8438,1252.8398 Q716.2188,1253.168 715.7188,1253.918 Q715.2344,1254.668 715.2344,1255.6992 L715.2344,1256.793 Q715.2344,1258.0273 716.125,1258.8555 Q717.0156,1259.668 718.6094,1259.668 Q719.5469,1259.668 720.2031,1259.418 Q720.5938,1259.2617 721.0156,1258.8242 Q721.2813,1258.5586 721.4219,1258.4805 Q721.5781,1258.4023 721.7813,1258.4023 Q722.1094,1258.4023 722.3594,1258.668 Q722.625,1258.918 722.625,1259.2617 Q722.625,1259.6055 722.2813,1260.0117 Q721.7813,1260.5898 720.9844,1260.918 Q719.9063,1261.3711 718.6094,1261.3711 Q717.0938,1261.3711 715.8906,1260.7461 Q714.9063,1260.2461 714.2188,1259.1836 Q713.5313,1258.1055 713.5313,1256.8242 L713.5313,1255.668 Q713.5313,1254.3398 714.1406,1253.1992 Q714.7656,1252.043 715.8594,1251.4336 Q716.9531,1250.8086 718.1875,1250.8086 Q718.9219,1250.8086 719.5625,1250.9805 Q720.2188,1251.1367 720.7656,1251.4961 Z " fill="#000000"/><text fill="#000000" font-family="sans-serif" font-size="14" lengthAdjust="spacing" textLength="75" x="738" y="1261.418">SystemUser</text><line style="stroke:#181818;stroke-width:0.5;" x1="677" x2="842" y1="1271.6211" y2="1271.6211"/><rect fill="none" height="6" style="stroke:#C82930;stroke-width:1.0;" width="6" x="684" y="1283.4316"/><text fill="#000000" font-family="sans-serif" font-size="14" lengthAdjust="spacing" textLength="83" x="696" y="1290.7285">name : Name</text><rect fill="none" height="6" style="stroke:#C82930;stroke-width:1.0;" width="6" x="684" y="1302.0527"/><text fill="#000000" font-family="sans-serif" font-size="14" lengthAdjust="spacing" textLength="131" x="696" y="1309.3496">email : EmailAddress</text><line style="stroke:#181818;stroke-width:0.5;" x1="677" x2="842" y1="1316.8633" y2="1316.8633"/><ellipse cx="687" cy="1331.6738" fill="#84BE84" rx="3" ry="3" style="stroke:#038048;stroke-width:1.0;"/><text fill="#000000" font-family="sans-serif" font-size="14" lengthAdjust="spacing" textLength="141" x="696" y="1335.9707">email() : EmailAddress</text><ellipse cx="687" cy="1350.2949" fill="#84BE84" rx="3" ry="3" style="stroke:#038048;stroke-width:1.0;"/><text fill="#000000" font-family="sans-serif" font-size="14" lengthAdjust="spacing" textLength="93" x="696" y="1354.5918">name() : Name</text></g><!--class PersistenceContext--><g id="elem_PersistenceContext"><rect codeLine="89" fill="#F1F1F1" height="66.6211" id="PersistenceContext" rx="2.5" ry="2.5" style="stroke:#181818;stroke-width:0.5;" width="154" x="624.5" y="801.6211"/><ellipse cx="639.5" cy="817.6211" fill="#ADD1B2" rx="11" ry="11" style="stroke:#181818;stroke-width:1.0;"/><path d="M642.2656,813.4961 Q642.4219,813.2773 642.6094,813.168 Q642.7969,813.0586 643.0156,813.0586 Q643.3906,813.0586 643.625,813.3242 Q643.8594,813.5742 643.8594,814.1836 L643.8594,815.6367 Q643.8594,816.2461 643.625,816.5117 Q643.3906,816.7773 643.0156,816.7773 Q642.6719,816.7773 642.4688,816.5742 Q642.2656,816.3867 642.1563,815.8711 Q642.1094,815.5117 641.9219,815.3242 Q641.5938,814.9492 640.9844,814.7305 Q640.375,814.5117 639.75,814.5117 Q638.9844,814.5117 638.3438,814.8398 Q637.7188,815.168 637.2188,815.918 Q636.7344,816.668 636.7344,817.6992 L636.7344,818.793 Q636.7344,820.0273 637.625,820.8555 Q638.5156,821.668 640.1094,821.668 Q641.0469,821.668 641.7031,821.418 Q642.0938,821.2617 642.5156,820.8242 Q642.7813,820.5586 642.9219,820.4805 Q643.0781,820.4023 643.2813,820.4023 Q643.6094,820.4023 643.8594,820.668 Q644.125,820.918 644.125,821.2617 Q644.125,821.6055 643.7813,822.0117 Q643.2813,822.5898 642.4844,822.918 Q641.4063,823.3711 640.1094,823.3711 Q638.5938,823.3711 637.3906,822.7461 Q636.4063,822.2461 635.7188,821.1836 Q635.0313,820.1055 635.0313,818.8242 L635.0313,817.668 Q635.0313,816.3398 635.6406,815.1992 Q636.2656,814.043 637.3594,813.4336 Q638.4531,812.8086 639.6875,812.8086 Q640.4219,812.8086 641.0625,812.9805 Q641.7188,813.1367 642.2656,813.4961 Z " fill="#000000"/><text fill="#000000" font-family="sans-serif" font-size="14" lengthAdjust="spacing" textLength="122" x="653.5" y="823.418">PersistenceContext</text><line style="stroke:#181818;stroke-width:0.5;" x1="625.5" x2="777.5" y1="833.6211" y2="833.6211"/><line style="stroke:#181818;stroke-width:0.5;" x1="625.5" x2="777.5" y1="841.6211" y2="841.6211"/><ellipse cx="635.5" cy="856.4316" fill="#84BE84" rx="3" ry="3" style="stroke:#038048;stroke-width:1.0;"/><text fill="#000000" font-family="sans-serif" font-size="14" lengthAdjust="spacing" textLength="84" x="644.5" y="860.7285">repositories()</text></g><!--class RepositoryFactory--><g id="elem_RepositoryFactory"><rect codeLine="93" fill="#F1F1F1" height="85.2422" id="RepositoryFactory" rx="2.5" ry="2.5" style="stroke:#181818;stroke-width:0.5;" width="205" x="579" y="929.6211"/><ellipse cx="619.65" cy="945.6211" fill="#B4A7E5" rx="11" ry="11" style="stroke:#181818;stroke-width:1.0;"/><path d="M620.6031,942.2617 L620.6031,948.918 L622.3219,948.918 Q622.9313,948.918 623.1969,949.1523 Q623.4625,949.3867 623.4625,949.7773 Q623.4625,950.1523 623.1969,950.3867 Q622.9313,950.6211 622.3219,950.6211 L617.1813,950.6211 Q616.5719,950.6211 616.3063,950.3867 Q616.0406,950.1523 616.0406,949.7617 Q616.0406,949.3867 616.3063,949.1523 Q616.5719,948.918 617.1813,948.918 L618.9,948.918 L618.9,942.2617 L617.1813,942.2617 Q616.5719,942.2617 616.3063,942.0273 Q616.0406,941.793 616.0406,941.4023 Q616.0406,941.0273 616.3063,940.793 Q616.5719,940.5586 617.1813,940.5586 L622.3219,940.5586 Q622.9313,940.5586 623.1969,940.793 Q623.4625,941.0273 623.4625,941.4023 Q623.4625,941.793 623.1969,942.0273 Q622.9313,942.2617 622.3219,942.2617 L620.6031,942.2617 Z " fill="#000000"/><text fill="#000000" font-family="sans-serif" font-size="14" font-style="italic" lengthAdjust="spacing" textLength="116" x="639.35" y="951.418">RepositoryFactory</text><line style="stroke:#181818;stroke-width:0.5;" x1="580" x2="783" y1="961.6211" y2="961.6211"/><line style="stroke:#181818;stroke-width:0.5;" x1="580" x2="783" y1="969.6211" y2="969.6211"/><text fill="#000000" font-family="sans-serif" font-size="14" lengthAdjust="spacing" textLength="45" x="585" y="988.7285">users()</text><text fill="#000000" font-family="sans-serif" font-size="14" lengthAdjust="spacing" textLength="193" x="585" y="1007.3496">users(TransactionalContext tx)</text></g><!--class UserRepository--><g id="elem_UserRepository"><rect codeLine="98" fill="#F1F1F1" height="85.2422" id="UserRepository" rx="2.5" ry="2.5" style="stroke:#181818;stroke-width:0.5;" width="191" x="664" y="1075.6211"/><ellipse cx="706.45" cy="1091.6211" fill="#B4A7E5" rx="11" ry="11" style="stroke:#181818;stroke-width:1.0;"/><path d="M707.4031,1088.2617 L707.4031,1094.918 L709.1219,1094.918 Q709.7313,1094.918 709.9969,1095.1523 Q710.2625,1095.3867 710.2625,1095.7773 Q710.2625,1096.1523 709.9969,1096.3867 Q709.7313,1096.6211 709.1219,1096.6211 L703.9813,1096.6211 Q703.3719,1096.6211 703.1063,1096.3867 Q702.8406,1096.1523 702.8406,1095.7617 Q702.8406,1095.3867 703.1063,1095.1523 Q703.3719,1094.918 703.9813,1094.918 L705.7,1094.918 L705.7,1088.2617 L703.9813,1088.2617 Q703.3719,1088.2617 703.1063,1088.0273 Q702.8406,1087.793 702.8406,1087.4023 Q702.8406,1087.0273 703.1063,1086.793 Q703.3719,1086.5586 703.9813,1086.5586 L709.1219,1086.5586 Q709.7313,1086.5586 709.9969,1086.793 Q710.2625,1087.0273 710.2625,1087.4023 Q710.2625,1087.793 709.9969,1088.0273 Q709.7313,1088.2617 709.1219,1088.2617 L707.4031,1088.2617 Z " fill="#000000"/><text fill="#000000" font-family="sans-serif" font-size="14" font-style="italic" lengthAdjust="spacing" textLength="98" x="726.55" y="1097.418">UserRepository</text><line style="stroke:#181818;stroke-width:0.5;" x1="665" x2="854" y1="1107.6211" y2="1107.6211"/><line style="stroke:#181818;stroke-width:0.5;" x1="665" x2="854" y1="1115.6211" y2="1115.6211"/><text fill="#000000" font-family="sans-serif" font-size="14" lengthAdjust="spacing" textLength="179" x="670" y="1134.7285">findByActive(boolean active)</text><text fill="#000000" font-family="sans-serif" font-size="14" lengthAdjust="spacing" textLength="115" x="670" y="1153.3496">save(SystemUser)</text></g><!--link AddUserUI to AddUserController--><g id="link_AddUserUI_AddUserController"><path codeLine="104" d="M283.5,113.9911 C283.5,131.0511 283.5,146.7911 283.5,168.3511 " fill="none" id="AddUserUI-to-AddUserController" style="stroke:#181818;stroke-width:1.0;stroke-dasharray:7.0,7.0;"/><polygon fill="#181818" points="283.5,174.3511,287.5,165.3511,283.5,169.3511,279.5,165.3511,283.5,174.3511" style="stroke:#181818;stroke-width:1.0;"/></g><!--link ListUsersUI to ListUsersController--><g id="link_ListUsersUI_ListUsersController"><path codeLine="105" d="M769.5,104.4811 C769.5,129.0811 769.5,162.8311 769.5,196.3211 " fill="none" id="ListUsersUI-to-ListUsersController" style="stroke:#181818;stroke-width:1.0;stroke-dasharray:7.0,7.0;"/><polygon fill="#181818" points="769.5,202.3211,773.5,193.3211,769.5,197.3211,765.5,193.3211,769.5,202.3211" style="stroke:#181818;stroke-width:1.0;"/></g><!--link DeactivateUserUI to DeactivateUserController--><g id="link_DeactivateUserUI_DeactivateUserController"><path codeLine="106" d="M1155.5,104.4811 C1155.5,126.7811 1155.5,155.5411 1155.5,186.7911 " fill="none" id="DeactivateUserUI-to-DeactivateUserController" style="stroke:#181818;stroke-width:1.0;stroke-dasharray:7.0,7.0;"/><polygon fill="#181818" points="1155.5,192.7911,1159.5,183.7911,1155.5,187.7911,1151.5,183.7911,1155.5,192.7911" style="stroke:#181818;stroke-width:1.0;"/></g><!--link SystemUser to EmailAddress--><g id="link_SystemUser_EmailAddress"><path codeLine="108" d="M731.98,1361.6411 C718.48,1391.0711 705.2495,1419.9165 693.9995,1444.4665 " fill="none" id="SystemUser-to-EmailAddress" style="stroke:#181818;stroke-width:1.0;"/><polygon fill="#181818" points="691.5,1449.9211,698.8857,1443.4056,693.583,1445.3756,691.6129,1440.0729,691.5,1449.9211" style="stroke:#181818;stroke-width:1.0;"/></g><!--link PersistenceContext to RepositoryFactory--><g id="link_PersistenceContext_RepositoryFactory"><path codeLine="110" d="M696.66,868.8011 C693.95,887.0611 691.4283,904.0657 688.5383,923.5957 " fill="none" id="PersistenceContext-to-RepositoryFactory" style="stroke:#181818;stroke-width:1.0;"/><polygon fill="#181818" points="687.66,929.5311,692.9344,921.2136,688.3919,924.585,685.0205,920.0425,687.66,929.5311" style="stroke:#181818;stroke-width:1.0;"/></g><!--link SystemUser to Name--><g id="link_SystemUser_Name"><path codeLine="111" d="M787.02,1361.6411 C795.99,1381.1911 803.4389,1397.4372 812.4089,1416.9972 " fill="none" id="SystemUser-to-Name" style="stroke:#181818;stroke-width:1.0;"/><polygon fill="#181818" points="814.91,1422.4511,814.7943,1412.6029,812.8258,1417.9062,807.5225,1415.9377,814.91,1422.4511" style="stroke:#181818;stroke-width:1.0;"/></g><!--link AddUserController to UserManagementService--><g id="link_AddUserController_UserManagementService"><path codeLine="115" d="M420.82,352.6311 C450.57,371.7011 477.8985,389.2234 510.5385,410.1434 " fill="none" id="AddUserController-to-UserManagementService" style="stroke:#181818;stroke-width:1.0;stroke-dasharray:7.0,7.0;"/><polygon fill="#181818" points="515.59,413.3811,510.1712,405.1569,511.3804,410.683,505.8543,411.8923,515.59,413.3811" style="stroke:#181818;stroke-width:1.0;"/></g><!--link ListUsersController to UserManagementService--><g id="link_ListUsersController_UserManagementService"><path codeLine="116" d="M769.5,324.6811 C769.5,350.4011 769.5,375.8111 769.5,407.6011 " fill="none" id="ListUsersController-to-UserManagementService" style="stroke:#181818;stroke-width:1.0;stroke-dasharray:7.0,7.0;"/><polygon fill="#181818" points="769.5,413.6011,773.5,404.6011,769.5,408.6011,765.5,404.6011,769.5,413.6011" style="stroke:#181818;stroke-width:1.0;"/></g><!--link DeactivateUserController to UserManagementService--><g id="link_DeactivateUserController_UserManagementService"><path codeLine="117" d="M1069.35,334.1411 C1039.91,357.9011 1010.2987,381.7924 975.6487,409.7624 " fill="none" id="DeactivateUserController-to-UserManagementService" style="stroke:#181818;stroke-width:1.0;stroke-dasharray:7.0,7.0;"/><polygon fill="#181818" points="970.98,413.5311,980.4956,410.9906,974.8706,410.3905,975.4707,404.7656,970.98,413.5311" style="stroke:#181818;stroke-width:1.0;"/></g><!--link UserManagementService to PersistenceContext--><g id="link_UserManagementService_PersistenceContext"><path codeLine="119" d="M726.24,740.9711 C720.17,763.8511 716.0631,779.3229 711.6931,795.7429 " fill="none" id="UserManagementService-to-PersistenceContext" style="stroke:#181818;stroke-width:1.0;stroke-dasharray:7.0,7.0;"/><polygon fill="#181818" points="710.15,801.5411,716.3301,793.8726,711.4359,796.7093,708.5992,791.8151,710.15,801.5411" style="stroke:#181818;stroke-width:1.0;"/></g><!--link UserManagementService to UserRepository--><g id="link_UserManagementService_UserRepository"><path codeLine="121" d="M801.88,740.8011 C813.18,823.4411 819.14,925.0611 801.5,1014.6211 C797.41,1035.3811 791.5417,1051.7493 783.3717,1069.9093 " fill="none" id="UserManagementService-to-UserRepository" style="stroke:#181818;stroke-width:1.0;stroke-dasharray:7.0,7.0;"/><polygon fill="#181818" points="780.91,1075.3811,788.2504,1068.8146,782.9614,1070.8213,780.9547,1065.5323,780.91,1075.3811" style="stroke:#181818;stroke-width:1.0;"/></g><!--link RepositoryFactory to UserRepository--><g id="link_RepositoryFactory_UserRepository"><path codeLine="124" d="M704.06,1014.7711 C714.41,1033.8811 723.7924,1051.1953 734.1324,1070.2853 " fill="none" id="RepositoryFactory-to-UserRepository" style="stroke:#181818;stroke-width:1.0;stroke-dasharray:7.0,7.0;"/><polygon fill="#181818" points="736.99,1075.5611,736.2208,1065.7423,734.6087,1071.1646,729.1864,1069.5525,736.99,1075.5611" style="stroke:#181818;stroke-width:1.0;"/></g><!--link UserRepository to SystemUser--><g id="link_UserRepository_SystemUser"><path codeLine="125" d="M759.5,1160.9811 C759.5,1184.3111 759.5,1207.7611 759.5,1233.5211 " fill="none" id="UserRepository-to-SystemUser" style="stroke:#181818;stroke-width:1.0;"/><polygon fill="#181818" points="759.5,1239.5211,763.5,1230.5211,759.5,1234.5211,755.5,1230.5211,759.5,1239.5211" style="stroke:#181818;stroke-width:1.0;"/><text fill="#000000" font-family="sans-serif" font-size="13" lengthAdjust="spacing" textLength="36" x="760.5" y="1205.6494">stores</text><text fill="#000000" font-family="sans-serif" font-size="13" lengthAdjust="spacing" textLength="5" x="754.2109" y="1228.4907">*</text></g><!--SRC=[pLPDRzim3BthLn2vB5sIehiMGu1-3UYmDK7IdhOTL9lEj3co9obDWw3_VQJYRxjfis70SeWjyabwf1ufE-LYXDxT_Dt9oGcCu2mCX_19MGTIXt2fhBmdVsBWIlktEui6aWZEPV0pYI8LO0ykOcajOUN2oAKGWH_IGeozkzwA0TZloNgMn6ZxaT8oXZcwzpmUWw7_sqsAzWXEuJwXaTJYgR78HQ8T0MCqMp625Ldc3m7XsVTPQhd09MetH_D0V0Jj9tVpyjsSKNe1k9Gg7aBDbj8kwyI4Gm6rNmqKAMFTZLnYOp9Hh9jhKVc8vXlhSCbS_eZLSpmQRDk_GtZcvWiPemwbWS2WT1XET2k21RfPVc1zzlBeopVlqMXerZIZxhsx_OLuCqXNReQ_Lihua-f_JEudAMeczwDu7S8qNYsKXjG_ZbW6cGvOa4p1ifoUMjP3zH6fsA51Vnfs4h6M9rxBdlKr-LZhxylGns8WuzZ3zq0eZM5sk6pHb79OCNoIEfMGkGRdwB90Bb46JZrG-lAIUUfsLGDzJQGiEfwEBr6745y9hDB9bLm0FAEMQa8yU5APWCx8ycEUOPfOvHApoN9G6WY1EaX2MlyKSbLUxIpaIvDO1PkAQ-eDb3632z8LcXjSjwjrbPrhepADN4zVgbduglTNPLS_Q5IgU6sb_giW1Fnj32rrv5GhFClgQJ3D-RKw99C0ZynITCKKwFemI1ewYCzX1SFf_qzgXlPviKULTLLD49MJJr6bPHSupYpv2mcKc55- -gLfKC2g_N-G0wl6OeEI7csZTyinkEHKfKe5wir-gPfZeFCT_EnY_IabX0Mc0-JsYOzko_MHzGd55nc35RbC90E4ieTye3EWnrQiTbdDdhT6Qil7mpqzMnFSOsEPUZlQiYx3yysPLrS_-zB9n7Oah2HZcOdTtLTyGi7nyRZzBIGgjw97TDo7edcrUE1pbueG5OMDHkD6vjkPzA1Mlfgh-FCeuodtysIwhwwEMFQWdmjepnJHQVOJsd7kGpUk7I5Q-UY2rOS-JRstlMg5du8b5rhn6m00]--></g></svg>