<?xml version="1.0" encoding="us-ascii" standalone="no"?><svg xmlns="http://www.w3.org/2000/svg" xmlns:xlink="http://www.w3.org/1999/xlink" contentStyleType="text/css" height="1063px" preserveAspectRatio="none" style="width:1696px;height:1063px;background:#FFFFFF;" version="1.1" viewBox="0 0 1696 1063" width="1696px" zoomAndPan="magnify"><defs/><g><rect fill="#FFFFFF" height="877.5176" style="stroke:#181818;stroke-width:1.0;" width="10" x="59.5" y="93.6211"/><rect fill="#FFFFFF" height="548.6074" style="stroke:#181818;stroke-width:1.0;" width="10" x="492.5" y="116.9121"/><rect fill="#FFFFFF" height="232.0371" style="stroke:#181818;stroke-width:1.0;" width="10" x="492.5" y="723.1016"/><rect fill="#FFFFFF" height="406.7832" style="stroke:#181818;stroke-width:1.0;" width="10" x="657.5" y="227.4453"/><rect fill="#FFFFFF" height="169.4551" style="stroke:#181818;stroke-width:1.0;" width="10" x="657.5" y="754.3926"/><rect fill="#FFFFFF" height="62.582" style="stroke:#181818;stroke-width:1.0;" width="10" x="821.5" y="258.7363"/><rect fill="#FFFFFF" height="250.3281" style="stroke:#181818;stroke-width:1.0;" width="10" x="1127" y="352.6094"/><rect fill="#FFFFFF" height="106.873" style="stroke:#181818;stroke-width:1.0;" width="10" x="1127" y="785.6836"/><rect fill="#FFFFFF" height="125.1641" style="stroke:#181818;stroke-width:1.0;" width="10" x="1338" y="383.9004"/><rect fill="#FFFFFF" height="62.582" style="stroke:#181818;stroke-width:1.0;" width="10" x="1483" y="415.1914"/><rect fill="#FFFFFF" height="31.291" style="stroke:#181818;stroke-width:1.0;" width="10" x="1617.5" y="540.3555"/><rect fill="none" height="282.6191" style="stroke:#000000;stroke-width:1.5;" width="1680" x="10" y="680.5195"/><line style="stroke:#181818;stroke-width:0.5;stroke-dasharray:5.0,5.0;" x1="64" x2="64" y1="83.6211" y2="980.1387"/><line style="stroke:#181818;stroke-width:0.5;stroke-dasharray:5.0,5.0;" x1="497.5" x2="497.5" y1="83.6211" y2="980.1387"/><line style="stroke:#181818;stroke-width:0.5;stroke-dasharray:5.0,5.0;" x1="662.5" x2="662.5" y1="174.5332" y2="980.1387"/><line style="stroke:#181818;stroke-width:0.5;stroke-dasharray:5.0,5.0;" x1="826" x2="826" y1="83.6211" y2="980.1387"/><line style="stroke:#181818;stroke-width:0.5;stroke-dasharray:5.0,5.0;" x1="960" x2="960" y1="83.6211" y2="980.1387"/><line style="stroke:#181818;stroke-width:0.5;stroke-dasharray:5.0,5.0;" x1="1132" x2="1132" y1="83.6211" y2="980.1387"/><line style="stroke:#181818;stroke-width:0.5;stroke-dasharray:5.0,5.0;" x1="1343" x2="1343" y1="83.6211" y2="980.1387"/><line style="stroke:#181818;stroke-width:0.5;stroke-dasharray:5.0,5.0;" x1="1488" x2="1488" y1="83.6211" y2="980.1387"/><line style="stroke:#181818;stroke-width:0.5;stroke-dasharray:5.0,5.0;" x1="1622" x2="1622" y1="83.6211" y2="980.1387"/><text fill="#000000" font-family="sans-serif" font-size="14" lengthAdjust="spacing" textLength="83" x="20" y="80.1074">Administrator</text><ellipse cx="64.5" cy="13.5" fill="#E3E3E3" rx="8" ry="8" style="stroke:#181818;stroke-width:0.5;"/><path d="M64.5,21.5 L64.5,48.5 M51.5,29.5 L77.5,29.5 M64.5,48.5 L51.5,63.5 M64.5,48.5 L77.5,63.5 " fill="none" style="stroke:#181818;stroke-width:0.5;"/><text fill="#000000" font-family="sans-serif" font-size="14" lengthAdjust="spacing" textLength="83" x="20" y="994.2461">Administrator</text><ellipse cx="64.5" cy="1006.2598" fill="#E3E3E3" rx="8" ry="8" style="stroke:#181818;stroke-width:0.5;"/><path d="M64.5,1014.2598 L64.5,1041.2598 M51.5,1022.2598 L77.5,1022.2598 M64.5,1041.2598 L51.5,1056.2598 M64.5,1041.2598 L77.5,1056.2598 " fill="none" style="stroke:#181818;stroke-width:0.5;"/><rect fill="#E3E3E3" height="51.2422" rx="2.5" ry="2.5" style="stroke:#181818;stroke-width:0.5;" width="126" x="434.5" y="31.3789"/><text fill="#000000" font-family="sans-serif" font-size="14" font-style="italic" lengthAdjust="spacing" textLength="95" x="450" y="53.4863">&#171;presentation&#187;</text><text fill="#000000" font-family="sans-serif" font-size="14" lengthAdjust="spacing" textLength="112" x="441.5" y="72.1074">:DeactivateUserUI</text><rect fill="#E3E3E3" height="51.2422" rx="2.5" ry="2.5" style="stroke:#181818;stroke-width:0.5;" width="126" x="434.5" y="979.1387"/><text fill="#000000" font-family="sans-serif" font-size="14" font-style="italic" lengthAdjust="spacing" textLength="95" x="450" y="1001.2461">&#171;presentation&#187;</text><text fill="#000000" font-family="sans-serif" font-size="14" lengthAdjust="spacing" textLength="112" x="441.5" y="1019.8672">:DeactivateUserUI</text><text fill="#000000" font-family="sans-serif" font-size="14" font-style="italic" lengthAdjust="spacing" textLength="84" x="617.5" y="994.2461">&#171;application&#187;</text><text fill="#000000" font-family="sans-serif" font-size="14" lengthAdjust="spacing" textLength="162" x="578.5" y="1012.8672">:DeactivateUserController</text><ellipse cx="662.5" cy="1032.3809" fill="#E3E3E3" rx="12" ry="12" style="stroke:#181818;stroke-width:0.5;"/><polygon fill="#181818" points="658.5,1020.3809,664.5,1015.3809,662.5,1020.3809,664.5,1025.3809,658.5,1020.3809" style="stroke:#181818;stroke-width:1.0;"/><rect fill="#E3E3E3" height="51.2422" rx="2.5" ry="2.5" style="stroke:#181818;stroke-width:0.5;" width="101" x="776" y="31.3789"/><text fill="#000000" font-family="sans-serif" font-size="14" font-style="italic" lengthAdjust="spacing" textLength="84" x="784.5" y="53.4863">&#171;application&#187;</text><text fill="#000000" font-family="sans-serif" font-size="14" lengthAdjust="spacing" textLength="87" x="783" y="72.1074">AuthzRegistry</text><rect fill="#E3E3E3" height="51.2422" rx="2.5" ry="2.5" style="stroke:#181818;stroke-width:0.5;" width="101" x="776" y="979.1387"/><text fill="#000000" font-family="sans-serif" font-size="14" font-style="italic" lengthAdjust="spacing" textLength="84" x="784.5" y="1001.2461">&#171;application&#187;</text><text fill="#000000" font-family="sans-serif" font-size="14" lengthAdjust="spacing" textLength="87" x="783" y="1019.8672">AuthzRegistry</text><rect fill="#E3E3E3" height="51.2422" rx="2.5" ry="2.5" style="stroke:#181818;stroke-width:0.5;" width="147" x="887" y="31.3789"/><text fill="#000000" font-family="sans-serif" font-size="14" font-style="italic" lengthAdjust="spacing" textLength="84" x="918.5" y="53.4863">&#171;application&#187;</text><text fill="#000000" font-family="sans-serif" font-size="14" lengthAdjust="spacing" textLength="133" x="894" y="72.1074">:AuthorizationService</text><rect fill="#E3E3E3" height="51.2422" rx="2.5" ry="2.5" style="stroke:#181818;stroke-width:0.5;" width="147" x="887" y="979.1387"/><text fill="#000000" font-family="sans-serif" font-size="14" font-style="italic" lengthAdjust="spacing" textLength="84" x="918.5" y="1001.2461">&#171;application&#187;</text><text fill="#000000" font-family="sans-serif" font-size="14" lengthAdjust="spacing" textLength="133" x="894" y="1019.8672">:AuthorizationService</text><rect fill="#E3E3E3" height="51.2422" rx="2.5" ry="2.5" style="stroke:#181818;stroke-width:0.5;" width="176" x="1044" y="31.3789"/><text fill="#000000" font-family="sans-serif" font-size="14" font-style="italic" lengthAdjust="spacing" textLength="84" x="1090" y="53.4863">&#171;application&#187;</text><text fill="#000000" font-family="sans-serif" font-size="14" lengthAdjust="spacing" textLength="162" x="1051" y="72.1074">:UserManagementService</text><rect fill="#E3E3E3" height="51.2422" rx="2.5" ry="2.5" style="stroke:#181818;stroke-width:0.5;" width="176" x="1044" y="979.1387"/><text fill="#000000" font-family="sans-serif" font-size="14" font-style="italic" lengthAdjust="spacing" textLength="84" x="1090" y="1001.2461">&#171;application&#187;</text><text fill="#000000" font-family="sans-serif" font-size="14" lengthAdjust="spacing" textLength="162" x="1051" y="1019.8672">:UserManagementService</text><rect fill="#E3E3E3" height="51.2422" rx="2.5" ry="2.5" style="stroke:#181818;stroke-width:0.5;" width="136" x="1275" y="31.3789"/><text fill="#000000" font-family="sans-serif" font-size="14" font-style="italic" lengthAdjust="spacing" textLength="89" x="1298.5" y="53.4863">&#171;persistence&#187;</text><text fill="#000000" font-family="sans-serif" font-size="14" lengthAdjust="spacing" textLength="122" x="1282" y="72.1074">PersistenceContext</text><rect fill="#E3E3E3" height="51.2422" rx="2.5" ry="2.5" style="stroke:#181818;stroke-width:0.5;" width="136" x="1275" y="979.1387"/><text fill="#000000" font-family="sans-serif" font-size="14" font-style="italic" lengthAdjust="spacing" textLength="89" x="1298.5" y="1001.2461">&#171;persistence&#187;</text><text fill="#000000" font-family="sans-serif" font-size="14" lengthAdjust="spacing" textLength="122" x="1282" y="1019.8672">PersistenceContext</text><rect fill="#E3E3E3" height="51.2422" rx="2.5" ry="2.5" style="stroke:#181818;stroke-width:0.5;" width="134" x="1421" y="31.3789"/><text fill="#000000" font-family="sans-serif" font-size="14" font-style="italic" lengthAdjust="spacing" textLength="89" x="1443.5" y="53.4863">&#171;persistence&#187;</text><text fill="#000000" font-family="sans-serif" font-size="14" lengthAdjust="spacing" textLength="120" x="1428" y="72.1074">:RepositoryFactory</text><rect fill="#E3E3E3" height="51.2422" rx="2.5" ry="2.5" style="stroke:#181818;stroke-width:0.5;" width="134" x="1421" y="979.1387"/><text fill="#000000" font-family="sans-serif" font-size="14" font-style="italic" lengthAdjust="spacing" textLength="89" x="1443.5" y="1001.2461">&#171;persistence&#187;</text><text fill="#000000" font-family="sans-serif" font-size="14" lengthAdjust="spacing" textLength="120" x="1428" y="1019.8672">:RepositoryFactory</text><rect fill="#E3E3E3" height="51.2422" rx="2.5" ry="2.5" style="stroke:#181818;stroke-width:0.5;" width="115" x="1565" y="31.3789"/><text fill="#000000" font-family="sans-serif" font-size="14" font-style="italic" lengthAdjust="spacing" textLength="79" x="1583" y="53.4863">&#171;repository&#187;</text><text fill="#000000" font-family="sans-serif" font-size="14" lengthAdjust="spacing" textLength="101" x="1572" y="72.1074">:UserRepository</text><rect fill="#E3E3E3" height="51.2422" rx="2.5" ry="2.5" style="stroke:#181818;stroke-width:0.5;" width="115" x="1565" y="979.1387"/><text fill="#000000" font-family="sans-serif" font-size="14" font-style="italic" lengthAdjust="spacing" textLength="79" x="1583" y="1001.2461">&#171;repository&#187;</text><text fill="#000000" font-family="sans-serif" font-size="14" lengthAdjust="spacing" textLength="101" x="1572" y="1019.8672">:UserRepository</text><rect fill="#FFFFFF" height="877.5176" style="stroke:#181818;stroke-width:1.0;" width="10" x="59.5" y="93.6211"/><rect fill="#FFFFFF" height="548.6074" style="stroke:#181818;stroke-width:1.0;" width="10" x="492.5" y="116.9121"/><rect fill="#FFFFFF" height="232.0371" style="stroke:#181818;stroke-width:1.0;" width="10" x="492.5" y="723.1016"/><rect fill="#FFFFFF" height="406.7832" style="stroke:#181818;stroke-width:1.0;" width="10" x="657.5" y="227.4453"/><rect fill="#FFFFFF" height="169.4551" style="stroke:#181818;stroke-width:1.0;" width="10" x="657.5" y="754.3926"/><rect fill="#FFFFFF" height="62.582" style="stroke:#181818;stroke-width:1.0;" width="10" x="821.5" y="258.7363"/><rect fill="#FFFFFF" height="250.3281" style="stroke:#181818;stroke-width:1.0;" width="10" x="1127" y="352.6094"/><rect fill="#FFFFFF" height="106.873" style="stroke:#181818;stroke-width:1.0;" width="10" x="1127" y="785.6836"/><rect fill="#FFFFFF" height="125.1641" style="stroke:#181818;stroke-width:1.0;" width="10" x="1338" y="383.9004"/><rect fill="#FFFFFF" height="62.582" style="stroke:#181818;stroke-width:1.0;" width="10" x="1483" y="415.1914"/><rect fill="#FFFFFF" height="31.291" style="stroke:#181818;stroke-width:1.0;" width="10" x="1617.5" y="540.3555"/><polygon fill="#181818" points="480.5,112.9121,490.5,116.9121,480.5,120.9121,484.5,116.9121" style="stroke:#181818;stroke-width:1.0;"/><line style="stroke:#181818;stroke-width:1.0;" x1="69.5" x2="486.5" y1="116.9121" y2="116.9121"/><text fill="#000000" font-family="sans-serif" font-size="13" font-weight="bold" lengthAdjust="spacing" textLength="7" x="76.5" y="111.6494">1</text><text fill="#000000" font-family="sans-serif" font-size="13" lengthAdjust="spacing" textLength="197" x="87.5" y="111.6494">Asks to deactivate a specific User</text><polygon fill="#181818" points="566.5,144.2031,576.5,148.2031,566.5,152.2031,570.5,148.2031" style="stroke:#181818;stroke-width:1.0;"/><line style="stroke:#181818;stroke-width:1.0;" x1="502.5" x2="572.5" y1="148.2031" y2="148.2031"/><text fill="#000000" font-family="sans-serif" font-size="13" font-weight="bold" lengthAdjust="spacing" textLength="7" x="509.5" y="142.9404">2</text><text fill="#000000" font-family="sans-serif" font-size="13" lengthAdjust="spacing" textLength="36" x="520.5" y="142.9404">create</text><text fill="#000000" font-family="sans-serif" font-size="14" font-style="italic" lengthAdjust="spacing" textLength="84" x="617.5" y="172.0195">&#171;application&#187;</text><text fill="#000000" font-family="sans-serif" font-size="14" lengthAdjust="spacing" textLength="162" x="578.5" y="190.6406">:DeactivateUserController</text><ellipse cx="662.5" cy="140.9121" fill="#E3E3E3" rx="12" ry="12" style="stroke:#181818;stroke-width:0.5;"/><polygon fill="#181818" points="658.5,128.9121,664.5,123.9121,662.5,128.9121,664.5,133.9121,658.5,128.9121" style="stroke:#181818;stroke-width:1.0;"/><polygon fill="#181818" points="645.5,223.4453,655.5,227.4453,645.5,231.4453,649.5,227.4453" style="stroke:#181818;stroke-width:1.0;"/><line style="stroke:#181818;stroke-width:1.0;" x1="502.5" x2="651.5" y1="227.4453" y2="227.4453"/><text fill="#000000" font-family="sans-serif" font-size="13" font-weight="bold" lengthAdjust="spacing" textLength="7" x="509.5" y="222.1826">3</text><text fill="#000000" font-family="sans-serif" font-size="13" lengthAdjust="spacing" textLength="75" x="520.5" y="222.1826">activeUsers()</text><polygon fill="#181818" points="809.5,254.7363,819.5,258.7363,809.5,262.7363,813.5,258.7363" style="stroke:#181818;stroke-width:1.0;"/><line style="stroke:#181818;stroke-width:1.0;" x1="667.5" x2="815.5" y1="258.7363" y2="258.7363"/><text fill="#000000" font-family="sans-serif" font-size="13" font-weight="bold" lengthAdjust="spacing" textLength="7" x="674.5" y="253.4736">4</text><text fill="#000000" font-family="sans-serif" font-size="13" lengthAdjust="spacing" textLength="124" x="685.5" y="253.4736">authorizationService()</text><polygon fill="#181818" points="948.5,286.0273,958.5,290.0273,948.5,294.0273,952.5,290.0273" style="stroke:#181818;stroke-width:1.0;"/><line style="stroke:#181818;stroke-width:1.0;" x1="831.5" x2="954.5" y1="290.0273" y2="290.0273"/><text fill="#000000" font-family="sans-serif" font-size="13" font-weight="bold" lengthAdjust="spacing" textLength="7" x="838.5" y="284.7646">5</text><text fill="#000000" font-family="sans-serif" font-size="13" lengthAdjust="spacing" textLength="44" x="849.5" y="284.7646">create()</text><polygon fill="#181818" points="678.5,317.3184,668.5,321.3184,678.5,325.3184,674.5,321.3184" style="stroke:#181818;stroke-width:1.0;"/><line style="stroke:#181818;stroke-width:1.0;stroke-dasharray:2.0,2.0;" x1="672.5" x2="825.5" y1="321.3184" y2="321.3184"/><text fill="#000000" font-family="sans-serif" font-size="13" font-weight="bold" lengthAdjust="spacing" textLength="7" x="684.5" y="316.0557">6</text><text fill="#000000" font-family="sans-serif" font-size="13" lengthAdjust="spacing" textLength="32" x="695.5" y="316.0557">authz</text><polygon fill="#181818" points="1115,348.6094,1125,352.6094,1115,356.6094,1119,352.6094" style="stroke:#181818;stroke-width:1.0;"/><line style="stroke:#181818;stroke-width:1.0;" x1="667.5" x2="1121" y1="352.6094" y2="352.6094"/><text fill="#000000" font-family="sans-serif" font-size="13" font-weight="bold" lengthAdjust="spacing" textLength="7" x="674.5" y="347.3467">7</text><text fill="#000000" font-family="sans-serif" font-size="13" lengthAdjust="spacing" textLength="75" x="685.5" y="347.3467">activeUsers()</text><polygon fill="#181818" points="1326,379.9004,1336,383.9004,1326,387.9004,1330,383.9004" style="stroke:#181818;stroke-width:1.0;"/><line style="stroke:#181818;stroke-width:1.0;" x1="1137" x2="1332" y1="383.9004" y2="383.9004"/><text fill="#000000" font-family="sans-serif" font-size="13" font-weight="bold" lengthAdjust="spacing" textLength="7" x="1144" y="378.6377">8</text><text fill="#000000" font-family="sans-serif" font-size="13" lengthAdjust="spacing" textLength="75" x="1155" y="378.6377">repositories()</text><polygon fill="#181818" points="1471,411.1914,1481,415.1914,1471,419.1914,1475,415.1914" style="stroke:#181818;stroke-width:1.0;"/><line style="stroke:#181818;stroke-width:1.0;" x1="1348" x2="1477" y1="415.1914" y2="415.1914"/><text fill="#000000" font-family="sans-serif" font-size="13" font-weight="bold" lengthAdjust="spacing" textLength="7" x="1355" y="409.9287">9</text><text fill="#000000" font-family="sans-serif" font-size="13" lengthAdjust="spacing" textLength="75" x="1366" y="409.9287">activeUsers()</text><polygon fill="#181818" points="1610.5,442.4824,1620.5,446.4824,1610.5,450.4824,1614.5,446.4824" style="stroke:#181818;stroke-width:1.0;"/><line style="stroke:#181818;stroke-width:1.0;" x1="1493" x2="1616.5" y1="446.4824" y2="446.4824"/><text fill="#000000" font-family="sans-serif" font-size="13" font-weight="bold" lengthAdjust="spacing" textLength="14" x="1500" y="441.2197">10</text><text fill="#000000" font-family="sans-serif" font-size="13" lengthAdjust="spacing" textLength="44" x="1518" y="441.2197">create()</text><polygon fill="#181818" points="1359,473.7734,1349,477.7734,1359,481.7734,1355,477.7734" style="stroke:#181818;stroke-width:1.0;"/><line style="stroke:#181818;stroke-width:1.0;stroke-dasharray:2.0,2.0;" x1="1353" x2="1487" y1="477.7734" y2="477.7734"/><text fill="#000000" font-family="sans-serif" font-size="13" font-weight="bold" lengthAdjust="spacing" textLength="14" x="1365" y="472.5107">11</text><text fill="#000000" font-family="sans-serif" font-size="13" lengthAdjust="spacing" textLength="87" x="1383" y="472.5107">userRepository</text><polygon fill="#181818" points="1148,505.0645,1138,509.0645,1148,513.0645,1144,509.0645" style="stroke:#181818;stroke-width:1.0;"/><line style="stroke:#181818;stroke-width:1.0;stroke-dasharray:2.0,2.0;" x1="1142" x2="1342" y1="509.0645" y2="509.0645"/><text fill="#000000" font-family="sans-serif" font-size="13" font-weight="bold" lengthAdjust="spacing" textLength="14" x="1154" y="503.8018">12</text><text fill="#000000" font-family="sans-serif" font-size="13" lengthAdjust="spacing" textLength="87" x="1172" y="503.8018">userRepository</text><polygon fill="#181818" points="1605.5,536.3555,1615.5,540.3555,1605.5,544.3555,1609.5,540.3555" style="stroke:#181818;stroke-width:1.0;"/><line style="stroke:#181818;stroke-width:1.0;" x1="1137" x2="1611.5" y1="540.3555" y2="540.3555"/><text fill="#000000" font-family="sans-serif" font-size="13" font-weight="bold" lengthAdjust="spacing" textLength="14" x="1144" y="535.0928">13</text><text fill="#000000" font-family="sans-serif" font-size="13" lengthAdjust="spacing" textLength="101" x="1162" y="535.0928">findByActive(true)</text><polygon fill="#181818" points="1148,567.6465,1138,571.6465,1148,575.6465,1144,571.6465" style="stroke:#181818;stroke-width:1.0;"/><line style="stroke:#181818;stroke-width:1.0;stroke-dasharray:2.0,2.0;" x1="1142" x2="1621.5" y1="571.6465" y2="571.6465"/><text fill="#000000" font-family="sans-serif" font-size="13" font-weight="bold" lengthAdjust="spacing" textLength="14" x="1154" y="566.3838">14</text><text fill="#000000" font-family="sans-serif" font-size="13" lengthAdjust="spacing" textLength="67" x="1172" y="566.3838">activeUsers</text><polygon fill="#181818" points="678.5,598.9375,668.5,602.9375,678.5,606.9375,674.5,602.9375" style="stroke:#181818;stroke-width:1.0;"/><line style="stroke:#181818;stroke-width:1.0;stroke-dasharray:2.0,2.0;" x1="672.5" x2="1131" y1="602.9375" y2="602.9375"/><text fill="#000000" font-family="sans-serif" font-size="13" font-weight="bold" lengthAdjust="spacing" textLength="14" x="684.5" y="597.6748">15</text><text fill="#000000" font-family="sans-serif" font-size="13" lengthAdjust="spacing" textLength="67" x="702.5" y="597.6748">activeUsers</text><polygon fill="#181818" points="513.5,630.2285,503.5,634.2285,513.5,638.2285,509.5,634.2285" style="stroke:#181818;stroke-width:1.0;"/><line style="stroke:#181818;stroke-width:1.0;stroke-dasharray:2.0,2.0;" x1="507.5" x2="661.5" y1="634.2285" y2="634.2285"/><text fill="#000000" font-family="sans-serif" font-size="13" font-weight="bold" lengthAdjust="spacing" textLength="14" x="519.5" y="628.9658">16</text><text fill="#000000" font-family="sans-serif" font-size="13" lengthAdjust="spacing" textLength="67" x="537.5" y="628.9658">activeUsers</text><polygon fill="#181818" points="80.5,661.5195,70.5,665.5195,80.5,669.5195,76.5,665.5195" style="stroke:#181818;stroke-width:1.0;"/><line style="stroke:#181818;stroke-width:1.0;stroke-dasharray:2.0,2.0;" x1="74.5" x2="496.5" y1="665.5195" y2="665.5195"/><text fill="#000000" font-family="sans-serif" font-size="13" font-weight="bold" lengthAdjust="spacing" textLength="14" x="86.5" y="660.2568">17</text><text fill="#000000" font-family="sans-serif" font-size="13" lengthAdjust="spacing" textLength="269" x="104.5" y="660.2568">Shows the list of the activated to chose a User</text><path d="M10,680.5195 L71,680.5195 L71,689.8105 L61,699.8105 L10,699.8105 L10,680.5195 " fill="#EEEEEE" style="stroke:#000000;stroke-width:1.5;"/><rect fill="none" height="282.6191" style="stroke:#000000;stroke-width:1.5;" width="1680" x="10" y="680.5195"/><text fill="#000000" font-family="sans-serif" font-size="13" font-weight="bold" lengthAdjust="spacing" textLength="16" x="25" y="695.5479">alt</text><text fill="#000000" font-family="sans-serif" font-size="11" font-weight="bold" lengthAdjust="spacing" textLength="64" x="86" y="694.3896">[option != 0]</text><polygon fill="#181818" points="480.5,719.1016,490.5,723.1016,480.5,727.1016,484.5,723.1016" style="stroke:#181818;stroke-width:1.0;"/><line style="stroke:#181818;stroke-width:1.0;" x1="69.5" x2="486.5" y1="723.1016" y2="723.1016"/><text fill="#000000" font-family="sans-serif" font-size="13" font-weight="bold" lengthAdjust="spacing" textLength="14" x="76.5" y="717.8389">18</text><text fill="#000000" font-family="sans-serif" font-size="13" lengthAdjust="spacing" textLength="174" x="94.5" y="717.8389">Choose the User to deactivate</text><polygon fill="#181818" points="645.5,750.3926,655.5,754.3926,645.5,758.3926,649.5,754.3926" style="stroke:#181818;stroke-width:1.0;"/><line style="stroke:#181818;stroke-width:1.0;" x1="502.5" x2="651.5" y1="754.3926" y2="754.3926"/><text fill="#000000" font-family="sans-serif" font-size="13" font-weight="bold" lengthAdjust="spacing" textLength="14" x="509.5" y="749.1299">19</text><text fill="#000000" font-family="sans-serif" font-size="13" lengthAdjust="spacing" textLength="118" x="527.5" y="749.1299">deactivateUser(user)</text><polygon fill="#181818" points="1115,781.6836,1125,785.6836,1115,789.6836,1119,785.6836" style="stroke:#181818;stroke-width:1.0;"/><line style="stroke:#181818;stroke-width:1.0;" x1="667.5" x2="1121" y1="785.6836" y2="785.6836"/><text fill="#000000" font-family="sans-serif" font-size="13" font-weight="bold" lengthAdjust="spacing" textLength="14" x="674.5" y="780.4209">20</text><text fill="#000000" font-family="sans-serif" font-size="13" lengthAdjust="spacing" textLength="118" x="692.5" y="780.4209">deactivateUser(user)</text><line style="stroke:#181818;stroke-width:1.0;" x1="1137" x2="1179" y1="816.9746" y2="816.9746"/><line style="stroke:#181818;stroke-width:1.0;" x1="1179" x2="1179" y1="816.9746" y2="829.9746"/><line style="stroke:#181818;stroke-width:1.0;" x1="1138" x2="1179" y1="829.9746" y2="829.9746"/><polygon fill="#181818" points="1148,825.9746,1138,829.9746,1148,833.9746,1144,829.9746" style="stroke:#181818;stroke-width:1.0;"/><text fill="#000000" font-family="sans-serif" font-size="13" font-weight="bold" lengthAdjust="spacing" textLength="14" x="1144" y="811.7119">21</text><text fill="#000000" font-family="sans-serif" font-size="13" lengthAdjust="spacing" textLength="169" x="1162" y="811.7119">user.deactivate(CurrentTime);</text><polygon fill="#181818" points="1610.5,857.2656,1620.5,861.2656,1610.5,865.2656,1614.5,861.2656" style="stroke:#181818;stroke-width:1.0;"/><line style="stroke:#181818;stroke-width:1.0;" x1="1137" x2="1616.5" y1="861.2656" y2="861.2656"/><text fill="#000000" font-family="sans-serif" font-size="13" font-weight="bold" lengthAdjust="spacing" textLength="14" x="1144" y="856.0029">22</text><text fill="#000000" font-family="sans-serif" font-size="13" lengthAdjust="spacing" textLength="59" x="1162" y="856.0029">save(user)</text><polygon fill="#181818" points="678.5,888.5566,668.5,892.5566,678.5,896.5566,674.5,892.5566" style="stroke:#181818;stroke-width:1.0;"/><line style="stroke:#181818;stroke-width:1.0;stroke-dasharray:2.0,2.0;" x1="672.5" x2="1131" y1="892.5566" y2="892.5566"/><text fill="#000000" font-family="sans-serif" font-size="13" font-weight="bold" lengthAdjust="spacing" textLength="14" x="684.5" y="887.2939">23</text><text fill="#000000" font-family="sans-serif" font-size="13" lengthAdjust="spacing" textLength="25" x="702.5" y="887.2939">user</text><polygon fill="#181818" points="513.5,919.8477,503.5,923.8477,513.5,927.8477,509.5,923.8477" style="stroke:#181818;stroke-width:1.0;"/><line style="stroke:#181818;stroke-width:1.0;stroke-dasharray:2.0,2.0;" x1="507.5" x2="661.5" y1="923.8477" y2="923.8477"/><text fill="#000000" font-family="sans-serif" font-size="13" font-weight="bold" lengthAdjust="spacing" textLength="14" x="519.5" y="918.585">24</text><text fill="#000000" font-family="sans-serif" font-size="13" lengthAdjust="spacing" textLength="25" x="537.5" y="918.585">user</text><polygon fill="#181818" points="80.5,951.1387,70.5,955.1387,80.5,959.1387,76.5,955.1387" style="stroke:#181818;stroke-width:1.0;"/><line style="stroke:#181818;stroke-width:1.0;stroke-dasharray:2.0,2.0;" x1="74.5" x2="496.5" y1="955.1387" y2="955.1387"/><text fill="#000000" font-family="sans-serif" font-size="13" font-weight="bold" lengthAdjust="spacing" textLength="14" x="86.5" y="949.876">25</text><text fill="#000000" font-family="sans-serif" font-size="13" lengthAdjust="spacing" textLength="381" x="104.5" y="949.876">Show the information of the User and the success of the operation</text><!--SRC=[dLPDSziW4BtpAsWkTJAZf6SrrOoQJgS-TAPZnp-0eBN5H08LK5BdrtV1iGKMbjtg963Vsw_7IXzhQpkJtzrr3PEsRvjRhjex0xzxa1ooIh2DPYqXvbd8Zk4hRPLKlDQg1Mfr3y59n_Wpsy3IRXkW6hXbSjE41gPcbNeLSaFNh3502Ekjadtx11hVkLMQbbKhf31MCxTYXfPkco3U2YuwZ95UvTy0ZSKBix0oe5VpAsUucjFx-qw30McP5KeM1U5AMgsQ4UHXjz-0zj1XYHIiwnh1zmoHuxAtzTi2DYw-hKUM2peDoHr6QV7cJvUWNmI77NJr-6Dv1knY_Saa5hN5h49qycIQxHTeWv6xlhg4uO_rJC6sA-2m6aMpW4uPWUtOVlVDsfLWj7k6nKK-O8ue4AiF2uHwMVYslGk1ukFVQ5QubkUqDC-6MaMhGuSfewO3BjQ2-pfva7iE1givClljrHnvXlxVt20Zru16k_DZ0ppsB5v6PdPD8jx1ZXoSuZDiPmKg1YaIedZdEegqN0IxvGBnNZRx814KUCBph8XZTOeT388Q8J4Pn-Uhcf9MAksuf2aK8L4TqaPP4KWmFxHVW8bA4lWAx2E3O3yhHhhCqnb4p2DGP3Ow3RtaXuvCGw9qiKLzT1yYSD2kwS32nBCYFHj6dawv2gjxUJYNz3ae5bqBMNtTbhubC_SXETkH4tKzbN2asFDvNAJKy7PTn7_YLj3qSC1CvcdQW3ASCK7GEATmEBXUv7HPgrUSYJNG1Xj9rTg_xnagDorvhOmRb7u-XW7ZP6GDOZetckY7B_HJOkO-rCh17QiZYCSl2SbEpD0g-XpFd3A3_gTofVyqh2xaJxTdMWGJNfsRsy7rxA7N6iyVHGlNdo-W3U-7ONWlTd6VHKRLtOL1_aUDOMbzgoUuafyw58S31ZBq6X5ohNJhFtPxCNhPC5dvXUav1sFsPmf_7xnnEeav0LcXyly2]--></g></svg>