<?xml version="1.0" encoding="us-ascii" standalone="no"?><svg xmlns="http://www.w3.org/2000/svg" xmlns:xlink="http://www.w3.org/1999/xlink" contentStyleType="text/css" height="495px" preserveAspectRatio="none" style="width:1062px;height:495px;background:#FFFFFF;" version="1.1" viewBox="0 0 1062 495" width="1062px" zoomAndPan="magnify"><defs/><g><!--cluster Plugin Aggregate--><g id="cluster_Plugin Aggregate"><path d="M8.5,6.0137 L130.5,6.0137 A3.75,3.75 0 0 1 133,8.5137 L140,30.6348 L845.5,30.6348 A2.5,2.5 0 0 1 848,33.1348 L848,322.5137 A2.5,2.5 0 0 1 845.5,325.0137 L8.5,325.0137 A2.5,2.5 0 0 1 6,322.5137 L6,8.5137 A2.5,2.5 0 0 1 8.5,6.0137 " fill="none" style="stroke:#000000;stroke-width:1.5;"/><line style="stroke:#000000;stroke-width:1.5;" x1="6" x2="140" y1="30.6348" y2="30.6348"/><text fill="#000000" font-family="sans-serif" font-size="14" font-weight="bold" lengthAdjust="spacing" textLength="121" x="10" y="23.1211">Plugin Aggregate</text></g><!--cluster Job Opening Aggregate--><g id="cluster_Job Opening Aggregate"><path d="M874.5,190.0137 L1042.5,190.0137 A3.75,3.75 0 0 1 1045,192.5137 L1052,214.6348 L1052.5,214.6348 A2.5,2.5 0 0 1 1055,217.1348 L1055,485.5137 A2.5,2.5 0 0 1 1052.5,488.0137 L874.5,488.0137 A2.5,2.5 0 0 1 872,485.5137 L872,192.5137 A2.5,2.5 0 0 1 874.5,190.0137 " fill="none" style="stroke:#000000;stroke-width:1.5;"/><line style="stroke:#000000;stroke-width:1.5;" x1="872" x2="1052" y1="214.6348" y2="214.6348"/><text fill="#000000" font-family="sans-serif" font-size="14" font-weight="bold" lengthAdjust="spacing" textLength="167" x="876" y="207.1211">Job Opening Aggregate</text></g><!--class Plugin--><g id="elem_Plugin"><rect codeLine="4" fill="#F1F1F1" height="81.8633" id="Plugin" rx="2.5" ry="2.5" style="stroke:#181818;stroke-width:0.5;" width="82" x="478" y="43.0137"/><ellipse cx="493" cy="75.9453" fill="#ADD1B2" rx="11" ry="11" style="stroke:#181818;stroke-width:1.0;"/><path d="M495.7656,71.8203 Q495.9219,71.6016 496.1094,71.4922 Q496.2969,71.3828 496.5156,71.3828 Q496.8906,71.3828 497.125,71.6484 Q497.3594,71.8984 497.3594,72.5078 L497.3594,73.9609 Q497.3594,74.5703 497.125,74.8359 Q496.8906,75.1016 496.5156,75.1016 Q496.1719,75.1016 495.9688,74.8984 Q495.7656,74.7109 495.6563,74.1953 Q495.6094,73.8359 495.4219,73.6484 Q495.0938,73.2734 494.4844,73.0547 Q493.875,72.8359 493.25,72.8359 Q492.4844,72.8359 491.8438,73.1641 Q491.2188,73.4922 490.7188,74.2422 Q490.2344,74.9922 490.2344,76.0234 L490.2344,77.1172 Q490.2344,78.3516 491.125,79.1797 Q492.0156,79.9922 493.6094,79.9922 Q494.5469,79.9922 495.2031,79.7422 Q495.5938,79.5859 496.0156,79.1484 Q496.2813,78.8828 496.4219,78.8047 Q496.5781,78.7266 496.7813,78.7266 Q497.1094,78.7266 497.3594,78.9922 Q497.625,79.2422 497.625,79.5859 Q497.625,79.9297 497.2813,80.3359 Q496.7813,80.9141 495.9844,81.2422 Q494.9063,81.6953 493.6094,81.6953 Q492.0938,81.6953 490.8906,81.0703 Q489.9063,80.5703 489.2188,79.5078 Q488.5313,78.4297 488.5313,77.1484 L488.5313,75.9922 Q488.5313,74.6641 489.1406,73.5234 Q489.7656,72.3672 490.8594,71.7578 Q491.9531,71.1328 493.1875,71.1328 Q493.9219,71.1328 494.5625,71.3047 Q495.2188,71.4609 495.7656,71.8203 Z " fill="#000000"/><text fill="#000000" font-family="sans-serif" font-size="14" lengthAdjust="spacing" textLength="41" x="511.5" y="63.1211">&#171;root&#187;</text><text fill="#000000" font-family="sans-serif" font-size="14" lengthAdjust="spacing" textLength="50" x="507" y="81.7422">&#171;entity&#187;</text><text fill="#000000" font-family="sans-serif" font-size="14" lengthAdjust="spacing" textLength="39" x="512.5" y="100.3633">Plugin</text><line style="stroke:#181818;stroke-width:0.5;" x1="479" x2="559" y1="108.877" y2="108.877"/><line style="stroke:#181818;stroke-width:0.5;" x1="479" x2="559" y1="116.877" y2="116.877"/></g><!--class PlugID--><g id="elem_PlugID"><rect codeLine="6" fill="#F1F1F1" height="81.8633" id="PlugID" rx="2.5" ry="2.5" style="stroke:#181818;stroke-width:0.5;" width="125" x="22.5" y="227.0137"/><ellipse cx="37.5" cy="259.9453" fill="#ADD1B2" rx="11" ry="11" style="stroke:#181818;stroke-width:1.0;"/><path d="M40.2656,255.8203 Q40.4219,255.6016 40.6094,255.4922 Q40.7969,255.3828 41.0156,255.3828 Q41.3906,255.3828 41.625,255.6484 Q41.8594,255.8984 41.8594,256.5078 L41.8594,257.9609 Q41.8594,258.5703 41.625,258.8359 Q41.3906,259.1016 41.0156,259.1016 Q40.6719,259.1016 40.4688,258.8984 Q40.2656,258.7109 40.1563,258.1953 Q40.1094,257.8359 39.9219,257.6484 Q39.5938,257.2734 38.9844,257.0547 Q38.375,256.8359 37.75,256.8359 Q36.9844,256.8359 36.3438,257.1641 Q35.7188,257.4922 35.2188,258.2422 Q34.7344,258.9922 34.7344,260.0234 L34.7344,261.1172 Q34.7344,262.3516 35.625,263.1797 Q36.5156,263.9922 38.1094,263.9922 Q39.0469,263.9922 39.7031,263.7422 Q40.0938,263.5859 40.5156,263.1484 Q40.7813,262.8828 40.9219,262.8047 Q41.0781,262.7266 41.2813,262.7266 Q41.6094,262.7266 41.8594,262.9922 Q42.125,263.2422 42.125,263.5859 Q42.125,263.9297 41.7813,264.3359 Q41.2813,264.9141 40.4844,265.2422 Q39.4063,265.6953 38.1094,265.6953 Q36.5938,265.6953 35.3906,265.0703 Q34.4063,264.5703 33.7188,263.5078 Q33.0313,262.4297 33.0313,261.1484 L33.0313,259.9922 Q33.0313,258.6641 33.6406,257.5234 Q34.2656,256.3672 35.3594,255.7578 Q36.4531,255.1328 37.6875,255.1328 Q38.4219,255.1328 39.0625,255.3047 Q39.7188,255.4609 40.2656,255.8203 Z " fill="#000000"/><text fill="#000000" font-family="sans-serif" font-size="14" lengthAdjust="spacing" textLength="92" x="52" y="247.1211">&#171;value object&#187;</text><text fill="#000000" font-family="sans-serif" font-size="14" lengthAdjust="spacing" textLength="70" x="63" y="265.7422">&#171;identifier&#187;</text><text fill="#000000" font-family="sans-serif" font-size="14" lengthAdjust="spacing" textLength="93" x="51.5" y="284.3633">PluginIdentifier</text><line style="stroke:#181818;stroke-width:0.5;" x1="23.5" x2="146.5" y1="292.877" y2="292.877"/><line style="stroke:#181818;stroke-width:0.5;" x1="23.5" x2="146.5" y1="300.877" y2="300.877"/></g><!--class PlugType--><g id="elem_PlugType"><rect codeLine="8" fill="#F1F1F1" height="63.2422" id="PlugType" rx="2.5" ry="2.5" style="stroke:#181818;stroke-width:0.5;" width="124" x="183" y="236.5137"/><ellipse cx="198" cy="260.1348" fill="#ADD1B2" rx="11" ry="11" style="stroke:#181818;stroke-width:1.0;"/><path d="M200.7656,256.0098 Q200.9219,255.791 201.1094,255.6816 Q201.2969,255.5723 201.5156,255.5723 Q201.8906,255.5723 202.125,255.8379 Q202.3594,256.0879 202.3594,256.6973 L202.3594,258.1504 Q202.3594,258.7598 202.125,259.0254 Q201.8906,259.291 201.5156,259.291 Q201.1719,259.291 200.9688,259.0879 Q200.7656,258.9004 200.6563,258.3848 Q200.6094,258.0254 200.4219,257.8379 Q200.0938,257.4629 199.4844,257.2441 Q198.875,257.0254 198.25,257.0254 Q197.4844,257.0254 196.8438,257.3535 Q196.2188,257.6816 195.7188,258.4316 Q195.2344,259.1816 195.2344,260.2129 L195.2344,261.3066 Q195.2344,262.541 196.125,263.3691 Q197.0156,264.1816 198.6094,264.1816 Q199.5469,264.1816 200.2031,263.9316 Q200.5938,263.7754 201.0156,263.3379 Q201.2813,263.0723 201.4219,262.9941 Q201.5781,262.916 201.7813,262.916 Q202.1094,262.916 202.3594,263.1816 Q202.625,263.4316 202.625,263.7754 Q202.625,264.1191 202.2813,264.5254 Q201.7813,265.1035 200.9844,265.4316 Q199.9063,265.8848 198.6094,265.8848 Q197.0938,265.8848 195.8906,265.2598 Q194.9063,264.7598 194.2188,263.6973 Q193.5313,262.6191 193.5313,261.3379 L193.5313,260.1816 Q193.5313,258.8535 194.1406,257.7129 Q194.7656,256.5566 195.8594,255.9473 Q196.9531,255.3223 198.1875,255.3223 Q198.9219,255.3223 199.5625,255.4941 Q200.2188,255.6504 200.7656,256.0098 Z " fill="#000000"/><text fill="#000000" font-family="sans-serif" font-size="14" lengthAdjust="spacing" textLength="92" x="212" y="256.6211">&#171;value object&#187;</text><text fill="#000000" font-family="sans-serif" font-size="14" lengthAdjust="spacing" textLength="71" x="222.5" y="275.2422">PluginType</text><line style="stroke:#181818;stroke-width:0.5;" x1="184" x2="306" y1="283.7559" y2="283.7559"/><line style="stroke:#181818;stroke-width:0.5;" x1="184" x2="306" y1="291.7559" y2="291.7559"/></g><!--class PlugClass--><g id="elem_PlugClass"><rect codeLine="10" fill="#F1F1F1" height="63.2422" id="PlugClass" rx="2.5" ry="2.5" style="stroke:#181818;stroke-width:0.5;" width="172" x="342" y="236.5137"/><ellipse cx="357" cy="260.1348" fill="#ADD1B2" rx="11" ry="11" style="stroke:#181818;stroke-width:1.0;"/><path d="M359.7656,256.0098 Q359.9219,255.791 360.1094,255.6816 Q360.2969,255.5723 360.5156,255.5723 Q360.8906,255.5723 361.125,255.8379 Q361.3594,256.0879 361.3594,256.6973 L361.3594,258.1504 Q361.3594,258.7598 361.125,259.0254 Q360.8906,259.291 360.5156,259.291 Q360.1719,259.291 359.9688,259.0879 Q359.7656,258.9004 359.6563,258.3848 Q359.6094,258.0254 359.4219,257.8379 Q359.0938,257.4629 358.4844,257.2441 Q357.875,257.0254 357.25,257.0254 Q356.4844,257.0254 355.8438,257.3535 Q355.2188,257.6816 354.7188,258.4316 Q354.2344,259.1816 354.2344,260.2129 L354.2344,261.3066 Q354.2344,262.541 355.125,263.3691 Q356.0156,264.1816 357.6094,264.1816 Q358.5469,264.1816 359.2031,263.9316 Q359.5938,263.7754 360.0156,263.3379 Q360.2813,263.0723 360.4219,262.9941 Q360.5781,262.916 360.7813,262.916 Q361.1094,262.916 361.3594,263.1816 Q361.625,263.4316 361.625,263.7754 Q361.625,264.1191 361.2813,264.5254 Q360.7813,265.1035 359.9844,265.4316 Q358.9063,265.8848 357.6094,265.8848 Q356.0938,265.8848 354.8906,265.2598 Q353.9063,264.7598 353.2188,263.6973 Q352.5313,262.6191 352.5313,261.3379 L352.5313,260.1816 Q352.5313,258.8535 353.1406,257.7129 Q353.7656,256.5566 354.8594,255.9473 Q355.9531,255.3223 357.1875,255.3223 Q357.9219,255.3223 358.5625,255.4941 Q359.2188,255.6504 359.7656,256.0098 Z " fill="#000000"/><text fill="#000000" font-family="sans-serif" font-size="14" lengthAdjust="spacing" textLength="92" x="395" y="256.6211">&#171;value object&#187;</text><text fill="#000000" font-family="sans-serif" font-size="14" lengthAdjust="spacing" textLength="140" x="371" y="275.2422">PluginMainClassName</text><line style="stroke:#181818;stroke-width:0.5;" x1="343" x2="513" y1="283.7559" y2="283.7559"/><line style="stroke:#181818;stroke-width:0.5;" x1="343" x2="513" y1="291.7559" y2="291.7559"/></g><!--class JarFile--><g id="elem_JarFile"><rect codeLine="12" fill="#F1F1F1" height="63.2422" id="JarFile" rx="2.5" ry="2.5" style="stroke:#181818;stroke-width:0.5;" width="124" x="549" y="236.5137"/><ellipse cx="564" cy="260.1348" fill="#ADD1B2" rx="11" ry="11" style="stroke:#181818;stroke-width:1.0;"/><path d="M566.7656,256.0098 Q566.9219,255.791 567.1094,255.6816 Q567.2969,255.5723 567.5156,255.5723 Q567.8906,255.5723 568.125,255.8379 Q568.3594,256.0879 568.3594,256.6973 L568.3594,258.1504 Q568.3594,258.7598 568.125,259.0254 Q567.8906,259.291 567.5156,259.291 Q567.1719,259.291 566.9688,259.0879 Q566.7656,258.9004 566.6563,258.3848 Q566.6094,258.0254 566.4219,257.8379 Q566.0938,257.4629 565.4844,257.2441 Q564.875,257.0254 564.25,257.0254 Q563.4844,257.0254 562.8438,257.3535 Q562.2188,257.6816 561.7188,258.4316 Q561.2344,259.1816 561.2344,260.2129 L561.2344,261.3066 Q561.2344,262.541 562.125,263.3691 Q563.0156,264.1816 564.6094,264.1816 Q565.5469,264.1816 566.2031,263.9316 Q566.5938,263.7754 567.0156,263.3379 Q567.2813,263.0723 567.4219,262.9941 Q567.5781,262.916 567.7813,262.916 Q568.1094,262.916 568.3594,263.1816 Q568.625,263.4316 568.625,263.7754 Q568.625,264.1191 568.2813,264.5254 Q567.7813,265.1035 566.9844,265.4316 Q565.9063,265.8848 564.6094,265.8848 Q563.0938,265.8848 561.8906,265.2598 Q560.9063,264.7598 560.2188,263.6973 Q559.5313,262.6191 559.5313,261.3379 L559.5313,260.1816 Q559.5313,258.8535 560.1406,257.7129 Q560.7656,256.5566 561.8594,255.9473 Q562.9531,255.3223 564.1875,255.3223 Q564.9219,255.3223 565.5625,255.4941 Q566.2188,255.6504 566.7656,256.0098 Z " fill="#000000"/><text fill="#000000" font-family="sans-serif" font-size="14" lengthAdjust="spacing" textLength="92" x="578" y="256.6211">&#171;value object&#187;</text><text fill="#000000" font-family="sans-serif" font-size="14" lengthAdjust="spacing" textLength="78" x="585" y="275.2422">JarFileName</text><line style="stroke:#181818;stroke-width:0.5;" x1="550" x2="672" y1="283.7559" y2="283.7559"/><line style="stroke:#181818;stroke-width:0.5;" x1="550" x2="672" y1="291.7559" y2="291.7559"/></g><!--class PlugDesc--><g id="elem_PlugDesc"><rect codeLine="14" fill="#F1F1F1" height="63.2422" id="PlugDesc" rx="2.5" ry="2.5" style="stroke:#181818;stroke-width:0.5;" width="124" x="708" y="236.5137"/><ellipse cx="723" cy="260.1348" fill="#ADD1B2" rx="11" ry="11" style="stroke:#181818;stroke-width:1.0;"/><path d="M725.7656,256.0098 Q725.9219,255.791 726.1094,255.6816 Q726.2969,255.5723 726.5156,255.5723 Q726.8906,255.5723 727.125,255.8379 Q727.3594,256.0879 727.3594,256.6973 L727.3594,258.1504 Q727.3594,258.7598 727.125,259.0254 Q726.8906,259.291 726.5156,259.291 Q726.1719,259.291 725.9688,259.0879 Q725.7656,258.9004 725.6563,258.3848 Q725.6094,258.0254 725.4219,257.8379 Q725.0938,257.4629 724.4844,257.2441 Q723.875,257.0254 723.25,257.0254 Q722.4844,257.0254 721.8438,257.3535 Q721.2188,257.6816 720.7188,258.4316 Q720.2344,259.1816 720.2344,260.2129 L720.2344,261.3066 Q720.2344,262.541 721.125,263.3691 Q722.0156,264.1816 723.6094,264.1816 Q724.5469,264.1816 725.2031,263.9316 Q725.5938,263.7754 726.0156,263.3379 Q726.2813,263.0723 726.4219,262.9941 Q726.5781,262.916 726.7813,262.916 Q727.1094,262.916 727.3594,263.1816 Q727.625,263.4316 727.625,263.7754 Q727.625,264.1191 727.2813,264.5254 Q726.7813,265.1035 725.9844,265.4316 Q724.9063,265.8848 723.6094,265.8848 Q722.0938,265.8848 720.8906,265.2598 Q719.9063,264.7598 719.2188,263.6973 Q718.5313,262.6191 718.5313,261.3379 L718.5313,260.1816 Q718.5313,258.8535 719.1406,257.7129 Q719.7656,256.5566 720.8594,255.9473 Q721.9531,255.3223 723.1875,255.3223 Q723.9219,255.3223 724.5625,255.4941 Q725.2188,255.6504 725.7656,256.0098 Z " fill="#000000"/><text fill="#000000" font-family="sans-serif" font-size="14" lengthAdjust="spacing" textLength="92" x="737" y="256.6211">&#171;value object&#187;</text><text fill="#000000" font-family="sans-serif" font-size="14" lengthAdjust="spacing" textLength="71" x="747.5" y="275.2422">Description</text><line style="stroke:#181818;stroke-width:0.5;" x1="709" x2="831" y1="283.7559" y2="283.7559"/><line style="stroke:#181818;stroke-width:0.5;" x1="709" x2="831" y1="291.7559" y2="291.7559"/></g><!--class JobOpening--><g id="elem_JobOpening"><rect codeLine="23" fill="#F1F1F1" height="81.8633" id="JobOpening" rx="2.5" ry="2.5" style="stroke:#181818;stroke-width:0.5;" width="108" x="892" y="227.0137"/><ellipse cx="907" cy="259.9453" fill="#ADD1B2" rx="11" ry="11" style="stroke:#181818;stroke-width:1.0;"/><path d="M909.7656,255.8203 Q909.9219,255.6016 910.1094,255.4922 Q910.2969,255.3828 910.5156,255.3828 Q910.8906,255.3828 911.125,255.6484 Q911.3594,255.8984 911.3594,256.5078 L911.3594,257.9609 Q911.3594,258.5703 911.125,258.8359 Q910.8906,259.1016 910.5156,259.1016 Q910.1719,259.1016 909.9688,258.8984 Q909.7656,258.7109 909.6563,258.1953 Q909.6094,257.8359 909.4219,257.6484 Q909.0938,257.2734 908.4844,257.0547 Q907.875,256.8359 907.25,256.8359 Q906.4844,256.8359 905.8438,257.1641 Q905.2188,257.4922 904.7188,258.2422 Q904.2344,258.9922 904.2344,260.0234 L904.2344,261.1172 Q904.2344,262.3516 905.125,263.1797 Q906.0156,263.9922 907.6094,263.9922 Q908.5469,263.9922 909.2031,263.7422 Q909.5938,263.5859 910.0156,263.1484 Q910.2813,262.8828 910.4219,262.8047 Q910.5781,262.7266 910.7813,262.7266 Q911.1094,262.7266 911.3594,262.9922 Q911.625,263.2422 911.625,263.5859 Q911.625,263.9297 911.2813,264.3359 Q910.7813,264.9141 909.9844,265.2422 Q908.9063,265.6953 907.6094,265.6953 Q906.0938,265.6953 904.8906,265.0703 Q903.9063,264.5703 903.2188,263.5078 Q902.5313,262.4297 902.5313,261.1484 L902.5313,259.9922 Q902.5313,258.6641 903.1406,257.5234 Q903.7656,256.3672 904.8594,255.7578 Q905.9531,255.1328 907.1875,255.1328 Q907.9219,255.1328 908.5625,255.3047 Q909.2188,255.4609 909.7656,255.8203 Z " fill="#000000"/><text fill="#000000" font-family="sans-serif" font-size="14" lengthAdjust="spacing" textLength="41" x="938.5" y="247.1211">&#171;root&#187;</text><text fill="#000000" font-family="sans-serif" font-size="14" lengthAdjust="spacing" textLength="50" x="932" y="265.7422">&#171;entity&#187;</text><text fill="#000000" font-family="sans-serif" font-size="14" lengthAdjust="spacing" textLength="76" x="921" y="284.3633">JobOpening</text><line style="stroke:#181818;stroke-width:0.5;" x1="893" x2="999" y1="292.877" y2="292.877"/><line style="stroke:#181818;stroke-width:0.5;" x1="893" x2="999" y1="300.877" y2="300.877"/></g><!--class JobReference--><g id="elem_JobReference"><rect codeLine="28" fill="#F1F1F1" height="81.8633" id="JobReference" rx="2.5" ry="2.5" style="stroke:#181818;stroke-width:0.5;" width="124" x="888" y="390.0137"/><ellipse cx="903" cy="422.9453" fill="#ADD1B2" rx="11" ry="11" style="stroke:#181818;stroke-width:1.0;"/><path d="M905.7656,418.8203 Q905.9219,418.6016 906.1094,418.4922 Q906.2969,418.3828 906.5156,418.3828 Q906.8906,418.3828 907.125,418.6484 Q907.3594,418.8984 907.3594,419.5078 L907.3594,420.9609 Q907.3594,421.5703 907.125,421.8359 Q906.8906,422.1016 906.5156,422.1016 Q906.1719,422.1016 905.9688,421.8984 Q905.7656,421.7109 905.6563,421.1953 Q905.6094,420.8359 905.4219,420.6484 Q905.0938,420.2734 904.4844,420.0547 Q903.875,419.8359 903.25,419.8359 Q902.4844,419.8359 901.8438,420.1641 Q901.2188,420.4922 900.7188,421.2422 Q900.2344,421.9922 900.2344,423.0234 L900.2344,424.1172 Q900.2344,425.3516 901.125,426.1797 Q902.0156,426.9922 903.6094,426.9922 Q904.5469,426.9922 905.2031,426.7422 Q905.5938,426.5859 906.0156,426.1484 Q906.2813,425.8828 906.4219,425.8047 Q906.5781,425.7266 906.7813,425.7266 Q907.1094,425.7266 907.3594,425.9922 Q907.625,426.2422 907.625,426.5859 Q907.625,426.9297 907.2813,427.3359 Q906.7813,427.9141 905.9844,428.2422 Q904.9063,428.6953 903.6094,428.6953 Q902.0938,428.6953 900.8906,428.0703 Q899.9063,427.5703 899.2188,426.5078 Q898.5313,425.4297 898.5313,424.1484 L898.5313,422.9922 Q898.5313,421.6641 899.1406,420.5234 Q899.7656,419.3672 900.8594,418.7578 Q901.9531,418.1328 903.1875,418.1328 Q903.9219,418.1328 904.5625,418.3047 Q905.2188,418.4609 905.7656,418.8203 Z " fill="#000000"/><text fill="#000000" font-family="sans-serif" font-size="14" lengthAdjust="spacing" textLength="92" x="917" y="410.1211">&#171;value object&#187;</text><text fill="#000000" font-family="sans-serif" font-size="14" lengthAdjust="spacing" textLength="70" x="928" y="428.7422">&#171;identifier&#187;</text><text fill="#000000" font-family="sans-serif" font-size="14" lengthAdjust="spacing" textLength="88" x="919" y="447.3633">JobReference</text><line style="stroke:#181818;stroke-width:0.5;" x1="889" x2="1011" y1="455.877" y2="455.877"/><line style="stroke:#181818;stroke-width:0.5;" x1="889" x2="1011" y1="463.877" y2="463.877"/></g><!--link Plugin to PlugClass--><g id="link_Plugin_PlugClass"><path codeLine="34" d="M498.8,125.4037 C482.05,158.9137 461.264,200.4875 446.014,230.9775 " fill="none" id="Plugin-to-PlugClass" style="stroke:#181818;stroke-width:1.0;"/><polygon fill="#181818" points="443.33,236.3437,450.9335,230.0837,445.5667,231.8718,443.7785,226.505,443.33,236.3437" style="stroke:#181818;stroke-width:1.0;"/><text fill="#000000" font-family="sans-serif" font-size="13" lengthAdjust="spacing" textLength="48" x="483" y="170.042">includes</text><text fill="#000000" font-family="sans-serif" font-size="13" lengthAdjust="spacing" textLength="7" x="488.3191" y="146.791">1</text><text fill="#000000" font-family="sans-serif" font-size="13" lengthAdjust="spacing" textLength="7" x="438.7699" y="225.092">1</text></g><!--link Plugin to JarFile--><g id="link_Plugin_JarFile"><path codeLine="35" d="M539.42,125.4037 C556.36,158.9137 577.3722,200.4995 592.7922,230.9895 " fill="none" id="Plugin-to-JarFile" style="stroke:#181818;stroke-width:1.0;"/><polygon fill="#181818" points="595.5,236.3437,595.0077,226.5071,593.2435,231.8818,587.8688,230.1176,595.5,236.3437" style="stroke:#181818;stroke-width:1.0;"/><text fill="#000000" font-family="sans-serif" font-size="13" lengthAdjust="spacing" textLength="48" x="563" y="170.042">includes</text><text fill="#000000" font-family="sans-serif" font-size="13" lengthAdjust="spacing" textLength="7" x="534.9051" y="146.791">1</text><text fill="#000000" font-family="sans-serif" font-size="13" lengthAdjust="spacing" textLength="7" x="584.5813" y="225.092">1</text></g><!--link Plugin to PlugDesc--><g id="link_Plugin_PlugDesc"><path codeLine="36" d="M560.12,103.7137 C596.42,121.2337 649.81,149.5337 691,182.0137 C711.25,197.9837 727.1112,214.6645 741.8012,231.9245 " fill="none" id="Plugin-to-PlugDesc" style="stroke:#181818;stroke-width:1.0;"/><polygon fill="#181818" points="745.69,236.4937,742.9029,227.0474,742.4493,232.686,736.8107,232.2325,745.69,236.4937" style="stroke:#181818;stroke-width:1.0;"/><text fill="#000000" font-family="sans-serif" font-size="13" lengthAdjust="spacing" textLength="48" x="679" y="170.042">includes</text><text fill="#000000" font-family="sans-serif" font-size="13" lengthAdjust="spacing" textLength="7" x="568.0679" y="122.8032">1</text><text fill="#000000" font-family="sans-serif" font-size="13" lengthAdjust="spacing" textLength="7" x="732.9542" y="225.2729">1</text></g><!--link Plugin to PlugID--><g id="link_Plugin_PlugID"><path codeLine="37" d="M477.9,88.8637 C408.78,96.8837 266.82,120.1037 165,182.0137 C145.95,193.5937 132.4038,206.3573 118.7038,222.3473 " fill="none" id="Plugin-to-PlugID" style="stroke:#181818;stroke-width:1.0;"/><polygon fill="#181818" points="114.8,226.9037,123.6933,222.6717,118.0532,223.1067,117.6182,217.4666,114.8,226.9037" style="stroke:#181818;stroke-width:1.0;"/><text fill="#000000" font-family="sans-serif" font-size="13" lengthAdjust="spacing" textLength="69" x="210" y="170.042">identified by</text><text fill="#000000" font-family="sans-serif" font-size="13" lengthAdjust="spacing" textLength="7" x="462.9556" y="85.2799">1</text><text fill="#000000" font-family="sans-serif" font-size="13" lengthAdjust="spacing" textLength="7" x="112.1559" y="215.7508">1</text></g><!--link Plugin to PlugType--><g id="link_Plugin_PlugType"><path codeLine="38" d="M477.75,100.4237 C436.52,116.9637 372.46,145.7937 324,182.0137 C303.18,197.5737 287.1304,214.4321 272.5204,231.8921 " fill="none" id="Plugin-to-PlugType" style="stroke:#181818;stroke-width:1.0;"/><polygon fill="#181818" points="268.67,236.4937,277.5133,232.1583,271.8787,232.6591,271.378,227.0244,268.67,236.4937" style="stroke:#181818;stroke-width:1.0;"/><text fill="#000000" font-family="sans-serif" font-size="13" lengthAdjust="spacing" textLength="32" x="365" y="170.042">has a</text><text fill="#000000" font-family="sans-serif" font-size="13" lengthAdjust="spacing" textLength="7" x="463.0586" y="118.7702">1</text><text fill="#000000" font-family="sans-serif" font-size="13" lengthAdjust="spacing" textLength="7" x="265.8301" y="225.2729">1</text></g><!--reverse link Plugin to JobOpening--><g id="link_Plugin_JobOpening"><path codeLine="39" d="M566.0623,92.3456 C630.5723,103.4956 752.14,129.5737 848,182.0137 C869.54,193.7937 890.5,210.9537 907.47,226.7737 " fill="none" id="Plugin-backto-JobOpening" style="stroke:#181818;stroke-width:1.0;"/><polygon fill="#181818" points="560.15,91.3237,568.3372,96.7981,565.0769,92.1753,569.6998,88.915,560.15,91.3237" style="stroke:#181818;stroke-width:1.0;"/><text fill="#000000" font-family="sans-serif" font-size="13" lengthAdjust="spacing" textLength="48" x="832" y="170.042">includes</text><text fill="#000000" font-family="sans-serif" font-size="13" lengthAdjust="spacing" textLength="22" x="568.1355" y="88.2025">0..2</text><text fill="#000000" font-family="sans-serif" font-size="13" lengthAdjust="spacing" textLength="7" x="893.5088" y="215.5992">1</text></g><!--link JobOpening to JobReference--><g id="link_JobOpening_JobReference"><path codeLine="42" d="M947,309.2237 C947.61,333.8137 948.2412,359.1655 948.8512,383.7555 " fill="none" id="JobOpening-to-JobReference" style="stroke:#181818;stroke-width:1.0;"/><polygon fill="#181818" points="949,389.7537,952.7756,380.6572,948.876,384.7552,944.778,380.8556,949,389.7537" style="stroke:#181818;stroke-width:1.0;"/><text fill="#000000" font-family="sans-serif" font-size="13" lengthAdjust="spacing" textLength="48" x="949" y="356.042">includes</text><text fill="#000000" font-family="sans-serif" font-size="13" lengthAdjust="spacing" textLength="7" x="939.6172" y="330.8966">1</text><text fill="#000000" font-family="sans-serif" font-size="13" lengthAdjust="spacing" textLength="7" x="941.2828" y="378.8856">1</text></g><!--SRC=[bPA_QiCm4CPtFSNXfPEJjcCeXT9GIA1_A1sxoF95KIjBHfOB8UI9yWZT_6ILR5csIOV4YwJpx_lkTAUhhRLbjPZFIqcLhGivOxgOCqchAiq5vOOMX9IKVLEEaBp9cWi53vmRvDHYiYVWlXO7I9gZqTeslv-gEQAomkxylXCbG2lejfteC98wvG-LDOBElf051v5xZur0CxYiOYpwhPPd-NNwZrs9KUaF5sYVgL2F7dcXnM3IHivoMLFp92H6TJYVfLrYnOmehT138tsi5n_8Q4fhdS5hYKeeFXcL-oP9JeS5hagT1MrNP3pkISX5BXkSStZ73HfK37lB6EZhRoyG7ifD0cbwxvVONrY0K4pMELQdLEZZAGFkhsFyqlVhVmW25TwJX_ehv93jfYaZw9-FGxVkIZIQNSzcjmdSfMcB3TqR9oPa5Ezg373ionGdVm00]--></g></svg>