<?xml version="1.0" encoding="us-ascii" standalone="no"?><svg xmlns="http://www.w3.org/2000/svg" xmlns:xlink="http://www.w3.org/1999/xlink" contentStyleType="text/css" height="906px" preserveAspectRatio="none" style="width:1654px;height:906px;background:#FFFFFF;" version="1.1" viewBox="0 0 1654 906" width="1654px" zoomAndPan="magnify"><defs/><g><rect fill="#FFFFFF" height="721.0625" style="stroke:#181818;stroke-width:1.0;" width="10" x="76.5" y="93.6211"/><rect fill="#FFFFFF" height="486.0254" style="stroke:#181818;stroke-width:1.0;" width="10" x="373.5" y="116.9121"/><rect fill="#FFFFFF" height="138.1641" style="stroke:#181818;stroke-width:1.0;" width="10" x="373.5" y="660.5195"/><rect fill="#FFFFFF" height="344.2012" style="stroke:#181818;stroke-width:1.0;" width="10" x="645.5" y="227.4453"/><rect fill="#FFFFFF" height="75.582" style="stroke:#181818;stroke-width:1.0;" width="10" x="645.5" y="691.8105"/><rect fill="#FFFFFF" height="62.582" style="stroke:#181818;stroke-width:1.0;" width="10" x="939.5" y="258.7363"/><rect fill="#FFFFFF" height="125.1641" style="stroke:#181818;stroke-width:1.0;" width="10" x="1225" y="352.6094"/><rect fill="#FFFFFF" height="62.582" style="stroke:#181818;stroke-width:1.0;" width="10" x="1404" y="383.9004"/><rect fill="#FFFFFF" height="31.291" style="stroke:#181818;stroke-width:1.0;" width="10" x="1562" y="509.0645"/><rect fill="none" height="188.7461" style="stroke:#000000;stroke-width:1.5;" width="934.5" x="10" y="617.9375"/><line style="stroke:#181818;stroke-width:0.5;stroke-dasharray:5.0,5.0;" x1="81" x2="81" y1="83.6211" y2="823.6836"/><line style="stroke:#181818;stroke-width:0.5;stroke-dasharray:5.0,5.0;" x1="378" x2="378" y1="83.6211" y2="823.6836"/><line style="stroke:#181818;stroke-width:0.5;stroke-dasharray:5.0,5.0;" x1="650" x2="650" y1="174.5332" y2="823.6836"/><line style="stroke:#181818;stroke-width:0.5;stroke-dasharray:5.0,5.0;" x1="944" x2="944" y1="83.6211" y2="823.6836"/><line style="stroke:#181818;stroke-width:0.5;stroke-dasharray:5.0,5.0;" x1="1078" x2="1078" y1="83.6211" y2="823.6836"/><line style="stroke:#181818;stroke-width:0.5;stroke-dasharray:5.0,5.0;" x1="1230" x2="1230" y1="83.6211" y2="823.6836"/><line style="stroke:#181818;stroke-width:0.5;stroke-dasharray:5.0,5.0;" x1="1409" x2="1409" y1="83.6211" y2="823.6836"/><line style="stroke:#181818;stroke-width:0.5;stroke-dasharray:5.0,5.0;" x1="1567" x2="1567" y1="83.6211" y2="823.6836"/><text fill="#000000" font-family="sans-serif" font-size="14" lengthAdjust="spacing" textLength="117" x="20" y="80.1074">CustomerManager</text><ellipse cx="81.5" cy="13.5" fill="#E3E3E3" rx="8" ry="8" style="stroke:#181818;stroke-width:0.5;"/><path d="M81.5,21.5 L81.5,48.5 M68.5,29.5 L94.5,29.5 M81.5,48.5 L68.5,63.5 M81.5,48.5 L94.5,63.5 " fill="none" style="stroke:#181818;stroke-width:0.5;"/><text fill="#000000" font-family="sans-serif" font-size="14" lengthAdjust="spacing" textLength="117" x="20" y="837.791">CustomerManager</text><ellipse cx="81.5" cy="849.8047" fill="#E3E3E3" rx="8" ry="8" style="stroke:#181818;stroke-width:0.5;"/><path d="M81.5,857.8047 L81.5,884.8047 M68.5,865.8047 L94.5,865.8047 M81.5,884.8047 L68.5,899.8047 M81.5,884.8047 L94.5,899.8047 " fill="none" style="stroke:#181818;stroke-width:0.5;"/><rect fill="#E3E3E3" height="51.2422" rx="2.5" ry="2.5" style="stroke:#181818;stroke-width:0.5;" width="183" x="287" y="31.3789"/><text fill="#000000" font-family="sans-serif" font-size="14" font-style="italic" lengthAdjust="spacing" textLength="95" x="331" y="53.4863">&#171;presentation&#187;</text><text fill="#000000" font-family="sans-serif" font-size="14" lengthAdjust="spacing" textLength="169" x="294" y="72.1074">:GenerateInterviewModelUI</text><rect fill="#E3E3E3" height="51.2422" rx="2.5" ry="2.5" style="stroke:#181818;stroke-width:0.5;" width="183" x="287" y="822.6836"/><text fill="#000000" font-family="sans-serif" font-size="14" font-style="italic" lengthAdjust="spacing" textLength="95" x="331" y="844.791">&#171;presentation&#187;</text><text fill="#000000" font-family="sans-serif" font-size="14" lengthAdjust="spacing" textLength="169" x="294" y="863.4121">:GenerateInterviewModelUI</text><text fill="#000000" font-family="sans-serif" font-size="14" font-style="italic" lengthAdjust="spacing" textLength="84" x="605.5" y="837.791">&#171;application&#187;</text><text fill="#000000" font-family="sans-serif" font-size="14" lengthAdjust="spacing" textLength="219" x="538" y="856.4121">:GenerateInterviewModelController</text><ellipse cx="650.5" cy="875.9258" fill="#E3E3E3" rx="12" ry="12" style="stroke:#181818;stroke-width:0.5;"/><polygon fill="#181818" points="646.5,863.9258,652.5,858.9258,650.5,863.9258,652.5,868.9258,646.5,863.9258" style="stroke:#181818;stroke-width:1.0;"/><rect fill="#E3E3E3" height="51.2422" rx="2.5" ry="2.5" style="stroke:#181818;stroke-width:0.5;" width="101" x="894" y="31.3789"/><text fill="#000000" font-family="sans-serif" font-size="14" font-style="italic" lengthAdjust="spacing" textLength="84" x="902.5" y="53.4863">&#171;application&#187;</text><text fill="#000000" font-family="sans-serif" font-size="14" lengthAdjust="spacing" textLength="87" x="901" y="72.1074">AuthzRegistry</text><rect fill="#E3E3E3" height="51.2422" rx="2.5" ry="2.5" style="stroke:#181818;stroke-width:0.5;" width="101" x="894" y="822.6836"/><text fill="#000000" font-family="sans-serif" font-size="14" font-style="italic" lengthAdjust="spacing" textLength="84" x="902.5" y="844.791">&#171;application&#187;</text><text fill="#000000" font-family="sans-serif" font-size="14" lengthAdjust="spacing" textLength="87" x="901" y="863.4121">AuthzRegistry</text><rect fill="#E3E3E3" height="51.2422" rx="2.5" ry="2.5" style="stroke:#181818;stroke-width:0.5;" width="147" x="1005" y="31.3789"/><text fill="#000000" font-family="sans-serif" font-size="14" font-style="italic" lengthAdjust="spacing" textLength="84" x="1036.5" y="53.4863">&#171;application&#187;</text><text fill="#000000" font-family="sans-serif" font-size="14" lengthAdjust="spacing" textLength="133" x="1012" y="72.1074">:AuthorizationService</text><rect fill="#E3E3E3" height="51.2422" rx="2.5" ry="2.5" style="stroke:#181818;stroke-width:0.5;" width="147" x="1005" y="822.6836"/><text fill="#000000" font-family="sans-serif" font-size="14" font-style="italic" lengthAdjust="spacing" textLength="84" x="1036.5" y="844.791">&#171;application&#187;</text><text fill="#000000" font-family="sans-serif" font-size="14" lengthAdjust="spacing" textLength="133" x="1012" y="863.4121">:AuthorizationService</text><rect fill="#E3E3E3" height="51.2422" rx="2.5" ry="2.5" style="stroke:#181818;stroke-width:0.5;" width="136" x="1162" y="31.3789"/><text fill="#000000" font-family="sans-serif" font-size="14" font-style="italic" lengthAdjust="spacing" textLength="89" x="1185.5" y="53.4863">&#171;persistence&#187;</text><text fill="#000000" font-family="sans-serif" font-size="14" lengthAdjust="spacing" textLength="122" x="1169" y="72.1074">PersistenceContext</text><rect fill="#E3E3E3" height="51.2422" rx="2.5" ry="2.5" style="stroke:#181818;stroke-width:0.5;" width="136" x="1162" y="822.6836"/><text fill="#000000" font-family="sans-serif" font-size="14" font-style="italic" lengthAdjust="spacing" textLength="89" x="1185.5" y="844.791">&#171;persistence&#187;</text><text fill="#000000" font-family="sans-serif" font-size="14" lengthAdjust="spacing" textLength="122" x="1169" y="863.4121">PersistenceContext</text><rect fill="#E3E3E3" height="51.2422" rx="2.5" ry="2.5" style="stroke:#181818;stroke-width:0.5;" width="134" x="1342" y="31.3789"/><text fill="#000000" font-family="sans-serif" font-size="14" font-style="italic" lengthAdjust="spacing" textLength="89" x="1364.5" y="53.4863">&#171;persistence&#187;</text><text fill="#000000" font-family="sans-serif" font-size="14" lengthAdjust="spacing" textLength="120" x="1349" y="72.1074">:RepositoryFactory</text><rect fill="#E3E3E3" height="51.2422" rx="2.5" ry="2.5" style="stroke:#181818;stroke-width:0.5;" width="134" x="1342" y="822.6836"/><text fill="#000000" font-family="sans-serif" font-size="14" font-style="italic" lengthAdjust="spacing" textLength="89" x="1364.5" y="844.791">&#171;persistence&#187;</text><text fill="#000000" font-family="sans-serif" font-size="14" lengthAdjust="spacing" textLength="120" x="1349" y="863.4121">:RepositoryFactory</text><rect fill="#E3E3E3" height="51.2422" rx="2.5" ry="2.5" style="stroke:#181818;stroke-width:0.5;" width="162" x="1486" y="31.3789"/><text fill="#000000" font-family="sans-serif" font-size="14" font-style="italic" lengthAdjust="spacing" textLength="79" x="1527.5" y="53.4863">&#171;repository&#187;</text><text fill="#000000" font-family="sans-serif" font-size="14" lengthAdjust="spacing" textLength="148" x="1493" y="72.1074">:JobOpeningRepository</text><rect fill="#E3E3E3" height="51.2422" rx="2.5" ry="2.5" style="stroke:#181818;stroke-width:0.5;" width="162" x="1486" y="822.6836"/><text fill="#000000" font-family="sans-serif" font-size="14" font-style="italic" lengthAdjust="spacing" textLength="79" x="1527.5" y="844.791">&#171;repository&#187;</text><text fill="#000000" font-family="sans-serif" font-size="14" lengthAdjust="spacing" textLength="148" x="1493" y="863.4121">:JobOpeningRepository</text><rect fill="#FFFFFF" height="721.0625" style="stroke:#181818;stroke-width:1.0;" width="10" x="76.5" y="93.6211"/><rect fill="#FFFFFF" height="486.0254" style="stroke:#181818;stroke-width:1.0;" width="10" x="373.5" y="116.9121"/><rect fill="#FFFFFF" height="138.1641" style="stroke:#181818;stroke-width:1.0;" width="10" x="373.5" y="660.5195"/><rect fill="#FFFFFF" height="344.2012" style="stroke:#181818;stroke-width:1.0;" width="10" x="645.5" y="227.4453"/><rect fill="#FFFFFF" height="75.582" style="stroke:#181818;stroke-width:1.0;" width="10" x="645.5" y="691.8105"/><rect fill="#FFFFFF" height="62.582" style="stroke:#181818;stroke-width:1.0;" width="10" x="939.5" y="258.7363"/><rect fill="#FFFFFF" height="125.1641" style="stroke:#181818;stroke-width:1.0;" width="10" x="1225" y="352.6094"/><rect fill="#FFFFFF" height="62.582" style="stroke:#181818;stroke-width:1.0;" width="10" x="1404" y="383.9004"/><rect fill="#FFFFFF" height="31.291" style="stroke:#181818;stroke-width:1.0;" width="10" x="1562" y="509.0645"/><polygon fill="#181818" points="361.5,112.9121,371.5,116.9121,361.5,120.9121,365.5,116.9121" style="stroke:#181818;stroke-width:1.0;"/><line style="stroke:#181818;stroke-width:1.0;" x1="86.5" x2="367.5" y1="116.9121" y2="116.9121"/><text fill="#000000" font-family="sans-serif" font-size="13" font-weight="bold" lengthAdjust="spacing" textLength="7" x="93.5" y="111.6494">1</text><text fill="#000000" font-family="sans-serif" font-size="13" lengthAdjust="spacing" textLength="202" x="104.5" y="111.6494">Generate Interview Model Template</text><polygon fill="#181818" points="526,144.2031,536,148.2031,526,152.2031,530,148.2031" style="stroke:#181818;stroke-width:1.0;"/><line style="stroke:#181818;stroke-width:1.0;" x1="383.5" x2="532" y1="148.2031" y2="148.2031"/><text fill="#000000" font-family="sans-serif" font-size="13" font-weight="bold" lengthAdjust="spacing" textLength="7" x="390.5" y="142.9404">2</text><text fill="#000000" font-family="sans-serif" font-size="13" lengthAdjust="spacing" textLength="36" x="401.5" y="142.9404">create</text><text fill="#000000" font-family="sans-serif" font-size="14" font-style="italic" lengthAdjust="spacing" textLength="84" x="605.5" y="172.0195">&#171;application&#187;</text><text fill="#000000" font-family="sans-serif" font-size="14" lengthAdjust="spacing" textLength="219" x="538" y="190.6406">:GenerateInterviewModelController</text><ellipse cx="650.5" cy="140.9121" fill="#E3E3E3" rx="12" ry="12" style="stroke:#181818;stroke-width:0.5;"/><polygon fill="#181818" points="646.5,128.9121,652.5,123.9121,650.5,128.9121,652.5,133.9121,646.5,128.9121" style="stroke:#181818;stroke-width:1.0;"/><polygon fill="#181818" points="633.5,223.4453,643.5,227.4453,633.5,231.4453,637.5,227.4453" style="stroke:#181818;stroke-width:1.0;"/><line style="stroke:#181818;stroke-width:1.0;" x1="383.5" x2="639.5" y1="227.4453" y2="227.4453"/><text fill="#000000" font-family="sans-serif" font-size="13" font-weight="bold" lengthAdjust="spacing" textLength="7" x="390.5" y="222.1826">3</text><text fill="#000000" font-family="sans-serif" font-size="13" lengthAdjust="spacing" textLength="96" x="401.5" y="222.1826">allJobOpenings()</text><polygon fill="#181818" points="927.5,254.7363,937.5,258.7363,927.5,262.7363,931.5,258.7363" style="stroke:#181818;stroke-width:1.0;"/><line style="stroke:#181818;stroke-width:1.0;" x1="655.5" x2="933.5" y1="258.7363" y2="258.7363"/><text fill="#000000" font-family="sans-serif" font-size="13" font-weight="bold" lengthAdjust="spacing" textLength="7" x="662.5" y="253.4736">4</text><text fill="#000000" font-family="sans-serif" font-size="13" lengthAdjust="spacing" textLength="124" x="673.5" y="253.4736">authorizationService()</text><polygon fill="#181818" points="1066.5,286.0273,1076.5,290.0273,1066.5,294.0273,1070.5,290.0273" style="stroke:#181818;stroke-width:1.0;"/><line style="stroke:#181818;stroke-width:1.0;" x1="949.5" x2="1072.5" y1="290.0273" y2="290.0273"/><text fill="#000000" font-family="sans-serif" font-size="13" font-weight="bold" lengthAdjust="spacing" textLength="7" x="956.5" y="284.7646">5</text><text fill="#000000" font-family="sans-serif" font-size="13" lengthAdjust="spacing" textLength="44" x="967.5" y="284.7646">create()</text><polygon fill="#181818" points="666.5,317.3184,656.5,321.3184,666.5,325.3184,662.5,321.3184" style="stroke:#181818;stroke-width:1.0;"/><line style="stroke:#181818;stroke-width:1.0;stroke-dasharray:2.0,2.0;" x1="660.5" x2="943.5" y1="321.3184" y2="321.3184"/><text fill="#000000" font-family="sans-serif" font-size="13" font-weight="bold" lengthAdjust="spacing" textLength="7" x="672.5" y="316.0557">6</text><text fill="#000000" font-family="sans-serif" font-size="13" lengthAdjust="spacing" textLength="32" x="683.5" y="316.0557">authz</text><polygon fill="#181818" points="1213,348.6094,1223,352.6094,1213,356.6094,1217,352.6094" style="stroke:#181818;stroke-width:1.0;"/><line style="stroke:#181818;stroke-width:1.0;" x1="655.5" x2="1219" y1="352.6094" y2="352.6094"/><text fill="#000000" font-family="sans-serif" font-size="13" font-weight="bold" lengthAdjust="spacing" textLength="7" x="662.5" y="347.3467">7</text><text fill="#000000" font-family="sans-serif" font-size="13" lengthAdjust="spacing" textLength="75" x="673.5" y="347.3467">repositories()</text><polygon fill="#181818" points="1392,379.9004,1402,383.9004,1392,387.9004,1396,383.9004" style="stroke:#181818;stroke-width:1.0;"/><line style="stroke:#181818;stroke-width:1.0;" x1="1235" x2="1398" y1="383.9004" y2="383.9004"/><text fill="#000000" font-family="sans-serif" font-size="13" font-weight="bold" lengthAdjust="spacing" textLength="7" x="1242" y="378.6377">8</text><text fill="#000000" font-family="sans-serif" font-size="13" lengthAdjust="spacing" textLength="80" x="1253" y="378.6377">jobOpenings()</text><polygon fill="#181818" points="1555,411.1914,1565,415.1914,1555,419.1914,1559,415.1914" style="stroke:#181818;stroke-width:1.0;"/><line style="stroke:#181818;stroke-width:1.0;" x1="1414" x2="1561" y1="415.1914" y2="415.1914"/><text fill="#000000" font-family="sans-serif" font-size="13" font-weight="bold" lengthAdjust="spacing" textLength="7" x="1421" y="409.9287">9</text><text fill="#000000" font-family="sans-serif" font-size="13" lengthAdjust="spacing" textLength="44" x="1432" y="409.9287">create()</text><polygon fill="#181818" points="1246,442.4824,1236,446.4824,1246,450.4824,1242,446.4824" style="stroke:#181818;stroke-width:1.0;"/><line style="stroke:#181818;stroke-width:1.0;stroke-dasharray:2.0,2.0;" x1="1240" x2="1408" y1="446.4824" y2="446.4824"/><text fill="#000000" font-family="sans-serif" font-size="13" font-weight="bold" lengthAdjust="spacing" textLength="14" x="1252" y="441.2197">10</text><text fill="#000000" font-family="sans-serif" font-size="13" lengthAdjust="spacing" textLength="127" x="1270" y="441.2197">jobOpeningRepository</text><polygon fill="#181818" points="666.5,473.7734,656.5,477.7734,666.5,481.7734,662.5,477.7734" style="stroke:#181818;stroke-width:1.0;"/><line style="stroke:#181818;stroke-width:1.0;stroke-dasharray:2.0,2.0;" x1="660.5" x2="1229" y1="477.7734" y2="477.7734"/><text fill="#000000" font-family="sans-serif" font-size="13" font-weight="bold" lengthAdjust="spacing" textLength="14" x="672.5" y="472.5107">11</text><text fill="#000000" font-family="sans-serif" font-size="13" lengthAdjust="spacing" textLength="127" x="690.5" y="472.5107">jobOpeningRepository</text><polygon fill="#181818" points="1550,505.0645,1560,509.0645,1550,513.0645,1554,509.0645" style="stroke:#181818;stroke-width:1.0;"/><line style="stroke:#181818;stroke-width:1.0;" x1="655.5" x2="1556" y1="509.0645" y2="509.0645"/><text fill="#000000" font-family="sans-serif" font-size="13" font-weight="bold" lengthAdjust="spacing" textLength="14" x="662.5" y="503.8018">12</text><text fill="#000000" font-family="sans-serif" font-size="13" lengthAdjust="spacing" textLength="80" x="680.5" y="503.8018">jobOpenings()</text><polygon fill="#181818" points="666.5,536.3555,656.5,540.3555,666.5,544.3555,662.5,540.3555" style="stroke:#181818;stroke-width:1.0;"/><line style="stroke:#181818;stroke-width:1.0;stroke-dasharray:2.0,2.0;" x1="660.5" x2="1566" y1="540.3555" y2="540.3555"/><text fill="#000000" font-family="sans-serif" font-size="13" font-weight="bold" lengthAdjust="spacing" textLength="14" x="672.5" y="535.0928">13</text><text fill="#000000" font-family="sans-serif" font-size="13" lengthAdjust="spacing" textLength="88" x="690.5" y="535.0928">allJobOpenings</text><polygon fill="#181818" points="394.5,567.6465,384.5,571.6465,394.5,575.6465,390.5,571.6465" style="stroke:#181818;stroke-width:1.0;"/><line style="stroke:#181818;stroke-width:1.0;stroke-dasharray:2.0,2.0;" x1="388.5" x2="649.5" y1="571.6465" y2="571.6465"/><text fill="#000000" font-family="sans-serif" font-size="13" font-weight="bold" lengthAdjust="spacing" textLength="14" x="400.5" y="566.3838">14</text><text fill="#000000" font-family="sans-serif" font-size="13" lengthAdjust="spacing" textLength="88" x="418.5" y="566.3838">allJobOpenings</text><polygon fill="#181818" points="97.5,598.9375,87.5,602.9375,97.5,606.9375,93.5,602.9375" style="stroke:#181818;stroke-width:1.0;"/><line style="stroke:#181818;stroke-width:1.0;stroke-dasharray:2.0,2.0;" x1="91.5" x2="377.5" y1="602.9375" y2="602.9375"/><text fill="#000000" font-family="sans-serif" font-size="13" font-weight="bold" lengthAdjust="spacing" textLength="14" x="103.5" y="597.6748">15</text><text fill="#000000" font-family="sans-serif" font-size="13" lengthAdjust="spacing" textLength="219" x="121.5" y="597.6748">Show the list of jobOpening to choose</text><path d="M10,617.9375 L71,617.9375 L71,627.2285 L61,637.2285 L10,637.2285 L10,617.9375 " fill="#EEEEEE" style="stroke:#000000;stroke-width:1.5;"/><rect fill="none" height="188.7461" style="stroke:#000000;stroke-width:1.5;" width="934.5" x="10" y="617.9375"/><text fill="#000000" font-family="sans-serif" font-size="13" font-weight="bold" lengthAdjust="spacing" textLength="16" x="25" y="632.9658">alt</text><text fill="#000000" font-family="sans-serif" font-size="11" font-weight="bold" lengthAdjust="spacing" textLength="64" x="86" y="631.8076">[option != 0]</text><polygon fill="#181818" points="361.5,656.5195,371.5,660.5195,361.5,664.5195,365.5,660.5195" style="stroke:#181818;stroke-width:1.0;"/><line style="stroke:#181818;stroke-width:1.0;" x1="86.5" x2="367.5" y1="660.5195" y2="660.5195"/><text fill="#000000" font-family="sans-serif" font-size="13" font-weight="bold" lengthAdjust="spacing" textLength="14" x="93.5" y="655.2568">16</text><text fill="#000000" font-family="sans-serif" font-size="13" lengthAdjust="spacing" textLength="124" x="111.5" y="655.2568">Choose a jobOpening</text><polygon fill="#181818" points="633.5,687.8105,643.5,691.8105,633.5,695.8105,637.5,691.8105" style="stroke:#181818;stroke-width:1.0;"/><line style="stroke:#181818;stroke-width:1.0;" x1="383.5" x2="639.5" y1="691.8105" y2="691.8105"/><text fill="#000000" font-family="sans-serif" font-size="13" font-weight="bold" lengthAdjust="spacing" textLength="14" x="390.5" y="686.5479">17</text><text fill="#000000" font-family="sans-serif" font-size="13" lengthAdjust="spacing" textLength="225" x="408.5" y="686.5479">generateInterviewTemplate(jobOpening)</text><line style="stroke:#181818;stroke-width:1.0;" x1="655.5" x2="697.5" y1="723.1016" y2="723.1016"/><line style="stroke:#181818;stroke-width:1.0;" x1="697.5" x2="697.5" y1="723.1016" y2="736.1016"/><line style="stroke:#181818;stroke-width:1.0;" x1="656.5" x2="697.5" y1="736.1016" y2="736.1016"/><polygon fill="#181818" points="666.5,732.1016,656.5,736.1016,666.5,740.1016,662.5,736.1016" style="stroke:#181818;stroke-width:1.0;"/><text fill="#000000" font-family="sans-serif" font-size="13" font-weight="bold" lengthAdjust="spacing" textLength="14" x="662.5" y="717.8389">18</text><text fill="#000000" font-family="sans-serif" font-size="13" lengthAdjust="spacing" textLength="252" x="680.5" y="717.8389">Generate the file and write the template in it</text><polygon fill="#181818" points="394.5,763.3926,384.5,767.3926,394.5,771.3926,390.5,767.3926" style="stroke:#181818;stroke-width:1.0;"/><line style="stroke:#181818;stroke-width:1.0;stroke-dasharray:2.0,2.0;" x1="388.5" x2="649.5" y1="767.3926" y2="767.3926"/><text fill="#000000" font-family="sans-serif" font-size="13" font-weight="bold" lengthAdjust="spacing" textLength="14" x="400.5" y="762.1299">19</text><text fill="#000000" font-family="sans-serif" font-size="13" lengthAdjust="spacing" textLength="42" x="418.5" y="762.1299">sucess</text><polygon fill="#181818" points="97.5,794.6836,87.5,798.6836,97.5,802.6836,93.5,798.6836" style="stroke:#181818;stroke-width:1.0;"/><line style="stroke:#181818;stroke-width:1.0;stroke-dasharray:2.0,2.0;" x1="91.5" x2="377.5" y1="798.6836" y2="798.6836"/><text fill="#000000" font-family="sans-serif" font-size="13" font-weight="bold" lengthAdjust="spacing" textLength="14" x="103.5" y="793.4209">20</text><text fill="#000000" font-family="sans-serif" font-size="13" lengthAdjust="spacing" textLength="245" x="121.5" y="793.4209">Show the success message of file created</text><!--SRC=[ZLNBRjim4BppAxQvD0tWfcSX5M04QEi2GGix_W26MbjC958bgRZ9rtT9ooBrY5CU16aVixCx9FMnTAwnsVLrKt7bshhwB7HzRV5FYqhWef1yRtZDc7sIgk7q2hLMMfH6rmZEj9Xu6YwU-1utxgL2C2WSL_ig3R0bB_H1gZtiU6MHCTuwhThw0Gsz2wSDtBRM4RIvuugW370BI-zWXE2aa0snX8liEoeqtE5AEJJF4Wztki1gkxhm2TiLtDmq1YqgnvtKAi-PqCePNRsPUdlqLsW2HFmaADuqbHGdf06HPUlArpNkfNNc9MGkrt0-9VCvsiZNuDru3WAFgTlx7vlpoR_HMAhbjV4KyQyBcOdPjnw_9iNNs6WhQQ0ltyB0ZwGdrdTGVkg7NmqgKZ9cZe08mVGV1104biyq-4vGe1NUO95xoJ8uAGEzD12qWNkiQNiw33b-zL3R5GlB6xSh0eh2NLqHf33eyuw9em1oywgAhTZBJsm07aEx2hIYRP6Jr0GnesO7b40jrvrbkQQyeFE970LtwEHRv4D-VdiTdGMcOFqa1eIIRP3rmvTeUpuffIGuUXFZ8f_iYknnCgmXvYGZnanSANxMZ-9C_A0_6ixZp2QC-Scyph1A-ntDVXO-3Zx1JoV9_gi-crCl6GVC3te6aKtdDMXalCVFyvibjiYtgrcO16BkgFZpHflTTvp1fjG7S2L2HPC2lKiw1AT1b5hJ3o51z2Sxz5nHUECF5tpu2bzwyE7LSHloWIUmR7fHH5wZUs0__YUSRfpBY9VipP4QQVEZcAJAe6PosVcXx2JzCRagu61aPt8T0v0Af6Di33qHoBO2hHqJ6Att91kjMGMfaAy4DJte7-t53FoFPxXWxnKcARm5LH6kxdy0]--></g></svg>