<?xml version="1.0" encoding="us-ascii" standalone="no"?><svg xmlns="http://www.w3.org/2000/svg" xmlns:xlink="http://www.w3.org/1999/xlink" contentStyleType="text/css" height="1960px" preserveAspectRatio="none" style="width:2340px;height:1960px;background:#FFFFFF;" version="1.1" viewBox="0 0 2340 1960" width="2340px" zoomAndPan="magnify"><defs/><g><text fill="#000000" font-family="sans-serif" font-size="14" font-weight="bold" lengthAdjust="spacing" textLength="551" x="887.5" y="25.1074">"US1012 - Generate Interview Model Template for Job Opening" Class Diagram</text><!--class GenerateInterviewModelController--><g id="elem_GenerateInterviewModelController"><rect codeLine="4" fill="#F1F1F1" height="103.8633" id="GenerateInterviewModelController" rx="2.5" ry="2.5" style="stroke:#181818;stroke-width:0.5;" width="360" x="1272" y="155.6211"/><ellipse cx="1340.25" cy="171.6211" fill="#ADD1B2" rx="11" ry="11" style="stroke:#181818;stroke-width:1.0;"/><path d="M1343.0156,167.4961 Q1343.1719,167.2773 1343.3594,167.168 Q1343.5469,167.0586 1343.7656,167.0586 Q1344.1406,167.0586 1344.375,167.3242 Q1344.6094,167.5742 1344.6094,168.1836 L1344.6094,169.6367 Q1344.6094,170.2461 1344.375,170.5117 Q1344.1406,170.7773 1343.7656,170.7773 Q1343.4219,170.7773 1343.2188,170.5742 Q1343.0156,170.3867 1342.9063,169.8711 Q1342.8594,169.5117 1342.6719,169.3242 Q1342.3438,168.9492 1341.7344,168.7305 Q1341.125,168.5117 1340.5,168.5117 Q1339.7344,168.5117 1339.0938,168.8398 Q1338.4688,169.168 1337.9688,169.918 Q1337.4844,170.668 1337.4844,171.6992 L1337.4844,172.793 Q1337.4844,174.0273 1338.375,174.8555 Q1339.2656,175.668 1340.8594,175.668 Q1341.7969,175.668 1342.4531,175.418 Q1342.8438,175.2617 1343.2656,174.8242 Q1343.5313,174.5586 1343.6719,174.4805 Q1343.8281,174.4023 1344.0313,174.4023 Q1344.3594,174.4023 1344.6094,174.668 Q1344.875,174.918 1344.875,175.2617 Q1344.875,175.6055 1344.5313,176.0117 Q1344.0313,176.5898 1343.2344,176.918 Q1342.1563,177.3711 1340.8594,177.3711 Q1339.3438,177.3711 1338.1406,176.7461 Q1337.1563,176.2461 1336.4688,175.1836 Q1335.7813,174.1055 1335.7813,172.8242 L1335.7813,171.668 Q1335.7813,170.3398 1336.3906,169.1992 Q1337.0156,168.043 1338.1094,167.4336 Q1339.2031,166.8086 1340.4375,166.8086 Q1341.1719,166.8086 1341.8125,166.9805 Q1342.4688,167.1367 1343.0156,167.4961 Z " fill="#000000"/><text fill="#000000" font-family="sans-serif" font-size="14" lengthAdjust="spacing" textLength="215" x="1360.75" y="177.418">GenerateInterviewModelController</text><line style="stroke:#181818;stroke-width:0.5;" x1="1273" x2="1631" y1="187.6211" y2="187.6211"/><line style="stroke:#181818;stroke-width:0.5;" x1="1273" x2="1631" y1="195.6211" y2="195.6211"/><ellipse cx="1283" cy="210.4316" fill="#84BE84" rx="3" ry="3" style="stroke:#038048;stroke-width:1.0;"/><text fill="#000000" font-family="sans-serif" font-size="14" lengthAdjust="spacing" textLength="258" x="1292" y="214.7285">allJobOpenings() : Iterable&lt;JobOpening&gt;</text><ellipse cx="1283" cy="229.0527" fill="#84BE84" rx="3" ry="3" style="stroke:#038048;stroke-width:1.0;"/><text fill="#000000" font-family="sans-serif" font-size="14" lengthAdjust="spacing" textLength="231" x="1292" y="233.3496">allInterviewModel() : Iterable&lt;Plugin&gt;</text><ellipse cx="1283" cy="247.6738" fill="#84BE84" rx="3" ry="3" style="stroke:#038048;stroke-width:1.0;"/><text fill="#000000" font-family="sans-serif" font-size="14" lengthAdjust="spacing" textLength="334" x="1292" y="251.9707">generateInterviewTemplate(JobOpening jobOpening)</text></g><!--class GenerateInterviewModelUI--><g id="elem_GenerateInterviewModelUI"><rect codeLine="10" fill="#F1F1F1" height="48" id="GenerateInterviewModelUI" rx="2.5" ry="2.5" style="stroke:#181818;stroke-width:0.5;" width="197" x="1353.5" y="46.6211"/><ellipse cx="1368.5" cy="62.6211" fill="#ADD1B2" rx="11" ry="11" style="stroke:#181818;stroke-width:1.0;"/><path d="M1371.2656,58.4961 Q1371.4219,58.2773 1371.6094,58.168 Q1371.7969,58.0586 1372.0156,58.0586 Q1372.3906,58.0586 1372.625,58.3242 Q1372.8594,58.5742 1372.8594,59.1836 L1372.8594,60.6367 Q1372.8594,61.2461 1372.625,61.5117 Q1372.3906,61.7773 1372.0156,61.7773 Q1371.6719,61.7773 1371.4688,61.5742 Q1371.2656,61.3867 1371.1563,60.8711 Q1371.1094,60.5117 1370.9219,60.3242 Q1370.5938,59.9492 1369.9844,59.7305 Q1369.375,59.5117 1368.75,59.5117 Q1367.9844,59.5117 1367.3438,59.8398 Q1366.7188,60.168 1366.2188,60.918 Q1365.7344,61.668 1365.7344,62.6992 L1365.7344,63.793 Q1365.7344,65.0273 1366.625,65.8555 Q1367.5156,66.668 1369.1094,66.668 Q1370.0469,66.668 1370.7031,66.418 Q1371.0938,66.2617 1371.5156,65.8242 Q1371.7813,65.5586 1371.9219,65.4805 Q1372.0781,65.4023 1372.2813,65.4023 Q1372.6094,65.4023 1372.8594,65.668 Q1373.125,65.918 1373.125,66.2617 Q1373.125,66.6055 1372.7813,67.0117 Q1372.2813,67.5898 1371.4844,67.918 Q1370.4063,68.3711 1369.1094,68.3711 Q1367.5938,68.3711 1366.3906,67.7461 Q1365.4063,67.2461 1364.7188,66.1836 Q1364.0313,65.1055 1364.0313,63.8242 L1364.0313,62.668 Q1364.0313,61.3398 1364.6406,60.1992 Q1365.2656,59.043 1366.3594,58.4336 Q1367.4531,57.8086 1368.6875,57.8086 Q1369.4219,57.8086 1370.0625,57.9805 Q1370.7188,58.1367 1371.2656,58.4961 Z " fill="#000000"/><text fill="#000000" font-family="sans-serif" font-size="14" lengthAdjust="spacing" textLength="165" x="1382.5" y="68.418">GenerateInterviewModelUI</text><line style="stroke:#181818;stroke-width:0.5;" x1="1354.5" x2="1549.5" y1="78.6211" y2="78.6211"/><line style="stroke:#181818;stroke-width:0.5;" x1="1354.5" x2="1549.5" y1="86.6211" y2="86.6211"/></g><!--class PluginMainClassName--><g id="elem_PluginMainClassName"><rect codeLine="13" fill="#F1F1F1" height="85.2422" id="PluginMainClassName" rx="2.5" ry="2.5" style="stroke:#181818;stroke-width:0.5;" width="172" x="421" y="1647.1211"/><ellipse cx="436" cy="1663.1211" fill="#ADD1B2" rx="11" ry="11" style="stroke:#181818;stroke-width:1.0;"/><path d="M438.7656,1658.9961 Q438.9219,1658.7773 439.1094,1658.668 Q439.2969,1658.5586 439.5156,1658.5586 Q439.8906,1658.5586 440.125,1658.8242 Q440.3594,1659.0742 440.3594,1659.6836 L440.3594,1661.1367 Q440.3594,1661.7461 440.125,1662.0117 Q439.8906,1662.2773 439.5156,1662.2773 Q439.1719,1662.2773 438.9688,1662.0742 Q438.7656,1661.8867 438.6563,1661.3711 Q438.6094,1661.0117 438.4219,1660.8242 Q438.0938,1660.4492 437.4844,1660.2305 Q436.875,1660.0117 436.25,1660.0117 Q435.4844,1660.0117 434.8438,1660.3398 Q434.2188,1660.668 433.7188,1661.418 Q433.2344,1662.168 433.2344,1663.1992 L433.2344,1664.293 Q433.2344,1665.5273 434.125,1666.3555 Q435.0156,1667.168 436.6094,1667.168 Q437.5469,1667.168 438.2031,1666.918 Q438.5938,1666.7617 439.0156,1666.3242 Q439.2813,1666.0586 439.4219,1665.9805 Q439.5781,1665.9023 439.7813,1665.9023 Q440.1094,1665.9023 440.3594,1666.168 Q440.625,1666.418 440.625,1666.7617 Q440.625,1667.1055 440.2813,1667.5117 Q439.7813,1668.0898 438.9844,1668.418 Q437.9063,1668.8711 436.6094,1668.8711 Q435.0938,1668.8711 433.8906,1668.2461 Q432.9063,1667.7461 432.2188,1666.6836 Q431.5313,1665.6055 431.5313,1664.3242 L431.5313,1663.168 Q431.5313,1661.8398 432.1406,1660.6992 Q432.7656,1659.543 433.8594,1658.9336 Q434.9531,1658.3086 436.1875,1658.3086 Q436.9219,1658.3086 437.5625,1658.4805 Q438.2188,1658.6367 438.7656,1658.9961 Z " fill="#000000"/><text fill="#000000" font-family="sans-serif" font-size="14" lengthAdjust="spacing" textLength="140" x="450" y="1668.918">PluginMainClassName</text><line style="stroke:#181818;stroke-width:0.5;" x1="422" x2="592" y1="1679.1211" y2="1679.1211"/><rect fill="none" height="6" style="stroke:#C82930;stroke-width:1.0;" width="6" x="429" y="1690.9316"/><text fill="#000000" font-family="sans-serif" font-size="14" lengthAdjust="spacing" textLength="84" x="441" y="1698.2285">name : String</text><line style="stroke:#181818;stroke-width:0.5;" x1="422" x2="592" y1="1705.7422" y2="1705.7422"/><ellipse cx="432" cy="1720.5527" fill="#84BE84" rx="3" ry="3" style="stroke:#038048;stroke-width:1.0;"/><text fill="#000000" font-family="sans-serif" font-size="14" lengthAdjust="spacing" textLength="94" x="441" y="1724.8496">name() : String</text></g><!--class Plugin--><g id="elem_Plugin"><rect codeLine="18" fill="#F1F1F1" height="234.2109" id="Plugin" rx="2.5" ry="2.5" style="stroke:#181818;stroke-width:0.5;" width="327" x="438.5" y="1314.6211"/><ellipse cx="578.25" cy="1330.6211" fill="#ADD1B2" rx="11" ry="11" style="stroke:#181818;stroke-width:1.0;"/><path d="M581.0156,1326.4961 Q581.1719,1326.2773 581.3594,1326.168 Q581.5469,1326.0586 581.7656,1326.0586 Q582.1406,1326.0586 582.375,1326.3242 Q582.6094,1326.5742 582.6094,1327.1836 L582.6094,1328.6367 Q582.6094,1329.2461 582.375,1329.5117 Q582.1406,1329.7773 581.7656,1329.7773 Q581.4219,1329.7773 581.2188,1329.5742 Q581.0156,1329.3867 580.9063,1328.8711 Q580.8594,1328.5117 580.6719,1328.3242 Q580.3438,1327.9492 579.7344,1327.7305 Q579.125,1327.5117 578.5,1327.5117 Q577.7344,1327.5117 577.0938,1327.8398 Q576.4688,1328.168 575.9688,1328.918 Q575.4844,1329.668 575.4844,1330.6992 L575.4844,1331.793 Q575.4844,1333.0273 576.375,1333.8555 Q577.2656,1334.668 578.8594,1334.668 Q579.7969,1334.668 580.4531,1334.418 Q580.8438,1334.2617 581.2656,1333.8242 Q581.5313,1333.5586 581.6719,1333.4805 Q581.8281,1333.4023 582.0313,1333.4023 Q582.3594,1333.4023 582.6094,1333.668 Q582.875,1333.918 582.875,1334.2617 Q582.875,1334.6055 582.5313,1335.0117 Q582.0313,1335.5898 581.2344,1335.918 Q580.1563,1336.3711 578.8594,1336.3711 Q577.3438,1336.3711 576.1406,1335.7461 Q575.1563,1335.2461 574.4688,1334.1836 Q573.7813,1333.1055 573.7813,1331.8242 L573.7813,1330.668 Q573.7813,1329.3398 574.3906,1328.1992 Q575.0156,1327.043 576.1094,1326.4336 Q577.2031,1325.8086 578.4375,1325.8086 Q579.1719,1325.8086 579.8125,1325.9805 Q580.4688,1326.1367 581.0156,1326.4961 Z " fill="#000000"/><text fill="#000000" font-family="sans-serif" font-size="14" lengthAdjust="spacing" textLength="39" x="598.75" y="1336.418">Plugin</text><line style="stroke:#181818;stroke-width:0.5;" x1="439.5" x2="764.5" y1="1346.6211" y2="1346.6211"/><rect fill="none" height="6" style="stroke:#C82930;stroke-width:1.0;" width="6" x="446.5" y="1358.4316"/><text fill="#000000" font-family="sans-serif" font-size="14" lengthAdjust="spacing" textLength="156" x="458.5" y="1365.7285">pluginID : PluginIdentifier</text><rect fill="none" height="6" style="stroke:#C82930;stroke-width:1.0;" width="6" x="446.5" y="1377.0527"/><text fill="#000000" font-family="sans-serif" font-size="14" lengthAdjust="spacing" textLength="153" x="458.5" y="1384.3496">pluginType : PluginType</text><rect fill="none" height="6" style="stroke:#C82930;stroke-width:1.0;" width="6" x="446.5" y="1395.6738"/><text fill="#000000" font-family="sans-serif" font-size="14" lengthAdjust="spacing" textLength="152" x="458.5" y="1402.9707">description : Description</text><rect fill="none" height="6" style="stroke:#C82930;stroke-width:1.0;" width="6" x="446.5" y="1414.2949"/><text fill="#000000" font-family="sans-serif" font-size="14" lengthAdjust="spacing" textLength="291" x="458.5" y="1421.5918">pluginMainClassName : PluginMainClassName</text><rect fill="none" height="6" style="stroke:#C82930;stroke-width:1.0;" width="6" x="446.5" y="1432.916"/><text fill="#000000" font-family="sans-serif" font-size="14" lengthAdjust="spacing" textLength="165" x="458.5" y="1440.2129">jarFileName : JarFileName</text><line style="stroke:#181818;stroke-width:0.5;" x1="439.5" x2="764.5" y1="1447.7266" y2="1447.7266"/><ellipse cx="449.5" cy="1462.5371" fill="#84BE84" rx="3" ry="3" style="stroke:#038048;stroke-width:1.0;"/><text fill="#000000" font-family="sans-serif" font-size="14" lengthAdjust="spacing" textLength="160" x="458.5" y="1466.834">identity() : PluginIdentifier</text><ellipse cx="449.5" cy="1481.1582" fill="#84BE84" rx="3" ry="3" style="stroke:#038048;stroke-width:1.0;"/><text fill="#000000" font-family="sans-serif" font-size="14" lengthAdjust="spacing" textLength="163" x="458.5" y="1485.4551">pluginType() : PluginType</text><ellipse cx="449.5" cy="1499.7793" fill="#84BE84" rx="3" ry="3" style="stroke:#038048;stroke-width:1.0;"/><text fill="#000000" font-family="sans-serif" font-size="14" lengthAdjust="spacing" textLength="158" x="458.5" y="1504.0762">description() :Description</text><ellipse cx="449.5" cy="1518.4004" fill="#84BE84" rx="3" ry="3" style="stroke:#038048;stroke-width:1.0;"/><text fill="#000000" font-family="sans-serif" font-size="14" lengthAdjust="spacing" textLength="301" x="458.5" y="1522.6973">pluginMainClassName() : PluginMainClassName</text><ellipse cx="449.5" cy="1537.0215" fill="#84BE84" rx="3" ry="3" style="stroke:#038048;stroke-width:1.0;"/><text fill="#000000" font-family="sans-serif" font-size="14" lengthAdjust="spacing" textLength="175" x="458.5" y="1541.3184">jarFileName() : JarFileName</text></g><!--class JarFileName--><g id="elem_JarFileName"><rect codeLine="32" fill="#F1F1F1" height="66.6211" id="JarFileName" rx="2.5" ry="2.5" style="stroke:#181818;stroke-width:0.5;" width="110" x="276" y="1656.1211"/><ellipse cx="291" cy="1672.1211" fill="#ADD1B2" rx="11" ry="11" style="stroke:#181818;stroke-width:1.0;"/><path d="M293.7656,1667.9961 Q293.9219,1667.7773 294.1094,1667.668 Q294.2969,1667.5586 294.5156,1667.5586 Q294.8906,1667.5586 295.125,1667.8242 Q295.3594,1668.0742 295.3594,1668.6836 L295.3594,1670.1367 Q295.3594,1670.7461 295.125,1671.0117 Q294.8906,1671.2773 294.5156,1671.2773 Q294.1719,1671.2773 293.9688,1671.0742 Q293.7656,1670.8867 293.6563,1670.3711 Q293.6094,1670.0117 293.4219,1669.8242 Q293.0938,1669.4492 292.4844,1669.2305 Q291.875,1669.0117 291.25,1669.0117 Q290.4844,1669.0117 289.8438,1669.3398 Q289.2188,1669.668 288.7188,1670.418 Q288.2344,1671.168 288.2344,1672.1992 L288.2344,1673.293 Q288.2344,1674.5273 289.125,1675.3555 Q290.0156,1676.168 291.6094,1676.168 Q292.5469,1676.168 293.2031,1675.918 Q293.5938,1675.7617 294.0156,1675.3242 Q294.2813,1675.0586 294.4219,1674.9805 Q294.5781,1674.9023 294.7813,1674.9023 Q295.1094,1674.9023 295.3594,1675.168 Q295.625,1675.418 295.625,1675.7617 Q295.625,1676.1055 295.2813,1676.5117 Q294.7813,1677.0898 293.9844,1677.418 Q292.9063,1677.8711 291.6094,1677.8711 Q290.0938,1677.8711 288.8906,1677.2461 Q287.9063,1676.7461 287.2188,1675.6836 Q286.5313,1674.6055 286.5313,1673.3242 L286.5313,1672.168 Q286.5313,1670.8398 287.1406,1669.6992 Q287.7656,1668.543 288.8594,1667.9336 Q289.9531,1667.3086 291.1875,1667.3086 Q291.9219,1667.3086 292.5625,1667.4805 Q293.2188,1667.6367 293.7656,1667.9961 Z " fill="#000000"/><text fill="#000000" font-family="sans-serif" font-size="14" lengthAdjust="spacing" textLength="78" x="305" y="1677.918">JarFileName</text><line style="stroke:#181818;stroke-width:0.5;" x1="277" x2="385" y1="1688.1211" y2="1688.1211"/><rect fill="none" height="6" style="stroke:#C82930;stroke-width:1.0;" width="6" x="284" y="1699.9316"/><text fill="#000000" font-family="sans-serif" font-size="14" lengthAdjust="spacing" textLength="84" x="296" y="1707.2285">name : String</text><line style="stroke:#181818;stroke-width:0.5;" x1="277" x2="385" y1="1714.7422" y2="1714.7422"/></g><!--class JobOpening--><g id="elem_JobOpening"><rect codeLine="36" fill="#F1F1F1" height="494.9063" id="JobOpening" rx="2.5" ry="2.5" style="stroke:#181818;stroke-width:0.5;" width="297" x="1303.5" y="758.6211"/><ellipse cx="1409.75" cy="774.6211" fill="#ADD1B2" rx="11" ry="11" style="stroke:#181818;stroke-width:1.0;"/><path d="M1412.5156,770.4961 Q1412.6719,770.2773 1412.8594,770.168 Q1413.0469,770.0586 1413.2656,770.0586 Q1413.6406,770.0586 1413.875,770.3242 Q1414.1094,770.5742 1414.1094,771.1836 L1414.1094,772.6367 Q1414.1094,773.2461 1413.875,773.5117 Q1413.6406,773.7773 1413.2656,773.7773 Q1412.9219,773.7773 1412.7188,773.5742 Q1412.5156,773.3867 1412.4063,772.8711 Q1412.3594,772.5117 1412.1719,772.3242 Q1411.8438,771.9492 1411.2344,771.7305 Q1410.625,771.5117 1410,771.5117 Q1409.2344,771.5117 1408.5938,771.8398 Q1407.9688,772.168 1407.4688,772.918 Q1406.9844,773.668 1406.9844,774.6992 L1406.9844,775.793 Q1406.9844,777.0273 1407.875,777.8555 Q1408.7656,778.668 1410.3594,778.668 Q1411.2969,778.668 1411.9531,778.418 Q1412.3438,778.2617 1412.7656,777.8242 Q1413.0313,777.5586 1413.1719,777.4805 Q1413.3281,777.4023 1413.5313,777.4023 Q1413.8594,777.4023 1414.1094,777.668 Q1414.375,777.918 1414.375,778.2617 Q1414.375,778.6055 1414.0313,779.0117 Q1413.5313,779.5898 1412.7344,779.918 Q1411.6563,780.3711 1410.3594,780.3711 Q1408.8438,780.3711 1407.6406,779.7461 Q1406.6563,779.2461 1405.9688,778.1836 Q1405.2813,777.1055 1405.2813,775.8242 L1405.2813,774.668 Q1405.2813,773.3398 1405.8906,772.1992 Q1406.5156,771.043 1407.6094,770.4336 Q1408.7031,769.8086 1409.9375,769.8086 Q1410.6719,769.8086 1411.3125,769.9805 Q1411.9688,770.1367 1412.5156,770.4961 Z " fill="#000000"/><text fill="#000000" font-family="sans-serif" font-size="14" lengthAdjust="spacing" textLength="76" x="1430.25" y="780.418">JobOpening</text><line style="stroke:#181818;stroke-width:0.5;" x1="1304.5" x2="1599.5" y1="790.6211" y2="790.6211"/><rect fill="none" height="6" style="stroke:#C82930;stroke-width:1.0;" width="6" x="1311.5" y="802.4316"/><text fill="#000000" font-family="sans-serif" font-size="14" lengthAdjust="spacing" textLength="185" x="1323.5" y="809.7285">jobReference : JobReference</text><rect fill="none" height="6" style="stroke:#C82930;stroke-width:1.0;" width="6" x="1311.5" y="821.0527"/><text fill="#000000" font-family="sans-serif" font-size="14" lengthAdjust="spacing" textLength="269" x="1323.5" y="828.3496">numberOfVacancies : NumberOfVacancies</text><rect fill="none" height="6" style="stroke:#C82930;stroke-width:1.0;" width="6" x="1311.5" y="839.6738"/><text fill="#000000" font-family="sans-serif" font-size="14" lengthAdjust="spacing" textLength="163" x="1323.5" y="846.9707">jobFunction : JobFunction</text><rect fill="none" height="6" style="stroke:#C82930;stroke-width:1.0;" width="6" x="1311.5" y="858.2949"/><text fill="#000000" font-family="sans-serif" font-size="14" lengthAdjust="spacing" textLength="181" x="1323.5" y="865.5918">contractType : ContractType</text><rect fill="none" height="6" style="stroke:#C82930;stroke-width:1.0;" width="6" x="1311.5" y="876.916"/><text fill="#000000" font-family="sans-serif" font-size="14" lengthAdjust="spacing" textLength="82" x="1323.5" y="884.2129">mode : Mode</text><rect fill="none" height="6" style="stroke:#C82930;stroke-width:1.0;" width="6" x="1311.5" y="895.5371"/><text fill="#000000" font-family="sans-serif" font-size="14" lengthAdjust="spacing" textLength="115" x="1323.5" y="902.834">address : Address</text><rect fill="none" height="6" style="stroke:#C82930;stroke-width:1.0;" width="6" x="1311.5" y="914.1582"/><text fill="#000000" font-family="sans-serif" font-size="14" lengthAdjust="spacing" textLength="166" x="1323.5" y="921.4551">companyName : Customer</text><rect fill="none" height="6" style="stroke:#C82930;stroke-width:1.0;" width="6" x="1311.5" y="932.7793"/><text fill="#000000" font-family="sans-serif" font-size="14" lengthAdjust="spacing" textLength="148" x="1323.5" y="940.0762">description :Description</text><rect fill="none" height="6" style="stroke:#C82930;stroke-width:1.0;" width="6" x="1311.5" y="951.4004"/><text fill="#000000" font-family="sans-serif" font-size="14" lengthAdjust="spacing" textLength="171" x="1323.5" y="958.6973">registrationDate : Calendar</text><rect fill="none" height="6" style="stroke:#C82930;stroke-width:1.0;" width="6" x="1311.5" y="970.0215"/><text fill="#000000" font-family="sans-serif" font-size="14" lengthAdjust="spacing" textLength="261" x="1323.5" y="977.3184">recruitmentProcess : RecruitmentProcess</text><rect fill="none" height="6" style="stroke:#C82930;stroke-width:1.0;" width="6" x="1311.5" y="988.6426"/><text fill="#000000" font-family="sans-serif" font-size="14" lengthAdjust="spacing" textLength="145" x="1323.5" y="995.9395">interviewPlugin : Plugin</text><rect fill="none" height="6" style="stroke:#C82930;stroke-width:1.0;" width="6" x="1311.5" y="1007.2637"/><text fill="#000000" font-family="sans-serif" font-size="14" lengthAdjust="spacing" textLength="141" x="1323.5" y="1014.5605">interviewPlugin :Plugin</text><line style="stroke:#181818;stroke-width:0.5;" x1="1304.5" x2="1599.5" y1="1022.0742" y2="1022.0742"/><ellipse cx="1314.5" cy="1036.8848" fill="#84BE84" rx="3" ry="3" style="stroke:#038048;stroke-width:1.0;"/><text fill="#000000" font-family="sans-serif" font-size="14" lengthAdjust="spacing" textLength="191" x="1323.5" y="1041.1816">jobReference() :JobReference</text><ellipse cx="1314.5" cy="1055.5059" fill="#84BE84" rx="3" ry="3" style="stroke:#038048;stroke-width:1.0;"/><text fill="#000000" font-family="sans-serif" font-size="14" lengthAdjust="spacing" textLength="173" x="1323.5" y="1059.8027">jobFunction() : JobFunction</text><ellipse cx="1314.5" cy="1074.127" fill="#84BE84" rx="3" ry="3" style="stroke:#038048;stroke-width:1.0;"/><text fill="#000000" font-family="sans-serif" font-size="14" lengthAdjust="spacing" textLength="191" x="1323.5" y="1078.4238">contractType() : ContractType</text><ellipse cx="1314.5" cy="1092.748" fill="#84BE84" rx="3" ry="3" style="stroke:#038048;stroke-width:1.0;"/><text fill="#000000" font-family="sans-serif" font-size="14" lengthAdjust="spacing" textLength="92" x="1323.5" y="1097.0449">mode() : Mode</text><ellipse cx="1314.5" cy="1111.3691" fill="#84BE84" rx="3" ry="3" style="stroke:#038048;stroke-width:1.0;"/><text fill="#000000" font-family="sans-serif" font-size="14" lengthAdjust="spacing" textLength="125" x="1323.5" y="1115.666">address() : Address</text><ellipse cx="1314.5" cy="1129.9902" fill="#84BE84" rx="3" ry="3" style="stroke:#038048;stroke-width:1.0;"/><text fill="#000000" font-family="sans-serif" font-size="14" lengthAdjust="spacing" textLength="176" x="1323.5" y="1134.2871">companyName() : Customer</text><ellipse cx="1314.5" cy="1148.6113" fill="#84BE84" rx="3" ry="3" style="stroke:#038048;stroke-width:1.0;"/><text fill="#000000" font-family="sans-serif" font-size="14" lengthAdjust="spacing" textLength="162" x="1323.5" y="1152.9082">description() : Description</text><ellipse cx="1314.5" cy="1167.2324" fill="#84BE84" rx="3" ry="3" style="stroke:#038048;stroke-width:1.0;"/><text fill="#000000" font-family="sans-serif" font-size="14" lengthAdjust="spacing" textLength="181" x="1323.5" y="1171.5293">registrationDate() : Calendar</text><ellipse cx="1314.5" cy="1185.8535" fill="#84BE84" rx="3" ry="3" style="stroke:#038048;stroke-width:1.0;"/><text fill="#000000" font-family="sans-serif" font-size="14" lengthAdjust="spacing" textLength="217" x="1323.5" y="1190.1504">setId(JobReference jobReference)</text><ellipse cx="1314.5" cy="1204.4746" fill="#84BE84" rx="3" ry="3" style="stroke:#038048;stroke-width:1.0;"/><text fill="#000000" font-family="sans-serif" font-size="14" lengthAdjust="spacing" textLength="271" x="1323.5" y="1208.7715">recruitmentProcess() : RecruitmentProcess</text><ellipse cx="1314.5" cy="1223.0957" fill="#84BE84" rx="3" ry="3" style="stroke:#038048;stroke-width:1.0;"/><text fill="#000000" font-family="sans-serif" font-size="14" lengthAdjust="spacing" textLength="155" x="1323.5" y="1227.3926">interviewPlugin() : Plugin</text><ellipse cx="1314.5" cy="1241.7168" fill="#84BE84" rx="3" ry="3" style="stroke:#038048;stroke-width:1.0;"/><text fill="#000000" font-family="sans-serif" font-size="14" lengthAdjust="spacing" textLength="155" x="1323.5" y="1246.0137">interviewPlugin() : Plugin</text></g><!--class JobFunction--><g id="elem_JobFunction"><rect codeLine="64" fill="#F1F1F1" height="66.6211" id="JobFunction" rx="2.5" ry="2.5" style="stroke:#181818;stroke-width:0.5;" width="165" x="967.5" y="1398.1211"/><ellipse cx="1007.7" cy="1414.1211" fill="#ADD1B2" rx="11" ry="11" style="stroke:#181818;stroke-width:1.0;"/><path d="M1010.4656,1409.9961 Q1010.6219,1409.7773 1010.8094,1409.668 Q1010.9969,1409.5586 1011.2156,1409.5586 Q1011.5906,1409.5586 1011.825,1409.8242 Q1012.0594,1410.0742 1012.0594,1410.6836 L1012.0594,1412.1367 Q1012.0594,1412.7461 1011.825,1413.0117 Q1011.5906,1413.2773 1011.2156,1413.2773 Q1010.8719,1413.2773 1010.6688,1413.0742 Q1010.4656,1412.8867 1010.3563,1412.3711 Q1010.3094,1412.0117 1010.1219,1411.8242 Q1009.7938,1411.4492 1009.1844,1411.2305 Q1008.575,1411.0117 1007.95,1411.0117 Q1007.1844,1411.0117 1006.5438,1411.3398 Q1005.9188,1411.668 1005.4188,1412.418 Q1004.9344,1413.168 1004.9344,1414.1992 L1004.9344,1415.293 Q1004.9344,1416.5273 1005.825,1417.3555 Q1006.7156,1418.168 1008.3094,1418.168 Q1009.2469,1418.168 1009.9031,1417.918 Q1010.2938,1417.7617 1010.7156,1417.3242 Q1010.9813,1417.0586 1011.1219,1416.9805 Q1011.2781,1416.9023 1011.4813,1416.9023 Q1011.8094,1416.9023 1012.0594,1417.168 Q1012.325,1417.418 1012.325,1417.7617 Q1012.325,1418.1055 1011.9813,1418.5117 Q1011.4813,1419.0898 1010.6844,1419.418 Q1009.6063,1419.8711 1008.3094,1419.8711 Q1006.7938,1419.8711 1005.5906,1419.2461 Q1004.6063,1418.7461 1003.9188,1417.6836 Q1003.2313,1416.6055 1003.2313,1415.3242 L1003.2313,1414.168 Q1003.2313,1412.8398 1003.8406,1411.6992 Q1004.4656,1410.543 1005.5594,1409.9336 Q1006.6531,1409.3086 1007.8875,1409.3086 Q1008.6219,1409.3086 1009.2625,1409.4805 Q1009.9188,1409.6367 1010.4656,1409.9961 Z " fill="#000000"/><text fill="#000000" font-family="sans-serif" font-size="14" lengthAdjust="spacing" textLength="77" x="1027.3" y="1419.918">JobFunction</text><line style="stroke:#181818;stroke-width:0.5;" x1="968.5" x2="1131.5" y1="1430.1211" y2="1430.1211"/><rect fill="none" height="6" style="stroke:#C82930;stroke-width:1.0;" width="6" x="975.5" y="1441.9316"/><text fill="#000000" font-family="sans-serif" font-size="14" lengthAdjust="spacing" textLength="139" x="987.5" y="1449.2285">jobDescription : String</text><line style="stroke:#181818;stroke-width:0.5;" x1="968.5" x2="1131.5" y1="1456.7422" y2="1456.7422"/></g><!--class NumberOfVacancies--><g id="elem_NumberOfVacancies"><rect codeLine="68" fill="#F1F1F1" height="66.6211" id="NumberOfVacancies" rx="2.5" ry="2.5" style="stroke:#181818;stroke-width:0.5;" width="161" x="1167.5" y="1398.1211"/><ellipse cx="1182.5" cy="1414.1211" fill="#ADD1B2" rx="11" ry="11" style="stroke:#181818;stroke-width:1.0;"/><path d="M1185.2656,1409.9961 Q1185.4219,1409.7773 1185.6094,1409.668 Q1185.7969,1409.5586 1186.0156,1409.5586 Q1186.3906,1409.5586 1186.625,1409.8242 Q1186.8594,1410.0742 1186.8594,1410.6836 L1186.8594,1412.1367 Q1186.8594,1412.7461 1186.625,1413.0117 Q1186.3906,1413.2773 1186.0156,1413.2773 Q1185.6719,1413.2773 1185.4688,1413.0742 Q1185.2656,1412.8867 1185.1563,1412.3711 Q1185.1094,1412.0117 1184.9219,1411.8242 Q1184.5938,1411.4492 1183.9844,1411.2305 Q1183.375,1411.0117 1182.75,1411.0117 Q1181.9844,1411.0117 1181.3438,1411.3398 Q1180.7188,1411.668 1180.2188,1412.418 Q1179.7344,1413.168 1179.7344,1414.1992 L1179.7344,1415.293 Q1179.7344,1416.5273 1180.625,1417.3555 Q1181.5156,1418.168 1183.1094,1418.168 Q1184.0469,1418.168 1184.7031,1417.918 Q1185.0938,1417.7617 1185.5156,1417.3242 Q1185.7813,1417.0586 1185.9219,1416.9805 Q1186.0781,1416.9023 1186.2813,1416.9023 Q1186.6094,1416.9023 1186.8594,1417.168 Q1187.125,1417.418 1187.125,1417.7617 Q1187.125,1418.1055 1186.7813,1418.5117 Q1186.2813,1419.0898 1185.4844,1419.418 Q1184.4063,1419.8711 1183.1094,1419.8711 Q1181.5938,1419.8711 1180.3906,1419.2461 Q1179.4063,1418.7461 1178.7188,1417.6836 Q1178.0313,1416.6055 1178.0313,1415.3242 L1178.0313,1414.168 Q1178.0313,1412.8398 1178.6406,1411.6992 Q1179.2656,1410.543 1180.3594,1409.9336 Q1181.4531,1409.3086 1182.6875,1409.3086 Q1183.4219,1409.3086 1184.0625,1409.4805 Q1184.7188,1409.6367 1185.2656,1409.9961 Z " fill="#000000"/><text fill="#000000" font-family="sans-serif" font-size="14" lengthAdjust="spacing" textLength="129" x="1196.5" y="1419.918">NumberOfVacancies</text><line style="stroke:#181818;stroke-width:0.5;" x1="1168.5" x2="1327.5" y1="1430.1211" y2="1430.1211"/><rect fill="none" height="6" style="stroke:#C82930;stroke-width:1.0;" width="6" x="1175.5" y="1441.9316"/><text fill="#000000" font-family="sans-serif" font-size="14" lengthAdjust="spacing" textLength="104" x="1187.5" y="1449.2285">number : Integer</text><line style="stroke:#181818;stroke-width:0.5;" x1="1168.5" x2="1327.5" y1="1456.7422" y2="1456.7422"/></g><!--class Description--><g id="elem_Description"><rect codeLine="72" fill="#F1F1F1" height="66.6211" id="Description" rx="2.5" ry="2.5" style="stroke:#181818;stroke-width:0.5;" width="144" x="875" y="1656.1211"/><ellipse cx="908.45" cy="1672.1211" fill="#ADD1B2" rx="11" ry="11" style="stroke:#181818;stroke-width:1.0;"/><path d="M911.2156,1667.9961 Q911.3719,1667.7773 911.5594,1667.668 Q911.7469,1667.5586 911.9656,1667.5586 Q912.3406,1667.5586 912.575,1667.8242 Q912.8094,1668.0742 912.8094,1668.6836 L912.8094,1670.1367 Q912.8094,1670.7461 912.575,1671.0117 Q912.3406,1671.2773 911.9656,1671.2773 Q911.6219,1671.2773 911.4188,1671.0742 Q911.2156,1670.8867 911.1063,1670.3711 Q911.0594,1670.0117 910.8719,1669.8242 Q910.5438,1669.4492 909.9344,1669.2305 Q909.325,1669.0117 908.7,1669.0117 Q907.9344,1669.0117 907.2938,1669.3398 Q906.6688,1669.668 906.1688,1670.418 Q905.6844,1671.168 905.6844,1672.1992 L905.6844,1673.293 Q905.6844,1674.5273 906.575,1675.3555 Q907.4656,1676.168 909.0594,1676.168 Q909.9969,1676.168 910.6531,1675.918 Q911.0438,1675.7617 911.4656,1675.3242 Q911.7313,1675.0586 911.8719,1674.9805 Q912.0281,1674.9023 912.2313,1674.9023 Q912.5594,1674.9023 912.8094,1675.168 Q913.075,1675.418 913.075,1675.7617 Q913.075,1676.1055 912.7313,1676.5117 Q912.2313,1677.0898 911.4344,1677.418 Q910.3563,1677.8711 909.0594,1677.8711 Q907.5438,1677.8711 906.3406,1677.2461 Q905.3563,1676.7461 904.6688,1675.6836 Q903.9813,1674.6055 903.9813,1673.3242 L903.9813,1672.168 Q903.9813,1670.8398 904.5906,1669.6992 Q905.2156,1668.543 906.3094,1667.9336 Q907.4031,1667.3086 908.6375,1667.3086 Q909.3719,1667.3086 910.0125,1667.4805 Q910.6688,1667.6367 911.2156,1667.9961 Z " fill="#000000"/><text fill="#000000" font-family="sans-serif" font-size="14" lengthAdjust="spacing" textLength="71" x="926.55" y="1677.918">Description</text><line style="stroke:#181818;stroke-width:0.5;" x1="876" x2="1018" y1="1688.1211" y2="1688.1211"/><rect fill="none" height="6" style="stroke:#C82930;stroke-width:1.0;" width="6" x="883" y="1699.9316"/><text fill="#000000" font-family="sans-serif" font-size="14" lengthAdjust="spacing" textLength="118" x="895" y="1707.2285">description : String</text><line style="stroke:#181818;stroke-width:0.5;" x1="876" x2="1018" y1="1714.7422" y2="1714.7422"/></g><!--class JobReference--><g id="elem_JobReference"><rect codeLine="76" fill="#F1F1F1" height="85.2422" id="JobReference" rx="2.5" ry="2.5" style="stroke:#181818;stroke-width:0.5;" width="177" x="1363.5" y="1389.1211"/><ellipse cx="1404.15" cy="1405.1211" fill="#ADD1B2" rx="11" ry="11" style="stroke:#181818;stroke-width:1.0;"/><path d="M1406.9156,1400.9961 Q1407.0719,1400.7773 1407.2594,1400.668 Q1407.4469,1400.5586 1407.6656,1400.5586 Q1408.0406,1400.5586 1408.275,1400.8242 Q1408.5094,1401.0742 1408.5094,1401.6836 L1408.5094,1403.1367 Q1408.5094,1403.7461 1408.275,1404.0117 Q1408.0406,1404.2773 1407.6656,1404.2773 Q1407.3219,1404.2773 1407.1188,1404.0742 Q1406.9156,1403.8867 1406.8063,1403.3711 Q1406.7594,1403.0117 1406.5719,1402.8242 Q1406.2438,1402.4492 1405.6344,1402.2305 Q1405.025,1402.0117 1404.4,1402.0117 Q1403.6344,1402.0117 1402.9938,1402.3398 Q1402.3688,1402.668 1401.8688,1403.418 Q1401.3844,1404.168 1401.3844,1405.1992 L1401.3844,1406.293 Q1401.3844,1407.5273 1402.275,1408.3555 Q1403.1656,1409.168 1404.7594,1409.168 Q1405.6969,1409.168 1406.3531,1408.918 Q1406.7438,1408.7617 1407.1656,1408.3242 Q1407.4313,1408.0586 1407.5719,1407.9805 Q1407.7281,1407.9023 1407.9313,1407.9023 Q1408.2594,1407.9023 1408.5094,1408.168 Q1408.775,1408.418 1408.775,1408.7617 Q1408.775,1409.1055 1408.4313,1409.5117 Q1407.9313,1410.0898 1407.1344,1410.418 Q1406.0563,1410.8711 1404.7594,1410.8711 Q1403.2438,1410.8711 1402.0406,1410.2461 Q1401.0563,1409.7461 1400.3688,1408.6836 Q1399.6813,1407.6055 1399.6813,1406.3242 L1399.6813,1405.168 Q1399.6813,1403.8398 1400.2906,1402.6992 Q1400.9156,1401.543 1402.0094,1400.9336 Q1403.1031,1400.3086 1404.3375,1400.3086 Q1405.0719,1400.3086 1405.7125,1400.4805 Q1406.3688,1400.6367 1406.9156,1400.9961 Z " fill="#000000"/><text fill="#000000" font-family="sans-serif" font-size="14" lengthAdjust="spacing" textLength="88" x="1423.85" y="1410.918">JobReference</text><line style="stroke:#181818;stroke-width:0.5;" x1="1364.5" x2="1539.5" y1="1421.1211" y2="1421.1211"/><rect fill="none" height="6" style="stroke:#C82930;stroke-width:1.0;" width="6" x="1371.5" y="1432.9316"/><text fill="#000000" font-family="sans-serif" font-size="14" lengthAdjust="spacing" textLength="141" x="1383.5" y="1440.2285">jobReference : Integer</text><line style="stroke:#181818;stroke-width:0.5;" x1="1364.5" x2="1539.5" y1="1447.7422" y2="1447.7422"/><ellipse cx="1374.5" cy="1462.5527" fill="#84BE84" rx="3" ry="3" style="stroke:#038048;stroke-width:1.0;"/><text fill="#000000" font-family="sans-serif" font-size="14" lengthAdjust="spacing" textLength="151" x="1383.5" y="1466.8496">jobReference() : Integer</text></g><!--class Address--><g id="elem_Address"><rect codeLine="81" fill="#F1F1F1" height="159.7266" id="Address" rx="2.5" ry="2.5" style="stroke:#181818;stroke-width:0.5;" width="247" x="1461.5" y="1609.6211"/><ellipse cx="1554.75" cy="1625.6211" fill="#ADD1B2" rx="11" ry="11" style="stroke:#181818;stroke-width:1.0;"/><path d="M1557.5156,1621.4961 Q1557.6719,1621.2773 1557.8594,1621.168 Q1558.0469,1621.0586 1558.2656,1621.0586 Q1558.6406,1621.0586 1558.875,1621.3242 Q1559.1094,1621.5742 1559.1094,1622.1836 L1559.1094,1623.6367 Q1559.1094,1624.2461 1558.875,1624.5117 Q1558.6406,1624.7773 1558.2656,1624.7773 Q1557.9219,1624.7773 1557.7188,1624.5742 Q1557.5156,1624.3867 1557.4063,1623.8711 Q1557.3594,1623.5117 1557.1719,1623.3242 Q1556.8438,1622.9492 1556.2344,1622.7305 Q1555.625,1622.5117 1555,1622.5117 Q1554.2344,1622.5117 1553.5938,1622.8398 Q1552.9688,1623.168 1552.4688,1623.918 Q1551.9844,1624.668 1551.9844,1625.6992 L1551.9844,1626.793 Q1551.9844,1628.0273 1552.875,1628.8555 Q1553.7656,1629.668 1555.3594,1629.668 Q1556.2969,1629.668 1556.9531,1629.418 Q1557.3438,1629.2617 1557.7656,1628.8242 Q1558.0313,1628.5586 1558.1719,1628.4805 Q1558.3281,1628.4023 1558.5313,1628.4023 Q1558.8594,1628.4023 1559.1094,1628.668 Q1559.375,1628.918 1559.375,1629.2617 Q1559.375,1629.6055 1559.0313,1630.0117 Q1558.5313,1630.5898 1557.7344,1630.918 Q1556.6563,1631.3711 1555.3594,1631.3711 Q1553.8438,1631.3711 1552.6406,1630.7461 Q1551.6563,1630.2461 1550.9688,1629.1836 Q1550.2813,1628.1055 1550.2813,1626.8242 L1550.2813,1625.668 Q1550.2813,1624.3398 1550.8906,1623.1992 Q1551.5156,1622.043 1552.6094,1621.4336 Q1553.7031,1620.8086 1554.9375,1620.8086 Q1555.6719,1620.8086 1556.3125,1620.9805 Q1556.9688,1621.1367 1557.5156,1621.4961 Z " fill="#000000"/><text fill="#000000" font-family="sans-serif" font-size="14" lengthAdjust="spacing" textLength="52" x="1575.25" y="1631.418">Address</text><line style="stroke:#181818;stroke-width:0.5;" x1="1462.5" x2="1707.5" y1="1641.6211" y2="1641.6211"/><rect fill="none" height="6" style="stroke:#C82930;stroke-width:1.0;" width="6" x="1469.5" y="1653.4316"/><text fill="#000000" font-family="sans-serif" font-size="14" lengthAdjust="spacing" textLength="85" x="1481.5" y="1660.7285">street : String</text><rect fill="none" height="6" style="stroke:#C82930;stroke-width:1.0;" width="6" x="1469.5" y="1672.0527"/><text fill="#000000" font-family="sans-serif" font-size="14" lengthAdjust="spacing" textLength="70" x="1481.5" y="1679.3496">city : String</text><rect fill="none" height="6" style="stroke:#C82930;stroke-width:1.0;" width="6" x="1469.5" y="1690.6738"/><text fill="#000000" font-family="sans-serif" font-size="14" lengthAdjust="spacing" textLength="80" x="1481.5" y="1697.9707">state : String</text><rect fill="none" height="6" style="stroke:#C82930;stroke-width:1.0;" width="6" x="1469.5" y="1709.2949"/><text fill="#000000" font-family="sans-serif" font-size="14" lengthAdjust="spacing" textLength="96" x="1481.5" y="1716.5918">country : String</text><rect fill="none" height="6" style="stroke:#C82930;stroke-width:1.0;" width="6" x="1469.5" y="1727.916"/><text fill="#000000" font-family="sans-serif" font-size="14" lengthAdjust="spacing" textLength="97" x="1481.5" y="1735.2129">zipcode : String</text><line style="stroke:#181818;stroke-width:0.5;" x1="1462.5" x2="1707.5" y1="1742.7266" y2="1742.7266"/><rect fill="#F24D5C" height="6" style="stroke:#C82930;stroke-width:1.0;" width="6" x="1469.5" y="1754.5371"/><text fill="#000000" font-family="sans-serif" font-size="14" lengthAdjust="spacing" textLength="221" x="1481.5" y="1761.834">validateZipcode(zipcode) : Boolean</text></g><!--class Customer--><g id="elem_Customer"><rect codeLine="91" fill="#F1F1F1" height="196.9688" id="Customer" rx="2.5" ry="2.5" style="stroke:#181818;stroke-width:0.5;" width="306" x="1647" y="1333.1211"/><ellipse cx="1765.25" cy="1349.1211" fill="#ADD1B2" rx="11" ry="11" style="stroke:#181818;stroke-width:1.0;"/><path d="M1768.0156,1344.9961 Q1768.1719,1344.7773 1768.3594,1344.668 Q1768.5469,1344.5586 1768.7656,1344.5586 Q1769.1406,1344.5586 1769.375,1344.8242 Q1769.6094,1345.0742 1769.6094,1345.6836 L1769.6094,1347.1367 Q1769.6094,1347.7461 1769.375,1348.0117 Q1769.1406,1348.2773 1768.7656,1348.2773 Q1768.4219,1348.2773 1768.2188,1348.0742 Q1768.0156,1347.8867 1767.9063,1347.3711 Q1767.8594,1347.0117 1767.6719,1346.8242 Q1767.3438,1346.4492 1766.7344,1346.2305 Q1766.125,1346.0117 1765.5,1346.0117 Q1764.7344,1346.0117 1764.0938,1346.3398 Q1763.4688,1346.668 1762.9688,1347.418 Q1762.4844,1348.168 1762.4844,1349.1992 L1762.4844,1350.293 Q1762.4844,1351.5273 1763.375,1352.3555 Q1764.2656,1353.168 1765.8594,1353.168 Q1766.7969,1353.168 1767.4531,1352.918 Q1767.8438,1352.7617 1768.2656,1352.3242 Q1768.5313,1352.0586 1768.6719,1351.9805 Q1768.8281,1351.9023 1769.0313,1351.9023 Q1769.3594,1351.9023 1769.6094,1352.168 Q1769.875,1352.418 1769.875,1352.7617 Q1769.875,1353.1055 1769.5313,1353.5117 Q1769.0313,1354.0898 1768.2344,1354.418 Q1767.1563,1354.8711 1765.8594,1354.8711 Q1764.3438,1354.8711 1763.1406,1354.2461 Q1762.1563,1353.7461 1761.4688,1352.6836 Q1760.7813,1351.6055 1760.7813,1350.3242 L1760.7813,1349.168 Q1760.7813,1347.8398 1761.3906,1346.6992 Q1762.0156,1345.543 1763.1094,1344.9336 Q1764.2031,1344.3086 1765.4375,1344.3086 Q1766.1719,1344.3086 1766.8125,1344.4805 Q1767.4688,1344.6367 1768.0156,1344.9961 Z " fill="#000000"/><text fill="#000000" font-family="sans-serif" font-size="14" lengthAdjust="spacing" textLength="61" x="1785.75" y="1354.918">Customer</text><line style="stroke:#181818;stroke-width:0.5;" x1="1648" x2="1952" y1="1365.1211" y2="1365.1211"/><rect fill="none" height="6" style="stroke:#C82930;stroke-width:1.0;" width="6" x="1655" y="1376.9316"/><text fill="#000000" font-family="sans-serif" font-size="14" lengthAdjust="spacing" textLength="160" x="1667" y="1384.2285">systemUser : SystemUser</text><rect fill="none" height="6" style="stroke:#C82930;stroke-width:1.0;" width="6" x="1655" y="1395.5527"/><text fill="#000000" font-family="sans-serif" font-size="14" lengthAdjust="spacing" textLength="77" x="1667" y="1402.8496">code : Code</text><rect fill="none" height="6" style="stroke:#C82930;stroke-width:1.0;" width="6" x="1655" y="1414.1738"/><text fill="#000000" font-family="sans-serif" font-size="14" lengthAdjust="spacing" textLength="115" x="1667" y="1421.4707">address : Address</text><rect fill="none" height="6" style="stroke:#C82930;stroke-width:1.0;" width="6" x="1655" y="1432.7949"/><text fill="#000000" font-family="sans-serif" font-size="14" lengthAdjust="spacing" textLength="201" x="1667" y="1440.0918">customerManager : SystemUser</text><line style="stroke:#181818;stroke-width:0.5;" x1="1648" x2="1952" y1="1447.6055" y2="1447.6055"/><ellipse cx="1658" cy="1462.416" fill="#84BE84" rx="3" ry="3" style="stroke:#038048;stroke-width:1.0;"/><text fill="#000000" font-family="sans-serif" font-size="14" lengthAdjust="spacing" textLength="125" x="1667" y="1466.7129">user() : SystemUser</text><ellipse cx="1658" cy="1481.0371" fill="#84BE84" rx="3" ry="3" style="stroke:#038048;stroke-width:1.0;"/><text fill="#000000" font-family="sans-serif" font-size="14" lengthAdjust="spacing" textLength="89" x="1667" y="1485.334">getID() : Code</text><ellipse cx="1658" cy="1499.6582" fill="#84BE84" rx="3" ry="3" style="stroke:#038048;stroke-width:1.0;"/><text fill="#000000" font-family="sans-serif" font-size="14" lengthAdjust="spacing" textLength="125" x="1667" y="1503.9551">address() : Address</text><ellipse cx="1658" cy="1518.2793" fill="#84BE84" rx="3" ry="3" style="stroke:#038048;stroke-width:1.0;"/><text fill="#000000" font-family="sans-serif" font-size="14" lengthAdjust="spacing" textLength="280" x="1667" y="1522.5762">customerManagerAssociated() : SystemUser</text></g><!--class EmailAddress--><g id="elem_EmailAddress"><rect codeLine="103" fill="#F1F1F1" height="66.6211" id="EmailAddress" rx="2.5" ry="2.5" style="stroke:#181818;stroke-width:0.5;" width="118" x="1685" y="1858.1211"/><ellipse cx="1700" cy="1874.1211" fill="#ADD1B2" rx="11" ry="11" style="stroke:#181818;stroke-width:1.0;"/><path d="M1702.7656,1869.9961 Q1702.9219,1869.7773 1703.1094,1869.668 Q1703.2969,1869.5586 1703.5156,1869.5586 Q1703.8906,1869.5586 1704.125,1869.8242 Q1704.3594,1870.0742 1704.3594,1870.6836 L1704.3594,1872.1367 Q1704.3594,1872.7461 1704.125,1873.0117 Q1703.8906,1873.2773 1703.5156,1873.2773 Q1703.1719,1873.2773 1702.9688,1873.0742 Q1702.7656,1872.8867 1702.6563,1872.3711 Q1702.6094,1872.0117 1702.4219,1871.8242 Q1702.0938,1871.4492 1701.4844,1871.2305 Q1700.875,1871.0117 1700.25,1871.0117 Q1699.4844,1871.0117 1698.8438,1871.3398 Q1698.2188,1871.668 1697.7188,1872.418 Q1697.2344,1873.168 1697.2344,1874.1992 L1697.2344,1875.293 Q1697.2344,1876.5273 1698.125,1877.3555 Q1699.0156,1878.168 1700.6094,1878.168 Q1701.5469,1878.168 1702.2031,1877.918 Q1702.5938,1877.7617 1703.0156,1877.3242 Q1703.2813,1877.0586 1703.4219,1876.9805 Q1703.5781,1876.9023 1703.7813,1876.9023 Q1704.1094,1876.9023 1704.3594,1877.168 Q1704.625,1877.418 1704.625,1877.7617 Q1704.625,1878.1055 1704.2813,1878.5117 Q1703.7813,1879.0898 1702.9844,1879.418 Q1701.9063,1879.8711 1700.6094,1879.8711 Q1699.0938,1879.8711 1697.8906,1879.2461 Q1696.9063,1878.7461 1696.2188,1877.6836 Q1695.5313,1876.6055 1695.5313,1875.3242 L1695.5313,1874.168 Q1695.5313,1872.8398 1696.1406,1871.6992 Q1696.7656,1870.543 1697.8594,1869.9336 Q1698.9531,1869.3086 1700.1875,1869.3086 Q1700.9219,1869.3086 1701.5625,1869.4805 Q1702.2188,1869.6367 1702.7656,1869.9961 Z " fill="#000000"/><text fill="#000000" font-family="sans-serif" font-size="14" lengthAdjust="spacing" textLength="86" x="1714" y="1879.918">EmailAddress</text><line style="stroke:#181818;stroke-width:0.5;" x1="1686" x2="1802" y1="1890.1211" y2="1890.1211"/><rect fill="none" height="6" style="stroke:#C82930;stroke-width:1.0;" width="6" x="1693" y="1901.9316"/><text fill="#000000" font-family="sans-serif" font-size="14" lengthAdjust="spacing" textLength="82" x="1705" y="1909.2285">email : String</text><line style="stroke:#181818;stroke-width:0.5;" x1="1686" x2="1802" y1="1916.7422" y2="1916.7422"/></g><!--class Name--><g id="elem_Name"><rect codeLine="108" fill="#F1F1F1" height="122.4844" id="Name" rx="2.5" ry="2.5" style="stroke:#181818;stroke-width:0.5;" width="144" x="1838" y="1830.6211"/><ellipse cx="1887.75" cy="1846.6211" fill="#ADD1B2" rx="11" ry="11" style="stroke:#181818;stroke-width:1.0;"/><path d="M1890.5156,1842.4961 Q1890.6719,1842.2773 1890.8594,1842.168 Q1891.0469,1842.0586 1891.2656,1842.0586 Q1891.6406,1842.0586 1891.875,1842.3242 Q1892.1094,1842.5742 1892.1094,1843.1836 L1892.1094,1844.6367 Q1892.1094,1845.2461 1891.875,1845.5117 Q1891.6406,1845.7773 1891.2656,1845.7773 Q1890.9219,1845.7773 1890.7188,1845.5742 Q1890.5156,1845.3867 1890.4063,1844.8711 Q1890.3594,1844.5117 1890.1719,1844.3242 Q1889.8438,1843.9492 1889.2344,1843.7305 Q1888.625,1843.5117 1888,1843.5117 Q1887.2344,1843.5117 1886.5938,1843.8398 Q1885.9688,1844.168 1885.4688,1844.918 Q1884.9844,1845.668 1884.9844,1846.6992 L1884.9844,1847.793 Q1884.9844,1849.0273 1885.875,1849.8555 Q1886.7656,1850.668 1888.3594,1850.668 Q1889.2969,1850.668 1889.9531,1850.418 Q1890.3438,1850.2617 1890.7656,1849.8242 Q1891.0313,1849.5586 1891.1719,1849.4805 Q1891.3281,1849.4023 1891.5313,1849.4023 Q1891.8594,1849.4023 1892.1094,1849.668 Q1892.375,1849.918 1892.375,1850.2617 Q1892.375,1850.6055 1892.0313,1851.0117 Q1891.5313,1851.5898 1890.7344,1851.918 Q1889.6563,1852.3711 1888.3594,1852.3711 Q1886.8438,1852.3711 1885.6406,1851.7461 Q1884.6563,1851.2461 1883.9688,1850.1836 Q1883.2813,1849.1055 1883.2813,1847.8242 L1883.2813,1846.668 Q1883.2813,1845.3398 1883.8906,1844.1992 Q1884.5156,1843.043 1885.6094,1842.4336 Q1886.7031,1841.8086 1887.9375,1841.8086 Q1888.6719,1841.8086 1889.3125,1841.9805 Q1889.9688,1842.1367 1890.5156,1842.4961 Z " fill="#000000"/><text fill="#000000" font-family="sans-serif" font-size="14" lengthAdjust="spacing" textLength="36" x="1908.25" y="1852.418">Name</text><line style="stroke:#181818;stroke-width:0.5;" x1="1839" x2="1981" y1="1862.6211" y2="1862.6211"/><rect fill="none" height="6" style="stroke:#C82930;stroke-width:1.0;" width="6" x="1846" y="1874.4316"/><text fill="#000000" font-family="sans-serif" font-size="14" lengthAdjust="spacing" textLength="108" x="1858" y="1881.7285">firstName : String</text><rect fill="none" height="6" style="stroke:#C82930;stroke-width:1.0;" width="6" x="1846" y="1893.0527"/><text fill="#000000" font-family="sans-serif" font-size="14" lengthAdjust="spacing" textLength="107" x="1858" y="1900.3496">lastName : String</text><line style="stroke:#181818;stroke-width:0.5;" x1="1839" x2="1981" y1="1907.8633" y2="1907.8633"/><ellipse cx="1849" cy="1922.6738" fill="#84BE84" rx="3" ry="3" style="stroke:#038048;stroke-width:1.0;"/><text fill="#000000" font-family="sans-serif" font-size="14" lengthAdjust="spacing" textLength="118" x="1858" y="1926.9707">firstName() : String</text><ellipse cx="1849" cy="1941.2949" fill="#84BE84" rx="3" ry="3" style="stroke:#038048;stroke-width:1.0;"/><text fill="#000000" font-family="sans-serif" font-size="14" lengthAdjust="spacing" textLength="117" x="1858" y="1945.5918">lastName() : String</text></g><!--class Code--><g id="elem_Code"><rect codeLine="115" fill="#F1F1F1" height="85.2422" id="Code" rx="2.5" ry="2.5" style="stroke:#181818;stroke-width:0.5;" width="139" x="1945.5" y="1647.1211"/><ellipse cx="1993.75" cy="1663.1211" fill="#ADD1B2" rx="11" ry="11" style="stroke:#181818;stroke-width:1.0;"/><path d="M1996.5156,1658.9961 Q1996.6719,1658.7773 1996.8594,1658.668 Q1997.0469,1658.5586 1997.2656,1658.5586 Q1997.6406,1658.5586 1997.875,1658.8242 Q1998.1094,1659.0742 1998.1094,1659.6836 L1998.1094,1661.1367 Q1998.1094,1661.7461 1997.875,1662.0117 Q1997.6406,1662.2773 1997.2656,1662.2773 Q1996.9219,1662.2773 1996.7188,1662.0742 Q1996.5156,1661.8867 1996.4063,1661.3711 Q1996.3594,1661.0117 1996.1719,1660.8242 Q1995.8438,1660.4492 1995.2344,1660.2305 Q1994.625,1660.0117 1994,1660.0117 Q1993.2344,1660.0117 1992.5938,1660.3398 Q1991.9688,1660.668 1991.4688,1661.418 Q1990.9844,1662.168 1990.9844,1663.1992 L1990.9844,1664.293 Q1990.9844,1665.5273 1991.875,1666.3555 Q1992.7656,1667.168 1994.3594,1667.168 Q1995.2969,1667.168 1995.9531,1666.918 Q1996.3438,1666.7617 1996.7656,1666.3242 Q1997.0313,1666.0586 1997.1719,1665.9805 Q1997.3281,1665.9023 1997.5313,1665.9023 Q1997.8594,1665.9023 1998.1094,1666.168 Q1998.375,1666.418 1998.375,1666.7617 Q1998.375,1667.1055 1998.0313,1667.5117 Q1997.5313,1668.0898 1996.7344,1668.418 Q1995.6563,1668.8711 1994.3594,1668.8711 Q1992.8438,1668.8711 1991.6406,1668.2461 Q1990.6563,1667.7461 1989.9688,1666.6836 Q1989.2813,1665.6055 1989.2813,1664.3242 L1989.2813,1663.168 Q1989.2813,1661.8398 1989.8906,1660.6992 Q1990.5156,1659.543 1991.6094,1658.9336 Q1992.7031,1658.3086 1993.9375,1658.3086 Q1994.6719,1658.3086 1995.3125,1658.4805 Q1995.9688,1658.6367 1996.5156,1658.9961 Z " fill="#000000"/><text fill="#000000" font-family="sans-serif" font-size="14" lengthAdjust="spacing" textLength="34" x="2014.25" y="1668.918">Code</text><line style="stroke:#181818;stroke-width:0.5;" x1="1946.5" x2="2083.5" y1="1679.1211" y2="1679.1211"/><rect fill="none" height="6" style="stroke:#C82930;stroke-width:1.0;" width="6" x="1953.5" y="1690.9316"/><text fill="#000000" font-family="sans-serif" font-size="14" lengthAdjust="spacing" textLength="80" x="1965.5" y="1698.2285">code : String</text><line style="stroke:#181818;stroke-width:0.5;" x1="1946.5" x2="2083.5" y1="1705.7422" y2="1705.7422"/><ellipse cx="1956.5" cy="1720.5527" fill="#84BE84" rx="3" ry="3" style="stroke:#038048;stroke-width:1.0;"/><text fill="#000000" font-family="sans-serif" font-size="14" lengthAdjust="spacing" textLength="113" x="1965.5" y="1724.8496">getCode() : String</text></g><!--class SystemUser--><g id="elem_SystemUser"><rect codeLine="121" fill="#F1F1F1" height="122.4844" id="SystemUser" rx="2.5" ry="2.5" style="stroke:#181818;stroke-width:0.5;" width="167" x="1743.5" y="1628.6211"/><ellipse cx="1785.5" cy="1644.6211" fill="#ADD1B2" rx="11" ry="11" style="stroke:#181818;stroke-width:1.0;"/><path d="M1788.2656,1640.4961 Q1788.4219,1640.2773 1788.6094,1640.168 Q1788.7969,1640.0586 1789.0156,1640.0586 Q1789.3906,1640.0586 1789.625,1640.3242 Q1789.8594,1640.5742 1789.8594,1641.1836 L1789.8594,1642.6367 Q1789.8594,1643.2461 1789.625,1643.5117 Q1789.3906,1643.7773 1789.0156,1643.7773 Q1788.6719,1643.7773 1788.4688,1643.5742 Q1788.2656,1643.3867 1788.1563,1642.8711 Q1788.1094,1642.5117 1787.9219,1642.3242 Q1787.5938,1641.9492 1786.9844,1641.7305 Q1786.375,1641.5117 1785.75,1641.5117 Q1784.9844,1641.5117 1784.3438,1641.8398 Q1783.7188,1642.168 1783.2188,1642.918 Q1782.7344,1643.668 1782.7344,1644.6992 L1782.7344,1645.793 Q1782.7344,1647.0273 1783.625,1647.8555 Q1784.5156,1648.668 1786.1094,1648.668 Q1787.0469,1648.668 1787.7031,1648.418 Q1788.0938,1648.2617 1788.5156,1647.8242 Q1788.7813,1647.5586 1788.9219,1647.4805 Q1789.0781,1647.4023 1789.2813,1647.4023 Q1789.6094,1647.4023 1789.8594,1647.668 Q1790.125,1647.918 1790.125,1648.2617 Q1790.125,1648.6055 1789.7813,1649.0117 Q1789.2813,1649.5898 1788.4844,1649.918 Q1787.4063,1650.3711 1786.1094,1650.3711 Q1784.5938,1650.3711 1783.3906,1649.7461 Q1782.4063,1649.2461 1781.7188,1648.1836 Q1781.0313,1647.1055 1781.0313,1645.8242 L1781.0313,1644.668 Q1781.0313,1643.3398 1781.6406,1642.1992 Q1782.2656,1641.043 1783.3594,1640.4336 Q1784.4531,1639.8086 1785.6875,1639.8086 Q1786.4219,1639.8086 1787.0625,1639.9805 Q1787.7188,1640.1367 1788.2656,1640.4961 Z " fill="#000000"/><text fill="#000000" font-family="sans-serif" font-size="14" lengthAdjust="spacing" textLength="75" x="1805.5" y="1650.418">SystemUser</text><line style="stroke:#181818;stroke-width:0.5;" x1="1744.5" x2="1909.5" y1="1660.6211" y2="1660.6211"/><rect fill="none" height="6" style="stroke:#C82930;stroke-width:1.0;" width="6" x="1751.5" y="1672.4316"/><text fill="#000000" font-family="sans-serif" font-size="14" lengthAdjust="spacing" textLength="83" x="1763.5" y="1679.7285">name : Name</text><rect fill="none" height="6" style="stroke:#C82930;stroke-width:1.0;" width="6" x="1751.5" y="1691.0527"/><text fill="#000000" font-family="sans-serif" font-size="14" lengthAdjust="spacing" textLength="131" x="1763.5" y="1698.3496">email : EmailAddress</text><line style="stroke:#181818;stroke-width:0.5;" x1="1744.5" x2="1909.5" y1="1705.8633" y2="1705.8633"/><ellipse cx="1754.5" cy="1720.6738" fill="#84BE84" rx="3" ry="3" style="stroke:#038048;stroke-width:1.0;"/><text fill="#000000" font-family="sans-serif" font-size="14" lengthAdjust="spacing" textLength="141" x="1763.5" y="1724.9707">email() : EmailAddress</text><ellipse cx="1754.5" cy="1739.2949" fill="#84BE84" rx="3" ry="3" style="stroke:#038048;stroke-width:1.0;"/><text fill="#000000" font-family="sans-serif" font-size="14" lengthAdjust="spacing" textLength="93" x="1763.5" y="1743.5918">name() : Name</text></g><!--class Mode--><g id="elem_Mode"><rect codeLine="129" fill="#F1F1F1" height="85.2422" id="Mode" rx="2.5" ry="2.5" style="stroke:#181818;stroke-width:0.5;" width="142" x="1988" y="1389.1211"/><ellipse cx="2037.25" cy="1405.1211" fill="#ADD1B2" rx="11" ry="11" style="stroke:#181818;stroke-width:1.0;"/><path d="M2040.0156,1400.9961 Q2040.1719,1400.7773 2040.3594,1400.668 Q2040.5469,1400.5586 2040.7656,1400.5586 Q2041.1406,1400.5586 2041.375,1400.8242 Q2041.6094,1401.0742 2041.6094,1401.6836 L2041.6094,1403.1367 Q2041.6094,1403.7461 2041.375,1404.0117 Q2041.1406,1404.2773 2040.7656,1404.2773 Q2040.4219,1404.2773 2040.2188,1404.0742 Q2040.0156,1403.8867 2039.9063,1403.3711 Q2039.8594,1403.0117 2039.6719,1402.8242 Q2039.3438,1402.4492 2038.7344,1402.2305 Q2038.125,1402.0117 2037.5,1402.0117 Q2036.7344,1402.0117 2036.0938,1402.3398 Q2035.4688,1402.668 2034.9688,1403.418 Q2034.4844,1404.168 2034.4844,1405.1992 L2034.4844,1406.293 Q2034.4844,1407.5273 2035.375,1408.3555 Q2036.2656,1409.168 2037.8594,1409.168 Q2038.7969,1409.168 2039.4531,1408.918 Q2039.8438,1408.7617 2040.2656,1408.3242 Q2040.5313,1408.0586 2040.6719,1407.9805 Q2040.8281,1407.9023 2041.0313,1407.9023 Q2041.3594,1407.9023 2041.6094,1408.168 Q2041.875,1408.418 2041.875,1408.7617 Q2041.875,1409.1055 2041.5313,1409.5117 Q2041.0313,1410.0898 2040.2344,1410.418 Q2039.1563,1410.8711 2037.8594,1410.8711 Q2036.3438,1410.8711 2035.1406,1410.2461 Q2034.1563,1409.7461 2033.4688,1408.6836 Q2032.7813,1407.6055 2032.7813,1406.3242 L2032.7813,1405.168 Q2032.7813,1403.8398 2033.3906,1402.6992 Q2034.0156,1401.543 2035.1094,1400.9336 Q2036.2031,1400.3086 2037.4375,1400.3086 Q2038.1719,1400.3086 2038.8125,1400.4805 Q2039.4688,1400.6367 2040.0156,1400.9961 Z " fill="#000000"/><text fill="#000000" font-family="sans-serif" font-size="14" lengthAdjust="spacing" textLength="35" x="2057.75" y="1410.918">Mode</text><line style="stroke:#181818;stroke-width:0.5;" x1="1989" x2="2129" y1="1421.1211" y2="1421.1211"/><rect fill="none" height="6" style="stroke:#C82930;stroke-width:1.0;" width="6" x="1996" y="1432.9316"/><text fill="#000000" font-family="sans-serif" font-size="14" lengthAdjust="spacing" textLength="106" x="2008" y="1440.2285">modeDescription</text><line style="stroke:#181818;stroke-width:0.5;" x1="1989" x2="2129" y1="1447.7422" y2="1447.7422"/><ellipse cx="1999" cy="1462.5527" fill="#84BE84" rx="3" ry="3" style="stroke:#038048;stroke-width:1.0;"/><text fill="#000000" font-family="sans-serif" font-size="14" lengthAdjust="spacing" textLength="116" x="2008" y="1466.8496">modeDescription()</text></g><!--class ContractType--><g id="elem_ContractType"><rect codeLine="134" fill="#F1F1F1" height="85.2422" id="ContractType" rx="2.5" ry="2.5" style="stroke:#181818;stroke-width:0.5;" width="168" x="2165" y="1389.1211"/><ellipse cx="2202.5" cy="1405.1211" fill="#ADD1B2" rx="11" ry="11" style="stroke:#181818;stroke-width:1.0;"/><path d="M2205.2656,1400.9961 Q2205.4219,1400.7773 2205.6094,1400.668 Q2205.7969,1400.5586 2206.0156,1400.5586 Q2206.3906,1400.5586 2206.625,1400.8242 Q2206.8594,1401.0742 2206.8594,1401.6836 L2206.8594,1403.1367 Q2206.8594,1403.7461 2206.625,1404.0117 Q2206.3906,1404.2773 2206.0156,1404.2773 Q2205.6719,1404.2773 2205.4688,1404.0742 Q2205.2656,1403.8867 2205.1563,1403.3711 Q2205.1094,1403.0117 2204.9219,1402.8242 Q2204.5938,1402.4492 2203.9844,1402.2305 Q2203.375,1402.0117 2202.75,1402.0117 Q2201.9844,1402.0117 2201.3438,1402.3398 Q2200.7188,1402.668 2200.2188,1403.418 Q2199.7344,1404.168 2199.7344,1405.1992 L2199.7344,1406.293 Q2199.7344,1407.5273 2200.625,1408.3555 Q2201.5156,1409.168 2203.1094,1409.168 Q2204.0469,1409.168 2204.7031,1408.918 Q2205.0938,1408.7617 2205.5156,1408.3242 Q2205.7813,1408.0586 2205.9219,1407.9805 Q2206.0781,1407.9023 2206.2813,1407.9023 Q2206.6094,1407.9023 2206.8594,1408.168 Q2207.125,1408.418 2207.125,1408.7617 Q2207.125,1409.1055 2206.7813,1409.5117 Q2206.2813,1410.0898 2205.4844,1410.418 Q2204.4063,1410.8711 2203.1094,1410.8711 Q2201.5938,1410.8711 2200.3906,1410.2461 Q2199.4063,1409.7461 2198.7188,1408.6836 Q2198.0313,1407.6055 2198.0313,1406.3242 L2198.0313,1405.168 Q2198.0313,1403.8398 2198.6406,1402.6992 Q2199.2656,1401.543 2200.3594,1400.9336 Q2201.4531,1400.3086 2202.6875,1400.3086 Q2203.4219,1400.3086 2204.0625,1400.4805 Q2204.7188,1400.6367 2205.2656,1400.9961 Z " fill="#000000"/><text fill="#000000" font-family="sans-serif" font-size="14" lengthAdjust="spacing" textLength="86" x="2221.5" y="1410.918">ContractType</text><line style="stroke:#181818;stroke-width:0.5;" x1="2166" x2="2332" y1="1421.1211" y2="1421.1211"/><rect fill="none" height="6" style="stroke:#C82930;stroke-width:1.0;" width="6" x="2173" y="1432.9316"/><text fill="#000000" font-family="sans-serif" font-size="14" lengthAdjust="spacing" textLength="132" x="2185" y="1440.2285">contractType : String</text><line style="stroke:#181818;stroke-width:0.5;" x1="2166" x2="2332" y1="1447.7422" y2="1447.7422"/><ellipse cx="2176" cy="1462.5527" fill="#84BE84" rx="3" ry="3" style="stroke:#038048;stroke-width:1.0;"/><text fill="#000000" font-family="sans-serif" font-size="14" lengthAdjust="spacing" textLength="142" x="2185" y="1466.8496">contractType() : String</text></g><!--class PersistenceContext--><g id="elem_PersistenceContext"><rect codeLine="140" fill="#F1F1F1" height="66.6211" id="PersistenceContext" rx="2.5" ry="2.5" style="stroke:#181818;stroke-width:0.5;" width="154" x="1509" y="320.6211"/><ellipse cx="1524" cy="336.6211" fill="#ADD1B2" rx="11" ry="11" style="stroke:#181818;stroke-width:1.0;"/><path d="M1526.7656,332.4961 Q1526.9219,332.2773 1527.1094,332.168 Q1527.2969,332.0586 1527.5156,332.0586 Q1527.8906,332.0586 1528.125,332.3242 Q1528.3594,332.5742 1528.3594,333.1836 L1528.3594,334.6367 Q1528.3594,335.2461 1528.125,335.5117 Q1527.8906,335.7773 1527.5156,335.7773 Q1527.1719,335.7773 1526.9688,335.5742 Q1526.7656,335.3867 1526.6563,334.8711 Q1526.6094,334.5117 1526.4219,334.3242 Q1526.0938,333.9492 1525.4844,333.7305 Q1524.875,333.5117 1524.25,333.5117 Q1523.4844,333.5117 1522.8438,333.8398 Q1522.2188,334.168 1521.7188,334.918 Q1521.2344,335.668 1521.2344,336.6992 L1521.2344,337.793 Q1521.2344,339.0273 1522.125,339.8555 Q1523.0156,340.668 1524.6094,340.668 Q1525.5469,340.668 1526.2031,340.418 Q1526.5938,340.2617 1527.0156,339.8242 Q1527.2813,339.5586 1527.4219,339.4805 Q1527.5781,339.4023 1527.7813,339.4023 Q1528.1094,339.4023 1528.3594,339.668 Q1528.625,339.918 1528.625,340.2617 Q1528.625,340.6055 1528.2813,341.0117 Q1527.7813,341.5898 1526.9844,341.918 Q1525.9063,342.3711 1524.6094,342.3711 Q1523.0938,342.3711 1521.8906,341.7461 Q1520.9063,341.2461 1520.2188,340.1836 Q1519.5313,339.1055 1519.5313,337.8242 L1519.5313,336.668 Q1519.5313,335.3398 1520.1406,334.1992 Q1520.7656,333.043 1521.8594,332.4336 Q1522.9531,331.8086 1524.1875,331.8086 Q1524.9219,331.8086 1525.5625,331.9805 Q1526.2188,332.1367 1526.7656,332.4961 Z " fill="#000000"/><text fill="#000000" font-family="sans-serif" font-size="14" lengthAdjust="spacing" textLength="122" x="1538" y="342.418">PersistenceContext</text><line style="stroke:#181818;stroke-width:0.5;" x1="1510" x2="1662" y1="352.6211" y2="352.6211"/><line style="stroke:#181818;stroke-width:0.5;" x1="1510" x2="1662" y1="360.6211" y2="360.6211"/><ellipse cx="1520" cy="375.4316" fill="#84BE84" rx="3" ry="3" style="stroke:#038048;stroke-width:1.0;"/><text fill="#000000" font-family="sans-serif" font-size="14" lengthAdjust="spacing" textLength="84" x="1529" y="379.7285">repositories()</text></g><!--class RepositoryFactory--><g id="elem_RepositoryFactory"><rect codeLine="144" fill="#F1F1F1" height="85.2422" id="RepositoryFactory" rx="2.5" ry="2.5" style="stroke:#181818;stroke-width:0.5;" width="250" x="1485" y="448.6211"/><ellipse cx="1547.75" cy="464.6211" fill="#B4A7E5" rx="11" ry="11" style="stroke:#181818;stroke-width:1.0;"/><path d="M1548.7031,461.2617 L1548.7031,467.918 L1550.4219,467.918 Q1551.0313,467.918 1551.2969,468.1523 Q1551.5625,468.3867 1551.5625,468.7773 Q1551.5625,469.1523 1551.2969,469.3867 Q1551.0313,469.6211 1550.4219,469.6211 L1545.2813,469.6211 Q1544.6719,469.6211 1544.4063,469.3867 Q1544.1406,469.1523 1544.1406,468.7617 Q1544.1406,468.3867 1544.4063,468.1523 Q1544.6719,467.918 1545.2813,467.918 L1547,467.918 L1547,461.2617 L1545.2813,461.2617 Q1544.6719,461.2617 1544.4063,461.0273 Q1544.1406,460.793 1544.1406,460.4023 Q1544.1406,460.0273 1544.4063,459.793 Q1544.6719,459.5586 1545.2813,459.5586 L1550.4219,459.5586 Q1551.0313,459.5586 1551.2969,459.793 Q1551.5625,460.0273 1551.5625,460.4023 Q1551.5625,460.793 1551.2969,461.0273 Q1551.0313,461.2617 1550.4219,461.2617 L1548.7031,461.2617 Z " fill="#000000"/><text fill="#000000" font-family="sans-serif" font-size="14" font-style="italic" lengthAdjust="spacing" textLength="116" x="1568.25" y="470.418">RepositoryFactory</text><line style="stroke:#181818;stroke-width:0.5;" x1="1486" x2="1734" y1="480.6211" y2="480.6211"/><line style="stroke:#181818;stroke-width:0.5;" x1="1486" x2="1734" y1="488.6211" y2="488.6211"/><text fill="#000000" font-family="sans-serif" font-size="14" lengthAdjust="spacing" textLength="90" x="1491" y="507.7285">jobOpenings()</text><text fill="#000000" font-family="sans-serif" font-size="14" lengthAdjust="spacing" textLength="238" x="1491" y="526.3496">jobOpenings(TransactionalContext tx)</text></g><!--class JobOpeningRepository--><g id="elem_JobOpeningRepository"><rect codeLine="149" fill="#F1F1F1" height="85.2422" id="JobOpeningRepository" rx="2.5" ry="2.5" style="stroke:#181818;stroke-width:0.5;" width="177" x="1363.5" y="594.6211"/><ellipse cx="1378.5" cy="610.6211" fill="#B4A7E5" rx="11" ry="11" style="stroke:#181818;stroke-width:1.0;"/><path d="M1379.4531,607.2617 L1379.4531,613.918 L1381.1719,613.918 Q1381.7813,613.918 1382.0469,614.1523 Q1382.3125,614.3867 1382.3125,614.7773 Q1382.3125,615.1523 1382.0469,615.3867 Q1381.7813,615.6211 1381.1719,615.6211 L1376.0313,615.6211 Q1375.4219,615.6211 1375.1563,615.3867 Q1374.8906,615.1523 1374.8906,614.7617 Q1374.8906,614.3867 1375.1563,614.1523 Q1375.4219,613.918 1376.0313,613.918 L1377.75,613.918 L1377.75,607.2617 L1376.0313,607.2617 Q1375.4219,607.2617 1375.1563,607.0273 Q1374.8906,606.793 1374.8906,606.4023 Q1374.8906,606.0273 1375.1563,605.793 Q1375.4219,605.5586 1376.0313,605.5586 L1381.1719,605.5586 Q1381.7813,605.5586 1382.0469,605.793 Q1382.3125,606.0273 1382.3125,606.4023 Q1382.3125,606.793 1382.0469,607.0273 Q1381.7813,607.2617 1381.1719,607.2617 L1379.4531,607.2617 Z " fill="#000000"/><text fill="#000000" font-family="sans-serif" font-size="14" font-style="italic" lengthAdjust="spacing" textLength="145" x="1392.5" y="616.418">JobOpeningRepository</text><line style="stroke:#181818;stroke-width:0.5;" x1="1364.5" x2="1539.5" y1="626.6211" y2="626.6211"/><line style="stroke:#181818;stroke-width:0.5;" x1="1364.5" x2="1539.5" y1="634.6211" y2="634.6211"/><text fill="#000000" font-family="sans-serif" font-size="14" lengthAdjust="spacing" textLength="90" x="1369.5" y="653.7285">jobOpenings()</text><text fill="#000000" font-family="sans-serif" font-size="14" lengthAdjust="spacing" textLength="113" x="1369.5" y="672.3496">save(jobOpening)</text></g><!--class PluginType--><g id="elem_PluginType"><rect codeLine="156" fill="#F1F1F1" height="141.1055" id="PluginType" rx="2.5" ry="2.5" style="stroke:#181818;stroke-width:0.5;" width="212" x="628" y="1619.1211"/><ellipse cx="694.25" cy="1635.1211" fill="#ADD1B2" rx="11" ry="11" style="stroke:#181818;stroke-width:1.0;"/><path d="M697.0156,1630.9961 Q697.1719,1630.7773 697.3594,1630.668 Q697.5469,1630.5586 697.7656,1630.5586 Q698.1406,1630.5586 698.375,1630.8242 Q698.6094,1631.0742 698.6094,1631.6836 L698.6094,1633.1367 Q698.6094,1633.7461 698.375,1634.0117 Q698.1406,1634.2773 697.7656,1634.2773 Q697.4219,1634.2773 697.2188,1634.0742 Q697.0156,1633.8867 696.9063,1633.3711 Q696.8594,1633.0117 696.6719,1632.8242 Q696.3438,1632.4492 695.7344,1632.2305 Q695.125,1632.0117 694.5,1632.0117 Q693.7344,1632.0117 693.0938,1632.3398 Q692.4688,1632.668 691.9688,1633.418 Q691.4844,1634.168 691.4844,1635.1992 L691.4844,1636.293 Q691.4844,1637.5273 692.375,1638.3555 Q693.2656,1639.168 694.8594,1639.168 Q695.7969,1639.168 696.4531,1638.918 Q696.8438,1638.7617 697.2656,1638.3242 Q697.5313,1638.0586 697.6719,1637.9805 Q697.8281,1637.9023 698.0313,1637.9023 Q698.3594,1637.9023 698.6094,1638.168 Q698.875,1638.418 698.875,1638.7617 Q698.875,1639.1055 698.5313,1639.5117 Q698.0313,1640.0898 697.2344,1640.418 Q696.1563,1640.8711 694.8594,1640.8711 Q693.3438,1640.8711 692.1406,1640.2461 Q691.1563,1639.7461 690.4688,1638.6836 Q689.7813,1637.6055 689.7813,1636.3242 L689.7813,1635.168 Q689.7813,1633.8398 690.3906,1632.6992 Q691.0156,1631.543 692.1094,1630.9336 Q693.2031,1630.3086 694.4375,1630.3086 Q695.1719,1630.3086 695.8125,1630.4805 Q696.4688,1630.6367 697.0156,1630.9961 Z " fill="#000000"/><text fill="#000000" font-family="sans-serif" font-size="14" lengthAdjust="spacing" textLength="71" x="714.75" y="1640.918">PluginType</text><line style="stroke:#181818;stroke-width:0.5;" x1="629" x2="839" y1="1651.1211" y2="1651.1211"/><rect fill="none" height="6" style="stroke:#C82930;stroke-width:1.0;" width="6" x="636" y="1662.9316"/><text fill="#000000" font-family="sans-serif" font-size="14" lengthAdjust="spacing" textLength="113" x="648" y="1670.2285">shorthand : String</text><rect fill="none" height="6" style="stroke:#C82930;stroke-width:1.0;" width="6" x="636" y="1681.5527"/><text fill="#000000" font-family="sans-serif" font-size="14" lengthAdjust="spacing" textLength="155" x="648" y="1688.8496">pluginTypeName : String</text><line style="stroke:#181818;stroke-width:0.5;" x1="629" x2="839" y1="1696.3633" y2="1696.3633"/><ellipse cx="639" cy="1711.1738" fill="#84BE84" rx="3" ry="3" style="stroke:#038048;stroke-width:1.0;"/><text fill="#000000" font-family="sans-serif" font-size="14" lengthAdjust="spacing" textLength="156" x="648" y="1715.4707">isValid(String shorthand)</text><ellipse cx="639" cy="1729.7949" fill="#84BE84" rx="3" ry="3" style="stroke:#038048;stroke-width:1.0;"/><text fill="#000000" font-family="sans-serif" font-size="14" lengthAdjust="spacing" textLength="181" x="648" y="1734.0918">getShorthandName() : String</text><ellipse cx="639" cy="1748.416" fill="#84BE84" rx="3" ry="3" style="stroke:#038048;stroke-width:1.0;"/><text fill="#000000" font-family="sans-serif" font-size="14" lengthAdjust="spacing" textLength="186" x="648" y="1752.7129">getPluginTypeName() : String</text></g><!--class PluginIdentifier--><g id="elem_PluginIdentifier"><rect codeLine="164" fill="#F1F1F1" height="85.2422" id="PluginIdentifier" rx="2.5" ry="2.5" style="stroke:#181818;stroke-width:0.5;" width="234" x="7" y="1647.1211"/><ellipse cx="73.25" cy="1663.1211" fill="#ADD1B2" rx="11" ry="11" style="stroke:#181818;stroke-width:1.0;"/><path d="M76.0156,1658.9961 Q76.1719,1658.7773 76.3594,1658.668 Q76.5469,1658.5586 76.7656,1658.5586 Q77.1406,1658.5586 77.375,1658.8242 Q77.6094,1659.0742 77.6094,1659.6836 L77.6094,1661.1367 Q77.6094,1661.7461 77.375,1662.0117 Q77.1406,1662.2773 76.7656,1662.2773 Q76.4219,1662.2773 76.2188,1662.0742 Q76.0156,1661.8867 75.9063,1661.3711 Q75.8594,1661.0117 75.6719,1660.8242 Q75.3438,1660.4492 74.7344,1660.2305 Q74.125,1660.0117 73.5,1660.0117 Q72.7344,1660.0117 72.0938,1660.3398 Q71.4688,1660.668 70.9688,1661.418 Q70.4844,1662.168 70.4844,1663.1992 L70.4844,1664.293 Q70.4844,1665.5273 71.375,1666.3555 Q72.2656,1667.168 73.8594,1667.168 Q74.7969,1667.168 75.4531,1666.918 Q75.8438,1666.7617 76.2656,1666.3242 Q76.5313,1666.0586 76.6719,1665.9805 Q76.8281,1665.9023 77.0313,1665.9023 Q77.3594,1665.9023 77.6094,1666.168 Q77.875,1666.418 77.875,1666.7617 Q77.875,1667.1055 77.5313,1667.5117 Q77.0313,1668.0898 76.2344,1668.418 Q75.1563,1668.8711 73.8594,1668.8711 Q72.3438,1668.8711 71.1406,1668.2461 Q70.1563,1667.7461 69.4688,1666.6836 Q68.7813,1665.6055 68.7813,1664.3242 L68.7813,1663.168 Q68.7813,1661.8398 69.3906,1660.6992 Q70.0156,1659.543 71.1094,1658.9336 Q72.2031,1658.3086 73.4375,1658.3086 Q74.1719,1658.3086 74.8125,1658.4805 Q75.4688,1658.6367 76.0156,1658.9961 Z " fill="#000000"/><text fill="#000000" font-family="sans-serif" font-size="14" lengthAdjust="spacing" textLength="93" x="93.75" y="1668.918">PluginIdentifier</text><line style="stroke:#181818;stroke-width:0.5;" x1="8" x2="240" y1="1679.1211" y2="1679.1211"/><rect fill="none" height="6" style="stroke:#C82930;stroke-width:1.0;" width="6" x="15" y="1690.9316"/><text fill="#000000" font-family="sans-serif" font-size="14" lengthAdjust="spacing" textLength="103" x="27" y="1698.2285">identifier : String</text><line style="stroke:#181818;stroke-width:0.5;" x1="8" x2="240" y1="1705.7422" y2="1705.7422"/><ellipse cx="18" cy="1720.5527" fill="#84BE84" rx="3" ry="3" style="stroke:#038048;stroke-width:1.0;"/><text fill="#000000" font-family="sans-serif" font-size="14" lengthAdjust="spacing" textLength="208" x="27" y="1724.8496">validateIdentifier(String identifier)</text></g><!--link GenerateInterviewModelUI to GenerateInterviewModelController--><g id="link_GenerateInterviewModelUI_GenerateInterviewModelController"><path codeLine="169" d="M1452,94.8311 C1452,111.4911 1452,128.5911 1452,149.4811 " fill="none" id="GenerateInterviewModelUI-to-GenerateInterviewModelController" style="stroke:#181818;stroke-width:1.0;stroke-dasharray:7.0,7.0;"/><polygon fill="#181818" points="1452,155.4811,1456,146.4811,1452,150.4811,1448,146.4811,1452,155.4811" style="stroke:#181818;stroke-width:1.0;"/></g><!--link Customer to Address--><g id="link_Customer_Address"><path codeLine="170" d="M1718.1,1530.1311 C1696.15,1556.2711 1676.5395,1579.6272 1655.5195,1604.6472 " fill="none" id="Customer-to-Address" style="stroke:#181818;stroke-width:1.0;"/><polygon fill="#181818" points="1651.66,1609.2411,1660.5119,1604.9232,1654.8762,1605.4128,1654.3866,1599.7772,1651.66,1609.2411" style="stroke:#181818;stroke-width:1.0;"/></g><!--link JobOpening to Address--><g id="link_JobOpening_Address"><path codeLine="171" d="M1543.26,1253.9611 C1548.89,1274.3111 1553.92,1294.7011 1558,1314.6211 C1578.54,1414.9111 1583.9364,1527.1118 1585.1264,1603.3718 " fill="none" id="JobOpening-to-Address" style="stroke:#181818;stroke-width:1.0;"/><polygon fill="#181818" points="1585.22,1609.3711,1589.0791,1600.3098,1585.142,1604.3717,1581.0801,1600.4346,1585.22,1609.3711" style="stroke:#181818;stroke-width:1.0;"/></g><!--link JobOpening to Mode--><g id="link_JobOpening_Mode"><path codeLine="172" d="M1600.76,1075.7011 C1710.39,1130.6611 1859.23,1214.9311 1971,1314.6211 C1995.24,1336.2411 2013.9628,1360.4083 2029.9428,1384.0783 " fill="none" id="JobOpening-to-Mode" style="stroke:#181818;stroke-width:1.0;"/><polygon fill="#181818" points="2033.3,1389.0511,2031.5794,1379.3537,2030.5023,1384.9071,2024.9489,1383.83,2033.3,1389.0511" style="stroke:#181818;stroke-width:1.0;"/></g><!--link JobOpening to ContractType--><g id="link_JobOpening_ContractType"><path codeLine="173" d="M1600.79,1051.6211 C1748.88,1100.5811 1978,1189.3111 2148,1314.6211 C2175.94,1335.2211 2197.9078,1360.043 2216.3478,1384.183 " fill="none" id="JobOpening-to-ContractType" style="stroke:#181818;stroke-width:1.0;"/><polygon fill="#181818" points="2219.99,1388.9511,2217.7054,1379.3709,2216.9548,1384.9777,2211.348,1384.2272,2219.99,1388.9511" style="stroke:#181818;stroke-width:1.0;"/></g><!--link JobOpening to Customer--><g id="link_JobOpening_Customer"><path codeLine="174" d="M1600.59,1187.9511 C1641.51,1237.7511 1680.5409,1285.2453 1715.9709,1328.3653 " fill="none" id="JobOpening-to-Customer" style="stroke:#181818;stroke-width:1.0;"/><polygon fill="#181818" points="1719.78,1333.0011,1717.1569,1323.508,1716.6058,1329.1379,1710.9758,1328.5867,1719.78,1333.0011" style="stroke:#181818;stroke-width:1.0;"/></g><!--link JobOpening to JobFunction--><g id="link_JobOpening_JobFunction"><path codeLine="175" d="M1303.33,1154.6011 C1253.84,1204.7211 1198.9,1261.4911 1150,1314.6211 C1124.79,1342.0111 1101.1168,1369.5533 1081.3268,1393.0333 " fill="none" id="JobOpening-to-JobFunction" style="stroke:#181818;stroke-width:1.0;"/><polygon fill="#181818" points="1077.46,1397.6211,1086.3187,1393.3173,1080.6823,1393.7979,1080.2017,1388.1615,1077.46,1397.6211" style="stroke:#181818;stroke-width:1.0;"/></g><!--link JobOpening to JobReference--><g id="link_JobOpening_JobReference"><path codeLine="176" d="M1452,1253.7811 C1452,1306.3011 1452,1349.8711 1452,1383.0911 " fill="none" id="JobOpening-to-JobReference" style="stroke:#181818;stroke-width:1.0;"/><polygon fill="#181818" points="1452,1389.0911,1456,1380.0911,1452,1384.0911,1448,1380.0911,1452,1389.0911" style="stroke:#181818;stroke-width:1.0;"/></g><!--link JobOpening to Description--><g id="link_JobOpening_Description"><path codeLine="177" d="M1303.29,1053.2111 C1184.3,1098.8111 1025.33,1181.3911 950,1314.6211 C887.04,1425.9711 917.6617,1581.6217 935.8317,1650.1217 " fill="none" id="JobOpening-to-Description" style="stroke:#181818;stroke-width:1.0;"/><polygon fill="#181818" points="937.37,1655.9211,938.9288,1646.1964,936.0881,1651.0882,931.1962,1648.2475,937.37,1655.9211" style="stroke:#181818;stroke-width:1.0;"/></g><!--link JobOpening to NumberOfVacancies--><g id="link_JobOpening_NumberOfVacancies"><path codeLine="178" d="M1333.18,1253.7811 C1305.52,1311.2011 1282.1647,1359.7059 1266.3347,1392.5559 " fill="none" id="JobOpening-to-NumberOfVacancies" style="stroke:#181818;stroke-width:1.0;"/><polygon fill="#181818" points="1263.73,1397.9611,1271.2404,1391.5898,1265.9006,1393.4568,1264.0336,1388.1169,1263.73,1397.9611" style="stroke:#181818;stroke-width:1.0;"/></g><!--link JobOpening to Plugin--><g id="link_JobOpening_Plugin"><path codeLine="179" d="M1303.48,1078.9811 C1189.53,1134.3511 1028.46,1213.1011 888,1283.6211 C848.34,1303.5311 811.0579,1322.5212 771.1579,1343.0012 " fill="none" id="JobOpening-to-Plugin" style="stroke:#181818;stroke-width:1.0;"/><polygon fill="#181818" points="765.82,1345.7411,775.6534,1345.1899,770.2683,1343.4579,772.0003,1338.0727,765.82,1345.7411" style="stroke:#181818;stroke-width:1.0;"/></g><!--link SystemUser to EmailAddress--><g id="link_SystemUser_EmailAddress"><path codeLine="181" d="M1802.1,1750.6311 C1787.49,1785.8411 1771.89,1823.4194 1759.85,1852.4294 " fill="none" id="SystemUser-to-EmailAddress" style="stroke:#181818;stroke-width:1.0;"/><polygon fill="#181818" points="1757.55,1857.9711,1764.6944,1851.1919,1759.4666,1853.353,1757.3055,1848.1253,1757.55,1857.9711" style="stroke:#181818;stroke-width:1.0;"/></g><!--link Customer to Code--><g id="link_Customer_Code"><path codeLine="182" d="M1881.9,1530.1311 C1915.84,1570.5411 1949.5312,1610.6666 1976.0712,1642.2666 " fill="none" id="Customer-to-Code" style="stroke:#181818;stroke-width:1.0;"/><polygon fill="#181818" points="1979.93,1646.8611,1977.2048,1637.3968,1976.7143,1643.0323,1971.0788,1642.5419,1979.93,1646.8611" style="stroke:#181818;stroke-width:1.0;"/></g><!--link Customer to SystemUser--><g id="link_Customer_SystemUser"><path codeLine="183" d="M1810.28,1530.1311 C1813.77,1563.2011 1816.9305,1593.1742 1820.0205,1622.4642 " fill="none" id="Customer-to-SystemUser" style="stroke:#181818;stroke-width:1.0;"/><polygon fill="#181818" points="1820.65,1628.4311,1823.6837,1619.0611,1820.1254,1623.4587,1815.7278,1619.9004,1820.65,1628.4311" style="stroke:#181818;stroke-width:1.0;"/></g><!--link PersistenceContext to RepositoryFactory--><g id="link_PersistenceContext_RepositoryFactory"><path codeLine="185" d="M1591.81,387.8011 C1595.06,406.0611 1598.0775,423.0941 1601.5575,442.6241 " fill="none" id="PersistenceContext-to-RepositoryFactory" style="stroke:#181818;stroke-width:1.0;"/><polygon fill="#181818" points="1602.61,448.5311,1604.9692,438.969,1601.7329,443.6086,1597.0932,440.3724,1602.61,448.5311" style="stroke:#181818;stroke-width:1.0;"/></g><!--link SystemUser to Name--><g id="link_SystemUser_Name"><path codeLine="186" d="M1851.9,1750.6311 C1862.36,1775.8211 1872.2003,1799.5393 1882.6703,1824.7693 " fill="none" id="SystemUser-to-Name" style="stroke:#181818;stroke-width:1.0;"/><polygon fill="#181818" points="1884.97,1830.3111,1885.2149,1820.4653,1883.0536,1825.693,1877.8259,1823.5316,1884.97,1830.3111" style="stroke:#181818;stroke-width:1.0;"/></g><!--link Plugin to PluginType--><g id="link_Plugin_PluginType"><path codeLine="187" d="M661.82,1548.6411 C674.17,1572.5811 684.05,1591.7584 695.23,1613.4384 " fill="none" id="Plugin-to-PluginType" style="stroke:#181818;stroke-width:1.0;"/><polygon fill="#181818" points="697.98,1618.7711,697.4102,1608.9387,695.6884,1614.3272,690.2999,1612.6054,697.98,1618.7711" style="stroke:#181818;stroke-width:1.0;"/></g><!--link Plugin to Description--><g id="link_Plugin_Description"><path codeLine="188" d="M765.54,1542.0311 C796.37,1563.8111 828.02,1586.9711 857,1609.6211 C875.51,1624.0911 890.744,1637.1743 906.984,1651.7443 " fill="none" id="Plugin-to-Description" style="stroke:#181818;stroke-width:1.0;"/><polygon fill="#181818" points="911.45,1655.7511,907.4221,1646.7635,907.7283,1652.4121,902.0797,1652.7183,911.45,1655.7511" style="stroke:#181818;stroke-width:1.0;"/></g><!--link Plugin to PluginIdentifier--><g id="link_Plugin_PluginIdentifier"><path codeLine="189" d="M438.25,1514.4511 C380.86,1543.7711 316.23,1577.5111 258,1609.6211 C236.6,1621.4211 218.7441,1631.6963 197.9341,1644.0063 " fill="none" id="Plugin-to-PluginIdentifier" style="stroke:#181818;stroke-width:1.0;"/><polygon fill="#181818" points="192.77,1647.0611,202.5527,1645.9216,197.0734,1644.5154,198.4797,1639.0361,192.77,1647.0611" style="stroke:#181818;stroke-width:1.0;"/></g><!--link Plugin to PluginMainClassName--><g id="link_Plugin_PluginMainClassName"><path codeLine="190" d="M558.95,1548.6411 C545.89,1583.8311 534.4672,1614.6058 524.4972,1641.4758 " fill="none" id="Plugin-to-PluginMainClassName" style="stroke:#181818;stroke-width:1.0;"/><polygon fill="#181818" points="522.41,1647.1011,529.291,1640.0547,524.1494,1642.4134,521.7907,1637.2717,522.41,1647.1011" style="stroke:#181818;stroke-width:1.0;"/></g><!--link Plugin to JarFileName--><g id="link_Plugin_JarFileName"><path codeLine="191" d="M467.5,1548.7911 C445.58,1568.7011 423.39,1589.4711 403,1609.6211 C388.08,1624.3611 376.3071,1637.0063 363.3371,1651.5263 " fill="none" id="Plugin-to-JarFileName" style="stroke:#181818;stroke-width:1.0;"/><polygon fill="#181818" points="359.34,1656.0011,368.3188,1651.9537,362.6709,1652.2721,362.3524,1646.6243,359.34,1656.0011" style="stroke:#181818;stroke-width:1.0;"/></g><!--link GenerateInterviewModelController to PersistenceContext--><g id="link_GenerateInterviewModelController_PersistenceContext"><path codeLine="192" d="M1499.62,259.9711 C1518.28,280.0911 1535.0507,298.1712 1551.5907,316.0112 " fill="none" id="GenerateInterviewModelController-to-PersistenceContext" style="stroke:#181818;stroke-width:1.0;stroke-dasharray:7.0,7.0;"/><polygon fill="#181818" points="1555.67,320.4111,1552.4843,311.0917,1552.2706,316.7445,1546.6178,316.5307,1555.67,320.4111" style="stroke:#181818;stroke-width:1.0;"/></g><!--link GenerateInterviewModelController to JobOpeningRepository--><g id="link_GenerateInterviewModelController_JobOpeningRepository"><path codeLine="194" d="M1452,259.7611 C1452,345.3111 1452,509.7811 1452,588.5011 " fill="none" id="GenerateInterviewModelController-to-JobOpeningRepository" style="stroke:#181818;stroke-width:1.0;stroke-dasharray:7.0,7.0;"/><polygon fill="#181818" points="1452,594.5011,1456,585.5011,1452,589.5011,1448,585.5011,1452,594.5011" style="stroke:#181818;stroke-width:1.0;"/></g><!--link RepositoryFactory to JobOpeningRepository--><g id="link_RepositoryFactory_JobOpeningRepository"><path codeLine="195" d="M1564.3,533.7711 C1543.34,552.8811 1522.9849,571.4299 1502.0349,590.5199 " fill="none" id="RepositoryFactory-to-JobOpeningRepository" style="stroke:#181818;stroke-width:1.0;stroke-dasharray:7.0,7.0;"/><polygon fill="#181818" points="1497.6,594.5611,1506.9465,591.4559,1501.2958,591.1934,1501.5583,585.5427,1497.6,594.5611" style="stroke:#181818;stroke-width:1.0;"/></g><!--link JobOpeningRepository to JobOpening--><g id="link_JobOpeningRepository_JobOpening"><path codeLine="196" d="M1452,679.8611 C1452,700.9011 1452,722.3011 1452,752.2711 " fill="none" id="JobOpeningRepository-to-JobOpening" style="stroke:#181818;stroke-width:1.0;"/><polygon fill="#181818" points="1452,758.2711,1456,749.2711,1452,753.2711,1448,749.2711,1452,758.2711" style="stroke:#181818;stroke-width:1.0;"/><text fill="#000000" font-family="sans-serif" font-size="13" lengthAdjust="spacing" textLength="36" x="1453" y="724.6494">stores</text><text fill="#000000" font-family="sans-serif" font-size="13" lengthAdjust="spacing" textLength="5" x="1446.9258" y="747.6947">*</text></g><!--SRC=[ZLPBRnit4BxpLn0-IIKsQ7eC2WEfL1SoOCVm8uVSw5rAeR4FWQJSg4B_UuUlvP2KdPvsEI_EVFFW66bwGI-U7Zx- -l4tsj2_n2WKDu9kHYFKgnH_qvkf4prz5CE-jupjfEZrz4o_xCKenzq5NVLSQxgMVAVuG4ZhZj7ERCPPMKsZKLFV2tKYZFSzs0bcz699Fz4D2FFdNloU69TEC3UJozxrXvqSGMvNtXbzNYHpz6N-NP9_t_VsQNDA8lwM6ov75-yj7yI9D2Dym9S7ey0WOVRed0k4Gfk2njxzRTOWv8cRJen6RgLGaVbut8kPRG-awOHkbTmREOt0MQTJrCaScvKpAcbUkBgIlGWYr-b429FE3NDqxbUUiUGP4d2-CUIRvM7ds1dda7xk7aFkEI7iu8ma8bRu9w6KRn22bD-BhL1YR5tSw0WM3iEpK5-sNtdBnrOA3HAt9StPk3gCRKZ0TJgHfhL5pLiJqhP2Hz8CK4X0jFL46jvrIcXxmsV_PvM7FH-F8IMhWpRJO2iXItYMRoLsKiCDzhIs3Gbgl1TZnvLbjkeWpG29krDJwo-xhuYaaR7IGsN6b9pX10Ra1m5d4vG1oH12Fdi88uOnSjmC9MPHScI74miuEKf4YY6al8M8LLc0MNkm4Ywl6m5ZMfXDjy2HK1pcqXeeqNCcpe3A2kXGfR_BmsKR8VDbkyxQlgpoganFiPpjU8JxTe3EB8ridSg1SgP_PWZg1egcguAeBmtP0nkG0o5CkgjfOTYWepQ-bcVsT80AmHB_o7thkobGIFFAUzc1tZVFMWGHwyeVqzGBZi2DzM9zEMeZXYVjW7gO3_RIphVmMzqQRDpmaUzARS8EyF7ZFr7XLJARTQZvjuixD_nPwwcL45XNcfl3-NFWia_m2dj4qAGYyODoAvKsjzcqR81VaDWiXbyn5WNFFcqsgjCCNLI1g5UngPD6K4dnf17kNwWO1euEW7LaPojZfFSsVoDkl4jsgcIpe20ibZYAD8zErKoFKLLZh0hjJYWDyyPsX3KfVfYJ7I7xIKipAUXHVwcR1biExNGVUSShC0oV4td1Mr5sUbHyrDmD2Du7-zJyA4ocroyPBwrg_YeMnIwKBoi12VrzKkOx7pjKE6aPACg7IltLjkJ24-Yil7GLyH2FLOK1youp-iuMbTOIS4_E1sGjZeKa6HrAuYxYj_O- -k73vKzNM18d2csQoxcLqUhn3jczSmKjUn9BNdpi2Zf-P6jMUfqB7kwAWbNlFeL0N0TI4pjorfWPCcxiPHGyDEk6SI9LMvJtkOuFAqfoos67g3ZGIXZjjnKlNqqH6o-bFoqHLqTrXEH_QfvhP58XyxReEQ8BukAN2xmZVwAG74WS-Gy0]--></g></svg>