<?xml version="1.0" encoding="us-ascii" standalone="no"?><svg xmlns="http://www.w3.org/2000/svg" xmlns:xlink="http://www.w3.org/1999/xlink" contentStyleType="text/css" height="145.5px" preserveAspectRatio="none" style="width:224px;height:145px;background:#FFFFFF;" version="1.1" viewBox="0 0 224 145" width="224.5px" zoomAndPan="magnify"><defs/><g><!--cluster Candidate Aggregate--><g id="cluster_Candidate Aggregate"><path d="M4.25,3 L78.75,3 A1.875,1.875 0 0 1 80,4.25 L83.5,13.8203 L157.25,13.8203 A1.25,1.25 0 0 1 158.5,15.0703 L158.5,140.75 A1.25,1.25 0 0 1 157.25,142 L4.25,142 A1.25,1.25 0 0 1 3,140.75 L3,4.25 A1.25,1.25 0 0 1 4.25,3 " fill="none" style="stroke:#000000;stroke-width:0.75;"/><line style="stroke:#000000;stroke-width:0.75;" x1="3" x2="83.5" y1="13.8203" y2="13.8203"/><text fill="#000000" font-family="sans-serif" font-size="7" font-weight="bold" lengthAdjust="spacing" textLength="74" x="5" y="10.3369">Candidate Aggregate</text></g><!--class Candidate--><g id="elem_Candidate"><rect codeLine="4" fill="#F1F1F1" height="36.4609" id="Candidate" rx="1.25" ry="1.25" style="stroke:#181818;stroke-width:0.25;" width="48.5" x="101.75" y="20"/><ellipse cx="109.25" cy="34.2305" fill="#ADD1B2" rx="5.5" ry="5.5" style="stroke:#181818;stroke-width:0.5;"/><path d="M110.6328,32.168 Q110.7109,32.0586 110.8047,32.0039 Q110.8984,31.9492 111.0078,31.9492 Q111.1953,31.9492 111.3125,32.082 Q111.4297,32.207 111.4297,32.5117 L111.4297,33.2383 Q111.4297,33.543 111.3125,33.6758 Q111.1953,33.8086 111.0078,33.8086 Q110.8359,33.8086 110.7344,33.707 Q110.6328,33.6133 110.5781,33.3555 Q110.5547,33.1758 110.4609,33.082 Q110.2969,32.8945 109.9922,32.7852 Q109.6875,32.6758 109.375,32.6758 Q108.9922,32.6758 108.6719,32.8398 Q108.3594,33.0039 108.1094,33.3789 Q107.8672,33.7539 107.8672,34.2695 L107.8672,34.8164 Q107.8672,35.4336 108.3125,35.8477 Q108.7578,36.2539 109.5547,36.2539 Q110.0234,36.2539 110.3516,36.1289 Q110.5469,36.0508 110.7578,35.832 Q110.8906,35.6992 110.9609,35.6602 Q111.0391,35.6211 111.1406,35.6211 Q111.3047,35.6211 111.4297,35.7539 Q111.5625,35.8789 111.5625,36.0508 Q111.5625,36.2227 111.3906,36.4258 Q111.1406,36.7148 110.7422,36.8789 Q110.2031,37.1055 109.5547,37.1055 Q108.7969,37.1055 108.1953,36.793 Q107.7031,36.543 107.3594,36.0117 Q107.0156,35.4727 107.0156,34.832 L107.0156,34.2539 Q107.0156,33.5898 107.3203,33.0195 Q107.6328,32.4414 108.1797,32.1367 Q108.7266,31.8242 109.3438,31.8242 Q109.7109,31.8242 110.0313,31.9102 Q110.3594,31.9883 110.6328,32.168 Z " fill="#000000"/><text fill="#000000" font-family="sans-serif" font-size="7" lengthAdjust="spacing" textLength="20.5" x="122.25" y="28.8369">&#171;root&#187;</text><text fill="#000000" font-family="sans-serif" font-size="7" lengthAdjust="spacing" textLength="25" x="120" y="36.6572">&#171;entity&#187;</text><text fill="#000000" font-family="sans-serif" font-size="7" lengthAdjust="spacing" textLength="32.5" x="116.25" y="44.4775">Candidate</text><line style="stroke:#181818;stroke-width:0.25;" x1="102.25" x2="149.75" y1="48.4609" y2="48.4609"/><line style="stroke:#181818;stroke-width:0.25;" x1="102.25" x2="149.75" y1="52.4609" y2="52.4609"/></g><!--class Name--><g id="elem_Name"><rect codeLine="8" fill="#F1F1F1" height="39.6406" id="Name" rx="1.25" ry="1.25" style="stroke:#181818;stroke-width:0.25;" width="35.5" x="32.25" y="94.5"/><ellipse cx="40.425" cy="102.5" fill="#ADD1B2" rx="5.5" ry="5.5" style="stroke:#181818;stroke-width:0.5;"/><path d="M41.8078,100.4375 Q41.8859,100.3281 41.9797,100.2734 Q42.0734,100.2188 42.1828,100.2188 Q42.3703,100.2188 42.4875,100.3516 Q42.6047,100.4766 42.6047,100.7813 L42.6047,101.5078 Q42.6047,101.8125 42.4875,101.9453 Q42.3703,102.0781 42.1828,102.0781 Q42.0109,102.0781 41.9094,101.9766 Q41.8078,101.8828 41.7531,101.625 Q41.7297,101.4453 41.6359,101.3516 Q41.4719,101.1641 41.1672,101.0547 Q40.8625,100.9453 40.55,100.9453 Q40.1672,100.9453 39.8469,101.1094 Q39.5344,101.2734 39.2844,101.6484 Q39.0422,102.0234 39.0422,102.5391 L39.0422,103.0859 Q39.0422,103.7031 39.4875,104.1172 Q39.9328,104.5234 40.7297,104.5234 Q41.1984,104.5234 41.5266,104.3984 Q41.7219,104.3203 41.9328,104.1016 Q42.0656,103.9688 42.1359,103.9297 Q42.2141,103.8906 42.3156,103.8906 Q42.4797,103.8906 42.6047,104.0234 Q42.7375,104.1484 42.7375,104.3203 Q42.7375,104.4922 42.5656,104.6953 Q42.3156,104.9844 41.9172,105.1484 Q41.3781,105.375 40.7297,105.375 Q39.9719,105.375 39.3703,105.0625 Q38.8781,104.8125 38.5344,104.2813 Q38.1906,103.7422 38.1906,103.1016 L38.1906,102.5234 Q38.1906,101.8594 38.4953,101.2891 Q38.8078,100.7109 39.3547,100.4063 Q39.9016,100.0938 40.5188,100.0938 Q40.8859,100.0938 41.2063,100.1797 Q41.5344,100.2578 41.8078,100.4375 Z " fill="#000000"/><text fill="#000000" font-family="sans-serif" font-size="7" lengthAdjust="spacing" textLength="18" x="47.575" y="104.9268">Name</text><line style="stroke:#181818;stroke-width:0.25;" x1="32.75" x2="67.25" y1="110.5" y2="110.5"/><text fill="#000000" font-family="sans-serif" font-size="7" lengthAdjust="spacing" textLength="29.5" x="35.25" y="118.8369">firstName</text><text fill="#000000" font-family="sans-serif" font-size="7" lengthAdjust="spacing" textLength="29" x="35.25" y="126.6572">lastName</text><line style="stroke:#181818;stroke-width:0.25;" x1="32.75" x2="67.25" y1="130.1406" y2="130.1406"/></g><!--class PhoneNumber--><g id="elem_PhoneNumber"><rect codeLine="13" fill="#F1F1F1" height="36.4609" id="PhoneNumber" rx="1.25" ry="1.25" style="stroke:#181818;stroke-width:0.25;" width="62" x="11" y="20"/><ellipse cx="18.5" cy="30.3203" fill="#ADD1B2" rx="5.5" ry="5.5" style="stroke:#181818;stroke-width:0.5;"/><path d="M19.8828,28.2578 Q19.9609,28.1484 20.0547,28.0938 Q20.1484,28.0391 20.2578,28.0391 Q20.4453,28.0391 20.5625,28.1719 Q20.6797,28.2969 20.6797,28.6016 L20.6797,29.3281 Q20.6797,29.6328 20.5625,29.7656 Q20.4453,29.8984 20.2578,29.8984 Q20.0859,29.8984 19.9844,29.7969 Q19.8828,29.7031 19.8281,29.4453 Q19.8047,29.2656 19.7109,29.1719 Q19.5469,28.9844 19.2422,28.875 Q18.9375,28.7656 18.625,28.7656 Q18.2422,28.7656 17.9219,28.9297 Q17.6094,29.0938 17.3594,29.4688 Q17.1172,29.8438 17.1172,30.3594 L17.1172,30.9063 Q17.1172,31.5234 17.5625,31.9375 Q18.0078,32.3438 18.8047,32.3438 Q19.2734,32.3438 19.6016,32.2188 Q19.7969,32.1406 20.0078,31.9219 Q20.1406,31.7891 20.2109,31.75 Q20.2891,31.7109 20.3906,31.7109 Q20.5547,31.7109 20.6797,31.8438 Q20.8125,31.9688 20.8125,32.1406 Q20.8125,32.3125 20.6406,32.5156 Q20.3906,32.8047 19.9922,32.9688 Q19.4531,33.1953 18.8047,33.1953 Q18.0469,33.1953 17.4453,32.8828 Q16.9531,32.6328 16.6094,32.1016 Q16.2656,31.5625 16.2656,30.9219 L16.2656,30.3438 Q16.2656,29.6797 16.5703,29.1094 Q16.8828,28.5313 17.4297,28.2266 Q17.9766,27.9141 18.5938,27.9141 Q18.9609,27.9141 19.2813,28 Q19.6094,28.0781 19.8828,28.2578 Z " fill="#000000"/><text fill="#000000" font-family="sans-serif" font-size="7" lengthAdjust="spacing" textLength="46" x="25.5" y="28.8369">&#171;value object&#187;</text><text fill="#000000" font-family="sans-serif" font-size="7" lengthAdjust="spacing" textLength="45" x="26" y="36.6572">PhoneNumber</text><line style="stroke:#181818;stroke-width:0.25;" x1="11.5" x2="72.5" y1="40.6406" y2="40.6406"/><text fill="#000000" font-family="sans-serif" font-size="7" lengthAdjust="spacing" textLength="44.5" x="14" y="48.9775">phoneNumber</text><line style="stroke:#181818;stroke-width:0.25;" x1="11.5" x2="72.5" y1="52.4609" y2="52.4609"/></g><!--class EMail--><g id="elem_EMail"><rect codeLine="17" fill="#F1F1F1" height="36.4609" id="EMail" rx="1.25" ry="1.25" style="stroke:#181818;stroke-width:0.25;" width="62" x="85.5" y="96"/><ellipse cx="93" cy="106.3203" fill="#ADD1B2" rx="5.5" ry="5.5" style="stroke:#181818;stroke-width:0.5;"/><path d="M94.3828,104.2578 Q94.4609,104.1484 94.5547,104.0938 Q94.6484,104.0391 94.7578,104.0391 Q94.9453,104.0391 95.0625,104.1719 Q95.1797,104.2969 95.1797,104.6016 L95.1797,105.3281 Q95.1797,105.6328 95.0625,105.7656 Q94.9453,105.8984 94.7578,105.8984 Q94.5859,105.8984 94.4844,105.7969 Q94.3828,105.7031 94.3281,105.4453 Q94.3047,105.2656 94.2109,105.1719 Q94.0469,104.9844 93.7422,104.875 Q93.4375,104.7656 93.125,104.7656 Q92.7422,104.7656 92.4219,104.9297 Q92.1094,105.0938 91.8594,105.4688 Q91.6172,105.8438 91.6172,106.3594 L91.6172,106.9063 Q91.6172,107.5234 92.0625,107.9375 Q92.5078,108.3438 93.3047,108.3438 Q93.7734,108.3438 94.1016,108.2188 Q94.2969,108.1406 94.5078,107.9219 Q94.6406,107.7891 94.7109,107.75 Q94.7891,107.7109 94.8906,107.7109 Q95.0547,107.7109 95.1797,107.8438 Q95.3125,107.9688 95.3125,108.1406 Q95.3125,108.3125 95.1406,108.5156 Q94.8906,108.8047 94.4922,108.9688 Q93.9531,109.1953 93.3047,109.1953 Q92.5469,109.1953 91.9453,108.8828 Q91.4531,108.6328 91.1094,108.1016 Q90.7656,107.5625 90.7656,106.9219 L90.7656,106.3438 Q90.7656,105.6797 91.0703,105.1094 Q91.3828,104.5313 91.9297,104.2266 Q92.4766,103.9141 93.0938,103.9141 Q93.4609,103.9141 93.7813,104 Q94.1094,104.0781 94.3828,104.2578 Z " fill="#000000"/><text fill="#000000" font-family="sans-serif" font-size="7" lengthAdjust="spacing" textLength="46" x="100" y="104.8369">&#171;value object&#187;</text><text fill="#000000" font-family="sans-serif" font-size="7" lengthAdjust="spacing" textLength="19.5" x="113.25" y="112.6572">E-Mail</text><line style="stroke:#181818;stroke-width:0.25;" x1="86" x2="147" y1="116.6406" y2="116.6406"/><text fill="#000000" font-family="sans-serif" font-size="7" lengthAdjust="spacing" textLength="16.5" x="88.5" y="124.9775">email</text><line style="stroke:#181818;stroke-width:0.25;" x1="86" x2="147" y1="128.4609" y2="128.4609"/></g><!--class UserDomain--><g id="elem_UserDomain"><rect codeLine="24" fill="#F1F1F1" height="24" id="UserDomain" rx="1.25" ry="1.25" style="stroke:#181818;stroke-width:0.25;" width="54.5" x="166.75" y="102.25"/><ellipse cx="174.25" cy="110.25" fill="#ADD1B2" rx="5.5" ry="5.5" style="stroke:#181818;stroke-width:0.5;"/><path d="M175.6328,108.1875 Q175.7109,108.0781 175.8047,108.0234 Q175.8984,107.9688 176.0078,107.9688 Q176.1953,107.9688 176.3125,108.1016 Q176.4297,108.2266 176.4297,108.5313 L176.4297,109.2578 Q176.4297,109.5625 176.3125,109.6953 Q176.1953,109.8281 176.0078,109.8281 Q175.8359,109.8281 175.7344,109.7266 Q175.6328,109.6328 175.5781,109.375 Q175.5547,109.1953 175.4609,109.1016 Q175.2969,108.9141 174.9922,108.8047 Q174.6875,108.6953 174.375,108.6953 Q173.9922,108.6953 173.6719,108.8594 Q173.3594,109.0234 173.1094,109.3984 Q172.8672,109.7734 172.8672,110.2891 L172.8672,110.8359 Q172.8672,111.4531 173.3125,111.8672 Q173.7578,112.2734 174.5547,112.2734 Q175.0234,112.2734 175.3516,112.1484 Q175.5469,112.0703 175.7578,111.8516 Q175.8906,111.7188 175.9609,111.6797 Q176.0391,111.6406 176.1406,111.6406 Q176.3047,111.6406 176.4297,111.7734 Q176.5625,111.8984 176.5625,112.0703 Q176.5625,112.2422 176.3906,112.4453 Q176.1406,112.7344 175.7422,112.8984 Q175.2031,113.125 174.5547,113.125 Q173.7969,113.125 173.1953,112.8125 Q172.7031,112.5625 172.3594,112.0313 Q172.0156,111.4922 172.0156,110.8516 L172.0156,110.2734 Q172.0156,109.6094 172.3203,109.0391 Q172.6328,108.4609 173.1797,108.1563 Q173.7266,107.8438 174.3438,107.8438 Q174.7109,107.8438 175.0313,107.9297 Q175.3594,108.0078 175.6328,108.1875 Z " fill="#000000"/><text fill="#000000" font-family="sans-serif" font-size="7" lengthAdjust="spacing" textLength="38.5" x="181.25" y="112.6768">UserDomain</text><line style="stroke:#181818;stroke-width:0.25;" x1="167.25" x2="220.75" y1="118.25" y2="118.25"/><line style="stroke:#181818;stroke-width:0.25;" x1="167.25" x2="220.75" y1="122.25" y2="122.25"/></g><!--link Candidate to EMail--><g id="link_Candidate_EMail"><path codeLine="28" d="M123.75,56.525 C122.24,68.435 120.6372,81.0838 119.1272,92.9988 " fill="none" id="Candidate-to-EMail" style="stroke:#181818;stroke-width:0.5;"/><polygon fill="#181818" points="118.75,95.975,121.2999,91.7622,119.0643,93.4948,117.3316,91.2593,118.75,95.975" style="stroke:#181818;stroke-width:0.5;"/><text fill="#000000" font-family="sans-serif" font-size="6.5" lengthAdjust="spacing" textLength="34.5" x="122" y="77.8843">identified by</text><text fill="#000000" font-family="sans-serif" font-size="6.5" lengthAdjust="spacing" textLength="3.5" x="119.5375" y="66.3147">1</text><text fill="#000000" font-family="sans-serif" font-size="6.5" lengthAdjust="spacing" textLength="3.5" x="115.3484" y="90.6019">1</text></g><!--reverse link PhoneNumber to Candidate--><g id="link_PhoneNumber_Candidate"><path codeLine="29" d="M76.04,38.25 C85.48,38.25 92.715,38.25 101.65,38.25 " fill="none" id="PhoneNumber-backto-Candidate" style="stroke:#181818;stroke-width:0.5;"/><polygon fill="#181818" points="73.04,38.25,77.54,40.25,75.54,38.25,77.54,36.25,73.04,38.25" style="stroke:#181818;stroke-width:0.5;"/><text fill="#000000" font-family="sans-serif" font-size="6.5" lengthAdjust="spacing" textLength="10.5" x="82.125" y="35.1343">has</text><text fill="#000000" font-family="sans-serif" font-size="6.5" lengthAdjust="spacing" textLength="3.5" x="77.0363" y="36.726">1</text><text fill="#000000" font-family="sans-serif" font-size="6.5" lengthAdjust="spacing" textLength="3.5" x="94.3166" y="36.6423">1</text></g><!--link Candidate to Name--><g id="link_Candidate_Name"><path codeLine="30" d="M107.99,56.525 C95.83,68.525 81.9904,82.1828 69.8854,94.1278 " fill="none" id="Candidate-to-Name" style="stroke:#181818;stroke-width:0.5;"/><polygon fill="#181818" points="67.75,96.235,72.3579,94.4978,69.5295,94.479,69.5483,91.6507,67.75,96.235" style="stroke:#181818;stroke-width:0.5;"/><text fill="#000000" font-family="sans-serif" font-size="6.5" lengthAdjust="spacing" textLength="10.5" x="93.5" y="77.8843">has</text><text fill="#000000" font-family="sans-serif" font-size="6.5" lengthAdjust="spacing" textLength="3.5" x="100.9703" y="66.3147">1</text><text fill="#000000" font-family="sans-serif" font-size="6.5" lengthAdjust="spacing" textLength="3.5" x="71.7719" y="90.6943">1</text></g><!--link Candidate to UserDomain--><g id="link_Candidate_UserDomain"><path codeLine="32" d="M146.145,56.595 C151.15,61.295 156.395,66.465 161,71.5 C170.045,81.39 177.5779,91.103 183.9929,99.828 " fill="none" id="Candidate-to-UserDomain" style="stroke:#181818;stroke-width:0.5;stroke-dasharray:7.0,7.0;"/><polygon fill="#181818" points="185.77,102.245,184.7157,97.4348,184.2891,100.2308,181.493,99.8042,185.77,102.245" style="stroke:#181818;stroke-width:0.5;"/><text fill="#000000" font-family="sans-serif" font-size="6.5" lengthAdjust="spacing" textLength="3.5" x="145.9216" y="66.3972">1</text><text fill="#000000" font-family="sans-serif" font-size="6.5" lengthAdjust="spacing" textLength="3.5" x="179.4631" y="96.8053">1</text></g><!--SRC=[TP2nRiGW38Ptdi9YwPISkaPLfQgzyKvTkdLn4YwX3H01gNIA-aHvX6vvicAeGcueGkZ7_ltPybtl_UYgms4SKFj93MLZrA4PqBcYbTXPL8oDs7nY9u0_esvbYrx0KzTPqGN5PmRXn0hWwsADyUlFkruNeRtqLz9R6GTqiFrc5ak_sPvmHfLi9231wLoaTPvYMoJuS-0MiYvVE4m2JFqXcZZEQs-qE4-g5ZRIT__KOyo1FV1_uh4ueHmYx4ZgRrIXWauo8C9bYV3cX7qn8Qdd6CshvFUyA1x3cpXGoPPMTv6YXVhATfEIzQ4WPwwkUdGPHha08sDQO0MKl-rMbh5RdeZz0W00]--></g></svg>