<?xml version="1.0" encoding="us-ascii" standalone="no"?><svg xmlns="http://www.w3.org/2000/svg" xmlns:xlink="http://www.w3.org/1999/xlink" contentStyleType="text/css" height="1275px" preserveAspectRatio="none" style="width:511px;height:1275px;background:#FFFFFF;" version="1.1" viewBox="0 0 511 1275" width="511px" zoomAndPan="magnify"><defs/><g><text fill="#000000" font-family="sans-serif" font-size="14" font-weight="bold" lengthAdjust="spacing" textLength="350" x="73.75" y="25.1074">"US2000c - List all Candidates" Sequence Diagram</text><!--class PersistenceContext--><g id="elem_PersistenceContext"><rect codeLine="3" fill="#F1F1F1" height="66.6211" id="PersistenceContext" rx="2.5" ry="2.5" style="stroke:#181818;stroke-width:0.5;" width="154" x="110" y="283.6211"/><ellipse cx="125" cy="299.6211" fill="#ADD1B2" rx="11" ry="11" style="stroke:#181818;stroke-width:1.0;"/><path d="M127.7656,295.4961 Q127.9219,295.2773 128.1094,295.168 Q128.2969,295.0586 128.5156,295.0586 Q128.8906,295.0586 129.125,295.3242 Q129.3594,295.5742 129.3594,296.1836 L129.3594,297.6367 Q129.3594,298.2461 129.125,298.5117 Q128.8906,298.7773 128.5156,298.7773 Q128.1719,298.7773 127.9688,298.5742 Q127.7656,298.3867 127.6563,297.8711 Q127.6094,297.5117 127.4219,297.3242 Q127.0938,296.9492 126.4844,296.7305 Q125.875,296.5117 125.25,296.5117 Q124.4844,296.5117 123.8438,296.8398 Q123.2188,297.168 122.7188,297.918 Q122.2344,298.668 122.2344,299.6992 L122.2344,300.793 Q122.2344,302.0273 123.125,302.8555 Q124.0156,303.668 125.6094,303.668 Q126.5469,303.668 127.2031,303.418 Q127.5938,303.2617 128.0156,302.8242 Q128.2813,302.5586 128.4219,302.4805 Q128.5781,302.4023 128.7813,302.4023 Q129.1094,302.4023 129.3594,302.668 Q129.625,302.918 129.625,303.2617 Q129.625,303.6055 129.2813,304.0117 Q128.7813,304.5898 127.9844,304.918 Q126.9063,305.3711 125.6094,305.3711 Q124.0938,305.3711 122.8906,304.7461 Q121.9063,304.2461 121.2188,303.1836 Q120.5313,302.1055 120.5313,300.8242 L120.5313,299.668 Q120.5313,298.3398 121.1406,297.1992 Q121.7656,296.043 122.8594,295.4336 Q123.9531,294.8086 125.1875,294.8086 Q125.9219,294.8086 126.5625,294.9805 Q127.2188,295.1367 127.7656,295.4961 Z " fill="#000000"/><text fill="#000000" font-family="sans-serif" font-size="14" lengthAdjust="spacing" textLength="122" x="139" y="305.418">PersistenceContext</text><line style="stroke:#181818;stroke-width:0.5;" x1="111" x2="263" y1="315.6211" y2="315.6211"/><line style="stroke:#181818;stroke-width:0.5;" x1="111" x2="263" y1="323.6211" y2="323.6211"/><ellipse cx="121" cy="338.4316" fill="#84BE84" rx="3" ry="3" style="stroke:#038048;stroke-width:1.0;"/><text fill="#000000" font-family="sans-serif" font-size="14" lengthAdjust="spacing" textLength="84" x="130" y="342.7285">repositories()</text></g><!--class RepositoryFactory--><g id="elem_RepositoryFactory"><rect codeLine="7" fill="#F1F1F1" height="85.2422" id="RepositoryFactory" rx="2.5" ry="2.5" style="stroke:#181818;stroke-width:0.5;" width="272" x="7" y="411.6211"/><ellipse cx="80.75" cy="427.6211" fill="#B4A7E5" rx="11" ry="11" style="stroke:#181818;stroke-width:1.0;"/><path d="M81.7031,424.2617 L81.7031,430.918 L83.4219,430.918 Q84.0313,430.918 84.2969,431.1523 Q84.5625,431.3867 84.5625,431.7773 Q84.5625,432.1523 84.2969,432.3867 Q84.0313,432.6211 83.4219,432.6211 L78.2813,432.6211 Q77.6719,432.6211 77.4063,432.3867 Q77.1406,432.1523 77.1406,431.7617 Q77.1406,431.3867 77.4063,431.1523 Q77.6719,430.918 78.2813,430.918 L80,430.918 L80,424.2617 L78.2813,424.2617 Q77.6719,424.2617 77.4063,424.0273 Q77.1406,423.793 77.1406,423.4023 Q77.1406,423.0273 77.4063,422.793 Q77.6719,422.5586 78.2813,422.5586 L83.4219,422.5586 Q84.0313,422.5586 84.2969,422.793 Q84.5625,423.0273 84.5625,423.4023 Q84.5625,423.793 84.2969,424.0273 Q84.0313,424.2617 83.4219,424.2617 L81.7031,424.2617 Z " fill="#000000"/><text fill="#000000" font-family="sans-serif" font-size="14" font-style="italic" lengthAdjust="spacing" textLength="116" x="101.25" y="433.418">RepositoryFactory</text><line style="stroke:#181818;stroke-width:0.5;" x1="8" x2="278" y1="443.6211" y2="443.6211"/><line style="stroke:#181818;stroke-width:0.5;" x1="8" x2="278" y1="451.6211" y2="451.6211"/><text fill="#000000" font-family="sans-serif" font-size="14" lengthAdjust="spacing" textLength="79" x="13" y="470.7285">candidates()</text><text fill="#000000" font-family="sans-serif" font-size="14" lengthAdjust="spacing" textLength="260" x="13" y="489.3496">candidates(TransactionalContext autoTx)</text></g><!--class Candidate--><g id="elem_Candidate"><rect codeLine="13" fill="#F1F1F1" height="159.7266" id="Candidate" rx="2.5" ry="2.5" style="stroke:#181818;stroke-width:0.5;" width="227" x="123.5" y="703.6211"/><ellipse cx="200.25" cy="719.6211" fill="#ADD1B2" rx="11" ry="11" style="stroke:#181818;stroke-width:1.0;"/><path d="M203.0156,715.4961 Q203.1719,715.2773 203.3594,715.168 Q203.5469,715.0586 203.7656,715.0586 Q204.1406,715.0586 204.375,715.3242 Q204.6094,715.5742 204.6094,716.1836 L204.6094,717.6367 Q204.6094,718.2461 204.375,718.5117 Q204.1406,718.7773 203.7656,718.7773 Q203.4219,718.7773 203.2188,718.5742 Q203.0156,718.3867 202.9063,717.8711 Q202.8594,717.5117 202.6719,717.3242 Q202.3438,716.9492 201.7344,716.7305 Q201.125,716.5117 200.5,716.5117 Q199.7344,716.5117 199.0938,716.8398 Q198.4688,717.168 197.9688,717.918 Q197.4844,718.668 197.4844,719.6992 L197.4844,720.793 Q197.4844,722.0273 198.375,722.8555 Q199.2656,723.668 200.8594,723.668 Q201.7969,723.668 202.4531,723.418 Q202.8438,723.2617 203.2656,722.8242 Q203.5313,722.5586 203.6719,722.4805 Q203.8281,722.4023 204.0313,722.4023 Q204.3594,722.4023 204.6094,722.668 Q204.875,722.918 204.875,723.2617 Q204.875,723.6055 204.5313,724.0117 Q204.0313,724.5898 203.2344,724.918 Q202.1563,725.3711 200.8594,725.3711 Q199.3438,725.3711 198.1406,724.7461 Q197.1563,724.2461 196.4688,723.1836 Q195.7813,722.1055 195.7813,720.8242 L195.7813,719.668 Q195.7813,718.3398 196.3906,717.1992 Q197.0156,716.043 198.1094,715.4336 Q199.2031,714.8086 200.4375,714.8086 Q201.1719,714.8086 201.8125,714.9805 Q202.4688,715.1367 203.0156,715.4961 Z " fill="#000000"/><text fill="#000000" font-family="sans-serif" font-size="14" lengthAdjust="spacing" textLength="65" x="220.75" y="725.418">Candidate</text><line style="stroke:#181818;stroke-width:0.5;" x1="124.5" x2="349.5" y1="735.6211" y2="735.6211"/><rect fill="none" height="6" style="stroke:#C82930;stroke-width:1.0;" width="6" x="131.5" y="747.4316"/><text fill="#000000" font-family="sans-serif" font-size="14" lengthAdjust="spacing" textLength="160" x="143.5" y="754.7285">systemUser : SystemUser</text><rect fill="none" height="6" style="stroke:#C82930;stroke-width:1.0;" width="6" x="131.5" y="766.0527"/><text fill="#000000" font-family="sans-serif" font-size="14" lengthAdjust="spacing" textLength="191" x="143.5" y="773.3496">phoneNumber : PhoneNumber</text><rect fill="none" height="6" style="stroke:#C82930;stroke-width:1.0;" width="6" x="131.5" y="784.6738"/><text fill="#000000" font-family="sans-serif" font-size="14" lengthAdjust="spacing" textLength="109" x="143.5" y="791.9707">id : EmailAddress</text><line style="stroke:#181818;stroke-width:0.5;" x1="124.5" x2="349.5" y1="799.4844" y2="799.4844"/><ellipse cx="134.5" cy="814.2949" fill="#84BE84" rx="3" ry="3" style="stroke:#038048;stroke-width:1.0;"/><text fill="#000000" font-family="sans-serif" font-size="14" lengthAdjust="spacing" textLength="125" x="143.5" y="818.5918">user() : SystemUser</text><ellipse cx="134.5" cy="832.916" fill="#84BE84" rx="3" ry="3" style="stroke:#038048;stroke-width:1.0;"/><text fill="#000000" font-family="sans-serif" font-size="14" lengthAdjust="spacing" textLength="201" x="143.5" y="837.2129">phoneNumber() : PhoneNumber</text><ellipse cx="134.5" cy="851.5371" fill="#84BE84" rx="3" ry="3" style="stroke:#038048;stroke-width:1.0;"/><text fill="#000000" font-family="sans-serif" font-size="14" lengthAdjust="spacing" textLength="139" x="143.5" y="855.834">getId() : EmailAddress</text></g><!--class EmailAddress--><g id="elem_EmailAddress"><rect codeLine="23" fill="#F1F1F1" height="66.6211" id="EmailAddress" rx="2.5" ry="2.5" style="stroke:#181818;stroke-width:0.5;" width="118" x="129" y="1173.1211"/><ellipse cx="144" cy="1189.1211" fill="#ADD1B2" rx="11" ry="11" style="stroke:#181818;stroke-width:1.0;"/><path d="M146.7656,1184.9961 Q146.9219,1184.7773 147.1094,1184.668 Q147.2969,1184.5586 147.5156,1184.5586 Q147.8906,1184.5586 148.125,1184.8242 Q148.3594,1185.0742 148.3594,1185.6836 L148.3594,1187.1367 Q148.3594,1187.7461 148.125,1188.0117 Q147.8906,1188.2773 147.5156,1188.2773 Q147.1719,1188.2773 146.9688,1188.0742 Q146.7656,1187.8867 146.6563,1187.3711 Q146.6094,1187.0117 146.4219,1186.8242 Q146.0938,1186.4492 145.4844,1186.2305 Q144.875,1186.0117 144.25,1186.0117 Q143.4844,1186.0117 142.8438,1186.3398 Q142.2188,1186.668 141.7188,1187.418 Q141.2344,1188.168 141.2344,1189.1992 L141.2344,1190.293 Q141.2344,1191.5273 142.125,1192.3555 Q143.0156,1193.168 144.6094,1193.168 Q145.5469,1193.168 146.2031,1192.918 Q146.5938,1192.7617 147.0156,1192.3242 Q147.2813,1192.0586 147.4219,1191.9805 Q147.5781,1191.9023 147.7813,1191.9023 Q148.1094,1191.9023 148.3594,1192.168 Q148.625,1192.418 148.625,1192.7617 Q148.625,1193.1055 148.2813,1193.5117 Q147.7813,1194.0898 146.9844,1194.418 Q145.9063,1194.8711 144.6094,1194.8711 Q143.0938,1194.8711 141.8906,1194.2461 Q140.9063,1193.7461 140.2188,1192.6836 Q139.5313,1191.6055 139.5313,1190.3242 L139.5313,1189.168 Q139.5313,1187.8398 140.1406,1186.6992 Q140.7656,1185.543 141.8594,1184.9336 Q142.9531,1184.3086 144.1875,1184.3086 Q144.9219,1184.3086 145.5625,1184.4805 Q146.2188,1184.6367 146.7656,1184.9961 Z " fill="#000000"/><text fill="#000000" font-family="sans-serif" font-size="14" lengthAdjust="spacing" textLength="86" x="158" y="1194.918">EmailAddress</text><line style="stroke:#181818;stroke-width:0.5;" x1="130" x2="246" y1="1205.1211" y2="1205.1211"/><rect fill="none" height="6" style="stroke:#C82930;stroke-width:1.0;" width="6" x="137" y="1216.9316"/><text fill="#000000" font-family="sans-serif" font-size="14" lengthAdjust="spacing" textLength="82" x="149" y="1224.2285">email : String</text><line style="stroke:#181818;stroke-width:0.5;" x1="130" x2="246" y1="1231.7422" y2="1231.7422"/></g><!--class PhoneNumber--><g id="elem_PhoneNumber"><rect codeLine="27" fill="#F1F1F1" height="66.6211" id="PhoneNumber" rx="2.5" ry="2.5" style="stroke:#181818;stroke-width:0.5;" width="123" x="175.5" y="971.1211"/><ellipse cx="190.95" cy="987.1211" fill="#ADD1B2" rx="11" ry="11" style="stroke:#181818;stroke-width:1.0;"/><path d="M193.7156,982.9961 Q193.8719,982.7773 194.0594,982.668 Q194.2469,982.5586 194.4656,982.5586 Q194.8406,982.5586 195.075,982.8242 Q195.3094,983.0742 195.3094,983.6836 L195.3094,985.1367 Q195.3094,985.7461 195.075,986.0117 Q194.8406,986.2773 194.4656,986.2773 Q194.1219,986.2773 193.9188,986.0742 Q193.7156,985.8867 193.6063,985.3711 Q193.5594,985.0117 193.3719,984.8242 Q193.0438,984.4492 192.4344,984.2305 Q191.825,984.0117 191.2,984.0117 Q190.4344,984.0117 189.7938,984.3398 Q189.1688,984.668 188.6688,985.418 Q188.1844,986.168 188.1844,987.1992 L188.1844,988.293 Q188.1844,989.5273 189.075,990.3555 Q189.9656,991.168 191.5594,991.168 Q192.4969,991.168 193.1531,990.918 Q193.5438,990.7617 193.9656,990.3242 Q194.2313,990.0586 194.3719,989.9805 Q194.5281,989.9023 194.7313,989.9023 Q195.0594,989.9023 195.3094,990.168 Q195.575,990.418 195.575,990.7617 Q195.575,991.1055 195.2313,991.5117 Q194.7313,992.0898 193.9344,992.418 Q192.8563,992.8711 191.5594,992.8711 Q190.0438,992.8711 188.8406,992.2461 Q187.8563,991.7461 187.1688,990.6836 Q186.4813,989.6055 186.4813,988.3242 L186.4813,987.168 Q186.4813,985.8398 187.0906,984.6992 Q187.7156,983.543 188.8094,982.9336 Q189.9031,982.3086 191.1375,982.3086 Q191.8719,982.3086 192.5125,982.4805 Q193.1688,982.6367 193.7156,982.9961 Z " fill="#000000"/><text fill="#000000" font-family="sans-serif" font-size="14" lengthAdjust="spacing" textLength="90" x="205.05" y="992.918">PhoneNumber</text><line style="stroke:#181818;stroke-width:0.5;" x1="176.5" x2="297.5" y1="1003.1211" y2="1003.1211"/><rect fill="none" height="6" style="stroke:#C82930;stroke-width:1.0;" width="6" x="183.5" y="1014.9316"/><text fill="#000000" font-family="sans-serif" font-size="14" lengthAdjust="spacing" textLength="97" x="195.5" y="1022.2285">number : String</text><line style="stroke:#181818;stroke-width:0.5;" x1="176.5" x2="297.5" y1="1029.7422" y2="1029.7422"/></g><!--class CandidateRepository--><g id="elem_CandidateRepository"><rect codeLine="31" fill="#F1F1F1" height="66.6211" id="CandidateRepository" rx="2.5" ry="2.5" style="stroke:#181818;stroke-width:0.5;" width="165" x="154.5" y="557.6211"/><ellipse cx="169.5" cy="573.6211" fill="#B4A7E5" rx="11" ry="11" style="stroke:#181818;stroke-width:1.0;"/><path d="M170.4531,570.2617 L170.4531,576.918 L172.1719,576.918 Q172.7813,576.918 173.0469,577.1523 Q173.3125,577.3867 173.3125,577.7773 Q173.3125,578.1523 173.0469,578.3867 Q172.7813,578.6211 172.1719,578.6211 L167.0313,578.6211 Q166.4219,578.6211 166.1563,578.3867 Q165.8906,578.1523 165.8906,577.7617 Q165.8906,577.3867 166.1563,577.1523 Q166.4219,576.918 167.0313,576.918 L168.75,576.918 L168.75,570.2617 L167.0313,570.2617 Q166.4219,570.2617 166.1563,570.0273 Q165.8906,569.793 165.8906,569.4023 Q165.8906,569.0273 166.1563,568.793 Q166.4219,568.5586 167.0313,568.5586 L172.1719,568.5586 Q172.7813,568.5586 173.0469,568.793 Q173.3125,569.0273 173.3125,569.4023 Q173.3125,569.793 173.0469,570.0273 Q172.7813,570.2617 172.1719,570.2617 L170.4531,570.2617 Z " fill="#000000"/><text fill="#000000" font-family="sans-serif" font-size="14" font-style="italic" lengthAdjust="spacing" textLength="133" x="183.5" y="579.418">CandidateRepository</text><line style="stroke:#181818;stroke-width:0.5;" x1="155.5" x2="318.5" y1="589.6211" y2="589.6211"/><line style="stroke:#181818;stroke-width:0.5;" x1="155.5" x2="318.5" y1="597.6211" y2="597.6211"/><text fill="#000000" font-family="sans-serif" font-size="14" lengthAdjust="spacing" textLength="86" x="160.5" y="616.7285">findAllActive()</text></g><!--class Name--><g id="elem_Name"><rect codeLine="35" fill="#F1F1F1" height="122.4844" id="Name" rx="2.5" ry="2.5" style="stroke:#181818;stroke-width:0.5;" width="144" x="347" y="1145.6211"/><ellipse cx="396.75" cy="1161.6211" fill="#ADD1B2" rx="11" ry="11" style="stroke:#181818;stroke-width:1.0;"/><path d="M399.5156,1157.4961 Q399.6719,1157.2773 399.8594,1157.168 Q400.0469,1157.0586 400.2656,1157.0586 Q400.6406,1157.0586 400.875,1157.3242 Q401.1094,1157.5742 401.1094,1158.1836 L401.1094,1159.6367 Q401.1094,1160.2461 400.875,1160.5117 Q400.6406,1160.7773 400.2656,1160.7773 Q399.9219,1160.7773 399.7188,1160.5742 Q399.5156,1160.3867 399.4063,1159.8711 Q399.3594,1159.5117 399.1719,1159.3242 Q398.8438,1158.9492 398.2344,1158.7305 Q397.625,1158.5117 397,1158.5117 Q396.2344,1158.5117 395.5938,1158.8398 Q394.9688,1159.168 394.4688,1159.918 Q393.9844,1160.668 393.9844,1161.6992 L393.9844,1162.793 Q393.9844,1164.0273 394.875,1164.8555 Q395.7656,1165.668 397.3594,1165.668 Q398.2969,1165.668 398.9531,1165.418 Q399.3438,1165.2617 399.7656,1164.8242 Q400.0313,1164.5586 400.1719,1164.4805 Q400.3281,1164.4023 400.5313,1164.4023 Q400.8594,1164.4023 401.1094,1164.668 Q401.375,1164.918 401.375,1165.2617 Q401.375,1165.6055 401.0313,1166.0117 Q400.5313,1166.5898 399.7344,1166.918 Q398.6563,1167.3711 397.3594,1167.3711 Q395.8438,1167.3711 394.6406,1166.7461 Q393.6563,1166.2461 392.9688,1165.1836 Q392.2813,1164.1055 392.2813,1162.8242 L392.2813,1161.668 Q392.2813,1160.3398 392.8906,1159.1992 Q393.5156,1158.043 394.6094,1157.4336 Q395.7031,1156.8086 396.9375,1156.8086 Q397.6719,1156.8086 398.3125,1156.9805 Q398.9688,1157.1367 399.5156,1157.4961 Z " fill="#000000"/><text fill="#000000" font-family="sans-serif" font-size="14" lengthAdjust="spacing" textLength="36" x="417.25" y="1167.418">Name</text><line style="stroke:#181818;stroke-width:0.5;" x1="348" x2="490" y1="1177.6211" y2="1177.6211"/><rect fill="none" height="6" style="stroke:#C82930;stroke-width:1.0;" width="6" x="355" y="1189.4316"/><text fill="#000000" font-family="sans-serif" font-size="14" lengthAdjust="spacing" textLength="108" x="367" y="1196.7285">firstName : String</text><rect fill="none" height="6" style="stroke:#C82930;stroke-width:1.0;" width="6" x="355" y="1208.0527"/><text fill="#000000" font-family="sans-serif" font-size="14" lengthAdjust="spacing" textLength="107" x="367" y="1215.3496">lastName : String</text><line style="stroke:#181818;stroke-width:0.5;" x1="348" x2="490" y1="1222.8633" y2="1222.8633"/><ellipse cx="358" cy="1237.6738" fill="#84BE84" rx="3" ry="3" style="stroke:#038048;stroke-width:1.0;"/><text fill="#000000" font-family="sans-serif" font-size="14" lengthAdjust="spacing" textLength="118" x="367" y="1241.9707">firstName() : String</text><ellipse cx="358" cy="1256.2949" fill="#84BE84" rx="3" ry="3" style="stroke:#038048;stroke-width:1.0;"/><text fill="#000000" font-family="sans-serif" font-size="14" lengthAdjust="spacing" textLength="117" x="367" y="1260.5918">lastName() : String</text></g><!--class SystemUser--><g id="elem_SystemUser"><rect codeLine="43" fill="#F1F1F1" height="159.7266" id="SystemUser" rx="2.5" ry="2.5" style="stroke:#181818;stroke-width:0.5;" width="171" x="333.5" y="924.6211"/><ellipse cx="377.3" cy="940.6211" fill="#ADD1B2" rx="11" ry="11" style="stroke:#181818;stroke-width:1.0;"/><path d="M380.0656,936.4961 Q380.2219,936.2773 380.4094,936.168 Q380.5969,936.0586 380.8156,936.0586 Q381.1906,936.0586 381.425,936.3242 Q381.6594,936.5742 381.6594,937.1836 L381.6594,938.6367 Q381.6594,939.2461 381.425,939.5117 Q381.1906,939.7773 380.8156,939.7773 Q380.4719,939.7773 380.2688,939.5742 Q380.0656,939.3867 379.9563,938.8711 Q379.9094,938.5117 379.7219,938.3242 Q379.3938,937.9492 378.7844,937.7305 Q378.175,937.5117 377.55,937.5117 Q376.7844,937.5117 376.1438,937.8398 Q375.5188,938.168 375.0188,938.918 Q374.5344,939.668 374.5344,940.6992 L374.5344,941.793 Q374.5344,943.0273 375.425,943.8555 Q376.3156,944.668 377.9094,944.668 Q378.8469,944.668 379.5031,944.418 Q379.8938,944.2617 380.3156,943.8242 Q380.5813,943.5586 380.7219,943.4805 Q380.8781,943.4023 381.0813,943.4023 Q381.4094,943.4023 381.6594,943.668 Q381.925,943.918 381.925,944.2617 Q381.925,944.6055 381.5813,945.0117 Q381.0813,945.5898 380.2844,945.918 Q379.2063,946.3711 377.9094,946.3711 Q376.3938,946.3711 375.1906,945.7461 Q374.2063,945.2461 373.5188,944.1836 Q372.8313,943.1055 372.8313,941.8242 L372.8313,940.668 Q372.8313,939.3398 373.4406,938.1992 Q374.0656,937.043 375.1594,936.4336 Q376.2531,935.8086 377.4875,935.8086 Q378.2219,935.8086 378.8625,935.9805 Q379.5188,936.1367 380.0656,936.4961 Z " fill="#000000"/><text fill="#000000" font-family="sans-serif" font-size="14" lengthAdjust="spacing" textLength="75" x="397.7" y="946.418">SystemUser</text><line style="stroke:#181818;stroke-width:0.5;" x1="334.5" x2="503.5" y1="956.6211" y2="956.6211"/><rect fill="none" height="6" style="stroke:#C82930;stroke-width:1.0;" width="6" x="341.5" y="968.4316"/><text fill="#000000" font-family="sans-serif" font-size="14" lengthAdjust="spacing" textLength="139" x="353.5" y="975.7285">username : Username</text><rect fill="none" height="6" style="stroke:#C82930;stroke-width:1.0;" width="6" x="341.5" y="987.0527"/><text fill="#000000" font-family="sans-serif" font-size="14" lengthAdjust="spacing" textLength="83" x="353.5" y="994.3496">name : Name</text><rect fill="none" height="6" style="stroke:#C82930;stroke-width:1.0;" width="6" x="341.5" y="1005.6738"/><text fill="#000000" font-family="sans-serif" font-size="14" lengthAdjust="spacing" textLength="131" x="353.5" y="1012.9707">email : EmailAddress</text><line style="stroke:#181818;stroke-width:0.5;" x1="334.5" x2="503.5" y1="1020.4844" y2="1020.4844"/><ellipse cx="344.5" cy="1035.2949" fill="#84BE84" rx="3" ry="3" style="stroke:#038048;stroke-width:1.0;"/><text fill="#000000" font-family="sans-serif" font-size="14" lengthAdjust="spacing" textLength="131" x="353.5" y="1039.5918">identity() : Username</text><ellipse cx="344.5" cy="1053.916" fill="#84BE84" rx="3" ry="3" style="stroke:#038048;stroke-width:1.0;"/><text fill="#000000" font-family="sans-serif" font-size="14" lengthAdjust="spacing" textLength="145" x="353.5" y="1058.2129">email()  : EmailAddress</text><ellipse cx="344.5" cy="1072.5371" fill="#84BE84" rx="3" ry="3" style="stroke:#038048;stroke-width:1.0;"/><text fill="#000000" font-family="sans-serif" font-size="14" lengthAdjust="spacing" textLength="93" x="353.5" y="1076.834">name() : Name</text></g><!--class ListAllCandidatesController--><g id="elem_ListAllCandidatesController"><rect codeLine="52" fill="#F1F1F1" height="66.6211" id="ListAllCandidatesController" rx="2.5" ry="2.5" style="stroke:#181818;stroke-width:0.5;" width="203" x="157.5" y="155.6211"/><ellipse cx="172.5" cy="171.6211" fill="#ADD1B2" rx="11" ry="11" style="stroke:#181818;stroke-width:1.0;"/><path d="M175.2656,167.4961 Q175.4219,167.2773 175.6094,167.168 Q175.7969,167.0586 176.0156,167.0586 Q176.3906,167.0586 176.625,167.3242 Q176.8594,167.5742 176.8594,168.1836 L176.8594,169.6367 Q176.8594,170.2461 176.625,170.5117 Q176.3906,170.7773 176.0156,170.7773 Q175.6719,170.7773 175.4688,170.5742 Q175.2656,170.3867 175.1563,169.8711 Q175.1094,169.5117 174.9219,169.3242 Q174.5938,168.9492 173.9844,168.7305 Q173.375,168.5117 172.75,168.5117 Q171.9844,168.5117 171.3438,168.8398 Q170.7188,169.168 170.2188,169.918 Q169.7344,170.668 169.7344,171.6992 L169.7344,172.793 Q169.7344,174.0273 170.625,174.8555 Q171.5156,175.668 173.1094,175.668 Q174.0469,175.668 174.7031,175.418 Q175.0938,175.2617 175.5156,174.8242 Q175.7813,174.5586 175.9219,174.4805 Q176.0781,174.4023 176.2813,174.4023 Q176.6094,174.4023 176.8594,174.668 Q177.125,174.918 177.125,175.2617 Q177.125,175.6055 176.7813,176.0117 Q176.2813,176.5898 175.4844,176.918 Q174.4063,177.3711 173.1094,177.3711 Q171.5938,177.3711 170.3906,176.7461 Q169.4063,176.2461 168.7188,175.1836 Q168.0313,174.1055 168.0313,172.8242 L168.0313,171.668 Q168.0313,170.3398 168.6406,169.1992 Q169.2656,168.043 170.3594,167.4336 Q171.4531,166.8086 172.6875,166.8086 Q173.4219,166.8086 174.0625,166.9805 Q174.7188,167.1367 175.2656,167.4961 Z " fill="#000000"/><text fill="#000000" font-family="sans-serif" font-size="14" lengthAdjust="spacing" textLength="171" x="186.5" y="177.418">ListAllCandidatesController</text><line style="stroke:#181818;stroke-width:0.5;" x1="158.5" x2="359.5" y1="187.6211" y2="187.6211"/><line style="stroke:#181818;stroke-width:0.5;" x1="158.5" x2="359.5" y1="195.6211" y2="195.6211"/><ellipse cx="168.5" cy="210.4316" fill="#84BE84" rx="3" ry="3" style="stroke:#038048;stroke-width:1.0;"/><text fill="#000000" font-family="sans-serif" font-size="14" lengthAdjust="spacing" textLength="134" x="177.5" y="214.7285">allActiveCandidates()</text></g><!--class ListAllCandidatesUI--><g id="elem_ListAllCandidatesUI"><rect codeLine="56" fill="#F1F1F1" height="48" id="ListAllCandidatesUI" rx="2.5" ry="2.5" style="stroke:#181818;stroke-width:0.5;" width="153" x="182.5" y="46.6211"/><ellipse cx="197.5" cy="62.6211" fill="#ADD1B2" rx="11" ry="11" style="stroke:#181818;stroke-width:1.0;"/><path d="M200.2656,58.4961 Q200.4219,58.2773 200.6094,58.168 Q200.7969,58.0586 201.0156,58.0586 Q201.3906,58.0586 201.625,58.3242 Q201.8594,58.5742 201.8594,59.1836 L201.8594,60.6367 Q201.8594,61.2461 201.625,61.5117 Q201.3906,61.7773 201.0156,61.7773 Q200.6719,61.7773 200.4688,61.5742 Q200.2656,61.3867 200.1563,60.8711 Q200.1094,60.5117 199.9219,60.3242 Q199.5938,59.9492 198.9844,59.7305 Q198.375,59.5117 197.75,59.5117 Q196.9844,59.5117 196.3438,59.8398 Q195.7188,60.168 195.2188,60.918 Q194.7344,61.668 194.7344,62.6992 L194.7344,63.793 Q194.7344,65.0273 195.625,65.8555 Q196.5156,66.668 198.1094,66.668 Q199.0469,66.668 199.7031,66.418 Q200.0938,66.2617 200.5156,65.8242 Q200.7813,65.5586 200.9219,65.4805 Q201.0781,65.4023 201.2813,65.4023 Q201.6094,65.4023 201.8594,65.668 Q202.125,65.918 202.125,66.2617 Q202.125,66.6055 201.7813,67.0117 Q201.2813,67.5898 200.4844,67.918 Q199.4063,68.3711 198.1094,68.3711 Q196.5938,68.3711 195.3906,67.7461 Q194.4063,67.2461 193.7188,66.1836 Q193.0313,65.1055 193.0313,63.8242 L193.0313,62.668 Q193.0313,61.3398 193.6406,60.1992 Q194.2656,59.043 195.3594,58.4336 Q196.4531,57.8086 197.6875,57.8086 Q198.4219,57.8086 199.0625,57.9805 Q199.7188,58.1367 200.2656,58.4961 Z " fill="#000000"/><text fill="#000000" font-family="sans-serif" font-size="14" lengthAdjust="spacing" textLength="121" x="211.5" y="68.418">ListAllCandidatesUI</text><line style="stroke:#181818;stroke-width:0.5;" x1="183.5" x2="334.5" y1="78.6211" y2="78.6211"/><line style="stroke:#181818;stroke-width:0.5;" x1="183.5" x2="334.5" y1="86.6211" y2="86.6211"/></g><!--link ListAllCandidatesController to PersistenceContext--><g id="link_ListAllCandidatesController_PersistenceContext"><path codeLine="58" d="M240.27,222.9011 C229.6,241.5611 219.2665,259.6615 208.6165,278.3015 " fill="none" id="ListAllCandidatesController-to-PersistenceContext" style="stroke:#181818;stroke-width:1.0;stroke-dasharray:7.0,7.0;"/><polygon fill="#181818" points="205.64,283.5111,213.5779,277.681,208.1204,279.1697,206.6317,273.7123,205.64,283.5111" style="stroke:#181818;stroke-width:1.0;"/></g><!--link PersistenceContext to RepositoryFactory--><g id="link_PersistenceContext_RepositoryFactory"><path codeLine="60" d="M176.35,350.8011 C170.4,369.0611 164.7805,386.2968 158.4105,405.8268 " fill="none" id="PersistenceContext-to-RepositoryFactory" style="stroke:#181818;stroke-width:1.0;"/><polygon fill="#181818" points="156.55,411.5311,163.1436,404.2151,158.1004,406.7776,155.538,401.7344,156.55,411.5311" style="stroke:#181818;stroke-width:1.0;"/></g><!--link RepositoryFactory to CandidateRepository--><g id="link_RepositoryFactory_CandidateRepository"><path codeLine="61" d="M171.97,496.7311 C185.56,516.2511 198.101,534.2575 210.811,552.5075 " fill="none" id="RepositoryFactory-to-CandidateRepository" style="stroke:#181818;stroke-width:1.0;stroke-dasharray:7.0,7.0;"/><polygon fill="#181818" points="214.24,557.4311,212.3789,547.7597,211.3825,553.3281,205.8141,552.3317,214.24,557.4311" style="stroke:#181818;stroke-width:1.0;"/></g><!--link ListAllCandidatesUI to ListAllCandidatesController--><g id="link_ListAllCandidatesUI_ListAllCandidatesController"><path codeLine="62" d="M259,94.6411 C259,112.0111 259,130.0811 259,149.4511 " fill="none" id="ListAllCandidatesUI-to-ListAllCandidatesController" style="stroke:#181818;stroke-width:1.0;stroke-dasharray:7.0,7.0;"/><polygon fill="#181818" points="259,155.4511,263,146.4511,259,150.4511,255,146.4511,259,155.4511" style="stroke:#181818;stroke-width:1.0;"/></g><!--link ListAllCandidatesController to CandidateRepository--><g id="link_ListAllCandidatesController_CandidateRepository"><path codeLine="64" d="M271.37,223.0211 C290.91,279.9011 323.99,399.8211 296,496.6211 C289.66,518.5611 279.9785,535.451 267.6785,552.441 " fill="none" id="ListAllCandidatesController-to-CandidateRepository" style="stroke:#181818;stroke-width:1.0;stroke-dasharray:7.0,7.0;"/><polygon fill="#181818" points="264.16,557.3011,272.6778,552.3566,267.0921,553.251,266.1977,547.6653,264.16,557.3011" style="stroke:#181818;stroke-width:1.0;"/></g><!--link CandidateRepository to Candidate--><g id="link_CandidateRepository_Candidate"><path codeLine="66" d="M237,624.8711 C237,646.5711 237,670.0211 237,697.6011 " fill="none" id="CandidateRepository-to-Candidate" style="stroke:#181818;stroke-width:1.0;"/><polygon fill="#181818" points="237,703.6011,241,694.6011,237,698.6011,233,694.6011,237,703.6011" style="stroke:#181818;stroke-width:1.0;"/><text fill="#000000" font-family="sans-serif" font-size="13" lengthAdjust="spacing" textLength="36" x="238" y="669.6494">stores</text><text fill="#000000" font-family="sans-serif" font-size="13" lengthAdjust="spacing" textLength="5" x="231.7695" y="692.495">*</text></g><!--link Candidate to SystemUser--><g id="link_Candidate_SystemUser"><path codeLine="67" d="M302.71,863.6811 C319.1,883.4111 332.8446,899.957 349.2446,919.687 " fill="none" id="Candidate-to-SystemUser" style="stroke:#181818;stroke-width:1.0;"/><polygon fill="#181818" points="353.08,924.3011,350.403,914.823,349.8839,920.456,344.2509,919.9368,353.08,924.3011" style="stroke:#181818;stroke-width:1.0;"/></g><!--link SystemUser to EmailAddress--><g id="link_SystemUser_EmailAddress"><path codeLine="69" d="M333.31,1079.8111 C296.21,1111.9411 259.2262,1143.9539 230.1062,1169.1639 " fill="none" id="SystemUser-to-EmailAddress" style="stroke:#181818;stroke-width:1.0;"/><polygon fill="#181818" points="225.57,1173.0911,234.9925,1170.2245,229.3502,1169.8185,229.7563,1164.1762,225.57,1173.0911" style="stroke:#181818;stroke-width:1.0;"/></g><!--link SystemUser to Name--><g id="link_SystemUser_Name"><path codeLine="70" d="M419,1084.6711 C419,1104.8611 419,1120.2611 419,1139.3511 " fill="none" id="SystemUser-to-Name" style="stroke:#181818;stroke-width:1.0;"/><polygon fill="#181818" points="419,1145.3511,423,1136.3511,419,1140.3511,415,1136.3511,419,1145.3511" style="stroke:#181818;stroke-width:1.0;"/></g><!--link Candidate to EmailAddress--><g id="link_Candidate_EmailAddress"><path codeLine="71" d="M183.15,863.7611 C172.78,882.8911 163.46,903.8411 158,924.6211 C134.94,1012.4111 159.1289,1114.3223 175.2889,1167.2823 " fill="none" id="Candidate-to-EmailAddress" style="stroke:#181818;stroke-width:1.0;"/><polygon fill="#181818" points="177.04,1173.0211,178.2392,1163.2455,175.5807,1168.2388,170.5875,1165.5803,177.04,1173.0211" style="stroke:#181818;stroke-width:1.0;"/></g><!--link Candidate to PhoneNumber--><g id="link_Candidate_PhoneNumber"><path codeLine="72" d="M237,863.6811 C237,900.6811 237,936.7211 237,964.9811 " fill="none" id="Candidate-to-PhoneNumber" style="stroke:#181818;stroke-width:1.0;"/><polygon fill="#181818" points="237,970.9811,241,961.9811,237,965.9811,233,961.9811,237,970.9811" style="stroke:#181818;stroke-width:1.0;"/></g><!--SRC=[XLF1Jkim4BplLwnweYyAgZXoGAeAI4YeGfH-W4csnPBZWEqYgeX_Vsk7s0uDq4kpExFZyTXsqYd2sNPpiLWiAYpnNbg7GYbS2LtBMZYoCzpGsu5qHNWjnTw81g1Imbfy86EPxw5Lgnrzk0uAGw-jbQurakpP73u194Dc9tZ-SS2EjwBoVnrKSHqcPyMJ4TeoIRPQg2zr50VNFdtCmQls5gBD3afxP2_DrfB1Izp40ihNbrRJ-j0y1-GXLL3AcZitZP1gMTU6h0Ke3ZnqDXzh59b6m7ALOa_khWxjaLHqcNVPA9Al_GBEIBrFl4oKQNfmd6WfohZnb6a7EwdhfL9BZksT-l1xuRLe23j0_fKxQQmBZQWS-aoSQ1UHtaUI8SD03gGbKtYy5H-fxhMtNv-ylxwn3iKGoIZ00cLDsabt36l4qQ9Fa9kd4tfm57IZ7N-nEPfqhVsTCgrItbyXXj1M-NNyUNXxrp7uYoQUdrzDl0-0qnwMvTNfou2JJf2SE7QOS1UulzZxs_lKGZ3H3Evd_sPf02yj0sGJEt2onmJfEq2Z4_o6XLCSAuteOoX_bVy1]--></g></svg>