<?xml version="1.0" encoding="us-ascii" standalone="no"?><svg xmlns="http://www.w3.org/2000/svg" xmlns:xlink="http://www.w3.org/1999/xlink" contentStyleType="text/css" height="611px" preserveAspectRatio="none" style="width:501px;height:611px;background:#FFFFFF;" version="1.1" viewBox="0 0 501 611" width="501px" zoomAndPan="magnify"><defs/><g><text fill="#000000" font-family="sans-serif" font-size="14" font-weight="bold" lengthAdjust="spacing" textLength="473" x="10" y="25.1074">"US1006-Display all the personal data of a candidate" Class Diagram</text><!--class PhoneNumber--><g id="elem_PhoneNumber"><rect codeLine="4" fill="#F1F1F1" height="48" id="PhoneNumber" rx="2.5" ry="2.5" style="stroke:#181818;stroke-width:0.5;" width="122" x="232.75" y="556.6211"/><ellipse cx="247.75" cy="572.6211" fill="#ADD1B2" rx="11" ry="11" style="stroke:#181818;stroke-width:1.0;"/><path d="M250.5156,568.4961 Q250.6719,568.2773 250.8594,568.168 Q251.0469,568.0586 251.2656,568.0586 Q251.6406,568.0586 251.875,568.3242 Q252.1094,568.5742 252.1094,569.1836 L252.1094,570.6367 Q252.1094,571.2461 251.875,571.5117 Q251.6406,571.7773 251.2656,571.7773 Q250.9219,571.7773 250.7188,571.5742 Q250.5156,571.3867 250.4063,570.8711 Q250.3594,570.5117 250.1719,570.3242 Q249.8438,569.9492 249.2344,569.7305 Q248.625,569.5117 248,569.5117 Q247.2344,569.5117 246.5938,569.8398 Q245.9688,570.168 245.4688,570.918 Q244.9844,571.668 244.9844,572.6992 L244.9844,573.793 Q244.9844,575.0273 245.875,575.8555 Q246.7656,576.668 248.3594,576.668 Q249.2969,576.668 249.9531,576.418 Q250.3438,576.2617 250.7656,575.8242 Q251.0313,575.5586 251.1719,575.4805 Q251.3281,575.4023 251.5313,575.4023 Q251.8594,575.4023 252.1094,575.668 Q252.375,575.918 252.375,576.2617 Q252.375,576.6055 252.0313,577.0117 Q251.5313,577.5898 250.7344,577.918 Q249.6563,578.3711 248.3594,578.3711 Q246.8438,578.3711 245.6406,577.7461 Q244.6563,577.2461 243.9688,576.1836 Q243.2813,575.1055 243.2813,573.8242 L243.2813,572.668 Q243.2813,571.3398 243.8906,570.1992 Q244.5156,569.043 245.6094,568.4336 Q246.7031,567.8086 247.9375,567.8086 Q248.6719,567.8086 249.3125,567.9805 Q249.9688,568.1367 250.5156,568.4961 Z " fill="#000000"/><text fill="#000000" font-family="sans-serif" font-size="14" lengthAdjust="spacing" textLength="90" x="261.75" y="578.418">PhoneNumber</text><line style="stroke:#181818;stroke-width:0.5;" x1="233.75" x2="353.75" y1="588.6211" y2="588.6211"/><line style="stroke:#181818;stroke-width:0.5;" x1="233.75" x2="353.75" y1="596.6211" y2="596.6211"/></g><!--class Candidate--><g id="elem_Candidate"><rect codeLine="7" fill="#F1F1F1" height="103.8633" id="Candidate" rx="2.5" ry="2.5" style="stroke:#181818;stroke-width:0.5;" width="97" x="309.25" y="391.6211"/><ellipse cx="324.25" cy="407.6211" fill="#ADD1B2" rx="11" ry="11" style="stroke:#181818;stroke-width:1.0;"/><path d="M327.0156,403.4961 Q327.1719,403.2773 327.3594,403.168 Q327.5469,403.0586 327.7656,403.0586 Q328.1406,403.0586 328.375,403.3242 Q328.6094,403.5742 328.6094,404.1836 L328.6094,405.6367 Q328.6094,406.2461 328.375,406.5117 Q328.1406,406.7773 327.7656,406.7773 Q327.4219,406.7773 327.2188,406.5742 Q327.0156,406.3867 326.9063,405.8711 Q326.8594,405.5117 326.6719,405.3242 Q326.3438,404.9492 325.7344,404.7305 Q325.125,404.5117 324.5,404.5117 Q323.7344,404.5117 323.0938,404.8398 Q322.4688,405.168 321.9688,405.918 Q321.4844,406.668 321.4844,407.6992 L321.4844,408.793 Q321.4844,410.0273 322.375,410.8555 Q323.2656,411.668 324.8594,411.668 Q325.7969,411.668 326.4531,411.418 Q326.8438,411.2617 327.2656,410.8242 Q327.5313,410.5586 327.6719,410.4805 Q327.8281,410.4023 328.0313,410.4023 Q328.3594,410.4023 328.6094,410.668 Q328.875,410.918 328.875,411.2617 Q328.875,411.6055 328.5313,412.0117 Q328.0313,412.5898 327.2344,412.918 Q326.1563,413.3711 324.8594,413.3711 Q323.3438,413.3711 322.1406,412.7461 Q321.1563,412.2461 320.4688,411.1836 Q319.7813,410.1055 319.7813,408.8242 L319.7813,407.668 Q319.7813,406.3398 320.3906,405.1992 Q321.0156,404.043 322.1094,403.4336 Q323.2031,402.8086 324.4375,402.8086 Q325.1719,402.8086 325.8125,402.9805 Q326.4688,403.1367 327.0156,403.4961 Z " fill="#000000"/><text fill="#000000" font-family="sans-serif" font-size="14" lengthAdjust="spacing" textLength="65" x="338.25" y="413.418">Candidate</text><line style="stroke:#181818;stroke-width:0.5;" x1="310.25" x2="405.25" y1="423.6211" y2="423.6211"/><text fill="#000000" font-family="sans-serif" font-size="14" lengthAdjust="spacing" textLength="84" x="315.25" y="442.7285">name : String</text><text fill="#000000" font-family="sans-serif" font-size="14" lengthAdjust="spacing" textLength="79" x="315.25" y="461.3496">email : Email</text><line style="stroke:#181818;stroke-width:0.5;" x1="310.25" x2="405.25" y1="468.8633" y2="468.8633"/><text fill="#000000" font-family="sans-serif" font-size="14" lengthAdjust="spacing" textLength="66" x="315.25" y="487.9707">getName()</text></g><!--class EMail--><g id="elem_EMail"><rect codeLine="14" fill="#F1F1F1" height="48" id="EMail" rx="2.5" ry="2.5" style="stroke:#181818;stroke-width:0.5;" width="66" x="389.75" y="556.6211"/><ellipse cx="404.75" cy="572.6211" fill="#ADD1B2" rx="11" ry="11" style="stroke:#181818;stroke-width:1.0;"/><path d="M407.5156,568.4961 Q407.6719,568.2773 407.8594,568.168 Q408.0469,568.0586 408.2656,568.0586 Q408.6406,568.0586 408.875,568.3242 Q409.1094,568.5742 409.1094,569.1836 L409.1094,570.6367 Q409.1094,571.2461 408.875,571.5117 Q408.6406,571.7773 408.2656,571.7773 Q407.9219,571.7773 407.7188,571.5742 Q407.5156,571.3867 407.4063,570.8711 Q407.3594,570.5117 407.1719,570.3242 Q406.8438,569.9492 406.2344,569.7305 Q405.625,569.5117 405,569.5117 Q404.2344,569.5117 403.5938,569.8398 Q402.9688,570.168 402.4688,570.918 Q401.9844,571.668 401.9844,572.6992 L401.9844,573.793 Q401.9844,575.0273 402.875,575.8555 Q403.7656,576.668 405.3594,576.668 Q406.2969,576.668 406.9531,576.418 Q407.3438,576.2617 407.7656,575.8242 Q408.0313,575.5586 408.1719,575.4805 Q408.3281,575.4023 408.5313,575.4023 Q408.8594,575.4023 409.1094,575.668 Q409.375,575.918 409.375,576.2617 Q409.375,576.6055 409.0313,577.0117 Q408.5313,577.5898 407.7344,577.918 Q406.6563,578.3711 405.3594,578.3711 Q403.8438,578.3711 402.6406,577.7461 Q401.6563,577.2461 400.9688,576.1836 Q400.2813,575.1055 400.2813,573.8242 L400.2813,572.668 Q400.2813,571.3398 400.8906,570.1992 Q401.5156,569.043 402.6094,568.4336 Q403.7031,567.8086 404.9375,567.8086 Q405.6719,567.8086 406.3125,567.9805 Q406.9688,568.1367 407.5156,568.4961 Z " fill="#000000"/><text fill="#000000" font-family="sans-serif" font-size="14" lengthAdjust="spacing" textLength="34" x="418.75" y="578.418">EMail</text><line style="stroke:#181818;stroke-width:0.5;" x1="390.75" x2="454.75" y1="588.6211" y2="588.6211"/><line style="stroke:#181818;stroke-width:0.5;" x1="390.75" x2="454.75" y1="596.6211" y2="596.6211"/></g><!--class JobApplication--><g id="elem_JobApplication"><rect codeLine="17" fill="#F1F1F1" height="48" id="JobApplication" rx="2.5" ry="2.5" style="stroke:#181818;stroke-width:0.5;" width="123" x="97.25" y="419.6211"/><ellipse cx="112.25" cy="435.6211" fill="#ADD1B2" rx="11" ry="11" style="stroke:#181818;stroke-width:1.0;"/><path d="M115.0156,431.4961 Q115.1719,431.2773 115.3594,431.168 Q115.5469,431.0586 115.7656,431.0586 Q116.1406,431.0586 116.375,431.3242 Q116.6094,431.5742 116.6094,432.1836 L116.6094,433.6367 Q116.6094,434.2461 116.375,434.5117 Q116.1406,434.7773 115.7656,434.7773 Q115.4219,434.7773 115.2188,434.5742 Q115.0156,434.3867 114.9063,433.8711 Q114.8594,433.5117 114.6719,433.3242 Q114.3438,432.9492 113.7344,432.7305 Q113.125,432.5117 112.5,432.5117 Q111.7344,432.5117 111.0938,432.8398 Q110.4688,433.168 109.9688,433.918 Q109.4844,434.668 109.4844,435.6992 L109.4844,436.793 Q109.4844,438.0273 110.375,438.8555 Q111.2656,439.668 112.8594,439.668 Q113.7969,439.668 114.4531,439.418 Q114.8438,439.2617 115.2656,438.8242 Q115.5313,438.5586 115.6719,438.4805 Q115.8281,438.4023 116.0313,438.4023 Q116.3594,438.4023 116.6094,438.668 Q116.875,438.918 116.875,439.2617 Q116.875,439.6055 116.5313,440.0117 Q116.0313,440.5898 115.2344,440.918 Q114.1563,441.3711 112.8594,441.3711 Q111.3438,441.3711 110.1406,440.7461 Q109.1563,440.2461 108.4688,439.1836 Q107.7813,438.1055 107.7813,436.8242 L107.7813,435.668 Q107.7813,434.3398 108.3906,433.1992 Q109.0156,432.043 110.1094,431.4336 Q111.2031,430.8086 112.4375,430.8086 Q113.1719,430.8086 113.8125,430.9805 Q114.4688,431.1367 115.0156,431.4961 Z " fill="#000000"/><text fill="#000000" font-family="sans-serif" font-size="14" lengthAdjust="spacing" textLength="91" x="126.25" y="441.418">JobApplication</text><line style="stroke:#181818;stroke-width:0.5;" x1="98.25" x2="219.25" y1="451.6211" y2="451.6211"/><line style="stroke:#181818;stroke-width:0.5;" x1="98.25" x2="219.25" y1="459.6211" y2="459.6211"/></g><!--class DisplayCandidateDataUI--><g id="elem_DisplayCandidateDataUI"><rect codeLine="22" fill="#F1F1F1" height="48" id="DisplayCandidateDataUI" rx="2.5" ry="2.5" style="stroke:#181818;stroke-width:0.5;" width="185" x="160.25" y="46.6211"/><ellipse cx="175.25" cy="62.6211" fill="#ADD1B2" rx="11" ry="11" style="stroke:#181818;stroke-width:1.0;"/><path d="M178.0156,58.4961 Q178.1719,58.2773 178.3594,58.168 Q178.5469,58.0586 178.7656,58.0586 Q179.1406,58.0586 179.375,58.3242 Q179.6094,58.5742 179.6094,59.1836 L179.6094,60.6367 Q179.6094,61.2461 179.375,61.5117 Q179.1406,61.7773 178.7656,61.7773 Q178.4219,61.7773 178.2188,61.5742 Q178.0156,61.3867 177.9063,60.8711 Q177.8594,60.5117 177.6719,60.3242 Q177.3438,59.9492 176.7344,59.7305 Q176.125,59.5117 175.5,59.5117 Q174.7344,59.5117 174.0938,59.8398 Q173.4688,60.168 172.9688,60.918 Q172.4844,61.668 172.4844,62.6992 L172.4844,63.793 Q172.4844,65.0273 173.375,65.8555 Q174.2656,66.668 175.8594,66.668 Q176.7969,66.668 177.4531,66.418 Q177.8438,66.2617 178.2656,65.8242 Q178.5313,65.5586 178.6719,65.4805 Q178.8281,65.4023 179.0313,65.4023 Q179.3594,65.4023 179.6094,65.668 Q179.875,65.918 179.875,66.2617 Q179.875,66.6055 179.5313,67.0117 Q179.0313,67.5898 178.2344,67.918 Q177.1563,68.3711 175.8594,68.3711 Q174.3438,68.3711 173.1406,67.7461 Q172.1563,67.2461 171.4688,66.1836 Q170.7813,65.1055 170.7813,63.8242 L170.7813,62.668 Q170.7813,61.3398 171.3906,60.1992 Q172.0156,59.043 173.1094,58.4336 Q174.2031,57.8086 175.4375,57.8086 Q176.1719,57.8086 176.8125,57.9805 Q177.4688,58.1367 178.0156,58.4961 Z " fill="#000000"/><text fill="#000000" font-family="sans-serif" font-size="14" lengthAdjust="spacing" textLength="153" x="189.25" y="68.418">DisplayCandidateDataUI</text><line style="stroke:#181818;stroke-width:0.5;" x1="161.25" x2="344.25" y1="78.6211" y2="78.6211"/><line style="stroke:#181818;stroke-width:0.5;" x1="161.25" x2="344.25" y1="86.6211" y2="86.6211"/></g><!--class DisplayCandidateDataController--><g id="elem_DisplayCandidateDataController"><rect codeLine="24" fill="#F1F1F1" height="48" id="DisplayCandidateDataController" rx="2.5" ry="2.5" style="stroke:#181818;stroke-width:0.5;" width="235" x="135.25" y="155.6211"/><ellipse cx="150.25" cy="171.6211" fill="#ADD1B2" rx="11" ry="11" style="stroke:#181818;stroke-width:1.0;"/><path d="M153.0156,167.4961 Q153.1719,167.2773 153.3594,167.168 Q153.5469,167.0586 153.7656,167.0586 Q154.1406,167.0586 154.375,167.3242 Q154.6094,167.5742 154.6094,168.1836 L154.6094,169.6367 Q154.6094,170.2461 154.375,170.5117 Q154.1406,170.7773 153.7656,170.7773 Q153.4219,170.7773 153.2188,170.5742 Q153.0156,170.3867 152.9063,169.8711 Q152.8594,169.5117 152.6719,169.3242 Q152.3438,168.9492 151.7344,168.7305 Q151.125,168.5117 150.5,168.5117 Q149.7344,168.5117 149.0938,168.8398 Q148.4688,169.168 147.9688,169.918 Q147.4844,170.668 147.4844,171.6992 L147.4844,172.793 Q147.4844,174.0273 148.375,174.8555 Q149.2656,175.668 150.8594,175.668 Q151.7969,175.668 152.4531,175.418 Q152.8438,175.2617 153.2656,174.8242 Q153.5313,174.5586 153.6719,174.4805 Q153.8281,174.4023 154.0313,174.4023 Q154.3594,174.4023 154.6094,174.668 Q154.875,174.918 154.875,175.2617 Q154.875,175.6055 154.5313,176.0117 Q154.0313,176.5898 153.2344,176.918 Q152.1563,177.3711 150.8594,177.3711 Q149.3438,177.3711 148.1406,176.7461 Q147.1563,176.2461 146.4688,175.1836 Q145.7813,174.1055 145.7813,172.8242 L145.7813,171.668 Q145.7813,170.3398 146.3906,169.1992 Q147.0156,168.043 148.1094,167.4336 Q149.2031,166.8086 150.4375,166.8086 Q151.1719,166.8086 151.8125,166.9805 Q152.4688,167.1367 153.0156,167.4961 Z " fill="#000000"/><text fill="#000000" font-family="sans-serif" font-size="14" lengthAdjust="spacing" textLength="203" x="164.25" y="177.418">DisplayCandidateDataController</text><line style="stroke:#181818;stroke-width:0.5;" x1="136.25" x2="369.25" y1="187.6211" y2="187.6211"/><line style="stroke:#181818;stroke-width:0.5;" x1="136.25" x2="369.25" y1="195.6211" y2="195.6211"/></g><!--class CandidateRepository--><g id="elem_CandidateRepository"><rect codeLine="26" fill="#F1F1F1" height="48" id="CandidateRepository" rx="2.5" ry="2.5" style="stroke:#181818;stroke-width:0.5;" width="165" x="277.25" y="264.6211"/><ellipse cx="292.25" cy="280.6211" fill="#ADD1B2" rx="11" ry="11" style="stroke:#181818;stroke-width:1.0;"/><path d="M295.0156,276.4961 Q295.1719,276.2773 295.3594,276.168 Q295.5469,276.0586 295.7656,276.0586 Q296.1406,276.0586 296.375,276.3242 Q296.6094,276.5742 296.6094,277.1836 L296.6094,278.6367 Q296.6094,279.2461 296.375,279.5117 Q296.1406,279.7773 295.7656,279.7773 Q295.4219,279.7773 295.2188,279.5742 Q295.0156,279.3867 294.9063,278.8711 Q294.8594,278.5117 294.6719,278.3242 Q294.3438,277.9492 293.7344,277.7305 Q293.125,277.5117 292.5,277.5117 Q291.7344,277.5117 291.0938,277.8398 Q290.4688,278.168 289.9688,278.918 Q289.4844,279.668 289.4844,280.6992 L289.4844,281.793 Q289.4844,283.0273 290.375,283.8555 Q291.2656,284.668 292.8594,284.668 Q293.7969,284.668 294.4531,284.418 Q294.8438,284.2617 295.2656,283.8242 Q295.5313,283.5586 295.6719,283.4805 Q295.8281,283.4023 296.0313,283.4023 Q296.3594,283.4023 296.6094,283.668 Q296.875,283.918 296.875,284.2617 Q296.875,284.6055 296.5313,285.0117 Q296.0313,285.5898 295.2344,285.918 Q294.1563,286.3711 292.8594,286.3711 Q291.3438,286.3711 290.1406,285.7461 Q289.1563,285.2461 288.4688,284.1836 Q287.7813,283.1055 287.7813,281.8242 L287.7813,280.668 Q287.7813,279.3398 288.3906,278.1992 Q289.0156,277.043 290.1094,276.4336 Q291.2031,275.8086 292.4375,275.8086 Q293.1719,275.8086 293.8125,275.9805 Q294.4688,276.1367 295.0156,276.4961 Z " fill="#000000"/><text fill="#000000" font-family="sans-serif" font-size="14" lengthAdjust="spacing" textLength="133" x="306.25" y="286.418">CandidateRepository</text><line style="stroke:#181818;stroke-width:0.5;" x1="278.25" x2="441.25" y1="296.6211" y2="296.6211"/><line style="stroke:#181818;stroke-width:0.5;" x1="278.25" x2="441.25" y1="304.6211" y2="304.6211"/></g><!--class JobApplicationRepository--><g id="elem_JobApplicationRepository"><rect codeLine="27" fill="#F1F1F1" height="48" id="JobApplicationRepository" rx="2.5" ry="2.5" style="stroke:#181818;stroke-width:0.5;" width="191" x="51.25" y="264.6211"/><ellipse cx="66.25" cy="280.6211" fill="#ADD1B2" rx="11" ry="11" style="stroke:#181818;stroke-width:1.0;"/><path d="M69.0156,276.4961 Q69.1719,276.2773 69.3594,276.168 Q69.5469,276.0586 69.7656,276.0586 Q70.1406,276.0586 70.375,276.3242 Q70.6094,276.5742 70.6094,277.1836 L70.6094,278.6367 Q70.6094,279.2461 70.375,279.5117 Q70.1406,279.7773 69.7656,279.7773 Q69.4219,279.7773 69.2188,279.5742 Q69.0156,279.3867 68.9063,278.8711 Q68.8594,278.5117 68.6719,278.3242 Q68.3438,277.9492 67.7344,277.7305 Q67.125,277.5117 66.5,277.5117 Q65.7344,277.5117 65.0938,277.8398 Q64.4688,278.168 63.9688,278.918 Q63.4844,279.668 63.4844,280.6992 L63.4844,281.793 Q63.4844,283.0273 64.375,283.8555 Q65.2656,284.668 66.8594,284.668 Q67.7969,284.668 68.4531,284.418 Q68.8438,284.2617 69.2656,283.8242 Q69.5313,283.5586 69.6719,283.4805 Q69.8281,283.4023 70.0313,283.4023 Q70.3594,283.4023 70.6094,283.668 Q70.875,283.918 70.875,284.2617 Q70.875,284.6055 70.5313,285.0117 Q70.0313,285.5898 69.2344,285.918 Q68.1563,286.3711 66.8594,286.3711 Q65.3438,286.3711 64.1406,285.7461 Q63.1563,285.2461 62.4688,284.1836 Q61.7813,283.1055 61.7813,281.8242 L61.7813,280.668 Q61.7813,279.3398 62.3906,278.1992 Q63.0156,277.043 64.1094,276.4336 Q65.2031,275.8086 66.4375,275.8086 Q67.1719,275.8086 67.8125,275.9805 Q68.4688,276.1367 69.0156,276.4961 Z " fill="#000000"/><text fill="#000000" font-family="sans-serif" font-size="14" lengthAdjust="spacing" textLength="159" x="80.25" y="286.418">JobApplicationRepository</text><line style="stroke:#181818;stroke-width:0.5;" x1="52.25" x2="241.25" y1="296.6211" y2="296.6211"/><line style="stroke:#181818;stroke-width:0.5;" x1="52.25" x2="241.25" y1="304.6211" y2="304.6211"/></g><!--link Candidate to EMail--><g id="link_Candidate_EMail"><path codeLine="30" d="M382.32,495.6611 C392.39,516.5611 400.9374,534.3149 408.9674,550.9949 " fill="none" id="Candidate-to-EMail" style="stroke:#181818;stroke-width:1.0;"/><polygon fill="#181818" points="411.57,556.4011,411.2702,546.5568,409.4012,551.896,404.062,550.0269,411.57,556.4011" style="stroke:#181818;stroke-width:1.0;"/></g><!--link Candidate to PhoneNumber--><g id="link_Candidate_PhoneNumber"><path codeLine="31" d="M333.55,495.6611 C323.64,516.5611 315.2409,534.2998 307.3309,550.9798 " fill="none" id="Candidate-to-PhoneNumber" style="stroke:#181818;stroke-width:1.0;"/><polygon fill="#181818" points="304.76,556.4011,312.2305,549.9831,306.9024,551.8833,305.0021,546.5552,304.76,556.4011" style="stroke:#181818;stroke-width:1.0;"/></g><!--link DisplayCandidateDataUI to DisplayCandidateDataController--><g id="link_DisplayCandidateDataUI_DisplayCandidateDataController"><path codeLine="33" d="M252.75,94.8411 C252.75,112.7811 252.75,131.5111 252.75,149.4511 " fill="none" id="DisplayCandidateDataUI-to-DisplayCandidateDataController" style="stroke:#181818;stroke-width:1.0;stroke-dasharray:7.0,7.0;"/><polygon fill="#181818" points="252.75,155.4511,256.75,146.4511,252.75,150.4511,248.75,146.4511,252.75,155.4511" style="stroke:#181818;stroke-width:1.0;"/></g><!--link DisplayCandidateDataController to CandidateRepository--><g id="link_DisplayCandidateDataController_CandidateRepository"><path codeLine="35" d="M275.97,203.8411 C293.91,221.7811 314.3974,242.2685 332.3374,260.2085 " fill="none" id="DisplayCandidateDataController-to-CandidateRepository" style="stroke:#181818;stroke-width:1.0;stroke-dasharray:7.0,7.0;"/><polygon fill="#181818" points="336.58,264.4511,333.0445,255.2587,333.0445,260.9156,327.3876,260.9156,336.58,264.4511" style="stroke:#181818;stroke-width:1.0;"/></g><!--link DisplayCandidateDataController to JobApplicationRepository--><g id="link_DisplayCandidateDataController_JobApplicationRepository"><path codeLine="36" d="M229.75,203.8411 C211.97,221.7811 191.6912,242.2471 173.9312,260.1871 " fill="none" id="DisplayCandidateDataController-to-JobApplicationRepository" style="stroke:#181818;stroke-width:1.0;stroke-dasharray:7.0,7.0;"/><polygon fill="#181818" points="169.71,264.4511,178.8844,260.8693,173.2277,260.8978,173.1991,255.241,169.71,264.4511" style="stroke:#181818;stroke-width:1.0;"/></g><!--link CandidateRepository to Candidate--><g id="link_CandidateRepository_Candidate"><path codeLine="38" d="M359.45,312.8611 C359.17,333.6711 358.8489,358.9316 358.4989,385.5616 " fill="none" id="CandidateRepository-to-Candidate" style="stroke:#181818;stroke-width:1.0;"/><polygon fill="#181818" points="358.42,391.5611,362.5379,382.6144,358.4857,386.5615,354.5386,382.5093,358.42,391.5611" style="stroke:#181818;stroke-width:1.0;"/><text fill="#000000" font-family="sans-serif" font-size="13" lengthAdjust="spacing" textLength="36" x="360.75" y="357.6494">stores</text><text fill="#000000" font-family="sans-serif" font-size="13" lengthAdjust="spacing" textLength="5" x="353.1741" y="380.4804">*</text></g><!--link JobApplicationRepository to JobApplication--><g id="link_JobApplicationRepository_JobApplication"><path codeLine="39" d="M148.57,312.8611 C150.83,341.6111 154.1814,384.3294 156.4414,413.1794 " fill="none" id="JobApplicationRepository-to-JobApplication" style="stroke:#181818;stroke-width:1.0;"/><polygon fill="#181818" points="156.91,419.1611,160.1949,409.8762,156.5195,414.1764,152.2193,410.501,156.91,419.1611" style="stroke:#181818;stroke-width:1.0;"/><text fill="#000000" font-family="sans-serif" font-size="13" lengthAdjust="spacing" textLength="36" x="153.75" y="357.6494">stores</text><text fill="#000000" font-family="sans-serif" font-size="13" lengthAdjust="spacing" textLength="5" x="150.8521" y="408.1909">*</text></g><!--link JobApplication to Candidate--><g id="link_JobApplication_Candidate"><path codeLine="40" d="M220.35,443.6211 C248.89,443.6211 276.32,443.6211 303.05,443.6211 " fill="none" id="JobApplication-to-Candidate" style="stroke:#181818;stroke-width:1.0;"/><polygon fill="#181818" points="309.05,443.6211,300.05,439.6211,304.05,443.6211,300.05,447.6211,309.05,443.6211" style="stroke:#181818;stroke-width:1.0;"/><text fill="#000000" font-family="sans-serif" font-size="13" lengthAdjust="spacing" textLength="50" x="239.75" y="436.6494">made for</text><text fill="#000000" font-family="sans-serif" font-size="13" lengthAdjust="spacing" textLength="7" x="294.3831" y="439.4324">1</text></g><!--SRC=[ZP3BRi9034Nt_WehgxPI46owO85K9InQ2LGLyG4cCM6aUKGpmm95_7idAUJH9crN8_luNb-F5ruoHllTOZv_ZbFXIaaN92dHdnXBjiveafYJ9pH79Cn8voAK764YoJbC1HMM543MbEydetbxLWUs5LpltUIkga2JObpYpbkX2s15GePoNRy01Vjju0-FdNIz2QHdzMOEBsKfHKPU65r1JMxe5hzTbeRK-zVg-XjFZFRMI1dY_apxmQLnmXjx2N1i_M00e1LY7A- -ad_hzRu7O3mlpcQhFwAEIplUM8nSyH_Pr86zwxfcSrFq57NBSEa2O0TJFgraE32XmtfuCV17HJdZqTXF]--></g></svg>