<?xml version="1.0" encoding="us-ascii" standalone="no"?><svg xmlns="http://www.w3.org/2000/svg" xmlns:xlink="http://www.w3.org/1999/xlink" contentStyleType="text/css" height="664px" preserveAspectRatio="none" style="width:770px;height:664px;background:#FFFFFF;" version="1.1" viewBox="0 0 770 664" width="770px" zoomAndPan="magnify"><defs/><g><!--cluster Candidate Aggregate--><g id="cluster_Candidate Aggregate"><path d="M454.5,174.0137 L603.5,174.0137 A3.75,3.75 0 0 1 606,176.5137 L613,198.6348 L760.5,198.6348 A2.5,2.5 0 0 1 763,201.1348 L763,492.0137 A2.5,2.5 0 0 1 760.5,494.5137 L454.5,494.5137 A2.5,2.5 0 0 1 452,492.0137 L452,176.5137 A2.5,2.5 0 0 1 454.5,174.0137 " fill="none" style="stroke:#000000;stroke-width:1.5;"/><line style="stroke:#000000;stroke-width:1.5;" x1="452" x2="613" y1="198.6348" y2="198.6348"/><text fill="#000000" font-family="sans-serif" font-size="14" font-weight="bold" lengthAdjust="spacing" textLength="148" x="456" y="191.1211">Candidate Aggregate</text></g><!--cluster JobApplication Aggregate--><g id="cluster_JobApplication Aggregate"><path d="M8.5,358.0137 L190.5,358.0137 A3.75,3.75 0 0 1 193,360.5137 L200,382.6348 L425.5,382.6348 A2.5,2.5 0 0 1 428,385.1348 L428,655.0137 A2.5,2.5 0 0 1 425.5,657.5137 L8.5,657.5137 A2.5,2.5 0 0 1 6,655.0137 L6,360.5137 A2.5,2.5 0 0 1 8.5,358.0137 " fill="none" style="stroke:#000000;stroke-width:1.5;"/><line style="stroke:#000000;stroke-width:1.5;" x1="6" x2="200" y1="382.6348" y2="382.6348"/><text fill="#000000" font-family="sans-serif" font-size="14" font-weight="bold" lengthAdjust="spacing" textLength="181" x="10" y="375.1211">JobApplication Aggregate</text></g><!--cluster Job Opening Aggregate--><g id="cluster_Job Opening Aggregate"><path d="M177.5,6.0137 L345.5,6.0137 A3.75,3.75 0 0 1 348,8.5137 L355,30.6348 L521.5,30.6348 A2.5,2.5 0 0 1 524,33.1348 L524,138.5137 A2.5,2.5 0 0 1 521.5,141.0137 L177.5,141.0137 A2.5,2.5 0 0 1 175,138.5137 L175,8.5137 A2.5,2.5 0 0 1 177.5,6.0137 " fill="none" style="stroke:#000000;stroke-width:1.5;"/><line style="stroke:#000000;stroke-width:1.5;" x1="175" x2="355" y1="30.6348" y2="30.6348"/><text fill="#000000" font-family="sans-serif" font-size="14" font-weight="bold" lengthAdjust="spacing" textLength="167" x="179" y="23.1211">Job Opening Aggregate</text></g><!--class Candidate--><g id="elem_Candidate"><rect codeLine="4" fill="#F1F1F1" height="81.8633" id="Candidate" rx="2.5" ry="2.5" style="stroke:#181818;stroke-width:0.5;" width="97" x="649.5" y="211.0137"/><ellipse cx="664.5" cy="243.9453" fill="#ADD1B2" rx="11" ry="11" style="stroke:#181818;stroke-width:1.0;"/><path d="M667.2656,239.8203 Q667.4219,239.6016 667.6094,239.4922 Q667.7969,239.3828 668.0156,239.3828 Q668.3906,239.3828 668.625,239.6484 Q668.8594,239.8984 668.8594,240.5078 L668.8594,241.9609 Q668.8594,242.5703 668.625,242.8359 Q668.3906,243.1016 668.0156,243.1016 Q667.6719,243.1016 667.4688,242.8984 Q667.2656,242.7109 667.1563,242.1953 Q667.1094,241.8359 666.9219,241.6484 Q666.5938,241.2734 665.9844,241.0547 Q665.375,240.8359 664.75,240.8359 Q663.9844,240.8359 663.3438,241.1641 Q662.7188,241.4922 662.2188,242.2422 Q661.7344,242.9922 661.7344,244.0234 L661.7344,245.1172 Q661.7344,246.3516 662.625,247.1797 Q663.5156,247.9922 665.1094,247.9922 Q666.0469,247.9922 666.7031,247.7422 Q667.0938,247.5859 667.5156,247.1484 Q667.7813,246.8828 667.9219,246.8047 Q668.0781,246.7266 668.2813,246.7266 Q668.6094,246.7266 668.8594,246.9922 Q669.125,247.2422 669.125,247.5859 Q669.125,247.9297 668.7813,248.3359 Q668.2813,248.9141 667.4844,249.2422 Q666.4063,249.6953 665.1094,249.6953 Q663.5938,249.6953 662.3906,249.0703 Q661.4063,248.5703 660.7188,247.5078 Q660.0313,246.4297 660.0313,245.1484 L660.0313,243.9922 Q660.0313,242.6641 660.6406,241.5234 Q661.2656,240.3672 662.3594,239.7578 Q663.4531,239.1328 664.6875,239.1328 Q665.4219,239.1328 666.0625,239.3047 Q666.7188,239.4609 667.2656,239.8203 Z " fill="#000000"/><text fill="#000000" font-family="sans-serif" font-size="14" lengthAdjust="spacing" textLength="41" x="690.5" y="231.1211">&#171;root&#187;</text><text fill="#000000" font-family="sans-serif" font-size="14" lengthAdjust="spacing" textLength="50" x="686" y="249.7422">&#171;entity&#187;</text><text fill="#000000" font-family="sans-serif" font-size="14" lengthAdjust="spacing" textLength="65" x="678.5" y="268.3633">Candidate</text><line style="stroke:#181818;stroke-width:0.5;" x1="650.5" x2="745.5" y1="276.877" y2="276.877"/><line style="stroke:#181818;stroke-width:0.5;" x1="650.5" x2="745.5" y1="284.877" y2="284.877"/></g><!--class Name--><g id="elem_Name"><rect codeLine="8" fill="#F1F1F1" height="85.2422" id="Name" rx="2.5" ry="2.5" style="stroke:#181818;stroke-width:0.5;" width="71" x="511.5" y="393.5137"/><ellipse cx="527.85" cy="409.5137" fill="#ADD1B2" rx="11" ry="11" style="stroke:#181818;stroke-width:1.0;"/><path d="M530.6156,405.3887 Q530.7719,405.1699 530.9594,405.0605 Q531.1469,404.9512 531.3656,404.9512 Q531.7406,404.9512 531.975,405.2168 Q532.2094,405.4668 532.2094,406.0762 L532.2094,407.5293 Q532.2094,408.1387 531.975,408.4043 Q531.7406,408.6699 531.3656,408.6699 Q531.0219,408.6699 530.8188,408.4668 Q530.6156,408.2793 530.5063,407.7637 Q530.4594,407.4043 530.2719,407.2168 Q529.9438,406.8418 529.3344,406.623 Q528.725,406.4043 528.1,406.4043 Q527.3344,406.4043 526.6938,406.7324 Q526.0688,407.0605 525.5688,407.8105 Q525.0844,408.5605 525.0844,409.5918 L525.0844,410.6855 Q525.0844,411.9199 525.975,412.748 Q526.8656,413.5605 528.4594,413.5605 Q529.3969,413.5605 530.0531,413.3105 Q530.4438,413.1543 530.8656,412.7168 Q531.1313,412.4512 531.2719,412.373 Q531.4281,412.2949 531.6313,412.2949 Q531.9594,412.2949 532.2094,412.5605 Q532.475,412.8105 532.475,413.1543 Q532.475,413.498 532.1313,413.9043 Q531.6313,414.4824 530.8344,414.8105 Q529.7563,415.2637 528.4594,415.2637 Q526.9438,415.2637 525.7406,414.6387 Q524.7563,414.1387 524.0688,413.0762 Q523.3813,411.998 523.3813,410.7168 L523.3813,409.5605 Q523.3813,408.2324 523.9906,407.0918 Q524.6156,405.9355 525.7094,405.3262 Q526.8031,404.7012 528.0375,404.7012 Q528.7719,404.7012 529.4125,404.873 Q530.0688,405.0293 530.6156,405.3887 Z " fill="#000000"/><text fill="#000000" font-family="sans-serif" font-size="14" lengthAdjust="spacing" textLength="36" x="542.15" y="415.3105">Name</text><line style="stroke:#181818;stroke-width:0.5;" x1="512.5" x2="581.5" y1="425.5137" y2="425.5137"/><text fill="#000000" font-family="sans-serif" font-size="14" lengthAdjust="spacing" textLength="59" x="517.5" y="444.6211">firstName</text><text fill="#000000" font-family="sans-serif" font-size="14" lengthAdjust="spacing" textLength="58" x="517.5" y="463.2422">lastName</text><line style="stroke:#181818;stroke-width:0.5;" x1="512.5" x2="581.5" y1="470.7559" y2="470.7559"/></g><!--class PhoneNumber--><g id="elem_PhoneNumber"><rect codeLine="13" fill="#F1F1F1" height="81.8633" id="PhoneNumber" rx="2.5" ry="2.5" style="stroke:#181818;stroke-width:0.5;" width="124" x="468" y="211.0137"/><ellipse cx="483" cy="234.6348" fill="#ADD1B2" rx="11" ry="11" style="stroke:#181818;stroke-width:1.0;"/><path d="M485.7656,230.5098 Q485.9219,230.291 486.1094,230.1816 Q486.2969,230.0723 486.5156,230.0723 Q486.8906,230.0723 487.125,230.3379 Q487.3594,230.5879 487.3594,231.1973 L487.3594,232.6504 Q487.3594,233.2598 487.125,233.5254 Q486.8906,233.791 486.5156,233.791 Q486.1719,233.791 485.9688,233.5879 Q485.7656,233.4004 485.6563,232.8848 Q485.6094,232.5254 485.4219,232.3379 Q485.0938,231.9629 484.4844,231.7441 Q483.875,231.5254 483.25,231.5254 Q482.4844,231.5254 481.8438,231.8535 Q481.2188,232.1816 480.7188,232.9316 Q480.2344,233.6816 480.2344,234.7129 L480.2344,235.8066 Q480.2344,237.041 481.125,237.8691 Q482.0156,238.6816 483.6094,238.6816 Q484.5469,238.6816 485.2031,238.4316 Q485.5938,238.2754 486.0156,237.8379 Q486.2813,237.5723 486.4219,237.4941 Q486.5781,237.416 486.7813,237.416 Q487.1094,237.416 487.3594,237.6816 Q487.625,237.9316 487.625,238.2754 Q487.625,238.6191 487.2813,239.0254 Q486.7813,239.6035 485.9844,239.9316 Q484.9063,240.3848 483.6094,240.3848 Q482.0938,240.3848 480.8906,239.7598 Q479.9063,239.2598 479.2188,238.1973 Q478.5313,237.1191 478.5313,235.8379 L478.5313,234.6816 Q478.5313,233.3535 479.1406,232.2129 Q479.7656,231.0566 480.8594,230.4473 Q481.9531,229.8223 483.1875,229.8223 Q483.9219,229.8223 484.5625,229.9941 Q485.2188,230.1504 485.7656,230.5098 Z " fill="#000000"/><text fill="#000000" font-family="sans-serif" font-size="14" lengthAdjust="spacing" textLength="92" x="497" y="231.1211">&#171;value object&#187;</text><text fill="#000000" font-family="sans-serif" font-size="14" lengthAdjust="spacing" textLength="90" x="498" y="249.7422">PhoneNumber</text><line style="stroke:#181818;stroke-width:0.5;" x1="469" x2="591" y1="258.2559" y2="258.2559"/><text fill="#000000" font-family="sans-serif" font-size="14" lengthAdjust="spacing" textLength="89" x="474" y="277.3633">phoneNumber</text><line style="stroke:#181818;stroke-width:0.5;" x1="469" x2="591" y1="284.877" y2="284.877"/></g><!--class EMail--><g id="elem_EMail"><rect codeLine="17" fill="#F1F1F1" height="81.8633" id="EMail" rx="2.5" ry="2.5" style="stroke:#181818;stroke-width:0.5;" width="124" x="618" y="395.0137"/><ellipse cx="633" cy="418.6348" fill="#ADD1B2" rx="11" ry="11" style="stroke:#181818;stroke-width:1.0;"/><path d="M635.7656,414.5098 Q635.9219,414.291 636.1094,414.1816 Q636.2969,414.0723 636.5156,414.0723 Q636.8906,414.0723 637.125,414.3379 Q637.3594,414.5879 637.3594,415.1973 L637.3594,416.6504 Q637.3594,417.2598 637.125,417.5254 Q636.8906,417.791 636.5156,417.791 Q636.1719,417.791 635.9688,417.5879 Q635.7656,417.4004 635.6563,416.8848 Q635.6094,416.5254 635.4219,416.3379 Q635.0938,415.9629 634.4844,415.7441 Q633.875,415.5254 633.25,415.5254 Q632.4844,415.5254 631.8438,415.8535 Q631.2188,416.1816 630.7188,416.9316 Q630.2344,417.6816 630.2344,418.7129 L630.2344,419.8066 Q630.2344,421.041 631.125,421.8691 Q632.0156,422.6816 633.6094,422.6816 Q634.5469,422.6816 635.2031,422.4316 Q635.5938,422.2754 636.0156,421.8379 Q636.2813,421.5723 636.4219,421.4941 Q636.5781,421.416 636.7813,421.416 Q637.1094,421.416 637.3594,421.6816 Q637.625,421.9316 637.625,422.2754 Q637.625,422.6191 637.2813,423.0254 Q636.7813,423.6035 635.9844,423.9316 Q634.9063,424.3848 633.6094,424.3848 Q632.0938,424.3848 630.8906,423.7598 Q629.9063,423.2598 629.2188,422.1973 Q628.5313,421.1191 628.5313,419.8379 L628.5313,418.6816 Q628.5313,417.3535 629.1406,416.2129 Q629.7656,415.0566 630.8594,414.4473 Q631.9531,413.8223 633.1875,413.8223 Q633.9219,413.8223 634.5625,413.9941 Q635.2188,414.1504 635.7656,414.5098 Z " fill="#000000"/><text fill="#000000" font-family="sans-serif" font-size="14" lengthAdjust="spacing" textLength="92" x="647" y="415.1211">&#171;value object&#187;</text><text fill="#000000" font-family="sans-serif" font-size="14" lengthAdjust="spacing" textLength="39" x="673.5" y="433.7422">E-Mail</text><line style="stroke:#181818;stroke-width:0.5;" x1="619" x2="741" y1="442.2559" y2="442.2559"/><text fill="#000000" font-family="sans-serif" font-size="14" lengthAdjust="spacing" textLength="33" x="624" y="461.3633">email</text><line style="stroke:#181818;stroke-width:0.5;" x1="619" x2="741" y1="468.877" y2="468.877"/></g><!--class JobApplication--><g id="elem_JobApplication"><rect codeLine="24" fill="#F1F1F1" height="81.8633" id="JobApplication" rx="2.5" ry="2.5" style="stroke:#181818;stroke-width:0.5;" width="123" x="183.5" y="395.0137"/><ellipse cx="198.5" cy="427.9453" fill="#ADD1B2" rx="11" ry="11" style="stroke:#181818;stroke-width:1.0;"/><path d="M201.2656,423.8203 Q201.4219,423.6016 201.6094,423.4922 Q201.7969,423.3828 202.0156,423.3828 Q202.3906,423.3828 202.625,423.6484 Q202.8594,423.8984 202.8594,424.5078 L202.8594,425.9609 Q202.8594,426.5703 202.625,426.8359 Q202.3906,427.1016 202.0156,427.1016 Q201.6719,427.1016 201.4688,426.8984 Q201.2656,426.7109 201.1563,426.1953 Q201.1094,425.8359 200.9219,425.6484 Q200.5938,425.2734 199.9844,425.0547 Q199.375,424.8359 198.75,424.8359 Q197.9844,424.8359 197.3438,425.1641 Q196.7188,425.4922 196.2188,426.2422 Q195.7344,426.9922 195.7344,428.0234 L195.7344,429.1172 Q195.7344,430.3516 196.625,431.1797 Q197.5156,431.9922 199.1094,431.9922 Q200.0469,431.9922 200.7031,431.7422 Q201.0938,431.5859 201.5156,431.1484 Q201.7813,430.8828 201.9219,430.8047 Q202.0781,430.7266 202.2813,430.7266 Q202.6094,430.7266 202.8594,430.9922 Q203.125,431.2422 203.125,431.5859 Q203.125,431.9297 202.7813,432.3359 Q202.2813,432.9141 201.4844,433.2422 Q200.4063,433.6953 199.1094,433.6953 Q197.5938,433.6953 196.3906,433.0703 Q195.4063,432.5703 194.7188,431.5078 Q194.0313,430.4297 194.0313,429.1484 L194.0313,427.9922 Q194.0313,426.6641 194.6406,425.5234 Q195.2656,424.3672 196.3594,423.7578 Q197.4531,423.1328 198.6875,423.1328 Q199.4219,423.1328 200.0625,423.3047 Q200.7188,423.4609 201.2656,423.8203 Z " fill="#000000"/><text fill="#000000" font-family="sans-serif" font-size="14" lengthAdjust="spacing" textLength="41" x="237.5" y="415.1211">&#171;root&#187;</text><text fill="#000000" font-family="sans-serif" font-size="14" lengthAdjust="spacing" textLength="50" x="233" y="433.7422">&#171;entity&#187;</text><text fill="#000000" font-family="sans-serif" font-size="14" lengthAdjust="spacing" textLength="91" x="212.5" y="452.3633">JobApplication</text><line style="stroke:#181818;stroke-width:0.5;" x1="184.5" x2="305.5" y1="460.877" y2="460.877"/><line style="stroke:#181818;stroke-width:0.5;" x1="184.5" x2="305.5" y1="468.877" y2="468.877"/></g><!--class Status--><g id="elem_Status"><rect codeLine="26" fill="#F1F1F1" height="48" id="Status" rx="2.5" ry="2.5" style="stroke:#181818;stroke-width:0.5;" width="72" x="22" y="576.5137"/><ellipse cx="37" cy="592.5137" fill="#ADD1B2" rx="11" ry="11" style="stroke:#181818;stroke-width:1.0;"/><path d="M39.7656,588.3887 Q39.9219,588.1699 40.1094,588.0605 Q40.2969,587.9512 40.5156,587.9512 Q40.8906,587.9512 41.125,588.2168 Q41.3594,588.4668 41.3594,589.0762 L41.3594,590.5293 Q41.3594,591.1387 41.125,591.4043 Q40.8906,591.6699 40.5156,591.6699 Q40.1719,591.6699 39.9688,591.4668 Q39.7656,591.2793 39.6563,590.7637 Q39.6094,590.4043 39.4219,590.2168 Q39.0938,589.8418 38.4844,589.623 Q37.875,589.4043 37.25,589.4043 Q36.4844,589.4043 35.8438,589.7324 Q35.2188,590.0605 34.7188,590.8105 Q34.2344,591.5605 34.2344,592.5918 L34.2344,593.6855 Q34.2344,594.9199 35.125,595.748 Q36.0156,596.5605 37.6094,596.5605 Q38.5469,596.5605 39.2031,596.3105 Q39.5938,596.1543 40.0156,595.7168 Q40.2813,595.4512 40.4219,595.373 Q40.5781,595.2949 40.7813,595.2949 Q41.1094,595.2949 41.3594,595.5605 Q41.625,595.8105 41.625,596.1543 Q41.625,596.498 41.2813,596.9043 Q40.7813,597.4824 39.9844,597.8105 Q38.9063,598.2637 37.6094,598.2637 Q36.0938,598.2637 34.8906,597.6387 Q33.9063,597.1387 33.2188,596.0762 Q32.5313,594.998 32.5313,593.7168 L32.5313,592.5605 Q32.5313,591.2324 33.1406,590.0918 Q33.7656,588.9355 34.8594,588.3262 Q35.9531,587.7012 37.1875,587.7012 Q37.9219,587.7012 38.5625,587.873 Q39.2188,588.0293 39.7656,588.3887 Z " fill="#000000"/><text fill="#000000" font-family="sans-serif" font-size="14" lengthAdjust="spacing" textLength="40" x="51" y="598.3105">Status</text><line style="stroke:#181818;stroke-width:0.5;" x1="23" x2="93" y1="608.5137" y2="608.5137"/><line style="stroke:#181818;stroke-width:0.5;" x1="23" x2="93" y1="616.5137" y2="616.5137"/></g><!--class Curriculum--><g id="elem_Curriculum"><rect codeLine="28" fill="#F1F1F1" height="63.2422" id="Curriculum" rx="2.5" ry="2.5" style="stroke:#181818;stroke-width:0.5;" width="124" x="129" y="569.0137"/><ellipse cx="144" cy="592.6348" fill="#ADD1B2" rx="11" ry="11" style="stroke:#181818;stroke-width:1.0;"/><path d="M146.7656,588.5098 Q146.9219,588.291 147.1094,588.1816 Q147.2969,588.0723 147.5156,588.0723 Q147.8906,588.0723 148.125,588.3379 Q148.3594,588.5879 148.3594,589.1973 L148.3594,590.6504 Q148.3594,591.2598 148.125,591.5254 Q147.8906,591.791 147.5156,591.791 Q147.1719,591.791 146.9688,591.5879 Q146.7656,591.4004 146.6563,590.8848 Q146.6094,590.5254 146.4219,590.3379 Q146.0938,589.9629 145.4844,589.7441 Q144.875,589.5254 144.25,589.5254 Q143.4844,589.5254 142.8438,589.8535 Q142.2188,590.1816 141.7188,590.9316 Q141.2344,591.6816 141.2344,592.7129 L141.2344,593.8066 Q141.2344,595.041 142.125,595.8691 Q143.0156,596.6816 144.6094,596.6816 Q145.5469,596.6816 146.2031,596.4316 Q146.5938,596.2754 147.0156,595.8379 Q147.2813,595.5723 147.4219,595.4941 Q147.5781,595.416 147.7813,595.416 Q148.1094,595.416 148.3594,595.6816 Q148.625,595.9316 148.625,596.2754 Q148.625,596.6191 148.2813,597.0254 Q147.7813,597.6035 146.9844,597.9316 Q145.9063,598.3848 144.6094,598.3848 Q143.0938,598.3848 141.8906,597.7598 Q140.9063,597.2598 140.2188,596.1973 Q139.5313,595.1191 139.5313,593.8379 L139.5313,592.6816 Q139.5313,591.3535 140.1406,590.2129 Q140.7656,589.0566 141.8594,588.4473 Q142.9531,587.8223 144.1875,587.8223 Q144.9219,587.8223 145.5625,587.9941 Q146.2188,588.1504 146.7656,588.5098 Z " fill="#000000"/><text fill="#000000" font-family="sans-serif" font-size="14" lengthAdjust="spacing" textLength="92" x="158" y="589.1211">&#171;value object&#187;</text><text fill="#000000" font-family="sans-serif" font-size="14" lengthAdjust="spacing" textLength="68" x="170" y="607.7422">Curriculum</text><line style="stroke:#181818;stroke-width:0.5;" x1="130" x2="252" y1="616.2559" y2="616.2559"/><line style="stroke:#181818;stroke-width:0.5;" x1="130" x2="252" y1="624.2559" y2="624.2559"/></g><!--class Grade2--><g id="elem_Grade2"><rect codeLine="30" fill="#F1F1F1" height="81.8633" id="Grade2" rx="2.5" ry="2.5" style="stroke:#181818;stroke-width:0.5;" width="124" x="288" y="559.5137"/><ellipse cx="303" cy="592.4453" fill="#ADD1B2" rx="11" ry="11" style="stroke:#181818;stroke-width:1.0;"/><path d="M305.7656,588.3203 Q305.9219,588.1016 306.1094,587.9922 Q306.2969,587.8828 306.5156,587.8828 Q306.8906,587.8828 307.125,588.1484 Q307.3594,588.3984 307.3594,589.0078 L307.3594,590.4609 Q307.3594,591.0703 307.125,591.3359 Q306.8906,591.6016 306.5156,591.6016 Q306.1719,591.6016 305.9688,591.3984 Q305.7656,591.2109 305.6563,590.6953 Q305.6094,590.3359 305.4219,590.1484 Q305.0938,589.7734 304.4844,589.5547 Q303.875,589.3359 303.25,589.3359 Q302.4844,589.3359 301.8438,589.6641 Q301.2188,589.9922 300.7188,590.7422 Q300.2344,591.4922 300.2344,592.5234 L300.2344,593.6172 Q300.2344,594.8516 301.125,595.6797 Q302.0156,596.4922 303.6094,596.4922 Q304.5469,596.4922 305.2031,596.2422 Q305.5938,596.0859 306.0156,595.6484 Q306.2813,595.3828 306.4219,595.3047 Q306.5781,595.2266 306.7813,595.2266 Q307.1094,595.2266 307.3594,595.4922 Q307.625,595.7422 307.625,596.0859 Q307.625,596.4297 307.2813,596.8359 Q306.7813,597.4141 305.9844,597.7422 Q304.9063,598.1953 303.6094,598.1953 Q302.0938,598.1953 300.8906,597.5703 Q299.9063,597.0703 299.2188,596.0078 Q298.5313,594.9297 298.5313,593.6484 L298.5313,592.4922 Q298.5313,591.1641 299.1406,590.0234 Q299.7656,588.8672 300.8594,588.2578 Q301.9531,587.6328 303.1875,587.6328 Q303.9219,587.6328 304.5625,587.8047 Q305.2188,587.9609 305.7656,588.3203 Z " fill="#000000"/><text fill="#000000" font-family="sans-serif" font-size="14" lengthAdjust="spacing" textLength="92" x="317" y="579.6211">&#171;value object&#187;</text><text fill="#000000" font-family="sans-serif" font-size="14" lengthAdjust="spacing" textLength="80" x="323" y="598.2422">&#171;calculated&#187;</text><text fill="#000000" font-family="sans-serif" font-size="14" lengthAdjust="spacing" textLength="40" x="343" y="616.8633">Grade</text><line style="stroke:#181818;stroke-width:0.5;" x1="289" x2="411" y1="625.377" y2="625.377"/><line style="stroke:#181818;stroke-width:0.5;" x1="289" x2="411" y1="633.377" y2="633.377"/></g><!--class JobOpening--><g id="elem_JobOpening"><rect codeLine="35" fill="#F1F1F1" height="81.8633" id="JobOpening" rx="2.5" ry="2.5" style="stroke:#181818;stroke-width:0.5;" width="108" x="191" y="43.0137"/><ellipse cx="206" cy="75.9453" fill="#ADD1B2" rx="11" ry="11" style="stroke:#181818;stroke-width:1.0;"/><path d="M208.7656,71.8203 Q208.9219,71.6016 209.1094,71.4922 Q209.2969,71.3828 209.5156,71.3828 Q209.8906,71.3828 210.125,71.6484 Q210.3594,71.8984 210.3594,72.5078 L210.3594,73.9609 Q210.3594,74.5703 210.125,74.8359 Q209.8906,75.1016 209.5156,75.1016 Q209.1719,75.1016 208.9688,74.8984 Q208.7656,74.7109 208.6563,74.1953 Q208.6094,73.8359 208.4219,73.6484 Q208.0938,73.2734 207.4844,73.0547 Q206.875,72.8359 206.25,72.8359 Q205.4844,72.8359 204.8438,73.1641 Q204.2188,73.4922 203.7188,74.2422 Q203.2344,74.9922 203.2344,76.0234 L203.2344,77.1172 Q203.2344,78.3516 204.125,79.1797 Q205.0156,79.9922 206.6094,79.9922 Q207.5469,79.9922 208.2031,79.7422 Q208.5938,79.5859 209.0156,79.1484 Q209.2813,78.8828 209.4219,78.8047 Q209.5781,78.7266 209.7813,78.7266 Q210.1094,78.7266 210.3594,78.9922 Q210.625,79.2422 210.625,79.5859 Q210.625,79.9297 210.2813,80.3359 Q209.7813,80.9141 208.9844,81.2422 Q207.9063,81.6953 206.6094,81.6953 Q205.0938,81.6953 203.8906,81.0703 Q202.9063,80.5703 202.2188,79.5078 Q201.5313,78.4297 201.5313,77.1484 L201.5313,75.9922 Q201.5313,74.6641 202.1406,73.5234 Q202.7656,72.3672 203.8594,71.7578 Q204.9531,71.1328 206.1875,71.1328 Q206.9219,71.1328 207.5625,71.3047 Q208.2188,71.4609 208.7656,71.8203 Z " fill="#000000"/><text fill="#000000" font-family="sans-serif" font-size="14" lengthAdjust="spacing" textLength="41" x="237.5" y="63.1211">&#171;root&#187;</text><text fill="#000000" font-family="sans-serif" font-size="14" lengthAdjust="spacing" textLength="50" x="231" y="81.7422">&#171;entity&#187;</text><text fill="#000000" font-family="sans-serif" font-size="14" lengthAdjust="spacing" textLength="76" x="220" y="100.3633">JobOpening</text><line style="stroke:#181818;stroke-width:0.5;" x1="192" x2="298" y1="108.877" y2="108.877"/><line style="stroke:#181818;stroke-width:0.5;" x1="192" x2="298" y1="116.877" y2="116.877"/></g><!--class JobReference--><g id="elem_JobReference"><rect codeLine="39" fill="#F1F1F1" height="81.8633" id="JobReference" rx="2.5" ry="2.5" style="stroke:#181818;stroke-width:0.5;" width="124" x="384" y="43.0137"/><ellipse cx="399" cy="75.9453" fill="#ADD1B2" rx="11" ry="11" style="stroke:#181818;stroke-width:1.0;"/><path d="M401.7656,71.8203 Q401.9219,71.6016 402.1094,71.4922 Q402.2969,71.3828 402.5156,71.3828 Q402.8906,71.3828 403.125,71.6484 Q403.3594,71.8984 403.3594,72.5078 L403.3594,73.9609 Q403.3594,74.5703 403.125,74.8359 Q402.8906,75.1016 402.5156,75.1016 Q402.1719,75.1016 401.9688,74.8984 Q401.7656,74.7109 401.6563,74.1953 Q401.6094,73.8359 401.4219,73.6484 Q401.0938,73.2734 400.4844,73.0547 Q399.875,72.8359 399.25,72.8359 Q398.4844,72.8359 397.8438,73.1641 Q397.2188,73.4922 396.7188,74.2422 Q396.2344,74.9922 396.2344,76.0234 L396.2344,77.1172 Q396.2344,78.3516 397.125,79.1797 Q398.0156,79.9922 399.6094,79.9922 Q400.5469,79.9922 401.2031,79.7422 Q401.5938,79.5859 402.0156,79.1484 Q402.2813,78.8828 402.4219,78.8047 Q402.5781,78.7266 402.7813,78.7266 Q403.1094,78.7266 403.3594,78.9922 Q403.625,79.2422 403.625,79.5859 Q403.625,79.9297 403.2813,80.3359 Q402.7813,80.9141 401.9844,81.2422 Q400.9063,81.6953 399.6094,81.6953 Q398.0938,81.6953 396.8906,81.0703 Q395.9063,80.5703 395.2188,79.5078 Q394.5313,78.4297 394.5313,77.1484 L394.5313,75.9922 Q394.5313,74.6641 395.1406,73.5234 Q395.7656,72.3672 396.8594,71.7578 Q397.9531,71.1328 399.1875,71.1328 Q399.9219,71.1328 400.5625,71.3047 Q401.2188,71.4609 401.7656,71.8203 Z " fill="#000000"/><text fill="#000000" font-family="sans-serif" font-size="14" lengthAdjust="spacing" textLength="92" x="413" y="63.1211">&#171;value object&#187;</text><text fill="#000000" font-family="sans-serif" font-size="14" lengthAdjust="spacing" textLength="70" x="424" y="81.7422">&#171;identifier&#187;</text><text fill="#000000" font-family="sans-serif" font-size="14" lengthAdjust="spacing" textLength="88" x="415" y="100.3633">JobReference</text><line style="stroke:#181818;stroke-width:0.5;" x1="385" x2="507" y1="108.877" y2="108.877"/><line style="stroke:#181818;stroke-width:0.5;" x1="385" x2="507" y1="116.877" y2="116.877"/></g><!--link JobOpening to JobReference--><g id="link_JobOpening_JobReference"><path codeLine="43" d="M299.13,84.0137 C325.29,84.0137 350.82,84.0137 377.95,84.0137 " fill="none" id="JobOpening-to-JobReference" style="stroke:#181818;stroke-width:1.0;"/><polygon fill="#181818" points="383.95,84.0137,374.95,80.0137,378.95,84.0137,374.95,88.0137,383.95,84.0137" style="stroke:#181818;stroke-width:1.0;"/><text fill="#000000" font-family="sans-serif" font-size="13" lengthAdjust="spacing" textLength="48" x="317.5" y="77.042">includes</text><text fill="#000000" font-family="sans-serif" font-size="13" lengthAdjust="spacing" textLength="7" x="306.874" y="79.9285">1</text><text fill="#000000" font-family="sans-serif" font-size="13" lengthAdjust="spacing" textLength="7" x="368.9611" y="80.0321">1</text></g><!--link Candidate to EMail--><g id="link_Candidate_EMail"><path codeLine="44" d="M694.01,293.4037 C691.02,323.5637 687.5505,358.6328 684.5705,388.7628 " fill="none" id="Candidate-to-EMail" style="stroke:#181818;stroke-width:1.0;"/><polygon fill="#181818" points="683.98,394.7337,688.8464,386.1711,684.4721,389.7579,680.8852,385.3837,683.98,394.7337" style="stroke:#181818;stroke-width:1.0;"/><text fill="#000000" font-family="sans-serif" font-size="13" lengthAdjust="spacing" textLength="69" x="691" y="338.042">identified by</text><text fill="#000000" font-family="sans-serif" font-size="13" lengthAdjust="spacing" textLength="7" x="685.9099" y="314.791">1</text><text fill="#000000" font-family="sans-serif" font-size="13" lengthAdjust="spacing" textLength="7" x="677.0565" y="383.8624">1</text></g><!--reverse link PhoneNumber to Candidate--><g id="link_PhoneNumber_Candidate"><path codeLine="45" d="M598.08,252.0137 C616.96,252.0137 631.43,252.0137 649.3,252.0137 " fill="none" id="PhoneNumber-backto-Candidate" style="stroke:#181818;stroke-width:1.0;"/><polygon fill="#181818" points="592.08,252.0137,601.08,256.0137,597.08,252.0137,601.08,248.0137,592.08,252.0137" style="stroke:#181818;stroke-width:1.0;"/><text fill="#000000" font-family="sans-serif" font-size="13" lengthAdjust="spacing" textLength="21" x="610.25" y="245.042">has</text><text fill="#000000" font-family="sans-serif" font-size="13" lengthAdjust="spacing" textLength="7" x="600.0726" y="248.0321">1</text><text fill="#000000" font-family="sans-serif" font-size="13" lengthAdjust="spacing" textLength="7" x="634.6331" y="247.825">1</text></g><!--link Candidate to Name--><g id="link_Candidate_Name"><path codeLine="46" d="M653.87,293.1337 C636.5,309.9237 616.94,330.1337 601,350.0137 C590.28,363.3837 583.0261,373.877 574.2361,388.027 " fill="none" id="Candidate-to-Name" style="stroke:#181818;stroke-width:1.0;"/><polygon fill="#181818" points="571.07,393.1237,579.2169,387.5894,573.7084,388.8764,572.4213,383.368,571.07,393.1237" style="stroke:#181818;stroke-width:1.0;"/><text fill="#000000" font-family="sans-serif" font-size="13" lengthAdjust="spacing" textLength="21" x="624" y="338.042">has</text><text fill="#000000" font-family="sans-serif" font-size="13" lengthAdjust="spacing" textLength="7" x="639.5767" y="314.7928">1</text><text fill="#000000" font-family="sans-serif" font-size="13" lengthAdjust="spacing" textLength="7" x="567.2198" y="382.2866">1</text></g><!--reverse link Candidate to JobApplication--><g id="link_Candidate_JobApplication"><path codeLine="47" d="M643.966,278.4126 C631.226,284.1926 622.9,287.7637 610,293.0137 C540.85,321.1537 521.66,323.1637 452,350.0137 C402.88,368.9437 347.77,391.6537 306.77,408.8337 " fill="none" id="Candidate-backto-JobApplication" style="stroke:#181818;stroke-width:1.0;"/><polygon fill="#181818" points="649.43,275.9337,639.5814,276.0094,644.8767,277.9995,642.8867,283.2947,649.43,275.9337" style="stroke:#181818;stroke-width:1.0;"/><text fill="#000000" font-family="sans-serif" font-size="13" lengthAdjust="spacing" textLength="47" x="526" y="338.042">refers to</text><text fill="#000000" font-family="sans-serif" font-size="13" lengthAdjust="spacing" textLength="7" x="634.4568" y="275.3559">1</text><text fill="#000000" font-family="sans-serif" font-size="13" lengthAdjust="spacing" textLength="7" x="314.3168" y="401.7612">1</text></g><!--reverse link JobOpening to JobApplication--><g id="link_JobOpening_JobApplication"><path codeLine="48" d="M245,131.1637 C245,198.4937 245,327.4137 245,394.7937 " fill="none" id="JobOpening-backto-JobApplication" style="stroke:#181818;stroke-width:1.0;"/><polygon fill="#181818" points="245,125.1637,241,134.1637,245,130.1637,249,134.1637,245,125.1637" style="stroke:#181818;stroke-width:1.0;"/><text fill="#000000" font-family="sans-serif" font-size="13" lengthAdjust="spacing" textLength="47" x="246" y="257.542">refers to</text><text fill="#000000" font-family="sans-serif" font-size="13" lengthAdjust="spacing" textLength="7" x="237.4641" y="146.8274">1</text><text fill="#000000" font-family="sans-serif" font-size="13" lengthAdjust="spacing" textLength="5" x="239.5859" y="383.6225">*</text></g><!--link JobApplication to Status--><g id="link_JobApplication_Status"><path codeLine="50" d="M198.78,477.1837 C162.87,508.3837 118.8697,546.629 89.1797,572.419 " fill="none" id="JobApplication-to-Status" style="stroke:#181818;stroke-width:1.0;"/><polygon fill="#181818" points="84.65,576.3537,94.0677,573.4714,88.4248,573.0748,88.8214,567.4318,84.65,576.3537" style="stroke:#181818;stroke-width:1.0;"/></g><!--link JobApplication to Grade2--><g id="link_JobApplication_Grade2"><path codeLine="51" d="M270.96,477.1837 C287.11,502.1837 304.5532,529.1845 320.7232,554.2045 " fill="none" id="JobApplication-to-Grade2" style="stroke:#181818;stroke-width:1.0;"/><polygon fill="#181818" points="323.98,559.2437,322.4543,549.5137,321.266,555.0443,315.7354,553.856,323.98,559.2437" style="stroke:#181818;stroke-width:1.0;"/><text fill="#000000" font-family="sans-serif" font-size="13" lengthAdjust="spacing" textLength="22" x="296.0799" y="548.374">0..1</text></g><!--link JobApplication to Curriculum--><g id="link_JobApplication_Curriculum"><path codeLine="52" d="M231.65,477.1837 C222.22,505.5637 211.6608,537.3294 203.0408,563.2894 " fill="none" id="JobApplication-to-Curriculum" style="stroke:#181818;stroke-width:1.0;"/><polygon fill="#181818" points="201.15,568.9837,207.7824,561.7028,202.7257,564.2384,200.19,559.1817,201.15,568.9837" style="stroke:#181818;stroke-width:1.0;"/><text fill="#000000" font-family="sans-serif" font-size="13" lengthAdjust="spacing" textLength="48" x="220" y="525.542">includes</text><text fill="#000000" font-family="sans-serif" font-size="13" lengthAdjust="spacing" textLength="7" x="222.0698" y="498.8505">1</text><text fill="#000000" font-family="sans-serif" font-size="13" lengthAdjust="spacing" textLength="7" x="195.5216" y="557.7608">1</text></g><!--SRC=[bLFDIiGm4BxdAOPU1A6xwh4imhA88FY3NhtCfjbkD4rBcWgox1Fj8tZhavcVRfDMHUsXpCyttqo-J4wsMjTDDf_N0gLkIp6ZLJcd0ficpJaM2aj2QgIlM318LYXpdgDci2mAnGfZ9Ji2vdCLa7G7LLMw-tYMtO59pVMxjOUo1B21mTiHLxedCSCTbXvc3V3azjjmrMWR6o867m9ZakxmXg9bKArV67NZF6mhoUxQSisKOuzytwCEWPZmPyQhz1QvS6HNrkf7PQMnlMaezf5uDzLwMTU2KzIyalzJS5phcev3ktxemFIaKRVDr_WtHrcrId7QYhRq5pIuVwhk3XI5WPkZvDQ_LfZxAtJMnMvlP8XLWFkQIIwBaGJaDn70gT2N7XNetMFvhvFotD9jE5EzgezimnIJb1qPXy3nxEOAGoD8pfFqqln6KCY0IohQd3KaF14BzLYt7v0DpNDOlvDe0orqaLfagCws697Pd26pGFymCXZbNMAHfj2F5YzQfkoS3UXgSX23JvFJwLvc4F1aahCZ-BtwBfESpMQclR_r2I284ROhbkqJ]--></g></svg>