<?xml version="1.0" encoding="us-ascii" standalone="no"?><svg xmlns="http://www.w3.org/2000/svg" xmlns:xlink="http://www.w3.org/1999/xlink" contentStyleType="text/css" height="1997px" preserveAspectRatio="none" style="width:2123px;height:1997px;background:#FFFFFF;" version="1.1" viewBox="0 0 2123 1997" width="2123px" zoomAndPan="magnify"><defs/><g><text fill="#000000" font-family="sans-serif" font-size="14" font-weight="bold" lengthAdjust="spacing" textLength="461" x="824.25" y="25.1074">"US1011 - Select Interview Model for Job Opening" Class Diagram</text><!--class SelectInterviewModelController--><g id="elem_SelectInterviewModelController"><rect codeLine="4" fill="#F1F1F1" height="103.8633" id="SelectInterviewModelController" rx="2.5" ry="2.5" style="stroke:#181818;stroke-width:0.5;" width="379" x="1089" y="155.6211"/><ellipse cx="1177.25" cy="171.6211" fill="#ADD1B2" rx="11" ry="11" style="stroke:#181818;stroke-width:1.0;"/><path d="M1180.0156,167.4961 Q1180.1719,167.2773 1180.3594,167.168 Q1180.5469,167.0586 1180.7656,167.0586 Q1181.1406,167.0586 1181.375,167.3242 Q1181.6094,167.5742 1181.6094,168.1836 L1181.6094,169.6367 Q1181.6094,170.2461 1181.375,170.5117 Q1181.1406,170.7773 1180.7656,170.7773 Q1180.4219,170.7773 1180.2188,170.5742 Q1180.0156,170.3867 1179.9063,169.8711 Q1179.8594,169.5117 1179.6719,169.3242 Q1179.3438,168.9492 1178.7344,168.7305 Q1178.125,168.5117 1177.5,168.5117 Q1176.7344,168.5117 1176.0938,168.8398 Q1175.4688,169.168 1174.9688,169.918 Q1174.4844,170.668 1174.4844,171.6992 L1174.4844,172.793 Q1174.4844,174.0273 1175.375,174.8555 Q1176.2656,175.668 1177.8594,175.668 Q1178.7969,175.668 1179.4531,175.418 Q1179.8438,175.2617 1180.2656,174.8242 Q1180.5313,174.5586 1180.6719,174.4805 Q1180.8281,174.4023 1181.0313,174.4023 Q1181.3594,174.4023 1181.6094,174.668 Q1181.875,174.918 1181.875,175.2617 Q1181.875,175.6055 1181.5313,176.0117 Q1181.0313,176.5898 1180.2344,176.918 Q1179.1563,177.3711 1177.8594,177.3711 Q1176.3438,177.3711 1175.1406,176.7461 Q1174.1563,176.2461 1173.4688,175.1836 Q1172.7813,174.1055 1172.7813,172.8242 L1172.7813,171.668 Q1172.7813,170.3398 1173.3906,169.1992 Q1174.0156,168.043 1175.1094,167.4336 Q1176.2031,166.8086 1177.4375,166.8086 Q1178.1719,166.8086 1178.8125,166.9805 Q1179.4688,167.1367 1180.0156,167.4961 Z " fill="#000000"/><text fill="#000000" font-family="sans-serif" font-size="14" lengthAdjust="spacing" textLength="194" x="1197.75" y="177.418">SelectInterviewModelController</text><line style="stroke:#181818;stroke-width:0.5;" x1="1090" x2="1467" y1="187.6211" y2="187.6211"/><line style="stroke:#181818;stroke-width:0.5;" x1="1090" x2="1467" y1="195.6211" y2="195.6211"/><ellipse cx="1100" cy="210.4316" fill="#84BE84" rx="3" ry="3" style="stroke:#038048;stroke-width:1.0;"/><text fill="#000000" font-family="sans-serif" font-size="14" lengthAdjust="spacing" textLength="258" x="1109" y="214.7285">allJobOpenings() : Iterable&lt;JobOpening&gt;</text><ellipse cx="1100" cy="229.0527" fill="#84BE84" rx="3" ry="3" style="stroke:#038048;stroke-width:1.0;"/><text fill="#000000" font-family="sans-serif" font-size="14" lengthAdjust="spacing" textLength="231" x="1109" y="233.3496">allInterviewModel() : Iterable&lt;Plugin&gt;</text><ellipse cx="1100" cy="247.6738" fill="#84BE84" rx="3" ry="3" style="stroke:#038048;stroke-width:1.0;"/><text fill="#000000" font-family="sans-serif" font-size="14" lengthAdjust="spacing" textLength="353" x="1109" y="251.9707">putRequirement(JobOpening jobOpening, Plugin plugin)</text></g><!--class SelectInterviewModelUI--><g id="elem_SelectInterviewModelUI"><rect codeLine="10" fill="#F1F1F1" height="48" id="SelectInterviewModelUI" rx="2.5" ry="2.5" style="stroke:#181818;stroke-width:0.5;" width="176" x="1190.5" y="46.6211"/><ellipse cx="1205.5" cy="62.6211" fill="#ADD1B2" rx="11" ry="11" style="stroke:#181818;stroke-width:1.0;"/><path d="M1208.2656,58.4961 Q1208.4219,58.2773 1208.6094,58.168 Q1208.7969,58.0586 1209.0156,58.0586 Q1209.3906,58.0586 1209.625,58.3242 Q1209.8594,58.5742 1209.8594,59.1836 L1209.8594,60.6367 Q1209.8594,61.2461 1209.625,61.5117 Q1209.3906,61.7773 1209.0156,61.7773 Q1208.6719,61.7773 1208.4688,61.5742 Q1208.2656,61.3867 1208.1563,60.8711 Q1208.1094,60.5117 1207.9219,60.3242 Q1207.5938,59.9492 1206.9844,59.7305 Q1206.375,59.5117 1205.75,59.5117 Q1204.9844,59.5117 1204.3438,59.8398 Q1203.7188,60.168 1203.2188,60.918 Q1202.7344,61.668 1202.7344,62.6992 L1202.7344,63.793 Q1202.7344,65.0273 1203.625,65.8555 Q1204.5156,66.668 1206.1094,66.668 Q1207.0469,66.668 1207.7031,66.418 Q1208.0938,66.2617 1208.5156,65.8242 Q1208.7813,65.5586 1208.9219,65.4805 Q1209.0781,65.4023 1209.2813,65.4023 Q1209.6094,65.4023 1209.8594,65.668 Q1210.125,65.918 1210.125,66.2617 Q1210.125,66.6055 1209.7813,67.0117 Q1209.2813,67.5898 1208.4844,67.918 Q1207.4063,68.3711 1206.1094,68.3711 Q1204.5938,68.3711 1203.3906,67.7461 Q1202.4063,67.2461 1201.7188,66.1836 Q1201.0313,65.1055 1201.0313,63.8242 L1201.0313,62.668 Q1201.0313,61.3398 1201.6406,60.1992 Q1202.2656,59.043 1203.3594,58.4336 Q1204.4531,57.8086 1205.6875,57.8086 Q1206.4219,57.8086 1207.0625,57.9805 Q1207.7188,58.1367 1208.2656,58.4961 Z " fill="#000000"/><text fill="#000000" font-family="sans-serif" font-size="14" lengthAdjust="spacing" textLength="144" x="1219.5" y="68.418">SelectInterviewModelUI</text><line style="stroke:#181818;stroke-width:0.5;" x1="1191.5" x2="1365.5" y1="78.6211" y2="78.6211"/><line style="stroke:#181818;stroke-width:0.5;" x1="1191.5" x2="1365.5" y1="86.6211" y2="86.6211"/></g><!--class PluginMainClassName--><g id="elem_PluginMainClassName"><rect codeLine="13" fill="#F1F1F1" height="85.2422" id="PluginMainClassName" rx="2.5" ry="2.5" style="stroke:#181818;stroke-width:0.5;" width="172" x="1283.5" y="1684.1211"/><ellipse cx="1298.5" cy="1700.1211" fill="#ADD1B2" rx="11" ry="11" style="stroke:#181818;stroke-width:1.0;"/><path d="M1301.2656,1695.9961 Q1301.4219,1695.7773 1301.6094,1695.668 Q1301.7969,1695.5586 1302.0156,1695.5586 Q1302.3906,1695.5586 1302.625,1695.8242 Q1302.8594,1696.0742 1302.8594,1696.6836 L1302.8594,1698.1367 Q1302.8594,1698.7461 1302.625,1699.0117 Q1302.3906,1699.2773 1302.0156,1699.2773 Q1301.6719,1699.2773 1301.4688,1699.0742 Q1301.2656,1698.8867 1301.1563,1698.3711 Q1301.1094,1698.0117 1300.9219,1697.8242 Q1300.5938,1697.4492 1299.9844,1697.2305 Q1299.375,1697.0117 1298.75,1697.0117 Q1297.9844,1697.0117 1297.3438,1697.3398 Q1296.7188,1697.668 1296.2188,1698.418 Q1295.7344,1699.168 1295.7344,1700.1992 L1295.7344,1701.293 Q1295.7344,1702.5273 1296.625,1703.3555 Q1297.5156,1704.168 1299.1094,1704.168 Q1300.0469,1704.168 1300.7031,1703.918 Q1301.0938,1703.7617 1301.5156,1703.3242 Q1301.7813,1703.0586 1301.9219,1702.9805 Q1302.0781,1702.9023 1302.2813,1702.9023 Q1302.6094,1702.9023 1302.8594,1703.168 Q1303.125,1703.418 1303.125,1703.7617 Q1303.125,1704.1055 1302.7813,1704.5117 Q1302.2813,1705.0898 1301.4844,1705.418 Q1300.4063,1705.8711 1299.1094,1705.8711 Q1297.5938,1705.8711 1296.3906,1705.2461 Q1295.4063,1704.7461 1294.7188,1703.6836 Q1294.0313,1702.6055 1294.0313,1701.3242 L1294.0313,1700.168 Q1294.0313,1698.8398 1294.6406,1697.6992 Q1295.2656,1696.543 1296.3594,1695.9336 Q1297.4531,1695.3086 1298.6875,1695.3086 Q1299.4219,1695.3086 1300.0625,1695.4805 Q1300.7188,1695.6367 1301.2656,1695.9961 Z " fill="#000000"/><text fill="#000000" font-family="sans-serif" font-size="14" lengthAdjust="spacing" textLength="140" x="1312.5" y="1705.918">PluginMainClassName</text><line style="stroke:#181818;stroke-width:0.5;" x1="1284.5" x2="1454.5" y1="1716.1211" y2="1716.1211"/><rect fill="none" height="6" style="stroke:#C82930;stroke-width:1.0;" width="6" x="1291.5" y="1727.9316"/><text fill="#000000" font-family="sans-serif" font-size="14" lengthAdjust="spacing" textLength="84" x="1303.5" y="1735.2285">name : String</text><line style="stroke:#181818;stroke-width:0.5;" x1="1284.5" x2="1454.5" y1="1742.7422" y2="1742.7422"/><ellipse cx="1294.5" cy="1757.5527" fill="#84BE84" rx="3" ry="3" style="stroke:#038048;stroke-width:1.0;"/><text fill="#000000" font-family="sans-serif" font-size="14" lengthAdjust="spacing" textLength="94" x="1303.5" y="1761.8496">name() : String</text></g><!--class Plugin--><g id="elem_Plugin"><rect codeLine="18" fill="#F1F1F1" height="234.2109" id="Plugin" rx="2.5" ry="2.5" style="stroke:#181818;stroke-width:0.5;" width="327" x="1480" y="1351.6211"/><ellipse cx="1619.75" cy="1367.6211" fill="#ADD1B2" rx="11" ry="11" style="stroke:#181818;stroke-width:1.0;"/><path d="M1622.5156,1363.4961 Q1622.6719,1363.2773 1622.8594,1363.168 Q1623.0469,1363.0586 1623.2656,1363.0586 Q1623.6406,1363.0586 1623.875,1363.3242 Q1624.1094,1363.5742 1624.1094,1364.1836 L1624.1094,1365.6367 Q1624.1094,1366.2461 1623.875,1366.5117 Q1623.6406,1366.7773 1623.2656,1366.7773 Q1622.9219,1366.7773 1622.7188,1366.5742 Q1622.5156,1366.3867 1622.4063,1365.8711 Q1622.3594,1365.5117 1622.1719,1365.3242 Q1621.8438,1364.9492 1621.2344,1364.7305 Q1620.625,1364.5117 1620,1364.5117 Q1619.2344,1364.5117 1618.5938,1364.8398 Q1617.9688,1365.168 1617.4688,1365.918 Q1616.9844,1366.668 1616.9844,1367.6992 L1616.9844,1368.793 Q1616.9844,1370.0273 1617.875,1370.8555 Q1618.7656,1371.668 1620.3594,1371.668 Q1621.2969,1371.668 1621.9531,1371.418 Q1622.3438,1371.2617 1622.7656,1370.8242 Q1623.0313,1370.5586 1623.1719,1370.4805 Q1623.3281,1370.4023 1623.5313,1370.4023 Q1623.8594,1370.4023 1624.1094,1370.668 Q1624.375,1370.918 1624.375,1371.2617 Q1624.375,1371.6055 1624.0313,1372.0117 Q1623.5313,1372.5898 1622.7344,1372.918 Q1621.6563,1373.3711 1620.3594,1373.3711 Q1618.8438,1373.3711 1617.6406,1372.7461 Q1616.6563,1372.2461 1615.9688,1371.1836 Q1615.2813,1370.1055 1615.2813,1368.8242 L1615.2813,1367.668 Q1615.2813,1366.3398 1615.8906,1365.1992 Q1616.5156,1364.043 1617.6094,1363.4336 Q1618.7031,1362.8086 1619.9375,1362.8086 Q1620.6719,1362.8086 1621.3125,1362.9805 Q1621.9688,1363.1367 1622.5156,1363.4961 Z " fill="#000000"/><text fill="#000000" font-family="sans-serif" font-size="14" lengthAdjust="spacing" textLength="39" x="1640.25" y="1373.418">Plugin</text><line style="stroke:#181818;stroke-width:0.5;" x1="1481" x2="1806" y1="1383.6211" y2="1383.6211"/><rect fill="none" height="6" style="stroke:#C82930;stroke-width:1.0;" width="6" x="1488" y="1395.4316"/><text fill="#000000" font-family="sans-serif" font-size="14" lengthAdjust="spacing" textLength="156" x="1500" y="1402.7285">pluginID : PluginIdentifier</text><rect fill="none" height="6" style="stroke:#C82930;stroke-width:1.0;" width="6" x="1488" y="1414.0527"/><text fill="#000000" font-family="sans-serif" font-size="14" lengthAdjust="spacing" textLength="153" x="1500" y="1421.3496">pluginType : PluginType</text><rect fill="none" height="6" style="stroke:#C82930;stroke-width:1.0;" width="6" x="1488" y="1432.6738"/><text fill="#000000" font-family="sans-serif" font-size="14" lengthAdjust="spacing" textLength="152" x="1500" y="1439.9707">description : Description</text><rect fill="none" height="6" style="stroke:#C82930;stroke-width:1.0;" width="6" x="1488" y="1451.2949"/><text fill="#000000" font-family="sans-serif" font-size="14" lengthAdjust="spacing" textLength="291" x="1500" y="1458.5918">pluginMainClassName : PluginMainClassName</text><rect fill="none" height="6" style="stroke:#C82930;stroke-width:1.0;" width="6" x="1488" y="1469.916"/><text fill="#000000" font-family="sans-serif" font-size="14" lengthAdjust="spacing" textLength="165" x="1500" y="1477.2129">jarFileName : JarFileName</text><line style="stroke:#181818;stroke-width:0.5;" x1="1481" x2="1806" y1="1484.7266" y2="1484.7266"/><ellipse cx="1491" cy="1499.5371" fill="#84BE84" rx="3" ry="3" style="stroke:#038048;stroke-width:1.0;"/><text fill="#000000" font-family="sans-serif" font-size="14" lengthAdjust="spacing" textLength="160" x="1500" y="1503.834">identity() : PluginIdentifier</text><ellipse cx="1491" cy="1518.1582" fill="#84BE84" rx="3" ry="3" style="stroke:#038048;stroke-width:1.0;"/><text fill="#000000" font-family="sans-serif" font-size="14" lengthAdjust="spacing" textLength="163" x="1500" y="1522.4551">pluginType() : PluginType</text><ellipse cx="1491" cy="1536.7793" fill="#84BE84" rx="3" ry="3" style="stroke:#038048;stroke-width:1.0;"/><text fill="#000000" font-family="sans-serif" font-size="14" lengthAdjust="spacing" textLength="158" x="1500" y="1541.0762">description() :Description</text><ellipse cx="1491" cy="1555.4004" fill="#84BE84" rx="3" ry="3" style="stroke:#038048;stroke-width:1.0;"/><text fill="#000000" font-family="sans-serif" font-size="14" lengthAdjust="spacing" textLength="301" x="1500" y="1559.6973">pluginMainClassName() : PluginMainClassName</text><ellipse cx="1491" cy="1574.0215" fill="#84BE84" rx="3" ry="3" style="stroke:#038048;stroke-width:1.0;"/><text fill="#000000" font-family="sans-serif" font-size="14" lengthAdjust="spacing" textLength="175" x="1500" y="1578.3184">jarFileName() : JarFileName</text></g><!--class JarFileName--><g id="elem_JarFileName"><rect codeLine="32" fill="#F1F1F1" height="66.6211" id="JarFileName" rx="2.5" ry="2.5" style="stroke:#181818;stroke-width:0.5;" width="110" x="1490.5" y="1693.1211"/><ellipse cx="1505.5" cy="1709.1211" fill="#ADD1B2" rx="11" ry="11" style="stroke:#181818;stroke-width:1.0;"/><path d="M1508.2656,1704.9961 Q1508.4219,1704.7773 1508.6094,1704.668 Q1508.7969,1704.5586 1509.0156,1704.5586 Q1509.3906,1704.5586 1509.625,1704.8242 Q1509.8594,1705.0742 1509.8594,1705.6836 L1509.8594,1707.1367 Q1509.8594,1707.7461 1509.625,1708.0117 Q1509.3906,1708.2773 1509.0156,1708.2773 Q1508.6719,1708.2773 1508.4688,1708.0742 Q1508.2656,1707.8867 1508.1563,1707.3711 Q1508.1094,1707.0117 1507.9219,1706.8242 Q1507.5938,1706.4492 1506.9844,1706.2305 Q1506.375,1706.0117 1505.75,1706.0117 Q1504.9844,1706.0117 1504.3438,1706.3398 Q1503.7188,1706.668 1503.2188,1707.418 Q1502.7344,1708.168 1502.7344,1709.1992 L1502.7344,1710.293 Q1502.7344,1711.5273 1503.625,1712.3555 Q1504.5156,1713.168 1506.1094,1713.168 Q1507.0469,1713.168 1507.7031,1712.918 Q1508.0938,1712.7617 1508.5156,1712.3242 Q1508.7813,1712.0586 1508.9219,1711.9805 Q1509.0781,1711.9023 1509.2813,1711.9023 Q1509.6094,1711.9023 1509.8594,1712.168 Q1510.125,1712.418 1510.125,1712.7617 Q1510.125,1713.1055 1509.7813,1713.5117 Q1509.2813,1714.0898 1508.4844,1714.418 Q1507.4063,1714.8711 1506.1094,1714.8711 Q1504.5938,1714.8711 1503.3906,1714.2461 Q1502.4063,1713.7461 1501.7188,1712.6836 Q1501.0313,1711.6055 1501.0313,1710.3242 L1501.0313,1709.168 Q1501.0313,1707.8398 1501.6406,1706.6992 Q1502.2656,1705.543 1503.3594,1704.9336 Q1504.4531,1704.3086 1505.6875,1704.3086 Q1506.4219,1704.3086 1507.0625,1704.4805 Q1507.7188,1704.6367 1508.2656,1704.9961 Z " fill="#000000"/><text fill="#000000" font-family="sans-serif" font-size="14" lengthAdjust="spacing" textLength="78" x="1519.5" y="1714.918">JarFileName</text><line style="stroke:#181818;stroke-width:0.5;" x1="1491.5" x2="1599.5" y1="1725.1211" y2="1725.1211"/><rect fill="none" height="6" style="stroke:#C82930;stroke-width:1.0;" width="6" x="1498.5" y="1736.9316"/><text fill="#000000" font-family="sans-serif" font-size="14" lengthAdjust="spacing" textLength="84" x="1510.5" y="1744.2285">name : String</text><line style="stroke:#181818;stroke-width:0.5;" x1="1491.5" x2="1599.5" y1="1751.7422" y2="1751.7422"/></g><!--class JobOpening--><g id="elem_JobOpening"><rect codeLine="36" fill="#F1F1F1" height="494.9063" id="JobOpening" rx="2.5" ry="2.5" style="stroke:#181818;stroke-width:0.5;" width="297" x="795" y="795.6211"/><ellipse cx="901.25" cy="811.6211" fill="#ADD1B2" rx="11" ry="11" style="stroke:#181818;stroke-width:1.0;"/><path d="M904.0156,807.4961 Q904.1719,807.2773 904.3594,807.168 Q904.5469,807.0586 904.7656,807.0586 Q905.1406,807.0586 905.375,807.3242 Q905.6094,807.5742 905.6094,808.1836 L905.6094,809.6367 Q905.6094,810.2461 905.375,810.5117 Q905.1406,810.7773 904.7656,810.7773 Q904.4219,810.7773 904.2188,810.5742 Q904.0156,810.3867 903.9063,809.8711 Q903.8594,809.5117 903.6719,809.3242 Q903.3438,808.9492 902.7344,808.7305 Q902.125,808.5117 901.5,808.5117 Q900.7344,808.5117 900.0938,808.8398 Q899.4688,809.168 898.9688,809.918 Q898.4844,810.668 898.4844,811.6992 L898.4844,812.793 Q898.4844,814.0273 899.375,814.8555 Q900.2656,815.668 901.8594,815.668 Q902.7969,815.668 903.4531,815.418 Q903.8438,815.2617 904.2656,814.8242 Q904.5313,814.5586 904.6719,814.4805 Q904.8281,814.4023 905.0313,814.4023 Q905.3594,814.4023 905.6094,814.668 Q905.875,814.918 905.875,815.2617 Q905.875,815.6055 905.5313,816.0117 Q905.0313,816.5898 904.2344,816.918 Q903.1563,817.3711 901.8594,817.3711 Q900.3438,817.3711 899.1406,816.7461 Q898.1563,816.2461 897.4688,815.1836 Q896.7813,814.1055 896.7813,812.8242 L896.7813,811.668 Q896.7813,810.3398 897.3906,809.1992 Q898.0156,808.043 899.1094,807.4336 Q900.2031,806.8086 901.4375,806.8086 Q902.1719,806.8086 902.8125,806.9805 Q903.4688,807.1367 904.0156,807.4961 Z " fill="#000000"/><text fill="#000000" font-family="sans-serif" font-size="14" lengthAdjust="spacing" textLength="76" x="921.75" y="817.418">JobOpening</text><line style="stroke:#181818;stroke-width:0.5;" x1="796" x2="1091" y1="827.6211" y2="827.6211"/><rect fill="none" height="6" style="stroke:#C82930;stroke-width:1.0;" width="6" x="803" y="839.4316"/><text fill="#000000" font-family="sans-serif" font-size="14" lengthAdjust="spacing" textLength="185" x="815" y="846.7285">jobReference : JobReference</text><rect fill="none" height="6" style="stroke:#C82930;stroke-width:1.0;" width="6" x="803" y="858.0527"/><text fill="#000000" font-family="sans-serif" font-size="14" lengthAdjust="spacing" textLength="269" x="815" y="865.3496">numberOfVacancies : NumberOfVacancies</text><rect fill="none" height="6" style="stroke:#C82930;stroke-width:1.0;" width="6" x="803" y="876.6738"/><text fill="#000000" font-family="sans-serif" font-size="14" lengthAdjust="spacing" textLength="163" x="815" y="883.9707">jobFunction : JobFunction</text><rect fill="none" height="6" style="stroke:#C82930;stroke-width:1.0;" width="6" x="803" y="895.2949"/><text fill="#000000" font-family="sans-serif" font-size="14" lengthAdjust="spacing" textLength="181" x="815" y="902.5918">contractType : ContractType</text><rect fill="none" height="6" style="stroke:#C82930;stroke-width:1.0;" width="6" x="803" y="913.916"/><text fill="#000000" font-family="sans-serif" font-size="14" lengthAdjust="spacing" textLength="82" x="815" y="921.2129">mode : Mode</text><rect fill="none" height="6" style="stroke:#C82930;stroke-width:1.0;" width="6" x="803" y="932.5371"/><text fill="#000000" font-family="sans-serif" font-size="14" lengthAdjust="spacing" textLength="115" x="815" y="939.834">address : Address</text><rect fill="none" height="6" style="stroke:#C82930;stroke-width:1.0;" width="6" x="803" y="951.1582"/><text fill="#000000" font-family="sans-serif" font-size="14" lengthAdjust="spacing" textLength="166" x="815" y="958.4551">companyName : Customer</text><rect fill="none" height="6" style="stroke:#C82930;stroke-width:1.0;" width="6" x="803" y="969.7793"/><text fill="#000000" font-family="sans-serif" font-size="14" lengthAdjust="spacing" textLength="148" x="815" y="977.0762">description :Description</text><rect fill="none" height="6" style="stroke:#C82930;stroke-width:1.0;" width="6" x="803" y="988.4004"/><text fill="#000000" font-family="sans-serif" font-size="14" lengthAdjust="spacing" textLength="171" x="815" y="995.6973">registrationDate : Calendar</text><rect fill="none" height="6" style="stroke:#C82930;stroke-width:1.0;" width="6" x="803" y="1007.0215"/><text fill="#000000" font-family="sans-serif" font-size="14" lengthAdjust="spacing" textLength="261" x="815" y="1014.3184">recruitmentProcess : RecruitmentProcess</text><rect fill="none" height="6" style="stroke:#C82930;stroke-width:1.0;" width="6" x="803" y="1025.6426"/><text fill="#000000" font-family="sans-serif" font-size="14" lengthAdjust="spacing" textLength="145" x="815" y="1032.9395">interviewPlugin : Plugin</text><rect fill="none" height="6" style="stroke:#C82930;stroke-width:1.0;" width="6" x="803" y="1044.2637"/><text fill="#000000" font-family="sans-serif" font-size="14" lengthAdjust="spacing" textLength="141" x="815" y="1051.5605">interviewPlugin :Plugin</text><line style="stroke:#181818;stroke-width:0.5;" x1="796" x2="1091" y1="1059.0742" y2="1059.0742"/><ellipse cx="806" cy="1073.8848" fill="#84BE84" rx="3" ry="3" style="stroke:#038048;stroke-width:1.0;"/><text fill="#000000" font-family="sans-serif" font-size="14" lengthAdjust="spacing" textLength="191" x="815" y="1078.1816">jobReference() :JobReference</text><ellipse cx="806" cy="1092.5059" fill="#84BE84" rx="3" ry="3" style="stroke:#038048;stroke-width:1.0;"/><text fill="#000000" font-family="sans-serif" font-size="14" lengthAdjust="spacing" textLength="173" x="815" y="1096.8027">jobFunction() : JobFunction</text><ellipse cx="806" cy="1111.127" fill="#84BE84" rx="3" ry="3" style="stroke:#038048;stroke-width:1.0;"/><text fill="#000000" font-family="sans-serif" font-size="14" lengthAdjust="spacing" textLength="191" x="815" y="1115.4238">contractType() : ContractType</text><ellipse cx="806" cy="1129.748" fill="#84BE84" rx="3" ry="3" style="stroke:#038048;stroke-width:1.0;"/><text fill="#000000" font-family="sans-serif" font-size="14" lengthAdjust="spacing" textLength="92" x="815" y="1134.0449">mode() : Mode</text><ellipse cx="806" cy="1148.3691" fill="#84BE84" rx="3" ry="3" style="stroke:#038048;stroke-width:1.0;"/><text fill="#000000" font-family="sans-serif" font-size="14" lengthAdjust="spacing" textLength="125" x="815" y="1152.666">address() : Address</text><ellipse cx="806" cy="1166.9902" fill="#84BE84" rx="3" ry="3" style="stroke:#038048;stroke-width:1.0;"/><text fill="#000000" font-family="sans-serif" font-size="14" lengthAdjust="spacing" textLength="176" x="815" y="1171.2871">companyName() : Customer</text><ellipse cx="806" cy="1185.6113" fill="#84BE84" rx="3" ry="3" style="stroke:#038048;stroke-width:1.0;"/><text fill="#000000" font-family="sans-serif" font-size="14" lengthAdjust="spacing" textLength="162" x="815" y="1189.9082">description() : Description</text><ellipse cx="806" cy="1204.2324" fill="#84BE84" rx="3" ry="3" style="stroke:#038048;stroke-width:1.0;"/><text fill="#000000" font-family="sans-serif" font-size="14" lengthAdjust="spacing" textLength="181" x="815" y="1208.5293">registrationDate() : Calendar</text><ellipse cx="806" cy="1222.8535" fill="#84BE84" rx="3" ry="3" style="stroke:#038048;stroke-width:1.0;"/><text fill="#000000" font-family="sans-serif" font-size="14" lengthAdjust="spacing" textLength="217" x="815" y="1227.1504">setId(JobReference jobReference)</text><ellipse cx="806" cy="1241.4746" fill="#84BE84" rx="3" ry="3" style="stroke:#038048;stroke-width:1.0;"/><text fill="#000000" font-family="sans-serif" font-size="14" lengthAdjust="spacing" textLength="271" x="815" y="1245.7715">recruitmentProcess() : RecruitmentProcess</text><ellipse cx="806" cy="1260.0957" fill="#84BE84" rx="3" ry="3" style="stroke:#038048;stroke-width:1.0;"/><text fill="#000000" font-family="sans-serif" font-size="14" lengthAdjust="spacing" textLength="155" x="815" y="1264.3926">interviewPlugin() : Plugin</text><ellipse cx="806" cy="1278.7168" fill="#84BE84" rx="3" ry="3" style="stroke:#038048;stroke-width:1.0;"/><text fill="#000000" font-family="sans-serif" font-size="14" lengthAdjust="spacing" textLength="155" x="815" y="1283.0137">interviewPlugin() : Plugin</text></g><!--class JobFunction--><g id="elem_JobFunction"><rect codeLine="64" fill="#F1F1F1" height="66.6211" id="JobFunction" rx="2.5" ry="2.5" style="stroke:#181818;stroke-width:0.5;" width="165" x="7" y="1435.1211"/><ellipse cx="47.2" cy="1451.1211" fill="#ADD1B2" rx="11" ry="11" style="stroke:#181818;stroke-width:1.0;"/><path d="M49.9656,1446.9961 Q50.1219,1446.7773 50.3094,1446.668 Q50.4969,1446.5586 50.7156,1446.5586 Q51.0906,1446.5586 51.325,1446.8242 Q51.5594,1447.0742 51.5594,1447.6836 L51.5594,1449.1367 Q51.5594,1449.7461 51.325,1450.0117 Q51.0906,1450.2773 50.7156,1450.2773 Q50.3719,1450.2773 50.1688,1450.0742 Q49.9656,1449.8867 49.8563,1449.3711 Q49.8094,1449.0117 49.6219,1448.8242 Q49.2938,1448.4492 48.6844,1448.2305 Q48.075,1448.0117 47.45,1448.0117 Q46.6844,1448.0117 46.0438,1448.3398 Q45.4188,1448.668 44.9188,1449.418 Q44.4344,1450.168 44.4344,1451.1992 L44.4344,1452.293 Q44.4344,1453.5273 45.325,1454.3555 Q46.2156,1455.168 47.8094,1455.168 Q48.7469,1455.168 49.4031,1454.918 Q49.7938,1454.7617 50.2156,1454.3242 Q50.4813,1454.0586 50.6219,1453.9805 Q50.7781,1453.9023 50.9813,1453.9023 Q51.3094,1453.9023 51.5594,1454.168 Q51.825,1454.418 51.825,1454.7617 Q51.825,1455.1055 51.4813,1455.5117 Q50.9813,1456.0898 50.1844,1456.418 Q49.1063,1456.8711 47.8094,1456.8711 Q46.2938,1456.8711 45.0906,1456.2461 Q44.1063,1455.7461 43.4188,1454.6836 Q42.7313,1453.6055 42.7313,1452.3242 L42.7313,1451.168 Q42.7313,1449.8398 43.3406,1448.6992 Q43.9656,1447.543 45.0594,1446.9336 Q46.1531,1446.3086 47.3875,1446.3086 Q48.1219,1446.3086 48.7625,1446.4805 Q49.4188,1446.6367 49.9656,1446.9961 Z " fill="#000000"/><text fill="#000000" font-family="sans-serif" font-size="14" lengthAdjust="spacing" textLength="77" x="66.8" y="1456.918">JobFunction</text><line style="stroke:#181818;stroke-width:0.5;" x1="8" x2="171" y1="1467.1211" y2="1467.1211"/><rect fill="none" height="6" style="stroke:#C82930;stroke-width:1.0;" width="6" x="15" y="1478.9316"/><text fill="#000000" font-family="sans-serif" font-size="14" lengthAdjust="spacing" textLength="139" x="27" y="1486.2285">jobDescription : String</text><line style="stroke:#181818;stroke-width:0.5;" x1="8" x2="171" y1="1493.7422" y2="1493.7422"/></g><!--class NumberOfVacancies--><g id="elem_NumberOfVacancies"><rect codeLine="68" fill="#F1F1F1" height="66.6211" id="NumberOfVacancies" rx="2.5" ry="2.5" style="stroke:#181818;stroke-width:0.5;" width="161" x="207" y="1435.1211"/><ellipse cx="222" cy="1451.1211" fill="#ADD1B2" rx="11" ry="11" style="stroke:#181818;stroke-width:1.0;"/><path d="M224.7656,1446.9961 Q224.9219,1446.7773 225.1094,1446.668 Q225.2969,1446.5586 225.5156,1446.5586 Q225.8906,1446.5586 226.125,1446.8242 Q226.3594,1447.0742 226.3594,1447.6836 L226.3594,1449.1367 Q226.3594,1449.7461 226.125,1450.0117 Q225.8906,1450.2773 225.5156,1450.2773 Q225.1719,1450.2773 224.9688,1450.0742 Q224.7656,1449.8867 224.6563,1449.3711 Q224.6094,1449.0117 224.4219,1448.8242 Q224.0938,1448.4492 223.4844,1448.2305 Q222.875,1448.0117 222.25,1448.0117 Q221.4844,1448.0117 220.8438,1448.3398 Q220.2188,1448.668 219.7188,1449.418 Q219.2344,1450.168 219.2344,1451.1992 L219.2344,1452.293 Q219.2344,1453.5273 220.125,1454.3555 Q221.0156,1455.168 222.6094,1455.168 Q223.5469,1455.168 224.2031,1454.918 Q224.5938,1454.7617 225.0156,1454.3242 Q225.2813,1454.0586 225.4219,1453.9805 Q225.5781,1453.9023 225.7813,1453.9023 Q226.1094,1453.9023 226.3594,1454.168 Q226.625,1454.418 226.625,1454.7617 Q226.625,1455.1055 226.2813,1455.5117 Q225.7813,1456.0898 224.9844,1456.418 Q223.9063,1456.8711 222.6094,1456.8711 Q221.0938,1456.8711 219.8906,1456.2461 Q218.9063,1455.7461 218.2188,1454.6836 Q217.5313,1453.6055 217.5313,1452.3242 L217.5313,1451.168 Q217.5313,1449.8398 218.1406,1448.6992 Q218.7656,1447.543 219.8594,1446.9336 Q220.9531,1446.3086 222.1875,1446.3086 Q222.9219,1446.3086 223.5625,1446.4805 Q224.2188,1446.6367 224.7656,1446.9961 Z " fill="#000000"/><text fill="#000000" font-family="sans-serif" font-size="14" lengthAdjust="spacing" textLength="129" x="236" y="1456.918">NumberOfVacancies</text><line style="stroke:#181818;stroke-width:0.5;" x1="208" x2="367" y1="1467.1211" y2="1467.1211"/><rect fill="none" height="6" style="stroke:#C82930;stroke-width:1.0;" width="6" x="215" y="1478.9316"/><text fill="#000000" font-family="sans-serif" font-size="14" lengthAdjust="spacing" textLength="104" x="227" y="1486.2285">number : Integer</text><line style="stroke:#181818;stroke-width:0.5;" x1="208" x2="367" y1="1493.7422" y2="1493.7422"/></g><!--class Description--><g id="elem_Description"><rect codeLine="72" fill="#F1F1F1" height="66.6211" id="Description" rx="2.5" ry="2.5" style="stroke:#181818;stroke-width:0.5;" width="144" x="1039.5" y="1693.1211"/><ellipse cx="1072.95" cy="1709.1211" fill="#ADD1B2" rx="11" ry="11" style="stroke:#181818;stroke-width:1.0;"/><path d="M1075.7156,1704.9961 Q1075.8719,1704.7773 1076.0594,1704.668 Q1076.2469,1704.5586 1076.4656,1704.5586 Q1076.8406,1704.5586 1077.075,1704.8242 Q1077.3094,1705.0742 1077.3094,1705.6836 L1077.3094,1707.1367 Q1077.3094,1707.7461 1077.075,1708.0117 Q1076.8406,1708.2773 1076.4656,1708.2773 Q1076.1219,1708.2773 1075.9188,1708.0742 Q1075.7156,1707.8867 1075.6063,1707.3711 Q1075.5594,1707.0117 1075.3719,1706.8242 Q1075.0438,1706.4492 1074.4344,1706.2305 Q1073.825,1706.0117 1073.2,1706.0117 Q1072.4344,1706.0117 1071.7938,1706.3398 Q1071.1688,1706.668 1070.6688,1707.418 Q1070.1844,1708.168 1070.1844,1709.1992 L1070.1844,1710.293 Q1070.1844,1711.5273 1071.075,1712.3555 Q1071.9656,1713.168 1073.5594,1713.168 Q1074.4969,1713.168 1075.1531,1712.918 Q1075.5438,1712.7617 1075.9656,1712.3242 Q1076.2313,1712.0586 1076.3719,1711.9805 Q1076.5281,1711.9023 1076.7313,1711.9023 Q1077.0594,1711.9023 1077.3094,1712.168 Q1077.575,1712.418 1077.575,1712.7617 Q1077.575,1713.1055 1077.2313,1713.5117 Q1076.7313,1714.0898 1075.9344,1714.418 Q1074.8563,1714.8711 1073.5594,1714.8711 Q1072.0438,1714.8711 1070.8406,1714.2461 Q1069.8563,1713.7461 1069.1688,1712.6836 Q1068.4813,1711.6055 1068.4813,1710.3242 L1068.4813,1709.168 Q1068.4813,1707.8398 1069.0906,1706.6992 Q1069.7156,1705.543 1070.8094,1704.9336 Q1071.9031,1704.3086 1073.1375,1704.3086 Q1073.8719,1704.3086 1074.5125,1704.4805 Q1075.1688,1704.6367 1075.7156,1704.9961 Z " fill="#000000"/><text fill="#000000" font-family="sans-serif" font-size="14" lengthAdjust="spacing" textLength="71" x="1091.05" y="1714.918">Description</text><line style="stroke:#181818;stroke-width:0.5;" x1="1040.5" x2="1182.5" y1="1725.1211" y2="1725.1211"/><rect fill="none" height="6" style="stroke:#C82930;stroke-width:1.0;" width="6" x="1047.5" y="1736.9316"/><text fill="#000000" font-family="sans-serif" font-size="14" lengthAdjust="spacing" textLength="118" x="1059.5" y="1744.2285">description : String</text><line style="stroke:#181818;stroke-width:0.5;" x1="1040.5" x2="1182.5" y1="1751.7422" y2="1751.7422"/></g><!--class JobReference--><g id="elem_JobReference"><rect codeLine="76" fill="#F1F1F1" height="85.2422" id="JobReference" rx="2.5" ry="2.5" style="stroke:#181818;stroke-width:0.5;" width="177" x="475" y="1426.1211"/><ellipse cx="515.65" cy="1442.1211" fill="#ADD1B2" rx="11" ry="11" style="stroke:#181818;stroke-width:1.0;"/><path d="M518.4156,1437.9961 Q518.5719,1437.7773 518.7594,1437.668 Q518.9469,1437.5586 519.1656,1437.5586 Q519.5406,1437.5586 519.775,1437.8242 Q520.0094,1438.0742 520.0094,1438.6836 L520.0094,1440.1367 Q520.0094,1440.7461 519.775,1441.0117 Q519.5406,1441.2773 519.1656,1441.2773 Q518.8219,1441.2773 518.6188,1441.0742 Q518.4156,1440.8867 518.3063,1440.3711 Q518.2594,1440.0117 518.0719,1439.8242 Q517.7438,1439.4492 517.1344,1439.2305 Q516.525,1439.0117 515.9,1439.0117 Q515.1344,1439.0117 514.4938,1439.3398 Q513.8688,1439.668 513.3688,1440.418 Q512.8844,1441.168 512.8844,1442.1992 L512.8844,1443.293 Q512.8844,1444.5273 513.775,1445.3555 Q514.6656,1446.168 516.2594,1446.168 Q517.1969,1446.168 517.8531,1445.918 Q518.2438,1445.7617 518.6656,1445.3242 Q518.9313,1445.0586 519.0719,1444.9805 Q519.2281,1444.9023 519.4313,1444.9023 Q519.7594,1444.9023 520.0094,1445.168 Q520.275,1445.418 520.275,1445.7617 Q520.275,1446.1055 519.9313,1446.5117 Q519.4313,1447.0898 518.6344,1447.418 Q517.5563,1447.8711 516.2594,1447.8711 Q514.7438,1447.8711 513.5406,1447.2461 Q512.5563,1446.7461 511.8688,1445.6836 Q511.1813,1444.6055 511.1813,1443.3242 L511.1813,1442.168 Q511.1813,1440.8398 511.7906,1439.6992 Q512.4156,1438.543 513.5094,1437.9336 Q514.6031,1437.3086 515.8375,1437.3086 Q516.5719,1437.3086 517.2125,1437.4805 Q517.8688,1437.6367 518.4156,1437.9961 Z " fill="#000000"/><text fill="#000000" font-family="sans-serif" font-size="14" lengthAdjust="spacing" textLength="88" x="535.35" y="1447.918">JobReference</text><line style="stroke:#181818;stroke-width:0.5;" x1="476" x2="651" y1="1458.1211" y2="1458.1211"/><rect fill="none" height="6" style="stroke:#C82930;stroke-width:1.0;" width="6" x="483" y="1469.9316"/><text fill="#000000" font-family="sans-serif" font-size="14" lengthAdjust="spacing" textLength="141" x="495" y="1477.2285">jobReference : Integer</text><line style="stroke:#181818;stroke-width:0.5;" x1="476" x2="651" y1="1484.7422" y2="1484.7422"/><ellipse cx="486" cy="1499.5527" fill="#84BE84" rx="3" ry="3" style="stroke:#038048;stroke-width:1.0;"/><text fill="#000000" font-family="sans-serif" font-size="14" lengthAdjust="spacing" textLength="151" x="495" y="1503.8496">jobReference() : Integer</text></g><!--class Address--><g id="elem_Address"><rect codeLine="81" fill="#F1F1F1" height="159.7266" id="Address" rx="2.5" ry="2.5" style="stroke:#181818;stroke-width:0.5;" width="247" x="368" y="1646.6211"/><ellipse cx="461.25" cy="1662.6211" fill="#ADD1B2" rx="11" ry="11" style="stroke:#181818;stroke-width:1.0;"/><path d="M464.0156,1658.4961 Q464.1719,1658.2773 464.3594,1658.168 Q464.5469,1658.0586 464.7656,1658.0586 Q465.1406,1658.0586 465.375,1658.3242 Q465.6094,1658.5742 465.6094,1659.1836 L465.6094,1660.6367 Q465.6094,1661.2461 465.375,1661.5117 Q465.1406,1661.7773 464.7656,1661.7773 Q464.4219,1661.7773 464.2188,1661.5742 Q464.0156,1661.3867 463.9063,1660.8711 Q463.8594,1660.5117 463.6719,1660.3242 Q463.3438,1659.9492 462.7344,1659.7305 Q462.125,1659.5117 461.5,1659.5117 Q460.7344,1659.5117 460.0938,1659.8398 Q459.4688,1660.168 458.9688,1660.918 Q458.4844,1661.668 458.4844,1662.6992 L458.4844,1663.793 Q458.4844,1665.0273 459.375,1665.8555 Q460.2656,1666.668 461.8594,1666.668 Q462.7969,1666.668 463.4531,1666.418 Q463.8438,1666.2617 464.2656,1665.8242 Q464.5313,1665.5586 464.6719,1665.4805 Q464.8281,1665.4023 465.0313,1665.4023 Q465.3594,1665.4023 465.6094,1665.668 Q465.875,1665.918 465.875,1666.2617 Q465.875,1666.6055 465.5313,1667.0117 Q465.0313,1667.5898 464.2344,1667.918 Q463.1563,1668.3711 461.8594,1668.3711 Q460.3438,1668.3711 459.1406,1667.7461 Q458.1563,1667.2461 457.4688,1666.1836 Q456.7813,1665.1055 456.7813,1663.8242 L456.7813,1662.668 Q456.7813,1661.3398 457.3906,1660.1992 Q458.0156,1659.043 459.1094,1658.4336 Q460.2031,1657.8086 461.4375,1657.8086 Q462.1719,1657.8086 462.8125,1657.9805 Q463.4688,1658.1367 464.0156,1658.4961 Z " fill="#000000"/><text fill="#000000" font-family="sans-serif" font-size="14" lengthAdjust="spacing" textLength="52" x="481.75" y="1668.418">Address</text><line style="stroke:#181818;stroke-width:0.5;" x1="369" x2="614" y1="1678.6211" y2="1678.6211"/><rect fill="none" height="6" style="stroke:#C82930;stroke-width:1.0;" width="6" x="376" y="1690.4316"/><text fill="#000000" font-family="sans-serif" font-size="14" lengthAdjust="spacing" textLength="85" x="388" y="1697.7285">street : String</text><rect fill="none" height="6" style="stroke:#C82930;stroke-width:1.0;" width="6" x="376" y="1709.0527"/><text fill="#000000" font-family="sans-serif" font-size="14" lengthAdjust="spacing" textLength="70" x="388" y="1716.3496">city : String</text><rect fill="none" height="6" style="stroke:#C82930;stroke-width:1.0;" width="6" x="376" y="1727.6738"/><text fill="#000000" font-family="sans-serif" font-size="14" lengthAdjust="spacing" textLength="80" x="388" y="1734.9707">state : String</text><rect fill="none" height="6" style="stroke:#C82930;stroke-width:1.0;" width="6" x="376" y="1746.2949"/><text fill="#000000" font-family="sans-serif" font-size="14" lengthAdjust="spacing" textLength="96" x="388" y="1753.5918">country : String</text><rect fill="none" height="6" style="stroke:#C82930;stroke-width:1.0;" width="6" x="376" y="1764.916"/><text fill="#000000" font-family="sans-serif" font-size="14" lengthAdjust="spacing" textLength="97" x="388" y="1772.2129">zipcode : String</text><line style="stroke:#181818;stroke-width:0.5;" x1="369" x2="614" y1="1779.7266" y2="1779.7266"/><rect fill="#F24D5C" height="6" style="stroke:#C82930;stroke-width:1.0;" width="6" x="376" y="1791.5371"/><text fill="#000000" font-family="sans-serif" font-size="14" lengthAdjust="spacing" textLength="221" x="388" y="1798.834">validateZipcode(zipcode) : Boolean</text></g><!--class Customer--><g id="elem_Customer"><rect codeLine="91" fill="#F1F1F1" height="196.9688" id="Customer" rx="2.5" ry="2.5" style="stroke:#181818;stroke-width:0.5;" width="306" x="687.5" y="1370.1211"/><ellipse cx="805.75" cy="1386.1211" fill="#ADD1B2" rx="11" ry="11" style="stroke:#181818;stroke-width:1.0;"/><path d="M808.5156,1381.9961 Q808.6719,1381.7773 808.8594,1381.668 Q809.0469,1381.5586 809.2656,1381.5586 Q809.6406,1381.5586 809.875,1381.8242 Q810.1094,1382.0742 810.1094,1382.6836 L810.1094,1384.1367 Q810.1094,1384.7461 809.875,1385.0117 Q809.6406,1385.2773 809.2656,1385.2773 Q808.9219,1385.2773 808.7188,1385.0742 Q808.5156,1384.8867 808.4063,1384.3711 Q808.3594,1384.0117 808.1719,1383.8242 Q807.8438,1383.4492 807.2344,1383.2305 Q806.625,1383.0117 806,1383.0117 Q805.2344,1383.0117 804.5938,1383.3398 Q803.9688,1383.668 803.4688,1384.418 Q802.9844,1385.168 802.9844,1386.1992 L802.9844,1387.293 Q802.9844,1388.5273 803.875,1389.3555 Q804.7656,1390.168 806.3594,1390.168 Q807.2969,1390.168 807.9531,1389.918 Q808.3438,1389.7617 808.7656,1389.3242 Q809.0313,1389.0586 809.1719,1388.9805 Q809.3281,1388.9023 809.5313,1388.9023 Q809.8594,1388.9023 810.1094,1389.168 Q810.375,1389.418 810.375,1389.7617 Q810.375,1390.1055 810.0313,1390.5117 Q809.5313,1391.0898 808.7344,1391.418 Q807.6563,1391.8711 806.3594,1391.8711 Q804.8438,1391.8711 803.6406,1391.2461 Q802.6563,1390.7461 801.9688,1389.6836 Q801.2813,1388.6055 801.2813,1387.3242 L801.2813,1386.168 Q801.2813,1384.8398 801.8906,1383.6992 Q802.5156,1382.543 803.6094,1381.9336 Q804.7031,1381.3086 805.9375,1381.3086 Q806.6719,1381.3086 807.3125,1381.4805 Q807.9688,1381.6367 808.5156,1381.9961 Z " fill="#000000"/><text fill="#000000" font-family="sans-serif" font-size="14" lengthAdjust="spacing" textLength="61" x="826.25" y="1391.918">Customer</text><line style="stroke:#181818;stroke-width:0.5;" x1="688.5" x2="992.5" y1="1402.1211" y2="1402.1211"/><rect fill="none" height="6" style="stroke:#C82930;stroke-width:1.0;" width="6" x="695.5" y="1413.9316"/><text fill="#000000" font-family="sans-serif" font-size="14" lengthAdjust="spacing" textLength="160" x="707.5" y="1421.2285">systemUser : SystemUser</text><rect fill="none" height="6" style="stroke:#C82930;stroke-width:1.0;" width="6" x="695.5" y="1432.5527"/><text fill="#000000" font-family="sans-serif" font-size="14" lengthAdjust="spacing" textLength="77" x="707.5" y="1439.8496">code : Code</text><rect fill="none" height="6" style="stroke:#C82930;stroke-width:1.0;" width="6" x="695.5" y="1451.1738"/><text fill="#000000" font-family="sans-serif" font-size="14" lengthAdjust="spacing" textLength="115" x="707.5" y="1458.4707">address : Address</text><rect fill="none" height="6" style="stroke:#C82930;stroke-width:1.0;" width="6" x="695.5" y="1469.7949"/><text fill="#000000" font-family="sans-serif" font-size="14" lengthAdjust="spacing" textLength="201" x="707.5" y="1477.0918">customerManager : SystemUser</text><line style="stroke:#181818;stroke-width:0.5;" x1="688.5" x2="992.5" y1="1484.6055" y2="1484.6055"/><ellipse cx="698.5" cy="1499.416" fill="#84BE84" rx="3" ry="3" style="stroke:#038048;stroke-width:1.0;"/><text fill="#000000" font-family="sans-serif" font-size="14" lengthAdjust="spacing" textLength="125" x="707.5" y="1503.7129">user() : SystemUser</text><ellipse cx="698.5" cy="1518.0371" fill="#84BE84" rx="3" ry="3" style="stroke:#038048;stroke-width:1.0;"/><text fill="#000000" font-family="sans-serif" font-size="14" lengthAdjust="spacing" textLength="89" x="707.5" y="1522.334">getID() : Code</text><ellipse cx="698.5" cy="1536.6582" fill="#84BE84" rx="3" ry="3" style="stroke:#038048;stroke-width:1.0;"/><text fill="#000000" font-family="sans-serif" font-size="14" lengthAdjust="spacing" textLength="125" x="707.5" y="1540.9551">address() : Address</text><ellipse cx="698.5" cy="1555.2793" fill="#84BE84" rx="3" ry="3" style="stroke:#038048;stroke-width:1.0;"/><text fill="#000000" font-family="sans-serif" font-size="14" lengthAdjust="spacing" textLength="280" x="707.5" y="1559.5762">customerManagerAssociated() : SystemUser</text></g><!--class EmailAddress--><g id="elem_EmailAddress"><rect codeLine="103" fill="#F1F1F1" height="66.6211" id="EmailAddress" rx="2.5" ry="2.5" style="stroke:#181818;stroke-width:0.5;" width="118" x="600.5" y="1895.1211"/><ellipse cx="615.5" cy="1911.1211" fill="#ADD1B2" rx="11" ry="11" style="stroke:#181818;stroke-width:1.0;"/><path d="M618.2656,1906.9961 Q618.4219,1906.7773 618.6094,1906.668 Q618.7969,1906.5586 619.0156,1906.5586 Q619.3906,1906.5586 619.625,1906.8242 Q619.8594,1907.0742 619.8594,1907.6836 L619.8594,1909.1367 Q619.8594,1909.7461 619.625,1910.0117 Q619.3906,1910.2773 619.0156,1910.2773 Q618.6719,1910.2773 618.4688,1910.0742 Q618.2656,1909.8867 618.1563,1909.3711 Q618.1094,1909.0117 617.9219,1908.8242 Q617.5938,1908.4492 616.9844,1908.2305 Q616.375,1908.0117 615.75,1908.0117 Q614.9844,1908.0117 614.3438,1908.3398 Q613.7188,1908.668 613.2188,1909.418 Q612.7344,1910.168 612.7344,1911.1992 L612.7344,1912.293 Q612.7344,1913.5273 613.625,1914.3555 Q614.5156,1915.168 616.1094,1915.168 Q617.0469,1915.168 617.7031,1914.918 Q618.0938,1914.7617 618.5156,1914.3242 Q618.7813,1914.0586 618.9219,1913.9805 Q619.0781,1913.9023 619.2813,1913.9023 Q619.6094,1913.9023 619.8594,1914.168 Q620.125,1914.418 620.125,1914.7617 Q620.125,1915.1055 619.7813,1915.5117 Q619.2813,1916.0898 618.4844,1916.418 Q617.4063,1916.8711 616.1094,1916.8711 Q614.5938,1916.8711 613.3906,1916.2461 Q612.4063,1915.7461 611.7188,1914.6836 Q611.0313,1913.6055 611.0313,1912.3242 L611.0313,1911.168 Q611.0313,1909.8398 611.6406,1908.6992 Q612.2656,1907.543 613.3594,1906.9336 Q614.4531,1906.3086 615.6875,1906.3086 Q616.4219,1906.3086 617.0625,1906.4805 Q617.7188,1906.6367 618.2656,1906.9961 Z " fill="#000000"/><text fill="#000000" font-family="sans-serif" font-size="14" lengthAdjust="spacing" textLength="86" x="629.5" y="1916.918">EmailAddress</text><line style="stroke:#181818;stroke-width:0.5;" x1="601.5" x2="717.5" y1="1927.1211" y2="1927.1211"/><rect fill="none" height="6" style="stroke:#C82930;stroke-width:1.0;" width="6" x="608.5" y="1938.9316"/><text fill="#000000" font-family="sans-serif" font-size="14" lengthAdjust="spacing" textLength="82" x="620.5" y="1946.2285">email : String</text><line style="stroke:#181818;stroke-width:0.5;" x1="601.5" x2="717.5" y1="1953.7422" y2="1953.7422"/></g><!--class Name--><g id="elem_Name"><rect codeLine="108" fill="#F1F1F1" height="122.4844" id="Name" rx="2.5" ry="2.5" style="stroke:#181818;stroke-width:0.5;" width="144" x="753.5" y="1867.6211"/><ellipse cx="803.25" cy="1883.6211" fill="#ADD1B2" rx="11" ry="11" style="stroke:#181818;stroke-width:1.0;"/><path d="M806.0156,1879.4961 Q806.1719,1879.2773 806.3594,1879.168 Q806.5469,1879.0586 806.7656,1879.0586 Q807.1406,1879.0586 807.375,1879.3242 Q807.6094,1879.5742 807.6094,1880.1836 L807.6094,1881.6367 Q807.6094,1882.2461 807.375,1882.5117 Q807.1406,1882.7773 806.7656,1882.7773 Q806.4219,1882.7773 806.2188,1882.5742 Q806.0156,1882.3867 805.9063,1881.8711 Q805.8594,1881.5117 805.6719,1881.3242 Q805.3438,1880.9492 804.7344,1880.7305 Q804.125,1880.5117 803.5,1880.5117 Q802.7344,1880.5117 802.0938,1880.8398 Q801.4688,1881.168 800.9688,1881.918 Q800.4844,1882.668 800.4844,1883.6992 L800.4844,1884.793 Q800.4844,1886.0273 801.375,1886.8555 Q802.2656,1887.668 803.8594,1887.668 Q804.7969,1887.668 805.4531,1887.418 Q805.8438,1887.2617 806.2656,1886.8242 Q806.5313,1886.5586 806.6719,1886.4805 Q806.8281,1886.4023 807.0313,1886.4023 Q807.3594,1886.4023 807.6094,1886.668 Q807.875,1886.918 807.875,1887.2617 Q807.875,1887.6055 807.5313,1888.0117 Q807.0313,1888.5898 806.2344,1888.918 Q805.1563,1889.3711 803.8594,1889.3711 Q802.3438,1889.3711 801.1406,1888.7461 Q800.1563,1888.2461 799.4688,1887.1836 Q798.7813,1886.1055 798.7813,1884.8242 L798.7813,1883.668 Q798.7813,1882.3398 799.3906,1881.1992 Q800.0156,1880.043 801.1094,1879.4336 Q802.2031,1878.8086 803.4375,1878.8086 Q804.1719,1878.8086 804.8125,1878.9805 Q805.4688,1879.1367 806.0156,1879.4961 Z " fill="#000000"/><text fill="#000000" font-family="sans-serif" font-size="14" lengthAdjust="spacing" textLength="36" x="823.75" y="1889.418">Name</text><line style="stroke:#181818;stroke-width:0.5;" x1="754.5" x2="896.5" y1="1899.6211" y2="1899.6211"/><rect fill="none" height="6" style="stroke:#C82930;stroke-width:1.0;" width="6" x="761.5" y="1911.4316"/><text fill="#000000" font-family="sans-serif" font-size="14" lengthAdjust="spacing" textLength="108" x="773.5" y="1918.7285">firstName : String</text><rect fill="none" height="6" style="stroke:#C82930;stroke-width:1.0;" width="6" x="761.5" y="1930.0527"/><text fill="#000000" font-family="sans-serif" font-size="14" lengthAdjust="spacing" textLength="107" x="773.5" y="1937.3496">lastName : String</text><line style="stroke:#181818;stroke-width:0.5;" x1="754.5" x2="896.5" y1="1944.8633" y2="1944.8633"/><ellipse cx="764.5" cy="1959.6738" fill="#84BE84" rx="3" ry="3" style="stroke:#038048;stroke-width:1.0;"/><text fill="#000000" font-family="sans-serif" font-size="14" lengthAdjust="spacing" textLength="118" x="773.5" y="1963.9707">firstName() : String</text><ellipse cx="764.5" cy="1978.2949" fill="#84BE84" rx="3" ry="3" style="stroke:#038048;stroke-width:1.0;"/><text fill="#000000" font-family="sans-serif" font-size="14" lengthAdjust="spacing" textLength="117" x="773.5" y="1982.5918">lastName() : String</text></g><!--class Code--><g id="elem_Code"><rect codeLine="115" fill="#F1F1F1" height="85.2422" id="Code" rx="2.5" ry="2.5" style="stroke:#181818;stroke-width:0.5;" width="139" x="861" y="1684.1211"/><ellipse cx="909.25" cy="1700.1211" fill="#ADD1B2" rx="11" ry="11" style="stroke:#181818;stroke-width:1.0;"/><path d="M912.0156,1695.9961 Q912.1719,1695.7773 912.3594,1695.668 Q912.5469,1695.5586 912.7656,1695.5586 Q913.1406,1695.5586 913.375,1695.8242 Q913.6094,1696.0742 913.6094,1696.6836 L913.6094,1698.1367 Q913.6094,1698.7461 913.375,1699.0117 Q913.1406,1699.2773 912.7656,1699.2773 Q912.4219,1699.2773 912.2188,1699.0742 Q912.0156,1698.8867 911.9063,1698.3711 Q911.8594,1698.0117 911.6719,1697.8242 Q911.3438,1697.4492 910.7344,1697.2305 Q910.125,1697.0117 909.5,1697.0117 Q908.7344,1697.0117 908.0938,1697.3398 Q907.4688,1697.668 906.9688,1698.418 Q906.4844,1699.168 906.4844,1700.1992 L906.4844,1701.293 Q906.4844,1702.5273 907.375,1703.3555 Q908.2656,1704.168 909.8594,1704.168 Q910.7969,1704.168 911.4531,1703.918 Q911.8438,1703.7617 912.2656,1703.3242 Q912.5313,1703.0586 912.6719,1702.9805 Q912.8281,1702.9023 913.0313,1702.9023 Q913.3594,1702.9023 913.6094,1703.168 Q913.875,1703.418 913.875,1703.7617 Q913.875,1704.1055 913.5313,1704.5117 Q913.0313,1705.0898 912.2344,1705.418 Q911.1563,1705.8711 909.8594,1705.8711 Q908.3438,1705.8711 907.1406,1705.2461 Q906.1563,1704.7461 905.4688,1703.6836 Q904.7813,1702.6055 904.7813,1701.3242 L904.7813,1700.168 Q904.7813,1698.8398 905.3906,1697.6992 Q906.0156,1696.543 907.1094,1695.9336 Q908.2031,1695.3086 909.4375,1695.3086 Q910.1719,1695.3086 910.8125,1695.4805 Q911.4688,1695.6367 912.0156,1695.9961 Z " fill="#000000"/><text fill="#000000" font-family="sans-serif" font-size="14" lengthAdjust="spacing" textLength="34" x="929.75" y="1705.918">Code</text><line style="stroke:#181818;stroke-width:0.5;" x1="862" x2="999" y1="1716.1211" y2="1716.1211"/><rect fill="none" height="6" style="stroke:#C82930;stroke-width:1.0;" width="6" x="869" y="1727.9316"/><text fill="#000000" font-family="sans-serif" font-size="14" lengthAdjust="spacing" textLength="80" x="881" y="1735.2285">code : String</text><line style="stroke:#181818;stroke-width:0.5;" x1="862" x2="999" y1="1742.7422" y2="1742.7422"/><ellipse cx="872" cy="1757.5527" fill="#84BE84" rx="3" ry="3" style="stroke:#038048;stroke-width:1.0;"/><text fill="#000000" font-family="sans-serif" font-size="14" lengthAdjust="spacing" textLength="113" x="881" y="1761.8496">getCode() : String</text></g><!--class SystemUser--><g id="elem_SystemUser"><rect codeLine="121" fill="#F1F1F1" height="122.4844" id="SystemUser" rx="2.5" ry="2.5" style="stroke:#181818;stroke-width:0.5;" width="167" x="659" y="1665.6211"/><ellipse cx="701" cy="1681.6211" fill="#ADD1B2" rx="11" ry="11" style="stroke:#181818;stroke-width:1.0;"/><path d="M703.7656,1677.4961 Q703.9219,1677.2773 704.1094,1677.168 Q704.2969,1677.0586 704.5156,1677.0586 Q704.8906,1677.0586 705.125,1677.3242 Q705.3594,1677.5742 705.3594,1678.1836 L705.3594,1679.6367 Q705.3594,1680.2461 705.125,1680.5117 Q704.8906,1680.7773 704.5156,1680.7773 Q704.1719,1680.7773 703.9688,1680.5742 Q703.7656,1680.3867 703.6563,1679.8711 Q703.6094,1679.5117 703.4219,1679.3242 Q703.0938,1678.9492 702.4844,1678.7305 Q701.875,1678.5117 701.25,1678.5117 Q700.4844,1678.5117 699.8438,1678.8398 Q699.2188,1679.168 698.7188,1679.918 Q698.2344,1680.668 698.2344,1681.6992 L698.2344,1682.793 Q698.2344,1684.0273 699.125,1684.8555 Q700.0156,1685.668 701.6094,1685.668 Q702.5469,1685.668 703.2031,1685.418 Q703.5938,1685.2617 704.0156,1684.8242 Q704.2813,1684.5586 704.4219,1684.4805 Q704.5781,1684.4023 704.7813,1684.4023 Q705.1094,1684.4023 705.3594,1684.668 Q705.625,1684.918 705.625,1685.2617 Q705.625,1685.6055 705.2813,1686.0117 Q704.7813,1686.5898 703.9844,1686.918 Q702.9063,1687.3711 701.6094,1687.3711 Q700.0938,1687.3711 698.8906,1686.7461 Q697.9063,1686.2461 697.2188,1685.1836 Q696.5313,1684.1055 696.5313,1682.8242 L696.5313,1681.668 Q696.5313,1680.3398 697.1406,1679.1992 Q697.7656,1678.043 698.8594,1677.4336 Q699.9531,1676.8086 701.1875,1676.8086 Q701.9219,1676.8086 702.5625,1676.9805 Q703.2188,1677.1367 703.7656,1677.4961 Z " fill="#000000"/><text fill="#000000" font-family="sans-serif" font-size="14" lengthAdjust="spacing" textLength="75" x="721" y="1687.418">SystemUser</text><line style="stroke:#181818;stroke-width:0.5;" x1="660" x2="825" y1="1697.6211" y2="1697.6211"/><rect fill="none" height="6" style="stroke:#C82930;stroke-width:1.0;" width="6" x="667" y="1709.4316"/><text fill="#000000" font-family="sans-serif" font-size="14" lengthAdjust="spacing" textLength="83" x="679" y="1716.7285">name : Name</text><rect fill="none" height="6" style="stroke:#C82930;stroke-width:1.0;" width="6" x="667" y="1728.0527"/><text fill="#000000" font-family="sans-serif" font-size="14" lengthAdjust="spacing" textLength="131" x="679" y="1735.3496">email : EmailAddress</text><line style="stroke:#181818;stroke-width:0.5;" x1="660" x2="825" y1="1742.8633" y2="1742.8633"/><ellipse cx="670" cy="1757.6738" fill="#84BE84" rx="3" ry="3" style="stroke:#038048;stroke-width:1.0;"/><text fill="#000000" font-family="sans-serif" font-size="14" lengthAdjust="spacing" textLength="141" x="679" y="1761.9707">email() : EmailAddress</text><ellipse cx="670" cy="1776.2949" fill="#84BE84" rx="3" ry="3" style="stroke:#038048;stroke-width:1.0;"/><text fill="#000000" font-family="sans-serif" font-size="14" lengthAdjust="spacing" textLength="93" x="679" y="1780.5918">name() : Name</text></g><!--class Mode--><g id="elem_Mode"><rect codeLine="129" fill="#F1F1F1" height="85.2422" id="Mode" rx="2.5" ry="2.5" style="stroke:#181818;stroke-width:0.5;" width="142" x="1099.5" y="1426.1211"/><ellipse cx="1148.75" cy="1442.1211" fill="#ADD1B2" rx="11" ry="11" style="stroke:#181818;stroke-width:1.0;"/><path d="M1151.5156,1437.9961 Q1151.6719,1437.7773 1151.8594,1437.668 Q1152.0469,1437.5586 1152.2656,1437.5586 Q1152.6406,1437.5586 1152.875,1437.8242 Q1153.1094,1438.0742 1153.1094,1438.6836 L1153.1094,1440.1367 Q1153.1094,1440.7461 1152.875,1441.0117 Q1152.6406,1441.2773 1152.2656,1441.2773 Q1151.9219,1441.2773 1151.7188,1441.0742 Q1151.5156,1440.8867 1151.4063,1440.3711 Q1151.3594,1440.0117 1151.1719,1439.8242 Q1150.8438,1439.4492 1150.2344,1439.2305 Q1149.625,1439.0117 1149,1439.0117 Q1148.2344,1439.0117 1147.5938,1439.3398 Q1146.9688,1439.668 1146.4688,1440.418 Q1145.9844,1441.168 1145.9844,1442.1992 L1145.9844,1443.293 Q1145.9844,1444.5273 1146.875,1445.3555 Q1147.7656,1446.168 1149.3594,1446.168 Q1150.2969,1446.168 1150.9531,1445.918 Q1151.3438,1445.7617 1151.7656,1445.3242 Q1152.0313,1445.0586 1152.1719,1444.9805 Q1152.3281,1444.9023 1152.5313,1444.9023 Q1152.8594,1444.9023 1153.1094,1445.168 Q1153.375,1445.418 1153.375,1445.7617 Q1153.375,1446.1055 1153.0313,1446.5117 Q1152.5313,1447.0898 1151.7344,1447.418 Q1150.6563,1447.8711 1149.3594,1447.8711 Q1147.8438,1447.8711 1146.6406,1447.2461 Q1145.6563,1446.7461 1144.9688,1445.6836 Q1144.2813,1444.6055 1144.2813,1443.3242 L1144.2813,1442.168 Q1144.2813,1440.8398 1144.8906,1439.6992 Q1145.5156,1438.543 1146.6094,1437.9336 Q1147.7031,1437.3086 1148.9375,1437.3086 Q1149.6719,1437.3086 1150.3125,1437.4805 Q1150.9688,1437.6367 1151.5156,1437.9961 Z " fill="#000000"/><text fill="#000000" font-family="sans-serif" font-size="14" lengthAdjust="spacing" textLength="35" x="1169.25" y="1447.918">Mode</text><line style="stroke:#181818;stroke-width:0.5;" x1="1100.5" x2="1240.5" y1="1458.1211" y2="1458.1211"/><rect fill="none" height="6" style="stroke:#C82930;stroke-width:1.0;" width="6" x="1107.5" y="1469.9316"/><text fill="#000000" font-family="sans-serif" font-size="14" lengthAdjust="spacing" textLength="106" x="1119.5" y="1477.2285">modeDescription</text><line style="stroke:#181818;stroke-width:0.5;" x1="1100.5" x2="1240.5" y1="1484.7422" y2="1484.7422"/><ellipse cx="1110.5" cy="1499.5527" fill="#84BE84" rx="3" ry="3" style="stroke:#038048;stroke-width:1.0;"/><text fill="#000000" font-family="sans-serif" font-size="14" lengthAdjust="spacing" textLength="116" x="1119.5" y="1503.8496">modeDescription()</text></g><!--class ContractType--><g id="elem_ContractType"><rect codeLine="134" fill="#F1F1F1" height="85.2422" id="ContractType" rx="2.5" ry="2.5" style="stroke:#181818;stroke-width:0.5;" width="168" x="1276.5" y="1426.1211"/><ellipse cx="1314" cy="1442.1211" fill="#ADD1B2" rx="11" ry="11" style="stroke:#181818;stroke-width:1.0;"/><path d="M1316.7656,1437.9961 Q1316.9219,1437.7773 1317.1094,1437.668 Q1317.2969,1437.5586 1317.5156,1437.5586 Q1317.8906,1437.5586 1318.125,1437.8242 Q1318.3594,1438.0742 1318.3594,1438.6836 L1318.3594,1440.1367 Q1318.3594,1440.7461 1318.125,1441.0117 Q1317.8906,1441.2773 1317.5156,1441.2773 Q1317.1719,1441.2773 1316.9688,1441.0742 Q1316.7656,1440.8867 1316.6563,1440.3711 Q1316.6094,1440.0117 1316.4219,1439.8242 Q1316.0938,1439.4492 1315.4844,1439.2305 Q1314.875,1439.0117 1314.25,1439.0117 Q1313.4844,1439.0117 1312.8438,1439.3398 Q1312.2188,1439.668 1311.7188,1440.418 Q1311.2344,1441.168 1311.2344,1442.1992 L1311.2344,1443.293 Q1311.2344,1444.5273 1312.125,1445.3555 Q1313.0156,1446.168 1314.6094,1446.168 Q1315.5469,1446.168 1316.2031,1445.918 Q1316.5938,1445.7617 1317.0156,1445.3242 Q1317.2813,1445.0586 1317.4219,1444.9805 Q1317.5781,1444.9023 1317.7813,1444.9023 Q1318.1094,1444.9023 1318.3594,1445.168 Q1318.625,1445.418 1318.625,1445.7617 Q1318.625,1446.1055 1318.2813,1446.5117 Q1317.7813,1447.0898 1316.9844,1447.418 Q1315.9063,1447.8711 1314.6094,1447.8711 Q1313.0938,1447.8711 1311.8906,1447.2461 Q1310.9063,1446.7461 1310.2188,1445.6836 Q1309.5313,1444.6055 1309.5313,1443.3242 L1309.5313,1442.168 Q1309.5313,1440.8398 1310.1406,1439.6992 Q1310.7656,1438.543 1311.8594,1437.9336 Q1312.9531,1437.3086 1314.1875,1437.3086 Q1314.9219,1437.3086 1315.5625,1437.4805 Q1316.2188,1437.6367 1316.7656,1437.9961 Z " fill="#000000"/><text fill="#000000" font-family="sans-serif" font-size="14" lengthAdjust="spacing" textLength="86" x="1333" y="1447.918">ContractType</text><line style="stroke:#181818;stroke-width:0.5;" x1="1277.5" x2="1443.5" y1="1458.1211" y2="1458.1211"/><rect fill="none" height="6" style="stroke:#C82930;stroke-width:1.0;" width="6" x="1284.5" y="1469.9316"/><text fill="#000000" font-family="sans-serif" font-size="14" lengthAdjust="spacing" textLength="132" x="1296.5" y="1477.2285">contractType : String</text><line style="stroke:#181818;stroke-width:0.5;" x1="1277.5" x2="1443.5" y1="1484.7422" y2="1484.7422"/><ellipse cx="1287.5" cy="1499.5527" fill="#84BE84" rx="3" ry="3" style="stroke:#038048;stroke-width:1.0;"/><text fill="#000000" font-family="sans-serif" font-size="14" lengthAdjust="spacing" textLength="142" x="1296.5" y="1503.8496">contractType() : String</text></g><!--class PersistenceContext--><g id="elem_PersistenceContext"><rect codeLine="140" fill="#F1F1F1" height="66.6211" id="PersistenceContext" rx="2.5" ry="2.5" style="stroke:#181818;stroke-width:0.5;" width="154" x="1201.5" y="320.6211"/><ellipse cx="1216.5" cy="336.6211" fill="#ADD1B2" rx="11" ry="11" style="stroke:#181818;stroke-width:1.0;"/><path d="M1219.2656,332.4961 Q1219.4219,332.2773 1219.6094,332.168 Q1219.7969,332.0586 1220.0156,332.0586 Q1220.3906,332.0586 1220.625,332.3242 Q1220.8594,332.5742 1220.8594,333.1836 L1220.8594,334.6367 Q1220.8594,335.2461 1220.625,335.5117 Q1220.3906,335.7773 1220.0156,335.7773 Q1219.6719,335.7773 1219.4688,335.5742 Q1219.2656,335.3867 1219.1563,334.8711 Q1219.1094,334.5117 1218.9219,334.3242 Q1218.5938,333.9492 1217.9844,333.7305 Q1217.375,333.5117 1216.75,333.5117 Q1215.9844,333.5117 1215.3438,333.8398 Q1214.7188,334.168 1214.2188,334.918 Q1213.7344,335.668 1213.7344,336.6992 L1213.7344,337.793 Q1213.7344,339.0273 1214.625,339.8555 Q1215.5156,340.668 1217.1094,340.668 Q1218.0469,340.668 1218.7031,340.418 Q1219.0938,340.2617 1219.5156,339.8242 Q1219.7813,339.5586 1219.9219,339.4805 Q1220.0781,339.4023 1220.2813,339.4023 Q1220.6094,339.4023 1220.8594,339.668 Q1221.125,339.918 1221.125,340.2617 Q1221.125,340.6055 1220.7813,341.0117 Q1220.2813,341.5898 1219.4844,341.918 Q1218.4063,342.3711 1217.1094,342.3711 Q1215.5938,342.3711 1214.3906,341.7461 Q1213.4063,341.2461 1212.7188,340.1836 Q1212.0313,339.1055 1212.0313,337.8242 L1212.0313,336.668 Q1212.0313,335.3398 1212.6406,334.1992 Q1213.2656,333.043 1214.3594,332.4336 Q1215.4531,331.8086 1216.6875,331.8086 Q1217.4219,331.8086 1218.0625,331.9805 Q1218.7188,332.1367 1219.2656,332.4961 Z " fill="#000000"/><text fill="#000000" font-family="sans-serif" font-size="14" lengthAdjust="spacing" textLength="122" x="1230.5" y="342.418">PersistenceContext</text><line style="stroke:#181818;stroke-width:0.5;" x1="1202.5" x2="1354.5" y1="352.6211" y2="352.6211"/><line style="stroke:#181818;stroke-width:0.5;" x1="1202.5" x2="1354.5" y1="360.6211" y2="360.6211"/><ellipse cx="1212.5" cy="375.4316" fill="#84BE84" rx="3" ry="3" style="stroke:#038048;stroke-width:1.0;"/><text fill="#000000" font-family="sans-serif" font-size="14" lengthAdjust="spacing" textLength="84" x="1221.5" y="379.7285">repositories()</text></g><!--class RepositoryFactory--><g id="elem_RepositoryFactory"><rect codeLine="144" fill="#F1F1F1" height="122.4844" id="RepositoryFactory" rx="2.5" ry="2.5" style="stroke:#181818;stroke-width:0.5;" width="250" x="1153.5" y="448.6211"/><ellipse cx="1216.25" cy="464.6211" fill="#B4A7E5" rx="11" ry="11" style="stroke:#181818;stroke-width:1.0;"/><path d="M1217.2031,461.2617 L1217.2031,467.918 L1218.9219,467.918 Q1219.5313,467.918 1219.7969,468.1523 Q1220.0625,468.3867 1220.0625,468.7773 Q1220.0625,469.1523 1219.7969,469.3867 Q1219.5313,469.6211 1218.9219,469.6211 L1213.7813,469.6211 Q1213.1719,469.6211 1212.9063,469.3867 Q1212.6406,469.1523 1212.6406,468.7617 Q1212.6406,468.3867 1212.9063,468.1523 Q1213.1719,467.918 1213.7813,467.918 L1215.5,467.918 L1215.5,461.2617 L1213.7813,461.2617 Q1213.1719,461.2617 1212.9063,461.0273 Q1212.6406,460.793 1212.6406,460.4023 Q1212.6406,460.0273 1212.9063,459.793 Q1213.1719,459.5586 1213.7813,459.5586 L1218.9219,459.5586 Q1219.5313,459.5586 1219.7969,459.793 Q1220.0625,460.0273 1220.0625,460.4023 Q1220.0625,460.793 1219.7969,461.0273 Q1219.5313,461.2617 1218.9219,461.2617 L1217.2031,461.2617 Z " fill="#000000"/><text fill="#000000" font-family="sans-serif" font-size="14" font-style="italic" lengthAdjust="spacing" textLength="116" x="1236.75" y="470.418">RepositoryFactory</text><line style="stroke:#181818;stroke-width:0.5;" x1="1154.5" x2="1402.5" y1="480.6211" y2="480.6211"/><line style="stroke:#181818;stroke-width:0.5;" x1="1154.5" x2="1402.5" y1="488.6211" y2="488.6211"/><text fill="#000000" font-family="sans-serif" font-size="14" lengthAdjust="spacing" textLength="90" x="1159.5" y="507.7285">jobOpenings()</text><text fill="#000000" font-family="sans-serif" font-size="14" lengthAdjust="spacing" textLength="238" x="1159.5" y="526.3496">jobOpenings(TransactionalContext tx)</text><text fill="#000000" font-family="sans-serif" font-size="14" lengthAdjust="spacing" textLength="55" x="1159.5" y="544.9707">plugins()</text><text fill="#000000" font-family="sans-serif" font-size="14" lengthAdjust="spacing" textLength="236" x="1159.5" y="563.5918">plugins(TransactionalContext autoTx)</text></g><!--class JobOpeningRepository--><g id="elem_JobOpeningRepository"><rect codeLine="151" fill="#F1F1F1" height="85.2422" id="JobOpeningRepository" rx="2.5" ry="2.5" style="stroke:#181818;stroke-width:0.5;" width="177" x="1012" y="631.6211"/><ellipse cx="1027" cy="647.6211" fill="#B4A7E5" rx="11" ry="11" style="stroke:#181818;stroke-width:1.0;"/><path d="M1027.9531,644.2617 L1027.9531,650.918 L1029.6719,650.918 Q1030.2813,650.918 1030.5469,651.1523 Q1030.8125,651.3867 1030.8125,651.7773 Q1030.8125,652.1523 1030.5469,652.3867 Q1030.2813,652.6211 1029.6719,652.6211 L1024.5313,652.6211 Q1023.9219,652.6211 1023.6563,652.3867 Q1023.3906,652.1523 1023.3906,651.7617 Q1023.3906,651.3867 1023.6563,651.1523 Q1023.9219,650.918 1024.5313,650.918 L1026.25,650.918 L1026.25,644.2617 L1024.5313,644.2617 Q1023.9219,644.2617 1023.6563,644.0273 Q1023.3906,643.793 1023.3906,643.4023 Q1023.3906,643.0273 1023.6563,642.793 Q1023.9219,642.5586 1024.5313,642.5586 L1029.6719,642.5586 Q1030.2813,642.5586 1030.5469,642.793 Q1030.8125,643.0273 1030.8125,643.4023 Q1030.8125,643.793 1030.5469,644.0273 Q1030.2813,644.2617 1029.6719,644.2617 L1027.9531,644.2617 Z " fill="#000000"/><text fill="#000000" font-family="sans-serif" font-size="14" font-style="italic" lengthAdjust="spacing" textLength="145" x="1041" y="653.418">JobOpeningRepository</text><line style="stroke:#181818;stroke-width:0.5;" x1="1013" x2="1188" y1="663.6211" y2="663.6211"/><line style="stroke:#181818;stroke-width:0.5;" x1="1013" x2="1188" y1="671.6211" y2="671.6211"/><text fill="#000000" font-family="sans-serif" font-size="14" lengthAdjust="spacing" textLength="90" x="1018" y="690.7285">jobOpenings()</text><text fill="#000000" font-family="sans-serif" font-size="14" lengthAdjust="spacing" textLength="113" x="1018" y="709.3496">save(jobOpening)</text></g><!--class PluginRepository--><g id="elem_PluginRepository"><rect codeLine="156" fill="#F1F1F1" height="66.6211" id="PluginRepository" rx="2.5" ry="2.5" style="stroke:#181818;stroke-width:0.5;" width="315" x="1299" y="640.6211"/><ellipse cx="1398.75" cy="656.6211" fill="#B4A7E5" rx="11" ry="11" style="stroke:#181818;stroke-width:1.0;"/><path d="M1399.7031,653.2617 L1399.7031,659.918 L1401.4219,659.918 Q1402.0313,659.918 1402.2969,660.1523 Q1402.5625,660.3867 1402.5625,660.7773 Q1402.5625,661.1523 1402.2969,661.3867 Q1402.0313,661.6211 1401.4219,661.6211 L1396.2813,661.6211 Q1395.6719,661.6211 1395.4063,661.3867 Q1395.1406,661.1523 1395.1406,660.7617 Q1395.1406,660.3867 1395.4063,660.1523 Q1395.6719,659.918 1396.2813,659.918 L1398,659.918 L1398,653.2617 L1396.2813,653.2617 Q1395.6719,653.2617 1395.4063,653.0273 Q1395.1406,652.793 1395.1406,652.4023 Q1395.1406,652.0273 1395.4063,651.793 Q1395.6719,651.5586 1396.2813,651.5586 L1401.4219,651.5586 Q1402.0313,651.5586 1402.2969,651.793 Q1402.5625,652.0273 1402.5625,652.4023 Q1402.5625,652.793 1402.2969,653.0273 Q1402.0313,653.2617 1401.4219,653.2617 L1399.7031,653.2617 Z " fill="#000000"/><text fill="#000000" font-family="sans-serif" font-size="14" font-style="italic" lengthAdjust="spacing" textLength="107" x="1419.25" y="662.418">PluginRepository</text><line style="stroke:#181818;stroke-width:0.5;" x1="1300" x2="1613" y1="672.6211" y2="672.6211"/><line style="stroke:#181818;stroke-width:0.5;" x1="1300" x2="1613" y1="680.6211" y2="680.6211"/><text fill="#000000" font-family="sans-serif" font-size="14" lengthAdjust="spacing" textLength="303" x="1305" y="699.7285">findPluginByType(PluginType.REQUIREMENTS)</text></g><!--class PluginType--><g id="elem_PluginType"><rect codeLine="160" fill="#F1F1F1" height="141.1055" id="PluginType" rx="2.5" ry="2.5" style="stroke:#181818;stroke-width:0.5;" width="212" x="1635.5" y="1656.1211"/><ellipse cx="1701.75" cy="1672.1211" fill="#ADD1B2" rx="11" ry="11" style="stroke:#181818;stroke-width:1.0;"/><path d="M1704.5156,1667.9961 Q1704.6719,1667.7773 1704.8594,1667.668 Q1705.0469,1667.5586 1705.2656,1667.5586 Q1705.6406,1667.5586 1705.875,1667.8242 Q1706.1094,1668.0742 1706.1094,1668.6836 L1706.1094,1670.1367 Q1706.1094,1670.7461 1705.875,1671.0117 Q1705.6406,1671.2773 1705.2656,1671.2773 Q1704.9219,1671.2773 1704.7188,1671.0742 Q1704.5156,1670.8867 1704.4063,1670.3711 Q1704.3594,1670.0117 1704.1719,1669.8242 Q1703.8438,1669.4492 1703.2344,1669.2305 Q1702.625,1669.0117 1702,1669.0117 Q1701.2344,1669.0117 1700.5938,1669.3398 Q1699.9688,1669.668 1699.4688,1670.418 Q1698.9844,1671.168 1698.9844,1672.1992 L1698.9844,1673.293 Q1698.9844,1674.5273 1699.875,1675.3555 Q1700.7656,1676.168 1702.3594,1676.168 Q1703.2969,1676.168 1703.9531,1675.918 Q1704.3438,1675.7617 1704.7656,1675.3242 Q1705.0313,1675.0586 1705.1719,1674.9805 Q1705.3281,1674.9023 1705.5313,1674.9023 Q1705.8594,1674.9023 1706.1094,1675.168 Q1706.375,1675.418 1706.375,1675.7617 Q1706.375,1676.1055 1706.0313,1676.5117 Q1705.5313,1677.0898 1704.7344,1677.418 Q1703.6563,1677.8711 1702.3594,1677.8711 Q1700.8438,1677.8711 1699.6406,1677.2461 Q1698.6563,1676.7461 1697.9688,1675.6836 Q1697.2813,1674.6055 1697.2813,1673.3242 L1697.2813,1672.168 Q1697.2813,1670.8398 1697.8906,1669.6992 Q1698.5156,1668.543 1699.6094,1667.9336 Q1700.7031,1667.3086 1701.9375,1667.3086 Q1702.6719,1667.3086 1703.3125,1667.4805 Q1703.9688,1667.6367 1704.5156,1667.9961 Z " fill="#000000"/><text fill="#000000" font-family="sans-serif" font-size="14" lengthAdjust="spacing" textLength="71" x="1722.25" y="1677.918">PluginType</text><line style="stroke:#181818;stroke-width:0.5;" x1="1636.5" x2="1846.5" y1="1688.1211" y2="1688.1211"/><rect fill="none" height="6" style="stroke:#C82930;stroke-width:1.0;" width="6" x="1643.5" y="1699.9316"/><text fill="#000000" font-family="sans-serif" font-size="14" lengthAdjust="spacing" textLength="113" x="1655.5" y="1707.2285">shorthand : String</text><rect fill="none" height="6" style="stroke:#C82930;stroke-width:1.0;" width="6" x="1643.5" y="1718.5527"/><text fill="#000000" font-family="sans-serif" font-size="14" lengthAdjust="spacing" textLength="155" x="1655.5" y="1725.8496">pluginTypeName : String</text><line style="stroke:#181818;stroke-width:0.5;" x1="1636.5" x2="1846.5" y1="1733.3633" y2="1733.3633"/><ellipse cx="1646.5" cy="1748.1738" fill="#84BE84" rx="3" ry="3" style="stroke:#038048;stroke-width:1.0;"/><text fill="#000000" font-family="sans-serif" font-size="14" lengthAdjust="spacing" textLength="156" x="1655.5" y="1752.4707">isValid(String shorthand)</text><ellipse cx="1646.5" cy="1766.7949" fill="#84BE84" rx="3" ry="3" style="stroke:#038048;stroke-width:1.0;"/><text fill="#000000" font-family="sans-serif" font-size="14" lengthAdjust="spacing" textLength="181" x="1655.5" y="1771.0918">getShorthandName() : String</text><ellipse cx="1646.5" cy="1785.416" fill="#84BE84" rx="3" ry="3" style="stroke:#038048;stroke-width:1.0;"/><text fill="#000000" font-family="sans-serif" font-size="14" lengthAdjust="spacing" textLength="186" x="1655.5" y="1789.7129">getPluginTypeName() : String</text></g><!--class PluginIdentifier--><g id="elem_PluginIdentifier"><rect codeLine="168" fill="#F1F1F1" height="85.2422" id="PluginIdentifier" rx="2.5" ry="2.5" style="stroke:#181818;stroke-width:0.5;" width="234" x="1882.5" y="1684.1211"/><ellipse cx="1948.75" cy="1700.1211" fill="#ADD1B2" rx="11" ry="11" style="stroke:#181818;stroke-width:1.0;"/><path d="M1951.5156,1695.9961 Q1951.6719,1695.7773 1951.8594,1695.668 Q1952.0469,1695.5586 1952.2656,1695.5586 Q1952.6406,1695.5586 1952.875,1695.8242 Q1953.1094,1696.0742 1953.1094,1696.6836 L1953.1094,1698.1367 Q1953.1094,1698.7461 1952.875,1699.0117 Q1952.6406,1699.2773 1952.2656,1699.2773 Q1951.9219,1699.2773 1951.7188,1699.0742 Q1951.5156,1698.8867 1951.4063,1698.3711 Q1951.3594,1698.0117 1951.1719,1697.8242 Q1950.8438,1697.4492 1950.2344,1697.2305 Q1949.625,1697.0117 1949,1697.0117 Q1948.2344,1697.0117 1947.5938,1697.3398 Q1946.9688,1697.668 1946.4688,1698.418 Q1945.9844,1699.168 1945.9844,1700.1992 L1945.9844,1701.293 Q1945.9844,1702.5273 1946.875,1703.3555 Q1947.7656,1704.168 1949.3594,1704.168 Q1950.2969,1704.168 1950.9531,1703.918 Q1951.3438,1703.7617 1951.7656,1703.3242 Q1952.0313,1703.0586 1952.1719,1702.9805 Q1952.3281,1702.9023 1952.5313,1702.9023 Q1952.8594,1702.9023 1953.1094,1703.168 Q1953.375,1703.418 1953.375,1703.7617 Q1953.375,1704.1055 1953.0313,1704.5117 Q1952.5313,1705.0898 1951.7344,1705.418 Q1950.6563,1705.8711 1949.3594,1705.8711 Q1947.8438,1705.8711 1946.6406,1705.2461 Q1945.6563,1704.7461 1944.9688,1703.6836 Q1944.2813,1702.6055 1944.2813,1701.3242 L1944.2813,1700.168 Q1944.2813,1698.8398 1944.8906,1697.6992 Q1945.5156,1696.543 1946.6094,1695.9336 Q1947.7031,1695.3086 1948.9375,1695.3086 Q1949.6719,1695.3086 1950.3125,1695.4805 Q1950.9688,1695.6367 1951.5156,1695.9961 Z " fill="#000000"/><text fill="#000000" font-family="sans-serif" font-size="14" lengthAdjust="spacing" textLength="93" x="1969.25" y="1705.918">PluginIdentifier</text><line style="stroke:#181818;stroke-width:0.5;" x1="1883.5" x2="2115.5" y1="1716.1211" y2="1716.1211"/><rect fill="none" height="6" style="stroke:#C82930;stroke-width:1.0;" width="6" x="1890.5" y="1727.9316"/><text fill="#000000" font-family="sans-serif" font-size="14" lengthAdjust="spacing" textLength="103" x="1902.5" y="1735.2285">identifier : String</text><line style="stroke:#181818;stroke-width:0.5;" x1="1883.5" x2="2115.5" y1="1742.7422" y2="1742.7422"/><ellipse cx="1893.5" cy="1757.5527" fill="#84BE84" rx="3" ry="3" style="stroke:#038048;stroke-width:1.0;"/><text fill="#000000" font-family="sans-serif" font-size="14" lengthAdjust="spacing" textLength="208" x="1902.5" y="1761.8496">validateIdentifier(String identifier)</text></g><!--link SelectInterviewModelUI to SelectInterviewModelController--><g id="link_SelectInterviewModelUI_SelectInterviewModelController"><path codeLine="173" d="M1278.5,94.8311 C1278.5,111.4911 1278.5,128.5911 1278.5,149.4811 " fill="none" id="SelectInterviewModelUI-to-SelectInterviewModelController" style="stroke:#181818;stroke-width:1.0;stroke-dasharray:7.0,7.0;"/><polygon fill="#181818" points="1278.5,155.4811,1282.5,146.4811,1278.5,150.4811,1274.5,146.4811,1278.5,155.4811" style="stroke:#181818;stroke-width:1.0;"/></g><!--link Customer to Address--><g id="link_Customer_Address"><path codeLine="174" d="M707.56,1567.1311 C671.83,1593.3411 638.4679,1617.8222 604.2779,1642.9022 " fill="none" id="Customer-to-Address" style="stroke:#181818;stroke-width:1.0;"/><polygon fill="#181818" points="599.44,1646.4511,609.0628,1644.3531,603.4716,1643.4937,604.331,1637.9025,599.44,1646.4511" style="stroke:#181818;stroke-width:1.0;"/></g><!--link JobOpening to Address--><g id="link_JobOpening_Address"><path codeLine="175" d="M794.76,1093.1311 C679.82,1139.7711 528.72,1222.2811 457.5,1351.6211 C407.03,1443.2911 431.3107,1561.3296 457.8607,1640.8896 " fill="none" id="JobOpening-to-Address" style="stroke:#181818;stroke-width:1.0;"/><polygon fill="#181818" points="459.76,1646.5811,460.7054,1636.7777,458.1773,1641.8382,453.1167,1639.3101,459.76,1646.5811" style="stroke:#181818;stroke-width:1.0;"/></g><!--link JobOpening to Mode--><g id="link_JobOpening_Mode"><path codeLine="176" d="M1075.71,1290.7811 C1103.86,1343.3011 1127.595,1387.5831 1145.405,1420.8031 " fill="none" id="JobOpening-to-Mode" style="stroke:#181818;stroke-width:1.0;"/><polygon fill="#181818" points="1148.24,1426.0911,1147.5128,1416.2691,1145.8775,1421.6844,1140.4622,1420.0491,1148.24,1426.0911" style="stroke:#181818;stroke-width:1.0;"/></g><!--link JobOpening to ContractType--><g id="link_JobOpening_ContractType"><path codeLine="177" d="M1092.05,1184.6111 C1145.42,1236.2611 1205.49,1295.7811 1258.5,1351.6211 C1281.3,1375.6411 1301.9226,1398.9365 1321.2226,1421.3265 " fill="none" id="JobOpening-to-ContractType" style="stroke:#181818;stroke-width:1.0;"/><polygon fill="#181818" points="1325.14,1425.8711,1322.2936,1416.4425,1321.8755,1422.0839,1316.2341,1421.6658,1325.14,1425.8711" style="stroke:#181818;stroke-width:1.0;"/></g><!--link JobOpening to Customer--><g id="link_JobOpening_Customer"><path codeLine="178" d="M883.51,1290.7811 C876.75,1318.5811 871.6088,1339.7313 865.7288,1363.8913 " fill="none" id="JobOpening-to-Customer" style="stroke:#181818;stroke-width:1.0;"/><polygon fill="#181818" points="864.31,1369.7211,870.3248,1361.9223,865.4924,1364.8629,862.5517,1360.0305,864.31,1369.7211" style="stroke:#181818;stroke-width:1.0;"/></g><!--link JobOpening to JobFunction--><g id="link_JobOpening_JobFunction"><path codeLine="179" d="M794.66,1082.1811 C634.64,1128.0211 377.9,1216.1911 189.5,1351.6211 C157.66,1374.5111 132.8023,1404.6522 114.4923,1430.2322 " fill="none" id="JobOpening-to-JobFunction" style="stroke:#181818;stroke-width:1.0;"/><polygon fill="#181818" points="111,1435.1111,119.4911,1430.1209,113.9102,1431.0453,112.9858,1425.4645,111,1435.1111" style="stroke:#181818;stroke-width:1.0;"/></g><!--link JobOpening to JobReference--><g id="link_JobOpening_JobReference"><path codeLine="180" d="M794.95,1209.6811 C724.38,1288.3211 649.807,1371.4352 604.757,1421.6452 " fill="none" id="JobOpening-to-JobReference" style="stroke:#181818;stroke-width:1.0;"/><polygon fill="#181818" points="600.75,1426.1111,609.7377,1422.0835,604.0891,1422.3895,603.7832,1416.7409,600.75,1426.1111" style="stroke:#181818;stroke-width:1.0;"/></g><!--link JobOpening to Description--><g id="link_JobOpening_Description"><path codeLine="181" d="M1004.27,1290.6411 C1041.66,1442.3111 1084.2842,1615.2054 1102.0442,1687.2654 " fill="none" id="JobOpening-to-Description" style="stroke:#181818;stroke-width:1.0;"/><polygon fill="#181818" points="1103.48,1693.0911,1105.2101,1683.3954,1102.2835,1688.2364,1097.4425,1685.3098,1103.48,1693.0911" style="stroke:#181818;stroke-width:1.0;"/></g><!--link JobOpening to NumberOfVacancies--><g id="link_JobOpening_NumberOfVacancies"><path codeLine="182" d="M794.8,1096.9011 C677.75,1143.4211 514.98,1219.5211 395.5,1320.6211 C356.82,1353.3511 327.3341,1397.4148 308.3841,1429.7448 " fill="none" id="JobOpening-to-NumberOfVacancies" style="stroke:#181818;stroke-width:1.0;"/><polygon fill="#181818" points="305.35,1434.9211,313.352,1429.1793,307.8784,1430.6075,306.4502,1425.1339,305.35,1434.9211" style="stroke:#181818;stroke-width:1.0;"/></g><!--link JobOpening to Plugin--><g id="link_JobOpening_Plugin"><path codeLine="183" d="M1092.17,1130.6911 C1196.13,1191.6311 1337.91,1275.5811 1461.5,1351.6211 C1467.56,1355.3511 1468.6319,1356.0073 1474.8519,1359.8673 " fill="none" id="JobOpening-to-Plugin" style="stroke:#181818;stroke-width:1.0;"/><polygon fill="#181818" points="1479.95,1363.0311,1474.412,1354.8867,1475.7016,1360.3946,1470.1937,1361.6842,1479.95,1363.0311" style="stroke:#181818;stroke-width:1.0;"/></g><!--link SystemUser to EmailAddress--><g id="link_SystemUser_EmailAddress"><path codeLine="185" d="M717.6,1787.6311 C702.99,1822.8411 687.39,1860.4194 675.35,1889.4294 " fill="none" id="SystemUser-to-EmailAddress" style="stroke:#181818;stroke-width:1.0;"/><polygon fill="#181818" points="673.05,1894.9711,680.1944,1888.1919,674.9666,1890.353,672.8055,1885.1253,673.05,1894.9711" style="stroke:#181818;stroke-width:1.0;"/></g><!--link Customer to Code--><g id="link_Customer_Code"><path codeLine="186" d="M874.78,1567.1311 C888.99,1607.5411 902.7199,1646.6007 913.8299,1678.2007 " fill="none" id="Customer-to-Code" style="stroke:#181818;stroke-width:1.0;"/><polygon fill="#181818" points="915.82,1683.8611,916.6084,1674.0438,914.1616,1679.1441,909.0613,1676.6973,915.82,1683.8611" style="stroke:#181818;stroke-width:1.0;"/></g><!--link Customer to SystemUser--><g id="link_Customer_SystemUser"><path codeLine="187" d="M803.17,1567.1311 C790.51,1600.2011 778.8946,1630.5375 767.6846,1659.8275 " fill="none" id="Customer-to-SystemUser" style="stroke:#181818;stroke-width:1.0;"/><polygon fill="#181818" points="765.54,1665.4311,772.4927,1658.4554,767.3272,1660.7614,765.0212,1655.5959,765.54,1665.4311" style="stroke:#181818;stroke-width:1.0;"/></g><!--link PersistenceContext to RepositoryFactory--><g id="link_PersistenceContext_RepositoryFactory"><path codeLine="189" d="M1278.5,387.6711 C1278.5,405.3611 1278.5,421.8011 1278.5,442.5411 " fill="none" id="PersistenceContext-to-RepositoryFactory" style="stroke:#181818;stroke-width:1.0;"/><polygon fill="#181818" points="1278.5,448.5411,1282.5,439.5411,1278.5,443.5411,1274.5,439.5411,1278.5,448.5411" style="stroke:#181818;stroke-width:1.0;"/></g><!--link SystemUser to Name--><g id="link_SystemUser_Name"><path codeLine="190" d="M767.4,1787.6311 C777.86,1812.8211 787.7003,1836.5393 798.1703,1861.7693 " fill="none" id="SystemUser-to-Name" style="stroke:#181818;stroke-width:1.0;"/><polygon fill="#181818" points="800.47,1867.3111,800.7149,1857.4653,798.5536,1862.693,793.3259,1860.5316,800.47,1867.3111" style="stroke:#181818;stroke-width:1.0;"/></g><!--link Plugin to PluginType--><g id="link_Plugin_PluginType"><path codeLine="191" d="M1687.91,1585.6411 C1697.08,1609.5811 1704.3148,1628.4877 1712.6148,1650.1677 " fill="none" id="Plugin-to-PluginType" style="stroke:#181818;stroke-width:1.0;"/><polygon fill="#181818" points="1714.76,1655.7711,1715.2778,1645.9359,1712.9723,1651.1016,1707.8066,1648.7961,1714.76,1655.7711" style="stroke:#181818;stroke-width:1.0;"/></g><!--link Plugin to Description--><g id="link_Plugin_Description"><path codeLine="192" d="M1479.94,1576.6211 C1473.77,1579.7711 1467.62,1582.7811 1461.5,1585.6211 C1378.75,1624.0311 1349.96,1612.1211 1265.5,1646.6211 C1232.82,1659.9711 1202.9747,1674.8699 1174.5347,1690.1599 " fill="none" id="Plugin-to-Description" style="stroke:#181818;stroke-width:1.0;"/><polygon fill="#181818" points="1169.25,1693.0011,1179.0711,1692.2625,1173.6539,1690.6335,1175.2829,1685.2162,1169.25,1693.0011" style="stroke:#181818;stroke-width:1.0;"/></g><!--link Plugin to PluginIdentifier--><g id="link_Plugin_PluginIdentifier"><path codeLine="193" d="M1804.83,1585.6411 C1853.77,1620.8311 1899.529,1653.7278 1936.889,1680.5978 " fill="none" id="Plugin-to-PluginIdentifier" style="stroke:#181818;stroke-width:1.0;"/><polygon fill="#181818" points="1941.76,1684.1011,1936.789,1675.5988,1937.7008,1681.1817,1932.1179,1682.0935,1941.76,1684.1011" style="stroke:#181818;stroke-width:1.0;"/></g><!--link Plugin to PluginMainClassName--><g id="link_Plugin_PluginMainClassName"><path codeLine="194" d="M1519.33,1585.6411 C1481.66,1620.8311 1447.0735,1653.1342 1418.3235,1680.0042 " fill="none" id="Plugin-to-PluginMainClassName" style="stroke:#181818;stroke-width:1.0;"/><polygon fill="#181818" points="1413.94,1684.1011,1423.2466,1680.8781,1417.593,1680.687,1417.784,1675.0334,1413.94,1684.1011" style="stroke:#181818;stroke-width:1.0;"/></g><!--link Plugin to JarFileName--><g id="link_Plugin_JarFileName"><path codeLine="195" d="M1599.09,1585.6411 C1584.05,1624.9311 1570.564,1660.1372 1560.104,1687.4772 " fill="none" id="Plugin-to-JarFileName" style="stroke:#181818;stroke-width:1.0;"/><polygon fill="#181818" points="1557.96,1693.0811,1564.9119,1686.1046,1559.7467,1688.4112,1557.4401,1683.246,1557.96,1693.0811" style="stroke:#181818;stroke-width:1.0;"/></g><!--link SelectInterviewModelController to PersistenceContext--><g id="link_SelectInterviewModelController_PersistenceContext"><path codeLine="196" d="M1278.5,259.9711 C1278.5,280.0911 1278.5,296.5711 1278.5,314.4111 " fill="none" id="SelectInterviewModelController-to-PersistenceContext" style="stroke:#181818;stroke-width:1.0;stroke-dasharray:7.0,7.0;"/><polygon fill="#181818" points="1278.5,320.4111,1282.5,311.4111,1278.5,315.4111,1274.5,311.4111,1278.5,320.4111" style="stroke:#181818;stroke-width:1.0;"/></g><!--link SelectInterviewModelController to JobOpeningRepository--><g id="link_SelectInterviewModelController_JobOpeningRepository"><path codeLine="198" d="M1228.58,259.8911 C1212.7,278.0511 1196.03,299.2911 1183.5,320.6211 C1124.19,421.5911 1107.6681,556.2357 1102.8381,625.3757 " fill="none" id="SelectInterviewModelController-to-JobOpeningRepository" style="stroke:#181818;stroke-width:1.0;stroke-dasharray:7.0,7.0;"/><polygon fill="#181818" points="1102.42,631.3611,1107.0375,622.6617,1102.7684,626.3732,1099.0569,622.1042,1102.42,631.3611" style="stroke:#181818;stroke-width:1.0;"/></g><!--link SelectInterviewModelController to PluginRepository--><g id="link_SelectInterviewModelController_PluginRepository"><path codeLine="199" d="M1327.63,259.6811 C1343.41,277.9111 1360.02,299.2511 1372.5,320.6211 C1434.28,426.4211 1450.284,569.2642 1454.594,634.4242 " fill="none" id="SelectInterviewModelController-to-PluginRepository" style="stroke:#181818;stroke-width:1.0;stroke-dasharray:7.0,7.0;"/><polygon fill="#181818" points="1454.99,640.4111,1458.3873,631.1667,1454.66,635.422,1450.4047,631.6947,1454.99,640.4111" style="stroke:#181818;stroke-width:1.0;"/></g><!--link RepositoryFactory to JobOpeningRepository--><g id="link_RepositoryFactory_JobOpeningRepository"><path codeLine="200" d="M1212.73,570.6711 C1190.54,590.9211 1170.7217,609.0164 1150.4517,627.5164 " fill="none" id="RepositoryFactory-to-JobOpeningRepository" style="stroke:#181818;stroke-width:1.0;stroke-dasharray:7.0,7.0;"/><polygon fill="#181818" points="1146.02,631.5611,1155.3641,628.4485,1149.7131,628.1905,1149.9711,622.5395,1146.02,631.5611" style="stroke:#181818;stroke-width:1.0;"/></g><!--link RepositoryFactory to PluginRepository--><g id="link_RepositoryFactory_PluginRepository"><path codeLine="201" d="M1344.27,570.6711 C1370.12,594.2611 1394.3484,616.3862 1416.2384,636.3662 " fill="none" id="RepositoryFactory-to-PluginRepository" style="stroke:#181818;stroke-width:1.0;stroke-dasharray:7.0,7.0;"/><polygon fill="#181818" points="1420.67,640.4111,1416.7192,631.3894,1416.977,637.0403,1411.326,637.2981,1420.67,640.4111" style="stroke:#181818;stroke-width:1.0;"/></g><!--link JobOpeningRepository to JobOpening--><g id="link_JobOpeningRepository_JobOpening"><path codeLine="202" d="M1082.64,716.8611 C1073.64,737.9011 1064.2797,759.7846 1051.4597,789.7546 " fill="none" id="JobOpeningRepository-to-JobOpening" style="stroke:#181818;stroke-width:1.0;"/><polygon fill="#181818" points="1049.1,795.2711,1056.3173,788.5695,1051.0664,790.674,1048.9619,785.4232,1049.1,795.2711" style="stroke:#181818;stroke-width:1.0;"/><text fill="#000000" font-family="sans-serif" font-size="13" lengthAdjust="spacing" textLength="36" x="1068.5" y="761.6494">stores</text><text fill="#000000" font-family="sans-serif" font-size="13" lengthAdjust="spacing" textLength="5" x="1047.1608" y="784.6947">*</text></g><!--link PluginRepository to Plugin--><g id="link_PluginRepository_Plugin"><path codeLine="203" d="M1464.18,707.6611 C1489.69,815.8011 1571.1121,1160.8415 1614.7021,1345.5815 " fill="none" id="PluginRepository-to-Plugin" style="stroke:#181818;stroke-width:1.0;"/><polygon fill="#181818" points="1616.08,1351.4211,1617.9063,1341.743,1614.9318,1346.5547,1610.1201,1343.5802,1616.08,1351.4211" style="stroke:#181818;stroke-width:1.0;"/><text fill="#000000" font-family="sans-serif" font-size="13" lengthAdjust="spacing" textLength="36" x="1601.5" y="1048.6494">stores</text><text fill="#000000" font-family="sans-serif" font-size="13" lengthAdjust="spacing" textLength="5" x="1609.1632" y="1340.3993">*</text></g><!--SRC=[ZLRDRkCs4BxpAOYSxAeAckkY2B1h9u03E9lQoHxsnaYqbu4ikIILnZNwxXsIeZWabUoUfFdbpCUPuMYX6quldhPNVrnTqP9kUSChJLUjvl9Ly7_ekgjvGtUTf7VTC_rwvAreznTqqJ2bw5AmlMG7GYfBEkFHrfekkbRBhccuF9E2DGru6PoesPn-eYjGPiyD_pC8hgrYx2RMVMZwlMX1xzZh3V-x5v8VUAjdmGTz6Nz_fqwT7krdJlxxADwdrJaeECCr4wtDzvuT-9cKBNmWcgsMu9qKXhJX3Op4ceA5Etcr12N7NDKGhjW9BhtmyNJaezWGfAovggGuQj6r85a6ojj4WOt64PUKBqpUYeOFAdU18gGGDWnzik5daHKXCgHWOojGR4Q6WoicWaFsSNW52iyguG17914pmpyeXSi79RZ_3TznoTlAver8yD0Vdhdykll6AjPMWYlGk4zvriTjtrR31Tm5YfILAMjMwU7Q5eWavG4A2PYcdaZ9wbfoPKxuxFwCyU78sjDm9OjUwUvWAY6wyEY-9TyB1ISOQicqDMCDRsicZR2IlT2c0nvaLxd3DXcJbC9N-b2P_aec98C0xWS1Poue0h902BdRGnWL62ChZL0g34gMRN4g1fminoDL8AIS1uzLMe1HUnGfNCxM0rOehbVr36T2SPfpuo15pxgO0BL8e4EL_g4Cbws7p9NjCchxjCgpCZtxSZO34ixR0pgZDl9rJWVAHF-C4EGDv5rd1P4VEjmU-80xu5o7iyeAXWqYbNQrF8gx7Ye4Q_mhZfNhfe53obVMY1hilZlHR50neNpfkeOp1Awl5nFBIMb-U58MgEr8c4DhryBlTUlWOyrQja-jIT73nut_m2tsK67BeURVB-xOyMUbkaf0OdNgRapdvi144-3bXaJGX29nWt8dfDBtqRGiGPwmYb4DlsA5LvnysanMvn4wRm9PBtnJ1ml_s8xvX17kNYYV1iuEWBLiwoiIXFSsVYFMBYGpLQ9Pa31cSvn5c4VdRARxhB8nbgNsmAM2UMCwmhZaR_fiHiYnKq9t4dhK7MgdmOv1Essyx7GBZk5p9YzuBugeHybQnUo0OCtWd-gtEN7lh57tVvEghDVTuriIGNWiGonf48gzybbW9HxS7CFMEz7MZllbPC4A2yFbvkQlfzNcPdrp_xYTfolIWB_wqKdzWxKrAjUmWYH5IuNwPWR1p37eQ3otTRZrP5RN87o8d7wmkuLb2C8J8u6y-M4KD7r0GTtcExrhqilBwv-ipSJFC5gMr-FmGClE1spxiYQyw15EPVvvJVZuMSz5OHz8PBWF4r6-RIKAVW49OyEoer4G8MC7RSJ1OpflKQkIDM9wdfqnmr8KmhBO8IvED5D66tKcYvTX9CPhy4yAnDPGdX_v9RkfEV1h1oRjJp8et_UVgqwxd3Asw5pyTe7N_KyKRXqgWgGUHkLnuHqK_mS0]--></g></svg>