<?xml version="1.0" encoding="us-ascii" standalone="no"?><svg xmlns="http://www.w3.org/2000/svg" xmlns:xlink="http://www.w3.org/1999/xlink" contentStyleType="text/css" height="1403px" preserveAspectRatio="none" style="width:2010px;height:1403px;background:#FFFFFF;" version="1.1" viewBox="0 0 2010 1403" width="2010px" zoomAndPan="magnify"><defs/><g><rect fill="#FFFFFF" height="1217.3008" style="stroke:#181818;stroke-width:1.0;" width="10" x="86.5" y="93.6211"/><rect fill="#FFFFFF" height="534.6074" style="stroke:#181818;stroke-width:1.0;" width="10" x="530.5" y="134.2031"/><rect fill="#FFFFFF" height="344.2012" style="stroke:#181818;stroke-width:1.0;" width="10" x="530.5" y="726.3926"/><rect fill="#FFFFFF" height="173.7461" style="stroke:#181818;stroke-width:1.0;" width="10" x="530.5" y="1128.1758"/><rect fill="#FFFFFF" height="375.4922" style="stroke:#181818;stroke-width:1.0;" width="10" x="892.5" y="244.7363"/><rect fill="#FFFFFF" height="281.6191" style="stroke:#181818;stroke-width:1.0;" width="10" x="892.5" y="757.6836"/><rect fill="#FFFFFF" height="93.873" style="stroke:#181818;stroke-width:1.0;" width="10" x="892.5" y="1159.4668"/><rect fill="#FFFFFF" height="62.582" style="stroke:#181818;stroke-width:1.0;" width="10" x="1056.5" y="276.0273"/><rect fill="#FFFFFF" height="156.4551" style="stroke:#181818;stroke-width:1.0;" width="10" x="1342" y="369.9004"/><rect fill="#FFFFFF" height="156.4551" style="stroke:#181818;stroke-width:1.0;" width="10" x="1342" y="788.9746"/><rect fill="#FFFFFF" height="62.582" style="stroke:#181818;stroke-width:1.0;" width="10" x="1521" y="432.4824"/><rect fill="#FFFFFF" height="62.582" style="stroke:#181818;stroke-width:1.0;" width="10" x="1521" y="851.5566"/><rect fill="#FFFFFF" height="31.291" style="stroke:#181818;stroke-width:1.0;" width="10" x="1783" y="557.6465"/><rect fill="#FFFFFF" height="31.291" style="stroke:#181818;stroke-width:1.0;" width="10" x="1936.5" y="976.7207"/><line style="stroke:#181818;stroke-width:0.5;stroke-dasharray:5.0,5.0;" x1="91" x2="91" y1="83.6211" y2="1319.9219"/><line style="stroke:#181818;stroke-width:0.5;stroke-dasharray:5.0,5.0;" x1="535.5" x2="535.5" y1="83.6211" y2="1319.9219"/><line style="stroke:#181818;stroke-width:0.5;stroke-dasharray:5.0,5.0;" x1="897.5" x2="897.5" y1="191.8242" y2="1319.9219"/><line style="stroke:#181818;stroke-width:0.5;stroke-dasharray:5.0,5.0;" x1="1061" x2="1061" y1="83.6211" y2="1319.9219"/><line style="stroke:#181818;stroke-width:0.5;stroke-dasharray:5.0,5.0;" x1="1195" x2="1195" y1="83.6211" y2="1319.9219"/><line style="stroke:#181818;stroke-width:0.5;stroke-dasharray:5.0,5.0;" x1="1347" x2="1347" y1="83.6211" y2="1319.9219"/><line style="stroke:#181818;stroke-width:0.5;stroke-dasharray:5.0,5.0;" x1="1526" x2="1526" y1="83.6211" y2="1319.9219"/><line style="stroke:#181818;stroke-width:0.5;stroke-dasharray:5.0,5.0;" x1="1650" x2="1650" y1="83.6211" y2="1319.9219"/><line style="stroke:#181818;stroke-width:0.5;stroke-dasharray:5.0,5.0;" x1="1788" x2="1788" y1="83.6211" y2="1319.9219"/><line style="stroke:#181818;stroke-width:0.5;stroke-dasharray:5.0,5.0;" x1="1941" x2="1941" y1="83.6211" y2="1319.9219"/><text fill="#000000" font-family="sans-serif" font-size="14" lengthAdjust="spacing" textLength="117" x="30" y="80.1074">CustomerManager</text><ellipse cx="91.5" cy="13.5" fill="#E3E3E3" rx="8" ry="8" style="stroke:#181818;stroke-width:0.5;"/><path d="M91.5,21.5 L91.5,48.5 M78.5,29.5 L104.5,29.5 M91.5,48.5 L78.5,63.5 M91.5,48.5 L104.5,63.5 " fill="none" style="stroke:#181818;stroke-width:0.5;"/><text fill="#000000" font-family="sans-serif" font-size="14" lengthAdjust="spacing" textLength="117" x="30" y="1334.0293">CustomerManager</text><ellipse cx="91.5" cy="1346.043" fill="#E3E3E3" rx="8" ry="8" style="stroke:#181818;stroke-width:0.5;"/><path d="M91.5,1354.043 L91.5,1381.043 M78.5,1362.043 L104.5,1362.043 M91.5,1381.043 L78.5,1396.043 M91.5,1381.043 L104.5,1396.043 " fill="none" style="stroke:#181818;stroke-width:0.5;"/><rect fill="#E3E3E3" height="51.2422" rx="2.5" ry="2.5" style="stroke:#181818;stroke-width:0.5;" width="162" x="454.5" y="31.3789"/><text fill="#000000" font-family="sans-serif" font-size="14" font-style="italic" lengthAdjust="spacing" textLength="95" x="488" y="53.4863">&#171;presentation&#187;</text><text fill="#000000" font-family="sans-serif" font-size="14" lengthAdjust="spacing" textLength="148" x="461.5" y="72.1074">:SelectInterviewModelUI</text><rect fill="#E3E3E3" height="51.2422" rx="2.5" ry="2.5" style="stroke:#181818;stroke-width:0.5;" width="162" x="454.5" y="1318.9219"/><text fill="#000000" font-family="sans-serif" font-size="14" font-style="italic" lengthAdjust="spacing" textLength="95" x="488" y="1341.0293">&#171;presentation&#187;</text><text fill="#000000" font-family="sans-serif" font-size="14" lengthAdjust="spacing" textLength="148" x="461.5" y="1359.6504">:SelectInterviewModelUI</text><text fill="#000000" font-family="sans-serif" font-size="14" font-style="italic" lengthAdjust="spacing" textLength="84" x="852.5" y="1334.0293">&#171;application&#187;</text><text fill="#000000" font-family="sans-serif" font-size="14" lengthAdjust="spacing" textLength="198" x="795.5" y="1352.6504">:SelectInterviewModelController</text><ellipse cx="897.5" cy="1372.1641" fill="#E3E3E3" rx="12" ry="12" style="stroke:#181818;stroke-width:0.5;"/><polygon fill="#181818" points="893.5,1360.1641,899.5,1355.1641,897.5,1360.1641,899.5,1365.1641,893.5,1360.1641" style="stroke:#181818;stroke-width:1.0;"/><rect fill="#E3E3E3" height="51.2422" rx="2.5" ry="2.5" style="stroke:#181818;stroke-width:0.5;" width="101" x="1011" y="31.3789"/><text fill="#000000" font-family="sans-serif" font-size="14" font-style="italic" lengthAdjust="spacing" textLength="84" x="1019.5" y="53.4863">&#171;application&#187;</text><text fill="#000000" font-family="sans-serif" font-size="14" lengthAdjust="spacing" textLength="87" x="1018" y="72.1074">AuthzRegistry</text><rect fill="#E3E3E3" height="51.2422" rx="2.5" ry="2.5" style="stroke:#181818;stroke-width:0.5;" width="101" x="1011" y="1318.9219"/><text fill="#000000" font-family="sans-serif" font-size="14" font-style="italic" lengthAdjust="spacing" textLength="84" x="1019.5" y="1341.0293">&#171;application&#187;</text><text fill="#000000" font-family="sans-serif" font-size="14" lengthAdjust="spacing" textLength="87" x="1018" y="1359.6504">AuthzRegistry</text><rect fill="#E3E3E3" height="51.2422" rx="2.5" ry="2.5" style="stroke:#181818;stroke-width:0.5;" width="147" x="1122" y="31.3789"/><text fill="#000000" font-family="sans-serif" font-size="14" font-style="italic" lengthAdjust="spacing" textLength="84" x="1153.5" y="53.4863">&#171;application&#187;</text><text fill="#000000" font-family="sans-serif" font-size="14" lengthAdjust="spacing" textLength="133" x="1129" y="72.1074">:AuthorizationService</text><rect fill="#E3E3E3" height="51.2422" rx="2.5" ry="2.5" style="stroke:#181818;stroke-width:0.5;" width="147" x="1122" y="1318.9219"/><text fill="#000000" font-family="sans-serif" font-size="14" font-style="italic" lengthAdjust="spacing" textLength="84" x="1153.5" y="1341.0293">&#171;application&#187;</text><text fill="#000000" font-family="sans-serif" font-size="14" lengthAdjust="spacing" textLength="133" x="1129" y="1359.6504">:AuthorizationService</text><rect fill="#E3E3E3" height="51.2422" rx="2.5" ry="2.5" style="stroke:#181818;stroke-width:0.5;" width="136" x="1279" y="31.3789"/><text fill="#000000" font-family="sans-serif" font-size="14" font-style="italic" lengthAdjust="spacing" textLength="89" x="1302.5" y="53.4863">&#171;persistence&#187;</text><text fill="#000000" font-family="sans-serif" font-size="14" lengthAdjust="spacing" textLength="122" x="1286" y="72.1074">PersistenceContext</text><rect fill="#E3E3E3" height="51.2422" rx="2.5" ry="2.5" style="stroke:#181818;stroke-width:0.5;" width="136" x="1279" y="1318.9219"/><text fill="#000000" font-family="sans-serif" font-size="14" font-style="italic" lengthAdjust="spacing" textLength="89" x="1302.5" y="1341.0293">&#171;persistence&#187;</text><text fill="#000000" font-family="sans-serif" font-size="14" lengthAdjust="spacing" textLength="122" x="1286" y="1359.6504">PersistenceContext</text><rect fill="#E3E3E3" height="51.2422" rx="2.5" ry="2.5" style="stroke:#181818;stroke-width:0.5;" width="134" x="1459" y="31.3789"/><text fill="#000000" font-family="sans-serif" font-size="14" font-style="italic" lengthAdjust="spacing" textLength="89" x="1481.5" y="53.4863">&#171;persistence&#187;</text><text fill="#000000" font-family="sans-serif" font-size="14" lengthAdjust="spacing" textLength="120" x="1466" y="72.1074">:RepositoryFactory</text><rect fill="#E3E3E3" height="51.2422" rx="2.5" ry="2.5" style="stroke:#181818;stroke-width:0.5;" width="134" x="1459" y="1318.9219"/><text fill="#000000" font-family="sans-serif" font-size="14" font-style="italic" lengthAdjust="spacing" textLength="89" x="1481.5" y="1341.0293">&#171;persistence&#187;</text><text fill="#000000" font-family="sans-serif" font-size="14" lengthAdjust="spacing" textLength="120" x="1466" y="1359.6504">:RepositoryFactory</text><rect fill="#E3E3E3" height="51.2422" rx="2.5" ry="2.5" style="stroke:#181818;stroke-width:0.5;" width="94" x="1603" y="31.3789"/><text fill="#000000" font-family="sans-serif" font-size="14" font-style="italic" lengthAdjust="spacing" textLength="62" x="1619" y="53.4863">&#171;domain&#187;</text><text fill="#000000" font-family="sans-serif" font-size="14" lengthAdjust="spacing" textLength="80" x="1610" y="72.1074">:JobOpening</text><rect fill="#E3E3E3" height="51.2422" rx="2.5" ry="2.5" style="stroke:#181818;stroke-width:0.5;" width="94" x="1603" y="1318.9219"/><text fill="#000000" font-family="sans-serif" font-size="14" font-style="italic" lengthAdjust="spacing" textLength="62" x="1619" y="1341.0293">&#171;domain&#187;</text><text fill="#000000" font-family="sans-serif" font-size="14" lengthAdjust="spacing" textLength="80" x="1610" y="1359.6504">:JobOpening</text><rect fill="#E3E3E3" height="51.2422" rx="2.5" ry="2.5" style="stroke:#181818;stroke-width:0.5;" width="162" x="1707" y="31.3789"/><text fill="#000000" font-family="sans-serif" font-size="14" font-style="italic" lengthAdjust="spacing" textLength="79" x="1748.5" y="53.4863">&#171;repository&#187;</text><text fill="#000000" font-family="sans-serif" font-size="14" lengthAdjust="spacing" textLength="148" x="1714" y="72.1074">:JobOpeningRepository</text><rect fill="#E3E3E3" height="51.2422" rx="2.5" ry="2.5" style="stroke:#181818;stroke-width:0.5;" width="162" x="1707" y="1318.9219"/><text fill="#000000" font-family="sans-serif" font-size="14" font-style="italic" lengthAdjust="spacing" textLength="79" x="1748.5" y="1341.0293">&#171;repository&#187;</text><text fill="#000000" font-family="sans-serif" font-size="14" lengthAdjust="spacing" textLength="148" x="1714" y="1359.6504">:JobOpeningRepository</text><rect fill="#E3E3E3" height="51.2422" rx="2.5" ry="2.5" style="stroke:#181818;stroke-width:0.5;" width="125" x="1879" y="31.3789"/><text fill="#000000" font-family="sans-serif" font-size="14" font-style="italic" lengthAdjust="spacing" textLength="79" x="1902" y="53.4863">&#171;repository&#187;</text><text fill="#000000" font-family="sans-serif" font-size="14" lengthAdjust="spacing" textLength="111" x="1886" y="72.1074">:PluginRepository</text><rect fill="#E3E3E3" height="51.2422" rx="2.5" ry="2.5" style="stroke:#181818;stroke-width:0.5;" width="125" x="1879" y="1318.9219"/><text fill="#000000" font-family="sans-serif" font-size="14" font-style="italic" lengthAdjust="spacing" textLength="79" x="1902" y="1341.0293">&#171;repository&#187;</text><text fill="#000000" font-family="sans-serif" font-size="14" lengthAdjust="spacing" textLength="111" x="1886" y="1359.6504">:PluginRepository</text><rect fill="#FFFFFF" height="1217.3008" style="stroke:#181818;stroke-width:1.0;" width="10" x="86.5" y="93.6211"/><rect fill="#FFFFFF" height="534.6074" style="stroke:#181818;stroke-width:1.0;" width="10" x="530.5" y="134.2031"/><rect fill="#FFFFFF" height="344.2012" style="stroke:#181818;stroke-width:1.0;" width="10" x="530.5" y="726.3926"/><rect fill="#FFFFFF" height="173.7461" style="stroke:#181818;stroke-width:1.0;" width="10" x="530.5" y="1128.1758"/><rect fill="#FFFFFF" height="375.4922" style="stroke:#181818;stroke-width:1.0;" width="10" x="892.5" y="244.7363"/><rect fill="#FFFFFF" height="281.6191" style="stroke:#181818;stroke-width:1.0;" width="10" x="892.5" y="757.6836"/><rect fill="#FFFFFF" height="93.873" style="stroke:#181818;stroke-width:1.0;" width="10" x="892.5" y="1159.4668"/><rect fill="#FFFFFF" height="62.582" style="stroke:#181818;stroke-width:1.0;" width="10" x="1056.5" y="276.0273"/><rect fill="#FFFFFF" height="156.4551" style="stroke:#181818;stroke-width:1.0;" width="10" x="1342" y="369.9004"/><rect fill="#FFFFFF" height="156.4551" style="stroke:#181818;stroke-width:1.0;" width="10" x="1342" y="788.9746"/><rect fill="#FFFFFF" height="62.582" style="stroke:#181818;stroke-width:1.0;" width="10" x="1521" y="432.4824"/><rect fill="#FFFFFF" height="62.582" style="stroke:#181818;stroke-width:1.0;" width="10" x="1521" y="851.5566"/><rect fill="#FFFFFF" height="31.291" style="stroke:#181818;stroke-width:1.0;" width="10" x="1783" y="557.6465"/><rect fill="#FFFFFF" height="31.291" style="stroke:#181818;stroke-width:1.0;" width="10" x="1936.5" y="976.7207"/><polygon fill="#181818" points="518.5,130.2031,528.5,134.2031,518.5,138.2031,522.5,134.2031" style="stroke:#181818;stroke-width:1.0;"/><line style="stroke:#181818;stroke-width:1.0;" x1="96.5" x2="524.5" y1="134.2031" y2="134.2031"/><text fill="#000000" font-family="sans-serif" font-size="13" font-weight="bold" lengthAdjust="spacing" textLength="7" x="103.5" y="120.2949">1</text><text fill="#000000" font-family="sans-serif" font-size="13" lengthAdjust="spacing" textLength="159" x="114.5" y="111.6494">Asks to select the Interview</text><text fill="#000000" font-family="sans-serif" font-size="13" lengthAdjust="spacing" textLength="137" x="118.5" y="128.9404">Model for a job Opening</text><polygon fill="#181818" points="783.5,161.4941,793.5,165.4941,783.5,169.4941,787.5,165.4941" style="stroke:#181818;stroke-width:1.0;"/><line style="stroke:#181818;stroke-width:1.0;" x1="540.5" x2="789.5" y1="165.4941" y2="165.4941"/><text fill="#000000" font-family="sans-serif" font-size="13" font-weight="bold" lengthAdjust="spacing" textLength="7" x="547.5" y="160.2314">2</text><text fill="#000000" font-family="sans-serif" font-size="13" lengthAdjust="spacing" textLength="36" x="558.5" y="160.2314">create</text><text fill="#000000" font-family="sans-serif" font-size="14" font-style="italic" lengthAdjust="spacing" textLength="84" x="852.5" y="189.3105">&#171;application&#187;</text><text fill="#000000" font-family="sans-serif" font-size="14" lengthAdjust="spacing" textLength="198" x="795.5" y="207.9316">:SelectInterviewModelController</text><ellipse cx="897.5" cy="158.2031" fill="#E3E3E3" rx="12" ry="12" style="stroke:#181818;stroke-width:0.5;"/><polygon fill="#181818" points="893.5,146.2031,899.5,141.2031,897.5,146.2031,899.5,151.2031,893.5,146.2031" style="stroke:#181818;stroke-width:1.0;"/><polygon fill="#181818" points="880.5,240.7363,890.5,244.7363,880.5,248.7363,884.5,244.7363" style="stroke:#181818;stroke-width:1.0;"/><line style="stroke:#181818;stroke-width:1.0;" x1="540.5" x2="886.5" y1="244.7363" y2="244.7363"/><text fill="#000000" font-family="sans-serif" font-size="13" font-weight="bold" lengthAdjust="spacing" textLength="7" x="547.5" y="239.4736">3</text><text fill="#000000" font-family="sans-serif" font-size="13" lengthAdjust="spacing" textLength="96" x="558.5" y="239.4736">allJobOpenings()</text><polygon fill="#181818" points="1044.5,272.0273,1054.5,276.0273,1044.5,280.0273,1048.5,276.0273" style="stroke:#181818;stroke-width:1.0;"/><line style="stroke:#181818;stroke-width:1.0;" x1="902.5" x2="1050.5" y1="276.0273" y2="276.0273"/><text fill="#000000" font-family="sans-serif" font-size="13" font-weight="bold" lengthAdjust="spacing" textLength="7" x="909.5" y="270.7646">4</text><text fill="#000000" font-family="sans-serif" font-size="13" lengthAdjust="spacing" textLength="124" x="920.5" y="270.7646">authorizationService()</text><polygon fill="#181818" points="1183.5,303.3184,1193.5,307.3184,1183.5,311.3184,1187.5,307.3184" style="stroke:#181818;stroke-width:1.0;"/><line style="stroke:#181818;stroke-width:1.0;" x1="1066.5" x2="1189.5" y1="307.3184" y2="307.3184"/><text fill="#000000" font-family="sans-serif" font-size="13" font-weight="bold" lengthAdjust="spacing" textLength="7" x="1073.5" y="302.0557">5</text><text fill="#000000" font-family="sans-serif" font-size="13" lengthAdjust="spacing" textLength="44" x="1084.5" y="302.0557">create()</text><polygon fill="#181818" points="913.5,334.6094,903.5,338.6094,913.5,342.6094,909.5,338.6094" style="stroke:#181818;stroke-width:1.0;"/><line style="stroke:#181818;stroke-width:1.0;stroke-dasharray:2.0,2.0;" x1="907.5" x2="1060.5" y1="338.6094" y2="338.6094"/><text fill="#000000" font-family="sans-serif" font-size="13" font-weight="bold" lengthAdjust="spacing" textLength="7" x="919.5" y="333.3467">6</text><text fill="#000000" font-family="sans-serif" font-size="13" lengthAdjust="spacing" textLength="32" x="930.5" y="333.3467">authz</text><polygon fill="#181818" points="1330,365.9004,1340,369.9004,1330,373.9004,1334,369.9004" style="stroke:#181818;stroke-width:1.0;"/><line style="stroke:#181818;stroke-width:1.0;" x1="902.5" x2="1336" y1="369.9004" y2="369.9004"/><text fill="#000000" font-family="sans-serif" font-size="13" font-weight="bold" lengthAdjust="spacing" textLength="7" x="909.5" y="364.6377">7</text><text fill="#000000" font-family="sans-serif" font-size="13" lengthAdjust="spacing" textLength="75" x="920.5" y="364.6377">repositories()</text><polygon fill="#181818" points="1514,397.1914,1524,401.1914,1514,405.1914,1518,401.1914" style="stroke:#181818;stroke-width:1.0;"/><line style="stroke:#181818;stroke-width:1.0;" x1="1352" x2="1520" y1="401.1914" y2="401.1914"/><text fill="#000000" font-family="sans-serif" font-size="13" font-weight="bold" lengthAdjust="spacing" textLength="7" x="1359" y="395.9287">8</text><text fill="#000000" font-family="sans-serif" font-size="13" lengthAdjust="spacing" textLength="44" x="1370" y="395.9287">create()</text><polygon fill="#181818" points="1509,428.4824,1519,432.4824,1509,436.4824,1513,432.4824" style="stroke:#181818;stroke-width:1.0;"/><line style="stroke:#181818;stroke-width:1.0;" x1="1352" x2="1515" y1="432.4824" y2="432.4824"/><text fill="#000000" font-family="sans-serif" font-size="13" font-weight="bold" lengthAdjust="spacing" textLength="7" x="1359" y="427.2197">9</text><text fill="#000000" font-family="sans-serif" font-size="13" lengthAdjust="spacing" textLength="80" x="1370" y="427.2197">jobOpenings()</text><polygon fill="#181818" points="1776,459.7734,1786,463.7734,1776,467.7734,1780,463.7734" style="stroke:#181818;stroke-width:1.0;"/><line style="stroke:#181818;stroke-width:1.0;" x1="1531" x2="1782" y1="463.7734" y2="463.7734"/><text fill="#000000" font-family="sans-serif" font-size="13" font-weight="bold" lengthAdjust="spacing" textLength="14" x="1538" y="458.5107">10</text><text fill="#000000" font-family="sans-serif" font-size="13" lengthAdjust="spacing" textLength="44" x="1556" y="458.5107">create()</text><polygon fill="#181818" points="1363,491.0645,1353,495.0645,1363,499.0645,1359,495.0645" style="stroke:#181818;stroke-width:1.0;"/><line style="stroke:#181818;stroke-width:1.0;stroke-dasharray:2.0,2.0;" x1="1357" x2="1525" y1="495.0645" y2="495.0645"/><text fill="#000000" font-family="sans-serif" font-size="13" font-weight="bold" lengthAdjust="spacing" textLength="14" x="1369" y="489.8018">11</text><text fill="#000000" font-family="sans-serif" font-size="13" lengthAdjust="spacing" textLength="127" x="1387" y="489.8018">jobOpeningRepository</text><polygon fill="#181818" points="913.5,522.3555,903.5,526.3555,913.5,530.3555,909.5,526.3555" style="stroke:#181818;stroke-width:1.0;"/><line style="stroke:#181818;stroke-width:1.0;stroke-dasharray:2.0,2.0;" x1="907.5" x2="1346" y1="526.3555" y2="526.3555"/><text fill="#000000" font-family="sans-serif" font-size="13" font-weight="bold" lengthAdjust="spacing" textLength="14" x="919.5" y="521.0928">12</text><text fill="#000000" font-family="sans-serif" font-size="13" lengthAdjust="spacing" textLength="127" x="937.5" y="521.0928">jobOpeningRepository</text><polygon fill="#181818" points="1771,553.6465,1781,557.6465,1771,561.6465,1775,557.6465" style="stroke:#181818;stroke-width:1.0;"/><line style="stroke:#181818;stroke-width:1.0;" x1="902.5" x2="1777" y1="557.6465" y2="557.6465"/><text fill="#000000" font-family="sans-serif" font-size="13" font-weight="bold" lengthAdjust="spacing" textLength="14" x="909.5" y="552.3838">13</text><text fill="#000000" font-family="sans-serif" font-size="13" lengthAdjust="spacing" textLength="80" x="927.5" y="552.3838">jobOpenings()</text><polygon fill="#181818" points="913.5,584.9375,903.5,588.9375,913.5,592.9375,909.5,588.9375" style="stroke:#181818;stroke-width:1.0;"/><line style="stroke:#181818;stroke-width:1.0;stroke-dasharray:2.0,2.0;" x1="907.5" x2="1787" y1="588.9375" y2="588.9375"/><text fill="#000000" font-family="sans-serif" font-size="13" font-weight="bold" lengthAdjust="spacing" textLength="14" x="919.5" y="583.6748">14</text><text fill="#000000" font-family="sans-serif" font-size="13" lengthAdjust="spacing" textLength="96" x="937.5" y="583.6748">allJobOpenings()</text><polygon fill="#181818" points="551.5,616.2285,541.5,620.2285,551.5,624.2285,547.5,620.2285" style="stroke:#181818;stroke-width:1.0;"/><line style="stroke:#181818;stroke-width:1.0;stroke-dasharray:2.0,2.0;" x1="545.5" x2="896.5" y1="620.2285" y2="620.2285"/><text fill="#000000" font-family="sans-serif" font-size="13" font-weight="bold" lengthAdjust="spacing" textLength="14" x="557.5" y="614.9658">15</text><text fill="#000000" font-family="sans-serif" font-size="13" lengthAdjust="spacing" textLength="72" x="575.5" y="614.9658">jobOpenings</text><polygon fill="#181818" points="107.5,664.8105,97.5,668.8105,107.5,672.8105,103.5,668.8105" style="stroke:#181818;stroke-width:1.0;"/><line style="stroke:#181818;stroke-width:1.0;stroke-dasharray:2.0,2.0;" x1="101.5" x2="534.5" y1="668.8105" y2="668.8105"/><text fill="#000000" font-family="sans-serif" font-size="13" font-weight="bold" lengthAdjust="spacing" textLength="14" x="113.5" y="654.9023">16</text><text fill="#000000" font-family="sans-serif" font-size="13" lengthAdjust="spacing" textLength="383" x="131.5" y="646.2568">Shows the list of Job Openings and aks to select one to associate</text><text fill="#000000" font-family="sans-serif" font-size="13" lengthAdjust="spacing" textLength="274" x="135.5" y="663.5479">the Interview Model selected to that job opening</text><polygon fill="#181818" points="518.5,722.3926,528.5,726.3926,518.5,730.3926,522.5,726.3926" style="stroke:#181818;stroke-width:1.0;"/><line style="stroke:#181818;stroke-width:1.0;" x1="96.5" x2="524.5" y1="726.3926" y2="726.3926"/><text fill="#000000" font-family="sans-serif" font-size="13" font-weight="bold" lengthAdjust="spacing" textLength="14" x="103.5" y="721.1299">17</text><text fill="#000000" font-family="sans-serif" font-size="13" lengthAdjust="spacing" textLength="139" x="121.5" y="721.1299">Selects the job Opening</text><polygon fill="#181818" points="880.5,753.6836,890.5,757.6836,880.5,761.6836,884.5,757.6836" style="stroke:#181818;stroke-width:1.0;"/><line style="stroke:#181818;stroke-width:1.0;" x1="540.5" x2="886.5" y1="757.6836" y2="757.6836"/><text fill="#000000" font-family="sans-serif" font-size="13" font-weight="bold" lengthAdjust="spacing" textLength="14" x="547.5" y="752.4209">18</text><text fill="#000000" font-family="sans-serif" font-size="13" lengthAdjust="spacing" textLength="106" x="565.5" y="752.4209">allInterviewPlugin()</text><polygon fill="#181818" points="1330,784.9746,1340,788.9746,1330,792.9746,1334,788.9746" style="stroke:#181818;stroke-width:1.0;"/><line style="stroke:#181818;stroke-width:1.0;" x1="902.5" x2="1336" y1="788.9746" y2="788.9746"/><text fill="#000000" font-family="sans-serif" font-size="13" font-weight="bold" lengthAdjust="spacing" textLength="14" x="909.5" y="783.7119">19</text><text fill="#000000" font-family="sans-serif" font-size="13" lengthAdjust="spacing" textLength="75" x="927.5" y="783.7119">repositories()</text><polygon fill="#181818" points="1514,816.2656,1524,820.2656,1514,824.2656,1518,820.2656" style="stroke:#181818;stroke-width:1.0;"/><line style="stroke:#181818;stroke-width:1.0;" x1="1352" x2="1520" y1="820.2656" y2="820.2656"/><text fill="#000000" font-family="sans-serif" font-size="13" font-weight="bold" lengthAdjust="spacing" textLength="14" x="1359" y="815.0029">20</text><text fill="#000000" font-family="sans-serif" font-size="13" lengthAdjust="spacing" textLength="44" x="1377" y="815.0029">create()</text><polygon fill="#181818" points="1509,847.5566,1519,851.5566,1509,855.5566,1513,851.5566" style="stroke:#181818;stroke-width:1.0;"/><line style="stroke:#181818;stroke-width:1.0;" x1="1352" x2="1515" y1="851.5566" y2="851.5566"/><text fill="#000000" font-family="sans-serif" font-size="13" font-weight="bold" lengthAdjust="spacing" textLength="14" x="1359" y="846.2939">21</text><text fill="#000000" font-family="sans-serif" font-size="13" lengthAdjust="spacing" textLength="49" x="1377" y="846.2939">plugins()</text><polygon fill="#181818" points="1929.5,878.8477,1939.5,882.8477,1929.5,886.8477,1933.5,882.8477" style="stroke:#181818;stroke-width:1.0;"/><line style="stroke:#181818;stroke-width:1.0;" x1="1531" x2="1935.5" y1="882.8477" y2="882.8477"/><text fill="#000000" font-family="sans-serif" font-size="13" font-weight="bold" lengthAdjust="spacing" textLength="14" x="1538" y="877.585">22</text><text fill="#000000" font-family="sans-serif" font-size="13" lengthAdjust="spacing" textLength="44" x="1556" y="877.585">create()</text><polygon fill="#181818" points="1363,910.1387,1353,914.1387,1363,918.1387,1359,914.1387" style="stroke:#181818;stroke-width:1.0;"/><line style="stroke:#181818;stroke-width:1.0;stroke-dasharray:2.0,2.0;" x1="1357" x2="1525" y1="914.1387" y2="914.1387"/><text fill="#000000" font-family="sans-serif" font-size="13" font-weight="bold" lengthAdjust="spacing" textLength="14" x="1369" y="908.876">23</text><text fill="#000000" font-family="sans-serif" font-size="13" lengthAdjust="spacing" textLength="96" x="1387" y="908.876">pluginRepository</text><polygon fill="#181818" points="913.5,941.4297,903.5,945.4297,913.5,949.4297,909.5,945.4297" style="stroke:#181818;stroke-width:1.0;"/><line style="stroke:#181818;stroke-width:1.0;stroke-dasharray:2.0,2.0;" x1="907.5" x2="1346" y1="945.4297" y2="945.4297"/><text fill="#000000" font-family="sans-serif" font-size="13" font-weight="bold" lengthAdjust="spacing" textLength="14" x="919.5" y="940.167">24</text><text fill="#000000" font-family="sans-serif" font-size="13" lengthAdjust="spacing" textLength="96" x="937.5" y="940.167">pluginRepository</text><polygon fill="#181818" points="1924.5,972.7207,1934.5,976.7207,1924.5,980.7207,1928.5,976.7207" style="stroke:#181818;stroke-width:1.0;"/><line style="stroke:#181818;stroke-width:1.0;" x1="902.5" x2="1930.5" y1="976.7207" y2="976.7207"/><text fill="#000000" font-family="sans-serif" font-size="13" font-weight="bold" lengthAdjust="spacing" textLength="14" x="909.5" y="971.458">25</text><text fill="#000000" font-family="sans-serif" font-size="13" lengthAdjust="spacing" textLength="234" x="927.5" y="971.458">findPluginByType(PluginType.InterviewS)</text><polygon fill="#181818" points="913.5,1004.0117,903.5,1008.0117,913.5,1012.0117,909.5,1008.0117" style="stroke:#181818;stroke-width:1.0;"/><line style="stroke:#181818;stroke-width:1.0;" x1="907.5" x2="1940.5" y1="1008.0117" y2="1008.0117"/><text fill="#000000" font-family="sans-serif" font-size="13" font-weight="bold" lengthAdjust="spacing" textLength="14" x="919.5" y="1002.749">26</text><text fill="#000000" font-family="sans-serif" font-size="13" lengthAdjust="spacing" textLength="41" x="937.5" y="1002.749">plugins</text><polygon fill="#181818" points="551.5,1035.3027,541.5,1039.3027,551.5,1043.3027,547.5,1039.3027" style="stroke:#181818;stroke-width:1.0;"/><line style="stroke:#181818;stroke-width:1.0;stroke-dasharray:2.0,2.0;" x1="545.5" x2="896.5" y1="1039.3027" y2="1039.3027"/><text fill="#000000" font-family="sans-serif" font-size="13" font-weight="bold" lengthAdjust="spacing" textLength="14" x="557.5" y="1034.04">27</text><text fill="#000000" font-family="sans-serif" font-size="13" lengthAdjust="spacing" textLength="41" x="575.5" y="1034.04">plugins</text><polygon fill="#181818" points="107.5,1066.5938,97.5,1070.5938,107.5,1074.5938,103.5,1070.5938" style="stroke:#181818;stroke-width:1.0;"/><line style="stroke:#181818;stroke-width:1.0;stroke-dasharray:2.0,2.0;" x1="101.5" x2="534.5" y1="1070.5938" y2="1070.5938"/><text fill="#000000" font-family="sans-serif" font-size="13" font-weight="bold" lengthAdjust="spacing" textLength="14" x="113.5" y="1065.3311">28</text><text fill="#000000" font-family="sans-serif" font-size="13" lengthAdjust="spacing" textLength="392" x="131.5" y="1065.3311">Shows list of the registered Interview Models and asks to select one</text><polygon fill="#181818" points="518.5,1124.1758,528.5,1128.1758,518.5,1132.1758,522.5,1128.1758" style="stroke:#181818;stroke-width:1.0;"/><line style="stroke:#181818;stroke-width:1.0;" x1="96.5" x2="524.5" y1="1128.1758" y2="1128.1758"/><text fill="#000000" font-family="sans-serif" font-size="13" font-weight="bold" lengthAdjust="spacing" textLength="14" x="103.5" y="1122.9131">29</text><text fill="#000000" font-family="sans-serif" font-size="13" lengthAdjust="spacing" textLength="203" x="121.5" y="1122.9131">Selects the wanted Interview Model</text><polygon fill="#181818" points="880.5,1155.4668,890.5,1159.4668,880.5,1163.4668,884.5,1159.4668" style="stroke:#181818;stroke-width:1.0;"/><line style="stroke:#181818;stroke-width:1.0;" x1="540.5" x2="886.5" y1="1159.4668" y2="1159.4668"/><text fill="#000000" font-family="sans-serif" font-size="13" font-weight="bold" lengthAdjust="spacing" textLength="14" x="547.5" y="1154.2041">30</text><text fill="#000000" font-family="sans-serif" font-size="13" lengthAdjust="spacing" textLength="315" x="565.5" y="1154.2041">putInterviewModel(jobOpeningSelected,pluginSelected)</text><polygon fill="#181818" points="1638,1186.7578,1648,1190.7578,1638,1194.7578,1642,1190.7578" style="stroke:#181818;stroke-width:1.0;"/><line style="stroke:#181818;stroke-width:1.0;" x1="902.5" x2="1644" y1="1190.7578" y2="1190.7578"/><text fill="#000000" font-family="sans-serif" font-size="13" font-weight="bold" lengthAdjust="spacing" textLength="14" x="909.5" y="1185.4951">31</text><text fill="#000000" font-family="sans-serif" font-size="13" lengthAdjust="spacing" textLength="152" x="927.5" y="1185.4951">putInterviewsPlugin(plugin)</text><polygon fill="#181818" points="1776,1218.0488,1786,1222.0488,1776,1226.0488,1780,1222.0488" style="stroke:#181818;stroke-width:1.0;"/><line style="stroke:#181818;stroke-width:1.0;" x1="902.5" x2="1782" y1="1222.0488" y2="1222.0488"/><text fill="#000000" font-family="sans-serif" font-size="13" font-weight="bold" lengthAdjust="spacing" textLength="14" x="909.5" y="1216.7861">32</text><text fill="#000000" font-family="sans-serif" font-size="13" lengthAdjust="spacing" textLength="99" x="927.5" y="1216.7861">save(jobOpening)</text><polygon fill="#181818" points="551.5,1249.3398,541.5,1253.3398,551.5,1257.3398,547.5,1253.3398" style="stroke:#181818;stroke-width:1.0;"/><line style="stroke:#181818;stroke-width:1.0;stroke-dasharray:2.0,2.0;" x1="545.5" x2="896.5" y1="1253.3398" y2="1253.3398"/><text fill="#000000" font-family="sans-serif" font-size="13" font-weight="bold" lengthAdjust="spacing" textLength="14" x="557.5" y="1248.0771">33</text><text fill="#000000" font-family="sans-serif" font-size="13" lengthAdjust="spacing" textLength="4" x="575.5" y="1248.0771">&#160;</text><polygon fill="#181818" points="107.5,1297.9219,97.5,1301.9219,107.5,1305.9219,103.5,1301.9219" style="stroke:#181818;stroke-width:1.0;"/><line style="stroke:#181818;stroke-width:1.0;stroke-dasharray:2.0,2.0;" x1="101.5" x2="534.5" y1="1301.9219" y2="1301.9219"/><text fill="#000000" font-family="sans-serif" font-size="13" font-weight="bold" lengthAdjust="spacing" textLength="14" x="113.5" y="1288.0137">34</text><text fill="#000000" font-family="sans-serif" font-size="13" lengthAdjust="spacing" textLength="224" x="131.5" y="1279.3682">shows operation success and displays</text><text fill="#000000" font-family="sans-serif" font-size="13" lengthAdjust="spacing" textLength="293" x="135.5" y="1296.6592">the plugin selected and the job opening associated</text><!--SRC=[pLTDRzim3BthLsYzh2sMTkUWCv0529PYHGsdkUsYsaoYrf4yIMwN_lfHah-TEC6A0XDGL3RvI8haevNF6sCoFRw-pb8cJBvDhsAvlTRmEmSHmoZXRAtObX3zp4N6S4ktKiXue-GMg54vD2GPYv_P6XPcbm9L41icrcbJGMzO8b-vMDCLIpKGmd8ZHRvz18Nxs4X5fxasQ5hTCO6c56MQJgo0e0N3OvvXbFHil80KxS-50VN2uVLE9f0kvsTMVJcdDpUP0Wt2CCEb208IIs6KJ0y0frwQWd86fW_HJpJ1iYpbSMcXvNwIcyrR16kkZTevp2IYmv2nnKZ5tvnqORt7uA7BXn-BON08IgClMn4RA_mn3XbExKbhMSzd19dK7BEtcxdi-bYZsH7OhNoypq1WdPp-xJtg9tBBk1XGhNqLe0XHgdhPGuPflkQYWmfx8DSN_8KPAFg0K5nkIqU1BVQOJlIpfaPIxMfBpGPeLU1VWheQqnK267sIZxG8s1cogtAmd1ExxBlb78tRHhYyH0Un0fHxIIr20KlJEWFw_8Aqx5ab1Db_em0x1FNtD855rMUC2FwXjckAqZEga2hSxaBrKL36Onlpe6O2JJ-LHHzVE1rNYUTGdcLWLRR2wJ7LS3eAiEiQnpaLyDJABZavfcXsJ3MQZG9iql496QuG53DjMTUCg-xWO_X6-e-7XnceglfEPrYVIjlNsfwxazfU1b6dUedx8fe3BT_nsCGwZwDWEMzv91s4fqe5GeuX1np9ntInaQ_QiJh5YKNbYjxMBDQKYOIorW2G0kmJqrh67AtZ36ZDX68YU6r8hAxPCEE6Woo6GoCsEnPSQb8qdLdcqa_VwDSgsFOmyXyO7sztslHCTcP95Q4VZllAuXBrVtCsSy5_15_3VwLhrldOV1XLt-78qhHzg7OKBL5HVwJnYel4jylttSCkWtF_OBTNLJyjsjMhVKQjzs5KihoeuS5u4DYFnxDyBtIOxWs-btGlgMvffDnD2nHIjSFXWlswIt_IT-a-xWCi7YJoAzvP-jx9lWj4VQAAsLdUkN2UrvDmKGoXBpvjvMEFRTrBHNivH-WGhsfjTxgO9DxwnG0GMqcp5sY4rkTONMLoSbjtIzrUpS9hLtWSmCfTZwZEunYqBt72DVv0sUbYbFlZr1FSgfG3jvZWzVXFoB4OYulVNm00]--></g></svg>