<?xml version="1.0" encoding="us-ascii" standalone="no"?><svg xmlns="http://www.w3.org/2000/svg" xmlns:xlink="http://www.w3.org/1999/xlink" contentStyleType="text/css" height="1163px" preserveAspectRatio="none" style="width:2553px;height:1163px;background:#FFFFFF;" version="1.1" viewBox="0 0 2553 1163" width="2553px" zoomAndPan="magnify"><defs/><g><!--cluster Plugin Aggregate--><g id="cluster_Plugin Aggregate"><path d="M8.5,462.0137 L130.5,462.0137 A3.75,3.75 0 0 1 133,464.5137 L140,486.6348 L845.5,486.6348 A2.5,2.5 0 0 1 848,489.1348 L848,792.5137 A2.5,2.5 0 0 1 845.5,795.0137 L8.5,795.0137 A2.5,2.5 0 0 1 6,792.5137 L6,464.5137 A2.5,2.5 0 0 1 8.5,462.0137 " fill="none" style="stroke:#000000;stroke-width:1.5;"/><line style="stroke:#000000;stroke-width:1.5;" x1="6" x2="140" y1="486.6348" y2="486.6348"/><text fill="#000000" font-family="sans-serif" font-size="14" font-weight="bold" lengthAdjust="spacing" textLength="121" x="10" y="479.1211">Plugin Aggregate</text></g><!--cluster Customer Aggregate--><g id="cluster_Customer Aggregate"><path d="M1891.5,6.0137 L2037.5,6.0137 A3.75,3.75 0 0 1 2040,8.5137 L2047,30.6348 L2450.5,30.6348 A2.5,2.5 0 0 1 2453,33.1348 L2453,596.0137 A2.5,2.5 0 0 1 2450.5,598.5137 L1891.5,598.5137 A2.5,2.5 0 0 1 1889,596.0137 L1889,8.5137 A2.5,2.5 0 0 1 1891.5,6.0137 " fill="none" style="stroke:#000000;stroke-width:1.5;"/><line style="stroke:#000000;stroke-width:1.5;" x1="1889" x2="2047" y1="30.6348" y2="30.6348"/><text fill="#000000" font-family="sans-serif" font-size="14" font-weight="bold" lengthAdjust="spacing" textLength="145" x="1893" y="23.1211">Customer Aggregate</text></g><!--cluster Job Opening Aggregate--><g id="cluster_Job Opening Aggregate"><path d="M874.5,425.0137 L1042.5,425.0137 A3.75,3.75 0 0 1 1045,427.5137 L1052,449.6348 L1862.5,449.6348 A2.5,2.5 0 0 1 1865,452.1348 L1865,1153.5137 A2.5,2.5 0 0 1 1862.5,1156.0137 L874.5,1156.0137 A2.5,2.5 0 0 1 872,1153.5137 L872,427.5137 A2.5,2.5 0 0 1 874.5,425.0137 " fill="none" style="stroke:#000000;stroke-width:1.5;"/><line style="stroke:#000000;stroke-width:1.5;" x1="872" x2="1052" y1="449.6348" y2="449.6348"/><text fill="#000000" font-family="sans-serif" font-size="14" font-weight="bold" lengthAdjust="spacing" textLength="167" x="876" y="442.1211">Job Opening Aggregate</text></g><!--class Plugin--><g id="elem_Plugin"><rect codeLine="4" fill="#F1F1F1" height="81.8633" id="Plugin" rx="2.5" ry="2.5" style="stroke:#181818;stroke-width:0.5;" width="82" x="478" y="499.0137"/><ellipse cx="493" cy="531.9453" fill="#ADD1B2" rx="11" ry="11" style="stroke:#181818;stroke-width:1.0;"/><path d="M495.7656,527.8203 Q495.9219,527.6016 496.1094,527.4922 Q496.2969,527.3828 496.5156,527.3828 Q496.8906,527.3828 497.125,527.6484 Q497.3594,527.8984 497.3594,528.5078 L497.3594,529.9609 Q497.3594,530.5703 497.125,530.8359 Q496.8906,531.1016 496.5156,531.1016 Q496.1719,531.1016 495.9688,530.8984 Q495.7656,530.7109 495.6563,530.1953 Q495.6094,529.8359 495.4219,529.6484 Q495.0938,529.2734 494.4844,529.0547 Q493.875,528.8359 493.25,528.8359 Q492.4844,528.8359 491.8438,529.1641 Q491.2188,529.4922 490.7188,530.2422 Q490.2344,530.9922 490.2344,532.0234 L490.2344,533.1172 Q490.2344,534.3516 491.125,535.1797 Q492.0156,535.9922 493.6094,535.9922 Q494.5469,535.9922 495.2031,535.7422 Q495.5938,535.5859 496.0156,535.1484 Q496.2813,534.8828 496.4219,534.8047 Q496.5781,534.7266 496.7813,534.7266 Q497.1094,534.7266 497.3594,534.9922 Q497.625,535.2422 497.625,535.5859 Q497.625,535.9297 497.2813,536.3359 Q496.7813,536.9141 495.9844,537.2422 Q494.9063,537.6953 493.6094,537.6953 Q492.0938,537.6953 490.8906,537.0703 Q489.9063,536.5703 489.2188,535.5078 Q488.5313,534.4297 488.5313,533.1484 L488.5313,531.9922 Q488.5313,530.6641 489.1406,529.5234 Q489.7656,528.3672 490.8594,527.7578 Q491.9531,527.1328 493.1875,527.1328 Q493.9219,527.1328 494.5625,527.3047 Q495.2188,527.4609 495.7656,527.8203 Z " fill="#000000"/><text fill="#000000" font-family="sans-serif" font-size="14" lengthAdjust="spacing" textLength="41" x="511.5" y="519.1211">&#171;root&#187;</text><text fill="#000000" font-family="sans-serif" font-size="14" lengthAdjust="spacing" textLength="50" x="507" y="537.7422">&#171;entity&#187;</text><text fill="#000000" font-family="sans-serif" font-size="14" lengthAdjust="spacing" textLength="39" x="512.5" y="556.3633">Plugin</text><line style="stroke:#181818;stroke-width:0.5;" x1="479" x2="559" y1="564.877" y2="564.877"/><line style="stroke:#181818;stroke-width:0.5;" x1="479" x2="559" y1="572.877" y2="572.877"/></g><!--class PlugID--><g id="elem_PlugID"><rect codeLine="6" fill="#F1F1F1" height="81.8633" id="PlugID" rx="2.5" ry="2.5" style="stroke:#181818;stroke-width:0.5;" width="125" x="22.5" y="697.0137"/><ellipse cx="37.5" cy="729.9453" fill="#ADD1B2" rx="11" ry="11" style="stroke:#181818;stroke-width:1.0;"/><path d="M40.2656,725.8203 Q40.4219,725.6016 40.6094,725.4922 Q40.7969,725.3828 41.0156,725.3828 Q41.3906,725.3828 41.625,725.6484 Q41.8594,725.8984 41.8594,726.5078 L41.8594,727.9609 Q41.8594,728.5703 41.625,728.8359 Q41.3906,729.1016 41.0156,729.1016 Q40.6719,729.1016 40.4688,728.8984 Q40.2656,728.7109 40.1563,728.1953 Q40.1094,727.8359 39.9219,727.6484 Q39.5938,727.2734 38.9844,727.0547 Q38.375,726.8359 37.75,726.8359 Q36.9844,726.8359 36.3438,727.1641 Q35.7188,727.4922 35.2188,728.2422 Q34.7344,728.9922 34.7344,730.0234 L34.7344,731.1172 Q34.7344,732.3516 35.625,733.1797 Q36.5156,733.9922 38.1094,733.9922 Q39.0469,733.9922 39.7031,733.7422 Q40.0938,733.5859 40.5156,733.1484 Q40.7813,732.8828 40.9219,732.8047 Q41.0781,732.7266 41.2813,732.7266 Q41.6094,732.7266 41.8594,732.9922 Q42.125,733.2422 42.125,733.5859 Q42.125,733.9297 41.7813,734.3359 Q41.2813,734.9141 40.4844,735.2422 Q39.4063,735.6953 38.1094,735.6953 Q36.5938,735.6953 35.3906,735.0703 Q34.4063,734.5703 33.7188,733.5078 Q33.0313,732.4297 33.0313,731.1484 L33.0313,729.9922 Q33.0313,728.6641 33.6406,727.5234 Q34.2656,726.3672 35.3594,725.7578 Q36.4531,725.1328 37.6875,725.1328 Q38.4219,725.1328 39.0625,725.3047 Q39.7188,725.4609 40.2656,725.8203 Z " fill="#000000"/><text fill="#000000" font-family="sans-serif" font-size="14" lengthAdjust="spacing" textLength="92" x="52" y="717.1211">&#171;value object&#187;</text><text fill="#000000" font-family="sans-serif" font-size="14" lengthAdjust="spacing" textLength="70" x="63" y="735.7422">&#171;identifier&#187;</text><text fill="#000000" font-family="sans-serif" font-size="14" lengthAdjust="spacing" textLength="93" x="51.5" y="754.3633">PluginIdentifier</text><line style="stroke:#181818;stroke-width:0.5;" x1="23.5" x2="146.5" y1="762.877" y2="762.877"/><line style="stroke:#181818;stroke-width:0.5;" x1="23.5" x2="146.5" y1="770.877" y2="770.877"/></g><!--class PlugType--><g id="elem_PlugType"><rect codeLine="8" fill="#F1F1F1" height="63.2422" id="PlugType" rx="2.5" ry="2.5" style="stroke:#181818;stroke-width:0.5;" width="124" x="183" y="706.5137"/><ellipse cx="198" cy="730.1348" fill="#ADD1B2" rx="11" ry="11" style="stroke:#181818;stroke-width:1.0;"/><path d="M200.7656,726.0098 Q200.9219,725.791 201.1094,725.6816 Q201.2969,725.5723 201.5156,725.5723 Q201.8906,725.5723 202.125,725.8379 Q202.3594,726.0879 202.3594,726.6973 L202.3594,728.1504 Q202.3594,728.7598 202.125,729.0254 Q201.8906,729.291 201.5156,729.291 Q201.1719,729.291 200.9688,729.0879 Q200.7656,728.9004 200.6563,728.3848 Q200.6094,728.0254 200.4219,727.8379 Q200.0938,727.4629 199.4844,727.2441 Q198.875,727.0254 198.25,727.0254 Q197.4844,727.0254 196.8438,727.3535 Q196.2188,727.6816 195.7188,728.4316 Q195.2344,729.1816 195.2344,730.2129 L195.2344,731.3066 Q195.2344,732.541 196.125,733.3691 Q197.0156,734.1816 198.6094,734.1816 Q199.5469,734.1816 200.2031,733.9316 Q200.5938,733.7754 201.0156,733.3379 Q201.2813,733.0723 201.4219,732.9941 Q201.5781,732.916 201.7813,732.916 Q202.1094,732.916 202.3594,733.1816 Q202.625,733.4316 202.625,733.7754 Q202.625,734.1191 202.2813,734.5254 Q201.7813,735.1035 200.9844,735.4316 Q199.9063,735.8848 198.6094,735.8848 Q197.0938,735.8848 195.8906,735.2598 Q194.9063,734.7598 194.2188,733.6973 Q193.5313,732.6191 193.5313,731.3379 L193.5313,730.1816 Q193.5313,728.8535 194.1406,727.7129 Q194.7656,726.5566 195.8594,725.9473 Q196.9531,725.3223 198.1875,725.3223 Q198.9219,725.3223 199.5625,725.4941 Q200.2188,725.6504 200.7656,726.0098 Z " fill="#000000"/><text fill="#000000" font-family="sans-serif" font-size="14" lengthAdjust="spacing" textLength="92" x="212" y="726.6211">&#171;value object&#187;</text><text fill="#000000" font-family="sans-serif" font-size="14" lengthAdjust="spacing" textLength="71" x="222.5" y="745.2422">PluginType</text><line style="stroke:#181818;stroke-width:0.5;" x1="184" x2="306" y1="753.7559" y2="753.7559"/><line style="stroke:#181818;stroke-width:0.5;" x1="184" x2="306" y1="761.7559" y2="761.7559"/></g><!--class PlugClass--><g id="elem_PlugClass"><rect codeLine="10" fill="#F1F1F1" height="63.2422" id="PlugClass" rx="2.5" ry="2.5" style="stroke:#181818;stroke-width:0.5;" width="172" x="342" y="706.5137"/><ellipse cx="357" cy="730.1348" fill="#ADD1B2" rx="11" ry="11" style="stroke:#181818;stroke-width:1.0;"/><path d="M359.7656,726.0098 Q359.9219,725.791 360.1094,725.6816 Q360.2969,725.5723 360.5156,725.5723 Q360.8906,725.5723 361.125,725.8379 Q361.3594,726.0879 361.3594,726.6973 L361.3594,728.1504 Q361.3594,728.7598 361.125,729.0254 Q360.8906,729.291 360.5156,729.291 Q360.1719,729.291 359.9688,729.0879 Q359.7656,728.9004 359.6563,728.3848 Q359.6094,728.0254 359.4219,727.8379 Q359.0938,727.4629 358.4844,727.2441 Q357.875,727.0254 357.25,727.0254 Q356.4844,727.0254 355.8438,727.3535 Q355.2188,727.6816 354.7188,728.4316 Q354.2344,729.1816 354.2344,730.2129 L354.2344,731.3066 Q354.2344,732.541 355.125,733.3691 Q356.0156,734.1816 357.6094,734.1816 Q358.5469,734.1816 359.2031,733.9316 Q359.5938,733.7754 360.0156,733.3379 Q360.2813,733.0723 360.4219,732.9941 Q360.5781,732.916 360.7813,732.916 Q361.1094,732.916 361.3594,733.1816 Q361.625,733.4316 361.625,733.7754 Q361.625,734.1191 361.2813,734.5254 Q360.7813,735.1035 359.9844,735.4316 Q358.9063,735.8848 357.6094,735.8848 Q356.0938,735.8848 354.8906,735.2598 Q353.9063,734.7598 353.2188,733.6973 Q352.5313,732.6191 352.5313,731.3379 L352.5313,730.1816 Q352.5313,728.8535 353.1406,727.7129 Q353.7656,726.5566 354.8594,725.9473 Q355.9531,725.3223 357.1875,725.3223 Q357.9219,725.3223 358.5625,725.4941 Q359.2188,725.6504 359.7656,726.0098 Z " fill="#000000"/><text fill="#000000" font-family="sans-serif" font-size="14" lengthAdjust="spacing" textLength="92" x="395" y="726.6211">&#171;value object&#187;</text><text fill="#000000" font-family="sans-serif" font-size="14" lengthAdjust="spacing" textLength="140" x="371" y="745.2422">PluginMainClassName</text><line style="stroke:#181818;stroke-width:0.5;" x1="343" x2="513" y1="753.7559" y2="753.7559"/><line style="stroke:#181818;stroke-width:0.5;" x1="343" x2="513" y1="761.7559" y2="761.7559"/></g><!--class JarFile--><g id="elem_JarFile"><rect codeLine="12" fill="#F1F1F1" height="63.2422" id="JarFile" rx="2.5" ry="2.5" style="stroke:#181818;stroke-width:0.5;" width="124" x="549" y="706.5137"/><ellipse cx="564" cy="730.1348" fill="#ADD1B2" rx="11" ry="11" style="stroke:#181818;stroke-width:1.0;"/><path d="M566.7656,726.0098 Q566.9219,725.791 567.1094,725.6816 Q567.2969,725.5723 567.5156,725.5723 Q567.8906,725.5723 568.125,725.8379 Q568.3594,726.0879 568.3594,726.6973 L568.3594,728.1504 Q568.3594,728.7598 568.125,729.0254 Q567.8906,729.291 567.5156,729.291 Q567.1719,729.291 566.9688,729.0879 Q566.7656,728.9004 566.6563,728.3848 Q566.6094,728.0254 566.4219,727.8379 Q566.0938,727.4629 565.4844,727.2441 Q564.875,727.0254 564.25,727.0254 Q563.4844,727.0254 562.8438,727.3535 Q562.2188,727.6816 561.7188,728.4316 Q561.2344,729.1816 561.2344,730.2129 L561.2344,731.3066 Q561.2344,732.541 562.125,733.3691 Q563.0156,734.1816 564.6094,734.1816 Q565.5469,734.1816 566.2031,733.9316 Q566.5938,733.7754 567.0156,733.3379 Q567.2813,733.0723 567.4219,732.9941 Q567.5781,732.916 567.7813,732.916 Q568.1094,732.916 568.3594,733.1816 Q568.625,733.4316 568.625,733.7754 Q568.625,734.1191 568.2813,734.5254 Q567.7813,735.1035 566.9844,735.4316 Q565.9063,735.8848 564.6094,735.8848 Q563.0938,735.8848 561.8906,735.2598 Q560.9063,734.7598 560.2188,733.6973 Q559.5313,732.6191 559.5313,731.3379 L559.5313,730.1816 Q559.5313,728.8535 560.1406,727.7129 Q560.7656,726.5566 561.8594,725.9473 Q562.9531,725.3223 564.1875,725.3223 Q564.9219,725.3223 565.5625,725.4941 Q566.2188,725.6504 566.7656,726.0098 Z " fill="#000000"/><text fill="#000000" font-family="sans-serif" font-size="14" lengthAdjust="spacing" textLength="92" x="578" y="726.6211">&#171;value object&#187;</text><text fill="#000000" font-family="sans-serif" font-size="14" lengthAdjust="spacing" textLength="78" x="585" y="745.2422">JarFileName</text><line style="stroke:#181818;stroke-width:0.5;" x1="550" x2="672" y1="753.7559" y2="753.7559"/><line style="stroke:#181818;stroke-width:0.5;" x1="550" x2="672" y1="761.7559" y2="761.7559"/></g><!--class PlugDesc--><g id="elem_PlugDesc"><rect codeLine="14" fill="#F1F1F1" height="63.2422" id="PlugDesc" rx="2.5" ry="2.5" style="stroke:#181818;stroke-width:0.5;" width="124" x="708" y="706.5137"/><ellipse cx="723" cy="730.1348" fill="#ADD1B2" rx="11" ry="11" style="stroke:#181818;stroke-width:1.0;"/><path d="M725.7656,726.0098 Q725.9219,725.791 726.1094,725.6816 Q726.2969,725.5723 726.5156,725.5723 Q726.8906,725.5723 727.125,725.8379 Q727.3594,726.0879 727.3594,726.6973 L727.3594,728.1504 Q727.3594,728.7598 727.125,729.0254 Q726.8906,729.291 726.5156,729.291 Q726.1719,729.291 725.9688,729.0879 Q725.7656,728.9004 725.6563,728.3848 Q725.6094,728.0254 725.4219,727.8379 Q725.0938,727.4629 724.4844,727.2441 Q723.875,727.0254 723.25,727.0254 Q722.4844,727.0254 721.8438,727.3535 Q721.2188,727.6816 720.7188,728.4316 Q720.2344,729.1816 720.2344,730.2129 L720.2344,731.3066 Q720.2344,732.541 721.125,733.3691 Q722.0156,734.1816 723.6094,734.1816 Q724.5469,734.1816 725.2031,733.9316 Q725.5938,733.7754 726.0156,733.3379 Q726.2813,733.0723 726.4219,732.9941 Q726.5781,732.916 726.7813,732.916 Q727.1094,732.916 727.3594,733.1816 Q727.625,733.4316 727.625,733.7754 Q727.625,734.1191 727.2813,734.5254 Q726.7813,735.1035 725.9844,735.4316 Q724.9063,735.8848 723.6094,735.8848 Q722.0938,735.8848 720.8906,735.2598 Q719.9063,734.7598 719.2188,733.6973 Q718.5313,732.6191 718.5313,731.3379 L718.5313,730.1816 Q718.5313,728.8535 719.1406,727.7129 Q719.7656,726.5566 720.8594,725.9473 Q721.9531,725.3223 723.1875,725.3223 Q723.9219,725.3223 724.5625,725.4941 Q725.2188,725.6504 725.7656,726.0098 Z " fill="#000000"/><text fill="#000000" font-family="sans-serif" font-size="14" lengthAdjust="spacing" textLength="92" x="737" y="726.6211">&#171;value object&#187;</text><text fill="#000000" font-family="sans-serif" font-size="14" lengthAdjust="spacing" textLength="71" x="747.5" y="745.2422">Description</text><line style="stroke:#181818;stroke-width:0.5;" x1="709" x2="831" y1="753.7559" y2="753.7559"/><line style="stroke:#181818;stroke-width:0.5;" x1="709" x2="831" y1="761.7559" y2="761.7559"/></g><!--class Customer--><g id="elem_Customer"><rect codeLine="19" fill="#F1F1F1" height="81.8633" id="Customer" rx="2.5" ry="2.5" style="stroke:#181818;stroke-width:0.5;" width="93" x="2169.5" y="278.0137"/><ellipse cx="2184.5" cy="310.9453" fill="#ADD1B2" rx="11" ry="11" style="stroke:#181818;stroke-width:1.0;"/><path d="M2187.2656,306.8203 Q2187.4219,306.6016 2187.6094,306.4922 Q2187.7969,306.3828 2188.0156,306.3828 Q2188.3906,306.3828 2188.625,306.6484 Q2188.8594,306.8984 2188.8594,307.5078 L2188.8594,308.9609 Q2188.8594,309.5703 2188.625,309.8359 Q2188.3906,310.1016 2188.0156,310.1016 Q2187.6719,310.1016 2187.4688,309.8984 Q2187.2656,309.7109 2187.1563,309.1953 Q2187.1094,308.8359 2186.9219,308.6484 Q2186.5938,308.2734 2185.9844,308.0547 Q2185.375,307.8359 2184.75,307.8359 Q2183.9844,307.8359 2183.3438,308.1641 Q2182.7188,308.4922 2182.2188,309.2422 Q2181.7344,309.9922 2181.7344,311.0234 L2181.7344,312.1172 Q2181.7344,313.3516 2182.625,314.1797 Q2183.5156,314.9922 2185.1094,314.9922 Q2186.0469,314.9922 2186.7031,314.7422 Q2187.0938,314.5859 2187.5156,314.1484 Q2187.7813,313.8828 2187.9219,313.8047 Q2188.0781,313.7266 2188.2813,313.7266 Q2188.6094,313.7266 2188.8594,313.9922 Q2189.125,314.2422 2189.125,314.5859 Q2189.125,314.9297 2188.7813,315.3359 Q2188.2813,315.9141 2187.4844,316.2422 Q2186.4063,316.6953 2185.1094,316.6953 Q2183.5938,316.6953 2182.3906,316.0703 Q2181.4063,315.5703 2180.7188,314.5078 Q2180.0313,313.4297 2180.0313,312.1484 L2180.0313,310.9922 Q2180.0313,309.6641 2180.6406,308.5234 Q2181.2656,307.3672 2182.3594,306.7578 Q2183.4531,306.1328 2184.6875,306.1328 Q2185.4219,306.1328 2186.0625,306.3047 Q2186.7188,306.4609 2187.2656,306.8203 Z " fill="#000000"/><text fill="#000000" font-family="sans-serif" font-size="14" lengthAdjust="spacing" textLength="50" x="2204" y="298.1211">&#171;entity&#187;</text><text fill="#000000" font-family="sans-serif" font-size="14" lengthAdjust="spacing" textLength="41" x="2208.5" y="316.7422">&#171;root&#187;</text><text fill="#000000" font-family="sans-serif" font-size="14" lengthAdjust="spacing" textLength="61" x="2198.5" y="335.3633">Customer</text><line style="stroke:#181818;stroke-width:0.5;" x1="2170.5" x2="2261.5" y1="343.877" y2="343.877"/><line style="stroke:#181818;stroke-width:0.5;" x1="2170.5" x2="2261.5" y1="351.877" y2="351.877"/></g><!--class SystemUser--><g id="elem_SystemUser"><rect codeLine="23" fill="#F1F1F1" height="48" id="SystemUser" rx="2.5" ry="2.5" style="stroke:#181818;stroke-width:0.5;" width="107" x="1905.5" y="516.0137"/><ellipse cx="1920.5" cy="532.0137" fill="#ADD1B2" rx="11" ry="11" style="stroke:#181818;stroke-width:1.0;"/><path d="M1923.2656,527.8887 Q1923.4219,527.6699 1923.6094,527.5605 Q1923.7969,527.4512 1924.0156,527.4512 Q1924.3906,527.4512 1924.625,527.7168 Q1924.8594,527.9668 1924.8594,528.5762 L1924.8594,530.0293 Q1924.8594,530.6387 1924.625,530.9043 Q1924.3906,531.1699 1924.0156,531.1699 Q1923.6719,531.1699 1923.4688,530.9668 Q1923.2656,530.7793 1923.1563,530.2637 Q1923.1094,529.9043 1922.9219,529.7168 Q1922.5938,529.3418 1921.9844,529.123 Q1921.375,528.9043 1920.75,528.9043 Q1919.9844,528.9043 1919.3438,529.2324 Q1918.7188,529.5605 1918.2188,530.3105 Q1917.7344,531.0605 1917.7344,532.0918 L1917.7344,533.1855 Q1917.7344,534.4199 1918.625,535.248 Q1919.5156,536.0605 1921.1094,536.0605 Q1922.0469,536.0605 1922.7031,535.8105 Q1923.0938,535.6543 1923.5156,535.2168 Q1923.7813,534.9512 1923.9219,534.873 Q1924.0781,534.7949 1924.2813,534.7949 Q1924.6094,534.7949 1924.8594,535.0605 Q1925.125,535.3105 1925.125,535.6543 Q1925.125,535.998 1924.7813,536.4043 Q1924.2813,536.9824 1923.4844,537.3105 Q1922.4063,537.7637 1921.1094,537.7637 Q1919.5938,537.7637 1918.3906,537.1387 Q1917.4063,536.6387 1916.7188,535.5762 Q1916.0313,534.498 1916.0313,533.2168 L1916.0313,532.0605 Q1916.0313,530.7324 1916.6406,529.5918 Q1917.2656,528.4355 1918.3594,527.8262 Q1919.4531,527.2012 1920.6875,527.2012 Q1921.4219,527.2012 1922.0625,527.373 Q1922.7188,527.5293 1923.2656,527.8887 Z " fill="#000000"/><text fill="#000000" font-family="sans-serif" font-size="14" lengthAdjust="spacing" textLength="75" x="1934.5" y="537.8105">SystemUser</text><line style="stroke:#181818;stroke-width:0.5;" x1="1906.5" x2="2011.5" y1="548.0137" y2="548.0137"/><line style="stroke:#181818;stroke-width:0.5;" x1="1906.5" x2="2011.5" y1="556.0137" y2="556.0137"/></g><!--class Name1--><g id="elem_Name1"><rect codeLine="26" fill="#F1F1F1" height="85.2422" id="Name1" rx="2.5" ry="2.5" style="stroke:#181818;stroke-width:0.5;" width="71" x="2047.5" y="497.5137"/><ellipse cx="2063.85" cy="513.5137" fill="#ADD1B2" rx="11" ry="11" style="stroke:#181818;stroke-width:1.0;"/><path d="M2066.6156,509.3887 Q2066.7719,509.1699 2066.9594,509.0605 Q2067.1469,508.9512 2067.3656,508.9512 Q2067.7406,508.9512 2067.975,509.2168 Q2068.2094,509.4668 2068.2094,510.0762 L2068.2094,511.5293 Q2068.2094,512.1387 2067.975,512.4043 Q2067.7406,512.6699 2067.3656,512.6699 Q2067.0219,512.6699 2066.8188,512.4668 Q2066.6156,512.2793 2066.5063,511.7637 Q2066.4594,511.4043 2066.2719,511.2168 Q2065.9438,510.8418 2065.3344,510.623 Q2064.725,510.4043 2064.1,510.4043 Q2063.3344,510.4043 2062.6938,510.7324 Q2062.0688,511.0605 2061.5688,511.8105 Q2061.0844,512.5605 2061.0844,513.5918 L2061.0844,514.6855 Q2061.0844,515.9199 2061.975,516.748 Q2062.8656,517.5605 2064.4594,517.5605 Q2065.3969,517.5605 2066.0531,517.3105 Q2066.4438,517.1543 2066.8656,516.7168 Q2067.1313,516.4512 2067.2719,516.373 Q2067.4281,516.2949 2067.6313,516.2949 Q2067.9594,516.2949 2068.2094,516.5605 Q2068.475,516.8105 2068.475,517.1543 Q2068.475,517.498 2068.1313,517.9043 Q2067.6313,518.4824 2066.8344,518.8105 Q2065.7563,519.2637 2064.4594,519.2637 Q2062.9438,519.2637 2061.7406,518.6387 Q2060.7563,518.1387 2060.0688,517.0762 Q2059.3813,515.998 2059.3813,514.7168 L2059.3813,513.5605 Q2059.3813,512.2324 2059.9906,511.0918 Q2060.6156,509.9355 2061.7094,509.3262 Q2062.8031,508.7012 2064.0375,508.7012 Q2064.7719,508.7012 2065.4125,508.873 Q2066.0688,509.0293 2066.6156,509.3887 Z " fill="#000000"/><text fill="#000000" font-family="sans-serif" font-size="14" lengthAdjust="spacing" textLength="36" x="2078.15" y="519.3105">Name</text><line style="stroke:#181818;stroke-width:0.5;" x1="2048.5" x2="2117.5" y1="529.5137" y2="529.5137"/><text fill="#000000" font-family="sans-serif" font-size="14" lengthAdjust="spacing" textLength="59" x="2053.5" y="548.6211">firstName</text><text fill="#000000" font-family="sans-serif" font-size="14" lengthAdjust="spacing" textLength="58" x="2053.5" y="567.2422">lastName</text><line style="stroke:#181818;stroke-width:0.5;" x1="2048.5" x2="2117.5" y1="574.7559" y2="574.7559"/></g><!--class EMail1--><g id="elem_EMail1"><rect codeLine="30" fill="#F1F1F1" height="63.2422" id="EMail1" rx="2.5" ry="2.5" style="stroke:#181818;stroke-width:0.5;" width="124" x="2154" y="508.5137"/><ellipse cx="2169" cy="532.1348" fill="#ADD1B2" rx="11" ry="11" style="stroke:#181818;stroke-width:1.0;"/><path d="M2171.7656,528.0098 Q2171.9219,527.791 2172.1094,527.6816 Q2172.2969,527.5723 2172.5156,527.5723 Q2172.8906,527.5723 2173.125,527.8379 Q2173.3594,528.0879 2173.3594,528.6973 L2173.3594,530.1504 Q2173.3594,530.7598 2173.125,531.0254 Q2172.8906,531.291 2172.5156,531.291 Q2172.1719,531.291 2171.9688,531.0879 Q2171.7656,530.9004 2171.6563,530.3848 Q2171.6094,530.0254 2171.4219,529.8379 Q2171.0938,529.4629 2170.4844,529.2441 Q2169.875,529.0254 2169.25,529.0254 Q2168.4844,529.0254 2167.8438,529.3535 Q2167.2188,529.6816 2166.7188,530.4316 Q2166.2344,531.1816 2166.2344,532.2129 L2166.2344,533.3066 Q2166.2344,534.541 2167.125,535.3691 Q2168.0156,536.1816 2169.6094,536.1816 Q2170.5469,536.1816 2171.2031,535.9316 Q2171.5938,535.7754 2172.0156,535.3379 Q2172.2813,535.0723 2172.4219,534.9941 Q2172.5781,534.916 2172.7813,534.916 Q2173.1094,534.916 2173.3594,535.1816 Q2173.625,535.4316 2173.625,535.7754 Q2173.625,536.1191 2173.2813,536.5254 Q2172.7813,537.1035 2171.9844,537.4316 Q2170.9063,537.8848 2169.6094,537.8848 Q2168.0938,537.8848 2166.8906,537.2598 Q2165.9063,536.7598 2165.2188,535.6973 Q2164.5313,534.6191 2164.5313,533.3379 L2164.5313,532.1816 Q2164.5313,530.8535 2165.1406,529.7129 Q2165.7656,528.5566 2166.8594,527.9473 Q2167.9531,527.3223 2169.1875,527.3223 Q2169.9219,527.3223 2170.5625,527.4941 Q2171.2188,527.6504 2171.7656,528.0098 Z " fill="#000000"/><text fill="#000000" font-family="sans-serif" font-size="14" lengthAdjust="spacing" textLength="92" x="2183" y="528.6211">&#171;value object&#187;</text><text fill="#000000" font-family="sans-serif" font-size="14" lengthAdjust="spacing" textLength="39" x="2209.5" y="547.2422">E-Mail</text><line style="stroke:#181818;stroke-width:0.5;" x1="2155" x2="2277" y1="555.7559" y2="555.7559"/><line style="stroke:#181818;stroke-width:0.5;" x1="2155" x2="2277" y1="563.7559" y2="563.7559"/></g><!--class Address2--><g id="elem_Address2"><rect codeLine="33" fill="#F1F1F1" height="156.3477" id="Address2" rx="2.5" ry="2.5" style="stroke:#181818;stroke-width:0.5;" width="124" x="2154" y="43.0137"/><ellipse cx="2169" cy="66.6348" fill="#ADD1B2" rx="11" ry="11" style="stroke:#181818;stroke-width:1.0;"/><path d="M2171.7656,62.5098 Q2171.9219,62.291 2172.1094,62.1816 Q2172.2969,62.0723 2172.5156,62.0723 Q2172.8906,62.0723 2173.125,62.3379 Q2173.3594,62.5879 2173.3594,63.1973 L2173.3594,64.6504 Q2173.3594,65.2598 2173.125,65.5254 Q2172.8906,65.791 2172.5156,65.791 Q2172.1719,65.791 2171.9688,65.5879 Q2171.7656,65.4004 2171.6563,64.8848 Q2171.6094,64.5254 2171.4219,64.3379 Q2171.0938,63.9629 2170.4844,63.7441 Q2169.875,63.5254 2169.25,63.5254 Q2168.4844,63.5254 2167.8438,63.8535 Q2167.2188,64.1816 2166.7188,64.9316 Q2166.2344,65.6816 2166.2344,66.7129 L2166.2344,67.8066 Q2166.2344,69.041 2167.125,69.8691 Q2168.0156,70.6816 2169.6094,70.6816 Q2170.5469,70.6816 2171.2031,70.4316 Q2171.5938,70.2754 2172.0156,69.8379 Q2172.2813,69.5723 2172.4219,69.4941 Q2172.5781,69.416 2172.7813,69.416 Q2173.1094,69.416 2173.3594,69.6816 Q2173.625,69.9316 2173.625,70.2754 Q2173.625,70.6191 2173.2813,71.0254 Q2172.7813,71.6035 2171.9844,71.9316 Q2170.9063,72.3848 2169.6094,72.3848 Q2168.0938,72.3848 2166.8906,71.7598 Q2165.9063,71.2598 2165.2188,70.1973 Q2164.5313,69.1191 2164.5313,67.8379 L2164.5313,66.6816 Q2164.5313,65.3535 2165.1406,64.2129 Q2165.7656,63.0566 2166.8594,62.4473 Q2167.9531,61.8223 2169.1875,61.8223 Q2169.9219,61.8223 2170.5625,61.9941 Q2171.2188,62.1504 2171.7656,62.5098 Z " fill="#000000"/><text fill="#000000" font-family="sans-serif" font-size="14" lengthAdjust="spacing" textLength="92" x="2183" y="63.1211">&#171;value object&#187;</text><text fill="#000000" font-family="sans-serif" font-size="14" lengthAdjust="spacing" textLength="52" x="2203" y="81.7422">Address</text><line style="stroke:#181818;stroke-width:0.5;" x1="2155" x2="2277" y1="90.2559" y2="90.2559"/><text fill="#000000" font-family="sans-serif" font-size="14" lengthAdjust="spacing" textLength="38" x="2160" y="109.3633">Street</text><text fill="#000000" font-family="sans-serif" font-size="14" lengthAdjust="spacing" textLength="24" x="2160" y="127.9844">City</text><text fill="#000000" font-family="sans-serif" font-size="14" lengthAdjust="spacing" textLength="33" x="2160" y="146.6055">State</text><text fill="#000000" font-family="sans-serif" font-size="14" lengthAdjust="spacing" textLength="50" x="2160" y="165.2266">Country</text><text fill="#000000" font-family="sans-serif" font-size="14" lengthAdjust="spacing" textLength="50" x="2160" y="183.8477">Zipcode</text><line style="stroke:#181818;stroke-width:0.5;" x1="2155" x2="2277" y1="191.3613" y2="191.3613"/></g><!--class Code--><g id="elem_Code"><rect codeLine="41" fill="#F1F1F1" height="63.2422" id="Code" rx="2.5" ry="2.5" style="stroke:#181818;stroke-width:0.5;" width="124" x="2313" y="508.5137"/><ellipse cx="2328" cy="532.1348" fill="#ADD1B2" rx="11" ry="11" style="stroke:#181818;stroke-width:1.0;"/><path d="M2330.7656,528.0098 Q2330.9219,527.791 2331.1094,527.6816 Q2331.2969,527.5723 2331.5156,527.5723 Q2331.8906,527.5723 2332.125,527.8379 Q2332.3594,528.0879 2332.3594,528.6973 L2332.3594,530.1504 Q2332.3594,530.7598 2332.125,531.0254 Q2331.8906,531.291 2331.5156,531.291 Q2331.1719,531.291 2330.9688,531.0879 Q2330.7656,530.9004 2330.6563,530.3848 Q2330.6094,530.0254 2330.4219,529.8379 Q2330.0938,529.4629 2329.4844,529.2441 Q2328.875,529.0254 2328.25,529.0254 Q2327.4844,529.0254 2326.8438,529.3535 Q2326.2188,529.6816 2325.7188,530.4316 Q2325.2344,531.1816 2325.2344,532.2129 L2325.2344,533.3066 Q2325.2344,534.541 2326.125,535.3691 Q2327.0156,536.1816 2328.6094,536.1816 Q2329.5469,536.1816 2330.2031,535.9316 Q2330.5938,535.7754 2331.0156,535.3379 Q2331.2813,535.0723 2331.4219,534.9941 Q2331.5781,534.916 2331.7813,534.916 Q2332.1094,534.916 2332.3594,535.1816 Q2332.625,535.4316 2332.625,535.7754 Q2332.625,536.1191 2332.2813,536.5254 Q2331.7813,537.1035 2330.9844,537.4316 Q2329.9063,537.8848 2328.6094,537.8848 Q2327.0938,537.8848 2325.8906,537.2598 Q2324.9063,536.7598 2324.2188,535.6973 Q2323.5313,534.6191 2323.5313,533.3379 L2323.5313,532.1816 Q2323.5313,530.8535 2324.1406,529.7129 Q2324.7656,528.5566 2325.8594,527.9473 Q2326.9531,527.3223 2328.1875,527.3223 Q2328.9219,527.3223 2329.5625,527.4941 Q2330.2188,527.6504 2330.7656,528.0098 Z " fill="#000000"/><text fill="#000000" font-family="sans-serif" font-size="14" lengthAdjust="spacing" textLength="92" x="2342" y="528.6211">&#171;value object&#187;</text><text fill="#000000" font-family="sans-serif" font-size="14" lengthAdjust="spacing" textLength="34" x="2371" y="547.2422">Code</text><line style="stroke:#181818;stroke-width:0.5;" x1="2314" x2="2436" y1="555.7559" y2="555.7559"/><line style="stroke:#181818;stroke-width:0.5;" x1="2314" x2="2436" y1="563.7559" y2="563.7559"/></g><!--class RecruitmentProcess--><g id="elem_RecruitmentProcess"><rect codeLine="48" fill="#F1F1F1" height="81.8633" id="RecruitmentProcess" rx="2.5" ry="2.5" style="stroke:#181818;stroke-width:0.5;" width="159" x="904.5" y="860.0137"/><ellipse cx="919.5" cy="883.6348" fill="#ADD1B2" rx="11" ry="11" style="stroke:#181818;stroke-width:1.0;"/><path d="M922.2656,879.5098 Q922.4219,879.291 922.6094,879.1816 Q922.7969,879.0723 923.0156,879.0723 Q923.3906,879.0723 923.625,879.3379 Q923.8594,879.5879 923.8594,880.1973 L923.8594,881.6504 Q923.8594,882.2598 923.625,882.5254 Q923.3906,882.791 923.0156,882.791 Q922.6719,882.791 922.4688,882.5879 Q922.2656,882.4004 922.1563,881.8848 Q922.1094,881.5254 921.9219,881.3379 Q921.5938,880.9629 920.9844,880.7441 Q920.375,880.5254 919.75,880.5254 Q918.9844,880.5254 918.3438,880.8535 Q917.7188,881.1816 917.2188,881.9316 Q916.7344,882.6816 916.7344,883.7129 L916.7344,884.8066 Q916.7344,886.041 917.625,886.8691 Q918.5156,887.6816 920.1094,887.6816 Q921.0469,887.6816 921.7031,887.4316 Q922.0938,887.2754 922.5156,886.8379 Q922.7813,886.5723 922.9219,886.4941 Q923.0781,886.416 923.2813,886.416 Q923.6094,886.416 923.8594,886.6816 Q924.125,886.9316 924.125,887.2754 Q924.125,887.6191 923.7813,888.0254 Q923.2813,888.6035 922.4844,888.9316 Q921.4063,889.3848 920.1094,889.3848 Q918.5938,889.3848 917.3906,888.7598 Q916.4063,888.2598 915.7188,887.1973 Q915.0313,886.1191 915.0313,884.8379 L915.0313,883.6816 Q915.0313,882.3535 915.6406,881.2129 Q916.2656,880.0566 917.3594,879.4473 Q918.4531,878.8223 919.6875,878.8223 Q920.4219,878.8223 921.0625,878.9941 Q921.7188,879.1504 922.2656,879.5098 Z " fill="#000000"/><text fill="#000000" font-family="sans-serif" font-size="14" lengthAdjust="spacing" textLength="50" x="972" y="880.1211">&#171;entity&#187;</text><text fill="#000000" font-family="sans-serif" font-size="14" lengthAdjust="spacing" textLength="127" x="933.5" y="898.7422">RecruitmentProcess</text><line style="stroke:#181818;stroke-width:0.5;" x1="905.5" x2="1062.5" y1="907.2559" y2="907.2559"/><text fill="#000000" font-family="sans-serif" font-size="14" lengthAdjust="spacing" textLength="119" x="910.5" y="926.3633">HasInterviewPhase</text><line style="stroke:#181818;stroke-width:0.5;" x1="905.5" x2="1062.5" y1="933.877" y2="933.877"/></g><!--class Phase--><g id="elem_Phase"><rect codeLine="52" fill="#F1F1F1" height="119.1055" id="Phase" rx="2.5" ry="2.5" style="stroke:#181818;stroke-width:0.5;" width="82" x="943" y="1021.0137"/><ellipse cx="958" cy="1044.6348" fill="#ADD1B2" rx="11" ry="11" style="stroke:#181818;stroke-width:1.0;"/><path d="M960.7656,1040.5098 Q960.9219,1040.291 961.1094,1040.1816 Q961.2969,1040.0723 961.5156,1040.0723 Q961.8906,1040.0723 962.125,1040.3379 Q962.3594,1040.5879 962.3594,1041.1973 L962.3594,1042.6504 Q962.3594,1043.2598 962.125,1043.5254 Q961.8906,1043.791 961.5156,1043.791 Q961.1719,1043.791 960.9688,1043.5879 Q960.7656,1043.4004 960.6563,1042.8848 Q960.6094,1042.5254 960.4219,1042.3379 Q960.0938,1041.9629 959.4844,1041.7441 Q958.875,1041.5254 958.25,1041.5254 Q957.4844,1041.5254 956.8438,1041.8535 Q956.2188,1042.1816 955.7188,1042.9316 Q955.2344,1043.6816 955.2344,1044.7129 L955.2344,1045.8066 Q955.2344,1047.041 956.125,1047.8691 Q957.0156,1048.6816 958.6094,1048.6816 Q959.5469,1048.6816 960.2031,1048.4316 Q960.5938,1048.2754 961.0156,1047.8379 Q961.2813,1047.5723 961.4219,1047.4941 Q961.5781,1047.416 961.7813,1047.416 Q962.1094,1047.416 962.3594,1047.6816 Q962.625,1047.9316 962.625,1048.2754 Q962.625,1048.6191 962.2813,1049.0254 Q961.7813,1049.6035 960.9844,1049.9316 Q959.9063,1050.3848 958.6094,1050.3848 Q957.0938,1050.3848 955.8906,1049.7598 Q954.9063,1049.2598 954.2188,1048.1973 Q953.5313,1047.1191 953.5313,1045.8379 L953.5313,1044.6816 Q953.5313,1043.3535 954.1406,1042.2129 Q954.7656,1041.0566 955.8594,1040.4473 Q956.9531,1039.8223 958.1875,1039.8223 Q958.9219,1039.8223 959.5625,1039.9941 Q960.2188,1040.1504 960.7656,1040.5098 Z " fill="#000000"/><text fill="#000000" font-family="sans-serif" font-size="14" lengthAdjust="spacing" textLength="50" x="972" y="1041.1211">&#171;entity&#187;</text><text fill="#000000" font-family="sans-serif" font-size="14" lengthAdjust="spacing" textLength="40" x="977" y="1059.7422">Phase</text><line style="stroke:#181818;stroke-width:0.5;" x1="944" x2="1024" y1="1068.2559" y2="1068.2559"/><text fill="#000000" font-family="sans-serif" font-size="14" lengthAdjust="spacing" textLength="69" x="949" y="1087.3633">description</text><text fill="#000000" font-family="sans-serif" font-size="14" lengthAdjust="spacing" textLength="65" x="949" y="1105.9844">beginDate</text><text fill="#000000" font-family="sans-serif" font-size="14" lengthAdjust="spacing" textLength="56" x="949" y="1124.6055">finalDate</text><line style="stroke:#181818;stroke-width:0.5;" x1="944" x2="1024" y1="1132.1191" y2="1132.1191"/></g><!--class InterviewPhaseStatus--><g id="elem_InterviewPhaseStatus"><rect codeLine="58" fill="#F1F1F1" height="63.2422" id="InterviewPhaseStatus" rx="2.5" ry="2.5" style="stroke:#181818;stroke-width:0.5;" width="167" x="1098.5" y="869.5137"/><ellipse cx="1113.5" cy="893.1348" fill="#ADD1B2" rx="11" ry="11" style="stroke:#181818;stroke-width:1.0;"/><path d="M1116.2656,889.0098 Q1116.4219,888.791 1116.6094,888.6816 Q1116.7969,888.5723 1117.0156,888.5723 Q1117.3906,888.5723 1117.625,888.8379 Q1117.8594,889.0879 1117.8594,889.6973 L1117.8594,891.1504 Q1117.8594,891.7598 1117.625,892.0254 Q1117.3906,892.291 1117.0156,892.291 Q1116.6719,892.291 1116.4688,892.0879 Q1116.2656,891.9004 1116.1563,891.3848 Q1116.1094,891.0254 1115.9219,890.8379 Q1115.5938,890.4629 1114.9844,890.2441 Q1114.375,890.0254 1113.75,890.0254 Q1112.9844,890.0254 1112.3438,890.3535 Q1111.7188,890.6816 1111.2188,891.4316 Q1110.7344,892.1816 1110.7344,893.2129 L1110.7344,894.3066 Q1110.7344,895.541 1111.625,896.3691 Q1112.5156,897.1816 1114.1094,897.1816 Q1115.0469,897.1816 1115.7031,896.9316 Q1116.0938,896.7754 1116.5156,896.3379 Q1116.7813,896.0723 1116.9219,895.9941 Q1117.0781,895.916 1117.2813,895.916 Q1117.6094,895.916 1117.8594,896.1816 Q1118.125,896.4316 1118.125,896.7754 Q1118.125,897.1191 1117.7813,897.5254 Q1117.2813,898.1035 1116.4844,898.4316 Q1115.4063,898.8848 1114.1094,898.8848 Q1112.5938,898.8848 1111.3906,898.2598 Q1110.4063,897.7598 1109.7188,896.6973 Q1109.0313,895.6191 1109.0313,894.3379 L1109.0313,893.1816 Q1109.0313,891.8535 1109.6406,890.7129 Q1110.2656,889.5566 1111.3594,888.9473 Q1112.4531,888.3223 1113.6875,888.3223 Q1114.4219,888.3223 1115.0625,888.4941 Q1115.7188,888.6504 1116.2656,889.0098 Z " fill="#000000"/><text fill="#000000" font-family="sans-serif" font-size="14" lengthAdjust="spacing" textLength="92" x="1149" y="889.6211">&#171;value object&#187;</text><text fill="#000000" font-family="sans-serif" font-size="14" lengthAdjust="spacing" textLength="135" x="1127.5" y="908.2422">InterviewPhaseStatus</text><line style="stroke:#181818;stroke-width:0.5;" x1="1099.5" x2="1264.5" y1="916.7559" y2="916.7559"/><line style="stroke:#181818;stroke-width:0.5;" x1="1099.5" x2="1264.5" y1="924.7559" y2="924.7559"/></g><!--class JobOpening--><g id="elem_JobOpening"><rect codeLine="60" fill="#F1F1F1" height="81.8633" id="JobOpening" rx="2.5" ry="2.5" style="stroke:#181818;stroke-width:0.5;" width="108" x="1309" y="697.0137"/><ellipse cx="1324" cy="729.9453" fill="#ADD1B2" rx="11" ry="11" style="stroke:#181818;stroke-width:1.0;"/><path d="M1326.7656,725.8203 Q1326.9219,725.6016 1327.1094,725.4922 Q1327.2969,725.3828 1327.5156,725.3828 Q1327.8906,725.3828 1328.125,725.6484 Q1328.3594,725.8984 1328.3594,726.5078 L1328.3594,727.9609 Q1328.3594,728.5703 1328.125,728.8359 Q1327.8906,729.1016 1327.5156,729.1016 Q1327.1719,729.1016 1326.9688,728.8984 Q1326.7656,728.7109 1326.6563,728.1953 Q1326.6094,727.8359 1326.4219,727.6484 Q1326.0938,727.2734 1325.4844,727.0547 Q1324.875,726.8359 1324.25,726.8359 Q1323.4844,726.8359 1322.8438,727.1641 Q1322.2188,727.4922 1321.7188,728.2422 Q1321.2344,728.9922 1321.2344,730.0234 L1321.2344,731.1172 Q1321.2344,732.3516 1322.125,733.1797 Q1323.0156,733.9922 1324.6094,733.9922 Q1325.5469,733.9922 1326.2031,733.7422 Q1326.5938,733.5859 1327.0156,733.1484 Q1327.2813,732.8828 1327.4219,732.8047 Q1327.5781,732.7266 1327.7813,732.7266 Q1328.1094,732.7266 1328.3594,732.9922 Q1328.625,733.2422 1328.625,733.5859 Q1328.625,733.9297 1328.2813,734.3359 Q1327.7813,734.9141 1326.9844,735.2422 Q1325.9063,735.6953 1324.6094,735.6953 Q1323.0938,735.6953 1321.8906,735.0703 Q1320.9063,734.5703 1320.2188,733.5078 Q1319.5313,732.4297 1319.5313,731.1484 L1319.5313,729.9922 Q1319.5313,728.6641 1320.1406,727.5234 Q1320.7656,726.3672 1321.8594,725.7578 Q1322.9531,725.1328 1324.1875,725.1328 Q1324.9219,725.1328 1325.5625,725.3047 Q1326.2188,725.4609 1326.7656,725.8203 Z " fill="#000000"/><text fill="#000000" font-family="sans-serif" font-size="14" lengthAdjust="spacing" textLength="41" x="1355.5" y="717.1211">&#171;root&#187;</text><text fill="#000000" font-family="sans-serif" font-size="14" lengthAdjust="spacing" textLength="50" x="1349" y="735.7422">&#171;entity&#187;</text><text fill="#000000" font-family="sans-serif" font-size="14" lengthAdjust="spacing" textLength="76" x="1338" y="754.3633">JobOpening</text><line style="stroke:#181818;stroke-width:0.5;" x1="1310" x2="1416" y1="762.877" y2="762.877"/><line style="stroke:#181818;stroke-width:0.5;" x1="1310" x2="1416" y1="770.877" y2="770.877"/></g><!--class SetupStatus--><g id="elem_SetupStatus"><rect codeLine="65" fill="#F1F1F1" height="63.2422" id="SetupStatus" rx="2.5" ry="2.5" style="stroke:#181818;stroke-width:0.5;" width="124" x="1301" y="869.5137"/><ellipse cx="1316" cy="893.1348" fill="#ADD1B2" rx="11" ry="11" style="stroke:#181818;stroke-width:1.0;"/><path d="M1318.7656,889.0098 Q1318.9219,888.791 1319.1094,888.6816 Q1319.2969,888.5723 1319.5156,888.5723 Q1319.8906,888.5723 1320.125,888.8379 Q1320.3594,889.0879 1320.3594,889.6973 L1320.3594,891.1504 Q1320.3594,891.7598 1320.125,892.0254 Q1319.8906,892.291 1319.5156,892.291 Q1319.1719,892.291 1318.9688,892.0879 Q1318.7656,891.9004 1318.6563,891.3848 Q1318.6094,891.0254 1318.4219,890.8379 Q1318.0938,890.4629 1317.4844,890.2441 Q1316.875,890.0254 1316.25,890.0254 Q1315.4844,890.0254 1314.8438,890.3535 Q1314.2188,890.6816 1313.7188,891.4316 Q1313.2344,892.1816 1313.2344,893.2129 L1313.2344,894.3066 Q1313.2344,895.541 1314.125,896.3691 Q1315.0156,897.1816 1316.6094,897.1816 Q1317.5469,897.1816 1318.2031,896.9316 Q1318.5938,896.7754 1319.0156,896.3379 Q1319.2813,896.0723 1319.4219,895.9941 Q1319.5781,895.916 1319.7813,895.916 Q1320.1094,895.916 1320.3594,896.1816 Q1320.625,896.4316 1320.625,896.7754 Q1320.625,897.1191 1320.2813,897.5254 Q1319.7813,898.1035 1318.9844,898.4316 Q1317.9063,898.8848 1316.6094,898.8848 Q1315.0938,898.8848 1313.8906,898.2598 Q1312.9063,897.7598 1312.2188,896.6973 Q1311.5313,895.6191 1311.5313,894.3379 L1311.5313,893.1816 Q1311.5313,891.8535 1312.1406,890.7129 Q1312.7656,889.5566 1313.8594,888.9473 Q1314.9531,888.3223 1316.1875,888.3223 Q1316.9219,888.3223 1317.5625,888.4941 Q1318.2188,888.6504 1318.7656,889.0098 Z " fill="#000000"/><text fill="#000000" font-family="sans-serif" font-size="14" lengthAdjust="spacing" textLength="92" x="1330" y="889.6211">&#171;value object&#187;</text><text fill="#000000" font-family="sans-serif" font-size="14" lengthAdjust="spacing" textLength="77" x="1337.5" y="908.2422">SetupStatus</text><line style="stroke:#181818;stroke-width:0.5;" x1="1302" x2="1424" y1="916.7559" y2="916.7559"/><line style="stroke:#181818;stroke-width:0.5;" x1="1302" x2="1424" y1="924.7559" y2="924.7559"/></g><!--class RequirementsStatus--><g id="elem_RequirementsStatus"><rect codeLine="68" fill="#F1F1F1" height="63.2422" id="RequirementsStatus" rx="2.5" ry="2.5" style="stroke:#181818;stroke-width:0.5;" width="160" x="1460" y="869.5137"/><ellipse cx="1475" cy="893.1348" fill="#ADD1B2" rx="11" ry="11" style="stroke:#181818;stroke-width:1.0;"/><path d="M1477.7656,889.0098 Q1477.9219,888.791 1478.1094,888.6816 Q1478.2969,888.5723 1478.5156,888.5723 Q1478.8906,888.5723 1479.125,888.8379 Q1479.3594,889.0879 1479.3594,889.6973 L1479.3594,891.1504 Q1479.3594,891.7598 1479.125,892.0254 Q1478.8906,892.291 1478.5156,892.291 Q1478.1719,892.291 1477.9688,892.0879 Q1477.7656,891.9004 1477.6563,891.3848 Q1477.6094,891.0254 1477.4219,890.8379 Q1477.0938,890.4629 1476.4844,890.2441 Q1475.875,890.0254 1475.25,890.0254 Q1474.4844,890.0254 1473.8438,890.3535 Q1473.2188,890.6816 1472.7188,891.4316 Q1472.2344,892.1816 1472.2344,893.2129 L1472.2344,894.3066 Q1472.2344,895.541 1473.125,896.3691 Q1474.0156,897.1816 1475.6094,897.1816 Q1476.5469,897.1816 1477.2031,896.9316 Q1477.5938,896.7754 1478.0156,896.3379 Q1478.2813,896.0723 1478.4219,895.9941 Q1478.5781,895.916 1478.7813,895.916 Q1479.1094,895.916 1479.3594,896.1816 Q1479.625,896.4316 1479.625,896.7754 Q1479.625,897.1191 1479.2813,897.5254 Q1478.7813,898.1035 1477.9844,898.4316 Q1476.9063,898.8848 1475.6094,898.8848 Q1474.0938,898.8848 1472.8906,898.2598 Q1471.9063,897.7598 1471.2188,896.6973 Q1470.5313,895.6191 1470.5313,894.3379 L1470.5313,893.1816 Q1470.5313,891.8535 1471.1406,890.7129 Q1471.7656,889.5566 1472.8594,888.9473 Q1473.9531,888.3223 1475.1875,888.3223 Q1475.9219,888.3223 1476.5625,888.4941 Q1477.2188,888.6504 1477.7656,889.0098 Z " fill="#000000"/><text fill="#000000" font-family="sans-serif" font-size="14" lengthAdjust="spacing" textLength="92" x="1507" y="889.6211">&#171;value object&#187;</text><text fill="#000000" font-family="sans-serif" font-size="14" lengthAdjust="spacing" textLength="128" x="1489" y="908.2422">RequirementsStatus</text><line style="stroke:#181818;stroke-width:0.5;" x1="1461" x2="1619" y1="916.7559" y2="916.7559"/><line style="stroke:#181818;stroke-width:0.5;" x1="1461" x2="1619" y1="924.7559" y2="924.7559"/></g><!--class ContractType--><g id="elem_ContractType"><rect codeLine="73" fill="#F1F1F1" height="63.2422" id="ContractType" rx="2.5" ry="2.5" style="stroke:#181818;stroke-width:0.5;" width="124" x="1725" y="508.5137"/><ellipse cx="1740" cy="532.1348" fill="#ADD1B2" rx="11" ry="11" style="stroke:#181818;stroke-width:1.0;"/><path d="M1742.7656,528.0098 Q1742.9219,527.791 1743.1094,527.6816 Q1743.2969,527.5723 1743.5156,527.5723 Q1743.8906,527.5723 1744.125,527.8379 Q1744.3594,528.0879 1744.3594,528.6973 L1744.3594,530.1504 Q1744.3594,530.7598 1744.125,531.0254 Q1743.8906,531.291 1743.5156,531.291 Q1743.1719,531.291 1742.9688,531.0879 Q1742.7656,530.9004 1742.6563,530.3848 Q1742.6094,530.0254 1742.4219,529.8379 Q1742.0938,529.4629 1741.4844,529.2441 Q1740.875,529.0254 1740.25,529.0254 Q1739.4844,529.0254 1738.8438,529.3535 Q1738.2188,529.6816 1737.7188,530.4316 Q1737.2344,531.1816 1737.2344,532.2129 L1737.2344,533.3066 Q1737.2344,534.541 1738.125,535.3691 Q1739.0156,536.1816 1740.6094,536.1816 Q1741.5469,536.1816 1742.2031,535.9316 Q1742.5938,535.7754 1743.0156,535.3379 Q1743.2813,535.0723 1743.4219,534.9941 Q1743.5781,534.916 1743.7813,534.916 Q1744.1094,534.916 1744.3594,535.1816 Q1744.625,535.4316 1744.625,535.7754 Q1744.625,536.1191 1744.2813,536.5254 Q1743.7813,537.1035 1742.9844,537.4316 Q1741.9063,537.8848 1740.6094,537.8848 Q1739.0938,537.8848 1737.8906,537.2598 Q1736.9063,536.7598 1736.2188,535.6973 Q1735.5313,534.6191 1735.5313,533.3379 L1735.5313,532.1816 Q1735.5313,530.8535 1736.1406,529.7129 Q1736.7656,528.5566 1737.8594,527.9473 Q1738.9531,527.3223 1740.1875,527.3223 Q1740.9219,527.3223 1741.5625,527.4941 Q1742.2188,527.6504 1742.7656,528.0098 Z " fill="#000000"/><text fill="#000000" font-family="sans-serif" font-size="14" lengthAdjust="spacing" textLength="92" x="1754" y="528.6211">&#171;value object&#187;</text><text fill="#000000" font-family="sans-serif" font-size="14" lengthAdjust="spacing" textLength="86" x="1757" y="547.2422">ContractType</text><line style="stroke:#181818;stroke-width:0.5;" x1="1726" x2="1848" y1="555.7559" y2="555.7559"/><line style="stroke:#181818;stroke-width:0.5;" x1="1726" x2="1848" y1="563.7559" y2="563.7559"/></g><!--class Mode--><g id="elem_Mode"><rect codeLine="76" fill="#F1F1F1" height="81.8633" id="Mode" rx="2.5" ry="2.5" style="stroke:#181818;stroke-width:0.5;" width="124" x="1566" y="499.0137"/><ellipse cx="1581" cy="522.6348" fill="#ADD1B2" rx="11" ry="11" style="stroke:#181818;stroke-width:1.0;"/><path d="M1583.7656,518.5098 Q1583.9219,518.291 1584.1094,518.1816 Q1584.2969,518.0723 1584.5156,518.0723 Q1584.8906,518.0723 1585.125,518.3379 Q1585.3594,518.5879 1585.3594,519.1973 L1585.3594,520.6504 Q1585.3594,521.2598 1585.125,521.5254 Q1584.8906,521.791 1584.5156,521.791 Q1584.1719,521.791 1583.9688,521.5879 Q1583.7656,521.4004 1583.6563,520.8848 Q1583.6094,520.5254 1583.4219,520.3379 Q1583.0938,519.9629 1582.4844,519.7441 Q1581.875,519.5254 1581.25,519.5254 Q1580.4844,519.5254 1579.8438,519.8535 Q1579.2188,520.1816 1578.7188,520.9316 Q1578.2344,521.6816 1578.2344,522.7129 L1578.2344,523.8066 Q1578.2344,525.041 1579.125,525.8691 Q1580.0156,526.6816 1581.6094,526.6816 Q1582.5469,526.6816 1583.2031,526.4316 Q1583.5938,526.2754 1584.0156,525.8379 Q1584.2813,525.5723 1584.4219,525.4941 Q1584.5781,525.416 1584.7813,525.416 Q1585.1094,525.416 1585.3594,525.6816 Q1585.625,525.9316 1585.625,526.2754 Q1585.625,526.6191 1585.2813,527.0254 Q1584.7813,527.6035 1583.9844,527.9316 Q1582.9063,528.3848 1581.6094,528.3848 Q1580.0938,528.3848 1578.8906,527.7598 Q1577.9063,527.2598 1577.2188,526.1973 Q1576.5313,525.1191 1576.5313,523.8379 L1576.5313,522.6816 Q1576.5313,521.3535 1577.1406,520.2129 Q1577.7656,519.0566 1578.8594,518.4473 Q1579.9531,517.8223 1581.1875,517.8223 Q1581.9219,517.8223 1582.5625,517.9941 Q1583.2188,518.1504 1583.7656,518.5098 Z " fill="#000000"/><text fill="#000000" font-family="sans-serif" font-size="14" lengthAdjust="spacing" textLength="92" x="1595" y="519.1211">&#171;value object&#187;</text><text fill="#000000" font-family="sans-serif" font-size="14" lengthAdjust="spacing" textLength="35" x="1623.5" y="537.7422">Mode</text><line style="stroke:#181818;stroke-width:0.5;" x1="1567" x2="1689" y1="546.2559" y2="546.2559"/><text fill="#000000" font-family="sans-serif" font-size="14" lengthAdjust="spacing" textLength="69" x="1572" y="565.3633">description</text><line style="stroke:#181818;stroke-width:0.5;" x1="1567" x2="1689" y1="572.877" y2="572.877"/></g><!--class JobFunction--><g id="elem_JobFunction"><rect codeLine="80" fill="#F1F1F1" height="81.8633" id="JobFunction" rx="2.5" ry="2.5" style="stroke:#181818;stroke-width:0.5;" width="124" x="1407" y="499.0137"/><ellipse cx="1422" cy="522.6348" fill="#ADD1B2" rx="11" ry="11" style="stroke:#181818;stroke-width:1.0;"/><path d="M1424.7656,518.5098 Q1424.9219,518.291 1425.1094,518.1816 Q1425.2969,518.0723 1425.5156,518.0723 Q1425.8906,518.0723 1426.125,518.3379 Q1426.3594,518.5879 1426.3594,519.1973 L1426.3594,520.6504 Q1426.3594,521.2598 1426.125,521.5254 Q1425.8906,521.791 1425.5156,521.791 Q1425.1719,521.791 1424.9688,521.5879 Q1424.7656,521.4004 1424.6563,520.8848 Q1424.6094,520.5254 1424.4219,520.3379 Q1424.0938,519.9629 1423.4844,519.7441 Q1422.875,519.5254 1422.25,519.5254 Q1421.4844,519.5254 1420.8438,519.8535 Q1420.2188,520.1816 1419.7188,520.9316 Q1419.2344,521.6816 1419.2344,522.7129 L1419.2344,523.8066 Q1419.2344,525.041 1420.125,525.8691 Q1421.0156,526.6816 1422.6094,526.6816 Q1423.5469,526.6816 1424.2031,526.4316 Q1424.5938,526.2754 1425.0156,525.8379 Q1425.2813,525.5723 1425.4219,525.4941 Q1425.5781,525.416 1425.7813,525.416 Q1426.1094,525.416 1426.3594,525.6816 Q1426.625,525.9316 1426.625,526.2754 Q1426.625,526.6191 1426.2813,527.0254 Q1425.7813,527.6035 1424.9844,527.9316 Q1423.9063,528.3848 1422.6094,528.3848 Q1421.0938,528.3848 1419.8906,527.7598 Q1418.9063,527.2598 1418.2188,526.1973 Q1417.5313,525.1191 1417.5313,523.8379 L1417.5313,522.6816 Q1417.5313,521.3535 1418.1406,520.2129 Q1418.7656,519.0566 1419.8594,518.4473 Q1420.9531,517.8223 1422.1875,517.8223 Q1422.9219,517.8223 1423.5625,517.9941 Q1424.2188,518.1504 1424.7656,518.5098 Z " fill="#000000"/><text fill="#000000" font-family="sans-serif" font-size="14" lengthAdjust="spacing" textLength="92" x="1436" y="519.1211">&#171;value object&#187;</text><text fill="#000000" font-family="sans-serif" font-size="14" lengthAdjust="spacing" textLength="77" x="1443.5" y="537.7422">JobFunction</text><line style="stroke:#181818;stroke-width:0.5;" x1="1408" x2="1530" y1="546.2559" y2="546.2559"/><text fill="#000000" font-family="sans-serif" font-size="14" lengthAdjust="spacing" textLength="69" x="1413" y="565.3633">description</text><line style="stroke:#181818;stroke-width:0.5;" x1="1408" x2="1530" y1="572.877" y2="572.877"/></g><!--class NumberOfVacancies--><g id="elem_NumberOfVacancies"><rect codeLine="84" fill="#F1F1F1" height="63.2422" id="NumberOfVacancies" rx="2.5" ry="2.5" style="stroke:#181818;stroke-width:0.5;" width="165" x="1206.5" y="508.5137"/><ellipse cx="1221.5" cy="532.1348" fill="#ADD1B2" rx="11" ry="11" style="stroke:#181818;stroke-width:1.0;"/><path d="M1224.2656,528.0098 Q1224.4219,527.791 1224.6094,527.6816 Q1224.7969,527.5723 1225.0156,527.5723 Q1225.3906,527.5723 1225.625,527.8379 Q1225.8594,528.0879 1225.8594,528.6973 L1225.8594,530.1504 Q1225.8594,530.7598 1225.625,531.0254 Q1225.3906,531.291 1225.0156,531.291 Q1224.6719,531.291 1224.4688,531.0879 Q1224.2656,530.9004 1224.1563,530.3848 Q1224.1094,530.0254 1223.9219,529.8379 Q1223.5938,529.4629 1222.9844,529.2441 Q1222.375,529.0254 1221.75,529.0254 Q1220.9844,529.0254 1220.3438,529.3535 Q1219.7188,529.6816 1219.2188,530.4316 Q1218.7344,531.1816 1218.7344,532.2129 L1218.7344,533.3066 Q1218.7344,534.541 1219.625,535.3691 Q1220.5156,536.1816 1222.1094,536.1816 Q1223.0469,536.1816 1223.7031,535.9316 Q1224.0938,535.7754 1224.5156,535.3379 Q1224.7813,535.0723 1224.9219,534.9941 Q1225.0781,534.916 1225.2813,534.916 Q1225.6094,534.916 1225.8594,535.1816 Q1226.125,535.4316 1226.125,535.7754 Q1226.125,536.1191 1225.7813,536.5254 Q1225.2813,537.1035 1224.4844,537.4316 Q1223.4063,537.8848 1222.1094,537.8848 Q1220.5938,537.8848 1219.3906,537.2598 Q1218.4063,536.7598 1217.7188,535.6973 Q1217.0313,534.6191 1217.0313,533.3379 L1217.0313,532.1816 Q1217.0313,530.8535 1217.6406,529.7129 Q1218.2656,528.5566 1219.3594,527.9473 Q1220.4531,527.3223 1221.6875,527.3223 Q1222.4219,527.3223 1223.0625,527.4941 Q1223.7188,527.6504 1224.2656,528.0098 Z " fill="#000000"/><text fill="#000000" font-family="sans-serif" font-size="14" lengthAdjust="spacing" textLength="92" x="1256" y="528.6211">&#171;value object&#187;</text><text fill="#000000" font-family="sans-serif" font-size="14" lengthAdjust="spacing" textLength="129" x="1239.5" y="547.2422">NumberOfVacancies</text><line style="stroke:#181818;stroke-width:0.5;" x1="1207.5" x2="1370.5" y1="555.7559" y2="555.7559"/><line style="stroke:#181818;stroke-width:0.5;" x1="1207.5" x2="1370.5" y1="563.7559" y2="563.7559"/></g><!--class Description--><g id="elem_Description"><rect codeLine="88" fill="#F1F1F1" height="81.8633" id="Description" rx="2.5" ry="2.5" style="stroke:#181818;stroke-width:0.5;" width="124" x="1047" y="499.0137"/><ellipse cx="1062" cy="522.6348" fill="#ADD1B2" rx="11" ry="11" style="stroke:#181818;stroke-width:1.0;"/><path d="M1064.7656,518.5098 Q1064.9219,518.291 1065.1094,518.1816 Q1065.2969,518.0723 1065.5156,518.0723 Q1065.8906,518.0723 1066.125,518.3379 Q1066.3594,518.5879 1066.3594,519.1973 L1066.3594,520.6504 Q1066.3594,521.2598 1066.125,521.5254 Q1065.8906,521.791 1065.5156,521.791 Q1065.1719,521.791 1064.9688,521.5879 Q1064.7656,521.4004 1064.6563,520.8848 Q1064.6094,520.5254 1064.4219,520.3379 Q1064.0938,519.9629 1063.4844,519.7441 Q1062.875,519.5254 1062.25,519.5254 Q1061.4844,519.5254 1060.8438,519.8535 Q1060.2188,520.1816 1059.7188,520.9316 Q1059.2344,521.6816 1059.2344,522.7129 L1059.2344,523.8066 Q1059.2344,525.041 1060.125,525.8691 Q1061.0156,526.6816 1062.6094,526.6816 Q1063.5469,526.6816 1064.2031,526.4316 Q1064.5938,526.2754 1065.0156,525.8379 Q1065.2813,525.5723 1065.4219,525.4941 Q1065.5781,525.416 1065.7813,525.416 Q1066.1094,525.416 1066.3594,525.6816 Q1066.625,525.9316 1066.625,526.2754 Q1066.625,526.6191 1066.2813,527.0254 Q1065.7813,527.6035 1064.9844,527.9316 Q1063.9063,528.3848 1062.6094,528.3848 Q1061.0938,528.3848 1059.8906,527.7598 Q1058.9063,527.2598 1058.2188,526.1973 Q1057.5313,525.1191 1057.5313,523.8379 L1057.5313,522.6816 Q1057.5313,521.3535 1058.1406,520.2129 Q1058.7656,519.0566 1059.8594,518.4473 Q1060.9531,517.8223 1062.1875,517.8223 Q1062.9219,517.8223 1063.5625,517.9941 Q1064.2188,518.1504 1064.7656,518.5098 Z " fill="#000000"/><text fill="#000000" font-family="sans-serif" font-size="14" lengthAdjust="spacing" textLength="92" x="1076" y="519.1211">&#171;value object&#187;</text><text fill="#000000" font-family="sans-serif" font-size="14" lengthAdjust="spacing" textLength="71" x="1086.5" y="537.7422">Description</text><line style="stroke:#181818;stroke-width:0.5;" x1="1048" x2="1170" y1="546.2559" y2="546.2559"/><text fill="#000000" font-family="sans-serif" font-size="14" lengthAdjust="spacing" textLength="69" x="1053" y="565.3633">description</text><line style="stroke:#181818;stroke-width:0.5;" x1="1048" x2="1170" y1="572.877" y2="572.877"/></g><!--class Address1--><g id="elem_Address1"><rect codeLine="93" fill="#F1F1F1" height="156.3477" id="Address1" rx="2.5" ry="2.5" style="stroke:#181818;stroke-width:0.5;" width="124" x="888" y="462.0137"/><ellipse cx="903" cy="485.6348" fill="#ADD1B2" rx="11" ry="11" style="stroke:#181818;stroke-width:1.0;"/><path d="M905.7656,481.5098 Q905.9219,481.291 906.1094,481.1816 Q906.2969,481.0723 906.5156,481.0723 Q906.8906,481.0723 907.125,481.3379 Q907.3594,481.5879 907.3594,482.1973 L907.3594,483.6504 Q907.3594,484.2598 907.125,484.5254 Q906.8906,484.791 906.5156,484.791 Q906.1719,484.791 905.9688,484.5879 Q905.7656,484.4004 905.6563,483.8848 Q905.6094,483.5254 905.4219,483.3379 Q905.0938,482.9629 904.4844,482.7441 Q903.875,482.5254 903.25,482.5254 Q902.4844,482.5254 901.8438,482.8535 Q901.2188,483.1816 900.7188,483.9316 Q900.2344,484.6816 900.2344,485.7129 L900.2344,486.8066 Q900.2344,488.041 901.125,488.8691 Q902.0156,489.6816 903.6094,489.6816 Q904.5469,489.6816 905.2031,489.4316 Q905.5938,489.2754 906.0156,488.8379 Q906.2813,488.5723 906.4219,488.4941 Q906.5781,488.416 906.7813,488.416 Q907.1094,488.416 907.3594,488.6816 Q907.625,488.9316 907.625,489.2754 Q907.625,489.6191 907.2813,490.0254 Q906.7813,490.6035 905.9844,490.9316 Q904.9063,491.3848 903.6094,491.3848 Q902.0938,491.3848 900.8906,490.7598 Q899.9063,490.2598 899.2188,489.1973 Q898.5313,488.1191 898.5313,486.8379 L898.5313,485.6816 Q898.5313,484.3535 899.1406,483.2129 Q899.7656,482.0566 900.8594,481.4473 Q901.9531,480.8223 903.1875,480.8223 Q903.9219,480.8223 904.5625,480.9941 Q905.2188,481.1504 905.7656,481.5098 Z " fill="#000000"/><text fill="#000000" font-family="sans-serif" font-size="14" lengthAdjust="spacing" textLength="92" x="917" y="482.1211">&#171;value object&#187;</text><text fill="#000000" font-family="sans-serif" font-size="14" lengthAdjust="spacing" textLength="52" x="937" y="500.7422">Address</text><line style="stroke:#181818;stroke-width:0.5;" x1="889" x2="1011" y1="509.2559" y2="509.2559"/><text fill="#000000" font-family="sans-serif" font-size="14" lengthAdjust="spacing" textLength="38" x="894" y="528.3633">Street</text><text fill="#000000" font-family="sans-serif" font-size="14" lengthAdjust="spacing" textLength="24" x="894" y="546.9844">City</text><text fill="#000000" font-family="sans-serif" font-size="14" lengthAdjust="spacing" textLength="33" x="894" y="565.6055">State</text><text fill="#000000" font-family="sans-serif" font-size="14" lengthAdjust="spacing" textLength="50" x="894" y="584.2266">Country</text><text fill="#000000" font-family="sans-serif" font-size="14" lengthAdjust="spacing" textLength="50" x="894" y="602.8477">Zipcode</text><line style="stroke:#181818;stroke-width:0.5;" x1="889" x2="1011" y1="610.3613" y2="610.3613"/></g><!--class JobReference--><g id="elem_JobReference"><rect codeLine="101" fill="#F1F1F1" height="81.8633" id="JobReference" rx="2.5" ry="2.5" style="stroke:#181818;stroke-width:0.5;" width="124" x="1655" y="860.0137"/><ellipse cx="1670" cy="892.9453" fill="#ADD1B2" rx="11" ry="11" style="stroke:#181818;stroke-width:1.0;"/><path d="M1672.7656,888.8203 Q1672.9219,888.6016 1673.1094,888.4922 Q1673.2969,888.3828 1673.5156,888.3828 Q1673.8906,888.3828 1674.125,888.6484 Q1674.3594,888.8984 1674.3594,889.5078 L1674.3594,890.9609 Q1674.3594,891.5703 1674.125,891.8359 Q1673.8906,892.1016 1673.5156,892.1016 Q1673.1719,892.1016 1672.9688,891.8984 Q1672.7656,891.7109 1672.6563,891.1953 Q1672.6094,890.8359 1672.4219,890.6484 Q1672.0938,890.2734 1671.4844,890.0547 Q1670.875,889.8359 1670.25,889.8359 Q1669.4844,889.8359 1668.8438,890.1641 Q1668.2188,890.4922 1667.7188,891.2422 Q1667.2344,891.9922 1667.2344,893.0234 L1667.2344,894.1172 Q1667.2344,895.3516 1668.125,896.1797 Q1669.0156,896.9922 1670.6094,896.9922 Q1671.5469,896.9922 1672.2031,896.7422 Q1672.5938,896.5859 1673.0156,896.1484 Q1673.2813,895.8828 1673.4219,895.8047 Q1673.5781,895.7266 1673.7813,895.7266 Q1674.1094,895.7266 1674.3594,895.9922 Q1674.625,896.2422 1674.625,896.5859 Q1674.625,896.9297 1674.2813,897.3359 Q1673.7813,897.9141 1672.9844,898.2422 Q1671.9063,898.6953 1670.6094,898.6953 Q1669.0938,898.6953 1667.8906,898.0703 Q1666.9063,897.5703 1666.2188,896.5078 Q1665.5313,895.4297 1665.5313,894.1484 L1665.5313,892.9922 Q1665.5313,891.6641 1666.1406,890.5234 Q1666.7656,889.3672 1667.8594,888.7578 Q1668.9531,888.1328 1670.1875,888.1328 Q1670.9219,888.1328 1671.5625,888.3047 Q1672.2188,888.4609 1672.7656,888.8203 Z " fill="#000000"/><text fill="#000000" font-family="sans-serif" font-size="14" lengthAdjust="spacing" textLength="92" x="1684" y="880.1211">&#171;value object&#187;</text><text fill="#000000" font-family="sans-serif" font-size="14" lengthAdjust="spacing" textLength="70" x="1695" y="898.7422">&#171;identifier&#187;</text><text fill="#000000" font-family="sans-serif" font-size="14" lengthAdjust="spacing" textLength="88" x="1686" y="917.3633">JobReference</text><line style="stroke:#181818;stroke-width:0.5;" x1="1656" x2="1778" y1="925.877" y2="925.877"/><line style="stroke:#181818;stroke-width:0.5;" x1="1656" x2="1778" y1="933.877" y2="933.877"/></g><!--link Plugin to PlugClass--><g id="link_Plugin_PlugClass"><path codeLine="105" d="M500.37,581.1537 C483.15,618.2237 460.4773,667.0619 444.8073,700.8019 " fill="none" id="Plugin-to-PlugClass" style="stroke:#181818;stroke-width:1.0;"/><polygon fill="#181818" points="442.28,706.2437,449.6988,699.7659,444.3861,701.7089,442.4432,696.3962,442.28,706.2437" style="stroke:#181818;stroke-width:1.0;"/><text fill="#000000" font-family="sans-serif" font-size="13" lengthAdjust="spacing" textLength="48" x="470" y="663.042">includes</text><text fill="#000000" font-family="sans-serif" font-size="13" lengthAdjust="spacing" textLength="7" x="489.9813" y="602.8159">1</text><text fill="#000000" font-family="sans-serif" font-size="13" lengthAdjust="spacing" textLength="7" x="437.4023" y="695.3486">1</text></g><!--link Plugin to JarFile--><g id="link_Plugin_JarFile"><path codeLine="106" d="M537.84,581.1537 C555.24,618.2237 578.1702,667.0724 594.0102,700.8124 " fill="none" id="Plugin-to-JarFile" style="stroke:#181818;stroke-width:1.0;"/><polygon fill="#181818" points="596.56,706.2437,596.3561,696.3969,594.4352,701.7176,589.1144,699.7967,596.56,706.2437" style="stroke:#181818;stroke-width:1.0;"/><text fill="#000000" font-family="sans-serif" font-size="13" lengthAdjust="spacing" textLength="48" x="577" y="663.042">includes</text><text fill="#000000" font-family="sans-serif" font-size="13" lengthAdjust="spacing" textLength="7" x="533.1889" y="602.8159">1</text><text fill="#000000" font-family="sans-serif" font-size="13" lengthAdjust="spacing" textLength="7" x="586.0281" y="695.3486">1</text></g><!--link Plugin to PlugDesc--><g id="link_Plugin_PlugDesc"><path codeLine="107" d="M560.17,573.1637 C607.45,610.0837 679.741,666.5309 726.151,702.7709 " fill="none" id="Plugin-to-PlugDesc" style="stroke:#181818;stroke-width:1.0;"/><polygon fill="#181818" points="730.88,706.4637,726.2483,697.7719,726.9391,703.3864,721.3246,704.0773,730.88,706.4637" style="stroke:#181818;stroke-width:1.0;"/><text fill="#000000" font-family="sans-serif" font-size="13" lengthAdjust="spacing" textLength="48" x="676" y="663.042">includes</text><text fill="#000000" font-family="sans-serif" font-size="13" lengthAdjust="spacing" textLength="7" x="568.1268" y="574.6209">1</text><text fill="#000000" font-family="sans-serif" font-size="13" lengthAdjust="spacing" textLength="7" x="715.0896" y="695.2367">1</text></g><!--link Plugin to PlugID--><g id="link_Plugin_PlugID"><path codeLine="108" d="M477.98,558.0437 C411.61,585.8237 276.82,643.2337 165,697.0137 C159.4,699.7037 158.985,699.8876 153.185,702.7376 " fill="none" id="Plugin-to-PlugID" style="stroke:#181818;stroke-width:1.0;"/><polygon fill="#181818" points="147.8,705.3837,157.6416,705.0046,152.2875,703.1786,154.1135,697.8246,147.8,705.3837" style="stroke:#181818;stroke-width:1.0;"/><text fill="#000000" font-family="sans-serif" font-size="13" lengthAdjust="spacing" textLength="69" x="263" y="663.042">identified by</text><text fill="#000000" font-family="sans-serif" font-size="13" lengthAdjust="spacing" textLength="7" x="463.0499" y="556.8076">1</text><text fill="#000000" font-family="sans-serif" font-size="13" lengthAdjust="spacing" textLength="7" x="155.4659" y="697.6811">1</text></g><!--link Plugin to PlugType--><g id="link_Plugin_PlugType"><path codeLine="109" d="M477.98,570.3537 C426.77,606.9837 344.4896,665.8423 292.5396,703.0123 " fill="none" id="Plugin-to-PlugType" style="stroke:#181818;stroke-width:1.0;"/><polygon fill="#181818" points="287.66,706.5037,297.307,704.5197,291.7263,703.5942,292.6519,698.0136,287.66,706.5037" style="stroke:#181818;stroke-width:1.0;"/><text fill="#000000" font-family="sans-serif" font-size="13" lengthAdjust="spacing" textLength="32" x="367" y="663.042">has a</text><text fill="#000000" font-family="sans-serif" font-size="13" lengthAdjust="spacing" textLength="7" x="463.0499" y="591.3385">1</text><text fill="#000000" font-family="sans-serif" font-size="13" lengthAdjust="spacing" textLength="7" x="288.7368" y="695.285">1</text></g><!--reverse link Plugin to JobOpening--><g id="link_Plugin_JobOpening"><path codeLine="110" d="M565.8512,553.0972 C652.5812,575.3872 855.19,626.8637 1031,667.0137 C1128.63,689.3137 1243,712.8637 1308.82,726.1737 " fill="none" id="Plugin-backto-JobOpening" style="stroke:#181818;stroke-width:1.0;"/><polygon fill="#181818" points="560.04,551.6037,567.7611,557.718,564.8826,552.8482,569.7524,549.9698,560.04,551.6037" style="stroke:#181818;stroke-width:1.0;"/><text fill="#000000" font-family="sans-serif" font-size="13" lengthAdjust="spacing" textLength="48" x="1032" y="663.042">includes</text><text fill="#000000" font-family="sans-serif" font-size="13" lengthAdjust="spacing" textLength="22" x="568.0086" y="549.1379">0..2</text><text fill="#000000" font-family="sans-serif" font-size="13" lengthAdjust="spacing" textLength="7" x="1294.0693" y="720.4975">1</text></g><!--link Customer to EMail1--><g id="link_Customer_EMail1"><path codeLine="111" d="M2216,360.1837 C2216,402.9037 2216,463.5537 2216,502.2837 " fill="none" id="Customer-to-EMail1" style="stroke:#181818;stroke-width:1.0;"/><polygon fill="#181818" points="2216,508.2837,2220,499.2837,2216,503.2837,2212,499.2837,2216,508.2837" style="stroke:#181818;stroke-width:1.0;"/><text fill="#000000" font-family="sans-serif" font-size="13" lengthAdjust="spacing" textLength="39" x="2217" y="405.042">has an</text><text fill="#000000" font-family="sans-serif" font-size="13" lengthAdjust="spacing" textLength="7" x="2208.4641" y="381.8505">1</text><text fill="#000000" font-family="sans-serif" font-size="13" lengthAdjust="spacing" textLength="7" x="2208.2781" y="497.0196">1</text></g><!--reverse link Address2 to Customer--><g id="link_Address2_Customer"><path codeLine="113" d="M2216,205.1937 C2216,232.0837 2216,255.1637 2216,277.8237 " fill="none" id="Address2-backto-Customer" style="stroke:#181818;stroke-width:1.0;"/><polygon fill="#181818" points="2216,199.1937,2212,208.1937,2216,204.1937,2220,208.1937,2216,199.1937" style="stroke:#181818;stroke-width:1.0;"/><text fill="#000000" font-family="sans-serif" font-size="13" lengthAdjust="spacing" textLength="39" x="2217" y="244.042">has an</text></g><!--link Customer to Code--><g id="link_Customer_Code"><path codeLine="115" d="M2250.93,360.2437 C2265.35,377.3837 2281.94,397.8137 2296,417.0137 C2318.07,447.1437 2337.8736,478.1048 2353.3136,503.1748 " fill="none" id="Customer-to-Code" style="stroke:#181818;stroke-width:1.0;"/><polygon fill="#181818" points="2356.46,508.2837,2355.1463,498.5228,2353.838,504.0263,2348.3345,502.718,2356.46,508.2837" style="stroke:#181818;stroke-width:1.0;"/><text fill="#000000" font-family="sans-serif" font-size="13" lengthAdjust="spacing" textLength="69" x="2291" y="405.042">identified by</text></g><!--link Customer to Name1--><g id="link_Customer_Name1"><path codeLine="116" d="M2178.65,360.1037 C2164.18,376.8837 2148.2,397.0937 2136,417.0137 C2120.44,442.4137 2109.2654,467.5981 2099.8654,491.8881 " fill="none" id="Customer-to-Name1" style="stroke:#181818;stroke-width:1.0;"/><polygon fill="#181818" points="2097.7,497.4837,2104.6786,490.5339,2099.5045,492.8207,2097.2178,487.6466,2097.7,497.4837" style="stroke:#181818;stroke-width:1.0;"/><text fill="#000000" font-family="sans-serif" font-size="13" lengthAdjust="spacing" textLength="21" x="2155" y="405.042">has</text></g><!--link Customer to SystemUser--><g id="link_Customer_SystemUser"><path codeLine="117" d="M2169.19,332.9437 C2126.95,346.9537 2066.08,373.3637 2030,417.0137 C2004.08,448.3737 1984.5271,484.9597 1972.1571,510.5997 " fill="none" id="Customer-to-SystemUser" style="stroke:#181818;stroke-width:1.0;"/><polygon fill="#181818" points="1969.55,516.0037,1977.0634,509.6358,1971.7226,511.5004,1969.8581,506.1596,1969.55,516.0037" style="stroke:#181818;stroke-width:1.0;"/><text fill="#000000" font-family="sans-serif" font-size="13" lengthAdjust="spacing" textLength="71" x="2055" y="405.042">managed by</text></g><!--reverse link Mode to JobOpening--><g id="link_Mode_JobOpening"><path codeLine="118" d="M1584.8099,585.5781 C1572.1699,597.8781 1562.06,606.8937 1548,618.0137 C1506.21,651.0537 1455.03,683.4237 1417.1,706.0337 " fill="none" id="Mode-backto-JobOpening" style="stroke:#181818;stroke-width:1.0;"/><polygon fill="#181818" points="1589.11,581.3937,1579.8703,584.8036,1585.5266,584.8807,1585.4495,590.537,1589.11,581.3937" style="stroke:#181818;stroke-width:1.0;"/><text fill="#000000" font-family="sans-serif" font-size="13" lengthAdjust="spacing" textLength="48" x="1506" y="663.042">includes</text><text fill="#000000" font-family="sans-serif" font-size="13" lengthAdjust="spacing" textLength="7" x="1575.884" y="602.7795">1</text><text fill="#000000" font-family="sans-serif" font-size="13" lengthAdjust="spacing" textLength="7" x="1424.84" y="697.6512">1</text></g><!--reverse link JobFunction to JobOpening--><g id="link_JobFunction_JobOpening"><path codeLine="119" d="M1444.4358,586.4313 C1426.1458,620.2513 1402.96,663.1237 1384.68,696.9337 " fill="none" id="JobFunction-backto-JobOpening" style="stroke:#181818;stroke-width:1.0;"/><polygon fill="#181818" points="1447.29,581.1537,1439.4903,587.1674,1444.9115,585.5517,1446.5272,590.9729,1447.29,581.1537" style="stroke:#181818;stroke-width:1.0;"/><text fill="#000000" font-family="sans-serif" font-size="13" lengthAdjust="spacing" textLength="48" x="1411" y="663.042">includes</text><text fill="#000000" font-family="sans-serif" font-size="13" lengthAdjust="spacing" textLength="7" x="1436.4297" y="602.8159">1</text><text fill="#000000" font-family="sans-serif" font-size="13" lengthAdjust="spacing" textLength="7" x="1380.6911" y="685.7857">1</text></g><!--reverse link NumberOfVacancies to JobOpening--><g id="link_NumberOfVacancies_JobOpening"><path codeLine="120" d="M1302.6802,577.2466 C1315.4102,610.9466 1333.79,659.6437 1347.8,696.7537 " fill="none" id="NumberOfVacancies-backto-JobOpening" style="stroke:#181818;stroke-width:1.0;"/><polygon fill="#181818" points="1300.56,571.6337,1299.9984,581.4665,1302.3269,576.3111,1307.4823,578.6395,1300.56,571.6337" style="stroke:#181818;stroke-width:1.0;"/><text fill="#000000" font-family="sans-serif" font-size="13" lengthAdjust="spacing" textLength="48" x="1336" y="663.042">includes</text><text fill="#000000" font-family="sans-serif" font-size="13" lengthAdjust="spacing" textLength="7" x="1295.2224" y="593.9418">1</text><text fill="#000000" font-family="sans-serif" font-size="13" lengthAdjust="spacing" textLength="7" x="1337.8197" y="685.8856">1</text></g><!--reverse link Description to JobOpening--><g id="link_Description_JobOpening"><path codeLine="121" d="M1152.3918,585.3363 C1165.0318,597.6263 1175.09,606.6937 1189,618.0137 C1227.32,649.1937 1273.61,680.5837 1308.81,703.2937 " fill="none" id="Description-backto-JobOpening" style="stroke:#181818;stroke-width:1.0;"/><polygon fill="#181818" points="1148.09,581.1537,1151.7542,590.2955,1151.6748,584.6392,1157.3311,584.5598,1148.09,581.1537" style="stroke:#181818;stroke-width:1.0;"/><text fill="#000000" font-family="sans-serif" font-size="13" lengthAdjust="spacing" textLength="48" x="1255" y="663.042">includes</text><text fill="#000000" font-family="sans-serif" font-size="13" lengthAdjust="spacing" textLength="7" x="1146.5397" y="602.8159">1</text><text fill="#000000" font-family="sans-serif" font-size="13" lengthAdjust="spacing" textLength="7" x="1294.0579" y="694.543">1</text></g><!--reverse link Address1 to JobOpening--><g id="link_Address1_JobOpening"><path codeLine="122" d="M1016.9713,609.879 C1022.4113,614.169 1023.31,614.4637 1029,618.0137 C1119.37,674.3437 1240.13,708.8837 1308.94,725.3637 " fill="none" id="Address1-backto-JobOpening" style="stroke:#181818;stroke-width:1.0;"/><polygon fill="#181818" points="1012.26,606.1637,1016.85,614.8775,1016.1861,609.2598,1021.8038,608.5958,1012.26,606.1637" style="stroke:#181818;stroke-width:1.0;"/><text fill="#000000" font-family="sans-serif" font-size="13" lengthAdjust="spacing" textLength="48" x="1126" y="663.042">includes</text><text fill="#000000" font-family="sans-serif" font-size="13" lengthAdjust="spacing" textLength="7" x="1019.8635" y="609.8545">1</text><text fill="#000000" font-family="sans-serif" font-size="13" lengthAdjust="spacing" textLength="7" x="1293.8456" y="738.8385">1</text></g><!--reverse link ContractType to JobOpening--><g id="link_ContractType_JobOpening"><path codeLine="123" d="M1756.9418,576.1253 C1742.3918,591.7553 1727.22,605.6237 1707,618.0137 C1613.1,675.5437 1487.65,709.8837 1417.11,725.9537 " fill="none" id="ContractType-backto-JobOpening" style="stroke:#181818;stroke-width:1.0;"/><polygon fill="#181818" points="1761.03,571.7337,1751.9699,575.5957,1757.6232,575.3934,1757.8255,581.0466,1761.03,571.7337" style="stroke:#181818;stroke-width:1.0;"/><text fill="#000000" font-family="sans-serif" font-size="13" lengthAdjust="spacing" textLength="48" x="1647" y="663.042">includes</text><text fill="#000000" font-family="sans-serif" font-size="13" lengthAdjust="spacing" textLength="7" x="1748.2281" y="593.6851">1</text><text fill="#000000" font-family="sans-serif" font-size="13" lengthAdjust="spacing" textLength="7" x="1424.8513" y="720.248">1</text></g><!--link JobOpening to JobReference--><g id="link_JobOpening_JobReference"><path codeLine="124" d="M1417.15,762.0237 C1472.68,785.8237 1561.36,824.4237 1637,860.0137 C1642.76,862.7237 1643.3348,862.9685 1649.2948,865.8685 " fill="none" id="JobOpening-to-JobReference" style="stroke:#181818;stroke-width:1.0;"/><polygon fill="#181818" points="1654.69,868.4937,1648.3473,860.9591,1650.194,866.306,1644.847,868.1527,1654.69,868.4937" style="stroke:#181818;stroke-width:1.0;"/><text fill="#000000" font-family="sans-serif" font-size="13" lengthAdjust="spacing" textLength="48" x="1571" y="826.042">includes</text><text fill="#000000" font-family="sans-serif" font-size="13" lengthAdjust="spacing" textLength="7" x="1424.8967" y="761.1649">1</text><text fill="#000000" font-family="sans-serif" font-size="13" lengthAdjust="spacing" textLength="7" x="1640.0807" y="860.8038">1</text></g><!--reverse link Customer to JobOpening--><g id="link_Customer_JobOpening"><path codeLine="125" d="M2268.8578,324.7131 C2325.3678,332.2131 2412.11,353.3137 2455,417.0137 C2504.9,491.1137 2514.65,551.5137 2455,618.0137 C2384.93,696.1437 1627.97,727.8937 1417.2,735.2637 " fill="none" id="Customer-backto-JobOpening" style="stroke:#181818;stroke-width:1.0;"/><polygon fill="#181818" points="2262.91,323.9237,2271.3055,329.073,2267.8665,324.5815,2272.358,321.1425,2262.91,323.9237" style="stroke:#181818;stroke-width:1.0;"/><text fill="#000000" font-family="sans-serif" font-size="13" lengthAdjust="spacing" textLength="48" x="2497" y="545.542">includes</text><text fill="#000000" font-family="sans-serif" font-size="13" lengthAdjust="spacing" textLength="7" x="2270.629" y="320.435">1</text><text fill="#000000" font-family="sans-serif" font-size="13" lengthAdjust="spacing" textLength="7" x="1424.9534" y="730.809">1</text></g><!--link JobOpening to SetupStatus--><g id="link_JobOpening_SetupStatus"><path codeLine="126" d="M1363,779.2237 C1363,807.1637 1363,837.8337 1363,863.4037 " fill="none" id="JobOpening-to-SetupStatus" style="stroke:#181818;stroke-width:1.0;"/><polygon fill="#181818" points="1363,869.4037,1367,860.4037,1363,864.4037,1359,860.4037,1363,869.4037" style="stroke:#181818;stroke-width:1.0;"/></g><!--link JobOpening to RequirementsStatus--><g id="link_JobOpening_RequirementsStatus"><path codeLine="127" d="M1407.21,779.2237 C1437.93,807.1637 1473.8016,839.7963 1501.9116,865.3663 " fill="none" id="JobOpening-to-RequirementsStatus" style="stroke:#181818;stroke-width:1.0;"/><polygon fill="#181818" points="1506.35,869.4037,1502.3839,860.3887,1502.6513,866.0392,1497.0008,866.3066,1506.35,869.4037" style="stroke:#181818;stroke-width:1.0;"/></g><!--link JobOpening to InterviewPhaseStatus--><g id="link_JobOpening_InterviewPhaseStatus"><path codeLine="128" d="M1317.79,779.2237 C1286.38,807.1637 1249.6433,839.8462 1220.8933,865.4162 " fill="none" id="JobOpening-to-InterviewPhaseStatus" style="stroke:#181818;stroke-width:1.0;"/><polygon fill="#181818" points="1216.41,869.4037,1225.7933,866.4114,1220.1461,866.0808,1220.4767,860.4336,1216.41,869.4037" style="stroke:#181818;stroke-width:1.0;"/></g><!--reverse link RecruitmentProcess to Phase--><g id="link_RecruitmentProcess_Phase"><path codeLine="129" d="M984,954.2937 C984,977.5137 984,995.1137 984,1020.8737 " fill="none" id="RecruitmentProcess-backto-Phase" style="stroke:#181818;stroke-width:1.0;"/><polygon fill="#181818" points="984,942.2937,980,948.2937,984,954.2937,988,948.2937,984,942.2937" style="stroke:#181818;stroke-width:1.0;"/><text fill="#000000" font-family="sans-serif" font-size="13" lengthAdjust="spacing" textLength="36" x="985" y="987.042">part of</text><text fill="#000000" font-family="sans-serif" font-size="13" lengthAdjust="spacing" textLength="7" x="976.4641" y="963.9773">1</text><text fill="#000000" font-family="sans-serif" font-size="13" lengthAdjust="spacing" textLength="22" x="960.6594" y="1009.6087">4..5</text></g><!--link JobOpening to RecruitmentProcess--><g id="link_JobOpening_RecruitmentProcess"><path codeLine="130" d="M1308.7,762.0837 C1244.53,789.3437 1142.7325,832.5879 1069.1625,863.8379 " fill="none" id="JobOpening-to-RecruitmentProcess" style="stroke:#181818;stroke-width:1.0;"/><polygon fill="#181818" points="1063.64,866.1837,1073.4875,866.3467,1068.242,864.2289,1070.3598,858.9834,1063.64,866.1837" style="stroke:#181818;stroke-width:1.0;"/><text fill="#000000" font-family="sans-serif" font-size="13" lengthAdjust="spacing" textLength="48" x="1186" y="826.042">includes</text><text fill="#000000" font-family="sans-serif" font-size="13" lengthAdjust="spacing" textLength="7" x="1293.9331" y="761.2329">1</text><text fill="#000000" font-family="sans-serif" font-size="13" lengthAdjust="spacing" textLength="7" x="1071.5643" y="859.1025">1</text></g><!--SRC=[bLN9Rjim4BthAmXT2XImKmVjnIWA14w29a0M96qFHIyqDLROIfHAKYaCmr-KJ-WjNnPI51TjaUEBoU6RfzddtOEKfLWU7PKPPhBAipafyYEIOI5c2SKfntaKbPZymIcW-3QhKihGIPfoIB64U1SXzQlX2CNFJxmevFF_N-pv2PYaSglFHYb6M21pD4hxG5LfFkAi0bIiVmDf66YYEJOKk6UvS3B7Tt5w49_H_xOjmMdgonjqhp1bAmsvnhadgIK7iLnYVaupSDhD_I3TKn24qrBImWTIowpoFaZIgXAoo86Ff2aES-CpPhLgUdlPHGr_P7Jljq92_btebtqKaZglz661p0VrRqEva5he94h12upVuuwVpLJOivhvJ9yM3NFpzN75aoJX84IjsPoFlLNwToyvW6o9LYei7OmANnjIL4poDkedBKcHm86MhHJKH5aTl3jX2Y-BDRefWL6Mjh8ubiOx8BoYCbUIMruGwtTVx2Fm5OiB9e4_KlXt-u25JKV7-A2DDSWKdpu5iKnySNhX6bJBdBQYjw4CPqQalpCQeBPTEWMLyMVeOR1z-cC8gVuhrarCJVkvgufhwFoeNVSWgp8m9xYZtK4CT_2teXnqGaH0XFfonpTTJQeSCP5kieM2ThECSbpPYhpo5JcGroaQ5T7pYX4tf8BxAzKonOgkgtmD_6Rp0nFC28KcPZtnxh0iTaTfS7_TokYjysRX-JgpfZLdsZEcEr_2sJBbMdTdgWJSmGOuC08s8qxWAcmVDHjw4QFPx8l-SuiDBH5b9AjKEFgePe7rCKYzAep-iujg68GQLBF8DSWwaA3rjlr91zILhQ1g1Y3io3xCvySn-ZoRrJ3VtE67tMOqzccWMIgMZKMHtHKrbLFmxqwaBT8Jl6Tq2s7MOQtUVl2hLBtccAcvNslh5gnTQ5mPzYHehMbmhrEcLOAcc0RRSfy4XgF9qevdAv3wV8KLF9PQnNeORPq7FyIxJ_sft4KCBQIeltLhNzyhepxEvvzYip_HiiHSecBJyTDM-W3Bqlhm0W00]--></g></svg>