<?xml version="1.0" encoding="us-ascii" standalone="no"?><svg xmlns="http://www.w3.org/2000/svg" xmlns:xlink="http://www.w3.org/1999/xlink" contentStyleType="text/css" height="894px" preserveAspectRatio="none" style="width:2883px;height:894px;background:#FFFFFF;" version="1.1" viewBox="0 0 2883 894" width="2883px" zoomAndPan="magnify"><defs/><g><rect fill="#FFFFFF" height="714.7969" style="stroke:#181818;stroke-width:1.0;" width="10" x="31.5" y="90.6406"/><rect fill="#FFFFFF" height="28.5234" style="stroke:#181818;stroke-width:1.0;" width="10" x="401.5" y="111.1641"/><rect fill="#FFFFFF" height="628.2266" style="stroke:#181818;stroke-width:1.0;" width="10" x="401.5" y="168.2109"/><rect fill="#FFFFFF" height="85.5703" style="stroke:#181818;stroke-width:1.0;" width="10" x="851.5" y="270.0156"/><rect fill="#FFFFFF" height="383.8047" style="stroke:#181818;stroke-width:1.0;" width="10" x="851.5" y="384.1094"/><rect fill="#FFFFFF" height="28.5234" style="stroke:#181818;stroke-width:1.0;" width="10" x="1268.5" y="298.5391"/><rect fill="#FFFFFF" height="85.5703" style="stroke:#181818;stroke-width:1.0;" width="10" x="1436.5" y="412.6328"/><rect fill="#FFFFFF" height="114.0938" style="stroke:#181818;stroke-width:1.0;" width="10" x="2052.5" y="625.2969"/><rect fill="#FFFFFF" height="85.5703" style="stroke:#181818;stroke-width:1.0;" width="10" x="2290" y="653.8203"/><line style="stroke:#181818;stroke-width:0.5;stroke-dasharray:5.0,5.0;" x1="36" x2="36" y1="80.6406" y2="814.4375"/><line style="stroke:#181818;stroke-width:0.5;stroke-dasharray:5.0,5.0;" x1="406.5" x2="406.5" y1="80.6406" y2="814.4375"/><line style="stroke:#181818;stroke-width:0.5;stroke-dasharray:5.0,5.0;" x1="856.5" x2="856.5" y1="222.8516" y2="814.4375"/><line style="stroke:#181818;stroke-width:0.5;stroke-dasharray:5.0,5.0;" x1="1273.5" x2="1273.5" y1="80.6406" y2="814.4375"/><line style="stroke:#181818;stroke-width:0.5;stroke-dasharray:5.0,5.0;" x1="1441.5" x2="1441.5" y1="80.6406" y2="814.4375"/><line style="stroke:#181818;stroke-width:0.5;stroke-dasharray:5.0,5.0;" x1="1607.5" x2="1607.5" y1="80.6406" y2="814.4375"/><line style="stroke:#181818;stroke-width:0.5;stroke-dasharray:5.0,5.0;" x1="1772.5" x2="1772.5" y1="80.6406" y2="814.4375"/><line style="stroke:#181818;stroke-width:0.5;stroke-dasharray:5.0,5.0;" x1="1907.5" x2="1907.5" y1="80.6406" y2="814.4375"/><line style="stroke:#181818;stroke-width:0.5;stroke-dasharray:5.0,5.0;" x1="2057.5" x2="2057.5" y1="80.6406" y2="814.4375"/><line style="stroke:#181818;stroke-width:0.5;stroke-dasharray:5.0,5.0;" x1="2294.5" x2="2294.5" y1="80.6406" y2="814.4375"/><line style="stroke:#181818;stroke-width:0.5;stroke-dasharray:5.0,5.0;" x1="2549.5" x2="2549.5" y1="80.6406" y2="814.4375"/><line style="stroke:#181818;stroke-width:0.5;stroke-dasharray:5.0,5.0;" x1="2658.5" x2="2658.5" y1="80.6406" y2="814.4375"/><line style="stroke:#181818;stroke-width:0.5;stroke-dasharray:5.0,5.0;" x1="2801.5" x2="2801.5" y1="80.6406" y2="814.4375"/><text fill="#000000" font-family="sans-serif" font-size="14" lengthAdjust="spacing" textLength="57" x="5" y="77.6738">Operator</text><ellipse cx="36.5" cy="13.5" fill="#E3E3E3" rx="8" ry="8" style="stroke:#181818;stroke-width:0.5;"/><path d="M36.5,21.5 L36.5,48.5 M23.5,29.5 L49.5,29.5 M36.5,48.5 L23.5,63.5 M36.5,48.5 L49.5,63.5 " fill="none" style="stroke:#181818;stroke-width:0.5;"/><text fill="#000000" font-family="sans-serif" font-size="14" lengthAdjust="spacing" textLength="57" x="5" y="826.1113">Operator</text><ellipse cx="36.5" cy="837.5781" fill="#E3E3E3" rx="8" ry="8" style="stroke:#181818;stroke-width:0.5;"/><path d="M36.5,845.5781 L36.5,872.5781 M23.5,853.5781 L49.5,853.5781 M36.5,872.5781 L23.5,887.5781 M36.5,872.5781 L49.5,887.5781 " fill="none" style="stroke:#181818;stroke-width:0.5;"/><rect fill="#E3E3E3" height="45.2813" rx="2.5" ry="2.5" style="stroke:#181818;stroke-width:0.5;" width="144" x="334.5" y="34.3594"/><text fill="#000000" font-family="sans-serif" font-size="14" font-style="italic" lengthAdjust="spacing" textLength="95" x="359" y="54.0332">&#171;presentation&#187;</text><text fill="#000000" font-family="sans-serif" font-size="14" lengthAdjust="spacing" textLength="130" x="341.5" y="69.6738">RegisterCandidateUI</text><rect fill="#E3E3E3" height="45.2813" rx="2.5" ry="2.5" style="stroke:#181818;stroke-width:0.5;" width="144" x="334.5" y="813.4375"/><text fill="#000000" font-family="sans-serif" font-size="14" font-style="italic" lengthAdjust="spacing" textLength="95" x="359" y="833.1113">&#171;presentation&#187;</text><text fill="#000000" font-family="sans-serif" font-size="14" lengthAdjust="spacing" textLength="130" x="341.5" y="848.752">RegisterCandidateUI</text><text fill="#000000" font-family="sans-serif" font-size="14" font-style="italic" lengthAdjust="spacing" textLength="84" x="811.5" y="826.1113">&#171;application&#187;</text><text fill="#000000" font-family="sans-serif" font-size="14" lengthAdjust="spacing" textLength="180" x="763.5" y="841.752">RegisterCandidateController</text><ellipse cx="856.5" cy="860.7188" fill="#E3E3E3" rx="12" ry="12" style="stroke:#181818;stroke-width:0.5;"/><polygon fill="#181818" points="852.5,848.7188,858.5,843.7188,856.5,848.7188,858.5,853.7188,852.5,848.7188" style="stroke:#181818;stroke-width:1.0;"/><rect fill="#E3E3E3" height="45.2813" rx="2.5" ry="2.5" style="stroke:#181818;stroke-width:0.5;" width="140" x="1203.5" y="34.3594"/><text fill="#000000" font-family="sans-serif" font-size="14" font-style="italic" lengthAdjust="spacing" textLength="84" x="1231.5" y="54.0332">&#171;application&#187;</text><text fill="#000000" font-family="sans-serif" font-size="14" lengthAdjust="spacing" textLength="126" x="1210.5" y="69.6738">PasswordGenerator</text><rect fill="#E3E3E3" height="45.2813" rx="2.5" ry="2.5" style="stroke:#181818;stroke-width:0.5;" width="140" x="1203.5" y="813.4375"/><text fill="#000000" font-family="sans-serif" font-size="14" font-style="italic" lengthAdjust="spacing" textLength="84" x="1231.5" y="833.1113">&#171;application&#187;</text><text fill="#000000" font-family="sans-serif" font-size="14" lengthAdjust="spacing" textLength="126" x="1210.5" y="848.752">PasswordGenerator</text><rect fill="#E3E3E3" height="45.2813" rx="2.5" ry="2.5" style="stroke:#181818;stroke-width:0.5;" width="176" x="1353.5" y="34.3594"/><text fill="#000000" font-family="sans-serif" font-size="14" font-style="italic" lengthAdjust="spacing" textLength="59" x="1412" y="54.0332">&#171;builder&#187;</text><text fill="#000000" font-family="sans-serif" font-size="14" lengthAdjust="spacing" textLength="162" x="1360.5" y="69.6738">:UserManagementService</text><rect fill="#E3E3E3" height="45.2813" rx="2.5" ry="2.5" style="stroke:#181818;stroke-width:0.5;" width="176" x="1353.5" y="813.4375"/><text fill="#000000" font-family="sans-serif" font-size="14" font-style="italic" lengthAdjust="spacing" textLength="59" x="1412" y="833.1113">&#171;builder&#187;</text><text fill="#000000" font-family="sans-serif" font-size="14" lengthAdjust="spacing" textLength="162" x="1360.5" y="848.752">:UserManagementService</text><rect fill="#E3E3E3" height="45.2813" rx="2.5" ry="2.5" style="stroke:#181818;stroke-width:0.5;" width="137" x="1539.5" y="34.3594"/><text fill="#000000" font-family="sans-serif" font-size="14" font-style="italic" lengthAdjust="spacing" textLength="62" x="1577" y="54.0332">&#171;domain&#187;</text><text fill="#000000" font-family="sans-serif" font-size="14" lengthAdjust="spacing" textLength="123" x="1546.5" y="69.6738">:SystemUserBuilder</text><rect fill="#E3E3E3" height="45.2813" rx="2.5" ry="2.5" style="stroke:#181818;stroke-width:0.5;" width="137" x="1539.5" y="813.4375"/><text fill="#000000" font-family="sans-serif" font-size="14" font-style="italic" lengthAdjust="spacing" textLength="62" x="1577" y="833.1113">&#171;domain&#187;</text><text fill="#000000" font-family="sans-serif" font-size="14" lengthAdjust="spacing" textLength="123" x="1546.5" y="848.752">:SystemUserBuilder</text><rect fill="#E3E3E3" height="45.2813" rx="2.5" ry="2.5" style="stroke:#181818;stroke-width:0.5;" width="172" x="1686.5" y="34.3594"/><text fill="#000000" font-family="sans-serif" font-size="14" font-style="italic" lengthAdjust="spacing" textLength="51" x="1747" y="54.0332">&#171;Event&#187;</text><text fill="#000000" font-family="sans-serif" font-size="14" lengthAdjust="spacing" textLength="158" x="1693.5" y="69.6738">:RegisterCandidateEvent</text><rect fill="#E3E3E3" height="45.2813" rx="2.5" ry="2.5" style="stroke:#181818;stroke-width:0.5;" width="172" x="1686.5" y="813.4375"/><text fill="#000000" font-family="sans-serif" font-size="14" font-style="italic" lengthAdjust="spacing" textLength="51" x="1747" y="833.1113">&#171;Event&#187;</text><text fill="#000000" font-family="sans-serif" font-size="14" lengthAdjust="spacing" textLength="158" x="1693.5" y="848.752">:RegisterCandidateEvent</text><rect fill="#E3E3E3" height="29.6406" rx="2.5" ry="2.5" style="stroke:#181818;stroke-width:0.5;" width="78" x="1868.5" y="50"/><text fill="#000000" font-family="sans-serif" font-size="14" lengthAdjust="spacing" textLength="64" x="1875.5" y="69.6738">Dispacher</text><rect fill="#E3E3E3" height="29.6406" rx="2.5" ry="2.5" style="stroke:#181818;stroke-width:0.5;" width="78" x="1868.5" y="813.4375"/><text fill="#000000" font-family="sans-serif" font-size="14" lengthAdjust="spacing" textLength="64" x="1875.5" y="833.1113">Dispacher</text><rect fill="#E3E3E3" height="29.6406" rx="2.5" ry="2.5" style="stroke:#181818;stroke-width:0.5;" width="202" x="1956.5" y="50"/><text fill="#000000" font-family="sans-serif" font-size="14" lengthAdjust="spacing" textLength="188" x="1963.5" y="69.6738">:RegisterCandidateWatchDog</text><rect fill="#E3E3E3" height="29.6406" rx="2.5" ry="2.5" style="stroke:#181818;stroke-width:0.5;" width="202" x="1956.5" y="813.4375"/><text fill="#000000" font-family="sans-serif" font-size="14" lengthAdjust="spacing" textLength="188" x="1963.5" y="833.1113">:RegisterCandidateWatchDog</text><rect fill="#E3E3E3" height="29.6406" rx="2.5" ry="2.5" style="stroke:#181818;stroke-width:0.5;" width="253" x="2168.5" y="50"/><text fill="#000000" font-family="sans-serif" font-size="14" lengthAdjust="spacing" textLength="239" x="2175.5" y="69.6738">:RegisterCandidateOnEventController</text><rect fill="#E3E3E3" height="29.6406" rx="2.5" ry="2.5" style="stroke:#181818;stroke-width:0.5;" width="253" x="2168.5" y="813.4375"/><text fill="#000000" font-family="sans-serif" font-size="14" lengthAdjust="spacing" textLength="239" x="2175.5" y="833.1113">:RegisterCandidateOnEventController</text><rect fill="#E3E3E3" height="45.2813" rx="2.5" ry="2.5" style="stroke:#181818;stroke-width:0.5;" width="83" x="2508.5" y="34.3594"/><text fill="#000000" font-family="sans-serif" font-size="14" font-style="italic" lengthAdjust="spacing" textLength="62" x="2519" y="54.0332">&#171;domain&#187;</text><text fill="#000000" font-family="sans-serif" font-size="14" lengthAdjust="spacing" textLength="69" x="2515.5" y="69.6738">:Candidate</text><rect fill="#E3E3E3" height="45.2813" rx="2.5" ry="2.5" style="stroke:#181818;stroke-width:0.5;" width="83" x="2508.5" y="813.4375"/><text fill="#000000" font-family="sans-serif" font-size="14" font-style="italic" lengthAdjust="spacing" textLength="62" x="2519" y="833.1113">&#171;domain&#187;</text><text fill="#000000" font-family="sans-serif" font-size="14" lengthAdjust="spacing" textLength="69" x="2515.5" y="848.752">:Candidate</text><rect fill="#E3E3E3" height="45.2813" rx="2.5" ry="2.5" style="stroke:#181818;stroke-width:0.5;" width="115" x="2601.5" y="34.3594"/><text fill="#000000" font-family="sans-serif" font-size="14" font-style="italic" lengthAdjust="spacing" textLength="79" x="2619.5" y="54.0332">&#171;repository&#187;</text><text fill="#000000" font-family="sans-serif" font-size="14" lengthAdjust="spacing" textLength="101" x="2608.5" y="69.6738">:UserRepository</text><rect fill="#E3E3E3" height="45.2813" rx="2.5" ry="2.5" style="stroke:#181818;stroke-width:0.5;" width="115" x="2601.5" y="813.4375"/><text fill="#000000" font-family="sans-serif" font-size="14" font-style="italic" lengthAdjust="spacing" textLength="79" x="2619.5" y="833.1113">&#171;repository&#187;</text><text fill="#000000" font-family="sans-serif" font-size="14" lengthAdjust="spacing" textLength="101" x="2608.5" y="848.752">:UserRepository</text><rect fill="#E3E3E3" height="45.2813" rx="2.5" ry="2.5" style="stroke:#181818;stroke-width:0.5;" width="151" x="2726.5" y="34.3594"/><text fill="#000000" font-family="sans-serif" font-size="14" font-style="italic" lengthAdjust="spacing" textLength="79" x="2762.5" y="54.0332">&#171;repository&#187;</text><text fill="#000000" font-family="sans-serif" font-size="14" lengthAdjust="spacing" textLength="137" x="2733.5" y="69.6738">:CandidateRepository</text><rect fill="#E3E3E3" height="45.2813" rx="2.5" ry="2.5" style="stroke:#181818;stroke-width:0.5;" width="151" x="2726.5" y="813.4375"/><text fill="#000000" font-family="sans-serif" font-size="14" font-style="italic" lengthAdjust="spacing" textLength="79" x="2762.5" y="833.1113">&#171;repository&#187;</text><text fill="#000000" font-family="sans-serif" font-size="14" lengthAdjust="spacing" textLength="137" x="2733.5" y="848.752">:CandidateRepository</text><rect fill="#FFFFFF" height="714.7969" style="stroke:#181818;stroke-width:1.0;" width="10" x="31.5" y="90.6406"/><rect fill="#FFFFFF" height="28.5234" style="stroke:#181818;stroke-width:1.0;" width="10" x="401.5" y="111.1641"/><rect fill="#FFFFFF" height="628.2266" style="stroke:#181818;stroke-width:1.0;" width="10" x="401.5" y="168.2109"/><rect fill="#FFFFFF" height="85.5703" style="stroke:#181818;stroke-width:1.0;" width="10" x="851.5" y="270.0156"/><rect fill="#FFFFFF" height="383.8047" style="stroke:#181818;stroke-width:1.0;" width="10" x="851.5" y="384.1094"/><rect fill="#FFFFFF" height="28.5234" style="stroke:#181818;stroke-width:1.0;" width="10" x="1268.5" y="298.5391"/><rect fill="#FFFFFF" height="85.5703" style="stroke:#181818;stroke-width:1.0;" width="10" x="1436.5" y="412.6328"/><rect fill="#FFFFFF" height="114.0938" style="stroke:#181818;stroke-width:1.0;" width="10" x="2052.5" y="625.2969"/><rect fill="#FFFFFF" height="85.5703" style="stroke:#181818;stroke-width:1.0;" width="10" x="2290" y="653.8203"/><polygon fill="#181818" points="389.5,107.1641,399.5,111.1641,389.5,115.1641,393.5,111.1641" style="stroke:#181818;stroke-width:1.0;"/><line style="stroke:#181818;stroke-width:1.0;" x1="41.5" x2="395.5" y1="111.1641" y2="111.1641"/><text fill="#000000" font-family="sans-serif" font-size="13" font-weight="bold" lengthAdjust="spacing" textLength="7" x="48.5" y="106.4092">1</text><text fill="#000000" font-family="sans-serif" font-size="13" lengthAdjust="spacing" textLength="165" x="59.5" y="106.4092">Asks to register a Candidate</text><polygon fill="#181818" points="52.5,135.6875,42.5,139.6875,52.5,143.6875,48.5,139.6875" style="stroke:#181818;stroke-width:1.0;"/><line style="stroke:#181818;stroke-width:1.0;stroke-dasharray:2.0,2.0;" x1="46.5" x2="405.5" y1="139.6875" y2="139.6875"/><text fill="#000000" font-family="sans-serif" font-size="13" font-weight="bold" lengthAdjust="spacing" textLength="7" x="58.5" y="134.9326">2</text><text fill="#000000" font-family="sans-serif" font-size="13" lengthAdjust="spacing" textLength="109" x="69.5" y="134.9326">Ask Candidate info</text><polygon fill="#181818" points="389.5,164.2109,399.5,168.2109,389.5,172.2109,393.5,168.2109" style="stroke:#181818;stroke-width:1.0;"/><line style="stroke:#181818;stroke-width:1.0;" x1="41.5" x2="395.5" y1="168.2109" y2="168.2109"/><text fill="#000000" font-family="sans-serif" font-size="13" font-weight="bold" lengthAdjust="spacing" textLength="7" x="48.5" y="163.4561">3</text><text fill="#000000" font-family="sans-serif" font-size="13" lengthAdjust="spacing" textLength="330" x="59.5" y="163.4561">First Name, Last Name, E-mail, Address, Phone Number</text><polygon fill="#181818" points="751.5,192.7344,761.5,196.7344,751.5,200.7344,755.5,196.7344" style="stroke:#181818;stroke-width:1.0;"/><line style="stroke:#181818;stroke-width:1.0;" x1="411.5" x2="757.5" y1="196.7344" y2="196.7344"/><text fill="#000000" font-family="sans-serif" font-size="13" font-weight="bold" lengthAdjust="spacing" textLength="7" x="418.5" y="191.9795">4</text><text fill="#000000" font-family="sans-serif" font-size="13" lengthAdjust="spacing" textLength="36" x="429.5" y="191.9795">create</text><text fill="#000000" font-family="sans-serif" font-size="14" font-style="italic" lengthAdjust="spacing" textLength="84" x="811.5" y="220.8848">&#171;application&#187;</text><text fill="#000000" font-family="sans-serif" font-size="14" lengthAdjust="spacing" textLength="180" x="763.5" y="236.5254">RegisterCandidateController</text><ellipse cx="856.5" cy="192.2109" fill="#E3E3E3" rx="12" ry="12" style="stroke:#181818;stroke-width:0.5;"/><polygon fill="#181818" points="852.5,180.2109,858.5,175.2109,856.5,180.2109,858.5,185.2109,852.5,180.2109" style="stroke:#181818;stroke-width:1.0;"/><polygon fill="#181818" points="839.5,266.0156,849.5,270.0156,839.5,274.0156,843.5,270.0156" style="stroke:#181818;stroke-width:1.0;"/><line style="stroke:#181818;stroke-width:1.0;" x1="411.5" x2="845.5" y1="270.0156" y2="270.0156"/><text fill="#000000" font-family="sans-serif" font-size="13" font-weight="bold" lengthAdjust="spacing" textLength="7" x="418.5" y="265.2607">5</text><text fill="#000000" font-family="sans-serif" font-size="13" lengthAdjust="spacing" textLength="115" x="429.5" y="265.2607">generatePassword()</text><polygon fill="#181818" points="1256.5,294.5391,1266.5,298.5391,1256.5,302.5391,1260.5,298.5391" style="stroke:#181818;stroke-width:1.0;"/><line style="stroke:#181818;stroke-width:1.0;" x1="861.5" x2="1262.5" y1="298.5391" y2="298.5391"/><text fill="#000000" font-family="sans-serif" font-size="13" font-weight="bold" lengthAdjust="spacing" textLength="7" x="868.5" y="293.7842">6</text><text fill="#000000" font-family="sans-serif" font-size="13" lengthAdjust="spacing" textLength="115" x="879.5" y="293.7842">generatePassword()</text><polygon fill="#181818" points="872.5,323.0625,862.5,327.0625,872.5,331.0625,868.5,327.0625" style="stroke:#181818;stroke-width:1.0;"/><line style="stroke:#181818;stroke-width:1.0;stroke-dasharray:2.0,2.0;" x1="866.5" x2="1272.5" y1="327.0625" y2="327.0625"/><text fill="#000000" font-family="sans-serif" font-size="13" font-weight="bold" lengthAdjust="spacing" textLength="7" x="878.5" y="322.3076">7</text><text fill="#000000" font-family="sans-serif" font-size="13" lengthAdjust="spacing" textLength="55" x="889.5" y="322.3076">password</text><polygon fill="#181818" points="422.5,351.5859,412.5,355.5859,422.5,359.5859,418.5,355.5859" style="stroke:#181818;stroke-width:1.0;"/><line style="stroke:#181818;stroke-width:1.0;stroke-dasharray:2.0,2.0;" x1="416.5" x2="855.5" y1="355.5859" y2="355.5859"/><text fill="#000000" font-family="sans-serif" font-size="13" font-weight="bold" lengthAdjust="spacing" textLength="7" x="428.5" y="350.8311">8</text><text fill="#000000" font-family="sans-serif" font-size="13" lengthAdjust="spacing" textLength="55" x="439.5" y="350.8311">password</text><polygon fill="#181818" points="839.5,380.1094,849.5,384.1094,839.5,388.1094,843.5,384.1094" style="stroke:#181818;stroke-width:1.0;"/><line style="stroke:#181818;stroke-width:1.0;" x1="411.5" x2="845.5" y1="384.1094" y2="384.1094"/><text fill="#000000" font-family="sans-serif" font-size="13" font-weight="bold" lengthAdjust="spacing" textLength="7" x="418.5" y="379.3545">9</text><text fill="#000000" font-family="sans-serif" font-size="13" lengthAdjust="spacing" textLength="410" x="429.5" y="379.3545">registerCandidate(firstName, lastName, email, address, phone number)</text><polygon fill="#181818" points="1424.5,408.6328,1434.5,412.6328,1424.5,416.6328,1428.5,412.6328" style="stroke:#181818;stroke-width:1.0;"/><line style="stroke:#181818;stroke-width:1.0;" x1="861.5" x2="1430.5" y1="412.6328" y2="412.6328"/><text fill="#000000" font-family="sans-serif" font-size="13" font-weight="bold" lengthAdjust="spacing" textLength="14" x="868.5" y="407.8779">10</text><text fill="#000000" font-family="sans-serif" font-size="13" lengthAdjust="spacing" textLength="431" x="886.5" y="407.8779">registerNewUser(password, firstName, lastName, email, roles, createdOn);</text><polygon fill="#181818" points="1596,437.1563,1606,441.1563,1596,445.1563,1600,441.1563" style="stroke:#181818;stroke-width:1.0;"/><line style="stroke:#181818;stroke-width:1.0;" x1="1446.5" x2="1602" y1="441.1563" y2="441.1563"/><text fill="#000000" font-family="sans-serif" font-size="13" font-weight="bold" lengthAdjust="spacing" textLength="14" x="1453.5" y="436.4014">11</text><text fill="#000000" font-family="sans-serif" font-size="13" lengthAdjust="spacing" textLength="35" x="1471.5" y="436.4014">build()</text><polygon fill="#181818" points="2647,465.6797,2657,469.6797,2647,473.6797,2651,469.6797" style="stroke:#181818;stroke-width:1.0;"/><line style="stroke:#181818;stroke-width:1.0;" x1="1446.5" x2="2653" y1="469.6797" y2="469.6797"/><text fill="#000000" font-family="sans-serif" font-size="13" font-weight="bold" lengthAdjust="spacing" textLength="14" x="1453.5" y="464.9248">12</text><text fill="#000000" font-family="sans-serif" font-size="13" lengthAdjust="spacing" textLength="59" x="1471.5" y="464.9248">save(user)</text><polygon fill="#181818" points="872.5,494.2031,862.5,498.2031,872.5,502.2031,868.5,498.2031" style="stroke:#181818;stroke-width:1.0;"/><line style="stroke:#181818;stroke-width:1.0;stroke-dasharray:2.0,2.0;" x1="866.5" x2="1440.5" y1="498.2031" y2="498.2031"/><text fill="#000000" font-family="sans-serif" font-size="13" font-weight="bold" lengthAdjust="spacing" textLength="14" x="878.5" y="493.4482">13</text><text fill="#000000" font-family="sans-serif" font-size="13" lengthAdjust="spacing" textLength="25" x="896.5" y="493.4482">user</text><line style="stroke:#181818;stroke-width:1.0;" x1="861.5" x2="903.5" y1="526.7266" y2="526.7266"/><line style="stroke:#181818;stroke-width:1.0;" x1="903.5" x2="903.5" y1="526.7266" y2="539.7266"/><line style="stroke:#181818;stroke-width:1.0;" x1="862.5" x2="903.5" y1="539.7266" y2="539.7266"/><polygon fill="#181818" points="872.5,535.7266,862.5,539.7266,872.5,543.7266,868.5,539.7266" style="stroke:#181818;stroke-width:1.0;"/><text fill="#000000" font-family="sans-serif" font-size="13" font-weight="bold" lengthAdjust="spacing" textLength="14" x="868.5" y="521.9717">14</text><text fill="#000000" font-family="sans-serif" font-size="13" lengthAdjust="spacing" textLength="375" x="886.5" y="521.9717">CandidateMananger = authz.session().get().authenticatedUser() ;</text><polygon fill="#181818" points="1760.5,564.25,1770.5,568.25,1760.5,572.25,1764.5,568.25" style="stroke:#181818;stroke-width:1.0;"/><line style="stroke:#181818;stroke-width:1.0;" x1="861.5" x2="1766.5" y1="568.25" y2="568.25"/><text fill="#000000" font-family="sans-serif" font-size="13" font-weight="bold" lengthAdjust="spacing" textLength="14" x="868.5" y="563.4951">15</text><text fill="#000000" font-family="sans-serif" font-size="13" lengthAdjust="spacing" textLength="288" x="886.5" y="563.4951">new RegisterCandidateEvent(user, phone number)</text><polygon fill="#181818" points="1895.5,592.7734,1905.5,596.7734,1895.5,600.7734,1899.5,596.7734" style="stroke:#181818;stroke-width:1.0;"/><line style="stroke:#181818;stroke-width:1.0;" x1="861.5" x2="1901.5" y1="596.7734" y2="596.7734"/><text fill="#000000" font-family="sans-serif" font-size="13" font-weight="bold" lengthAdjust="spacing" textLength="14" x="868.5" y="592.0186">16</text><text fill="#000000" font-family="sans-serif" font-size="13" lengthAdjust="spacing" textLength="79" x="886.5" y="592.0186">publish(event)</text><polygon fill="#181818" points="2040.5,621.2969,2050.5,625.2969,2040.5,629.2969,2044.5,625.2969" style="stroke:#181818;stroke-width:1.0;"/><line style="stroke:#181818;stroke-width:1.0;" x1="1907.5" x2="2046.5" y1="625.2969" y2="625.2969"/><text fill="#000000" font-family="sans-serif" font-size="13" font-weight="bold" lengthAdjust="spacing" textLength="14" x="1914.5" y="620.542">17</text><text fill="#000000" font-family="sans-serif" font-size="13" lengthAdjust="spacing" textLength="84" x="1932.5" y="620.542">onEvent(event)</text><polygon fill="#181818" points="2278,649.8203,2288,653.8203,2278,657.8203,2282,653.8203" style="stroke:#181818;stroke-width:1.0;"/><line style="stroke:#181818;stroke-width:1.0;" x1="2062.5" x2="2284" y1="653.8203" y2="653.8203"/><text fill="#000000" font-family="sans-serif" font-size="13" font-weight="bold" lengthAdjust="spacing" textLength="14" x="2069.5" y="649.0654">18</text><text fill="#000000" font-family="sans-serif" font-size="13" lengthAdjust="spacing" textLength="139" x="2087.5" y="649.0654">registerCandidate(event)</text><polygon fill="#181818" points="2538,678.3438,2548,682.3438,2538,686.3438,2542,682.3438" style="stroke:#181818;stroke-width:1.0;"/><line style="stroke:#181818;stroke-width:1.0;" x1="2300" x2="2544" y1="682.3438" y2="682.3438"/><text fill="#000000" font-family="sans-serif" font-size="13" font-weight="bold" lengthAdjust="spacing" textLength="14" x="2307" y="677.5889">19</text><text fill="#000000" font-family="sans-serif" font-size="13" lengthAdjust="spacing" textLength="208" x="2325" y="677.5889">new Candidate(user, phone number)</text><polygon fill="#181818" points="2790,706.8672,2800,710.8672,2790,714.8672,2794,710.8672" style="stroke:#181818;stroke-width:1.0;"/><line style="stroke:#181818;stroke-width:1.0;" x1="2300" x2="2796" y1="710.8672" y2="710.8672"/><text fill="#000000" font-family="sans-serif" font-size="13" font-weight="bold" lengthAdjust="spacing" textLength="14" x="2307" y="706.1123">20</text><text fill="#000000" font-family="sans-serif" font-size="13" lengthAdjust="spacing" textLength="92" x="2325" y="706.1123">save(Candidate)</text><polygon fill="#181818" points="2068.5,735.3906,2058.5,739.3906,2068.5,743.3906,2064.5,739.3906" style="stroke:#181818;stroke-width:1.0;"/><line style="stroke:#181818;stroke-width:1.0;stroke-dasharray:2.0,2.0;" x1="2062.5" x2="2294" y1="739.3906" y2="739.3906"/><text fill="#000000" font-family="sans-serif" font-size="13" font-weight="bold" lengthAdjust="spacing" textLength="14" x="2074.5" y="734.6357">21</text><text fill="#000000" font-family="sans-serif" font-size="13" lengthAdjust="spacing" textLength="58" x="2092.5" y="734.6357">Candidate</text><polygon fill="#181818" points="422.5,763.9141,412.5,767.9141,422.5,771.9141,418.5,767.9141" style="stroke:#181818;stroke-width:1.0;"/><line style="stroke:#181818;stroke-width:1.0;stroke-dasharray:2.0,2.0;" x1="416.5" x2="855.5" y1="767.9141" y2="767.9141"/><text fill="#000000" font-family="sans-serif" font-size="13" font-weight="bold" lengthAdjust="spacing" textLength="14" x="428.5" y="763.1592">22</text><text fill="#000000" font-family="sans-serif" font-size="13" lengthAdjust="spacing" textLength="115" x="446.5" y="763.1592">CandidateMananger</text><polygon fill="#181818" points="52.5,792.4375,42.5,796.4375,52.5,800.4375,48.5,796.4375" style="stroke:#181818;stroke-width:1.0;"/><line style="stroke:#181818;stroke-width:1.0;stroke-dasharray:2.0,2.0;" x1="46.5" x2="405.5" y1="796.4375" y2="796.4375"/><text fill="#000000" font-family="sans-serif" font-size="13" font-weight="bold" lengthAdjust="spacing" textLength="14" x="58.5" y="791.6826">23</text><text fill="#000000" font-family="sans-serif" font-size="13" lengthAdjust="spacing" textLength="82" x="76.5" y="791.6826">Candidate info</text><!--SRC=[ZLLBJ-Cm4BxdLrXSQ54Bzsot4ijZXRGB28GucsH8B18xQpljTd_zZft4SH87saFgnymtd-TvccjTgVZYeYeertLPd2UYl53mfmQUm3fbD9EqZ2BrmNX5SKbAmKMIIr42qR86xwQYoGVDu5aV2Y0I4arvLlW2AgUfs3EUaNTQA8WYMcl1w_8D9AuJBIHvg41Iiw2AN9gJ25KrIrY5zCWJP4nfa5UKfoob6bxkZ21-DvjAWWAkgMQ2RxTH8hYMefYgN3KN1LWRtcwpeLLLiAH3y0sVF5AbzaAcFu4t14-CTdSwqHqgnoyAv6_AqJabKdm6kMC9M8HsZG1lDIjIa6F3yVC1wPS6uKSZOVNC_bgKb75KJUrYeZbv-iqEhLlry1L2sVyHqZLJ6DgySPZRV6NibUealnPPs5vt-nNA0xUC-Z25uIPY8rmdQDMdZekYqs6uGIfZ0Ml0OCBVnctUiScuVeSGGu0dg8HYc2U7MvlOXvRtw3IG9xsC2tH_X5Qbsqm2xbuvmfZNjsN7TgZILXl1drsHzTRKLKmkrOSYMc11Dpudb3WxLjmXlDpPFMgjKTcYMFLUdZ3-BgnG2cCrpsfCRfbKcjpJ4bRa5tNBcpN6grYHopJ5QbShyfWB3kI-RI4XDlYFc7rYd9tXcn89Xdta-FeICI5PK-NGrVTYESJsyeoqFw-H89fh3F4SrW2lktCtJdyze8PmrLZKywI32R9gNViPWFUk7YFW83cklyMx2LWJf89sAsYYHRjeLJPQJSCFU65WVSQnNR_iETp3tjJ8edlNYdp61P40cJG9a3xmvRSfZzQ6k-Xi6WUwjXiJsx2zQ8x4lAABYQ8xMDJAF7igFmwnaOj2uUc8pVZ6Zv2BZ1axF4E1xmIdRVxlN64eS4WjbkSPQFoQKsoTPdP1QZsv9BrJGhRMsvdn4HCE-vdPOby_Je4WU3zYC5dhjuAfV046mfDt8W4ktMX1Eg8P2nDrvz7vkTI9pae4B4-c40cLol5afbDjbjNKj75aC-UQiFG4Gf4u7XXn-zHkCzj9Uyyw0ib2pKUl7pEXOZZ2MyVfkP27kmwoD6rpKb3HCRqJXyzwsqx2qHGSJC3_]--></g></svg>