<?xml version="1.0" encoding="us-ascii" standalone="no"?><svg xmlns="http://www.w3.org/2000/svg" xmlns:xlink="http://www.w3.org/1999/xlink" contentStyleType="text/css" height="931.7px" preserveAspectRatio="none" style="width:858px;height:931px;background:#FFFFFF;" version="1.1" viewBox="0 0 858 931" width="858.9px" zoomAndPan="magnify"><defs/><g><text fill="#000000" font-family="sans-serif" font-size="9.8" font-weight="bold" lengthAdjust="spacing" textLength="426.3" x="211.4" y="15.8717">"US 2000a  As Operator, I want to register a candidate and create a corresponding user</text><!--class UI--><g id="elem_UI"><rect codeLine="4" fill="#F1F1F1" height="33.6" id="UI" rx="1.75" ry="1.75" style="stroke:#181818;stroke-width:0.3499999999999999;" width="113.4" x="381.5" y="30.5484"/><ellipse cx="392" cy="41.7484" fill="#ADD1B2" rx="7.7" ry="7.7" style="stroke:#181818;stroke-width:0.6999999999999998;"/><path d="M393.9359,38.8609 Q394.0453,38.7078 394.1766,38.6312 Q394.3078,38.5547 394.4609,38.5547 Q394.7234,38.5547 394.8875,38.7406 Q395.0516,38.9156 395.0516,39.3422 L395.0516,40.3594 Q395.0516,40.7859 394.8875,40.9719 Q394.7234,41.1578 394.4609,41.1578 Q394.2203,41.1578 394.0781,41.0156 Q393.9359,40.8844 393.8594,40.5234 Q393.8266,40.2719 393.6953,40.1406 Q393.4656,39.8781 393.0391,39.725 Q392.6125,39.5719 392.175,39.5719 Q391.6391,39.5719 391.1906,39.8016 Q390.7531,40.0312 390.4031,40.5562 Q390.0641,41.0812 390.0641,41.8031 L390.0641,42.5687 Q390.0641,43.4328 390.6875,44.0125 Q391.3109,44.5812 392.4266,44.5812 Q393.0828,44.5812 393.5422,44.4062 Q393.8156,44.2969 394.1109,43.9906 Q394.2969,43.8047 394.3953,43.75 Q394.5047,43.6953 394.6469,43.6953 Q394.8766,43.6953 395.0516,43.8812 Q395.2375,44.0562 395.2375,44.2969 Q395.2375,44.5375 394.9969,44.8219 Q394.6469,45.2266 394.0891,45.4562 Q393.3344,45.7734 392.4266,45.7734 Q391.3656,45.7734 390.5234,45.3359 Q389.8344,44.9859 389.3531,44.2422 Q388.8719,43.4875 388.8719,42.5906 L388.8719,41.7812 Q388.8719,40.8516 389.2984,40.0531 Q389.7359,39.2437 390.5016,38.8172 Q391.2672,38.3797 392.1312,38.3797 Q392.6453,38.3797 393.0937,38.5 Q393.5531,38.6094 393.9359,38.8609 Z " fill="#000000"/><text fill="#000000" font-family="sans-serif" font-size="9.8" lengthAdjust="spacing" textLength="91" x="401.8" y="45.1459">RegisterCandidateUI</text><line style="stroke:#181818;stroke-width:0.3499999999999999;" x1="382.2" x2="494.2" y1="52.9484" y2="52.9484"/><line style="stroke:#181818;stroke-width:0.3499999999999999;" x1="382.2" x2="494.2" y1="58.5484" y2="58.5484"/></g><!--class PersistenceContext--><g id="elem_PersistenceContext"><rect codeLine="7" fill="#F1F1F1" height="44.5484" id="PersistenceContext" rx="1.75" ry="1.75" style="stroke:#181818;stroke-width:0.3499999999999999;" width="107.8" x="293.3" y="429.8984"/><ellipse cx="303.8" cy="441.0984" fill="#ADD1B2" rx="7.7" ry="7.7" style="stroke:#181818;stroke-width:0.6999999999999998;"/><path d="M305.7359,438.2109 Q305.8453,438.0578 305.9766,437.9812 Q306.1078,437.9047 306.2609,437.9047 Q306.5234,437.9047 306.6875,438.0906 Q306.8516,438.2656 306.8516,438.6922 L306.8516,439.7094 Q306.8516,440.1359 306.6875,440.3219 Q306.5234,440.5078 306.2609,440.5078 Q306.0203,440.5078 305.8781,440.3656 Q305.7359,440.2344 305.6594,439.8734 Q305.6266,439.6219 305.4953,439.4906 Q305.2656,439.2281 304.8391,439.075 Q304.4125,438.9219 303.975,438.9219 Q303.4391,438.9219 302.9906,439.1516 Q302.5531,439.3812 302.2031,439.9062 Q301.8641,440.4312 301.8641,441.1531 L301.8641,441.9187 Q301.8641,442.7828 302.4875,443.3625 Q303.1109,443.9312 304.2266,443.9312 Q304.8828,443.9312 305.3422,443.7562 Q305.6156,443.6469 305.9109,443.3406 Q306.0969,443.1547 306.1953,443.1 Q306.3047,443.0453 306.4469,443.0453 Q306.6766,443.0453 306.8516,443.2312 Q307.0375,443.4062 307.0375,443.6469 Q307.0375,443.8875 306.7969,444.1719 Q306.4469,444.5766 305.8891,444.8062 Q305.1344,445.1234 304.2266,445.1234 Q303.1656,445.1234 302.3234,444.6859 Q301.6344,444.3359 301.1531,443.5922 Q300.6719,442.8375 300.6719,441.9406 L300.6719,441.1312 Q300.6719,440.2016 301.0984,439.4031 Q301.5359,438.5937 302.3016,438.1672 Q303.0672,437.7297 303.9312,437.7297 Q304.4453,437.7297 304.8937,437.85 Q305.3531,437.9594 305.7359,438.2109 Z " fill="#000000"/><text fill="#000000" font-family="sans-serif" font-size="9.8" lengthAdjust="spacing" textLength="85.4" x="313.6" y="444.4959">PersistenceContext</text><line style="stroke:#181818;stroke-width:0.3499999999999999;" x1="294" x2="400.4" y1="452.2984" y2="452.2984"/><line style="stroke:#181818;stroke-width:0.3499999999999999;" x1="294" x2="400.4" y1="457.8984" y2="457.8984"/><text fill="#000000" font-family="sans-serif" font-size="9.8" lengthAdjust="spacing" textLength="58.8" x="297.5" y="469.5701">repositories()</text></g><!--class Controller--><g id="elem_Controller"><rect codeLine="11" fill="#F1F1F1" height="66.4453" id="Controller" rx="1.75" ry="1.75" style="stroke:#181818;stroke-width:0.3499999999999999;" width="424.2" x="226.1" y="106.8484"/><ellipse cx="372.225" cy="118.0484" fill="#ADD1B2" rx="7.7" ry="7.7" style="stroke:#181818;stroke-width:0.6999999999999998;"/><path d="M374.1609,115.1609 Q374.2703,115.0078 374.4016,114.9312 Q374.5328,114.8547 374.6859,114.8547 Q374.9484,114.8547 375.1125,115.0406 Q375.2766,115.2156 375.2766,115.6422 L375.2766,116.6594 Q375.2766,117.0859 375.1125,117.2719 Q374.9484,117.4578 374.6859,117.4578 Q374.4453,117.4578 374.3031,117.3156 Q374.1609,117.1844 374.0844,116.8234 Q374.0516,116.5719 373.9203,116.4406 Q373.6906,116.1781 373.2641,116.025 Q372.8375,115.8719 372.4,115.8719 Q371.8641,115.8719 371.4156,116.1016 Q370.9781,116.3312 370.6281,116.8562 Q370.2891,117.3812 370.2891,118.1031 L370.2891,118.8687 Q370.2891,119.7328 370.9125,120.3125 Q371.5359,120.8812 372.6516,120.8812 Q373.3078,120.8812 373.7672,120.7062 Q374.0406,120.5969 374.3359,120.2906 Q374.5219,120.1047 374.6203,120.05 Q374.7297,119.9953 374.8719,119.9953 Q375.1016,119.9953 375.2766,120.1812 Q375.4625,120.3562 375.4625,120.5969 Q375.4625,120.8375 375.2219,121.1219 Q374.8719,121.5266 374.3141,121.7562 Q373.5594,122.0734 372.6516,122.0734 Q371.5906,122.0734 370.7484,121.6359 Q370.0594,121.2859 369.5781,120.5422 Q369.0969,119.7875 369.0969,118.8906 L369.0969,118.0812 Q369.0969,117.1516 369.5234,116.3531 Q369.9609,115.5437 370.7266,115.1172 Q371.4922,114.6797 372.3562,114.6797 Q372.8703,114.6797 373.3187,114.8 Q373.7781,114.9094 374.1609,115.1609 Z " fill="#000000"/><text fill="#000000" font-family="sans-serif" font-size="9.8" lengthAdjust="spacing" textLength="126" x="386.575" y="121.4459">RegisterCandidateController</text><line style="stroke:#181818;stroke-width:0.3499999999999999;" x1="226.8" x2="649.6" y1="129.2484" y2="129.2484"/><line style="stroke:#181818;stroke-width:0.3499999999999999;" x1="226.8" x2="649.6" y1="134.8484" y2="134.8484"/><ellipse cx="233.8" cy="144.1727" fill="#84BE84" rx="2.1" ry="2.1" style="stroke:#038048;stroke-width:0.6999999999999998;"/><text fill="#000000" font-family="sans-serif" font-size="9.8" lengthAdjust="spacing" textLength="406" x="240.1" y="146.5201">registerCandidate(email, password, firstName, lastName, phoneNumber, roles) : SystemUser</text><ellipse cx="233.8" cy="155.1211" fill="#84BE84" rx="2.1" ry="2.1" style="stroke:#038048;stroke-width:0.6999999999999998;"/><text fill="#000000" font-family="sans-serif" font-size="9.8" lengthAdjust="spacing" textLength="348.6" x="240.1" y="157.4686">addUser(email, password, firstName, lastName, roles, createdOn) : SystemUser</text><ellipse cx="233.8" cy="166.0695" fill="#84BE84" rx="2.1" ry="2.1" style="stroke:#038048;stroke-width:0.6999999999999998;"/><text fill="#000000" font-family="sans-serif" font-size="9.8" lengthAdjust="spacing" textLength="123.9" x="240.1" y="168.417">generatePassword() : String</text></g><!--class Factory--><g id="elem_Factory"><rect codeLine="17" fill="#F1F1F1" height="77.3937" id="Factory" rx="1.75" ry="1.75" style="stroke:#181818;stroke-width:0.3499999999999999;" width="167.3" x="248.15" y="544.3484"/><ellipse cx="288.225" cy="555.5484" fill="#B4A7E5" rx="7.7" ry="7.7" style="stroke:#181818;stroke-width:0.6999999999999998;"/><path d="M288.8922,553.1969 L288.8922,557.8562 L290.0953,557.8562 Q290.5219,557.8562 290.7078,558.0203 Q290.8937,558.1844 290.8937,558.4578 Q290.8937,558.7203 290.7078,558.8844 Q290.5219,559.0484 290.0953,559.0484 L286.4969,559.0484 Q286.0703,559.0484 285.8844,558.8844 Q285.6984,558.7203 285.6984,558.4469 Q285.6984,558.1844 285.8844,558.0203 Q286.0703,557.8562 286.4969,557.8562 L287.7,557.8562 L287.7,553.1969 L286.4969,553.1969 Q286.0703,553.1969 285.8844,553.0328 Q285.6984,552.8687 285.6984,552.5953 Q285.6984,552.3328 285.8844,552.1687 Q286.0703,552.0047 286.4969,552.0047 L290.0953,552.0047 Q290.5219,552.0047 290.7078,552.1687 Q290.8937,552.3328 290.8937,552.5953 Q290.8937,552.8687 290.7078,553.0328 Q290.5219,553.1969 290.0953,553.1969 L288.8922,553.1969 Z " fill="#000000"/><text fill="#000000" font-family="sans-serif" font-size="9.8" font-style="italic" lengthAdjust="spacing" textLength="81.2" x="302.575" y="558.9459">RepositoryFactory</text><line style="stroke:#181818;stroke-width:0.3499999999999999;" x1="248.85" x2="414.75" y1="566.7484" y2="566.7484"/><line style="stroke:#181818;stroke-width:0.3499999999999999;" x1="248.85" x2="414.75" y1="572.3484" y2="572.3484"/><text fill="#000000" font-family="sans-serif" font-size="9.8" lengthAdjust="spacing" textLength="58.1" x="252.35" y="584.0201">candidates();</text><text fill="#000000" font-family="sans-serif" font-size="9.8" lengthAdjust="spacing" textLength="158.9" x="252.35" y="594.9686">candidates(TransactionalContext tx)</text><text fill="#000000" font-family="sans-serif" font-size="9.8" lengthAdjust="spacing" textLength="31.5" x="252.35" y="605.917">users()</text><text fill="#000000" font-family="sans-serif" font-size="9.8" lengthAdjust="spacing" textLength="158.2" x="252.35" y="616.8654">users(TransactionalContext autoTx)</text></g><!--class EventPublisher--><g id="elem_EventPublisher"><rect codeLine="24" fill="#F1F1F1" height="44.5484" id="EventPublisher" rx="1.75" ry="1.75" style="stroke:#181818;stroke-width:0.3499999999999999;" width="88.9" x="509.25" y="429.8984"/><ellipse cx="519.75" cy="441.0984" fill="#ADD1B2" rx="7.7" ry="7.7" style="stroke:#181818;stroke-width:0.6999999999999998;"/><path d="M521.6859,438.2109 Q521.7953,438.0578 521.9266,437.9812 Q522.0578,437.9047 522.2109,437.9047 Q522.4734,437.9047 522.6375,438.0906 Q522.8016,438.2656 522.8016,438.6922 L522.8016,439.7094 Q522.8016,440.1359 522.6375,440.3219 Q522.4734,440.5078 522.2109,440.5078 Q521.9703,440.5078 521.8281,440.3656 Q521.6859,440.2344 521.6094,439.8734 Q521.5766,439.6219 521.4453,439.4906 Q521.2156,439.2281 520.7891,439.075 Q520.3625,438.9219 519.925,438.9219 Q519.3891,438.9219 518.9406,439.1516 Q518.5031,439.3812 518.1531,439.9062 Q517.8141,440.4312 517.8141,441.1531 L517.8141,441.9187 Q517.8141,442.7828 518.4375,443.3625 Q519.0609,443.9312 520.1766,443.9312 Q520.8328,443.9312 521.2922,443.7562 Q521.5656,443.6469 521.8609,443.3406 Q522.0469,443.1547 522.1453,443.1 Q522.2547,443.0453 522.3969,443.0453 Q522.6266,443.0453 522.8016,443.2312 Q522.9875,443.4062 522.9875,443.6469 Q522.9875,443.8875 522.7469,444.1719 Q522.3969,444.5766 521.8391,444.8062 Q521.0844,445.1234 520.1766,445.1234 Q519.1156,445.1234 518.2734,444.6859 Q517.5844,444.3359 517.1031,443.5922 Q516.6219,442.8375 516.6219,441.9406 L516.6219,441.1312 Q516.6219,440.2016 517.0484,439.4031 Q517.4859,438.5937 518.2516,438.1672 Q519.0172,437.7297 519.8812,437.7297 Q520.3953,437.7297 520.8437,437.85 Q521.3031,437.9594 521.6859,438.2109 Z " fill="#000000"/><text fill="#000000" font-family="sans-serif" font-size="9.8" lengthAdjust="spacing" textLength="66.5" x="529.55" y="444.4959">EventPublisher</text><line style="stroke:#181818;stroke-width:0.3499999999999999;" x1="509.95" x2="597.45" y1="452.2984" y2="452.2984"/><text fill="#000000" font-family="sans-serif" font-size="9.8" lengthAdjust="spacing" textLength="46.2" x="513.45" y="463.9701">dispatcher</text><line style="stroke:#181818;stroke-width:0.3499999999999999;" x1="509.95" x2="597.45" y1="468.8469" y2="468.8469"/></g><!--class RegisterCandidateEvent--><g id="elem_RegisterCandidateEvent"><rect codeLine="28" fill="#F1F1F1" height="77.3937" id="RegisterCandidateEvent" rx="1.75" ry="1.75" style="stroke:#181818;stroke-width:0.3499999999999999;" width="191.8" x="662.2" y="413.4484"/><ellipse cx="701.225" cy="424.6484" fill="#ADD1B2" rx="7.7" ry="7.7" style="stroke:#181818;stroke-width:0.6999999999999998;"/><path d="M703.1609,421.7609 Q703.2703,421.6078 703.4016,421.5312 Q703.5328,421.4547 703.6859,421.4547 Q703.9484,421.4547 704.1125,421.6406 Q704.2766,421.8156 704.2766,422.2422 L704.2766,423.2594 Q704.2766,423.6859 704.1125,423.8719 Q703.9484,424.0578 703.6859,424.0578 Q703.4453,424.0578 703.3031,423.9156 Q703.1609,423.7844 703.0844,423.4234 Q703.0516,423.1719 702.9203,423.0406 Q702.6906,422.7781 702.2641,422.625 Q701.8375,422.4719 701.4,422.4719 Q700.8641,422.4719 700.4156,422.7016 Q699.9781,422.9312 699.6281,423.4562 Q699.2891,423.9812 699.2891,424.7031 L699.2891,425.4687 Q699.2891,426.3328 699.9125,426.9125 Q700.5359,427.4812 701.6516,427.4812 Q702.3078,427.4812 702.7672,427.3062 Q703.0406,427.1969 703.3359,426.8906 Q703.5219,426.7047 703.6203,426.65 Q703.7297,426.5953 703.8719,426.5953 Q704.1016,426.5953 704.2766,426.7812 Q704.4625,426.9562 704.4625,427.1969 Q704.4625,427.4375 704.2219,427.7219 Q703.8719,428.1266 703.3141,428.3562 Q702.5594,428.6734 701.6516,428.6734 Q700.5906,428.6734 699.7484,428.2359 Q699.0594,427.8859 698.5781,427.1422 Q698.0969,426.3875 698.0969,425.4906 L698.0969,424.6812 Q698.0969,423.7516 698.5234,422.9531 Q698.9609,422.1437 699.7266,421.7172 Q700.4922,421.2797 701.3562,421.2797 Q701.8703,421.2797 702.3187,421.4 Q702.7781,421.5094 703.1609,421.7609 Z " fill="#000000"/><text fill="#000000" font-family="sans-serif" font-size="9.8" lengthAdjust="spacing" textLength="107.8" x="715.575" y="428.0459">RegisterCandidateEvent</text><line style="stroke:#181818;stroke-width:0.3499999999999999;" x1="662.9" x2="853.3" y1="435.8484" y2="435.8484"/><rect fill="none" height="4.2" style="stroke:#C82930;stroke-width:0.6999999999999998;" width="4.2" x="667.8" y="443.0727"/><text fill="#000000" font-family="sans-serif" font-size="9.8" lengthAdjust="spacing" textLength="149.1" x="676.2" y="447.5201">theRegisterRequest : SystemUser</text><rect fill="none" height="4.2" style="stroke:#C82930;stroke-width:0.6999999999999998;" width="4.2" x="667.8" y="454.0211"/><text fill="#000000" font-family="sans-serif" font-size="9.8" lengthAdjust="spacing" textLength="96.6" x="676.2" y="458.4686">phoneNumber : String</text><line style="stroke:#181818;stroke-width:0.3499999999999999;" x1="662.9" x2="853.3" y1="463.3453" y2="463.3453"/><ellipse cx="669.9" cy="472.6695" fill="#84BE84" rx="2.1" ry="2.1" style="stroke:#038048;stroke-width:0.6999999999999998;"/><text fill="#000000" font-family="sans-serif" font-size="9.8" lengthAdjust="spacing" textLength="140.7" x="676.2" y="475.017">phoneNumber() : PhoneNumber</text><ellipse cx="669.9" cy="483.618" fill="#84BE84" rx="2.1" ry="2.1" style="stroke:#038048;stroke-width:0.6999999999999998;"/><text fill="#000000" font-family="sans-serif" font-size="9.8" lengthAdjust="spacing" textLength="173.6" x="676.2" y="485.9654">getTheRegisterRequest() : SystemUser</text></g><!--class RegisterCandidateWatchDog--><g id="elem_RegisterCandidateWatchDog"><rect codeLine="37" fill="#F1F1F1" height="44.5484" id="RegisterCandidateWatchDog" rx="1.75" ry="1.75" style="stroke:#181818;stroke-width:0.3499999999999999;" width="151.2" x="682.5" y="560.7984"/><ellipse cx="693" cy="571.9984" fill="#ADD1B2" rx="7.7" ry="7.7" style="stroke:#181818;stroke-width:0.6999999999999998;"/><path d="M694.9359,569.1109 Q695.0453,568.9578 695.1766,568.8812 Q695.3078,568.8047 695.4609,568.8047 Q695.7234,568.8047 695.8875,568.9906 Q696.0516,569.1656 696.0516,569.5922 L696.0516,570.6094 Q696.0516,571.0359 695.8875,571.2219 Q695.7234,571.4078 695.4609,571.4078 Q695.2203,571.4078 695.0781,571.2656 Q694.9359,571.1344 694.8594,570.7734 Q694.8266,570.5219 694.6953,570.3906 Q694.4656,570.1281 694.0391,569.975 Q693.6125,569.8219 693.175,569.8219 Q692.6391,569.8219 692.1906,570.0516 Q691.7531,570.2812 691.4031,570.8062 Q691.0641,571.3312 691.0641,572.0531 L691.0641,572.8187 Q691.0641,573.6828 691.6875,574.2625 Q692.3109,574.8312 693.4266,574.8312 Q694.0828,574.8312 694.5422,574.6562 Q694.8156,574.5469 695.1109,574.2406 Q695.2969,574.0547 695.3953,574 Q695.5047,573.9453 695.6469,573.9453 Q695.8766,573.9453 696.0516,574.1312 Q696.2375,574.3062 696.2375,574.5469 Q696.2375,574.7875 695.9969,575.0719 Q695.6469,575.4766 695.0891,575.7062 Q694.3344,576.0234 693.4266,576.0234 Q692.3656,576.0234 691.5234,575.5859 Q690.8344,575.2359 690.3531,574.4922 Q689.8719,573.7375 689.8719,572.8406 L689.8719,572.0312 Q689.8719,571.1016 690.2984,570.3031 Q690.7359,569.4937 691.5016,569.0672 Q692.2672,568.6297 693.1312,568.6297 Q693.6453,568.6297 694.0937,568.75 Q694.5531,568.8594 694.9359,569.1109 Z " fill="#000000"/><text fill="#000000" font-family="sans-serif" font-size="9.8" lengthAdjust="spacing" textLength="128.8" x="702.8" y="575.3959">RegisterCandidateWatchDog</text><line style="stroke:#181818;stroke-width:0.3499999999999999;" x1="683.2" x2="833" y1="583.1984" y2="583.1984"/><line style="stroke:#181818;stroke-width:0.3499999999999999;" x1="683.2" x2="833" y1="588.7984" y2="588.7984"/><ellipse cx="690.2" cy="598.1227" fill="#84BE84" rx="2.1" ry="2.1" style="stroke:#038048;stroke-width:0.6999999999999998;"/><text fill="#000000" font-family="sans-serif" font-size="9.8" lengthAdjust="spacing" textLength="100.1" x="696.5" y="600.4701">onEvent(domainevent)</text></g><!--class RegisterCandidateOnEventController--><g id="elem_RegisterCandidateOnEventController"><rect codeLine="41" fill="#F1F1F1" height="55.4969" id="RegisterCandidateOnEventController" rx="1.75" ry="1.75" style="stroke:#181818;stroke-width:0.3499999999999999;" width="261.8" x="558.6" y="664.7484"/><ellipse cx="604.275" cy="675.9484" fill="#ADD1B2" rx="7.7" ry="7.7" style="stroke:#181818;stroke-width:0.6999999999999998;"/><path d="M606.2109,673.0609 Q606.3203,672.9078 606.4516,672.8312 Q606.5828,672.7547 606.7359,672.7547 Q606.9984,672.7547 607.1625,672.9406 Q607.3266,673.1156 607.3266,673.5422 L607.3266,674.5594 Q607.3266,674.9859 607.1625,675.1719 Q606.9984,675.3578 606.7359,675.3578 Q606.4953,675.3578 606.3531,675.2156 Q606.2109,675.0844 606.1344,674.7234 Q606.1016,674.4719 605.9703,674.3406 Q605.7406,674.0781 605.3141,673.925 Q604.8875,673.7719 604.45,673.7719 Q603.9141,673.7719 603.4656,674.0016 Q603.0281,674.2312 602.6781,674.7562 Q602.3391,675.2812 602.3391,676.0031 L602.3391,676.7687 Q602.3391,677.6328 602.9625,678.2125 Q603.5859,678.7812 604.7016,678.7812 Q605.3578,678.7812 605.8172,678.6062 Q606.0906,678.4969 606.3859,678.1906 Q606.5719,678.0047 606.6703,677.95 Q606.7797,677.8953 606.9219,677.8953 Q607.1516,677.8953 607.3266,678.0812 Q607.5125,678.2562 607.5125,678.4969 Q607.5125,678.7375 607.2719,679.0219 Q606.9219,679.4266 606.3641,679.6562 Q605.6094,679.9734 604.7016,679.9734 Q603.6406,679.9734 602.7984,679.5359 Q602.1094,679.1859 601.6281,678.4422 Q601.1469,677.6875 601.1469,676.7906 L601.1469,675.9812 Q601.1469,675.0516 601.5734,674.2531 Q602.0109,673.4437 602.7766,673.0172 Q603.5422,672.5797 604.4062,672.5797 Q604.9203,672.5797 605.3687,672.7 Q605.8281,672.8094 606.2109,673.0609 Z " fill="#000000"/><text fill="#000000" font-family="sans-serif" font-size="9.8" lengthAdjust="spacing" textLength="164.5" x="618.625" y="679.3459">RegisterCandidateOnEventController</text><line style="stroke:#181818;stroke-width:0.3499999999999999;" x1="559.3" x2="819.7" y1="687.1484" y2="687.1484"/><line style="stroke:#181818;stroke-width:0.3499999999999999;" x1="559.3" x2="819.7" y1="692.7484" y2="692.7484"/><ellipse cx="566.3" cy="702.0727" fill="#84BE84" rx="2.1" ry="2.1" style="stroke:#038048;stroke-width:0.6999999999999998;"/><text fill="#000000" font-family="sans-serif" font-size="9.8" lengthAdjust="spacing" textLength="164.5" x="572.6" y="704.4201">registerCandidate(event) : Candidate</text><ellipse cx="566.3" cy="713.0211" fill="#84BE84" rx="2.1" ry="2.1" style="stroke:#038048;stroke-width:0.6999999999999998;"/><text fill="#000000" font-family="sans-serif" font-size="9.8" lengthAdjust="spacing" textLength="243.6" x="572.6" y="715.3686">findUser(final RegisterCandidateEvent event) : boolean</text></g><!--class DeleteUserEvent--><g id="elem_DeleteUserEvent"><rect codeLine="46" fill="#F1F1F1" height="44.5484" id="DeleteUserEvent" rx="1.75" ry="1.75" style="stroke:#181818;stroke-width:0.3499999999999999;" width="167.3" x="490.35" y="560.7984"/><ellipse cx="533.925" cy="571.9984" fill="#ADD1B2" rx="7.7" ry="7.7" style="stroke:#181818;stroke-width:0.6999999999999998;"/><path d="M535.8609,569.1109 Q535.9703,568.9578 536.1016,568.8812 Q536.2328,568.8047 536.3859,568.8047 Q536.6484,568.8047 536.8125,568.9906 Q536.9766,569.1656 536.9766,569.5922 L536.9766,570.6094 Q536.9766,571.0359 536.8125,571.2219 Q536.6484,571.4078 536.3859,571.4078 Q536.1453,571.4078 536.0031,571.2656 Q535.8609,571.1344 535.7844,570.7734 Q535.7516,570.5219 535.6203,570.3906 Q535.3906,570.1281 534.9641,569.975 Q534.5375,569.8219 534.1,569.8219 Q533.5641,569.8219 533.1156,570.0516 Q532.6781,570.2812 532.3281,570.8062 Q531.9891,571.3312 531.9891,572.0531 L531.9891,572.8187 Q531.9891,573.6828 532.6125,574.2625 Q533.2359,574.8312 534.3516,574.8312 Q535.0078,574.8312 535.4672,574.6562 Q535.7406,574.5469 536.0359,574.2406 Q536.2219,574.0547 536.3203,574 Q536.4297,573.9453 536.5719,573.9453 Q536.8016,573.9453 536.9766,574.1312 Q537.1625,574.3062 537.1625,574.5469 Q537.1625,574.7875 536.9219,575.0719 Q536.5719,575.4766 536.0141,575.7062 Q535.2594,576.0234 534.3516,576.0234 Q533.2906,576.0234 532.4484,575.5859 Q531.7594,575.2359 531.2781,574.4922 Q530.7969,573.7375 530.7969,572.8406 L530.7969,572.0312 Q530.7969,571.1016 531.2234,570.3031 Q531.6609,569.4937 532.4266,569.0672 Q533.1922,568.6297 534.0562,568.6297 Q534.5703,568.6297 535.0187,568.75 Q535.4781,568.8594 535.8609,569.1109 Z " fill="#000000"/><text fill="#000000" font-family="sans-serif" font-size="9.8" lengthAdjust="spacing" textLength="74.2" x="548.275" y="575.3959">DeleteUserEvent</text><line style="stroke:#181818;stroke-width:0.3499999999999999;" x1="491.05" x2="656.95" y1="583.1984" y2="583.1984"/><rect fill="none" height="4.2" style="stroke:#C82930;stroke-width:0.6999999999999998;" width="4.2" x="495.95" y="590.4227"/><text fill="#000000" font-family="sans-serif" font-size="9.8" lengthAdjust="spacing" textLength="149.1" x="504.35" y="594.8701">theRegisterRequest : SystemUser</text><line style="stroke:#181818;stroke-width:0.3499999999999999;" x1="491.05" x2="656.95" y1="599.7469" y2="599.7469"/></g><!--class UserManagementService--><g id="elem_UserManagementService"><rect codeLine="53" fill="#F1F1F1" height="197.8266" id="UserManagementService" rx="1.75" ry="1.75" style="stroke:#181818;stroke-width:0.3499999999999999;" width="403.2" x="4.9" y="194.3484"/><ellipse cx="148.225" cy="205.5484" fill="#ADD1B2" rx="7.7" ry="7.7" style="stroke:#181818;stroke-width:0.6999999999999998;"/><path d="M150.1609,202.6609 Q150.2703,202.5078 150.4016,202.4312 Q150.5328,202.3547 150.6859,202.3547 Q150.9484,202.3547 151.1125,202.5406 Q151.2766,202.7156 151.2766,203.1422 L151.2766,204.1594 Q151.2766,204.5859 151.1125,204.7719 Q150.9484,204.9578 150.6859,204.9578 Q150.4453,204.9578 150.3031,204.8156 Q150.1609,204.6844 150.0844,204.3234 Q150.0516,204.0719 149.9203,203.9406 Q149.6906,203.6781 149.2641,203.525 Q148.8375,203.3719 148.4,203.3719 Q147.8641,203.3719 147.4156,203.6016 Q146.9781,203.8312 146.6281,204.3562 Q146.2891,204.8812 146.2891,205.6031 L146.2891,206.3687 Q146.2891,207.2328 146.9125,207.8125 Q147.5359,208.3812 148.6516,208.3812 Q149.3078,208.3812 149.7672,208.2062 Q150.0406,208.0969 150.3359,207.7906 Q150.5219,207.6047 150.6203,207.55 Q150.7297,207.4953 150.8719,207.4953 Q151.1016,207.4953 151.2766,207.6812 Q151.4625,207.8562 151.4625,208.0969 Q151.4625,208.3375 151.2219,208.6219 Q150.8719,209.0266 150.3141,209.2562 Q149.5594,209.5734 148.6516,209.5734 Q147.5906,209.5734 146.7484,209.1359 Q146.0594,208.7859 145.5781,208.0422 Q145.0969,207.2875 145.0969,206.3906 L145.0969,205.5812 Q145.0969,204.6516 145.5234,203.8531 Q145.9609,203.0437 146.7266,202.6172 Q147.4922,202.1797 148.3562,202.1797 Q148.8703,202.1797 149.3187,202.3 Q149.7781,202.4094 150.1609,202.6609 Z " fill="#000000"/><text fill="#000000" font-family="sans-serif" font-size="9.8" lengthAdjust="spacing" textLength="110.6" x="162.575" y="208.9459">UserManagementService</text><line style="stroke:#181818;stroke-width:0.3499999999999999;" x1="5.6" x2="407.4" y1="216.7484" y2="216.7484"/><rect fill="none" height="4.2" style="stroke:#C82930;stroke-width:0.6999999999999998;" width="4.2" x="10.5" y="223.9727"/><text fill="#000000" font-family="sans-serif" font-size="9.8" lengthAdjust="spacing" textLength="143.5" x="18.9" y="228.4201">userRepository : UserRepository</text><rect fill="none" height="4.2" style="stroke:#C82930;stroke-width:0.6999999999999998;" width="4.2" x="10.5" y="234.9211"/><text fill="#000000" font-family="sans-serif" font-size="9.8" lengthAdjust="spacing" textLength="124.6" x="18.9" y="239.3686">encoder : PasswordEncoder</text><rect fill="none" height="4.2" style="stroke:#C82930;stroke-width:0.6999999999999998;" width="4.2" x="10.5" y="245.8695"/><text fill="#000000" font-family="sans-serif" font-size="9.8" lengthAdjust="spacing" textLength="102.2" x="18.9" y="250.317">policy : PasswordPolicy</text><line style="stroke:#181818;stroke-width:0.3499999999999999;" x1="5.6" x2="407.4" y1="255.1937" y2="255.1937"/><ellipse cx="12.6" cy="269.9922" fill="#84BE84" rx="2.1" ry="2.1" style="stroke:#038048;stroke-width:0.6999999999999998;"/><text fill="#000000" font-family="sans-serif" font-size="9.8" lengthAdjust="spacing" textLength="382.2" x="18.9" y="266.8654">registerNewUser(final String username, final String rawPassword, final String firstName,</text><text fill="#000000" font-family="sans-serif" font-size="9.8" lengthAdjust="spacing" textLength="268.8" x="18.9" y="277.8139">final String lastName, final String email, final Set&lt;Role&gt; roles,</text><text fill="#000000" font-family="sans-serif" font-size="9.8" lengthAdjust="spacing" textLength="175.7" x="18.9" y="288.7623">final Calendar createdOn) : SystemUser</text><ellipse cx="12.6" cy="297.3633" fill="#84BE84" rx="2.1" ry="2.1" style="stroke:#038048;stroke-width:0.6999999999999998;"/><text fill="#000000" font-family="sans-serif" font-size="9.8" lengthAdjust="spacing" textLength="382.2" x="18.9" y="299.7107">registerNewUser(final String username, final String rawPassword, final String firstName,</text><text fill="#000000" font-family="sans-serif" font-size="9.8" lengthAdjust="spacing" textLength="330.4" x="18.9" y="310.6592">final String lastName, final String email, final Set&lt;Role&gt; roles) : SystemUser</text><ellipse cx="12.6" cy="319.2602" fill="#84BE84" rx="2.1" ry="2.1" style="stroke:#038048;stroke-width:0.6999999999999998;"/><text fill="#000000" font-family="sans-serif" font-size="9.8" lengthAdjust="spacing" textLength="366.1" x="18.9" y="321.6076">registerUser(final Username username, final Password password, final Name name,</text><text fill="#000000" font-family="sans-serif" font-size="9.8" lengthAdjust="spacing" textLength="268.8" x="18.9" y="332.5561">final EmailAddress email, final Set&lt;Role&gt; roles) : SystemUser</text><ellipse cx="12.6" cy="341.157" fill="#84BE84" rx="2.1" ry="2.1" style="stroke:#038048;stroke-width:0.6999999999999998;"/><text fill="#000000" font-family="sans-serif" font-size="9.8" lengthAdjust="spacing" textLength="163.1" x="18.9" y="343.5045">activeUsers() : Iterable&lt;SystemUser&gt;</text><ellipse cx="12.6" cy="352.1055" fill="#84BE84" rx="2.1" ry="2.1" style="stroke:#038048;stroke-width:0.6999999999999998;"/><text fill="#000000" font-family="sans-serif" font-size="9.8" lengthAdjust="spacing" textLength="188.3" x="18.9" y="354.4529">deactivatedUsers() : Iterable&lt;SystemUser&gt;</text><ellipse cx="12.6" cy="363.0539" fill="#84BE84" rx="2.1" ry="2.1" style="stroke:#038048;stroke-width:0.6999999999999998;"/><text fill="#000000" font-family="sans-serif" font-size="9.8" lengthAdjust="spacing" textLength="218.4" x="18.9" y="365.4014">activateUser(final SystemUser user) : SystemUser</text><ellipse cx="12.6" cy="374.0023" fill="#84BE84" rx="2.1" ry="2.1" style="stroke:#038048;stroke-width:0.6999999999999998;"/><text fill="#000000" font-family="sans-serif" font-size="9.8" lengthAdjust="spacing" textLength="229.6" x="18.9" y="376.3498">deactivateUser(final SystemUser user) : SystemUser</text><ellipse cx="12.6" cy="384.9508" fill="#84BE84" rx="2.1" ry="2.1" style="stroke:#038048;stroke-width:0.6999999999999998;"/><text fill="#000000" font-family="sans-serif" font-size="9.8" lengthAdjust="spacing" textLength="147" x="18.9" y="387.2982">allUsers() : Iterable&lt;SystemUser&gt;</text></g><!--class UserRepository--><g id="elem_UserRepository"><rect codeLine="73" fill="#F1F1F1" height="55.4969" id="UserRepository" rx="1.75" ry="1.75" style="stroke:#181818;stroke-width:0.3499999999999999;" width="133.7" x="166.95" y="664.7484"/><ellipse cx="196.665" cy="675.9484" fill="#B4A7E5" rx="7.7" ry="7.7" style="stroke:#181818;stroke-width:0.6999999999999998;"/><path d="M197.3322,673.5969 L197.3322,678.2562 L198.5353,678.2562 Q198.9619,678.2562 199.1478,678.4203 Q199.3337,678.5844 199.3337,678.8578 Q199.3337,679.1203 199.1478,679.2844 Q198.9619,679.4484 198.5353,679.4484 L194.9369,679.4484 Q194.5103,679.4484 194.3244,679.2844 Q194.1384,679.1203 194.1384,678.8469 Q194.1384,678.5844 194.3244,678.4203 Q194.5103,678.2562 194.9369,678.2562 L196.14,678.2562 L196.14,673.5969 L194.9369,673.5969 Q194.5103,673.5969 194.3244,673.4328 Q194.1384,673.2687 194.1384,672.9953 Q194.1384,672.7328 194.3244,672.5687 Q194.5103,672.4047 194.9369,672.4047 L198.5353,672.4047 Q198.9619,672.4047 199.1478,672.5687 Q199.3337,672.7328 199.3337,672.9953 Q199.3337,673.2687 199.1478,673.4328 Q198.9619,673.5969 198.5353,673.5969 L197.3322,673.5969 Z " fill="#000000"/><text fill="#000000" font-family="sans-serif" font-size="9.8" font-style="italic" lengthAdjust="spacing" textLength="68.6" x="210.735" y="679.3459">UserRepository</text><line style="stroke:#181818;stroke-width:0.3499999999999999;" x1="167.65" x2="299.95" y1="687.1484" y2="687.1484"/><line style="stroke:#181818;stroke-width:0.3499999999999999;" x1="167.65" x2="299.95" y1="692.7484" y2="692.7484"/><text fill="#000000" font-family="sans-serif" font-size="9.8" lengthAdjust="spacing" textLength="125.3" x="171.15" y="704.4201">findByActive(boolean active)</text><text fill="#000000" font-family="sans-serif" font-size="9.8" lengthAdjust="spacing" textLength="80.5" x="171.15" y="715.3686">save(SystemUser)</text></g><!--class CandidateRepository--><g id="elem_CandidateRepository"><rect codeLine="78" fill="#F1F1F1" height="44.5484" id="CandidateRepository" rx="1.75" ry="1.75" style="stroke:#181818;stroke-width:0.3499999999999999;" width="115.5" x="395.15" y="762.7484"/><ellipse cx="405.65" cy="773.9484" fill="#B4A7E5" rx="7.7" ry="7.7" style="stroke:#181818;stroke-width:0.6999999999999998;"/><path d="M406.3172,771.5969 L406.3172,776.2562 L407.5203,776.2562 Q407.9469,776.2562 408.1328,776.4203 Q408.3187,776.5844 408.3187,776.8578 Q408.3187,777.1203 408.1328,777.2844 Q407.9469,777.4484 407.5203,777.4484 L403.9219,777.4484 Q403.4953,777.4484 403.3094,777.2844 Q403.1234,777.1203 403.1234,776.8469 Q403.1234,776.5844 403.3094,776.4203 Q403.4953,776.2562 403.9219,776.2562 L405.125,776.2562 L405.125,771.5969 L403.9219,771.5969 Q403.4953,771.5969 403.3094,771.4328 Q403.1234,771.2687 403.1234,770.9953 Q403.1234,770.7328 403.3094,770.5687 Q403.4953,770.4047 403.9219,770.4047 L407.5203,770.4047 Q407.9469,770.4047 408.1328,770.5687 Q408.3187,770.7328 408.3187,770.9953 Q408.3187,771.2687 408.1328,771.4328 Q407.9469,771.5969 407.5203,771.5969 L406.3172,771.5969 Z " fill="#000000"/><text fill="#000000" font-family="sans-serif" font-size="9.8" font-style="italic" lengthAdjust="spacing" textLength="93.1" x="415.45" y="777.3459">CandidateRepository</text><line style="stroke:#181818;stroke-width:0.3499999999999999;" x1="395.85" x2="509.95" y1="785.1484" y2="785.1484"/><line style="stroke:#181818;stroke-width:0.3499999999999999;" x1="395.85" x2="509.95" y1="790.7484" y2="790.7484"/><ellipse cx="402.85" cy="800.0727" fill="#84BE84" rx="2.1" ry="2.1" style="stroke:#038048;stroke-width:0.6999999999999998;"/><text fill="#000000" font-family="sans-serif" font-size="9.8" lengthAdjust="spacing" textLength="58.1" x="409.15" y="802.4201">candidates();</text></g><!--class Candidate--><g id="elem_Candidate"><rect codeLine="84" fill="#F1F1F1" height="66.4453" id="Candidate" rx="1.75" ry="1.75" style="stroke:#181818;stroke-width:0.3499999999999999;" width="151.9" x="376.95" y="860.7484"/><ellipse cx="427.175" cy="871.9484" fill="#ADD1B2" rx="7.7" ry="7.7" style="stroke:#181818;stroke-width:0.6999999999999998;"/><path d="M429.1109,869.0609 Q429.2203,868.9078 429.3516,868.8312 Q429.4828,868.7547 429.6359,868.7547 Q429.8984,868.7547 430.0625,868.9406 Q430.2266,869.1156 430.2266,869.5422 L430.2266,870.5594 Q430.2266,870.9859 430.0625,871.1719 Q429.8984,871.3578 429.6359,871.3578 Q429.3953,871.3578 429.2531,871.2156 Q429.1109,871.0844 429.0344,870.7234 Q429.0016,870.4719 428.8703,870.3406 Q428.6406,870.0781 428.2141,869.925 Q427.7875,869.7719 427.35,869.7719 Q426.8141,869.7719 426.3656,870.0016 Q425.9281,870.2312 425.5781,870.7562 Q425.2391,871.2812 425.2391,872.0031 L425.2391,872.7687 Q425.2391,873.6328 425.8625,874.2125 Q426.4859,874.7812 427.6016,874.7812 Q428.2578,874.7812 428.7172,874.6062 Q428.9906,874.4969 429.2859,874.1906 Q429.4719,874.0047 429.5703,873.95 Q429.6797,873.8953 429.8219,873.8953 Q430.0516,873.8953 430.2266,874.0812 Q430.4125,874.2562 430.4125,874.4969 Q430.4125,874.7375 430.1719,875.0219 Q429.8219,875.4266 429.2641,875.6562 Q428.5094,875.9734 427.6016,875.9734 Q426.5406,875.9734 425.6984,875.5359 Q425.0094,875.1859 424.5281,874.4422 Q424.0469,873.6875 424.0469,872.7906 L424.0469,871.9812 Q424.0469,871.0516 424.4734,870.2531 Q424.9109,869.4437 425.6766,869.0172 Q426.4422,868.5797 427.3062,868.5797 Q427.8203,868.5797 428.2687,868.7 Q428.7281,868.8094 429.1109,869.0609 Z " fill="#000000"/><text fill="#000000" font-family="sans-serif" font-size="9.8" lengthAdjust="spacing" textLength="45.5" x="441.525" y="875.3459">Candidate</text><line style="stroke:#181818;stroke-width:0.3499999999999999;" x1="377.65" x2="528.15" y1="883.1484" y2="883.1484"/><rect fill="none" height="4.2" style="stroke:#C82930;stroke-width:0.6999999999999998;" width="4.2" x="382.55" y="890.3727"/><text fill="#000000" font-family="sans-serif" font-size="9.8" lengthAdjust="spacing" textLength="112" x="390.95" y="894.8201">systemUser : SystemUser</text><rect fill="none" height="4.2" style="stroke:#C82930;stroke-width:0.6999999999999998;" width="4.2" x="382.55" y="901.3211"/><text fill="#000000" font-family="sans-serif" font-size="9.8" lengthAdjust="spacing" textLength="133.7" x="390.95" y="905.7686">phoneNumber : PhoneNumber</text><rect fill="none" height="4.2" style="stroke:#C82930;stroke-width:0.6999999999999998;" width="4.2" x="382.55" y="912.2695"/><text fill="#000000" font-family="sans-serif" font-size="9.8" lengthAdjust="spacing" textLength="76.3" x="390.95" y="916.717">id : EmailAddress</text><line style="stroke:#181818;stroke-width:0.3499999999999999;" x1="377.65" x2="528.15" y1="921.5937" y2="921.5937"/></g><!--link UI to Controller--><g id="link_UI_Controller"><path codeLine="98" d="M438.2,64.1694 C438.2,75.9504 438.2,88.1304 438.2,102.5924 " fill="none" id="UI-to-Controller" style="stroke:#181818;stroke-width:0.6999999999999998;stroke-dasharray:7.0,7.0;"/><polygon fill="#181818" points="438.2,106.7924,441,100.4924,438.2,103.2924,435.4,100.4924,438.2,106.7924" style="stroke:#181818;stroke-width:0.6999999999999998;"/></g><!--link Controller to PersistenceContext--><g id="link_Controller_PersistenceContext"><path codeLine="99" d="M437.108,173.4884 C434.693,232.6244 427.532,354.7254 408.8,392.4484 C401.611,406.9244 392.5636,417.0638 380.8876,427.0738 " fill="none" id="Controller-to-PersistenceContext" style="stroke:#181818;stroke-width:0.6999999999999998;stroke-dasharray:7.0,7.0;"/><polygon fill="#181818" points="377.699,429.8074,384.3043,427.8327,380.3562,427.5294,380.6595,423.5812,377.699,429.8074" style="stroke:#181818;stroke-width:0.6999999999999998;"/></g><!--link PersistenceContext to Factory--><g id="link_PersistenceContext_Factory"><path codeLine="100" d="M344.589,474.9644 C342.342,493.8714 339.5406,517.4138 336.8596,539.9748 " fill="none" id="PersistenceContext-to-Factory" style="stroke:#181818;stroke-width:0.6999999999999998;"/><polygon fill="#181818" points="336.364,544.1454,339.8879,538.2199,336.777,540.6699,334.327,537.559,336.364,544.1454" style="stroke:#181818;stroke-width:0.6999999999999998;"/></g><!--link Factory to CandidateRepository--><g id="link_Factory_CandidateRepository"><path codeLine="103" d="M354.865,622.0904 C379.981,663.6844 417.1153,725.1819 437.4853,758.9219 " fill="none" id="Factory-to-CandidateRepository" style="stroke:#181818;stroke-width:0.6999999999999998;stroke-dasharray:7.0,7.0;"/><polygon fill="#181818" points="439.656,762.5174,438.7969,755.677,437.847,759.5212,434.0029,758.5713,439.656,762.5174" style="stroke:#181818;stroke-width:0.6999999999999998;"/></g><!--link CandidateRepository to Candidate--><g id="link_CandidateRepository_Candidate"><path codeLine="106" d="M452.9,807.5904 C452.9,822.8014 452.9,839.1814 452.9,856.3664 " fill="none" id="CandidateRepository-to-Candidate" style="stroke:#181818;stroke-width:0.6999999999999998;"/><polygon fill="#181818" points="452.9,860.5664,455.7,854.2664,452.9,857.0664,450.1,854.2664,452.9,860.5664" style="stroke:#181818;stroke-width:0.6999999999999998;"/><text fill="#000000" font-family="sans-serif" font-size="9.1" lengthAdjust="spacing" textLength="25.2" x="453.6" y="837.4864">stores</text><text fill="#000000" font-family="sans-serif" font-size="9.1" lengthAdjust="spacing" textLength="3.5" x="449.132" y="853.1671">*</text></g><!--link Controller to CandidateRepository--><g id="link_Controller_CandidateRepository"><path codeLine="109" d="M440.762,173.4394 C444.969,230.0274 452.9,350.0424 452.9,451.5984 C452.9,451.5984 452.9,451.5984 452.9,693.0984 C452.9,716.8844 452.9,739.9634 452.9,758.4714 " fill="none" id="Controller-to-CandidateRepository" style="stroke:#181818;stroke-width:0.6999999999999998;stroke-dasharray:7.0,7.0;"/><polygon fill="#181818" points="452.9,762.6714,455.7,756.3714,452.9,759.1714,450.1,756.3714,452.9,762.6714" style="stroke:#181818;stroke-width:0.6999999999999998;"/></g><!--link Controller to UserManagementService--><g id="link_Controller_UserManagementService"><path codeLine="110" d="M388.493,173.3834 C378.658,179.8374 371.369,184.6109 360.099,192.0029 " fill="none" id="Controller-to-UserManagementService" style="stroke:#181818;stroke-width:0.6999999999999998;"/><polygon fill="#181818" points="356.587,194.3064,363.3906,193.1925,359.5136,192.3869,360.3193,188.5099,356.587,194.3064" style="stroke:#181818;stroke-width:0.6999999999999998;"/></g><!--link Controller to EventPublisher--><g id="link_Controller_EventPublisher"><path codeLine="111" d="M460.012,173.5374 C464.002,180.2574 467.908,187.4114 471.1,194.3484 C509.495,277.8864 536.5227,380.2196 547.5477,425.5166 " fill="none" id="Controller-to-EventPublisher" style="stroke:#181818;stroke-width:0.6999999999999998;"/><polygon fill="#181818" points="548.541,429.5974,549.7717,422.814,547.7133,426.1967,544.3305,424.1383,548.541,429.5974" style="stroke:#181818;stroke-width:0.6999999999999998;"/></g><!--link EventPublisher to RegisterCandidateEvent--><g id="link_EventPublisher_RegisterCandidateEvent"><path codeLine="112" d="M598.304,452.2984 C617.099,452.2984 635.551,452.2984 657.818,452.2984 " fill="none" id="EventPublisher-to-RegisterCandidateEvent" style="stroke:#181818;stroke-width:0.6999999999999998;"/><polygon fill="#181818" points="662.018,452.2984,655.718,449.4984,658.518,452.2984,655.718,455.0984,662.018,452.2984" style="stroke:#181818;stroke-width:0.6999999999999998;"/><text fill="#000000" font-family="sans-serif" font-size="9.1" lengthAdjust="spacing" textLength="38.5" x="610.925" y="447.9364">publishes</text><text fill="#000000" font-family="sans-serif" font-size="9.1" lengthAdjust="spacing" textLength="4.9" x="603.7446" y="450.2056">1</text><text fill="#000000" font-family="sans-serif" font-size="9.1" lengthAdjust="spacing" textLength="3.5" x="653.1678" y="450.4868">*</text></g><!--link EventPublisher to DeleteUserEvent--><g id="link_EventPublisher_DeleteUserEvent"><path codeLine="113" d="M557.144,474.9644 C560.889,498.8554 566.1897,532.6459 569.9207,556.4879 " fill="none" id="EventPublisher-to-DeleteUserEvent" style="stroke:#181818;stroke-width:0.6999999999999998;"/><polygon fill="#181818" points="570.57,560.6374,572.3623,553.9803,570.0289,557.1795,566.8296,554.8461,570.57,560.6374" style="stroke:#181818;stroke-width:0.6999999999999998;"/><text fill="#000000" font-family="sans-serif" font-size="9.1" lengthAdjust="spacing" textLength="38.5" x="564.9" y="521.0864">publishes</text><text fill="#000000" font-family="sans-serif" font-size="9.1" lengthAdjust="spacing" textLength="4.9" x="552.4273" y="488.3419">1</text><text fill="#000000" font-family="sans-serif" font-size="9.1" lengthAdjust="spacing" textLength="3.5" x="565.9369" y="553.1359">*</text></g><!--link RegisterCandidateWatchDog to RegisterCandidateOnEventController--><g id="link_RegisterCandidateWatchDog_RegisterCandidateOnEventController"><path codeLine="116" d="M744.219,605.7104 C733.411,622.6924 720.6087,642.8089 709.0237,661.0159 " fill="none" id="RegisterCandidateWatchDog-to-RegisterCandidateOnEventController" style="stroke:#181818;stroke-width:0.6999999999999998;"/><polygon fill="#181818" points="706.769,664.5594,712.5134,660.7473,708.6479,661.6065,707.7887,657.7411,706.769,664.5594" style="stroke:#181818;stroke-width:0.6999999999999998;"/></g><!--reverse link RegisterCandidateEvent to RegisterCandidateWatchDog--><g id="link_RegisterCandidateEvent_RegisterCandidateWatchDog"><path codeLine="117" d="M758.1,495.3554 C758.1,518.0354 758.1,541.7864 758.1,560.7494 " fill="none" id="RegisterCandidateEvent-backto-RegisterCandidateWatchDog" style="stroke:#181818;stroke-width:0.6999999999999998;"/><polygon fill="#181818" points="758.1,491.1554,755.3,497.4554,758.1,494.6554,760.9,497.4554,758.1,491.1554" style="stroke:#181818;stroke-width:0.6999999999999998;"/><text fill="#000000" font-family="sans-serif" font-size="9.1" lengthAdjust="spacing" textLength="60.2" x="758.8" y="521.0864">watch for event</text></g><!--link RegisterCandidateOnEventController to CandidateRepository--><g id="link_RegisterCandidateOnEventController_CandidateRepository"><path codeLine="118" d="M619.472,720.1324 C584.318,733.7124 546.215,748.4185 513.168,761.1795 " fill="none" id="RegisterCandidateOnEventController-to-CandidateRepository" style="stroke:#181818;stroke-width:0.6999999999999998;stroke-dasharray:7.0,7.0;"/><polygon fill="#181818" points="509.25,762.6924,516.1357,763.0351,512.515,761.4317,514.1184,757.811,509.25,762.6924" style="stroke:#181818;stroke-width:0.6999999999999998;"/></g><!--link UserManagementService to UserRepository--><g id="link_UserManagementService_UserRepository"><path codeLine="120" d="M213.269,392.6374 C219.443,482.5594 227.8701,605.3563 231.6501,660.3623 " fill="none" id="UserManagementService-to-UserRepository" style="stroke:#181818;stroke-width:0.6999999999999998;stroke-dasharray:7.0,7.0;"/><polygon fill="#181818" points="231.938,664.5524,234.2995,658.0753,231.698,661.0607,228.7127,658.4592,231.938,664.5524" style="stroke:#181818;stroke-width:0.6999999999999998;"/></g><!--link Factory to UserRepository--><g id="link_Factory_UserRepository"><path codeLine="121" d="M296.975,622.2094 C284.207,636.2514 272.8641,648.7255 261.1881,661.5705 " fill="none" id="Factory-to-UserRepository" style="stroke:#181818;stroke-width:0.6999999999999998;stroke-dasharray:7.0,7.0;"/><polygon fill="#181818" points="258.363,664.6784,264.6725,661.9,260.7172,662.0885,260.5287,658.1332,258.363,664.6784" style="stroke:#181818;stroke-width:0.6999999999999998;"/></g><!--SRC=[jLPDRzim3BthLn0v9MjIT3jsHO2kxO0SrWPjZLrsKMmcDU18dgGq3OBzzr6oRFbpMJ7CbyZKupFrA98ngSaGHj4JVBgukE00rneUSbJSI3M51UovC60aADoasg023Z4NIPfmWq0BY1Mw9SHIATIvf4snWPr6nLYSSQrXzEYTRqhFQ342hY5Q7Dcl4hL4fIrAn7WZXS4tSsH0Zy9SwfJ2IL6F9m7VPRLkIcOPAiSUNXtHcMhZnxZbQJQ5dEZsKYLJMATActk-nIdGD_mgVv42xtVR5P8YH8Xw0fVmT22kRMIFQSbvajZrNr8wbgdNBdaGFOGR53OBkFHCOuSnYiIr6gIaa5hp6AqENg33LnxR7tTwlouqh5962dvkMvuL5vhGgHGyyzA3UPiudCsZbJsiU-5yP-JpMoqxTwyep7AtobBzuXC0IQfpRc9w3xXE4frZWP-1US4Iy8W_TwXDHoX2rH8KD79xPxKj9-0ol1U03PhdpaV6hNnGj4FXVhS7kfMR8k8paC8TO9n8kWW2xNhoXzC-5F3MLUszguwAugfC1NATYkBcqO9d0tf2vRsITFMu227TOePKaCJmBkMj92M5DNpZWczmImnFg5xJ68zivYvCk9r443KCXA1gbubBMtdFxmeBxUKoI-D3RMlf38nLwjpZldRq8l7key9LMSEi-7vPAyhQJgr2VuZ6JYZOXjdNkBUXkNeaJUU-g5bXlk4PYeIhmHh_RuTWyAzdQ4TQDVzQd94Fi1Df6L-Z1TeD6mGuf9VepePmdIGqDVJxuh7TvzNTMUrATK6nyLM6Lm4r9rY23cZbFuajaVLKL01to4uKWVuTJZpBJiJYIYkqzsR97ArsoPV3jLDWxAlP2p9XcfCna4sQawBg2NK-rqIQy-5NAEtAfUmBEfplP2TkDziPf0cPwtdtVSGzqGBEp-UriSt2qkrq_o6mhcasc_lHHvH-LV1sJq-87YiG1Om-Z887N6hQG6tnpP3wI6iG8kfjZWqCWPhJaZLVOVHn13waWVP-2Rb7wrvdxztgzGqtnWPdc_C_FRhOG71NizdmtAGOzdO9QwcAASLEVsaudxrgEtXhzDHlHckB_GO0]--></g></svg>