<?xml version="1.0" encoding="us-ascii" standalone="no"?><svg xmlns="http://www.w3.org/2000/svg" xmlns:xlink="http://www.w3.org/1999/xlink" contentStyleType="text/css" height="340.5px" preserveAspectRatio="none" style="width:1046px;height:340px;background:#FFFFFF;" version="1.1" viewBox="0 0 1046 340" width="1046px" zoomAndPan="magnify"><defs/><g><!--cluster Job Opening Aggregate--><g id="cluster_Job Opening Aggregate"><path d="M117.25,3 L201.25,3 A1.875,1.875 0 0 1 202.5,4.25 L206,13.8203 L807.25,13.8203 A1.25,1.25 0 0 1 808.5,15.0703 L808.5,335.75 A1.25,1.25 0 0 1 807.25,337 L117.25,337 A1.25,1.25 0 0 1 116,335.75 L116,4.25 A1.25,1.25 0 0 1 117.25,3 " fill="none" style="stroke:#000000;stroke-width:0.75;"/><line style="stroke:#000000;stroke-width:0.75;" x1="116" x2="206" y1="13.8203" y2="13.8203"/><text fill="#000000" font-family="sans-serif" font-size="7" font-weight="bold" lengthAdjust="spacing" textLength="83.5" x="118" y="10.3369">Job Opening Aggregate</text></g><!--cluster InterviewPhase Aggregate--><g id="cluster_InterviewPhase Aggregate"><path d="M4.25,193 L97.75,193 A1.875,1.875 0 0 1 99,194.25 L102.5,203.8203 L102.75,203.8203 A1.25,1.25 0 0 1 104,205.0703 L104,327.75 A1.25,1.25 0 0 1 102.75,329 L4.25,329 A1.25,1.25 0 0 1 3,327.75 L3,194.25 A1.25,1.25 0 0 1 4.25,193 " fill="none" style="stroke:#000000;stroke-width:0.75;"/><line style="stroke:#000000;stroke-width:0.75;" x1="3" x2="102.5" y1="203.8203" y2="203.8203"/><text fill="#000000" font-family="sans-serif" font-size="7" font-weight="bold" lengthAdjust="spacing" textLength="93" x="5" y="200.3369">InterviewPhase Aggregate</text></g><!--class RecruitmentProcess--><g id="elem_RecruitmentProcess"><rect codeLine="7" fill="#F1F1F1" height="36.4609" id="RecruitmentProcess" rx="1.25" ry="1.25" style="stroke:#181818;stroke-width:0.25;" width="79.5" x="124.25" y="210"/><ellipse cx="131.75" cy="220.3203" fill="#ADD1B2" rx="5.5" ry="5.5" style="stroke:#181818;stroke-width:0.5;"/><path d="M133.1328,218.2578 Q133.2109,218.1484 133.3047,218.0938 Q133.3984,218.0391 133.5078,218.0391 Q133.6953,218.0391 133.8125,218.1719 Q133.9297,218.2969 133.9297,218.6016 L133.9297,219.3281 Q133.9297,219.6328 133.8125,219.7656 Q133.6953,219.8984 133.5078,219.8984 Q133.3359,219.8984 133.2344,219.7969 Q133.1328,219.7031 133.0781,219.4453 Q133.0547,219.2656 132.9609,219.1719 Q132.7969,218.9844 132.4922,218.875 Q132.1875,218.7656 131.875,218.7656 Q131.4922,218.7656 131.1719,218.9297 Q130.8594,219.0938 130.6094,219.4688 Q130.3672,219.8438 130.3672,220.3594 L130.3672,220.9063 Q130.3672,221.5234 130.8125,221.9375 Q131.2578,222.3438 132.0547,222.3438 Q132.5234,222.3438 132.8516,222.2188 Q133.0469,222.1406 133.2578,221.9219 Q133.3906,221.7891 133.4609,221.75 Q133.5391,221.7109 133.6406,221.7109 Q133.8047,221.7109 133.9297,221.8438 Q134.0625,221.9688 134.0625,222.1406 Q134.0625,222.3125 133.8906,222.5156 Q133.6406,222.8047 133.2422,222.9688 Q132.7031,223.1953 132.0547,223.1953 Q131.2969,223.1953 130.6953,222.8828 Q130.2031,222.6328 129.8594,222.1016 Q129.5156,221.5625 129.5156,220.9219 L129.5156,220.3438 Q129.5156,219.6797 129.8203,219.1094 Q130.1328,218.5313 130.6797,218.2266 Q131.2266,217.9141 131.8438,217.9141 Q132.2109,217.9141 132.5313,218 Q132.8594,218.0781 133.1328,218.2578 Z " fill="#000000"/><text fill="#000000" font-family="sans-serif" font-size="7" lengthAdjust="spacing" textLength="25" x="158" y="218.8369">&#171;entity&#187;</text><text fill="#000000" font-family="sans-serif" font-size="7" lengthAdjust="spacing" textLength="63.5" x="138.75" y="226.6572">RecruitmentProcess</text><line style="stroke:#181818;stroke-width:0.25;" x1="124.75" x2="203.25" y1="230.6406" y2="230.6406"/><text fill="#000000" font-family="sans-serif" font-size="7" lengthAdjust="spacing" textLength="59.5" x="127.25" y="238.9775">HasInterviewPhase</text><line style="stroke:#181818;stroke-width:0.25;" x1="124.75" x2="203.25" y1="242.4609" y2="242.4609"/></g><!--class Ranking--><g id="elem_Ranking"><rect codeLine="11" fill="#F1F1F1" height="28.6406" id="Ranking" rx="1.25" ry="1.25" style="stroke:#181818;stroke-width:0.25;" width="62" x="653" y="292.5"/><ellipse cx="660.5" cy="302.8203" fill="#ADD1B2" rx="5.5" ry="5.5" style="stroke:#181818;stroke-width:0.5;"/><path d="M661.8828,300.7578 Q661.9609,300.6484 662.0547,300.5938 Q662.1484,300.5391 662.2578,300.5391 Q662.4453,300.5391 662.5625,300.6719 Q662.6797,300.7969 662.6797,301.1016 L662.6797,301.8281 Q662.6797,302.1328 662.5625,302.2656 Q662.4453,302.3984 662.2578,302.3984 Q662.0859,302.3984 661.9844,302.2969 Q661.8828,302.2031 661.8281,301.9453 Q661.8047,301.7656 661.7109,301.6719 Q661.5469,301.4844 661.2422,301.375 Q660.9375,301.2656 660.625,301.2656 Q660.2422,301.2656 659.9219,301.4297 Q659.6094,301.5938 659.3594,301.9688 Q659.1172,302.3438 659.1172,302.8594 L659.1172,303.4063 Q659.1172,304.0234 659.5625,304.4375 Q660.0078,304.8438 660.8047,304.8438 Q661.2734,304.8438 661.6016,304.7188 Q661.7969,304.6406 662.0078,304.4219 Q662.1406,304.2891 662.2109,304.25 Q662.2891,304.2109 662.3906,304.2109 Q662.5547,304.2109 662.6797,304.3438 Q662.8125,304.4688 662.8125,304.6406 Q662.8125,304.8125 662.6406,305.0156 Q662.3906,305.3047 661.9922,305.4688 Q661.4531,305.6953 660.8047,305.6953 Q660.0469,305.6953 659.4453,305.3828 Q658.9531,305.1328 658.6094,304.6016 Q658.2656,304.0625 658.2656,303.4219 L658.2656,302.8438 Q658.2656,302.1797 658.5703,301.6094 Q658.8828,301.0313 659.4297,300.7266 Q659.9766,300.4141 660.5938,300.4141 Q660.9609,300.4141 661.2813,300.5 Q661.6094,300.5781 661.8828,300.7578 Z " fill="#000000"/><text fill="#000000" font-family="sans-serif" font-size="7" lengthAdjust="spacing" textLength="46" x="667.5" y="301.3369">&#171;value object&#187;</text><text fill="#000000" font-family="sans-serif" font-size="7" lengthAdjust="spacing" textLength="26" x="677.5" y="309.1572">Ranking</text><line style="stroke:#181818;stroke-width:0.25;" x1="653.5" x2="714.5" y1="313.1406" y2="313.1406"/><line style="stroke:#181818;stroke-width:0.25;" x1="653.5" x2="714.5" y1="317.1406" y2="317.1406"/></g><!--class Phase--><g id="elem_Phase"><rect codeLine="14" fill="#F1F1F1" height="44.2813" id="Phase" rx="1.25" ry="1.25" style="stroke:#181818;stroke-width:0.25;" width="41" x="587" y="284.5"/><ellipse cx="594.5" cy="294.8203" fill="#ADD1B2" rx="5.5" ry="5.5" style="stroke:#181818;stroke-width:0.5;"/><path d="M595.8828,292.7578 Q595.9609,292.6484 596.0547,292.5938 Q596.1484,292.5391 596.2578,292.5391 Q596.4453,292.5391 596.5625,292.6719 Q596.6797,292.7969 596.6797,293.1016 L596.6797,293.8281 Q596.6797,294.1328 596.5625,294.2656 Q596.4453,294.3984 596.2578,294.3984 Q596.0859,294.3984 595.9844,294.2969 Q595.8828,294.2031 595.8281,293.9453 Q595.8047,293.7656 595.7109,293.6719 Q595.5469,293.4844 595.2422,293.375 Q594.9375,293.2656 594.625,293.2656 Q594.2422,293.2656 593.9219,293.4297 Q593.6094,293.5938 593.3594,293.9688 Q593.1172,294.3438 593.1172,294.8594 L593.1172,295.4063 Q593.1172,296.0234 593.5625,296.4375 Q594.0078,296.8438 594.8047,296.8438 Q595.2734,296.8438 595.6016,296.7188 Q595.7969,296.6406 596.0078,296.4219 Q596.1406,296.2891 596.2109,296.25 Q596.2891,296.2109 596.3906,296.2109 Q596.5547,296.2109 596.6797,296.3438 Q596.8125,296.4688 596.8125,296.6406 Q596.8125,296.8125 596.6406,297.0156 Q596.3906,297.3047 595.9922,297.4688 Q595.4531,297.6953 594.8047,297.6953 Q594.0469,297.6953 593.4453,297.3828 Q592.9531,297.1328 592.6094,296.6016 Q592.2656,296.0625 592.2656,295.4219 L592.2656,294.8438 Q592.2656,294.1797 592.5703,293.6094 Q592.8828,293.0313 593.4297,292.7266 Q593.9766,292.4141 594.5938,292.4141 Q594.9609,292.4141 595.2813,292.5 Q595.6094,292.5781 595.8828,292.7578 Z " fill="#000000"/><text fill="#000000" font-family="sans-serif" font-size="7" lengthAdjust="spacing" textLength="25" x="601.5" y="293.3369">&#171;entity&#187;</text><text fill="#000000" font-family="sans-serif" font-size="7" lengthAdjust="spacing" textLength="20" x="604" y="301.1572">Phase</text><line style="stroke:#181818;stroke-width:0.25;" x1="587.5" x2="627.5" y1="305.1406" y2="305.1406"/><text fill="#000000" font-family="sans-serif" font-size="7" lengthAdjust="spacing" textLength="32.5" x="590" y="313.4775">beginDate</text><text fill="#000000" font-family="sans-serif" font-size="7" lengthAdjust="spacing" textLength="28" x="590" y="321.2979">finalDate</text><line style="stroke:#181818;stroke-width:0.25;" x1="587.5" x2="627.5" y1="324.7813" y2="324.7813"/></g><!--class ScreeningPhase--><g id="elem_ScreeningPhase"><rect codeLine="19" fill="#F1F1F1" height="28.6406" id="ScreeningPhase" rx="1.25" ry="1.25" style="stroke:#181818;stroke-width:0.25;" width="68" x="732.5" y="214"/><ellipse cx="740" cy="224.3203" fill="#ADD1B2" rx="5.5" ry="5.5" style="stroke:#181818;stroke-width:0.5;"/><path d="M741.3828,222.2578 Q741.4609,222.1484 741.5547,222.0938 Q741.6484,222.0391 741.7578,222.0391 Q741.9453,222.0391 742.0625,222.1719 Q742.1797,222.2969 742.1797,222.6016 L742.1797,223.3281 Q742.1797,223.6328 742.0625,223.7656 Q741.9453,223.8984 741.7578,223.8984 Q741.5859,223.8984 741.4844,223.7969 Q741.3828,223.7031 741.3281,223.4453 Q741.3047,223.2656 741.2109,223.1719 Q741.0469,222.9844 740.7422,222.875 Q740.4375,222.7656 740.125,222.7656 Q739.7422,222.7656 739.4219,222.9297 Q739.1094,223.0938 738.8594,223.4688 Q738.6172,223.8438 738.6172,224.3594 L738.6172,224.9063 Q738.6172,225.5234 739.0625,225.9375 Q739.5078,226.3438 740.3047,226.3438 Q740.7734,226.3438 741.1016,226.2188 Q741.2969,226.1406 741.5078,225.9219 Q741.6406,225.7891 741.7109,225.75 Q741.7891,225.7109 741.8906,225.7109 Q742.0547,225.7109 742.1797,225.8438 Q742.3125,225.9688 742.3125,226.1406 Q742.3125,226.3125 742.1406,226.5156 Q741.8906,226.8047 741.4922,226.9688 Q740.9531,227.1953 740.3047,227.1953 Q739.5469,227.1953 738.9453,226.8828 Q738.4531,226.6328 738.1094,226.1016 Q737.7656,225.5625 737.7656,224.9219 L737.7656,224.3438 Q737.7656,223.6797 738.0703,223.1094 Q738.3828,222.5313 738.9297,222.2266 Q739.4766,221.9141 740.0938,221.9141 Q740.4609,221.9141 740.7813,222 Q741.1094,222.0781 741.3828,222.2578 Z " fill="#000000"/><text fill="#000000" font-family="sans-serif" font-size="7" lengthAdjust="spacing" textLength="25" x="760.5" y="222.8369">&#171;entity&#187;</text><text fill="#000000" font-family="sans-serif" font-size="7" lengthAdjust="spacing" textLength="52" x="747" y="230.6572">ScreeningPhase</text><line style="stroke:#181818;stroke-width:0.25;" x1="733" x2="800" y1="234.6406" y2="234.6406"/><line style="stroke:#181818;stroke-width:0.25;" x1="733" x2="800" y1="238.6406" y2="238.6406"/></g><!--class ResultPhase--><g id="elem_ResultPhase"><rect codeLine="23" fill="#F1F1F1" height="28.6406" id="ResultPhase" rx="1.25" ry="1.25" style="stroke:#181818;stroke-width:0.25;" width="56" x="579.5" y="214"/><ellipse cx="587" cy="224.3203" fill="#ADD1B2" rx="5.5" ry="5.5" style="stroke:#181818;stroke-width:0.5;"/><path d="M588.3828,222.2578 Q588.4609,222.1484 588.5547,222.0938 Q588.6484,222.0391 588.7578,222.0391 Q588.9453,222.0391 589.0625,222.1719 Q589.1797,222.2969 589.1797,222.6016 L589.1797,223.3281 Q589.1797,223.6328 589.0625,223.7656 Q588.9453,223.8984 588.7578,223.8984 Q588.5859,223.8984 588.4844,223.7969 Q588.3828,223.7031 588.3281,223.4453 Q588.3047,223.2656 588.2109,223.1719 Q588.0469,222.9844 587.7422,222.875 Q587.4375,222.7656 587.125,222.7656 Q586.7422,222.7656 586.4219,222.9297 Q586.1094,223.0938 585.8594,223.4688 Q585.6172,223.8438 585.6172,224.3594 L585.6172,224.9063 Q585.6172,225.5234 586.0625,225.9375 Q586.5078,226.3438 587.3047,226.3438 Q587.7734,226.3438 588.1016,226.2188 Q588.2969,226.1406 588.5078,225.9219 Q588.6406,225.7891 588.7109,225.75 Q588.7891,225.7109 588.8906,225.7109 Q589.0547,225.7109 589.1797,225.8438 Q589.3125,225.9688 589.3125,226.1406 Q589.3125,226.3125 589.1406,226.5156 Q588.8906,226.8047 588.4922,226.9688 Q587.9531,227.1953 587.3047,227.1953 Q586.5469,227.1953 585.9453,226.8828 Q585.4531,226.6328 585.1094,226.1016 Q584.7656,225.5625 584.7656,224.9219 L584.7656,224.3438 Q584.7656,223.6797 585.0703,223.1094 Q585.3828,222.5313 585.9297,222.2266 Q586.4766,221.9141 587.0938,221.9141 Q587.4609,221.9141 587.7813,222 Q588.1094,222.0781 588.3828,222.2578 Z " fill="#000000"/><text fill="#000000" font-family="sans-serif" font-size="7" lengthAdjust="spacing" textLength="25" x="601.5" y="222.8369">&#171;entity&#187;</text><text fill="#000000" font-family="sans-serif" font-size="7" lengthAdjust="spacing" textLength="40" x="594" y="230.6572">ResultPhase</text><line style="stroke:#181818;stroke-width:0.25;" x1="580" x2="635" y1="234.6406" y2="234.6406"/><line style="stroke:#181818;stroke-width:0.25;" x1="580" x2="635" y1="238.6406" y2="238.6406"/></g><!--class AnalysisPhase--><g id="elem_AnalysisPhase"><rect codeLine="26" fill="#F1F1F1" height="28.6406" id="AnalysisPhase" rx="1.25" ry="1.25" style="stroke:#181818;stroke-width:0.25;" width="62" x="653" y="214"/><ellipse cx="660.5" cy="224.3203" fill="#ADD1B2" rx="5.5" ry="5.5" style="stroke:#181818;stroke-width:0.5;"/><path d="M661.8828,222.2578 Q661.9609,222.1484 662.0547,222.0938 Q662.1484,222.0391 662.2578,222.0391 Q662.4453,222.0391 662.5625,222.1719 Q662.6797,222.2969 662.6797,222.6016 L662.6797,223.3281 Q662.6797,223.6328 662.5625,223.7656 Q662.4453,223.8984 662.2578,223.8984 Q662.0859,223.8984 661.9844,223.7969 Q661.8828,223.7031 661.8281,223.4453 Q661.8047,223.2656 661.7109,223.1719 Q661.5469,222.9844 661.2422,222.875 Q660.9375,222.7656 660.625,222.7656 Q660.2422,222.7656 659.9219,222.9297 Q659.6094,223.0938 659.3594,223.4688 Q659.1172,223.8438 659.1172,224.3594 L659.1172,224.9063 Q659.1172,225.5234 659.5625,225.9375 Q660.0078,226.3438 660.8047,226.3438 Q661.2734,226.3438 661.6016,226.2188 Q661.7969,226.1406 662.0078,225.9219 Q662.1406,225.7891 662.2109,225.75 Q662.2891,225.7109 662.3906,225.7109 Q662.5547,225.7109 662.6797,225.8438 Q662.8125,225.9688 662.8125,226.1406 Q662.8125,226.3125 662.6406,226.5156 Q662.3906,226.8047 661.9922,226.9688 Q661.4531,227.1953 660.8047,227.1953 Q660.0469,227.1953 659.4453,226.8828 Q658.9531,226.6328 658.6094,226.1016 Q658.2656,225.5625 658.2656,224.9219 L658.2656,224.3438 Q658.2656,223.6797 658.5703,223.1094 Q658.8828,222.5313 659.4297,222.2266 Q659.9766,221.9141 660.5938,221.9141 Q660.9609,221.9141 661.2813,222 Q661.6094,222.0781 661.8828,222.2578 Z " fill="#000000"/><text fill="#000000" font-family="sans-serif" font-size="7" lengthAdjust="spacing" textLength="25" x="678" y="222.8369">&#171;entity&#187;</text><text fill="#000000" font-family="sans-serif" font-size="7" lengthAdjust="spacing" textLength="46" x="667.5" y="230.6572">AnalysisPhase</text><line style="stroke:#181818;stroke-width:0.25;" x1="653.5" x2="714.5" y1="234.6406" y2="234.6406"/><line style="stroke:#181818;stroke-width:0.25;" x1="653.5" x2="714.5" y1="238.6406" y2="238.6406"/></g><!--class JobOpening--><g id="elem_JobOpening"><rect codeLine="30" fill="#F1F1F1" height="36.4609" id="JobOpening" rx="1.25" ry="1.25" style="stroke:#181818;stroke-width:0.25;" width="54" x="314" y="125.5"/><ellipse cx="321.5" cy="139.7305" fill="#ADD1B2" rx="5.5" ry="5.5" style="stroke:#181818;stroke-width:0.5;"/><path d="M322.8828,137.668 Q322.9609,137.5586 323.0547,137.5039 Q323.1484,137.4492 323.2578,137.4492 Q323.4453,137.4492 323.5625,137.582 Q323.6797,137.707 323.6797,138.0117 L323.6797,138.7383 Q323.6797,139.043 323.5625,139.1758 Q323.4453,139.3086 323.2578,139.3086 Q323.0859,139.3086 322.9844,139.207 Q322.8828,139.1133 322.8281,138.8555 Q322.8047,138.6758 322.7109,138.582 Q322.5469,138.3945 322.2422,138.2852 Q321.9375,138.1758 321.625,138.1758 Q321.2422,138.1758 320.9219,138.3398 Q320.6094,138.5039 320.3594,138.8789 Q320.1172,139.2539 320.1172,139.7695 L320.1172,140.3164 Q320.1172,140.9336 320.5625,141.3477 Q321.0078,141.7539 321.8047,141.7539 Q322.2734,141.7539 322.6016,141.6289 Q322.7969,141.5508 323.0078,141.332 Q323.1406,141.1992 323.2109,141.1602 Q323.2891,141.1211 323.3906,141.1211 Q323.5547,141.1211 323.6797,141.2539 Q323.8125,141.3789 323.8125,141.5508 Q323.8125,141.7227 323.6406,141.9258 Q323.3906,142.2148 322.9922,142.3789 Q322.4531,142.6055 321.8047,142.6055 Q321.0469,142.6055 320.4453,142.293 Q319.9531,142.043 319.6094,141.5117 Q319.2656,140.9727 319.2656,140.332 L319.2656,139.7539 Q319.2656,139.0898 319.5703,138.5195 Q319.8828,137.9414 320.4297,137.6367 Q320.9766,137.3242 321.5938,137.3242 Q321.9609,137.3242 322.2813,137.4102 Q322.6094,137.4883 322.8828,137.668 Z " fill="#000000"/><text fill="#000000" font-family="sans-serif" font-size="7" lengthAdjust="spacing" textLength="20.5" x="337.25" y="134.3369">&#171;root&#187;</text><text fill="#000000" font-family="sans-serif" font-size="7" lengthAdjust="spacing" textLength="25" x="334" y="142.1572">&#171;entity&#187;</text><text fill="#000000" font-family="sans-serif" font-size="7" lengthAdjust="spacing" textLength="38" x="328.5" y="149.9775">JobOpening</text><line style="stroke:#181818;stroke-width:0.25;" x1="314.5" x2="367.5" y1="153.9609" y2="153.9609"/><line style="stroke:#181818;stroke-width:0.25;" x1="314.5" x2="367.5" y1="157.9609" y2="157.9609"/></g><!--class SetupStatus--><g id="elem_SetupStatus"><rect codeLine="35" fill="#F1F1F1" height="28.6406" id="SetupStatus" rx="1.25" ry="1.25" style="stroke:#181818;stroke-width:0.25;" width="62" x="221.5" y="214"/><ellipse cx="229" cy="224.3203" fill="#ADD1B2" rx="5.5" ry="5.5" style="stroke:#181818;stroke-width:0.5;"/><path d="M230.3828,222.2578 Q230.4609,222.1484 230.5547,222.0938 Q230.6484,222.0391 230.7578,222.0391 Q230.9453,222.0391 231.0625,222.1719 Q231.1797,222.2969 231.1797,222.6016 L231.1797,223.3281 Q231.1797,223.6328 231.0625,223.7656 Q230.9453,223.8984 230.7578,223.8984 Q230.5859,223.8984 230.4844,223.7969 Q230.3828,223.7031 230.3281,223.4453 Q230.3047,223.2656 230.2109,223.1719 Q230.0469,222.9844 229.7422,222.875 Q229.4375,222.7656 229.125,222.7656 Q228.7422,222.7656 228.4219,222.9297 Q228.1094,223.0938 227.8594,223.4688 Q227.6172,223.8438 227.6172,224.3594 L227.6172,224.9063 Q227.6172,225.5234 228.0625,225.9375 Q228.5078,226.3438 229.3047,226.3438 Q229.7734,226.3438 230.1016,226.2188 Q230.2969,226.1406 230.5078,225.9219 Q230.6406,225.7891 230.7109,225.75 Q230.7891,225.7109 230.8906,225.7109 Q231.0547,225.7109 231.1797,225.8438 Q231.3125,225.9688 231.3125,226.1406 Q231.3125,226.3125 231.1406,226.5156 Q230.8906,226.8047 230.4922,226.9688 Q229.9531,227.1953 229.3047,227.1953 Q228.5469,227.1953 227.9453,226.8828 Q227.4531,226.6328 227.1094,226.1016 Q226.7656,225.5625 226.7656,224.9219 L226.7656,224.3438 Q226.7656,223.6797 227.0703,223.1094 Q227.3828,222.5313 227.9297,222.2266 Q228.4766,221.9141 229.0938,221.9141 Q229.4609,221.9141 229.7813,222 Q230.1094,222.0781 230.3828,222.2578 Z " fill="#000000"/><text fill="#000000" font-family="sans-serif" font-size="7" lengthAdjust="spacing" textLength="46" x="236" y="222.8369">&#171;value object&#187;</text><text fill="#000000" font-family="sans-serif" font-size="7" lengthAdjust="spacing" textLength="38.5" x="239.75" y="230.6572">SetupStatus</text><line style="stroke:#181818;stroke-width:0.25;" x1="222" x2="283" y1="234.6406" y2="234.6406"/><line style="stroke:#181818;stroke-width:0.25;" x1="222" x2="283" y1="238.6406" y2="238.6406"/></g><!--class RequirementsStatus--><g id="elem_RequirementsStatus"><rect codeLine="38" fill="#F1F1F1" height="28.6406" id="RequirementsStatus" rx="1.25" ry="1.25" style="stroke:#181818;stroke-width:0.25;" width="80" x="301" y="214"/><ellipse cx="308.5" cy="224.3203" fill="#ADD1B2" rx="5.5" ry="5.5" style="stroke:#181818;stroke-width:0.5;"/><path d="M309.8828,222.2578 Q309.9609,222.1484 310.0547,222.0938 Q310.1484,222.0391 310.2578,222.0391 Q310.4453,222.0391 310.5625,222.1719 Q310.6797,222.2969 310.6797,222.6016 L310.6797,223.3281 Q310.6797,223.6328 310.5625,223.7656 Q310.4453,223.8984 310.2578,223.8984 Q310.0859,223.8984 309.9844,223.7969 Q309.8828,223.7031 309.8281,223.4453 Q309.8047,223.2656 309.7109,223.1719 Q309.5469,222.9844 309.2422,222.875 Q308.9375,222.7656 308.625,222.7656 Q308.2422,222.7656 307.9219,222.9297 Q307.6094,223.0938 307.3594,223.4688 Q307.1172,223.8438 307.1172,224.3594 L307.1172,224.9063 Q307.1172,225.5234 307.5625,225.9375 Q308.0078,226.3438 308.8047,226.3438 Q309.2734,226.3438 309.6016,226.2188 Q309.7969,226.1406 310.0078,225.9219 Q310.1406,225.7891 310.2109,225.75 Q310.2891,225.7109 310.3906,225.7109 Q310.5547,225.7109 310.6797,225.8438 Q310.8125,225.9688 310.8125,226.1406 Q310.8125,226.3125 310.6406,226.5156 Q310.3906,226.8047 309.9922,226.9688 Q309.4531,227.1953 308.8047,227.1953 Q308.0469,227.1953 307.4453,226.8828 Q306.9531,226.6328 306.6094,226.1016 Q306.2656,225.5625 306.2656,224.9219 L306.2656,224.3438 Q306.2656,223.6797 306.5703,223.1094 Q306.8828,222.5313 307.4297,222.2266 Q307.9766,221.9141 308.5938,221.9141 Q308.9609,221.9141 309.2813,222 Q309.6094,222.0781 309.8828,222.2578 Z " fill="#000000"/><text fill="#000000" font-family="sans-serif" font-size="7" lengthAdjust="spacing" textLength="46" x="324.5" y="222.8369">&#171;value object&#187;</text><text fill="#000000" font-family="sans-serif" font-size="7" lengthAdjust="spacing" textLength="64" x="315.5" y="230.6572">RequirementsStatus</text><line style="stroke:#181818;stroke-width:0.25;" x1="301.5" x2="380.5" y1="234.6406" y2="234.6406"/><line style="stroke:#181818;stroke-width:0.25;" x1="301.5" x2="380.5" y1="238.6406" y2="238.6406"/></g><!--class InterviewPhaseStatus--><g id="elem_InterviewPhaseStatus"><rect codeLine="41" fill="#F1F1F1" height="28.6406" id="InterviewPhaseStatus" rx="1.25" ry="1.25" style="stroke:#181818;stroke-width:0.25;" width="83.5" x="398.75" y="214"/><ellipse cx="406.25" cy="224.3203" fill="#ADD1B2" rx="5.5" ry="5.5" style="stroke:#181818;stroke-width:0.5;"/><path d="M407.6328,222.2578 Q407.7109,222.1484 407.8047,222.0938 Q407.8984,222.0391 408.0078,222.0391 Q408.1953,222.0391 408.3125,222.1719 Q408.4297,222.2969 408.4297,222.6016 L408.4297,223.3281 Q408.4297,223.6328 408.3125,223.7656 Q408.1953,223.8984 408.0078,223.8984 Q407.8359,223.8984 407.7344,223.7969 Q407.6328,223.7031 407.5781,223.4453 Q407.5547,223.2656 407.4609,223.1719 Q407.2969,222.9844 406.9922,222.875 Q406.6875,222.7656 406.375,222.7656 Q405.9922,222.7656 405.6719,222.9297 Q405.3594,223.0938 405.1094,223.4688 Q404.8672,223.8438 404.8672,224.3594 L404.8672,224.9063 Q404.8672,225.5234 405.3125,225.9375 Q405.7578,226.3438 406.5547,226.3438 Q407.0234,226.3438 407.3516,226.2188 Q407.5469,226.1406 407.7578,225.9219 Q407.8906,225.7891 407.9609,225.75 Q408.0391,225.7109 408.1406,225.7109 Q408.3047,225.7109 408.4297,225.8438 Q408.5625,225.9688 408.5625,226.1406 Q408.5625,226.3125 408.3906,226.5156 Q408.1406,226.8047 407.7422,226.9688 Q407.2031,227.1953 406.5547,227.1953 Q405.7969,227.1953 405.1953,226.8828 Q404.7031,226.6328 404.3594,226.1016 Q404.0156,225.5625 404.0156,224.9219 L404.0156,224.3438 Q404.0156,223.6797 404.3203,223.1094 Q404.6328,222.5313 405.1797,222.2266 Q405.7266,221.9141 406.3438,221.9141 Q406.7109,221.9141 407.0313,222 Q407.3594,222.0781 407.6328,222.2578 Z " fill="#000000"/><text fill="#000000" font-family="sans-serif" font-size="7" lengthAdjust="spacing" textLength="46" x="424" y="222.8369">&#171;value object&#187;</text><text fill="#000000" font-family="sans-serif" font-size="7" lengthAdjust="spacing" textLength="67.5" x="413.25" y="230.6572">InterviewPhaseStatus</text><line style="stroke:#181818;stroke-width:0.25;" x1="399.25" x2="481.75" y1="234.6406" y2="234.6406"/><line style="stroke:#181818;stroke-width:0.25;" x1="399.25" x2="481.75" y1="238.6406" y2="238.6406"/></g><!--class ContractType--><g id="elem_ContractType"><rect codeLine="44" fill="#F1F1F1" height="28.6406" id="ContractType" rx="1.25" ry="1.25" style="stroke:#181818;stroke-width:0.25;" width="62" x="547" y="39.5"/><ellipse cx="554.5" cy="49.8203" fill="#ADD1B2" rx="5.5" ry="5.5" style="stroke:#181818;stroke-width:0.5;"/><path d="M555.8828,47.7578 Q555.9609,47.6484 556.0547,47.5938 Q556.1484,47.5391 556.2578,47.5391 Q556.4453,47.5391 556.5625,47.6719 Q556.6797,47.7969 556.6797,48.1016 L556.6797,48.8281 Q556.6797,49.1328 556.5625,49.2656 Q556.4453,49.3984 556.2578,49.3984 Q556.0859,49.3984 555.9844,49.2969 Q555.8828,49.2031 555.8281,48.9453 Q555.8047,48.7656 555.7109,48.6719 Q555.5469,48.4844 555.2422,48.375 Q554.9375,48.2656 554.625,48.2656 Q554.2422,48.2656 553.9219,48.4297 Q553.6094,48.5938 553.3594,48.9688 Q553.1172,49.3438 553.1172,49.8594 L553.1172,50.4063 Q553.1172,51.0234 553.5625,51.4375 Q554.0078,51.8438 554.8047,51.8438 Q555.2734,51.8438 555.6016,51.7188 Q555.7969,51.6406 556.0078,51.4219 Q556.1406,51.2891 556.2109,51.25 Q556.2891,51.2109 556.3906,51.2109 Q556.5547,51.2109 556.6797,51.3438 Q556.8125,51.4688 556.8125,51.6406 Q556.8125,51.8125 556.6406,52.0156 Q556.3906,52.3047 555.9922,52.4688 Q555.4531,52.6953 554.8047,52.6953 Q554.0469,52.6953 553.4453,52.3828 Q552.9531,52.1328 552.6094,51.6016 Q552.2656,51.0625 552.2656,50.4219 L552.2656,49.8438 Q552.2656,49.1797 552.5703,48.6094 Q552.8828,48.0313 553.4297,47.7266 Q553.9766,47.4141 554.5938,47.4141 Q554.9609,47.4141 555.2813,47.5 Q555.6094,47.5781 555.8828,47.7578 Z " fill="#000000"/><text fill="#000000" font-family="sans-serif" font-size="7" lengthAdjust="spacing" textLength="46" x="561.5" y="48.3369">&#171;value object&#187;</text><text fill="#000000" font-family="sans-serif" font-size="7" lengthAdjust="spacing" textLength="43" x="563" y="56.1572">ContractType</text><line style="stroke:#181818;stroke-width:0.25;" x1="547.5" x2="608.5" y1="60.1406" y2="60.1406"/><line style="stroke:#181818;stroke-width:0.25;" x1="547.5" x2="608.5" y1="64.1406" y2="64.1406"/></g><!--class Mode--><g id="elem_Mode"><rect codeLine="47" fill="#F1F1F1" height="36.4609" id="Mode" rx="1.25" ry="1.25" style="stroke:#181818;stroke-width:0.25;" width="62" x="467.5" y="35.5"/><ellipse cx="475" cy="45.8203" fill="#ADD1B2" rx="5.5" ry="5.5" style="stroke:#181818;stroke-width:0.5;"/><path d="M476.3828,43.7578 Q476.4609,43.6484 476.5547,43.5938 Q476.6484,43.5391 476.7578,43.5391 Q476.9453,43.5391 477.0625,43.6719 Q477.1797,43.7969 477.1797,44.1016 L477.1797,44.8281 Q477.1797,45.1328 477.0625,45.2656 Q476.9453,45.3984 476.7578,45.3984 Q476.5859,45.3984 476.4844,45.2969 Q476.3828,45.2031 476.3281,44.9453 Q476.3047,44.7656 476.2109,44.6719 Q476.0469,44.4844 475.7422,44.375 Q475.4375,44.2656 475.125,44.2656 Q474.7422,44.2656 474.4219,44.4297 Q474.1094,44.5938 473.8594,44.9688 Q473.6172,45.3438 473.6172,45.8594 L473.6172,46.4063 Q473.6172,47.0234 474.0625,47.4375 Q474.5078,47.8438 475.3047,47.8438 Q475.7734,47.8438 476.1016,47.7188 Q476.2969,47.6406 476.5078,47.4219 Q476.6406,47.2891 476.7109,47.25 Q476.7891,47.2109 476.8906,47.2109 Q477.0547,47.2109 477.1797,47.3438 Q477.3125,47.4688 477.3125,47.6406 Q477.3125,47.8125 477.1406,48.0156 Q476.8906,48.3047 476.4922,48.4688 Q475.9531,48.6953 475.3047,48.6953 Q474.5469,48.6953 473.9453,48.3828 Q473.4531,48.1328 473.1094,47.6016 Q472.7656,47.0625 472.7656,46.4219 L472.7656,45.8438 Q472.7656,45.1797 473.0703,44.6094 Q473.3828,44.0313 473.9297,43.7266 Q474.4766,43.4141 475.0938,43.4141 Q475.4609,43.4141 475.7813,43.5 Q476.1094,43.5781 476.3828,43.7578 Z " fill="#000000"/><text fill="#000000" font-family="sans-serif" font-size="7" lengthAdjust="spacing" textLength="46" x="482" y="44.3369">&#171;value object&#187;</text><text fill="#000000" font-family="sans-serif" font-size="7" lengthAdjust="spacing" textLength="17.5" x="496.25" y="52.1572">Mode</text><line style="stroke:#181818;stroke-width:0.25;" x1="468" x2="529" y1="56.1406" y2="56.1406"/><text fill="#000000" font-family="sans-serif" font-size="7" lengthAdjust="spacing" textLength="34.5" x="470.5" y="64.4775">description</text><line style="stroke:#181818;stroke-width:0.25;" x1="468" x2="529" y1="67.9609" y2="67.9609"/></g><!--class JobFunction--><g id="elem_JobFunction"><rect codeLine="51" fill="#F1F1F1" height="36.4609" id="JobFunction" rx="1.25" ry="1.25" style="stroke:#181818;stroke-width:0.25;" width="62" x="388" y="35.5"/><ellipse cx="395.5" cy="45.8203" fill="#ADD1B2" rx="5.5" ry="5.5" style="stroke:#181818;stroke-width:0.5;"/><path d="M396.8828,43.7578 Q396.9609,43.6484 397.0547,43.5938 Q397.1484,43.5391 397.2578,43.5391 Q397.4453,43.5391 397.5625,43.6719 Q397.6797,43.7969 397.6797,44.1016 L397.6797,44.8281 Q397.6797,45.1328 397.5625,45.2656 Q397.4453,45.3984 397.2578,45.3984 Q397.0859,45.3984 396.9844,45.2969 Q396.8828,45.2031 396.8281,44.9453 Q396.8047,44.7656 396.7109,44.6719 Q396.5469,44.4844 396.2422,44.375 Q395.9375,44.2656 395.625,44.2656 Q395.2422,44.2656 394.9219,44.4297 Q394.6094,44.5938 394.3594,44.9688 Q394.1172,45.3438 394.1172,45.8594 L394.1172,46.4063 Q394.1172,47.0234 394.5625,47.4375 Q395.0078,47.8438 395.8047,47.8438 Q396.2734,47.8438 396.6016,47.7188 Q396.7969,47.6406 397.0078,47.4219 Q397.1406,47.2891 397.2109,47.25 Q397.2891,47.2109 397.3906,47.2109 Q397.5547,47.2109 397.6797,47.3438 Q397.8125,47.4688 397.8125,47.6406 Q397.8125,47.8125 397.6406,48.0156 Q397.3906,48.3047 396.9922,48.4688 Q396.4531,48.6953 395.8047,48.6953 Q395.0469,48.6953 394.4453,48.3828 Q393.9531,48.1328 393.6094,47.6016 Q393.2656,47.0625 393.2656,46.4219 L393.2656,45.8438 Q393.2656,45.1797 393.5703,44.6094 Q393.8828,44.0313 394.4297,43.7266 Q394.9766,43.4141 395.5938,43.4141 Q395.9609,43.4141 396.2813,43.5 Q396.6094,43.5781 396.8828,43.7578 Z " fill="#000000"/><text fill="#000000" font-family="sans-serif" font-size="7" lengthAdjust="spacing" textLength="46" x="402.5" y="44.3369">&#171;value object&#187;</text><text fill="#000000" font-family="sans-serif" font-size="7" lengthAdjust="spacing" textLength="38.5" x="406.25" y="52.1572">JobFunction</text><line style="stroke:#181818;stroke-width:0.25;" x1="388.5" x2="449.5" y1="56.1406" y2="56.1406"/><text fill="#000000" font-family="sans-serif" font-size="7" lengthAdjust="spacing" textLength="34.5" x="391" y="64.4775">description</text><line style="stroke:#181818;stroke-width:0.25;" x1="388.5" x2="449.5" y1="67.9609" y2="67.9609"/></g><!--class NumberOfVacancies--><g id="elem_NumberOfVacancies"><rect codeLine="55" fill="#F1F1F1" height="28.6406" id="NumberOfVacancies" rx="1.25" ry="1.25" style="stroke:#181818;stroke-width:0.25;" width="82.5" x="287.75" y="39.5"/><ellipse cx="295.25" cy="49.8203" fill="#ADD1B2" rx="5.5" ry="5.5" style="stroke:#181818;stroke-width:0.5;"/><path d="M296.6328,47.7578 Q296.7109,47.6484 296.8047,47.5938 Q296.8984,47.5391 297.0078,47.5391 Q297.1953,47.5391 297.3125,47.6719 Q297.4297,47.7969 297.4297,48.1016 L297.4297,48.8281 Q297.4297,49.1328 297.3125,49.2656 Q297.1953,49.3984 297.0078,49.3984 Q296.8359,49.3984 296.7344,49.2969 Q296.6328,49.2031 296.5781,48.9453 Q296.5547,48.7656 296.4609,48.6719 Q296.2969,48.4844 295.9922,48.375 Q295.6875,48.2656 295.375,48.2656 Q294.9922,48.2656 294.6719,48.4297 Q294.3594,48.5938 294.1094,48.9688 Q293.8672,49.3438 293.8672,49.8594 L293.8672,50.4063 Q293.8672,51.0234 294.3125,51.4375 Q294.7578,51.8438 295.5547,51.8438 Q296.0234,51.8438 296.3516,51.7188 Q296.5469,51.6406 296.7578,51.4219 Q296.8906,51.2891 296.9609,51.25 Q297.0391,51.2109 297.1406,51.2109 Q297.3047,51.2109 297.4297,51.3438 Q297.5625,51.4688 297.5625,51.6406 Q297.5625,51.8125 297.3906,52.0156 Q297.1406,52.3047 296.7422,52.4688 Q296.2031,52.6953 295.5547,52.6953 Q294.7969,52.6953 294.1953,52.3828 Q293.7031,52.1328 293.3594,51.6016 Q293.0156,51.0625 293.0156,50.4219 L293.0156,49.8438 Q293.0156,49.1797 293.3203,48.6094 Q293.6328,48.0313 294.1797,47.7266 Q294.7266,47.4141 295.3438,47.4141 Q295.7109,47.4141 296.0313,47.5 Q296.3594,47.5781 296.6328,47.7578 Z " fill="#000000"/><text fill="#000000" font-family="sans-serif" font-size="7" lengthAdjust="spacing" textLength="46" x="312.5" y="48.3369">&#171;value object&#187;</text><text fill="#000000" font-family="sans-serif" font-size="7" lengthAdjust="spacing" textLength="64.5" x="304.25" y="56.1572">NumberOfVacancies</text><line style="stroke:#181818;stroke-width:0.25;" x1="288.25" x2="369.75" y1="60.1406" y2="60.1406"/><line style="stroke:#181818;stroke-width:0.25;" x1="288.25" x2="369.75" y1="64.1406" y2="64.1406"/></g><!--class Description--><g id="elem_Description"><rect codeLine="59" fill="#F1F1F1" height="36.4609" id="Description" rx="1.25" ry="1.25" style="stroke:#181818;stroke-width:0.25;" width="62" x="208" y="35.5"/><ellipse cx="215.5" cy="45.8203" fill="#ADD1B2" rx="5.5" ry="5.5" style="stroke:#181818;stroke-width:0.5;"/><path d="M216.8828,43.7578 Q216.9609,43.6484 217.0547,43.5938 Q217.1484,43.5391 217.2578,43.5391 Q217.4453,43.5391 217.5625,43.6719 Q217.6797,43.7969 217.6797,44.1016 L217.6797,44.8281 Q217.6797,45.1328 217.5625,45.2656 Q217.4453,45.3984 217.2578,45.3984 Q217.0859,45.3984 216.9844,45.2969 Q216.8828,45.2031 216.8281,44.9453 Q216.8047,44.7656 216.7109,44.6719 Q216.5469,44.4844 216.2422,44.375 Q215.9375,44.2656 215.625,44.2656 Q215.2422,44.2656 214.9219,44.4297 Q214.6094,44.5938 214.3594,44.9688 Q214.1172,45.3438 214.1172,45.8594 L214.1172,46.4063 Q214.1172,47.0234 214.5625,47.4375 Q215.0078,47.8438 215.8047,47.8438 Q216.2734,47.8438 216.6016,47.7188 Q216.7969,47.6406 217.0078,47.4219 Q217.1406,47.2891 217.2109,47.25 Q217.2891,47.2109 217.3906,47.2109 Q217.5547,47.2109 217.6797,47.3438 Q217.8125,47.4688 217.8125,47.6406 Q217.8125,47.8125 217.6406,48.0156 Q217.3906,48.3047 216.9922,48.4688 Q216.4531,48.6953 215.8047,48.6953 Q215.0469,48.6953 214.4453,48.3828 Q213.9531,48.1328 213.6094,47.6016 Q213.2656,47.0625 213.2656,46.4219 L213.2656,45.8438 Q213.2656,45.1797 213.5703,44.6094 Q213.8828,44.0313 214.4297,43.7266 Q214.9766,43.4141 215.5938,43.4141 Q215.9609,43.4141 216.2813,43.5 Q216.6094,43.5781 216.8828,43.7578 Z " fill="#000000"/><text fill="#000000" font-family="sans-serif" font-size="7" lengthAdjust="spacing" textLength="46" x="222.5" y="44.3369">&#171;value object&#187;</text><text fill="#000000" font-family="sans-serif" font-size="7" lengthAdjust="spacing" textLength="35.5" x="227.75" y="52.1572">Description</text><line style="stroke:#181818;stroke-width:0.25;" x1="208.5" x2="269.5" y1="56.1406" y2="56.1406"/><text fill="#000000" font-family="sans-serif" font-size="7" lengthAdjust="spacing" textLength="34.5" x="211" y="64.4775">description</text><line style="stroke:#181818;stroke-width:0.25;" x1="208.5" x2="269.5" y1="67.9609" y2="67.9609"/></g><!--class Address1--><g id="elem_Address1"><rect codeLine="64" fill="#F1F1F1" height="67.7422" id="Address1" rx="1.25" ry="1.25" style="stroke:#181818;stroke-width:0.25;" width="62" x="128.5" y="20"/><ellipse cx="136" cy="30.3203" fill="#ADD1B2" rx="5.5" ry="5.5" style="stroke:#181818;stroke-width:0.5;"/><path d="M137.3828,28.2578 Q137.4609,28.1484 137.5547,28.0938 Q137.6484,28.0391 137.7578,28.0391 Q137.9453,28.0391 138.0625,28.1719 Q138.1797,28.2969 138.1797,28.6016 L138.1797,29.3281 Q138.1797,29.6328 138.0625,29.7656 Q137.9453,29.8984 137.7578,29.8984 Q137.5859,29.8984 137.4844,29.7969 Q137.3828,29.7031 137.3281,29.4453 Q137.3047,29.2656 137.2109,29.1719 Q137.0469,28.9844 136.7422,28.875 Q136.4375,28.7656 136.125,28.7656 Q135.7422,28.7656 135.4219,28.9297 Q135.1094,29.0938 134.8594,29.4688 Q134.6172,29.8438 134.6172,30.3594 L134.6172,30.9063 Q134.6172,31.5234 135.0625,31.9375 Q135.5078,32.3438 136.3047,32.3438 Q136.7734,32.3438 137.1016,32.2188 Q137.2969,32.1406 137.5078,31.9219 Q137.6406,31.7891 137.7109,31.75 Q137.7891,31.7109 137.8906,31.7109 Q138.0547,31.7109 138.1797,31.8438 Q138.3125,31.9688 138.3125,32.1406 Q138.3125,32.3125 138.1406,32.5156 Q137.8906,32.8047 137.4922,32.9688 Q136.9531,33.1953 136.3047,33.1953 Q135.5469,33.1953 134.9453,32.8828 Q134.4531,32.6328 134.1094,32.1016 Q133.7656,31.5625 133.7656,30.9219 L133.7656,30.3438 Q133.7656,29.6797 134.0703,29.1094 Q134.3828,28.5313 134.9297,28.2266 Q135.4766,27.9141 136.0938,27.9141 Q136.4609,27.9141 136.7813,28 Q137.1094,28.0781 137.3828,28.2578 Z " fill="#000000"/><text fill="#000000" font-family="sans-serif" font-size="7" lengthAdjust="spacing" textLength="46" x="143" y="28.8369">&#171;value object&#187;</text><text fill="#000000" font-family="sans-serif" font-size="7" lengthAdjust="spacing" textLength="26" x="153" y="36.6572">Address</text><line style="stroke:#181818;stroke-width:0.25;" x1="129" x2="190" y1="40.6406" y2="40.6406"/><text fill="#000000" font-family="sans-serif" font-size="7" lengthAdjust="spacing" textLength="19" x="131.5" y="48.9775">Street</text><text fill="#000000" font-family="sans-serif" font-size="7" lengthAdjust="spacing" textLength="12" x="131.5" y="56.7979">City</text><text fill="#000000" font-family="sans-serif" font-size="7" lengthAdjust="spacing" textLength="16.5" x="131.5" y="64.6182">State</text><text fill="#000000" font-family="sans-serif" font-size="7" lengthAdjust="spacing" textLength="25" x="131.5" y="72.4385">Country</text><text fill="#000000" font-family="sans-serif" font-size="7" lengthAdjust="spacing" textLength="25" x="131.5" y="80.2588">Zipcode</text><line style="stroke:#181818;stroke-width:0.25;" x1="129" x2="190" y1="83.7422" y2="83.7422"/></g><!--class JobReference--><g id="elem_JobReference"><rect codeLine="72" fill="#F1F1F1" height="36.4609" id="JobReference" rx="1.25" ry="1.25" style="stroke:#181818;stroke-width:0.25;" width="62" x="500" y="210"/><ellipse cx="507.5" cy="224.2305" fill="#ADD1B2" rx="5.5" ry="5.5" style="stroke:#181818;stroke-width:0.5;"/><path d="M508.8828,222.168 Q508.9609,222.0586 509.0547,222.0039 Q509.1484,221.9492 509.2578,221.9492 Q509.4453,221.9492 509.5625,222.082 Q509.6797,222.207 509.6797,222.5117 L509.6797,223.2383 Q509.6797,223.543 509.5625,223.6758 Q509.4453,223.8086 509.2578,223.8086 Q509.0859,223.8086 508.9844,223.707 Q508.8828,223.6133 508.8281,223.3555 Q508.8047,223.1758 508.7109,223.082 Q508.5469,222.8945 508.2422,222.7852 Q507.9375,222.6758 507.625,222.6758 Q507.2422,222.6758 506.9219,222.8398 Q506.6094,223.0039 506.3594,223.3789 Q506.1172,223.7539 506.1172,224.2695 L506.1172,224.8164 Q506.1172,225.4336 506.5625,225.8477 Q507.0078,226.2539 507.8047,226.2539 Q508.2734,226.2539 508.6016,226.1289 Q508.7969,226.0508 509.0078,225.832 Q509.1406,225.6992 509.2109,225.6602 Q509.2891,225.6211 509.3906,225.6211 Q509.5547,225.6211 509.6797,225.7539 Q509.8125,225.8789 509.8125,226.0508 Q509.8125,226.2227 509.6406,226.4258 Q509.3906,226.7148 508.9922,226.8789 Q508.4531,227.1055 507.8047,227.1055 Q507.0469,227.1055 506.4453,226.793 Q505.9531,226.543 505.6094,226.0117 Q505.2656,225.4727 505.2656,224.832 L505.2656,224.2539 Q505.2656,223.5898 505.5703,223.0195 Q505.8828,222.4414 506.4297,222.1367 Q506.9766,221.8242 507.5938,221.8242 Q507.9609,221.8242 508.2813,221.9102 Q508.6094,221.9883 508.8828,222.168 Z " fill="#000000"/><text fill="#000000" font-family="sans-serif" font-size="7" lengthAdjust="spacing" textLength="46" x="514.5" y="218.8369">&#171;value object&#187;</text><text fill="#000000" font-family="sans-serif" font-size="7" lengthAdjust="spacing" textLength="35" x="520" y="226.6572">&#171;identifier&#187;</text><text fill="#000000" font-family="sans-serif" font-size="7" lengthAdjust="spacing" textLength="44" x="515.5" y="234.4775">JobReference</text><line style="stroke:#181818;stroke-width:0.25;" x1="500.5" x2="561.5" y1="238.4609" y2="238.4609"/><line style="stroke:#181818;stroke-width:0.25;" x1="500.5" x2="561.5" y1="242.4609" y2="242.4609"/></g><!--class InterviewPhase--><g id="elem_InterviewPhase"><rect codeLine="82" fill="#F1F1F1" height="36.4609" id="InterviewPhase" rx="1.25" ry="1.25" style="stroke:#181818;stroke-width:0.25;" width="63.5" x="29.75" y="210"/><ellipse cx="37.25" cy="220.3203" fill="#ADD1B2" rx="5.5" ry="5.5" style="stroke:#181818;stroke-width:0.5;"/><path d="M38.6328,218.2578 Q38.7109,218.1484 38.8047,218.0938 Q38.8984,218.0391 39.0078,218.0391 Q39.1953,218.0391 39.3125,218.1719 Q39.4297,218.2969 39.4297,218.6016 L39.4297,219.3281 Q39.4297,219.6328 39.3125,219.7656 Q39.1953,219.8984 39.0078,219.8984 Q38.8359,219.8984 38.7344,219.7969 Q38.6328,219.7031 38.5781,219.4453 Q38.5547,219.2656 38.4609,219.1719 Q38.2969,218.9844 37.9922,218.875 Q37.6875,218.7656 37.375,218.7656 Q36.9922,218.7656 36.6719,218.9297 Q36.3594,219.0938 36.1094,219.4688 Q35.8672,219.8438 35.8672,220.3594 L35.8672,220.9063 Q35.8672,221.5234 36.3125,221.9375 Q36.7578,222.3438 37.5547,222.3438 Q38.0234,222.3438 38.3516,222.2188 Q38.5469,222.1406 38.7578,221.9219 Q38.8906,221.7891 38.9609,221.75 Q39.0391,221.7109 39.1406,221.7109 Q39.3047,221.7109 39.4297,221.8438 Q39.5625,221.9688 39.5625,222.1406 Q39.5625,222.3125 39.3906,222.5156 Q39.1406,222.8047 38.7422,222.9688 Q38.2031,223.1953 37.5547,223.1953 Q36.7969,223.1953 36.1953,222.8828 Q35.7031,222.6328 35.3594,222.1016 Q35.0156,221.5625 35.0156,220.9219 L35.0156,220.3438 Q35.0156,219.6797 35.3203,219.1094 Q35.6328,218.5313 36.1797,218.2266 Q36.7266,217.9141 37.3438,217.9141 Q37.7109,217.9141 38.0313,218 Q38.3594,218.0781 38.6328,218.2578 Z " fill="#000000"/><text fill="#000000" font-family="sans-serif" font-size="7" lengthAdjust="spacing" textLength="25" x="55.5" y="218.8369">&#171;entity&#187;</text><text fill="#000000" font-family="sans-serif" font-size="7" lengthAdjust="spacing" textLength="47.5" x="44.25" y="226.6572">InterviewPhase</text><line style="stroke:#181818;stroke-width:0.25;" x1="30.25" x2="92.75" y1="230.6406" y2="230.6406"/><text fill="#000000" font-family="sans-serif" font-size="7" lengthAdjust="spacing" textLength="30.5" x="32.75" y="238.9775">DateTime</text><line style="stroke:#181818;stroke-width:0.25;" x1="30.25" x2="92.75" y1="242.4609" y2="242.4609"/></g><!--class InterviewAnswersFile--><g id="elem_InterviewAnswersFile"><rect codeLine="86" fill="#F1F1F1" height="28.6406" id="InterviewAnswersFile" rx="1.25" ry="1.25" style="stroke:#181818;stroke-width:0.25;" width="81.5" x="14.25" y="292.5"/><ellipse cx="21.75" cy="302.8203" fill="#ADD1B2" rx="5.5" ry="5.5" style="stroke:#181818;stroke-width:0.5;"/><path d="M23.1328,300.7578 Q23.2109,300.6484 23.3047,300.5938 Q23.3984,300.5391 23.5078,300.5391 Q23.6953,300.5391 23.8125,300.6719 Q23.9297,300.7969 23.9297,301.1016 L23.9297,301.8281 Q23.9297,302.1328 23.8125,302.2656 Q23.6953,302.3984 23.5078,302.3984 Q23.3359,302.3984 23.2344,302.2969 Q23.1328,302.2031 23.0781,301.9453 Q23.0547,301.7656 22.9609,301.6719 Q22.7969,301.4844 22.4922,301.375 Q22.1875,301.2656 21.875,301.2656 Q21.4922,301.2656 21.1719,301.4297 Q20.8594,301.5938 20.6094,301.9688 Q20.3672,302.3438 20.3672,302.8594 L20.3672,303.4063 Q20.3672,304.0234 20.8125,304.4375 Q21.2578,304.8438 22.0547,304.8438 Q22.5234,304.8438 22.8516,304.7188 Q23.0469,304.6406 23.2578,304.4219 Q23.3906,304.2891 23.4609,304.25 Q23.5391,304.2109 23.6406,304.2109 Q23.8047,304.2109 23.9297,304.3438 Q24.0625,304.4688 24.0625,304.6406 Q24.0625,304.8125 23.8906,305.0156 Q23.6406,305.3047 23.2422,305.4688 Q22.7031,305.6953 22.0547,305.6953 Q21.2969,305.6953 20.6953,305.3828 Q20.2031,305.1328 19.8594,304.6016 Q19.5156,304.0625 19.5156,303.4219 L19.5156,302.8438 Q19.5156,302.1797 19.8203,301.6094 Q20.1328,301.0313 20.6797,300.7266 Q21.2266,300.4141 21.8438,300.4141 Q22.2109,300.4141 22.5313,300.5 Q22.8594,300.5781 23.1328,300.7578 Z " fill="#000000"/><text fill="#000000" font-family="sans-serif" font-size="7" lengthAdjust="spacing" textLength="46" x="38.5" y="301.3369">&#171;value object&#187;</text><text fill="#000000" font-family="sans-serif" font-size="7" lengthAdjust="spacing" textLength="65.5" x="28.75" y="309.1572">InterviewAnswersFile</text><line style="stroke:#181818;stroke-width:0.25;" x1="14.75" x2="95.25" y1="313.1406" y2="313.1406"/><line style="stroke:#181818;stroke-width:0.25;" x1="14.75" x2="95.25" y1="317.1406" y2="317.1406"/></g><!--class JobApplicationWasAccepted--><g id="elem_JobApplicationWasAccepted"><rect fill="#F1F1F1" height="24" id="JobApplicationWasAccepted" rx="1.25" ry="1.25" style="stroke:#181818;stroke-width:0.25;" width="105" x="816.5" y="294.75"/><ellipse cx="824" cy="302.75" fill="#ADD1B2" rx="5.5" ry="5.5" style="stroke:#181818;stroke-width:0.5;"/><path d="M825.3828,300.6875 Q825.4609,300.5781 825.5547,300.5234 Q825.6484,300.4688 825.7578,300.4688 Q825.9453,300.4688 826.0625,300.6016 Q826.1797,300.7266 826.1797,301.0313 L826.1797,301.7578 Q826.1797,302.0625 826.0625,302.1953 Q825.9453,302.3281 825.7578,302.3281 Q825.5859,302.3281 825.4844,302.2266 Q825.3828,302.1328 825.3281,301.875 Q825.3047,301.6953 825.2109,301.6016 Q825.0469,301.4141 824.7422,301.3047 Q824.4375,301.1953 824.125,301.1953 Q823.7422,301.1953 823.4219,301.3594 Q823.1094,301.5234 822.8594,301.8984 Q822.6172,302.2734 822.6172,302.7891 L822.6172,303.3359 Q822.6172,303.9531 823.0625,304.3672 Q823.5078,304.7734 824.3047,304.7734 Q824.7734,304.7734 825.1016,304.6484 Q825.2969,304.5703 825.5078,304.3516 Q825.6406,304.2188 825.7109,304.1797 Q825.7891,304.1406 825.8906,304.1406 Q826.0547,304.1406 826.1797,304.2734 Q826.3125,304.3984 826.3125,304.5703 Q826.3125,304.7422 826.1406,304.9453 Q825.8906,305.2344 825.4922,305.3984 Q824.9531,305.625 824.3047,305.625 Q823.5469,305.625 822.9453,305.3125 Q822.4531,305.0625 822.1094,304.5313 Q821.7656,303.9922 821.7656,303.3516 L821.7656,302.7734 Q821.7656,302.1094 822.0703,301.5391 Q822.3828,300.9609 822.9297,300.6563 Q823.4766,300.3438 824.0938,300.3438 Q824.4609,300.3438 824.7813,300.4297 Q825.1094,300.5078 825.3828,300.6875 Z " fill="#000000"/><text fill="#000000" font-family="sans-serif" font-size="7" lengthAdjust="spacing" textLength="89" x="831" y="305.1768">JobApplicationWasAccepted</text><line style="stroke:#181818;stroke-width:0.25;" x1="817" x2="921" y1="310.75" y2="310.75"/><line style="stroke:#181818;stroke-width:0.25;" x1="817" x2="921" y1="314.75" y2="314.75"/></g><!--class JobApplicationWasRejected--><g id="elem_JobApplicationWasRejected"><rect fill="#F1F1F1" height="24" id="JobApplicationWasRejected" rx="1.25" ry="1.25" style="stroke:#181818;stroke-width:0.25;" width="103.5" x="939.25" y="294.75"/><ellipse cx="946.75" cy="302.75" fill="#ADD1B2" rx="5.5" ry="5.5" style="stroke:#181818;stroke-width:0.5;"/><path d="M948.1328,300.6875 Q948.2109,300.5781 948.3047,300.5234 Q948.3984,300.4688 948.5078,300.4688 Q948.6953,300.4688 948.8125,300.6016 Q948.9297,300.7266 948.9297,301.0313 L948.9297,301.7578 Q948.9297,302.0625 948.8125,302.1953 Q948.6953,302.3281 948.5078,302.3281 Q948.3359,302.3281 948.2344,302.2266 Q948.1328,302.1328 948.0781,301.875 Q948.0547,301.6953 947.9609,301.6016 Q947.7969,301.4141 947.4922,301.3047 Q947.1875,301.1953 946.875,301.1953 Q946.4922,301.1953 946.1719,301.3594 Q945.8594,301.5234 945.6094,301.8984 Q945.3672,302.2734 945.3672,302.7891 L945.3672,303.3359 Q945.3672,303.9531 945.8125,304.3672 Q946.2578,304.7734 947.0547,304.7734 Q947.5234,304.7734 947.8516,304.6484 Q948.0469,304.5703 948.2578,304.3516 Q948.3906,304.2188 948.4609,304.1797 Q948.5391,304.1406 948.6406,304.1406 Q948.8047,304.1406 948.9297,304.2734 Q949.0625,304.3984 949.0625,304.5703 Q949.0625,304.7422 948.8906,304.9453 Q948.6406,305.2344 948.2422,305.3984 Q947.7031,305.625 947.0547,305.625 Q946.2969,305.625 945.6953,305.3125 Q945.2031,305.0625 944.8594,304.5313 Q944.5156,303.9922 944.5156,303.3516 L944.5156,302.7734 Q944.5156,302.1094 944.8203,301.5391 Q945.1328,300.9609 945.6797,300.6563 Q946.2266,300.3438 946.8438,300.3438 Q947.2109,300.3438 947.5313,300.4297 Q947.8594,300.5078 948.1328,300.6875 Z " fill="#000000"/><text fill="#000000" font-family="sans-serif" font-size="7" lengthAdjust="spacing" textLength="87.5" x="953.75" y="305.1768">JobApplicationWasRejected</text><line style="stroke:#181818;stroke-width:0.25;" x1="939.75" x2="1042.25" y1="310.75" y2="310.75"/><line style="stroke:#181818;stroke-width:0.25;" x1="939.75" x2="1042.25" y1="314.75" y2="314.75"/></g><!--link ResultPhase to Phase--><g id="link_ResultPhase_Phase"><path codeLine="93" d="M607.5,242.605 C607.5,254.23 607.5,262.04 607.5,275.465 " fill="none" id="ResultPhase-to-Phase" style="stroke:#181818;stroke-width:0.5;"/><polygon fill="none" points="607.5,284.465,610.5,275.465,604.5,275.465,607.5,284.465" style="stroke:#181818;stroke-width:0.5;"/></g><!--link InterviewPhase to InterviewAnswersFile--><g id="link_InterviewPhase_InterviewAnswersFile"><path codeLine="94" d="M60.01,246.53 C58.84,260.475 57.4858,276.6105 56.4108,289.4255 " fill="none" id="InterviewPhase-to-InterviewAnswersFile" style="stroke:#181818;stroke-width:0.5;stroke-dasharray:7.0,7.0;"/><polygon fill="#181818" points="56.16,292.415,58.5292,288.0979,56.369,289.9237,54.5432,287.7636,56.16,292.415" style="stroke:#181818;stroke-width:0.5;"/><text fill="#000000" font-family="sans-serif" font-size="6.5" lengthAdjust="spacing" textLength="14" x="59.5" y="267.8843">adds</text><text fill="#000000" font-family="sans-serif" font-size="6.5" lengthAdjust="spacing" textLength="3.5" x="55.9329" y="256.3206">1</text><text fill="#000000" font-family="sans-serif" font-size="6.5" lengthAdjust="spacing" textLength="3.5" x="52.5236" y="287.1889">1</text></g><!--reverse link AnalysisPhase to Ranking--><g id="link_AnalysisPhase_Ranking"><path codeLine="97" d="M684,245.605 C684,259.67 684,278.315 684,292.385 " fill="none" id="AnalysisPhase-backto-Ranking" style="stroke:#181818;stroke-width:0.5;"/><polygon fill="#181818" points="684,242.605,682,247.105,684,245.105,686,247.105,684,242.605" style="stroke:#181818;stroke-width:0.5;"/><text fill="#000000" font-family="sans-serif" font-size="6.5" lengthAdjust="spacing" textLength="35.5" x="684.5" y="267.8843">is generated</text><text fill="#000000" font-family="sans-serif" font-size="6.5" lengthAdjust="spacing" textLength="3.5" x="680.0953" y="252.6322">1</text><text fill="#000000" font-family="sans-serif" font-size="6.5" lengthAdjust="spacing" textLength="3.5" x="680.0953" y="287.152">1</text></g><!--reverse link Mode to JobOpening--><g id="link_Mode_JobOpening"><path codeLine="98" d="M477.1039,73.9985 C470.8639,79.3285 466.015,83 459,87.5 C429.54,106.405 392.66,122.8 368.045,132.825 " fill="none" id="Mode-backto-JobOpening" style="stroke:#181818;stroke-width:0.5;"/><polygon fill="#181818" points="479.385,72.05,474.6643,73.4519,477.4841,73.6737,477.2623,76.4934,479.385,72.05" style="stroke:#181818;stroke-width:0.5;"/><text fill="#000000" font-family="sans-serif" font-size="6.5" lengthAdjust="spacing" textLength="24" x="431.5" y="108.8843">includes</text><text fill="#000000" font-family="sans-serif" font-size="6.5" lengthAdjust="spacing" textLength="3.5" x="472.1684" y="81.8442">1</text><text fill="#000000" font-family="sans-serif" font-size="6.5" lengthAdjust="spacing" textLength="3.5" x="371.9143" y="129.7911">1</text></g><!--reverse link JobFunction to JobOpening--><g id="link_JobFunction_JobOpening"><path codeLine="99" d="M401.4278,74.3012 C387.8228,89.8262 370.165,109.97 356.57,125.485 " fill="none" id="JobFunction-backto-JobOpening" style="stroke:#181818;stroke-width:0.5;"/><polygon fill="#181818" points="403.405,72.045,398.935,74.1112,401.7573,73.9252,401.9433,76.7475,403.405,72.045" style="stroke:#181818;stroke-width:0.5;"/><text fill="#000000" font-family="sans-serif" font-size="6.5" lengthAdjust="spacing" textLength="24" x="375.5" y="108.8843">includes</text><text fill="#000000" font-family="sans-serif" font-size="6.5" lengthAdjust="spacing" textLength="3.5" x="396.8154" y="81.8383">1</text><text fill="#000000" font-family="sans-serif" font-size="6.5" lengthAdjust="spacing" textLength="3.5" x="355.7908" y="120.1139">1</text></g><!--reverse link NumberOfVacancies to JobOpening--><g id="link_NumberOfVacancies_JobOpening"><path codeLine="100" d="M331.2762,71.128 C333.3612,86.578 336.325,108.59 338.6,125.455 " fill="none" id="NumberOfVacancies-backto-JobOpening" style="stroke:#181818;stroke-width:0.5;"/><polygon fill="#181818" points="330.875,68.155,329.4948,72.8821,331.2093,70.6325,333.4589,72.3471,330.875,68.155" style="stroke:#181818;stroke-width:0.5;"/><text fill="#000000" font-family="sans-serif" font-size="6.5" lengthAdjust="spacing" textLength="24" x="336.5" y="108.8843">includes</text><text fill="#000000" font-family="sans-serif" font-size="6.5" lengthAdjust="spacing" textLength="3.5" x="327.4023" y="77.9692">1</text><text fill="#000000" font-family="sans-serif" font-size="6.5" lengthAdjust="spacing" textLength="3.5" x="334.283" y="120.078">1</text></g><!--reverse link Description to JobOpening--><g id="link_Description_JobOpening"><path codeLine="101" d="M261.6553,74.0175 C279.4453,89.5425 302.86,109.97 320.64,125.485 " fill="none" id="Description-backto-JobOpening" style="stroke:#181818;stroke-width:0.5;"/><polygon fill="#181818" points="259.395,72.045,261.4705,76.5107,261.2786,73.6888,264.1005,73.4969,259.395,72.045" style="stroke:#181818;stroke-width:0.5;"/><text fill="#000000" font-family="sans-serif" font-size="6.5" lengthAdjust="spacing" textLength="24" x="302.5" y="108.8843">includes</text><text fill="#000000" font-family="sans-serif" font-size="6.5" lengthAdjust="spacing" textLength="3.5" x="259.2161" y="81.8383">1</text><text fill="#000000" font-family="sans-serif" font-size="6.5" lengthAdjust="spacing" textLength="3.5" x="312.7871" y="120.1139">1</text></g><!--reverse link Address1 to JobOpening--><g id="link_Address1_JobOpening"><path codeLine="102" d="M192.9406,83.6465 C195.7356,85.6565 196.15,85.805 199,87.5 C236.435,109.785 284.395,126.45 313.895,135.515 " fill="none" id="Address1-backto-JobOpening" style="stroke:#181818;stroke-width:0.5;"/><polygon fill="#181818" points="190.505,81.895,192.9907,86.146,192.5347,83.3546,195.3261,82.8986,190.505,81.895" style="stroke:#181818;stroke-width:0.5;"/><text fill="#000000" font-family="sans-serif" font-size="6.5" lengthAdjust="spacing" textLength="24" x="244.5" y="108.8843">includes</text><text fill="#000000" font-family="sans-serif" font-size="6.5" lengthAdjust="spacing" textLength="3.5" x="194.497" y="83.7841">1</text><text fill="#000000" font-family="sans-serif" font-size="6.5" lengthAdjust="spacing" textLength="3.5" x="306.5176" y="132.8426">1</text></g><!--reverse link ContractType to JobOpening--><g id="link_ContractType_JobOpening"><path codeLine="103" d="M562.227,70.1668 C555.052,76.8318 547.98,82.415 538.5,87.5 C482.065,117.775 407.51,133.02 368.105,139.415 " fill="none" id="ContractType-backto-JobOpening" style="stroke:#181818;stroke-width:0.5;"/><polygon fill="#181818" points="564.425,68.125,559.7668,69.7223,562.5933,69.8265,562.4892,72.653,564.425,68.125" style="stroke:#181818;stroke-width:0.5;"/><text fill="#000000" font-family="sans-serif" font-size="6.5" lengthAdjust="spacing" textLength="24" x="503.5" y="108.8843">includes</text><text fill="#000000" font-family="sans-serif" font-size="6.5" lengthAdjust="spacing" textLength="3.5" x="557.5727" y="77.9327">1</text><text fill="#000000" font-family="sans-serif" font-size="6.5" lengthAdjust="spacing" textLength="3.5" x="371.9824" y="137.2667">1</text></g><!--link InterviewPhase to Phase--><g id="link_InterviewPhase_Phase"><path codeLine="106" d="M93.365,240.175 C100.73,242.52 108.58,244.795 116,246.5 C295.48,287.78 509.8117,301.3555 577.8767,304.8355 " fill="none" id="InterviewPhase-to-Phase" style="stroke:#181818;stroke-width:0.5;"/><polygon fill="none" points="586.865,305.295,578.0299,301.8394,577.7236,307.8315,586.865,305.295" style="stroke:#181818;stroke-width:0.5;"/></g><!--link AnalysisPhase to Phase--><g id="link_AnalysisPhase_Phase"><path codeLine="107" d="M670.325,242.605 C658.59,254.49 647.8313,265.3887 634.4413,278.9587 " fill="none" id="AnalysisPhase-to-Phase" style="stroke:#181818;stroke-width:0.5;"/><polygon fill="none" points="628.12,285.365,636.5768,281.0658,632.3059,276.8516,628.12,285.365" style="stroke:#181818;stroke-width:0.5;"/></g><!--link JobOpening to JobReference--><g id="link_JobOpening_JobReference"><path codeLine="108" d="M368.02,148.3 C399.315,153.865 451.6,165.93 491,189 C500.345,194.47 507.1101,200.394 514.0801,207.774 " fill="none" id="JobOpening-to-JobReference" style="stroke:#181818;stroke-width:0.5;"/><polygon fill="#181818" points="516.14,209.955,514.5042,205.3102,514.4234,208.1375,511.5962,208.0567,516.14,209.955" style="stroke:#181818;stroke-width:0.5;"/><text fill="#000000" font-family="sans-serif" font-size="6.5" lengthAdjust="spacing" textLength="24" x="484" y="183.3843">includes</text><text fill="#000000" font-family="sans-serif" font-size="6.5" lengthAdjust="spacing" textLength="3.5" x="372.0658" y="147.3531">1</text><text fill="#000000" font-family="sans-serif" font-size="6.5" lengthAdjust="spacing" textLength="3.5" x="509.3699" y="204.578">1</text></g><!--link JobOpening to SetupStatus--><g id="link_JobOpening_SetupStatus"><path codeLine="111" d="M321.315,162.215 C312.46,170.345 301.905,180.105 292.5,189 C283.86,197.17 276.433,204.3407 268.823,211.7607 " fill="none" id="JobOpening-to-SetupStatus" style="stroke:#181818;stroke-width:0.5;"/><polygon fill="#181818" points="266.675,213.855,271.2932,212.1455,268.465,212.1097,268.5007,209.2815,266.675,213.855" style="stroke:#181818;stroke-width:0.5;"/><text fill="#000000" font-family="sans-serif" font-size="6.5" lengthAdjust="spacing" textLength="24" x="304.5" y="183.3843">includes</text><text fill="#000000" font-family="sans-serif" font-size="6.5" lengthAdjust="spacing" textLength="3.5" x="314.1309" y="171.9004">1</text><text fill="#000000" font-family="sans-serif" font-size="6.5" lengthAdjust="spacing" textLength="3.5" x="266.0483" y="208.6151">1</text></g><!--link JobOpening to RequirementsStatus--><g id="link_JobOpening_RequirementsStatus"><path codeLine="112" d="M341,162.165 C341,177.69 341,196.83 341,210.995 " fill="none" id="JobOpening-to-RequirementsStatus" style="stroke:#181818;stroke-width:0.5;"/><polygon fill="#181818" points="341,213.995,343,209.495,341,211.495,339,209.495,341,213.995" style="stroke:#181818;stroke-width:0.5;"/><text fill="#000000" font-family="sans-serif" font-size="6.5" lengthAdjust="spacing" textLength="24" x="341.5" y="183.3843">includes</text><text fill="#000000" font-family="sans-serif" font-size="6.5" lengthAdjust="spacing" textLength="3.5" x="337.1992" y="171.8418">1</text><text fill="#000000" font-family="sans-serif" font-size="6.5" lengthAdjust="spacing" textLength="3.5" x="337.0734" y="208.5663">1</text></g><!--link JobOpening to InterviewPhaseStatus--><g id="link_JobOpening_InterviewPhaseStatus"><path codeLine="113" d="M362.345,162.165 C380.845,177.69 404.9319,197.9016 421.8119,212.0666 " fill="none" id="JobOpening-to-InterviewPhaseStatus" style="stroke:#181818;stroke-width:0.5;"/><polygon fill="#181818" points="424.11,213.995,421.9485,209.5703,422.1949,212.388,419.3773,212.6344,424.11,213.995" style="stroke:#181818;stroke-width:0.5;"/><text fill="#000000" font-family="sans-serif" font-size="6.5" lengthAdjust="spacing" textLength="24" x="388" y="183.3843">includes</text><text fill="#000000" font-family="sans-serif" font-size="6.5" lengthAdjust="spacing" textLength="3.5" x="362.2129" y="171.8418">1</text><text fill="#000000" font-family="sans-serif" font-size="6.5" lengthAdjust="spacing" textLength="3.5" x="416.1884" y="208.5663">1</text></g><!--reverse link RecruitmentProcess to Phase--><g id="link_RecruitmentProcess_Phase"><path codeLine="117" d="M209.4986,245.7879 C212.4336,246.6929 209.635,245.765 212.5,246.5 C353.1,282.475 527.755,299.56 586.86,304.6 " fill="none" id="RecruitmentProcess-backto-Phase" style="stroke:#181818;stroke-width:0.5;"/><polygon fill="#181818" points="203.765,244.02,206.0425,246.8152,209.4986,245.7879,207.2211,242.9928,203.765,244.02" style="stroke:#181818;stroke-width:0.5;"/><text fill="#000000" font-family="sans-serif" font-size="6.5" lengthAdjust="spacing" textLength="18" x="309" y="267.8843">part of</text><text fill="#000000" font-family="sans-serif" font-size="6.5" lengthAdjust="spacing" textLength="3.5" x="207.7219" y="244.0881">1</text><text fill="#000000" font-family="sans-serif" font-size="6.5" lengthAdjust="spacing" textLength="11" x="572.0207" y="302.6897">4..5</text></g><!--link JobOpening to RecruitmentProcess--><g id="link_JobOpening_RecruitmentProcess"><path codeLine="118" d="M313.92,150.8 C287.115,157.935 245.43,170.81 212.5,189 C202.12,194.73 193.997,200.7485 185.492,207.9685 " fill="none" id="JobOpening-to-RecruitmentProcess" style="stroke:#181818;stroke-width:0.5;"/><polygon fill="#181818" points="183.205,209.91,187.9299,208.5224,185.1109,208.2921,185.3412,205.4731,183.205,209.91" style="stroke:#181818;stroke-width:0.5;"/><text fill="#000000" font-family="sans-serif" font-size="6.5" lengthAdjust="spacing" textLength="24" x="236.5" y="183.3843">includes</text><text fill="#000000" font-family="sans-serif" font-size="6.5" lengthAdjust="spacing" textLength="3.5" x="306.546" y="150.1815">1</text><text fill="#000000" font-family="sans-serif" font-size="6.5" lengthAdjust="spacing" textLength="3.5" x="183.0324" y="204.6597">1</text></g><!--reverse link ScreeningPhase to JobApplicationWasAccepted--><g id="link_ScreeningPhase_JobApplicationWasAccepted"><path codeLine="120" d="M787.218,244.4142 C806.853,259.2592 835.28,280.755 853.675,294.665 " fill="none" id="ScreeningPhase-backto-JobApplicationWasAccepted" style="stroke:#181818;stroke-width:0.5;stroke-dasharray:7.0,7.0;"/><polygon fill="#181818" points="784.825,242.605,787.2084,246.9142,786.8192,244.1127,789.6207,243.7235,784.825,242.605" style="stroke:#181818;stroke-width:0.5;"/></g><!--reverse link ScreeningPhase to JobApplicationWasRejected--><g id="link_ScreeningPhase_JobApplicationWasRejected"><path codeLine="121" d="M803.484,241.1147 C836.699,252.2647 885.72,268.84 930.5,284.5 C939.875,287.78 950.045,291.405 959.325,294.745 " fill="none" id="ScreeningPhase-backto-JobApplicationWasRejected" style="stroke:#181818;stroke-width:0.5;stroke-dasharray:7.0,7.0;"/><polygon fill="#181818" points="800.64,240.16,804.2696,243.4881,803.01,240.9556,805.5425,239.6961,800.64,240.16" style="stroke:#181818;stroke-width:0.5;"/></g><!--link ScreeningPhase to Phase--><g id="link_ScreeningPhase_Phase"><path codeLine="125" d="M755.89,242.635 C748.18,251.715 736.95,263.055 724.5,269.5 C692.375,286.135 678.375,271.81 644.5,284.5 C638.92,286.59 641.0011,284.9945 635.7961,288.0045 " fill="none" id="ScreeningPhase-to-Phase" style="stroke:#181818;stroke-width:0.5;"/><polygon fill="none" points="628.005,292.51,637.2979,290.6015,634.2942,285.4075,628.005,292.51" style="stroke:#181818;stroke-width:0.5;"/></g><!--SRC=[bLPHQzim47xNhn1v6GpiKDXUGWcObB8DjfQaR33weiWNLwiZUvBS4hpyelw4lVMNJPATIBAznDMBfTFTTxgxxovvzw1KAMVJQPaJhgfj7jDYEwKvaJ9A6Sa4sIAzIa8VIGPuygLOuviIEECPJh9CG4OKJ6g4i5xM34zUNu0hfdQlV-_v4gYecDfgoQqeA4WvmKJYlhYs26Pz8l8pLo2U63pVFX09zcQFq17-YUGLu6Bz2wYoJWX_r0zga9jzZVRDcuOUPL6jjjqvrtWD6UDNEYGdsZ1ESYSoi0EGAoh0PiLXXw8sHNX_8bMoofMpzyurEcsQw2Vk99FEE92qlhlseYXi-XmIlkUwm6rzBOuxQf11b6unLg2gSgM8gffIUsTSZq9Omk-A2J3aa1uGxil7uOLiyX27BWB8_sCk2gu4eUfkLpO9zmNrSAcx65-BjB4r6qV252GLh5IiuAF2qoMwhZWr-eUI7SuUiz-AYhzLspM8cyrtGWcd3DeYzCJrE5fSEVyMo3kVVkLfs2HDnM6ejFiBXxTIkWNLyRZG9FVk_3PV59MkdxlzoKgggp8gjDSNbfeEsZ0GRK6Mi041dCAX8aV1aLycD7-oXcGCXglp7hPzQ390QPS9Cy3ks1RUrZ09byyWv3NBE-ZUnJ4W6v4tj70K_Pat4nPrNdenYUCvrfyXG3p394sb1Wk6c577br5alksGrvfCuWmu21rUYamV-MfkU1bDJlDAymjv_N5UkKVtyoOUiyyh7pXxLj6VBmTOyndMHfsC-xK8i-fTU50QEOhcBVwHkw67GNL_seSvx-lsv_bPaw697RuAzVzQs7Izr-dw4CSV9qsmU5OIeN2nwVZH-R34742PEI_XJpk-Z6EJfwGiSqQ9AVmF8XDAeJIi7AEy1DDxMXdrmBq2wVKF]--></g></svg>