<?xml version="1.0" encoding="us-ascii" standalone="no"?><svg xmlns="http://www.w3.org/2000/svg" xmlns:xlink="http://www.w3.org/1999/xlink" contentStyleType="text/css" height="1267px" preserveAspectRatio="none" style="width:2078px;height:1267px;background:#FFFFFF;" version="1.1" viewBox="0 0 2078 1267" width="2078px" zoomAndPan="magnify"><defs/><g><rect fill="#FFFFFF" height="1078.8359" style="stroke:#181818;stroke-width:1.0;" width="10" x="63.5" y="90.6406"/><rect fill="#FFFFFF" height="444.0859" style="stroke:#181818;stroke-width:1.0;" width="10" x="540.5" y="111.1641"/><rect fill="#FFFFFF" height="585.7031" style="stroke:#181818;stroke-width:1.0;" width="10" x="540.5" y="583.7734"/><rect fill="#FFFFFF" height="242.4219" style="stroke:#181818;stroke-width:1.0;" width="10" x="545.5" y="877.0078"/><rect fill="#FFFFFF" height="313.7578" style="stroke:#181818;stroke-width:1.0;" width="10" x="853.5" y="212.9688"/><rect fill="#FFFFFF" height="228.1875" style="stroke:#181818;stroke-width:1.0;" width="10" x="853.5" y="612.2969"/><rect fill="#FFFFFF" height="143.8516" style="stroke:#181818;stroke-width:1.0;" width="10" x="853.5" y="934.0547"/><rect fill="#FFFFFF" height="57.0469" style="stroke:#181818;stroke-width:1.0;" width="10" x="1020.5" y="241.4922"/><rect fill="#FFFFFF" height="114.0938" style="stroke:#181818;stroke-width:1.0;" width="10" x="1306" y="327.0625"/><rect fill="#FFFFFF" height="114.0938" style="stroke:#181818;stroke-width:1.0;" width="10" x="1306" y="640.8203"/><rect fill="#FFFFFF" height="57.0469" style="stroke:#181818;stroke-width:1.0;" width="10" x="1501" y="355.5859"/><rect fill="#FFFFFF" height="57.0469" style="stroke:#181818;stroke-width:1.0;" width="10" x="1501" y="669.3438"/><rect fill="#FFFFFF" height="28.5234" style="stroke:#181818;stroke-width:1.0;" width="10" x="1653.5" y="469.6797"/><rect fill="#FFFFFF" height="28.5234" style="stroke:#181818;stroke-width:1.0;" width="10" x="1827.5" y="783.4375"/><rect fill="#FFFFFF" height="46.2813" style="stroke:#181818;stroke-width:1.0;" width="10" x="1986.5" y="996.1016"/><rect fill="none" height="188.8984" style="stroke:#000000;stroke-width:1.5;" width="1622" x="450" y="897.0078"/><rect fill="none" height="101.3281" style="stroke:#000000;stroke-width:1.5;" width="1320" x="742" y="949.0547"/><line style="stroke:#181818;stroke-width:0.5;stroke-dasharray:5.0,5.0;" x1="68" x2="68" y1="80.6406" y2="1187.4766"/><line style="stroke:#181818;stroke-width:0.5;stroke-dasharray:5.0,5.0;" x1="545" x2="545" y1="80.6406" y2="1187.4766"/><line style="stroke:#181818;stroke-width:0.5;stroke-dasharray:5.0,5.0;" x1="858" x2="858" y1="165.8047" y2="1187.4766"/><line style="stroke:#181818;stroke-width:0.5;stroke-dasharray:5.0,5.0;" x1="1025" x2="1025" y1="80.6406" y2="1187.4766"/><line style="stroke:#181818;stroke-width:0.5;stroke-dasharray:5.0,5.0;" x1="1159" x2="1159" y1="80.6406" y2="1187.4766"/><line style="stroke:#181818;stroke-width:0.5;stroke-dasharray:5.0,5.0;" x1="1311" x2="1311" y1="80.6406" y2="1187.4766"/><line style="stroke:#181818;stroke-width:0.5;stroke-dasharray:5.0,5.0;" x1="1506" x2="1506" y1="80.6406" y2="1187.4766"/><line style="stroke:#181818;stroke-width:0.5;stroke-dasharray:5.0,5.0;" x1="1658" x2="1658" y1="80.6406" y2="1187.4766"/><line style="stroke:#181818;stroke-width:0.5;stroke-dasharray:5.0,5.0;" x1="1832" x2="1832" y1="80.6406" y2="1187.4766"/><line style="stroke:#181818;stroke-width:0.5;stroke-dasharray:5.0,5.0;" x1="1991" x2="1991" y1="1003.7188" y2="1187.4766"/><text fill="#000000" font-family="sans-serif" font-size="14" lengthAdjust="spacing" textLength="121" x="5" y="77.6738">Customer Manager</text><ellipse cx="68.5" cy="13.5" fill="#E3E3E3" rx="8" ry="8" style="stroke:#181818;stroke-width:0.5;"/><path d="M68.5,21.5 L68.5,48.5 M55.5,29.5 L81.5,29.5 M68.5,48.5 L55.5,63.5 M68.5,48.5 L81.5,63.5 " fill="none" style="stroke:#181818;stroke-width:0.5;"/><text fill="#000000" font-family="sans-serif" font-size="14" lengthAdjust="spacing" textLength="121" x="5" y="1199.1504">Customer Manager</text><ellipse cx="68.5" cy="1210.6172" fill="#E3E3E3" rx="8" ry="8" style="stroke:#181818;stroke-width:0.5;"/><path d="M68.5,1218.6172 L68.5,1245.6172 M55.5,1226.6172 L81.5,1226.6172 M68.5,1245.6172 L55.5,1260.6172 M68.5,1245.6172 L81.5,1260.6172 " fill="none" style="stroke:#181818;stroke-width:0.5;"/><rect fill="#E3E3E3" height="45.2813" rx="2.5" ry="2.5" style="stroke:#181818;stroke-width:0.5;" width="171" x="460" y="34.3594"/><text fill="#000000" font-family="sans-serif" font-size="14" font-style="italic" lengthAdjust="spacing" textLength="95" x="498" y="54.0332">&#171;presentation&#187;</text><text fill="#000000" font-family="sans-serif" font-size="14" lengthAdjust="spacing" textLength="157" x="467" y="69.6738">:DisplayCandidateDataUI</text><rect fill="#E3E3E3" height="45.2813" rx="2.5" ry="2.5" style="stroke:#181818;stroke-width:0.5;" width="171" x="460" y="1186.4766"/><text fill="#000000" font-family="sans-serif" font-size="14" font-style="italic" lengthAdjust="spacing" textLength="95" x="498" y="1206.1504">&#171;presentation&#187;</text><text fill="#000000" font-family="sans-serif" font-size="14" lengthAdjust="spacing" textLength="157" x="467" y="1221.791">:DisplayCandidateDataUI</text><text fill="#000000" font-family="sans-serif" font-size="14" font-style="italic" lengthAdjust="spacing" textLength="84" x="813.5" y="1199.1504">&#171;application&#187;</text><text fill="#000000" font-family="sans-serif" font-size="14" lengthAdjust="spacing" textLength="207" x="752" y="1214.791">:DisplayCandidateDataController</text><ellipse cx="858.5" cy="1233.7578" fill="#E3E3E3" rx="12" ry="12" style="stroke:#181818;stroke-width:0.5;"/><polygon fill="#181818" points="854.5,1221.7578,860.5,1216.7578,858.5,1221.7578,860.5,1226.7578,854.5,1221.7578" style="stroke:#181818;stroke-width:1.0;"/><rect fill="#E3E3E3" height="45.2813" rx="2.5" ry="2.5" style="stroke:#181818;stroke-width:0.5;" width="101" x="975" y="34.3594"/><text fill="#000000" font-family="sans-serif" font-size="14" font-style="italic" lengthAdjust="spacing" textLength="84" x="983.5" y="54.0332">&#171;application&#187;</text><text fill="#000000" font-family="sans-serif" font-size="14" lengthAdjust="spacing" textLength="87" x="982" y="69.6738">AuthzRegistry</text><rect fill="#E3E3E3" height="45.2813" rx="2.5" ry="2.5" style="stroke:#181818;stroke-width:0.5;" width="101" x="975" y="1186.4766"/><text fill="#000000" font-family="sans-serif" font-size="14" font-style="italic" lengthAdjust="spacing" textLength="84" x="983.5" y="1206.1504">&#171;application&#187;</text><text fill="#000000" font-family="sans-serif" font-size="14" lengthAdjust="spacing" textLength="87" x="982" y="1221.791">AuthzRegistry</text><rect fill="#E3E3E3" height="45.2813" rx="2.5" ry="2.5" style="stroke:#181818;stroke-width:0.5;" width="147" x="1086" y="34.3594"/><text fill="#000000" font-family="sans-serif" font-size="14" font-style="italic" lengthAdjust="spacing" textLength="84" x="1117.5" y="54.0332">&#171;application&#187;</text><text fill="#000000" font-family="sans-serif" font-size="14" lengthAdjust="spacing" textLength="133" x="1093" y="69.6738">:AuthorizationService</text><rect fill="#E3E3E3" height="45.2813" rx="2.5" ry="2.5" style="stroke:#181818;stroke-width:0.5;" width="147" x="1086" y="1186.4766"/><text fill="#000000" font-family="sans-serif" font-size="14" font-style="italic" lengthAdjust="spacing" textLength="84" x="1117.5" y="1206.1504">&#171;application&#187;</text><text fill="#000000" font-family="sans-serif" font-size="14" lengthAdjust="spacing" textLength="133" x="1093" y="1221.791">:AuthorizationService</text><rect fill="#E3E3E3" height="45.2813" rx="2.5" ry="2.5" style="stroke:#181818;stroke-width:0.5;" width="136" x="1243" y="34.3594"/><text fill="#000000" font-family="sans-serif" font-size="14" font-style="italic" lengthAdjust="spacing" textLength="89" x="1266.5" y="54.0332">&#171;persistence&#187;</text><text fill="#000000" font-family="sans-serif" font-size="14" lengthAdjust="spacing" textLength="122" x="1250" y="69.6738">PersistenceContext</text><rect fill="#E3E3E3" height="45.2813" rx="2.5" ry="2.5" style="stroke:#181818;stroke-width:0.5;" width="136" x="1243" y="1186.4766"/><text fill="#000000" font-family="sans-serif" font-size="14" font-style="italic" lengthAdjust="spacing" textLength="89" x="1266.5" y="1206.1504">&#171;persistence&#187;</text><text fill="#000000" font-family="sans-serif" font-size="14" lengthAdjust="spacing" textLength="122" x="1250" y="1221.791">PersistenceContext</text><rect fill="#E3E3E3" height="45.2813" rx="2.5" ry="2.5" style="stroke:#181818;stroke-width:0.5;" width="134" x="1439" y="34.3594"/><text fill="#000000" font-family="sans-serif" font-size="14" font-style="italic" lengthAdjust="spacing" textLength="89" x="1461.5" y="54.0332">&#171;persistence&#187;</text><text fill="#000000" font-family="sans-serif" font-size="14" lengthAdjust="spacing" textLength="120" x="1446" y="69.6738">:RepositoryFactory</text><rect fill="#E3E3E3" height="45.2813" rx="2.5" ry="2.5" style="stroke:#181818;stroke-width:0.5;" width="134" x="1439" y="1186.4766"/><text fill="#000000" font-family="sans-serif" font-size="14" font-style="italic" lengthAdjust="spacing" textLength="89" x="1461.5" y="1206.1504">&#171;persistence&#187;</text><text fill="#000000" font-family="sans-serif" font-size="14" lengthAdjust="spacing" textLength="120" x="1446" y="1221.791">:RepositoryFactory</text><rect fill="#E3E3E3" height="45.2813" rx="2.5" ry="2.5" style="stroke:#181818;stroke-width:0.5;" width="151" x="1583" y="34.3594"/><text fill="#000000" font-family="sans-serif" font-size="14" font-style="italic" lengthAdjust="spacing" textLength="79" x="1619" y="54.0332">&#171;repository&#187;</text><text fill="#000000" font-family="sans-serif" font-size="14" lengthAdjust="spacing" textLength="137" x="1590" y="69.6738">:CandidateRepository</text><rect fill="#E3E3E3" height="45.2813" rx="2.5" ry="2.5" style="stroke:#181818;stroke-width:0.5;" width="151" x="1583" y="1186.4766"/><text fill="#000000" font-family="sans-serif" font-size="14" font-style="italic" lengthAdjust="spacing" textLength="79" x="1619" y="1206.1504">&#171;repository&#187;</text><text fill="#000000" font-family="sans-serif" font-size="14" lengthAdjust="spacing" textLength="137" x="1590" y="1221.791">:CandidateRepository</text><rect fill="#E3E3E3" height="45.2813" rx="2.5" ry="2.5" style="stroke:#181818;stroke-width:0.5;" width="177" x="1744" y="34.3594"/><text fill="#000000" font-family="sans-serif" font-size="14" font-style="italic" lengthAdjust="spacing" textLength="79" x="1793" y="54.0332">&#171;repository&#187;</text><text fill="#000000" font-family="sans-serif" font-size="14" lengthAdjust="spacing" textLength="163" x="1751" y="69.6738">:JobApplicationRepository</text><rect fill="#E3E3E3" height="45.2813" rx="2.5" ry="2.5" style="stroke:#181818;stroke-width:0.5;" width="177" x="1744" y="1186.4766"/><text fill="#000000" font-family="sans-serif" font-size="14" font-style="italic" lengthAdjust="spacing" textLength="79" x="1793" y="1206.1504">&#171;repository&#187;</text><text fill="#000000" font-family="sans-serif" font-size="14" lengthAdjust="spacing" textLength="163" x="1751" y="1221.791">:JobApplicationRepository</text><rect fill="#E3E3E3" height="45.2813" rx="2.5" ry="2.5" style="stroke:#181818;stroke-width:0.5;" width="121" x="1931" y="1186.4766"/><text fill="#000000" font-family="sans-serif" font-size="14" font-style="italic" lengthAdjust="spacing" textLength="62" x="1960.5" y="1206.1504">&#171;Thread&#187;</text><text fill="#000000" font-family="sans-serif" font-size="14" lengthAdjust="spacing" textLength="107" x="1938" y="1221.791">:WordCountTask</text><rect fill="#FFFFFF" height="1078.8359" style="stroke:#181818;stroke-width:1.0;" width="10" x="63.5" y="90.6406"/><rect fill="#FFFFFF" height="444.0859" style="stroke:#181818;stroke-width:1.0;" width="10" x="540.5" y="111.1641"/><rect fill="#FFFFFF" height="585.7031" style="stroke:#181818;stroke-width:1.0;" width="10" x="540.5" y="583.7734"/><rect fill="#FFFFFF" height="242.4219" style="stroke:#181818;stroke-width:1.0;" width="10" x="545.5" y="877.0078"/><rect fill="#FFFFFF" height="313.7578" style="stroke:#181818;stroke-width:1.0;" width="10" x="853.5" y="212.9688"/><rect fill="#FFFFFF" height="228.1875" style="stroke:#181818;stroke-width:1.0;" width="10" x="853.5" y="612.2969"/><rect fill="#FFFFFF" height="143.8516" style="stroke:#181818;stroke-width:1.0;" width="10" x="853.5" y="934.0547"/><rect fill="#FFFFFF" height="57.0469" style="stroke:#181818;stroke-width:1.0;" width="10" x="1020.5" y="241.4922"/><rect fill="#FFFFFF" height="114.0938" style="stroke:#181818;stroke-width:1.0;" width="10" x="1306" y="327.0625"/><rect fill="#FFFFFF" height="114.0938" style="stroke:#181818;stroke-width:1.0;" width="10" x="1306" y="640.8203"/><rect fill="#FFFFFF" height="57.0469" style="stroke:#181818;stroke-width:1.0;" width="10" x="1501" y="355.5859"/><rect fill="#FFFFFF" height="57.0469" style="stroke:#181818;stroke-width:1.0;" width="10" x="1501" y="669.3438"/><rect fill="#FFFFFF" height="28.5234" style="stroke:#181818;stroke-width:1.0;" width="10" x="1653.5" y="469.6797"/><rect fill="#FFFFFF" height="28.5234" style="stroke:#181818;stroke-width:1.0;" width="10" x="1827.5" y="783.4375"/><rect fill="#FFFFFF" height="46.2813" style="stroke:#181818;stroke-width:1.0;" width="10" x="1986.5" y="996.1016"/><polygon fill="#181818" points="528.5,107.1641,538.5,111.1641,528.5,115.1641,532.5,111.1641" style="stroke:#181818;stroke-width:1.0;"/><line style="stroke:#181818;stroke-width:1.0;" x1="73.5" x2="534.5" y1="111.1641" y2="111.1641"/><text fill="#000000" font-family="sans-serif" font-size="13" font-weight="bold" lengthAdjust="spacing" textLength="7" x="80.5" y="106.4092">1</text><text fill="#000000" font-family="sans-serif" font-size="13" lengthAdjust="spacing" textLength="294" x="91.5" y="106.4092">asks to display all the personal data of a candidate</text><polygon fill="#181818" points="740,135.6875,750,139.6875,740,143.6875,744,139.6875" style="stroke:#181818;stroke-width:1.0;"/><line style="stroke:#181818;stroke-width:1.0;" x1="550.5" x2="746" y1="139.6875" y2="139.6875"/><text fill="#000000" font-family="sans-serif" font-size="13" font-weight="bold" lengthAdjust="spacing" textLength="7" x="557.5" y="134.9326">2</text><text fill="#000000" font-family="sans-serif" font-size="13" lengthAdjust="spacing" textLength="36" x="568.5" y="134.9326">create</text><text fill="#000000" font-family="sans-serif" font-size="14" font-style="italic" lengthAdjust="spacing" textLength="84" x="813.5" y="163.8379">&#171;application&#187;</text><text fill="#000000" font-family="sans-serif" font-size="14" lengthAdjust="spacing" textLength="207" x="752" y="179.4785">:DisplayCandidateDataController</text><ellipse cx="858.5" cy="135.1641" fill="#E3E3E3" rx="12" ry="12" style="stroke:#181818;stroke-width:0.5;"/><polygon fill="#181818" points="854.5,123.1641,860.5,118.1641,858.5,123.1641,860.5,128.1641,854.5,123.1641" style="stroke:#181818;stroke-width:1.0;"/><polygon fill="#181818" points="841.5,208.9688,851.5,212.9688,841.5,216.9688,845.5,212.9688" style="stroke:#181818;stroke-width:1.0;"/><line style="stroke:#181818;stroke-width:1.0;" x1="550.5" x2="847.5" y1="212.9688" y2="212.9688"/><text fill="#000000" font-family="sans-serif" font-size="13" font-weight="bold" lengthAdjust="spacing" textLength="7" x="557.5" y="208.2139">3</text><text fill="#000000" font-family="sans-serif" font-size="13" lengthAdjust="spacing" textLength="121" x="568.5" y="208.2139">allActiveCandidates()</text><polygon fill="#181818" points="1008.5,237.4922,1018.5,241.4922,1008.5,245.4922,1012.5,241.4922" style="stroke:#181818;stroke-width:1.0;"/><line style="stroke:#181818;stroke-width:1.0;" x1="863.5" x2="1014.5" y1="241.4922" y2="241.4922"/><text fill="#000000" font-family="sans-serif" font-size="13" font-weight="bold" lengthAdjust="spacing" textLength="7" x="870.5" y="236.7373">4</text><text fill="#000000" font-family="sans-serif" font-size="13" lengthAdjust="spacing" textLength="124" x="881.5" y="236.7373">authorizationService()</text><polygon fill="#181818" points="1147.5,266.0156,1157.5,270.0156,1147.5,274.0156,1151.5,270.0156" style="stroke:#181818;stroke-width:1.0;"/><line style="stroke:#181818;stroke-width:1.0;" x1="1030.5" x2="1153.5" y1="270.0156" y2="270.0156"/><text fill="#000000" font-family="sans-serif" font-size="13" font-weight="bold" lengthAdjust="spacing" textLength="7" x="1037.5" y="265.2607">5</text><text fill="#000000" font-family="sans-serif" font-size="13" lengthAdjust="spacing" textLength="44" x="1048.5" y="265.2607">create()</text><polygon fill="#181818" points="874.5,294.5391,864.5,298.5391,874.5,302.5391,870.5,298.5391" style="stroke:#181818;stroke-width:1.0;"/><line style="stroke:#181818;stroke-width:1.0;stroke-dasharray:2.0,2.0;" x1="868.5" x2="1024.5" y1="298.5391" y2="298.5391"/><text fill="#000000" font-family="sans-serif" font-size="13" font-weight="bold" lengthAdjust="spacing" textLength="7" x="880.5" y="293.7842">6</text><text fill="#000000" font-family="sans-serif" font-size="13" lengthAdjust="spacing" textLength="32" x="891.5" y="293.7842">authz</text><polygon fill="#181818" points="1294,323.0625,1304,327.0625,1294,331.0625,1298,327.0625" style="stroke:#181818;stroke-width:1.0;"/><line style="stroke:#181818;stroke-width:1.0;" x1="863.5" x2="1300" y1="327.0625" y2="327.0625"/><text fill="#000000" font-family="sans-serif" font-size="13" font-weight="bold" lengthAdjust="spacing" textLength="7" x="870.5" y="322.3076">7</text><text fill="#000000" font-family="sans-serif" font-size="13" lengthAdjust="spacing" textLength="75" x="881.5" y="322.3076">repositories()</text><polygon fill="#181818" points="1489,351.5859,1499,355.5859,1489,359.5859,1493,355.5859" style="stroke:#181818;stroke-width:1.0;"/><line style="stroke:#181818;stroke-width:1.0;" x1="1316" x2="1495" y1="355.5859" y2="355.5859"/><text fill="#000000" font-family="sans-serif" font-size="13" font-weight="bold" lengthAdjust="spacing" textLength="7" x="1323" y="350.8311">8</text><text fill="#000000" font-family="sans-serif" font-size="13" lengthAdjust="spacing" textLength="71" x="1334" y="350.8311">candidates()</text><polygon fill="#181818" points="1646.5,380.1094,1656.5,384.1094,1646.5,388.1094,1650.5,384.1094" style="stroke:#181818;stroke-width:1.0;"/><line style="stroke:#181818;stroke-width:1.0;" x1="1511" x2="1652.5" y1="384.1094" y2="384.1094"/><text fill="#000000" font-family="sans-serif" font-size="13" font-weight="bold" lengthAdjust="spacing" textLength="7" x="1518" y="379.3545">9</text><text fill="#000000" font-family="sans-serif" font-size="13" lengthAdjust="spacing" textLength="44" x="1529" y="379.3545">create()</text><polygon fill="#181818" points="1327,408.6328,1317,412.6328,1327,416.6328,1323,412.6328" style="stroke:#181818;stroke-width:1.0;"/><line style="stroke:#181818;stroke-width:1.0;stroke-dasharray:2.0,2.0;" x1="1321" x2="1505" y1="412.6328" y2="412.6328"/><text fill="#000000" font-family="sans-serif" font-size="13" font-weight="bold" lengthAdjust="spacing" textLength="14" x="1333" y="407.8779">10</text><text fill="#000000" font-family="sans-serif" font-size="13" lengthAdjust="spacing" textLength="118" x="1351" y="407.8779">candidateRepository</text><polygon fill="#181818" points="874.5,437.1563,864.5,441.1563,874.5,445.1563,870.5,441.1563" style="stroke:#181818;stroke-width:1.0;"/><line style="stroke:#181818;stroke-width:1.0;stroke-dasharray:2.0,2.0;" x1="868.5" x2="1310" y1="441.1563" y2="441.1563"/><text fill="#000000" font-family="sans-serif" font-size="13" font-weight="bold" lengthAdjust="spacing" textLength="14" x="880.5" y="436.4014">11</text><text fill="#000000" font-family="sans-serif" font-size="13" lengthAdjust="spacing" textLength="118" x="898.5" y="436.4014">candidateRepository</text><polygon fill="#181818" points="1641.5,465.6797,1651.5,469.6797,1641.5,473.6797,1645.5,469.6797" style="stroke:#181818;stroke-width:1.0;"/><line style="stroke:#181818;stroke-width:1.0;" x1="863.5" x2="1647.5" y1="469.6797" y2="469.6797"/><text fill="#000000" font-family="sans-serif" font-size="13" font-weight="bold" lengthAdjust="spacing" textLength="14" x="870.5" y="464.9248">12</text><text fill="#000000" font-family="sans-serif" font-size="13" lengthAdjust="spacing" textLength="78" x="888.5" y="464.9248">findAllActive()</text><polygon fill="#181818" points="874.5,494.2031,864.5,498.2031,874.5,502.2031,870.5,498.2031" style="stroke:#181818;stroke-width:1.0;"/><line style="stroke:#181818;stroke-width:1.0;stroke-dasharray:2.0,2.0;" x1="868.5" x2="1657.5" y1="498.2031" y2="498.2031"/><text fill="#000000" font-family="sans-serif" font-size="13" font-weight="bold" lengthAdjust="spacing" textLength="14" x="880.5" y="493.4482">13</text><text fill="#000000" font-family="sans-serif" font-size="13" lengthAdjust="spacing" textLength="63" x="898.5" y="493.4482">candidates</text><polygon fill="#181818" points="561.5,522.7266,551.5,526.7266,561.5,530.7266,557.5,526.7266" style="stroke:#181818;stroke-width:1.0;"/><line style="stroke:#181818;stroke-width:1.0;stroke-dasharray:2.0,2.0;" x1="555.5" x2="857.5" y1="526.7266" y2="526.7266"/><text fill="#000000" font-family="sans-serif" font-size="13" font-weight="bold" lengthAdjust="spacing" textLength="14" x="567.5" y="521.9717">14</text><text fill="#000000" font-family="sans-serif" font-size="13" lengthAdjust="spacing" textLength="63" x="585.5" y="521.9717">candidates</text><polygon fill="#181818" points="84.5,551.25,74.5,555.25,84.5,559.25,80.5,555.25" style="stroke:#181818;stroke-width:1.0;"/><line style="stroke:#181818;stroke-width:1.0;stroke-dasharray:2.0,2.0;" x1="78.5" x2="544.5" y1="555.25" y2="555.25"/><text fill="#000000" font-family="sans-serif" font-size="13" font-weight="bold" lengthAdjust="spacing" textLength="14" x="90.5" y="550.4951">15</text><text fill="#000000" font-family="sans-serif" font-size="13" lengthAdjust="spacing" textLength="314" x="108.5" y="550.4951">shows list of all the candidates and asks to select one</text><polygon fill="#181818" points="528.5,579.7734,538.5,583.7734,528.5,587.7734,532.5,583.7734" style="stroke:#181818;stroke-width:1.0;"/><line style="stroke:#181818;stroke-width:1.0;" x1="73.5" x2="534.5" y1="583.7734" y2="583.7734"/><text fill="#000000" font-family="sans-serif" font-size="13" font-weight="bold" lengthAdjust="spacing" textLength="14" x="80.5" y="579.0186">16</text><text fill="#000000" font-family="sans-serif" font-size="13" lengthAdjust="spacing" textLength="113" x="98.5" y="579.0186">selects a candidate</text><polygon fill="#181818" points="841.5,608.2969,851.5,612.2969,841.5,616.2969,845.5,612.2969" style="stroke:#181818;stroke-width:1.0;"/><line style="stroke:#181818;stroke-width:1.0;" x1="550.5" x2="847.5" y1="612.2969" y2="612.2969"/><text fill="#000000" font-family="sans-serif" font-size="13" font-weight="bold" lengthAdjust="spacing" textLength="14" x="557.5" y="607.542">17</text><text fill="#000000" font-family="sans-serif" font-size="13" lengthAdjust="spacing" textLength="266" x="575.5" y="607.542">getApplications(Candidate selectedCandidate)</text><polygon fill="#181818" points="1294,636.8203,1304,640.8203,1294,644.8203,1298,640.8203" style="stroke:#181818;stroke-width:1.0;"/><line style="stroke:#181818;stroke-width:1.0;" x1="863.5" x2="1300" y1="640.8203" y2="640.8203"/><text fill="#000000" font-family="sans-serif" font-size="13" font-weight="bold" lengthAdjust="spacing" textLength="14" x="870.5" y="636.0654">18</text><text fill="#000000" font-family="sans-serif" font-size="13" lengthAdjust="spacing" textLength="75" x="888.5" y="636.0654">repositories()</text><polygon fill="#181818" points="1489,665.3438,1499,669.3438,1489,673.3438,1493,669.3438" style="stroke:#181818;stroke-width:1.0;"/><line style="stroke:#181818;stroke-width:1.0;" x1="1316" x2="1495" y1="669.3438" y2="669.3438"/><text fill="#000000" font-family="sans-serif" font-size="13" font-weight="bold" lengthAdjust="spacing" textLength="14" x="1323" y="664.5889">19</text><text fill="#000000" font-family="sans-serif" font-size="13" lengthAdjust="spacing" textLength="96" x="1341" y="664.5889">jobApplications()</text><polygon fill="#181818" points="1820.5,693.8672,1830.5,697.8672,1820.5,701.8672,1824.5,697.8672" style="stroke:#181818;stroke-width:1.0;"/><line style="stroke:#181818;stroke-width:1.0;" x1="1511" x2="1826.5" y1="697.8672" y2="697.8672"/><text fill="#000000" font-family="sans-serif" font-size="13" font-weight="bold" lengthAdjust="spacing" textLength="14" x="1518" y="693.1123">20</text><text fill="#000000" font-family="sans-serif" font-size="13" lengthAdjust="spacing" textLength="44" x="1536" y="693.1123">create()</text><polygon fill="#181818" points="1327,722.3906,1317,726.3906,1327,730.3906,1323,726.3906" style="stroke:#181818;stroke-width:1.0;"/><line style="stroke:#181818;stroke-width:1.0;stroke-dasharray:2.0,2.0;" x1="1321" x2="1505" y1="726.3906" y2="726.3906"/><text fill="#000000" font-family="sans-serif" font-size="13" font-weight="bold" lengthAdjust="spacing" textLength="14" x="1333" y="721.6357">21</text><text fill="#000000" font-family="sans-serif" font-size="13" lengthAdjust="spacing" textLength="143" x="1351" y="721.6357">jobApplicationRepository</text><polygon fill="#181818" points="874.5,750.9141,864.5,754.9141,874.5,758.9141,870.5,754.9141" style="stroke:#181818;stroke-width:1.0;"/><line style="stroke:#181818;stroke-width:1.0;stroke-dasharray:2.0,2.0;" x1="868.5" x2="1310" y1="754.9141" y2="754.9141"/><text fill="#000000" font-family="sans-serif" font-size="13" font-weight="bold" lengthAdjust="spacing" textLength="14" x="880.5" y="750.1592">22</text><text fill="#000000" font-family="sans-serif" font-size="13" lengthAdjust="spacing" textLength="143" x="898.5" y="750.1592">jobApplicationRepository</text><polygon fill="#181818" points="1815.5,779.4375,1825.5,783.4375,1815.5,787.4375,1819.5,783.4375" style="stroke:#181818;stroke-width:1.0;"/><line style="stroke:#181818;stroke-width:1.0;" x1="863.5" x2="1821.5" y1="783.4375" y2="783.4375"/><text fill="#000000" font-family="sans-serif" font-size="13" font-weight="bold" lengthAdjust="spacing" textLength="14" x="870.5" y="778.6826">23</text><text fill="#000000" font-family="sans-serif" font-size="13" lengthAdjust="spacing" textLength="209" x="888.5" y="778.6826">findByCandidate(selectedCandidate)</text><polygon fill="#181818" points="874.5,807.9609,864.5,811.9609,874.5,815.9609,870.5,811.9609" style="stroke:#181818;stroke-width:1.0;"/><line style="stroke:#181818;stroke-width:1.0;stroke-dasharray:2.0,2.0;" x1="868.5" x2="1831.5" y1="811.9609" y2="811.9609"/><text fill="#000000" font-family="sans-serif" font-size="13" font-weight="bold" lengthAdjust="spacing" textLength="14" x="880.5" y="807.2061">24</text><text fill="#000000" font-family="sans-serif" font-size="13" lengthAdjust="spacing" textLength="88" x="898.5" y="807.2061">jobApplications</text><polygon fill="#181818" points="561.5,836.4844,551.5,840.4844,561.5,844.4844,557.5,840.4844" style="stroke:#181818;stroke-width:1.0;"/><line style="stroke:#181818;stroke-width:1.0;stroke-dasharray:2.0,2.0;" x1="555.5" x2="857.5" y1="840.4844" y2="840.4844"/><text fill="#000000" font-family="sans-serif" font-size="13" font-weight="bold" lengthAdjust="spacing" textLength="14" x="567.5" y="835.7295">25</text><text fill="#000000" font-family="sans-serif" font-size="13" lengthAdjust="spacing" textLength="88" x="585.5" y="835.7295">jobApplications</text><line style="stroke:#181818;stroke-width:1.0;" x1="550.5" x2="597.5" y1="864.0078" y2="864.0078"/><line style="stroke:#181818;stroke-width:1.0;" x1="597.5" x2="597.5" y1="864.0078" y2="877.0078"/><line style="stroke:#181818;stroke-width:1.0;" x1="556.5" x2="597.5" y1="877.0078" y2="877.0078"/><polygon fill="#181818" points="566.5,873.0078,556.5,877.0078,566.5,881.0078,562.5,877.0078" style="stroke:#181818;stroke-width:1.0;"/><text fill="#000000" font-family="sans-serif" font-size="13" font-weight="bold" lengthAdjust="spacing" textLength="14" x="562.5" y="859.2529">26</text><text fill="#000000" font-family="sans-serif" font-size="13" lengthAdjust="spacing" textLength="208" x="580.5" y="859.2529">displayApplications(jobApplications)</text><path d="M450,897.0078 L523,897.0078 L523,903.5313 L513,913.5313 L450,913.5313 L450,897.0078 " fill="#EEEEEE" style="stroke:#000000;stroke-width:1.5;"/><rect fill="none" height="188.8984" style="stroke:#000000;stroke-width:1.5;" width="1622" x="450" y="897.0078"/><text fill="#000000" font-family="sans-serif" font-size="13" font-weight="bold" lengthAdjust="spacing" textLength="28" x="465" y="909.7764">loop</text><text fill="#000000" font-family="sans-serif" font-size="11" font-weight="bold" lengthAdjust="spacing" textLength="242" x="538" y="908.9658">[for(Application application: jobApplications]</text><polygon fill="#181818" points="841.5,930.0547,851.5,934.0547,841.5,938.0547,845.5,934.0547" style="stroke:#181818;stroke-width:1.0;"/><line style="stroke:#181818;stroke-width:1.0;" x1="555.5" x2="847.5" y1="934.0547" y2="934.0547"/><text fill="#000000" font-family="sans-serif" font-size="13" font-weight="bold" lengthAdjust="spacing" textLength="14" x="562.5" y="929.2998">27</text><text fill="#000000" font-family="sans-serif" font-size="13" lengthAdjust="spacing" textLength="160" x="580.5" y="929.2998">mostFrequently(application)</text><path d="M742,949.0547 L815,949.0547 L815,955.5781 L805,965.5781 L742,965.5781 L742,949.0547 " fill="#EEEEEE" style="stroke:#000000;stroke-width:1.5;"/><rect fill="none" height="101.3281" style="stroke:#000000;stroke-width:1.5;" width="1320" x="742" y="949.0547"/><text fill="#000000" font-family="sans-serif" font-size="13" font-weight="bold" lengthAdjust="spacing" textLength="28" x="757" y="961.8232">loop</text><text fill="#000000" font-family="sans-serif" font-size="11" font-weight="bold" lengthAdjust="spacing" textLength="306" x="830" y="961.0127">[for each ApplicationFile aF in application.filePathsInfo()]</text><polygon fill="#181818" points="1919,982.1016,1929,986.1016,1919,990.1016,1923,986.1016" style="stroke:#181818;stroke-width:1.0;"/><line style="stroke:#181818;stroke-width:1.0;" x1="863.5" x2="1925" y1="986.1016" y2="986.1016"/><text fill="#000000" font-family="sans-serif" font-size="13" font-weight="bold" lengthAdjust="spacing" textLength="14" x="870.5" y="981.3467">28</text><text fill="#000000" font-family="sans-serif" font-size="13" lengthAdjust="spacing" textLength="36" x="888.5" y="981.3467">create</text><rect fill="#E3E3E3" height="45.2813" rx="2.5" ry="2.5" style="stroke:#181818;stroke-width:0.5;" width="121" x="1931" y="965.5781"/><text fill="#000000" font-family="sans-serif" font-size="14" font-style="italic" lengthAdjust="spacing" textLength="62" x="1960.5" y="985.252">&#171;Thread&#187;</text><text fill="#000000" font-family="sans-serif" font-size="14" lengthAdjust="spacing" textLength="107" x="1938" y="1000.8926">:WordCountTask</text><polygon fill="#181818" points="874.5,1038.3828,864.5,1042.3828,874.5,1046.3828,870.5,1042.3828" style="stroke:#181818;stroke-width:1.0;"/><line style="stroke:#181818;stroke-width:1.0;stroke-dasharray:2.0,2.0;" x1="868.5" x2="1990.5" y1="1042.3828" y2="1042.3828"/><text fill="#000000" font-family="sans-serif" font-size="13" font-weight="bold" lengthAdjust="spacing" textLength="14" x="880.5" y="1037.6279">29</text><text fill="#000000" font-family="sans-serif" font-size="13" lengthAdjust="spacing" textLength="4" x="898.5" y="1037.6279">&#160;</text><polygon fill="#181818" points="566.5,1073.9063,556.5,1077.9063,566.5,1081.9063,562.5,1077.9063" style="stroke:#181818;stroke-width:1.0;"/><line style="stroke:#181818;stroke-width:1.0;stroke-dasharray:2.0,2.0;" x1="560.5" x2="857.5" y1="1077.9063" y2="1077.9063"/><text fill="#000000" font-family="sans-serif" font-size="13" font-weight="bold" lengthAdjust="spacing" textLength="14" x="572.5" y="1073.1514">30</text><text fill="#000000" font-family="sans-serif" font-size="13" lengthAdjust="spacing" textLength="48" x="590.5" y="1073.1514">mapPair</text><line style="stroke:#181818;stroke-width:1.0;stroke-dasharray:2.0,2.0;" x1="555.5" x2="597.5" y1="1118.4297" y2="1118.4297"/><line style="stroke:#181818;stroke-width:1.0;stroke-dasharray:2.0,2.0;" x1="597.5" x2="597.5" y1="1118.4297" y2="1131.4297"/><line style="stroke:#181818;stroke-width:1.0;stroke-dasharray:2.0,2.0;" x1="550.5" x2="597.5" y1="1131.4297" y2="1131.4297"/><polygon fill="#181818" points="560.5,1127.4297,550.5,1131.4297,560.5,1135.4297,556.5,1131.4297" style="stroke:#181818;stroke-width:1.0;"/><text fill="#000000" font-family="sans-serif" font-size="13" font-weight="bold" lengthAdjust="spacing" textLength="14" x="562.5" y="1113.6748">31</text><text fill="#000000" font-family="sans-serif" font-size="13" lengthAdjust="spacing" textLength="4" x="580.5" y="1113.6748">&#160;</text><polygon fill="#181818" points="79.5,1165.4766,69.5,1169.4766,79.5,1173.4766,75.5,1169.4766" style="stroke:#181818;stroke-width:1.0;"/><line style="stroke:#181818;stroke-width:1.0;stroke-dasharray:2.0,2.0;" x1="73.5" x2="544.5" y1="1169.4766" y2="1169.4766"/><text fill="#000000" font-family="sans-serif" font-size="13" font-weight="bold" lengthAdjust="spacing" textLength="14" x="85.5" y="1157.46">32</text><text fill="#000000" font-family="sans-serif" font-size="13" lengthAdjust="spacing" textLength="425" x="103.5" y="1150.1982">shows the selected candidate personal data including his/her applications</text><text fill="#000000" font-family="sans-serif" font-size="13" lengthAdjust="spacing" textLength="320" x="107.5" y="1164.7217">and the top 20 most frequent words for each application</text><!--SRC=[hLV9Rjim4BtpAuXSuXfmK_Ge10PS1KPTr82XsEYb5qQYBSOqgP9K4kVhEzGkQh5JLAU4dFTcuRmXhOzC94IH4pv98SDOoHF5HgKKwMed8U6H7EYZENEA5GqD4GVUDD0nYUGh4mUy9rnJX4Xgf4XFJrGXT1kpYEAzbEP9lY4I6gdmZPzg0vuKNXC1rEe64utzDG8-mqAM467mZVV0TCB9sISYOX4nz84OibjbjhiLlhzF5DLK66AO5FCv2gKmIl81e9_lyjBPDlW952H9E0jBXfRxHMhYzu0Uc3Rgd64MmJZ2in2fs7ks-qZL2mjfZjnjlp-EWpTKQN15HKXjgFJDPCYDRnEjzpe-0vf8pQ2gvsLMt3pKO7a1LjMcnkTriJcgQgs3-o6V5dKI3jZP6MVw9LNaorIOBT773FxBtm9a6ojA8Z2tpS9U84JR6GZ3vw_nR6xFtWFpeyP6uYW_QamunoQcsEOi1U4OSYDOxZ71OPbgJbAnxbRv0dn02SIs9wPJ80yX0cjURkEEcOs0yuMbebKfzUIJYwXJ092xQTTcS-Wg8Elfd2vR7_4Y6B5Q1C2VzLwP592YSS1iNYPe1J1Y6z5c4AYLrCRtggDdVONfvB7nXqms_cmE_UpL1wd7igWOW-MGIR2490FlSaN0BTJ3Yh3XlMvwTBaomq50MbMf_usxNRACohQdxQSz4z6YRD1szUkM35fv0svMTNTTQjJlsm6tWoX5si_YCbbbe7wnsNZMGAHZ-QenXs6MIRhGUasFuQzg96ZAuPB2KXI2R_Wg9TyO9BcrRiq9Tqpqwlz0JMFUwKar1WfA6bKhTVtxvy47DVC1xNGqzDoQt_h2EBXMK4rXEPU0TzNSwQZjUU2UkSHnbVJw9FWV73h7K0hIlHLpTNwhdoUJaOPfp_esKxkWhfjQpCwPew4Xxh0Fw_fAmiwTb-ideoZkxLOlEhG3HMZeqNvSoWIUbshIWEB6EsiysbhH7ho0jLag-YU5DoK_JneS0v5qyYjZmL23k5dF9OEdCrbYrWhjynwMDyJ4UYNsqj5xsJtmA9fE2n6XswR5tLt-LDBzqG6mjG7_5zq-T5uMqTgZ8Xhg0YWNIJQ4gQiFtoKhvhjpdErXFNmNsFbVogQUtCxpZucGfv7zOH8pVHV3xur6zVLlaLqRbid0kNtzadK0tXSjW5_XWQhhusn0U- -LliLcFTReBm00]--></g></svg>