<?xml version="1.0" encoding="us-ascii" standalone="no"?><svg xmlns="http://www.w3.org/2000/svg" xmlns:xlink="http://www.w3.org/1999/xlink" contentStyleType="text/css" height="1247px" preserveAspectRatio="none" style="width:2023px;height:1247px;background:#FFFFFF;" version="1.1" viewBox="0 0 2023 1247" width="2023px" zoomAndPan="magnify"><defs/><g><!--cluster Customer Aggregate--><g id="cluster_Customer Aggregate"><path d="M1025.5,6.0137 L1171.5,6.0137 A3.75,3.75 0 0 1 1174,8.5137 L1181,30.6348 L1584.5,30.6348 A2.5,2.5 0 0 1 1587,33.1348 L1587,638.0137 A2.5,2.5 0 0 1 1584.5,640.5137 L1025.5,640.5137 A2.5,2.5 0 0 1 1023,638.0137 L1023,8.5137 A2.5,2.5 0 0 1 1025.5,6.0137 " fill="none" style="stroke:#000000;stroke-width:1.5;"/><line style="stroke:#000000;stroke-width:1.5;" x1="1023" x2="1181" y1="30.6348" y2="30.6348"/><text fill="#000000" font-family="sans-serif" font-size="14" font-weight="bold" lengthAdjust="spacing" textLength="145" x="1027" y="23.1211">Customer Aggregate</text></g><!--cluster Job Opening Aggregate--><g id="cluster_Job Opening Aggregate"><path d="M8.5,446.0137 L176.5,446.0137 A3.75,3.75 0 0 1 179,448.5137 L186,470.6348 L996.5,470.6348 A2.5,2.5 0 0 1 999,473.1348 L999,1237.5137 A2.5,2.5 0 0 1 996.5,1240.0137 L8.5,1240.0137 A2.5,2.5 0 0 1 6,1237.5137 L6,448.5137 A2.5,2.5 0 0 1 8.5,446.0137 " fill="none" style="stroke:#000000;stroke-width:1.5;"/><line style="stroke:#000000;stroke-width:1.5;" x1="6" x2="186" y1="470.6348" y2="470.6348"/><text fill="#000000" font-family="sans-serif" font-size="14" font-weight="bold" lengthAdjust="spacing" textLength="167" x="10" y="463.1211">Job Opening Aggregate</text></g><!--cluster Candidate Aggregate--><g id="cluster_Candidate Aggregate"><path d="M1523.5,886.0137 L1672.5,886.0137 A3.75,3.75 0 0 1 1675,888.5137 L1682,910.6348 L1886.5,910.6348 A2.5,2.5 0 0 1 1889,913.1348 L1889,1220.5137 A2.5,2.5 0 0 1 1886.5,1223.0137 L1523.5,1223.0137 A2.5,2.5 0 0 1 1521,1220.5137 L1521,888.5137 A2.5,2.5 0 0 1 1523.5,886.0137 " fill="none" style="stroke:#000000;stroke-width:1.5;"/><line style="stroke:#000000;stroke-width:1.5;" x1="1521" x2="1682" y1="910.6348" y2="910.6348"/><text fill="#000000" font-family="sans-serif" font-size="14" font-weight="bold" lengthAdjust="spacing" textLength="148" x="1525" y="903.1211">Candidate Aggregate</text></g><!--cluster JobApplication Aggregate--><g id="cluster_JobApplication Aggregate"><path d="M1025.5,886.0137 L1207.5,886.0137 A3.75,3.75 0 0 1 1210,888.5137 L1217,910.6348 L1494.5,910.6348 A2.5,2.5 0 0 1 1497,913.1348 L1497,1219.0137 A2.5,2.5 0 0 1 1494.5,1221.5137 L1025.5,1221.5137 A2.5,2.5 0 0 1 1023,1219.0137 L1023,888.5137 A2.5,2.5 0 0 1 1025.5,886.0137 " fill="none" style="stroke:#000000;stroke-width:1.5;"/><line style="stroke:#000000;stroke-width:1.5;" x1="1023" x2="1217" y1="910.6348" y2="910.6348"/><text fill="#000000" font-family="sans-serif" font-size="14" font-weight="bold" lengthAdjust="spacing" textLength="181" x="1027" y="903.1211">JobApplication Aggregate</text></g><!--class Customer--><g id="elem_Customer"><rect codeLine="6" fill="#F1F1F1" height="81.8633" id="Customer" rx="2.5" ry="2.5" style="stroke:#181818;stroke-width:0.5;" width="93" x="1303.5" y="299.0137"/><ellipse cx="1318.5" cy="331.9453" fill="#ADD1B2" rx="11" ry="11" style="stroke:#181818;stroke-width:1.0;"/><path d="M1321.2656,327.8203 Q1321.4219,327.6016 1321.6094,327.4922 Q1321.7969,327.3828 1322.0156,327.3828 Q1322.3906,327.3828 1322.625,327.6484 Q1322.8594,327.8984 1322.8594,328.5078 L1322.8594,329.9609 Q1322.8594,330.5703 1322.625,330.8359 Q1322.3906,331.1016 1322.0156,331.1016 Q1321.6719,331.1016 1321.4688,330.8984 Q1321.2656,330.7109 1321.1563,330.1953 Q1321.1094,329.8359 1320.9219,329.6484 Q1320.5938,329.2734 1319.9844,329.0547 Q1319.375,328.8359 1318.75,328.8359 Q1317.9844,328.8359 1317.3438,329.1641 Q1316.7188,329.4922 1316.2188,330.2422 Q1315.7344,330.9922 1315.7344,332.0234 L1315.7344,333.1172 Q1315.7344,334.3516 1316.625,335.1797 Q1317.5156,335.9922 1319.1094,335.9922 Q1320.0469,335.9922 1320.7031,335.7422 Q1321.0938,335.5859 1321.5156,335.1484 Q1321.7813,334.8828 1321.9219,334.8047 Q1322.0781,334.7266 1322.2813,334.7266 Q1322.6094,334.7266 1322.8594,334.9922 Q1323.125,335.2422 1323.125,335.5859 Q1323.125,335.9297 1322.7813,336.3359 Q1322.2813,336.9141 1321.4844,337.2422 Q1320.4063,337.6953 1319.1094,337.6953 Q1317.5938,337.6953 1316.3906,337.0703 Q1315.4063,336.5703 1314.7188,335.5078 Q1314.0313,334.4297 1314.0313,333.1484 L1314.0313,331.9922 Q1314.0313,330.6641 1314.6406,329.5234 Q1315.2656,328.3672 1316.3594,327.7578 Q1317.4531,327.1328 1318.6875,327.1328 Q1319.4219,327.1328 1320.0625,327.3047 Q1320.7188,327.4609 1321.2656,327.8203 Z " fill="#000000"/><text fill="#000000" font-family="sans-serif" font-size="14" lengthAdjust="spacing" textLength="50" x="1338" y="319.1211">&#171;entity&#187;</text><text fill="#000000" font-family="sans-serif" font-size="14" lengthAdjust="spacing" textLength="41" x="1342.5" y="337.7422">&#171;root&#187;</text><text fill="#000000" font-family="sans-serif" font-size="14" lengthAdjust="spacing" textLength="61" x="1332.5" y="356.3633">Customer</text><line style="stroke:#181818;stroke-width:0.5;" x1="1304.5" x2="1395.5" y1="364.877" y2="364.877"/><line style="stroke:#181818;stroke-width:0.5;" x1="1304.5" x2="1395.5" y1="372.877" y2="372.877"/></g><!--class SystemUser--><g id="elem_SystemUser"><rect codeLine="10" fill="#F1F1F1" height="48" id="SystemUser" rx="2.5" ry="2.5" style="stroke:#181818;stroke-width:0.5;" width="107" x="1039.5" y="558.0137"/><ellipse cx="1054.5" cy="574.0137" fill="#ADD1B2" rx="11" ry="11" style="stroke:#181818;stroke-width:1.0;"/><path d="M1057.2656,569.8887 Q1057.4219,569.6699 1057.6094,569.5605 Q1057.7969,569.4512 1058.0156,569.4512 Q1058.3906,569.4512 1058.625,569.7168 Q1058.8594,569.9668 1058.8594,570.5762 L1058.8594,572.0293 Q1058.8594,572.6387 1058.625,572.9043 Q1058.3906,573.1699 1058.0156,573.1699 Q1057.6719,573.1699 1057.4688,572.9668 Q1057.2656,572.7793 1057.1563,572.2637 Q1057.1094,571.9043 1056.9219,571.7168 Q1056.5938,571.3418 1055.9844,571.123 Q1055.375,570.9043 1054.75,570.9043 Q1053.9844,570.9043 1053.3438,571.2324 Q1052.7188,571.5605 1052.2188,572.3105 Q1051.7344,573.0605 1051.7344,574.0918 L1051.7344,575.1855 Q1051.7344,576.4199 1052.625,577.248 Q1053.5156,578.0605 1055.1094,578.0605 Q1056.0469,578.0605 1056.7031,577.8105 Q1057.0938,577.6543 1057.5156,577.2168 Q1057.7813,576.9512 1057.9219,576.873 Q1058.0781,576.7949 1058.2813,576.7949 Q1058.6094,576.7949 1058.8594,577.0605 Q1059.125,577.3105 1059.125,577.6543 Q1059.125,577.998 1058.7813,578.4043 Q1058.2813,578.9824 1057.4844,579.3105 Q1056.4063,579.7637 1055.1094,579.7637 Q1053.5938,579.7637 1052.3906,579.1387 Q1051.4063,578.6387 1050.7188,577.5762 Q1050.0313,576.498 1050.0313,575.2168 L1050.0313,574.0605 Q1050.0313,572.7324 1050.6406,571.5918 Q1051.2656,570.4355 1052.3594,569.8262 Q1053.4531,569.2012 1054.6875,569.2012 Q1055.4219,569.2012 1056.0625,569.373 Q1056.7188,569.5293 1057.2656,569.8887 Z " fill="#000000"/><text fill="#000000" font-family="sans-serif" font-size="14" lengthAdjust="spacing" textLength="75" x="1068.5" y="579.8105">SystemUser</text><line style="stroke:#181818;stroke-width:0.5;" x1="1040.5" x2="1145.5" y1="590.0137" y2="590.0137"/><line style="stroke:#181818;stroke-width:0.5;" x1="1040.5" x2="1145.5" y1="598.0137" y2="598.0137"/></g><!--class Name1--><g id="elem_Name1"><rect codeLine="13" fill="#F1F1F1" height="85.2422" id="Name1" rx="2.5" ry="2.5" style="stroke:#181818;stroke-width:0.5;" width="71" x="1181.5" y="539.5137"/><ellipse cx="1197.85" cy="555.5137" fill="#ADD1B2" rx="11" ry="11" style="stroke:#181818;stroke-width:1.0;"/><path d="M1200.6156,551.3887 Q1200.7719,551.1699 1200.9594,551.0605 Q1201.1469,550.9512 1201.3656,550.9512 Q1201.7406,550.9512 1201.975,551.2168 Q1202.2094,551.4668 1202.2094,552.0762 L1202.2094,553.5293 Q1202.2094,554.1387 1201.975,554.4043 Q1201.7406,554.6699 1201.3656,554.6699 Q1201.0219,554.6699 1200.8188,554.4668 Q1200.6156,554.2793 1200.5063,553.7637 Q1200.4594,553.4043 1200.2719,553.2168 Q1199.9438,552.8418 1199.3344,552.623 Q1198.725,552.4043 1198.1,552.4043 Q1197.3344,552.4043 1196.6938,552.7324 Q1196.0688,553.0605 1195.5688,553.8105 Q1195.0844,554.5605 1195.0844,555.5918 L1195.0844,556.6855 Q1195.0844,557.9199 1195.975,558.748 Q1196.8656,559.5605 1198.4594,559.5605 Q1199.3969,559.5605 1200.0531,559.3105 Q1200.4438,559.1543 1200.8656,558.7168 Q1201.1313,558.4512 1201.2719,558.373 Q1201.4281,558.2949 1201.6313,558.2949 Q1201.9594,558.2949 1202.2094,558.5605 Q1202.475,558.8105 1202.475,559.1543 Q1202.475,559.498 1202.1313,559.9043 Q1201.6313,560.4824 1200.8344,560.8105 Q1199.7563,561.2637 1198.4594,561.2637 Q1196.9438,561.2637 1195.7406,560.6387 Q1194.7563,560.1387 1194.0688,559.0762 Q1193.3813,557.998 1193.3813,556.7168 L1193.3813,555.5605 Q1193.3813,554.2324 1193.9906,553.0918 Q1194.6156,551.9355 1195.7094,551.3262 Q1196.8031,550.7012 1198.0375,550.7012 Q1198.7719,550.7012 1199.4125,550.873 Q1200.0688,551.0293 1200.6156,551.3887 Z " fill="#000000"/><text fill="#000000" font-family="sans-serif" font-size="14" lengthAdjust="spacing" textLength="36" x="1212.15" y="561.3105">Name</text><line style="stroke:#181818;stroke-width:0.5;" x1="1182.5" x2="1251.5" y1="571.5137" y2="571.5137"/><text fill="#000000" font-family="sans-serif" font-size="14" lengthAdjust="spacing" textLength="59" x="1187.5" y="590.6211">firstName</text><text fill="#000000" font-family="sans-serif" font-size="14" lengthAdjust="spacing" textLength="58" x="1187.5" y="609.2422">lastName</text><line style="stroke:#181818;stroke-width:0.5;" x1="1182.5" x2="1251.5" y1="616.7559" y2="616.7559"/></g><!--class EMail1--><g id="elem_EMail1"><rect codeLine="17" fill="#F1F1F1" height="63.2422" id="EMail1" rx="2.5" ry="2.5" style="stroke:#181818;stroke-width:0.5;" width="124" x="1288" y="550.5137"/><ellipse cx="1303" cy="574.1348" fill="#ADD1B2" rx="11" ry="11" style="stroke:#181818;stroke-width:1.0;"/><path d="M1305.7656,570.0098 Q1305.9219,569.791 1306.1094,569.6816 Q1306.2969,569.5723 1306.5156,569.5723 Q1306.8906,569.5723 1307.125,569.8379 Q1307.3594,570.0879 1307.3594,570.6973 L1307.3594,572.1504 Q1307.3594,572.7598 1307.125,573.0254 Q1306.8906,573.291 1306.5156,573.291 Q1306.1719,573.291 1305.9688,573.0879 Q1305.7656,572.9004 1305.6563,572.3848 Q1305.6094,572.0254 1305.4219,571.8379 Q1305.0938,571.4629 1304.4844,571.2441 Q1303.875,571.0254 1303.25,571.0254 Q1302.4844,571.0254 1301.8438,571.3535 Q1301.2188,571.6816 1300.7188,572.4316 Q1300.2344,573.1816 1300.2344,574.2129 L1300.2344,575.3066 Q1300.2344,576.541 1301.125,577.3691 Q1302.0156,578.1816 1303.6094,578.1816 Q1304.5469,578.1816 1305.2031,577.9316 Q1305.5938,577.7754 1306.0156,577.3379 Q1306.2813,577.0723 1306.4219,576.9941 Q1306.5781,576.916 1306.7813,576.916 Q1307.1094,576.916 1307.3594,577.1816 Q1307.625,577.4316 1307.625,577.7754 Q1307.625,578.1191 1307.2813,578.5254 Q1306.7813,579.1035 1305.9844,579.4316 Q1304.9063,579.8848 1303.6094,579.8848 Q1302.0938,579.8848 1300.8906,579.2598 Q1299.9063,578.7598 1299.2188,577.6973 Q1298.5313,576.6191 1298.5313,575.3379 L1298.5313,574.1816 Q1298.5313,572.8535 1299.1406,571.7129 Q1299.7656,570.5566 1300.8594,569.9473 Q1301.9531,569.3223 1303.1875,569.3223 Q1303.9219,569.3223 1304.5625,569.4941 Q1305.2188,569.6504 1305.7656,570.0098 Z " fill="#000000"/><text fill="#000000" font-family="sans-serif" font-size="14" lengthAdjust="spacing" textLength="92" x="1317" y="570.6211">&#171;value object&#187;</text><text fill="#000000" font-family="sans-serif" font-size="14" lengthAdjust="spacing" textLength="39" x="1343.5" y="589.2422">E-Mail</text><line style="stroke:#181818;stroke-width:0.5;" x1="1289" x2="1411" y1="597.7559" y2="597.7559"/><line style="stroke:#181818;stroke-width:0.5;" x1="1289" x2="1411" y1="605.7559" y2="605.7559"/></g><!--class Address2--><g id="elem_Address2"><rect codeLine="20" fill="#F1F1F1" height="156.3477" id="Address2" rx="2.5" ry="2.5" style="stroke:#181818;stroke-width:0.5;" width="124" x="1288" y="64.0137"/><ellipse cx="1303" cy="87.6348" fill="#ADD1B2" rx="11" ry="11" style="stroke:#181818;stroke-width:1.0;"/><path d="M1305.7656,83.5098 Q1305.9219,83.291 1306.1094,83.1816 Q1306.2969,83.0723 1306.5156,83.0723 Q1306.8906,83.0723 1307.125,83.3379 Q1307.3594,83.5879 1307.3594,84.1973 L1307.3594,85.6504 Q1307.3594,86.2598 1307.125,86.5254 Q1306.8906,86.791 1306.5156,86.791 Q1306.1719,86.791 1305.9688,86.5879 Q1305.7656,86.4004 1305.6563,85.8848 Q1305.6094,85.5254 1305.4219,85.3379 Q1305.0938,84.9629 1304.4844,84.7441 Q1303.875,84.5254 1303.25,84.5254 Q1302.4844,84.5254 1301.8438,84.8535 Q1301.2188,85.1816 1300.7188,85.9316 Q1300.2344,86.6816 1300.2344,87.7129 L1300.2344,88.8066 Q1300.2344,90.041 1301.125,90.8691 Q1302.0156,91.6816 1303.6094,91.6816 Q1304.5469,91.6816 1305.2031,91.4316 Q1305.5938,91.2754 1306.0156,90.8379 Q1306.2813,90.5723 1306.4219,90.4941 Q1306.5781,90.416 1306.7813,90.416 Q1307.1094,90.416 1307.3594,90.6816 Q1307.625,90.9316 1307.625,91.2754 Q1307.625,91.6191 1307.2813,92.0254 Q1306.7813,92.6035 1305.9844,92.9316 Q1304.9063,93.3848 1303.6094,93.3848 Q1302.0938,93.3848 1300.8906,92.7598 Q1299.9063,92.2598 1299.2188,91.1973 Q1298.5313,90.1191 1298.5313,88.8379 L1298.5313,87.6816 Q1298.5313,86.3535 1299.1406,85.2129 Q1299.7656,84.0566 1300.8594,83.4473 Q1301.9531,82.8223 1303.1875,82.8223 Q1303.9219,82.8223 1304.5625,82.9941 Q1305.2188,83.1504 1305.7656,83.5098 Z " fill="#000000"/><text fill="#000000" font-family="sans-serif" font-size="14" lengthAdjust="spacing" textLength="92" x="1317" y="84.1211">&#171;value object&#187;</text><text fill="#000000" font-family="sans-serif" font-size="14" lengthAdjust="spacing" textLength="52" x="1337" y="102.7422">Address</text><line style="stroke:#181818;stroke-width:0.5;" x1="1289" x2="1411" y1="111.2559" y2="111.2559"/><text fill="#000000" font-family="sans-serif" font-size="14" lengthAdjust="spacing" textLength="38" x="1294" y="130.3633">Street</text><text fill="#000000" font-family="sans-serif" font-size="14" lengthAdjust="spacing" textLength="24" x="1294" y="148.9844">City</text><text fill="#000000" font-family="sans-serif" font-size="14" lengthAdjust="spacing" textLength="33" x="1294" y="167.6055">State</text><text fill="#000000" font-family="sans-serif" font-size="14" lengthAdjust="spacing" textLength="50" x="1294" y="186.2266">Country</text><text fill="#000000" font-family="sans-serif" font-size="14" lengthAdjust="spacing" textLength="50" x="1294" y="204.8477">Zipcode</text><line style="stroke:#181818;stroke-width:0.5;" x1="1289" x2="1411" y1="212.3613" y2="212.3613"/></g><!--class Code--><g id="elem_Code"><rect codeLine="28" fill="#F1F1F1" height="63.2422" id="Code" rx="2.5" ry="2.5" style="stroke:#181818;stroke-width:0.5;" width="124" x="1447" y="550.5137"/><ellipse cx="1462" cy="574.1348" fill="#ADD1B2" rx="11" ry="11" style="stroke:#181818;stroke-width:1.0;"/><path d="M1464.7656,570.0098 Q1464.9219,569.791 1465.1094,569.6816 Q1465.2969,569.5723 1465.5156,569.5723 Q1465.8906,569.5723 1466.125,569.8379 Q1466.3594,570.0879 1466.3594,570.6973 L1466.3594,572.1504 Q1466.3594,572.7598 1466.125,573.0254 Q1465.8906,573.291 1465.5156,573.291 Q1465.1719,573.291 1464.9688,573.0879 Q1464.7656,572.9004 1464.6563,572.3848 Q1464.6094,572.0254 1464.4219,571.8379 Q1464.0938,571.4629 1463.4844,571.2441 Q1462.875,571.0254 1462.25,571.0254 Q1461.4844,571.0254 1460.8438,571.3535 Q1460.2188,571.6816 1459.7188,572.4316 Q1459.2344,573.1816 1459.2344,574.2129 L1459.2344,575.3066 Q1459.2344,576.541 1460.125,577.3691 Q1461.0156,578.1816 1462.6094,578.1816 Q1463.5469,578.1816 1464.2031,577.9316 Q1464.5938,577.7754 1465.0156,577.3379 Q1465.2813,577.0723 1465.4219,576.9941 Q1465.5781,576.916 1465.7813,576.916 Q1466.1094,576.916 1466.3594,577.1816 Q1466.625,577.4316 1466.625,577.7754 Q1466.625,578.1191 1466.2813,578.5254 Q1465.7813,579.1035 1464.9844,579.4316 Q1463.9063,579.8848 1462.6094,579.8848 Q1461.0938,579.8848 1459.8906,579.2598 Q1458.9063,578.7598 1458.2188,577.6973 Q1457.5313,576.6191 1457.5313,575.3379 L1457.5313,574.1816 Q1457.5313,572.8535 1458.1406,571.7129 Q1458.7656,570.5566 1459.8594,569.9473 Q1460.9531,569.3223 1462.1875,569.3223 Q1462.9219,569.3223 1463.5625,569.4941 Q1464.2188,569.6504 1464.7656,570.0098 Z " fill="#000000"/><text fill="#000000" font-family="sans-serif" font-size="14" lengthAdjust="spacing" textLength="92" x="1476" y="570.6211">&#171;value object&#187;</text><text fill="#000000" font-family="sans-serif" font-size="14" lengthAdjust="spacing" textLength="34" x="1505" y="589.2422">Code</text><line style="stroke:#181818;stroke-width:0.5;" x1="1448" x2="1570" y1="597.7559" y2="597.7559"/><line style="stroke:#181818;stroke-width:0.5;" x1="1448" x2="1570" y1="605.7559" y2="605.7559"/></g><!--class RecruitmentProcess--><g id="elem_RecruitmentProcess"><rect codeLine="35" fill="#F1F1F1" height="81.8633" id="RecruitmentProcess" rx="2.5" ry="2.5" style="stroke:#181818;stroke-width:0.5;" width="159" x="108.5" y="944.0137"/><ellipse cx="123.5" cy="967.6348" fill="#ADD1B2" rx="11" ry="11" style="stroke:#181818;stroke-width:1.0;"/><path d="M126.2656,963.5098 Q126.4219,963.291 126.6094,963.1816 Q126.7969,963.0723 127.0156,963.0723 Q127.3906,963.0723 127.625,963.3379 Q127.8594,963.5879 127.8594,964.1973 L127.8594,965.6504 Q127.8594,966.2598 127.625,966.5254 Q127.3906,966.791 127.0156,966.791 Q126.6719,966.791 126.4688,966.5879 Q126.2656,966.4004 126.1563,965.8848 Q126.1094,965.5254 125.9219,965.3379 Q125.5938,964.9629 124.9844,964.7441 Q124.375,964.5254 123.75,964.5254 Q122.9844,964.5254 122.3438,964.8535 Q121.7188,965.1816 121.2188,965.9316 Q120.7344,966.6816 120.7344,967.7129 L120.7344,968.8066 Q120.7344,970.041 121.625,970.8691 Q122.5156,971.6816 124.1094,971.6816 Q125.0469,971.6816 125.7031,971.4316 Q126.0938,971.2754 126.5156,970.8379 Q126.7813,970.5723 126.9219,970.4941 Q127.0781,970.416 127.2813,970.416 Q127.6094,970.416 127.8594,970.6816 Q128.125,970.9316 128.125,971.2754 Q128.125,971.6191 127.7813,972.0254 Q127.2813,972.6035 126.4844,972.9316 Q125.4063,973.3848 124.1094,973.3848 Q122.5938,973.3848 121.3906,972.7598 Q120.4063,972.2598 119.7188,971.1973 Q119.0313,970.1191 119.0313,968.8379 L119.0313,967.6816 Q119.0313,966.3535 119.6406,965.2129 Q120.2656,964.0566 121.3594,963.4473 Q122.4531,962.8223 123.6875,962.8223 Q124.4219,962.8223 125.0625,962.9941 Q125.7188,963.1504 126.2656,963.5098 Z " fill="#000000"/><text fill="#000000" font-family="sans-serif" font-size="14" lengthAdjust="spacing" textLength="50" x="176" y="964.1211">&#171;entity&#187;</text><text fill="#000000" font-family="sans-serif" font-size="14" lengthAdjust="spacing" textLength="127" x="137.5" y="982.7422">RecruitmentProcess</text><line style="stroke:#181818;stroke-width:0.5;" x1="109.5" x2="266.5" y1="991.2559" y2="991.2559"/><text fill="#000000" font-family="sans-serif" font-size="14" lengthAdjust="spacing" textLength="119" x="114.5" y="1010.3633">HasInterviewPhase</text><line style="stroke:#181818;stroke-width:0.5;" x1="109.5" x2="266.5" y1="1017.877" y2="1017.877"/></g><!--class Phase--><g id="elem_Phase"><rect codeLine="39" fill="#F1F1F1" height="119.1055" id="Phase" rx="2.5" ry="2.5" style="stroke:#181818;stroke-width:0.5;" width="82" x="147" y="1105.0137"/><ellipse cx="162" cy="1128.6348" fill="#ADD1B2" rx="11" ry="11" style="stroke:#181818;stroke-width:1.0;"/><path d="M164.7656,1124.5098 Q164.9219,1124.291 165.1094,1124.1816 Q165.2969,1124.0723 165.5156,1124.0723 Q165.8906,1124.0723 166.125,1124.3379 Q166.3594,1124.5879 166.3594,1125.1973 L166.3594,1126.6504 Q166.3594,1127.2598 166.125,1127.5254 Q165.8906,1127.791 165.5156,1127.791 Q165.1719,1127.791 164.9688,1127.5879 Q164.7656,1127.4004 164.6563,1126.8848 Q164.6094,1126.5254 164.4219,1126.3379 Q164.0938,1125.9629 163.4844,1125.7441 Q162.875,1125.5254 162.25,1125.5254 Q161.4844,1125.5254 160.8438,1125.8535 Q160.2188,1126.1816 159.7188,1126.9316 Q159.2344,1127.6816 159.2344,1128.7129 L159.2344,1129.8066 Q159.2344,1131.041 160.125,1131.8691 Q161.0156,1132.6816 162.6094,1132.6816 Q163.5469,1132.6816 164.2031,1132.4316 Q164.5938,1132.2754 165.0156,1131.8379 Q165.2813,1131.5723 165.4219,1131.4941 Q165.5781,1131.416 165.7813,1131.416 Q166.1094,1131.416 166.3594,1131.6816 Q166.625,1131.9316 166.625,1132.2754 Q166.625,1132.6191 166.2813,1133.0254 Q165.7813,1133.6035 164.9844,1133.9316 Q163.9063,1134.3848 162.6094,1134.3848 Q161.0938,1134.3848 159.8906,1133.7598 Q158.9063,1133.2598 158.2188,1132.1973 Q157.5313,1131.1191 157.5313,1129.8379 L157.5313,1128.6816 Q157.5313,1127.3535 158.1406,1126.2129 Q158.7656,1125.0566 159.8594,1124.4473 Q160.9531,1123.8223 162.1875,1123.8223 Q162.9219,1123.8223 163.5625,1123.9941 Q164.2188,1124.1504 164.7656,1124.5098 Z " fill="#000000"/><text fill="#000000" font-family="sans-serif" font-size="14" lengthAdjust="spacing" textLength="50" x="176" y="1125.1211">&#171;entity&#187;</text><text fill="#000000" font-family="sans-serif" font-size="14" lengthAdjust="spacing" textLength="40" x="181" y="1143.7422">Phase</text><line style="stroke:#181818;stroke-width:0.5;" x1="148" x2="228" y1="1152.2559" y2="1152.2559"/><text fill="#000000" font-family="sans-serif" font-size="14" lengthAdjust="spacing" textLength="69" x="153" y="1171.3633">description</text><text fill="#000000" font-family="sans-serif" font-size="14" lengthAdjust="spacing" textLength="65" x="153" y="1189.9844">beginDate</text><text fill="#000000" font-family="sans-serif" font-size="14" lengthAdjust="spacing" textLength="56" x="153" y="1208.6055">finalDate</text><line style="stroke:#181818;stroke-width:0.5;" x1="148" x2="228" y1="1216.1191" y2="1216.1191"/></g><!--class InterviewPhaseStatus--><g id="elem_InterviewPhaseStatus"><rect codeLine="45" fill="#F1F1F1" height="63.2422" id="InterviewPhaseStatus" rx="2.5" ry="2.5" style="stroke:#181818;stroke-width:0.5;" width="167" x="302.5" y="953.5137"/><ellipse cx="317.5" cy="977.1348" fill="#ADD1B2" rx="11" ry="11" style="stroke:#181818;stroke-width:1.0;"/><path d="M320.2656,973.0098 Q320.4219,972.791 320.6094,972.6816 Q320.7969,972.5723 321.0156,972.5723 Q321.3906,972.5723 321.625,972.8379 Q321.8594,973.0879 321.8594,973.6973 L321.8594,975.1504 Q321.8594,975.7598 321.625,976.0254 Q321.3906,976.291 321.0156,976.291 Q320.6719,976.291 320.4688,976.0879 Q320.2656,975.9004 320.1563,975.3848 Q320.1094,975.0254 319.9219,974.8379 Q319.5938,974.4629 318.9844,974.2441 Q318.375,974.0254 317.75,974.0254 Q316.9844,974.0254 316.3438,974.3535 Q315.7188,974.6816 315.2188,975.4316 Q314.7344,976.1816 314.7344,977.2129 L314.7344,978.3066 Q314.7344,979.541 315.625,980.3691 Q316.5156,981.1816 318.1094,981.1816 Q319.0469,981.1816 319.7031,980.9316 Q320.0938,980.7754 320.5156,980.3379 Q320.7813,980.0723 320.9219,979.9941 Q321.0781,979.916 321.2813,979.916 Q321.6094,979.916 321.8594,980.1816 Q322.125,980.4316 322.125,980.7754 Q322.125,981.1191 321.7813,981.5254 Q321.2813,982.1035 320.4844,982.4316 Q319.4063,982.8848 318.1094,982.8848 Q316.5938,982.8848 315.3906,982.2598 Q314.4063,981.7598 313.7188,980.6973 Q313.0313,979.6191 313.0313,978.3379 L313.0313,977.1816 Q313.0313,975.8535 313.6406,974.7129 Q314.2656,973.5566 315.3594,972.9473 Q316.4531,972.3223 317.6875,972.3223 Q318.4219,972.3223 319.0625,972.4941 Q319.7188,972.6504 320.2656,973.0098 Z " fill="#000000"/><text fill="#000000" font-family="sans-serif" font-size="14" lengthAdjust="spacing" textLength="92" x="353" y="973.6211">&#171;value object&#187;</text><text fill="#000000" font-family="sans-serif" font-size="14" lengthAdjust="spacing" textLength="135" x="331.5" y="992.2422">InterviewPhaseStatus</text><line style="stroke:#181818;stroke-width:0.5;" x1="303.5" x2="468.5" y1="1000.7559" y2="1000.7559"/><line style="stroke:#181818;stroke-width:0.5;" x1="303.5" x2="468.5" y1="1008.7559" y2="1008.7559"/></g><!--class JobOpening--><g id="elem_JobOpening"><rect codeLine="47" fill="#F1F1F1" height="81.8633" id="JobOpening" rx="2.5" ry="2.5" style="stroke:#181818;stroke-width:0.5;" width="108" x="549" y="739.0137"/><ellipse cx="564" cy="771.9453" fill="#ADD1B2" rx="11" ry="11" style="stroke:#181818;stroke-width:1.0;"/><path d="M566.7656,767.8203 Q566.9219,767.6016 567.1094,767.4922 Q567.2969,767.3828 567.5156,767.3828 Q567.8906,767.3828 568.125,767.6484 Q568.3594,767.8984 568.3594,768.5078 L568.3594,769.9609 Q568.3594,770.5703 568.125,770.8359 Q567.8906,771.1016 567.5156,771.1016 Q567.1719,771.1016 566.9688,770.8984 Q566.7656,770.7109 566.6563,770.1953 Q566.6094,769.8359 566.4219,769.6484 Q566.0938,769.2734 565.4844,769.0547 Q564.875,768.8359 564.25,768.8359 Q563.4844,768.8359 562.8438,769.1641 Q562.2188,769.4922 561.7188,770.2422 Q561.2344,770.9922 561.2344,772.0234 L561.2344,773.1172 Q561.2344,774.3516 562.125,775.1797 Q563.0156,775.9922 564.6094,775.9922 Q565.5469,775.9922 566.2031,775.7422 Q566.5938,775.5859 567.0156,775.1484 Q567.2813,774.8828 567.4219,774.8047 Q567.5781,774.7266 567.7813,774.7266 Q568.1094,774.7266 568.3594,774.9922 Q568.625,775.2422 568.625,775.5859 Q568.625,775.9297 568.2813,776.3359 Q567.7813,776.9141 566.9844,777.2422 Q565.9063,777.6953 564.6094,777.6953 Q563.0938,777.6953 561.8906,777.0703 Q560.9063,776.5703 560.2188,775.5078 Q559.5313,774.4297 559.5313,773.1484 L559.5313,771.9922 Q559.5313,770.6641 560.1406,769.5234 Q560.7656,768.3672 561.8594,767.7578 Q562.9531,767.1328 564.1875,767.1328 Q564.9219,767.1328 565.5625,767.3047 Q566.2188,767.4609 566.7656,767.8203 Z " fill="#000000"/><text fill="#000000" font-family="sans-serif" font-size="14" lengthAdjust="spacing" textLength="41" x="595.5" y="759.1211">&#171;root&#187;</text><text fill="#000000" font-family="sans-serif" font-size="14" lengthAdjust="spacing" textLength="50" x="589" y="777.7422">&#171;entity&#187;</text><text fill="#000000" font-family="sans-serif" font-size="14" lengthAdjust="spacing" textLength="76" x="578" y="796.3633">JobOpening</text><line style="stroke:#181818;stroke-width:0.5;" x1="550" x2="656" y1="804.877" y2="804.877"/><line style="stroke:#181818;stroke-width:0.5;" x1="550" x2="656" y1="812.877" y2="812.877"/></g><!--class SetupStatus--><g id="elem_SetupStatus"><rect codeLine="52" fill="#F1F1F1" height="63.2422" id="SetupStatus" rx="2.5" ry="2.5" style="stroke:#181818;stroke-width:0.5;" width="124" x="505" y="953.5137"/><ellipse cx="520" cy="977.1348" fill="#ADD1B2" rx="11" ry="11" style="stroke:#181818;stroke-width:1.0;"/><path d="M522.7656,973.0098 Q522.9219,972.791 523.1094,972.6816 Q523.2969,972.5723 523.5156,972.5723 Q523.8906,972.5723 524.125,972.8379 Q524.3594,973.0879 524.3594,973.6973 L524.3594,975.1504 Q524.3594,975.7598 524.125,976.0254 Q523.8906,976.291 523.5156,976.291 Q523.1719,976.291 522.9688,976.0879 Q522.7656,975.9004 522.6563,975.3848 Q522.6094,975.0254 522.4219,974.8379 Q522.0938,974.4629 521.4844,974.2441 Q520.875,974.0254 520.25,974.0254 Q519.4844,974.0254 518.8438,974.3535 Q518.2188,974.6816 517.7188,975.4316 Q517.2344,976.1816 517.2344,977.2129 L517.2344,978.3066 Q517.2344,979.541 518.125,980.3691 Q519.0156,981.1816 520.6094,981.1816 Q521.5469,981.1816 522.2031,980.9316 Q522.5938,980.7754 523.0156,980.3379 Q523.2813,980.0723 523.4219,979.9941 Q523.5781,979.916 523.7813,979.916 Q524.1094,979.916 524.3594,980.1816 Q524.625,980.4316 524.625,980.7754 Q524.625,981.1191 524.2813,981.5254 Q523.7813,982.1035 522.9844,982.4316 Q521.9063,982.8848 520.6094,982.8848 Q519.0938,982.8848 517.8906,982.2598 Q516.9063,981.7598 516.2188,980.6973 Q515.5313,979.6191 515.5313,978.3379 L515.5313,977.1816 Q515.5313,975.8535 516.1406,974.7129 Q516.7656,973.5566 517.8594,972.9473 Q518.9531,972.3223 520.1875,972.3223 Q520.9219,972.3223 521.5625,972.4941 Q522.2188,972.6504 522.7656,973.0098 Z " fill="#000000"/><text fill="#000000" font-family="sans-serif" font-size="14" lengthAdjust="spacing" textLength="92" x="534" y="973.6211">&#171;value object&#187;</text><text fill="#000000" font-family="sans-serif" font-size="14" lengthAdjust="spacing" textLength="77" x="541.5" y="992.2422">SetupStatus</text><line style="stroke:#181818;stroke-width:0.5;" x1="506" x2="628" y1="1000.7559" y2="1000.7559"/><line style="stroke:#181818;stroke-width:0.5;" x1="506" x2="628" y1="1008.7559" y2="1008.7559"/></g><!--class RequirementsStatus--><g id="elem_RequirementsStatus"><rect codeLine="55" fill="#F1F1F1" height="63.2422" id="RequirementsStatus" rx="2.5" ry="2.5" style="stroke:#181818;stroke-width:0.5;" width="160" x="664" y="953.5137"/><ellipse cx="679" cy="977.1348" fill="#ADD1B2" rx="11" ry="11" style="stroke:#181818;stroke-width:1.0;"/><path d="M681.7656,973.0098 Q681.9219,972.791 682.1094,972.6816 Q682.2969,972.5723 682.5156,972.5723 Q682.8906,972.5723 683.125,972.8379 Q683.3594,973.0879 683.3594,973.6973 L683.3594,975.1504 Q683.3594,975.7598 683.125,976.0254 Q682.8906,976.291 682.5156,976.291 Q682.1719,976.291 681.9688,976.0879 Q681.7656,975.9004 681.6563,975.3848 Q681.6094,975.0254 681.4219,974.8379 Q681.0938,974.4629 680.4844,974.2441 Q679.875,974.0254 679.25,974.0254 Q678.4844,974.0254 677.8438,974.3535 Q677.2188,974.6816 676.7188,975.4316 Q676.2344,976.1816 676.2344,977.2129 L676.2344,978.3066 Q676.2344,979.541 677.125,980.3691 Q678.0156,981.1816 679.6094,981.1816 Q680.5469,981.1816 681.2031,980.9316 Q681.5938,980.7754 682.0156,980.3379 Q682.2813,980.0723 682.4219,979.9941 Q682.5781,979.916 682.7813,979.916 Q683.1094,979.916 683.3594,980.1816 Q683.625,980.4316 683.625,980.7754 Q683.625,981.1191 683.2813,981.5254 Q682.7813,982.1035 681.9844,982.4316 Q680.9063,982.8848 679.6094,982.8848 Q678.0938,982.8848 676.8906,982.2598 Q675.9063,981.7598 675.2188,980.6973 Q674.5313,979.6191 674.5313,978.3379 L674.5313,977.1816 Q674.5313,975.8535 675.1406,974.7129 Q675.7656,973.5566 676.8594,972.9473 Q677.9531,972.3223 679.1875,972.3223 Q679.9219,972.3223 680.5625,972.4941 Q681.2188,972.6504 681.7656,973.0098 Z " fill="#000000"/><text fill="#000000" font-family="sans-serif" font-size="14" lengthAdjust="spacing" textLength="92" x="711" y="973.6211">&#171;value object&#187;</text><text fill="#000000" font-family="sans-serif" font-size="14" lengthAdjust="spacing" textLength="128" x="693" y="992.2422">RequirementsStatus</text><line style="stroke:#181818;stroke-width:0.5;" x1="665" x2="823" y1="1000.7559" y2="1000.7559"/><line style="stroke:#181818;stroke-width:0.5;" x1="665" x2="823" y1="1008.7559" y2="1008.7559"/></g><!--class ContractType--><g id="elem_ContractType"><rect codeLine="60" fill="#F1F1F1" height="63.2422" id="ContractType" rx="2.5" ry="2.5" style="stroke:#181818;stroke-width:0.5;" width="124" x="859" y="550.5137"/><ellipse cx="874" cy="574.1348" fill="#ADD1B2" rx="11" ry="11" style="stroke:#181818;stroke-width:1.0;"/><path d="M876.7656,570.0098 Q876.9219,569.791 877.1094,569.6816 Q877.2969,569.5723 877.5156,569.5723 Q877.8906,569.5723 878.125,569.8379 Q878.3594,570.0879 878.3594,570.6973 L878.3594,572.1504 Q878.3594,572.7598 878.125,573.0254 Q877.8906,573.291 877.5156,573.291 Q877.1719,573.291 876.9688,573.0879 Q876.7656,572.9004 876.6563,572.3848 Q876.6094,572.0254 876.4219,571.8379 Q876.0938,571.4629 875.4844,571.2441 Q874.875,571.0254 874.25,571.0254 Q873.4844,571.0254 872.8438,571.3535 Q872.2188,571.6816 871.7188,572.4316 Q871.2344,573.1816 871.2344,574.2129 L871.2344,575.3066 Q871.2344,576.541 872.125,577.3691 Q873.0156,578.1816 874.6094,578.1816 Q875.5469,578.1816 876.2031,577.9316 Q876.5938,577.7754 877.0156,577.3379 Q877.2813,577.0723 877.4219,576.9941 Q877.5781,576.916 877.7813,576.916 Q878.1094,576.916 878.3594,577.1816 Q878.625,577.4316 878.625,577.7754 Q878.625,578.1191 878.2813,578.5254 Q877.7813,579.1035 876.9844,579.4316 Q875.9063,579.8848 874.6094,579.8848 Q873.0938,579.8848 871.8906,579.2598 Q870.9063,578.7598 870.2188,577.6973 Q869.5313,576.6191 869.5313,575.3379 L869.5313,574.1816 Q869.5313,572.8535 870.1406,571.7129 Q870.7656,570.5566 871.8594,569.9473 Q872.9531,569.3223 874.1875,569.3223 Q874.9219,569.3223 875.5625,569.4941 Q876.2188,569.6504 876.7656,570.0098 Z " fill="#000000"/><text fill="#000000" font-family="sans-serif" font-size="14" lengthAdjust="spacing" textLength="92" x="888" y="570.6211">&#171;value object&#187;</text><text fill="#000000" font-family="sans-serif" font-size="14" lengthAdjust="spacing" textLength="86" x="891" y="589.2422">ContractType</text><line style="stroke:#181818;stroke-width:0.5;" x1="860" x2="982" y1="597.7559" y2="597.7559"/><line style="stroke:#181818;stroke-width:0.5;" x1="860" x2="982" y1="605.7559" y2="605.7559"/></g><!--class Mode--><g id="elem_Mode"><rect codeLine="63" fill="#F1F1F1" height="81.8633" id="Mode" rx="2.5" ry="2.5" style="stroke:#181818;stroke-width:0.5;" width="124" x="700" y="541.0137"/><ellipse cx="715" cy="564.6348" fill="#ADD1B2" rx="11" ry="11" style="stroke:#181818;stroke-width:1.0;"/><path d="M717.7656,560.5098 Q717.9219,560.291 718.1094,560.1816 Q718.2969,560.0723 718.5156,560.0723 Q718.8906,560.0723 719.125,560.3379 Q719.3594,560.5879 719.3594,561.1973 L719.3594,562.6504 Q719.3594,563.2598 719.125,563.5254 Q718.8906,563.791 718.5156,563.791 Q718.1719,563.791 717.9688,563.5879 Q717.7656,563.4004 717.6563,562.8848 Q717.6094,562.5254 717.4219,562.3379 Q717.0938,561.9629 716.4844,561.7441 Q715.875,561.5254 715.25,561.5254 Q714.4844,561.5254 713.8438,561.8535 Q713.2188,562.1816 712.7188,562.9316 Q712.2344,563.6816 712.2344,564.7129 L712.2344,565.8066 Q712.2344,567.041 713.125,567.8691 Q714.0156,568.6816 715.6094,568.6816 Q716.5469,568.6816 717.2031,568.4316 Q717.5938,568.2754 718.0156,567.8379 Q718.2813,567.5723 718.4219,567.4941 Q718.5781,567.416 718.7813,567.416 Q719.1094,567.416 719.3594,567.6816 Q719.625,567.9316 719.625,568.2754 Q719.625,568.6191 719.2813,569.0254 Q718.7813,569.6035 717.9844,569.9316 Q716.9063,570.3848 715.6094,570.3848 Q714.0938,570.3848 712.8906,569.7598 Q711.9063,569.2598 711.2188,568.1973 Q710.5313,567.1191 710.5313,565.8379 L710.5313,564.6816 Q710.5313,563.3535 711.1406,562.2129 Q711.7656,561.0566 712.8594,560.4473 Q713.9531,559.8223 715.1875,559.8223 Q715.9219,559.8223 716.5625,559.9941 Q717.2188,560.1504 717.7656,560.5098 Z " fill="#000000"/><text fill="#000000" font-family="sans-serif" font-size="14" lengthAdjust="spacing" textLength="92" x="729" y="561.1211">&#171;value object&#187;</text><text fill="#000000" font-family="sans-serif" font-size="14" lengthAdjust="spacing" textLength="35" x="757.5" y="579.7422">Mode</text><line style="stroke:#181818;stroke-width:0.5;" x1="701" x2="823" y1="588.2559" y2="588.2559"/><text fill="#000000" font-family="sans-serif" font-size="14" lengthAdjust="spacing" textLength="69" x="706" y="607.3633">description</text><line style="stroke:#181818;stroke-width:0.5;" x1="701" x2="823" y1="614.877" y2="614.877"/></g><!--class JobFunction--><g id="elem_JobFunction"><rect codeLine="67" fill="#F1F1F1" height="81.8633" id="JobFunction" rx="2.5" ry="2.5" style="stroke:#181818;stroke-width:0.5;" width="124" x="541" y="541.0137"/><ellipse cx="556" cy="564.6348" fill="#ADD1B2" rx="11" ry="11" style="stroke:#181818;stroke-width:1.0;"/><path d="M558.7656,560.5098 Q558.9219,560.291 559.1094,560.1816 Q559.2969,560.0723 559.5156,560.0723 Q559.8906,560.0723 560.125,560.3379 Q560.3594,560.5879 560.3594,561.1973 L560.3594,562.6504 Q560.3594,563.2598 560.125,563.5254 Q559.8906,563.791 559.5156,563.791 Q559.1719,563.791 558.9688,563.5879 Q558.7656,563.4004 558.6563,562.8848 Q558.6094,562.5254 558.4219,562.3379 Q558.0938,561.9629 557.4844,561.7441 Q556.875,561.5254 556.25,561.5254 Q555.4844,561.5254 554.8438,561.8535 Q554.2188,562.1816 553.7188,562.9316 Q553.2344,563.6816 553.2344,564.7129 L553.2344,565.8066 Q553.2344,567.041 554.125,567.8691 Q555.0156,568.6816 556.6094,568.6816 Q557.5469,568.6816 558.2031,568.4316 Q558.5938,568.2754 559.0156,567.8379 Q559.2813,567.5723 559.4219,567.4941 Q559.5781,567.416 559.7813,567.416 Q560.1094,567.416 560.3594,567.6816 Q560.625,567.9316 560.625,568.2754 Q560.625,568.6191 560.2813,569.0254 Q559.7813,569.6035 558.9844,569.9316 Q557.9063,570.3848 556.6094,570.3848 Q555.0938,570.3848 553.8906,569.7598 Q552.9063,569.2598 552.2188,568.1973 Q551.5313,567.1191 551.5313,565.8379 L551.5313,564.6816 Q551.5313,563.3535 552.1406,562.2129 Q552.7656,561.0566 553.8594,560.4473 Q554.9531,559.8223 556.1875,559.8223 Q556.9219,559.8223 557.5625,559.9941 Q558.2188,560.1504 558.7656,560.5098 Z " fill="#000000"/><text fill="#000000" font-family="sans-serif" font-size="14" lengthAdjust="spacing" textLength="92" x="570" y="561.1211">&#171;value object&#187;</text><text fill="#000000" font-family="sans-serif" font-size="14" lengthAdjust="spacing" textLength="77" x="577.5" y="579.7422">JobFunction</text><line style="stroke:#181818;stroke-width:0.5;" x1="542" x2="664" y1="588.2559" y2="588.2559"/><text fill="#000000" font-family="sans-serif" font-size="14" lengthAdjust="spacing" textLength="69" x="547" y="607.3633">description</text><line style="stroke:#181818;stroke-width:0.5;" x1="542" x2="664" y1="614.877" y2="614.877"/></g><!--class NumberOfVacancies--><g id="elem_NumberOfVacancies"><rect codeLine="71" fill="#F1F1F1" height="63.2422" id="NumberOfVacancies" rx="2.5" ry="2.5" style="stroke:#181818;stroke-width:0.5;" width="165" x="340.5" y="550.5137"/><ellipse cx="355.5" cy="574.1348" fill="#ADD1B2" rx="11" ry="11" style="stroke:#181818;stroke-width:1.0;"/><path d="M358.2656,570.0098 Q358.4219,569.791 358.6094,569.6816 Q358.7969,569.5723 359.0156,569.5723 Q359.3906,569.5723 359.625,569.8379 Q359.8594,570.0879 359.8594,570.6973 L359.8594,572.1504 Q359.8594,572.7598 359.625,573.0254 Q359.3906,573.291 359.0156,573.291 Q358.6719,573.291 358.4688,573.0879 Q358.2656,572.9004 358.1563,572.3848 Q358.1094,572.0254 357.9219,571.8379 Q357.5938,571.4629 356.9844,571.2441 Q356.375,571.0254 355.75,571.0254 Q354.9844,571.0254 354.3438,571.3535 Q353.7188,571.6816 353.2188,572.4316 Q352.7344,573.1816 352.7344,574.2129 L352.7344,575.3066 Q352.7344,576.541 353.625,577.3691 Q354.5156,578.1816 356.1094,578.1816 Q357.0469,578.1816 357.7031,577.9316 Q358.0938,577.7754 358.5156,577.3379 Q358.7813,577.0723 358.9219,576.9941 Q359.0781,576.916 359.2813,576.916 Q359.6094,576.916 359.8594,577.1816 Q360.125,577.4316 360.125,577.7754 Q360.125,578.1191 359.7813,578.5254 Q359.2813,579.1035 358.4844,579.4316 Q357.4063,579.8848 356.1094,579.8848 Q354.5938,579.8848 353.3906,579.2598 Q352.4063,578.7598 351.7188,577.6973 Q351.0313,576.6191 351.0313,575.3379 L351.0313,574.1816 Q351.0313,572.8535 351.6406,571.7129 Q352.2656,570.5566 353.3594,569.9473 Q354.4531,569.3223 355.6875,569.3223 Q356.4219,569.3223 357.0625,569.4941 Q357.7188,569.6504 358.2656,570.0098 Z " fill="#000000"/><text fill="#000000" font-family="sans-serif" font-size="14" lengthAdjust="spacing" textLength="92" x="390" y="570.6211">&#171;value object&#187;</text><text fill="#000000" font-family="sans-serif" font-size="14" lengthAdjust="spacing" textLength="129" x="373.5" y="589.2422">NumberOfVacancies</text><line style="stroke:#181818;stroke-width:0.5;" x1="341.5" x2="504.5" y1="597.7559" y2="597.7559"/><line style="stroke:#181818;stroke-width:0.5;" x1="341.5" x2="504.5" y1="605.7559" y2="605.7559"/></g><!--class Description--><g id="elem_Description"><rect codeLine="75" fill="#F1F1F1" height="81.8633" id="Description" rx="2.5" ry="2.5" style="stroke:#181818;stroke-width:0.5;" width="124" x="181" y="541.0137"/><ellipse cx="196" cy="564.6348" fill="#ADD1B2" rx="11" ry="11" style="stroke:#181818;stroke-width:1.0;"/><path d="M198.7656,560.5098 Q198.9219,560.291 199.1094,560.1816 Q199.2969,560.0723 199.5156,560.0723 Q199.8906,560.0723 200.125,560.3379 Q200.3594,560.5879 200.3594,561.1973 L200.3594,562.6504 Q200.3594,563.2598 200.125,563.5254 Q199.8906,563.791 199.5156,563.791 Q199.1719,563.791 198.9688,563.5879 Q198.7656,563.4004 198.6563,562.8848 Q198.6094,562.5254 198.4219,562.3379 Q198.0938,561.9629 197.4844,561.7441 Q196.875,561.5254 196.25,561.5254 Q195.4844,561.5254 194.8438,561.8535 Q194.2188,562.1816 193.7188,562.9316 Q193.2344,563.6816 193.2344,564.7129 L193.2344,565.8066 Q193.2344,567.041 194.125,567.8691 Q195.0156,568.6816 196.6094,568.6816 Q197.5469,568.6816 198.2031,568.4316 Q198.5938,568.2754 199.0156,567.8379 Q199.2813,567.5723 199.4219,567.4941 Q199.5781,567.416 199.7813,567.416 Q200.1094,567.416 200.3594,567.6816 Q200.625,567.9316 200.625,568.2754 Q200.625,568.6191 200.2813,569.0254 Q199.7813,569.6035 198.9844,569.9316 Q197.9063,570.3848 196.6094,570.3848 Q195.0938,570.3848 193.8906,569.7598 Q192.9063,569.2598 192.2188,568.1973 Q191.5313,567.1191 191.5313,565.8379 L191.5313,564.6816 Q191.5313,563.3535 192.1406,562.2129 Q192.7656,561.0566 193.8594,560.4473 Q194.9531,559.8223 196.1875,559.8223 Q196.9219,559.8223 197.5625,559.9941 Q198.2188,560.1504 198.7656,560.5098 Z " fill="#000000"/><text fill="#000000" font-family="sans-serif" font-size="14" lengthAdjust="spacing" textLength="92" x="210" y="561.1211">&#171;value object&#187;</text><text fill="#000000" font-family="sans-serif" font-size="14" lengthAdjust="spacing" textLength="71" x="220.5" y="579.7422">Description</text><line style="stroke:#181818;stroke-width:0.5;" x1="182" x2="304" y1="588.2559" y2="588.2559"/><text fill="#000000" font-family="sans-serif" font-size="14" lengthAdjust="spacing" textLength="69" x="187" y="607.3633">description</text><line style="stroke:#181818;stroke-width:0.5;" x1="182" x2="304" y1="614.877" y2="614.877"/></g><!--class Address1--><g id="elem_Address1"><rect codeLine="80" fill="#F1F1F1" height="156.3477" id="Address1" rx="2.5" ry="2.5" style="stroke:#181818;stroke-width:0.5;" width="124" x="22" y="504.0137"/><ellipse cx="37" cy="527.6348" fill="#ADD1B2" rx="11" ry="11" style="stroke:#181818;stroke-width:1.0;"/><path d="M39.7656,523.5098 Q39.9219,523.291 40.1094,523.1816 Q40.2969,523.0723 40.5156,523.0723 Q40.8906,523.0723 41.125,523.3379 Q41.3594,523.5879 41.3594,524.1973 L41.3594,525.6504 Q41.3594,526.2598 41.125,526.5254 Q40.8906,526.791 40.5156,526.791 Q40.1719,526.791 39.9688,526.5879 Q39.7656,526.4004 39.6563,525.8848 Q39.6094,525.5254 39.4219,525.3379 Q39.0938,524.9629 38.4844,524.7441 Q37.875,524.5254 37.25,524.5254 Q36.4844,524.5254 35.8438,524.8535 Q35.2188,525.1816 34.7188,525.9316 Q34.2344,526.6816 34.2344,527.7129 L34.2344,528.8066 Q34.2344,530.041 35.125,530.8691 Q36.0156,531.6816 37.6094,531.6816 Q38.5469,531.6816 39.2031,531.4316 Q39.5938,531.2754 40.0156,530.8379 Q40.2813,530.5723 40.4219,530.4941 Q40.5781,530.416 40.7813,530.416 Q41.1094,530.416 41.3594,530.6816 Q41.625,530.9316 41.625,531.2754 Q41.625,531.6191 41.2813,532.0254 Q40.7813,532.6035 39.9844,532.9316 Q38.9063,533.3848 37.6094,533.3848 Q36.0938,533.3848 34.8906,532.7598 Q33.9063,532.2598 33.2188,531.1973 Q32.5313,530.1191 32.5313,528.8379 L32.5313,527.6816 Q32.5313,526.3535 33.1406,525.2129 Q33.7656,524.0566 34.8594,523.4473 Q35.9531,522.8223 37.1875,522.8223 Q37.9219,522.8223 38.5625,522.9941 Q39.2188,523.1504 39.7656,523.5098 Z " fill="#000000"/><text fill="#000000" font-family="sans-serif" font-size="14" lengthAdjust="spacing" textLength="92" x="51" y="524.1211">&#171;value object&#187;</text><text fill="#000000" font-family="sans-serif" font-size="14" lengthAdjust="spacing" textLength="52" x="71" y="542.7422">Address</text><line style="stroke:#181818;stroke-width:0.5;" x1="23" x2="145" y1="551.2559" y2="551.2559"/><text fill="#000000" font-family="sans-serif" font-size="14" lengthAdjust="spacing" textLength="38" x="28" y="570.3633">Street</text><text fill="#000000" font-family="sans-serif" font-size="14" lengthAdjust="spacing" textLength="24" x="28" y="588.9844">City</text><text fill="#000000" font-family="sans-serif" font-size="14" lengthAdjust="spacing" textLength="33" x="28" y="607.6055">State</text><text fill="#000000" font-family="sans-serif" font-size="14" lengthAdjust="spacing" textLength="50" x="28" y="626.2266">Country</text><text fill="#000000" font-family="sans-serif" font-size="14" lengthAdjust="spacing" textLength="50" x="28" y="644.8477">Zipcode</text><line style="stroke:#181818;stroke-width:0.5;" x1="23" x2="145" y1="652.3613" y2="652.3613"/></g><!--class JobReference--><g id="elem_JobReference"><rect codeLine="88" fill="#F1F1F1" height="81.8633" id="JobReference" rx="2.5" ry="2.5" style="stroke:#181818;stroke-width:0.5;" width="124" x="859" y="944.0137"/><ellipse cx="874" cy="976.9453" fill="#ADD1B2" rx="11" ry="11" style="stroke:#181818;stroke-width:1.0;"/><path d="M876.7656,972.8203 Q876.9219,972.6016 877.1094,972.4922 Q877.2969,972.3828 877.5156,972.3828 Q877.8906,972.3828 878.125,972.6484 Q878.3594,972.8984 878.3594,973.5078 L878.3594,974.9609 Q878.3594,975.5703 878.125,975.8359 Q877.8906,976.1016 877.5156,976.1016 Q877.1719,976.1016 876.9688,975.8984 Q876.7656,975.7109 876.6563,975.1953 Q876.6094,974.8359 876.4219,974.6484 Q876.0938,974.2734 875.4844,974.0547 Q874.875,973.8359 874.25,973.8359 Q873.4844,973.8359 872.8438,974.1641 Q872.2188,974.4922 871.7188,975.2422 Q871.2344,975.9922 871.2344,977.0234 L871.2344,978.1172 Q871.2344,979.3516 872.125,980.1797 Q873.0156,980.9922 874.6094,980.9922 Q875.5469,980.9922 876.2031,980.7422 Q876.5938,980.5859 877.0156,980.1484 Q877.2813,979.8828 877.4219,979.8047 Q877.5781,979.7266 877.7813,979.7266 Q878.1094,979.7266 878.3594,979.9922 Q878.625,980.2422 878.625,980.5859 Q878.625,980.9297 878.2813,981.3359 Q877.7813,981.9141 876.9844,982.2422 Q875.9063,982.6953 874.6094,982.6953 Q873.0938,982.6953 871.8906,982.0703 Q870.9063,981.5703 870.2188,980.5078 Q869.5313,979.4297 869.5313,978.1484 L869.5313,976.9922 Q869.5313,975.6641 870.1406,974.5234 Q870.7656,973.3672 871.8594,972.7578 Q872.9531,972.1328 874.1875,972.1328 Q874.9219,972.1328 875.5625,972.3047 Q876.2188,972.4609 876.7656,972.8203 Z " fill="#000000"/><text fill="#000000" font-family="sans-serif" font-size="14" lengthAdjust="spacing" textLength="92" x="888" y="964.1211">&#171;value object&#187;</text><text fill="#000000" font-family="sans-serif" font-size="14" lengthAdjust="spacing" textLength="70" x="899" y="982.7422">&#171;identifier&#187;</text><text fill="#000000" font-family="sans-serif" font-size="14" lengthAdjust="spacing" textLength="88" x="890" y="1001.3633">JobReference</text><line style="stroke:#181818;stroke-width:0.5;" x1="860" x2="982" y1="1009.877" y2="1009.877"/><line style="stroke:#181818;stroke-width:0.5;" x1="860" x2="982" y1="1017.877" y2="1017.877"/></g><!--class Candidate--><g id="elem_Candidate"><rect codeLine="95" fill="#F1F1F1" height="81.8633" id="Candidate" rx="2.5" ry="2.5" style="stroke:#181818;stroke-width:0.5;" width="97" x="1718.5" y="944.0137"/><ellipse cx="1733.5" cy="976.9453" fill="#ADD1B2" rx="11" ry="11" style="stroke:#181818;stroke-width:1.0;"/><path d="M1736.2656,972.8203 Q1736.4219,972.6016 1736.6094,972.4922 Q1736.7969,972.3828 1737.0156,972.3828 Q1737.3906,972.3828 1737.625,972.6484 Q1737.8594,972.8984 1737.8594,973.5078 L1737.8594,974.9609 Q1737.8594,975.5703 1737.625,975.8359 Q1737.3906,976.1016 1737.0156,976.1016 Q1736.6719,976.1016 1736.4688,975.8984 Q1736.2656,975.7109 1736.1563,975.1953 Q1736.1094,974.8359 1735.9219,974.6484 Q1735.5938,974.2734 1734.9844,974.0547 Q1734.375,973.8359 1733.75,973.8359 Q1732.9844,973.8359 1732.3438,974.1641 Q1731.7188,974.4922 1731.2188,975.2422 Q1730.7344,975.9922 1730.7344,977.0234 L1730.7344,978.1172 Q1730.7344,979.3516 1731.625,980.1797 Q1732.5156,980.9922 1734.1094,980.9922 Q1735.0469,980.9922 1735.7031,980.7422 Q1736.0938,980.5859 1736.5156,980.1484 Q1736.7813,979.8828 1736.9219,979.8047 Q1737.0781,979.7266 1737.2813,979.7266 Q1737.6094,979.7266 1737.8594,979.9922 Q1738.125,980.2422 1738.125,980.5859 Q1738.125,980.9297 1737.7813,981.3359 Q1737.2813,981.9141 1736.4844,982.2422 Q1735.4063,982.6953 1734.1094,982.6953 Q1732.5938,982.6953 1731.3906,982.0703 Q1730.4063,981.5703 1729.7188,980.5078 Q1729.0313,979.4297 1729.0313,978.1484 L1729.0313,976.9922 Q1729.0313,975.6641 1729.6406,974.5234 Q1730.2656,973.3672 1731.3594,972.7578 Q1732.4531,972.1328 1733.6875,972.1328 Q1734.4219,972.1328 1735.0625,972.3047 Q1735.7188,972.4609 1736.2656,972.8203 Z " fill="#000000"/><text fill="#000000" font-family="sans-serif" font-size="14" lengthAdjust="spacing" textLength="41" x="1759.5" y="964.1211">&#171;root&#187;</text><text fill="#000000" font-family="sans-serif" font-size="14" lengthAdjust="spacing" textLength="50" x="1755" y="982.7422">&#171;entity&#187;</text><text fill="#000000" font-family="sans-serif" font-size="14" lengthAdjust="spacing" textLength="65" x="1747.5" y="1001.3633">Candidate</text><line style="stroke:#181818;stroke-width:0.5;" x1="1719.5" x2="1814.5" y1="1009.877" y2="1009.877"/><line style="stroke:#181818;stroke-width:0.5;" x1="1719.5" x2="1814.5" y1="1017.877" y2="1017.877"/></g><g id="elem_EmailCandidate"><path d="M1537.5,1151.0137 L1537.5,1178.3047 A0,0 0 0 0 1537.5,1178.3047 L1606.5,1178.3047 A0,0 0 0 0 1606.5,1178.3047 L1606.5,1169.0137 L1641.95,1164.5137 L1606.5,1161.0137 L1606.5,1161.0137 L1596.5,1151.0137 L1537.5,1151.0137 A0,0 0 0 0 1537.5,1151.0137 " fill="#FEFFDD" style="stroke:#181818;stroke-width:0.5;"/><path d="M1596.5,1151.0137 L1596.5,1161.0137 L1606.5,1161.0137 L1596.5,1151.0137 " fill="#FEFFDD" style="stroke:#181818;stroke-width:0.5;"/><text fill="#000000" font-family="sans-serif" font-size="13" lengthAdjust="spacing" textLength="48" x="1543.5" y="1170.042">Identifire</text></g><!--class Name--><g id="elem_Name"><rect codeLine="103" fill="#F1F1F1" height="85.2422" id="Name" rx="2.5" ry="2.5" style="stroke:#181818;stroke-width:0.5;" width="71" x="1801.5" y="1122.0137"/><ellipse cx="1817.85" cy="1138.0137" fill="#ADD1B2" rx="11" ry="11" style="stroke:#181818;stroke-width:1.0;"/><path d="M1820.6156,1133.8887 Q1820.7719,1133.6699 1820.9594,1133.5605 Q1821.1469,1133.4512 1821.3656,1133.4512 Q1821.7406,1133.4512 1821.975,1133.7168 Q1822.2094,1133.9668 1822.2094,1134.5762 L1822.2094,1136.0293 Q1822.2094,1136.6387 1821.975,1136.9043 Q1821.7406,1137.1699 1821.3656,1137.1699 Q1821.0219,1137.1699 1820.8188,1136.9668 Q1820.6156,1136.7793 1820.5063,1136.2637 Q1820.4594,1135.9043 1820.2719,1135.7168 Q1819.9438,1135.3418 1819.3344,1135.123 Q1818.725,1134.9043 1818.1,1134.9043 Q1817.3344,1134.9043 1816.6938,1135.2324 Q1816.0688,1135.5605 1815.5688,1136.3105 Q1815.0844,1137.0605 1815.0844,1138.0918 L1815.0844,1139.1855 Q1815.0844,1140.4199 1815.975,1141.248 Q1816.8656,1142.0605 1818.4594,1142.0605 Q1819.3969,1142.0605 1820.0531,1141.8105 Q1820.4438,1141.6543 1820.8656,1141.2168 Q1821.1313,1140.9512 1821.2719,1140.873 Q1821.4281,1140.7949 1821.6313,1140.7949 Q1821.9594,1140.7949 1822.2094,1141.0605 Q1822.475,1141.3105 1822.475,1141.6543 Q1822.475,1141.998 1822.1313,1142.4043 Q1821.6313,1142.9824 1820.8344,1143.3105 Q1819.7563,1143.7637 1818.4594,1143.7637 Q1816.9438,1143.7637 1815.7406,1143.1387 Q1814.7563,1142.6387 1814.0688,1141.5762 Q1813.3813,1140.498 1813.3813,1139.2168 L1813.3813,1138.0605 Q1813.3813,1136.7324 1813.9906,1135.5918 Q1814.6156,1134.4355 1815.7094,1133.8262 Q1816.8031,1133.2012 1818.0375,1133.2012 Q1818.7719,1133.2012 1819.4125,1133.373 Q1820.0688,1133.5293 1820.6156,1133.8887 Z " fill="#000000"/><text fill="#000000" font-family="sans-serif" font-size="14" lengthAdjust="spacing" textLength="36" x="1832.15" y="1143.8105">Name</text><line style="stroke:#181818;stroke-width:0.5;" x1="1802.5" x2="1871.5" y1="1154.0137" y2="1154.0137"/><text fill="#000000" font-family="sans-serif" font-size="14" lengthAdjust="spacing" textLength="59" x="1807.5" y="1173.1211">firstName</text><text fill="#000000" font-family="sans-serif" font-size="14" lengthAdjust="spacing" textLength="58" x="1807.5" y="1191.7422">lastName</text><line style="stroke:#181818;stroke-width:0.5;" x1="1802.5" x2="1871.5" y1="1199.2559" y2="1199.2559"/></g><!--class PhoneNumber--><g id="elem_PhoneNumber"><rect codeLine="108" fill="#F1F1F1" height="81.8633" id="PhoneNumber" rx="2.5" ry="2.5" style="stroke:#181818;stroke-width:0.5;" width="124" x="1537" y="944.0137"/><ellipse cx="1552" cy="967.6348" fill="#ADD1B2" rx="11" ry="11" style="stroke:#181818;stroke-width:1.0;"/><path d="M1554.7656,963.5098 Q1554.9219,963.291 1555.1094,963.1816 Q1555.2969,963.0723 1555.5156,963.0723 Q1555.8906,963.0723 1556.125,963.3379 Q1556.3594,963.5879 1556.3594,964.1973 L1556.3594,965.6504 Q1556.3594,966.2598 1556.125,966.5254 Q1555.8906,966.791 1555.5156,966.791 Q1555.1719,966.791 1554.9688,966.5879 Q1554.7656,966.4004 1554.6563,965.8848 Q1554.6094,965.5254 1554.4219,965.3379 Q1554.0938,964.9629 1553.4844,964.7441 Q1552.875,964.5254 1552.25,964.5254 Q1551.4844,964.5254 1550.8438,964.8535 Q1550.2188,965.1816 1549.7188,965.9316 Q1549.2344,966.6816 1549.2344,967.7129 L1549.2344,968.8066 Q1549.2344,970.041 1550.125,970.8691 Q1551.0156,971.6816 1552.6094,971.6816 Q1553.5469,971.6816 1554.2031,971.4316 Q1554.5938,971.2754 1555.0156,970.8379 Q1555.2813,970.5723 1555.4219,970.4941 Q1555.5781,970.416 1555.7813,970.416 Q1556.1094,970.416 1556.3594,970.6816 Q1556.625,970.9316 1556.625,971.2754 Q1556.625,971.6191 1556.2813,972.0254 Q1555.7813,972.6035 1554.9844,972.9316 Q1553.9063,973.3848 1552.6094,973.3848 Q1551.0938,973.3848 1549.8906,972.7598 Q1548.9063,972.2598 1548.2188,971.1973 Q1547.5313,970.1191 1547.5313,968.8379 L1547.5313,967.6816 Q1547.5313,966.3535 1548.1406,965.2129 Q1548.7656,964.0566 1549.8594,963.4473 Q1550.9531,962.8223 1552.1875,962.8223 Q1552.9219,962.8223 1553.5625,962.9941 Q1554.2188,963.1504 1554.7656,963.5098 Z " fill="#000000"/><text fill="#000000" font-family="sans-serif" font-size="14" lengthAdjust="spacing" textLength="92" x="1566" y="964.1211">&#171;value object&#187;</text><text fill="#000000" font-family="sans-serif" font-size="14" lengthAdjust="spacing" textLength="90" x="1567" y="982.7422">PhoneNumber</text><line style="stroke:#181818;stroke-width:0.5;" x1="1538" x2="1660" y1="991.2559" y2="991.2559"/><text fill="#000000" font-family="sans-serif" font-size="14" lengthAdjust="spacing" textLength="89" x="1543" y="1010.3633">phoneNumber</text><line style="stroke:#181818;stroke-width:0.5;" x1="1538" x2="1660" y1="1017.877" y2="1017.877"/></g><!--class EMail--><g id="elem_EMail"><rect codeLine="112" fill="#F1F1F1" height="81.8633" id="EMail" rx="2.5" ry="2.5" style="stroke:#181818;stroke-width:0.5;" width="124" x="1642" y="1123.5137"/><ellipse cx="1657" cy="1147.1348" fill="#ADD1B2" rx="11" ry="11" style="stroke:#181818;stroke-width:1.0;"/><path d="M1659.7656,1143.0098 Q1659.9219,1142.791 1660.1094,1142.6816 Q1660.2969,1142.5723 1660.5156,1142.5723 Q1660.8906,1142.5723 1661.125,1142.8379 Q1661.3594,1143.0879 1661.3594,1143.6973 L1661.3594,1145.1504 Q1661.3594,1145.7598 1661.125,1146.0254 Q1660.8906,1146.291 1660.5156,1146.291 Q1660.1719,1146.291 1659.9688,1146.0879 Q1659.7656,1145.9004 1659.6563,1145.3848 Q1659.6094,1145.0254 1659.4219,1144.8379 Q1659.0938,1144.4629 1658.4844,1144.2441 Q1657.875,1144.0254 1657.25,1144.0254 Q1656.4844,1144.0254 1655.8438,1144.3535 Q1655.2188,1144.6816 1654.7188,1145.4316 Q1654.2344,1146.1816 1654.2344,1147.2129 L1654.2344,1148.3066 Q1654.2344,1149.541 1655.125,1150.3691 Q1656.0156,1151.1816 1657.6094,1151.1816 Q1658.5469,1151.1816 1659.2031,1150.9316 Q1659.5938,1150.7754 1660.0156,1150.3379 Q1660.2813,1150.0723 1660.4219,1149.9941 Q1660.5781,1149.916 1660.7813,1149.916 Q1661.1094,1149.916 1661.3594,1150.1816 Q1661.625,1150.4316 1661.625,1150.7754 Q1661.625,1151.1191 1661.2813,1151.5254 Q1660.7813,1152.1035 1659.9844,1152.4316 Q1658.9063,1152.8848 1657.6094,1152.8848 Q1656.0938,1152.8848 1654.8906,1152.2598 Q1653.9063,1151.7598 1653.2188,1150.6973 Q1652.5313,1149.6191 1652.5313,1148.3379 L1652.5313,1147.1816 Q1652.5313,1145.8535 1653.1406,1144.7129 Q1653.7656,1143.5566 1654.8594,1142.9473 Q1655.9531,1142.3223 1657.1875,1142.3223 Q1657.9219,1142.3223 1658.5625,1142.4941 Q1659.2188,1142.6504 1659.7656,1143.0098 Z " fill="#000000"/><text fill="#000000" font-family="sans-serif" font-size="14" lengthAdjust="spacing" textLength="92" x="1671" y="1143.6211">&#171;value object&#187;</text><text fill="#000000" font-family="sans-serif" font-size="14" lengthAdjust="spacing" textLength="39" x="1697.5" y="1162.2422">E-Mail</text><line style="stroke:#181818;stroke-width:0.5;" x1="1643" x2="1765" y1="1170.7559" y2="1170.7559"/><text fill="#000000" font-family="sans-serif" font-size="14" lengthAdjust="spacing" textLength="33" x="1648" y="1189.8633">email</text><line style="stroke:#181818;stroke-width:0.5;" x1="1643" x2="1765" y1="1197.377" y2="1197.377"/></g><!--class JobApplication--><g id="elem_JobApplication"><rect codeLine="119" fill="#F1F1F1" height="81.8633" id="JobApplication" rx="2.5" ry="2.5" style="stroke:#181818;stroke-width:0.5;" width="123" x="1357.5" y="944.0137"/><ellipse cx="1372.5" cy="976.9453" fill="#ADD1B2" rx="11" ry="11" style="stroke:#181818;stroke-width:1.0;"/><path d="M1375.2656,972.8203 Q1375.4219,972.6016 1375.6094,972.4922 Q1375.7969,972.3828 1376.0156,972.3828 Q1376.3906,972.3828 1376.625,972.6484 Q1376.8594,972.8984 1376.8594,973.5078 L1376.8594,974.9609 Q1376.8594,975.5703 1376.625,975.8359 Q1376.3906,976.1016 1376.0156,976.1016 Q1375.6719,976.1016 1375.4688,975.8984 Q1375.2656,975.7109 1375.1563,975.1953 Q1375.1094,974.8359 1374.9219,974.6484 Q1374.5938,974.2734 1373.9844,974.0547 Q1373.375,973.8359 1372.75,973.8359 Q1371.9844,973.8359 1371.3438,974.1641 Q1370.7188,974.4922 1370.2188,975.2422 Q1369.7344,975.9922 1369.7344,977.0234 L1369.7344,978.1172 Q1369.7344,979.3516 1370.625,980.1797 Q1371.5156,980.9922 1373.1094,980.9922 Q1374.0469,980.9922 1374.7031,980.7422 Q1375.0938,980.5859 1375.5156,980.1484 Q1375.7813,979.8828 1375.9219,979.8047 Q1376.0781,979.7266 1376.2813,979.7266 Q1376.6094,979.7266 1376.8594,979.9922 Q1377.125,980.2422 1377.125,980.5859 Q1377.125,980.9297 1376.7813,981.3359 Q1376.2813,981.9141 1375.4844,982.2422 Q1374.4063,982.6953 1373.1094,982.6953 Q1371.5938,982.6953 1370.3906,982.0703 Q1369.4063,981.5703 1368.7188,980.5078 Q1368.0313,979.4297 1368.0313,978.1484 L1368.0313,976.9922 Q1368.0313,975.6641 1368.6406,974.5234 Q1369.2656,973.3672 1370.3594,972.7578 Q1371.4531,972.1328 1372.6875,972.1328 Q1373.4219,972.1328 1374.0625,972.3047 Q1374.7188,972.4609 1375.2656,972.8203 Z " fill="#000000"/><text fill="#000000" font-family="sans-serif" font-size="14" lengthAdjust="spacing" textLength="41" x="1411.5" y="964.1211">&#171;root&#187;</text><text fill="#000000" font-family="sans-serif" font-size="14" lengthAdjust="spacing" textLength="50" x="1407" y="982.7422">&#171;entity&#187;</text><text fill="#000000" font-family="sans-serif" font-size="14" lengthAdjust="spacing" textLength="91" x="1386.5" y="1001.3633">JobApplication</text><line style="stroke:#181818;stroke-width:0.5;" x1="1358.5" x2="1479.5" y1="1009.877" y2="1009.877"/><line style="stroke:#181818;stroke-width:0.5;" x1="1358.5" x2="1479.5" y1="1017.877" y2="1017.877"/></g><!--class Status--><g id="elem_Status"><rect codeLine="122" fill="#F1F1F1" height="63.2422" id="Status" rx="2.5" ry="2.5" style="stroke:#181818;stroke-width:0.5;" width="124" x="1039" y="1133.0137"/><ellipse cx="1054" cy="1156.6348" fill="#ADD1B2" rx="11" ry="11" style="stroke:#181818;stroke-width:1.0;"/><path d="M1056.7656,1152.5098 Q1056.9219,1152.291 1057.1094,1152.1816 Q1057.2969,1152.0723 1057.5156,1152.0723 Q1057.8906,1152.0723 1058.125,1152.3379 Q1058.3594,1152.5879 1058.3594,1153.1973 L1058.3594,1154.6504 Q1058.3594,1155.2598 1058.125,1155.5254 Q1057.8906,1155.791 1057.5156,1155.791 Q1057.1719,1155.791 1056.9688,1155.5879 Q1056.7656,1155.4004 1056.6563,1154.8848 Q1056.6094,1154.5254 1056.4219,1154.3379 Q1056.0938,1153.9629 1055.4844,1153.7441 Q1054.875,1153.5254 1054.25,1153.5254 Q1053.4844,1153.5254 1052.8438,1153.8535 Q1052.2188,1154.1816 1051.7188,1154.9316 Q1051.2344,1155.6816 1051.2344,1156.7129 L1051.2344,1157.8066 Q1051.2344,1159.041 1052.125,1159.8691 Q1053.0156,1160.6816 1054.6094,1160.6816 Q1055.5469,1160.6816 1056.2031,1160.4316 Q1056.5938,1160.2754 1057.0156,1159.8379 Q1057.2813,1159.5723 1057.4219,1159.4941 Q1057.5781,1159.416 1057.7813,1159.416 Q1058.1094,1159.416 1058.3594,1159.6816 Q1058.625,1159.9316 1058.625,1160.2754 Q1058.625,1160.6191 1058.2813,1161.0254 Q1057.7813,1161.6035 1056.9844,1161.9316 Q1055.9063,1162.3848 1054.6094,1162.3848 Q1053.0938,1162.3848 1051.8906,1161.7598 Q1050.9063,1161.2598 1050.2188,1160.1973 Q1049.5313,1159.1191 1049.5313,1157.8379 L1049.5313,1156.6816 Q1049.5313,1155.3535 1050.1406,1154.2129 Q1050.7656,1153.0566 1051.8594,1152.4473 Q1052.9531,1151.8223 1054.1875,1151.8223 Q1054.9219,1151.8223 1055.5625,1151.9941 Q1056.2188,1152.1504 1056.7656,1152.5098 Z " fill="#000000"/><text fill="#000000" font-family="sans-serif" font-size="14" lengthAdjust="spacing" textLength="92" x="1068" y="1153.1211">&#171;value object&#187;</text><text fill="#000000" font-family="sans-serif" font-size="14" lengthAdjust="spacing" textLength="40" x="1094" y="1171.7422">Status</text><line style="stroke:#181818;stroke-width:0.5;" x1="1040" x2="1162" y1="1180.2559" y2="1180.2559"/><line style="stroke:#181818;stroke-width:0.5;" x1="1040" x2="1162" y1="1188.2559" y2="1188.2559"/></g><!--class Curriculum--><g id="elem_Curriculum"><rect codeLine="127" fill="#F1F1F1" height="63.2422" id="Curriculum" rx="2.5" ry="2.5" style="stroke:#181818;stroke-width:0.5;" width="124" x="1198" y="1133.0137"/><ellipse cx="1213" cy="1156.6348" fill="#ADD1B2" rx="11" ry="11" style="stroke:#181818;stroke-width:1.0;"/><path d="M1215.7656,1152.5098 Q1215.9219,1152.291 1216.1094,1152.1816 Q1216.2969,1152.0723 1216.5156,1152.0723 Q1216.8906,1152.0723 1217.125,1152.3379 Q1217.3594,1152.5879 1217.3594,1153.1973 L1217.3594,1154.6504 Q1217.3594,1155.2598 1217.125,1155.5254 Q1216.8906,1155.791 1216.5156,1155.791 Q1216.1719,1155.791 1215.9688,1155.5879 Q1215.7656,1155.4004 1215.6563,1154.8848 Q1215.6094,1154.5254 1215.4219,1154.3379 Q1215.0938,1153.9629 1214.4844,1153.7441 Q1213.875,1153.5254 1213.25,1153.5254 Q1212.4844,1153.5254 1211.8438,1153.8535 Q1211.2188,1154.1816 1210.7188,1154.9316 Q1210.2344,1155.6816 1210.2344,1156.7129 L1210.2344,1157.8066 Q1210.2344,1159.041 1211.125,1159.8691 Q1212.0156,1160.6816 1213.6094,1160.6816 Q1214.5469,1160.6816 1215.2031,1160.4316 Q1215.5938,1160.2754 1216.0156,1159.8379 Q1216.2813,1159.5723 1216.4219,1159.4941 Q1216.5781,1159.416 1216.7813,1159.416 Q1217.1094,1159.416 1217.3594,1159.6816 Q1217.625,1159.9316 1217.625,1160.2754 Q1217.625,1160.6191 1217.2813,1161.0254 Q1216.7813,1161.6035 1215.9844,1161.9316 Q1214.9063,1162.3848 1213.6094,1162.3848 Q1212.0938,1162.3848 1210.8906,1161.7598 Q1209.9063,1161.2598 1209.2188,1160.1973 Q1208.5313,1159.1191 1208.5313,1157.8379 L1208.5313,1156.6816 Q1208.5313,1155.3535 1209.1406,1154.2129 Q1209.7656,1153.0566 1210.8594,1152.4473 Q1211.9531,1151.8223 1213.1875,1151.8223 Q1213.9219,1151.8223 1214.5625,1151.9941 Q1215.2188,1152.1504 1215.7656,1152.5098 Z " fill="#000000"/><text fill="#000000" font-family="sans-serif" font-size="14" lengthAdjust="spacing" textLength="92" x="1227" y="1153.1211">&#171;value object&#187;</text><text fill="#000000" font-family="sans-serif" font-size="14" lengthAdjust="spacing" textLength="68" x="1239" y="1171.7422">Curriculum</text><line style="stroke:#181818;stroke-width:0.5;" x1="1199" x2="1321" y1="1180.2559" y2="1180.2559"/><line style="stroke:#181818;stroke-width:0.5;" x1="1199" x2="1321" y1="1188.2559" y2="1188.2559"/></g><!--class Grade2--><g id="elem_Grade2"><rect codeLine="131" fill="#F1F1F1" height="81.8633" id="Grade2" rx="2.5" ry="2.5" style="stroke:#181818;stroke-width:0.5;" width="124" x="1357" y="1123.5137"/><ellipse cx="1372" cy="1156.4453" fill="#ADD1B2" rx="11" ry="11" style="stroke:#181818;stroke-width:1.0;"/><path d="M1374.7656,1152.3203 Q1374.9219,1152.1016 1375.1094,1151.9922 Q1375.2969,1151.8828 1375.5156,1151.8828 Q1375.8906,1151.8828 1376.125,1152.1484 Q1376.3594,1152.3984 1376.3594,1153.0078 L1376.3594,1154.4609 Q1376.3594,1155.0703 1376.125,1155.3359 Q1375.8906,1155.6016 1375.5156,1155.6016 Q1375.1719,1155.6016 1374.9688,1155.3984 Q1374.7656,1155.2109 1374.6563,1154.6953 Q1374.6094,1154.3359 1374.4219,1154.1484 Q1374.0938,1153.7734 1373.4844,1153.5547 Q1372.875,1153.3359 1372.25,1153.3359 Q1371.4844,1153.3359 1370.8438,1153.6641 Q1370.2188,1153.9922 1369.7188,1154.7422 Q1369.2344,1155.4922 1369.2344,1156.5234 L1369.2344,1157.6172 Q1369.2344,1158.8516 1370.125,1159.6797 Q1371.0156,1160.4922 1372.6094,1160.4922 Q1373.5469,1160.4922 1374.2031,1160.2422 Q1374.5938,1160.0859 1375.0156,1159.6484 Q1375.2813,1159.3828 1375.4219,1159.3047 Q1375.5781,1159.2266 1375.7813,1159.2266 Q1376.1094,1159.2266 1376.3594,1159.4922 Q1376.625,1159.7422 1376.625,1160.0859 Q1376.625,1160.4297 1376.2813,1160.8359 Q1375.7813,1161.4141 1374.9844,1161.7422 Q1373.9063,1162.1953 1372.6094,1162.1953 Q1371.0938,1162.1953 1369.8906,1161.5703 Q1368.9063,1161.0703 1368.2188,1160.0078 Q1367.5313,1158.9297 1367.5313,1157.6484 L1367.5313,1156.4922 Q1367.5313,1155.1641 1368.1406,1154.0234 Q1368.7656,1152.8672 1369.8594,1152.2578 Q1370.9531,1151.6328 1372.1875,1151.6328 Q1372.9219,1151.6328 1373.5625,1151.8047 Q1374.2188,1151.9609 1374.7656,1152.3203 Z " fill="#000000"/><text fill="#000000" font-family="sans-serif" font-size="14" lengthAdjust="spacing" textLength="92" x="1386" y="1143.6211">&#171;value object&#187;</text><text fill="#000000" font-family="sans-serif" font-size="14" lengthAdjust="spacing" textLength="80" x="1392" y="1162.2422">&#171;calculated&#187;</text><text fill="#000000" font-family="sans-serif" font-size="14" lengthAdjust="spacing" textLength="40" x="1412" y="1180.8633">Grade</text><line style="stroke:#181818;stroke-width:0.5;" x1="1358" x2="1480" y1="1189.377" y2="1189.377"/><line style="stroke:#181818;stroke-width:0.5;" x1="1358" x2="1480" y1="1197.377" y2="1197.377"/></g><!--class UserDomain--><g id="elem_UserDomain"><rect fill="#F1F1F1" height="48" id="UserDomain" rx="2.5" ry="2.5" style="stroke:#181818;stroke-width:0.5;" width="109" x="1907.5" y="1140.5137"/><ellipse cx="1922.5" cy="1156.5137" fill="#ADD1B2" rx="11" ry="11" style="stroke:#181818;stroke-width:1.0;"/><path d="M1925.2656,1152.3887 Q1925.4219,1152.1699 1925.6094,1152.0605 Q1925.7969,1151.9512 1926.0156,1151.9512 Q1926.3906,1151.9512 1926.625,1152.2168 Q1926.8594,1152.4668 1926.8594,1153.0762 L1926.8594,1154.5293 Q1926.8594,1155.1387 1926.625,1155.4043 Q1926.3906,1155.6699 1926.0156,1155.6699 Q1925.6719,1155.6699 1925.4688,1155.4668 Q1925.2656,1155.2793 1925.1563,1154.7637 Q1925.1094,1154.4043 1924.9219,1154.2168 Q1924.5938,1153.8418 1923.9844,1153.623 Q1923.375,1153.4043 1922.75,1153.4043 Q1921.9844,1153.4043 1921.3438,1153.7324 Q1920.7188,1154.0605 1920.2188,1154.8105 Q1919.7344,1155.5605 1919.7344,1156.5918 L1919.7344,1157.6855 Q1919.7344,1158.9199 1920.625,1159.748 Q1921.5156,1160.5605 1923.1094,1160.5605 Q1924.0469,1160.5605 1924.7031,1160.3105 Q1925.0938,1160.1543 1925.5156,1159.7168 Q1925.7813,1159.4512 1925.9219,1159.373 Q1926.0781,1159.2949 1926.2813,1159.2949 Q1926.6094,1159.2949 1926.8594,1159.5605 Q1927.125,1159.8105 1927.125,1160.1543 Q1927.125,1160.498 1926.7813,1160.9043 Q1926.2813,1161.4824 1925.4844,1161.8105 Q1924.4063,1162.2637 1923.1094,1162.2637 Q1921.5938,1162.2637 1920.3906,1161.6387 Q1919.4063,1161.1387 1918.7188,1160.0762 Q1918.0313,1158.998 1918.0313,1157.7168 L1918.0313,1156.5605 Q1918.0313,1155.2324 1918.6406,1154.0918 Q1919.2656,1152.9355 1920.3594,1152.3262 Q1921.4531,1151.7012 1922.6875,1151.7012 Q1923.4219,1151.7012 1924.0625,1151.873 Q1924.7188,1152.0293 1925.2656,1152.3887 Z " fill="#000000"/><text fill="#000000" font-family="sans-serif" font-size="14" lengthAdjust="spacing" textLength="77" x="1936.5" y="1162.3105">UserDomain</text><line style="stroke:#181818;stroke-width:0.5;" x1="1908.5" x2="2015.5" y1="1172.5137" y2="1172.5137"/><line style="stroke:#181818;stroke-width:0.5;" x1="1908.5" x2="2015.5" y1="1180.5137" y2="1180.5137"/></g><!--link JobApplication to Curriculum--><g id="link_JobApplication_Curriculum"><path codeLine="136" d="M1382.92,1026.2937 C1353.97,1058.6137 1317.9328,1098.834 1291.5228,1128.324 " fill="none" id="JobApplication-to-Curriculum" style="stroke:#181818;stroke-width:1.0;"/><polygon fill="#181818" points="1287.52,1132.7937,1296.504,1128.7578,1290.8557,1129.069,1290.5445,1123.4207,1287.52,1132.7937" style="stroke:#181818;stroke-width:1.0;"/><text fill="#000000" font-family="sans-serif" font-size="13" lengthAdjust="spacing" textLength="48" x="1355" y="1071.042">includes</text><text fill="#000000" font-family="sans-serif" font-size="13" lengthAdjust="spacing" textLength="7" x="1369.8593" y="1047.9773">1</text><text fill="#000000" font-family="sans-serif" font-size="13" lengthAdjust="spacing" textLength="7" x="1285.4741" y="1121.5317">1</text></g><!--link JobApplication to Grade2--><g id="link_JobApplication_Grade2"><path codeLine="137" d="M1419,1026.2937 C1419,1055.3437 1419,1088.3837 1419,1117.3937 " fill="none" id="JobApplication-to-Grade2" style="stroke:#181818;stroke-width:1.0;"/><polygon fill="#181818" points="1419,1123.3937,1423,1114.3937,1419,1118.3937,1415,1114.3937,1419,1123.3937" style="stroke:#181818;stroke-width:1.0;"/><text fill="#000000" font-family="sans-serif" font-size="13" lengthAdjust="spacing" textLength="48" x="1420" y="1071.042">includes</text><text fill="#000000" font-family="sans-serif" font-size="13" lengthAdjust="spacing" textLength="22" x="1395.1781" y="1112.2391">0..1</text></g><!--link JobApplication to Status--><g id="link_JobApplication_Status"><path codeLine="138" d="M1357.26,1013.1137 C1308.04,1035.5837 1238,1069.4737 1180,1105.0137 C1166.32,1113.3937 1156.8414,1119.9055 1144.2314,1129.3555 " fill="none" id="JobApplication-to-Status" style="stroke:#181818;stroke-width:1.0;"/><polygon fill="#181818" points="1139.43,1132.9537,1149.0308,1130.7573,1143.4311,1129.9552,1144.2333,1124.3555,1139.43,1132.9537" style="stroke:#181818;stroke-width:1.0;"/><text fill="#000000" font-family="sans-serif" font-size="13" lengthAdjust="spacing" textLength="21" x="1265" y="1071.042">has</text><text fill="#000000" font-family="sans-serif" font-size="13" lengthAdjust="spacing" textLength="7" x="1342.3089" y="1012.5568">1</text><text fill="#000000" font-family="sans-serif" font-size="13" lengthAdjust="spacing" textLength="7" x="1139.6343" y="1121.7247">1</text></g><!--link JobApplication to Candidate--><g id="link_JobApplication_Candidate"><path codeLine="139" d="M1446.86,943.8737 C1464.97,920.9737 1490.8,894.6037 1521,882.0137 C1585.4,855.1537 1614.55,852.9837 1678,882.0137 C1705.94,894.7937 1725.0977,916.1775 1740.4977,939.0375 " fill="none" id="JobApplication-to-Candidate" style="stroke:#181818;stroke-width:1.0;"/><polygon fill="#181818" points="1743.85,944.0137,1742.139,934.3146,1741.0564,939.8669,1735.5041,938.7843,1743.85,944.0137" style="stroke:#181818;stroke-width:1.0;"/><text fill="#000000" font-family="sans-serif" font-size="13" lengthAdjust="spacing" textLength="47" x="1515.5" y="866.042">refers to</text><text fill="#000000" font-family="sans-serif" font-size="13" lengthAdjust="spacing" textLength="7" x="1443.8946" y="932.7158">1</text><text fill="#000000" font-family="sans-serif" font-size="13" lengthAdjust="spacing" textLength="7" x="1732.4361" y="932.879">1</text></g><!--link JobApplication to Candidate--><g id="link_JobApplication_Candidate"><path codeLine="148" d="M1446.86,943.8737 C1464.97,920.9737 1490.8,894.6037 1521,882.0137 C1585.4,855.1537 1614.55,852.9837 1678,882.0137 C1705.94,894.7937 1725.0977,916.1775 1740.4977,939.0375 " fill="none" id="JobApplication-to-Candidate-1" style="stroke:#181818;stroke-width:1.0;"/><polygon fill="#181818" points="1743.85,944.0137,1742.139,934.3146,1741.0564,939.8669,1735.5041,938.7843,1743.85,944.0137" style="stroke:#181818;stroke-width:1.0;"/><text fill="#000000" font-family="sans-serif" font-size="13" lengthAdjust="spacing" textLength="47" x="1515.5" y="866.042">refers to</text><text fill="#000000" font-family="sans-serif" font-size="13" lengthAdjust="spacing" textLength="7" x="1452.054" y="932.7158">1</text><text fill="#000000" font-family="sans-serif" font-size="13" lengthAdjust="spacing" textLength="7" x="1740.5955" y="932.879">1</text></g><!--reverse link JobOpening to JobApplication--><g id="link_JobOpening_JobApplication"><path codeLine="141" d="M662.9803,795.5704 C739.2803,814.1104 876.9,847.6537 999,878.0137 C1126.53,909.7237 1275.66,947.5337 1357.47,968.3437 " fill="none" id="JobOpening-backto-JobApplication" style="stroke:#181818;stroke-width:1.0;"/><polygon fill="#181818" points="657.15,794.1537,664.9511,800.1656,662.0086,795.3343,666.84,792.3918,657.15,794.1537" style="stroke:#181818;stroke-width:1.0;"/><text fill="#000000" font-family="sans-serif" font-size="13" lengthAdjust="spacing" textLength="47" x="958" y="866.042">refers to</text><text fill="#000000" font-family="sans-serif" font-size="13" lengthAdjust="spacing" textLength="7" x="664.8967" y="791.9686">1</text><text fill="#000000" font-family="sans-serif" font-size="13" lengthAdjust="spacing" textLength="5" x="1344.6663" y="962.3305">*</text></g><!--link Candidate to EMail--><g id="link_Candidate_EMail"><path codeLine="145" d="M1729.12,1026.0637 C1722.31,1035.2837 1716.08,1045.4937 1712,1056.0137 C1703.74,1077.3037 1701.5544,1096.7137 1701.5044,1117.4837 " fill="none" id="Candidate-to-EMail" style="stroke:#181818;stroke-width:1.0;"/><polygon fill="#181818" points="1701.49,1123.4837,1705.5117,1114.4933,1701.502,1118.4837,1697.5117,1114.4741,1701.49,1123.4837" style="stroke:#181818;stroke-width:1.0;"/><text fill="#000000" font-family="sans-serif" font-size="13" lengthAdjust="spacing" textLength="69" x="1713" y="1071.042">identified by</text><text fill="#000000" font-family="sans-serif" font-size="13" lengthAdjust="spacing" textLength="7" x="1715.5251" y="1048.0231">1</text><text fill="#000000" font-family="sans-serif" font-size="13" lengthAdjust="spacing" textLength="7" x="1693.4946" y="1112.344">1</text></g><!--reverse link PhoneNumber to Candidate--><g id="link_PhoneNumber_Candidate"><path codeLine="146" d="M1667.08,985.0137 C1685.96,985.0137 1700.43,985.0137 1718.3,985.0137 " fill="none" id="PhoneNumber-backto-Candidate" style="stroke:#181818;stroke-width:1.0;"/><polygon fill="#181818" points="1661.08,985.0137,1670.08,989.0137,1666.08,985.0137,1670.08,981.0137,1661.08,985.0137" style="stroke:#181818;stroke-width:1.0;"/><text fill="#000000" font-family="sans-serif" font-size="13" lengthAdjust="spacing" textLength="21" x="1679.25" y="978.042">has</text><text fill="#000000" font-family="sans-serif" font-size="13" lengthAdjust="spacing" textLength="7" x="1669.0726" y="981.0321">1</text><text fill="#000000" font-family="sans-serif" font-size="13" lengthAdjust="spacing" textLength="7" x="1703.6331" y="980.825">1</text></g><!--link Candidate to Name--><g id="link_Candidate_Name"><path codeLine="147" d="M1782.88,1026.2937 C1794.14,1054.8337 1806.9994,1087.4318 1818.3694,1116.2718 " fill="none" id="Candidate-to-Name" style="stroke:#181818;stroke-width:1.0;"/><polygon fill="#181818" points="1820.57,1121.8537,1820.9903,1112.0138,1818.7362,1117.2021,1813.5478,1114.9479,1820.57,1121.8537" style="stroke:#181818;stroke-width:1.0;"/><text fill="#000000" font-family="sans-serif" font-size="13" lengthAdjust="spacing" textLength="21" x="1803" y="1071.042">has</text><text fill="#000000" font-family="sans-serif" font-size="13" lengthAdjust="spacing" textLength="7" x="1777.7757" y="1047.9773">1</text><text fill="#000000" font-family="sans-serif" font-size="13" lengthAdjust="spacing" textLength="7" x="1810.3937" y="1110.7323">1</text></g><!--link Candidate to UserDomain--><g id="link_Candidate_UserDomain"><path codeLine="150" d="M1811.25,1026.2937 C1850.02,1061.5837 1900.5535,1107.5742 1932.2835,1136.4642 " fill="none" id="Candidate-to-UserDomain" style="stroke:#181818;stroke-width:1.0;stroke-dasharray:7.0,7.0;"/><polygon fill="#181818" points="1936.72,1140.5037,1932.7582,1131.4868,1933.0229,1137.1375,1927.3722,1137.4022,1936.72,1140.5037" style="stroke:#181818;stroke-width:1.0;"/><text fill="#000000" font-family="sans-serif" font-size="13" lengthAdjust="spacing" textLength="7" x="1810.4898" y="1047.9773">1</text><text fill="#000000" font-family="sans-serif" font-size="13" lengthAdjust="spacing" textLength="7" x="1922.3451" y="1129.2386">1</text></g><!--link Customer to EMail1--><g id="link_Customer_EMail1"><path codeLine="152" d="M1350,381.1837 C1350,428.8237 1350,501.1837 1350,544.2537 " fill="none" id="Customer-to-EMail1" style="stroke:#181818;stroke-width:1.0;"/><polygon fill="#181818" points="1350,550.2537,1354,541.2537,1350,545.2537,1346,541.2537,1350,550.2537" style="stroke:#181818;stroke-width:1.0;"/><text fill="#000000" font-family="sans-serif" font-size="13" lengthAdjust="spacing" textLength="39" x="1351" y="426.042">has an</text><text fill="#000000" font-family="sans-serif" font-size="13" lengthAdjust="spacing" textLength="7" x="1342.4641" y="402.8505">1</text><text fill="#000000" font-family="sans-serif" font-size="13" lengthAdjust="spacing" textLength="7" x="1342.3109" y="539.3606">1</text></g><!--reverse link Address2 to Customer--><g id="link_Address2_Customer"><path codeLine="154" d="M1350,226.1937 C1350,253.0837 1350,276.1637 1350,298.8237 " fill="none" id="Address2-backto-Customer" style="stroke:#181818;stroke-width:1.0;"/><polygon fill="#181818" points="1350,220.1937,1346,229.1937,1350,225.1937,1354,229.1937,1350,220.1937" style="stroke:#181818;stroke-width:1.0;"/><text fill="#000000" font-family="sans-serif" font-size="13" lengthAdjust="spacing" textLength="39" x="1351" y="265.042">has an</text></g><!--link Customer to Code--><g id="link_Customer_Code"><path codeLine="156" d="M1385.47,381.3337 C1399.7,398.3137 1415.82,418.6137 1429,438.0137 C1454.18,475.0737 1475.9313,515.3201 1491.0413,544.9101 " fill="none" id="Customer-to-Code" style="stroke:#181818;stroke-width:1.0;"/><polygon fill="#181818" points="1493.77,550.2537,1493.2394,540.4191,1491.4961,545.8007,1486.1145,544.0574,1493.77,550.2537" style="stroke:#181818;stroke-width:1.0;"/><text fill="#000000" font-family="sans-serif" font-size="13" lengthAdjust="spacing" textLength="69" x="1425" y="426.042">identified by</text></g><!--link Customer to Name1--><g id="link_Customer_Name1"><path codeLine="157" d="M1311.68,381.2437 C1297.24,397.8837 1281.54,417.9637 1270,438.0137 C1251.51,470.1437 1239.1446,504.156 1230.1446,533.586 " fill="none" id="Customer-to-Name1" style="stroke:#181818;stroke-width:1.0;"/><polygon fill="#181818" points="1228.39,539.3237,1234.8471,531.8869,1229.8522,534.5423,1227.1968,529.5474,1228.39,539.3237" style="stroke:#181818;stroke-width:1.0;"/><text fill="#000000" font-family="sans-serif" font-size="13" lengthAdjust="spacing" textLength="21" x="1288" y="426.042">has</text></g><!--link Customer to SystemUser--><g id="link_Customer_SystemUser"><path codeLine="158" d="M1303.33,353.1337 C1260.59,366.6937 1198.83,392.9037 1164,438.0137 C1134.61,476.0737 1114.5646,522.6224 1103.3346,552.2824 " fill="none" id="Customer-to-SystemUser" style="stroke:#181818;stroke-width:1.0;"/><polygon fill="#181818" points="1101.21,557.8937,1108.1377,550.8932,1102.9805,553.2176,1100.656,548.0604,1101.21,557.8937" style="stroke:#181818;stroke-width:1.0;"/><text fill="#000000" font-family="sans-serif" font-size="13" lengthAdjust="spacing" textLength="71" x="1189" y="426.042">managed by</text></g><!--reverse link Mode to JobOpening--><g id="link_Mode_JobOpening"><path codeLine="159" d="M726.3583,627.844 C706.5583,652.664 684.29,680.4337 661,709.0137 C653.12,718.6737 644.58,729.0437 636.54,738.7537 " fill="none" id="Mode-backto-JobOpening" style="stroke:#181818;stroke-width:1.0;"/><polygon fill="#181818" points="730.1,623.1537,721.3605,627.6948,726.9819,627.0623,727.6143,632.6837,730.1,623.1537" style="stroke:#181818;stroke-width:1.0;"/><text fill="#000000" font-family="sans-serif" font-size="13" lengthAdjust="spacing" textLength="48" x="676" y="705.042">includes</text><text fill="#000000" font-family="sans-serif" font-size="13" lengthAdjust="spacing" textLength="7" x="717.6794" y="644.8159">1</text><text fill="#000000" font-family="sans-serif" font-size="13" lengthAdjust="spacing" textLength="7" x="634.3276" y="727.8856">1</text></g><!--reverse link JobFunction to JobOpening--><g id="link_JobFunction_JobOpening"><path codeLine="160" d="M603,629.1537 C603,662.9737 603,705.1237 603,738.9337 " fill="none" id="JobFunction-backto-JobOpening" style="stroke:#181818;stroke-width:1.0;"/><polygon fill="#181818" points="603,623.1537,599,632.1537,603,628.1537,607,632.1537,603,623.1537" style="stroke:#181818;stroke-width:1.0;"/><text fill="#000000" font-family="sans-serif" font-size="13" lengthAdjust="spacing" textLength="48" x="604" y="705.042">includes</text><text fill="#000000" font-family="sans-serif" font-size="13" lengthAdjust="spacing" textLength="7" x="595.4641" y="644.8159">1</text><text fill="#000000" font-family="sans-serif" font-size="13" lengthAdjust="spacing" textLength="7" x="595.4203" y="727.7857">1</text></g><!--reverse link NumberOfVacancies to JobOpening--><g id="link_NumberOfVacancies_JobOpening"><path codeLine="161" d="M455.1785,618.0528 C486.1285,651.7528 531.94,701.6437 566.03,738.7537 " fill="none" id="NumberOfVacancies-backto-JobOpening" style="stroke:#181818;stroke-width:1.0;"/><polygon fill="#181818" points="451.12,613.6337,454.2617,622.968,454.5021,617.3163,460.1538,617.5567,451.12,613.6337" style="stroke:#181818;stroke-width:1.0;"/><text fill="#000000" font-family="sans-serif" font-size="13" lengthAdjust="spacing" textLength="48" x="536" y="705.042">includes</text><text fill="#000000" font-family="sans-serif" font-size="13" lengthAdjust="spacing" textLength="7" x="449.1979" y="635.9418">1</text><text fill="#000000" font-family="sans-serif" font-size="13" lengthAdjust="spacing" textLength="7" x="552.5801" y="727.8856">1</text></g><!--reverse link Description to JobOpening--><g id="link_Description_JobOpening"><path codeLine="162" d="M283.4474,627.5215 C296.3974,640.3815 307.4,649.7037 323,660.0137 C395.37,707.8537 490.14,743.2937 548.77,762.5537 " fill="none" id="Description-backto-JobOpening" style="stroke:#181818;stroke-width:1.0;"/><polygon fill="#181818" points="279.19,623.2937,282.7576,632.4737,282.7378,626.8169,288.3947,626.7971,279.19,623.2937" style="stroke:#181818;stroke-width:1.0;"/><text fill="#000000" font-family="sans-serif" font-size="13" lengthAdjust="spacing" textLength="48" x="412" y="705.042">includes</text><text fill="#000000" font-family="sans-serif" font-size="13" lengthAdjust="spacing" textLength="7" x="277.1957" y="644.9773">1</text><text fill="#000000" font-family="sans-serif" font-size="13" lengthAdjust="spacing" textLength="7" x="534.0125" y="756.1224">1</text></g><!--reverse link Address1 to JobOpening--><g id="link_Address1_JobOpening"><path codeLine="163" d="M150.837,652.1103 C156.327,656.3303 157.23,656.5937 163,660.0137 C288.78,734.5337 462.18,763.4737 548.95,773.8137 " fill="none" id="Address1-backto-JobOpening" style="stroke:#181818;stroke-width:1.0;"/><polygon fill="#181818" points="146.08,648.4537,150.7778,657.1099,150.0442,651.5008,155.6533,650.7672,146.08,648.4537" style="stroke:#181818;stroke-width:1.0;"/><text fill="#000000" font-family="sans-serif" font-size="13" lengthAdjust="spacing" textLength="48" x="265" y="705.042">includes</text><text fill="#000000" font-family="sans-serif" font-size="13" lengthAdjust="spacing" textLength="7" x="154.0726" y="652.54">1</text><text fill="#000000" font-family="sans-serif" font-size="13" lengthAdjust="spacing" textLength="7" x="533.857" y="768.8049">1</text></g><!--reverse link ContractType to JobOpening--><g id="link_ContractType_JobOpening"><path codeLine="164" d="M889.0794,618.1271 C874.4794,633.2271 859.89,646.6637 841,660.0137 C782.33,701.4537 707.12,736.4637 657.11,757.5537 " fill="none" id="ContractType-backto-JobOpening" style="stroke:#181818;stroke-width:1.0;"/><polygon fill="#181818" points="893.25,613.8137,884.1184,617.5034,889.7745,617.4082,889.8697,623.0643,893.25,613.8137" style="stroke:#181818;stroke-width:1.0;"/><text fill="#000000" font-family="sans-serif" font-size="13" lengthAdjust="spacing" textLength="48" x="793" y="705.042">includes</text><text fill="#000000" font-family="sans-serif" font-size="13" lengthAdjust="spacing" textLength="7" x="880.0977" y="635.7809">1</text><text fill="#000000" font-family="sans-serif" font-size="13" lengthAdjust="spacing" textLength="7" x="664.8513" y="750.4505">1</text></g><!--link JobOpening to JobReference--><g id="link_JobOpening_JobReference"><path codeLine="165" d="M657.34,794.1537 C708.54,808.4937 785.47,835.3037 841,878.0137 C864.21,895.8637 880.8271,917.052 894.9571,938.952 " fill="none" id="JobOpening-to-JobReference" style="stroke:#181818;stroke-width:1.0;"/><polygon fill="#181818" points="898.21,943.9937,896.6917,934.2625,895.4992,939.7923,889.9695,938.5998,898.21,943.9937" style="stroke:#181818;stroke-width:1.0;"/><text fill="#000000" font-family="sans-serif" font-size="13" lengthAdjust="spacing" textLength="48" x="831" y="866.042">includes</text><text fill="#000000" font-family="sans-serif" font-size="13" lengthAdjust="spacing" textLength="7" x="665.1123" y="811.253">1</text><text fill="#000000" font-family="sans-serif" font-size="13" lengthAdjust="spacing" textLength="7" x="886.8557" y="932.8557">1</text></g><!--reverse link Customer to JobOpening--><g id="link_Customer_JobOpening"><path codeLine="166" d="M1402.6664,345.7835 C1458.9464,353.3535 1545.31,374.5137 1588,438.0137 C1643.05,519.8937 1653.45,586.1837 1588,660.0137 C1525.69,730.3037 854.46,767.2037 657.21,776.5837 " fill="none" id="Customer-backto-JobOpening" style="stroke:#181818;stroke-width:1.0;"/><polygon fill="#181818" points="1396.72,344.9837,1405.1065,350.1477,1401.6754,345.6502,1406.1729,342.2191,1396.72,344.9837" style="stroke:#181818;stroke-width:1.0;"/><text fill="#000000" font-family="sans-serif" font-size="13" lengthAdjust="spacing" textLength="48" x="1635" y="587.542">includes</text><text fill="#000000" font-family="sans-serif" font-size="13" lengthAdjust="spacing" textLength="7" x="1404.4099" y="341.5042">1</text><text fill="#000000" font-family="sans-serif" font-size="13" lengthAdjust="spacing" textLength="7" x="664.9648" y="772.0376">1</text></g><!--link JobOpening to SetupStatus--><g id="link_JobOpening_SetupStatus"><path codeLine="167" d="M595.89,821.1237 C589,859.9437 579.7577,912.0558 573.4977,947.3558 " fill="none" id="JobOpening-to-SetupStatus" style="stroke:#181818;stroke-width:1.0;"/><polygon fill="#181818" points="572.45,953.2637,577.9601,945.1004,573.3231,948.3405,570.083,943.7035,572.45,953.2637" style="stroke:#181818;stroke-width:1.0;"/></g><!--link JobOpening to RequirementsStatus--><g id="link_JobOpening_RequirementsStatus"><path codeLine="168" d="M630.86,821.1237 C657.82,859.9437 694.697,913.0359 719.217,948.3359 " fill="none" id="JobOpening-to-RequirementsStatus" style="stroke:#181818;stroke-width:1.0;"/><polygon fill="#181818" points="722.64,953.2637,720.7908,943.59,719.7875,949.1572,714.2204,948.1539,722.64,953.2637" style="stroke:#181818;stroke-width:1.0;"/></g><!--link JobOpening to InterviewPhaseStatus--><g id="link_JobOpening_InterviewPhaseStatus"><path codeLine="169" d="M552.55,821.1137 C531.79,838.1437 507.78,858.5337 487,878.0137 C461.03,902.3537 437.3116,927.3482 417.4816,949.0082 " fill="none" id="JobOpening-to-InterviewPhaseStatus" style="stroke:#181818;stroke-width:1.0;"/><polygon fill="#181818" points="413.43,953.4337,422.4577,949.4965,416.8063,949.7458,416.557,944.0944,413.43,953.4337" style="stroke:#181818;stroke-width:1.0;"/></g><!--reverse link RecruitmentProcess to Phase--><g id="link_RecruitmentProcess_Phase"><path codeLine="170" d="M188,1038.2937 C188,1061.5137 188,1079.1137 188,1104.8737 " fill="none" id="RecruitmentProcess-backto-Phase" style="stroke:#181818;stroke-width:1.0;"/><polygon fill="#181818" points="188,1026.2937,184,1032.2937,188,1038.2937,192,1032.2937,188,1026.2937" style="stroke:#181818;stroke-width:1.0;"/><text fill="#000000" font-family="sans-serif" font-size="13" lengthAdjust="spacing" textLength="36" x="189" y="1071.042">part of</text><text fill="#000000" font-family="sans-serif" font-size="13" lengthAdjust="spacing" textLength="7" x="180.4641" y="1047.9773">1</text><text fill="#000000" font-family="sans-serif" font-size="13" lengthAdjust="spacing" textLength="22" x="164.6594" y="1093.6087">4..5</text></g><!--link JobOpening to RecruitmentProcess--><g id="link_JobOpening_RecruitmentProcess"><path codeLine="171" d="M548.71,788.5737 C482.32,799.7537 368.47,825.3437 285,878.0137 C258,895.0537 237.4603,916.8384 219.9603,939.0784 " fill="none" id="JobOpening-to-RecruitmentProcess" style="stroke:#181818;stroke-width:1.0;"/><polygon fill="#181818" points="216.25,943.7937,224.959,939.1943,219.3419,939.8643,218.6719,934.2472,216.25,943.7937" style="stroke:#181818;stroke-width:1.0;"/><text fill="#000000" font-family="sans-serif" font-size="13" lengthAdjust="spacing" textLength="48" x="334" y="866.042">includes</text><text fill="#000000" font-family="sans-serif" font-size="13" lengthAdjust="spacing" textLength="7" x="533.9445" y="785.6388">1</text><text fill="#000000" font-family="sans-serif" font-size="13" lengthAdjust="spacing" textLength="7" x="213.3492" y="932.6225">1</text></g><!--SRC=[dLRDRjim3BxxAGHV1XI8knJR9HW656stTK1_q6ux3BqeCfDgisLFbZS4GPueZx1RdcoKR5cI4oVfV4WaYlp4Fv5yzQnKMKrEJykC2bNdMSAA_9HbjAf6AQTpIVC8lvAodtGE9BweArNa8CdvV2vXJXN4ouZWPqH8l5c3K5mjDd-Vn6OjYqBfbPMA2Qs8tImZ8xYAeaRsSL4foBzM-cGL-Q2tD0SZgXTZqboelncNbTB4Ze82Zh1go9rglsbM0occFu0PjQv6DvHd1lbAhyOjSdlxiE1vcageAYFPhi-SLlfxL1901QGBT4kF1zqNiXIrK3Ba-ivBLgHmf6ONoDfu6HVEd9KNmi_5bDoL8BYO1r4S2kC3C5bpbIFbNXRCshrDTXxuHAjheK3-vl3d_fbMDXmzvTqTXid0cfNdonGg9dcfU24SSGfpBYu3xysue5b3qlSCEYZKIuUWRkpPTR3qqgX3j4djz2TF0ftQ-jI0kItwrJT-KAz7K7NfgUFjoV8eX0VuLNC9EY2L1qIswHtUuMp2TAHCVLcKDgiS8NmiWnWtDYDlN4RkYEiX6FJeXrempMyzRFTxikKGAhcjyod8kzatogXW75gVRP6NnqNnqjrlWBpzVYsZbzQRiSFhrPgWpeGrfbzV_DfooBJDcgSwuMSSP1kG1vY11C70HgGZT1cs2fe75IbFKQ7Xxh7zk30BhLYJWdRNXKJ_YW9HTHtFiOvtB44XTTzrQuWSO02H6i1ek0kzf0djz-lzSo6WoRUs07RxvexI4QAZUa2_hRMgWdRDK4SuBykCCwfJycN12MLj8dYa84p3vS-hVBjgr729ggNahCxgl1qkx7PvtDFQh1dDK03DJVN-ewHjlJAhisMRn3qxn_5ez1v_lGl9X731iXfVTu-R82-9NoS9yZUeUtWTT5lz9mGRqWukea6r1jshcaZz_YgY2gElRVB8z6uqYa_YNcGGsHC8NqvYCYUA7BZJonoHILSEKZ9TH5xQDXVsLDCsk8UijM_LDw_f_smCb4iIevoU7oyBj4NWkHrMUxgFc_i8HHuxlX5qKJUQUkSTIUkhXoeTki3oWAEPK1jpWWCttU9fJWK-F2Ejkw8nKT-F_rxSmXontUumyrRpEYpYzQd3pBO37MJqfmKBg_y6RVGojesNtrG2Q2-qY7eSh8c3cwlwHzk3KfzZrumORG_2njOJLEfDahoDcv6MJ4eg5IbcFJljEzY1Ch4s_0C0]--></g></svg>