<?xml version="1.0" encoding="us-ascii" standalone="no"?><svg xmlns="http://www.w3.org/2000/svg" xmlns:xlink="http://www.w3.org/1999/xlink" contentStyleType="text/css" height="1086px" preserveAspectRatio="none" style="width:1192px;height:1086px;background:#FFFFFF;" version="1.1" viewBox="0 0 1192 1086" width="1192px" zoomAndPan="magnify"><defs/><g><text fill="#000000" font-family="sans-serif" font-size="14" font-weight="bold" lengthAdjust="spacing" textLength="1164" x="10" y="30.1074">"US 1020 - Publish the results of the selection of candidates for a job opening, so that candidates and customer are notified by email of the result." Sequence Diagram</text><rect fill="#FFFFFF" height="804.9844" style="stroke:#181818;stroke-width:1.0;" width="10" x="221.75" y="169.4453"/><rect fill="#FFFFFF" height="31.291" style="stroke:#181818;stroke-width:1.0;" width="10" x="702.75" y="526.6465"/><rect fill="#FFFFFF" height="31.291" style="stroke:#181818;stroke-width:1.0;" width="10" x="702.75" y="760.6836"/><rect fill="#FFFFFF" height="31.291" style="stroke:#181818;stroke-width:1.0;" width="10" x="966.25" y="205.7363"/><rect fill="#FFFFFF" height="31.291" style="stroke:#181818;stroke-width:1.0;" width="10" x="966.25" y="268.3184"/><rect fill="#FFFFFF" height="31.291" style="stroke:#181818;stroke-width:1.0;" width="10" x="966.25" y="330.9004"/><rect fill="#FFFFFF" height="31.291" style="stroke:#181818;stroke-width:1.0;" width="10" x="966.25" y="393.4824"/><rect fill="#FFFFFF" height="31.291" style="stroke:#181818;stroke-width:1.0;" width="10" x="1063.75" y="633.5195"/><rect fill="#FFFFFF" height="31.291" style="stroke:#181818;stroke-width:1.0;" width="10" x="1063.75" y="867.5566"/><rect fill="none" height="220.0371" style="stroke:#000000;stroke-width:1.5;" width="956" x="165.25" y="484.0645"/><rect fill="none" height="220.0371" style="stroke:#000000;stroke-width:1.5;" width="956" x="165.25" y="718.1016"/><line style="stroke:#181818;stroke-width:0.5;stroke-dasharray:5.0,5.0;" x1="226.25" x2="226.25" y1="96.8633" y2="1030.7207"/><line style="stroke:#181818;stroke-width:0.5;stroke-dasharray:5.0,5.0;" x1="707.25" x2="707.25" y1="96.8633" y2="1030.7207"/><line style="stroke:#181818;stroke-width:0.5;stroke-dasharray:5.0,5.0;" x1="838.25" x2="838.25" y1="96.8633" y2="1030.7207"/><line style="stroke:#181818;stroke-width:0.5;stroke-dasharray:5.0,5.0;" x1="971.25" x2="971.25" y1="96.8633" y2="1030.7207"/><line style="stroke:#181818;stroke-width:0.5;stroke-dasharray:5.0,5.0;" x1="1068.25" x2="1068.25" y1="96.8633" y2="1030.7207"/><rect fill="#E3E3E3" height="51.2422" rx="2.5" ry="2.5" style="stroke:#181818;stroke-width:0.5;" width="103" x="175.25" y="44.6211"/><text fill="#000000" font-family="sans-serif" font-size="14" font-style="italic" lengthAdjust="spacing" textLength="62" x="195.75" y="66.7285">&#171;System&#187;</text><text fill="#000000" font-family="sans-serif" font-size="14" lengthAdjust="spacing" textLength="89" x="182.25" y="85.3496">:ClientHandler</text><rect fill="#E3E3E3" height="51.2422" rx="2.5" ry="2.5" style="stroke:#181818;stroke-width:0.5;" width="103" x="175.25" y="1029.7207"/><text fill="#000000" font-family="sans-serif" font-size="14" font-style="italic" lengthAdjust="spacing" textLength="62" x="195.75" y="1051.8281">&#171;System&#187;</text><text fill="#000000" font-family="sans-serif" font-size="14" lengthAdjust="spacing" textLength="89" x="182.25" y="1070.4492">:ClientHandler</text><rect fill="#E3E3E3" height="51.2422" rx="2.5" ry="2.5" style="stroke:#181818;stroke-width:0.5;" width="87" x="664.25" y="44.6211"/><text fill="#000000" font-family="sans-serif" font-size="14" font-style="italic" lengthAdjust="spacing" textLength="62" x="676.75" y="66.7285">&#171;domain&#187;</text><text fill="#000000" font-family="sans-serif" font-size="14" lengthAdjust="spacing" textLength="73" x="671.25" y="85.3496">:Notification</text><rect fill="#E3E3E3" height="51.2422" rx="2.5" ry="2.5" style="stroke:#181818;stroke-width:0.5;" width="87" x="664.25" y="1029.7207"/><text fill="#000000" font-family="sans-serif" font-size="14" font-style="italic" lengthAdjust="spacing" textLength="62" x="676.75" y="1051.8281">&#171;domain&#187;</text><text fill="#000000" font-family="sans-serif" font-size="14" lengthAdjust="spacing" textLength="73" x="671.25" y="1070.4492">:Notification</text><rect fill="#E3E3E3" height="51.2422" rx="2.5" ry="2.5" style="stroke:#181818;stroke-width:0.5;" width="155" x="761.25" y="44.6211"/><text fill="#000000" font-family="sans-serif" font-size="14" font-style="italic" lengthAdjust="spacing" textLength="79" x="799.25" y="66.7285">&#171;repository&#187;</text><text fill="#000000" font-family="sans-serif" font-size="14" lengthAdjust="spacing" textLength="141" x="768.25" y="85.3496">:NotificationRepository</text><rect fill="#E3E3E3" height="51.2422" rx="2.5" ry="2.5" style="stroke:#181818;stroke-width:0.5;" width="155" x="761.25" y="1029.7207"/><text fill="#000000" font-family="sans-serif" font-size="14" font-style="italic" lengthAdjust="spacing" textLength="79" x="799.25" y="1051.8281">&#171;repository&#187;</text><text fill="#000000" font-family="sans-serif" font-size="14" lengthAdjust="spacing" textLength="141" x="768.25" y="1070.4492">:NotificationRepository</text><rect fill="#E3E3E3" height="51.2422" rx="2.5" ry="2.5" style="stroke:#181818;stroke-width:0.5;" width="90" x="926.25" y="44.6211"/><text fill="#000000" font-family="sans-serif" font-size="14" font-style="italic" lengthAdjust="spacing" textLength="62" x="940.25" y="66.7285">&#171;domain&#187;</text><text fill="#000000" font-family="sans-serif" font-size="14" lengthAdjust="spacing" textLength="76" x="933.25" y="85.3496">:SerializeUtil</text><rect fill="#E3E3E3" height="51.2422" rx="2.5" ry="2.5" style="stroke:#181818;stroke-width:0.5;" width="90" x="926.25" y="1029.7207"/><text fill="#000000" font-family="sans-serif" font-size="14" font-style="italic" lengthAdjust="spacing" textLength="62" x="940.25" y="1051.8281">&#171;domain&#187;</text><text fill="#000000" font-family="sans-serif" font-size="14" lengthAdjust="spacing" textLength="76" x="933.25" y="1070.4492">:SerializeUtil</text><rect fill="#E3E3E3" height="51.2422" rx="2.5" ry="2.5" style="stroke:#181818;stroke-width:0.5;" width="85" x="1026.25" y="44.6211"/><text fill="#000000" font-family="sans-serif" font-size="14" font-style="italic" lengthAdjust="spacing" textLength="62" x="1037.75" y="66.7285">&#171;domain&#187;</text><text fill="#000000" font-family="sans-serif" font-size="14" lengthAdjust="spacing" textLength="71" x="1033.25" y="85.3496">:SendEmail</text><rect fill="#E3E3E3" height="51.2422" rx="2.5" ry="2.5" style="stroke:#181818;stroke-width:0.5;" width="85" x="1026.25" y="1029.7207"/><text fill="#000000" font-family="sans-serif" font-size="14" font-style="italic" lengthAdjust="spacing" textLength="62" x="1037.75" y="1051.8281">&#171;domain&#187;</text><text fill="#000000" font-family="sans-serif" font-size="14" lengthAdjust="spacing" textLength="71" x="1033.25" y="1070.4492">:SendEmail</text><rect fill="#FFFFFF" height="804.9844" style="stroke:#181818;stroke-width:1.0;" width="10" x="221.75" y="169.4453"/><rect fill="#FFFFFF" height="31.291" style="stroke:#181818;stroke-width:1.0;" width="10" x="702.75" y="526.6465"/><rect fill="#FFFFFF" height="31.291" style="stroke:#181818;stroke-width:1.0;" width="10" x="702.75" y="760.6836"/><rect fill="#FFFFFF" height="31.291" style="stroke:#181818;stroke-width:1.0;" width="10" x="966.25" y="205.7363"/><rect fill="#FFFFFF" height="31.291" style="stroke:#181818;stroke-width:1.0;" width="10" x="966.25" y="268.3184"/><rect fill="#FFFFFF" height="31.291" style="stroke:#181818;stroke-width:1.0;" width="10" x="966.25" y="330.9004"/><rect fill="#FFFFFF" height="31.291" style="stroke:#181818;stroke-width:1.0;" width="10" x="966.25" y="393.4824"/><rect fill="#FFFFFF" height="31.291" style="stroke:#181818;stroke-width:1.0;" width="10" x="1063.75" y="633.5195"/><rect fill="#FFFFFF" height="31.291" style="stroke:#181818;stroke-width:1.0;" width="10" x="1063.75" y="867.5566"/><polygon fill="#181818" points="214.75,126.1543,224.75,130.1543,214.75,134.1543,218.75,130.1543" style="stroke:#181818;stroke-width:1.0;"/><line style="stroke:#181818;stroke-width:1.0;" x1="53.75" x2="220.75" y1="130.1543" y2="130.1543"/><text fill="#000000" font-family="sans-serif" font-size="13" font-weight="bold" lengthAdjust="spacing" textLength="7" x="60.75" y="124.8916">1</text><text fill="#000000" font-family="sans-serif" font-size="13" lengthAdjust="spacing" textLength="124" x="71.75" y="124.8916">(tcp) sendPublishReq</text><line style="stroke:#181818;stroke-width:1.0;" x1="226.75" x2="273.75" y1="156.4453" y2="156.4453"/><line style="stroke:#181818;stroke-width:1.0;" x1="273.75" x2="273.75" y1="156.4453" y2="169.4453"/><line style="stroke:#181818;stroke-width:1.0;" x1="232.75" x2="273.75" y1="169.4453" y2="169.4453"/><polygon fill="#181818" points="242.75,165.4453,232.75,169.4453,242.75,173.4453,238.75,169.4453" style="stroke:#181818;stroke-width:1.0;"/><text fill="#000000" font-family="sans-serif" font-size="13" font-weight="bold" lengthAdjust="spacing" textLength="7" x="238.75" y="151.1826">2</text><text fill="#000000" font-family="sans-serif" font-size="13" lengthAdjust="spacing" textLength="211" x="249.75" y="151.1826">sendPublishReq(version, code, data)</text><polygon fill="#181818" points="954.25,201.7363,964.25,205.7363,954.25,209.7363,958.25,205.7363" style="stroke:#181818;stroke-width:1.0;"/><line style="stroke:#181818;stroke-width:1.0;" x1="231.75" x2="960.25" y1="205.7363" y2="205.7363"/><text fill="#000000" font-family="sans-serif" font-size="13" font-weight="bold" lengthAdjust="spacing" textLength="7" x="238.75" y="200.4736">3</text><text fill="#000000" font-family="sans-serif" font-size="13" lengthAdjust="spacing" textLength="153" x="249.75" y="200.4736">deserializeList(data.get(0))</text><polygon fill="#181818" points="242.75,233.0273,232.75,237.0273,242.75,241.0273,238.75,237.0273" style="stroke:#181818;stroke-width:1.0;"/><line style="stroke:#181818;stroke-width:1.0;stroke-dasharray:2.0,2.0;" x1="236.75" x2="970.25" y1="237.0273" y2="237.0273"/><text fill="#000000" font-family="sans-serif" font-size="13" font-weight="bold" lengthAdjust="spacing" textLength="7" x="248.75" y="231.7646">4</text><text fill="#000000" font-family="sans-serif" font-size="13" lengthAdjust="spacing" textLength="62" x="259.75" y="231.7646">publishList</text><polygon fill="#181818" points="954.25,264.3184,964.25,268.3184,954.25,272.3184,958.25,268.3184" style="stroke:#181818;stroke-width:1.0;"/><line style="stroke:#181818;stroke-width:1.0;" x1="231.75" x2="960.25" y1="268.3184" y2="268.3184"/><text fill="#000000" font-family="sans-serif" font-size="13" font-weight="bold" lengthAdjust="spacing" textLength="7" x="238.75" y="263.0557">5</text><text fill="#000000" font-family="sans-serif" font-size="13" lengthAdjust="spacing" textLength="170" x="249.75" y="263.0557">deserializeObject(data.get(1))</text><polygon fill="#181818" points="242.75,295.6094,232.75,299.6094,242.75,303.6094,238.75,299.6094" style="stroke:#181818;stroke-width:1.0;"/><line style="stroke:#181818;stroke-width:1.0;stroke-dasharray:2.0,2.0;" x1="236.75" x2="970.25" y1="299.6094" y2="299.6094"/><text fill="#000000" font-family="sans-serif" font-size="13" font-weight="bold" lengthAdjust="spacing" textLength="7" x="248.75" y="294.3467">6</text><text fill="#000000" font-family="sans-serif" font-size="13" lengthAdjust="spacing" textLength="57" x="259.75" y="294.3467">vacancies</text><polygon fill="#181818" points="954.25,326.9004,964.25,330.9004,954.25,334.9004,958.25,330.9004" style="stroke:#181818;stroke-width:1.0;"/><line style="stroke:#181818;stroke-width:1.0;" x1="231.75" x2="960.25" y1="330.9004" y2="330.9004"/><text fill="#000000" font-family="sans-serif" font-size="13" font-weight="bold" lengthAdjust="spacing" textLength="7" x="238.75" y="325.6377">7</text><text fill="#000000" font-family="sans-serif" font-size="13" lengthAdjust="spacing" textLength="170" x="249.75" y="325.6377">deserializeObject(data.get(2))</text><polygon fill="#181818" points="242.75,358.1914,232.75,362.1914,242.75,366.1914,238.75,362.1914" style="stroke:#181818;stroke-width:1.0;"/><line style="stroke:#181818;stroke-width:1.0;stroke-dasharray:2.0,2.0;" x1="236.75" x2="970.25" y1="362.1914" y2="362.1914"/><text fill="#000000" font-family="sans-serif" font-size="13" font-weight="bold" lengthAdjust="spacing" textLength="7" x="248.75" y="356.9287">8</text><text fill="#000000" font-family="sans-serif" font-size="13" lengthAdjust="spacing" textLength="86" x="259.75" y="356.9287">companyEmail</text><polygon fill="#181818" points="954.25,389.4824,964.25,393.4824,954.25,397.4824,958.25,393.4824" style="stroke:#181818;stroke-width:1.0;"/><line style="stroke:#181818;stroke-width:1.0;" x1="231.75" x2="960.25" y1="393.4824" y2="393.4824"/><text fill="#000000" font-family="sans-serif" font-size="13" font-weight="bold" lengthAdjust="spacing" textLength="7" x="238.75" y="388.2197">9</text><text fill="#000000" font-family="sans-serif" font-size="13" lengthAdjust="spacing" textLength="170" x="249.75" y="388.2197">deserializeObject(data.get(3))</text><polygon fill="#181818" points="242.75,420.7734,232.75,424.7734,242.75,428.7734,238.75,424.7734" style="stroke:#181818;stroke-width:1.0;"/><line style="stroke:#181818;stroke-width:1.0;stroke-dasharray:2.0,2.0;" x1="236.75" x2="970.25" y1="424.7734" y2="424.7734"/><text fill="#000000" font-family="sans-serif" font-size="13" font-weight="bold" lengthAdjust="spacing" textLength="14" x="248.75" y="419.5107">10</text><text fill="#000000" font-family="sans-serif" font-size="13" lengthAdjust="spacing" textLength="85" x="266.75" y="419.5107">publisherEmail</text><line style="stroke:#181818;stroke-width:1.0;" x1="231.75" x2="273.75" y1="456.0645" y2="456.0645"/><line style="stroke:#181818;stroke-width:1.0;" x1="273.75" x2="273.75" y1="456.0645" y2="469.0645"/><line style="stroke:#181818;stroke-width:1.0;" x1="232.75" x2="273.75" y1="469.0645" y2="469.0645"/><polygon fill="#181818" points="242.75,465.0645,232.75,469.0645,242.75,473.0645,238.75,469.0645" style="stroke:#181818;stroke-width:1.0;"/><text fill="#000000" font-family="sans-serif" font-size="13" font-weight="bold" lengthAdjust="spacing" textLength="14" x="238.75" y="450.8018">11</text><text fill="#000000" font-family="sans-serif" font-size="13" lengthAdjust="spacing" textLength="250" x="256.75" y="450.8018">jobOffer = publishList.get(0).companyName</text><path d="M165.25,484.0645 L238.25,484.0645 L238.25,493.3555 L228.25,503.3555 L165.25,503.3555 L165.25,484.0645 " fill="#EEEEEE" style="stroke:#000000;stroke-width:1.5;"/><rect fill="none" height="220.0371" style="stroke:#000000;stroke-width:1.5;" width="956" x="165.25" y="484.0645"/><text fill="#000000" font-family="sans-serif" font-size="13" font-weight="bold" lengthAdjust="spacing" textLength="28" x="180.25" y="499.0928">loop</text><text fill="#000000" font-family="sans-serif" font-size="11" font-weight="bold" lengthAdjust="spacing" textLength="257" x="253.25" y="497.9346">[for each JobApplicationDTO job in publishList]</text><polygon fill="#181818" points="690.75,522.6465,700.75,526.6465,690.75,530.6465,694.75,526.6465" style="stroke:#181818;stroke-width:1.0;"/><line style="stroke:#181818;stroke-width:1.0;" x1="231.75" x2="696.75" y1="526.6465" y2="526.6465"/><text fill="#000000" font-family="sans-serif" font-size="13" font-weight="bold" lengthAdjust="spacing" textLength="14" x="238.75" y="521.3838">12</text><text fill="#000000" font-family="sans-serif" font-size="13" lengthAdjust="spacing" textLength="306" x="256.75" y="521.3838">new Notification(publisherEmail,job.candidateEmail())</text><polygon fill="#181818" points="242.75,553.9375,232.75,557.9375,242.75,561.9375,238.75,557.9375" style="stroke:#181818;stroke-width:1.0;"/><line style="stroke:#181818;stroke-width:1.0;stroke-dasharray:2.0,2.0;" x1="236.75" x2="706.75" y1="557.9375" y2="557.9375"/><text fill="#000000" font-family="sans-serif" font-size="13" font-weight="bold" lengthAdjust="spacing" textLength="14" x="248.75" y="552.6748">13</text><text fill="#000000" font-family="sans-serif" font-size="13" lengthAdjust="spacing" textLength="41" x="266.75" y="552.6748">publish</text><line style="stroke:#181818;stroke-width:1.0;" x1="231.75" x2="273.75" y1="589.2285" y2="589.2285"/><line style="stroke:#181818;stroke-width:1.0;" x1="273.75" x2="273.75" y1="589.2285" y2="602.2285"/><line style="stroke:#181818;stroke-width:1.0;" x1="232.75" x2="273.75" y1="602.2285" y2="602.2285"/><polygon fill="#181818" points="242.75,598.2285,232.75,602.2285,242.75,606.2285,238.75,602.2285" style="stroke:#181818;stroke-width:1.0;"/><text fill="#000000" font-family="sans-serif" font-size="13" font-weight="bold" lengthAdjust="spacing" textLength="14" x="238.75" y="583.9658">14</text><text fill="#000000" font-family="sans-serif" font-size="13" lengthAdjust="spacing" textLength="439" x="256.75" y="583.9658">publish.approvadeCandidate(job.candidateName(),jobOffer,placed,vacancies)</text><polygon fill="#181818" points="1051.75,629.5195,1061.75,633.5195,1051.75,637.5195,1055.75,633.5195" style="stroke:#181818;stroke-width:1.0;"/><line style="stroke:#181818;stroke-width:1.0;" x1="231.75" x2="1057.75" y1="633.5195" y2="633.5195"/><text fill="#000000" font-family="sans-serif" font-size="13" font-weight="bold" lengthAdjust="spacing" textLength="14" x="238.75" y="628.2568">15</text><text fill="#000000" font-family="sans-serif" font-size="13" lengthAdjust="spacing" textLength="579" x="256.75" y="628.2568">sendEmail(publish.senderEmail().toString(), publish.receiverEmail().toString(), publish.emailFormat())</text><polygon fill="#181818" points="242.75,660.8105,232.75,664.8105,242.75,668.8105,238.75,664.8105" style="stroke:#181818;stroke-width:1.0;"/><line style="stroke:#181818;stroke-width:1.0;stroke-dasharray:2.0,2.0;" x1="236.75" x2="1067.75" y1="664.8105" y2="664.8105"/><text fill="#000000" font-family="sans-serif" font-size="13" font-weight="bold" lengthAdjust="spacing" textLength="14" x="248.75" y="659.5479">16</text><text fill="#000000" font-family="sans-serif" font-size="13" lengthAdjust="spacing" textLength="49" x="266.75" y="659.5479">success</text><polygon fill="#181818" points="826.75,692.1016,836.75,696.1016,826.75,700.1016,830.75,696.1016" style="stroke:#181818;stroke-width:1.0;"/><line style="stroke:#181818;stroke-width:1.0;" x1="231.75" x2="832.75" y1="696.1016" y2="696.1016"/><text fill="#000000" font-family="sans-serif" font-size="13" font-weight="bold" lengthAdjust="spacing" textLength="14" x="238.75" y="690.8389">17</text><text fill="#000000" font-family="sans-serif" font-size="13" lengthAdjust="spacing" textLength="75" x="256.75" y="690.8389">save(publish)</text><path d="M165.25,718.1016 L226.25,718.1016 L226.25,727.3926 L216.25,737.3926 L165.25,737.3926 L165.25,718.1016 " fill="#EEEEEE" style="stroke:#000000;stroke-width:1.5;"/><rect fill="none" height="220.0371" style="stroke:#000000;stroke-width:1.5;" width="956" x="165.25" y="718.1016"/><text fill="#000000" font-family="sans-serif" font-size="13" font-weight="bold" lengthAdjust="spacing" textLength="16" x="180.25" y="733.1299">alt</text><text fill="#000000" font-family="sans-serif" font-size="11" font-weight="bold" lengthAdjust="spacing" textLength="96" x="241.25" y="731.9717">[success == true]</text><polygon fill="#181818" points="690.75,756.6836,700.75,760.6836,690.75,764.6836,694.75,760.6836" style="stroke:#181818;stroke-width:1.0;"/><line style="stroke:#181818;stroke-width:1.0;" x1="231.75" x2="696.75" y1="760.6836" y2="760.6836"/><text fill="#000000" font-family="sans-serif" font-size="13" font-weight="bold" lengthAdjust="spacing" textLength="14" x="238.75" y="755.4209">18</text><text fill="#000000" font-family="sans-serif" font-size="13" lengthAdjust="spacing" textLength="278" x="256.75" y="755.4209">new Notification(publisherEmail, companyEmail)</text><polygon fill="#181818" points="242.75,787.9746,232.75,791.9746,242.75,795.9746,238.75,791.9746" style="stroke:#181818;stroke-width:1.0;"/><line style="stroke:#181818;stroke-width:1.0;stroke-dasharray:2.0,2.0;" x1="236.75" x2="706.75" y1="791.9746" y2="791.9746"/><text fill="#000000" font-family="sans-serif" font-size="13" font-weight="bold" lengthAdjust="spacing" textLength="14" x="248.75" y="786.7119">19</text><text fill="#000000" font-family="sans-serif" font-size="13" lengthAdjust="spacing" textLength="87" x="266.75" y="786.7119">customerNotify</text><line style="stroke:#181818;stroke-width:1.0;" x1="231.75" x2="273.75" y1="823.2656" y2="823.2656"/><line style="stroke:#181818;stroke-width:1.0;" x1="273.75" x2="273.75" y1="823.2656" y2="836.2656"/><line style="stroke:#181818;stroke-width:1.0;" x1="232.75" x2="273.75" y1="836.2656" y2="836.2656"/><polygon fill="#181818" points="242.75,832.2656,232.75,836.2656,242.75,840.2656,238.75,836.2656" style="stroke:#181818;stroke-width:1.0;"/><text fill="#000000" font-family="sans-serif" font-size="13" font-weight="bold" lengthAdjust="spacing" textLength="14" x="238.75" y="818.0029">20</text><text fill="#000000" font-family="sans-serif" font-size="13" lengthAdjust="spacing" textLength="352" x="256.75" y="818.0029">customerNotify.customerPublishedInfo(publishList, positions)</text><polygon fill="#181818" points="1051.75,863.5566,1061.75,867.5566,1051.75,871.5566,1055.75,867.5566" style="stroke:#181818;stroke-width:1.0;"/><line style="stroke:#181818;stroke-width:1.0;" x1="231.75" x2="1057.75" y1="867.5566" y2="867.5566"/><text fill="#000000" font-family="sans-serif" font-size="13" font-weight="bold" lengthAdjust="spacing" textLength="14" x="238.75" y="862.2939">21</text><text fill="#000000" font-family="sans-serif" font-size="13" lengthAdjust="spacing" textLength="717" x="256.75" y="862.2939">sendEmail(customerNotify.senderEmail().toString(), customerNotify.receiverEmail().toString(), customerNotify.emailFormat())</text><polygon fill="#181818" points="242.75,894.8477,232.75,898.8477,242.75,902.8477,238.75,898.8477" style="stroke:#181818;stroke-width:1.0;"/><line style="stroke:#181818;stroke-width:1.0;stroke-dasharray:2.0,2.0;" x1="236.75" x2="1067.75" y1="898.8477" y2="898.8477"/><text fill="#000000" font-family="sans-serif" font-size="13" font-weight="bold" lengthAdjust="spacing" textLength="14" x="248.75" y="893.585">22</text><text fill="#000000" font-family="sans-serif" font-size="13" lengthAdjust="spacing" textLength="49" x="266.75" y="893.585">success</text><polygon fill="#181818" points="826.75,926.1387,836.75,930.1387,826.75,934.1387,830.75,930.1387" style="stroke:#181818;stroke-width:1.0;"/><line style="stroke:#181818;stroke-width:1.0;" x1="231.75" x2="832.75" y1="930.1387" y2="930.1387"/><text fill="#000000" font-family="sans-serif" font-size="13" font-weight="bold" lengthAdjust="spacing" textLength="14" x="238.75" y="924.876">23</text><text fill="#000000" font-family="sans-serif" font-size="13" lengthAdjust="spacing" textLength="121" x="256.75" y="924.876">save(customerNotify)</text><line style="stroke:#181818;stroke-width:1.0;" x1="231.75" x2="273.75" y1="973.4297" y2="973.4297"/><line style="stroke:#181818;stroke-width:1.0;" x1="273.75" x2="273.75" y1="973.4297" y2="986.4297"/><line style="stroke:#181818;stroke-width:1.0;" x1="226.75" x2="273.75" y1="986.4297" y2="986.4297"/><polygon fill="#181818" points="236.75,982.4297,226.75,986.4297,236.75,990.4297,232.75,986.4297" style="stroke:#181818;stroke-width:1.0;"/><text fill="#000000" font-family="sans-serif" font-size="13" font-weight="bold" lengthAdjust="spacing" textLength="14" x="238.75" y="968.167">24</text><text fill="#000000" font-family="sans-serif" font-size="13" lengthAdjust="spacing" textLength="335" x="256.75" y="968.167">howMuchJobAppResp(version, code, jobApplicationsData)</text><polygon fill="#181818" points="64.75,1008.7207,54.75,1012.7207,64.75,1016.7207,60.75,1012.7207" style="stroke:#181818;stroke-width:1.0;"/><line style="stroke:#181818;stroke-width:1.0;stroke-dasharray:2.0,2.0;" x1="58.75" x2="225.75" y1="1012.7207" y2="1012.7207"/><text fill="#000000" font-family="sans-serif" font-size="13" font-weight="bold" lengthAdjust="spacing" textLength="14" x="70.75" y="1007.458">25</text><text fill="#000000" font-family="sans-serif" font-size="13" lengthAdjust="spacing" textLength="131" x="88.75" y="1007.458">(tcp) sendPublishResp</text><!--SRC=[hLRBRjim4BppAnQvH0Pi8qblHXAWS5gqHTiKSV81DBMscKYa8b9EtQ_laXBrikK4QNsoo9tPsTLmAVCaLSPpdaAgbHQRNAS8DY-GcNedu-A9ht5XTmb2Zi9ojKxQ0MR3O_qYrHfMF37862-iLaMwn9mnAot1JXuMS7vsSGOJ-5Ki4sasO3UEpHI9DQ1N_j5WGlHIAxSWk8fbp2qQMEaSE3pg9UWC5IKQWz64uBOTHVz05CPI2HIU8oXjvKfY3CiTOCfb4lAKQQSdiC3d0fL0k95yJQKmThgHCL92RPVwDwCVbMYba1bN5avcyqIYibyeLOBv2N135FcMybrUBdR6OdfzpKw5LZRN2OL_byP-qylRKdKPEYzt0tv-V_UTq3pB4YcuAzvHTBF-z8MKkuv42gnpqt-2nvhgSyXXe4VuXNPyBzEywjyTPjf8g_ETXuczPUB8wuTzdgRe7jFZWOq-rt0DFRAtKb2V94_a7tomCWcTQrQ6-xT05Nzopgb0AlQlkevca-jWW1b4LcGZyh2AAulVuJDZrVxakexhHaIqQAYqCGWTunZ8otp4WDCvs9AjApYhYQ1CsQYVGOmcB3Z3HOvYkaORdOr63kX-RRu6MstssZ6fgvf1LWfrl5LmZ4DSRvDuktoaGzw8FFztaLjEOq18DAzAX7T9l6WalgBnY4YXKtBLpjifX1yH-XwT7_xR-yQyhVFOAw_e6gsUnXtprOhMhjeEgamvhLhnawTOCIHQPtxCKwODqFJusCp3c_jRF_kbwhgndziFYXaeV87sp8Yw9Os9QbhV6dufehPrc-RneLdbp3pGfBtcT63xJQbWKvhrkTxo6ET1HjGHvVeIZSQXX-CiuGBZSUtoqQ4KRZILiwMiAIGpVgUgSshrmkOqV8c-baDNEihjyHX_VNxMUSgjwzR-MN196bb-JaxQmz4KGg0n1utVnOQIck5EQBx5K55jSS85ioSs982hg_Bx9Hp8TpYaSrH73T60FmPC4kvClxDhnGuPPi0rNPvfUAnk48o_gfMEMWU3Nfhh6zNL6ELLj_II39kc5tZCExtGmnOwvgEtckcuerwpLLVcg6qknWxTtnlzygCGct98tQ79-bVuOsTycPloHkyEqV9E9_hBoQH-rGU-84p63WB_0W00]--></g></svg>