<?xml version="1.0" encoding="us-ascii" standalone="no"?><svg xmlns="http://www.w3.org/2000/svg" xmlns:xlink="http://www.w3.org/1999/xlink" contentStyleType="text/css" height="700px" preserveAspectRatio="none" style="width:968px;height:700px;background:#FFFFFF;" version="1.1" viewBox="0 0 968 700" width="968px" zoomAndPan="magnify"><defs/><g><text fill="#000000" font-family="sans-serif" font-size="5.6" font-weight="bold" lengthAdjust="spacing" textLength="465.6" x="251.8" y="12.043">"US 1020 - Publish the results of the selection of candidates for a job opening, so that candidates and customer are notified by email of the result." Sequence Diagram</text><rect fill="#FFFFFF" height="609.8828" style="stroke:#181818;stroke-width:0.4000000000000001;" width="4" x="30.6" y="53.2969"/><rect fill="#FFFFFF" height="94.2789" style="stroke:#181818;stroke-width:0.4000000000000001;" width="4" x="221.8" y="62.6133"/><rect fill="#FFFFFF" height="476.8547" style="stroke:#181818;stroke-width:0.4000000000000001;" width="4" x="221.8" y="179.925"/><rect fill="#FFFFFF" height="37.5492" style="stroke:#181818;stroke-width:0.4000000000000001;" width="4" x="446.2" y="106.8266"/><rect fill="#FFFFFF" height="122.9117" style="stroke:#181818;stroke-width:0.4000000000000001;" width="4" x="446.2" y="192.4414"/><rect fill="#FFFFFF" height="37.5492" style="stroke:#181818;stroke-width:0.4000000000000001;" width="4" x="446.2" y="327.8695"/><rect fill="#FFFFFF" height="137.6805" style="stroke:#181818;stroke-width:0.4000000000000001;" width="4" x="446.2" y="426.6844"/><rect fill="#FFFFFF" height="25.0328" style="stroke:#181818;stroke-width:0.4000000000000001;" width="4" x="446.2" y="612.3141"/><rect fill="#FFFFFF" height="97.8789" style="stroke:#181818;stroke-width:0.4000000000000001;" width="4" x="556.2" y="204.9578"/><rect fill="#FFFFFF" height="41.8133" style="stroke:#181818;stroke-width:0.4000000000000001;" width="4" x="558.2" y="245.707"/><rect fill="#FFFFFF" height="12.5164" style="stroke:#181818;stroke-width:0.4000000000000001;" width="4" x="721.6" y="119.343"/><rect fill="#FFFFFF" height="12.5164" style="stroke:#181818;stroke-width:0.4000000000000001;" width="4" x="793.4" y="217.4742"/><rect fill="#FFFFFF" height="12.5164" style="stroke:#181818;stroke-width:0.4000000000000001;" width="4" x="856.6" y="340.3859"/><rect fill="#FFFFFF" height="12.5164" style="stroke:#181818;stroke-width:0.4000000000000001;" width="4" x="902.4" y="439.2008"/><rect fill="#FFFFFF" height="12.5164" style="stroke:#181818;stroke-width:0.4000000000000001;" width="4" x="902.4" y="464.2336"/><rect fill="#FFFFFF" height="12.5164" style="stroke:#181818;stroke-width:0.4000000000000001;" width="4" x="902.4" y="489.2664"/><rect fill="#FFFFFF" height="12.5164" style="stroke:#181818;stroke-width:0.4000000000000001;" width="4" x="902.4" y="514.2992"/><rect fill="#FFFFFF" height="12.5164" style="stroke:#181818;stroke-width:0.4000000000000001;" width="4" x="942" y="539.332"/><rect fill="none" height="497.0875" style="stroke:#000000;stroke-width:0.6000000000000001;" width="961.6" x="4" y="162.8922"/><rect fill="none" height="25.4328" style="stroke:#000000;stroke-width:0.6000000000000001;" width="183" x="195.2" y="389.1352"/><line style="stroke:#181818;stroke-width:0.20000000000000004;stroke-dasharray:5.0,5.0;" x1="32.4" x2="32.4" y1="49.2969" y2="666.7797"/><line style="stroke:#181818;stroke-width:0.20000000000000004;stroke-dasharray:5.0,5.0;" x1="223.6" x2="223.6" y1="49.2969" y2="666.7797"/><line style="stroke:#181818;stroke-width:0.20000000000000004;stroke-dasharray:5.0,5.0;" x1="448" x2="448" y1="85.6617" y2="666.7797"/><line style="stroke:#181818;stroke-width:0.20000000000000004;stroke-dasharray:5.0,5.0;" x1="558.2" x2="558.2" y1="49.2969" y2="666.7797"/><line style="stroke:#181818;stroke-width:0.20000000000000004;stroke-dasharray:5.0,5.0;" x1="659.2" x2="659.2" y1="267.3555" y2="666.7797"/><line style="stroke:#181818;stroke-width:0.20000000000000004;stroke-dasharray:5.0,5.0;" x1="723.6" x2="723.6" y1="49.2969" y2="666.7797"/><line style="stroke:#181818;stroke-width:0.20000000000000004;stroke-dasharray:5.0,5.0;" x1="795.2" x2="795.2" y1="49.2969" y2="666.7797"/><line style="stroke:#181818;stroke-width:0.20000000000000004;stroke-dasharray:5.0,5.0;" x1="858.4" x2="858.4" y1="49.2969" y2="666.7797"/><line style="stroke:#181818;stroke-width:0.20000000000000004;stroke-dasharray:5.0,5.0;" x1="904.4" x2="904.4" y1="49.2969" y2="666.7797"/><line style="stroke:#181818;stroke-width:0.20000000000000004;stroke-dasharray:5.0,5.0;" x1="944" x2="944" y1="49.2969" y2="666.7797"/><text fill="#000000" font-family="sans-serif" font-size="5.6" lengthAdjust="spacing" textLength="46.8" x="8" y="47.8914">CustomerManager</text><ellipse cx="32.6" cy="21.2484" fill="#E3E3E3" rx="3.2" ry="3.2" style="stroke:#181818;stroke-width:0.20000000000000004;"/><path d="M32.6,24.4484 L32.6,35.2484 M27.4,27.6484 L37.8,27.6484 M32.6,35.2484 L27.4,41.2484 M32.6,35.2484 L37.8,41.2484 " fill="none" style="stroke:#181818;stroke-width:0.20000000000000004;"/><text fill="#000000" font-family="sans-serif" font-size="5.6" lengthAdjust="spacing" textLength="46.8" x="8" y="672.4227">CustomerManager</text><ellipse cx="32.6" cy="677.2281" fill="#E3E3E3" rx="3.2" ry="3.2" style="stroke:#181818;stroke-width:0.20000000000000004;"/><path d="M32.6,680.4281 L32.6,691.2281 M27.4,683.6281 L37.8,683.6281 M32.6,691.2281 L27.4,697.2281 M32.6,691.2281 L37.8,697.2281 " fill="none" style="stroke:#181818;stroke-width:0.20000000000000004;"/><rect fill="#E3E3E3" height="20.4969" rx="1" ry="1" style="stroke:#181818;stroke-width:0.20000000000000004;" width="49.2" x="199.2" y="28.4"/><text fill="#000000" font-family="sans-serif" font-size="5.6" font-style="italic" lengthAdjust="spacing" textLength="38" x="204.8" y="37.243">&#171;presentation&#187;</text><text fill="#000000" font-family="sans-serif" font-size="5.6" lengthAdjust="spacing" textLength="43.6" x="202" y="44.6914">:PublishResultsUI</text><rect fill="#E3E3E3" height="20.4969" rx="1" ry="1" style="stroke:#181818;stroke-width:0.20000000000000004;" width="49.2" x="199.2" y="666.3797"/><text fill="#000000" font-family="sans-serif" font-size="5.6" font-style="italic" lengthAdjust="spacing" textLength="38" x="204.8" y="675.2227">&#171;presentation&#187;</text><text fill="#000000" font-family="sans-serif" font-size="5.6" lengthAdjust="spacing" textLength="43.6" x="202" y="682.6711">:PublishResultsUI</text><text fill="#000000" font-family="sans-serif" font-size="5.6" font-style="italic" lengthAdjust="spacing" textLength="33.6" x="430.2" y="672.4227">&#171;application&#187;</text><text fill="#000000" font-family="sans-serif" font-size="5.6" lengthAdjust="spacing" textLength="63.6" x="415.2" y="679.8711">:PublishResultsController</text><ellipse cx="448.2" cy="687.6766" fill="#E3E3E3" rx="4.8" ry="4.8" style="stroke:#181818;stroke-width:0.20000000000000004;"/><polygon fill="#181818" points="446.6,682.8766,449,680.8766,448.2,682.8766,449,684.8766,446.6,682.8766" style="stroke:#181818;stroke-width:0.4000000000000001;"/><rect fill="#E3E3E3" height="20.4969" rx="1" ry="1" style="stroke:#181818;stroke-width:0.20000000000000004;" width="62.4" x="527" y="28.4"/><text fill="#000000" font-family="sans-serif" font-size="5.6" font-style="italic" lengthAdjust="spacing" textLength="24" x="546.2" y="37.243">&#171;service&#187;</text><text fill="#000000" font-family="sans-serif" font-size="5.6" lengthAdjust="spacing" textLength="56.8" x="529.8" y="44.6914">:JobApplicationService</text><rect fill="#E3E3E3" height="20.4969" rx="1" ry="1" style="stroke:#181818;stroke-width:0.20000000000000004;" width="62.4" x="527" y="666.3797"/><text fill="#000000" font-family="sans-serif" font-size="5.6" font-style="italic" lengthAdjust="spacing" textLength="24" x="546.2" y="675.2227">&#171;service&#187;</text><text fill="#000000" font-family="sans-serif" font-size="5.6" lengthAdjust="spacing" textLength="56.8" x="529.8" y="682.6711">:JobApplicationService</text><rect fill="#E3E3E3" height="20.4969" rx="1" ry="1" style="stroke:#181818;stroke-width:0.20000000000000004;" width="55.6" x="631.6" y="666.3797"/><text fill="#000000" font-family="sans-serif" font-size="5.6" font-style="italic" lengthAdjust="spacing" textLength="24.8" x="647" y="675.2227">&#171;domain&#187;</text><text fill="#000000" font-family="sans-serif" font-size="5.6" lengthAdjust="spacing" textLength="50" x="634.4" y="682.6711">:JobApplicationDTO</text><rect fill="#E3E3E3" height="20.4969" rx="1" ry="1" style="stroke:#181818;stroke-width:0.20000000000000004;" width="64.8" x="691.2" y="28.4"/><text fill="#000000" font-family="sans-serif" font-size="5.6" font-style="italic" lengthAdjust="spacing" textLength="31.6" x="707.8" y="37.243">&#171;repository&#187;</text><text fill="#000000" font-family="sans-serif" font-size="5.6" lengthAdjust="spacing" textLength="59.2" x="694" y="44.6914">:JobOpeningRepository</text><rect fill="#E3E3E3" height="20.4969" rx="1" ry="1" style="stroke:#181818;stroke-width:0.20000000000000004;" width="64.8" x="691.2" y="666.3797"/><text fill="#000000" font-family="sans-serif" font-size="5.6" font-style="italic" lengthAdjust="spacing" textLength="31.6" x="707.8" y="675.2227">&#171;repository&#187;</text><text fill="#000000" font-family="sans-serif" font-size="5.6" lengthAdjust="spacing" textLength="59.2" x="694" y="682.6711">:JobOpeningRepository</text><rect fill="#E3E3E3" height="20.4969" rx="1" ry="1" style="stroke:#181818;stroke-width:0.20000000000000004;" width="70.8" x="760" y="28.4"/><text fill="#000000" font-family="sans-serif" font-size="5.6" font-style="italic" lengthAdjust="spacing" textLength="31.6" x="779.6" y="37.243">&#171;repository&#187;</text><text fill="#000000" font-family="sans-serif" font-size="5.6" lengthAdjust="spacing" textLength="65.2" x="762.8" y="44.6914">:JobApplicationRepository</text><rect fill="#E3E3E3" height="20.4969" rx="1" ry="1" style="stroke:#181818;stroke-width:0.20000000000000004;" width="70.8" x="760" y="666.3797"/><text fill="#000000" font-family="sans-serif" font-size="5.6" font-style="italic" lengthAdjust="spacing" textLength="31.6" x="779.6" y="675.2227">&#171;repository&#187;</text><text fill="#000000" font-family="sans-serif" font-size="5.6" lengthAdjust="spacing" textLength="65.2" x="762.8" y="682.6711">:JobApplicationRepository</text><rect fill="#E3E3E3" height="20.4969" rx="1" ry="1" style="stroke:#181818;stroke-width:0.20000000000000004;" width="47.6" x="834.8" y="28.4"/><text fill="#000000" font-family="sans-serif" font-size="5.6" font-style="italic" lengthAdjust="spacing" textLength="31.6" x="842.8" y="37.243">&#171;repository&#187;</text><text fill="#000000" font-family="sans-serif" font-size="5.6" lengthAdjust="spacing" textLength="42" x="837.6" y="44.6914">:RankRepository</text><rect fill="#E3E3E3" height="20.4969" rx="1" ry="1" style="stroke:#181818;stroke-width:0.20000000000000004;" width="47.6" x="834.8" y="666.3797"/><text fill="#000000" font-family="sans-serif" font-size="5.6" font-style="italic" lengthAdjust="spacing" textLength="31.6" x="842.8" y="675.2227">&#171;repository&#187;</text><text fill="#000000" font-family="sans-serif" font-size="5.6" lengthAdjust="spacing" textLength="42" x="837.6" y="682.6711">:RankRepository</text><rect fill="#E3E3E3" height="20.4969" rx="1" ry="1" style="stroke:#181818;stroke-width:0.20000000000000004;" width="36" x="886.4" y="28.4"/><text fill="#000000" font-family="sans-serif" font-size="5.6" font-style="italic" lengthAdjust="spacing" textLength="24.8" x="892" y="37.243">&#171;domain&#187;</text><text fill="#000000" font-family="sans-serif" font-size="5.6" lengthAdjust="spacing" textLength="30.4" x="889.2" y="44.6914">:SerializeUtil</text><rect fill="#E3E3E3" height="20.4969" rx="1" ry="1" style="stroke:#181818;stroke-width:0.20000000000000004;" width="36" x="886.4" y="666.3797"/><text fill="#000000" font-family="sans-serif" font-size="5.6" font-style="italic" lengthAdjust="spacing" textLength="24.8" x="892" y="675.2227">&#171;domain&#187;</text><text fill="#000000" font-family="sans-serif" font-size="5.6" lengthAdjust="spacing" textLength="30.4" x="889.2" y="682.6711">:SerializeUtil</text><rect fill="#E3E3E3" height="20.4969" rx="1" ry="1" style="stroke:#181818;stroke-width:0.20000000000000004;" width="35.2" x="926.4" y="28.4"/><text fill="#000000" font-family="sans-serif" font-size="5.6" font-style="italic" lengthAdjust="spacing" textLength="24.8" x="931.6" y="37.243">&#171;System&#187;</text><text fill="#000000" font-family="sans-serif" font-size="5.6" lengthAdjust="spacing" textLength="29.6" x="929.2" y="44.6914">:TCPServer</text><rect fill="#E3E3E3" height="20.4969" rx="1" ry="1" style="stroke:#181818;stroke-width:0.20000000000000004;" width="35.2" x="926.4" y="666.3797"/><text fill="#000000" font-family="sans-serif" font-size="5.6" font-style="italic" lengthAdjust="spacing" textLength="24.8" x="931.6" y="675.2227">&#171;System&#187;</text><text fill="#000000" font-family="sans-serif" font-size="5.6" lengthAdjust="spacing" textLength="29.6" x="929.2" y="682.6711">:TCPServer</text><rect fill="#FFFFFF" height="609.8828" style="stroke:#181818;stroke-width:0.4000000000000001;" width="4" x="30.6" y="53.2969"/><rect fill="#FFFFFF" height="94.2789" style="stroke:#181818;stroke-width:0.4000000000000001;" width="4" x="221.8" y="62.6133"/><rect fill="#FFFFFF" height="476.8547" style="stroke:#181818;stroke-width:0.4000000000000001;" width="4" x="221.8" y="179.925"/><rect fill="#FFFFFF" height="37.5492" style="stroke:#181818;stroke-width:0.4000000000000001;" width="4" x="446.2" y="106.8266"/><rect fill="#FFFFFF" height="122.9117" style="stroke:#181818;stroke-width:0.4000000000000001;" width="4" x="446.2" y="192.4414"/><rect fill="#FFFFFF" height="37.5492" style="stroke:#181818;stroke-width:0.4000000000000001;" width="4" x="446.2" y="327.8695"/><rect fill="#FFFFFF" height="137.6805" style="stroke:#181818;stroke-width:0.4000000000000001;" width="4" x="446.2" y="426.6844"/><rect fill="#FFFFFF" height="25.0328" style="stroke:#181818;stroke-width:0.4000000000000001;" width="4" x="446.2" y="612.3141"/><rect fill="#FFFFFF" height="97.8789" style="stroke:#181818;stroke-width:0.4000000000000001;" width="4" x="556.2" y="204.9578"/><rect fill="#FFFFFF" height="41.8133" style="stroke:#181818;stroke-width:0.4000000000000001;" width="4" x="558.2" y="245.707"/><rect fill="#FFFFFF" height="12.5164" style="stroke:#181818;stroke-width:0.4000000000000001;" width="4" x="721.6" y="119.343"/><rect fill="#FFFFFF" height="12.5164" style="stroke:#181818;stroke-width:0.4000000000000001;" width="4" x="793.4" y="217.4742"/><rect fill="#FFFFFF" height="12.5164" style="stroke:#181818;stroke-width:0.4000000000000001;" width="4" x="856.6" y="340.3859"/><rect fill="#FFFFFF" height="12.5164" style="stroke:#181818;stroke-width:0.4000000000000001;" width="4" x="902.4" y="439.2008"/><rect fill="#FFFFFF" height="12.5164" style="stroke:#181818;stroke-width:0.4000000000000001;" width="4" x="902.4" y="464.2336"/><rect fill="#FFFFFF" height="12.5164" style="stroke:#181818;stroke-width:0.4000000000000001;" width="4" x="902.4" y="489.2664"/><rect fill="#FFFFFF" height="12.5164" style="stroke:#181818;stroke-width:0.4000000000000001;" width="4" x="902.4" y="514.2992"/><rect fill="#FFFFFF" height="12.5164" style="stroke:#181818;stroke-width:0.4000000000000001;" width="4" x="942" y="539.332"/><polygon fill="#181818" points="217,61.0133,221,62.6133,217,64.2133,218.6,62.6133" style="stroke:#181818;stroke-width:0.4000000000000001;"/><line style="stroke:#181818;stroke-width:0.4000000000000001;" x1="34.6" x2="219.4" y1="62.6133" y2="62.6133"/><text fill="#000000" font-family="sans-serif" font-size="5.2" font-weight="bold" lengthAdjust="spacing" textLength="2.8" x="37.4" y="60.5082">1</text><text fill="#000000" font-family="sans-serif" font-size="5.2" lengthAdjust="spacing" textLength="117.2" x="41.8" y="60.5082">Asks to select a job Opening to publish the results</text><polygon fill="#181818" points="410.4,73.5297,414.4,75.1297,410.4,76.7297,412,75.1297" style="stroke:#181818;stroke-width:0.4000000000000001;"/><line style="stroke:#181818;stroke-width:0.4000000000000001;" x1="225.8" x2="412.8" y1="75.1297" y2="75.1297"/><text fill="#000000" font-family="sans-serif" font-size="5.2" font-weight="bold" lengthAdjust="spacing" textLength="2.8" x="228.6" y="73.0246">2</text><text fill="#000000" font-family="sans-serif" font-size="5.2" lengthAdjust="spacing" textLength="14.4" x="233" y="73.0246">create</text><text fill="#000000" font-family="sans-serif" font-size="5.6" font-style="italic" lengthAdjust="spacing" textLength="33.6" x="430.2" y="84.6563">&#171;application&#187;</text><text fill="#000000" font-family="sans-serif" font-size="5.6" lengthAdjust="spacing" textLength="63.6" x="415.2" y="92.1047">:PublishResultsController</text><ellipse cx="448.2" cy="72.2133" fill="#E3E3E3" rx="4.8" ry="4.8" style="stroke:#181818;stroke-width:0.20000000000000004;"/><polygon fill="#181818" points="446.6,67.4133,449,65.4133,448.2,67.4133,449,69.4133,446.6,67.4133" style="stroke:#181818;stroke-width:0.4000000000000001;"/><polygon fill="#181818" points="441.4,105.2266,445.4,106.8266,441.4,108.4266,443,106.8266" style="stroke:#181818;stroke-width:0.4000000000000001;"/><line style="stroke:#181818;stroke-width:0.4000000000000001;" x1="225.8" x2="443.8" y1="106.8266" y2="106.8266"/><text fill="#000000" font-family="sans-serif" font-size="5.2" font-weight="bold" lengthAdjust="spacing" textLength="2.8" x="228.6" y="104.7215">3</text><text fill="#000000" font-family="sans-serif" font-size="5.2" lengthAdjust="spacing" textLength="46" x="233" y="104.7215">listAllJobOpenings()</text><polygon fill="#181818" points="716.8,117.743,720.8,119.343,716.8,120.943,718.4,119.343" style="stroke:#181818;stroke-width:0.4000000000000001;"/><line style="stroke:#181818;stroke-width:0.4000000000000001;" x1="450.2" x2="719.2" y1="119.343" y2="119.343"/><text fill="#000000" font-family="sans-serif" font-size="5.2" font-weight="bold" lengthAdjust="spacing" textLength="2.8" x="453" y="117.2379">4</text><text fill="#000000" font-family="sans-serif" font-size="5.2" lengthAdjust="spacing" textLength="17.2" x="457.4" y="117.2379">findAll()</text><polygon fill="#181818" points="454.6,130.2594,450.6,131.8594,454.6,133.4594,453,131.8594" style="stroke:#181818;stroke-width:0.4000000000000001;"/><line style="stroke:#181818;stroke-width:0.4000000000000001;stroke-dasharray:2.0,2.0;" x1="452.2" x2="723.2" y1="131.8594" y2="131.8594"/><text fill="#000000" font-family="sans-serif" font-size="5.2" font-weight="bold" lengthAdjust="spacing" textLength="2.8" x="457" y="129.7543">5</text><text fill="#000000" font-family="sans-serif" font-size="5.2" lengthAdjust="spacing" textLength="35.2" x="461.4" y="129.7543">allJobOpenings</text><polygon fill="#181818" points="230.2,142.7758,226.2,144.3758,230.2,145.9758,228.6,144.3758" style="stroke:#181818;stroke-width:0.4000000000000001;"/><line style="stroke:#181818;stroke-width:0.4000000000000001;stroke-dasharray:2.0,2.0;" x1="227.8" x2="447.8" y1="144.3758" y2="144.3758"/><text fill="#000000" font-family="sans-serif" font-size="5.2" font-weight="bold" lengthAdjust="spacing" textLength="2.8" x="232.6" y="142.2707">6</text><text fill="#000000" font-family="sans-serif" font-size="5.2" lengthAdjust="spacing" textLength="35.2" x="237" y="142.2707">allJobOpenings</text><polygon fill="#181818" points="39,155.2922,35,156.8922,39,158.4922,37.4,156.8922" style="stroke:#181818;stroke-width:0.4000000000000001;"/><line style="stroke:#181818;stroke-width:0.4000000000000001;stroke-dasharray:2.0,2.0;" x1="36.6" x2="223.4" y1="156.8922" y2="156.8922"/><text fill="#000000" font-family="sans-serif" font-size="5.2" font-weight="bold" lengthAdjust="spacing" textLength="2.8" x="41.4" y="154.7871">7</text><text fill="#000000" font-family="sans-serif" font-size="5.2" lengthAdjust="spacing" textLength="173.2" x="45.8" y="154.7871">Shows the list of Job Openings and aks to select one to publish the results</text><path d="M4,162.8922 L28.4,162.8922 L28.4,166.6086 L24.4,170.6086 L4,170.6086 L4,162.8922 " fill="#EEEEEE" style="stroke:#000000;stroke-width:0.6000000000000001;"/><rect fill="none" height="497.0875" style="stroke:#000000;stroke-width:0.6000000000000001;" width="961.6" x="4" y="162.8922"/><text fill="#000000" font-family="sans-serif" font-size="5.2" font-weight="bold" lengthAdjust="spacing" textLength="6.4" x="10" y="168.9035">alt</text><text fill="#000000" font-family="sans-serif" font-size="4.4" font-weight="bold" lengthAdjust="spacing" textLength="140.8" x="34.4" y="168.4402">[jobOpeningSelected.currentPhase() == PhaseNames.ANALYSIS]</text><polygon fill="#181818" points="217,178.325,221,179.925,217,181.525,218.6,179.925" style="stroke:#181818;stroke-width:0.4000000000000001;"/><line style="stroke:#181818;stroke-width:0.4000000000000001;" x1="34.6" x2="219.4" y1="179.925" y2="179.925"/><text fill="#000000" font-family="sans-serif" font-size="5.2" font-weight="bold" lengthAdjust="spacing" textLength="2.8" x="37.4" y="177.8199">8</text><text fill="#000000" font-family="sans-serif" font-size="5.2" lengthAdjust="spacing" textLength="55.6" x="41.8" y="177.8199">Selects the job Opening</text><polygon fill="#181818" points="441.4,190.8414,445.4,192.4414,441.4,194.0414,443,192.4414" style="stroke:#181818;stroke-width:0.4000000000000001;"/><line style="stroke:#181818;stroke-width:0.4000000000000001;" x1="225.8" x2="443.8" y1="192.4414" y2="192.4414"/><text fill="#000000" font-family="sans-serif" font-size="5.2" font-weight="bold" lengthAdjust="spacing" textLength="2.8" x="228.6" y="190.3363">9</text><text fill="#000000" font-family="sans-serif" font-size="5.2" lengthAdjust="spacing" textLength="83.6" x="233" y="190.3363">findCandidates(jobOpeningSelected)</text><polygon fill="#181818" points="551.4,203.3578,555.4,204.9578,551.4,206.5578,553,204.9578" style="stroke:#181818;stroke-width:0.4000000000000001;"/><line style="stroke:#181818;stroke-width:0.4000000000000001;" x1="450.2" x2="553.8" y1="204.9578" y2="204.9578"/><text fill="#000000" font-family="sans-serif" font-size="5.2" font-weight="bold" lengthAdjust="spacing" textLength="5.6" x="453" y="202.8527">10</text><text fill="#000000" font-family="sans-serif" font-size="5.2" lengthAdjust="spacing" textLength="91.2" x="460.2" y="202.8527">findByJobOpening(jobOpeningSelected)</text><polygon fill="#181818" points="788.6,215.8742,792.6,217.4742,788.6,219.0742,790.2,217.4742" style="stroke:#181818;stroke-width:0.4000000000000001;"/><line style="stroke:#181818;stroke-width:0.4000000000000001;" x1="560.2" x2="791" y1="217.4742" y2="217.4742"/><text fill="#000000" font-family="sans-serif" font-size="5.2" font-weight="bold" lengthAdjust="spacing" textLength="5.6" x="563" y="215.3691">11</text><text fill="#000000" font-family="sans-serif" font-size="5.2" lengthAdjust="spacing" textLength="91.2" x="570.2" y="215.3691">findByJobOpening(jobOpeningSelected)</text><polygon fill="#181818" points="564.6,228.3906,560.6,229.9906,564.6,231.5906,563,229.9906" style="stroke:#181818;stroke-width:0.4000000000000001;"/><line style="stroke:#181818;stroke-width:0.4000000000000001;stroke-dasharray:2.0,2.0;" x1="562.2" x2="795" y1="229.9906" y2="229.9906"/><text fill="#000000" font-family="sans-serif" font-size="5.2" font-weight="bold" lengthAdjust="spacing" textLength="5.6" x="567" y="227.8855">12</text><text fill="#000000" font-family="sans-serif" font-size="5.2" lengthAdjust="spacing" textLength="43.6" x="574.2" y="227.8855">jobApplicationsList</text><line style="stroke:#181818;stroke-width:0.4000000000000001;" x1="560.2" x2="579" y1="240.507" y2="240.507"/><line style="stroke:#181818;stroke-width:0.4000000000000001;" x1="579" x2="579" y1="240.507" y2="245.707"/><line style="stroke:#181818;stroke-width:0.4000000000000001;" x1="562.6" x2="579" y1="245.707" y2="245.707"/><polygon fill="#181818" points="566.6,244.107,562.6,245.707,566.6,247.307,565,245.707" style="stroke:#181818;stroke-width:0.4000000000000001;"/><text fill="#000000" font-family="sans-serif" font-size="5.2" font-weight="bold" lengthAdjust="spacing" textLength="5.6" x="565" y="238.402">13</text><text fill="#000000" font-family="sans-serif" font-size="5.2" lengthAdjust="spacing" textLength="84.4" x="572.2" y="238.402">transformToDTO(jobApplicationsList)</text><polygon fill="#181818" points="626.8,258.6234,630.8,260.2234,626.8,261.8234,628.4,260.2234" style="stroke:#181818;stroke-width:0.4000000000000001;"/><line style="stroke:#181818;stroke-width:0.4000000000000001;" x1="562.2" x2="629.2" y1="260.2234" y2="260.2234"/><text fill="#000000" font-family="sans-serif" font-size="5.2" font-weight="bold" lengthAdjust="spacing" textLength="5.6" x="565" y="258.1184">14</text><text fill="#000000" font-family="sans-serif" font-size="5.2" lengthAdjust="spacing" textLength="17.6" x="572.2" y="258.1184">create()</text><rect fill="#E3E3E3" height="20.4969" rx="1" ry="1" style="stroke:#181818;stroke-width:0.20000000000000004;" width="55.6" x="631.6" y="250.907"/><text fill="#000000" font-family="sans-serif" font-size="5.6" font-style="italic" lengthAdjust="spacing" textLength="24.8" x="647" y="259.75">&#171;domain&#187;</text><text fill="#000000" font-family="sans-serif" font-size="5.6" lengthAdjust="spacing" textLength="50" x="634.4" y="267.1984">:JobApplicationDTO</text><line style="stroke:#181818;stroke-width:0.4000000000000001;stroke-dasharray:2.0,2.0;" x1="562.2" x2="579" y1="287.1203" y2="287.1203"/><line style="stroke:#181818;stroke-width:0.4000000000000001;stroke-dasharray:2.0,2.0;" x1="579" x2="579" y1="287.1203" y2="292.3203"/><line style="stroke:#181818;stroke-width:0.4000000000000001;stroke-dasharray:2.0,2.0;" x1="560.2" x2="579" y1="292.3203" y2="292.3203"/><polygon fill="#181818" points="564.2,290.7203,560.2,292.3203,564.2,293.9203,562.6,292.3203" style="stroke:#181818;stroke-width:0.4000000000000001;"/><text fill="#000000" font-family="sans-serif" font-size="5.2" font-weight="bold" lengthAdjust="spacing" textLength="5.6" x="565" y="285.0152">15</text><text fill="#000000" font-family="sans-serif" font-size="5.2" lengthAdjust="spacing" textLength="53.6" x="572.2" y="285.0152">listJobApplicationsDTO</text><polygon fill="#181818" points="454.6,301.2367,450.6,302.8367,454.6,304.4367,453,302.8367" style="stroke:#181818;stroke-width:0.4000000000000001;"/><line style="stroke:#181818;stroke-width:0.4000000000000001;stroke-dasharray:2.0,2.0;" x1="452.2" x2="557.8" y1="302.8367" y2="302.8367"/><text fill="#000000" font-family="sans-serif" font-size="5.2" font-weight="bold" lengthAdjust="spacing" textLength="5.6" x="457" y="300.7316">16</text><text fill="#000000" font-family="sans-serif" font-size="5.2" lengthAdjust="spacing" textLength="53.6" x="464.2" y="300.7316">listJobApplicationsDTO</text><polygon fill="#181818" points="230.2,313.7531,226.2,315.3531,230.2,316.9531,228.6,315.3531" style="stroke:#181818;stroke-width:0.4000000000000001;"/><line style="stroke:#181818;stroke-width:0.4000000000000001;stroke-dasharray:2.0,2.0;" x1="227.8" x2="447.8" y1="315.3531" y2="315.3531"/><text fill="#000000" font-family="sans-serif" font-size="5.2" font-weight="bold" lengthAdjust="spacing" textLength="5.6" x="232.6" y="313.248">17</text><text fill="#000000" font-family="sans-serif" font-size="5.2" lengthAdjust="spacing" textLength="53.6" x="239.8" y="313.248">listJobApplicationsDTO</text><polygon fill="#181818" points="441.4,326.2695,445.4,327.8695,441.4,329.4695,443,327.8695" style="stroke:#181818;stroke-width:0.4000000000000001;"/><line style="stroke:#181818;stroke-width:0.4000000000000001;" x1="225.8" x2="443.8" y1="327.8695" y2="327.8695"/><text fill="#000000" font-family="sans-serif" font-size="5.2" font-weight="bold" lengthAdjust="spacing" textLength="5.6" x="228.6" y="325.7645">18</text><text fill="#000000" font-family="sans-serif" font-size="5.2" lengthAdjust="spacing" textLength="142" x="235.8" y="325.7645">findRankByJobReference(jobOpeningSelected.jobReference())</text><polygon fill="#181818" points="851.8,338.7859,855.8,340.3859,851.8,341.9859,853.4,340.3859" style="stroke:#181818;stroke-width:0.4000000000000001;"/><line style="stroke:#181818;stroke-width:0.4000000000000001;" x1="450.2" x2="854.2" y1="340.3859" y2="340.3859"/><text fill="#000000" font-family="sans-serif" font-size="5.2" font-weight="bold" lengthAdjust="spacing" textLength="5.6" x="453" y="338.2809">19</text><text fill="#000000" font-family="sans-serif" font-size="5.2" lengthAdjust="spacing" textLength="78.8" x="460.2" y="338.2809">findByJobReference(jobReference)</text><polygon fill="#181818" points="454.6,351.3023,450.6,352.9023,454.6,354.5023,453,352.9023" style="stroke:#181818;stroke-width:0.4000000000000001;"/><line style="stroke:#181818;stroke-width:0.4000000000000001;stroke-dasharray:2.0,2.0;" x1="452.2" x2="858.2" y1="352.9023" y2="352.9023"/><text fill="#000000" font-family="sans-serif" font-size="5.2" font-weight="bold" lengthAdjust="spacing" textLength="5.6" x="457" y="350.7973">20</text><text fill="#000000" font-family="sans-serif" font-size="5.2" lengthAdjust="spacing" textLength="24" x="464.2" y="350.7973">rankSaved</text><polygon fill="#181818" points="230.2,363.8188,226.2,365.4188,230.2,367.0188,228.6,365.4188" style="stroke:#181818;stroke-width:0.4000000000000001;"/><line style="stroke:#181818;stroke-width:0.4000000000000001;stroke-dasharray:2.0,2.0;" x1="227.8" x2="447.8" y1="365.4188" y2="365.4188"/><text fill="#000000" font-family="sans-serif" font-size="5.2" font-weight="bold" lengthAdjust="spacing" textLength="5.6" x="232.6" y="363.3137">21</text><text fill="#000000" font-family="sans-serif" font-size="5.2" lengthAdjust="spacing" textLength="32.4" x="239.8" y="363.3137">rankSavedList</text><line style="stroke:#181818;stroke-width:0.4000000000000001;" x1="225.8" x2="242.6" y1="377.9352" y2="377.9352"/><line style="stroke:#181818;stroke-width:0.4000000000000001;" x1="242.6" x2="242.6" y1="377.9352" y2="383.1352"/><line style="stroke:#181818;stroke-width:0.4000000000000001;" x1="226.2" x2="242.6" y1="383.1352" y2="383.1352"/><polygon fill="#181818" points="230.2,381.5352,226.2,383.1352,230.2,384.7352,228.6,383.1352" style="stroke:#181818;stroke-width:0.4000000000000001;"/><text fill="#000000" font-family="sans-serif" font-size="5.2" font-weight="bold" lengthAdjust="spacing" textLength="5.6" x="228.6" y="375.8301">22</text><text fill="#000000" font-family="sans-serif" font-size="5.2" lengthAdjust="spacing" textLength="81.6" x="235.8" y="375.8301">publishResults = new ArrayList&lt;&gt;()</text><path d="M195.2,389.1352 L224.4,389.1352 L224.4,392.8516 L220.4,396.8516 L195.2,396.8516 L195.2,389.1352 " fill="#EEEEEE" style="stroke:#000000;stroke-width:0.6000000000000001;"/><rect fill="none" height="25.4328" style="stroke:#000000;stroke-width:0.6000000000000001;" width="183" x="195.2" y="389.1352"/><text fill="#000000" font-family="sans-serif" font-size="5.2" font-weight="bold" lengthAdjust="spacing" textLength="11.2" x="201.2" y="395.1465">loop</text><text fill="#000000" font-family="sans-serif" font-size="4.4" font-weight="bold" lengthAdjust="spacing" textLength="128.8" x="230.4" y="394.6832">[for each JobApplicationDTO job in listJobApplicationsDTO]</text><line style="stroke:#181818;stroke-width:0.4000000000000001;" x1="225.8" x2="242.6" y1="406.168" y2="406.168"/><line style="stroke:#181818;stroke-width:0.4000000000000001;" x1="242.6" x2="242.6" y1="406.168" y2="411.368"/><line style="stroke:#181818;stroke-width:0.4000000000000001;" x1="226.2" x2="242.6" y1="411.368" y2="411.368"/><polygon fill="#181818" points="230.2,409.768,226.2,411.368,230.2,412.968,228.6,411.368" style="stroke:#181818;stroke-width:0.4000000000000001;"/><text fill="#000000" font-family="sans-serif" font-size="5.2" font-weight="bold" lengthAdjust="spacing" textLength="5.6" x="228.6" y="404.0629">23</text><text fill="#000000" font-family="sans-serif" font-size="5.2" lengthAdjust="spacing" textLength="137.6" x="235.8" y="404.0629">publishResults.set(rankSavedList.indexOf(job.identity()),job)</text><polygon fill="#181818" points="441.4,425.0844,445.4,426.6844,441.4,428.2844,443,426.6844" style="stroke:#181818;stroke-width:0.4000000000000001;"/><line style="stroke:#181818;stroke-width:0.4000000000000001;" x1="225.8" x2="443.8" y1="426.6844" y2="426.6844"/><text fill="#000000" font-family="sans-serif" font-size="5.2" font-weight="bold" lengthAdjust="spacing" textLength="5.6" x="228.6" y="424.5793">24</text><text fill="#000000" font-family="sans-serif" font-size="5.2" lengthAdjust="spacing" textLength="205.6" x="235.8" y="424.5793">publishResults( output, input, publishResults, vacancies, companyEmail, publisherEmail)</text><polygon fill="#181818" points="897.6,437.6008,901.6,439.2008,897.6,440.8008,899.2,439.2008" style="stroke:#181818;stroke-width:0.4000000000000001;"/><line style="stroke:#181818;stroke-width:0.4000000000000001;" x1="450.2" x2="900" y1="439.2008" y2="439.2008"/><text fill="#000000" font-family="sans-serif" font-size="5.2" font-weight="bold" lengthAdjust="spacing" textLength="5.6" x="453" y="437.0957">25</text><text fill="#000000" font-family="sans-serif" font-size="5.2" lengthAdjust="spacing" textLength="56.4" x="460.2" y="437.0957">serialize(publishResults)</text><polygon fill="#181818" points="454.6,450.1172,450.6,451.7172,454.6,453.3172,453,451.7172" style="stroke:#181818;stroke-width:0.4000000000000001;"/><line style="stroke:#181818;stroke-width:0.4000000000000001;stroke-dasharray:2.0,2.0;" x1="452.2" x2="904" y1="451.7172" y2="451.7172"/><text fill="#000000" font-family="sans-serif" font-size="5.2" font-weight="bold" lengthAdjust="spacing" textLength="5.6" x="457" y="449.6121">26</text><text fill="#000000" font-family="sans-serif" font-size="5.2" lengthAdjust="spacing" textLength="44.8" x="464.2" y="449.6121">publishResultsData</text><polygon fill="#181818" points="897.6,462.6336,901.6,464.2336,897.6,465.8336,899.2,464.2336" style="stroke:#181818;stroke-width:0.4000000000000001;"/><line style="stroke:#181818;stroke-width:0.4000000000000001;" x1="450.2" x2="900" y1="464.2336" y2="464.2336"/><text fill="#000000" font-family="sans-serif" font-size="5.2" font-weight="bold" lengthAdjust="spacing" textLength="5.6" x="453" y="462.1285">27</text><text fill="#000000" font-family="sans-serif" font-size="5.2" lengthAdjust="spacing" textLength="45.2" x="460.2" y="462.1285">serialize(vacancies)</text><polygon fill="#181818" points="454.6,475.15,450.6,476.75,454.6,478.35,453,476.75" style="stroke:#181818;stroke-width:0.4000000000000001;"/><line style="stroke:#181818;stroke-width:0.4000000000000001;stroke-dasharray:2.0,2.0;" x1="452.2" x2="904" y1="476.75" y2="476.75"/><text fill="#000000" font-family="sans-serif" font-size="5.2" font-weight="bold" lengthAdjust="spacing" textLength="5.6" x="457" y="474.6449">28</text><text fill="#000000" font-family="sans-serif" font-size="5.2" lengthAdjust="spacing" textLength="33.6" x="464.2" y="474.6449">vacanciesData</text><polygon fill="#181818" points="897.6,487.6664,901.6,489.2664,897.6,490.8664,899.2,489.2664" style="stroke:#181818;stroke-width:0.4000000000000001;"/><line style="stroke:#181818;stroke-width:0.4000000000000001;" x1="450.2" x2="900" y1="489.2664" y2="489.2664"/><text fill="#000000" font-family="sans-serif" font-size="5.2" font-weight="bold" lengthAdjust="spacing" textLength="5.6" x="453" y="487.1613">29</text><text fill="#000000" font-family="sans-serif" font-size="5.2" lengthAdjust="spacing" textLength="56.8" x="460.2" y="487.1613">serialize(companyEmail)</text><polygon fill="#181818" points="454.6,500.1828,450.6,501.7828,454.6,503.3828,453,501.7828" style="stroke:#181818;stroke-width:0.4000000000000001;"/><line style="stroke:#181818;stroke-width:0.4000000000000001;stroke-dasharray:2.0,2.0;" x1="452.2" x2="904" y1="501.7828" y2="501.7828"/><text fill="#000000" font-family="sans-serif" font-size="5.2" font-weight="bold" lengthAdjust="spacing" textLength="5.6" x="457" y="499.6777">30</text><text fill="#000000" font-family="sans-serif" font-size="5.2" lengthAdjust="spacing" textLength="45.2" x="464.2" y="499.6777">companyEmailData</text><polygon fill="#181818" points="897.6,512.6992,901.6,514.2992,897.6,515.8992,899.2,514.2992" style="stroke:#181818;stroke-width:0.4000000000000001;"/><line style="stroke:#181818;stroke-width:0.4000000000000001;" x1="450.2" x2="900" y1="514.2992" y2="514.2992"/><text fill="#000000" font-family="sans-serif" font-size="5.2" font-weight="bold" lengthAdjust="spacing" textLength="5.6" x="453" y="512.1941">31</text><text fill="#000000" font-family="sans-serif" font-size="5.2" lengthAdjust="spacing" textLength="56.4" x="460.2" y="512.1941">serialize(publisherEmail)</text><polygon fill="#181818" points="454.6,525.2156,450.6,526.8156,454.6,528.4156,453,526.8156" style="stroke:#181818;stroke-width:0.4000000000000001;"/><line style="stroke:#181818;stroke-width:0.4000000000000001;stroke-dasharray:2.0,2.0;" x1="452.2" x2="904" y1="526.8156" y2="526.8156"/><text fill="#000000" font-family="sans-serif" font-size="5.2" font-weight="bold" lengthAdjust="spacing" textLength="5.6" x="457" y="524.7105">32</text><text fill="#000000" font-family="sans-serif" font-size="5.2" lengthAdjust="spacing" textLength="44.8" x="464.2" y="524.7105">publisherEmailData</text><polygon fill="#181818" points="937.2,537.732,941.2,539.332,937.2,540.932,938.8,539.332" style="stroke:#181818;stroke-width:0.4000000000000001;"/><line style="stroke:#181818;stroke-width:0.4000000000000001;" x1="450.2" x2="939.6" y1="539.332" y2="539.332"/><text fill="#000000" font-family="sans-serif" font-size="5.2" font-weight="bold" lengthAdjust="spacing" textLength="5.6" x="453" y="537.227">33</text><text fill="#000000" font-family="sans-serif" font-size="5.2" lengthAdjust="spacing" textLength="49.6" x="460.2" y="537.227">(tcp) sendPublishReq</text><polygon fill="#181818" points="454.6,550.2484,450.6,551.8484,454.6,553.4484,453,551.8484" style="stroke:#181818;stroke-width:0.4000000000000001;"/><line style="stroke:#181818;stroke-width:0.4000000000000001;stroke-dasharray:2.0,2.0;" x1="452.2" x2="943.6" y1="551.8484" y2="551.8484"/><text fill="#000000" font-family="sans-serif" font-size="5.2" font-weight="bold" lengthAdjust="spacing" textLength="5.6" x="457" y="549.7434">34</text><text fill="#000000" font-family="sans-serif" font-size="5.2" lengthAdjust="spacing" textLength="52.4" x="464.2" y="549.7434">(tcp) sendPublishResp</text><polygon fill="#181818" points="230.2,562.7648,226.2,564.3648,230.2,565.9648,228.6,564.3648" style="stroke:#181818;stroke-width:0.4000000000000001;"/><line style="stroke:#181818;stroke-width:0.4000000000000001;stroke-dasharray:2.0,2.0;" x1="227.8" x2="447.8" y1="564.3648" y2="564.3648"/><text fill="#000000" font-family="sans-serif" font-size="5.2" font-weight="bold" lengthAdjust="spacing" textLength="5.6" x="232.6" y="562.2598">35</text><text fill="#000000" font-family="sans-serif" font-size="5.2" lengthAdjust="spacing" textLength="19.6" x="239.8" y="562.2598">success</text><line style="stroke:#181818;stroke-width:0.4000000000000001;" x1="225.8" x2="242.6" y1="576.8813" y2="576.8813"/><line style="stroke:#181818;stroke-width:0.4000000000000001;" x1="242.6" x2="242.6" y1="576.8813" y2="582.0813"/><line style="stroke:#181818;stroke-width:0.4000000000000001;" x1="226.2" x2="242.6" y1="582.0813" y2="582.0813"/><polygon fill="#181818" points="230.2,580.4813,226.2,582.0813,230.2,583.6813,228.6,582.0813" style="stroke:#181818;stroke-width:0.4000000000000001;"/><text fill="#000000" font-family="sans-serif" font-size="5.2" font-weight="bold" lengthAdjust="spacing" textLength="5.6" x="228.6" y="574.7762">36</text><text fill="#000000" font-family="sans-serif" font-size="5.2" lengthAdjust="spacing" textLength="127.6" x="235.8" y="574.7762">jobOpeningSelected.setPhase(PhaseNames.RESULT);</text><line style="stroke:#181818;stroke-width:0.4000000000000001;" x1="225.8" x2="242.6" y1="594.5977" y2="594.5977"/><line style="stroke:#181818;stroke-width:0.4000000000000001;" x1="242.6" x2="242.6" y1="594.5977" y2="599.7977"/><line style="stroke:#181818;stroke-width:0.4000000000000001;" x1="226.2" x2="242.6" y1="599.7977" y2="599.7977"/><polygon fill="#181818" points="230.2,598.1977,226.2,599.7977,230.2,601.3977,228.6,599.7977" style="stroke:#181818;stroke-width:0.4000000000000001;"/><text fill="#000000" font-family="sans-serif" font-size="5.2" font-weight="bold" lengthAdjust="spacing" textLength="5.6" x="228.6" y="592.4926">37</text><text fill="#000000" font-family="sans-serif" font-size="5.2" lengthAdjust="spacing" textLength="68" x="235.8" y="592.4926">jobOpeningSelected.closed();</text><polygon fill="#181818" points="441.4,610.7141,445.4,612.3141,441.4,613.9141,443,612.3141" style="stroke:#181818;stroke-width:0.4000000000000001;"/><line style="stroke:#181818;stroke-width:0.4000000000000001;" x1="225.8" x2="443.8" y1="612.3141" y2="612.3141"/><text fill="#000000" font-family="sans-serif" font-size="5.2" font-weight="bold" lengthAdjust="spacing" textLength="5.6" x="228.6" y="610.209">38</text><text fill="#000000" font-family="sans-serif" font-size="5.2" lengthAdjust="spacing" textLength="88.4" x="235.8" y="610.209">storeJobOpening(jobOpeningSelected)</text><polygon fill="#181818" points="718.8,623.2305,722.8,624.8305,718.8,626.4305,720.4,624.8305" style="stroke:#181818;stroke-width:0.4000000000000001;"/><line style="stroke:#181818;stroke-width:0.4000000000000001;" x1="450.2" x2="721.2" y1="624.8305" y2="624.8305"/><text fill="#000000" font-family="sans-serif" font-size="5.2" font-weight="bold" lengthAdjust="spacing" textLength="5.6" x="453" y="622.7254">39</text><text fill="#000000" font-family="sans-serif" font-size="5.2" lengthAdjust="spacing" textLength="60" x="460.2" y="622.7254">save(jobOpeningSelected)</text><polygon fill="#181818" points="230.2,635.7469,226.2,637.3469,230.2,638.9469,228.6,637.3469" style="stroke:#181818;stroke-width:0.4000000000000001;"/><line style="stroke:#181818;stroke-width:0.4000000000000001;" x1="227.8" x2="447.8" y1="637.3469" y2="637.3469"/><text fill="#000000" font-family="sans-serif" font-size="5.2" font-weight="bold" lengthAdjust="spacing" textLength="5.6" x="232.6" y="635.2418">40</text><text fill="#000000" font-family="sans-serif" font-size="5.2" lengthAdjust="spacing" textLength="19.6" x="239.8" y="635.2418">success</text><polygon fill="#181818" points="39,655.1797,35,656.7797,39,658.3797,37.4,656.7797" style="stroke:#181818;stroke-width:0.4000000000000001;"/><line style="stroke:#181818;stroke-width:0.4000000000000001;stroke-dasharray:2.0,2.0;" x1="36.6" x2="223.4" y1="656.7797" y2="656.7797"/><text fill="#000000" font-family="sans-serif" font-size="5.2" font-weight="bold" lengthAdjust="spacing" textLength="5.6" x="41.4" y="651.2164">41</text><text fill="#000000" font-family="sans-serif" font-size="5.2" lengthAdjust="spacing" textLength="90.4" x="48.6" y="647.7582">Shows operation success and displays</text><text fill="#000000" font-family="sans-serif" font-size="5.2" lengthAdjust="spacing" textLength="89.6" x="50.2" y="654.6746">a information of closing the jobOpening</text><!--SRC=[lLX1S-es4BxxL-pa4iW0UUsH9inGyWvaqfSC3eVEzABOIr1Y93zBJaf_VLUoiIriOuUPrXTaI_jzsjrFqehBhTQncbvVnn4JEjr5aq3khXN-J544E0uvUqtOplFKEnSneoRif931Df4x19saMEc9MV3ENj7N-mWXmK0pyHfL1wWj2-Kd5w-mOP52psEfbYBTlM3YUPfhChjO-_3Bjr-_mHYUqfU8gotehK5JQQGLo8rzLHWHF9V2V0YO27d8D2hOo0GOlCaNa34A8Xg1acJ1T7KKjI18bIONQ7Y28AJc6uuXlEm1Tun71vwCTd81VXuGk3i4n6E19hP5ZlC74-GwmIcOcmwFFDOyu3555IwckI-hp8tryi8CN2_XvYOc3XIQ6MzcCo-GGYSogfaiikyH9jPqyRnw86CMnn4F3hOkvRrycPVTFYOVF41hdBV9NcMj3jkxvqThHxza4qgAK2FTOnRp5SPISOh1tbhTFwx8AYa-Tf0TMxTqdePSCV5-1EH-EcrE0U8iul_WMlFe4BBoItiGdXTF9hXvah8cZVRtIkEEHblLy0zIOQuI3-YnJHZFZ22cC5Vl2hJCDPxBEG-j-HxNbuL5CK-1lbvwvZ7Vraj2DdgvkYBq847gpthABkeWJ3sFeZADQZ3q74mpCCSqZtaTpoYxKzXm4P9jRk0OKN_naThZySpOJO4vLCMG41ijBTTujbus6bQCZkP83evdMNYdu6_bfx9XCxwQ9NvVHZRR5PWJUYcmBU0LIXDgwtAaJQfoFDz2O3W9qYIXzVsqPGe7GxYz1TlymNQe9lCVyuS__QLVJDYLGWQIpRcY0g-MwkDaceGiYWrlK9zMcIbeo34SFnQMuFET8oFuVLycefl2eSbnZfWE-n8HjItxivXBIRMWklDetN98Ir26uCqPfXv8KovlLSkzYAi1A6XqmeIYSsttB6d_7JIm3ki9wmYqIqMmLrU7dM4mF36sEY-pXbot507LR2j1w9vBBk1MSAyNV9jyJVRC3j863YV0ytsbFeRMQJ5h8qrpp5Xvhd23YIaP6WGwUQls3nj2tdj5kiTQPNau_CNBIIeNgs7aqHbQveiq-kwp3mnFHx6Je4YKoLC1QfTMZ_Iq9CTWnKun1RSWy1FcISBs1lncPcHVju-aZ6rDIKnRg1L5Ta_cekzIQ9_FHA4UEEvEA8tuz-F696_2Gpf0kDwJKaRqtfH35A7NgK-NT00orN6gH-I2_N6xH_31g6OEE5AJxWHKuUo_czgu68Y9VH-UBrwdgfhIiPk_3jofDEQcji-LI6sZZwguSKjWxfXcRH3kVbEbR33eTBE8y7_kOS5qddDmXdDLpRJxzrK7MpsiqfroyajUzXLgiHJ-7w7cTFrowRLEgbhLeQcG1pg8X-IT28lBvyz-cIFx4xvGxxWiJXjOLDnBaeRbj3E7obcbGO1AUJsaVdHbQDkn6qvnshMpihvIqQ- - - -k7v-5lv-05aLGO3iZuf7Kc1KL7A7QKmLrYRDcU7N7O2vwYS-ah30TZDnTzKv4zbtNlinjWLX5ZOge9cenP1VRmn704sQyvHiqfEYh_zAbU6OPrxEfjgfKu0_SkwoEEheEv0sqhehoL7YwbCiR45Ww7ODdRQCXL7B6zWhy4C3gbpIs05VzwaLZiFmBPtR1wDOIkwTbguLy0]--></g></svg>