<?xml version="1.0" encoding="us-ascii" standalone="no"?><svg xmlns="http://www.w3.org/2000/svg" xmlns:xlink="http://www.w3.org/1999/xlink" contentStyleType="text/css" height="299px" preserveAspectRatio="none" style="width:492px;height:299px;background:#FFFFFF;" version="1.1" viewBox="0 0 492 299" width="492.5px" zoomAndPan="magnify"><defs/><g><!--cluster JobApplication Aggregate--><g id="cluster_JobApplication Aggregate"><path d="M173.75,87.5 L264.75,87.5 A1.875,1.875 0 0 1 266,88.75 L269.5,98.3203 L487.75,98.3203 A1.25,1.25 0 0 1 489,99.5703 L489,294.25 A1.25,1.25 0 0 1 487.75,295.5 L173.75,295.5 A1.25,1.25 0 0 1 172.5,294.25 L172.5,88.75 A1.25,1.25 0 0 1 173.75,87.5 " fill="none" style="stroke:#000000;stroke-width:0.75;"/><line style="stroke:#000000;stroke-width:0.75;" x1="172.5" x2="269.5" y1="98.3203" y2="98.3203"/><text fill="#000000" font-family="sans-serif" font-size="7" font-weight="bold" lengthAdjust="spacing" textLength="90.5" x="174.5" y="94.8369">JobApplication Aggregate</text></g><!--cluster Candidate Aggregate--><g id="cluster_Candidate Aggregate"><path d="M4.25,3 L78.75,3 A1.875,1.875 0 0 1 80,4.25 L83.5,13.8203 L159.25,13.8203 A1.25,1.25 0 0 1 160.5,15.0703 L160.5,151.75 A1.25,1.25 0 0 1 159.25,153 L4.25,153 A1.25,1.25 0 0 1 3,151.75 L3,4.25 A1.25,1.25 0 0 1 4.25,3 " fill="none" style="stroke:#000000;stroke-width:0.75;"/><line style="stroke:#000000;stroke-width:0.75;" x1="3" x2="83.5" y1="13.8203" y2="13.8203"/><text fill="#000000" font-family="sans-serif" font-size="7" font-weight="bold" lengthAdjust="spacing" textLength="74" x="5" y="10.3369">Candidate Aggregate</text></g><!--class JobApplication--><g id="elem_JobApplication"><rect codeLine="6" fill="#F1F1F1" height="36.4609" id="JobApplication" rx="1.25" ry="1.25" style="stroke:#181818;stroke-width:0.25;" width="61.5" x="260.25" y="104.5"/><ellipse cx="267.75" cy="118.7305" fill="#ADD1B2" rx="5.5" ry="5.5" style="stroke:#181818;stroke-width:0.5;"/><path d="M269.1328,116.668 Q269.2109,116.5586 269.3047,116.5039 Q269.3984,116.4492 269.5078,116.4492 Q269.6953,116.4492 269.8125,116.582 Q269.9297,116.707 269.9297,117.0117 L269.9297,117.7383 Q269.9297,118.043 269.8125,118.1758 Q269.6953,118.3086 269.5078,118.3086 Q269.3359,118.3086 269.2344,118.207 Q269.1328,118.1133 269.0781,117.8555 Q269.0547,117.6758 268.9609,117.582 Q268.7969,117.3945 268.4922,117.2852 Q268.1875,117.1758 267.875,117.1758 Q267.4922,117.1758 267.1719,117.3398 Q266.8594,117.5039 266.6094,117.8789 Q266.3672,118.2539 266.3672,118.7695 L266.3672,119.3164 Q266.3672,119.9336 266.8125,120.3477 Q267.2578,120.7539 268.0547,120.7539 Q268.5234,120.7539 268.8516,120.6289 Q269.0469,120.5508 269.2578,120.332 Q269.3906,120.1992 269.4609,120.1602 Q269.5391,120.1211 269.6406,120.1211 Q269.8047,120.1211 269.9297,120.2539 Q270.0625,120.3789 270.0625,120.5508 Q270.0625,120.7227 269.8906,120.9258 Q269.6406,121.2148 269.2422,121.3789 Q268.7031,121.6055 268.0547,121.6055 Q267.2969,121.6055 266.6953,121.293 Q266.2031,121.043 265.8594,120.5117 Q265.5156,119.9727 265.5156,119.332 L265.5156,118.7539 Q265.5156,118.0898 265.8203,117.5195 Q266.1328,116.9414 266.6797,116.6367 Q267.2266,116.3242 267.8438,116.3242 Q268.2109,116.3242 268.5313,116.4102 Q268.8594,116.4883 269.1328,116.668 Z " fill="#000000"/><text fill="#000000" font-family="sans-serif" font-size="7" lengthAdjust="spacing" textLength="20.5" x="287.25" y="113.3369">&#171;root&#187;</text><text fill="#000000" font-family="sans-serif" font-size="7" lengthAdjust="spacing" textLength="25" x="285" y="121.1572">&#171;entity&#187;</text><text fill="#000000" font-family="sans-serif" font-size="7" lengthAdjust="spacing" textLength="45.5" x="274.75" y="128.9775">JobApplication</text><line style="stroke:#181818;stroke-width:0.25;" x1="260.75" x2="321.25" y1="132.9609" y2="132.9609"/><line style="stroke:#181818;stroke-width:0.25;" x1="260.75" x2="321.25" y1="136.9609" y2="136.9609"/></g><!--class Status--><g id="elem_Status"><rect codeLine="9" fill="#F1F1F1" height="28.6406" id="Status" rx="1.25" ry="1.25" style="stroke:#181818;stroke-width:0.25;" width="62" x="180.5" y="192"/><ellipse cx="188" cy="202.3203" fill="#ADD1B2" rx="5.5" ry="5.5" style="stroke:#181818;stroke-width:0.5;"/><path d="M189.3828,200.2578 Q189.4609,200.1484 189.5547,200.0938 Q189.6484,200.0391 189.7578,200.0391 Q189.9453,200.0391 190.0625,200.1719 Q190.1797,200.2969 190.1797,200.6016 L190.1797,201.3281 Q190.1797,201.6328 190.0625,201.7656 Q189.9453,201.8984 189.7578,201.8984 Q189.5859,201.8984 189.4844,201.7969 Q189.3828,201.7031 189.3281,201.4453 Q189.3047,201.2656 189.2109,201.1719 Q189.0469,200.9844 188.7422,200.875 Q188.4375,200.7656 188.125,200.7656 Q187.7422,200.7656 187.4219,200.9297 Q187.1094,201.0938 186.8594,201.4688 Q186.6172,201.8438 186.6172,202.3594 L186.6172,202.9063 Q186.6172,203.5234 187.0625,203.9375 Q187.5078,204.3438 188.3047,204.3438 Q188.7734,204.3438 189.1016,204.2188 Q189.2969,204.1406 189.5078,203.9219 Q189.6406,203.7891 189.7109,203.75 Q189.7891,203.7109 189.8906,203.7109 Q190.0547,203.7109 190.1797,203.8438 Q190.3125,203.9688 190.3125,204.1406 Q190.3125,204.3125 190.1406,204.5156 Q189.8906,204.8047 189.4922,204.9688 Q188.9531,205.1953 188.3047,205.1953 Q187.5469,205.1953 186.9453,204.8828 Q186.4531,204.6328 186.1094,204.1016 Q185.7656,203.5625 185.7656,202.9219 L185.7656,202.3438 Q185.7656,201.6797 186.0703,201.1094 Q186.3828,200.5313 186.9297,200.2266 Q187.4766,199.9141 188.0938,199.9141 Q188.4609,199.9141 188.7813,200 Q189.1094,200.0781 189.3828,200.2578 Z " fill="#000000"/><text fill="#000000" font-family="sans-serif" font-size="7" lengthAdjust="spacing" textLength="46" x="195" y="200.8369">&#171;value object&#187;</text><text fill="#000000" font-family="sans-serif" font-size="7" lengthAdjust="spacing" textLength="20" x="208" y="208.6572">Status</text><line style="stroke:#181818;stroke-width:0.25;" x1="181" x2="242" y1="212.6406" y2="212.6406"/><line style="stroke:#181818;stroke-width:0.25;" x1="181" x2="242" y1="216.6406" y2="216.6406"/></g><!--class ID--><g id="elem_ID"><rect codeLine="12" fill="#F1F1F1" height="36.4609" id="ID" rx="1.25" ry="1.25" style="stroke:#181818;stroke-width:0.25;" width="62" x="260" y="188"/><ellipse cx="267.5" cy="202.2305" fill="#ADD1B2" rx="5.5" ry="5.5" style="stroke:#181818;stroke-width:0.5;"/><path d="M268.8828,200.168 Q268.9609,200.0586 269.0547,200.0039 Q269.1484,199.9492 269.2578,199.9492 Q269.4453,199.9492 269.5625,200.082 Q269.6797,200.207 269.6797,200.5117 L269.6797,201.2383 Q269.6797,201.543 269.5625,201.6758 Q269.4453,201.8086 269.2578,201.8086 Q269.0859,201.8086 268.9844,201.707 Q268.8828,201.6133 268.8281,201.3555 Q268.8047,201.1758 268.7109,201.082 Q268.5469,200.8945 268.2422,200.7852 Q267.9375,200.6758 267.625,200.6758 Q267.2422,200.6758 266.9219,200.8398 Q266.6094,201.0039 266.3594,201.3789 Q266.1172,201.7539 266.1172,202.2695 L266.1172,202.8164 Q266.1172,203.4336 266.5625,203.8477 Q267.0078,204.2539 267.8047,204.2539 Q268.2734,204.2539 268.6016,204.1289 Q268.7969,204.0508 269.0078,203.832 Q269.1406,203.6992 269.2109,203.6602 Q269.2891,203.6211 269.3906,203.6211 Q269.5547,203.6211 269.6797,203.7539 Q269.8125,203.8789 269.8125,204.0508 Q269.8125,204.2227 269.6406,204.4258 Q269.3906,204.7148 268.9922,204.8789 Q268.4531,205.1055 267.8047,205.1055 Q267.0469,205.1055 266.4453,204.793 Q265.9531,204.543 265.6094,204.0117 Q265.2656,203.4727 265.2656,202.832 L265.2656,202.2539 Q265.2656,201.5898 265.5703,201.0195 Q265.8828,200.4414 266.4297,200.1367 Q266.9766,199.8242 267.5938,199.8242 Q267.9609,199.8242 268.2813,199.9102 Q268.6094,199.9883 268.8828,200.168 Z " fill="#000000"/><text fill="#000000" font-family="sans-serif" font-size="7" lengthAdjust="spacing" textLength="46" x="274.5" y="196.8369">&#171;value object&#187;</text><text fill="#000000" font-family="sans-serif" font-size="7" lengthAdjust="spacing" textLength="35" x="280" y="204.6572">&#171;identifier&#187;</text><text fill="#000000" font-family="sans-serif" font-size="7" lengthAdjust="spacing" textLength="5.5" x="294.75" y="212.4775">Id</text><line style="stroke:#181818;stroke-width:0.25;" x1="260.5" x2="321.5" y1="216.4609" y2="216.4609"/><line style="stroke:#181818;stroke-width:0.25;" x1="260.5" x2="321.5" y1="220.4609" y2="220.4609"/></g><!--class Grade--><g id="elem_Grade"><rect codeLine="15" fill="#F1F1F1" height="36.4609" id="Grade" rx="1.25" ry="1.25" style="stroke:#181818;stroke-width:0.25;" width="62" x="339.5" y="188"/><ellipse cx="347" cy="202.2305" fill="#ADD1B2" rx="5.5" ry="5.5" style="stroke:#181818;stroke-width:0.5;"/><path d="M348.3828,200.168 Q348.4609,200.0586 348.5547,200.0039 Q348.6484,199.9492 348.7578,199.9492 Q348.9453,199.9492 349.0625,200.082 Q349.1797,200.207 349.1797,200.5117 L349.1797,201.2383 Q349.1797,201.543 349.0625,201.6758 Q348.9453,201.8086 348.7578,201.8086 Q348.5859,201.8086 348.4844,201.707 Q348.3828,201.6133 348.3281,201.3555 Q348.3047,201.1758 348.2109,201.082 Q348.0469,200.8945 347.7422,200.7852 Q347.4375,200.6758 347.125,200.6758 Q346.7422,200.6758 346.4219,200.8398 Q346.1094,201.0039 345.8594,201.3789 Q345.6172,201.7539 345.6172,202.2695 L345.6172,202.8164 Q345.6172,203.4336 346.0625,203.8477 Q346.5078,204.2539 347.3047,204.2539 Q347.7734,204.2539 348.1016,204.1289 Q348.2969,204.0508 348.5078,203.832 Q348.6406,203.6992 348.7109,203.6602 Q348.7891,203.6211 348.8906,203.6211 Q349.0547,203.6211 349.1797,203.7539 Q349.3125,203.8789 349.3125,204.0508 Q349.3125,204.2227 349.1406,204.4258 Q348.8906,204.7148 348.4922,204.8789 Q347.9531,205.1055 347.3047,205.1055 Q346.5469,205.1055 345.9453,204.793 Q345.4531,204.543 345.1094,204.0117 Q344.7656,203.4727 344.7656,202.832 L344.7656,202.2539 Q344.7656,201.5898 345.0703,201.0195 Q345.3828,200.4414 345.9297,200.1367 Q346.4766,199.8242 347.0938,199.8242 Q347.4609,199.8242 347.7813,199.9102 Q348.1094,199.9883 348.3828,200.168 Z " fill="#000000"/><text fill="#000000" font-family="sans-serif" font-size="7" lengthAdjust="spacing" textLength="46" x="354" y="196.8369">&#171;value object&#187;</text><text fill="#000000" font-family="sans-serif" font-size="7" lengthAdjust="spacing" textLength="40" x="357" y="204.6572">&#171;calculated&#187;</text><text fill="#000000" font-family="sans-serif" font-size="7" lengthAdjust="spacing" textLength="20" x="367" y="212.4775">Grade</text><line style="stroke:#181818;stroke-width:0.25;" x1="340" x2="401" y1="216.4609" y2="216.4609"/><line style="stroke:#181818;stroke-width:0.25;" x1="340" x2="401" y1="220.4609" y2="220.4609"/></g><!--class ApplicationFile--><g id="elem_ApplicationFile"><rect codeLine="18" fill="#F1F1F1" height="44.2813" id="ApplicationFile" rx="1.25" ry="1.25" style="stroke:#181818;stroke-width:0.25;" width="62" x="419" y="184"/><ellipse cx="426.5" cy="194.3203" fill="#ADD1B2" rx="5.5" ry="5.5" style="stroke:#181818;stroke-width:0.5;"/><path d="M427.8828,192.2578 Q427.9609,192.1484 428.0547,192.0938 Q428.1484,192.0391 428.2578,192.0391 Q428.4453,192.0391 428.5625,192.1719 Q428.6797,192.2969 428.6797,192.6016 L428.6797,193.3281 Q428.6797,193.6328 428.5625,193.7656 Q428.4453,193.8984 428.2578,193.8984 Q428.0859,193.8984 427.9844,193.7969 Q427.8828,193.7031 427.8281,193.4453 Q427.8047,193.2656 427.7109,193.1719 Q427.5469,192.9844 427.2422,192.875 Q426.9375,192.7656 426.625,192.7656 Q426.2422,192.7656 425.9219,192.9297 Q425.6094,193.0938 425.3594,193.4688 Q425.1172,193.8438 425.1172,194.3594 L425.1172,194.9063 Q425.1172,195.5234 425.5625,195.9375 Q426.0078,196.3438 426.8047,196.3438 Q427.2734,196.3438 427.6016,196.2188 Q427.7969,196.1406 428.0078,195.9219 Q428.1406,195.7891 428.2109,195.75 Q428.2891,195.7109 428.3906,195.7109 Q428.5547,195.7109 428.6797,195.8438 Q428.8125,195.9688 428.8125,196.1406 Q428.8125,196.3125 428.6406,196.5156 Q428.3906,196.8047 427.9922,196.9688 Q427.4531,197.1953 426.8047,197.1953 Q426.0469,197.1953 425.4453,196.8828 Q424.9531,196.6328 424.6094,196.1016 Q424.2656,195.5625 424.2656,194.9219 L424.2656,194.3438 Q424.2656,193.6797 424.5703,193.1094 Q424.8828,192.5313 425.4297,192.2266 Q425.9766,191.9141 426.5938,191.9141 Q426.9609,191.9141 427.2813,192 Q427.6094,192.0781 427.8828,192.2578 Z " fill="#000000"/><text fill="#000000" font-family="sans-serif" font-size="7" lengthAdjust="spacing" textLength="46" x="433.5" y="192.8369">&#171;value object&#187;</text><text fill="#000000" font-family="sans-serif" font-size="7" lengthAdjust="spacing" textLength="46" x="433.5" y="200.6572">ApplicationFile</text><line style="stroke:#181818;stroke-width:0.25;" x1="419.5" x2="480.5" y1="204.6406" y2="204.6406"/><text fill="#000000" font-family="sans-serif" font-size="7" lengthAdjust="spacing" textLength="49" x="422" y="212.9775">relativeFilePath</text><text fill="#000000" font-family="sans-serif" font-size="7" lengthAdjust="spacing" textLength="34" x="422" y="220.7979">fileContent</text><line style="stroke:#181818;stroke-width:0.25;" x1="419.5" x2="480.5" y1="224.2813" y2="224.2813"/></g><!--class Type--><g id="elem_Type"><rect codeLine="25" fill="#F1F1F1" height="28.6406" id="Type" rx="1.25" ry="1.25" style="stroke:#181818;stroke-width:0.25;" width="62" x="419" y="259"/><ellipse cx="426.5" cy="269.3203" fill="#ADD1B2" rx="5.5" ry="5.5" style="stroke:#181818;stroke-width:0.5;"/><path d="M427.8828,267.2578 Q427.9609,267.1484 428.0547,267.0938 Q428.1484,267.0391 428.2578,267.0391 Q428.4453,267.0391 428.5625,267.1719 Q428.6797,267.2969 428.6797,267.6016 L428.6797,268.3281 Q428.6797,268.6328 428.5625,268.7656 Q428.4453,268.8984 428.2578,268.8984 Q428.0859,268.8984 427.9844,268.7969 Q427.8828,268.7031 427.8281,268.4453 Q427.8047,268.2656 427.7109,268.1719 Q427.5469,267.9844 427.2422,267.875 Q426.9375,267.7656 426.625,267.7656 Q426.2422,267.7656 425.9219,267.9297 Q425.6094,268.0938 425.3594,268.4688 Q425.1172,268.8438 425.1172,269.3594 L425.1172,269.9063 Q425.1172,270.5234 425.5625,270.9375 Q426.0078,271.3438 426.8047,271.3438 Q427.2734,271.3438 427.6016,271.2188 Q427.7969,271.1406 428.0078,270.9219 Q428.1406,270.7891 428.2109,270.75 Q428.2891,270.7109 428.3906,270.7109 Q428.5547,270.7109 428.6797,270.8438 Q428.8125,270.9688 428.8125,271.1406 Q428.8125,271.3125 428.6406,271.5156 Q428.3906,271.8047 427.9922,271.9688 Q427.4531,272.1953 426.8047,272.1953 Q426.0469,272.1953 425.4453,271.8828 Q424.9531,271.6328 424.6094,271.1016 Q424.2656,270.5625 424.2656,269.9219 L424.2656,269.3438 Q424.2656,268.6797 424.5703,268.1094 Q424.8828,267.5313 425.4297,267.2266 Q425.9766,266.9141 426.5938,266.9141 Q426.9609,266.9141 427.2813,267 Q427.6094,267.0781 427.8828,267.2578 Z " fill="#000000"/><text fill="#000000" font-family="sans-serif" font-size="7" lengthAdjust="spacing" textLength="46" x="433.5" y="267.8369">&#171;value object&#187;</text><text fill="#000000" font-family="sans-serif" font-size="7" lengthAdjust="spacing" textLength="16" x="448.5" y="275.6572">Type</text><line style="stroke:#181818;stroke-width:0.25;" x1="419.5" x2="480.5" y1="279.6406" y2="279.6406"/><line style="stroke:#181818;stroke-width:0.25;" x1="419.5" x2="480.5" y1="283.6406" y2="283.6406"/></g><!--class Candidate--><g id="elem_Candidate"><rect codeLine="30" fill="#F1F1F1" height="36.4609" id="Candidate" rx="1.25" ry="1.25" style="stroke:#181818;stroke-width:0.25;" width="48.5" x="101.75" y="20"/><ellipse cx="109.25" cy="34.2305" fill="#ADD1B2" rx="5.5" ry="5.5" style="stroke:#181818;stroke-width:0.5;"/><path d="M110.6328,32.168 Q110.7109,32.0586 110.8047,32.0039 Q110.8984,31.9492 111.0078,31.9492 Q111.1953,31.9492 111.3125,32.082 Q111.4297,32.207 111.4297,32.5117 L111.4297,33.2383 Q111.4297,33.543 111.3125,33.6758 Q111.1953,33.8086 111.0078,33.8086 Q110.8359,33.8086 110.7344,33.707 Q110.6328,33.6133 110.5781,33.3555 Q110.5547,33.1758 110.4609,33.082 Q110.2969,32.8945 109.9922,32.7852 Q109.6875,32.6758 109.375,32.6758 Q108.9922,32.6758 108.6719,32.8398 Q108.3594,33.0039 108.1094,33.3789 Q107.8672,33.7539 107.8672,34.2695 L107.8672,34.8164 Q107.8672,35.4336 108.3125,35.8477 Q108.7578,36.2539 109.5547,36.2539 Q110.0234,36.2539 110.3516,36.1289 Q110.5469,36.0508 110.7578,35.832 Q110.8906,35.6992 110.9609,35.6602 Q111.0391,35.6211 111.1406,35.6211 Q111.3047,35.6211 111.4297,35.7539 Q111.5625,35.8789 111.5625,36.0508 Q111.5625,36.2227 111.3906,36.4258 Q111.1406,36.7148 110.7422,36.8789 Q110.2031,37.1055 109.5547,37.1055 Q108.7969,37.1055 108.1953,36.793 Q107.7031,36.543 107.3594,36.0117 Q107.0156,35.4727 107.0156,34.832 L107.0156,34.2539 Q107.0156,33.5898 107.3203,33.0195 Q107.6328,32.4414 108.1797,32.1367 Q108.7266,31.8242 109.3438,31.8242 Q109.7109,31.8242 110.0313,31.9102 Q110.3594,31.9883 110.6328,32.168 Z " fill="#000000"/><text fill="#000000" font-family="sans-serif" font-size="7" lengthAdjust="spacing" textLength="20.5" x="122.25" y="28.8369">&#171;root&#187;</text><text fill="#000000" font-family="sans-serif" font-size="7" lengthAdjust="spacing" textLength="25" x="120" y="36.6572">&#171;entity&#187;</text><text fill="#000000" font-family="sans-serif" font-size="7" lengthAdjust="spacing" textLength="32.5" x="116.25" y="44.4775">Candidate</text><line style="stroke:#181818;stroke-width:0.25;" x1="102.25" x2="149.75" y1="48.4609" y2="48.4609"/><line style="stroke:#181818;stroke-width:0.25;" x1="102.25" x2="149.75" y1="52.4609" y2="52.4609"/></g><!--class Name2--><g id="elem_Name2"><rect codeLine="34" fill="#F1F1F1" height="44.2813" id="Name2" rx="1.25" ry="1.25" style="stroke:#181818;stroke-width:0.25;" width="62" x="11" y="100.5"/><ellipse cx="18.5" cy="110.8203" fill="#ADD1B2" rx="5.5" ry="5.5" style="stroke:#181818;stroke-width:0.5;"/><path d="M19.8828,108.7578 Q19.9609,108.6484 20.0547,108.5938 Q20.1484,108.5391 20.2578,108.5391 Q20.4453,108.5391 20.5625,108.6719 Q20.6797,108.7969 20.6797,109.1016 L20.6797,109.8281 Q20.6797,110.1328 20.5625,110.2656 Q20.4453,110.3984 20.2578,110.3984 Q20.0859,110.3984 19.9844,110.2969 Q19.8828,110.2031 19.8281,109.9453 Q19.8047,109.7656 19.7109,109.6719 Q19.5469,109.4844 19.2422,109.375 Q18.9375,109.2656 18.625,109.2656 Q18.2422,109.2656 17.9219,109.4297 Q17.6094,109.5938 17.3594,109.9688 Q17.1172,110.3438 17.1172,110.8594 L17.1172,111.4063 Q17.1172,112.0234 17.5625,112.4375 Q18.0078,112.8438 18.8047,112.8438 Q19.2734,112.8438 19.6016,112.7188 Q19.7969,112.6406 20.0078,112.4219 Q20.1406,112.2891 20.2109,112.25 Q20.2891,112.2109 20.3906,112.2109 Q20.5547,112.2109 20.6797,112.3438 Q20.8125,112.4688 20.8125,112.6406 Q20.8125,112.8125 20.6406,113.0156 Q20.3906,113.3047 19.9922,113.4688 Q19.4531,113.6953 18.8047,113.6953 Q18.0469,113.6953 17.4453,113.3828 Q16.9531,113.1328 16.6094,112.6016 Q16.2656,112.0625 16.2656,111.4219 L16.2656,110.8438 Q16.2656,110.1797 16.5703,109.6094 Q16.8828,109.0313 17.4297,108.7266 Q17.9766,108.4141 18.5938,108.4141 Q18.9609,108.4141 19.2813,108.5 Q19.6094,108.5781 19.8828,108.7578 Z " fill="#000000"/><text fill="#000000" font-family="sans-serif" font-size="7" lengthAdjust="spacing" textLength="46" x="25.5" y="109.3369">&#171;value object&#187;</text><text fill="#000000" font-family="sans-serif" font-size="7" lengthAdjust="spacing" textLength="18" x="39.5" y="117.1572">Name</text><line style="stroke:#181818;stroke-width:0.25;" x1="11.5" x2="72.5" y1="121.1406" y2="121.1406"/><text fill="#000000" font-family="sans-serif" font-size="7" lengthAdjust="spacing" textLength="29.5" x="14" y="129.4775">firstName</text><text fill="#000000" font-family="sans-serif" font-size="7" lengthAdjust="spacing" textLength="29" x="14" y="137.2979">lastName</text><line style="stroke:#181818;stroke-width:0.25;" x1="11.5" x2="72.5" y1="140.7813" y2="140.7813"/></g><!--class PhoneNumber--><g id="elem_PhoneNumber"><rect codeLine="39" fill="#F1F1F1" height="28.6406" id="PhoneNumber" rx="1.25" ry="1.25" style="stroke:#181818;stroke-width:0.25;" width="62" x="11" y="24"/><ellipse cx="18.5" cy="34.3203" fill="#ADD1B2" rx="5.5" ry="5.5" style="stroke:#181818;stroke-width:0.5;"/><path d="M19.8828,32.2578 Q19.9609,32.1484 20.0547,32.0938 Q20.1484,32.0391 20.2578,32.0391 Q20.4453,32.0391 20.5625,32.1719 Q20.6797,32.2969 20.6797,32.6016 L20.6797,33.3281 Q20.6797,33.6328 20.5625,33.7656 Q20.4453,33.8984 20.2578,33.8984 Q20.0859,33.8984 19.9844,33.7969 Q19.8828,33.7031 19.8281,33.4453 Q19.8047,33.2656 19.7109,33.1719 Q19.5469,32.9844 19.2422,32.875 Q18.9375,32.7656 18.625,32.7656 Q18.2422,32.7656 17.9219,32.9297 Q17.6094,33.0938 17.3594,33.4688 Q17.1172,33.8438 17.1172,34.3594 L17.1172,34.9063 Q17.1172,35.5234 17.5625,35.9375 Q18.0078,36.3438 18.8047,36.3438 Q19.2734,36.3438 19.6016,36.2188 Q19.7969,36.1406 20.0078,35.9219 Q20.1406,35.7891 20.2109,35.75 Q20.2891,35.7109 20.3906,35.7109 Q20.5547,35.7109 20.6797,35.8438 Q20.8125,35.9688 20.8125,36.1406 Q20.8125,36.3125 20.6406,36.5156 Q20.3906,36.8047 19.9922,36.9688 Q19.4531,37.1953 18.8047,37.1953 Q18.0469,37.1953 17.4453,36.8828 Q16.9531,36.6328 16.6094,36.1016 Q16.2656,35.5625 16.2656,34.9219 L16.2656,34.3438 Q16.2656,33.6797 16.5703,33.1094 Q16.8828,32.5313 17.4297,32.2266 Q17.9766,31.9141 18.5938,31.9141 Q18.9609,31.9141 19.2813,32 Q19.6094,32.0781 19.8828,32.2578 Z " fill="#000000"/><text fill="#000000" font-family="sans-serif" font-size="7" lengthAdjust="spacing" textLength="46" x="25.5" y="32.8369">&#171;value object&#187;</text><text fill="#000000" font-family="sans-serif" font-size="7" lengthAdjust="spacing" textLength="45" x="26" y="40.6572">PhoneNumber</text><line style="stroke:#181818;stroke-width:0.25;" x1="11.5" x2="72.5" y1="44.6406" y2="44.6406"/><line style="stroke:#181818;stroke-width:0.25;" x1="11.5" x2="72.5" y1="48.6406" y2="48.6406"/></g><!--class EMail2--><g id="elem_EMail2"><rect codeLine="42" fill="#F1F1F1" height="36.4609" id="EMail2" rx="1.25" ry="1.25" style="stroke:#181818;stroke-width:0.25;" width="62" x="90.5" y="104.5"/><ellipse cx="98" cy="118.7305" fill="#ADD1B2" rx="5.5" ry="5.5" style="stroke:#181818;stroke-width:0.5;"/><path d="M99.3828,116.668 Q99.4609,116.5586 99.5547,116.5039 Q99.6484,116.4492 99.7578,116.4492 Q99.9453,116.4492 100.0625,116.582 Q100.1797,116.707 100.1797,117.0117 L100.1797,117.7383 Q100.1797,118.043 100.0625,118.1758 Q99.9453,118.3086 99.7578,118.3086 Q99.5859,118.3086 99.4844,118.207 Q99.3828,118.1133 99.3281,117.8555 Q99.3047,117.6758 99.2109,117.582 Q99.0469,117.3945 98.7422,117.2852 Q98.4375,117.1758 98.125,117.1758 Q97.7422,117.1758 97.4219,117.3398 Q97.1094,117.5039 96.8594,117.8789 Q96.6172,118.2539 96.6172,118.7695 L96.6172,119.3164 Q96.6172,119.9336 97.0625,120.3477 Q97.5078,120.7539 98.3047,120.7539 Q98.7734,120.7539 99.1016,120.6289 Q99.2969,120.5508 99.5078,120.332 Q99.6406,120.1992 99.7109,120.1602 Q99.7891,120.1211 99.8906,120.1211 Q100.0547,120.1211 100.1797,120.2539 Q100.3125,120.3789 100.3125,120.5508 Q100.3125,120.7227 100.1406,120.9258 Q99.8906,121.2148 99.4922,121.3789 Q98.9531,121.6055 98.3047,121.6055 Q97.5469,121.6055 96.9453,121.293 Q96.4531,121.043 96.1094,120.5117 Q95.7656,119.9727 95.7656,119.332 L95.7656,118.7539 Q95.7656,118.0898 96.0703,117.5195 Q96.3828,116.9414 96.9297,116.6367 Q97.4766,116.3242 98.0938,116.3242 Q98.4609,116.3242 98.7813,116.4102 Q99.1094,116.4883 99.3828,116.668 Z " fill="#000000"/><text fill="#000000" font-family="sans-serif" font-size="7" lengthAdjust="spacing" textLength="46" x="105" y="113.3369">&#171;value object&#187;</text><text fill="#000000" font-family="sans-serif" font-size="7" lengthAdjust="spacing" textLength="35" x="110.5" y="121.1572">&#171;identifier&#187;</text><text fill="#000000" font-family="sans-serif" font-size="7" lengthAdjust="spacing" textLength="19.5" x="118.25" y="128.9775">E-Mail</text><line style="stroke:#181818;stroke-width:0.25;" x1="91" x2="152" y1="132.9609" y2="132.9609"/><line style="stroke:#181818;stroke-width:0.25;" x1="91" x2="152" y1="136.9609" y2="136.9609"/></g><!--reverse link Candidate to JobApplication--><g id="link_Candidate_JobApplication"><path codeLine="47" d="M153.0218,52.4245 C182.2018,67.1895 228.45,90.595 260.225,106.675 " fill="none" id="Candidate-backto-JobApplication" style="stroke:#181818;stroke-width:0.5;"/><polygon fill="#181818" points="150.345,51.07,153.4573,54.8863,152.5757,52.1987,155.2632,51.3171,150.345,51.07" style="stroke:#181818;stroke-width:0.5;"/><text fill="#000000" font-family="sans-serif" font-size="6.5" lengthAdjust="spacing" textLength="23.5" x="204" y="77.8843">refers to</text><text fill="#000000" font-family="sans-serif" font-size="6.5" lengthAdjust="spacing" textLength="3.5" x="154.1777" y="51.3452">1</text><text fill="#000000" font-family="sans-serif" font-size="6.5" lengthAdjust="spacing" textLength="3.5" x="252.761" y="103.1919">1</text></g><!--link Candidate to Name2--><g id="link_Candidate_Name2"><path codeLine="48" d="M107.98,56.665 C95.11,69.455 79.8475,84.6299 66.1525,98.2449 " fill="none" id="Candidate-to-Name2" style="stroke:#181818;stroke-width:0.5;"/><polygon fill="#181818" points="64.025,100.36,68.6264,98.6057,65.7979,98.5974,65.8062,95.769,64.025,100.36" style="stroke:#181818;stroke-width:0.5;"/><text fill="#000000" font-family="sans-serif" font-size="6.5" lengthAdjust="spacing" textLength="10.5" x="92.5" y="77.8843">has</text></g><!--link Candidate to EMail2--><g id="link_Candidate_EMail2"><path codeLine="49" d="M125.035,56.665 C124.275,70.75 123.3867,87.2894 122.6267,101.3694 " fill="none" id="Candidate-to-EMail2" style="stroke:#181818;stroke-width:0.5;"/><polygon fill="#181818" points="122.465,104.365,124.7046,99.9793,122.5997,101.8686,120.7105,99.7637,122.465,104.365" style="stroke:#181818;stroke-width:0.5;"/><text fill="#000000" font-family="sans-serif" font-size="6.5" lengthAdjust="spacing" textLength="34.5" x="124.5" y="77.8843">identified by</text><text fill="#000000" font-family="sans-serif" font-size="6.5" lengthAdjust="spacing" textLength="3.5" x="121.0684" y="66.3418">1</text><text fill="#000000" font-family="sans-serif" font-size="6.5" lengthAdjust="spacing" textLength="3.5" x="118.8154" y="99.1061">1</text></g><!--reverse link PhoneNumber to Candidate--><g id="link_PhoneNumber_Candidate"><path codeLine="50" d="M76.04,38.25 C85.48,38.25 92.715,38.25 101.65,38.25 " fill="none" id="PhoneNumber-backto-Candidate" style="stroke:#181818;stroke-width:0.5;"/><polygon fill="#181818" points="73.04,38.25,77.54,40.25,75.54,38.25,77.54,36.25,73.04,38.25" style="stroke:#181818;stroke-width:0.5;"/><text fill="#000000" font-family="sans-serif" font-size="6.5" lengthAdjust="spacing" textLength="10.5" x="82.125" y="35.1343">has</text><text fill="#000000" font-family="sans-serif" font-size="6.5" lengthAdjust="spacing" textLength="3.5" x="77.0363" y="36.7151">1</text><text fill="#000000" font-family="sans-serif" font-size="6.5" lengthAdjust="spacing" textLength="3.5" x="94.3166" y="36.6423">1</text></g><!--link JobApplication to ID--><g id="link_JobApplication_ID"><path codeLine="53" d="M291,141.15 C291,154.99 291,171.055 291,184.885 " fill="none" id="JobApplication-to-ID" style="stroke:#181818;stroke-width:0.5;"/><polygon fill="#181818" points="291,187.885,293,183.385,291,185.385,289,183.385,291,187.885" style="stroke:#181818;stroke-width:0.5;"/><text fill="#000000" font-family="sans-serif" font-size="6.5" lengthAdjust="spacing" textLength="34.5" x="291.5" y="167.3843">identified by</text><text fill="#000000" font-family="sans-serif" font-size="6.5" lengthAdjust="spacing" textLength="3.5" x="287.1992" y="150.8242">1</text><text fill="#000000" font-family="sans-serif" font-size="6.5" lengthAdjust="spacing" textLength="3.5" x="287.1664" y="182.6299">1</text></g><!--link JobApplication to ApplicationFile--><g id="link_JobApplication_ApplicationFile"><path codeLine="54" d="M321.875,138.525 C346.105,150.615 380.625,168.06 410.5,184 C413.265,185.475 413.4883,185.5889 416.3533,187.1439 " fill="none" id="JobApplication-to-ApplicationFile" style="stroke:#181818;stroke-width:0.5;"/><polygon fill="#181818" points="418.99,188.575,415.989,184.6706,416.7928,187.3824,414.0809,188.1862,418.99,188.575" style="stroke:#181818;stroke-width:0.5;"/><text fill="#000000" font-family="sans-serif" font-size="6.5" lengthAdjust="spacing" textLength="3.5" x="325.8512" y="138.9236">1</text><text fill="#000000" font-family="sans-serif" font-size="6.5" lengthAdjust="spacing" textLength="10" x="405.0514" y="185.1695">1..*</text></g><!--link ApplicationFile to Type--><g id="link_ApplicationFile_Type"><path codeLine="55" d="M450,228.545 C450,238.53 450,247.075 450,255.86 " fill="none" id="ApplicationFile-to-Type" style="stroke:#181818;stroke-width:0.5;"/><polygon fill="#181818" points="450,258.86,452,254.36,450,256.36,448,254.36,450,258.86" style="stroke:#181818;stroke-width:0.5;"/><text fill="#000000" font-family="sans-serif" font-size="6.5" lengthAdjust="spacing" textLength="3.5" x="446.2539" y="238.0905">1</text><text fill="#000000" font-family="sans-serif" font-size="6.5" lengthAdjust="spacing" textLength="3.5" x="446.0953" y="253.6212">1</text></g><!--link JobApplication to Grade--><g id="link_JobApplication_Grade"><path codeLine="56" d="M310.18,141.005 C316.735,147.22 324.035,154.32 330.5,161 C338.83,169.615 345.7688,177.2672 353.0638,185.5622 " fill="none" id="JobApplication-to-Grade" style="stroke:#181818;stroke-width:0.5;"/><polygon fill="#181818" points="355.045,187.815,353.5751,183.1151,353.394,185.9377,350.5714,185.7566,355.045,187.815" style="stroke:#181818;stroke-width:0.5;"/><text fill="#000000" font-family="sans-serif" font-size="6.5" lengthAdjust="spacing" textLength="24" x="337.5" y="167.3843">includes</text><text fill="#000000" font-family="sans-serif" font-size="6.5" lengthAdjust="spacing" textLength="11" x="340.1814" y="182.6827">0..1</text></g><!--link JobApplication to Status--><g id="link_JobApplication_Status"><path codeLine="57" d="M273.75,141.15 C259.045,156.41 240.2964,175.8645 226.8614,189.8095 " fill="none" id="JobApplication-to-Status" style="stroke:#181818;stroke-width:0.5;"/><polygon fill="#181818" points="224.78,191.97,229.3425,190.1169,226.5145,190.1696,226.4619,187.3417,224.78,191.97" style="stroke:#181818;stroke-width:0.5;"/><text fill="#000000" font-family="sans-serif" font-size="6.5" lengthAdjust="spacing" textLength="10.5" x="254" y="167.3843">has</text><text fill="#000000" font-family="sans-serif" font-size="6.5" lengthAdjust="spacing" textLength="3.5" x="266.9844" y="150.8242">1</text><text fill="#000000" font-family="sans-serif" font-size="6.5" lengthAdjust="spacing" textLength="3.5" x="224.0904" y="186.5352">1</text></g><!--SRC=[dPFDQiCm3CVlVWhZos2GTDinZC7O5nsi5BRZBchifjwSEDXEeOG-KHzXjpxPR2LBax3l48Waw_-JvDX7A-TAcqmcfOB2LRcAKvrFKWNMHbn2PY0d_YaXVOLCK7Ql5vTbgMGAJkg2NcQP4HaumMf2_OD2olOxexNRlpqN-vqed7IRO0-rZ8Abmr1D4B8TejQWAa7ruaMaY7nqu2gByiQiMnL-ljRjTvA7PfPIcE1FEJAcrut-0_2DFWMLLifFouD_Pu0BHA1LU_ttWDwajr8rqb6iQSK8NqIkHOZCmQqmkFJEbIwS7u4Gyfk6dpPbKoGO7vkqxVtCAoYuv7wUl_t7JeRmpgj_rzKCyaOOZ3FQRZuEQAmBmIxY4OV0JzpvIXTYLkKBOH3Vy_zvG6wY1v0AOJV1EZiS5FyUDe-TCdeUHVWTtO_4YAKmbZhTou-YYtRuXAx03ab-CN2QWZJfEk9qiI6zcKBkUHHI3_8aq0WPtREEERts1OV0KRiXAtJ7JkFuc8qF9ndvlNI6PsoCmxMJEFRBU4L2-I9L5HVsayfjbysTRhU6l0C0]--></g></svg>