<?xml version="1.0" encoding="us-ascii" standalone="no"?><svg xmlns="http://www.w3.org/2000/svg" xmlns:xlink="http://www.w3.org/1999/xlink" contentStyleType="text/css" height="917px" preserveAspectRatio="none" style="width:1701px;height:917px;background:#FFFFFF;" version="1.1" viewBox="0 0 1701 917" width="1701px" zoomAndPan="magnify"><defs/><g><text fill="#000000" font-family="sans-serif" font-size="14" font-weight="bold" lengthAdjust="spacing" textLength="1200" x="252.25" y="27.6738">"US 1019 - As Customer Manager, I want to get an ordered list of candidates, using the job interview points (grades), to help me analyze the candidates" Sequence Diagram</text><rect fill="#FFFFFF" height="692.2734" style="stroke:#181818;stroke-width:1.0;" width="10" x="63.5" y="127.2813"/><rect fill="#FFFFFF" height="215.8984" style="stroke:#181818;stroke-width:1.0;" width="10" x="469.5" y="147.8047"/><rect fill="#FFFFFF" height="427.3281" style="stroke:#181818;stroke-width:1.0;" width="10" x="469.5" y="392.2266"/><rect fill="#FFFFFF" height="85.5703" style="stroke:#181818;stroke-width:1.0;" width="10" x="840.5" y="249.6094"/><rect fill="#FFFFFF" height="230.1875" style="stroke:#181818;stroke-width:1.0;" width="10" x="840.5" y="420.75"/><rect fill="#FFFFFF" height="70.0469" style="stroke:#181818;stroke-width:1.0;" width="10" x="840.5" y="679.4609"/><rect fill="#FFFFFF" height="28.5234" style="stroke:#181818;stroke-width:1.0;" width="10" x="1189.5" y="278.1328"/><rect fill="#FFFFFF" height="28.5234" style="stroke:#181818;stroke-width:1.0;" width="10" x="1473" y="449.2734"/><rect fill="#FFFFFF" height="28.5234" style="stroke:#181818;stroke-width:1.0;" width="10" x="1626" y="529.8438"/><rect fill="#FFFFFF" height="28.5234" style="stroke:#181818;stroke-width:1.0;" width="10" x="1626" y="586.8906"/><rect fill="none" height="130.6172" style="stroke:#000000;stroke-width:1.5;" width="978.5" x="717" y="492.7969"/><line style="stroke:#181818;stroke-width:0.5;stroke-dasharray:5.0,5.0;" x1="68" x2="68" y1="117.2813" y2="837.5547"/><line style="stroke:#181818;stroke-width:0.5;stroke-dasharray:5.0,5.0;" x1="474" x2="474" y1="117.2813" y2="837.5547"/><line style="stroke:#181818;stroke-width:0.5;stroke-dasharray:5.0,5.0;" x1="845" x2="845" y1="202.4453" y2="837.5547"/><line style="stroke:#181818;stroke-width:0.5;stroke-dasharray:5.0,5.0;" x1="1194.5" x2="1194.5" y1="117.2813" y2="837.5547"/><line style="stroke:#181818;stroke-width:0.5;stroke-dasharray:5.0,5.0;" x1="1332.5" x2="1332.5" y1="117.2813" y2="837.5547"/><line style="stroke:#181818;stroke-width:0.5;stroke-dasharray:5.0,5.0;" x1="1477.5" x2="1477.5" y1="117.2813" y2="837.5547"/><line style="stroke:#181818;stroke-width:0.5;stroke-dasharray:5.0,5.0;" x1="1630.5" x2="1630.5" y1="117.2813" y2="837.5547"/><text fill="#000000" font-family="sans-serif" font-size="14" lengthAdjust="spacing" textLength="121" x="5" y="114.3145">Customer Manager</text><ellipse cx="68.5" cy="50.1406" fill="#E3E3E3" rx="8" ry="8" style="stroke:#181818;stroke-width:0.5;"/><path d="M68.5,58.1406 L68.5,85.1406 M55.5,66.1406 L81.5,66.1406 M68.5,85.1406 L55.5,100.1406 M68.5,85.1406 L81.5,100.1406 " fill="none" style="stroke:#181818;stroke-width:0.5;"/><text fill="#000000" font-family="sans-serif" font-size="14" lengthAdjust="spacing" textLength="121" x="5" y="849.2285">Customer Manager</text><ellipse cx="68.5" cy="860.6953" fill="#E3E3E3" rx="8" ry="8" style="stroke:#181818;stroke-width:0.5;"/><path d="M68.5,868.6953 L68.5,895.6953 M55.5,876.6953 L81.5,876.6953 M68.5,895.6953 L55.5,910.6953 M68.5,895.6953 L81.5,910.6953 " fill="none" style="stroke:#181818;stroke-width:0.5;"/><rect fill="#E3E3E3" height="45.2813" rx="2.5" ry="2.5" style="stroke:#181818;stroke-width:0.5;" width="195" x="377" y="71"/><text fill="#000000" font-family="sans-serif" font-size="14" font-style="italic" lengthAdjust="spacing" textLength="95" x="427" y="90.6738">&#171;presentation&#187;</text><text fill="#000000" font-family="sans-serif" font-size="14" lengthAdjust="spacing" textLength="181" x="384" y="106.3145">:OrderCandidatesByGradeUI</text><rect fill="#E3E3E3" height="45.2813" rx="2.5" ry="2.5" style="stroke:#181818;stroke-width:0.5;" width="195" x="377" y="836.5547"/><text fill="#000000" font-family="sans-serif" font-size="14" font-style="italic" lengthAdjust="spacing" textLength="95" x="427" y="856.2285">&#171;presentation&#187;</text><text fill="#000000" font-family="sans-serif" font-size="14" lengthAdjust="spacing" textLength="181" x="384" y="871.8691">:OrderCandidatesByGradeUI</text><text fill="#000000" font-family="sans-serif" font-size="14" font-style="italic" lengthAdjust="spacing" textLength="84" x="800.5" y="849.2285">&#171;application&#187;</text><text fill="#000000" font-family="sans-serif" font-size="14" lengthAdjust="spacing" textLength="231" x="727" y="864.8691">:OrderCandidatesByGradeController</text><ellipse cx="845.5" cy="883.8359" fill="#E3E3E3" rx="12" ry="12" style="stroke:#181818;stroke-width:0.5;"/><polygon fill="#181818" points="841.5,871.8359,847.5,866.8359,845.5,871.8359,847.5,876.8359,841.5,871.8359" style="stroke:#181818;stroke-width:1.0;"/><rect fill="#E3E3E3" height="45.2813" rx="2.5" ry="2.5" style="stroke:#181818;stroke-width:0.5;" width="162" x="1113.5" y="71"/><text fill="#000000" font-family="sans-serif" font-size="14" font-style="italic" lengthAdjust="spacing" textLength="79" x="1155" y="90.6738">&#171;repository&#187;</text><text fill="#000000" font-family="sans-serif" font-size="14" lengthAdjust="spacing" textLength="148" x="1120.5" y="106.3145">:JobOpeningRepository</text><rect fill="#E3E3E3" height="45.2813" rx="2.5" ry="2.5" style="stroke:#181818;stroke-width:0.5;" width="162" x="1113.5" y="836.5547"/><text fill="#000000" font-family="sans-serif" font-size="14" font-style="italic" lengthAdjust="spacing" textLength="79" x="1155" y="856.2285">&#171;repository&#187;</text><text fill="#000000" font-family="sans-serif" font-size="14" lengthAdjust="spacing" textLength="148" x="1120.5" y="871.8691">:JobOpeningRepository</text><rect fill="#E3E3E3" height="45.2813" rx="2.5" ry="2.5" style="stroke:#181818;stroke-width:0.5;" width="94" x="1285.5" y="71"/><text fill="#000000" font-family="sans-serif" font-size="14" font-style="italic" lengthAdjust="spacing" textLength="62" x="1301.5" y="90.6738">&#171;domain&#187;</text><text fill="#000000" font-family="sans-serif" font-size="14" lengthAdjust="spacing" textLength="80" x="1292.5" y="106.3145">:JobOpening</text><rect fill="#E3E3E3" height="45.2813" rx="2.5" ry="2.5" style="stroke:#181818;stroke-width:0.5;" width="94" x="1285.5" y="836.5547"/><text fill="#000000" font-family="sans-serif" font-size="14" font-style="italic" lengthAdjust="spacing" textLength="62" x="1301.5" y="856.2285">&#171;domain&#187;</text><text fill="#000000" font-family="sans-serif" font-size="14" lengthAdjust="spacing" textLength="80" x="1292.5" y="871.8691">:JobOpening</text><rect fill="#E3E3E3" height="45.2813" rx="2.5" ry="2.5" style="stroke:#181818;stroke-width:0.5;" width="177" x="1389.5" y="71"/><text fill="#000000" font-family="sans-serif" font-size="14" font-style="italic" lengthAdjust="spacing" textLength="79" x="1438.5" y="90.6738">&#171;repository&#187;</text><text fill="#000000" font-family="sans-serif" font-size="14" lengthAdjust="spacing" textLength="163" x="1396.5" y="106.3145">:JobApplicationRepository</text><rect fill="#E3E3E3" height="45.2813" rx="2.5" ry="2.5" style="stroke:#181818;stroke-width:0.5;" width="177" x="1389.5" y="836.5547"/><text fill="#000000" font-family="sans-serif" font-size="14" font-style="italic" lengthAdjust="spacing" textLength="79" x="1438.5" y="856.2285">&#171;repository&#187;</text><text fill="#000000" font-family="sans-serif" font-size="14" lengthAdjust="spacing" textLength="163" x="1396.5" y="871.8691">:JobApplicationRepository</text><rect fill="#E3E3E3" height="45.2813" rx="2.5" ry="2.5" style="stroke:#181818;stroke-width:0.5;" width="109" x="1576.5" y="71"/><text fill="#000000" font-family="sans-serif" font-size="14" font-style="italic" lengthAdjust="spacing" textLength="62" x="1600" y="90.6738">&#171;domain&#187;</text><text fill="#000000" font-family="sans-serif" font-size="14" lengthAdjust="spacing" textLength="95" x="1583.5" y="106.3145">:JobApplication</text><rect fill="#E3E3E3" height="45.2813" rx="2.5" ry="2.5" style="stroke:#181818;stroke-width:0.5;" width="109" x="1576.5" y="836.5547"/><text fill="#000000" font-family="sans-serif" font-size="14" font-style="italic" lengthAdjust="spacing" textLength="62" x="1600" y="856.2285">&#171;domain&#187;</text><text fill="#000000" font-family="sans-serif" font-size="14" lengthAdjust="spacing" textLength="95" x="1583.5" y="871.8691">:JobApplication</text><rect fill="#FFFFFF" height="692.2734" style="stroke:#181818;stroke-width:1.0;" width="10" x="63.5" y="127.2813"/><rect fill="#FFFFFF" height="215.8984" style="stroke:#181818;stroke-width:1.0;" width="10" x="469.5" y="147.8047"/><rect fill="#FFFFFF" height="427.3281" style="stroke:#181818;stroke-width:1.0;" width="10" x="469.5" y="392.2266"/><rect fill="#FFFFFF" height="85.5703" style="stroke:#181818;stroke-width:1.0;" width="10" x="840.5" y="249.6094"/><rect fill="#FFFFFF" height="230.1875" style="stroke:#181818;stroke-width:1.0;" width="10" x="840.5" y="420.75"/><rect fill="#FFFFFF" height="70.0469" style="stroke:#181818;stroke-width:1.0;" width="10" x="840.5" y="679.4609"/><rect fill="#FFFFFF" height="28.5234" style="stroke:#181818;stroke-width:1.0;" width="10" x="1189.5" y="278.1328"/><rect fill="#FFFFFF" height="28.5234" style="stroke:#181818;stroke-width:1.0;" width="10" x="1473" y="449.2734"/><rect fill="#FFFFFF" height="28.5234" style="stroke:#181818;stroke-width:1.0;" width="10" x="1626" y="529.8438"/><rect fill="#FFFFFF" height="28.5234" style="stroke:#181818;stroke-width:1.0;" width="10" x="1626" y="586.8906"/><polygon fill="#181818" points="457.5,143.8047,467.5,147.8047,457.5,151.8047,461.5,147.8047" style="stroke:#181818;stroke-width:1.0;"/><line style="stroke:#181818;stroke-width:1.0;" x1="73.5" x2="463.5" y1="147.8047" y2="147.8047"/><text fill="#000000" font-family="sans-serif" font-size="13" font-weight="bold" lengthAdjust="spacing" textLength="7" x="80.5" y="143.0498">1</text><text fill="#000000" font-family="sans-serif" font-size="13" lengthAdjust="spacing" textLength="366" x="91.5" y="143.0498">asks to ordered list of candidates, using the job interview points</text><polygon fill="#181818" points="715,172.3281,725,176.3281,715,180.3281,719,176.3281" style="stroke:#181818;stroke-width:1.0;"/><line style="stroke:#181818;stroke-width:1.0;" x1="479.5" x2="721" y1="176.3281" y2="176.3281"/><text fill="#000000" font-family="sans-serif" font-size="13" font-weight="bold" lengthAdjust="spacing" textLength="7" x="486.5" y="171.5732">2</text><text fill="#000000" font-family="sans-serif" font-size="13" lengthAdjust="spacing" textLength="36" x="497.5" y="171.5732">create</text><text fill="#000000" font-family="sans-serif" font-size="14" font-style="italic" lengthAdjust="spacing" textLength="84" x="800.5" y="200.4785">&#171;application&#187;</text><text fill="#000000" font-family="sans-serif" font-size="14" lengthAdjust="spacing" textLength="231" x="727" y="216.1191">:OrderCandidatesByGradeController</text><ellipse cx="845.5" cy="171.8047" fill="#E3E3E3" rx="12" ry="12" style="stroke:#181818;stroke-width:0.5;"/><polygon fill="#181818" points="841.5,159.8047,847.5,154.8047,845.5,159.8047,847.5,164.8047,841.5,159.8047" style="stroke:#181818;stroke-width:1.0;"/><polygon fill="#181818" points="828.5,245.6094,838.5,249.6094,828.5,253.6094,832.5,249.6094" style="stroke:#181818;stroke-width:1.0;"/><line style="stroke:#181818;stroke-width:1.0;" x1="479.5" x2="834.5" y1="249.6094" y2="249.6094"/><text fill="#000000" font-family="sans-serif" font-size="13" font-weight="bold" lengthAdjust="spacing" textLength="7" x="486.5" y="244.8545">3</text><text fill="#000000" font-family="sans-serif" font-size="13" lengthAdjust="spacing" textLength="253" x="497.5" y="244.8545">allActiveJobOpeningsByCustomerManager()</text><polygon fill="#181818" points="1177.5,274.1328,1187.5,278.1328,1177.5,282.1328,1181.5,278.1328" style="stroke:#181818;stroke-width:1.0;"/><line style="stroke:#181818;stroke-width:1.0;" x1="850.5" x2="1183.5" y1="278.1328" y2="278.1328"/><text fill="#000000" font-family="sans-serif" font-size="13" font-weight="bold" lengthAdjust="spacing" textLength="7" x="857.5" y="273.3779">4</text><text fill="#000000" font-family="sans-serif" font-size="13" lengthAdjust="spacing" textLength="253" x="868.5" y="273.3779">allActiveJobOpeningsByCustomerManager()</text><polygon fill="#181818" points="861.5,302.6563,851.5,306.6563,861.5,310.6563,857.5,306.6563" style="stroke:#181818;stroke-width:1.0;"/><line style="stroke:#181818;stroke-width:1.0;stroke-dasharray:2.0,2.0;" x1="855.5" x2="1193.5" y1="306.6563" y2="306.6563"/><text fill="#000000" font-family="sans-serif" font-size="13" font-weight="bold" lengthAdjust="spacing" textLength="7" x="867.5" y="301.9014">5</text><text fill="#000000" font-family="sans-serif" font-size="13" lengthAdjust="spacing" textLength="73" x="878.5" y="301.9014">job openings</text><polygon fill="#181818" points="490.5,331.1797,480.5,335.1797,490.5,339.1797,486.5,335.1797" style="stroke:#181818;stroke-width:1.0;"/><line style="stroke:#181818;stroke-width:1.0;stroke-dasharray:2.0,2.0;" x1="484.5" x2="844.5" y1="335.1797" y2="335.1797"/><text fill="#000000" font-family="sans-serif" font-size="13" font-weight="bold" lengthAdjust="spacing" textLength="7" x="496.5" y="330.4248">6</text><text fill="#000000" font-family="sans-serif" font-size="13" lengthAdjust="spacing" textLength="155" x="507.5" y="330.4248">Display list of job openings</text><polygon fill="#181818" points="84.5,359.7031,74.5,363.7031,84.5,367.7031,80.5,363.7031" style="stroke:#181818;stroke-width:1.0;"/><line style="stroke:#181818;stroke-width:1.0;stroke-dasharray:2.0,2.0;" x1="78.5" x2="473.5" y1="363.7031" y2="363.7031"/><text fill="#000000" font-family="sans-serif" font-size="13" font-weight="bold" lengthAdjust="spacing" textLength="7" x="90.5" y="358.9482">7</text><text fill="#000000" font-family="sans-serif" font-size="13" lengthAdjust="spacing" textLength="324" x="101.5" y="358.9482">shows list of all the job openings and asks to select one</text><polygon fill="#181818" points="457.5,388.2266,467.5,392.2266,457.5,396.2266,461.5,392.2266" style="stroke:#181818;stroke-width:1.0;"/><line style="stroke:#181818;stroke-width:1.0;" x1="73.5" x2="463.5" y1="392.2266" y2="392.2266"/><text fill="#000000" font-family="sans-serif" font-size="13" font-weight="bold" lengthAdjust="spacing" textLength="7" x="80.5" y="387.4717">8</text><text fill="#000000" font-family="sans-serif" font-size="13" lengthAdjust="spacing" textLength="123" x="91.5" y="387.4717">selects a job opening</text><polygon fill="#181818" points="828.5,416.75,838.5,420.75,828.5,424.75,832.5,420.75" style="stroke:#181818;stroke-width:1.0;"/><line style="stroke:#181818;stroke-width:1.0;" x1="479.5" x2="834.5" y1="420.75" y2="420.75"/><text fill="#000000" font-family="sans-serif" font-size="13" font-weight="bold" lengthAdjust="spacing" textLength="7" x="486.5" y="415.9951">9</text><text fill="#000000" font-family="sans-serif" font-size="13" lengthAdjust="spacing" textLength="305" x="497.5" y="415.9951">getCandidatesAndGradesByJobOpening(jobOpening)</text><polygon fill="#181818" points="1461,445.2734,1471,449.2734,1461,453.2734,1465,449.2734" style="stroke:#181818;stroke-width:1.0;"/><line style="stroke:#181818;stroke-width:1.0;" x1="850.5" x2="1467" y1="449.2734" y2="449.2734"/><text fill="#000000" font-family="sans-serif" font-size="13" font-weight="bold" lengthAdjust="spacing" textLength="14" x="857.5" y="444.5186">10</text><text fill="#000000" font-family="sans-serif" font-size="13" lengthAdjust="spacing" textLength="177" x="875.5" y="444.5186">findByJobOpening(jobOpening)</text><polygon fill="#181818" points="861.5,473.7969,851.5,477.7969,861.5,481.7969,857.5,477.7969" style="stroke:#181818;stroke-width:1.0;"/><line style="stroke:#181818;stroke-width:1.0;stroke-dasharray:2.0,2.0;" x1="855.5" x2="1477" y1="477.7969" y2="477.7969"/><text fill="#000000" font-family="sans-serif" font-size="13" font-weight="bold" lengthAdjust="spacing" textLength="14" x="867.5" y="473.042">11</text><text fill="#000000" font-family="sans-serif" font-size="13" lengthAdjust="spacing" textLength="88" x="885.5" y="473.042">jobApplications</text><path d="M717,492.7969 L790,492.7969 L790,499.3203 L780,509.3203 L717,509.3203 L717,492.7969 " fill="#EEEEEE" style="stroke:#000000;stroke-width:1.5;"/><rect fill="none" height="130.6172" style="stroke:#000000;stroke-width:1.5;" width="978.5" x="717" y="492.7969"/><text fill="#000000" font-family="sans-serif" font-size="13" font-weight="bold" lengthAdjust="spacing" textLength="28" x="732" y="505.5654">loop</text><text fill="#000000" font-family="sans-serif" font-size="11" font-weight="bold" lengthAdjust="spacing" textLength="122" x="805" y="504.7549">[each jobApplications]</text><polygon fill="#181818" points="1614,525.8438,1624,529.8438,1614,533.8438,1618,529.8438" style="stroke:#181818;stroke-width:1.0;"/><line style="stroke:#181818;stroke-width:1.0;" x1="850.5" x2="1620" y1="529.8438" y2="529.8438"/><text fill="#000000" font-family="sans-serif" font-size="13" font-weight="bold" lengthAdjust="spacing" textLength="14" x="857.5" y="525.0889">12</text><text fill="#000000" font-family="sans-serif" font-size="13" lengthAdjust="spacing" textLength="64" x="875.5" y="525.0889">candidate()</text><polygon fill="#181818" points="861.5,554.3672,851.5,558.3672,861.5,562.3672,857.5,558.3672" style="stroke:#181818;stroke-width:1.0;"/><line style="stroke:#181818;stroke-width:1.0;stroke-dasharray:2.0,2.0;" x1="855.5" x2="1630" y1="558.3672" y2="558.3672"/><text fill="#000000" font-family="sans-serif" font-size="13" font-weight="bold" lengthAdjust="spacing" textLength="14" x="867.5" y="553.6123">13</text><text fill="#000000" font-family="sans-serif" font-size="13" lengthAdjust="spacing" textLength="56" x="885.5" y="553.6123">candidate</text><polygon fill="#181818" points="1614,582.8906,1624,586.8906,1614,590.8906,1618,586.8906" style="stroke:#181818;stroke-width:1.0;"/><line style="stroke:#181818;stroke-width:1.0;" x1="850.5" x2="1620" y1="586.8906" y2="586.8906"/><text fill="#000000" font-family="sans-serif" font-size="13" font-weight="bold" lengthAdjust="spacing" textLength="14" x="857.5" y="582.1357">14</text><text fill="#000000" font-family="sans-serif" font-size="13" lengthAdjust="spacing" textLength="40" x="875.5" y="582.1357">grade()</text><polygon fill="#181818" points="861.5,611.4141,851.5,615.4141,861.5,619.4141,857.5,615.4141" style="stroke:#181818;stroke-width:1.0;"/><line style="stroke:#181818;stroke-width:1.0;stroke-dasharray:2.0,2.0;" x1="855.5" x2="1630" y1="615.4141" y2="615.4141"/><text fill="#000000" font-family="sans-serif" font-size="13" font-weight="bold" lengthAdjust="spacing" textLength="14" x="867.5" y="610.6592">15</text><text fill="#000000" font-family="sans-serif" font-size="13" lengthAdjust="spacing" textLength="32" x="885.5" y="610.6592">grade</text><polygon fill="#181818" points="490.5,646.9375,480.5,650.9375,490.5,654.9375,486.5,650.9375" style="stroke:#181818;stroke-width:1.0;"/><line style="stroke:#181818;stroke-width:1.0;stroke-dasharray:2.0,2.0;" x1="484.5" x2="844.5" y1="650.9375" y2="650.9375"/><text fill="#000000" font-family="sans-serif" font-size="13" font-weight="bold" lengthAdjust="spacing" textLength="14" x="496.5" y="646.1826">16</text><text fill="#000000" font-family="sans-serif" font-size="13" lengthAdjust="spacing" textLength="116" x="514.5" y="646.1826">candidateGradeMap</text><polygon fill="#181818" points="828.5,675.4609,838.5,679.4609,828.5,683.4609,832.5,679.4609" style="stroke:#181818;stroke-width:1.0;"/><line style="stroke:#181818;stroke-width:1.0;" x1="479.5" x2="834.5" y1="679.4609" y2="679.4609"/><text fill="#000000" font-family="sans-serif" font-size="13" font-weight="bold" lengthAdjust="spacing" textLength="14" x="486.5" y="674.7061">17</text><text fill="#000000" font-family="sans-serif" font-size="13" lengthAdjust="spacing" textLength="307" x="504.5" y="674.7061">OrderListCandidatesAndGrades(candidateGradeMap)</text><line style="stroke:#181818;stroke-width:1.0;stroke-dasharray:2.0,2.0;" x1="850.5" x2="892.5" y1="707.9844" y2="707.9844"/><line style="stroke:#181818;stroke-width:1.0;stroke-dasharray:2.0,2.0;" x1="892.5" x2="892.5" y1="707.9844" y2="720.9844"/><line style="stroke:#181818;stroke-width:1.0;stroke-dasharray:2.0,2.0;" x1="851.5" x2="892.5" y1="720.9844" y2="720.9844"/><polygon fill="#181818" points="861.5,716.9844,851.5,720.9844,861.5,724.9844,857.5,720.9844" style="stroke:#181818;stroke-width:1.0;"/><text fill="#000000" font-family="sans-serif" font-size="13" font-weight="bold" lengthAdjust="spacing" textLength="14" x="857.5" y="703.2295">18</text><text fill="#000000" font-family="sans-serif" font-size="13" lengthAdjust="spacing" textLength="307" x="875.5" y="703.2295">OrderListCandidatesAndGrades(candidateGradeMap)</text><polygon fill="#181818" points="490.5,745.5078,480.5,749.5078,490.5,753.5078,486.5,749.5078" style="stroke:#181818;stroke-width:1.0;"/><line style="stroke:#181818;stroke-width:1.0;stroke-dasharray:2.0,2.0;" x1="484.5" x2="844.5" y1="749.5078" y2="749.5078"/><text fill="#000000" font-family="sans-serif" font-size="13" font-weight="bold" lengthAdjust="spacing" textLength="14" x="496.5" y="744.7529">19</text><text fill="#000000" font-family="sans-serif" font-size="13" lengthAdjust="spacing" textLength="162" x="514.5" y="744.7529">candidateGradeMapOrdered</text><line style="stroke:#181818;stroke-width:1.0;stroke-dasharray:2.0,2.0;" x1="479.5" x2="521.5" y1="778.0313" y2="778.0313"/><line style="stroke:#181818;stroke-width:1.0;stroke-dasharray:2.0,2.0;" x1="521.5" x2="521.5" y1="778.0313" y2="791.0313"/><line style="stroke:#181818;stroke-width:1.0;stroke-dasharray:2.0,2.0;" x1="480.5" x2="521.5" y1="791.0313" y2="791.0313"/><polygon fill="#181818" points="490.5,787.0313,480.5,791.0313,490.5,795.0313,486.5,791.0313" style="stroke:#181818;stroke-width:1.0;"/><text fill="#000000" font-family="sans-serif" font-size="13" font-weight="bold" lengthAdjust="spacing" textLength="14" x="486.5" y="773.2764">20</text><text fill="#000000" font-family="sans-serif" font-size="13" lengthAdjust="spacing" textLength="329" x="504.5" y="773.2764">displayCandidateGradeMap(candidateGradeMapOrdered)</text><polygon fill="#181818" points="79.5,815.5547,69.5,819.5547,79.5,823.5547,75.5,819.5547" style="stroke:#181818;stroke-width:1.0;"/><line style="stroke:#181818;stroke-width:1.0;stroke-dasharray:2.0,2.0;" x1="73.5" x2="473.5" y1="819.5547" y2="819.5547"/><text fill="#000000" font-family="sans-serif" font-size="13" font-weight="bold" lengthAdjust="spacing" textLength="14" x="85.5" y="814.7998">21</text><text fill="#000000" font-family="sans-serif" font-size="13" lengthAdjust="spacing" textLength="247" x="103.5" y="814.7998">show ordered list of candidates and grades</text><!--SRC=[dPRRRXen48Rl_HGZRaeYa9hBHX4I9L955OIKb0SmkmFhOEojRKBfqtUy1wzPTYaA4XABPxxvvsImEw5oRlWUzbhf93DwZ-3C0PaD9pbFTdoBR-ua4GmcZgkjZ0rinbDz56eB6oujCiOFJgl3Ves6CISSkGrMR_3mzU4RZ65gONQmZW8PM715P3E2EHovSk0qRD41Lw1DYWPJaC8wq1j8k4f5oXtQ4HoiZ-KoX7Uz1g4ScW-1HyWrVROmt1gUehqRULo6CWVAYGB9qryil1hM0Dxmzm5LWl0iEFdjsPTCf0WRhTrQ_s4ySTh0e2ru09ooM33Atub4v5xxu77fDSy2_FlfXnUocXVMgpayFUK6BIh7dT1gCc69LivesUiwAyzb7V3Nwmj1U9vBaTICSma_zNgPewBwl6AkhI3rfyAtwm08PiBJ5LQBG6wftdFH6NxQgBkKq7duVncHMmSfbkCR9ZweXBuxz8Rnn5V-aRnsri_3v-UACGZmrPoUYXV1AOJlpFqzXKaCqZcxFFKIf9nw03QLf4RNerLDrl2kScqI8U_gE__oZyJixEVjCI9W2DI5Z0sxpiTDUhvckWePkwLuSuGYjxfZpyBcafz2fxhu4RieKrnthsn179lfemqKAb3eS4sZoo4D0s9HqXK7Mg67HG7AdaSZLLgITmnZq9wIrNmygKf4TrkpurEL5ajE_MdgCdmF7uicjTABsz-zIu-m4Igz2Td7y4PzP-VzZanigrhNu5Bh7CWqks3qvESNgwvRDRmzWS8qdNyToGwWohHNCokdgLCGjTAtxYOjlKeAH65qJGFIRFg2iMP58En8IAQOf0NFIz4NQm5dOrZysBpGGdGCu_02sSen0Ejb_ImqOdJdiYolQjRE1keThptJygQOjG73FkHTtprnvUUXk2JAVnQCNPIPLZsMkM3_0000]--></g></svg>