<?xml version="1.0" encoding="us-ascii" standalone="no"?><svg xmlns="http://www.w3.org/2000/svg" xmlns:xlink="http://www.w3.org/1999/xlink" contentStyleType="text/css" height="1950px" preserveAspectRatio="none" style="width:1540px;height:1950px;background:#FFFFFF;" version="1.1" viewBox="0 0 1540 1950" width="1540px" zoomAndPan="magnify"><defs/><g><text fill="#000000" font-family="sans-serif" font-size="14" font-weight="bold" lengthAdjust="spacing" textLength="325" x="600.75" y="25.1074">"US1001 - Register a Customer" Class Diagram</text><!--class RegisterCustomerController--><g id="elem_RegisterCustomerController"><rect codeLine="4" fill="#F1F1F1" height="159.7266" id="RegisterCustomerController" rx="2.5" ry="2.5" style="stroke:#181818;stroke-width:0.5;" width="638" x="366.5" y="155.6211"/><ellipse cx="593.25" cy="171.6211" fill="#ADD1B2" rx="11" ry="11" style="stroke:#181818;stroke-width:1.0;"/><path d="M596.0156,167.4961 Q596.1719,167.2773 596.3594,167.168 Q596.5469,167.0586 596.7656,167.0586 Q597.1406,167.0586 597.375,167.3242 Q597.6094,167.5742 597.6094,168.1836 L597.6094,169.6367 Q597.6094,170.2461 597.375,170.5117 Q597.1406,170.7773 596.7656,170.7773 Q596.4219,170.7773 596.2188,170.5742 Q596.0156,170.3867 595.9063,169.8711 Q595.8594,169.5117 595.6719,169.3242 Q595.3438,168.9492 594.7344,168.7305 Q594.125,168.5117 593.5,168.5117 Q592.7344,168.5117 592.0938,168.8398 Q591.4688,169.168 590.9688,169.918 Q590.4844,170.668 590.4844,171.6992 L590.4844,172.793 Q590.4844,174.0273 591.375,174.8555 Q592.2656,175.668 593.8594,175.668 Q594.7969,175.668 595.4531,175.418 Q595.8438,175.2617 596.2656,174.8242 Q596.5313,174.5586 596.6719,174.4805 Q596.8281,174.4023 597.0313,174.4023 Q597.3594,174.4023 597.6094,174.668 Q597.875,174.918 597.875,175.2617 Q597.875,175.6055 597.5313,176.0117 Q597.0313,176.5898 596.2344,176.918 Q595.1563,177.3711 593.8594,177.3711 Q592.3438,177.3711 591.1406,176.7461 Q590.1563,176.2461 589.4688,175.1836 Q588.7813,174.1055 588.7813,172.8242 L588.7813,171.668 Q588.7813,170.3398 589.3906,169.1992 Q590.0156,168.043 591.1094,167.4336 Q592.2031,166.8086 593.4375,166.8086 Q594.1719,166.8086 594.8125,166.9805 Q595.4688,167.1367 596.0156,167.4961 Z " fill="#000000"/><text fill="#000000" font-family="sans-serif" font-size="14" lengthAdjust="spacing" textLength="176" x="613.75" y="177.418">RegisterCustomerController</text><line style="stroke:#181818;stroke-width:0.5;" x1="367.5" x2="1003.5" y1="187.6211" y2="187.6211"/><rect fill="none" height="6" style="stroke:#C82930;stroke-width:1.0;" width="6" x="374.5" y="199.4316"/><text fill="#000000" font-family="sans-serif" font-size="14" lengthAdjust="spacing" textLength="221" x="386.5" y="206.7285">userSvc : UserManagementService</text><line style="stroke:#181818;stroke-width:0.5;" x1="367.5" x2="1003.5" y1="214.2422" y2="214.2422"/><ellipse cx="377.5" cy="229.0527" fill="#84BE84" rx="3" ry="3" style="stroke:#038048;stroke-width:1.0;"/><text fill="#000000" font-family="sans-serif" font-size="14" lengthAdjust="spacing" textLength="499" x="386.5" y="233.3496">registerCustomer(final String email, final String password, final String firstName,</text><text fill="#000000" font-family="sans-serif" font-size="14" lengthAdjust="spacing" textLength="612" x="386.5" y="251.9707">final String lastName, final Code code, final Address address, final Set&lt;Role&gt; roles) : SystemUser</text><ellipse cx="377.5" cy="266.2949" fill="#84BE84" rx="3" ry="3" style="stroke:#038048;stroke-width:1.0;"/><text fill="#000000" font-family="sans-serif" font-size="14" lengthAdjust="spacing" textLength="443" x="386.5" y="270.5918">addUser(final String email, final String password, final String firstName,</text><text fill="#000000" font-family="sans-serif" font-size="14" lengthAdjust="spacing" textLength="527" x="386.5" y="289.2129">final String lastName, final Set&lt;Role&gt; roles, final Calendar createdOn) : SystemUser</text><ellipse cx="377.5" cy="303.5371" fill="#84BE84" rx="3" ry="3" style="stroke:#038048;stroke-width:1.0;"/><text fill="#000000" font-family="sans-serif" font-size="14" lengthAdjust="spacing" textLength="177" x="386.5" y="307.834">generatePassword() : String</text></g><!--class RegisterCustomerUI--><g id="elem_RegisterCustomerUI"><rect codeLine="15" fill="#F1F1F1" height="48" id="RegisterCustomerUI" rx="2.5" ry="2.5" style="stroke:#181818;stroke-width:0.5;" width="158" x="606.5" y="46.6211"/><ellipse cx="621.5" cy="62.6211" fill="#ADD1B2" rx="11" ry="11" style="stroke:#181818;stroke-width:1.0;"/><path d="M624.2656,58.4961 Q624.4219,58.2773 624.6094,58.168 Q624.7969,58.0586 625.0156,58.0586 Q625.3906,58.0586 625.625,58.3242 Q625.8594,58.5742 625.8594,59.1836 L625.8594,60.6367 Q625.8594,61.2461 625.625,61.5117 Q625.3906,61.7773 625.0156,61.7773 Q624.6719,61.7773 624.4688,61.5742 Q624.2656,61.3867 624.1563,60.8711 Q624.1094,60.5117 623.9219,60.3242 Q623.5938,59.9492 622.9844,59.7305 Q622.375,59.5117 621.75,59.5117 Q620.9844,59.5117 620.3438,59.8398 Q619.7188,60.168 619.2188,60.918 Q618.7344,61.668 618.7344,62.6992 L618.7344,63.793 Q618.7344,65.0273 619.625,65.8555 Q620.5156,66.668 622.1094,66.668 Q623.0469,66.668 623.7031,66.418 Q624.0938,66.2617 624.5156,65.8242 Q624.7813,65.5586 624.9219,65.4805 Q625.0781,65.4023 625.2813,65.4023 Q625.6094,65.4023 625.8594,65.668 Q626.125,65.918 626.125,66.2617 Q626.125,66.6055 625.7813,67.0117 Q625.2813,67.5898 624.4844,67.918 Q623.4063,68.3711 622.1094,68.3711 Q620.5938,68.3711 619.3906,67.7461 Q618.4063,67.2461 617.7188,66.1836 Q617.0313,65.1055 617.0313,63.8242 L617.0313,62.668 Q617.0313,61.3398 617.6406,60.1992 Q618.2656,59.043 619.3594,58.4336 Q620.4531,57.8086 621.6875,57.8086 Q622.4219,57.8086 623.0625,57.9805 Q623.7188,58.1367 624.2656,58.4961 Z " fill="#000000"/><text fill="#000000" font-family="sans-serif" font-size="14" lengthAdjust="spacing" textLength="126" x="635.5" y="68.418">RegisterCustomerUI</text><line style="stroke:#181818;stroke-width:0.5;" x1="607.5" x2="763.5" y1="78.6211" y2="78.6211"/><line style="stroke:#181818;stroke-width:0.5;" x1="607.5" x2="763.5" y1="86.6211" y2="86.6211"/></g><!--class UserManagementService--><g id="elem_UserManagementService"><rect codeLine="18" fill="#F1F1F1" height="327.3164" id="UserManagementService" rx="2.5" ry="2.5" style="stroke:#181818;stroke-width:0.5;" width="576" x="957.5" y="376.6211"/><ellipse cx="1162.25" cy="392.6211" fill="#ADD1B2" rx="11" ry="11" style="stroke:#181818;stroke-width:1.0;"/><path d="M1165.0156,388.4961 Q1165.1719,388.2773 1165.3594,388.168 Q1165.5469,388.0586 1165.7656,388.0586 Q1166.1406,388.0586 1166.375,388.3242 Q1166.6094,388.5742 1166.6094,389.1836 L1166.6094,390.6367 Q1166.6094,391.2461 1166.375,391.5117 Q1166.1406,391.7773 1165.7656,391.7773 Q1165.4219,391.7773 1165.2188,391.5742 Q1165.0156,391.3867 1164.9063,390.8711 Q1164.8594,390.5117 1164.6719,390.3242 Q1164.3438,389.9492 1163.7344,389.7305 Q1163.125,389.5117 1162.5,389.5117 Q1161.7344,389.5117 1161.0938,389.8398 Q1160.4688,390.168 1159.9688,390.918 Q1159.4844,391.668 1159.4844,392.6992 L1159.4844,393.793 Q1159.4844,395.0273 1160.375,395.8555 Q1161.2656,396.668 1162.8594,396.668 Q1163.7969,396.668 1164.4531,396.418 Q1164.8438,396.2617 1165.2656,395.8242 Q1165.5313,395.5586 1165.6719,395.4805 Q1165.8281,395.4023 1166.0313,395.4023 Q1166.3594,395.4023 1166.6094,395.668 Q1166.875,395.918 1166.875,396.2617 Q1166.875,396.6055 1166.5313,397.0117 Q1166.0313,397.5898 1165.2344,397.918 Q1164.1563,398.3711 1162.8594,398.3711 Q1161.3438,398.3711 1160.1406,397.7461 Q1159.1563,397.2461 1158.4688,396.1836 Q1157.7813,395.1055 1157.7813,393.8242 L1157.7813,392.668 Q1157.7813,391.3398 1158.3906,390.1992 Q1159.0156,389.043 1160.1094,388.4336 Q1161.2031,387.8086 1162.4375,387.8086 Q1163.1719,387.8086 1163.8125,387.9805 Q1164.4688,388.1367 1165.0156,388.4961 Z " fill="#000000"/><text fill="#000000" font-family="sans-serif" font-size="14" lengthAdjust="spacing" textLength="158" x="1182.75" y="398.418">UserManagementService</text><line style="stroke:#181818;stroke-width:0.5;" x1="958.5" x2="1532.5" y1="408.6211" y2="408.6211"/><rect fill="none" height="6" style="stroke:#C82930;stroke-width:1.0;" width="6" x="965.5" y="420.4316"/><text fill="#000000" font-family="sans-serif" font-size="14" lengthAdjust="spacing" textLength="205" x="977.5" y="427.7285">userRepository : UserRepository</text><rect fill="none" height="6" style="stroke:#C82930;stroke-width:1.0;" width="6" x="965.5" y="439.0527"/><text fill="#000000" font-family="sans-serif" font-size="14" lengthAdjust="spacing" textLength="178" x="977.5" y="446.3496">encoder : PasswordEncoder</text><rect fill="none" height="6" style="stroke:#C82930;stroke-width:1.0;" width="6" x="965.5" y="457.6738"/><text fill="#000000" font-family="sans-serif" font-size="14" lengthAdjust="spacing" textLength="146" x="977.5" y="464.9707">policy : PasswordPolicy</text><line style="stroke:#181818;stroke-width:0.5;" x1="958.5" x2="1532.5" y1="472.4844" y2="472.4844"/><ellipse cx="968.5" cy="496.6055" fill="#84BE84" rx="3" ry="3" style="stroke:#038048;stroke-width:1.0;"/><text fill="#000000" font-family="sans-serif" font-size="14" lengthAdjust="spacing" textLength="546" x="977.5" y="491.5918">registerNewUser(final String username, final String rawPassword, final String firstName,</text><text fill="#000000" font-family="sans-serif" font-size="14" lengthAdjust="spacing" textLength="384" x="977.5" y="510.2129">final String lastName, final String email, final Set&lt;Role&gt; roles,</text><text fill="#000000" font-family="sans-serif" font-size="14" lengthAdjust="spacing" textLength="251" x="977.5" y="528.834">final Calendar createdOn) : SystemUser</text><ellipse cx="968.5" cy="543.1582" fill="#84BE84" rx="3" ry="3" style="stroke:#038048;stroke-width:1.0;"/><text fill="#000000" font-family="sans-serif" font-size="14" lengthAdjust="spacing" textLength="546" x="977.5" y="547.4551">registerNewUser(final String username, final String rawPassword, final String firstName,</text><text fill="#000000" font-family="sans-serif" font-size="14" lengthAdjust="spacing" textLength="472" x="977.5" y="566.0762">final String lastName, final String email, final Set&lt;Role&gt; roles) : SystemUser</text><ellipse cx="968.5" cy="580.4004" fill="#84BE84" rx="3" ry="3" style="stroke:#038048;stroke-width:1.0;"/><text fill="#000000" font-family="sans-serif" font-size="14" lengthAdjust="spacing" textLength="523" x="977.5" y="584.6973">registerUser(final Username username, final Password password, final Name name,</text><text fill="#000000" font-family="sans-serif" font-size="14" lengthAdjust="spacing" textLength="384" x="977.5" y="603.3184">final EmailAddress email, final Set&lt;Role&gt; roles) : SystemUser</text><ellipse cx="968.5" cy="617.6426" fill="#84BE84" rx="3" ry="3" style="stroke:#038048;stroke-width:1.0;"/><text fill="#000000" font-family="sans-serif" font-size="14" lengthAdjust="spacing" textLength="233" x="977.5" y="621.9395">activeUsers() : Iterable&lt;SystemUser&gt;</text><ellipse cx="968.5" cy="636.2637" fill="#84BE84" rx="3" ry="3" style="stroke:#038048;stroke-width:1.0;"/><text fill="#000000" font-family="sans-serif" font-size="14" lengthAdjust="spacing" textLength="269" x="977.5" y="640.5605">deactivatedUsers() : Iterable&lt;SystemUser&gt;</text><ellipse cx="968.5" cy="654.8848" fill="#84BE84" rx="3" ry="3" style="stroke:#038048;stroke-width:1.0;"/><text fill="#000000" font-family="sans-serif" font-size="14" lengthAdjust="spacing" textLength="312" x="977.5" y="659.1816">activateUser(final SystemUser user) : SystemUser</text><ellipse cx="968.5" cy="673.5059" fill="#84BE84" rx="3" ry="3" style="stroke:#038048;stroke-width:1.0;"/><text fill="#000000" font-family="sans-serif" font-size="14" lengthAdjust="spacing" textLength="328" x="977.5" y="677.8027">deactivateUser(final SystemUser user) : SystemUser</text><ellipse cx="968.5" cy="692.127" fill="#84BE84" rx="3" ry="3" style="stroke:#038048;stroke-width:1.0;"/><text fill="#000000" font-family="sans-serif" font-size="14" lengthAdjust="spacing" textLength="210" x="977.5" y="696.4238">allUsers() : Iterable&lt;SystemUser&gt;</text></g><!--class Address--><g id="elem_Address"><rect codeLine="38" fill="#F1F1F1" height="159.7266" id="Address" rx="2.5" ry="2.5" style="stroke:#181818;stroke-width:0.5;" width="247" x="636" y="1599.6211"/><ellipse cx="729.25" cy="1615.6211" fill="#ADD1B2" rx="11" ry="11" style="stroke:#181818;stroke-width:1.0;"/><path d="M732.0156,1611.4961 Q732.1719,1611.2773 732.3594,1611.168 Q732.5469,1611.0586 732.7656,1611.0586 Q733.1406,1611.0586 733.375,1611.3242 Q733.6094,1611.5742 733.6094,1612.1836 L733.6094,1613.6367 Q733.6094,1614.2461 733.375,1614.5117 Q733.1406,1614.7773 732.7656,1614.7773 Q732.4219,1614.7773 732.2188,1614.5742 Q732.0156,1614.3867 731.9063,1613.8711 Q731.8594,1613.5117 731.6719,1613.3242 Q731.3438,1612.9492 730.7344,1612.7305 Q730.125,1612.5117 729.5,1612.5117 Q728.7344,1612.5117 728.0938,1612.8398 Q727.4688,1613.168 726.9688,1613.918 Q726.4844,1614.668 726.4844,1615.6992 L726.4844,1616.793 Q726.4844,1618.0273 727.375,1618.8555 Q728.2656,1619.668 729.8594,1619.668 Q730.7969,1619.668 731.4531,1619.418 Q731.8438,1619.2617 732.2656,1618.8242 Q732.5313,1618.5586 732.6719,1618.4805 Q732.8281,1618.4023 733.0313,1618.4023 Q733.3594,1618.4023 733.6094,1618.668 Q733.875,1618.918 733.875,1619.2617 Q733.875,1619.6055 733.5313,1620.0117 Q733.0313,1620.5898 732.2344,1620.918 Q731.1563,1621.3711 729.8594,1621.3711 Q728.3438,1621.3711 727.1406,1620.7461 Q726.1563,1620.2461 725.4688,1619.1836 Q724.7813,1618.1055 724.7813,1616.8242 L724.7813,1615.668 Q724.7813,1614.3398 725.3906,1613.1992 Q726.0156,1612.043 727.1094,1611.4336 Q728.2031,1610.8086 729.4375,1610.8086 Q730.1719,1610.8086 730.8125,1610.9805 Q731.4688,1611.1367 732.0156,1611.4961 Z " fill="#000000"/><text fill="#000000" font-family="sans-serif" font-size="14" lengthAdjust="spacing" textLength="52" x="749.75" y="1621.418">Address</text><line style="stroke:#181818;stroke-width:0.5;" x1="637" x2="882" y1="1631.6211" y2="1631.6211"/><rect fill="none" height="6" style="stroke:#C82930;stroke-width:1.0;" width="6" x="644" y="1643.4316"/><text fill="#000000" font-family="sans-serif" font-size="14" lengthAdjust="spacing" textLength="85" x="656" y="1650.7285">street : String</text><rect fill="none" height="6" style="stroke:#C82930;stroke-width:1.0;" width="6" x="644" y="1662.0527"/><text fill="#000000" font-family="sans-serif" font-size="14" lengthAdjust="spacing" textLength="70" x="656" y="1669.3496">city : String</text><rect fill="none" height="6" style="stroke:#C82930;stroke-width:1.0;" width="6" x="644" y="1680.6738"/><text fill="#000000" font-family="sans-serif" font-size="14" lengthAdjust="spacing" textLength="80" x="656" y="1687.9707">state : String</text><rect fill="none" height="6" style="stroke:#C82930;stroke-width:1.0;" width="6" x="644" y="1699.2949"/><text fill="#000000" font-family="sans-serif" font-size="14" lengthAdjust="spacing" textLength="96" x="656" y="1706.5918">country : String</text><rect fill="none" height="6" style="stroke:#C82930;stroke-width:1.0;" width="6" x="644" y="1717.916"/><text fill="#000000" font-family="sans-serif" font-size="14" lengthAdjust="spacing" textLength="97" x="656" y="1725.2129">zipcode : String</text><line style="stroke:#181818;stroke-width:0.5;" x1="637" x2="882" y1="1732.7266" y2="1732.7266"/><rect fill="#F24D5C" height="6" style="stroke:#C82930;stroke-width:1.0;" width="6" x="644" y="1744.5371"/><text fill="#000000" font-family="sans-serif" font-size="14" lengthAdjust="spacing" textLength="221" x="656" y="1751.834">validateZipcode(zipcode) : Boolean</text></g><!--class Customer--><g id="elem_Customer"><rect codeLine="48" fill="#F1F1F1" height="196.9688" id="Customer" rx="2.5" ry="2.5" style="stroke:#181818;stroke-width:0.5;" width="306" x="834.5" y="1341.6211"/><ellipse cx="952.75" cy="1357.6211" fill="#ADD1B2" rx="11" ry="11" style="stroke:#181818;stroke-width:1.0;"/><path d="M955.5156,1353.4961 Q955.6719,1353.2773 955.8594,1353.168 Q956.0469,1353.0586 956.2656,1353.0586 Q956.6406,1353.0586 956.875,1353.3242 Q957.1094,1353.5742 957.1094,1354.1836 L957.1094,1355.6367 Q957.1094,1356.2461 956.875,1356.5117 Q956.6406,1356.7773 956.2656,1356.7773 Q955.9219,1356.7773 955.7188,1356.5742 Q955.5156,1356.3867 955.4063,1355.8711 Q955.3594,1355.5117 955.1719,1355.3242 Q954.8438,1354.9492 954.2344,1354.7305 Q953.625,1354.5117 953,1354.5117 Q952.2344,1354.5117 951.5938,1354.8398 Q950.9688,1355.168 950.4688,1355.918 Q949.9844,1356.668 949.9844,1357.6992 L949.9844,1358.793 Q949.9844,1360.0273 950.875,1360.8555 Q951.7656,1361.668 953.3594,1361.668 Q954.2969,1361.668 954.9531,1361.418 Q955.3438,1361.2617 955.7656,1360.8242 Q956.0313,1360.5586 956.1719,1360.4805 Q956.3281,1360.4023 956.5313,1360.4023 Q956.8594,1360.4023 957.1094,1360.668 Q957.375,1360.918 957.375,1361.2617 Q957.375,1361.6055 957.0313,1362.0117 Q956.5313,1362.5898 955.7344,1362.918 Q954.6563,1363.3711 953.3594,1363.3711 Q951.8438,1363.3711 950.6406,1362.7461 Q949.6563,1362.2461 948.9688,1361.1836 Q948.2813,1360.1055 948.2813,1358.8242 L948.2813,1357.668 Q948.2813,1356.3398 948.8906,1355.1992 Q949.5156,1354.043 950.6094,1353.4336 Q951.7031,1352.8086 952.9375,1352.8086 Q953.6719,1352.8086 954.3125,1352.9805 Q954.9688,1353.1367 955.5156,1353.4961 Z " fill="#000000"/><text fill="#000000" font-family="sans-serif" font-size="14" lengthAdjust="spacing" textLength="61" x="973.25" y="1363.418">Customer</text><line style="stroke:#181818;stroke-width:0.5;" x1="835.5" x2="1139.5" y1="1373.6211" y2="1373.6211"/><rect fill="none" height="6" style="stroke:#C82930;stroke-width:1.0;" width="6" x="842.5" y="1385.4316"/><text fill="#000000" font-family="sans-serif" font-size="14" lengthAdjust="spacing" textLength="160" x="854.5" y="1392.7285">systemUser : SystemUser</text><rect fill="none" height="6" style="stroke:#C82930;stroke-width:1.0;" width="6" x="842.5" y="1404.0527"/><text fill="#000000" font-family="sans-serif" font-size="14" lengthAdjust="spacing" textLength="77" x="854.5" y="1411.3496">code : Code</text><rect fill="none" height="6" style="stroke:#C82930;stroke-width:1.0;" width="6" x="842.5" y="1422.6738"/><text fill="#000000" font-family="sans-serif" font-size="14" lengthAdjust="spacing" textLength="115" x="854.5" y="1429.9707">address : Address</text><rect fill="none" height="6" style="stroke:#C82930;stroke-width:1.0;" width="6" x="842.5" y="1441.2949"/><text fill="#000000" font-family="sans-serif" font-size="14" lengthAdjust="spacing" textLength="201" x="854.5" y="1448.5918">customerManager : SystemUser</text><line style="stroke:#181818;stroke-width:0.5;" x1="835.5" x2="1139.5" y1="1456.1055" y2="1456.1055"/><ellipse cx="845.5" cy="1470.916" fill="#84BE84" rx="3" ry="3" style="stroke:#038048;stroke-width:1.0;"/><text fill="#000000" font-family="sans-serif" font-size="14" lengthAdjust="spacing" textLength="125" x="854.5" y="1475.2129">user() : SystemUser</text><ellipse cx="845.5" cy="1489.5371" fill="#84BE84" rx="3" ry="3" style="stroke:#038048;stroke-width:1.0;"/><text fill="#000000" font-family="sans-serif" font-size="14" lengthAdjust="spacing" textLength="89" x="854.5" y="1493.834">getID() : Code</text><ellipse cx="845.5" cy="1508.1582" fill="#84BE84" rx="3" ry="3" style="stroke:#038048;stroke-width:1.0;"/><text fill="#000000" font-family="sans-serif" font-size="14" lengthAdjust="spacing" textLength="125" x="854.5" y="1512.4551">address() : Address</text><ellipse cx="845.5" cy="1526.7793" fill="#84BE84" rx="3" ry="3" style="stroke:#038048;stroke-width:1.0;"/><text fill="#000000" font-family="sans-serif" font-size="14" lengthAdjust="spacing" textLength="280" x="854.5" y="1531.0762">customerManagerAssociated() : SystemUser</text></g><!--class EmailAddress--><g id="elem_EmailAddress"><rect codeLine="60" fill="#F1F1F1" height="66.6211" id="EmailAddress" rx="2.5" ry="2.5" style="stroke:#181818;stroke-width:0.5;" width="118" x="1033.5" y="1848.1211"/><ellipse cx="1048.5" cy="1864.1211" fill="#ADD1B2" rx="11" ry="11" style="stroke:#181818;stroke-width:1.0;"/><path d="M1051.2656,1859.9961 Q1051.4219,1859.7773 1051.6094,1859.668 Q1051.7969,1859.5586 1052.0156,1859.5586 Q1052.3906,1859.5586 1052.625,1859.8242 Q1052.8594,1860.0742 1052.8594,1860.6836 L1052.8594,1862.1367 Q1052.8594,1862.7461 1052.625,1863.0117 Q1052.3906,1863.2773 1052.0156,1863.2773 Q1051.6719,1863.2773 1051.4688,1863.0742 Q1051.2656,1862.8867 1051.1563,1862.3711 Q1051.1094,1862.0117 1050.9219,1861.8242 Q1050.5938,1861.4492 1049.9844,1861.2305 Q1049.375,1861.0117 1048.75,1861.0117 Q1047.9844,1861.0117 1047.3438,1861.3398 Q1046.7188,1861.668 1046.2188,1862.418 Q1045.7344,1863.168 1045.7344,1864.1992 L1045.7344,1865.293 Q1045.7344,1866.5273 1046.625,1867.3555 Q1047.5156,1868.168 1049.1094,1868.168 Q1050.0469,1868.168 1050.7031,1867.918 Q1051.0938,1867.7617 1051.5156,1867.3242 Q1051.7813,1867.0586 1051.9219,1866.9805 Q1052.0781,1866.9023 1052.2813,1866.9023 Q1052.6094,1866.9023 1052.8594,1867.168 Q1053.125,1867.418 1053.125,1867.7617 Q1053.125,1868.1055 1052.7813,1868.5117 Q1052.2813,1869.0898 1051.4844,1869.418 Q1050.4063,1869.8711 1049.1094,1869.8711 Q1047.5938,1869.8711 1046.3906,1869.2461 Q1045.4063,1868.7461 1044.7188,1867.6836 Q1044.0313,1866.6055 1044.0313,1865.3242 L1044.0313,1864.168 Q1044.0313,1862.8398 1044.6406,1861.6992 Q1045.2656,1860.543 1046.3594,1859.9336 Q1047.4531,1859.3086 1048.6875,1859.3086 Q1049.4219,1859.3086 1050.0625,1859.4805 Q1050.7188,1859.6367 1051.2656,1859.9961 Z " fill="#000000"/><text fill="#000000" font-family="sans-serif" font-size="14" lengthAdjust="spacing" textLength="86" x="1062.5" y="1869.918">EmailAddress</text><line style="stroke:#181818;stroke-width:0.5;" x1="1034.5" x2="1150.5" y1="1880.1211" y2="1880.1211"/><rect fill="none" height="6" style="stroke:#C82930;stroke-width:1.0;" width="6" x="1041.5" y="1891.9316"/><text fill="#000000" font-family="sans-serif" font-size="14" lengthAdjust="spacing" textLength="82" x="1053.5" y="1899.2285">email : String</text><line style="stroke:#181818;stroke-width:0.5;" x1="1034.5" x2="1150.5" y1="1906.7422" y2="1906.7422"/></g><!--class Name--><g id="elem_Name"><rect codeLine="65" fill="#F1F1F1" height="122.4844" id="Name" rx="2.5" ry="2.5" style="stroke:#181818;stroke-width:0.5;" width="144" x="1186.5" y="1820.6211"/><ellipse cx="1236.25" cy="1836.6211" fill="#ADD1B2" rx="11" ry="11" style="stroke:#181818;stroke-width:1.0;"/><path d="M1239.0156,1832.4961 Q1239.1719,1832.2773 1239.3594,1832.168 Q1239.5469,1832.0586 1239.7656,1832.0586 Q1240.1406,1832.0586 1240.375,1832.3242 Q1240.6094,1832.5742 1240.6094,1833.1836 L1240.6094,1834.6367 Q1240.6094,1835.2461 1240.375,1835.5117 Q1240.1406,1835.7773 1239.7656,1835.7773 Q1239.4219,1835.7773 1239.2188,1835.5742 Q1239.0156,1835.3867 1238.9063,1834.8711 Q1238.8594,1834.5117 1238.6719,1834.3242 Q1238.3438,1833.9492 1237.7344,1833.7305 Q1237.125,1833.5117 1236.5,1833.5117 Q1235.7344,1833.5117 1235.0938,1833.8398 Q1234.4688,1834.168 1233.9688,1834.918 Q1233.4844,1835.668 1233.4844,1836.6992 L1233.4844,1837.793 Q1233.4844,1839.0273 1234.375,1839.8555 Q1235.2656,1840.668 1236.8594,1840.668 Q1237.7969,1840.668 1238.4531,1840.418 Q1238.8438,1840.2617 1239.2656,1839.8242 Q1239.5313,1839.5586 1239.6719,1839.4805 Q1239.8281,1839.4023 1240.0313,1839.4023 Q1240.3594,1839.4023 1240.6094,1839.668 Q1240.875,1839.918 1240.875,1840.2617 Q1240.875,1840.6055 1240.5313,1841.0117 Q1240.0313,1841.5898 1239.2344,1841.918 Q1238.1563,1842.3711 1236.8594,1842.3711 Q1235.3438,1842.3711 1234.1406,1841.7461 Q1233.1563,1841.2461 1232.4688,1840.1836 Q1231.7813,1839.1055 1231.7813,1837.8242 L1231.7813,1836.668 Q1231.7813,1835.3398 1232.3906,1834.1992 Q1233.0156,1833.043 1234.1094,1832.4336 Q1235.2031,1831.8086 1236.4375,1831.8086 Q1237.1719,1831.8086 1237.8125,1831.9805 Q1238.4688,1832.1367 1239.0156,1832.4961 Z " fill="#000000"/><text fill="#000000" font-family="sans-serif" font-size="14" lengthAdjust="spacing" textLength="36" x="1256.75" y="1842.418">Name</text><line style="stroke:#181818;stroke-width:0.5;" x1="1187.5" x2="1329.5" y1="1852.6211" y2="1852.6211"/><rect fill="none" height="6" style="stroke:#C82930;stroke-width:1.0;" width="6" x="1194.5" y="1864.4316"/><text fill="#000000" font-family="sans-serif" font-size="14" lengthAdjust="spacing" textLength="108" x="1206.5" y="1871.7285">firstName : String</text><rect fill="none" height="6" style="stroke:#C82930;stroke-width:1.0;" width="6" x="1194.5" y="1883.0527"/><text fill="#000000" font-family="sans-serif" font-size="14" lengthAdjust="spacing" textLength="107" x="1206.5" y="1890.3496">lastName : String</text><line style="stroke:#181818;stroke-width:0.5;" x1="1187.5" x2="1329.5" y1="1897.8633" y2="1897.8633"/><ellipse cx="1197.5" cy="1912.6738" fill="#84BE84" rx="3" ry="3" style="stroke:#038048;stroke-width:1.0;"/><text fill="#000000" font-family="sans-serif" font-size="14" lengthAdjust="spacing" textLength="118" x="1206.5" y="1916.9707">firstName() : String</text><ellipse cx="1197.5" cy="1931.2949" fill="#84BE84" rx="3" ry="3" style="stroke:#038048;stroke-width:1.0;"/><text fill="#000000" font-family="sans-serif" font-size="14" lengthAdjust="spacing" textLength="117" x="1206.5" y="1935.5918">lastName() : String</text></g><!--class Code--><g id="elem_Code"><rect codeLine="72" fill="#F1F1F1" height="85.2422" id="Code" rx="2.5" ry="2.5" style="stroke:#181818;stroke-width:0.5;" width="139" x="918" y="1637.1211"/><ellipse cx="966.25" cy="1653.1211" fill="#ADD1B2" rx="11" ry="11" style="stroke:#181818;stroke-width:1.0;"/><path d="M969.0156,1648.9961 Q969.1719,1648.7773 969.3594,1648.668 Q969.5469,1648.5586 969.7656,1648.5586 Q970.1406,1648.5586 970.375,1648.8242 Q970.6094,1649.0742 970.6094,1649.6836 L970.6094,1651.1367 Q970.6094,1651.7461 970.375,1652.0117 Q970.1406,1652.2773 969.7656,1652.2773 Q969.4219,1652.2773 969.2188,1652.0742 Q969.0156,1651.8867 968.9063,1651.3711 Q968.8594,1651.0117 968.6719,1650.8242 Q968.3438,1650.4492 967.7344,1650.2305 Q967.125,1650.0117 966.5,1650.0117 Q965.7344,1650.0117 965.0938,1650.3398 Q964.4688,1650.668 963.9688,1651.418 Q963.4844,1652.168 963.4844,1653.1992 L963.4844,1654.293 Q963.4844,1655.5273 964.375,1656.3555 Q965.2656,1657.168 966.8594,1657.168 Q967.7969,1657.168 968.4531,1656.918 Q968.8438,1656.7617 969.2656,1656.3242 Q969.5313,1656.0586 969.6719,1655.9805 Q969.8281,1655.9023 970.0313,1655.9023 Q970.3594,1655.9023 970.6094,1656.168 Q970.875,1656.418 970.875,1656.7617 Q970.875,1657.1055 970.5313,1657.5117 Q970.0313,1658.0898 969.2344,1658.418 Q968.1563,1658.8711 966.8594,1658.8711 Q965.3438,1658.8711 964.1406,1658.2461 Q963.1563,1657.7461 962.4688,1656.6836 Q961.7813,1655.6055 961.7813,1654.3242 L961.7813,1653.168 Q961.7813,1651.8398 962.3906,1650.6992 Q963.0156,1649.543 964.1094,1648.9336 Q965.2031,1648.3086 966.4375,1648.3086 Q967.1719,1648.3086 967.8125,1648.4805 Q968.4688,1648.6367 969.0156,1648.9961 Z " fill="#000000"/><text fill="#000000" font-family="sans-serif" font-size="14" lengthAdjust="spacing" textLength="34" x="986.75" y="1658.918">Code</text><line style="stroke:#181818;stroke-width:0.5;" x1="919" x2="1056" y1="1669.1211" y2="1669.1211"/><rect fill="none" height="6" style="stroke:#C82930;stroke-width:1.0;" width="6" x="926" y="1680.9316"/><text fill="#000000" font-family="sans-serif" font-size="14" lengthAdjust="spacing" textLength="80" x="938" y="1688.2285">code : String</text><line style="stroke:#181818;stroke-width:0.5;" x1="919" x2="1056" y1="1695.7422" y2="1695.7422"/><ellipse cx="929" cy="1710.5527" fill="#84BE84" rx="3" ry="3" style="stroke:#038048;stroke-width:1.0;"/><text fill="#000000" font-family="sans-serif" font-size="14" lengthAdjust="spacing" textLength="113" x="938" y="1714.8496">getCode() : String</text></g><!--class SystemUser--><g id="elem_SystemUser"><rect codeLine="78" fill="#F1F1F1" height="122.4844" id="SystemUser" rx="2.5" ry="2.5" style="stroke:#181818;stroke-width:0.5;" width="167" x="1092" y="1618.6211"/><ellipse cx="1134" cy="1634.6211" fill="#ADD1B2" rx="11" ry="11" style="stroke:#181818;stroke-width:1.0;"/><path d="M1136.7656,1630.4961 Q1136.9219,1630.2773 1137.1094,1630.168 Q1137.2969,1630.0586 1137.5156,1630.0586 Q1137.8906,1630.0586 1138.125,1630.3242 Q1138.3594,1630.5742 1138.3594,1631.1836 L1138.3594,1632.6367 Q1138.3594,1633.2461 1138.125,1633.5117 Q1137.8906,1633.7773 1137.5156,1633.7773 Q1137.1719,1633.7773 1136.9688,1633.5742 Q1136.7656,1633.3867 1136.6563,1632.8711 Q1136.6094,1632.5117 1136.4219,1632.3242 Q1136.0938,1631.9492 1135.4844,1631.7305 Q1134.875,1631.5117 1134.25,1631.5117 Q1133.4844,1631.5117 1132.8438,1631.8398 Q1132.2188,1632.168 1131.7188,1632.918 Q1131.2344,1633.668 1131.2344,1634.6992 L1131.2344,1635.793 Q1131.2344,1637.0273 1132.125,1637.8555 Q1133.0156,1638.668 1134.6094,1638.668 Q1135.5469,1638.668 1136.2031,1638.418 Q1136.5938,1638.2617 1137.0156,1637.8242 Q1137.2813,1637.5586 1137.4219,1637.4805 Q1137.5781,1637.4023 1137.7813,1637.4023 Q1138.1094,1637.4023 1138.3594,1637.668 Q1138.625,1637.918 1138.625,1638.2617 Q1138.625,1638.6055 1138.2813,1639.0117 Q1137.7813,1639.5898 1136.9844,1639.918 Q1135.9063,1640.3711 1134.6094,1640.3711 Q1133.0938,1640.3711 1131.8906,1639.7461 Q1130.9063,1639.2461 1130.2188,1638.1836 Q1129.5313,1637.1055 1129.5313,1635.8242 L1129.5313,1634.668 Q1129.5313,1633.3398 1130.1406,1632.1992 Q1130.7656,1631.043 1131.8594,1630.4336 Q1132.9531,1629.8086 1134.1875,1629.8086 Q1134.9219,1629.8086 1135.5625,1629.9805 Q1136.2188,1630.1367 1136.7656,1630.4961 Z " fill="#000000"/><text fill="#000000" font-family="sans-serif" font-size="14" lengthAdjust="spacing" textLength="75" x="1154" y="1640.418">SystemUser</text><line style="stroke:#181818;stroke-width:0.5;" x1="1093" x2="1258" y1="1650.6211" y2="1650.6211"/><rect fill="none" height="6" style="stroke:#C82930;stroke-width:1.0;" width="6" x="1100" y="1662.4316"/><text fill="#000000" font-family="sans-serif" font-size="14" lengthAdjust="spacing" textLength="83" x="1112" y="1669.7285">name : Name</text><rect fill="none" height="6" style="stroke:#C82930;stroke-width:1.0;" width="6" x="1100" y="1681.0527"/><text fill="#000000" font-family="sans-serif" font-size="14" lengthAdjust="spacing" textLength="131" x="1112" y="1688.3496">email : EmailAddress</text><line style="stroke:#181818;stroke-width:0.5;" x1="1093" x2="1258" y1="1695.8633" y2="1695.8633"/><ellipse cx="1103" cy="1710.6738" fill="#84BE84" rx="3" ry="3" style="stroke:#038048;stroke-width:1.0;"/><text fill="#000000" font-family="sans-serif" font-size="14" lengthAdjust="spacing" textLength="141" x="1112" y="1714.9707">email() : EmailAddress</text><ellipse cx="1103" cy="1729.2949" fill="#84BE84" rx="3" ry="3" style="stroke:#038048;stroke-width:1.0;"/><text fill="#000000" font-family="sans-serif" font-size="14" lengthAdjust="spacing" textLength="93" x="1112" y="1733.5918">name() : Name</text></g><!--class PersistenceContext--><g id="elem_PersistenceContext"><rect codeLine="87" fill="#F1F1F1" height="66.6211" id="PersistenceContext" rx="2.5" ry="2.5" style="stroke:#181818;stroke-width:0.5;" width="154" x="1029.5" y="782.6211"/><ellipse cx="1044.5" cy="798.6211" fill="#ADD1B2" rx="11" ry="11" style="stroke:#181818;stroke-width:1.0;"/><path d="M1047.2656,794.4961 Q1047.4219,794.2773 1047.6094,794.168 Q1047.7969,794.0586 1048.0156,794.0586 Q1048.3906,794.0586 1048.625,794.3242 Q1048.8594,794.5742 1048.8594,795.1836 L1048.8594,796.6367 Q1048.8594,797.2461 1048.625,797.5117 Q1048.3906,797.7773 1048.0156,797.7773 Q1047.6719,797.7773 1047.4688,797.5742 Q1047.2656,797.3867 1047.1563,796.8711 Q1047.1094,796.5117 1046.9219,796.3242 Q1046.5938,795.9492 1045.9844,795.7305 Q1045.375,795.5117 1044.75,795.5117 Q1043.9844,795.5117 1043.3438,795.8398 Q1042.7188,796.168 1042.2188,796.918 Q1041.7344,797.668 1041.7344,798.6992 L1041.7344,799.793 Q1041.7344,801.0273 1042.625,801.8555 Q1043.5156,802.668 1045.1094,802.668 Q1046.0469,802.668 1046.7031,802.418 Q1047.0938,802.2617 1047.5156,801.8242 Q1047.7813,801.5586 1047.9219,801.4805 Q1048.0781,801.4023 1048.2813,801.4023 Q1048.6094,801.4023 1048.8594,801.668 Q1049.125,801.918 1049.125,802.2617 Q1049.125,802.6055 1048.7813,803.0117 Q1048.2813,803.5898 1047.4844,803.918 Q1046.4063,804.3711 1045.1094,804.3711 Q1043.5938,804.3711 1042.3906,803.7461 Q1041.4063,803.2461 1040.7188,802.1836 Q1040.0313,801.1055 1040.0313,799.8242 L1040.0313,798.668 Q1040.0313,797.3398 1040.6406,796.1992 Q1041.2656,795.043 1042.3594,794.4336 Q1043.4531,793.8086 1044.6875,793.8086 Q1045.4219,793.8086 1046.0625,793.9805 Q1046.7188,794.1367 1047.2656,794.4961 Z " fill="#000000"/><text fill="#000000" font-family="sans-serif" font-size="14" lengthAdjust="spacing" textLength="122" x="1058.5" y="804.418">PersistenceContext</text><line style="stroke:#181818;stroke-width:0.5;" x1="1030.5" x2="1182.5" y1="814.6211" y2="814.6211"/><line style="stroke:#181818;stroke-width:0.5;" x1="1030.5" x2="1182.5" y1="822.6211" y2="822.6211"/><ellipse cx="1040.5" cy="837.4316" fill="#84BE84" rx="3" ry="3" style="stroke:#038048;stroke-width:1.0;"/><text fill="#000000" font-family="sans-serif" font-size="14" lengthAdjust="spacing" textLength="84" x="1049.5" y="841.7285">repositories()</text></g><!--class RepositoryFactory--><g id="elem_RepositoryFactory"><rect codeLine="91" fill="#F1F1F1" height="122.4844" id="RepositoryFactory" rx="2.5" ry="2.5" style="stroke:#181818;stroke-width:0.5;" width="238" x="954.5" y="994.6211"/><ellipse cx="1011.25" cy="1010.6211" fill="#B4A7E5" rx="11" ry="11" style="stroke:#181818;stroke-width:1.0;"/><path d="M1012.2031,1007.2617 L1012.2031,1013.918 L1013.9219,1013.918 Q1014.5313,1013.918 1014.7969,1014.1523 Q1015.0625,1014.3867 1015.0625,1014.7773 Q1015.0625,1015.1523 1014.7969,1015.3867 Q1014.5313,1015.6211 1013.9219,1015.6211 L1008.7813,1015.6211 Q1008.1719,1015.6211 1007.9063,1015.3867 Q1007.6406,1015.1523 1007.6406,1014.7617 Q1007.6406,1014.3867 1007.9063,1014.1523 Q1008.1719,1013.918 1008.7813,1013.918 L1010.5,1013.918 L1010.5,1007.2617 L1008.7813,1007.2617 Q1008.1719,1007.2617 1007.9063,1007.0273 Q1007.6406,1006.793 1007.6406,1006.4023 Q1007.6406,1006.0273 1007.9063,1005.793 Q1008.1719,1005.5586 1008.7813,1005.5586 L1013.9219,1005.5586 Q1014.5313,1005.5586 1014.7969,1005.793 Q1015.0625,1006.0273 1015.0625,1006.4023 Q1015.0625,1006.793 1014.7969,1007.0273 Q1014.5313,1007.2617 1013.9219,1007.2617 L1012.2031,1007.2617 Z " fill="#000000"/><text fill="#000000" font-family="sans-serif" font-size="14" font-style="italic" lengthAdjust="spacing" textLength="116" x="1031.75" y="1016.418">RepositoryFactory</text><line style="stroke:#181818;stroke-width:0.5;" x1="955.5" x2="1191.5" y1="1026.6211" y2="1026.6211"/><line style="stroke:#181818;stroke-width:0.5;" x1="955.5" x2="1191.5" y1="1034.6211" y2="1034.6211"/><text fill="#000000" font-family="sans-serif" font-size="14" lengthAdjust="spacing" textLength="75" x="960.5" y="1053.7285">customers()</text><text fill="#000000" font-family="sans-serif" font-size="14" lengthAdjust="spacing" textLength="223" x="960.5" y="1072.3496">customers(TransactionalContext tx)</text><text fill="#000000" font-family="sans-serif" font-size="14" lengthAdjust="spacing" textLength="45" x="960.5" y="1090.9707">users()</text><text fill="#000000" font-family="sans-serif" font-size="14" lengthAdjust="spacing" textLength="226" x="960.5" y="1109.5918">users(TransactionalContext autoTx)</text></g><!--class UserRepository--><g id="elem_UserRepository"><rect codeLine="99" fill="#F1F1F1" height="85.2422" id="UserRepository" rx="2.5" ry="2.5" style="stroke:#181818;stroke-width:0.5;" width="191" x="1128" y="1177.6211"/><ellipse cx="1170.45" cy="1193.6211" fill="#B4A7E5" rx="11" ry="11" style="stroke:#181818;stroke-width:1.0;"/><path d="M1171.4031,1190.2617 L1171.4031,1196.918 L1173.1219,1196.918 Q1173.7313,1196.918 1173.9969,1197.1523 Q1174.2625,1197.3867 1174.2625,1197.7773 Q1174.2625,1198.1523 1173.9969,1198.3867 Q1173.7313,1198.6211 1173.1219,1198.6211 L1167.9813,1198.6211 Q1167.3719,1198.6211 1167.1063,1198.3867 Q1166.8406,1198.1523 1166.8406,1197.7617 Q1166.8406,1197.3867 1167.1063,1197.1523 Q1167.3719,1196.918 1167.9813,1196.918 L1169.7,1196.918 L1169.7,1190.2617 L1167.9813,1190.2617 Q1167.3719,1190.2617 1167.1063,1190.0273 Q1166.8406,1189.793 1166.8406,1189.4023 Q1166.8406,1189.0273 1167.1063,1188.793 Q1167.3719,1188.5586 1167.9813,1188.5586 L1173.1219,1188.5586 Q1173.7313,1188.5586 1173.9969,1188.793 Q1174.2625,1189.0273 1174.2625,1189.4023 Q1174.2625,1189.793 1173.9969,1190.0273 Q1173.7313,1190.2617 1173.1219,1190.2617 L1171.4031,1190.2617 Z " fill="#000000"/><text fill="#000000" font-family="sans-serif" font-size="14" font-style="italic" lengthAdjust="spacing" textLength="98" x="1190.55" y="1199.418">UserRepository</text><line style="stroke:#181818;stroke-width:0.5;" x1="1129" x2="1318" y1="1209.6211" y2="1209.6211"/><line style="stroke:#181818;stroke-width:0.5;" x1="1129" x2="1318" y1="1217.6211" y2="1217.6211"/><text fill="#000000" font-family="sans-serif" font-size="14" lengthAdjust="spacing" textLength="179" x="1134" y="1236.7285">findByActive(boolean active)</text><text fill="#000000" font-family="sans-serif" font-size="14" lengthAdjust="spacing" textLength="115" x="1134" y="1255.3496">save(SystemUser)</text></g><!--class CustomerRepository--><g id="elem_CustomerRepository"><rect codeLine="106" fill="#F1F1F1" height="85.2422" id="CustomerRepository" rx="2.5" ry="2.5" style="stroke:#181818;stroke-width:0.5;" width="164" x="905.5" y="1177.6211"/><ellipse cx="921.85" cy="1193.6211" fill="#B4A7E5" rx="11" ry="11" style="stroke:#181818;stroke-width:1.0;"/><path d="M922.8031,1190.2617 L922.8031,1196.918 L924.5219,1196.918 Q925.1313,1196.918 925.3969,1197.1523 Q925.6625,1197.3867 925.6625,1197.7773 Q925.6625,1198.1523 925.3969,1198.3867 Q925.1313,1198.6211 924.5219,1198.6211 L919.3813,1198.6211 Q918.7719,1198.6211 918.5063,1198.3867 Q918.2406,1198.1523 918.2406,1197.7617 Q918.2406,1197.3867 918.5063,1197.1523 Q918.7719,1196.918 919.3813,1196.918 L921.1,1196.918 L921.1,1190.2617 L919.3813,1190.2617 Q918.7719,1190.2617 918.5063,1190.0273 Q918.2406,1189.793 918.2406,1189.4023 Q918.2406,1189.0273 918.5063,1188.793 Q918.7719,1188.5586 919.3813,1188.5586 L924.5219,1188.5586 Q925.1313,1188.5586 925.3969,1188.793 Q925.6625,1189.0273 925.6625,1189.4023 Q925.6625,1189.793 925.3969,1190.0273 Q925.1313,1190.2617 924.5219,1190.2617 L922.8031,1190.2617 Z " fill="#000000"/><text fill="#000000" font-family="sans-serif" font-size="14" font-style="italic" lengthAdjust="spacing" textLength="129" x="936.15" y="1199.418">CustomerRepository</text><line style="stroke:#181818;stroke-width:0.5;" x1="906.5" x2="1068.5" y1="1209.6211" y2="1209.6211"/><line style="stroke:#181818;stroke-width:0.5;" x1="906.5" x2="1068.5" y1="1217.6211" y2="1217.6211"/><text fill="#000000" font-family="sans-serif" font-size="14" lengthAdjust="spacing" textLength="152" x="911.5" y="1236.7285">findByCode(Code code)</text><text fill="#000000" font-family="sans-serif" font-size="14" lengthAdjust="spacing" textLength="101" x="911.5" y="1255.3496">save(Customer)</text></g><!--class EventPublisher--><g id="elem_EventPublisher"><rect codeLine="112" fill="#F1F1F1" height="66.6211" id="EventPublisher" rx="2.5" ry="2.5" style="stroke:#181818;stroke-width:0.5;" width="127" x="63" y="506.6211"/><ellipse cx="78" cy="522.6211" fill="#ADD1B2" rx="11" ry="11" style="stroke:#181818;stroke-width:1.0;"/><path d="M80.7656,518.4961 Q80.9219,518.2773 81.1094,518.168 Q81.2969,518.0586 81.5156,518.0586 Q81.8906,518.0586 82.125,518.3242 Q82.3594,518.5742 82.3594,519.1836 L82.3594,520.6367 Q82.3594,521.2461 82.125,521.5117 Q81.8906,521.7773 81.5156,521.7773 Q81.1719,521.7773 80.9688,521.5742 Q80.7656,521.3867 80.6563,520.8711 Q80.6094,520.5117 80.4219,520.3242 Q80.0938,519.9492 79.4844,519.7305 Q78.875,519.5117 78.25,519.5117 Q77.4844,519.5117 76.8438,519.8398 Q76.2188,520.168 75.7188,520.918 Q75.2344,521.668 75.2344,522.6992 L75.2344,523.793 Q75.2344,525.0273 76.125,525.8555 Q77.0156,526.668 78.6094,526.668 Q79.5469,526.668 80.2031,526.418 Q80.5938,526.2617 81.0156,525.8242 Q81.2813,525.5586 81.4219,525.4805 Q81.5781,525.4023 81.7813,525.4023 Q82.1094,525.4023 82.3594,525.668 Q82.625,525.918 82.625,526.2617 Q82.625,526.6055 82.2813,527.0117 Q81.7813,527.5898 80.9844,527.918 Q79.9063,528.3711 78.6094,528.3711 Q77.0938,528.3711 75.8906,527.7461 Q74.9063,527.2461 74.2188,526.1836 Q73.5313,525.1055 73.5313,523.8242 L73.5313,522.668 Q73.5313,521.3398 74.1406,520.1992 Q74.7656,519.043 75.8594,518.4336 Q76.9531,517.8086 78.1875,517.8086 Q78.9219,517.8086 79.5625,517.9805 Q80.2188,518.1367 80.7656,518.4961 Z " fill="#000000"/><text fill="#000000" font-family="sans-serif" font-size="14" lengthAdjust="spacing" textLength="95" x="92" y="528.418">EventPublisher</text><line style="stroke:#181818;stroke-width:0.5;" x1="64" x2="189" y1="538.6211" y2="538.6211"/><text fill="#000000" font-family="sans-serif" font-size="14" lengthAdjust="spacing" textLength="66" x="69" y="557.7285">dispatcher</text><line style="stroke:#181818;stroke-width:0.5;" x1="64" x2="189" y1="565.2422" y2="565.2422"/></g><!--class RegisterCustomerEvent--><g id="elem_RegisterCustomerEvent"><rect codeLine="116" fill="#F1F1F1" height="234.2109" id="RegisterCustomerEvent" rx="2.5" ry="2.5" style="stroke:#181818;stroke-width:0.5;" width="306" x="281.5" y="423.1211"/><ellipse cx="355.25" cy="439.1211" fill="#ADD1B2" rx="11" ry="11" style="stroke:#181818;stroke-width:1.0;"/><path d="M358.0156,434.9961 Q358.1719,434.7773 358.3594,434.668 Q358.5469,434.5586 358.7656,434.5586 Q359.1406,434.5586 359.375,434.8242 Q359.6094,435.0742 359.6094,435.6836 L359.6094,437.1367 Q359.6094,437.7461 359.375,438.0117 Q359.1406,438.2773 358.7656,438.2773 Q358.4219,438.2773 358.2188,438.0742 Q358.0156,437.8867 357.9063,437.3711 Q357.8594,437.0117 357.6719,436.8242 Q357.3438,436.4492 356.7344,436.2305 Q356.125,436.0117 355.5,436.0117 Q354.7344,436.0117 354.0938,436.3398 Q353.4688,436.668 352.9688,437.418 Q352.4844,438.168 352.4844,439.1992 L352.4844,440.293 Q352.4844,441.5273 353.375,442.3555 Q354.2656,443.168 355.8594,443.168 Q356.7969,443.168 357.4531,442.918 Q357.8438,442.7617 358.2656,442.3242 Q358.5313,442.0586 358.6719,441.9805 Q358.8281,441.9023 359.0313,441.9023 Q359.3594,441.9023 359.6094,442.168 Q359.875,442.418 359.875,442.7617 Q359.875,443.1055 359.5313,443.5117 Q359.0313,444.0898 358.2344,444.418 Q357.1563,444.8711 355.8594,444.8711 Q354.3438,444.8711 353.1406,444.2461 Q352.1563,443.7461 351.4688,442.6836 Q350.7813,441.6055 350.7813,440.3242 L350.7813,439.168 Q350.7813,437.8398 351.3906,436.6992 Q352.0156,435.543 353.1094,434.9336 Q354.2031,434.3086 355.4375,434.3086 Q356.1719,434.3086 356.8125,434.4805 Q357.4688,434.6367 358.0156,434.9961 Z " fill="#000000"/><text fill="#000000" font-family="sans-serif" font-size="14" lengthAdjust="spacing" textLength="150" x="375.75" y="444.918">RegisterCustomerEvent</text><line style="stroke:#181818;stroke-width:0.5;" x1="282.5" x2="586.5" y1="455.1211" y2="455.1211"/><rect fill="none" height="6" style="stroke:#C82930;stroke-width:1.0;" width="6" x="289.5" y="466.9316"/><text fill="#000000" font-family="sans-serif" font-size="14" lengthAdjust="spacing" textLength="213" x="301.5" y="474.2285">theRegisterRequest : SystemUser</text><rect fill="none" height="6" style="stroke:#C82930;stroke-width:1.0;" width="6" x="289.5" y="485.5527"/><text fill="#000000" font-family="sans-serif" font-size="14" lengthAdjust="spacing" textLength="77" x="301.5" y="492.8496">code : Code</text><rect fill="none" height="6" style="stroke:#C82930;stroke-width:1.0;" width="6" x="289.5" y="504.1738"/><text fill="#000000" font-family="sans-serif" font-size="14" lengthAdjust="spacing" textLength="115" x="301.5" y="511.4707">address : Address</text><rect fill="none" height="6" style="stroke:#C82930;stroke-width:1.0;" width="6" x="289.5" y="522.7949"/><text fill="#000000" font-family="sans-serif" font-size="14" lengthAdjust="spacing" textLength="201" x="301.5" y="530.0918">customerManager : SystemUser</text><line style="stroke:#181818;stroke-width:0.5;" x1="282.5" x2="586.5" y1="537.6055" y2="537.6055"/><ellipse cx="292.5" cy="552.416" fill="#84BE84" rx="3" ry="3" style="stroke:#038048;stroke-width:1.0;"/><text fill="#000000" font-family="sans-serif" font-size="14" lengthAdjust="spacing" textLength="93" x="301.5" y="556.7129">name() : Name</text><ellipse cx="292.5" cy="571.0371" fill="#84BE84" rx="3" ry="3" style="stroke:#038048;stroke-width:1.0;"/><text fill="#000000" font-family="sans-serif" font-size="14" lengthAdjust="spacing" textLength="87" x="301.5" y="575.334">code() : Code</text><ellipse cx="292.5" cy="589.6582" fill="#84BE84" rx="3" ry="3" style="stroke:#038048;stroke-width:1.0;"/><text fill="#000000" font-family="sans-serif" font-size="14" lengthAdjust="spacing" textLength="92" x="301.5" y="593.9551">email() : String</text><ellipse cx="292.5" cy="608.2793" fill="#84BE84" rx="3" ry="3" style="stroke:#038048;stroke-width:1.0;"/><text fill="#000000" font-family="sans-serif" font-size="14" lengthAdjust="spacing" textLength="125" x="301.5" y="612.5762">address() : Address</text><ellipse cx="292.5" cy="626.9004" fill="#84BE84" rx="3" ry="3" style="stroke:#038048;stroke-width:1.0;"/><text fill="#000000" font-family="sans-serif" font-size="14" lengthAdjust="spacing" textLength="280" x="301.5" y="631.1973">customerManagerAssociated() : SystemUser</text><ellipse cx="292.5" cy="645.5215" fill="#84BE84" rx="3" ry="3" style="stroke:#038048;stroke-width:1.0;"/><text fill="#000000" font-family="sans-serif" font-size="14" lengthAdjust="spacing" textLength="248" x="301.5" y="649.8184">getTheRegisterRequest() : SystemUser</text></g><!--class RegisterCustomerWatchDog--><g id="elem_RegisterCustomerWatchDog"><rect codeLine="132" fill="#F1F1F1" height="66.6211" id="RegisterCustomerWatchDog" rx="2.5" ry="2.5" style="stroke:#181818;stroke-width:0.5;" width="212" x="710.5" y="506.6211"/><ellipse cx="725.5" cy="522.6211" fill="#ADD1B2" rx="11" ry="11" style="stroke:#181818;stroke-width:1.0;"/><path d="M728.2656,518.4961 Q728.4219,518.2773 728.6094,518.168 Q728.7969,518.0586 729.0156,518.0586 Q729.3906,518.0586 729.625,518.3242 Q729.8594,518.5742 729.8594,519.1836 L729.8594,520.6367 Q729.8594,521.2461 729.625,521.5117 Q729.3906,521.7773 729.0156,521.7773 Q728.6719,521.7773 728.4688,521.5742 Q728.2656,521.3867 728.1563,520.8711 Q728.1094,520.5117 727.9219,520.3242 Q727.5938,519.9492 726.9844,519.7305 Q726.375,519.5117 725.75,519.5117 Q724.9844,519.5117 724.3438,519.8398 Q723.7188,520.168 723.2188,520.918 Q722.7344,521.668 722.7344,522.6992 L722.7344,523.793 Q722.7344,525.0273 723.625,525.8555 Q724.5156,526.668 726.1094,526.668 Q727.0469,526.668 727.7031,526.418 Q728.0938,526.2617 728.5156,525.8242 Q728.7813,525.5586 728.9219,525.4805 Q729.0781,525.4023 729.2813,525.4023 Q729.6094,525.4023 729.8594,525.668 Q730.125,525.918 730.125,526.2617 Q730.125,526.6055 729.7813,527.0117 Q729.2813,527.5898 728.4844,527.918 Q727.4063,528.3711 726.1094,528.3711 Q724.5938,528.3711 723.3906,527.7461 Q722.4063,527.2461 721.7188,526.1836 Q721.0313,525.1055 721.0313,523.8242 L721.0313,522.668 Q721.0313,521.3398 721.6406,520.1992 Q722.2656,519.043 723.3594,518.4336 Q724.4531,517.8086 725.6875,517.8086 Q726.4219,517.8086 727.0625,517.9805 Q727.7188,518.1367 728.2656,518.4961 Z " fill="#000000"/><text fill="#000000" font-family="sans-serif" font-size="14" lengthAdjust="spacing" textLength="180" x="739.5" y="528.418">RegisterCustomerWatchDog</text><line style="stroke:#181818;stroke-width:0.5;" x1="711.5" x2="921.5" y1="538.6211" y2="538.6211"/><line style="stroke:#181818;stroke-width:0.5;" x1="711.5" x2="921.5" y1="546.6211" y2="546.6211"/><ellipse cx="721.5" cy="561.4316" fill="#84BE84" rx="3" ry="3" style="stroke:#038048;stroke-width:1.0;"/><text fill="#000000" font-family="sans-serif" font-size="14" lengthAdjust="spacing" textLength="143" x="730.5" y="565.7285">onEvent(domainevent)</text></g><!--class RegisterCustomerOnEventController--><g id="elem_RegisterCustomerOnEventController"><rect codeLine="136" fill="#F1F1F1" height="85.2422" id="RegisterCustomerOnEventController" rx="2.5" ry="2.5" style="stroke:#181818;stroke-width:0.5;" width="370" x="689.5" y="879.6211"/><ellipse cx="754.75" cy="895.6211" fill="#ADD1B2" rx="11" ry="11" style="stroke:#181818;stroke-width:1.0;"/><path d="M757.5156,891.4961 Q757.6719,891.2773 757.8594,891.168 Q758.0469,891.0586 758.2656,891.0586 Q758.6406,891.0586 758.875,891.3242 Q759.1094,891.5742 759.1094,892.1836 L759.1094,893.6367 Q759.1094,894.2461 758.875,894.5117 Q758.6406,894.7773 758.2656,894.7773 Q757.9219,894.7773 757.7188,894.5742 Q757.5156,894.3867 757.4063,893.8711 Q757.3594,893.5117 757.1719,893.3242 Q756.8438,892.9492 756.2344,892.7305 Q755.625,892.5117 755,892.5117 Q754.2344,892.5117 753.5938,892.8398 Q752.9688,893.168 752.4688,893.918 Q751.9844,894.668 751.9844,895.6992 L751.9844,896.793 Q751.9844,898.0273 752.875,898.8555 Q753.7656,899.668 755.3594,899.668 Q756.2969,899.668 756.9531,899.418 Q757.3438,899.2617 757.7656,898.8242 Q758.0313,898.5586 758.1719,898.4805 Q758.3281,898.4023 758.5313,898.4023 Q758.8594,898.4023 759.1094,898.668 Q759.375,898.918 759.375,899.2617 Q759.375,899.6055 759.0313,900.0117 Q758.5313,900.5898 757.7344,900.918 Q756.6563,901.3711 755.3594,901.3711 Q753.8438,901.3711 752.6406,900.7461 Q751.6563,900.2461 750.9688,899.1836 Q750.2813,898.1055 750.2813,896.8242 L750.2813,895.668 Q750.2813,894.3398 750.8906,893.1992 Q751.5156,892.043 752.6094,891.4336 Q753.7031,890.8086 754.9375,890.8086 Q755.6719,890.8086 756.3125,890.9805 Q756.9688,891.1367 757.5156,891.4961 Z " fill="#000000"/><text fill="#000000" font-family="sans-serif" font-size="14" lengthAdjust="spacing" textLength="231" x="775.25" y="901.418">RegisterCustomerOnEventController</text><line style="stroke:#181818;stroke-width:0.5;" x1="690.5" x2="1058.5" y1="911.6211" y2="911.6211"/><line style="stroke:#181818;stroke-width:0.5;" x1="690.5" x2="1058.5" y1="919.6211" y2="919.6211"/><ellipse cx="700.5" cy="934.4316" fill="#84BE84" rx="3" ry="3" style="stroke:#038048;stroke-width:1.0;"/><text fill="#000000" font-family="sans-serif" font-size="14" lengthAdjust="spacing" textLength="227" x="709.5" y="938.7285">registerCustomer(event) : Customer</text><ellipse cx="700.5" cy="953.0527" fill="#84BE84" rx="3" ry="3" style="stroke:#038048;stroke-width:1.0;"/><text fill="#000000" font-family="sans-serif" font-size="14" lengthAdjust="spacing" textLength="344" x="709.5" y="957.3496">findUser(final RegisterCustomerEvent event) : boolean</text></g><!--class DeleteUserEvent--><g id="elem_DeleteUserEvent"><rect codeLine="141" fill="#F1F1F1" height="66.6211" id="DeleteUserEvent" rx="2.5" ry="2.5" style="stroke:#181818;stroke-width:0.5;" width="239" x="7" y="782.6211"/><ellipse cx="69.25" cy="798.6211" fill="#ADD1B2" rx="11" ry="11" style="stroke:#181818;stroke-width:1.0;"/><path d="M72.0156,794.4961 Q72.1719,794.2773 72.3594,794.168 Q72.5469,794.0586 72.7656,794.0586 Q73.1406,794.0586 73.375,794.3242 Q73.6094,794.5742 73.6094,795.1836 L73.6094,796.6367 Q73.6094,797.2461 73.375,797.5117 Q73.1406,797.7773 72.7656,797.7773 Q72.4219,797.7773 72.2188,797.5742 Q72.0156,797.3867 71.9063,796.8711 Q71.8594,796.5117 71.6719,796.3242 Q71.3438,795.9492 70.7344,795.7305 Q70.125,795.5117 69.5,795.5117 Q68.7344,795.5117 68.0938,795.8398 Q67.4688,796.168 66.9688,796.918 Q66.4844,797.668 66.4844,798.6992 L66.4844,799.793 Q66.4844,801.0273 67.375,801.8555 Q68.2656,802.668 69.8594,802.668 Q70.7969,802.668 71.4531,802.418 Q71.8438,802.2617 72.2656,801.8242 Q72.5313,801.5586 72.6719,801.4805 Q72.8281,801.4023 73.0313,801.4023 Q73.3594,801.4023 73.6094,801.668 Q73.875,801.918 73.875,802.2617 Q73.875,802.6055 73.5313,803.0117 Q73.0313,803.5898 72.2344,803.918 Q71.1563,804.3711 69.8594,804.3711 Q68.3438,804.3711 67.1406,803.7461 Q66.1563,803.2461 65.4688,802.1836 Q64.7813,801.1055 64.7813,799.8242 L64.7813,798.668 Q64.7813,797.3398 65.3906,796.1992 Q66.0156,795.043 67.1094,794.4336 Q68.2031,793.8086 69.4375,793.8086 Q70.1719,793.8086 70.8125,793.9805 Q71.4688,794.1367 72.0156,794.4961 Z " fill="#000000"/><text fill="#000000" font-family="sans-serif" font-size="14" lengthAdjust="spacing" textLength="106" x="89.75" y="804.418">DeleteUserEvent</text><line style="stroke:#181818;stroke-width:0.5;" x1="8" x2="245" y1="814.6211" y2="814.6211"/><rect fill="none" height="6" style="stroke:#C82930;stroke-width:1.0;" width="6" x="15" y="826.4316"/><text fill="#000000" font-family="sans-serif" font-size="14" lengthAdjust="spacing" textLength="213" x="27" y="833.7285">theRegisterRequest : SystemUser</text><line style="stroke:#181818;stroke-width:0.5;" x1="8" x2="245" y1="841.2422" y2="841.2422"/></g><!--link RegisterCustomerUI to RegisterCustomerController--><g id="link_RegisterCustomerUI_RegisterCustomerController"><path codeLine="148" d="M685.5,94.6311 C685.5,110.6911 685.5,127.1511 685.5,149.3911 " fill="none" id="RegisterCustomerUI-to-RegisterCustomerController" style="stroke:#181818;stroke-width:1.0;stroke-dasharray:7.0,7.0;"/><polygon fill="#181818" points="685.5,155.3911,689.5,146.3911,685.5,150.3911,681.5,146.3911,685.5,155.3911" style="stroke:#181818;stroke-width:1.0;"/></g><!--link RegisterCustomerController to UserManagementService--><g id="link_RegisterCustomerController_UserManagementService"><path codeLine="149" d="M831.9,315.7011 C870.63,336.6211 908.5307,357.1 951.9707,380.56 " fill="none" id="RegisterCustomerController-to-UserManagementService" style="stroke:#181818;stroke-width:1.0;stroke-dasharray:7.0,7.0;"/><polygon fill="#181818" points="957.25,383.4111,951.2318,375.6149,952.8506,381.0352,947.4303,382.654,957.25,383.4111" style="stroke:#181818;stroke-width:1.0;"/></g><!--link Customer to Address--><g id="link_Customer_Address"><path codeLine="150" d="M893.78,1538.7511 C874.37,1558.9611 858.3038,1575.6915 839.6338,1595.1515 " fill="none" id="Customer-to-Address" style="stroke:#181818;stroke-width:1.0;"/><polygon fill="#181818" points="835.48,1599.4811,844.5972,1595.7559,838.9415,1595.8731,838.8244,1590.2174,835.48,1599.4811" style="stroke:#181818;stroke-width:1.0;"/></g><!--link SystemUser to EmailAddress--><g id="link_SystemUser_EmailAddress"><path codeLine="152" d="M1150.6,1740.6311 C1135.99,1775.8411 1120.39,1813.4194 1108.35,1842.4294 " fill="none" id="SystemUser-to-EmailAddress" style="stroke:#181818;stroke-width:1.0;"/><polygon fill="#181818" points="1106.05,1847.9711,1113.1944,1841.1919,1107.9666,1843.353,1105.8055,1838.1253,1106.05,1847.9711" style="stroke:#181818;stroke-width:1.0;"/></g><!--link Customer to Code--><g id="link_Customer_Code"><path codeLine="153" d="M987.5,1538.7511 C987.5,1573.0411 987.5,1603.7511 987.5,1630.9611 " fill="none" id="Customer-to-Code" style="stroke:#181818;stroke-width:1.0;"/><polygon fill="#181818" points="987.5,1636.9611,991.5,1627.9611,987.5,1631.9611,983.5,1627.9611,987.5,1636.9611" style="stroke:#181818;stroke-width:1.0;"/></g><!--link Customer to SystemUser--><g id="link_Customer_SystemUser"><path codeLine="154" d="M1064.78,1538.7511 C1086.15,1565.7411 1104.9861,1589.5366 1124.1261,1613.7166 " fill="none" id="Customer-to-SystemUser" style="stroke:#181818;stroke-width:1.0;"/><polygon fill="#181818" points="1127.85,1618.4211,1125.4005,1608.8817,1124.7467,1614.5007,1119.1278,1613.8469,1127.85,1618.4211" style="stroke:#181818;stroke-width:1.0;"/></g><!--link PersistenceContext to RepositoryFactory--><g id="link_PersistenceContext_RepositoryFactory"><path codeLine="156" d="M1101.98,849.6511 C1096.83,886.7411 1089.1161,942.2482 1082.7261,988.2182 " fill="none" id="PersistenceContext-to-RepositoryFactory" style="stroke:#181818;stroke-width:1.0;"/><polygon fill="#181818" points="1081.9,994.1611,1087.101,985.7975,1082.5884,989.2087,1079.1772,984.6961,1081.9,994.1611" style="stroke:#181818;stroke-width:1.0;"/></g><!--link SystemUser to Name--><g id="link_SystemUser_Name"><path codeLine="157" d="M1200.4,1740.6311 C1210.86,1765.8211 1220.7003,1789.5393 1231.1703,1814.7693 " fill="none" id="SystemUser-to-Name" style="stroke:#181818;stroke-width:1.0;"/><polygon fill="#181818" points="1233.47,1820.3111,1233.7149,1810.4653,1231.5536,1815.693,1226.3259,1813.5316,1233.47,1820.3111" style="stroke:#181818;stroke-width:1.0;"/></g><!--link UserManagementService to PersistenceContext--><g id="link_UserManagementService_PersistenceContext"><path codeLine="158" d="M1163.04,703.6711 C1147.84,733.6411 1136.2155,756.5608 1125.7755,777.1308 " fill="none" id="UserManagementService-to-PersistenceContext" style="stroke:#181818;stroke-width:1.0;stroke-dasharray:7.0,7.0;"/><polygon fill="#181818" points="1123.06,782.4811,1130.7001,776.2659,1125.3229,778.0225,1123.5663,772.6453,1123.06,782.4811" style="stroke:#181818;stroke-width:1.0;"/></g><!--link UserManagementService to UserRepository--><g id="link_UserManagementService_UserRepository"><path codeLine="160" d="M1240.22,703.9511 C1235.15,860.0811 1228.0346,1079.2542 1225.0446,1171.4142 " fill="none" id="UserManagementService-to-UserRepository" style="stroke:#181818;stroke-width:1.0;stroke-dasharray:7.0,7.0;"/><polygon fill="#181818" points="1224.85,1177.4111,1229.1397,1168.5455,1225.0121,1172.4137,1221.1439,1168.2861,1224.85,1177.4111" style="stroke:#181818;stroke-width:1.0;"/></g><!--link RepositoryFactory to CustomerRepository--><g id="link_RepositoryFactory_CustomerRepository"><path codeLine="161" d="M1041.72,1116.6711 C1031,1136.9211 1022.0986,1153.7591 1012.2986,1172.2591 " fill="none" id="RepositoryFactory-to-CustomerRepository" style="stroke:#181818;stroke-width:1.0;stroke-dasharray:7.0,7.0;"/><polygon fill="#181818" points="1009.49,1177.5611,1017.2377,1171.4805,1011.8305,1173.1427,1010.1683,1167.7356,1009.49,1177.5611" style="stroke:#181818;stroke-width:1.0;"/></g><!--link RepositoryFactory to UserRepository--><g id="link_RepositoryFactory_UserRepository"><path codeLine="162" d="M1128.93,1116.6711 C1147.62,1136.9211 1163.9899,1154.6526 1181.0699,1173.1526 " fill="none" id="RepositoryFactory-to-UserRepository" style="stroke:#181818;stroke-width:1.0;stroke-dasharray:7.0,7.0;"/><polygon fill="#181818" points="1185.14,1177.5611,1181.9739,1168.235,1181.7483,1173.8874,1176.0959,1173.6618,1185.14,1177.5611" style="stroke:#181818;stroke-width:1.0;"/></g><!--link CustomerRepository to Customer--><g id="link_CustomerRepository_Customer"><path codeLine="163" d="M987.5,1262.6411 C987.5,1285.0011 987.5,1307.6011 987.5,1335.2511 " fill="none" id="CustomerRepository-to-Customer" style="stroke:#181818;stroke-width:1.0;"/><polygon fill="#181818" points="987.5,1341.2511,991.5,1332.2511,987.5,1336.2511,983.5,1332.2511,987.5,1341.2511" style="stroke:#181818;stroke-width:1.0;"/><text fill="#000000" font-family="sans-serif" font-size="13" lengthAdjust="spacing" textLength="36" x="988.5" y="1307.6494">stores</text><text fill="#000000" font-family="sans-serif" font-size="13" lengthAdjust="spacing" textLength="5" x="982.3164" y="1330.4063">*</text></g><!--link RegisterCustomerController to EventPublisher--><g id="link_RegisterCustomerController_EventPublisher"><path codeLine="165" d="M379.4,315.6411 C338.72,332.5011 298.89,352.6511 263.5,376.6211 C212.48,411.1811 172.9689,464.7568 149.4089,501.3368 " fill="none" id="RegisterCustomerController-to-EventPublisher" style="stroke:#181818;stroke-width:1.0;"/><polygon fill="#181818" points="146.16,506.3811,154.3962,500.9806,148.8674,502.1775,147.6704,496.6487,146.16,506.3811" style="stroke:#181818;stroke-width:1.0;"/></g><!--link EventPublisher to RegisterCustomerEvent--><g id="link_EventPublisher_RegisterCustomerEvent"><path codeLine="166" d="M190.32,540.1211 C216.92,540.1211 243.08,540.1211 275.19,540.1211 " fill="none" id="EventPublisher-to-RegisterCustomerEvent" style="stroke:#181818;stroke-width:1.0;"/><polygon fill="#181818" points="281.19,540.1211,272.19,536.1211,276.19,540.1211,272.19,544.1211,281.19,540.1211" style="stroke:#181818;stroke-width:1.0;"/><text fill="#000000" font-family="sans-serif" font-size="13" lengthAdjust="spacing" textLength="55" x="208.25" y="533.1494">publishes</text><text fill="#000000" font-family="sans-serif" font-size="13" lengthAdjust="spacing" textLength="7" x="198.1039" y="536.2053">1</text><text fill="#000000" font-family="sans-serif" font-size="13" lengthAdjust="spacing" textLength="5" x="268.643" y="536.7396">*</text></g><!--link EventPublisher to DeleteUserEvent--><g id="link_EventPublisher_DeleteUserEvent"><path codeLine="167" d="M126.5,573.6311 C126.5,626.2211 126.5,723.3911 126.5,776.2311 " fill="none" id="EventPublisher-to-DeleteUserEvent" style="stroke:#181818;stroke-width:1.0;"/><polygon fill="#181818" points="126.5,782.2311,130.5,773.2311,126.5,777.2311,122.5,773.2311,126.5,782.2311" style="stroke:#181818;stroke-width:1.0;"/><text fill="#000000" font-family="sans-serif" font-size="13" lengthAdjust="spacing" textLength="55" x="127.5" y="748.6494">publishes</text><text fill="#000000" font-family="sans-serif" font-size="13" lengthAdjust="spacing" textLength="7" x="118.8766" y="595.2021">1</text><text fill="#000000" font-family="sans-serif" font-size="13" lengthAdjust="spacing" textLength="5" x="121.0234" y="771.2427">*</text></g><!--link RegisterCustomerWatchDog to RegisterCustomerOnEventController--><g id="link_RegisterCustomerWatchDog_RegisterCustomerOnEventController"><path codeLine="170" d="M821.5,573.8511 C832.03,642.8911 855.6145,797.4098 867.2445,873.5898 " fill="none" id="RegisterCustomerWatchDog-to-RegisterCustomerOnEventController" style="stroke:#181818;stroke-width:1.0;"/><polygon fill="#181818" points="868.15,879.5211,870.7459,870.0205,867.3954,874.5784,862.8376,871.2278,868.15,879.5211" style="stroke:#181818;stroke-width:1.0;"/></g><!--reverse link RegisterCustomerEvent to RegisterCustomerWatchDog--><g id="link_RegisterCustomerEvent_RegisterCustomerWatchDog"><path codeLine="171" d="M593.67,540.1211 C634.77,540.1211 672.3,540.1211 710.24,540.1211 " fill="none" id="RegisterCustomerEvent-backto-RegisterCustomerWatchDog" style="stroke:#181818;stroke-width:1.0;"/><polygon fill="#181818" points="587.67,540.1211,596.67,544.1211,592.67,540.1211,596.67,536.1211,587.67,540.1211" style="stroke:#181818;stroke-width:1.0;"/><text fill="#000000" font-family="sans-serif" font-size="13" lengthAdjust="spacing" textLength="86" x="606" y="533.1494">watch for event</text></g><!--link RegisterCustomerOnEventController to CustomerRepository--><g id="link_RegisterCustomerOnEventController_CustomerRepository"><path codeLine="172" d="M885.9,964.9111 C897.18,1004.5511 915.72,1065.4711 936.5,1116.6211 C944.8,1137.0611 952.7418,1153.7175 962.1918,1172.0575 " fill="none" id="RegisterCustomerOnEventController-to-CustomerRepository" style="stroke:#181818;stroke-width:1.0;stroke-dasharray:7.0,7.0;"/><polygon fill="#181818" points="964.94,1177.3911,964.3734,1167.5585,962.6498,1172.9464,957.2619,1171.2229,964.94,1177.3911" style="stroke:#181818;stroke-width:1.0;"/></g><!--SRC=[lLPBRziu4BxpLn0-sUkgQAv5421Dia0EsnfvO85YBumqSGZ8f9UadNYD_UyxGv4I9SfsYaMRGopDV3ESnpSZEkbgu9F7-xDFdyvumUzWAQq3mmM_sbYdLs0c_AeMrl9hAPP6h1Wh_Mj4HjYLLixekWQpPmNVM33tsv9_ve_uz8TGOWahKEuUp5QMmDYScu63wRDKekRtpaYrvB0Iilx0Ux8rdlkgJJKGFqjZtLUnWW-Cl_ElPu_fDEP1VAKhu2N-YuBBgZA0AOlcjpqUtFcThk62OzvWPvZi_GupMb7Ac232wUbNv7Kqdq6SRPgY1bK9mqi3ma7rJMKPB461GTqY13Zr27yAO_yUOiBZxRvJZhO_CkGErjfAfyqk4AKJ808KDS6WAfv_qqXGjzQrB7U9Qk45oAj8gw_mcbUV3bLfQHgn4Q-BKptWVwdZLHxhxw3oxBsL_rb9CFv_SyWu4aDDudmC0MQHnlWonbCGt2D3YMueX3XtFnIFA9tS0hrOJzTRZ4qyrN3UeIuGLe47KlbFOYCoRKKBy4bcKNJkVy18rFM9M6Ykmc25uk0eMMS0N3UPHIdTBdcr3iD8rNg3gpf5_2FND5Z9S1TRKSiAxRutgcc0K6HVD1PUg6x6u-1JB5sAlUIAu9zsAol28iNta0NgWuzcLmoisPpgDHqMR0dkzjfBlTjvSEibqV5yuFZIMbrAQllGNPjEoZrCoRDlREyHQL7VJbTIq3XOdMZUmj8bEe_0LDZL5RFQjwMB9fWrAGOMmQJB1mrL4m7vxz98iyF2Uh7trLFCLGpAMtS7B92VDE-g1FhYmvlRqxeAQri2Lf_G4bNcMPJ0kvN-Euu4_knPR0bXk-S78vIbgT4uAy4tTsypjcbc8loEmiJ6wOStVt9oTF-BigVLKdtPNVe5CNrgM1psnOnPWSAkV8sln5aaUUxGTwEzD0HF4JvBQdUpnK_WOlDKI_j23Q8lToNjMhZo9INWy8FgxJoyS2yGjNVmzmQiwvEOCEceqNi-RHvrTE0GCQ00ISh8k-WxeK-W8Wd7vj2RltSK2OmqVyYI7GAJuWwBzYTLzLelcpBFkLQ-ZDDAOyWAw7bskEJV6dHwgVLkiajhuuXA4YGDZfYHRFxHZlBMzccuKQ-XXkRJqVKUR-Udkkyfo_Bx6F_uyUB8XPqTLddByIjy1FEYk6ZRp99l7CbxIwLduIdKawHzpTUCXsJBP7XUGzNHW7qgkLzs33wuasR7Su_ALyC8SiHTRkTpcFmsQLrYV_41gyUEDSbNkhTSMF-LJyucFBWUv-9dlWvWEseRZ0V4x9db8SOP3BqxCM9iFBBpuk1iu_6lzCYVjMccYPqyvL376FiF]--></g></svg>