<?xml version="1.0" encoding="us-ascii" standalone="no"?><svg xmlns="http://www.w3.org/2000/svg" xmlns:xlink="http://www.w3.org/1999/xlink" contentStyleType="text/css" height="547px" preserveAspectRatio="none" style="width:705px;height:547px;background:#FFFFFF;" version="1.1" viewBox="0 0 705 547" width="705px" zoomAndPan="magnify"><defs/><g><!--cluster Customer Aggregate--><g id="cluster_Customer Aggregate"><path d="M8.5,6.0137 L154.5,6.0137 A3.75,3.75 0 0 1 157,8.5137 L164,30.6348 L567.5,30.6348 A2.5,2.5 0 0 1 570,33.1348 L570,537.5137 A2.5,2.5 0 0 1 567.5,540.0137 L8.5,540.0137 A2.5,2.5 0 0 1 6,537.5137 L6,8.5137 A2.5,2.5 0 0 1 8.5,6.0137 " fill="none" style="stroke:#000000;stroke-width:1.5;"/><line style="stroke:#000000;stroke-width:1.5;" x1="6" x2="164" y1="30.6348" y2="30.6348"/><text fill="#000000" font-family="sans-serif" font-size="14" font-weight="bold" lengthAdjust="spacing" textLength="145" x="10" y="23.1211">Customer Aggregate</text></g><!--class Customer--><g id="elem_Customer"><rect codeLine="8" fill="#F1F1F1" height="81.8633" id="Customer" rx="2.5" ry="2.5" style="stroke:#181818;stroke-width:0.5;" width="93" x="286.5" y="278.0137"/><ellipse cx="301.5" cy="310.9453" fill="#ADD1B2" rx="11" ry="11" style="stroke:#181818;stroke-width:1.0;"/><path d="M304.2656,306.8203 Q304.4219,306.6016 304.6094,306.4922 Q304.7969,306.3828 305.0156,306.3828 Q305.3906,306.3828 305.625,306.6484 Q305.8594,306.8984 305.8594,307.5078 L305.8594,308.9609 Q305.8594,309.5703 305.625,309.8359 Q305.3906,310.1016 305.0156,310.1016 Q304.6719,310.1016 304.4688,309.8984 Q304.2656,309.7109 304.1563,309.1953 Q304.1094,308.8359 303.9219,308.6484 Q303.5938,308.2734 302.9844,308.0547 Q302.375,307.8359 301.75,307.8359 Q300.9844,307.8359 300.3438,308.1641 Q299.7188,308.4922 299.2188,309.2422 Q298.7344,309.9922 298.7344,311.0234 L298.7344,312.1172 Q298.7344,313.3516 299.625,314.1797 Q300.5156,314.9922 302.1094,314.9922 Q303.0469,314.9922 303.7031,314.7422 Q304.0938,314.5859 304.5156,314.1484 Q304.7813,313.8828 304.9219,313.8047 Q305.0781,313.7266 305.2813,313.7266 Q305.6094,313.7266 305.8594,313.9922 Q306.125,314.2422 306.125,314.5859 Q306.125,314.9297 305.7813,315.3359 Q305.2813,315.9141 304.4844,316.2422 Q303.4063,316.6953 302.1094,316.6953 Q300.5938,316.6953 299.3906,316.0703 Q298.4063,315.5703 297.7188,314.5078 Q297.0313,313.4297 297.0313,312.1484 L297.0313,310.9922 Q297.0313,309.6641 297.6406,308.5234 Q298.2656,307.3672 299.3594,306.7578 Q300.4531,306.1328 301.6875,306.1328 Q302.4219,306.1328 303.0625,306.3047 Q303.7188,306.4609 304.2656,306.8203 Z " fill="#000000"/><text fill="#000000" font-family="sans-serif" font-size="14" lengthAdjust="spacing" textLength="50" x="321" y="298.1211">&#171;entity&#187;</text><text fill="#000000" font-family="sans-serif" font-size="14" lengthAdjust="spacing" textLength="41" x="325.5" y="316.7422">&#171;root&#187;</text><text fill="#000000" font-family="sans-serif" font-size="14" lengthAdjust="spacing" textLength="61" x="315.5" y="335.3633">Customer</text><line style="stroke:#181818;stroke-width:0.5;" x1="287.5" x2="378.5" y1="343.877" y2="343.877"/><line style="stroke:#181818;stroke-width:0.5;" x1="287.5" x2="378.5" y1="351.877" y2="351.877"/></g><!--class SystemUser--><g id="elem_SystemUser"><rect codeLine="12" fill="#F1F1F1" height="48" id="SystemUser" rx="2.5" ry="2.5" style="stroke:#181818;stroke-width:0.5;" width="107" x="22.5" y="457.5137"/><ellipse cx="37.5" cy="473.5137" fill="#ADD1B2" rx="11" ry="11" style="stroke:#181818;stroke-width:1.0;"/><path d="M40.2656,469.3887 Q40.4219,469.1699 40.6094,469.0605 Q40.7969,468.9512 41.0156,468.9512 Q41.3906,468.9512 41.625,469.2168 Q41.8594,469.4668 41.8594,470.0762 L41.8594,471.5293 Q41.8594,472.1387 41.625,472.4043 Q41.3906,472.6699 41.0156,472.6699 Q40.6719,472.6699 40.4688,472.4668 Q40.2656,472.2793 40.1563,471.7637 Q40.1094,471.4043 39.9219,471.2168 Q39.5938,470.8418 38.9844,470.623 Q38.375,470.4043 37.75,470.4043 Q36.9844,470.4043 36.3438,470.7324 Q35.7188,471.0605 35.2188,471.8105 Q34.7344,472.5605 34.7344,473.5918 L34.7344,474.6855 Q34.7344,475.9199 35.625,476.748 Q36.5156,477.5605 38.1094,477.5605 Q39.0469,477.5605 39.7031,477.3105 Q40.0938,477.1543 40.5156,476.7168 Q40.7813,476.4512 40.9219,476.373 Q41.0781,476.2949 41.2813,476.2949 Q41.6094,476.2949 41.8594,476.5605 Q42.125,476.8105 42.125,477.1543 Q42.125,477.498 41.7813,477.9043 Q41.2813,478.4824 40.4844,478.8105 Q39.4063,479.2637 38.1094,479.2637 Q36.5938,479.2637 35.3906,478.6387 Q34.4063,478.1387 33.7188,477.0762 Q33.0313,475.998 33.0313,474.7168 L33.0313,473.5605 Q33.0313,472.2324 33.6406,471.0918 Q34.2656,469.9355 35.3594,469.3262 Q36.4531,468.7012 37.6875,468.7012 Q38.4219,468.7012 39.0625,468.873 Q39.7188,469.0293 40.2656,469.3887 Z " fill="#000000"/><text fill="#000000" font-family="sans-serif" font-size="14" lengthAdjust="spacing" textLength="75" x="51.5" y="479.3105">SystemUser</text><line style="stroke:#181818;stroke-width:0.5;" x1="23.5" x2="128.5" y1="489.5137" y2="489.5137"/><line style="stroke:#181818;stroke-width:0.5;" x1="23.5" x2="128.5" y1="497.5137" y2="497.5137"/></g><!--class Name1--><g id="elem_Name1"><rect codeLine="15" fill="#F1F1F1" height="85.2422" id="Name1" rx="2.5" ry="2.5" style="stroke:#181818;stroke-width:0.5;" width="71" x="164.5" y="439.0137"/><ellipse cx="180.85" cy="455.0137" fill="#ADD1B2" rx="11" ry="11" style="stroke:#181818;stroke-width:1.0;"/><path d="M183.6156,450.8887 Q183.7719,450.6699 183.9594,450.5605 Q184.1469,450.4512 184.3656,450.4512 Q184.7406,450.4512 184.975,450.7168 Q185.2094,450.9668 185.2094,451.5762 L185.2094,453.0293 Q185.2094,453.6387 184.975,453.9043 Q184.7406,454.1699 184.3656,454.1699 Q184.0219,454.1699 183.8188,453.9668 Q183.6156,453.7793 183.5063,453.2637 Q183.4594,452.9043 183.2719,452.7168 Q182.9438,452.3418 182.3344,452.123 Q181.725,451.9043 181.1,451.9043 Q180.3344,451.9043 179.6938,452.2324 Q179.0688,452.5605 178.5688,453.3105 Q178.0844,454.0605 178.0844,455.0918 L178.0844,456.1855 Q178.0844,457.4199 178.975,458.248 Q179.8656,459.0605 181.4594,459.0605 Q182.3969,459.0605 183.0531,458.8105 Q183.4438,458.6543 183.8656,458.2168 Q184.1313,457.9512 184.2719,457.873 Q184.4281,457.7949 184.6313,457.7949 Q184.9594,457.7949 185.2094,458.0605 Q185.475,458.3105 185.475,458.6543 Q185.475,458.998 185.1313,459.4043 Q184.6313,459.9824 183.8344,460.3105 Q182.7563,460.7637 181.4594,460.7637 Q179.9438,460.7637 178.7406,460.1387 Q177.7563,459.6387 177.0688,458.5762 Q176.3813,457.498 176.3813,456.2168 L176.3813,455.0605 Q176.3813,453.7324 176.9906,452.5918 Q177.6156,451.4355 178.7094,450.8262 Q179.8031,450.2012 181.0375,450.2012 Q181.7719,450.2012 182.4125,450.373 Q183.0688,450.5293 183.6156,450.8887 Z " fill="#000000"/><text fill="#000000" font-family="sans-serif" font-size="14" lengthAdjust="spacing" textLength="36" x="195.15" y="460.8105">Name</text><line style="stroke:#181818;stroke-width:0.5;" x1="165.5" x2="234.5" y1="471.0137" y2="471.0137"/><text fill="#000000" font-family="sans-serif" font-size="14" lengthAdjust="spacing" textLength="59" x="170.5" y="490.1211">firstName</text><text fill="#000000" font-family="sans-serif" font-size="14" lengthAdjust="spacing" textLength="58" x="170.5" y="508.7422">lastName</text><line style="stroke:#181818;stroke-width:0.5;" x1="165.5" x2="234.5" y1="516.2559" y2="516.2559"/></g><!--class EMail1--><g id="elem_EMail1"><rect codeLine="19" fill="#F1F1F1" height="63.2422" id="EMail1" rx="2.5" ry="2.5" style="stroke:#181818;stroke-width:0.5;" width="124" x="271" y="450.0137"/><ellipse cx="286" cy="473.6348" fill="#ADD1B2" rx="11" ry="11" style="stroke:#181818;stroke-width:1.0;"/><path d="M288.7656,469.5098 Q288.9219,469.291 289.1094,469.1816 Q289.2969,469.0723 289.5156,469.0723 Q289.8906,469.0723 290.125,469.3379 Q290.3594,469.5879 290.3594,470.1973 L290.3594,471.6504 Q290.3594,472.2598 290.125,472.5254 Q289.8906,472.791 289.5156,472.791 Q289.1719,472.791 288.9688,472.5879 Q288.7656,472.4004 288.6563,471.8848 Q288.6094,471.5254 288.4219,471.3379 Q288.0938,470.9629 287.4844,470.7441 Q286.875,470.5254 286.25,470.5254 Q285.4844,470.5254 284.8438,470.8535 Q284.2188,471.1816 283.7188,471.9316 Q283.2344,472.6816 283.2344,473.7129 L283.2344,474.8066 Q283.2344,476.041 284.125,476.8691 Q285.0156,477.6816 286.6094,477.6816 Q287.5469,477.6816 288.2031,477.4316 Q288.5938,477.2754 289.0156,476.8379 Q289.2813,476.5723 289.4219,476.4941 Q289.5781,476.416 289.7813,476.416 Q290.1094,476.416 290.3594,476.6816 Q290.625,476.9316 290.625,477.2754 Q290.625,477.6191 290.2813,478.0254 Q289.7813,478.6035 288.9844,478.9316 Q287.9063,479.3848 286.6094,479.3848 Q285.0938,479.3848 283.8906,478.7598 Q282.9063,478.2598 282.2188,477.1973 Q281.5313,476.1191 281.5313,474.8379 L281.5313,473.6816 Q281.5313,472.3535 282.1406,471.2129 Q282.7656,470.0566 283.8594,469.4473 Q284.9531,468.8223 286.1875,468.8223 Q286.9219,468.8223 287.5625,468.9941 Q288.2188,469.1504 288.7656,469.5098 Z " fill="#000000"/><text fill="#000000" font-family="sans-serif" font-size="14" lengthAdjust="spacing" textLength="92" x="300" y="470.1211">&#171;value object&#187;</text><text fill="#000000" font-family="sans-serif" font-size="14" lengthAdjust="spacing" textLength="39" x="326.5" y="488.7422">E-Mail</text><line style="stroke:#181818;stroke-width:0.5;" x1="272" x2="394" y1="497.2559" y2="497.2559"/><line style="stroke:#181818;stroke-width:0.5;" x1="272" x2="394" y1="505.2559" y2="505.2559"/></g><!--class Address2--><g id="elem_Address2"><rect codeLine="22" fill="#F1F1F1" height="156.3477" id="Address2" rx="2.5" ry="2.5" style="stroke:#181818;stroke-width:0.5;" width="124" x="271" y="43.0137"/><ellipse cx="286" cy="66.6348" fill="#ADD1B2" rx="11" ry="11" style="stroke:#181818;stroke-width:1.0;"/><path d="M288.7656,62.5098 Q288.9219,62.291 289.1094,62.1816 Q289.2969,62.0723 289.5156,62.0723 Q289.8906,62.0723 290.125,62.3379 Q290.3594,62.5879 290.3594,63.1973 L290.3594,64.6504 Q290.3594,65.2598 290.125,65.5254 Q289.8906,65.791 289.5156,65.791 Q289.1719,65.791 288.9688,65.5879 Q288.7656,65.4004 288.6563,64.8848 Q288.6094,64.5254 288.4219,64.3379 Q288.0938,63.9629 287.4844,63.7441 Q286.875,63.5254 286.25,63.5254 Q285.4844,63.5254 284.8438,63.8535 Q284.2188,64.1816 283.7188,64.9316 Q283.2344,65.6816 283.2344,66.7129 L283.2344,67.8066 Q283.2344,69.041 284.125,69.8691 Q285.0156,70.6816 286.6094,70.6816 Q287.5469,70.6816 288.2031,70.4316 Q288.5938,70.2754 289.0156,69.8379 Q289.2813,69.5723 289.4219,69.4941 Q289.5781,69.416 289.7813,69.416 Q290.1094,69.416 290.3594,69.6816 Q290.625,69.9316 290.625,70.2754 Q290.625,70.6191 290.2813,71.0254 Q289.7813,71.6035 288.9844,71.9316 Q287.9063,72.3848 286.6094,72.3848 Q285.0938,72.3848 283.8906,71.7598 Q282.9063,71.2598 282.2188,70.1973 Q281.5313,69.1191 281.5313,67.8379 L281.5313,66.6816 Q281.5313,65.3535 282.1406,64.2129 Q282.7656,63.0566 283.8594,62.4473 Q284.9531,61.8223 286.1875,61.8223 Q286.9219,61.8223 287.5625,61.9941 Q288.2188,62.1504 288.7656,62.5098 Z " fill="#000000"/><text fill="#000000" font-family="sans-serif" font-size="14" lengthAdjust="spacing" textLength="92" x="300" y="63.1211">&#171;value object&#187;</text><text fill="#000000" font-family="sans-serif" font-size="14" lengthAdjust="spacing" textLength="52" x="320" y="81.7422">Address</text><line style="stroke:#181818;stroke-width:0.5;" x1="272" x2="394" y1="90.2559" y2="90.2559"/><text fill="#000000" font-family="sans-serif" font-size="14" lengthAdjust="spacing" textLength="38" x="277" y="109.3633">Street</text><text fill="#000000" font-family="sans-serif" font-size="14" lengthAdjust="spacing" textLength="24" x="277" y="127.9844">City</text><text fill="#000000" font-family="sans-serif" font-size="14" lengthAdjust="spacing" textLength="33" x="277" y="146.6055">State</text><text fill="#000000" font-family="sans-serif" font-size="14" lengthAdjust="spacing" textLength="50" x="277" y="165.2266">Country</text><text fill="#000000" font-family="sans-serif" font-size="14" lengthAdjust="spacing" textLength="50" x="277" y="183.8477">Zipcode</text><line style="stroke:#181818;stroke-width:0.5;" x1="272" x2="394" y1="191.3613" y2="191.3613"/></g><!--class Code--><g id="elem_Code"><rect codeLine="30" fill="#F1F1F1" height="63.2422" id="Code" rx="2.5" ry="2.5" style="stroke:#181818;stroke-width:0.5;" width="124" x="430" y="450.0137"/><ellipse cx="445" cy="473.6348" fill="#ADD1B2" rx="11" ry="11" style="stroke:#181818;stroke-width:1.0;"/><path d="M447.7656,469.5098 Q447.9219,469.291 448.1094,469.1816 Q448.2969,469.0723 448.5156,469.0723 Q448.8906,469.0723 449.125,469.3379 Q449.3594,469.5879 449.3594,470.1973 L449.3594,471.6504 Q449.3594,472.2598 449.125,472.5254 Q448.8906,472.791 448.5156,472.791 Q448.1719,472.791 447.9688,472.5879 Q447.7656,472.4004 447.6563,471.8848 Q447.6094,471.5254 447.4219,471.3379 Q447.0938,470.9629 446.4844,470.7441 Q445.875,470.5254 445.25,470.5254 Q444.4844,470.5254 443.8438,470.8535 Q443.2188,471.1816 442.7188,471.9316 Q442.2344,472.6816 442.2344,473.7129 L442.2344,474.8066 Q442.2344,476.041 443.125,476.8691 Q444.0156,477.6816 445.6094,477.6816 Q446.5469,477.6816 447.2031,477.4316 Q447.5938,477.2754 448.0156,476.8379 Q448.2813,476.5723 448.4219,476.4941 Q448.5781,476.416 448.7813,476.416 Q449.1094,476.416 449.3594,476.6816 Q449.625,476.9316 449.625,477.2754 Q449.625,477.6191 449.2813,478.0254 Q448.7813,478.6035 447.9844,478.9316 Q446.9063,479.3848 445.6094,479.3848 Q444.0938,479.3848 442.8906,478.7598 Q441.9063,478.2598 441.2188,477.1973 Q440.5313,476.1191 440.5313,474.8379 L440.5313,473.6816 Q440.5313,472.3535 441.1406,471.2129 Q441.7656,470.0566 442.8594,469.4473 Q443.9531,468.8223 445.1875,468.8223 Q445.9219,468.8223 446.5625,468.9941 Q447.2188,469.1504 447.7656,469.5098 Z " fill="#000000"/><text fill="#000000" font-family="sans-serif" font-size="14" lengthAdjust="spacing" textLength="92" x="459" y="470.1211">&#171;value object&#187;</text><text fill="#000000" font-family="sans-serif" font-size="14" lengthAdjust="spacing" textLength="34" x="488" y="488.7422">Code</text><line style="stroke:#181818;stroke-width:0.5;" x1="431" x2="553" y1="497.2559" y2="497.2559"/><line style="stroke:#181818;stroke-width:0.5;" x1="431" x2="553" y1="505.2559" y2="505.2559"/></g><!--class UserDomain--><g id="elem_UserDomain"><rect codeLine="35" fill="#F1F1F1" height="48" id="UserDomain" rx="2.5" ry="2.5" style="stroke:#181818;stroke-width:0.5;" width="109" x="589.5" y="457.5137"/><ellipse cx="604.5" cy="473.5137" fill="#ADD1B2" rx="11" ry="11" style="stroke:#181818;stroke-width:1.0;"/><path d="M607.2656,469.3887 Q607.4219,469.1699 607.6094,469.0605 Q607.7969,468.9512 608.0156,468.9512 Q608.3906,468.9512 608.625,469.2168 Q608.8594,469.4668 608.8594,470.0762 L608.8594,471.5293 Q608.8594,472.1387 608.625,472.4043 Q608.3906,472.6699 608.0156,472.6699 Q607.6719,472.6699 607.4688,472.4668 Q607.2656,472.2793 607.1563,471.7637 Q607.1094,471.4043 606.9219,471.2168 Q606.5938,470.8418 605.9844,470.623 Q605.375,470.4043 604.75,470.4043 Q603.9844,470.4043 603.3438,470.7324 Q602.7188,471.0605 602.2188,471.8105 Q601.7344,472.5605 601.7344,473.5918 L601.7344,474.6855 Q601.7344,475.9199 602.625,476.748 Q603.5156,477.5605 605.1094,477.5605 Q606.0469,477.5605 606.7031,477.3105 Q607.0938,477.1543 607.5156,476.7168 Q607.7813,476.4512 607.9219,476.373 Q608.0781,476.2949 608.2813,476.2949 Q608.6094,476.2949 608.8594,476.5605 Q609.125,476.8105 609.125,477.1543 Q609.125,477.498 608.7813,477.9043 Q608.2813,478.4824 607.4844,478.8105 Q606.4063,479.2637 605.1094,479.2637 Q603.5938,479.2637 602.3906,478.6387 Q601.4063,478.1387 600.7188,477.0762 Q600.0313,475.998 600.0313,474.7168 L600.0313,473.5605 Q600.0313,472.2324 600.6406,471.0918 Q601.2656,469.9355 602.3594,469.3262 Q603.4531,468.7012 604.6875,468.7012 Q605.4219,468.7012 606.0625,468.873 Q606.7188,469.0293 607.2656,469.3887 Z " fill="#000000"/><text fill="#000000" font-family="sans-serif" font-size="14" lengthAdjust="spacing" textLength="77" x="618.5" y="479.3105">UserDomain</text><line style="stroke:#181818;stroke-width:0.5;" x1="590.5" x2="697.5" y1="489.5137" y2="489.5137"/><line style="stroke:#181818;stroke-width:0.5;" x1="590.5" x2="697.5" y1="497.5137" y2="497.5137"/></g><!--link Customer to EMail1--><g id="link_Customer_EMail1"><path codeLine="41" d="M333,360.1037 C333,387.9537 333,418.5037 333,444.0037 " fill="none" id="Customer-to-EMail1" style="stroke:#181818;stroke-width:1.0;"/><polygon fill="#181818" points="333,450.0037,337,441.0037,333,445.0037,329,441.0037,333,450.0037" style="stroke:#181818;stroke-width:1.0;"/><text fill="#000000" font-family="sans-serif" font-size="13" lengthAdjust="spacing" textLength="39" x="334" y="405.042">has an</text><text fill="#000000" font-family="sans-serif" font-size="13" lengthAdjust="spacing" textLength="7" x="325.4641" y="381.7582">1</text><text fill="#000000" font-family="sans-serif" font-size="13" lengthAdjust="spacing" textLength="7" x="325.2781" y="438.785">1</text></g><!--link Customer to UserDomain--><g id="link_Customer_UserDomain"><path codeLine="43" d="M379.84,338.0537 C412.86,351.2637 457.84,370.2837 496,390.0137 C536.13,410.7637 575.0134,434.9876 604.5034,454.2076 " fill="none" id="Customer-to-UserDomain" style="stroke:#181818;stroke-width:1.0;stroke-dasharray:7.0,7.0;"/><polygon fill="#181818" points="609.53,457.4837,604.1741,449.2184,605.3411,454.7536,599.806,455.9206,609.53,457.4837" style="stroke:#181818;stroke-width:1.0;"/><text fill="#000000" font-family="sans-serif" font-size="13" lengthAdjust="spacing" textLength="7" x="387.5483" y="336.7287">1</text><text fill="#000000" font-family="sans-serif" font-size="13" lengthAdjust="spacing" textLength="7" x="592.8002" y="446.2135">1</text></g><!--reverse link Address2 to Customer--><g id="link_Address2_Customer"><path codeLine="45" d="M333,205.1937 C333,232.0837 333,255.1637 333,277.8237 " fill="none" id="Address2-backto-Customer" style="stroke:#181818;stroke-width:1.0;"/><polygon fill="#181818" points="333,199.1937,329,208.1937,333,204.1937,337,208.1937,333,199.1937" style="stroke:#181818;stroke-width:1.0;"/><text fill="#000000" font-family="sans-serif" font-size="13" lengthAdjust="spacing" textLength="39" x="334" y="244.042">has an</text></g><!--link Customer to Code--><g id="link_Customer_Code"><path codeLine="47" d="M372.71,360.1037 C400.31,387.9537 432.2983,420.2402 457.5483,445.7402 " fill="none" id="Customer-to-Code" style="stroke:#181818;stroke-width:1.0;"/><polygon fill="#181818" points="461.77,450.0037,458.2798,440.794,458.2519,446.4508,452.5951,446.4229,461.77,450.0037" style="stroke:#181818;stroke-width:1.0;"/><text fill="#000000" font-family="sans-serif" font-size="13" lengthAdjust="spacing" textLength="69" x="418" y="405.042">identified by</text></g><!--link Customer to Name1--><g id="link_Customer_Name1"><path codeLine="49" d="M299.78,360.1037 C279.85,384.1437 258.3776,410.0631 238.2476,434.3631 " fill="none" id="Customer-to-Name1" style="stroke:#181818;stroke-width:1.0;"/><polygon fill="#181818" points="234.42,438.9837,243.2418,434.6046,237.6097,435.1332,237.0811,429.5011,234.42,438.9837" style="stroke:#181818;stroke-width:1.0;"/><text fill="#000000" font-family="sans-serif" font-size="13" lengthAdjust="spacing" textLength="21" x="276" y="405.042">has</text></g><!--link Customer to SystemUser--><g id="link_Customer_SystemUser"><path codeLine="50" d="M286.37,337.7537 C255.63,350.3637 215.08,368.7937 182,390.0137 C151.25,409.7437 124.2308,433.5415 103.6908,453.1415 " fill="none" id="Customer-to-SystemUser" style="stroke:#181818;stroke-width:1.0;"/><polygon fill="#181818" points="99.35,457.2837,108.6226,453.9643,102.9673,453.8319,103.0998,448.1766,99.35,457.2837" style="stroke:#181818;stroke-width:1.0;"/><text fill="#000000" font-family="sans-serif" font-size="13" lengthAdjust="spacing" textLength="71" x="183" y="405.042">managed by</text></g><!--SRC=[ZLB1JiCm3BtdAwnUE7NIE2A4D8qTuJ9nGLoynkt2scHAFD0qxOls2TpsPJXfrz8997oeNFkz5-SvOMFi5Zqs4DQetQUn5PHO1rBgfgQIWHruKwqPjF5Ki75MARN5OeCLGJRV1NODUPXLbQSAcRA30ecYnX0WEv_8ik7z-UlDda_UEOxPXPK11hZy75GY7fLgkSjzO6fUGkmSrK_HPsmeKMCoXVR06ANnWMEnhmXXA1pRSZ_Q1zOx0hTwbtl5iHRv4vewAIzYDksKkzF_9iwqzXH2OdRvxJ1LZ2Lx8XwLvcBB5KRi6qFSph8VerxDjd2Q_ZdPNA2jov8Cr-bDZlO-kWQDFKWjHh_HR9hb-ODyEpFW3jOYX7QCcKmIPX1Iwc81tETvlzxVwAAV1fEUqV6Xb8OqhFPNa7RDYJzk34z4kWrQUPA9_Wq0]--></g></svg>