<?xml version="1.0" encoding="us-ascii" standalone="no"?><svg xmlns="http://www.w3.org/2000/svg" xmlns:xlink="http://www.w3.org/1999/xlink" contentStyleType="text/css" height="1337px" preserveAspectRatio="none" style="width:3821px;height:1337px;background:#FFFFFF;" version="1.1" viewBox="0 0 3821 1337" width="3821px" zoomAndPan="magnify"><defs/><g><rect fill="#FFFFFF" height="1151.8457" style="stroke:#181818;stroke-width:1.0;" width="10" x="61.5" y="93.6211"/><rect fill="#FFFFFF" height="31.291" style="stroke:#181818;stroke-width:1.0;" width="10" x="556.5" y="116.9121"/><rect fill="#FFFFFF" height="1056.9727" style="stroke:#181818;stroke-width:1.0;" width="10" x="556.5" y="179.4941"/><rect fill="#FFFFFF" height="93.873" style="stroke:#181818;stroke-width:1.0;" width="10" x="1053.5" y="290.0273"/><rect fill="#FFFFFF" height="789.9844" style="stroke:#181818;stroke-width:1.0;" width="10" x="1053.5" y="415.1914"/><rect fill="#FFFFFF" height="292.6191" style="stroke:#181818;stroke-width:1.0;" width="10" x="1058.5" y="548.3555"/><rect fill="#FFFFFF" height="31.291" style="stroke:#181818;stroke-width:1.0;" width="10" x="1479.5" y="321.3184"/><rect fill="#FFFFFF" height="62.582" style="stroke:#181818;stroke-width:1.0;" width="10" x="1610" y="446.4824"/><rect fill="#FFFFFF" height="219.0371" style="stroke:#181818;stroke-width:1.0;" width="10" x="1949.5" y="584.6465"/><rect fill="#FFFFFF" height="125.1641" style="stroke:#181818;stroke-width:1.0;" width="10" x="2115.5" y="615.9375"/><rect fill="#FFFFFF" height="62.582" style="stroke:#181818;stroke-width:1.0;" width="10" x="2260.5" y="647.2285"/><rect fill="#FFFFFF" height="219.0371" style="stroke:#181818;stroke-width:1.0;" width="10" x="2741.5" y="954.8477"/><rect fill="#FFFFFF" height="156.4551" style="stroke:#181818;stroke-width:1.0;" width="10" x="2894.5" y="986.1387"/><rect fill="#FFFFFF" height="93.873" style="stroke:#181818;stroke-width:1.0;" width="10" x="3128" y="1017.4297"/><line style="stroke:#181818;stroke-width:0.5;stroke-dasharray:5.0,5.0;" x1="66" x2="66" y1="83.6211" y2="1254.4668"/><line style="stroke:#181818;stroke-width:0.5;stroke-dasharray:5.0,5.0;" x1="561.5" x2="561.5" y1="83.6211" y2="1254.4668"/><line style="stroke:#181818;stroke-width:0.5;stroke-dasharray:5.0,5.0;" x1="1058.5" x2="1058.5" y1="237.1152" y2="1254.4668"/><line style="stroke:#181818;stroke-width:0.5;stroke-dasharray:5.0,5.0;" x1="1484.5" x2="1484.5" y1="83.6211" y2="1254.4668"/><line style="stroke:#181818;stroke-width:0.5;stroke-dasharray:5.0,5.0;" x1="1614.5" x2="1614.5" y1="83.6211" y2="1254.4668"/><line style="stroke:#181818;stroke-width:0.5;stroke-dasharray:5.0,5.0;" x1="1765.5" x2="1765.5" y1="83.6211" y2="1254.4668"/><line style="stroke:#181818;stroke-width:0.5;stroke-dasharray:5.0,5.0;" x1="1954.5" x2="1954.5" y1="83.6211" y2="1254.4668"/><line style="stroke:#181818;stroke-width:0.5;stroke-dasharray:5.0,5.0;" x1="2120.5" x2="2120.5" y1="83.6211" y2="1254.4668"/><line style="stroke:#181818;stroke-width:0.5;stroke-dasharray:5.0,5.0;" x1="2265.5" x2="2265.5" y1="83.6211" y2="1254.4668"/><line style="stroke:#181818;stroke-width:0.5;stroke-dasharray:5.0,5.0;" x1="2410.5" x2="2410.5" y1="83.6211" y2="1254.4668"/><line style="stroke:#181818;stroke-width:0.5;stroke-dasharray:5.0,5.0;" x1="2590.5" x2="2590.5" y1="83.6211" y2="1254.4668"/><line style="stroke:#181818;stroke-width:0.5;stroke-dasharray:5.0,5.0;" x1="2746.5" x2="2746.5" y1="83.6211" y2="1254.4668"/><line style="stroke:#181818;stroke-width:0.5;stroke-dasharray:5.0,5.0;" x1="2899.5" x2="2899.5" y1="83.6211" y2="1254.4668"/><line style="stroke:#181818;stroke-width:0.5;stroke-dasharray:5.0,5.0;" x1="3132.5" x2="3132.5" y1="83.6211" y2="1254.4668"/><line style="stroke:#181818;stroke-width:0.5;stroke-dasharray:5.0,5.0;" x1="3493.5" x2="3493.5" y1="83.6211" y2="1254.4668"/><line style="stroke:#181818;stroke-width:0.5;stroke-dasharray:5.0,5.0;" x1="3600.5" x2="3600.5" y1="83.6211" y2="1254.4668"/><line style="stroke:#181818;stroke-width:0.5;stroke-dasharray:5.0,5.0;" x1="3741.5" x2="3741.5" y1="83.6211" y2="1254.4668"/><text fill="#000000" font-family="sans-serif" font-size="14" lengthAdjust="spacing" textLength="117" x="5" y="80.1074">CustomerManager</text><ellipse cx="66.5" cy="13.5" fill="#E3E3E3" rx="8" ry="8" style="stroke:#181818;stroke-width:0.5;"/><path d="M66.5,21.5 L66.5,48.5 M53.5,29.5 L79.5,29.5 M66.5,48.5 L53.5,63.5 M66.5,48.5 L79.5,63.5 " fill="none" style="stroke:#181818;stroke-width:0.5;"/><text fill="#000000" font-family="sans-serif" font-size="14" lengthAdjust="spacing" textLength="117" x="5" y="1268.5742">CustomerManager</text><ellipse cx="66.5" cy="1280.5879" fill="#E3E3E3" rx="8" ry="8" style="stroke:#181818;stroke-width:0.5;"/><path d="M66.5,1288.5879 L66.5,1315.5879 M53.5,1296.5879 L79.5,1296.5879 M66.5,1315.5879 L53.5,1330.5879 M66.5,1315.5879 L79.5,1330.5879 " fill="none" style="stroke:#181818;stroke-width:0.5;"/><rect fill="#E3E3E3" height="51.2422" rx="2.5" ry="2.5" style="stroke:#181818;stroke-width:0.5;" width="144" x="489.5" y="31.3789"/><text fill="#000000" font-family="sans-serif" font-size="14" font-style="italic" lengthAdjust="spacing" textLength="95" x="514" y="53.4863">&#171;presentation&#187;</text><text fill="#000000" font-family="sans-serif" font-size="14" lengthAdjust="spacing" textLength="130" x="496.5" y="72.1074">:RegisterCustomerUI</text><rect fill="#E3E3E3" height="51.2422" rx="2.5" ry="2.5" style="stroke:#181818;stroke-width:0.5;" width="144" x="489.5" y="1253.4668"/><text fill="#000000" font-family="sans-serif" font-size="14" font-style="italic" lengthAdjust="spacing" textLength="95" x="514" y="1275.5742">&#171;presentation&#187;</text><text fill="#000000" font-family="sans-serif" font-size="14" lengthAdjust="spacing" textLength="130" x="496.5" y="1294.1953">:RegisterCustomerUI</text><text fill="#000000" font-family="sans-serif" font-size="14" font-style="italic" lengthAdjust="spacing" textLength="84" x="1013.5" y="1268.5742">&#171;application&#187;</text><text fill="#000000" font-family="sans-serif" font-size="14" lengthAdjust="spacing" textLength="180" x="965.5" y="1287.1953">:RegisterCustomerController</text><ellipse cx="1058.5" cy="1306.709" fill="#E3E3E3" rx="12" ry="12" style="stroke:#181818;stroke-width:0.5;"/><polygon fill="#181818" points="1054.5,1294.709,1060.5,1289.709,1058.5,1294.709,1060.5,1299.709,1054.5,1294.709" style="stroke:#181818;stroke-width:1.0;"/><rect fill="#E3E3E3" height="51.2422" rx="2.5" ry="2.5" style="stroke:#181818;stroke-width:0.5;" width="140" x="1414.5" y="31.3789"/><text fill="#000000" font-family="sans-serif" font-size="14" font-style="italic" lengthAdjust="spacing" textLength="84" x="1442.5" y="53.4863">&#171;application&#187;</text><text fill="#000000" font-family="sans-serif" font-size="14" lengthAdjust="spacing" textLength="126" x="1421.5" y="72.1074">PasswordGenerator</text><rect fill="#E3E3E3" height="51.2422" rx="2.5" ry="2.5" style="stroke:#181818;stroke-width:0.5;" width="140" x="1414.5" y="1253.4668"/><text fill="#000000" font-family="sans-serif" font-size="14" font-style="italic" lengthAdjust="spacing" textLength="84" x="1442.5" y="1275.5742">&#171;application&#187;</text><text fill="#000000" font-family="sans-serif" font-size="14" lengthAdjust="spacing" textLength="126" x="1421.5" y="1294.1953">PasswordGenerator</text><rect fill="#E3E3E3" height="51.2422" rx="2.5" ry="2.5" style="stroke:#181818;stroke-width:0.5;" width="101" x="1564.5" y="31.3789"/><text fill="#000000" font-family="sans-serif" font-size="14" font-style="italic" lengthAdjust="spacing" textLength="84" x="1573" y="53.4863">&#171;application&#187;</text><text fill="#000000" font-family="sans-serif" font-size="14" lengthAdjust="spacing" textLength="87" x="1571.5" y="72.1074">AuthzRegistry</text><rect fill="#E3E3E3" height="51.2422" rx="2.5" ry="2.5" style="stroke:#181818;stroke-width:0.5;" width="101" x="1564.5" y="1253.4668"/><text fill="#000000" font-family="sans-serif" font-size="14" font-style="italic" lengthAdjust="spacing" textLength="84" x="1573" y="1275.5742">&#171;application&#187;</text><text fill="#000000" font-family="sans-serif" font-size="14" lengthAdjust="spacing" textLength="87" x="1571.5" y="1294.1953">AuthzRegistry</text><rect fill="#E3E3E3" height="51.2422" rx="2.5" ry="2.5" style="stroke:#181818;stroke-width:0.5;" width="181" x="1675.5" y="31.3789"/><text fill="#000000" font-family="sans-serif" font-size="14" font-style="italic" lengthAdjust="spacing" textLength="84" x="1724" y="53.4863">&#171;application&#187;</text><text fill="#000000" font-family="sans-serif" font-size="14" lengthAdjust="spacing" textLength="167" x="1682.5" y="72.1074">authz:AuthorizationService</text><rect fill="#E3E3E3" height="51.2422" rx="2.5" ry="2.5" style="stroke:#181818;stroke-width:0.5;" width="181" x="1675.5" y="1253.4668"/><text fill="#000000" font-family="sans-serif" font-size="14" font-style="italic" lengthAdjust="spacing" textLength="84" x="1724" y="1275.5742">&#171;application&#187;</text><text fill="#000000" font-family="sans-serif" font-size="14" lengthAdjust="spacing" textLength="167" x="1682.5" y="1294.1953">authz:AuthorizationService</text><rect fill="#E3E3E3" height="51.2422" rx="2.5" ry="2.5" style="stroke:#181818;stroke-width:0.5;" width="176" x="1866.5" y="31.3789"/><text fill="#000000" font-family="sans-serif" font-size="14" font-style="italic" lengthAdjust="spacing" textLength="84" x="1912.5" y="53.4863">&#171;application&#187;</text><text fill="#000000" font-family="sans-serif" font-size="14" lengthAdjust="spacing" textLength="162" x="1873.5" y="72.1074">:UserManagementService</text><rect fill="#E3E3E3" height="51.2422" rx="2.5" ry="2.5" style="stroke:#181818;stroke-width:0.5;" width="176" x="1866.5" y="1253.4668"/><text fill="#000000" font-family="sans-serif" font-size="14" font-style="italic" lengthAdjust="spacing" textLength="84" x="1912.5" y="1275.5742">&#171;application&#187;</text><text fill="#000000" font-family="sans-serif" font-size="14" lengthAdjust="spacing" textLength="162" x="1873.5" y="1294.1953">:UserManagementService</text><rect fill="#E3E3E3" height="51.2422" rx="2.5" ry="2.5" style="stroke:#181818;stroke-width:0.5;" width="136" x="2052.5" y="31.3789"/><text fill="#000000" font-family="sans-serif" font-size="14" font-style="italic" lengthAdjust="spacing" textLength="89" x="2076" y="53.4863">&#171;persistence&#187;</text><text fill="#000000" font-family="sans-serif" font-size="14" lengthAdjust="spacing" textLength="122" x="2059.5" y="72.1074">PersistenceContext</text><rect fill="#E3E3E3" height="51.2422" rx="2.5" ry="2.5" style="stroke:#181818;stroke-width:0.5;" width="136" x="2052.5" y="1253.4668"/><text fill="#000000" font-family="sans-serif" font-size="14" font-style="italic" lengthAdjust="spacing" textLength="89" x="2076" y="1275.5742">&#171;persistence&#187;</text><text fill="#000000" font-family="sans-serif" font-size="14" lengthAdjust="spacing" textLength="122" x="2059.5" y="1294.1953">PersistenceContext</text><rect fill="#E3E3E3" height="51.2422" rx="2.5" ry="2.5" style="stroke:#181818;stroke-width:0.5;" width="134" x="2198.5" y="31.3789"/><text fill="#000000" font-family="sans-serif" font-size="14" font-style="italic" lengthAdjust="spacing" textLength="89" x="2221" y="53.4863">&#171;persistence&#187;</text><text fill="#000000" font-family="sans-serif" font-size="14" lengthAdjust="spacing" textLength="120" x="2205.5" y="72.1074">:RepositoryFactory</text><rect fill="#E3E3E3" height="51.2422" rx="2.5" ry="2.5" style="stroke:#181818;stroke-width:0.5;" width="134" x="2198.5" y="1253.4668"/><text fill="#000000" font-family="sans-serif" font-size="14" font-style="italic" lengthAdjust="spacing" textLength="89" x="2221" y="1275.5742">&#171;persistence&#187;</text><text fill="#000000" font-family="sans-serif" font-size="14" lengthAdjust="spacing" textLength="120" x="2205.5" y="1294.1953">:RepositoryFactory</text><rect fill="#E3E3E3" height="51.2422" rx="2.5" ry="2.5" style="stroke:#181818;stroke-width:0.5;" width="137" x="2342.5" y="31.3789"/><text fill="#000000" font-family="sans-serif" font-size="14" font-style="italic" lengthAdjust="spacing" textLength="62" x="2380" y="53.4863">&#171;domain&#187;</text><text fill="#000000" font-family="sans-serif" font-size="14" lengthAdjust="spacing" textLength="123" x="2349.5" y="72.1074">:SystemUserBuilder</text><rect fill="#E3E3E3" height="51.2422" rx="2.5" ry="2.5" style="stroke:#181818;stroke-width:0.5;" width="137" x="2342.5" y="1253.4668"/><text fill="#000000" font-family="sans-serif" font-size="14" font-style="italic" lengthAdjust="spacing" textLength="62" x="2380" y="1275.5742">&#171;domain&#187;</text><text fill="#000000" font-family="sans-serif" font-size="14" lengthAdjust="spacing" textLength="123" x="2349.5" y="1294.1953">:SystemUserBuilder</text><rect fill="#E3E3E3" height="51.2422" rx="2.5" ry="2.5" style="stroke:#181818;stroke-width:0.5;" width="203" x="2489.5" y="31.3789"/><text fill="#000000" font-family="sans-serif" font-size="14" font-style="italic" lengthAdjust="spacing" textLength="51" x="2565.5" y="53.4863">&#171;Event&#187;</text><text fill="#000000" font-family="sans-serif" font-size="14" lengthAdjust="spacing" textLength="189" x="2496.5" y="72.1074">event:RegisterCustomerEvent</text><rect fill="#E3E3E3" height="51.2422" rx="2.5" ry="2.5" style="stroke:#181818;stroke-width:0.5;" width="203" x="2489.5" y="1253.4668"/><text fill="#000000" font-family="sans-serif" font-size="14" font-style="italic" lengthAdjust="spacing" textLength="51" x="2565.5" y="1275.5742">&#171;Event&#187;</text><text fill="#000000" font-family="sans-serif" font-size="14" lengthAdjust="spacing" textLength="189" x="2496.5" y="1294.1953">event:RegisterCustomerEvent</text><rect fill="#E3E3E3" height="51.2422" rx="2.5" ry="2.5" style="stroke:#181818;stroke-width:0.5;" width="88" x="2702.5" y="31.3789"/><text fill="#000000" font-family="sans-serif" font-size="14" font-style="italic" lengthAdjust="spacing" textLength="74" x="2709.5" y="53.4863">&#171;publisher&#187;</text><text fill="#000000" font-family="sans-serif" font-size="14" lengthAdjust="spacing" textLength="68" x="2712.5" y="72.1074">Dispatcher</text><rect fill="#E3E3E3" height="51.2422" rx="2.5" ry="2.5" style="stroke:#181818;stroke-width:0.5;" width="88" x="2702.5" y="1253.4668"/><text fill="#000000" font-family="sans-serif" font-size="14" font-style="italic" lengthAdjust="spacing" textLength="74" x="2709.5" y="1275.5742">&#171;publisher&#187;</text><text fill="#000000" font-family="sans-serif" font-size="14" lengthAdjust="spacing" textLength="68" x="2712.5" y="1294.1953">Dispatcher</text><rect fill="#E3E3E3" height="32.6211" rx="2.5" ry="2.5" style="stroke:#181818;stroke-width:0.5;" width="198" x="2800.5" y="50"/><text fill="#000000" font-family="sans-serif" font-size="14" lengthAdjust="spacing" textLength="184" x="2807.5" y="72.1074">:RegisterCustomerWatchDog</text><rect fill="#E3E3E3" height="32.6211" rx="2.5" ry="2.5" style="stroke:#181818;stroke-width:0.5;" width="198" x="2800.5" y="1253.4668"/><text fill="#000000" font-family="sans-serif" font-size="14" lengthAdjust="spacing" textLength="184" x="2807.5" y="1275.5742">:RegisterCustomerWatchDog</text><rect fill="#E3E3E3" height="32.6211" rx="2.5" ry="2.5" style="stroke:#181818;stroke-width:0.5;" width="249" x="3008.5" y="50"/><text fill="#000000" font-family="sans-serif" font-size="14" lengthAdjust="spacing" textLength="235" x="3015.5" y="72.1074">:RegisterCustomerOnEventController</text><rect fill="#E3E3E3" height="32.6211" rx="2.5" ry="2.5" style="stroke:#181818;stroke-width:0.5;" width="249" x="3008.5" y="1253.4668"/><text fill="#000000" font-family="sans-serif" font-size="14" lengthAdjust="spacing" textLength="235" x="3015.5" y="1275.5742">:RegisterCustomerOnEventController</text><rect fill="#E3E3E3" height="51.2422" rx="2.5" ry="2.5" style="stroke:#181818;stroke-width:0.5;" width="79" x="3454.5" y="31.3789"/><text fill="#000000" font-family="sans-serif" font-size="14" font-style="italic" lengthAdjust="spacing" textLength="62" x="3463" y="53.4863">&#171;domain&#187;</text><text fill="#000000" font-family="sans-serif" font-size="14" lengthAdjust="spacing" textLength="65" x="3461.5" y="72.1074">:Customer</text><rect fill="#E3E3E3" height="51.2422" rx="2.5" ry="2.5" style="stroke:#181818;stroke-width:0.5;" width="79" x="3454.5" y="1253.4668"/><text fill="#000000" font-family="sans-serif" font-size="14" font-style="italic" lengthAdjust="spacing" textLength="62" x="3463" y="1275.5742">&#171;domain&#187;</text><text fill="#000000" font-family="sans-serif" font-size="14" lengthAdjust="spacing" textLength="65" x="3461.5" y="1294.1953">:Customer</text><rect fill="#E3E3E3" height="51.2422" rx="2.5" ry="2.5" style="stroke:#181818;stroke-width:0.5;" width="115" x="3543.5" y="31.3789"/><text fill="#000000" font-family="sans-serif" font-size="14" font-style="italic" lengthAdjust="spacing" textLength="79" x="3561.5" y="53.4863">&#171;repository&#187;</text><text fill="#000000" font-family="sans-serif" font-size="14" lengthAdjust="spacing" textLength="101" x="3550.5" y="72.1074">:UserRepository</text><rect fill="#E3E3E3" height="51.2422" rx="2.5" ry="2.5" style="stroke:#181818;stroke-width:0.5;" width="115" x="3543.5" y="1253.4668"/><text fill="#000000" font-family="sans-serif" font-size="14" font-style="italic" lengthAdjust="spacing" textLength="79" x="3561.5" y="1275.5742">&#171;repository&#187;</text><text fill="#000000" font-family="sans-serif" font-size="14" lengthAdjust="spacing" textLength="101" x="3550.5" y="1294.1953">:UserRepository</text><rect fill="#E3E3E3" height="51.2422" rx="2.5" ry="2.5" style="stroke:#181818;stroke-width:0.5;" width="147" x="3668.5" y="31.3789"/><text fill="#000000" font-family="sans-serif" font-size="14" font-style="italic" lengthAdjust="spacing" textLength="79" x="3702.5" y="53.4863">&#171;repository&#187;</text><text fill="#000000" font-family="sans-serif" font-size="14" lengthAdjust="spacing" textLength="133" x="3675.5" y="72.1074">:CustomerRepository</text><rect fill="#E3E3E3" height="51.2422" rx="2.5" ry="2.5" style="stroke:#181818;stroke-width:0.5;" width="147" x="3668.5" y="1253.4668"/><text fill="#000000" font-family="sans-serif" font-size="14" font-style="italic" lengthAdjust="spacing" textLength="79" x="3702.5" y="1275.5742">&#171;repository&#187;</text><text fill="#000000" font-family="sans-serif" font-size="14" lengthAdjust="spacing" textLength="133" x="3675.5" y="1294.1953">:CustomerRepository</text><rect fill="#FFFFFF" height="1151.8457" style="stroke:#181818;stroke-width:1.0;" width="10" x="61.5" y="93.6211"/><rect fill="#FFFFFF" height="31.291" style="stroke:#181818;stroke-width:1.0;" width="10" x="556.5" y="116.9121"/><rect fill="#FFFFFF" height="1056.9727" style="stroke:#181818;stroke-width:1.0;" width="10" x="556.5" y="179.4941"/><rect fill="#FFFFFF" height="93.873" style="stroke:#181818;stroke-width:1.0;" width="10" x="1053.5" y="290.0273"/><rect fill="#FFFFFF" height="789.9844" style="stroke:#181818;stroke-width:1.0;" width="10" x="1053.5" y="415.1914"/><rect fill="#FFFFFF" height="292.6191" style="stroke:#181818;stroke-width:1.0;" width="10" x="1058.5" y="548.3555"/><rect fill="#FFFFFF" height="31.291" style="stroke:#181818;stroke-width:1.0;" width="10" x="1479.5" y="321.3184"/><rect fill="#FFFFFF" height="62.582" style="stroke:#181818;stroke-width:1.0;" width="10" x="1610" y="446.4824"/><rect fill="#FFFFFF" height="219.0371" style="stroke:#181818;stroke-width:1.0;" width="10" x="1949.5" y="584.6465"/><rect fill="#FFFFFF" height="125.1641" style="stroke:#181818;stroke-width:1.0;" width="10" x="2115.5" y="615.9375"/><rect fill="#FFFFFF" height="62.582" style="stroke:#181818;stroke-width:1.0;" width="10" x="2260.5" y="647.2285"/><rect fill="#FFFFFF" height="219.0371" style="stroke:#181818;stroke-width:1.0;" width="10" x="2741.5" y="954.8477"/><rect fill="#FFFFFF" height="156.4551" style="stroke:#181818;stroke-width:1.0;" width="10" x="2894.5" y="986.1387"/><rect fill="#FFFFFF" height="93.873" style="stroke:#181818;stroke-width:1.0;" width="10" x="3128" y="1017.4297"/><polygon fill="#181818" points="544.5,112.9121,554.5,116.9121,544.5,120.9121,548.5,116.9121" style="stroke:#181818;stroke-width:1.0;"/><line style="stroke:#181818;stroke-width:1.0;" x1="71.5" x2="550.5" y1="116.9121" y2="116.9121"/><text fill="#000000" font-family="sans-serif" font-size="13" font-weight="bold" lengthAdjust="spacing" textLength="7" x="78.5" y="111.6494">1</text><text fill="#000000" font-family="sans-serif" font-size="13" lengthAdjust="spacing" textLength="163" x="89.5" y="111.6494">Asks to register a Customer</text><polygon fill="#181818" points="82.5,144.2031,72.5,148.2031,82.5,152.2031,78.5,148.2031" style="stroke:#181818;stroke-width:1.0;"/><line style="stroke:#181818;stroke-width:1.0;stroke-dasharray:2.0,2.0;" x1="76.5" x2="560.5" y1="148.2031" y2="148.2031"/><text fill="#000000" font-family="sans-serif" font-size="13" font-weight="bold" lengthAdjust="spacing" textLength="7" x="88.5" y="142.9404">2</text><text fill="#000000" font-family="sans-serif" font-size="13" lengthAdjust="spacing" textLength="107" x="99.5" y="142.9404">Ask Customer info</text><polygon fill="#181818" points="544.5,175.4941,554.5,179.4941,544.5,183.4941,548.5,179.4941" style="stroke:#181818;stroke-width:1.0;"/><line style="stroke:#181818;stroke-width:1.0;" x1="71.5" x2="550.5" y1="179.4941" y2="179.4941"/><text fill="#000000" font-family="sans-serif" font-size="13" font-weight="bold" lengthAdjust="spacing" textLength="7" x="78.5" y="174.2314">3</text><text fill="#000000" font-family="sans-serif" font-size="13" lengthAdjust="spacing" textLength="274" x="89.5" y="174.2314">First Name, Last Name, E-mail, Address, Code</text><polygon fill="#181818" points="953.5,206.7852,963.5,210.7852,953.5,214.7852,957.5,210.7852" style="stroke:#181818;stroke-width:1.0;"/><line style="stroke:#181818;stroke-width:1.0;" x1="566.5" x2="959.5" y1="210.7852" y2="210.7852"/><text fill="#000000" font-family="sans-serif" font-size="13" font-weight="bold" lengthAdjust="spacing" textLength="7" x="573.5" y="205.5225">4</text><text fill="#000000" font-family="sans-serif" font-size="13" lengthAdjust="spacing" textLength="36" x="584.5" y="205.5225">create</text><text fill="#000000" font-family="sans-serif" font-size="14" font-style="italic" lengthAdjust="spacing" textLength="84" x="1013.5" y="234.6016">&#171;application&#187;</text><text fill="#000000" font-family="sans-serif" font-size="14" lengthAdjust="spacing" textLength="180" x="965.5" y="253.2227">:RegisterCustomerController</text><ellipse cx="1058.5" cy="203.4941" fill="#E3E3E3" rx="12" ry="12" style="stroke:#181818;stroke-width:0.5;"/><polygon fill="#181818" points="1054.5,191.4941,1060.5,186.4941,1058.5,191.4941,1060.5,196.4941,1054.5,191.4941" style="stroke:#181818;stroke-width:1.0;"/><polygon fill="#181818" points="1041.5,286.0273,1051.5,290.0273,1041.5,294.0273,1045.5,290.0273" style="stroke:#181818;stroke-width:1.0;"/><line style="stroke:#181818;stroke-width:1.0;" x1="566.5" x2="1047.5" y1="290.0273" y2="290.0273"/><text fill="#000000" font-family="sans-serif" font-size="13" font-weight="bold" lengthAdjust="spacing" textLength="7" x="573.5" y="284.7646">5</text><text fill="#000000" font-family="sans-serif" font-size="13" lengthAdjust="spacing" textLength="115" x="584.5" y="284.7646">generatePassword()</text><polygon fill="#181818" points="1467.5,317.3184,1477.5,321.3184,1467.5,325.3184,1471.5,321.3184" style="stroke:#181818;stroke-width:1.0;"/><line style="stroke:#181818;stroke-width:1.0;" x1="1063.5" x2="1473.5" y1="321.3184" y2="321.3184"/><text fill="#000000" font-family="sans-serif" font-size="13" font-weight="bold" lengthAdjust="spacing" textLength="7" x="1070.5" y="316.0557">6</text><text fill="#000000" font-family="sans-serif" font-size="13" lengthAdjust="spacing" textLength="115" x="1081.5" y="316.0557">generatePassword()</text><polygon fill="#181818" points="1074.5,348.6094,1064.5,352.6094,1074.5,356.6094,1070.5,352.6094" style="stroke:#181818;stroke-width:1.0;"/><line style="stroke:#181818;stroke-width:1.0;stroke-dasharray:2.0,2.0;" x1="1068.5" x2="1483.5" y1="352.6094" y2="352.6094"/><text fill="#000000" font-family="sans-serif" font-size="13" font-weight="bold" lengthAdjust="spacing" textLength="7" x="1080.5" y="347.3467">7</text><text fill="#000000" font-family="sans-serif" font-size="13" lengthAdjust="spacing" textLength="55" x="1091.5" y="347.3467">password</text><polygon fill="#181818" points="577.5,379.9004,567.5,383.9004,577.5,387.9004,573.5,383.9004" style="stroke:#181818;stroke-width:1.0;"/><line style="stroke:#181818;stroke-width:1.0;stroke-dasharray:2.0,2.0;" x1="571.5" x2="1057.5" y1="383.9004" y2="383.9004"/><text fill="#000000" font-family="sans-serif" font-size="13" font-weight="bold" lengthAdjust="spacing" textLength="7" x="583.5" y="378.6377">8</text><text fill="#000000" font-family="sans-serif" font-size="13" lengthAdjust="spacing" textLength="55" x="594.5" y="378.6377">password</text><polygon fill="#181818" points="1041.5,411.1914,1051.5,415.1914,1041.5,419.1914,1045.5,415.1914" style="stroke:#181818;stroke-width:1.0;"/><line style="stroke:#181818;stroke-width:1.0;" x1="566.5" x2="1047.5" y1="415.1914" y2="415.1914"/><text fill="#000000" font-family="sans-serif" font-size="13" font-weight="bold" lengthAdjust="spacing" textLength="7" x="573.5" y="409.9287">9</text><text fill="#000000" font-family="sans-serif" font-size="13" lengthAdjust="spacing" textLength="457" x="584.5" y="409.9287">registerCustomer(email, password, firstName, lastName, code,  address, roles)</text><polygon fill="#181818" points="1598,442.4824,1608,446.4824,1598,450.4824,1602,446.4824" style="stroke:#181818;stroke-width:1.0;"/><line style="stroke:#181818;stroke-width:1.0;" x1="1063.5" x2="1604" y1="446.4824" y2="446.4824"/><text fill="#000000" font-family="sans-serif" font-size="13" font-weight="bold" lengthAdjust="spacing" textLength="14" x="1070.5" y="441.2197">10</text><text fill="#000000" font-family="sans-serif" font-size="13" lengthAdjust="spacing" textLength="124" x="1088.5" y="441.2197">authorizationService()</text><polygon fill="#181818" points="1754,473.7734,1764,477.7734,1754,481.7734,1758,477.7734" style="stroke:#181818;stroke-width:1.0;"/><line style="stroke:#181818;stroke-width:1.0;" x1="1620" x2="1760" y1="477.7734" y2="477.7734"/><text fill="#000000" font-family="sans-serif" font-size="13" font-weight="bold" lengthAdjust="spacing" textLength="14" x="1627" y="472.5107">11</text><text fill="#000000" font-family="sans-serif" font-size="13" lengthAdjust="spacing" textLength="44" x="1645" y="472.5107">create()</text><polygon fill="#181818" points="1074.5,505.0645,1064.5,509.0645,1074.5,513.0645,1070.5,509.0645" style="stroke:#181818;stroke-width:1.0;"/><line style="stroke:#181818;stroke-width:1.0;stroke-dasharray:2.0,2.0;" x1="1068.5" x2="1614" y1="509.0645" y2="509.0645"/><text fill="#000000" font-family="sans-serif" font-size="13" font-weight="bold" lengthAdjust="spacing" textLength="14" x="1080.5" y="503.8018">12</text><text fill="#000000" font-family="sans-serif" font-size="13" lengthAdjust="spacing" textLength="32" x="1098.5" y="503.8018">authz</text><line style="stroke:#181818;stroke-width:1.0;" x1="1063.5" x2="1110.5" y1="535.3555" y2="535.3555"/><line style="stroke:#181818;stroke-width:1.0;" x1="1110.5" x2="1110.5" y1="535.3555" y2="548.3555"/><line style="stroke:#181818;stroke-width:1.0;" x1="1069.5" x2="1110.5" y1="548.3555" y2="548.3555"/><polygon fill="#181818" points="1079.5,544.3555,1069.5,548.3555,1079.5,552.3555,1075.5,548.3555" style="stroke:#181818;stroke-width:1.0;"/><text fill="#000000" font-family="sans-serif" font-size="13" font-weight="bold" lengthAdjust="spacing" textLength="14" x="1075.5" y="530.0928">13</text><text fill="#000000" font-family="sans-serif" font-size="13" lengthAdjust="spacing" textLength="384" x="1093.5" y="530.0928">addUser(email, password, firstName, lastName, roles, createdOn);</text><polygon fill="#181818" points="1937.5,580.6465,1947.5,584.6465,1937.5,588.6465,1941.5,584.6465" style="stroke:#181818;stroke-width:1.0;"/><line style="stroke:#181818;stroke-width:1.0;" x1="1068.5" x2="1943.5" y1="584.6465" y2="584.6465"/><text fill="#000000" font-family="sans-serif" font-size="13" font-weight="bold" lengthAdjust="spacing" textLength="14" x="1075.5" y="579.3838">14</text><text fill="#000000" font-family="sans-serif" font-size="13" lengthAdjust="spacing" textLength="466" x="1093.5" y="579.3838">registerNewUser(email, password, firstName, lastName, email, roles, createdOn)</text><polygon fill="#181818" points="2103.5,611.9375,2113.5,615.9375,2103.5,619.9375,2107.5,615.9375" style="stroke:#181818;stroke-width:1.0;"/><line style="stroke:#181818;stroke-width:1.0;" x1="1959.5" x2="2109.5" y1="615.9375" y2="615.9375"/><text fill="#000000" font-family="sans-serif" font-size="13" font-weight="bold" lengthAdjust="spacing" textLength="14" x="1966.5" y="610.6748">15</text><text fill="#000000" font-family="sans-serif" font-size="13" lengthAdjust="spacing" textLength="75" x="1984.5" y="610.6748">repositories()</text><polygon fill="#181818" points="2248.5,643.2285,2258.5,647.2285,2248.5,651.2285,2252.5,647.2285" style="stroke:#181818;stroke-width:1.0;"/><line style="stroke:#181818;stroke-width:1.0;" x1="2125.5" x2="2254.5" y1="647.2285" y2="647.2285"/><text fill="#000000" font-family="sans-serif" font-size="13" font-weight="bold" lengthAdjust="spacing" textLength="14" x="2132.5" y="641.9658">16</text><text fill="#000000" font-family="sans-serif" font-size="13" lengthAdjust="spacing" textLength="89" x="2150.5" y="641.9658">deactiveUsers()</text><polygon fill="#181818" points="3589,674.5195,3599,678.5195,3589,682.5195,3593,678.5195" style="stroke:#181818;stroke-width:1.0;"/><line style="stroke:#181818;stroke-width:1.0;" x1="2270.5" x2="3595" y1="678.5195" y2="678.5195"/><text fill="#000000" font-family="sans-serif" font-size="13" font-weight="bold" lengthAdjust="spacing" textLength="14" x="2277.5" y="673.2568">17</text><text fill="#000000" font-family="sans-serif" font-size="13" lengthAdjust="spacing" textLength="44" x="2295.5" y="673.2568">create()</text><polygon fill="#181818" points="2136.5,705.8105,2126.5,709.8105,2136.5,713.8105,2132.5,709.8105" style="stroke:#181818;stroke-width:1.0;"/><line style="stroke:#181818;stroke-width:1.0;stroke-dasharray:2.0,2.0;" x1="2130.5" x2="2264.5" y1="709.8105" y2="709.8105"/><text fill="#000000" font-family="sans-serif" font-size="13" font-weight="bold" lengthAdjust="spacing" textLength="14" x="2142.5" y="704.5479">18</text><text fill="#000000" font-family="sans-serif" font-size="13" lengthAdjust="spacing" textLength="87" x="2160.5" y="704.5479">userRepository</text><polygon fill="#181818" points="1970.5,737.1016,1960.5,741.1016,1970.5,745.1016,1966.5,741.1016" style="stroke:#181818;stroke-width:1.0;"/><line style="stroke:#181818;stroke-width:1.0;stroke-dasharray:2.0,2.0;" x1="1964.5" x2="2119.5" y1="741.1016" y2="741.1016"/><text fill="#000000" font-family="sans-serif" font-size="13" font-weight="bold" lengthAdjust="spacing" textLength="14" x="1976.5" y="735.8389">19</text><text fill="#000000" font-family="sans-serif" font-size="13" lengthAdjust="spacing" textLength="87" x="1994.5" y="735.8389">userRepository</text><polygon fill="#181818" points="3589,768.3926,3599,772.3926,3589,776.3926,3593,772.3926" style="stroke:#181818;stroke-width:1.0;"/><line style="stroke:#181818;stroke-width:1.0;" x1="1959.5" x2="3595" y1="772.3926" y2="772.3926"/><text fill="#000000" font-family="sans-serif" font-size="13" font-weight="bold" lengthAdjust="spacing" textLength="14" x="1966.5" y="767.1299">20</text><text fill="#000000" font-family="sans-serif" font-size="13" lengthAdjust="spacing" textLength="59" x="1984.5" y="767.1299">save(user)</text><polygon fill="#181818" points="1079.5,799.6836,1069.5,803.6836,1079.5,807.6836,1075.5,803.6836" style="stroke:#181818;stroke-width:1.0;"/><line style="stroke:#181818;stroke-width:1.0;stroke-dasharray:2.0,2.0;" x1="1073.5" x2="1953.5" y1="803.6836" y2="803.6836"/><text fill="#000000" font-family="sans-serif" font-size="13" font-weight="bold" lengthAdjust="spacing" textLength="14" x="1085.5" y="798.4209">21</text><text fill="#000000" font-family="sans-serif" font-size="13" lengthAdjust="spacing" textLength="25" x="1103.5" y="798.4209">user</text><line style="stroke:#181818;stroke-width:1.0;stroke-dasharray:2.0,2.0;" x1="1068.5" x2="1110.5" y1="839.9746" y2="839.9746"/><line style="stroke:#181818;stroke-width:1.0;stroke-dasharray:2.0,2.0;" x1="1110.5" x2="1110.5" y1="839.9746" y2="852.9746"/><line style="stroke:#181818;stroke-width:1.0;stroke-dasharray:2.0,2.0;" x1="1063.5" x2="1110.5" y1="852.9746" y2="852.9746"/><polygon fill="#181818" points="1073.5,848.9746,1063.5,852.9746,1073.5,856.9746,1069.5,852.9746" style="stroke:#181818;stroke-width:1.0;"/><text fill="#000000" font-family="sans-serif" font-size="13" font-weight="bold" lengthAdjust="spacing" textLength="14" x="1075.5" y="834.7119">22</text><text fill="#000000" font-family="sans-serif" font-size="13" lengthAdjust="spacing" textLength="4" x="1093.5" y="834.7119">&#160;</text><line style="stroke:#181818;stroke-width:1.0;" x1="1063.5" x2="1105.5" y1="879.2656" y2="879.2656"/><line style="stroke:#181818;stroke-width:1.0;" x1="1105.5" x2="1105.5" y1="879.2656" y2="892.2656"/><line style="stroke:#181818;stroke-width:1.0;" x1="1064.5" x2="1105.5" y1="892.2656" y2="892.2656"/><polygon fill="#181818" points="1074.5,888.2656,1064.5,892.2656,1074.5,896.2656,1070.5,892.2656" style="stroke:#181818;stroke-width:1.0;"/><text fill="#000000" font-family="sans-serif" font-size="13" font-weight="bold" lengthAdjust="spacing" textLength="14" x="1070.5" y="874.0029">23</text><text fill="#000000" font-family="sans-serif" font-size="13" lengthAdjust="spacing" textLength="364" x="1088.5" y="874.0029">customerManager = authz.session().get().authenticatedUser() ;</text><polygon fill="#181818" points="2579,919.5566,2589,923.5566,2579,927.5566,2583,923.5566" style="stroke:#181818;stroke-width:1.0;"/><line style="stroke:#181818;stroke-width:1.0;" x1="1063.5" x2="2585" y1="923.5566" y2="923.5566"/><text fill="#000000" font-family="sans-serif" font-size="13" font-weight="bold" lengthAdjust="spacing" textLength="14" x="1070.5" y="918.2939">24</text><text fill="#000000" font-family="sans-serif" font-size="13" lengthAdjust="spacing" textLength="394" x="1088.5" y="918.2939">new RegisterCustomerEvent(user, code, address,customerManager)</text><polygon fill="#181818" points="2729.5,950.8477,2739.5,954.8477,2729.5,958.8477,2733.5,954.8477" style="stroke:#181818;stroke-width:1.0;"/><line style="stroke:#181818;stroke-width:1.0;" x1="1063.5" x2="2735.5" y1="954.8477" y2="954.8477"/><text fill="#000000" font-family="sans-serif" font-size="13" font-weight="bold" lengthAdjust="spacing" textLength="14" x="1070.5" y="949.585">25</text><text fill="#000000" font-family="sans-serif" font-size="13" lengthAdjust="spacing" textLength="79" x="1088.5" y="949.585">publish(event)</text><polygon fill="#181818" points="2882.5,982.1387,2892.5,986.1387,2882.5,990.1387,2886.5,986.1387" style="stroke:#181818;stroke-width:1.0;"/><line style="stroke:#181818;stroke-width:1.0;" x1="2751.5" x2="2888.5" y1="986.1387" y2="986.1387"/><text fill="#000000" font-family="sans-serif" font-size="13" font-weight="bold" lengthAdjust="spacing" textLength="14" x="2758.5" y="980.876">26</text><text fill="#000000" font-family="sans-serif" font-size="13" lengthAdjust="spacing" textLength="84" x="2776.5" y="980.876">onEvent(event)</text><polygon fill="#181818" points="3116,1013.4297,3126,1017.4297,3116,1021.4297,3120,1017.4297" style="stroke:#181818;stroke-width:1.0;"/><line style="stroke:#181818;stroke-width:1.0;" x1="2904.5" x2="3122" y1="1017.4297" y2="1017.4297"/><text fill="#000000" font-family="sans-serif" font-size="13" font-weight="bold" lengthAdjust="spacing" textLength="14" x="2911.5" y="1012.167">27</text><text fill="#000000" font-family="sans-serif" font-size="13" lengthAdjust="spacing" textLength="137" x="2929.5" y="1012.167">registerCustomer(event)</text><polygon fill="#181818" points="3482,1044.7207,3492,1048.7207,3482,1052.7207,3486,1048.7207" style="stroke:#181818;stroke-width:1.0;"/><line style="stroke:#181818;stroke-width:1.0;" x1="3138" x2="3488" y1="1048.7207" y2="1048.7207"/><text fill="#000000" font-family="sans-serif" font-size="13" font-weight="bold" lengthAdjust="spacing" textLength="14" x="3145" y="1043.458">28</text><text fill="#000000" font-family="sans-serif" font-size="13" lengthAdjust="spacing" textLength="314" x="3163" y="1043.458">new Customer(user, code, address,customerManager)</text><polygon fill="#181818" points="3730,1076.0117,3740,1080.0117,3730,1084.0117,3734,1080.0117" style="stroke:#181818;stroke-width:1.0;"/><line style="stroke:#181818;stroke-width:1.0;" x1="3138" x2="3736" y1="1080.0117" y2="1080.0117"/><text fill="#000000" font-family="sans-serif" font-size="13" font-weight="bold" lengthAdjust="spacing" textLength="14" x="3145" y="1074.749">29</text><text fill="#000000" font-family="sans-serif" font-size="13" lengthAdjust="spacing" textLength="88" x="3163" y="1074.749">save(customer)</text><polygon fill="#181818" points="2915.5,1107.3027,2905.5,1111.3027,2915.5,1115.3027,2911.5,1111.3027" style="stroke:#181818;stroke-width:1.0;"/><line style="stroke:#181818;stroke-width:1.0;stroke-dasharray:2.0,2.0;" x1="2909.5" x2="3132" y1="1111.3027" y2="1111.3027"/><text fill="#000000" font-family="sans-serif" font-size="13" font-weight="bold" lengthAdjust="spacing" textLength="14" x="2921.5" y="1106.04">30</text><text fill="#000000" font-family="sans-serif" font-size="13" lengthAdjust="spacing" textLength="54" x="2939.5" y="1106.04">customer</text><polygon fill="#181818" points="2762.5,1138.5938,2752.5,1142.5938,2762.5,1146.5938,2758.5,1142.5938" style="stroke:#181818;stroke-width:1.0;"/><line style="stroke:#181818;stroke-width:1.0;stroke-dasharray:2.0,2.0;" x1="2756.5" x2="2898.5" y1="1142.5938" y2="1142.5938"/><text fill="#000000" font-family="sans-serif" font-size="13" font-weight="bold" lengthAdjust="spacing" textLength="14" x="2768.5" y="1137.3311">31</text><text fill="#000000" font-family="sans-serif" font-size="13" lengthAdjust="spacing" textLength="49" x="2786.5" y="1137.3311">success</text><polygon fill="#181818" points="1074.5,1169.8848,1064.5,1173.8848,1074.5,1177.8848,1070.5,1173.8848" style="stroke:#181818;stroke-width:1.0;"/><line style="stroke:#181818;stroke-width:1.0;stroke-dasharray:2.0,2.0;" x1="1068.5" x2="2745.5" y1="1173.8848" y2="1173.8848"/><text fill="#000000" font-family="sans-serif" font-size="13" font-weight="bold" lengthAdjust="spacing" textLength="14" x="1080.5" y="1168.6221">32</text><text fill="#000000" font-family="sans-serif" font-size="13" lengthAdjust="spacing" textLength="49" x="1098.5" y="1168.6221">success</text><polygon fill="#181818" points="577.5,1201.1758,567.5,1205.1758,577.5,1209.1758,573.5,1205.1758" style="stroke:#181818;stroke-width:1.0;"/><line style="stroke:#181818;stroke-width:1.0;stroke-dasharray:2.0,2.0;" x1="571.5" x2="1057.5" y1="1205.1758" y2="1205.1758"/><text fill="#000000" font-family="sans-serif" font-size="13" font-weight="bold" lengthAdjust="spacing" textLength="14" x="583.5" y="1199.9131">33</text><text fill="#000000" font-family="sans-serif" font-size="13" lengthAdjust="spacing" textLength="104" x="601.5" y="1199.9131">customerManager</text><polygon fill="#181818" points="82.5,1232.4668,72.5,1236.4668,82.5,1240.4668,78.5,1236.4668" style="stroke:#181818;stroke-width:1.0;"/><line style="stroke:#181818;stroke-width:1.0;stroke-dasharray:2.0,2.0;" x1="76.5" x2="560.5" y1="1236.4668" y2="1236.4668"/><text fill="#000000" font-family="sans-serif" font-size="13" font-weight="bold" lengthAdjust="spacing" textLength="14" x="88.5" y="1231.2041">34</text><text fill="#000000" font-family="sans-serif" font-size="13" lengthAdjust="spacing" textLength="443" x="106.5" y="1231.2041">Show the information of the customer and their respective customer manager</text><!--SRC=[bLTBSzis4BxZLs1oYPGHxJkJSaQDazGpRTAHekaP8TSInYJ10g1LvzTt0H8aI42YmeE5n-wtxyNwxKdhHgNtzqt9QjrMvLqkgdi5_xPGvv0Kd1qbgmXHpxnk62vf9MgHdwIeW6hPWdVJiFoP7M6lNqkW4dBDwcFf4wWJAyIPrqVwn4e5XB1MYxgjVe34TQw5f1zRfH5Q_iLgX9AKARer5mGHDCzvWrhID-aEZbnfa8xyyFZ6a1uUwOSFZGG5jMQQYphBI2vgBKKPOVhOtPGWBVEuHH3MD2NF7SP4-DzCgREGnHUeGJBKpNAxqu1tohnjzUbdfuXyjOpR7RqkZncMr30AoNzQaZt85vv3nt_u_iV-Ea9wKCwZ5Nh6v-xN2nQ3LCPpc176IV2VxamUZutRnrqWVmUDK1nTzVhPXhcpF3XTGDc_uaLbRFczvMNHXyti7qJ5U8tiXLtCEU45hGx2_ycSzef4RX3D_ix07hXgcCvFNMvwEzIz_L5oXUk8_LC1_nYU1t6CIdUN2nZVQglUB8aNgMQeZiuoXsuaaKGQmpRuVpn2PZbi0ZyuQJE8o-osBV0Nfg5l0nG_kw99PiezfLlrhAWMs70wooaRceYb7W0EZtQFJ0doMX3BFP1JNZy9IrF0dCkJcTBFN2fDlx8ADlHFDYm_9UYrSaEtHO4jI6smenJOv69Au2zYZL5vzmujoIKW2I63cZv5IkcnQpZWMirgFSNsWapxp-jfY3RqgFGIrWJFtGqt0tyoKGtXcZcfvy419gfLxz9h09vT8qR4GNAM-oleuk6mD_J91AuBLidSAiSeRT1i5pM40nLnXwz6Q4cIOIDFAOkqQS-taszCxLsSOBj3LDlUNN8W524NI9Di4XBxR4HfFTUYP78XMQPWHM7g_4QFMWzkUfMBR_Nw_LLlnkNtpXl3-XNElw13JnMe4chI2nek-dsIUUzREdGb3kf2FCU47_cYXDvzaWMFODg71uonYx82zYXvG9LaqxQT3kbr6_l4EPWVxGHjAUjkKzftKvAvGIMGjIJCZyQlApRF2li4J5-yb2hs0YkZrZf2FoybGnVhSlCqd3N9IBrSQ95BvOozP3Pa_zOrYpk5_G_RrcfzTmIDVyqf3WzcAeIk_jVqFObtl_WCbT8Qpl7voZhCTL_NV6UQhUEolB4BNuvkwbhP8IzItYFjS3SUXNgxwGjL5ztiv909YLJVXT5jh9muGIWt6DHex47hDLbK91pxBcaKoZN-xGR1Bdg3z9i2ThCS5EFrdww679fduZAE1ReOH0T9IBJUbzos64bRdDw_0MX9c-Vecfi43WaJoSrPsLy7zhAy_oA5Wrt_CQX-SikqXUCgZYBToBm_YJF5nc37PLdPIOUA9tlai2ch2tF09IQnQi0-QEDjrOkUpDd_0m00]--></g></svg>