<?xml version="1.0" encoding="us-ascii" standalone="no"?><svg xmlns="http://www.w3.org/2000/svg" xmlns:xlink="http://www.w3.org/1999/xlink" contentStyleType="text/css" height="1258.5px" preserveAspectRatio="none" style="width:1746px;height:1258px;background:#FFFFFF;" version="1.1" viewBox="0 0 1746 1258" width="1746px" zoomAndPan="magnify"><defs/><g><text fill="#000000" font-family="sans-serif" font-size="21" font-weight="bold" lengthAdjust="spacing" textLength="685.5" x="532.875" y="45.1611">"US 3002 - List all my job openings in the App" Sequence Diagram</text><rect fill="#FFFFFF" height="919.7842" style="stroke:#181818;stroke-width:1.5;" width="15" x="75.75" y="199.8633"/><rect fill="#FFFFFF" height="862.3477" style="stroke:#181818;stroke-width:1.5;" width="15" x="618.75" y="234.7998"/><rect fill="#FFFFFF" height="140.8096" style="stroke:#181818;stroke-width:1.5;" width="15" x="1184.25" y="400.5996"/><rect fill="#FFFFFF" height="140.8096" style="stroke:#181818;stroke-width:1.5;" width="15" x="1184.25" y="815.5283"/><rect fill="#FFFFFF" height="46.9365" style="stroke:#181818;stroke-width:1.5;" width="15" x="1499.25" y="447.5361"/><rect fill="#FFFFFF" height="46.9365" style="stroke:#181818;stroke-width:1.5;" width="15" x="1499.25" y="862.4648"/><rect fill="#FFFFFF" height="46.9365" style="stroke:#181818;stroke-width:1.5;" width="15" x="1647.75" y="588.3457"/><rect fill="#FFFFFF" height="46.9365" style="stroke:#181818;stroke-width:1.5;" width="15" x="1647.75" y="721.6553"/><rect fill="#FFFFFF" height="46.9365" style="stroke:#181818;stroke-width:1.5;" width="15" x="1647.75" y="1003.2744"/><rect fill="none" height="451.3652" style="stroke:#000000;stroke-width:2.25;" width="1722.75" x="15" y="657.7822"/><line style="stroke:#181818;stroke-width:0.75;stroke-dasharray:5.0,5.0;" x1="82.5" x2="82.5" y1="184.8633" y2="1134.6475"/><line style="stroke:#181818;stroke-width:0.75;stroke-dasharray:5.0,5.0;" x1="625.5" x2="625.5" y1="184.8633" y2="1134.6475"/><line style="stroke:#181818;stroke-width:0.75;stroke-dasharray:5.0,5.0;" x1="1191" x2="1191" y1="321.2314" y2="1134.6475"/><line style="stroke:#181818;stroke-width:0.75;stroke-dasharray:5.0,5.0;" x1="1506.75" x2="1506.75" y1="184.8633" y2="1134.6475"/><line style="stroke:#181818;stroke-width:0.75;stroke-dasharray:5.0,5.0;" x1="1655.25" x2="1655.25" y1="184.8633" y2="1134.6475"/><text fill="#000000" font-family="sans-serif" font-size="21" lengthAdjust="spacing" textLength="97.5" x="30" y="179.5928">Candidate</text><ellipse cx="83.25" cy="79.6816" fill="#E3E3E3" rx="12" ry="12" style="stroke:#181818;stroke-width:0.75;"/><path d="M83.25,91.6816 L83.25,132.1816 M63.75,103.6816 L102.75,103.6816 M83.25,132.1816 L63.75,154.6816 M83.25,132.1816 L102.75,154.6816 " fill="none" style="stroke:#181818;stroke-width:0.75;"/><text fill="#000000" font-family="sans-serif" font-size="21" lengthAdjust="spacing" textLength="97.5" x="30" y="1155.8086">Candidate</text><ellipse cx="83.25" cy="1173.8291" fill="#E3E3E3" rx="12" ry="12" style="stroke:#181818;stroke-width:0.75;"/><path d="M83.25,1185.8291 L83.25,1226.3291 M63.75,1197.8291 L102.75,1197.8291 M83.25,1226.3291 L63.75,1248.8291 M83.25,1226.3291 L102.75,1248.8291 " fill="none" style="stroke:#181818;stroke-width:0.75;"/><rect fill="#E3E3E3" height="76.8633" rx="3.75" ry="3.75" style="stroke:#181818;stroke-width:0.75;" width="229.5" x="511.5" y="106.5"/><text fill="#000000" font-family="sans-serif" font-size="21" font-style="italic" lengthAdjust="spacing" textLength="142.5" x="555" y="139.6611">&#171;presentation&#187;</text><text fill="#000000" font-family="sans-serif" font-size="21" lengthAdjust="spacing" textLength="208.5" x="522" y="167.5928">:ListJobOpeningAppUI</text><rect fill="#E3E3E3" height="76.8633" rx="3.75" ry="3.75" style="stroke:#181818;stroke-width:0.75;" width="229.5" x="511.5" y="1133.1475"/><text fill="#000000" font-family="sans-serif" font-size="21" font-style="italic" lengthAdjust="spacing" textLength="142.5" x="555" y="1166.3086">&#171;presentation&#187;</text><text fill="#000000" font-family="sans-serif" font-size="21" lengthAdjust="spacing" textLength="208.5" x="522" y="1194.2402">:ListJobOpeningAppUI</text><text fill="#000000" font-family="sans-serif" font-size="21" font-style="italic" lengthAdjust="spacing" textLength="126" x="1124.25" y="1155.8086">&#171;application&#187;</text><text fill="#000000" font-family="sans-serif" font-size="21" lengthAdjust="spacing" textLength="283.5" x="1045.5" y="1183.7402">:ListJobOpeningAppController</text><ellipse cx="1191.75" cy="1213.0107" fill="#E3E3E3" rx="18" ry="18" style="stroke:#181818;stroke-width:0.75;"/><polygon fill="#181818" points="1185.75,1195.0107,1194.75,1187.5107,1191.75,1195.0107,1194.75,1202.5107,1185.75,1195.0107" style="stroke:#181818;stroke-width:1.5;"/><rect fill="#E3E3E3" height="76.8633" rx="3.75" ry="3.75" style="stroke:#181818;stroke-width:0.75;" width="132" x="1440.75" y="106.5"/><text fill="#000000" font-family="sans-serif" font-size="21" font-style="italic" lengthAdjust="spacing" textLength="93" x="1460.25" y="139.6611">&#171;System&#187;</text><text fill="#000000" font-family="sans-serif" font-size="21" lengthAdjust="spacing" textLength="111" x="1451.25" y="167.5928">:TCPServer</text><rect fill="#E3E3E3" height="76.8633" rx="3.75" ry="3.75" style="stroke:#181818;stroke-width:0.75;" width="132" x="1440.75" y="1133.1475"/><text fill="#000000" font-family="sans-serif" font-size="21" font-style="italic" lengthAdjust="spacing" textLength="93" x="1460.25" y="1166.3086">&#171;System&#187;</text><text fill="#000000" font-family="sans-serif" font-size="21" lengthAdjust="spacing" textLength="111" x="1451.25" y="1194.2402">:TCPServer</text><rect fill="#E3E3E3" height="76.8633" rx="3.75" ry="3.75" style="stroke:#181818;stroke-width:0.75;" width="135" x="1587.75" y="106.5"/><text fill="#000000" font-family="sans-serif" font-size="21" font-style="italic" lengthAdjust="spacing" textLength="93" x="1608.75" y="139.6611">&#171;domain&#187;</text><text fill="#000000" font-family="sans-serif" font-size="21" lengthAdjust="spacing" textLength="114" x="1598.25" y="167.5928">:SerializeUtil</text><rect fill="#E3E3E3" height="76.8633" rx="3.75" ry="3.75" style="stroke:#181818;stroke-width:0.75;" width="135" x="1587.75" y="1133.1475"/><text fill="#000000" font-family="sans-serif" font-size="21" font-style="italic" lengthAdjust="spacing" textLength="93" x="1608.75" y="1166.3086">&#171;domain&#187;</text><text fill="#000000" font-family="sans-serif" font-size="21" lengthAdjust="spacing" textLength="114" x="1598.25" y="1194.2402">:SerializeUtil</text><rect fill="#FFFFFF" height="919.7842" style="stroke:#181818;stroke-width:1.5;" width="15" x="75.75" y="199.8633"/><rect fill="#FFFFFF" height="862.3477" style="stroke:#181818;stroke-width:1.5;" width="15" x="618.75" y="234.7998"/><rect fill="#FFFFFF" height="140.8096" style="stroke:#181818;stroke-width:1.5;" width="15" x="1184.25" y="400.5996"/><rect fill="#FFFFFF" height="140.8096" style="stroke:#181818;stroke-width:1.5;" width="15" x="1184.25" y="815.5283"/><rect fill="#FFFFFF" height="46.9365" style="stroke:#181818;stroke-width:1.5;" width="15" x="1499.25" y="447.5361"/><rect fill="#FFFFFF" height="46.9365" style="stroke:#181818;stroke-width:1.5;" width="15" x="1499.25" y="862.4648"/><rect fill="#FFFFFF" height="46.9365" style="stroke:#181818;stroke-width:1.5;" width="15" x="1647.75" y="588.3457"/><rect fill="#FFFFFF" height="46.9365" style="stroke:#181818;stroke-width:1.5;" width="15" x="1647.75" y="721.6553"/><rect fill="#FFFFFF" height="46.9365" style="stroke:#181818;stroke-width:1.5;" width="15" x="1647.75" y="1003.2744"/><polygon fill="#181818" points="600.75,228.7998,615.75,234.7998,600.75,240.7998,606.75,234.7998" style="stroke:#181818;stroke-width:1.5;"/><line style="stroke:#181818;stroke-width:1.5;" x1="90.75" x2="609.75" y1="234.7998" y2="234.7998"/><text fill="#000000" font-family="sans-serif" font-size="19.5" font-weight="bold" lengthAdjust="spacing" textLength="10.5" x="101.25" y="226.9058">1</text><text fill="#000000" font-family="sans-serif" font-size="19.5" lengthAdjust="spacing" textLength="385.5" x="117.75" y="226.9058">Asks to list all the JobOpenings notifications</text><polygon fill="#181818" points="1027.5,275.7363,1042.5,281.7363,1027.5,287.7363,1033.5,281.7363" style="stroke:#181818;stroke-width:1.5;"/><line style="stroke:#181818;stroke-width:1.5;" x1="633.75" x2="1036.5" y1="281.7363" y2="281.7363"/><text fill="#000000" font-family="sans-serif" font-size="19.5" font-weight="bold" lengthAdjust="spacing" textLength="10.5" x="644.25" y="273.8423">2</text><text fill="#000000" font-family="sans-serif" font-size="19.5" lengthAdjust="spacing" textLength="54" x="660.75" y="273.8423">create</text><text fill="#000000" font-family="sans-serif" font-size="21" font-style="italic" lengthAdjust="spacing" textLength="126" x="1124.25" y="317.4609">&#171;application&#187;</text><text fill="#000000" font-family="sans-serif" font-size="21" lengthAdjust="spacing" textLength="283.5" x="1045.5" y="345.3926">:ListJobOpeningAppController</text><ellipse cx="1191.75" cy="270.7998" fill="#E3E3E3" rx="18" ry="18" style="stroke:#181818;stroke-width:0.75;"/><polygon fill="#181818" points="1185.75,252.7998,1194.75,245.2998,1191.75,252.7998,1194.75,260.2998,1185.75,252.7998" style="stroke:#181818;stroke-width:1.5;"/><polygon fill="#181818" points="1166.25,394.5996,1181.25,400.5996,1166.25,406.5996,1172.25,400.5996" style="stroke:#181818;stroke-width:1.5;"/><line style="stroke:#181818;stroke-width:1.5;" x1="633.75" x2="1175.25" y1="400.5996" y2="400.5996"/><text fill="#000000" font-family="sans-serif" font-size="19.5" font-weight="bold" lengthAdjust="spacing" textLength="10.5" x="644.25" y="392.7056">3</text><text fill="#000000" font-family="sans-serif" font-size="19.5" lengthAdjust="spacing" textLength="280.5" x="660.75" y="392.7056">fetchJobOpenings( input, output)</text><polygon fill="#181818" points="1481.25,441.5361,1496.25,447.5361,1481.25,453.5361,1487.25,447.5361" style="stroke:#181818;stroke-width:1.5;"/><line style="stroke:#181818;stroke-width:1.5;" x1="1199.25" x2="1490.25" y1="447.5361" y2="447.5361"/><text fill="#000000" font-family="sans-serif" font-size="19.5" font-weight="bold" lengthAdjust="spacing" textLength="10.5" x="1209.75" y="439.6421">4</text><text fill="#000000" font-family="sans-serif" font-size="19.5" lengthAdjust="spacing" textLength="130.5" x="1226.25" y="439.6421">(tcp) jobOpReq</text><polygon fill="#181818" points="1215.75,488.4727,1200.75,494.4727,1215.75,500.4727,1209.75,494.4727" style="stroke:#181818;stroke-width:1.5;"/><line style="stroke:#181818;stroke-width:1.5;stroke-dasharray:2.0,2.0;" x1="1206.75" x2="1505.25" y1="494.4727" y2="494.4727"/><text fill="#000000" font-family="sans-serif" font-size="19.5" font-weight="bold" lengthAdjust="spacing" textLength="10.5" x="1224.75" y="486.5786">5</text><text fill="#000000" font-family="sans-serif" font-size="19.5" lengthAdjust="spacing" textLength="141" x="1241.25" y="486.5786">(tcp) jobOpResp</text><polygon fill="#181818" points="650.25,535.4092,635.25,541.4092,650.25,547.4092,644.25,541.4092" style="stroke:#181818;stroke-width:1.5;"/><line style="stroke:#181818;stroke-width:1.5;stroke-dasharray:2.0,2.0;" x1="641.25" x2="1190.25" y1="541.4092" y2="541.4092"/><text fill="#000000" font-family="sans-serif" font-size="19.5" font-weight="bold" lengthAdjust="spacing" textLength="10.5" x="659.25" y="533.5151">6</text><text fill="#000000" font-family="sans-serif" font-size="19.5" lengthAdjust="spacing" textLength="79.5" x="675.75" y="533.5151">message</text><polygon fill="#181818" points="1629.75,582.3457,1644.75,588.3457,1629.75,594.3457,1635.75,588.3457" style="stroke:#181818;stroke-width:1.5;"/><line style="stroke:#181818;stroke-width:1.5;" x1="633.75" x2="1638.75" y1="588.3457" y2="588.3457"/><text fill="#000000" font-family="sans-serif" font-size="19.5" font-weight="bold" lengthAdjust="spacing" textLength="10.5" x="644.25" y="580.4517">7</text><text fill="#000000" font-family="sans-serif" font-size="19.5" lengthAdjust="spacing" textLength="315" x="660.75" y="580.4517">deserializeList(message.data.get(0))</text><polygon fill="#181818" points="650.25,629.2822,635.25,635.2822,650.25,641.2822,644.25,635.2822" style="stroke:#181818;stroke-width:1.5;"/><line style="stroke:#181818;stroke-width:1.5;stroke-dasharray:2.0,2.0;" x1="641.25" x2="1653.75" y1="635.2822" y2="635.2822"/><text fill="#000000" font-family="sans-serif" font-size="19.5" font-weight="bold" lengthAdjust="spacing" textLength="10.5" x="659.25" y="627.3882">8</text><text fill="#000000" font-family="sans-serif" font-size="19.5" lengthAdjust="spacing" textLength="108" x="675.75" y="627.3882">jobOpenings</text><path d="M15,657.7822 L124.5,657.7822 L124.5,671.7188 L109.5,686.7188 L15,686.7188 L15,657.7822 " fill="#EEEEEE" style="stroke:#000000;stroke-width:2.25;"/><rect fill="none" height="451.3652" style="stroke:#000000;stroke-width:2.25;" width="1722.75" x="15" y="657.7822"/><text fill="#000000" font-family="sans-serif" font-size="19.5" font-weight="bold" lengthAdjust="spacing" textLength="42" x="37.5" y="680.3247">loop</text><text fill="#000000" font-family="sans-serif" font-size="16.5" font-weight="bold" lengthAdjust="spacing" textLength="417" x="147" y="678.5874">[for each JobOpening jobOpening in jobOpenings)]</text><polygon fill="#181818" points="1629.75,715.6553,1644.75,721.6553,1629.75,727.6553,1635.75,721.6553" style="stroke:#181818;stroke-width:1.5;"/><line style="stroke:#181818;stroke-width:1.5;" x1="633.75" x2="1638.75" y1="721.6553" y2="721.6553"/><text fill="#000000" font-family="sans-serif" font-size="19.5" font-weight="bold" lengthAdjust="spacing" textLength="10.5" x="644.25" y="713.7612">9</text><text fill="#000000" font-family="sans-serif" font-size="19.5" lengthAdjust="spacing" textLength="181.5" x="660.75" y="713.7612">serialize(jobOpening)</text><polygon fill="#181818" points="650.25,762.5918,635.25,768.5918,650.25,774.5918,644.25,768.5918" style="stroke:#181818;stroke-width:1.5;"/><line style="stroke:#181818;stroke-width:1.5;stroke-dasharray:2.0,2.0;" x1="641.25" x2="1653.75" y1="768.5918" y2="768.5918"/><text fill="#000000" font-family="sans-serif" font-size="19.5" font-weight="bold" lengthAdjust="spacing" textLength="21" x="659.25" y="760.6978">10</text><text fill="#000000" font-family="sans-serif" font-size="19.5" lengthAdjust="spacing" textLength="138" x="686.25" y="760.6978">jobOpeningData</text><polygon fill="#181818" points="1166.25,809.5283,1181.25,815.5283,1166.25,821.5283,1172.25,815.5283" style="stroke:#181818;stroke-width:1.5;"/><line style="stroke:#181818;stroke-width:1.5;" x1="633.75" x2="1175.25" y1="815.5283" y2="815.5283"/><text fill="#000000" font-family="sans-serif" font-size="19.5" font-weight="bold" lengthAdjust="spacing" textLength="21" x="644.25" y="807.6343">11</text><text fill="#000000" font-family="sans-serif" font-size="19.5" lengthAdjust="spacing" textLength="495" x="671.25" y="807.6343">howMuchJobApplications( input, output, jobOpeningData)</text><polygon fill="#181818" points="1481.25,856.4648,1496.25,862.4648,1481.25,868.4648,1487.25,862.4648" style="stroke:#181818;stroke-width:1.5;"/><line style="stroke:#181818;stroke-width:1.5;" x1="1199.25" x2="1490.25" y1="862.4648" y2="862.4648"/><text fill="#000000" font-family="sans-serif" font-size="19.5" font-weight="bold" lengthAdjust="spacing" textLength="21" x="1209.75" y="854.5708">12</text><text fill="#000000" font-family="sans-serif" font-size="19.5" lengthAdjust="spacing" textLength="226.5" x="1236.75" y="854.5708">(tcp) howMuchJobAppReq</text><polygon fill="#181818" points="1215.75,903.4014,1200.75,909.4014,1215.75,915.4014,1209.75,909.4014" style="stroke:#181818;stroke-width:1.5;"/><line style="stroke:#181818;stroke-width:1.5;stroke-dasharray:2.0,2.0;" x1="1206.75" x2="1505.25" y1="909.4014" y2="909.4014"/><text fill="#000000" font-family="sans-serif" font-size="19.5" font-weight="bold" lengthAdjust="spacing" textLength="21" x="1224.75" y="901.5073">13</text><text fill="#000000" font-family="sans-serif" font-size="19.5" lengthAdjust="spacing" textLength="237" x="1251.75" y="901.5073">(tcp) howMuchJobAppResp</text><polygon fill="#181818" points="650.25,950.3379,635.25,956.3379,650.25,962.3379,644.25,956.3379" style="stroke:#181818;stroke-width:1.5;"/><line style="stroke:#181818;stroke-width:1.5;stroke-dasharray:2.0,2.0;" x1="641.25" x2="1190.25" y1="956.3379" y2="956.3379"/><text fill="#000000" font-family="sans-serif" font-size="19.5" font-weight="bold" lengthAdjust="spacing" textLength="21" x="659.25" y="948.4438">14</text><text fill="#000000" font-family="sans-serif" font-size="19.5" lengthAdjust="spacing" textLength="90" x="686.25" y="948.4438">message2</text><polygon fill="#181818" points="1629.75,997.2744,1644.75,1003.2744,1629.75,1009.2744,1635.75,1003.2744" style="stroke:#181818;stroke-width:1.5;"/><line style="stroke:#181818;stroke-width:1.5;" x1="633.75" x2="1638.75" y1="1003.2744" y2="1003.2744"/><text fill="#000000" font-family="sans-serif" font-size="19.5" font-weight="bold" lengthAdjust="spacing" textLength="21" x="644.25" y="995.3804">15</text><text fill="#000000" font-family="sans-serif" font-size="19.5" lengthAdjust="spacing" textLength="351" x="671.25" y="995.3804">deserializeObject(message2.data.get(0))</text><polygon fill="#181818" points="650.25,1044.2109,635.25,1050.2109,650.25,1056.2109,644.25,1050.2109" style="stroke:#181818;stroke-width:1.5;"/><line style="stroke:#181818;stroke-width:1.5;stroke-dasharray:2.0,2.0;" x1="641.25" x2="1653.75" y1="1050.2109" y2="1050.2109"/><text fill="#000000" font-family="sans-serif" font-size="19.5" font-weight="bold" lengthAdjust="spacing" textLength="21" x="659.25" y="1042.3169">16</text><text fill="#000000" font-family="sans-serif" font-size="19.5" lengthAdjust="spacing" textLength="180" x="686.25" y="1042.3169">numberOfApplication</text><polygon fill="#181818" points="107.25,1091.1475,92.25,1097.1475,107.25,1103.1475,101.25,1097.1475" style="stroke:#181818;stroke-width:1.5;"/><line style="stroke:#181818;stroke-width:1.5;stroke-dasharray:2.0,2.0;" x1="98.25" x2="624.75" y1="1097.1475" y2="1097.1475"/><text fill="#000000" font-family="sans-serif" font-size="19.5" font-weight="bold" lengthAdjust="spacing" textLength="21" x="116.25" y="1089.2534">17</text><text fill="#000000" font-family="sans-serif" font-size="19.5" lengthAdjust="spacing" textLength="465" x="143.25" y="1089.2534">Shows all job openings associated with this customer</text><!--SRC=[hLN1Rk8m4BtxAqPS5gfI8VQ6AYH4BwowObNA1nXd88R4TkD9MVRhTq82JbBQekro0JpptimRFzj-fusJcKmXjSQgEBCf0cKv2d-EEAbsSeCBEYG86IgIPfFK4tmi8xlNPWDhcNWKGkPaJPwkC1E2D36iirp0zy5W27rur9v09Wca1zZQ5LY7Xh4Uj06A4IRETM21BpaQXV2WvOPhY6-nZX3MrjBA_XPIaSsWCvKcqf4ax83qC1M2-o6jj9E6e3CgAlsmgtbPW7cNisFYSWRtzov3ZuOaQMl6Ow6ieSmcbr3JCfHWLfPvVdfal7GkqUe4RnP-dlvQOFPQ0SgV35aSF67w9flZMYRw3ov99oT4M65WP5EfYpAYKAvVMN6X5ghF5FhZGjG89dxdWImafnaN0mrYF1XBUbsrxGF3cNKvEwyn8TCMQczkc5fbo0cY5gwY8rWZgRXMfSjRwNAw1PiJV_Skr2c0eVzYeinM3Me4NLAkLvXZxfxmHGHy82XpGw3ytwzwQdDuTywCiCtHwkCqonIzPzjV0XwxRmsgiMSZplQdXS9GtOhjZjqgxpP8tK6l9owf2YIXGjCFvmwtOUJloAkJ1Rh4MiT7AGFEZMlsg14MXx56t_j4xLbhDu22l6jbNYttWOVu1lM-yWkMZUt-PtuqxIISuxPnRrib_zN8ZM9VD7IBwml67duqmQR3FxNuVBNbT-5ayk5_TNdvaCpNjOswnksrJU-FfyopuD7vuwNOU7MazrPfPeXWhodc6rDxKBadVWd326k5mXM99XAYFZJn5m00]--></g></svg>