<?xml version="1.0" encoding="us-ascii" standalone="no"?><svg xmlns="http://www.w3.org/2000/svg" xmlns:xlink="http://www.w3.org/1999/xlink" contentStyleType="text/css" height="605px" preserveAspectRatio="none" style="width:988px;height:605px;background:#FFFFFF;" version="1.1" viewBox="0 0 988 605" width="988px" zoomAndPan="magnify"><defs/><g><text fill="#000000" font-family="sans-serif" font-size="14" font-weight="bold" lengthAdjust="spacing" textLength="457" x="264.75" y="30.1074">"US 3002 - List all my job openings in the App" Sequence Diagram</text><rect fill="#FFFFFF" height="292.6191" style="stroke:#181818;stroke-width:1.0;" width="10" x="195" y="186.4453"/><rect fill="#FFFFFF" height="93.873" style="stroke:#181818;stroke-width:1.0;" width="10" x="572" y="285.3184"/><rect fill="#FFFFFF" height="31.291" style="stroke:#181818;stroke-width:1.0;" width="10" x="789" y="316.6094"/><rect fill="#FFFFFF" height="31.291" style="stroke:#181818;stroke-width:1.0;" width="10" x="932.5" y="222.7363"/><rect fill="#FFFFFF" height="31.291" style="stroke:#181818;stroke-width:1.0;" width="10" x="932.5" y="410.4824"/><line style="stroke:#181818;stroke-width:0.5;stroke-dasharray:5.0,5.0;" x1="199.5" x2="199.5" y1="113.8633" y2="535.3555"/><line style="stroke:#181818;stroke-width:0.5;stroke-dasharray:5.0,5.0;" x1="577" x2="577" y1="113.8633" y2="535.3555"/><line style="stroke:#181818;stroke-width:0.5;stroke-dasharray:5.0,5.0;" x1="793.5" x2="793.5" y1="113.8633" y2="535.3555"/><line style="stroke:#181818;stroke-width:0.5;stroke-dasharray:5.0,5.0;" x1="937.5" x2="937.5" y1="113.8633" y2="535.3555"/><rect fill="#E3E3E3" height="51.2422" rx="2.5" ry="2.5" style="stroke:#181818;stroke-width:0.5;" width="103" x="148.5" y="61.6211"/><text fill="#000000" font-family="sans-serif" font-size="14" font-style="italic" lengthAdjust="spacing" textLength="62" x="169" y="83.7285">&#171;System&#187;</text><text fill="#000000" font-family="sans-serif" font-size="14" lengthAdjust="spacing" textLength="89" x="155.5" y="102.3496">:ClientHandler</text><rect fill="#E3E3E3" height="51.2422" rx="2.5" ry="2.5" style="stroke:#181818;stroke-width:0.5;" width="103" x="148.5" y="534.3555"/><text fill="#000000" font-family="sans-serif" font-size="14" font-style="italic" lengthAdjust="spacing" textLength="62" x="169" y="556.4629">&#171;System&#187;</text><text fill="#000000" font-family="sans-serif" font-size="14" lengthAdjust="spacing" textLength="89" x="155.5" y="575.084">:ClientHandler</text><text fill="#000000" font-family="sans-serif" font-size="14" font-style="italic" lengthAdjust="spacing" textLength="84" x="532" y="91.7285">&#171;application&#187;</text><text fill="#000000" font-family="sans-serif" font-size="14" lengthAdjust="spacing" textLength="206" x="471" y="110.3496">:ListJobOpeningServerController</text><ellipse cx="577" cy="60.6211" fill="#E3E3E3" rx="12" ry="12" style="stroke:#181818;stroke-width:0.5;"/><polygon fill="#181818" points="573,48.6211,579,43.6211,577,48.6211,579,53.6211,573,48.6211" style="stroke:#181818;stroke-width:1.0;"/><text fill="#000000" font-family="sans-serif" font-size="14" font-style="italic" lengthAdjust="spacing" textLength="84" x="532" y="549.4629">&#171;application&#187;</text><text fill="#000000" font-family="sans-serif" font-size="14" lengthAdjust="spacing" textLength="206" x="471" y="568.084">:ListJobOpeningServerController</text><ellipse cx="577" cy="587.5977" fill="#E3E3E3" rx="12" ry="12" style="stroke:#181818;stroke-width:0.5;"/><polygon fill="#181818" points="573,575.5977,579,570.5977,577,575.5977,579,580.5977,573,575.5977" style="stroke:#181818;stroke-width:1.0;"/><rect fill="#E3E3E3" height="51.2422" rx="2.5" ry="2.5" style="stroke:#181818;stroke-width:0.5;" width="177" x="705.5" y="61.6211"/><text fill="#000000" font-family="sans-serif" font-size="14" font-style="italic" lengthAdjust="spacing" textLength="79" x="754.5" y="83.7285">&#171;repository&#187;</text><text fill="#000000" font-family="sans-serif" font-size="14" lengthAdjust="spacing" textLength="163" x="712.5" y="102.3496">:JobApplicationRepository</text><rect fill="#E3E3E3" height="51.2422" rx="2.5" ry="2.5" style="stroke:#181818;stroke-width:0.5;" width="177" x="705.5" y="534.3555"/><text fill="#000000" font-family="sans-serif" font-size="14" font-style="italic" lengthAdjust="spacing" textLength="79" x="754.5" y="556.4629">&#171;repository&#187;</text><text fill="#000000" font-family="sans-serif" font-size="14" lengthAdjust="spacing" textLength="163" x="712.5" y="575.084">:JobApplicationRepository</text><rect fill="#E3E3E3" height="51.2422" rx="2.5" ry="2.5" style="stroke:#181818;stroke-width:0.5;" width="90" x="892.5" y="61.6211"/><text fill="#000000" font-family="sans-serif" font-size="14" font-style="italic" lengthAdjust="spacing" textLength="62" x="906.5" y="83.7285">&#171;domain&#187;</text><text fill="#000000" font-family="sans-serif" font-size="14" lengthAdjust="spacing" textLength="76" x="899.5" y="102.3496">:SerializeUtil</text><rect fill="#E3E3E3" height="51.2422" rx="2.5" ry="2.5" style="stroke:#181818;stroke-width:0.5;" width="90" x="892.5" y="534.3555"/><text fill="#000000" font-family="sans-serif" font-size="14" font-style="italic" lengthAdjust="spacing" textLength="62" x="906.5" y="556.4629">&#171;domain&#187;</text><text fill="#000000" font-family="sans-serif" font-size="14" lengthAdjust="spacing" textLength="76" x="899.5" y="575.084">:SerializeUtil</text><rect fill="#FFFFFF" height="292.6191" style="stroke:#181818;stroke-width:1.0;" width="10" x="195" y="186.4453"/><rect fill="#FFFFFF" height="93.873" style="stroke:#181818;stroke-width:1.0;" width="10" x="572" y="285.3184"/><rect fill="#FFFFFF" height="31.291" style="stroke:#181818;stroke-width:1.0;" width="10" x="789" y="316.6094"/><rect fill="#FFFFFF" height="31.291" style="stroke:#181818;stroke-width:1.0;" width="10" x="932.5" y="222.7363"/><rect fill="#FFFFFF" height="31.291" style="stroke:#181818;stroke-width:1.0;" width="10" x="932.5" y="410.4824"/><polygon fill="#181818" points="188,143.1543,198,147.1543,188,151.1543,192,147.1543" style="stroke:#181818;stroke-width:1.0;"/><line style="stroke:#181818;stroke-width:1.0;" x1="0" x2="194" y1="147.1543" y2="147.1543"/><text fill="#000000" font-family="sans-serif" font-size="13" font-weight="bold" lengthAdjust="spacing" textLength="7" x="7" y="141.8916">1</text><text fill="#000000" font-family="sans-serif" font-size="13" lengthAdjust="spacing" textLength="151" x="18" y="141.8916">(tcp) howMuchJobAppReq</text><line style="stroke:#181818;stroke-width:1.0;" x1="200" x2="247" y1="173.4453" y2="173.4453"/><line style="stroke:#181818;stroke-width:1.0;" x1="247" x2="247" y1="173.4453" y2="186.4453"/><line style="stroke:#181818;stroke-width:1.0;" x1="206" x2="247" y1="186.4453" y2="186.4453"/><polygon fill="#181818" points="216,182.4453,206,186.4453,216,190.4453,212,186.4453" style="stroke:#181818;stroke-width:1.0;"/><text fill="#000000" font-family="sans-serif" font-size="13" font-weight="bold" lengthAdjust="spacing" textLength="7" x="212" y="168.1826">2</text><text fill="#000000" font-family="sans-serif" font-size="13" lengthAdjust="spacing" textLength="238" x="223" y="168.1826">howMuchJobAppReq(version, code, data)</text><polygon fill="#181818" points="920.5,218.7363,930.5,222.7363,920.5,226.7363,924.5,222.7363" style="stroke:#181818;stroke-width:1.0;"/><line style="stroke:#181818;stroke-width:1.0;" x1="205" x2="926.5" y1="222.7363" y2="222.7363"/><text fill="#000000" font-family="sans-serif" font-size="13" font-weight="bold" lengthAdjust="spacing" textLength="7" x="212" y="217.4736">3</text><text fill="#000000" font-family="sans-serif" font-size="13" lengthAdjust="spacing" textLength="170" x="223" y="217.4736">deserializeObject(data.get(0))</text><polygon fill="#181818" points="216,250.0273,206,254.0273,216,258.0273,212,254.0273" style="stroke:#181818;stroke-width:1.0;"/><line style="stroke:#181818;stroke-width:1.0;stroke-dasharray:2.0,2.0;" x1="210" x2="936.5" y1="254.0273" y2="254.0273"/><text fill="#000000" font-family="sans-serif" font-size="13" font-weight="bold" lengthAdjust="spacing" textLength="7" x="222" y="248.7646">4</text><text fill="#000000" font-family="sans-serif" font-size="13" lengthAdjust="spacing" textLength="65" x="233" y="248.7646">jobOpening</text><polygon fill="#181818" points="560,281.3184,570,285.3184,560,289.3184,564,285.3184" style="stroke:#181818;stroke-width:1.0;"/><line style="stroke:#181818;stroke-width:1.0;" x1="205" x2="566" y1="285.3184" y2="285.3184"/><text fill="#000000" font-family="sans-serif" font-size="13" font-weight="bold" lengthAdjust="spacing" textLength="7" x="212" y="280.0557">5</text><text fill="#000000" font-family="sans-serif" font-size="13" lengthAdjust="spacing" textLength="177" x="223" y="280.0557">findByJobOpening(jobOpening)</text><polygon fill="#181818" points="777,312.6094,787,316.6094,777,320.6094,781,316.6094" style="stroke:#181818;stroke-width:1.0;"/><line style="stroke:#181818;stroke-width:1.0;" x1="582" x2="783" y1="316.6094" y2="316.6094"/><text fill="#000000" font-family="sans-serif" font-size="13" font-weight="bold" lengthAdjust="spacing" textLength="7" x="589" y="311.3467">6</text><text fill="#000000" font-family="sans-serif" font-size="13" lengthAdjust="spacing" textLength="177" x="600" y="311.3467">findByJobOpening(jobOpening)</text><polygon fill="#181818" points="593,343.9004,583,347.9004,593,351.9004,589,347.9004" style="stroke:#181818;stroke-width:1.0;"/><line style="stroke:#181818;stroke-width:1.0;stroke-dasharray:2.0,2.0;" x1="587" x2="793" y1="347.9004" y2="347.9004"/><text fill="#000000" font-family="sans-serif" font-size="13" font-weight="bold" lengthAdjust="spacing" textLength="7" x="599" y="342.6377">7</text><text fill="#000000" font-family="sans-serif" font-size="13" lengthAdjust="spacing" textLength="88" x="610" y="342.6377">jobApplications</text><polygon fill="#181818" points="216,375.1914,206,379.1914,216,383.1914,212,379.1914" style="stroke:#181818;stroke-width:1.0;"/><line style="stroke:#181818;stroke-width:1.0;stroke-dasharray:2.0,2.0;" x1="210" x2="576" y1="379.1914" y2="379.1914"/><text fill="#000000" font-family="sans-serif" font-size="13" font-weight="bold" lengthAdjust="spacing" textLength="7" x="222" y="373.9287">8</text><text fill="#000000" font-family="sans-serif" font-size="13" lengthAdjust="spacing" textLength="88" x="233" y="373.9287">jobApplications</text><polygon fill="#181818" points="920.5,406.4824,930.5,410.4824,920.5,414.4824,924.5,410.4824" style="stroke:#181818;stroke-width:1.0;"/><line style="stroke:#181818;stroke-width:1.0;" x1="205" x2="926.5" y1="410.4824" y2="410.4824"/><text fill="#000000" font-family="sans-serif" font-size="13" font-weight="bold" lengthAdjust="spacing" textLength="7" x="212" y="405.2197">9</text><text fill="#000000" font-family="sans-serif" font-size="13" lengthAdjust="spacing" textLength="180" x="223" y="405.2197">serialize(jobApplications.size())</text><polygon fill="#181818" points="216,437.7734,206,441.7734,216,445.7734,212,441.7734" style="stroke:#181818;stroke-width:1.0;"/><line style="stroke:#181818;stroke-width:1.0;stroke-dasharray:2.0,2.0;" x1="210" x2="936.5" y1="441.7734" y2="441.7734"/><text fill="#000000" font-family="sans-serif" font-size="13" font-weight="bold" lengthAdjust="spacing" textLength="14" x="222" y="436.5107">10</text><text fill="#000000" font-family="sans-serif" font-size="13" lengthAdjust="spacing" textLength="115" x="240" y="436.5107">jobApplicationsData</text><line style="stroke:#181818;stroke-width:1.0;" x1="205" x2="247" y1="478.0645" y2="478.0645"/><line style="stroke:#181818;stroke-width:1.0;" x1="247" x2="247" y1="478.0645" y2="491.0645"/><line style="stroke:#181818;stroke-width:1.0;" x1="200" x2="247" y1="491.0645" y2="491.0645"/><polygon fill="#181818" points="210,487.0645,200,491.0645,210,495.0645,206,491.0645" style="stroke:#181818;stroke-width:1.0;"/><text fill="#000000" font-family="sans-serif" font-size="13" font-weight="bold" lengthAdjust="spacing" textLength="14" x="212" y="472.8018">11</text><text fill="#000000" font-family="sans-serif" font-size="13" lengthAdjust="spacing" textLength="335" x="230" y="472.8018">howMuchJobAppResp(version, code, jobApplicationsData)</text><polygon fill="#181818" points="11,513.3555,1,517.3555,11,521.3555,7,517.3555" style="stroke:#181818;stroke-width:1.0;"/><line style="stroke:#181818;stroke-width:1.0;stroke-dasharray:2.0,2.0;" x1="5" x2="199" y1="517.3555" y2="517.3555"/><text fill="#000000" font-family="sans-serif" font-size="13" font-weight="bold" lengthAdjust="spacing" textLength="14" x="17" y="512.0928">12</text><text fill="#000000" font-family="sans-serif" font-size="13" lengthAdjust="spacing" textLength="158" x="35" y="512.0928">(tcp) howMuchJobAppResp</text><!--SRC=[XPFDRjf04CVl-nGZBZ5I7A7sPY6a50vLbHO9aWTOreEznDxTx8wJqgVl6XlRs0PymSpC_pUVTkzI6Mvv3hbMMgHMvmXa2sIkyHWktdc2Mpfc21O5SPLatG2NybX_IPN0dcSE6UC5QLNaExICaIGlcxnjuVjizWr2U96EW6SPv4Suw1reWyfh7KW5b28y6pE1BNuKg0J2IlB4vs0FgOmHzbhJJlzb_l6fIGffk2AOHCjCegAVNCKPsWbmvmds4otCvzkZ8ymN2oQq8gip7rsMy4llrbNcAd9PUS_ovUlcnOkvCPaKdAHMdl1mcVIF9hcllIL42cnI-tSlZtNEvHtbwdLzKldV6ufbuSZlncxGQ2T9s-D990Pcpx3Ddo6dRRj7Eemu-gm1whaTpn0twhoDz9EJF9F_y8raTfvbQ-dEXuMByuuZ24YOAQJwwtSXqggk3NumLaU4YoQo7nDui_CLFeBGCJv2p8bF6N11yfCJrW3MeA1AszOKGOpkR5Zl3lxx24h8Ku8KpARJKbe-NMAhhfszDiEcjwYpbpesnckejjtoUYFOInN_EBOR3rgMBwkjg8ncfphBjt1nTNTtaItp6gCCkkOBgy8XwaMuglDEuxVeLHVz6LxY1i1w1FKgnlVSR3deyPvSQMnMVNFJDnVTXQxy3GtAx1FldRSp_ViUoUBF_J95TV0UFm_3fhpHJymPDYhz3m00]--></g></svg>