<?xml version="1.0" encoding="us-ascii" standalone="no"?><svg xmlns="http://www.w3.org/2000/svg" xmlns:xlink="http://www.w3.org/1999/xlink" contentStyleType="text/css" height="710.4px" preserveAspectRatio="none" style="width:1012px;height:710px;background:#FFFFFF;" version="1.1" viewBox="0 0 1012 710" width="1012.2px" zoomAndPan="magnify"><defs/><g><!--cluster Customer Aggregate--><g id="cluster_Customer Aggregate"><path d="M615.3,3.6082 L702.9,3.6082 A2.25,2.25 0 0 1 704.4,5.1082 L708.6,18.3809 L950.7,18.3809 A1.5,1.5 0 0 1 952.2,19.8809 L952.2,357.6082 A1.5,1.5 0 0 1 950.7,359.1082 L615.3,359.1082 A1.5,1.5 0 0 1 613.8,357.6082 L613.8,5.1082 A1.5,1.5 0 0 1 615.3,3.6082 " fill="none" style="stroke:#000000;stroke-width:0.8999999999999999;"/><line style="stroke:#000000;stroke-width:0.8999999999999999;" x1="613.8" x2="708.6" y1="18.3809" y2="18.3809"/><text fill="#000000" font-family="sans-serif" font-size="8.4" font-weight="bold" lengthAdjust="spacing" textLength="87" x="616.2" y="13.8727">Customer Aggregate</text></g><!--cluster Job Opening Aggregate--><g id="cluster_Job Opening Aggregate"><path d="M5.1,255.0082 L105.9,255.0082 A2.25,2.25 0 0 1 107.4,256.5082 L111.6,269.7809 L597.9,269.7809 A1.5,1.5 0 0 1 599.4,271.2809 L599.4,704.7082 A1.5,1.5 0 0 1 597.9,706.2082 L5.1,706.2082 A1.5,1.5 0 0 1 3.6,704.7082 L3.6,256.5082 A1.5,1.5 0 0 1 5.1,255.0082 " fill="none" style="stroke:#000000;stroke-width:0.8999999999999999;"/><line style="stroke:#000000;stroke-width:0.8999999999999999;" x1="3.6" x2="111.6" y1="269.7809" y2="269.7809"/><text fill="#000000" font-family="sans-serif" font-size="8.4" font-weight="bold" lengthAdjust="spacing" textLength="100.2" x="6" y="265.2727">Job Opening Aggregate</text></g><!--cluster JobApplication Aggregate--><g id="cluster_JobApplication Aggregate"><path d="M615.3,506.4082 L724.5,506.4082 A2.25,2.25 0 0 1 726,507.9082 L730.2,521.1809 L896.7,521.1809 A1.5,1.5 0 0 1 898.2,522.6809 L898.2,693.6082 A1.5,1.5 0 0 1 896.7,695.1082 L615.3,695.1082 A1.5,1.5 0 0 1 613.8,693.6082 L613.8,507.9082 A1.5,1.5 0 0 1 615.3,506.4082 " fill="none" style="stroke:#000000;stroke-width:0.8999999999999999;"/><line style="stroke:#000000;stroke-width:0.8999999999999999;" x1="613.8" x2="730.2" y1="521.1809" y2="521.1809"/><text fill="#000000" font-family="sans-serif" font-size="8.4" font-weight="bold" lengthAdjust="spacing" textLength="108.6" x="616.2" y="516.6727">JobApplication Aggregate</text></g><!--class Customer--><g id="elem_Customer"><rect codeLine="6" fill="#F1F1F1" height="49.118" id="Customer" rx="1.5" ry="1.5" style="stroke:#181818;stroke-width:0.3;" width="55.8" x="782.1" y="166.8082"/><ellipse cx="791.1" cy="186.5672" fill="#ADD1B2" rx="6.6" ry="6.6" style="stroke:#181818;stroke-width:0.6;"/><path d="M792.7594,184.0922 Q792.8531,183.9609 792.9656,183.8953 Q793.0781,183.8297 793.2094,183.8297 Q793.4344,183.8297 793.575,183.9891 Q793.7156,184.1391 793.7156,184.5047 L793.7156,185.3766 Q793.7156,185.7422 793.575,185.9016 Q793.4344,186.0609 793.2094,186.0609 Q793.0031,186.0609 792.8813,185.9391 Q792.7594,185.8266 792.6938,185.5172 Q792.6656,185.3016 792.5531,185.1891 Q792.3562,184.9641 791.9906,184.8328 Q791.625,184.7016 791.25,184.7016 Q790.7906,184.7016 790.4063,184.8984 Q790.0313,185.0953 789.7312,185.5453 Q789.4406,185.9953 789.4406,186.6141 L789.4406,187.2703 Q789.4406,188.0109 789.975,188.5078 Q790.5094,188.9953 791.4656,188.9953 Q792.0281,188.9953 792.4219,188.8453 Q792.6563,188.7516 792.9094,188.4891 Q793.0688,188.3297 793.1531,188.2828 Q793.2469,188.2359 793.3688,188.2359 Q793.5656,188.2359 793.7156,188.3953 Q793.875,188.5453 793.875,188.7516 Q793.875,188.9578 793.6687,189.2016 Q793.3688,189.5484 792.8906,189.7453 Q792.2438,190.0172 791.4656,190.0172 Q790.5563,190.0172 789.8344,189.6422 Q789.2438,189.3422 788.8313,188.7047 Q788.4187,188.0578 788.4187,187.2891 L788.4187,186.5953 Q788.4187,185.7984 788.7844,185.1141 Q789.1594,184.4203 789.8156,184.0547 Q790.4719,183.6797 791.2125,183.6797 Q791.6531,183.6797 792.0375,183.7828 Q792.4313,183.8766 792.7594,184.0922 Z " fill="#000000"/><text fill="#000000" font-family="sans-serif" font-size="8.4" lengthAdjust="spacing" textLength="30" x="802.8" y="178.8727">&#171;entity&#187;</text><text fill="#000000" font-family="sans-serif" font-size="8.4" lengthAdjust="spacing" textLength="24.6" x="805.5" y="190.0453">&#171;root&#187;</text><text fill="#000000" font-family="sans-serif" font-size="8.4" lengthAdjust="spacing" textLength="36.6" x="799.5" y="201.218">Customer</text><line style="stroke:#181818;stroke-width:0.3;" x1="782.7" x2="837.3" y1="206.3262" y2="206.3262"/><line style="stroke:#181818;stroke-width:0.3;" x1="782.7" x2="837.3" y1="211.1262" y2="211.1262"/></g><!--class SystemUser--><g id="elem_SystemUser"><rect codeLine="10" fill="#F1F1F1" height="28.8" id="SystemUser" rx="1.5" ry="1.5" style="stroke:#181818;stroke-width:0.3;" width="64.2" x="623.7" y="309.6082"/><ellipse cx="632.7" cy="319.2082" fill="#ADD1B2" rx="6.6" ry="6.6" style="stroke:#181818;stroke-width:0.6;"/><path d="M634.3594,316.7332 Q634.4531,316.602 634.5656,316.5363 Q634.6781,316.4707 634.8094,316.4707 Q635.0344,316.4707 635.175,316.6301 Q635.3156,316.7801 635.3156,317.1457 L635.3156,318.0176 Q635.3156,318.3832 635.175,318.5426 Q635.0344,318.702 634.8094,318.702 Q634.6031,318.702 634.4812,318.5801 Q634.3594,318.4676 634.2937,318.1582 Q634.2656,317.9426 634.1531,317.8301 Q633.9563,317.6051 633.5906,317.4738 Q633.225,317.3426 632.85,317.3426 Q632.3906,317.3426 632.0063,317.5395 Q631.6313,317.7363 631.3313,318.1863 Q631.0406,318.6363 631.0406,319.2551 L631.0406,319.9113 Q631.0406,320.652 631.575,321.1488 Q632.1094,321.6363 633.0656,321.6363 Q633.6281,321.6363 634.0219,321.4863 Q634.2563,321.3926 634.5094,321.1301 Q634.6687,320.9707 634.7531,320.9238 Q634.8469,320.877 634.9688,320.877 Q635.1656,320.877 635.3156,321.0363 Q635.475,321.1863 635.475,321.3926 Q635.475,321.5988 635.2688,321.8426 Q634.9688,322.1895 634.4906,322.3863 Q633.8438,322.6582 633.0656,322.6582 Q632.1563,322.6582 631.4344,322.2832 Q630.8438,321.9832 630.4313,321.3457 Q630.0188,320.6988 630.0188,319.9301 L630.0188,319.2363 Q630.0188,318.4395 630.3844,317.7551 Q630.7594,317.0613 631.4156,316.6957 Q632.0719,316.3207 632.8125,316.3207 Q633.2531,316.3207 633.6375,316.4238 Q634.0313,316.5176 634.3594,316.7332 Z " fill="#000000"/><text fill="#000000" font-family="sans-serif" font-size="8.4" lengthAdjust="spacing" textLength="45" x="641.1" y="322.6863">SystemUser</text><line style="stroke:#181818;stroke-width:0.3;" x1="624.3" x2="687.3" y1="328.8082" y2="328.8082"/><line style="stroke:#181818;stroke-width:0.3;" x1="624.3" x2="687.3" y1="333.6082" y2="333.6082"/></g><!--class Name1--><g id="elem_Name1"><rect codeLine="13" fill="#F1F1F1" height="51.1453" id="Name1" rx="1.5" ry="1.5" style="stroke:#181818;stroke-width:0.3;" width="42.6" x="708.9" y="298.5082"/><ellipse cx="718.71" cy="308.1082" fill="#ADD1B2" rx="6.6" ry="6.6" style="stroke:#181818;stroke-width:0.6;"/><path d="M720.3694,305.6332 Q720.4631,305.502 720.5756,305.4363 Q720.6881,305.3707 720.8194,305.3707 Q721.0444,305.3707 721.185,305.5301 Q721.3256,305.6801 721.3256,306.0457 L721.3256,306.9176 Q721.3256,307.2832 721.185,307.4426 Q721.0444,307.602 720.8194,307.602 Q720.6131,307.602 720.4912,307.4801 Q720.3694,307.3676 720.3037,307.0582 Q720.2756,306.8426 720.1631,306.7301 Q719.9663,306.5051 719.6006,306.3738 Q719.235,306.2426 718.86,306.2426 Q718.4006,306.2426 718.0162,306.4395 Q717.6412,306.6363 717.3413,307.0863 Q717.0506,307.5363 717.0506,308.1551 L717.0506,308.8113 Q717.0506,309.552 717.585,310.0488 Q718.1194,310.5363 719.0756,310.5363 Q719.6381,310.5363 720.0319,310.3863 Q720.2662,310.2926 720.5194,310.0301 Q720.6787,309.8707 720.7631,309.8238 Q720.8569,309.777 720.9787,309.777 Q721.1756,309.777 721.3256,309.9363 Q721.485,310.0863 721.485,310.2926 Q721.485,310.4988 721.2788,310.7426 Q720.9787,311.0895 720.5006,311.2863 Q719.8537,311.5582 719.0756,311.5582 Q718.1662,311.5582 717.4444,311.1832 Q716.8537,310.8832 716.4413,310.2457 Q716.0288,309.5988 716.0288,308.8301 L716.0288,308.1363 Q716.0288,307.3395 716.3944,306.6551 Q716.7694,305.9613 717.4256,305.5957 Q718.0819,305.2207 718.8225,305.2207 Q719.2631,305.2207 719.6475,305.3238 Q720.0412,305.4176 720.3694,305.6332 Z " fill="#000000"/><text fill="#000000" font-family="sans-serif" font-size="8.4" lengthAdjust="spacing" textLength="21.6" x="727.29" y="311.5863">Name</text><line style="stroke:#181818;stroke-width:0.3;" x1="709.5" x2="750.9" y1="317.7082" y2="317.7082"/><text fill="#000000" font-family="sans-serif" font-size="8.4" lengthAdjust="spacing" textLength="35.4" x="712.5" y="329.1727">firstName</text><text fill="#000000" font-family="sans-serif" font-size="8.4" lengthAdjust="spacing" textLength="34.8" x="712.5" y="340.3453">lastName</text><line style="stroke:#181818;stroke-width:0.3;" x1="709.5" x2="750.9" y1="344.8535" y2="344.8535"/></g><!--class EMail1--><g id="elem_EMail1"><rect codeLine="17" fill="#F1F1F1" height="37.9453" id="EMail1" rx="1.5" ry="1.5" style="stroke:#181818;stroke-width:0.3;" width="74.4" x="772.8" y="305.1082"/><ellipse cx="781.8" cy="319.2809" fill="#ADD1B2" rx="6.6" ry="6.6" style="stroke:#181818;stroke-width:0.6;"/><path d="M783.4594,316.8059 Q783.5531,316.6746 783.6656,316.609 Q783.7781,316.5434 783.9094,316.5434 Q784.1344,316.5434 784.275,316.7027 Q784.4156,316.8527 784.4156,317.2184 L784.4156,318.0902 Q784.4156,318.4559 784.275,318.6152 Q784.1344,318.7746 783.9094,318.7746 Q783.7031,318.7746 783.5813,318.6527 Q783.4594,318.5402 783.3938,318.2309 Q783.3656,318.0152 783.2531,317.9027 Q783.0563,317.6777 782.6906,317.5465 Q782.325,317.4152 781.95,317.4152 Q781.4906,317.4152 781.1062,317.6121 Q780.7312,317.809 780.4313,318.259 Q780.1406,318.709 780.1406,319.3277 L780.1406,319.984 Q780.1406,320.7246 780.675,321.2215 Q781.2094,321.709 782.1656,321.709 Q782.7281,321.709 783.1219,321.559 Q783.3562,321.4652 783.6094,321.2027 Q783.7688,321.0434 783.8531,320.9965 Q783.9469,320.9496 784.0688,320.9496 Q784.2656,320.9496 784.4156,321.109 Q784.575,321.259 784.575,321.4652 Q784.575,321.6715 784.3688,321.9152 Q784.0688,322.2621 783.5906,322.459 Q782.9438,322.7309 782.1656,322.7309 Q781.2563,322.7309 780.5344,322.3559 Q779.9438,322.0559 779.5313,321.4184 Q779.1188,320.7715 779.1188,320.0027 L779.1188,319.309 Q779.1188,318.5121 779.4844,317.8277 Q779.8594,317.134 780.5156,316.7684 Q781.1719,316.3934 781.9125,316.3934 Q782.3531,316.3934 782.7375,316.4965 Q783.1313,316.5902 783.4594,316.8059 Z " fill="#000000"/><text fill="#000000" font-family="sans-serif" font-size="8.4" lengthAdjust="spacing" textLength="55.2" x="790.2" y="317.1727">&#171;value object&#187;</text><text fill="#000000" font-family="sans-serif" font-size="8.4" lengthAdjust="spacing" textLength="23.4" x="806.1" y="328.3453">E-Mail</text><line style="stroke:#181818;stroke-width:0.3;" x1="773.4" x2="846.6" y1="333.4535" y2="333.4535"/><line style="stroke:#181818;stroke-width:0.3;" x1="773.4" x2="846.6" y1="338.2535" y2="338.2535"/></g><!--class Address2--><g id="elem_Address2"><rect codeLine="20" fill="#F1F1F1" height="93.8086" id="Address2" rx="1.5" ry="1.5" style="stroke:#181818;stroke-width:0.3;" width="74.4" x="772.8" y="25.8082"/><ellipse cx="781.8" cy="39.9809" fill="#ADD1B2" rx="6.6" ry="6.6" style="stroke:#181818;stroke-width:0.6;"/><path d="M783.4594,37.5059 Q783.5531,37.3746 783.6656,37.309 Q783.7781,37.2434 783.9094,37.2434 Q784.1344,37.2434 784.275,37.4027 Q784.4156,37.5527 784.4156,37.9184 L784.4156,38.7902 Q784.4156,39.1559 784.275,39.3152 Q784.1344,39.4746 783.9094,39.4746 Q783.7031,39.4746 783.5813,39.3527 Q783.4594,39.2402 783.3938,38.9309 Q783.3656,38.7152 783.2531,38.6027 Q783.0563,38.3777 782.6906,38.2465 Q782.325,38.1152 781.95,38.1152 Q781.4906,38.1152 781.1062,38.3121 Q780.7312,38.509 780.4313,38.959 Q780.1406,39.409 780.1406,40.0277 L780.1406,40.684 Q780.1406,41.4246 780.675,41.9215 Q781.2094,42.409 782.1656,42.409 Q782.7281,42.409 783.1219,42.259 Q783.3562,42.1652 783.6094,41.9027 Q783.7688,41.7434 783.8531,41.6965 Q783.9469,41.6496 784.0688,41.6496 Q784.2656,41.6496 784.4156,41.809 Q784.575,41.959 784.575,42.1652 Q784.575,42.3715 784.3688,42.6152 Q784.0688,42.9621 783.5906,43.159 Q782.9438,43.4309 782.1656,43.4309 Q781.2563,43.4309 780.5344,43.0559 Q779.9438,42.7559 779.5313,42.1184 Q779.1188,41.4715 779.1188,40.7027 L779.1188,40.009 Q779.1188,39.2121 779.4844,38.5277 Q779.8594,37.834 780.5156,37.4684 Q781.1719,37.0934 781.9125,37.0934 Q782.3531,37.0934 782.7375,37.1965 Q783.1313,37.2902 783.4594,37.5059 Z " fill="#000000"/><text fill="#000000" font-family="sans-serif" font-size="8.4" lengthAdjust="spacing" textLength="55.2" x="790.2" y="37.8727">&#171;value object&#187;</text><text fill="#000000" font-family="sans-serif" font-size="8.4" lengthAdjust="spacing" textLength="31.2" x="802.2" y="49.0453">Address</text><line style="stroke:#181818;stroke-width:0.3;" x1="773.4" x2="846.6" y1="54.1535" y2="54.1535"/><text fill="#000000" font-family="sans-serif" font-size="8.4" lengthAdjust="spacing" textLength="22.8" x="776.4" y="65.618">Street</text><text fill="#000000" font-family="sans-serif" font-size="8.4" lengthAdjust="spacing" textLength="14.4" x="776.4" y="76.7906">City</text><text fill="#000000" font-family="sans-serif" font-size="8.4" lengthAdjust="spacing" textLength="19.8" x="776.4" y="87.9633">State</text><text fill="#000000" font-family="sans-serif" font-size="8.4" lengthAdjust="spacing" textLength="30" x="776.4" y="99.1359">Country</text><text fill="#000000" font-family="sans-serif" font-size="8.4" lengthAdjust="spacing" textLength="30" x="776.4" y="110.3086">Zipcode</text><line style="stroke:#181818;stroke-width:0.3;" x1="773.4" x2="846.6" y1="114.8168" y2="114.8168"/></g><!--class Code--><g id="elem_Code"><rect codeLine="28" fill="#F1F1F1" height="37.9453" id="Code" rx="1.5" ry="1.5" style="stroke:#181818;stroke-width:0.3;" width="74.4" x="868.2" y="305.1082"/><ellipse cx="877.2" cy="319.2809" fill="#ADD1B2" rx="6.6" ry="6.6" style="stroke:#181818;stroke-width:0.6;"/><path d="M878.8594,316.8059 Q878.9531,316.6746 879.0656,316.609 Q879.1781,316.5434 879.3094,316.5434 Q879.5344,316.5434 879.675,316.7027 Q879.8156,316.8527 879.8156,317.2184 L879.8156,318.0902 Q879.8156,318.4559 879.675,318.6152 Q879.5344,318.7746 879.3094,318.7746 Q879.1031,318.7746 878.9812,318.6527 Q878.8594,318.5402 878.7937,318.2309 Q878.7656,318.0152 878.6531,317.9027 Q878.4563,317.6777 878.0906,317.5465 Q877.725,317.4152 877.35,317.4152 Q876.8906,317.4152 876.5063,317.6121 Q876.1313,317.809 875.8313,318.259 Q875.5406,318.709 875.5406,319.3277 L875.5406,319.984 Q875.5406,320.7246 876.075,321.2215 Q876.6094,321.709 877.5656,321.709 Q878.1281,321.709 878.5219,321.559 Q878.7563,321.4652 879.0094,321.2027 Q879.1687,321.0434 879.2531,320.9965 Q879.3469,320.9496 879.4688,320.9496 Q879.6656,320.9496 879.8156,321.109 Q879.975,321.259 879.975,321.4652 Q879.975,321.6715 879.7688,321.9152 Q879.4688,322.2621 878.9906,322.459 Q878.3438,322.7309 877.5656,322.7309 Q876.6563,322.7309 875.9344,322.3559 Q875.3438,322.0559 874.9313,321.4184 Q874.5188,320.7715 874.5188,320.0027 L874.5188,319.309 Q874.5188,318.5121 874.8844,317.8277 Q875.2594,317.134 875.9156,316.7684 Q876.5719,316.3934 877.3125,316.3934 Q877.7531,316.3934 878.1375,316.4965 Q878.5313,316.5902 878.8594,316.8059 Z " fill="#000000"/><text fill="#000000" font-family="sans-serif" font-size="8.4" lengthAdjust="spacing" textLength="55.2" x="885.6" y="317.1727">&#171;value object&#187;</text><text fill="#000000" font-family="sans-serif" font-size="8.4" lengthAdjust="spacing" textLength="20.4" x="903" y="328.3453">Code</text><line style="stroke:#181818;stroke-width:0.3;" x1="868.8" x2="942" y1="333.4535" y2="333.4535"/><line style="stroke:#181818;stroke-width:0.3;" x1="868.8" x2="942" y1="338.2535" y2="338.2535"/></g><!--class RecruitmentProcess--><g id="elem_RecruitmentProcess"><rect codeLine="35" fill="#F1F1F1" height="49.118" id="RecruitmentProcess" rx="1.5" ry="1.5" style="stroke:#181818;stroke-width:0.3;" width="95.4" x="65.1" y="528.6082"/><ellipse cx="74.1" cy="542.7809" fill="#ADD1B2" rx="6.6" ry="6.6" style="stroke:#181818;stroke-width:0.6;"/><path d="M75.7594,540.3059 Q75.8531,540.1746 75.9656,540.109 Q76.0781,540.0434 76.2094,540.0434 Q76.4344,540.0434 76.575,540.2027 Q76.7156,540.3527 76.7156,540.7184 L76.7156,541.5902 Q76.7156,541.9559 76.575,542.1152 Q76.4344,542.2746 76.2094,542.2746 Q76.0031,542.2746 75.8813,542.1527 Q75.7594,542.0402 75.6938,541.7309 Q75.6656,541.5152 75.5531,541.4027 Q75.3563,541.1777 74.9906,541.0465 Q74.625,540.9152 74.25,540.9152 Q73.7906,540.9152 73.4063,541.1121 Q73.0313,541.309 72.7313,541.759 Q72.4406,542.209 72.4406,542.8277 L72.4406,543.484 Q72.4406,544.2246 72.975,544.7215 Q73.5094,545.209 74.4656,545.209 Q75.0281,545.209 75.4219,545.059 Q75.6563,544.9652 75.9094,544.7027 Q76.0688,544.5434 76.1531,544.4965 Q76.2469,544.4496 76.3687,544.4496 Q76.5656,544.4496 76.7156,544.609 Q76.875,544.759 76.875,544.9652 Q76.875,545.1715 76.6688,545.4152 Q76.3687,545.7621 75.8906,545.959 Q75.2437,546.2309 74.4656,546.2309 Q73.5562,546.2309 72.8344,545.8559 Q72.2437,545.5559 71.8313,544.9184 Q71.4188,544.2715 71.4188,543.5027 L71.4188,542.809 Q71.4188,542.0121 71.7844,541.3277 Q72.1594,540.634 72.8156,540.2684 Q73.4719,539.8934 74.2125,539.8934 Q74.6531,539.8934 75.0375,539.9965 Q75.4312,540.0902 75.7594,540.3059 Z " fill="#000000"/><text fill="#000000" font-family="sans-serif" font-size="8.4" lengthAdjust="spacing" textLength="30" x="105.6" y="540.6727">&#171;entity&#187;</text><text fill="#000000" font-family="sans-serif" font-size="8.4" lengthAdjust="spacing" textLength="76.2" x="82.5" y="551.8453">RecruitmentProcess</text><line style="stroke:#181818;stroke-width:0.3;" x1="65.7" x2="159.9" y1="556.9535" y2="556.9535"/><text fill="#000000" font-family="sans-serif" font-size="8.4" lengthAdjust="spacing" textLength="71.4" x="68.7" y="568.418">HasInterviewPhase</text><line style="stroke:#181818;stroke-width:0.3;" x1="65.7" x2="159.9" y1="572.9262" y2="572.9262"/></g><!--class Phase--><g id="elem_Phase"><rect codeLine="39" fill="#F1F1F1" height="71.4633" id="Phase" rx="1.5" ry="1.5" style="stroke:#181818;stroke-width:0.3;" width="49.2" x="88.2" y="625.2082"/><ellipse cx="97.2" cy="639.3809" fill="#ADD1B2" rx="6.6" ry="6.6" style="stroke:#181818;stroke-width:0.6;"/><path d="M98.8594,636.9059 Q98.9531,636.7746 99.0656,636.709 Q99.1781,636.6434 99.3094,636.6434 Q99.5344,636.6434 99.675,636.8027 Q99.8156,636.9527 99.8156,637.3184 L99.8156,638.1902 Q99.8156,638.5559 99.675,638.7152 Q99.5344,638.8746 99.3094,638.8746 Q99.1031,638.8746 98.9813,638.7527 Q98.8594,638.6402 98.7938,638.3309 Q98.7656,638.1152 98.6531,638.0027 Q98.4563,637.7777 98.0906,637.6465 Q97.725,637.5152 97.35,637.5152 Q96.8906,637.5152 96.5063,637.7121 Q96.1313,637.909 95.8313,638.359 Q95.5406,638.809 95.5406,639.4277 L95.5406,640.084 Q95.5406,640.8246 96.075,641.3215 Q96.6094,641.809 97.5656,641.809 Q98.1281,641.809 98.5219,641.659 Q98.7563,641.5652 99.0094,641.3027 Q99.1688,641.1434 99.2531,641.0965 Q99.3469,641.0496 99.4688,641.0496 Q99.6656,641.0496 99.8156,641.209 Q99.975,641.359 99.975,641.5652 Q99.975,641.7715 99.7688,642.0152 Q99.4688,642.3621 98.9906,642.559 Q98.3438,642.8309 97.5656,642.8309 Q96.6563,642.8309 95.9344,642.4559 Q95.3438,642.1559 94.9312,641.5184 Q94.5188,640.8715 94.5188,640.1027 L94.5188,639.409 Q94.5188,638.6121 94.8844,637.9277 Q95.2594,637.234 95.9156,636.8684 Q96.5719,636.4934 97.3125,636.4934 Q97.7531,636.4934 98.1375,636.5965 Q98.5313,636.6902 98.8594,636.9059 Z " fill="#000000"/><text fill="#000000" font-family="sans-serif" font-size="8.4" lengthAdjust="spacing" textLength="30" x="105.6" y="637.2727">&#171;entity&#187;</text><text fill="#000000" font-family="sans-serif" font-size="8.4" lengthAdjust="spacing" textLength="24" x="108.6" y="648.4453">Phase</text><line style="stroke:#181818;stroke-width:0.3;" x1="88.8" x2="136.8" y1="653.5535" y2="653.5535"/><text fill="#000000" font-family="sans-serif" font-size="8.4" lengthAdjust="spacing" textLength="41.4" x="91.8" y="665.018">description</text><text fill="#000000" font-family="sans-serif" font-size="8.4" lengthAdjust="spacing" textLength="39" x="91.8" y="676.1906">beginDate</text><text fill="#000000" font-family="sans-serif" font-size="8.4" lengthAdjust="spacing" textLength="33.6" x="91.8" y="687.3633">finalDate</text><line style="stroke:#181818;stroke-width:0.3;" x1="88.8" x2="136.8" y1="691.8715" y2="691.8715"/></g><!--class InterviewPhaseStatus--><g id="elem_InterviewPhaseStatus"><rect codeLine="45" fill="#F1F1F1" height="37.9453" id="InterviewPhaseStatus" rx="1.5" ry="1.5" style="stroke:#181818;stroke-width:0.3;" width="100.2" x="181.5" y="534.3082"/><ellipse cx="190.5" cy="548.4809" fill="#ADD1B2" rx="6.6" ry="6.6" style="stroke:#181818;stroke-width:0.6;"/><path d="M192.1594,546.0059 Q192.2531,545.8746 192.3656,545.809 Q192.4781,545.7434 192.6094,545.7434 Q192.8344,545.7434 192.975,545.9027 Q193.1156,546.0527 193.1156,546.4184 L193.1156,547.2902 Q193.1156,547.6559 192.975,547.8152 Q192.8344,547.9746 192.6094,547.9746 Q192.4031,547.9746 192.2813,547.8527 Q192.1594,547.7402 192.0938,547.4309 Q192.0656,547.2152 191.9531,547.1027 Q191.7563,546.8777 191.3906,546.7465 Q191.025,546.6152 190.65,546.6152 Q190.1906,546.6152 189.8063,546.8121 Q189.4313,547.009 189.1313,547.459 Q188.8406,547.909 188.8406,548.5277 L188.8406,549.184 Q188.8406,549.9246 189.375,550.4215 Q189.9094,550.909 190.8656,550.909 Q191.4281,550.909 191.8219,550.759 Q192.0563,550.6652 192.3094,550.4027 Q192.4688,550.2434 192.5531,550.1965 Q192.6469,550.1496 192.7687,550.1496 Q192.9656,550.1496 193.1156,550.309 Q193.275,550.459 193.275,550.6652 Q193.275,550.8715 193.0688,551.1152 Q192.7687,551.4621 192.2906,551.659 Q191.6437,551.9309 190.8656,551.9309 Q189.9562,551.9309 189.2344,551.5559 Q188.6437,551.2559 188.2313,550.6184 Q187.8188,549.9715 187.8188,549.2027 L187.8188,548.509 Q187.8188,547.7121 188.1844,547.0277 Q188.5594,546.334 189.2156,545.9684 Q189.8719,545.5934 190.6125,545.5934 Q191.0531,545.5934 191.4375,545.6965 Q191.8312,545.7902 192.1594,546.0059 Z " fill="#000000"/><text fill="#000000" font-family="sans-serif" font-size="8.4" lengthAdjust="spacing" textLength="55.2" x="211.8" y="546.3727">&#171;value object&#187;</text><text fill="#000000" font-family="sans-serif" font-size="8.4" lengthAdjust="spacing" textLength="81" x="198.9" y="557.5453">InterviewPhaseStatus</text><line style="stroke:#181818;stroke-width:0.3;" x1="182.1" x2="281.1" y1="562.6535" y2="562.6535"/><line style="stroke:#181818;stroke-width:0.3;" x1="182.1" x2="281.1" y1="567.4535" y2="567.4535"/></g><!--class JobOpening--><g id="elem_JobOpening"><rect codeLine="47" fill="#F1F1F1" height="49.118" id="JobOpening" rx="1.5" ry="1.5" style="stroke:#181818;stroke-width:0.3;" width="64.8" x="329.4" y="418.2082"/><ellipse cx="338.4" cy="437.9672" fill="#ADD1B2" rx="6.6" ry="6.6" style="stroke:#181818;stroke-width:0.6;"/><path d="M340.0594,435.4922 Q340.1531,435.3609 340.2656,435.2953 Q340.3781,435.2297 340.5094,435.2297 Q340.7344,435.2297 340.875,435.3891 Q341.0156,435.5391 341.0156,435.9047 L341.0156,436.7766 Q341.0156,437.1422 340.875,437.3016 Q340.7344,437.4609 340.5094,437.4609 Q340.3031,437.4609 340.1813,437.3391 Q340.0594,437.2266 339.9938,436.9172 Q339.9656,436.7016 339.8531,436.5891 Q339.6563,436.3641 339.2906,436.2328 Q338.925,436.1016 338.55,436.1016 Q338.0906,436.1016 337.7063,436.2984 Q337.3313,436.4953 337.0313,436.9453 Q336.7406,437.3953 336.7406,438.0141 L336.7406,438.6703 Q336.7406,439.4109 337.275,439.9078 Q337.8094,440.3953 338.7656,440.3953 Q339.3281,440.3953 339.7219,440.2453 Q339.9563,440.1516 340.2094,439.8891 Q340.3688,439.7297 340.4531,439.6828 Q340.5469,439.6359 340.6688,439.6359 Q340.8656,439.6359 341.0156,439.7953 Q341.175,439.9453 341.175,440.1516 Q341.175,440.3578 340.9688,440.6016 Q340.6688,440.9484 340.1906,441.1453 Q339.5438,441.4172 338.7656,441.4172 Q337.8563,441.4172 337.1344,441.0422 Q336.5438,440.7422 336.1312,440.1047 Q335.7188,439.4578 335.7188,438.6891 L335.7188,437.9953 Q335.7188,437.1984 336.0844,436.5141 Q336.4594,435.8203 337.1156,435.4547 Q337.7719,435.0797 338.5125,435.0797 Q338.9531,435.0797 339.3375,435.1828 Q339.7313,435.2766 340.0594,435.4922 Z " fill="#000000"/><text fill="#000000" font-family="sans-serif" font-size="8.4" lengthAdjust="spacing" textLength="24.6" x="357.3" y="430.2727">&#171;root&#187;</text><text fill="#000000" font-family="sans-serif" font-size="8.4" lengthAdjust="spacing" textLength="30" x="353.4" y="441.4453">&#171;entity&#187;</text><text fill="#000000" font-family="sans-serif" font-size="8.4" lengthAdjust="spacing" textLength="45.6" x="346.8" y="452.618">JobOpening</text><line style="stroke:#181818;stroke-width:0.3;" x1="330" x2="393.6" y1="457.7262" y2="457.7262"/><line style="stroke:#181818;stroke-width:0.3;" x1="330" x2="393.6" y1="462.5262" y2="462.5262"/></g><!--class SetupStatus--><g id="elem_SetupStatus"><rect codeLine="52" fill="#F1F1F1" height="37.9453" id="SetupStatus" rx="1.5" ry="1.5" style="stroke:#181818;stroke-width:0.3;" width="74.4" x="303" y="534.3082"/><ellipse cx="312" cy="548.4809" fill="#ADD1B2" rx="6.6" ry="6.6" style="stroke:#181818;stroke-width:0.6;"/><path d="M313.6594,546.0059 Q313.7531,545.8746 313.8656,545.809 Q313.9781,545.7434 314.1094,545.7434 Q314.3344,545.7434 314.475,545.9027 Q314.6156,546.0527 314.6156,546.4184 L314.6156,547.2902 Q314.6156,547.6559 314.475,547.8152 Q314.3344,547.9746 314.1094,547.9746 Q313.9031,547.9746 313.7813,547.8527 Q313.6594,547.7402 313.5938,547.4309 Q313.5656,547.2152 313.4531,547.1027 Q313.2562,546.8777 312.8906,546.7465 Q312.525,546.6152 312.15,546.6152 Q311.6906,546.6152 311.3063,546.8121 Q310.9313,547.009 310.6312,547.459 Q310.3406,547.909 310.3406,548.5277 L310.3406,549.184 Q310.3406,549.9246 310.875,550.4215 Q311.4094,550.909 312.3656,550.909 Q312.9281,550.909 313.3219,550.759 Q313.5563,550.6652 313.8094,550.4027 Q313.9688,550.2434 314.0531,550.1965 Q314.1469,550.1496 314.2688,550.1496 Q314.4656,550.1496 314.6156,550.309 Q314.775,550.459 314.775,550.6652 Q314.775,550.8715 314.5687,551.1152 Q314.2688,551.4621 313.7906,551.659 Q313.1438,551.9309 312.3656,551.9309 Q311.4563,551.9309 310.7344,551.5559 Q310.1438,551.2559 309.7313,550.6184 Q309.3187,549.9715 309.3187,549.2027 L309.3187,548.509 Q309.3187,547.7121 309.6844,547.0277 Q310.0594,546.334 310.7156,545.9684 Q311.3719,545.5934 312.1125,545.5934 Q312.5531,545.5934 312.9375,545.6965 Q313.3313,545.7902 313.6594,546.0059 Z " fill="#000000"/><text fill="#000000" font-family="sans-serif" font-size="8.4" lengthAdjust="spacing" textLength="55.2" x="320.4" y="546.3727">&#171;value object&#187;</text><text fill="#000000" font-family="sans-serif" font-size="8.4" lengthAdjust="spacing" textLength="46.2" x="324.9" y="557.5453">SetupStatus</text><line style="stroke:#181818;stroke-width:0.3;" x1="303.6" x2="376.8" y1="562.6535" y2="562.6535"/><line style="stroke:#181818;stroke-width:0.3;" x1="303.6" x2="376.8" y1="567.4535" y2="567.4535"/></g><!--class RequirementsStatus--><g id="elem_RequirementsStatus"><rect codeLine="55" fill="#F1F1F1" height="37.9453" id="RequirementsStatus" rx="1.5" ry="1.5" style="stroke:#181818;stroke-width:0.3;" width="96" x="398.4" y="534.3082"/><ellipse cx="407.4" cy="548.4809" fill="#ADD1B2" rx="6.6" ry="6.6" style="stroke:#181818;stroke-width:0.6;"/><path d="M409.0594,546.0059 Q409.1531,545.8746 409.2656,545.809 Q409.3781,545.7434 409.5094,545.7434 Q409.7344,545.7434 409.875,545.9027 Q410.0156,546.0527 410.0156,546.4184 L410.0156,547.2902 Q410.0156,547.6559 409.875,547.8152 Q409.7344,547.9746 409.5094,547.9746 Q409.3031,547.9746 409.1813,547.8527 Q409.0594,547.7402 408.9938,547.4309 Q408.9656,547.2152 408.8531,547.1027 Q408.6563,546.8777 408.2906,546.7465 Q407.925,546.6152 407.55,546.6152 Q407.0906,546.6152 406.7063,546.8121 Q406.3313,547.009 406.0313,547.459 Q405.7406,547.909 405.7406,548.5277 L405.7406,549.184 Q405.7406,549.9246 406.275,550.4215 Q406.8094,550.909 407.7656,550.909 Q408.3281,550.909 408.7219,550.759 Q408.9563,550.6652 409.2094,550.4027 Q409.3688,550.2434 409.4531,550.1965 Q409.5469,550.1496 409.6688,550.1496 Q409.8656,550.1496 410.0156,550.309 Q410.175,550.459 410.175,550.6652 Q410.175,550.8715 409.9688,551.1152 Q409.6688,551.4621 409.1906,551.659 Q408.5438,551.9309 407.7656,551.9309 Q406.8563,551.9309 406.1344,551.5559 Q405.5438,551.2559 405.1312,550.6184 Q404.7188,549.9715 404.7188,549.2027 L404.7188,548.509 Q404.7188,547.7121 405.0844,547.0277 Q405.4594,546.334 406.1156,545.9684 Q406.7719,545.5934 407.5125,545.5934 Q407.9531,545.5934 408.3375,545.6965 Q408.7313,545.7902 409.0594,546.0059 Z " fill="#000000"/><text fill="#000000" font-family="sans-serif" font-size="8.4" lengthAdjust="spacing" textLength="55.2" x="426.6" y="546.3727">&#171;value object&#187;</text><text fill="#000000" font-family="sans-serif" font-size="8.4" lengthAdjust="spacing" textLength="76.8" x="415.8" y="557.5453">RequirementsStatus</text><line style="stroke:#181818;stroke-width:0.3;" x1="399" x2="493.8" y1="562.6535" y2="562.6535"/><line style="stroke:#181818;stroke-width:0.3;" x1="399" x2="493.8" y1="567.4535" y2="567.4535"/></g><!--class ContractType--><g id="elem_ContractType"><rect codeLine="60" fill="#F1F1F1" height="37.9453" id="ContractType" rx="1.5" ry="1.5" style="stroke:#181818;stroke-width:0.3;" width="74.4" x="515.4" y="305.1082"/><ellipse cx="524.4" cy="319.2809" fill="#ADD1B2" rx="6.6" ry="6.6" style="stroke:#181818;stroke-width:0.6;"/><path d="M526.0594,316.8059 Q526.1531,316.6746 526.2656,316.609 Q526.3781,316.5434 526.5094,316.5434 Q526.7344,316.5434 526.875,316.7027 Q527.0156,316.8527 527.0156,317.2184 L527.0156,318.0902 Q527.0156,318.4559 526.875,318.6152 Q526.7344,318.7746 526.5094,318.7746 Q526.3031,318.7746 526.1813,318.6527 Q526.0594,318.5402 525.9938,318.2309 Q525.9656,318.0152 525.8531,317.9027 Q525.6563,317.6777 525.2906,317.5465 Q524.925,317.4152 524.55,317.4152 Q524.0906,317.4152 523.7063,317.6121 Q523.3313,317.809 523.0313,318.259 Q522.7406,318.709 522.7406,319.3277 L522.7406,319.984 Q522.7406,320.7246 523.275,321.2215 Q523.8094,321.709 524.7656,321.709 Q525.3281,321.709 525.7219,321.559 Q525.9563,321.4652 526.2094,321.2027 Q526.3688,321.0434 526.4531,320.9965 Q526.5469,320.9496 526.6687,320.9496 Q526.8656,320.9496 527.0156,321.109 Q527.175,321.259 527.175,321.4652 Q527.175,321.6715 526.9688,321.9152 Q526.6687,322.2621 526.1906,322.459 Q525.5437,322.7309 524.7656,322.7309 Q523.8562,322.7309 523.1344,322.3559 Q522.5437,322.0559 522.1313,321.4184 Q521.7188,320.7715 521.7188,320.0027 L521.7188,319.309 Q521.7188,318.5121 522.0844,317.8277 Q522.4594,317.134 523.1156,316.7684 Q523.7719,316.3934 524.5125,316.3934 Q524.9531,316.3934 525.3375,316.4965 Q525.7312,316.5902 526.0594,316.8059 Z " fill="#000000"/><text fill="#000000" font-family="sans-serif" font-size="8.4" lengthAdjust="spacing" textLength="55.2" x="532.8" y="317.1727">&#171;value object&#187;</text><text fill="#000000" font-family="sans-serif" font-size="8.4" lengthAdjust="spacing" textLength="51.6" x="534.6" y="328.3453">ContractType</text><line style="stroke:#181818;stroke-width:0.3;" x1="516" x2="589.2" y1="333.4535" y2="333.4535"/><line style="stroke:#181818;stroke-width:0.3;" x1="516" x2="589.2" y1="338.2535" y2="338.2535"/></g><!--class Mode--><g id="elem_Mode"><rect codeLine="63" fill="#F1F1F1" height="49.118" id="Mode" rx="1.5" ry="1.5" style="stroke:#181818;stroke-width:0.3;" width="74.4" x="420" y="299.4082"/><ellipse cx="429" cy="313.5809" fill="#ADD1B2" rx="6.6" ry="6.6" style="stroke:#181818;stroke-width:0.6;"/><path d="M430.6594,311.1059 Q430.7531,310.9746 430.8656,310.909 Q430.9781,310.8434 431.1094,310.8434 Q431.3344,310.8434 431.475,311.0027 Q431.6156,311.1527 431.6156,311.5184 L431.6156,312.3902 Q431.6156,312.7559 431.475,312.9152 Q431.3344,313.0746 431.1094,313.0746 Q430.9031,313.0746 430.7813,312.9527 Q430.6594,312.8402 430.5938,312.5309 Q430.5656,312.3152 430.4531,312.2027 Q430.2562,311.9777 429.8906,311.8465 Q429.525,311.7152 429.15,311.7152 Q428.6906,311.7152 428.3063,311.9121 Q427.9313,312.109 427.6312,312.559 Q427.3406,313.009 427.3406,313.6277 L427.3406,314.284 Q427.3406,315.0246 427.875,315.5215 Q428.4094,316.009 429.3656,316.009 Q429.9281,316.009 430.3219,315.859 Q430.5563,315.7652 430.8094,315.5027 Q430.9688,315.3434 431.0531,315.2965 Q431.1469,315.2496 431.2688,315.2496 Q431.4656,315.2496 431.6156,315.409 Q431.775,315.559 431.775,315.7652 Q431.775,315.9715 431.5687,316.2152 Q431.2688,316.5621 430.7906,316.759 Q430.1438,317.0309 429.3656,317.0309 Q428.4563,317.0309 427.7344,316.6559 Q427.1438,316.3559 426.7313,315.7184 Q426.3187,315.0715 426.3187,314.3027 L426.3187,313.609 Q426.3187,312.8121 426.6844,312.1277 Q427.0594,311.434 427.7156,311.0684 Q428.3719,310.6934 429.1125,310.6934 Q429.5531,310.6934 429.9375,310.7965 Q430.3313,310.8902 430.6594,311.1059 Z " fill="#000000"/><text fill="#000000" font-family="sans-serif" font-size="8.4" lengthAdjust="spacing" textLength="55.2" x="437.4" y="311.4727">&#171;value object&#187;</text><text fill="#000000" font-family="sans-serif" font-size="8.4" lengthAdjust="spacing" textLength="21" x="454.5" y="322.6453">Mode</text><line style="stroke:#181818;stroke-width:0.3;" x1="420.6" x2="493.8" y1="327.7535" y2="327.7535"/><text fill="#000000" font-family="sans-serif" font-size="8.4" lengthAdjust="spacing" textLength="41.4" x="423.6" y="339.218">description</text><line style="stroke:#181818;stroke-width:0.3;" x1="420.6" x2="493.8" y1="343.7262" y2="343.7262"/></g><!--class JobFunction--><g id="elem_JobFunction"><rect codeLine="67" fill="#F1F1F1" height="49.118" id="JobFunction" rx="1.5" ry="1.5" style="stroke:#181818;stroke-width:0.3;" width="74.4" x="324.6" y="299.4082"/><ellipse cx="333.6" cy="313.5809" fill="#ADD1B2" rx="6.6" ry="6.6" style="stroke:#181818;stroke-width:0.6;"/><path d="M335.2594,311.1059 Q335.3531,310.9746 335.4656,310.909 Q335.5781,310.8434 335.7094,310.8434 Q335.9344,310.8434 336.075,311.0027 Q336.2156,311.1527 336.2156,311.5184 L336.2156,312.3902 Q336.2156,312.7559 336.075,312.9152 Q335.9344,313.0746 335.7094,313.0746 Q335.5031,313.0746 335.3812,312.9527 Q335.2594,312.8402 335.1937,312.5309 Q335.1656,312.3152 335.0531,312.2027 Q334.8563,311.9777 334.4906,311.8465 Q334.125,311.7152 333.75,311.7152 Q333.2906,311.7152 332.9063,311.9121 Q332.5313,312.109 332.2313,312.559 Q331.9406,313.009 331.9406,313.6277 L331.9406,314.284 Q331.9406,315.0246 332.475,315.5215 Q333.0094,316.009 333.9656,316.009 Q334.5281,316.009 334.9219,315.859 Q335.1563,315.7652 335.4094,315.5027 Q335.5687,315.3434 335.6531,315.2965 Q335.7469,315.2496 335.8688,315.2496 Q336.0656,315.2496 336.2156,315.409 Q336.375,315.559 336.375,315.7652 Q336.375,315.9715 336.1688,316.2152 Q335.8688,316.5621 335.3906,316.759 Q334.7438,317.0309 333.9656,317.0309 Q333.0563,317.0309 332.3344,316.6559 Q331.7438,316.3559 331.3313,315.7184 Q330.9188,315.0715 330.9188,314.3027 L330.9188,313.609 Q330.9188,312.8121 331.2844,312.1277 Q331.6594,311.434 332.3156,311.0684 Q332.9719,310.6934 333.7125,310.6934 Q334.1531,310.6934 334.5375,310.7965 Q334.9313,310.8902 335.2594,311.1059 Z " fill="#000000"/><text fill="#000000" font-family="sans-serif" font-size="8.4" lengthAdjust="spacing" textLength="55.2" x="342" y="311.4727">&#171;value object&#187;</text><text fill="#000000" font-family="sans-serif" font-size="8.4" lengthAdjust="spacing" textLength="46.2" x="346.5" y="322.6453">JobFunction</text><line style="stroke:#181818;stroke-width:0.3;" x1="325.2" x2="398.4" y1="327.7535" y2="327.7535"/><text fill="#000000" font-family="sans-serif" font-size="8.4" lengthAdjust="spacing" textLength="41.4" x="328.2" y="339.218">description</text><line style="stroke:#181818;stroke-width:0.3;" x1="325.2" x2="398.4" y1="343.7262" y2="343.7262"/></g><!--class NumberOfVacancies--><g id="elem_NumberOfVacancies"><rect codeLine="71" fill="#F1F1F1" height="37.9453" id="NumberOfVacancies" rx="1.5" ry="1.5" style="stroke:#181818;stroke-width:0.3;" width="99" x="204.3" y="305.1082"/><ellipse cx="213.3" cy="319.2809" fill="#ADD1B2" rx="6.6" ry="6.6" style="stroke:#181818;stroke-width:0.6;"/><path d="M214.9594,316.8059 Q215.0531,316.6746 215.1656,316.609 Q215.2781,316.5434 215.4094,316.5434 Q215.6344,316.5434 215.775,316.7027 Q215.9156,316.8527 215.9156,317.2184 L215.9156,318.0902 Q215.9156,318.4559 215.775,318.6152 Q215.6344,318.7746 215.4094,318.7746 Q215.2031,318.7746 215.0812,318.6527 Q214.9594,318.5402 214.8937,318.2309 Q214.8656,318.0152 214.7531,317.9027 Q214.5563,317.6777 214.1906,317.5465 Q213.825,317.4152 213.45,317.4152 Q212.9906,317.4152 212.6063,317.6121 Q212.2313,317.809 211.9313,318.259 Q211.6406,318.709 211.6406,319.3277 L211.6406,319.984 Q211.6406,320.7246 212.175,321.2215 Q212.7094,321.709 213.6656,321.709 Q214.2281,321.709 214.6219,321.559 Q214.8563,321.4652 215.1094,321.2027 Q215.2687,321.0434 215.3531,320.9965 Q215.4469,320.9496 215.5688,320.9496 Q215.7656,320.9496 215.9156,321.109 Q216.075,321.259 216.075,321.4652 Q216.075,321.6715 215.8688,321.9152 Q215.5688,322.2621 215.0906,322.459 Q214.4438,322.7309 213.6656,322.7309 Q212.7563,322.7309 212.0344,322.3559 Q211.4438,322.0559 211.0313,321.4184 Q210.6188,320.7715 210.6188,320.0027 L210.6188,319.309 Q210.6188,318.5121 210.9844,317.8277 Q211.3594,317.134 212.0156,316.7684 Q212.6719,316.3934 213.4125,316.3934 Q213.8531,316.3934 214.2375,316.4965 Q214.6313,316.5902 214.9594,316.8059 Z " fill="#000000"/><text fill="#000000" font-family="sans-serif" font-size="8.4" lengthAdjust="spacing" textLength="55.2" x="234" y="317.1727">&#171;value object&#187;</text><text fill="#000000" font-family="sans-serif" font-size="8.4" lengthAdjust="spacing" textLength="77.4" x="224.1" y="328.3453">NumberOfVacancies</text><line style="stroke:#181818;stroke-width:0.3;" x1="204.9" x2="302.7" y1="333.4535" y2="333.4535"/><line style="stroke:#181818;stroke-width:0.3;" x1="204.9" x2="302.7" y1="338.2535" y2="338.2535"/></g><!--class Description--><g id="elem_Description"><rect codeLine="75" fill="#F1F1F1" height="49.118" id="Description" rx="1.5" ry="1.5" style="stroke:#181818;stroke-width:0.3;" width="74.4" x="108.6" y="299.4082"/><ellipse cx="117.6" cy="313.5809" fill="#ADD1B2" rx="6.6" ry="6.6" style="stroke:#181818;stroke-width:0.6;"/><path d="M119.2594,311.1059 Q119.3531,310.9746 119.4656,310.909 Q119.5781,310.8434 119.7094,310.8434 Q119.9344,310.8434 120.075,311.0027 Q120.2156,311.1527 120.2156,311.5184 L120.2156,312.3902 Q120.2156,312.7559 120.075,312.9152 Q119.9344,313.0746 119.7094,313.0746 Q119.5031,313.0746 119.3813,312.9527 Q119.2594,312.8402 119.1938,312.5309 Q119.1656,312.3152 119.0531,312.2027 Q118.8562,311.9777 118.4906,311.8465 Q118.125,311.7152 117.75,311.7152 Q117.2906,311.7152 116.9063,311.9121 Q116.5313,312.109 116.2312,312.559 Q115.9406,313.009 115.9406,313.6277 L115.9406,314.284 Q115.9406,315.0246 116.475,315.5215 Q117.0094,316.009 117.9656,316.009 Q118.5281,316.009 118.9219,315.859 Q119.1563,315.7652 119.4094,315.5027 Q119.5688,315.3434 119.6531,315.2965 Q119.7469,315.2496 119.8687,315.2496 Q120.0656,315.2496 120.2156,315.409 Q120.375,315.559 120.375,315.7652 Q120.375,315.9715 120.1687,316.2152 Q119.8687,316.5621 119.3906,316.759 Q118.7437,317.0309 117.9656,317.0309 Q117.0562,317.0309 116.3344,316.6559 Q115.7437,316.3559 115.3313,315.7184 Q114.9188,315.0715 114.9188,314.3027 L114.9188,313.609 Q114.9188,312.8121 115.2844,312.1277 Q115.6594,311.434 116.3156,311.0684 Q116.9719,310.6934 117.7125,310.6934 Q118.1531,310.6934 118.5375,310.7965 Q118.9312,310.8902 119.2594,311.1059 Z " fill="#000000"/><text fill="#000000" font-family="sans-serif" font-size="8.4" lengthAdjust="spacing" textLength="55.2" x="126" y="311.4727">&#171;value object&#187;</text><text fill="#000000" font-family="sans-serif" font-size="8.4" lengthAdjust="spacing" textLength="42.6" x="132.3" y="322.6453">Description</text><line style="stroke:#181818;stroke-width:0.3;" x1="109.2" x2="182.4" y1="327.7535" y2="327.7535"/><text fill="#000000" font-family="sans-serif" font-size="8.4" lengthAdjust="spacing" textLength="41.4" x="112.2" y="339.218">description</text><line style="stroke:#181818;stroke-width:0.3;" x1="109.2" x2="182.4" y1="343.7262" y2="343.7262"/></g><!--class Address1--><g id="elem_Address1"><rect codeLine="80" fill="#F1F1F1" height="93.8086" id="Address1" rx="1.5" ry="1.5" style="stroke:#181818;stroke-width:0.3;" width="74.4" x="13.2" y="277.2082"/><ellipse cx="22.2" cy="291.3809" fill="#ADD1B2" rx="6.6" ry="6.6" style="stroke:#181818;stroke-width:0.6;"/><path d="M23.8594,288.9059 Q23.9531,288.7746 24.0656,288.709 Q24.1781,288.6434 24.3094,288.6434 Q24.5344,288.6434 24.675,288.8027 Q24.8156,288.9527 24.8156,289.3184 L24.8156,290.1902 Q24.8156,290.5559 24.675,290.7152 Q24.5344,290.8746 24.3094,290.8746 Q24.1031,290.8746 23.9813,290.7527 Q23.8594,290.6402 23.7938,290.3309 Q23.7656,290.1152 23.6531,290.0027 Q23.4563,289.7777 23.0906,289.6465 Q22.725,289.5152 22.35,289.5152 Q21.8906,289.5152 21.5062,289.7121 Q21.1312,289.909 20.8313,290.359 Q20.5406,290.809 20.5406,291.4277 L20.5406,292.084 Q20.5406,292.8246 21.075,293.3215 Q21.6094,293.809 22.5656,293.809 Q23.1281,293.809 23.5219,293.659 Q23.7562,293.5652 24.0094,293.3027 Q24.1688,293.1434 24.2531,293.0965 Q24.3469,293.0496 24.4688,293.0496 Q24.6656,293.0496 24.8156,293.209 Q24.975,293.359 24.975,293.5652 Q24.975,293.7715 24.7688,294.0152 Q24.4688,294.3621 23.9906,294.559 Q23.3438,294.8309 22.5656,294.8309 Q21.6563,294.8309 20.9344,294.4559 Q20.3438,294.1559 19.9313,293.5184 Q19.5188,292.8715 19.5188,292.1027 L19.5188,291.409 Q19.5188,290.6121 19.8844,289.9277 Q20.2594,289.234 20.9156,288.8684 Q21.5719,288.4934 22.3125,288.4934 Q22.7531,288.4934 23.1375,288.5965 Q23.5313,288.6902 23.8594,288.9059 Z " fill="#000000"/><text fill="#000000" font-family="sans-serif" font-size="8.4" lengthAdjust="spacing" textLength="55.2" x="30.6" y="289.2727">&#171;value object&#187;</text><text fill="#000000" font-family="sans-serif" font-size="8.4" lengthAdjust="spacing" textLength="31.2" x="42.6" y="300.4453">Address</text><line style="stroke:#181818;stroke-width:0.3;" x1="13.8" x2="87" y1="305.5535" y2="305.5535"/><text fill="#000000" font-family="sans-serif" font-size="8.4" lengthAdjust="spacing" textLength="22.8" x="16.8" y="317.018">Street</text><text fill="#000000" font-family="sans-serif" font-size="8.4" lengthAdjust="spacing" textLength="14.4" x="16.8" y="328.1906">City</text><text fill="#000000" font-family="sans-serif" font-size="8.4" lengthAdjust="spacing" textLength="19.8" x="16.8" y="339.3633">State</text><text fill="#000000" font-family="sans-serif" font-size="8.4" lengthAdjust="spacing" textLength="30" x="16.8" y="350.5359">Country</text><text fill="#000000" font-family="sans-serif" font-size="8.4" lengthAdjust="spacing" textLength="30" x="16.8" y="361.7086">Zipcode</text><line style="stroke:#181818;stroke-width:0.3;" x1="13.8" x2="87" y1="366.2168" y2="366.2168"/></g><!--class JobReference--><g id="elem_JobReference"><rect codeLine="88" fill="#F1F1F1" height="49.118" id="JobReference" rx="1.5" ry="1.5" style="stroke:#181818;stroke-width:0.3;" width="74.4" x="515.4" y="528.6082"/><ellipse cx="524.4" cy="548.3672" fill="#ADD1B2" rx="6.6" ry="6.6" style="stroke:#181818;stroke-width:0.6;"/><path d="M526.0594,545.8922 Q526.1531,545.7609 526.2656,545.6953 Q526.3781,545.6297 526.5094,545.6297 Q526.7344,545.6297 526.875,545.7891 Q527.0156,545.9391 527.0156,546.3047 L527.0156,547.1766 Q527.0156,547.5422 526.875,547.7016 Q526.7344,547.8609 526.5094,547.8609 Q526.3031,547.8609 526.1813,547.7391 Q526.0594,547.6266 525.9938,547.3172 Q525.9656,547.1016 525.8531,546.9891 Q525.6563,546.7641 525.2906,546.6328 Q524.925,546.5016 524.55,546.5016 Q524.0906,546.5016 523.7063,546.6984 Q523.3313,546.8953 523.0313,547.3453 Q522.7406,547.7953 522.7406,548.4141 L522.7406,549.0703 Q522.7406,549.8109 523.275,550.3078 Q523.8094,550.7953 524.7656,550.7953 Q525.3281,550.7953 525.7219,550.6453 Q525.9563,550.5516 526.2094,550.2891 Q526.3688,550.1297 526.4531,550.0828 Q526.5469,550.0359 526.6687,550.0359 Q526.8656,550.0359 527.0156,550.1953 Q527.175,550.3453 527.175,550.5516 Q527.175,550.7578 526.9688,551.0016 Q526.6687,551.3484 526.1906,551.5453 Q525.5437,551.8172 524.7656,551.8172 Q523.8562,551.8172 523.1344,551.4422 Q522.5437,551.1422 522.1313,550.5047 Q521.7188,549.8578 521.7188,549.0891 L521.7188,548.3953 Q521.7188,547.5984 522.0844,546.9141 Q522.4594,546.2203 523.1156,545.8547 Q523.7719,545.4797 524.5125,545.4797 Q524.9531,545.4797 525.3375,545.5828 Q525.7312,545.6766 526.0594,545.8922 Z " fill="#000000"/><text fill="#000000" font-family="sans-serif" font-size="8.4" lengthAdjust="spacing" textLength="55.2" x="532.8" y="540.6727">&#171;value object&#187;</text><text fill="#000000" font-family="sans-serif" font-size="8.4" lengthAdjust="spacing" textLength="42" x="539.4" y="551.8453">&#171;identifier&#187;</text><text fill="#000000" font-family="sans-serif" font-size="8.4" lengthAdjust="spacing" textLength="52.8" x="534" y="563.018">JobReference</text><line style="stroke:#181818;stroke-width:0.3;" x1="516" x2="589.2" y1="568.1262" y2="568.1262"/><line style="stroke:#181818;stroke-width:0.3;" x1="516" x2="589.2" y1="572.9262" y2="572.9262"/></g><!--class JobApplication--><g id="elem_JobApplication"><rect codeLine="95" fill="#F1F1F1" height="49.118" id="JobApplication" rx="1.5" ry="1.5" style="stroke:#181818;stroke-width:0.3;" width="73.8" x="642.3" y="528.6082"/><ellipse cx="651.3" cy="548.3672" fill="#ADD1B2" rx="6.6" ry="6.6" style="stroke:#181818;stroke-width:0.6;"/><path d="M652.9594,545.8922 Q653.0531,545.7609 653.1656,545.6953 Q653.2781,545.6297 653.4094,545.6297 Q653.6344,545.6297 653.775,545.7891 Q653.9156,545.9391 653.9156,546.3047 L653.9156,547.1766 Q653.9156,547.5422 653.775,547.7016 Q653.6344,547.8609 653.4094,547.8609 Q653.2031,547.8609 653.0813,547.7391 Q652.9594,547.6266 652.8938,547.3172 Q652.8656,547.1016 652.7531,546.9891 Q652.5563,546.7641 652.1906,546.6328 Q651.825,546.5016 651.45,546.5016 Q650.9906,546.5016 650.6062,546.6984 Q650.2312,546.8953 649.9313,547.3453 Q649.6406,547.7953 649.6406,548.4141 L649.6406,549.0703 Q649.6406,549.8109 650.175,550.3078 Q650.7094,550.7953 651.6656,550.7953 Q652.2281,550.7953 652.6219,550.6453 Q652.8562,550.5516 653.1094,550.2891 Q653.2688,550.1297 653.3531,550.0828 Q653.4469,550.0359 653.5688,550.0359 Q653.7656,550.0359 653.9156,550.1953 Q654.075,550.3453 654.075,550.5516 Q654.075,550.7578 653.8688,551.0016 Q653.5688,551.3484 653.0906,551.5453 Q652.4438,551.8172 651.6656,551.8172 Q650.7563,551.8172 650.0344,551.4422 Q649.4438,551.1422 649.0313,550.5047 Q648.6188,549.8578 648.6188,549.0891 L648.6188,548.3953 Q648.6188,547.5984 648.9844,546.9141 Q649.3594,546.2203 650.0156,545.8547 Q650.6719,545.4797 651.4125,545.4797 Q651.8531,545.4797 652.2375,545.5828 Q652.6313,545.6766 652.9594,545.8922 Z " fill="#000000"/><text fill="#000000" font-family="sans-serif" font-size="8.4" lengthAdjust="spacing" textLength="24.6" x="674.7" y="540.6727">&#171;root&#187;</text><text fill="#000000" font-family="sans-serif" font-size="8.4" lengthAdjust="spacing" textLength="30" x="672" y="551.8453">&#171;entity&#187;</text><text fill="#000000" font-family="sans-serif" font-size="8.4" lengthAdjust="spacing" textLength="54.6" x="659.7" y="563.018">JobApplication</text><line style="stroke:#181818;stroke-width:0.3;" x1="642.9" x2="715.5" y1="568.1262" y2="568.1262"/><line style="stroke:#181818;stroke-width:0.3;" x1="642.9" x2="715.5" y1="572.9262" y2="572.9262"/></g><!--class Status--><g id="elem_Status"><rect codeLine="98" fill="#F1F1F1" height="37.9453" id="Status" rx="1.5" ry="1.5" style="stroke:#181818;stroke-width:0.3;" width="74.4" x="623.4" y="642.0082"/><ellipse cx="632.4" cy="656.1809" fill="#ADD1B2" rx="6.6" ry="6.6" style="stroke:#181818;stroke-width:0.6;"/><path d="M634.0594,653.7059 Q634.1531,653.5746 634.2656,653.509 Q634.3781,653.4434 634.5094,653.4434 Q634.7344,653.4434 634.875,653.6027 Q635.0156,653.7527 635.0156,654.1184 L635.0156,654.9902 Q635.0156,655.3559 634.875,655.5152 Q634.7344,655.6746 634.5094,655.6746 Q634.3031,655.6746 634.1813,655.5527 Q634.0594,655.4402 633.9938,655.1309 Q633.9656,654.9152 633.8531,654.8027 Q633.6563,654.5777 633.2906,654.4465 Q632.925,654.3152 632.55,654.3152 Q632.0906,654.3152 631.7063,654.5121 Q631.3313,654.709 631.0313,655.159 Q630.7406,655.609 630.7406,656.2277 L630.7406,656.884 Q630.7406,657.6246 631.275,658.1215 Q631.8094,658.609 632.7656,658.609 Q633.3281,658.609 633.7219,658.459 Q633.9563,658.3652 634.2094,658.1027 Q634.3688,657.9434 634.4531,657.8965 Q634.5469,657.8496 634.6687,657.8496 Q634.8656,657.8496 635.0156,658.009 Q635.175,658.159 635.175,658.3652 Q635.175,658.5715 634.9688,658.8152 Q634.6687,659.1621 634.1906,659.359 Q633.5437,659.6309 632.7656,659.6309 Q631.8562,659.6309 631.1344,659.2559 Q630.5437,658.9559 630.1313,658.3184 Q629.7188,657.6715 629.7188,656.9027 L629.7188,656.209 Q629.7188,655.4121 630.0844,654.7277 Q630.4594,654.034 631.1156,653.6684 Q631.7719,653.2934 632.5125,653.2934 Q632.9531,653.2934 633.3375,653.3965 Q633.7312,653.4902 634.0594,653.7059 Z " fill="#000000"/><text fill="#000000" font-family="sans-serif" font-size="8.4" lengthAdjust="spacing" textLength="55.2" x="640.8" y="654.0727">&#171;value object&#187;</text><text fill="#000000" font-family="sans-serif" font-size="8.4" lengthAdjust="spacing" textLength="24" x="656.4" y="665.2453">Status</text><line style="stroke:#181818;stroke-width:0.3;" x1="624" x2="697.2" y1="670.3535" y2="670.3535"/><line style="stroke:#181818;stroke-width:0.3;" x1="624" x2="697.2" y1="675.1535" y2="675.1535"/></g><!--class Curriculum--><g id="elem_Curriculum"><rect codeLine="103" fill="#F1F1F1" height="37.9453" id="Curriculum" rx="1.5" ry="1.5" style="stroke:#181818;stroke-width:0.3;" width="74.4" x="718.8" y="642.0082"/><ellipse cx="727.8" cy="656.1809" fill="#ADD1B2" rx="6.6" ry="6.6" style="stroke:#181818;stroke-width:0.6;"/><path d="M729.4594,653.7059 Q729.5531,653.5746 729.6656,653.509 Q729.7781,653.4434 729.9094,653.4434 Q730.1344,653.4434 730.275,653.6027 Q730.4156,653.7527 730.4156,654.1184 L730.4156,654.9902 Q730.4156,655.3559 730.275,655.5152 Q730.1344,655.6746 729.9094,655.6746 Q729.7031,655.6746 729.5813,655.5527 Q729.4594,655.4402 729.3938,655.1309 Q729.3656,654.9152 729.2531,654.8027 Q729.0563,654.5777 728.6906,654.4465 Q728.325,654.3152 727.95,654.3152 Q727.4906,654.3152 727.1062,654.5121 Q726.7312,654.709 726.4313,655.159 Q726.1406,655.609 726.1406,656.2277 L726.1406,656.884 Q726.1406,657.6246 726.675,658.1215 Q727.2094,658.609 728.1656,658.609 Q728.7281,658.609 729.1219,658.459 Q729.3562,658.3652 729.6094,658.1027 Q729.7688,657.9434 729.8531,657.8965 Q729.9469,657.8496 730.0688,657.8496 Q730.2656,657.8496 730.4156,658.009 Q730.575,658.159 730.575,658.3652 Q730.575,658.5715 730.3688,658.8152 Q730.0688,659.1621 729.5906,659.359 Q728.9438,659.6309 728.1656,659.6309 Q727.2563,659.6309 726.5344,659.2559 Q725.9438,658.9559 725.5313,658.3184 Q725.1188,657.6715 725.1188,656.9027 L725.1188,656.209 Q725.1188,655.4121 725.4844,654.7277 Q725.8594,654.034 726.5156,653.6684 Q727.1719,653.2934 727.9125,653.2934 Q728.3531,653.2934 728.7375,653.3965 Q729.1313,653.4902 729.4594,653.7059 Z " fill="#000000"/><text fill="#000000" font-family="sans-serif" font-size="8.4" lengthAdjust="spacing" textLength="55.2" x="736.2" y="654.0727">&#171;value object&#187;</text><text fill="#000000" font-family="sans-serif" font-size="8.4" lengthAdjust="spacing" textLength="40.8" x="743.4" y="665.2453">Curriculum</text><line style="stroke:#181818;stroke-width:0.3;" x1="719.4" x2="792.6" y1="670.3535" y2="670.3535"/><line style="stroke:#181818;stroke-width:0.3;" x1="719.4" x2="792.6" y1="675.1535" y2="675.1535"/></g><!--class Grade2--><g id="elem_Grade2"><rect codeLine="107" fill="#F1F1F1" height="49.118" id="Grade2" rx="1.5" ry="1.5" style="stroke:#181818;stroke-width:0.3;" width="74.4" x="814.2" y="636.3082"/><ellipse cx="823.2" cy="656.0672" fill="#ADD1B2" rx="6.6" ry="6.6" style="stroke:#181818;stroke-width:0.6;"/><path d="M824.8594,653.5922 Q824.9531,653.4609 825.0656,653.3953 Q825.1781,653.3297 825.3094,653.3297 Q825.5344,653.3297 825.675,653.4891 Q825.8156,653.6391 825.8156,654.0047 L825.8156,654.8766 Q825.8156,655.2422 825.675,655.4016 Q825.5344,655.5609 825.3094,655.5609 Q825.1031,655.5609 824.9812,655.4391 Q824.8594,655.3266 824.7937,655.0172 Q824.7656,654.8016 824.6531,654.6891 Q824.4563,654.4641 824.0906,654.3328 Q823.725,654.2016 823.35,654.2016 Q822.8906,654.2016 822.5063,654.3984 Q822.1313,654.5953 821.8313,655.0453 Q821.5406,655.4953 821.5406,656.1141 L821.5406,656.7703 Q821.5406,657.5109 822.075,658.0078 Q822.6094,658.4953 823.5656,658.4953 Q824.1281,658.4953 824.5219,658.3453 Q824.7563,658.2516 825.0094,657.9891 Q825.1687,657.8297 825.2531,657.7828 Q825.3469,657.7359 825.4688,657.7359 Q825.6656,657.7359 825.8156,657.8953 Q825.975,658.0453 825.975,658.2516 Q825.975,658.4578 825.7688,658.7016 Q825.4688,659.0484 824.9906,659.2453 Q824.3438,659.5172 823.5656,659.5172 Q822.6563,659.5172 821.9344,659.1422 Q821.3438,658.8422 820.9313,658.2047 Q820.5188,657.5578 820.5188,656.7891 L820.5188,656.0953 Q820.5188,655.2984 820.8844,654.6141 Q821.2594,653.9203 821.9156,653.5547 Q822.5719,653.1797 823.3125,653.1797 Q823.7531,653.1797 824.1375,653.2828 Q824.5313,653.3766 824.8594,653.5922 Z " fill="#000000"/><text fill="#000000" font-family="sans-serif" font-size="8.4" lengthAdjust="spacing" textLength="55.2" x="831.6" y="648.3727">&#171;value object&#187;</text><text fill="#000000" font-family="sans-serif" font-size="8.4" lengthAdjust="spacing" textLength="48" x="835.2" y="659.5453">&#171;calculated&#187;</text><text fill="#000000" font-family="sans-serif" font-size="8.4" lengthAdjust="spacing" textLength="24" x="847.2" y="670.718">Grade</text><line style="stroke:#181818;stroke-width:0.3;" x1="814.8" x2="888" y1="675.8262" y2="675.8262"/><line style="stroke:#181818;stroke-width:0.3;" x1="814.8" x2="888" y1="680.6262" y2="680.6262"/></g><!--link JobApplication to Curriculum--><g id="link_JobApplication_Curriculum"><path codeLine="112" d="M696.63,577.9762 C710.61,597.3682 727.8421,621.2624 740.6041,638.9564 " fill="none" id="JobApplication-to-Curriculum" style="stroke:#181818;stroke-width:0.6;"/><polygon fill="#181818" points="742.71,641.8762,741.4976,636.0926,740.9551,639.4431,737.6046,638.9005,742.71,641.8762" style="stroke:#181818;stroke-width:0.6;"/><text fill="#000000" font-family="sans-serif" font-size="7.8" lengthAdjust="spacing" textLength="28.8" x="718.2" y="604.8252">includes</text><text fill="#000000" font-family="sans-serif" font-size="7.8" lengthAdjust="spacing" textLength="4.2" x="694.7774" y="590.9864">1</text><text fill="#000000" font-family="sans-serif" font-size="7.8" lengthAdjust="spacing" textLength="4.2" x="735.3358" y="635.119">1</text></g><!--link JobApplication to Grade2--><g id="link_JobApplication_Grade2"><path codeLine="113" d="M716.196,573.4762 C741.39,587.2342 775.26,606.4402 804,625.2082 C809.232,628.6222 811.7368,630.2955 816.9748,634.0755 " fill="none" id="JobApplication-to-Grade2" style="stroke:#181818;stroke-width:0.6;"/><polygon fill="#181818" points="819.894,636.1822,816.9196,631.076,817.4613,634.4266,814.1107,634.9684,819.894,636.1822" style="stroke:#181818;stroke-width:0.6;"/><text fill="#000000" font-family="sans-serif" font-size="7.8" lengthAdjust="spacing" textLength="28.8" x="774" y="604.8252">includes</text><text fill="#000000" font-family="sans-serif" font-size="7.8" lengthAdjust="spacing" textLength="13.2" x="800.3827" y="629.4805">0..1</text></g><!--link JobApplication to Status--><g id="link_JobApplication_Status"><path codeLine="114" d="M674.982,577.9762 C671.592,597.3682 667.5241,620.6357 664.4401,638.3297 " fill="none" id="JobApplication-to-Status" style="stroke:#181818;stroke-width:0.6;"/><polygon fill="#181818" points="663.822,641.8762,667.1136,636.9685,664.3371,638.9208,662.3849,636.1443,663.822,641.8762" style="stroke:#181818;stroke-width:0.6;"/><text fill="#000000" font-family="sans-serif" font-size="7.8" lengthAdjust="spacing" textLength="12.6" x="672" y="604.8252">has</text><text fill="#000000" font-family="sans-serif" font-size="7.8" lengthAdjust="spacing" textLength="4.2" x="669.8146" y="590.9864">1</text><text fill="#000000" font-family="sans-serif" font-size="7.8" lengthAdjust="spacing" textLength="4.2" x="659.8534" y="635.119">1</text></g><!--reverse link JobOpening to JobApplication--><g id="link_JobOpening_JobApplication"><path codeLine="116" d="M397.9437,448.4702 C444.7497,455.7062 529.512,471.6922 599.4,501.6082 C615.954,508.6942 632.946,519.0502 646.974,528.5782 " fill="none" id="JobOpening-backto-JobApplication" style="stroke:#181818;stroke-width:0.6;"/><polygon fill="#181818" points="394.386,447.9202,399.3559,451.117,397.3508,448.3785,400.0893,446.3734,394.386,447.9202" style="stroke:#181818;stroke-width:0.6;"/><text fill="#000000" font-family="sans-serif" font-size="7.8" lengthAdjust="spacing" textLength="28.2" x="587.4" y="494.4252">refers to</text><text fill="#000000" font-family="sans-serif" font-size="7.8" lengthAdjust="spacing" textLength="4.2" x="399.0469" y="446.1561">1</text><text fill="#000000" font-family="sans-serif" font-size="7.8" lengthAdjust="spacing" textLength="3" x="638.3881" y="521.8924">*</text></g><!--link Customer to EMail1--><g id="link_Customer_EMail1"><path codeLine="119" d="M810,216.1102 C810,241.7422 810,278.1322 810,301.3702 " fill="none" id="Customer-to-EMail1" style="stroke:#181818;stroke-width:0.6;"/><polygon fill="#181818" points="810,304.9702,812.4,299.5702,810,301.9702,807.6,299.5702,810,304.9702" style="stroke:#181818;stroke-width:0.6;"/><text fill="#000000" font-family="sans-serif" font-size="7.8" lengthAdjust="spacing" textLength="23.4" x="810.6" y="243.0252">has an</text><text fill="#000000" font-family="sans-serif" font-size="7.8" lengthAdjust="spacing" textLength="4.2" x="805.4784" y="229.1103">1</text><text fill="#000000" font-family="sans-serif" font-size="7.8" lengthAdjust="spacing" textLength="4.2" x="805.3669" y="298.2118">1</text></g><!--reverse link Address2 to Customer--><g id="link_Address2_Customer"><path codeLine="121" d="M810,123.1162 C810,139.2502 810,153.0982 810,166.6942 " fill="none" id="Address2-backto-Customer" style="stroke:#181818;stroke-width:0.6;"/><polygon fill="#181818" points="810,119.5162,807.6,124.9162,810,122.5162,812.4,124.9162,810,119.5162" style="stroke:#181818;stroke-width:0.6;"/><text fill="#000000" font-family="sans-serif" font-size="7.8" lengthAdjust="spacing" textLength="23.4" x="810.6" y="146.4252">has an</text></g><!--link Customer to Code--><g id="link_Customer_Code"><path codeLine="123" d="M830.958,216.1462 C839.61,226.4302 849.564,238.6882 858,250.2082 C871.242,268.2862 883.1242,286.8629 892.3882,301.9049 " fill="none" id="Customer-to-Code" style="stroke:#181818;stroke-width:0.6;"/><polygon fill="#181818" points="894.276,304.9702,893.4878,299.1137,892.7028,302.4158,889.4007,301.6308,894.276,304.9702" style="stroke:#181818;stroke-width:0.6;"/><text fill="#000000" font-family="sans-serif" font-size="7.8" lengthAdjust="spacing" textLength="41.4" x="854.4" y="243.0252">identified by</text></g><!--link Customer to Name1--><g id="link_Customer_Name1"><path codeLine="124" d="M787.926,216.1282 C779.364,226.2022 769.89,238.3222 762.6,250.2082 C753.264,265.4302 746.4708,280.4692 740.6868,295.0072 " fill="none" id="Customer-to-Name1" style="stroke:#181818;stroke-width:0.6;"/><polygon fill="#181818" points="739.356,298.3522,743.5822,294.2219,740.465,295.5647,739.1222,292.4475,739.356,298.3522" style="stroke:#181818;stroke-width:0.6;"/><text fill="#000000" font-family="sans-serif" font-size="7.8" lengthAdjust="spacing" textLength="12.6" x="773.4" y="243.0252">has</text></g><!--link Customer to SystemUser--><g id="link_Customer_SystemUser"><path codeLine="125" d="M781.914,199.7662 C756.57,208.1722 720.048,224.0182 698.4,250.2082 C682.848,269.0242 671.1163,290.9758 663.6943,306.3598 " fill="none" id="Customer-to-SystemUser" style="stroke:#181818;stroke-width:0.6;"/><polygon fill="#181818" points="662.13,309.6022,666.638,305.7815,663.4336,306.9002,662.3148,303.6958,662.13,309.6022" style="stroke:#181818;stroke-width:0.6;"/><text fill="#000000" font-family="sans-serif" font-size="7.8" lengthAdjust="spacing" textLength="42.6" x="712.8" y="243.0252">managed by</text></g><!--reverse link Mode to JobOpening--><g id="link_Mode_JobOpening"><path codeLine="126" d="M435.815,351.5064 C423.935,366.3984 410.574,383.0602 396.6,400.2082 C391.872,406.0042 386.748,412.2262 381.924,418.0522 " fill="none" id="Mode-backto-JobOpening" style="stroke:#181818;stroke-width:0.6;"/><polygon fill="#181818" points="438.06,348.6922,432.8163,351.4169,436.1891,351.0374,436.5686,354.4102,438.06,348.6922" style="stroke:#181818;stroke-width:0.6;"/><text fill="#000000" font-family="sans-serif" font-size="7.8" lengthAdjust="spacing" textLength="28.8" x="405" y="397.8252">includes</text><text fill="#000000" font-family="sans-serif" font-size="7.8" lengthAdjust="spacing" textLength="4.2" x="430.6076" y="361.6895">1</text><text fill="#000000" font-family="sans-serif" font-size="7.8" lengthAdjust="spacing" textLength="4.2" x="380.5966" y="411.5313">1</text></g><!--reverse link JobFunction to JobOpening--><g id="link_JobFunction_JobOpening"><path codeLine="127" d="M361.8,352.2922 C361.8,372.5842 361.8,397.8742 361.8,418.1602 " fill="none" id="JobFunction-backto-JobOpening" style="stroke:#181818;stroke-width:0.6;"/><polygon fill="#181818" points="361.8,348.6922,359.4,354.0922,361.8,351.6922,364.2,354.0922,361.8,348.6922" style="stroke:#181818;stroke-width:0.6;"/><text fill="#000000" font-family="sans-serif" font-size="7.8" lengthAdjust="spacing" textLength="28.8" x="362.4" y="397.8252">includes</text><text fill="#000000" font-family="sans-serif" font-size="7.8" lengthAdjust="spacing" textLength="4.2" x="357.2784" y="361.6895">1</text><text fill="#000000" font-family="sans-serif" font-size="7.8" lengthAdjust="spacing" textLength="4.2" x="357.2522" y="411.4714">1</text></g><!--reverse link NumberOfVacancies to JobOpening--><g id="link_NumberOfVacancies_JobOpening"><path codeLine="128" d="M273.1071,345.6317 C291.6771,365.8517 319.164,395.7862 339.618,418.0522 " fill="none" id="NumberOfVacancies-backto-JobOpening" style="stroke:#181818;stroke-width:0.6;"/><polygon fill="#181818" points="270.672,342.9802,272.557,348.5808,272.7013,345.1898,276.0923,345.334,270.672,342.9802" style="stroke:#181818;stroke-width:0.6;"/><text fill="#000000" font-family="sans-serif" font-size="7.8" lengthAdjust="spacing" textLength="28.8" x="321" y="397.8252">includes</text><text fill="#000000" font-family="sans-serif" font-size="7.8" lengthAdjust="spacing" textLength="4.2" x="269.5187" y="356.3651">1</text><text fill="#000000" font-family="sans-serif" font-size="7.8" lengthAdjust="spacing" textLength="4.2" x="331.5481" y="411.5313">1</text></g><!--reverse link Description to JobOpening--><g id="link_Description_JobOpening"><path codeLine="129" d="M170.0684,351.3129 C177.8384,359.0289 184.44,364.6222 193.8,370.8082 C237.222,399.5122 294.084,420.7762 329.262,432.3322 " fill="none" id="Description-backto-JobOpening" style="stroke:#181818;stroke-width:0.6;"/><polygon fill="#181818" points="167.514,348.7762,169.6545,354.2842,169.6427,350.8901,173.0368,350.8783,167.514,348.7762" style="stroke:#181818;stroke-width:0.6;"/><text fill="#000000" font-family="sans-serif" font-size="7.8" lengthAdjust="spacing" textLength="28.8" x="246.6" y="397.8252">includes</text><text fill="#000000" font-family="sans-serif" font-size="7.8" lengthAdjust="spacing" textLength="4.2" x="166.3174" y="361.7864">1</text><text fill="#000000" font-family="sans-serif" font-size="7.8" lengthAdjust="spacing" textLength="4.2" x="320.4075" y="428.4734">1</text></g><!--reverse link Address1 to JobOpening--><g id="link_Address1_JobOpening"><path codeLine="130" d="M90.5038,366.0599 C93.7918,368.5979 94.344,368.7562 97.8,370.8082 C173.226,415.5862 277.284,432.9202 329.364,439.1002 " fill="none" id="Address1-backto-JobOpening" style="stroke:#181818;stroke-width:0.6;"/><polygon fill="#181818" points="87.654,363.8602,90.4622,369.0596,90.0288,365.6933,93.3951,365.26,87.654,363.8602" style="stroke:#181818;stroke-width:0.6;"/><text fill="#000000" font-family="sans-serif" font-size="7.8" lengthAdjust="spacing" textLength="28.8" x="158.4" y="397.8252">includes</text><text fill="#000000" font-family="sans-serif" font-size="7.8" lengthAdjust="spacing" textLength="4.2" x="92.4503" y="366.3105">1</text><text fill="#000000" font-family="sans-serif" font-size="7.8" lengthAdjust="spacing" textLength="4.2" x="320.3074" y="436.0966">1</text></g><!--reverse link ContractType to JobOpening--><g id="link_ContractType_JobOpening"><path codeLine="131" d="M533.7184,345.7183 C525.0784,354.7843 516.444,362.8282 505.2,370.8082 C469.932,395.8402 424.602,416.8042 394.446,429.4102 " fill="none" id="ContractType-backto-JobOpening" style="stroke:#181818;stroke-width:0.6;"/><polygon fill="#181818" points="536.202,343.1122,530.7392,345.3656,534.1323,345.2839,534.214,348.6771,536.202,343.1122" style="stroke:#181818;stroke-width:0.6;"/><text fill="#000000" font-family="sans-serif" font-size="7.8" lengthAdjust="spacing" textLength="28.8" x="475.8" y="397.8252">includes</text><text fill="#000000" font-family="sans-serif" font-size="7.8" lengthAdjust="spacing" textLength="4.2" x="528.3602" y="356.2972">1</text><text fill="#000000" font-family="sans-serif" font-size="7.8" lengthAdjust="spacing" textLength="4.2" x="398.8978" y="425.2736">1</text></g><!--link JobOpening to JobReference--><g id="link_JobOpening_JobReference"><path codeLine="132" d="M394.26,452.1322 C424.698,461.3002 470.586,477.7342 505.2,501.6082 C515.85,508.9522 523.515,516.3506 531.579,525.6326 " fill="none" id="JobOpening-to-JobReference" style="stroke:#181818;stroke-width:0.6;"/><polygon fill="#181818" points="533.94,528.3502,532.2102,522.6997,531.9725,526.0855,528.5867,525.8478,533.94,528.3502" style="stroke:#181818;stroke-width:0.6;"/><text fill="#000000" font-family="sans-serif" font-size="7.8" lengthAdjust="spacing" textLength="28.8" x="495" y="494.4252">includes</text><text fill="#000000" font-family="sans-serif" font-size="7.8" lengthAdjust="spacing" textLength="4.2" x="398.904" y="462.5047">1</text><text fill="#000000" font-family="sans-serif" font-size="7.8" lengthAdjust="spacing" textLength="4.2" x="526.4314" y="521.8131">1</text></g><!--reverse link Customer to JobOpening--><g id="link_Customer_JobOpening"><path codeLine="133" d="M841.7147,194.8278 C875.6207,199.3278 927.666,211.9882 953.4,250.2082 C983.34,294.6682 988.956,330.6982 953.4,370.8082 C915.972,413.0242 512.832,435.1342 394.362,440.7562 " fill="none" id="Customer-backto-JobOpening" style="stroke:#181818;stroke-width:0.6;"/><polygon fill="#181818" points="838.146,194.3542,843.1833,197.4438,841.1199,194.7489,843.8148,192.6855,838.146,194.3542" style="stroke:#181818;stroke-width:0.6;"/><text fill="#000000" font-family="sans-serif" font-size="7.8" lengthAdjust="spacing" textLength="28.8" x="978.6" y="327.3252">includes</text><text fill="#000000" font-family="sans-serif" font-size="7.8" lengthAdjust="spacing" textLength="4.2" x="842.7774" y="192.261">1</text><text fill="#000000" font-family="sans-serif" font-size="7.8" lengthAdjust="spacing" textLength="4.2" x="399.0197" y="438.0294">1</text></g><!--link JobOpening to SetupStatus--><g id="link_JobOpening_SetupStatus"><path codeLine="134" d="M357.006,467.6422 C353.028,487.7482 348.1584,512.3806 344.5404,530.6746 " fill="none" id="JobOpening-to-SetupStatus" style="stroke:#181818;stroke-width:0.6;"/><polygon fill="#181818" points="343.842,534.2062,347.2441,529.3744,344.424,531.2632,342.5353,528.4432,343.842,534.2062" style="stroke:#181818;stroke-width:0.6;"/></g><!--link JobOpening to RequirementsStatus--><g id="link_JobOpening_RequirementsStatus"><path codeLine="135" d="M380.574,467.6422 C396.15,487.7482 415.7673,513.0663 429.9393,531.3603 " fill="none" id="JobOpening-to-RequirementsStatus" style="stroke:#181818;stroke-width:0.6;"/><polygon fill="#181818" points="432.144,534.2062,430.7343,528.4675,430.3068,531.8346,426.9397,531.4071,432.144,534.2062" style="stroke:#181818;stroke-width:0.6;"/></g><!--link JobOpening to InterviewPhaseStatus--><g id="link_JobOpening_InterviewPhaseStatus"><path codeLine="136" d="M333.066,467.5102 C309.102,487.6042 278.2184,513.5089 256.3544,531.8449 " fill="none" id="JobOpening-to-InterviewPhaseStatus" style="stroke:#181818;stroke-width:0.6;"/><polygon fill="#181818" points="253.596,534.1582,259.2758,532.5272,255.8947,532.2305,256.1914,528.8493,253.596,534.1582" style="stroke:#181818;stroke-width:0.6;"/></g><!--reverse link RecruitmentProcess to Phase--><g id="link_RecruitmentProcess_Phase"><path codeLine="137" d="M112.8,585.1762 C112.8,599.1082 112.8,609.6682 112.8,625.1242 " fill="none" id="RecruitmentProcess-backto-Phase" style="stroke:#181818;stroke-width:0.6;"/><polygon fill="#181818" points="112.8,577.9762,110.4,581.5762,112.8,585.1762,115.2,581.5762,112.8,577.9762" style="stroke:#181818;stroke-width:0.6;"/><text fill="#000000" font-family="sans-serif" font-size="7.8" lengthAdjust="spacing" textLength="21.6" x="113.4" y="604.8252">part of</text><text fill="#000000" font-family="sans-serif" font-size="7.8" lengthAdjust="spacing" textLength="4.2" x="108.2784" y="590.9864">1</text><text fill="#000000" font-family="sans-serif" font-size="7.8" lengthAdjust="spacing" textLength="13.2" x="98.7956" y="618.3652">4..5</text></g><!--link JobOpening to RecruitmentProcess--><g id="link_JobOpening_RecruitmentProcess"><path codeLine="138" d="M329.262,448.9702 C289.902,456.6622 222.522,472.9402 171,501.6082 C158.202,508.7302 148.3737,516.565 138.2937,526.051 " fill="none" id="JobOpening-to-RecruitmentProcess" style="stroke:#181818;stroke-width:0.6;"/><polygon fill="#181818" points="135.672,528.5182,141.2493,526.5652,137.8567,526.4622,137.9597,523.0697,135.672,528.5182" style="stroke:#181818;stroke-width:0.6;"/><text fill="#000000" font-family="sans-serif" font-size="7.8" lengthAdjust="spacing" textLength="28.8" x="200.4" y="494.4252">includes</text><text fill="#000000" font-family="sans-serif" font-size="7.8" lengthAdjust="spacing" textLength="4.2" x="320.4075" y="447.3471">1</text><text fill="#000000" font-family="sans-serif" font-size="7.8" lengthAdjust="spacing" textLength="4.2" x="134.9124" y="521.8225">1</text></g><!--SRC=[bLR9Rjim4BthAmXT2WImNGVjnIWA14cw0LcGj3qKkT3Ks64hKIgN58RWB_8dzEOlAqc98YLPbgk3JGvd7cSVldgMiX2BsQn8CPCgIwSapsOanK9C4ehN76UH_WfCVk4reFXI2PbdmD75UirXZIN4POJqPqLGlDy1arHkzd-Vs7x7yroQbPEA4HR8RSh82cwZg99zt0W9sJTXJhPH27gBCx2YPZ57rONcMr4kf24s52tW2TkAtAZsWbC5A5_-16BLkfxSO9fQv6kpcjV8zUt3WXT9ma48ArclpxrMvdkK742sI9VQBHqUxRusIwwOv6sk7xGWUG8dQdQfMIilwuKtPnk4y4k-H7S5CChMhIWEXV4125TKPffoptFYxEwJlGS-OV6PIU0l5FxSFsFXmj5HtjzXcIoiNGM-J40GJWj9S-Q9IrXJTjNoteeod5OaSy-WWzfwcH2eofv31sMGHWsYIsglFtfYsgcrJosOtsg_XiOFwlK8KXM1Ei4UbISXFC1lHJcOW8W02FNf3TvuDkbqn4H-tHGkgpoXNIo363Sk8szyHXw8wnYCzkW7nOZXTnvs-oFPCeQARbMs17wt-eu9PeH2xRCUkJmjYbV-VWiKx8zh6Vrllvbxl4wlQVMPTe_fzfUmjuoPjj_Hn2JyYWAl0_80A-302BY8D8GcmxPHk_DS54LA2JQc3u-GVeNPwm9PTs50QY9qlCo22ZjK2yEbe3YdHAKgguUOsvQdXN2_8pZL0jhSnEm_SbpNXLsTbxMpEdREuydalVuDBaGBH1b9bSwY3ZVIl2X-FPrg_Whr2A-7hhlC0kd6PnLmqq4VlfjCuhEuushDoasa1PAvLhbv4tZ8QfnMa0YpA79J4cd0vWKGd3SaOuAPNKPpbsy9McxQ7DL3eDAuTU0V4VeqmqpddPKspSVeP-_N_u6LRHUvfZBEtEiHuo91EnXdTeK-oXWsPGTh_WPj3E9RnokitHPq45gDUXgiZOCVNzsZ_ZpgSXmQnL7_lM5jFTDAlPbEtyRLom4j2imbobSTEwlIcCS7K1REXdy0]--></g></svg>