<?xml version="1.0" encoding="us-ascii" standalone="no"?><svg xmlns="http://www.w3.org/2000/svg" xmlns:xlink="http://www.w3.org/1999/xlink" contentStyleType="text/css" height="949px" preserveAspectRatio="none" style="width:1488px;height:949px;background:#FFFFFF;" version="1.1" viewBox="0 0 1488 949" width="1488.5px" zoomAndPan="magnify"><defs/><g><text fill="#000000" font-family="sans-serif" font-size="18.2" font-weight="bold" lengthAdjust="spacing" textLength="594.1" x="445.9" y="39.1396">"US 3002 - List all my job openings in the App" Sequence Diagram</text><rect fill="#FFFFFF" height="543.1182" style="stroke:#181818;stroke-width:1.3;" width="13" x="170.3" y="242.3789"/><rect fill="#FFFFFF" height="122.035" style="stroke:#181818;stroke-width:1.3;" width="13" x="574.6" y="370.9139"/><rect fill="#FFFFFF" height="122.035" style="stroke:#181818;stroke-width:1.3;" width="13" x="574.6" y="533.6271"/><rect fill="#FFFFFF" height="40.6783" style="stroke:#181818;stroke-width:1.3;" width="13" x="820.95" y="289.5572"/><rect fill="#FFFFFF" height="40.6783" style="stroke:#181818;stroke-width:1.3;" width="13" x="1025.05" y="411.5922"/><rect fill="#FFFFFF" height="40.6783" style="stroke:#181818;stroke-width:1.3;" width="13" x="1238.9" y="574.3055"/><rect fill="#FFFFFF" height="40.6783" style="stroke:#181818;stroke-width:1.3;" width="13" x="1415.7" y="696.3404"/><line style="stroke:#181818;stroke-width:0.65;stroke-dasharray:5.0,5.0;" x1="176.15" x2="176.15" y1="148.0223" y2="858.6754"/><line style="stroke:#181818;stroke-width:0.65;stroke-dasharray:5.0,5.0;" x1="581.1" x2="581.1" y1="148.0223" y2="858.6754"/><line style="stroke:#181818;stroke-width:0.65;stroke-dasharray:5.0,5.0;" x1="826.8" x2="826.8" y1="148.0223" y2="858.6754"/><line style="stroke:#181818;stroke-width:0.65;stroke-dasharray:5.0,5.0;" x1="1030.9" x2="1030.9" y1="148.0223" y2="858.6754"/><line style="stroke:#181818;stroke-width:0.65;stroke-dasharray:5.0,5.0;" x1="1245.4" x2="1245.4" y1="148.0223" y2="858.6754"/><line style="stroke:#181818;stroke-width:0.65;stroke-dasharray:5.0,5.0;" x1="1422.2" x2="1422.2" y1="148.0223" y2="858.6754"/><rect fill="#E3E3E3" height="66.6148" rx="3.25" ry="3.25" style="stroke:#181818;stroke-width:0.65;" width="133.9" x="109.85" y="80.1074"/><text fill="#000000" font-family="sans-serif" font-size="18.2" font-style="italic" lengthAdjust="spacing" textLength="80.6" x="136.5" y="108.8471">&#171;System&#187;</text><text fill="#000000" font-family="sans-serif" font-size="18.2" lengthAdjust="spacing" textLength="115.7" x="118.95" y="133.0545">:ClientHandler</text><rect fill="#E3E3E3" height="66.6148" rx="3.25" ry="3.25" style="stroke:#181818;stroke-width:0.65;" width="133.9" x="109.85" y="857.3754"/><text fill="#000000" font-family="sans-serif" font-size="18.2" font-style="italic" lengthAdjust="spacing" textLength="80.6" x="136.5" y="886.115">&#171;System&#187;</text><text fill="#000000" font-family="sans-serif" font-size="18.2" lengthAdjust="spacing" textLength="115.7" x="118.95" y="910.3225">:ClientHandler</text><text fill="#000000" font-family="sans-serif" font-size="18.2" font-style="italic" lengthAdjust="spacing" textLength="109.2" x="522.6" y="119.2471">&#171;application&#187;</text><text fill="#000000" font-family="sans-serif" font-size="18.2" lengthAdjust="spacing" textLength="267.8" x="443.3" y="143.4545">:ListJobOpeningServerController</text><ellipse cx="581.1" cy="78.8074" fill="#E3E3E3" rx="15.6" ry="15.6" style="stroke:#181818;stroke-width:0.65;"/><polygon fill="#181818" points="575.9,63.2074,583.7,56.7074,581.1,63.2074,583.7,69.7074,575.9,63.2074" style="stroke:#181818;stroke-width:1.3;"/><text fill="#000000" font-family="sans-serif" font-size="18.2" font-style="italic" lengthAdjust="spacing" textLength="109.2" x="522.6" y="877.015">&#171;application&#187;</text><text fill="#000000" font-family="sans-serif" font-size="18.2" lengthAdjust="spacing" textLength="267.8" x="443.3" y="901.2225">:ListJobOpeningServerController</text><ellipse cx="581.1" cy="926.5902" fill="#E3E3E3" rx="15.6" ry="15.6" style="stroke:#181818;stroke-width:0.65;"/><polygon fill="#181818" points="575.9,910.9902,583.7,904.4902,581.1,910.9902,583.7,917.4902,575.9,910.9902" style="stroke:#181818;stroke-width:1.3;"/><rect fill="#E3E3E3" height="66.6148" rx="3.25" ry="3.25" style="stroke:#181818;stroke-width:0.65;" width="191.1" x="731.9" y="80.1074"/><text fill="#000000" font-family="sans-serif" font-size="18.2" font-style="italic" lengthAdjust="spacing" textLength="78" x="788.45" y="108.8471">&#171;service&#187;</text><text fill="#000000" font-family="sans-serif" font-size="18.2" lengthAdjust="spacing" textLength="172.9" x="741" y="133.0545">:AuthorizationService</text><rect fill="#E3E3E3" height="66.6148" rx="3.25" ry="3.25" style="stroke:#181818;stroke-width:0.65;" width="191.1" x="731.9" y="857.3754"/><text fill="#000000" font-family="sans-serif" font-size="18.2" font-style="italic" lengthAdjust="spacing" textLength="78" x="788.45" y="886.115">&#171;service&#187;</text><text fill="#000000" font-family="sans-serif" font-size="18.2" lengthAdjust="spacing" textLength="172.9" x="741" y="910.3225">:AuthorizationService</text><rect fill="#E3E3E3" height="66.6148" rx="3.25" ry="3.25" style="stroke:#181818;stroke-width:0.65;" width="191.1" x="936" y="80.1074"/><text fill="#000000" font-family="sans-serif" font-size="18.2" font-style="italic" lengthAdjust="spacing" textLength="102.7" x="980.2" y="108.8471">&#171;repository&#187;</text><text fill="#000000" font-family="sans-serif" font-size="18.2" lengthAdjust="spacing" textLength="172.9" x="945.1" y="133.0545">:CustomerRepository</text><rect fill="#E3E3E3" height="66.6148" rx="3.25" ry="3.25" style="stroke:#181818;stroke-width:0.65;" width="191.1" x="936" y="857.3754"/><text fill="#000000" font-family="sans-serif" font-size="18.2" font-style="italic" lengthAdjust="spacing" textLength="102.7" x="980.2" y="886.115">&#171;repository&#187;</text><text fill="#000000" font-family="sans-serif" font-size="18.2" lengthAdjust="spacing" textLength="172.9" x="945.1" y="910.3225">:CustomerRepository</text><rect fill="#E3E3E3" height="66.6148" rx="3.25" ry="3.25" style="stroke:#181818;stroke-width:0.65;" width="210.6" x="1140.1" y="80.1074"/><text fill="#000000" font-family="sans-serif" font-size="18.2" font-style="italic" lengthAdjust="spacing" textLength="102.7" x="1194.05" y="108.8471">&#171;repository&#187;</text><text fill="#000000" font-family="sans-serif" font-size="18.2" lengthAdjust="spacing" textLength="192.4" x="1149.2" y="133.0545">:JobOpeningRepository</text><rect fill="#E3E3E3" height="66.6148" rx="3.25" ry="3.25" style="stroke:#181818;stroke-width:0.65;" width="210.6" x="1140.1" y="857.3754"/><text fill="#000000" font-family="sans-serif" font-size="18.2" font-style="italic" lengthAdjust="spacing" textLength="102.7" x="1194.05" y="886.115">&#171;repository&#187;</text><text fill="#000000" font-family="sans-serif" font-size="18.2" lengthAdjust="spacing" textLength="192.4" x="1149.2" y="910.3225">:JobOpeningRepository</text><rect fill="#E3E3E3" height="66.6148" rx="3.25" ry="3.25" style="stroke:#181818;stroke-width:0.65;" width="117" x="1363.7" y="80.1074"/><text fill="#000000" font-family="sans-serif" font-size="18.2" font-style="italic" lengthAdjust="spacing" textLength="80.6" x="1381.9" y="108.8471">&#171;domain&#187;</text><text fill="#000000" font-family="sans-serif" font-size="18.2" lengthAdjust="spacing" textLength="98.8" x="1372.8" y="133.0545">:SerializeUtil</text><rect fill="#E3E3E3" height="66.6148" rx="3.25" ry="3.25" style="stroke:#181818;stroke-width:0.65;" width="117" x="1363.7" y="857.3754"/><text fill="#000000" font-family="sans-serif" font-size="18.2" font-style="italic" lengthAdjust="spacing" textLength="80.6" x="1381.9" y="886.115">&#171;domain&#187;</text><text fill="#000000" font-family="sans-serif" font-size="18.2" lengthAdjust="spacing" textLength="98.8" x="1372.8" y="910.3225">:SerializeUtil</text><rect fill="#FFFFFF" height="543.1182" style="stroke:#181818;stroke-width:1.3;" width="13" x="170.3" y="242.3789"/><rect fill="#FFFFFF" height="122.035" style="stroke:#181818;stroke-width:1.3;" width="13" x="574.6" y="370.9139"/><rect fill="#FFFFFF" height="122.035" style="stroke:#181818;stroke-width:1.3;" width="13" x="574.6" y="533.6271"/><rect fill="#FFFFFF" height="40.6783" style="stroke:#181818;stroke-width:1.3;" width="13" x="820.95" y="289.5572"/><rect fill="#FFFFFF" height="40.6783" style="stroke:#181818;stroke-width:1.3;" width="13" x="1025.05" y="411.5922"/><rect fill="#FFFFFF" height="40.6783" style="stroke:#181818;stroke-width:1.3;" width="13" x="1238.9" y="574.3055"/><rect fill="#FFFFFF" height="40.6783" style="stroke:#181818;stroke-width:1.3;" width="13" x="1415.7" y="696.3404"/><polygon fill="#181818" points="161.2,186.1006,174.2,191.3006,161.2,196.5006,166.4,191.3006" style="stroke:#181818;stroke-width:1.3;"/><line style="stroke:#181818;stroke-width:1.3;" x1="0" x2="169" y1="191.3006" y2="191.3006"/><text fill="#000000" font-family="sans-serif" font-size="16.9" font-weight="bold" lengthAdjust="spacing" textLength="9.1" x="9.1" y="184.4591">1</text><text fill="#000000" font-family="sans-serif" font-size="16.9" lengthAdjust="spacing" textLength="113.1" x="23.4" y="184.4591">(tcp) jobOpReq</text><line style="stroke:#181818;stroke-width:1.3;" x1="176.8" x2="237.9" y1="225.4789" y2="225.4789"/><line style="stroke:#181818;stroke-width:1.3;" x1="237.9" x2="237.9" y1="225.4789" y2="242.3789"/><line style="stroke:#181818;stroke-width:1.3;" x1="184.6" x2="237.9" y1="242.3789" y2="242.3789"/><polygon fill="#181818" points="197.6,237.1789,184.6,242.3789,197.6,247.5789,192.4,242.3789" style="stroke:#181818;stroke-width:1.3;"/><text fill="#000000" font-family="sans-serif" font-size="16.9" font-weight="bold" lengthAdjust="spacing" textLength="9.1" x="192.4" y="218.6374">2</text><text fill="#000000" font-family="sans-serif" font-size="16.9" lengthAdjust="spacing" textLength="226.2" x="206.7" y="218.6374">jobOpReq(version, code, data)</text><polygon fill="#181818" points="805.35,284.3572,818.35,289.5572,805.35,294.7572,810.55,289.5572" style="stroke:#181818;stroke-width:1.3;"/><line style="stroke:#181818;stroke-width:1.3;" x1="183.3" x2="813.15" y1="289.5572" y2="289.5572"/><text fill="#000000" font-family="sans-serif" font-size="16.9" font-weight="bold" lengthAdjust="spacing" textLength="9.1" x="192.4" y="282.7157">3</text><text fill="#000000" font-family="sans-serif" font-size="16.9" lengthAdjust="spacing" textLength="202.8" x="206.7" y="282.7157">authenticatedUser().email()</text><polygon fill="#181818" points="197.6,325.0355,184.6,330.2355,197.6,335.4355,192.4,330.2355" style="stroke:#181818;stroke-width:1.3;"/><line style="stroke:#181818;stroke-width:1.3;stroke-dasharray:2.0,2.0;" x1="189.8" x2="826.15" y1="330.2355" y2="330.2355"/><text fill="#000000" font-family="sans-serif" font-size="16.9" font-weight="bold" lengthAdjust="spacing" textLength="9.1" x="205.4" y="323.394">4</text><text fill="#000000" font-family="sans-serif" font-size="16.9" lengthAdjust="spacing" textLength="40.3" x="219.7" y="323.394">email</text><polygon fill="#181818" points="559,365.7139,572,370.9139,559,376.1139,564.2,370.9139" style="stroke:#181818;stroke-width:1.3;"/><line style="stroke:#181818;stroke-width:1.3;" x1="183.3" x2="566.8" y1="370.9139" y2="370.9139"/><text fill="#000000" font-family="sans-serif" font-size="16.9" font-weight="bold" lengthAdjust="spacing" textLength="9.1" x="192.4" y="364.0724">5</text><text fill="#000000" font-family="sans-serif" font-size="16.9" lengthAdjust="spacing" textLength="140.4" x="206.7" y="364.0724">findByEmail(email)</text><polygon fill="#181818" points="1009.45,406.3922,1022.45,411.5922,1009.45,416.7922,1014.65,411.5922" style="stroke:#181818;stroke-width:1.3;"/><line style="stroke:#181818;stroke-width:1.3;" x1="587.6" x2="1017.25" y1="411.5922" y2="411.5922"/><text fill="#000000" font-family="sans-serif" font-size="16.9" font-weight="bold" lengthAdjust="spacing" textLength="9.1" x="596.7" y="404.7507">6</text><text fill="#000000" font-family="sans-serif" font-size="16.9" lengthAdjust="spacing" textLength="140.4" x="611" y="404.7507">findByEmail(email)</text><polygon fill="#181818" points="601.9,447.0705,588.9,452.2705,601.9,457.4705,596.7,452.2705" style="stroke:#181818;stroke-width:1.3;"/><line style="stroke:#181818;stroke-width:1.3;stroke-dasharray:2.0,2.0;" x1="594.1" x2="1030.25" y1="452.2705" y2="452.2705"/><text fill="#000000" font-family="sans-serif" font-size="16.9" font-weight="bold" lengthAdjust="spacing" textLength="9.1" x="609.7" y="445.429">7</text><text fill="#000000" font-family="sans-serif" font-size="16.9" lengthAdjust="spacing" textLength="70.2" x="624" y="445.429">customer</text><polygon fill="#181818" points="197.6,487.7488,184.6,492.9488,197.6,498.1488,192.4,492.9488" style="stroke:#181818;stroke-width:1.3;"/><line style="stroke:#181818;stroke-width:1.3;stroke-dasharray:2.0,2.0;" x1="189.8" x2="579.8" y1="492.9488" y2="492.9488"/><text fill="#000000" font-family="sans-serif" font-size="16.9" font-weight="bold" lengthAdjust="spacing" textLength="9.1" x="205.4" y="486.1073">8</text><text fill="#000000" font-family="sans-serif" font-size="16.9" lengthAdjust="spacing" textLength="70.2" x="219.7" y="486.1073">customer</text><polygon fill="#181818" points="559,528.4271,572,533.6271,559,538.8271,564.2,533.6271" style="stroke:#181818;stroke-width:1.3;"/><line style="stroke:#181818;stroke-width:1.3;" x1="183.3" x2="566.8" y1="533.6271" y2="533.6271"/><text fill="#000000" font-family="sans-serif" font-size="16.9" font-weight="bold" lengthAdjust="spacing" textLength="9.1" x="192.4" y="526.7856">9</text><text fill="#000000" font-family="sans-serif" font-size="16.9" lengthAdjust="spacing" textLength="219.7" x="206.7" y="526.7856">findAllByCustomer(customer)</text><polygon fill="#181818" points="1223.3,569.1055,1236.3,574.3055,1223.3,579.5055,1228.5,574.3055" style="stroke:#181818;stroke-width:1.3;"/><line style="stroke:#181818;stroke-width:1.3;" x1="587.6" x2="1231.1" y1="574.3055" y2="574.3055"/><text fill="#000000" font-family="sans-serif" font-size="16.9" font-weight="bold" lengthAdjust="spacing" textLength="18.2" x="596.7" y="567.464">10</text><text fill="#000000" font-family="sans-serif" font-size="16.9" lengthAdjust="spacing" textLength="219.7" x="620.1" y="567.464">findAllByCustomer(customer)</text><polygon fill="#181818" points="601.9,609.7838,588.9,614.9838,601.9,620.1838,596.7,614.9838" style="stroke:#181818;stroke-width:1.3;"/><line style="stroke:#181818;stroke-width:1.3;stroke-dasharray:2.0,2.0;" x1="594.1" x2="1244.1" y1="614.9838" y2="614.9838"/><text fill="#000000" font-family="sans-serif" font-size="16.9" font-weight="bold" lengthAdjust="spacing" textLength="18.2" x="609.7" y="608.1423">11</text><text fill="#000000" font-family="sans-serif" font-size="16.9" lengthAdjust="spacing" textLength="111.8" x="633.1" y="608.1423">jobOpeningList</text><polygon fill="#181818" points="197.6,650.4621,184.6,655.6621,197.6,660.8621,192.4,655.6621" style="stroke:#181818;stroke-width:1.3;"/><line style="stroke:#181818;stroke-width:1.3;stroke-dasharray:2.0,2.0;" x1="189.8" x2="579.8" y1="655.6621" y2="655.6621"/><text fill="#000000" font-family="sans-serif" font-size="16.9" font-weight="bold" lengthAdjust="spacing" textLength="18.2" x="205.4" y="648.8206">12</text><text fill="#000000" font-family="sans-serif" font-size="16.9" lengthAdjust="spacing" textLength="111.8" x="228.8" y="648.8206">jobOpeningList</text><polygon fill="#181818" points="1400.1,691.1404,1413.1,696.3404,1400.1,701.5404,1405.3,696.3404" style="stroke:#181818;stroke-width:1.3;"/><line style="stroke:#181818;stroke-width:1.3;" x1="183.3" x2="1407.9" y1="696.3404" y2="696.3404"/><text fill="#000000" font-family="sans-serif" font-size="16.9" font-weight="bold" lengthAdjust="spacing" textLength="18.2" x="192.4" y="689.4989">13</text><text fill="#000000" font-family="sans-serif" font-size="16.9" lengthAdjust="spacing" textLength="239.2" x="215.8" y="689.4989">serializeIterable(jobOpeningList)</text><polygon fill="#181818" points="197.6,731.8188,184.6,737.0188,197.6,742.2188,192.4,737.0188" style="stroke:#181818;stroke-width:1.3;"/><line style="stroke:#181818;stroke-width:1.3;stroke-dasharray:2.0,2.0;" x1="189.8" x2="1420.9" y1="737.0188" y2="737.0188"/><text fill="#000000" font-family="sans-serif" font-size="16.9" font-weight="bold" lengthAdjust="spacing" textLength="18.2" x="205.4" y="730.1772">14</text><text fill="#000000" font-family="sans-serif" font-size="16.9" lengthAdjust="spacing" textLength="146.9" x="228.8" y="730.1772">jobOpeningListData</text><line style="stroke:#181818;stroke-width:1.3;" x1="183.3" x2="237.9" y1="784.1971" y2="784.1971"/><line style="stroke:#181818;stroke-width:1.3;" x1="237.9" x2="237.9" y1="784.1971" y2="801.0971"/><line style="stroke:#181818;stroke-width:1.3;" x1="176.8" x2="237.9" y1="801.0971" y2="801.0971"/><polygon fill="#181818" points="189.8,795.8971,176.8,801.0971,189.8,806.2971,184.6,801.0971" style="stroke:#181818;stroke-width:1.3;"/><text fill="#000000" font-family="sans-serif" font-size="16.9" font-weight="bold" lengthAdjust="spacing" textLength="18.2" x="192.4" y="777.3556">15</text><text fill="#000000" font-family="sans-serif" font-size="16.9" lengthAdjust="spacing" textLength="349.7" x="215.8" y="777.3556">jobOpResp(version, code, jobOpeningListData)</text><polygon fill="#181818" points="14.3,830.0754,1.3,835.2754,14.3,840.4754,9.1,835.2754" style="stroke:#181818;stroke-width:1.3;"/><line style="stroke:#181818;stroke-width:1.3;stroke-dasharray:2.0,2.0;" x1="6.5" x2="175.5" y1="835.2754" y2="835.2754"/><text fill="#000000" font-family="sans-serif" font-size="16.9" font-weight="bold" lengthAdjust="spacing" textLength="18.2" x="22.1" y="828.4339">16</text><text fill="#000000" font-family="sans-serif" font-size="16.9" lengthAdjust="spacing" textLength="122.2" x="45.5" y="828.4339">(tcp) jobOpResp</text><!--SRC=[ZPJRRXen48Rl_HGZRW0fMqNj7OgG25HggwYHGl80PdS09rvxOmzfoTDtlESJIRbXxPd_yyo_dlKlocJIoHHIQsnyT3P587T2uUj89kCNUS0jdJM2mvYaEUXsWZ_AnFvHvW1xgJqA8KzapIdTeHE25B5iyhI5RzVNNo62E-K9fDQGdk7Pxi1cQ5ZhGHcW8y8gooQmnTSJcXXXe-I1pn3JeqeGzjRIpluL_EEZISKgauPWibXhXOP-I9DeT1EGdWdk3HtSt6pFdZ1TBaLi3JchEJkKyClkxekJYynr4QtawyU7EnRBBDCgbgIiOKBtpDM9ZjQfzpmQ82h6N3iMO9OldfWZfbtIRqjgNnxJ1ZNQnAPIXH8-K6uUxtCL_xSLFQDEdlWTkmVCh5TatJdNn8DjHhXwCS0qxlL0poE1FcewOAqQcuUyqU37vR5nIchrZa-aT6LbizEsHqJBwguiO4PnDYzwUC1N8Sf8jAmpgjYCbvuhkeBO9dW5YIGv5o1ZKc-Ii1GoeKQCtee5yAmS-Ug61Z5vuZioctz1hatFva5T0yVa8M5iFshtbCD2PeAVm9fsm-rVm5wPvFRyFIycfuIAQaR82OC8-LEq7Bb25n0DOwW9uU5kL9J4m2eMyZejZQEAug0nv0D2sH1qN2XxM6bzUwvcPrOXkiqK-igEqK7uVzYOF2ICxJVkDD7mYHjqU0bQrjo_vfT1jLMLML0Ot8pO0dor_4dev4xZh0kTbu3so3Jw8jORs_PhxC8sF7w3All0IyFii_uq3-4ysrroFjsXXPiegelgV3zy9aOb_m00]--></g></svg>