<?xml version="1.0" encoding="us-ascii" standalone="no"?><svg xmlns="http://www.w3.org/2000/svg" xmlns:xlink="http://www.w3.org/1999/xlink" contentStyleType="text/css" height="414px" preserveAspectRatio="none" style="width:646px;height:414px;background:#FFFFFF;" version="1.1" viewBox="0 0 646 414" width="646px" zoomAndPan="magnify"><defs/><g><text fill="#000000" font-family="sans-serif" font-size="14" font-weight="bold" lengthAdjust="spacing" textLength="457" x="93.75" y="30.1074">"US 3002 - List all my job openings in the App" Sequence Diagram</text><rect fill="#FFFFFF" height="179.7461" style="stroke:#181818;stroke-width:1.0;" width="10" x="33.5" y="133.2422"/><rect fill="#FFFFFF" height="156.4551" style="stroke:#181818;stroke-width:1.0;" width="10" x="388.5" y="156.5332"/><rect fill="#FFFFFF" height="31.291" style="stroke:#181818;stroke-width:1.0;" width="10" x="591.5" y="187.8242"/><rect fill="#FFFFFF" height="31.291" style="stroke:#181818;stroke-width:1.0;" width="10" x="591.5" y="250.4063"/><line style="stroke:#181818;stroke-width:0.5;stroke-dasharray:5.0,5.0;" x1="38" x2="38" y1="123.2422" y2="330.9883"/><line style="stroke:#181818;stroke-width:0.5;stroke-dasharray:5.0,5.0;" x1="393.5" x2="393.5" y1="123.2422" y2="330.9883"/><line style="stroke:#181818;stroke-width:0.5;stroke-dasharray:5.0,5.0;" x1="596.5" x2="596.5" y1="123.2422" y2="330.9883"/><text fill="#000000" font-family="sans-serif" font-size="14" lengthAdjust="spacing" textLength="61" x="5" y="119.7285">Customer</text><ellipse cx="38.5" cy="53.1211" fill="#E3E3E3" rx="8" ry="8" style="stroke:#181818;stroke-width:0.5;"/><path d="M38.5,61.1211 L38.5,88.1211 M25.5,69.1211 L51.5,69.1211 M38.5,88.1211 L25.5,103.1211 M38.5,88.1211 L51.5,103.1211 " fill="none" style="stroke:#181818;stroke-width:0.5;"/><text fill="#000000" font-family="sans-serif" font-size="14" lengthAdjust="spacing" textLength="61" x="5" y="345.0957">Customer</text><ellipse cx="38.5" cy="357.1094" fill="#E3E3E3" rx="8" ry="8" style="stroke:#181818;stroke-width:0.5;"/><path d="M38.5,365.1094 L38.5,392.1094 M25.5,373.1094 L51.5,373.1094 M38.5,392.1094 L25.5,407.1094 M38.5,392.1094 L51.5,407.1094 " fill="none" style="stroke:#181818;stroke-width:0.5;"/><rect fill="#E3E3E3" height="51.2422" rx="2.5" ry="2.5" style="stroke:#181818;stroke-width:0.5;" width="104" x="341.5" y="71"/><text fill="#000000" font-family="sans-serif" font-size="14" font-style="italic" lengthAdjust="spacing" textLength="62" x="362.5" y="93.1074">&#171;System&#187;</text><text fill="#000000" font-family="sans-serif" font-size="14" lengthAdjust="spacing" textLength="90" x="348.5" y="111.7285">:CustomerApp</text><rect fill="#E3E3E3" height="51.2422" rx="2.5" ry="2.5" style="stroke:#181818;stroke-width:0.5;" width="104" x="341.5" y="329.9883"/><text fill="#000000" font-family="sans-serif" font-size="14" font-style="italic" lengthAdjust="spacing" textLength="62" x="362.5" y="352.0957">&#171;System&#187;</text><text fill="#000000" font-family="sans-serif" font-size="14" lengthAdjust="spacing" textLength="90" x="348.5" y="370.7168">:CustomerApp</text><rect fill="#E3E3E3" height="51.2422" rx="2.5" ry="2.5" style="stroke:#181818;stroke-width:0.5;" width="88" x="552.5" y="71"/><text fill="#000000" font-family="sans-serif" font-size="14" font-style="italic" lengthAdjust="spacing" textLength="62" x="565.5" y="93.1074">&#171;System&#187;</text><text fill="#000000" font-family="sans-serif" font-size="14" lengthAdjust="spacing" textLength="74" x="559.5" y="111.7285">:TCPServer</text><rect fill="#E3E3E3" height="51.2422" rx="2.5" ry="2.5" style="stroke:#181818;stroke-width:0.5;" width="88" x="552.5" y="329.9883"/><text fill="#000000" font-family="sans-serif" font-size="14" font-style="italic" lengthAdjust="spacing" textLength="62" x="565.5" y="352.0957">&#171;System&#187;</text><text fill="#000000" font-family="sans-serif" font-size="14" lengthAdjust="spacing" textLength="74" x="559.5" y="370.7168">:TCPServer</text><rect fill="#FFFFFF" height="179.7461" style="stroke:#181818;stroke-width:1.0;" width="10" x="33.5" y="133.2422"/><rect fill="#FFFFFF" height="156.4551" style="stroke:#181818;stroke-width:1.0;" width="10" x="388.5" y="156.5332"/><rect fill="#FFFFFF" height="31.291" style="stroke:#181818;stroke-width:1.0;" width="10" x="591.5" y="187.8242"/><rect fill="#FFFFFF" height="31.291" style="stroke:#181818;stroke-width:1.0;" width="10" x="591.5" y="250.4063"/><polygon fill="#181818" points="376.5,152.5332,386.5,156.5332,376.5,160.5332,380.5,156.5332" style="stroke:#181818;stroke-width:1.0;"/><line style="stroke:#181818;stroke-width:1.0;" x1="43.5" x2="382.5" y1="156.5332" y2="156.5332"/><text fill="#000000" font-family="sans-serif" font-size="13" font-weight="bold" lengthAdjust="spacing" textLength="7" x="50.5" y="151.2705">1</text><text fill="#000000" font-family="sans-serif" font-size="13" lengthAdjust="spacing" textLength="257" x="61.5" y="151.2705">Asks to list all the JobOpenings notifications</text><polygon fill="#181818" points="579.5,183.8242,589.5,187.8242,579.5,191.8242,583.5,187.8242" style="stroke:#181818;stroke-width:1.0;"/><line style="stroke:#181818;stroke-width:1.0;" x1="398.5" x2="585.5" y1="187.8242" y2="187.8242"/><text fill="#000000" font-family="sans-serif" font-size="13" font-weight="bold" lengthAdjust="spacing" textLength="7" x="405.5" y="182.5615">2</text><text fill="#000000" font-family="sans-serif" font-size="13" lengthAdjust="spacing" textLength="87" x="416.5" y="182.5615">(tcp) jobOpReq</text><polygon fill="#181818" points="409.5,215.1152,399.5,219.1152,409.5,223.1152,405.5,219.1152" style="stroke:#181818;stroke-width:1.0;"/><line style="stroke:#181818;stroke-width:1.0;stroke-dasharray:2.0,2.0;" x1="403.5" x2="595.5" y1="219.1152" y2="219.1152"/><text fill="#000000" font-family="sans-serif" font-size="13" font-weight="bold" lengthAdjust="spacing" textLength="7" x="415.5" y="213.8525">3</text><text fill="#000000" font-family="sans-serif" font-size="13" lengthAdjust="spacing" textLength="94" x="426.5" y="213.8525">(tcp) jobOpResp</text><polygon fill="#181818" points="579.5,246.4063,589.5,250.4063,579.5,254.4063,583.5,250.4063" style="stroke:#181818;stroke-width:1.0;"/><line style="stroke:#181818;stroke-width:1.0;" x1="398.5" x2="585.5" y1="250.4063" y2="250.4063"/><text fill="#000000" font-family="sans-serif" font-size="13" font-weight="bold" lengthAdjust="spacing" textLength="7" x="405.5" y="245.1436">4</text><text fill="#000000" font-family="sans-serif" font-size="13" lengthAdjust="spacing" textLength="151" x="416.5" y="245.1436">(tcp) howMuchJobAppReq</text><polygon fill="#181818" points="409.5,277.6973,399.5,281.6973,409.5,285.6973,405.5,281.6973" style="stroke:#181818;stroke-width:1.0;"/><line style="stroke:#181818;stroke-width:1.0;stroke-dasharray:2.0,2.0;" x1="403.5" x2="595.5" y1="281.6973" y2="281.6973"/><text fill="#000000" font-family="sans-serif" font-size="13" font-weight="bold" lengthAdjust="spacing" textLength="7" x="415.5" y="276.4346">5</text><text fill="#000000" font-family="sans-serif" font-size="13" lengthAdjust="spacing" textLength="158" x="426.5" y="276.4346">(tcp) howMuchJobAppResp</text><polygon fill="#181818" points="49.5,308.9883,39.5,312.9883,49.5,316.9883,45.5,312.9883" style="stroke:#181818;stroke-width:1.0;"/><line style="stroke:#181818;stroke-width:1.0;stroke-dasharray:2.0,2.0;" x1="43.5" x2="392.5" y1="312.9883" y2="312.9883"/><text fill="#000000" font-family="sans-serif" font-size="13" font-weight="bold" lengthAdjust="spacing" textLength="7" x="55.5" y="307.7256">6</text><text fill="#000000" font-family="sans-serif" font-size="13" lengthAdjust="spacing" textLength="310" x="66.5" y="307.7256">Shows all job openings associated with this customer</text><!--SRC=[fPB1JeD048Rl-nGJBkgXIQEtfcbYy6GqDQ8Fi2nJM0ixMsPexTkxbBP0DSR4FR7yCz__3mElhVEwrXLKvCWKDLK8KZUe-AnuRTOwnqJs9KADHhJBos415pgZdNKvh7J9g9HkX5nJfLWh9LP2M_IUmDrqUWiJUB8ieCiIgZryK0haqOLU1kj02eHxxoD8SDEWCmWFLkV1GrqLDaDO4KbAdqeReHgYk649WUi8D4EiL8WZrbYldK0qEwa7O5lGts4-J_OiM2qM5qrlyKk2zVR8x1w7rQsrtMh1rW_2YM6o6A5dSCzh1Y4eJvEsOprIkZnDwaZioXejbXohZjEUdjtpUdLe4ZoFsMPmBSRVj9zowLznCy3rlAws5xhxv5lo4OhzkI73IzHVOnMqUsvC4QOF-Y7UVzDT47zF-KF8m8q3B0aSFcndz1DgPZ8s83BOMId2wYo3ENQVUGEdqQg6xzKN]--></g></svg>