<?xml version="1.0" encoding="us-ascii" standalone="no"?><svg xmlns="http://www.w3.org/2000/svg" xmlns:xlink="http://www.w3.org/1999/xlink" contentStyleType="text/css" height="1180px" preserveAspectRatio="none" style="width:2284px;height:1180px;background:#FFFFFF;" version="1.1" viewBox="0 0 2284 1180" width="2284px" zoomAndPan="magnify"><defs/><g><text fill="#000000" font-family="sans-serif" font-size="14" font-weight="bold" lengthAdjust="spacing" textLength="1039" x="624.25" y="27.6738">"US1015 - As Customer Manager, I want to execute the process of verification of requirements of applications for a job opening." Sequence Diagram</text><rect fill="#FFFFFF" height="954.7422" style="stroke:#181818;stroke-width:1.0;" width="10" x="63.5" y="127.2813"/><rect fill="#FFFFFF" height="215.8984" style="stroke:#181818;stroke-width:1.0;" width="10" x="432.5" y="147.8047"/><rect fill="#FFFFFF" height="689.7969" style="stroke:#181818;stroke-width:1.0;" width="10" x="432.5" y="392.2266"/><rect fill="#FFFFFF" height="85.5703" style="stroke:#181818;stroke-width:1.0;" width="10" x="898.5" y="249.6094"/><rect fill="#FFFFFF" height="85.5703" style="stroke:#181818;stroke-width:1.0;" width="10" x="898.5" y="420.75"/><rect fill="#FFFFFF" height="85.5703" style="stroke:#181818;stroke-width:1.0;" width="10" x="898.5" y="558.3672"/><rect fill="#FFFFFF" height="170.375" style="stroke:#181818;stroke-width:1.0;" width="10" x="898.5" y="719.5078"/><rect fill="#FFFFFF" height="114.0938" style="stroke:#181818;stroke-width:1.0;" width="10" x="898.5" y="918.4063"/><rect fill="#FFFFFF" height="28.5234" style="stroke:#181818;stroke-width:1.0;" width="10" x="1191.5" y="278.1328"/><rect fill="#FFFFFF" height="28.5234" style="stroke:#181818;stroke-width:1.0;" width="10" x="1371" y="449.2734"/><rect fill="#FFFFFF" height="28.5234" style="stroke:#181818;stroke-width:1.0;" width="10" x="1554" y="804.3125"/><rect fill="#FFFFFF" height="28.5234" style="stroke:#181818;stroke-width:1.0;" width="10" x="1807" y="586.8906"/><rect fill="#FFFFFF" height="28.5234" style="stroke:#181818;stroke-width:1.0;" width="10" x="2035" y="946.9297"/><rect fill="none" height="533.1797" style="stroke:#000000;stroke-width:1.5;" width="2028" x="250.5" y="521.3203"/><rect fill="none" height="388.5625" style="stroke:#000000;stroke-width:1.5;" width="2008" x="260.5" y="658.9375"/><rect fill="none" height="358.0391" style="stroke:#000000;stroke-width:1.5;" width="1988" x="270.5" y="682.4609"/><line style="stroke:#181818;stroke-width:0.5;stroke-dasharray:5.0,5.0;" x1="68" x2="68" y1="117.2813" y2="1100.0234"/><line style="stroke:#181818;stroke-width:0.5;stroke-dasharray:5.0,5.0;" x1="437.5" x2="437.5" y1="117.2813" y2="1100.0234"/><line style="stroke:#181818;stroke-width:0.5;stroke-dasharray:5.0,5.0;" x1="903.5" x2="903.5" y1="202.4453" y2="1100.0234"/><line style="stroke:#181818;stroke-width:0.5;stroke-dasharray:5.0,5.0;" x1="1196.5" x2="1196.5" y1="117.2813" y2="1100.0234"/><line style="stroke:#181818;stroke-width:0.5;stroke-dasharray:5.0,5.0;" x1="1375.5" x2="1375.5" y1="117.2813" y2="1100.0234"/><line style="stroke:#181818;stroke-width:0.5;stroke-dasharray:5.0,5.0;" x1="1558.5" x2="1558.5" y1="765.6484" y2="1100.0234"/><line style="stroke:#181818;stroke-width:0.5;stroke-dasharray:5.0,5.0;" x1="1700.5" x2="1700.5" y1="117.2813" y2="1100.0234"/><line style="stroke:#181818;stroke-width:0.5;stroke-dasharray:5.0,5.0;" x1="1811.5" x2="1811.5" y1="117.2813" y2="1100.0234"/><line style="stroke:#181818;stroke-width:0.5;stroke-dasharray:5.0,5.0;" x1="1931.5" x2="1931.5" y1="117.2813" y2="1100.0234"/><line style="stroke:#181818;stroke-width:0.5;stroke-dasharray:5.0,5.0;" x1="2039.5" x2="2039.5" y1="117.2813" y2="1100.0234"/><line style="stroke:#181818;stroke-width:0.5;stroke-dasharray:5.0,5.0;" x1="2170.5" x2="2170.5" y1="117.2813" y2="1100.0234"/><text fill="#000000" font-family="sans-serif" font-size="14" lengthAdjust="spacing" textLength="121" x="5" y="114.3145">Customer Manager</text><ellipse cx="68.5" cy="50.1406" fill="#E3E3E3" rx="8" ry="8" style="stroke:#181818;stroke-width:0.5;"/><path d="M68.5,58.1406 L68.5,85.1406 M55.5,66.1406 L81.5,66.1406 M68.5,85.1406 L55.5,100.1406 M68.5,85.1406 L81.5,100.1406 " fill="none" style="stroke:#181818;stroke-width:0.5;"/><text fill="#000000" font-family="sans-serif" font-size="14" lengthAdjust="spacing" textLength="121" x="5" y="1111.6973">Customer Manager</text><ellipse cx="68.5" cy="1123.1641" fill="#E3E3E3" rx="8" ry="8" style="stroke:#181818;stroke-width:0.5;"/><path d="M68.5,1131.1641 L68.5,1158.1641 M55.5,1139.1641 L81.5,1139.1641 M68.5,1158.1641 L55.5,1173.1641 M68.5,1158.1641 L81.5,1173.1641 " fill="none" style="stroke:#181818;stroke-width:0.5;"/><rect fill="#E3E3E3" height="45.2813" rx="2.5" ry="2.5" style="stroke:#181818;stroke-width:0.5;" width="314" x="280.5" y="71"/><text fill="#000000" font-family="sans-serif" font-size="14" font-style="italic" lengthAdjust="spacing" textLength="95" x="390" y="90.6738">&#171;presentation&#187;</text><text fill="#000000" font-family="sans-serif" font-size="14" lengthAdjust="spacing" textLength="300" x="287.5" y="106.3145">:ExecuteVerificationRequirementsJobOpeningUI</text><rect fill="#E3E3E3" height="45.2813" rx="2.5" ry="2.5" style="stroke:#181818;stroke-width:0.5;" width="314" x="280.5" y="1099.0234"/><text fill="#000000" font-family="sans-serif" font-size="14" font-style="italic" lengthAdjust="spacing" textLength="95" x="390" y="1118.6973">&#171;presentation&#187;</text><text fill="#000000" font-family="sans-serif" font-size="14" lengthAdjust="spacing" textLength="300" x="287.5" y="1134.3379">:ExecuteVerificationRequirementsJobOpeningUI</text><text fill="#000000" font-family="sans-serif" font-size="14" font-style="italic" lengthAdjust="spacing" textLength="84" x="858.5" y="1111.6973">&#171;application&#187;</text><text fill="#000000" font-family="sans-serif" font-size="14" lengthAdjust="spacing" textLength="350" x="725.5" y="1127.3379">:ExecuteVerificationRequirementsJobOpeningController</text><ellipse cx="903.5" cy="1146.3047" fill="#E3E3E3" rx="12" ry="12" style="stroke:#181818;stroke-width:0.5;"/><polygon fill="#181818" points="899.5,1134.3047,905.5,1129.3047,903.5,1134.3047,905.5,1139.3047,899.5,1134.3047" style="stroke:#181818;stroke-width:1.0;"/><rect fill="#E3E3E3" height="45.2813" rx="2.5" ry="2.5" style="stroke:#181818;stroke-width:0.5;" width="162" x="1115.5" y="71"/><text fill="#000000" font-family="sans-serif" font-size="14" font-style="italic" lengthAdjust="spacing" textLength="79" x="1157" y="90.6738">&#171;repository&#187;</text><text fill="#000000" font-family="sans-serif" font-size="14" lengthAdjust="spacing" textLength="148" x="1122.5" y="106.3145">:JobOpeningRepository</text><rect fill="#E3E3E3" height="45.2813" rx="2.5" ry="2.5" style="stroke:#181818;stroke-width:0.5;" width="162" x="1115.5" y="1099.0234"/><text fill="#000000" font-family="sans-serif" font-size="14" font-style="italic" lengthAdjust="spacing" textLength="79" x="1157" y="1118.6973">&#171;repository&#187;</text><text fill="#000000" font-family="sans-serif" font-size="14" lengthAdjust="spacing" textLength="148" x="1122.5" y="1134.3379">:JobOpeningRepository</text><rect fill="#E3E3E3" height="45.2813" rx="2.5" ry="2.5" style="stroke:#181818;stroke-width:0.5;" width="177" x="1287.5" y="71"/><text fill="#000000" font-family="sans-serif" font-size="14" font-style="italic" lengthAdjust="spacing" textLength="79" x="1336.5" y="90.6738">&#171;repository&#187;</text><text fill="#000000" font-family="sans-serif" font-size="14" lengthAdjust="spacing" textLength="163" x="1294.5" y="106.3145">:JobApplicationRepository</text><rect fill="#E3E3E3" height="45.2813" rx="2.5" ry="2.5" style="stroke:#181818;stroke-width:0.5;" width="177" x="1287.5" y="1099.0234"/><text fill="#000000" font-family="sans-serif" font-size="14" font-style="italic" lengthAdjust="spacing" textLength="79" x="1336.5" y="1118.6973">&#171;repository&#187;</text><text fill="#000000" font-family="sans-serif" font-size="14" lengthAdjust="spacing" textLength="163" x="1294.5" y="1134.3379">:JobApplicationRepository</text><rect fill="#E3E3E3" height="45.2813" rx="2.5" ry="2.5" style="stroke:#181818;stroke-width:0.5;" width="169" x="1474.5" y="1099.0234"/><text fill="#000000" font-family="sans-serif" font-size="14" font-style="italic" lengthAdjust="spacing" textLength="155" x="1481.5" y="1118.6973">&#171;requirementsInterface&#187;</text><text fill="#000000" font-family="sans-serif" font-size="14" lengthAdjust="spacing" textLength="110" x="1504" y="1134.3379">jarClass :jarClass</text><rect fill="#E3E3E3" height="45.2813" rx="2.5" ry="2.5" style="stroke:#181818;stroke-width:0.5;" width="94" x="1653.5" y="71"/><text fill="#000000" font-family="sans-serif" font-size="14" font-style="italic" lengthAdjust="spacing" textLength="62" x="1669.5" y="90.6738">&#171;domain&#187;</text><text fill="#000000" font-family="sans-serif" font-size="14" lengthAdjust="spacing" textLength="80" x="1660.5" y="106.3145">:JobOpening</text><rect fill="#E3E3E3" height="45.2813" rx="2.5" ry="2.5" style="stroke:#181818;stroke-width:0.5;" width="94" x="1653.5" y="1099.0234"/><text fill="#000000" font-family="sans-serif" font-size="14" font-style="italic" lengthAdjust="spacing" textLength="62" x="1669.5" y="1118.6973">&#171;domain&#187;</text><text fill="#000000" font-family="sans-serif" font-size="14" lengthAdjust="spacing" textLength="80" x="1660.5" y="1134.3379">:JobOpening</text><rect fill="#E3E3E3" height="45.2813" rx="2.5" ry="2.5" style="stroke:#181818;stroke-width:0.5;" width="109" x="1757.5" y="71"/><text fill="#000000" font-family="sans-serif" font-size="14" font-style="italic" lengthAdjust="spacing" textLength="62" x="1781" y="90.6738">&#171;domain&#187;</text><text fill="#000000" font-family="sans-serif" font-size="14" lengthAdjust="spacing" textLength="95" x="1764.5" y="106.3145">:JobApplication</text><rect fill="#E3E3E3" height="45.2813" rx="2.5" ry="2.5" style="stroke:#181818;stroke-width:0.5;" width="109" x="1757.5" y="1099.0234"/><text fill="#000000" font-family="sans-serif" font-size="14" font-style="italic" lengthAdjust="spacing" textLength="62" x="1781" y="1118.6973">&#171;domain&#187;</text><text fill="#000000" font-family="sans-serif" font-size="14" lengthAdjust="spacing" textLength="95" x="1764.5" y="1134.3379">:JobApplication</text><rect fill="#E3E3E3" height="45.2813" rx="2.5" ry="2.5" style="stroke:#181818;stroke-width:0.5;" width="110" x="1876.5" y="71"/><text fill="#000000" font-family="sans-serif" font-size="14" font-style="italic" lengthAdjust="spacing" textLength="62" x="1900.5" y="90.6738">&#171;domain&#187;</text><text fill="#000000" font-family="sans-serif" font-size="14" lengthAdjust="spacing" textLength="96" x="1883.5" y="106.3145">:ApplicationFile</text><rect fill="#E3E3E3" height="45.2813" rx="2.5" ry="2.5" style="stroke:#181818;stroke-width:0.5;" width="110" x="1876.5" y="1099.0234"/><text fill="#000000" font-family="sans-serif" font-size="14" font-style="italic" lengthAdjust="spacing" textLength="62" x="1900.5" y="1118.6973">&#171;domain&#187;</text><text fill="#000000" font-family="sans-serif" font-size="14" lengthAdjust="spacing" textLength="96" x="1883.5" y="1134.3379">:ApplicationFile</text><rect fill="#E3E3E3" height="45.2813" rx="2.5" ry="2.5" style="stroke:#181818;stroke-width:0.5;" width="87" x="1996.5" y="71"/><text fill="#000000" font-family="sans-serif" font-size="14" font-style="italic" lengthAdjust="spacing" textLength="62" x="2009" y="90.6738">&#171;domain&#187;</text><text fill="#000000" font-family="sans-serif" font-size="14" lengthAdjust="spacing" textLength="73" x="2003.5" y="106.3145">:Notification</text><rect fill="#E3E3E3" height="45.2813" rx="2.5" ry="2.5" style="stroke:#181818;stroke-width:0.5;" width="87" x="1996.5" y="1099.0234"/><text fill="#000000" font-family="sans-serif" font-size="14" font-style="italic" lengthAdjust="spacing" textLength="62" x="2009" y="1118.6973">&#171;domain&#187;</text><text fill="#000000" font-family="sans-serif" font-size="14" lengthAdjust="spacing" textLength="73" x="2003.5" y="1134.3379">:Notification</text><rect fill="#E3E3E3" height="45.2813" rx="2.5" ry="2.5" style="stroke:#181818;stroke-width:0.5;" width="155" x="2093.5" y="71"/><text fill="#000000" font-family="sans-serif" font-size="14" font-style="italic" lengthAdjust="spacing" textLength="79" x="2131.5" y="90.6738">&#171;repository&#187;</text><text fill="#000000" font-family="sans-serif" font-size="14" lengthAdjust="spacing" textLength="141" x="2100.5" y="106.3145">:NotificationRepository</text><rect fill="#E3E3E3" height="45.2813" rx="2.5" ry="2.5" style="stroke:#181818;stroke-width:0.5;" width="155" x="2093.5" y="1099.0234"/><text fill="#000000" font-family="sans-serif" font-size="14" font-style="italic" lengthAdjust="spacing" textLength="79" x="2131.5" y="1118.6973">&#171;repository&#187;</text><text fill="#000000" font-family="sans-serif" font-size="14" lengthAdjust="spacing" textLength="141" x="2100.5" y="1134.3379">:NotificationRepository</text><rect fill="#FFFFFF" height="954.7422" style="stroke:#181818;stroke-width:1.0;" width="10" x="63.5" y="127.2813"/><rect fill="#FFFFFF" height="215.8984" style="stroke:#181818;stroke-width:1.0;" width="10" x="432.5" y="147.8047"/><rect fill="#FFFFFF" height="689.7969" style="stroke:#181818;stroke-width:1.0;" width="10" x="432.5" y="392.2266"/><rect fill="#FFFFFF" height="85.5703" style="stroke:#181818;stroke-width:1.0;" width="10" x="898.5" y="249.6094"/><rect fill="#FFFFFF" height="85.5703" style="stroke:#181818;stroke-width:1.0;" width="10" x="898.5" y="420.75"/><rect fill="#FFFFFF" height="85.5703" style="stroke:#181818;stroke-width:1.0;" width="10" x="898.5" y="558.3672"/><rect fill="#FFFFFF" height="170.375" style="stroke:#181818;stroke-width:1.0;" width="10" x="898.5" y="719.5078"/><rect fill="#FFFFFF" height="114.0938" style="stroke:#181818;stroke-width:1.0;" width="10" x="898.5" y="918.4063"/><rect fill="#FFFFFF" height="28.5234" style="stroke:#181818;stroke-width:1.0;" width="10" x="1191.5" y="278.1328"/><rect fill="#FFFFFF" height="28.5234" style="stroke:#181818;stroke-width:1.0;" width="10" x="1371" y="449.2734"/><rect fill="#FFFFFF" height="28.5234" style="stroke:#181818;stroke-width:1.0;" width="10" x="1554" y="804.3125"/><rect fill="#FFFFFF" height="28.5234" style="stroke:#181818;stroke-width:1.0;" width="10" x="1807" y="586.8906"/><rect fill="#FFFFFF" height="28.5234" style="stroke:#181818;stroke-width:1.0;" width="10" x="2035" y="946.9297"/><polygon fill="#181818" points="420.5,143.8047,430.5,147.8047,420.5,151.8047,424.5,147.8047" style="stroke:#181818;stroke-width:1.0;"/><line style="stroke:#181818;stroke-width:1.0;" x1="73.5" x2="426.5" y1="147.8047" y2="147.8047"/><text fill="#000000" font-family="sans-serif" font-size="13" font-weight="bold" lengthAdjust="spacing" textLength="7" x="80.5" y="143.0498">1</text><text fill="#000000" font-family="sans-serif" font-size="13" lengthAdjust="spacing" textLength="276" x="91.5" y="143.0498">asks to verify the requirements for a job opening</text><polygon fill="#181818" points="713.5,172.3281,723.5,176.3281,713.5,180.3281,717.5,176.3281" style="stroke:#181818;stroke-width:1.0;"/><line style="stroke:#181818;stroke-width:1.0;" x1="442.5" x2="719.5" y1="176.3281" y2="176.3281"/><text fill="#000000" font-family="sans-serif" font-size="13" font-weight="bold" lengthAdjust="spacing" textLength="7" x="449.5" y="171.5732">2</text><text fill="#000000" font-family="sans-serif" font-size="13" lengthAdjust="spacing" textLength="36" x="460.5" y="171.5732">create</text><text fill="#000000" font-family="sans-serif" font-size="14" font-style="italic" lengthAdjust="spacing" textLength="84" x="858.5" y="200.4785">&#171;application&#187;</text><text fill="#000000" font-family="sans-serif" font-size="14" lengthAdjust="spacing" textLength="350" x="725.5" y="216.1191">:ExecuteVerificationRequirementsJobOpeningController</text><ellipse cx="903.5" cy="171.8047" fill="#E3E3E3" rx="12" ry="12" style="stroke:#181818;stroke-width:0.5;"/><polygon fill="#181818" points="899.5,159.8047,905.5,154.8047,903.5,159.8047,905.5,164.8047,899.5,159.8047" style="stroke:#181818;stroke-width:1.0;"/><polygon fill="#181818" points="886.5,245.6094,896.5,249.6094,886.5,253.6094,890.5,249.6094" style="stroke:#181818;stroke-width:1.0;"/><line style="stroke:#181818;stroke-width:1.0;" x1="442.5" x2="892.5" y1="249.6094" y2="249.6094"/><text fill="#000000" font-family="sans-serif" font-size="13" font-weight="bold" lengthAdjust="spacing" textLength="7" x="449.5" y="244.8545">3</text><text fill="#000000" font-family="sans-serif" font-size="13" lengthAdjust="spacing" textLength="253" x="460.5" y="244.8545">allActiveJobOpeningsByCustomerManager()</text><polygon fill="#181818" points="1179.5,274.1328,1189.5,278.1328,1179.5,282.1328,1183.5,278.1328" style="stroke:#181818;stroke-width:1.0;"/><line style="stroke:#181818;stroke-width:1.0;" x1="908.5" x2="1185.5" y1="278.1328" y2="278.1328"/><text fill="#000000" font-family="sans-serif" font-size="13" font-weight="bold" lengthAdjust="spacing" textLength="7" x="915.5" y="273.3779">4</text><text fill="#000000" font-family="sans-serif" font-size="13" lengthAdjust="spacing" textLength="253" x="926.5" y="273.3779">allActiveJobOpeningsByCustomerManager()</text><polygon fill="#181818" points="919.5,302.6563,909.5,306.6563,919.5,310.6563,915.5,306.6563" style="stroke:#181818;stroke-width:1.0;"/><line style="stroke:#181818;stroke-width:1.0;stroke-dasharray:2.0,2.0;" x1="913.5" x2="1195.5" y1="306.6563" y2="306.6563"/><text fill="#000000" font-family="sans-serif" font-size="13" font-weight="bold" lengthAdjust="spacing" textLength="7" x="925.5" y="301.9014">5</text><text fill="#000000" font-family="sans-serif" font-size="13" lengthAdjust="spacing" textLength="86" x="936.5" y="301.9014">jobOpeningList</text><polygon fill="#181818" points="453.5,331.1797,443.5,335.1797,453.5,339.1797,449.5,335.1797" style="stroke:#181818;stroke-width:1.0;"/><line style="stroke:#181818;stroke-width:1.0;stroke-dasharray:2.0,2.0;" x1="447.5" x2="902.5" y1="335.1797" y2="335.1797"/><text fill="#000000" font-family="sans-serif" font-size="13" font-weight="bold" lengthAdjust="spacing" textLength="7" x="459.5" y="330.4248">6</text><text fill="#000000" font-family="sans-serif" font-size="13" lengthAdjust="spacing" textLength="86" x="470.5" y="330.4248">jobOpeningList</text><polygon fill="#181818" points="84.5,359.7031,74.5,363.7031,84.5,367.7031,80.5,363.7031" style="stroke:#181818;stroke-width:1.0;"/><line style="stroke:#181818;stroke-width:1.0;stroke-dasharray:2.0,2.0;" x1="78.5" x2="436.5" y1="363.7031" y2="363.7031"/><text fill="#000000" font-family="sans-serif" font-size="13" font-weight="bold" lengthAdjust="spacing" textLength="7" x="90.5" y="358.9482">7</text><text fill="#000000" font-family="sans-serif" font-size="13" lengthAdjust="spacing" textLength="324" x="101.5" y="358.9482">shows list of all the job openings and asks to select one</text><polygon fill="#181818" points="420.5,388.2266,430.5,392.2266,420.5,396.2266,424.5,392.2266" style="stroke:#181818;stroke-width:1.0;"/><line style="stroke:#181818;stroke-width:1.0;" x1="73.5" x2="426.5" y1="392.2266" y2="392.2266"/><text fill="#000000" font-family="sans-serif" font-size="13" font-weight="bold" lengthAdjust="spacing" textLength="7" x="80.5" y="387.4717">8</text><text fill="#000000" font-family="sans-serif" font-size="13" lengthAdjust="spacing" textLength="123" x="91.5" y="387.4717">selects a job opening</text><polygon fill="#181818" points="886.5,416.75,896.5,420.75,886.5,424.75,890.5,420.75" style="stroke:#181818;stroke-width:1.0;"/><line style="stroke:#181818;stroke-width:1.0;" x1="442.5" x2="892.5" y1="420.75" y2="420.75"/><text fill="#000000" font-family="sans-serif" font-size="13" font-weight="bold" lengthAdjust="spacing" textLength="7" x="449.5" y="415.9951">9</text><text fill="#000000" font-family="sans-serif" font-size="13" lengthAdjust="spacing" textLength="336" x="460.5" y="415.9951">allWaitingApplicationsByJobOpening(jobOpeningSelected)</text><polygon fill="#181818" points="1359,445.2734,1369,449.2734,1359,453.2734,1363,449.2734" style="stroke:#181818;stroke-width:1.0;"/><line style="stroke:#181818;stroke-width:1.0;" x1="908.5" x2="1365" y1="449.2734" y2="449.2734"/><text fill="#000000" font-family="sans-serif" font-size="13" font-weight="bold" lengthAdjust="spacing" textLength="14" x="915.5" y="444.5186">10</text><text fill="#000000" font-family="sans-serif" font-size="13" lengthAdjust="spacing" textLength="340" x="933.5" y="444.5186">allWaitingApplicationsByJobOpening(jobOpeningSelected))</text><polygon fill="#181818" points="919.5,473.7969,909.5,477.7969,919.5,481.7969,915.5,477.7969" style="stroke:#181818;stroke-width:1.0;"/><line style="stroke:#181818;stroke-width:1.0;stroke-dasharray:2.0,2.0;" x1="913.5" x2="1375" y1="477.7969" y2="477.7969"/><text fill="#000000" font-family="sans-serif" font-size="13" font-weight="bold" lengthAdjust="spacing" textLength="14" x="925.5" y="473.042">11</text><text fill="#000000" font-family="sans-serif" font-size="13" lengthAdjust="spacing" textLength="109" x="943.5" y="473.042">jobApplicationsList</text><polygon fill="#181818" points="453.5,502.3203,443.5,506.3203,453.5,510.3203,449.5,506.3203" style="stroke:#181818;stroke-width:1.0;"/><line style="stroke:#181818;stroke-width:1.0;" x1="447.5" x2="902.5" y1="506.3203" y2="506.3203"/><text fill="#000000" font-family="sans-serif" font-size="13" font-weight="bold" lengthAdjust="spacing" textLength="14" x="459.5" y="501.5654">12</text><text fill="#000000" font-family="sans-serif" font-size="13" lengthAdjust="spacing" textLength="109" x="477.5" y="501.5654">jobApplicationsList</text><path d="M250.5,521.3203 L323.5,521.3203 L323.5,527.8438 L313.5,537.8438 L250.5,537.8438 L250.5,521.3203 " fill="#EEEEEE" style="stroke:#000000;stroke-width:1.5;"/><rect fill="none" height="533.1797" style="stroke:#000000;stroke-width:1.5;" width="2028" x="250.5" y="521.3203"/><text fill="#000000" font-family="sans-serif" font-size="13" font-weight="bold" lengthAdjust="spacing" textLength="28" x="265.5" y="534.0889">loop</text><text fill="#000000" font-family="sans-serif" font-size="11" font-weight="bold" lengthAdjust="spacing" textLength="87" x="338.5" y="533.2783">[job application]</text><polygon fill="#181818" points="886.5,554.3672,896.5,558.3672,886.5,562.3672,890.5,558.3672" style="stroke:#181818;stroke-width:1.0;"/><line style="stroke:#181818;stroke-width:1.0;" x1="442.5" x2="892.5" y1="558.3672" y2="558.3672"/><text fill="#000000" font-family="sans-serif" font-size="13" font-weight="bold" lengthAdjust="spacing" textLength="14" x="449.5" y="553.6123">13</text><text fill="#000000" font-family="sans-serif" font-size="13" lengthAdjust="spacing" textLength="219" x="467.5" y="553.6123">filePathsRequirements(jobApplication)</text><polygon fill="#181818" points="1795,582.8906,1805,586.8906,1795,590.8906,1799,586.8906" style="stroke:#181818;stroke-width:1.0;"/><line style="stroke:#181818;stroke-width:1.0;" x1="908.5" x2="1801" y1="586.8906" y2="586.8906"/><text fill="#000000" font-family="sans-serif" font-size="13" font-weight="bold" lengthAdjust="spacing" textLength="14" x="915.5" y="582.1357">14</text><text fill="#000000" font-family="sans-serif" font-size="13" lengthAdjust="spacing" textLength="138" x="933.5" y="582.1357">filePathsRequirements()</text><polygon fill="#181818" points="919.5,611.4141,909.5,615.4141,919.5,619.4141,915.5,615.4141" style="stroke:#181818;stroke-width:1.0;"/><line style="stroke:#181818;stroke-width:1.0;stroke-dasharray:2.0,2.0;" x1="913.5" x2="1811" y1="615.4141" y2="615.4141"/><text fill="#000000" font-family="sans-serif" font-size="13" font-weight="bold" lengthAdjust="spacing" textLength="14" x="925.5" y="610.6592">15</text><text fill="#000000" font-family="sans-serif" font-size="13" lengthAdjust="spacing" textLength="52" x="943.5" y="610.6592">reqPaths</text><polygon fill="#181818" points="453.5,639.9375,443.5,643.9375,453.5,647.9375,449.5,643.9375" style="stroke:#181818;stroke-width:1.0;"/><line style="stroke:#181818;stroke-width:1.0;" x1="447.5" x2="902.5" y1="643.9375" y2="643.9375"/><text fill="#000000" font-family="sans-serif" font-size="13" font-weight="bold" lengthAdjust="spacing" textLength="14" x="459.5" y="639.1826">16</text><text fill="#000000" font-family="sans-serif" font-size="13" lengthAdjust="spacing" textLength="23" x="477.5" y="639.1826">files</text><path d="M260.5,658.9375 L321.5,658.9375 L321.5,665.4609 L311.5,675.4609 L260.5,675.4609 L260.5,658.9375 " fill="#EEEEEE" style="stroke:#000000;stroke-width:1.5;"/><rect fill="none" height="388.5625" style="stroke:#000000;stroke-width:1.5;" width="2008" x="260.5" y="658.9375"/><text fill="#000000" font-family="sans-serif" font-size="13" font-weight="bold" lengthAdjust="spacing" textLength="16" x="275.5" y="671.7061">alt</text><text fill="#000000" font-family="sans-serif" font-size="11" font-weight="bold" lengthAdjust="spacing" textLength="79" x="336.5" y="670.8955">[reqPaths != 0]</text><path d="M270.5,682.4609 L343.5,682.4609 L343.5,688.9844 L333.5,698.9844 L270.5,698.9844 L270.5,682.4609 " fill="#EEEEEE" style="stroke:#000000;stroke-width:1.5;"/><rect fill="none" height="358.0391" style="stroke:#000000;stroke-width:1.5;" width="1988" x="270.5" y="682.4609"/><text fill="#000000" font-family="sans-serif" font-size="13" font-weight="bold" lengthAdjust="spacing" textLength="28" x="285.5" y="695.2295">loop</text><text fill="#000000" font-family="sans-serif" font-size="11" font-weight="bold" lengthAdjust="spacing" textLength="25" x="358.5" y="694.4189">[file]</text><polygon fill="#181818" points="886.5,715.5078,896.5,719.5078,886.5,723.5078,890.5,719.5078" style="stroke:#181818;stroke-width:1.0;"/><line style="stroke:#181818;stroke-width:1.0;" x1="442.5" x2="892.5" y1="719.5078" y2="719.5078"/><text fill="#000000" font-family="sans-serif" font-size="13" font-weight="bold" lengthAdjust="spacing" textLength="14" x="449.5" y="714.7529">17</text><text fill="#000000" font-family="sans-serif" font-size="13" lengthAdjust="spacing" textLength="346" x="467.5" y="714.7529">verifyRequirements(file, jobApplication, jobOpeningSelected)</text><polygon fill="#181818" points="1462.5,744.0313,1472.5,748.0313,1462.5,752.0313,1466.5,748.0313" style="stroke:#181818;stroke-width:1.0;"/><line style="stroke:#181818;stroke-width:1.0;" x1="908.5" x2="1468.5" y1="748.0313" y2="748.0313"/><text fill="#000000" font-family="sans-serif" font-size="13" font-weight="bold" lengthAdjust="spacing" textLength="14" x="915.5" y="743.2764">18</text><text fill="#000000" font-family="sans-serif" font-size="13" lengthAdjust="spacing" textLength="36" x="933.5" y="743.2764">create</text><rect fill="#E3E3E3" height="45.2813" rx="2.5" ry="2.5" style="stroke:#181818;stroke-width:0.5;" width="169" x="1474.5" y="727.5078"/><text fill="#000000" font-family="sans-serif" font-size="14" font-style="italic" lengthAdjust="spacing" textLength="155" x="1481.5" y="747.1816">&#171;requirementsInterface&#187;</text><text fill="#000000" font-family="sans-serif" font-size="14" lengthAdjust="spacing" textLength="110" x="1504" y="762.8223">jarClass :jarClass</text><polygon fill="#181818" points="1542,800.3125,1552,804.3125,1542,808.3125,1546,804.3125" style="stroke:#181818;stroke-width:1.0;"/><line style="stroke:#181818;stroke-width:1.0;" x1="908.5" x2="1548" y1="804.3125" y2="804.3125"/><text fill="#000000" font-family="sans-serif" font-size="13" font-weight="bold" lengthAdjust="spacing" textLength="14" x="915.5" y="799.5576">19</text><text fill="#000000" font-family="sans-serif" font-size="13" lengthAdjust="spacing" textLength="133" x="933.5" y="799.5576">verifyRequirements(file)</text><polygon fill="#181818" points="919.5,828.8359,909.5,832.8359,919.5,836.8359,915.5,832.8359" style="stroke:#181818;stroke-width:1.0;"/><line style="stroke:#181818;stroke-width:1.0;stroke-dasharray:2.0,2.0;" x1="913.5" x2="1558" y1="832.8359" y2="832.8359"/><text fill="#000000" font-family="sans-serif" font-size="13" font-weight="bold" lengthAdjust="spacing" textLength="14" x="925.5" y="828.0811">20</text><text fill="#000000" font-family="sans-serif" font-size="13" lengthAdjust="spacing" textLength="22" x="943.5" y="828.0811">true</text><polygon fill="#181818" points="1800,857.3594,1810,861.3594,1800,865.3594,1804,861.3594" style="stroke:#181818;stroke-width:1.0;"/><line style="stroke:#181818;stroke-width:1.0;" x1="908.5" x2="1806" y1="861.3594" y2="861.3594"/><text fill="#000000" font-family="sans-serif" font-size="13" font-weight="bold" lengthAdjust="spacing" textLength="14" x="915.5" y="856.6045">21</text><text fill="#000000" font-family="sans-serif" font-size="13" lengthAdjust="spacing" textLength="118" x="933.5" y="856.6045">ApproveApplication()</text><polygon fill="#181818" points="453.5,885.8828,443.5,889.8828,453.5,893.8828,449.5,889.8828" style="stroke:#181818;stroke-width:1.0;"/><line style="stroke:#181818;stroke-width:1.0;stroke-dasharray:2.0,2.0;" x1="447.5" x2="902.5" y1="889.8828" y2="889.8828"/><text fill="#000000" font-family="sans-serif" font-size="13" font-weight="bold" lengthAdjust="spacing" textLength="14" x="459.5" y="885.1279">22</text><text fill="#000000" font-family="sans-serif" font-size="13" lengthAdjust="spacing" textLength="25" x="477.5" y="885.1279">valid</text><polygon fill="#181818" points="886.5,914.4063,896.5,918.4063,886.5,922.4063,890.5,918.4063" style="stroke:#181818;stroke-width:1.0;"/><line style="stroke:#181818;stroke-width:1.0;" x1="442.5" x2="892.5" y1="918.4063" y2="918.4063"/><text fill="#000000" font-family="sans-serif" font-size="13" font-weight="bold" lengthAdjust="spacing" textLength="14" x="449.5" y="913.6514">23</text><text fill="#000000" font-family="sans-serif" font-size="13" lengthAdjust="spacing" textLength="419" x="467.5" y="913.6514">notifyCandidate(message, customerManagerEmail, jobOpeningSelected)</text><polygon fill="#181818" points="2023,942.9297,2033,946.9297,2023,950.9297,2027,946.9297" style="stroke:#181818;stroke-width:1.0;"/><line style="stroke:#181818;stroke-width:1.0;" x1="908.5" x2="2029" y1="946.9297" y2="946.9297"/><text fill="#000000" font-family="sans-serif" font-size="13" font-weight="bold" lengthAdjust="spacing" textLength="14" x="915.5" y="942.1748">24</text><text fill="#000000" font-family="sans-serif" font-size="13" lengthAdjust="spacing" textLength="510" x="933.5" y="942.1748">notification(candidateEmail, customerManagerEmail, title, subject , notificationMessage)</text><polygon fill="#181818" points="919.5,971.4531,909.5,975.4531,919.5,979.4531,915.5,975.4531" style="stroke:#181818;stroke-width:1.0;"/><line style="stroke:#181818;stroke-width:1.0;stroke-dasharray:2.0,2.0;" x1="913.5" x2="2039" y1="975.4531" y2="975.4531"/><text fill="#000000" font-family="sans-serif" font-size="13" font-weight="bold" lengthAdjust="spacing" textLength="14" x="925.5" y="970.6982">25</text><text fill="#000000" font-family="sans-serif" font-size="13" lengthAdjust="spacing" textLength="62" x="943.5" y="970.6982">notification</text><polygon fill="#181818" points="2159,999.9766,2169,1003.9766,2159,1007.9766,2163,1003.9766" style="stroke:#181818;stroke-width:1.0;"/><line style="stroke:#181818;stroke-width:1.0;" x1="908.5" x2="2165" y1="1003.9766" y2="1003.9766"/><text fill="#000000" font-family="sans-serif" font-size="13" font-weight="bold" lengthAdjust="spacing" textLength="14" x="915.5" y="999.2217">26</text><text fill="#000000" font-family="sans-serif" font-size="13" lengthAdjust="spacing" textLength="96" x="933.5" y="999.2217">save(notification)</text><polygon fill="#181818" points="453.5,1028.5,443.5,1032.5,453.5,1036.5,449.5,1032.5" style="stroke:#181818;stroke-width:1.0;"/><line style="stroke:#181818;stroke-width:1.0;stroke-dasharray:2.0,2.0;" x1="447.5" x2="902.5" y1="1032.5" y2="1032.5"/><text fill="#000000" font-family="sans-serif" font-size="13" font-weight="bold" lengthAdjust="spacing" textLength="14" x="459.5" y="1027.7451">27</text><text fill="#000000" font-family="sans-serif" font-size="13" lengthAdjust="spacing" textLength="115" x="477.5" y="1027.7451">notificationMessage</text><polygon fill="#181818" points="79.5,1078.0234,69.5,1082.0234,79.5,1086.0234,75.5,1082.0234" style="stroke:#181818;stroke-width:1.0;"/><line style="stroke:#181818;stroke-width:1.0;stroke-dasharray:2.0,2.0;" x1="73.5" x2="436.5" y1="1082.0234" y2="1082.0234"/><text fill="#000000" font-family="sans-serif" font-size="13" font-weight="bold" lengthAdjust="spacing" textLength="14" x="85.5" y="1077.2686">28</text><text fill="#000000" font-family="sans-serif" font-size="13" lengthAdjust="spacing" textLength="273" x="103.5" y="1077.2686">shows notificationMessage and Application info</text><!--SRC=[dLTBanet4BxhLtIuX7L1oZxuGjbKOU9KaJ9EYZNsMGpDebqXJIJ1cd-VbeQPqSo8b-UqIDrVV_tMsXUXScxu3dPQwMnhz0x1cJqoMztaF7lXJ_ZeZXB1OEQuUfAnWDtojNuLwWasN5faZE-TLllT2WrZJZXIwoqVtxrzznw6CB4mtLj7TWpCkI9WCu0Pl7Bbm6d0dvZj7N7O8kH6PsWjw0qSq8YDoBWJMldV1l_R2uCxL2xSypoNfsiB6ss0mxDUWSvH4Qy_Ul182gWoX3y5VoBIxFUjM2E9QhVIFndF72drsinwm8dkd96VJcGYzoHxeyy5n-yHfqN4vs-z-gUmkvm5WEKCFdp83Lgw3TBZCSkqSaRBUz2cXOeiQNrRV27So7E2RHAjTHUOQol8nsFGJLq0WPdgLmfhKflguYKlBsC-SpELd18yAlygm2QBe5R7OAOScWtFy8A7BRy8OQrtNAWhZYJedrUDXFuI4eDkw-oyybVjgWG7pVZWDhLMrDDNdPZxuXO7Jar5bSo0lkaSXcDVbYE2UR6-xqA37KFRDNghqqi5GWMvd1K7_YD0WlLr-UODGMS6IOAbxhrXAISU1EkSsK_7iW5F_TT_Q9dpoXNUwVDdX9kiwJljH5zbCeNRaKu93MjddwlhByAwZlOQxxCMF2upU04xmWs1OwraU89pWh1R_Mf1adgOfLA6EeYIRe6hTLKh5YLj0T0A2xZ8J5aEKOKLqhPLHHUAQ3YkI-G75ux4eoQZvDKnwjVEFmOpk7vWdGmMldVB9JsoVjLkjuGQDPGqbggZf62pbc9QDnJKRQQBk2ndTrjeXbTgdOTCHukfczqHR6XO_ilTriRBhjyq_MkvX7FWKOREX8Ubyr16V-HdOy1bLoCTHQoEhETb6RiQH2vTPGf- -mXlc-7rCAcO5aEyuRCN7RGoEe1BRNCbvEsIyNrE6pkU-5T4p_9yI6hMyPqiaWB-lH3rHtYzfkJYL17KMPh3SJEJVkqRVS3eAB4lui4Svjw1Ix5crvYSvd9Agiwhyel-EAKPBDQarD_HgvZMrW2ovXhxJ2y8ULjsxyZmSDnugPpeb978IbOdusbAuR-00TZzwjclZa43OrwuSoQc5SkOHLeqbXXMQqHTrOloqJHoOqmQsyFo0_PZcm_iIh6CKj6uhNBASwJrx4T3uu2cI8LI2JGU0MS7KFTraA0O7WNnu1LgevDFWjHXR7lE_WS0]--></g></svg>