<?xml version="1.0" encoding="us-ascii" standalone="no"?><svg xmlns="http://www.w3.org/2000/svg" xmlns:xlink="http://www.w3.org/1999/xlink" contentStyleType="text/css" height="971px" preserveAspectRatio="none" style="width:2260px;height:971px;background:#FFFFFF;" version="1.1" viewBox="0 0 2260 971" width="2260px" zoomAndPan="magnify"><defs/><g><!--cluster Job Opening Aggregate--><g id="cluster_Job Opening Aggregate"><path d="M8.5,6 L176.5,6 A3.75,3.75 0 0 1 179,8.5 L186,27.6406 L1384.5,27.6406 A2.5,2.5 0 0 1 1387,30.1406 L1387,673 A2.5,2.5 0 0 1 1384.5,675.5 L8.5,675.5 A2.5,2.5 0 0 1 6,673 L6,8.5 A2.5,2.5 0 0 1 8.5,6 " fill="none" style="stroke:#000000;stroke-width:1.5;"/><line style="stroke:#000000;stroke-width:1.5;" x1="6" x2="186" y1="27.6406" y2="27.6406"/><text fill="#000000" font-family="sans-serif" font-size="14" font-weight="bold" lengthAdjust="spacing" textLength="167" x="10" y="20.6738">Job Opening Aggregate</text></g><!--cluster Notification Aggregate--><g id="cluster_Notification Aggregate"><path d="M1328.5,723.5 L1486.5,723.5 A3.75,3.75 0 0 1 1489,726 L1496,745.1406 L1496.5,745.1406 A2.5,2.5 0 0 1 1499,747.6406 L1499,828 A2.5,2.5 0 0 1 1496.5,830.5 L1328.5,830.5 A2.5,2.5 0 0 1 1326,828 L1326,726 A2.5,2.5 0 0 1 1328.5,723.5 " fill="none" style="stroke:#000000;stroke-width:1.5;"/><line style="stroke:#000000;stroke-width:1.5;" x1="1326" x2="1496" y1="745.1406" y2="745.1406"/><text fill="#000000" font-family="sans-serif" font-size="14" font-weight="bold" lengthAdjust="spacing" textLength="157" x="1330" y="738.1738">Notification Aggregate</text></g><!--cluster Plugin Aggregate--><g id="cluster_Plugin Aggregate"><path d="M1413.5,37 L1535.5,37 A3.75,3.75 0 0 1 1538,39.5 L1545,58.6406 L2250.5,58.6406 A2.5,2.5 0 0 1 2253,61.1406 L2253,337.5 A2.5,2.5 0 0 1 2250.5,340 L1413.5,340 A2.5,2.5 0 0 1 1411,337.5 L1411,39.5 A2.5,2.5 0 0 1 1413.5,37 " fill="none" style="stroke:#000000;stroke-width:1.5;"/><line style="stroke:#000000;stroke-width:1.5;" x1="1411" x2="1545" y1="58.6406" y2="58.6406"/><text fill="#000000" font-family="sans-serif" font-size="14" font-weight="bold" lengthAdjust="spacing" textLength="121" x="1415" y="51.6738">Plugin Aggregate</text></g><!--cluster JobApplication Aggregate--><g id="cluster_JobApplication Aggregate"><path d="M1541.5,537 L1723.5,537 A3.75,3.75 0 0 1 1726,539.5 L1733,558.6406 L2169.5,558.6406 A2.5,2.5 0 0 1 2172,561.1406 L2172,962 A2.5,2.5 0 0 1 2169.5,964.5 L1541.5,964.5 A2.5,2.5 0 0 1 1539,962 L1539,539.5 A2.5,2.5 0 0 1 1541.5,537 " fill="none" style="stroke:#000000;stroke-width:1.5;"/><line style="stroke:#000000;stroke-width:1.5;" x1="1539" x2="1733" y1="558.6406" y2="558.6406"/><text fill="#000000" font-family="sans-serif" font-size="14" font-weight="bold" lengthAdjust="spacing" textLength="181" x="1543" y="551.6738">JobApplication Aggregate</text></g><!--class RecruitmentProcess--><g id="elem_RecruitmentProcess"><rect codeLine="5" fill="#F1F1F1" height="72.9219" id="RecruitmentProcess" rx="2.5" ry="2.5" style="stroke:#181818;stroke-width:0.5;" width="159" x="184.5" y="402"/><ellipse cx="199.5" cy="422.6406" fill="#ADD1B2" rx="11" ry="11" style="stroke:#181818;stroke-width:1.0;"/><path d="M202.2656,418.5156 Q202.4219,418.2969 202.6094,418.1875 Q202.7969,418.0781 203.0156,418.0781 Q203.3906,418.0781 203.625,418.3438 Q203.8594,418.5938 203.8594,419.2031 L203.8594,420.6563 Q203.8594,421.2656 203.625,421.5313 Q203.3906,421.7969 203.0156,421.7969 Q202.6719,421.7969 202.4688,421.5938 Q202.2656,421.4063 202.1563,420.8906 Q202.1094,420.5313 201.9219,420.3438 Q201.5938,419.9688 200.9844,419.75 Q200.375,419.5313 199.75,419.5313 Q198.9844,419.5313 198.3438,419.8594 Q197.7188,420.1875 197.2188,420.9375 Q196.7344,421.6875 196.7344,422.7188 L196.7344,423.8125 Q196.7344,425.0469 197.625,425.875 Q198.5156,426.6875 200.1094,426.6875 Q201.0469,426.6875 201.7031,426.4375 Q202.0938,426.2813 202.5156,425.8438 Q202.7813,425.5781 202.9219,425.5 Q203.0781,425.4219 203.2813,425.4219 Q203.6094,425.4219 203.8594,425.6875 Q204.125,425.9375 204.125,426.2813 Q204.125,426.625 203.7813,427.0313 Q203.2813,427.6094 202.4844,427.9375 Q201.4063,428.3906 200.1094,428.3906 Q198.5938,428.3906 197.3906,427.7656 Q196.4063,427.2656 195.7188,426.2031 Q195.0313,425.125 195.0313,423.8438 L195.0313,422.6875 Q195.0313,421.3594 195.6406,420.2188 Q196.2656,419.0625 197.3594,418.4531 Q198.4531,417.8281 199.6875,417.8281 Q200.4219,417.8281 201.0625,418 Q201.7188,418.1563 202.2656,418.5156 Z " fill="#000000"/><text fill="#000000" font-family="sans-serif" font-size="14" lengthAdjust="spacing" textLength="50" x="252" y="419.6738">&#171;entity&#187;</text><text fill="#000000" font-family="sans-serif" font-size="14" lengthAdjust="spacing" textLength="127" x="213.5" y="435.3145">RecruitmentProcess</text><line style="stroke:#181818;stroke-width:0.5;" x1="185.5" x2="342.5" y1="443.2813" y2="443.2813"/><text fill="#000000" font-family="sans-serif" font-size="14" lengthAdjust="spacing" textLength="119" x="190.5" y="459.9551">HasInterviewPhase</text><line style="stroke:#181818;stroke-width:0.5;" x1="185.5" x2="342.5" y1="466.9219" y2="466.9219"/></g><!--class Phase--><g id="elem_Phase"><rect codeLine="9" fill="#F1F1F1" height="104.2031" id="Phase" rx="2.5" ry="2.5" style="stroke:#181818;stroke-width:0.5;" width="87" x="947.5" y="555.5"/><ellipse cx="964.75" cy="576.1406" fill="#ADD1B2" rx="11" ry="11" style="stroke:#181818;stroke-width:1.0;"/><path d="M967.5156,572.0156 Q967.6719,571.7969 967.8594,571.6875 Q968.0469,571.5781 968.2656,571.5781 Q968.6406,571.5781 968.875,571.8438 Q969.1094,572.0938 969.1094,572.7031 L969.1094,574.1563 Q969.1094,574.7656 968.875,575.0313 Q968.6406,575.2969 968.2656,575.2969 Q967.9219,575.2969 967.7188,575.0938 Q967.5156,574.9063 967.4063,574.3906 Q967.3594,574.0313 967.1719,573.8438 Q966.8438,573.4688 966.2344,573.25 Q965.625,573.0313 965,573.0313 Q964.2344,573.0313 963.5938,573.3594 Q962.9688,573.6875 962.4688,574.4375 Q961.9844,575.1875 961.9844,576.2188 L961.9844,577.3125 Q961.9844,578.5469 962.875,579.375 Q963.7656,580.1875 965.3594,580.1875 Q966.2969,580.1875 966.9531,579.9375 Q967.3438,579.7813 967.7656,579.3438 Q968.0313,579.0781 968.1719,579 Q968.3281,578.9219 968.5313,578.9219 Q968.8594,578.9219 969.1094,579.1875 Q969.375,579.4375 969.375,579.7813 Q969.375,580.125 969.0313,580.5313 Q968.5313,581.1094 967.7344,581.4375 Q966.6563,581.8906 965.3594,581.8906 Q963.8438,581.8906 962.6406,581.2656 Q961.6563,580.7656 960.9688,579.7031 Q960.2813,578.625 960.2813,577.3438 L960.2813,576.1875 Q960.2813,574.8594 960.8906,573.7188 Q961.5156,572.5625 962.6094,571.9531 Q963.7031,571.3281 964.9375,571.3281 Q965.6719,571.3281 966.3125,571.5 Q966.9688,571.6563 967.5156,572.0156 Z " fill="#000000"/><text fill="#000000" font-family="sans-serif" font-size="14" lengthAdjust="spacing" textLength="50" x="979.25" y="573.1738">&#171;entity&#187;</text><text fill="#000000" font-family="sans-serif" font-size="14" lengthAdjust="spacing" textLength="40" x="984.25" y="588.8145">Phase</text><line style="stroke:#181818;stroke-width:0.5;" x1="948.5" x2="1033.5" y1="596.7813" y2="596.7813"/><text fill="#000000" font-family="sans-serif" font-size="14" lengthAdjust="spacing" textLength="75" x="953.5" y="613.4551">phaseName</text><text fill="#000000" font-family="sans-serif" font-size="14" lengthAdjust="spacing" textLength="58" x="953.5" y="629.0957">startDate</text><text fill="#000000" font-family="sans-serif" font-size="14" lengthAdjust="spacing" textLength="54" x="953.5" y="644.7363">endDate</text><line style="stroke:#181818;stroke-width:0.5;" x1="948.5" x2="1033.5" y1="651.7031" y2="651.7031"/></g><!--class PhaseNames--><g id="elem_PhaseNames"><rect codeLine="15" fill="#F1F1F1" height="57.2813" id="PhaseNames" rx="2.5" ry="2.5" style="stroke:#181818;stroke-width:0.5;" width="124" x="428" y="410"/><ellipse cx="443" cy="430.6406" fill="#ADD1B2" rx="11" ry="11" style="stroke:#181818;stroke-width:1.0;"/><path d="M445.7656,426.5156 Q445.9219,426.2969 446.1094,426.1875 Q446.2969,426.0781 446.5156,426.0781 Q446.8906,426.0781 447.125,426.3438 Q447.3594,426.5938 447.3594,427.2031 L447.3594,428.6563 Q447.3594,429.2656 447.125,429.5313 Q446.8906,429.7969 446.5156,429.7969 Q446.1719,429.7969 445.9688,429.5938 Q445.7656,429.4063 445.6563,428.8906 Q445.6094,428.5313 445.4219,428.3438 Q445.0938,427.9688 444.4844,427.75 Q443.875,427.5313 443.25,427.5313 Q442.4844,427.5313 441.8438,427.8594 Q441.2188,428.1875 440.7188,428.9375 Q440.2344,429.6875 440.2344,430.7188 L440.2344,431.8125 Q440.2344,433.0469 441.125,433.875 Q442.0156,434.6875 443.6094,434.6875 Q444.5469,434.6875 445.2031,434.4375 Q445.5938,434.2813 446.0156,433.8438 Q446.2813,433.5781 446.4219,433.5 Q446.5781,433.4219 446.7813,433.4219 Q447.1094,433.4219 447.3594,433.6875 Q447.625,433.9375 447.625,434.2813 Q447.625,434.625 447.2813,435.0313 Q446.7813,435.6094 445.9844,435.9375 Q444.9063,436.3906 443.6094,436.3906 Q442.0938,436.3906 440.8906,435.7656 Q439.9063,435.2656 439.2188,434.2031 Q438.5313,433.125 438.5313,431.8438 L438.5313,430.6875 Q438.5313,429.3594 439.1406,428.2188 Q439.7656,427.0625 440.8594,426.4531 Q441.9531,425.8281 443.1875,425.8281 Q443.9219,425.8281 444.5625,426 Q445.2188,426.1563 445.7656,426.5156 Z " fill="#000000"/><text fill="#000000" font-family="sans-serif" font-size="14" lengthAdjust="spacing" textLength="92" x="457" y="427.6738">&#171;value object&#187;</text><text fill="#000000" font-family="sans-serif" font-size="14" lengthAdjust="spacing" textLength="83" x="461.5" y="443.3145">PhaseNames</text><line style="stroke:#181818;stroke-width:0.5;" x1="429" x2="551" y1="451.2813" y2="451.2813"/><line style="stroke:#181818;stroke-width:0.5;" x1="429" x2="551" y1="459.2813" y2="459.2813"/></g><!--class ScreeningPhase--><g id="elem_ScreeningPhase"><rect codeLine="20" fill="#F1F1F1" height="57.2813" id="ScreeningPhase" rx="2.5" ry="2.5" style="stroke:#181818;stroke-width:0.5;" width="136" x="1235" y="410"/><ellipse cx="1250" cy="430.6406" fill="#ADD1B2" rx="11" ry="11" style="stroke:#181818;stroke-width:1.0;"/><path d="M1252.7656,426.5156 Q1252.9219,426.2969 1253.1094,426.1875 Q1253.2969,426.0781 1253.5156,426.0781 Q1253.8906,426.0781 1254.125,426.3438 Q1254.3594,426.5938 1254.3594,427.2031 L1254.3594,428.6563 Q1254.3594,429.2656 1254.125,429.5313 Q1253.8906,429.7969 1253.5156,429.7969 Q1253.1719,429.7969 1252.9688,429.5938 Q1252.7656,429.4063 1252.6563,428.8906 Q1252.6094,428.5313 1252.4219,428.3438 Q1252.0938,427.9688 1251.4844,427.75 Q1250.875,427.5313 1250.25,427.5313 Q1249.4844,427.5313 1248.8438,427.8594 Q1248.2188,428.1875 1247.7188,428.9375 Q1247.2344,429.6875 1247.2344,430.7188 L1247.2344,431.8125 Q1247.2344,433.0469 1248.125,433.875 Q1249.0156,434.6875 1250.6094,434.6875 Q1251.5469,434.6875 1252.2031,434.4375 Q1252.5938,434.2813 1253.0156,433.8438 Q1253.2813,433.5781 1253.4219,433.5 Q1253.5781,433.4219 1253.7813,433.4219 Q1254.1094,433.4219 1254.3594,433.6875 Q1254.625,433.9375 1254.625,434.2813 Q1254.625,434.625 1254.2813,435.0313 Q1253.7813,435.6094 1252.9844,435.9375 Q1251.9063,436.3906 1250.6094,436.3906 Q1249.0938,436.3906 1247.8906,435.7656 Q1246.9063,435.2656 1246.2188,434.2031 Q1245.5313,433.125 1245.5313,431.8438 L1245.5313,430.6875 Q1245.5313,429.3594 1246.1406,428.2188 Q1246.7656,427.0625 1247.8594,426.4531 Q1248.9531,425.8281 1250.1875,425.8281 Q1250.9219,425.8281 1251.5625,426 Q1252.2188,426.1563 1252.7656,426.5156 Z " fill="#000000"/><text fill="#000000" font-family="sans-serif" font-size="14" lengthAdjust="spacing" textLength="50" x="1291" y="427.6738">&#171;entity&#187;</text><text fill="#000000" font-family="sans-serif" font-size="14" lengthAdjust="spacing" textLength="104" x="1264" y="443.3145">ScreeningPhase</text><line style="stroke:#181818;stroke-width:0.5;" x1="1236" x2="1370" y1="451.2813" y2="451.2813"/><line style="stroke:#181818;stroke-width:0.5;" x1="1236" x2="1370" y1="459.2813" y2="459.2813"/></g><!--class ResultPhase--><g id="elem_ResultPhase"><rect codeLine="24" fill="#F1F1F1" height="57.2813" id="ResultPhase" rx="2.5" ry="2.5" style="stroke:#181818;stroke-width:0.5;" width="112" x="1088" y="410"/><ellipse cx="1103" cy="430.6406" fill="#ADD1B2" rx="11" ry="11" style="stroke:#181818;stroke-width:1.0;"/><path d="M1105.7656,426.5156 Q1105.9219,426.2969 1106.1094,426.1875 Q1106.2969,426.0781 1106.5156,426.0781 Q1106.8906,426.0781 1107.125,426.3438 Q1107.3594,426.5938 1107.3594,427.2031 L1107.3594,428.6563 Q1107.3594,429.2656 1107.125,429.5313 Q1106.8906,429.7969 1106.5156,429.7969 Q1106.1719,429.7969 1105.9688,429.5938 Q1105.7656,429.4063 1105.6563,428.8906 Q1105.6094,428.5313 1105.4219,428.3438 Q1105.0938,427.9688 1104.4844,427.75 Q1103.875,427.5313 1103.25,427.5313 Q1102.4844,427.5313 1101.8438,427.8594 Q1101.2188,428.1875 1100.7188,428.9375 Q1100.2344,429.6875 1100.2344,430.7188 L1100.2344,431.8125 Q1100.2344,433.0469 1101.125,433.875 Q1102.0156,434.6875 1103.6094,434.6875 Q1104.5469,434.6875 1105.2031,434.4375 Q1105.5938,434.2813 1106.0156,433.8438 Q1106.2813,433.5781 1106.4219,433.5 Q1106.5781,433.4219 1106.7813,433.4219 Q1107.1094,433.4219 1107.3594,433.6875 Q1107.625,433.9375 1107.625,434.2813 Q1107.625,434.625 1107.2813,435.0313 Q1106.7813,435.6094 1105.9844,435.9375 Q1104.9063,436.3906 1103.6094,436.3906 Q1102.0938,436.3906 1100.8906,435.7656 Q1099.9063,435.2656 1099.2188,434.2031 Q1098.5313,433.125 1098.5313,431.8438 L1098.5313,430.6875 Q1098.5313,429.3594 1099.1406,428.2188 Q1099.7656,427.0625 1100.8594,426.4531 Q1101.9531,425.8281 1103.1875,425.8281 Q1103.9219,425.8281 1104.5625,426 Q1105.2188,426.1563 1105.7656,426.5156 Z " fill="#000000"/><text fill="#000000" font-family="sans-serif" font-size="14" lengthAdjust="spacing" textLength="50" x="1132" y="427.6738">&#171;entity&#187;</text><text fill="#000000" font-family="sans-serif" font-size="14" lengthAdjust="spacing" textLength="80" x="1117" y="443.3145">ResultPhase</text><line style="stroke:#181818;stroke-width:0.5;" x1="1089" x2="1199" y1="451.2813" y2="451.2813"/><line style="stroke:#181818;stroke-width:0.5;" x1="1089" x2="1199" y1="459.2813" y2="459.2813"/></g><!--class AnalysisPhase--><g id="elem_AnalysisPhase"><rect codeLine="27" fill="#F1F1F1" height="57.2813" id="AnalysisPhase" rx="2.5" ry="2.5" style="stroke:#181818;stroke-width:0.5;" width="124" x="929" y="410"/><ellipse cx="944" cy="430.6406" fill="#ADD1B2" rx="11" ry="11" style="stroke:#181818;stroke-width:1.0;"/><path d="M946.7656,426.5156 Q946.9219,426.2969 947.1094,426.1875 Q947.2969,426.0781 947.5156,426.0781 Q947.8906,426.0781 948.125,426.3438 Q948.3594,426.5938 948.3594,427.2031 L948.3594,428.6563 Q948.3594,429.2656 948.125,429.5313 Q947.8906,429.7969 947.5156,429.7969 Q947.1719,429.7969 946.9688,429.5938 Q946.7656,429.4063 946.6563,428.8906 Q946.6094,428.5313 946.4219,428.3438 Q946.0938,427.9688 945.4844,427.75 Q944.875,427.5313 944.25,427.5313 Q943.4844,427.5313 942.8438,427.8594 Q942.2188,428.1875 941.7188,428.9375 Q941.2344,429.6875 941.2344,430.7188 L941.2344,431.8125 Q941.2344,433.0469 942.125,433.875 Q943.0156,434.6875 944.6094,434.6875 Q945.5469,434.6875 946.2031,434.4375 Q946.5938,434.2813 947.0156,433.8438 Q947.2813,433.5781 947.4219,433.5 Q947.5781,433.4219 947.7813,433.4219 Q948.1094,433.4219 948.3594,433.6875 Q948.625,433.9375 948.625,434.2813 Q948.625,434.625 948.2813,435.0313 Q947.7813,435.6094 946.9844,435.9375 Q945.9063,436.3906 944.6094,436.3906 Q943.0938,436.3906 941.8906,435.7656 Q940.9063,435.2656 940.2188,434.2031 Q939.5313,433.125 939.5313,431.8438 L939.5313,430.6875 Q939.5313,429.3594 940.1406,428.2188 Q940.7656,427.0625 941.8594,426.4531 Q942.9531,425.8281 944.1875,425.8281 Q944.9219,425.8281 945.5625,426 Q946.2188,426.1563 946.7656,426.5156 Z " fill="#000000"/><text fill="#000000" font-family="sans-serif" font-size="14" lengthAdjust="spacing" textLength="50" x="979" y="427.6738">&#171;entity&#187;</text><text fill="#000000" font-family="sans-serif" font-size="14" lengthAdjust="spacing" textLength="92" x="958" y="443.3145">AnalysisPhase</text><line style="stroke:#181818;stroke-width:0.5;" x1="930" x2="1052" y1="451.2813" y2="451.2813"/><line style="stroke:#181818;stroke-width:0.5;" x1="930" x2="1052" y1="459.2813" y2="459.2813"/></g><!--class JobOpening--><g id="elem_JobOpening"><rect codeLine="31" fill="#F1F1F1" height="72.9219" id="JobOpening" rx="2.5" ry="2.5" style="stroke:#181818;stroke-width:0.5;" width="108" x="849" y="251"/><ellipse cx="864" cy="279.4609" fill="#ADD1B2" rx="11" ry="11" style="stroke:#181818;stroke-width:1.0;"/><path d="M866.7656,275.3359 Q866.9219,275.1172 867.1094,275.0078 Q867.2969,274.8984 867.5156,274.8984 Q867.8906,274.8984 868.125,275.1641 Q868.3594,275.4141 868.3594,276.0234 L868.3594,277.4766 Q868.3594,278.0859 868.125,278.3516 Q867.8906,278.6172 867.5156,278.6172 Q867.1719,278.6172 866.9688,278.4141 Q866.7656,278.2266 866.6563,277.7109 Q866.6094,277.3516 866.4219,277.1641 Q866.0938,276.7891 865.4844,276.5703 Q864.875,276.3516 864.25,276.3516 Q863.4844,276.3516 862.8438,276.6797 Q862.2188,277.0078 861.7188,277.7578 Q861.2344,278.5078 861.2344,279.5391 L861.2344,280.6328 Q861.2344,281.8672 862.125,282.6953 Q863.0156,283.5078 864.6094,283.5078 Q865.5469,283.5078 866.2031,283.2578 Q866.5938,283.1016 867.0156,282.6641 Q867.2813,282.3984 867.4219,282.3203 Q867.5781,282.2422 867.7813,282.2422 Q868.1094,282.2422 868.3594,282.5078 Q868.625,282.7578 868.625,283.1016 Q868.625,283.4453 868.2813,283.8516 Q867.7813,284.4297 866.9844,284.7578 Q865.9063,285.2109 864.6094,285.2109 Q863.0938,285.2109 861.8906,284.5859 Q860.9063,284.0859 860.2188,283.0234 Q859.5313,281.9453 859.5313,280.6641 L859.5313,279.5078 Q859.5313,278.1797 860.1406,277.0391 Q860.7656,275.8828 861.8594,275.2734 Q862.9531,274.6484 864.1875,274.6484 Q864.9219,274.6484 865.5625,274.8203 Q866.2188,274.9766 866.7656,275.3359 Z " fill="#000000"/><text fill="#000000" font-family="sans-serif" font-size="14" lengthAdjust="spacing" textLength="41" x="895.5" y="268.6738">&#171;root&#187;</text><text fill="#000000" font-family="sans-serif" font-size="14" lengthAdjust="spacing" textLength="50" x="889" y="284.3145">&#171;entity&#187;</text><text fill="#000000" font-family="sans-serif" font-size="14" lengthAdjust="spacing" textLength="76" x="878" y="299.9551">JobOpening</text><line style="stroke:#181818;stroke-width:0.5;" x1="850" x2="956" y1="307.9219" y2="307.9219"/><line style="stroke:#181818;stroke-width:0.5;" x1="850" x2="956" y1="315.9219" y2="315.9219"/></g><!--class JogOpeningStatus--><g id="elem_JogOpeningStatus"><rect codeLine="36" fill="#F1F1F1" height="57.2813" id="JogOpeningStatus" rx="2.5" ry="2.5" style="stroke:#181818;stroke-width:0.5;" width="148" x="587" y="410"/><ellipse cx="602" cy="430.6406" fill="#ADD1B2" rx="11" ry="11" style="stroke:#181818;stroke-width:1.0;"/><path d="M604.7656,426.5156 Q604.9219,426.2969 605.1094,426.1875 Q605.2969,426.0781 605.5156,426.0781 Q605.8906,426.0781 606.125,426.3438 Q606.3594,426.5938 606.3594,427.2031 L606.3594,428.6563 Q606.3594,429.2656 606.125,429.5313 Q605.8906,429.7969 605.5156,429.7969 Q605.1719,429.7969 604.9688,429.5938 Q604.7656,429.4063 604.6563,428.8906 Q604.6094,428.5313 604.4219,428.3438 Q604.0938,427.9688 603.4844,427.75 Q602.875,427.5313 602.25,427.5313 Q601.4844,427.5313 600.8438,427.8594 Q600.2188,428.1875 599.7188,428.9375 Q599.2344,429.6875 599.2344,430.7188 L599.2344,431.8125 Q599.2344,433.0469 600.125,433.875 Q601.0156,434.6875 602.6094,434.6875 Q603.5469,434.6875 604.2031,434.4375 Q604.5938,434.2813 605.0156,433.8438 Q605.2813,433.5781 605.4219,433.5 Q605.5781,433.4219 605.7813,433.4219 Q606.1094,433.4219 606.3594,433.6875 Q606.625,433.9375 606.625,434.2813 Q606.625,434.625 606.2813,435.0313 Q605.7813,435.6094 604.9844,435.9375 Q603.9063,436.3906 602.6094,436.3906 Q601.0938,436.3906 599.8906,435.7656 Q598.9063,435.2656 598.2188,434.2031 Q597.5313,433.125 597.5313,431.8438 L597.5313,430.6875 Q597.5313,429.3594 598.1406,428.2188 Q598.7656,427.0625 599.8594,426.4531 Q600.9531,425.8281 602.1875,425.8281 Q602.9219,425.8281 603.5625,426 Q604.2188,426.1563 604.7656,426.5156 Z " fill="#000000"/><text fill="#000000" font-family="sans-serif" font-size="14" lengthAdjust="spacing" textLength="92" x="628" y="427.6738">&#171;value object&#187;</text><text fill="#000000" font-family="sans-serif" font-size="14" lengthAdjust="spacing" textLength="116" x="616" y="443.3145">JogOpeningStatus</text><line style="stroke:#181818;stroke-width:0.5;" x1="588" x2="734" y1="451.2813" y2="451.2813"/><line style="stroke:#181818;stroke-width:0.5;" x1="588" x2="734" y1="459.2813" y2="459.2813"/></g><!--class ContractType--><g id="elem_ContractType"><rect codeLine="39" fill="#F1F1F1" height="57.2813" id="ContractType" rx="2.5" ry="2.5" style="stroke:#181818;stroke-width:0.5;" width="124" x="1219" y="79"/><ellipse cx="1234" cy="99.6406" fill="#ADD1B2" rx="11" ry="11" style="stroke:#181818;stroke-width:1.0;"/><path d="M1236.7656,95.5156 Q1236.9219,95.2969 1237.1094,95.1875 Q1237.2969,95.0781 1237.5156,95.0781 Q1237.8906,95.0781 1238.125,95.3438 Q1238.3594,95.5938 1238.3594,96.2031 L1238.3594,97.6563 Q1238.3594,98.2656 1238.125,98.5313 Q1237.8906,98.7969 1237.5156,98.7969 Q1237.1719,98.7969 1236.9688,98.5938 Q1236.7656,98.4063 1236.6563,97.8906 Q1236.6094,97.5313 1236.4219,97.3438 Q1236.0938,96.9688 1235.4844,96.75 Q1234.875,96.5313 1234.25,96.5313 Q1233.4844,96.5313 1232.8438,96.8594 Q1232.2188,97.1875 1231.7188,97.9375 Q1231.2344,98.6875 1231.2344,99.7188 L1231.2344,100.8125 Q1231.2344,102.0469 1232.125,102.875 Q1233.0156,103.6875 1234.6094,103.6875 Q1235.5469,103.6875 1236.2031,103.4375 Q1236.5938,103.2813 1237.0156,102.8438 Q1237.2813,102.5781 1237.4219,102.5 Q1237.5781,102.4219 1237.7813,102.4219 Q1238.1094,102.4219 1238.3594,102.6875 Q1238.625,102.9375 1238.625,103.2813 Q1238.625,103.625 1238.2813,104.0313 Q1237.7813,104.6094 1236.9844,104.9375 Q1235.9063,105.3906 1234.6094,105.3906 Q1233.0938,105.3906 1231.8906,104.7656 Q1230.9063,104.2656 1230.2188,103.2031 Q1229.5313,102.125 1229.5313,100.8438 L1229.5313,99.6875 Q1229.5313,98.3594 1230.1406,97.2188 Q1230.7656,96.0625 1231.8594,95.4531 Q1232.9531,94.8281 1234.1875,94.8281 Q1234.9219,94.8281 1235.5625,95 Q1236.2188,95.1563 1236.7656,95.5156 Z " fill="#000000"/><text fill="#000000" font-family="sans-serif" font-size="14" lengthAdjust="spacing" textLength="92" x="1248" y="96.6738">&#171;value object&#187;</text><text fill="#000000" font-family="sans-serif" font-size="14" lengthAdjust="spacing" textLength="86" x="1251" y="112.3145">ContractType</text><line style="stroke:#181818;stroke-width:0.5;" x1="1220" x2="1342" y1="120.2813" y2="120.2813"/><line style="stroke:#181818;stroke-width:0.5;" x1="1220" x2="1342" y1="128.2813" y2="128.2813"/></g><!--class Mode--><g id="elem_Mode"><rect codeLine="42" fill="#F1F1F1" height="57.2813" id="Mode" rx="2.5" ry="2.5" style="stroke:#181818;stroke-width:0.5;" width="124" x="1060" y="79"/><ellipse cx="1075" cy="99.6406" fill="#ADD1B2" rx="11" ry="11" style="stroke:#181818;stroke-width:1.0;"/><path d="M1077.7656,95.5156 Q1077.9219,95.2969 1078.1094,95.1875 Q1078.2969,95.0781 1078.5156,95.0781 Q1078.8906,95.0781 1079.125,95.3438 Q1079.3594,95.5938 1079.3594,96.2031 L1079.3594,97.6563 Q1079.3594,98.2656 1079.125,98.5313 Q1078.8906,98.7969 1078.5156,98.7969 Q1078.1719,98.7969 1077.9688,98.5938 Q1077.7656,98.4063 1077.6563,97.8906 Q1077.6094,97.5313 1077.4219,97.3438 Q1077.0938,96.9688 1076.4844,96.75 Q1075.875,96.5313 1075.25,96.5313 Q1074.4844,96.5313 1073.8438,96.8594 Q1073.2188,97.1875 1072.7188,97.9375 Q1072.2344,98.6875 1072.2344,99.7188 L1072.2344,100.8125 Q1072.2344,102.0469 1073.125,102.875 Q1074.0156,103.6875 1075.6094,103.6875 Q1076.5469,103.6875 1077.2031,103.4375 Q1077.5938,103.2813 1078.0156,102.8438 Q1078.2813,102.5781 1078.4219,102.5 Q1078.5781,102.4219 1078.7813,102.4219 Q1079.1094,102.4219 1079.3594,102.6875 Q1079.625,102.9375 1079.625,103.2813 Q1079.625,103.625 1079.2813,104.0313 Q1078.7813,104.6094 1077.9844,104.9375 Q1076.9063,105.3906 1075.6094,105.3906 Q1074.0938,105.3906 1072.8906,104.7656 Q1071.9063,104.2656 1071.2188,103.2031 Q1070.5313,102.125 1070.5313,100.8438 L1070.5313,99.6875 Q1070.5313,98.3594 1071.1406,97.2188 Q1071.7656,96.0625 1072.8594,95.4531 Q1073.9531,94.8281 1075.1875,94.8281 Q1075.9219,94.8281 1076.5625,95 Q1077.2188,95.1563 1077.7656,95.5156 Z " fill="#000000"/><text fill="#000000" font-family="sans-serif" font-size="14" lengthAdjust="spacing" textLength="92" x="1089" y="96.6738">&#171;value object&#187;</text><text fill="#000000" font-family="sans-serif" font-size="14" lengthAdjust="spacing" textLength="35" x="1117.5" y="112.3145">Mode</text><line style="stroke:#181818;stroke-width:0.5;" x1="1061" x2="1183" y1="120.2813" y2="120.2813"/><line style="stroke:#181818;stroke-width:0.5;" x1="1061" x2="1183" y1="128.2813" y2="128.2813"/></g><!--class JobFunction--><g id="elem_JobFunction"><rect codeLine="46" fill="#F1F1F1" height="57.2813" id="JobFunction" rx="2.5" ry="2.5" style="stroke:#181818;stroke-width:0.5;" width="124" x="901" y="79"/><ellipse cx="916" cy="99.6406" fill="#ADD1B2" rx="11" ry="11" style="stroke:#181818;stroke-width:1.0;"/><path d="M918.7656,95.5156 Q918.9219,95.2969 919.1094,95.1875 Q919.2969,95.0781 919.5156,95.0781 Q919.8906,95.0781 920.125,95.3438 Q920.3594,95.5938 920.3594,96.2031 L920.3594,97.6563 Q920.3594,98.2656 920.125,98.5313 Q919.8906,98.7969 919.5156,98.7969 Q919.1719,98.7969 918.9688,98.5938 Q918.7656,98.4063 918.6563,97.8906 Q918.6094,97.5313 918.4219,97.3438 Q918.0938,96.9688 917.4844,96.75 Q916.875,96.5313 916.25,96.5313 Q915.4844,96.5313 914.8438,96.8594 Q914.2188,97.1875 913.7188,97.9375 Q913.2344,98.6875 913.2344,99.7188 L913.2344,100.8125 Q913.2344,102.0469 914.125,102.875 Q915.0156,103.6875 916.6094,103.6875 Q917.5469,103.6875 918.2031,103.4375 Q918.5938,103.2813 919.0156,102.8438 Q919.2813,102.5781 919.4219,102.5 Q919.5781,102.4219 919.7813,102.4219 Q920.1094,102.4219 920.3594,102.6875 Q920.625,102.9375 920.625,103.2813 Q920.625,103.625 920.2813,104.0313 Q919.7813,104.6094 918.9844,104.9375 Q917.9063,105.3906 916.6094,105.3906 Q915.0938,105.3906 913.8906,104.7656 Q912.9063,104.2656 912.2188,103.2031 Q911.5313,102.125 911.5313,100.8438 L911.5313,99.6875 Q911.5313,98.3594 912.1406,97.2188 Q912.7656,96.0625 913.8594,95.4531 Q914.9531,94.8281 916.1875,94.8281 Q916.9219,94.8281 917.5625,95 Q918.2188,95.1563 918.7656,95.5156 Z " fill="#000000"/><text fill="#000000" font-family="sans-serif" font-size="14" lengthAdjust="spacing" textLength="92" x="930" y="96.6738">&#171;value object&#187;</text><text fill="#000000" font-family="sans-serif" font-size="14" lengthAdjust="spacing" textLength="77" x="937.5" y="112.3145">JobFunction</text><line style="stroke:#181818;stroke-width:0.5;" x1="902" x2="1024" y1="120.2813" y2="120.2813"/><line style="stroke:#181818;stroke-width:0.5;" x1="902" x2="1024" y1="128.2813" y2="128.2813"/></g><!--class NumberOfVacancies--><g id="elem_NumberOfVacancies"><rect codeLine="50" fill="#F1F1F1" height="57.2813" id="NumberOfVacancies" rx="2.5" ry="2.5" style="stroke:#181818;stroke-width:0.5;" width="165" x="700.5" y="79"/><ellipse cx="715.5" cy="99.6406" fill="#ADD1B2" rx="11" ry="11" style="stroke:#181818;stroke-width:1.0;"/><path d="M718.2656,95.5156 Q718.4219,95.2969 718.6094,95.1875 Q718.7969,95.0781 719.0156,95.0781 Q719.3906,95.0781 719.625,95.3438 Q719.8594,95.5938 719.8594,96.2031 L719.8594,97.6563 Q719.8594,98.2656 719.625,98.5313 Q719.3906,98.7969 719.0156,98.7969 Q718.6719,98.7969 718.4688,98.5938 Q718.2656,98.4063 718.1563,97.8906 Q718.1094,97.5313 717.9219,97.3438 Q717.5938,96.9688 716.9844,96.75 Q716.375,96.5313 715.75,96.5313 Q714.9844,96.5313 714.3438,96.8594 Q713.7188,97.1875 713.2188,97.9375 Q712.7344,98.6875 712.7344,99.7188 L712.7344,100.8125 Q712.7344,102.0469 713.625,102.875 Q714.5156,103.6875 716.1094,103.6875 Q717.0469,103.6875 717.7031,103.4375 Q718.0938,103.2813 718.5156,102.8438 Q718.7813,102.5781 718.9219,102.5 Q719.0781,102.4219 719.2813,102.4219 Q719.6094,102.4219 719.8594,102.6875 Q720.125,102.9375 720.125,103.2813 Q720.125,103.625 719.7813,104.0313 Q719.2813,104.6094 718.4844,104.9375 Q717.4063,105.3906 716.1094,105.3906 Q714.5938,105.3906 713.3906,104.7656 Q712.4063,104.2656 711.7188,103.2031 Q711.0313,102.125 711.0313,100.8438 L711.0313,99.6875 Q711.0313,98.3594 711.6406,97.2188 Q712.2656,96.0625 713.3594,95.4531 Q714.4531,94.8281 715.6875,94.8281 Q716.4219,94.8281 717.0625,95 Q717.7188,95.1563 718.2656,95.5156 Z " fill="#000000"/><text fill="#000000" font-family="sans-serif" font-size="14" lengthAdjust="spacing" textLength="92" x="750" y="96.6738">&#171;value object&#187;</text><text fill="#000000" font-family="sans-serif" font-size="14" lengthAdjust="spacing" textLength="129" x="733.5" y="112.3145">NumberOfVacancies</text><line style="stroke:#181818;stroke-width:0.5;" x1="701.5" x2="864.5" y1="120.2813" y2="120.2813"/><line style="stroke:#181818;stroke-width:0.5;" x1="701.5" x2="864.5" y1="128.2813" y2="128.2813"/></g><!--class Description--><g id="elem_Description"><rect codeLine="54" fill="#F1F1F1" height="57.2813" id="Description" rx="2.5" ry="2.5" style="stroke:#181818;stroke-width:0.5;" width="124" x="541" y="79"/><ellipse cx="556" cy="99.6406" fill="#ADD1B2" rx="11" ry="11" style="stroke:#181818;stroke-width:1.0;"/><path d="M558.7656,95.5156 Q558.9219,95.2969 559.1094,95.1875 Q559.2969,95.0781 559.5156,95.0781 Q559.8906,95.0781 560.125,95.3438 Q560.3594,95.5938 560.3594,96.2031 L560.3594,97.6563 Q560.3594,98.2656 560.125,98.5313 Q559.8906,98.7969 559.5156,98.7969 Q559.1719,98.7969 558.9688,98.5938 Q558.7656,98.4063 558.6563,97.8906 Q558.6094,97.5313 558.4219,97.3438 Q558.0938,96.9688 557.4844,96.75 Q556.875,96.5313 556.25,96.5313 Q555.4844,96.5313 554.8438,96.8594 Q554.2188,97.1875 553.7188,97.9375 Q553.2344,98.6875 553.2344,99.7188 L553.2344,100.8125 Q553.2344,102.0469 554.125,102.875 Q555.0156,103.6875 556.6094,103.6875 Q557.5469,103.6875 558.2031,103.4375 Q558.5938,103.2813 559.0156,102.8438 Q559.2813,102.5781 559.4219,102.5 Q559.5781,102.4219 559.7813,102.4219 Q560.1094,102.4219 560.3594,102.6875 Q560.625,102.9375 560.625,103.2813 Q560.625,103.625 560.2813,104.0313 Q559.7813,104.6094 558.9844,104.9375 Q557.9063,105.3906 556.6094,105.3906 Q555.0938,105.3906 553.8906,104.7656 Q552.9063,104.2656 552.2188,103.2031 Q551.5313,102.125 551.5313,100.8438 L551.5313,99.6875 Q551.5313,98.3594 552.1406,97.2188 Q552.7656,96.0625 553.8594,95.4531 Q554.9531,94.8281 556.1875,94.8281 Q556.9219,94.8281 557.5625,95 Q558.2188,95.1563 558.7656,95.5156 Z " fill="#000000"/><text fill="#000000" font-family="sans-serif" font-size="14" lengthAdjust="spacing" textLength="92" x="570" y="96.6738">&#171;value object&#187;</text><text fill="#000000" font-family="sans-serif" font-size="14" lengthAdjust="spacing" textLength="71" x="580.5" y="112.3145">Description</text><line style="stroke:#181818;stroke-width:0.5;" x1="542" x2="664" y1="120.2813" y2="120.2813"/><line style="stroke:#181818;stroke-width:0.5;" x1="542" x2="664" y1="128.2813" y2="128.2813"/></g><!--class Address1--><g id="elem_Address1"><rect codeLine="59" fill="#F1F1F1" height="135.4844" id="Address1" rx="2.5" ry="2.5" style="stroke:#181818;stroke-width:0.5;" width="124" x="382" y="40"/><ellipse cx="397" cy="60.6406" fill="#ADD1B2" rx="11" ry="11" style="stroke:#181818;stroke-width:1.0;"/><path d="M399.7656,56.5156 Q399.9219,56.2969 400.1094,56.1875 Q400.2969,56.0781 400.5156,56.0781 Q400.8906,56.0781 401.125,56.3438 Q401.3594,56.5938 401.3594,57.2031 L401.3594,58.6563 Q401.3594,59.2656 401.125,59.5313 Q400.8906,59.7969 400.5156,59.7969 Q400.1719,59.7969 399.9688,59.5938 Q399.7656,59.4063 399.6563,58.8906 Q399.6094,58.5313 399.4219,58.3438 Q399.0938,57.9688 398.4844,57.75 Q397.875,57.5313 397.25,57.5313 Q396.4844,57.5313 395.8438,57.8594 Q395.2188,58.1875 394.7188,58.9375 Q394.2344,59.6875 394.2344,60.7188 L394.2344,61.8125 Q394.2344,63.0469 395.125,63.875 Q396.0156,64.6875 397.6094,64.6875 Q398.5469,64.6875 399.2031,64.4375 Q399.5938,64.2813 400.0156,63.8438 Q400.2813,63.5781 400.4219,63.5 Q400.5781,63.4219 400.7813,63.4219 Q401.1094,63.4219 401.3594,63.6875 Q401.625,63.9375 401.625,64.2813 Q401.625,64.625 401.2813,65.0313 Q400.7813,65.6094 399.9844,65.9375 Q398.9063,66.3906 397.6094,66.3906 Q396.0938,66.3906 394.8906,65.7656 Q393.9063,65.2656 393.2188,64.2031 Q392.5313,63.125 392.5313,61.8438 L392.5313,60.6875 Q392.5313,59.3594 393.1406,58.2188 Q393.7656,57.0625 394.8594,56.4531 Q395.9531,55.8281 397.1875,55.8281 Q397.9219,55.8281 398.5625,56 Q399.2188,56.1563 399.7656,56.5156 Z " fill="#000000"/><text fill="#000000" font-family="sans-serif" font-size="14" lengthAdjust="spacing" textLength="92" x="411" y="57.6738">&#171;value object&#187;</text><text fill="#000000" font-family="sans-serif" font-size="14" lengthAdjust="spacing" textLength="52" x="431" y="73.3145">Address</text><line style="stroke:#181818;stroke-width:0.5;" x1="383" x2="505" y1="81.2813" y2="81.2813"/><text fill="#000000" font-family="sans-serif" font-size="14" lengthAdjust="spacing" textLength="38" x="388" y="97.9551">Street</text><text fill="#000000" font-family="sans-serif" font-size="14" lengthAdjust="spacing" textLength="24" x="388" y="113.5957">City</text><text fill="#000000" font-family="sans-serif" font-size="14" lengthAdjust="spacing" textLength="33" x="388" y="129.2363">State</text><text fill="#000000" font-family="sans-serif" font-size="14" lengthAdjust="spacing" textLength="50" x="388" y="144.877">Country</text><text fill="#000000" font-family="sans-serif" font-size="14" lengthAdjust="spacing" textLength="50" x="388" y="160.5176">Zipcode</text><line style="stroke:#181818;stroke-width:0.5;" x1="383" x2="505" y1="167.4844" y2="167.4844"/></g><!--class JobReference--><g id="elem_JobReference"><rect codeLine="67" fill="#F1F1F1" height="72.9219" id="JobReference" rx="2.5" ry="2.5" style="stroke:#181818;stroke-width:0.5;" width="124" x="770" y="402"/><ellipse cx="785" cy="430.4609" fill="#ADD1B2" rx="11" ry="11" style="stroke:#181818;stroke-width:1.0;"/><path d="M787.7656,426.3359 Q787.9219,426.1172 788.1094,426.0078 Q788.2969,425.8984 788.5156,425.8984 Q788.8906,425.8984 789.125,426.1641 Q789.3594,426.4141 789.3594,427.0234 L789.3594,428.4766 Q789.3594,429.0859 789.125,429.3516 Q788.8906,429.6172 788.5156,429.6172 Q788.1719,429.6172 787.9688,429.4141 Q787.7656,429.2266 787.6563,428.7109 Q787.6094,428.3516 787.4219,428.1641 Q787.0938,427.7891 786.4844,427.5703 Q785.875,427.3516 785.25,427.3516 Q784.4844,427.3516 783.8438,427.6797 Q783.2188,428.0078 782.7188,428.7578 Q782.2344,429.5078 782.2344,430.5391 L782.2344,431.6328 Q782.2344,432.8672 783.125,433.6953 Q784.0156,434.5078 785.6094,434.5078 Q786.5469,434.5078 787.2031,434.2578 Q787.5938,434.1016 788.0156,433.6641 Q788.2813,433.3984 788.4219,433.3203 Q788.5781,433.2422 788.7813,433.2422 Q789.1094,433.2422 789.3594,433.5078 Q789.625,433.7578 789.625,434.1016 Q789.625,434.4453 789.2813,434.8516 Q788.7813,435.4297 787.9844,435.7578 Q786.9063,436.2109 785.6094,436.2109 Q784.0938,436.2109 782.8906,435.5859 Q781.9063,435.0859 781.2188,434.0234 Q780.5313,432.9453 780.5313,431.6641 L780.5313,430.5078 Q780.5313,429.1797 781.1406,428.0391 Q781.7656,426.8828 782.8594,426.2734 Q783.9531,425.6484 785.1875,425.6484 Q785.9219,425.6484 786.5625,425.8203 Q787.2188,425.9766 787.7656,426.3359 Z " fill="#000000"/><text fill="#000000" font-family="sans-serif" font-size="14" lengthAdjust="spacing" textLength="92" x="799" y="419.6738">&#171;value object&#187;</text><text fill="#000000" font-family="sans-serif" font-size="14" lengthAdjust="spacing" textLength="70" x="810" y="435.3145">&#171;identifier&#187;</text><text fill="#000000" font-family="sans-serif" font-size="14" lengthAdjust="spacing" textLength="88" x="801" y="450.9551">JobReference</text><line style="stroke:#181818;stroke-width:0.5;" x1="771" x2="893" y1="458.9219" y2="458.9219"/><line style="stroke:#181818;stroke-width:0.5;" x1="771" x2="893" y1="466.9219" y2="466.9219"/></g><!--class InterviewPhase--><g id="elem_InterviewPhase"><rect codeLine="70" fill="#F1F1F1" height="57.2813" id="InterviewPhase" rx="2.5" ry="2.5" style="stroke:#181818;stroke-width:0.5;" width="127" x="22.5" y="410"/><ellipse cx="37.5" cy="430.6406" fill="#ADD1B2" rx="11" ry="11" style="stroke:#181818;stroke-width:1.0;"/><path d="M40.2656,426.5156 Q40.4219,426.2969 40.6094,426.1875 Q40.7969,426.0781 41.0156,426.0781 Q41.3906,426.0781 41.625,426.3438 Q41.8594,426.5938 41.8594,427.2031 L41.8594,428.6563 Q41.8594,429.2656 41.625,429.5313 Q41.3906,429.7969 41.0156,429.7969 Q40.6719,429.7969 40.4688,429.5938 Q40.2656,429.4063 40.1563,428.8906 Q40.1094,428.5313 39.9219,428.3438 Q39.5938,427.9688 38.9844,427.75 Q38.375,427.5313 37.75,427.5313 Q36.9844,427.5313 36.3438,427.8594 Q35.7188,428.1875 35.2188,428.9375 Q34.7344,429.6875 34.7344,430.7188 L34.7344,431.8125 Q34.7344,433.0469 35.625,433.875 Q36.5156,434.6875 38.1094,434.6875 Q39.0469,434.6875 39.7031,434.4375 Q40.0938,434.2813 40.5156,433.8438 Q40.7813,433.5781 40.9219,433.5 Q41.0781,433.4219 41.2813,433.4219 Q41.6094,433.4219 41.8594,433.6875 Q42.125,433.9375 42.125,434.2813 Q42.125,434.625 41.7813,435.0313 Q41.2813,435.6094 40.4844,435.9375 Q39.4063,436.3906 38.1094,436.3906 Q36.5938,436.3906 35.3906,435.7656 Q34.4063,435.2656 33.7188,434.2031 Q33.0313,433.125 33.0313,431.8438 L33.0313,430.6875 Q33.0313,429.3594 33.6406,428.2188 Q34.2656,427.0625 35.3594,426.4531 Q36.4531,425.8281 37.6875,425.8281 Q38.4219,425.8281 39.0625,426 Q39.7188,426.1563 40.2656,426.5156 Z " fill="#000000"/><text fill="#000000" font-family="sans-serif" font-size="14" lengthAdjust="spacing" textLength="50" x="74" y="427.6738">&#171;entity&#187;</text><text fill="#000000" font-family="sans-serif" font-size="14" lengthAdjust="spacing" textLength="95" x="51.5" y="443.3145">InterviewPhase</text><line style="stroke:#181818;stroke-width:0.5;" x1="23.5" x2="148.5" y1="451.2813" y2="451.2813"/><line style="stroke:#181818;stroke-width:0.5;" x1="23.5" x2="148.5" y1="459.2813" y2="459.2813"/></g><!--class Notification--><g id="elem_Notification"><rect codeLine="77" fill="#F1F1F1" height="57.2813" id="Notification" rx="2.5" ry="2.5" style="stroke:#181818;stroke-width:0.5;" width="101" x="1377.5" y="757.5"/><ellipse cx="1392.5" cy="778.1406" fill="#ADD1B2" rx="11" ry="11" style="stroke:#181818;stroke-width:1.0;"/><path d="M1395.2656,774.0156 Q1395.4219,773.7969 1395.6094,773.6875 Q1395.7969,773.5781 1396.0156,773.5781 Q1396.3906,773.5781 1396.625,773.8438 Q1396.8594,774.0938 1396.8594,774.7031 L1396.8594,776.1563 Q1396.8594,776.7656 1396.625,777.0313 Q1396.3906,777.2969 1396.0156,777.2969 Q1395.6719,777.2969 1395.4688,777.0938 Q1395.2656,776.9063 1395.1563,776.3906 Q1395.1094,776.0313 1394.9219,775.8438 Q1394.5938,775.4688 1393.9844,775.25 Q1393.375,775.0313 1392.75,775.0313 Q1391.9844,775.0313 1391.3438,775.3594 Q1390.7188,775.6875 1390.2188,776.4375 Q1389.7344,777.1875 1389.7344,778.2188 L1389.7344,779.3125 Q1389.7344,780.5469 1390.625,781.375 Q1391.5156,782.1875 1393.1094,782.1875 Q1394.0469,782.1875 1394.7031,781.9375 Q1395.0938,781.7813 1395.5156,781.3438 Q1395.7813,781.0781 1395.9219,781 Q1396.0781,780.9219 1396.2813,780.9219 Q1396.6094,780.9219 1396.8594,781.1875 Q1397.125,781.4375 1397.125,781.7813 Q1397.125,782.125 1396.7813,782.5313 Q1396.2813,783.1094 1395.4844,783.4375 Q1394.4063,783.8906 1393.1094,783.8906 Q1391.5938,783.8906 1390.3906,783.2656 Q1389.4063,782.7656 1388.7188,781.7031 Q1388.0313,780.625 1388.0313,779.3438 L1388.0313,778.1875 Q1388.0313,776.8594 1388.6406,775.7188 Q1389.2656,774.5625 1390.3594,773.9531 Q1391.4531,773.3281 1392.6875,773.3281 Q1393.4219,773.3281 1394.0625,773.5 Q1394.7188,773.6563 1395.2656,774.0156 Z " fill="#000000"/><text fill="#000000" font-family="sans-serif" font-size="14" lengthAdjust="spacing" textLength="50" x="1416" y="775.1738">&#171;entity&#187;</text><text fill="#000000" font-family="sans-serif" font-size="14" lengthAdjust="spacing" textLength="69" x="1406.5" y="790.8145">Notification</text><line style="stroke:#181818;stroke-width:0.5;" x1="1378.5" x2="1477.5" y1="798.7813" y2="798.7813"/><line style="stroke:#181818;stroke-width:0.5;" x1="1378.5" x2="1477.5" y1="806.7813" y2="806.7813"/></g><!--class Plugin--><g id="elem_Plugin"><rect codeLine="83" fill="#F1F1F1" height="72.9219" id="Plugin" rx="2.5" ry="2.5" style="stroke:#181818;stroke-width:0.5;" width="82" x="1700" y="71"/><ellipse cx="1715" cy="99.4609" fill="#ADD1B2" rx="11" ry="11" style="stroke:#181818;stroke-width:1.0;"/><path d="M1717.7656,95.3359 Q1717.9219,95.1172 1718.1094,95.0078 Q1718.2969,94.8984 1718.5156,94.8984 Q1718.8906,94.8984 1719.125,95.1641 Q1719.3594,95.4141 1719.3594,96.0234 L1719.3594,97.4766 Q1719.3594,98.0859 1719.125,98.3516 Q1718.8906,98.6172 1718.5156,98.6172 Q1718.1719,98.6172 1717.9688,98.4141 Q1717.7656,98.2266 1717.6563,97.7109 Q1717.6094,97.3516 1717.4219,97.1641 Q1717.0938,96.7891 1716.4844,96.5703 Q1715.875,96.3516 1715.25,96.3516 Q1714.4844,96.3516 1713.8438,96.6797 Q1713.2188,97.0078 1712.7188,97.7578 Q1712.2344,98.5078 1712.2344,99.5391 L1712.2344,100.6328 Q1712.2344,101.8672 1713.125,102.6953 Q1714.0156,103.5078 1715.6094,103.5078 Q1716.5469,103.5078 1717.2031,103.2578 Q1717.5938,103.1016 1718.0156,102.6641 Q1718.2813,102.3984 1718.4219,102.3203 Q1718.5781,102.2422 1718.7813,102.2422 Q1719.1094,102.2422 1719.3594,102.5078 Q1719.625,102.7578 1719.625,103.1016 Q1719.625,103.4453 1719.2813,103.8516 Q1718.7813,104.4297 1717.9844,104.7578 Q1716.9063,105.2109 1715.6094,105.2109 Q1714.0938,105.2109 1712.8906,104.5859 Q1711.9063,104.0859 1711.2188,103.0234 Q1710.5313,101.9453 1710.5313,100.6641 L1710.5313,99.5078 Q1710.5313,98.1797 1711.1406,97.0391 Q1711.7656,95.8828 1712.8594,95.2734 Q1713.9531,94.6484 1715.1875,94.6484 Q1715.9219,94.6484 1716.5625,94.8203 Q1717.2188,94.9766 1717.7656,95.3359 Z " fill="#000000"/><text fill="#000000" font-family="sans-serif" font-size="14" lengthAdjust="spacing" textLength="41" x="1733.5" y="88.6738">&#171;root&#187;</text><text fill="#000000" font-family="sans-serif" font-size="14" lengthAdjust="spacing" textLength="50" x="1729" y="104.3145">&#171;entity&#187;</text><text fill="#000000" font-family="sans-serif" font-size="14" lengthAdjust="spacing" textLength="39" x="1734.5" y="119.9551">Plugin</text><line style="stroke:#181818;stroke-width:0.5;" x1="1701" x2="1781" y1="127.9219" y2="127.9219"/><line style="stroke:#181818;stroke-width:0.5;" x1="1701" x2="1781" y1="135.9219" y2="135.9219"/></g><!--class PlugID--><g id="elem_PlugID"><rect codeLine="85" fill="#F1F1F1" height="72.9219" id="PlugID" rx="2.5" ry="2.5" style="stroke:#181818;stroke-width:0.5;" width="125" x="1427.5" y="251"/><ellipse cx="1442.5" cy="279.4609" fill="#ADD1B2" rx="11" ry="11" style="stroke:#181818;stroke-width:1.0;"/><path d="M1445.2656,275.3359 Q1445.4219,275.1172 1445.6094,275.0078 Q1445.7969,274.8984 1446.0156,274.8984 Q1446.3906,274.8984 1446.625,275.1641 Q1446.8594,275.4141 1446.8594,276.0234 L1446.8594,277.4766 Q1446.8594,278.0859 1446.625,278.3516 Q1446.3906,278.6172 1446.0156,278.6172 Q1445.6719,278.6172 1445.4688,278.4141 Q1445.2656,278.2266 1445.1563,277.7109 Q1445.1094,277.3516 1444.9219,277.1641 Q1444.5938,276.7891 1443.9844,276.5703 Q1443.375,276.3516 1442.75,276.3516 Q1441.9844,276.3516 1441.3438,276.6797 Q1440.7188,277.0078 1440.2188,277.7578 Q1439.7344,278.5078 1439.7344,279.5391 L1439.7344,280.6328 Q1439.7344,281.8672 1440.625,282.6953 Q1441.5156,283.5078 1443.1094,283.5078 Q1444.0469,283.5078 1444.7031,283.2578 Q1445.0938,283.1016 1445.5156,282.6641 Q1445.7813,282.3984 1445.9219,282.3203 Q1446.0781,282.2422 1446.2813,282.2422 Q1446.6094,282.2422 1446.8594,282.5078 Q1447.125,282.7578 1447.125,283.1016 Q1447.125,283.4453 1446.7813,283.8516 Q1446.2813,284.4297 1445.4844,284.7578 Q1444.4063,285.2109 1443.1094,285.2109 Q1441.5938,285.2109 1440.3906,284.5859 Q1439.4063,284.0859 1438.7188,283.0234 Q1438.0313,281.9453 1438.0313,280.6641 L1438.0313,279.5078 Q1438.0313,278.1797 1438.6406,277.0391 Q1439.2656,275.8828 1440.3594,275.2734 Q1441.4531,274.6484 1442.6875,274.6484 Q1443.4219,274.6484 1444.0625,274.8203 Q1444.7188,274.9766 1445.2656,275.3359 Z " fill="#000000"/><text fill="#000000" font-family="sans-serif" font-size="14" lengthAdjust="spacing" textLength="92" x="1457" y="268.6738">&#171;value object&#187;</text><text fill="#000000" font-family="sans-serif" font-size="14" lengthAdjust="spacing" textLength="70" x="1468" y="284.3145">&#171;identifier&#187;</text><text fill="#000000" font-family="sans-serif" font-size="14" lengthAdjust="spacing" textLength="93" x="1456.5" y="299.9551">PluginIdentifier</text><line style="stroke:#181818;stroke-width:0.5;" x1="1428.5" x2="1551.5" y1="307.9219" y2="307.9219"/><line style="stroke:#181818;stroke-width:0.5;" x1="1428.5" x2="1551.5" y1="315.9219" y2="315.9219"/></g><!--class PlugType--><g id="elem_PlugType"><rect codeLine="87" fill="#F1F1F1" height="57.2813" id="PlugType" rx="2.5" ry="2.5" style="stroke:#181818;stroke-width:0.5;" width="124" x="1588" y="259"/><ellipse cx="1603" cy="279.6406" fill="#ADD1B2" rx="11" ry="11" style="stroke:#181818;stroke-width:1.0;"/><path d="M1605.7656,275.5156 Q1605.9219,275.2969 1606.1094,275.1875 Q1606.2969,275.0781 1606.5156,275.0781 Q1606.8906,275.0781 1607.125,275.3438 Q1607.3594,275.5938 1607.3594,276.2031 L1607.3594,277.6563 Q1607.3594,278.2656 1607.125,278.5313 Q1606.8906,278.7969 1606.5156,278.7969 Q1606.1719,278.7969 1605.9688,278.5938 Q1605.7656,278.4063 1605.6563,277.8906 Q1605.6094,277.5313 1605.4219,277.3438 Q1605.0938,276.9688 1604.4844,276.75 Q1603.875,276.5313 1603.25,276.5313 Q1602.4844,276.5313 1601.8438,276.8594 Q1601.2188,277.1875 1600.7188,277.9375 Q1600.2344,278.6875 1600.2344,279.7188 L1600.2344,280.8125 Q1600.2344,282.0469 1601.125,282.875 Q1602.0156,283.6875 1603.6094,283.6875 Q1604.5469,283.6875 1605.2031,283.4375 Q1605.5938,283.2813 1606.0156,282.8438 Q1606.2813,282.5781 1606.4219,282.5 Q1606.5781,282.4219 1606.7813,282.4219 Q1607.1094,282.4219 1607.3594,282.6875 Q1607.625,282.9375 1607.625,283.2813 Q1607.625,283.625 1607.2813,284.0313 Q1606.7813,284.6094 1605.9844,284.9375 Q1604.9063,285.3906 1603.6094,285.3906 Q1602.0938,285.3906 1600.8906,284.7656 Q1599.9063,284.2656 1599.2188,283.2031 Q1598.5313,282.125 1598.5313,280.8438 L1598.5313,279.6875 Q1598.5313,278.3594 1599.1406,277.2188 Q1599.7656,276.0625 1600.8594,275.4531 Q1601.9531,274.8281 1603.1875,274.8281 Q1603.9219,274.8281 1604.5625,275 Q1605.2188,275.1563 1605.7656,275.5156 Z " fill="#000000"/><text fill="#000000" font-family="sans-serif" font-size="14" lengthAdjust="spacing" textLength="92" x="1617" y="276.6738">&#171;value object&#187;</text><text fill="#000000" font-family="sans-serif" font-size="14" lengthAdjust="spacing" textLength="71" x="1627.5" y="292.3145">PluginType</text><line style="stroke:#181818;stroke-width:0.5;" x1="1589" x2="1711" y1="300.2813" y2="300.2813"/><line style="stroke:#181818;stroke-width:0.5;" x1="1589" x2="1711" y1="308.2813" y2="308.2813"/></g><!--class PlugClass--><g id="elem_PlugClass"><rect codeLine="89" fill="#F1F1F1" height="57.2813" id="PlugClass" rx="2.5" ry="2.5" style="stroke:#181818;stroke-width:0.5;" width="172" x="1747" y="259"/><ellipse cx="1762" cy="279.6406" fill="#ADD1B2" rx="11" ry="11" style="stroke:#181818;stroke-width:1.0;"/><path d="M1764.7656,275.5156 Q1764.9219,275.2969 1765.1094,275.1875 Q1765.2969,275.0781 1765.5156,275.0781 Q1765.8906,275.0781 1766.125,275.3438 Q1766.3594,275.5938 1766.3594,276.2031 L1766.3594,277.6563 Q1766.3594,278.2656 1766.125,278.5313 Q1765.8906,278.7969 1765.5156,278.7969 Q1765.1719,278.7969 1764.9688,278.5938 Q1764.7656,278.4063 1764.6563,277.8906 Q1764.6094,277.5313 1764.4219,277.3438 Q1764.0938,276.9688 1763.4844,276.75 Q1762.875,276.5313 1762.25,276.5313 Q1761.4844,276.5313 1760.8438,276.8594 Q1760.2188,277.1875 1759.7188,277.9375 Q1759.2344,278.6875 1759.2344,279.7188 L1759.2344,280.8125 Q1759.2344,282.0469 1760.125,282.875 Q1761.0156,283.6875 1762.6094,283.6875 Q1763.5469,283.6875 1764.2031,283.4375 Q1764.5938,283.2813 1765.0156,282.8438 Q1765.2813,282.5781 1765.4219,282.5 Q1765.5781,282.4219 1765.7813,282.4219 Q1766.1094,282.4219 1766.3594,282.6875 Q1766.625,282.9375 1766.625,283.2813 Q1766.625,283.625 1766.2813,284.0313 Q1765.7813,284.6094 1764.9844,284.9375 Q1763.9063,285.3906 1762.6094,285.3906 Q1761.0938,285.3906 1759.8906,284.7656 Q1758.9063,284.2656 1758.2188,283.2031 Q1757.5313,282.125 1757.5313,280.8438 L1757.5313,279.6875 Q1757.5313,278.3594 1758.1406,277.2188 Q1758.7656,276.0625 1759.8594,275.4531 Q1760.9531,274.8281 1762.1875,274.8281 Q1762.9219,274.8281 1763.5625,275 Q1764.2188,275.1563 1764.7656,275.5156 Z " fill="#000000"/><text fill="#000000" font-family="sans-serif" font-size="14" lengthAdjust="spacing" textLength="92" x="1800" y="276.6738">&#171;value object&#187;</text><text fill="#000000" font-family="sans-serif" font-size="14" lengthAdjust="spacing" textLength="140" x="1776" y="292.3145">PluginMainClassName</text><line style="stroke:#181818;stroke-width:0.5;" x1="1748" x2="1918" y1="300.2813" y2="300.2813"/><line style="stroke:#181818;stroke-width:0.5;" x1="1748" x2="1918" y1="308.2813" y2="308.2813"/></g><!--class JarFile--><g id="elem_JarFile"><rect codeLine="91" fill="#F1F1F1" height="57.2813" id="JarFile" rx="2.5" ry="2.5" style="stroke:#181818;stroke-width:0.5;" width="124" x="1954" y="259"/><ellipse cx="1969" cy="279.6406" fill="#ADD1B2" rx="11" ry="11" style="stroke:#181818;stroke-width:1.0;"/><path d="M1971.7656,275.5156 Q1971.9219,275.2969 1972.1094,275.1875 Q1972.2969,275.0781 1972.5156,275.0781 Q1972.8906,275.0781 1973.125,275.3438 Q1973.3594,275.5938 1973.3594,276.2031 L1973.3594,277.6563 Q1973.3594,278.2656 1973.125,278.5313 Q1972.8906,278.7969 1972.5156,278.7969 Q1972.1719,278.7969 1971.9688,278.5938 Q1971.7656,278.4063 1971.6563,277.8906 Q1971.6094,277.5313 1971.4219,277.3438 Q1971.0938,276.9688 1970.4844,276.75 Q1969.875,276.5313 1969.25,276.5313 Q1968.4844,276.5313 1967.8438,276.8594 Q1967.2188,277.1875 1966.7188,277.9375 Q1966.2344,278.6875 1966.2344,279.7188 L1966.2344,280.8125 Q1966.2344,282.0469 1967.125,282.875 Q1968.0156,283.6875 1969.6094,283.6875 Q1970.5469,283.6875 1971.2031,283.4375 Q1971.5938,283.2813 1972.0156,282.8438 Q1972.2813,282.5781 1972.4219,282.5 Q1972.5781,282.4219 1972.7813,282.4219 Q1973.1094,282.4219 1973.3594,282.6875 Q1973.625,282.9375 1973.625,283.2813 Q1973.625,283.625 1973.2813,284.0313 Q1972.7813,284.6094 1971.9844,284.9375 Q1970.9063,285.3906 1969.6094,285.3906 Q1968.0938,285.3906 1966.8906,284.7656 Q1965.9063,284.2656 1965.2188,283.2031 Q1964.5313,282.125 1964.5313,280.8438 L1964.5313,279.6875 Q1964.5313,278.3594 1965.1406,277.2188 Q1965.7656,276.0625 1966.8594,275.4531 Q1967.9531,274.8281 1969.1875,274.8281 Q1969.9219,274.8281 1970.5625,275 Q1971.2188,275.1563 1971.7656,275.5156 Z " fill="#000000"/><text fill="#000000" font-family="sans-serif" font-size="14" lengthAdjust="spacing" textLength="92" x="1983" y="276.6738">&#171;value object&#187;</text><text fill="#000000" font-family="sans-serif" font-size="14" lengthAdjust="spacing" textLength="78" x="1990" y="292.3145">JarFileName</text><line style="stroke:#181818;stroke-width:0.5;" x1="1955" x2="2077" y1="300.2813" y2="300.2813"/><line style="stroke:#181818;stroke-width:0.5;" x1="1955" x2="2077" y1="308.2813" y2="308.2813"/></g><!--class PlugDesc--><g id="elem_PlugDesc"><rect codeLine="93" fill="#F1F1F1" height="57.2813" id="PlugDesc" rx="2.5" ry="2.5" style="stroke:#181818;stroke-width:0.5;" width="124" x="2113" y="259"/><ellipse cx="2128" cy="279.6406" fill="#ADD1B2" rx="11" ry="11" style="stroke:#181818;stroke-width:1.0;"/><path d="M2130.7656,275.5156 Q2130.9219,275.2969 2131.1094,275.1875 Q2131.2969,275.0781 2131.5156,275.0781 Q2131.8906,275.0781 2132.125,275.3438 Q2132.3594,275.5938 2132.3594,276.2031 L2132.3594,277.6563 Q2132.3594,278.2656 2132.125,278.5313 Q2131.8906,278.7969 2131.5156,278.7969 Q2131.1719,278.7969 2130.9688,278.5938 Q2130.7656,278.4063 2130.6563,277.8906 Q2130.6094,277.5313 2130.4219,277.3438 Q2130.0938,276.9688 2129.4844,276.75 Q2128.875,276.5313 2128.25,276.5313 Q2127.4844,276.5313 2126.8438,276.8594 Q2126.2188,277.1875 2125.7188,277.9375 Q2125.2344,278.6875 2125.2344,279.7188 L2125.2344,280.8125 Q2125.2344,282.0469 2126.125,282.875 Q2127.0156,283.6875 2128.6094,283.6875 Q2129.5469,283.6875 2130.2031,283.4375 Q2130.5938,283.2813 2131.0156,282.8438 Q2131.2813,282.5781 2131.4219,282.5 Q2131.5781,282.4219 2131.7813,282.4219 Q2132.1094,282.4219 2132.3594,282.6875 Q2132.625,282.9375 2132.625,283.2813 Q2132.625,283.625 2132.2813,284.0313 Q2131.7813,284.6094 2130.9844,284.9375 Q2129.9063,285.3906 2128.6094,285.3906 Q2127.0938,285.3906 2125.8906,284.7656 Q2124.9063,284.2656 2124.2188,283.2031 Q2123.5313,282.125 2123.5313,280.8438 L2123.5313,279.6875 Q2123.5313,278.3594 2124.1406,277.2188 Q2124.7656,276.0625 2125.8594,275.4531 Q2126.9531,274.8281 2128.1875,274.8281 Q2128.9219,274.8281 2129.5625,275 Q2130.2188,275.1563 2130.7656,275.5156 Z " fill="#000000"/><text fill="#000000" font-family="sans-serif" font-size="14" lengthAdjust="spacing" textLength="92" x="2142" y="276.6738">&#171;value object&#187;</text><text fill="#000000" font-family="sans-serif" font-size="14" lengthAdjust="spacing" textLength="71" x="2152.5" y="292.3145">Description</text><line style="stroke:#181818;stroke-width:0.5;" x1="2114" x2="2236" y1="300.2813" y2="300.2813"/><line style="stroke:#181818;stroke-width:0.5;" x1="2114" x2="2236" y1="308.2813" y2="308.2813"/></g><!--class JobApplication--><g id="elem_JobApplication"><rect codeLine="98" fill="#F1F1F1" height="72.9219" id="JobApplication" rx="2.5" ry="2.5" style="stroke:#181818;stroke-width:0.5;" width="123" x="1690.5" y="571"/><ellipse cx="1705.5" cy="599.4609" fill="#ADD1B2" rx="11" ry="11" style="stroke:#181818;stroke-width:1.0;"/><path d="M1708.2656,595.3359 Q1708.4219,595.1172 1708.6094,595.0078 Q1708.7969,594.8984 1709.0156,594.8984 Q1709.3906,594.8984 1709.625,595.1641 Q1709.8594,595.4141 1709.8594,596.0234 L1709.8594,597.4766 Q1709.8594,598.0859 1709.625,598.3516 Q1709.3906,598.6172 1709.0156,598.6172 Q1708.6719,598.6172 1708.4688,598.4141 Q1708.2656,598.2266 1708.1563,597.7109 Q1708.1094,597.3516 1707.9219,597.1641 Q1707.5938,596.7891 1706.9844,596.5703 Q1706.375,596.3516 1705.75,596.3516 Q1704.9844,596.3516 1704.3438,596.6797 Q1703.7188,597.0078 1703.2188,597.7578 Q1702.7344,598.5078 1702.7344,599.5391 L1702.7344,600.6328 Q1702.7344,601.8672 1703.625,602.6953 Q1704.5156,603.5078 1706.1094,603.5078 Q1707.0469,603.5078 1707.7031,603.2578 Q1708.0938,603.1016 1708.5156,602.6641 Q1708.7813,602.3984 1708.9219,602.3203 Q1709.0781,602.2422 1709.2813,602.2422 Q1709.6094,602.2422 1709.8594,602.5078 Q1710.125,602.7578 1710.125,603.1016 Q1710.125,603.4453 1709.7813,603.8516 Q1709.2813,604.4297 1708.4844,604.7578 Q1707.4063,605.2109 1706.1094,605.2109 Q1704.5938,605.2109 1703.3906,604.5859 Q1702.4063,604.0859 1701.7188,603.0234 Q1701.0313,601.9453 1701.0313,600.6641 L1701.0313,599.5078 Q1701.0313,598.1797 1701.6406,597.0391 Q1702.2656,595.8828 1703.3594,595.2734 Q1704.4531,594.6484 1705.6875,594.6484 Q1706.4219,594.6484 1707.0625,594.8203 Q1707.7188,594.9766 1708.2656,595.3359 Z " fill="#000000"/><text fill="#000000" font-family="sans-serif" font-size="14" lengthAdjust="spacing" textLength="41" x="1744.5" y="588.6738">&#171;root&#187;</text><text fill="#000000" font-family="sans-serif" font-size="14" lengthAdjust="spacing" textLength="50" x="1740" y="604.3145">&#171;entity&#187;</text><text fill="#000000" font-family="sans-serif" font-size="14" lengthAdjust="spacing" textLength="91" x="1719.5" y="619.9551">JobApplication</text><line style="stroke:#181818;stroke-width:0.5;" x1="1691.5" x2="1812.5" y1="627.9219" y2="627.9219"/><line style="stroke:#181818;stroke-width:0.5;" x1="1691.5" x2="1812.5" y1="635.9219" y2="635.9219"/></g><!--class Status--><g id="elem_Status"><rect codeLine="101" fill="#F1F1F1" height="57.2813" id="Status" rx="2.5" ry="2.5" style="stroke:#181818;stroke-width:0.5;" width="124" x="1555" y="757.5"/><ellipse cx="1570" cy="778.1406" fill="#ADD1B2" rx="11" ry="11" style="stroke:#181818;stroke-width:1.0;"/><path d="M1572.7656,774.0156 Q1572.9219,773.7969 1573.1094,773.6875 Q1573.2969,773.5781 1573.5156,773.5781 Q1573.8906,773.5781 1574.125,773.8438 Q1574.3594,774.0938 1574.3594,774.7031 L1574.3594,776.1563 Q1574.3594,776.7656 1574.125,777.0313 Q1573.8906,777.2969 1573.5156,777.2969 Q1573.1719,777.2969 1572.9688,777.0938 Q1572.7656,776.9063 1572.6563,776.3906 Q1572.6094,776.0313 1572.4219,775.8438 Q1572.0938,775.4688 1571.4844,775.25 Q1570.875,775.0313 1570.25,775.0313 Q1569.4844,775.0313 1568.8438,775.3594 Q1568.2188,775.6875 1567.7188,776.4375 Q1567.2344,777.1875 1567.2344,778.2188 L1567.2344,779.3125 Q1567.2344,780.5469 1568.125,781.375 Q1569.0156,782.1875 1570.6094,782.1875 Q1571.5469,782.1875 1572.2031,781.9375 Q1572.5938,781.7813 1573.0156,781.3438 Q1573.2813,781.0781 1573.4219,781 Q1573.5781,780.9219 1573.7813,780.9219 Q1574.1094,780.9219 1574.3594,781.1875 Q1574.625,781.4375 1574.625,781.7813 Q1574.625,782.125 1574.2813,782.5313 Q1573.7813,783.1094 1572.9844,783.4375 Q1571.9063,783.8906 1570.6094,783.8906 Q1569.0938,783.8906 1567.8906,783.2656 Q1566.9063,782.7656 1566.2188,781.7031 Q1565.5313,780.625 1565.5313,779.3438 L1565.5313,778.1875 Q1565.5313,776.8594 1566.1406,775.7188 Q1566.7656,774.5625 1567.8594,773.9531 Q1568.9531,773.3281 1570.1875,773.3281 Q1570.9219,773.3281 1571.5625,773.5 Q1572.2188,773.6563 1572.7656,774.0156 Z " fill="#000000"/><text fill="#000000" font-family="sans-serif" font-size="14" lengthAdjust="spacing" textLength="92" x="1584" y="775.1738">&#171;value object&#187;</text><text fill="#000000" font-family="sans-serif" font-size="14" lengthAdjust="spacing" textLength="40" x="1610" y="790.8145">Status</text><line style="stroke:#181818;stroke-width:0.5;" x1="1556" x2="1678" y1="798.7813" y2="798.7813"/><line style="stroke:#181818;stroke-width:0.5;" x1="1556" x2="1678" y1="806.7813" y2="806.7813"/></g><!--class ID--><g id="elem_ID"><rect codeLine="104" fill="#F1F1F1" height="72.9219" id="ID" rx="2.5" ry="2.5" style="stroke:#181818;stroke-width:0.5;" width="124" x="1714" y="749.5"/><ellipse cx="1729" cy="777.9609" fill="#ADD1B2" rx="11" ry="11" style="stroke:#181818;stroke-width:1.0;"/><path d="M1731.7656,773.8359 Q1731.9219,773.6172 1732.1094,773.5078 Q1732.2969,773.3984 1732.5156,773.3984 Q1732.8906,773.3984 1733.125,773.6641 Q1733.3594,773.9141 1733.3594,774.5234 L1733.3594,775.9766 Q1733.3594,776.5859 1733.125,776.8516 Q1732.8906,777.1172 1732.5156,777.1172 Q1732.1719,777.1172 1731.9688,776.9141 Q1731.7656,776.7266 1731.6563,776.2109 Q1731.6094,775.8516 1731.4219,775.6641 Q1731.0938,775.2891 1730.4844,775.0703 Q1729.875,774.8516 1729.25,774.8516 Q1728.4844,774.8516 1727.8438,775.1797 Q1727.2188,775.5078 1726.7188,776.2578 Q1726.2344,777.0078 1726.2344,778.0391 L1726.2344,779.1328 Q1726.2344,780.3672 1727.125,781.1953 Q1728.0156,782.0078 1729.6094,782.0078 Q1730.5469,782.0078 1731.2031,781.7578 Q1731.5938,781.6016 1732.0156,781.1641 Q1732.2813,780.8984 1732.4219,780.8203 Q1732.5781,780.7422 1732.7813,780.7422 Q1733.1094,780.7422 1733.3594,781.0078 Q1733.625,781.2578 1733.625,781.6016 Q1733.625,781.9453 1733.2813,782.3516 Q1732.7813,782.9297 1731.9844,783.2578 Q1730.9063,783.7109 1729.6094,783.7109 Q1728.0938,783.7109 1726.8906,783.0859 Q1725.9063,782.5859 1725.2188,781.5234 Q1724.5313,780.4453 1724.5313,779.1641 L1724.5313,778.0078 Q1724.5313,776.6797 1725.1406,775.5391 Q1725.7656,774.3828 1726.8594,773.7734 Q1727.9531,773.1484 1729.1875,773.1484 Q1729.9219,773.1484 1730.5625,773.3203 Q1731.2188,773.4766 1731.7656,773.8359 Z " fill="#000000"/><text fill="#000000" font-family="sans-serif" font-size="14" lengthAdjust="spacing" textLength="92" x="1743" y="767.1738">&#171;value object&#187;</text><text fill="#000000" font-family="sans-serif" font-size="14" lengthAdjust="spacing" textLength="70" x="1754" y="782.8145">&#171;identifier&#187;</text><text fill="#000000" font-family="sans-serif" font-size="14" lengthAdjust="spacing" textLength="11" x="1783.5" y="798.4551">Id</text><line style="stroke:#181818;stroke-width:0.5;" x1="1715" x2="1837" y1="806.4219" y2="806.4219"/><line style="stroke:#181818;stroke-width:0.5;" x1="1715" x2="1837" y1="814.4219" y2="814.4219"/></g><!--class Grade--><g id="elem_Grade"><rect codeLine="107" fill="#F1F1F1" height="72.9219" id="Grade" rx="2.5" ry="2.5" style="stroke:#181818;stroke-width:0.5;" width="124" x="1873" y="749.5"/><ellipse cx="1888" cy="777.9609" fill="#ADD1B2" rx="11" ry="11" style="stroke:#181818;stroke-width:1.0;"/><path d="M1890.7656,773.8359 Q1890.9219,773.6172 1891.1094,773.5078 Q1891.2969,773.3984 1891.5156,773.3984 Q1891.8906,773.3984 1892.125,773.6641 Q1892.3594,773.9141 1892.3594,774.5234 L1892.3594,775.9766 Q1892.3594,776.5859 1892.125,776.8516 Q1891.8906,777.1172 1891.5156,777.1172 Q1891.1719,777.1172 1890.9688,776.9141 Q1890.7656,776.7266 1890.6563,776.2109 Q1890.6094,775.8516 1890.4219,775.6641 Q1890.0938,775.2891 1889.4844,775.0703 Q1888.875,774.8516 1888.25,774.8516 Q1887.4844,774.8516 1886.8438,775.1797 Q1886.2188,775.5078 1885.7188,776.2578 Q1885.2344,777.0078 1885.2344,778.0391 L1885.2344,779.1328 Q1885.2344,780.3672 1886.125,781.1953 Q1887.0156,782.0078 1888.6094,782.0078 Q1889.5469,782.0078 1890.2031,781.7578 Q1890.5938,781.6016 1891.0156,781.1641 Q1891.2813,780.8984 1891.4219,780.8203 Q1891.5781,780.7422 1891.7813,780.7422 Q1892.1094,780.7422 1892.3594,781.0078 Q1892.625,781.2578 1892.625,781.6016 Q1892.625,781.9453 1892.2813,782.3516 Q1891.7813,782.9297 1890.9844,783.2578 Q1889.9063,783.7109 1888.6094,783.7109 Q1887.0938,783.7109 1885.8906,783.0859 Q1884.9063,782.5859 1884.2188,781.5234 Q1883.5313,780.4453 1883.5313,779.1641 L1883.5313,778.0078 Q1883.5313,776.6797 1884.1406,775.5391 Q1884.7656,774.3828 1885.8594,773.7734 Q1886.9531,773.1484 1888.1875,773.1484 Q1888.9219,773.1484 1889.5625,773.3203 Q1890.2188,773.4766 1890.7656,773.8359 Z " fill="#000000"/><text fill="#000000" font-family="sans-serif" font-size="14" lengthAdjust="spacing" textLength="92" x="1902" y="767.1738">&#171;value object&#187;</text><text fill="#000000" font-family="sans-serif" font-size="14" lengthAdjust="spacing" textLength="80" x="1908" y="782.8145">&#171;calculated&#187;</text><text fill="#000000" font-family="sans-serif" font-size="14" lengthAdjust="spacing" textLength="40" x="1928" y="798.4551">Grade</text><line style="stroke:#181818;stroke-width:0.5;" x1="1874" x2="1996" y1="806.4219" y2="806.4219"/><line style="stroke:#181818;stroke-width:0.5;" x1="1874" x2="1996" y1="814.4219" y2="814.4219"/></g><!--class ApplicationFile--><g id="elem_ApplicationFile"><rect codeLine="110" fill="#F1F1F1" height="88.5625" id="ApplicationFile" rx="2.5" ry="2.5" style="stroke:#181818;stroke-width:0.5;" width="124" x="2032" y="741.5"/><ellipse cx="2047" cy="762.1406" fill="#ADD1B2" rx="11" ry="11" style="stroke:#181818;stroke-width:1.0;"/><path d="M2049.7656,758.0156 Q2049.9219,757.7969 2050.1094,757.6875 Q2050.2969,757.5781 2050.5156,757.5781 Q2050.8906,757.5781 2051.125,757.8438 Q2051.3594,758.0938 2051.3594,758.7031 L2051.3594,760.1563 Q2051.3594,760.7656 2051.125,761.0313 Q2050.8906,761.2969 2050.5156,761.2969 Q2050.1719,761.2969 2049.9688,761.0938 Q2049.7656,760.9063 2049.6563,760.3906 Q2049.6094,760.0313 2049.4219,759.8438 Q2049.0938,759.4688 2048.4844,759.25 Q2047.875,759.0313 2047.25,759.0313 Q2046.4844,759.0313 2045.8438,759.3594 Q2045.2188,759.6875 2044.7188,760.4375 Q2044.2344,761.1875 2044.2344,762.2188 L2044.2344,763.3125 Q2044.2344,764.5469 2045.125,765.375 Q2046.0156,766.1875 2047.6094,766.1875 Q2048.5469,766.1875 2049.2031,765.9375 Q2049.5938,765.7813 2050.0156,765.3438 Q2050.2813,765.0781 2050.4219,765 Q2050.5781,764.9219 2050.7813,764.9219 Q2051.1094,764.9219 2051.3594,765.1875 Q2051.625,765.4375 2051.625,765.7813 Q2051.625,766.125 2051.2813,766.5313 Q2050.7813,767.1094 2049.9844,767.4375 Q2048.9063,767.8906 2047.6094,767.8906 Q2046.0938,767.8906 2044.8906,767.2656 Q2043.9063,766.7656 2043.2188,765.7031 Q2042.5313,764.625 2042.5313,763.3438 L2042.5313,762.1875 Q2042.5313,760.8594 2043.1406,759.7188 Q2043.7656,758.5625 2044.8594,757.9531 Q2045.9531,757.3281 2047.1875,757.3281 Q2047.9219,757.3281 2048.5625,757.5 Q2049.2188,757.6563 2049.7656,758.0156 Z " fill="#000000"/><text fill="#000000" font-family="sans-serif" font-size="14" lengthAdjust="spacing" textLength="92" x="2061" y="759.1738">&#171;value object&#187;</text><text fill="#000000" font-family="sans-serif" font-size="14" lengthAdjust="spacing" textLength="92" x="2061" y="774.8145">ApplicationFile</text><line style="stroke:#181818;stroke-width:0.5;" x1="2033" x2="2155" y1="782.7813" y2="782.7813"/><text fill="#000000" font-family="sans-serif" font-size="14" lengthAdjust="spacing" textLength="98" x="2038" y="799.4551">relativeFilePath</text><text fill="#000000" font-family="sans-serif" font-size="14" lengthAdjust="spacing" textLength="68" x="2038" y="815.0957">fileContent</text><line style="stroke:#181818;stroke-width:0.5;" x1="2033" x2="2155" y1="822.0625" y2="822.0625"/></g><!--class Type--><g id="elem_Type"><rect codeLine="117" fill="#F1F1F1" height="57.2813" id="Type" rx="2.5" ry="2.5" style="stroke:#181818;stroke-width:0.5;" width="124" x="2032" y="891.5"/><ellipse cx="2047" cy="912.1406" fill="#ADD1B2" rx="11" ry="11" style="stroke:#181818;stroke-width:1.0;"/><path d="M2049.7656,908.0156 Q2049.9219,907.7969 2050.1094,907.6875 Q2050.2969,907.5781 2050.5156,907.5781 Q2050.8906,907.5781 2051.125,907.8438 Q2051.3594,908.0938 2051.3594,908.7031 L2051.3594,910.1563 Q2051.3594,910.7656 2051.125,911.0313 Q2050.8906,911.2969 2050.5156,911.2969 Q2050.1719,911.2969 2049.9688,911.0938 Q2049.7656,910.9063 2049.6563,910.3906 Q2049.6094,910.0313 2049.4219,909.8438 Q2049.0938,909.4688 2048.4844,909.25 Q2047.875,909.0313 2047.25,909.0313 Q2046.4844,909.0313 2045.8438,909.3594 Q2045.2188,909.6875 2044.7188,910.4375 Q2044.2344,911.1875 2044.2344,912.2188 L2044.2344,913.3125 Q2044.2344,914.5469 2045.125,915.375 Q2046.0156,916.1875 2047.6094,916.1875 Q2048.5469,916.1875 2049.2031,915.9375 Q2049.5938,915.7813 2050.0156,915.3438 Q2050.2813,915.0781 2050.4219,915 Q2050.5781,914.9219 2050.7813,914.9219 Q2051.1094,914.9219 2051.3594,915.1875 Q2051.625,915.4375 2051.625,915.7813 Q2051.625,916.125 2051.2813,916.5313 Q2050.7813,917.1094 2049.9844,917.4375 Q2048.9063,917.8906 2047.6094,917.8906 Q2046.0938,917.8906 2044.8906,917.2656 Q2043.9063,916.7656 2043.2188,915.7031 Q2042.5313,914.625 2042.5313,913.3438 L2042.5313,912.1875 Q2042.5313,910.8594 2043.1406,909.7188 Q2043.7656,908.5625 2044.8594,907.9531 Q2045.9531,907.3281 2047.1875,907.3281 Q2047.9219,907.3281 2048.5625,907.5 Q2049.2188,907.6563 2049.7656,908.0156 Z " fill="#000000"/><text fill="#000000" font-family="sans-serif" font-size="14" lengthAdjust="spacing" textLength="92" x="2061" y="909.1738">&#171;value object&#187;</text><text fill="#000000" font-family="sans-serif" font-size="14" lengthAdjust="spacing" textLength="32" x="2091" y="924.8145">Type</text><line style="stroke:#181818;stroke-width:0.5;" x1="2033" x2="2155" y1="932.7813" y2="932.7813"/><line style="stroke:#181818;stroke-width:0.5;" x1="2033" x2="2155" y1="940.7813" y2="940.7813"/></g><!--reverse link Mode to JobOpening--><g id="link_Mode_JobOpening"><path codeLine="123" d="M1084.8143,139.9593 C1070.6043,151.9493 1058.3,162.28 1043,175 C1018.23,195.59 1012.15,200.87 987,221 C974.87,230.71 961.66,241.1 949.38,250.67 " fill="none" id="Mode-backto-JobOpening" style="stroke:#181818;stroke-width:1.0;"/><polygon fill="#181818" points="1089.4,136.09,1079.9419,138.8368,1085.5786,139.3144,1085.101,144.9511,1089.4,136.09" style="stroke:#181818;stroke-width:1.0;"/><text fill="#000000" font-family="sans-serif" font-size="13" lengthAdjust="spacing" textLength="48" x="1007" y="217.7686">includes</text><text fill="#000000" font-family="sans-serif" font-size="13" lengthAdjust="spacing" textLength="7" x="1074.0519" y="156.1167">1</text><text fill="#000000" font-family="sans-serif" font-size="13" lengthAdjust="spacing" textLength="7" x="950.554" y="240.1408">1</text></g><!--reverse link JobFunction to JobOpening--><g id="link_JobFunction_JobOpening"><path codeLine="124" d="M951.7044,141.996 C941.2944,172.896 926.37,217.18 915,250.91 " fill="none" id="JobFunction-backto-JobOpening" style="stroke:#181818;stroke-width:1.0;"/><polygon fill="#181818" points="953.62,136.31,946.956,143.5619,952.0237,141.0483,954.5373,146.116,953.62,136.31" style="stroke:#181818;stroke-width:1.0;"/><text fill="#000000" font-family="sans-serif" font-size="13" lengthAdjust="spacing" textLength="48" x="930" y="217.7686">includes</text><text fill="#000000" font-family="sans-serif" font-size="13" lengthAdjust="spacing" textLength="7" x="943.8025" y="155.9385">1</text><text fill="#000000" font-family="sans-serif" font-size="13" lengthAdjust="spacing" textLength="7" x="909.6734" y="240.156">1</text></g><!--reverse link NumberOfVacancies to JobOpening--><g id="link_NumberOfVacancies_JobOpening"><path codeLine="125" d="M805.1038,141.2851 C825.9338,172.1851 856.27,217.18 879,250.91 " fill="none" id="NumberOfVacancies-backto-JobOpening" style="stroke:#181818;stroke-width:1.0;"/><polygon fill="#181818" points="801.75,136.31,803.4639,146.0086,804.5448,140.456,810.0975,141.5369,801.75,136.31" style="stroke:#181818;stroke-width:1.0;"/><text fill="#000000" font-family="sans-serif" font-size="13" lengthAdjust="spacing" textLength="48" x="858" y="217.7686">includes</text><text fill="#000000" font-family="sans-serif" font-size="13" lengthAdjust="spacing" textLength="7" x="798.0859" y="155.9385">1</text><text fill="#000000" font-family="sans-serif" font-size="13" lengthAdjust="spacing" textLength="7" x="866.5859" y="240.156">1</text></g><!--reverse link Description to JobOpening--><g id="link_Description_JobOpening"><path codeLine="126" d="M637.4209,140.0349 C651.9409,152.7049 665.49,163.5 683,175 C736.68,210.27 802.98,242.49 848.69,263.12 " fill="none" id="Description-backto-JobOpening" style="stroke:#181818;stroke-width:1.0;"/><polygon fill="#181818" points="632.9,136.09,637.0514,145.0212,636.6674,139.3774,642.3112,138.9934,632.9,136.09" style="stroke:#181818;stroke-width:1.0;"/><text fill="#000000" font-family="sans-serif" font-size="13" lengthAdjust="spacing" textLength="48" x="760" y="217.7686">includes</text><text fill="#000000" font-family="sans-serif" font-size="13" lengthAdjust="spacing" textLength="7" x="632.005" y="156.1167">1</text><text fill="#000000" font-family="sans-serif" font-size="13" lengthAdjust="spacing" textLength="7" x="833.9218" y="256.7123">1</text></g><!--reverse link Address1 to JobOpening--><g id="link_Address1_JobOpening"><path codeLine="127" d="M511.0238,167.3799 C516.8838,171.4099 517.95,171.75 524,175 C631.56,232.76 772.78,264.1 848.84,277.84 " fill="none" id="Address1-backto-JobOpening" style="stroke:#181818;stroke-width:1.0;"/><polygon fill="#181818" points="506.08,163.98,511.229,172.3757,510.1998,166.8132,515.7622,165.784,506.08,163.98" style="stroke:#181818;stroke-width:1.0;"/><text fill="#000000" font-family="sans-serif" font-size="13" lengthAdjust="spacing" textLength="48" x="623" y="217.7686">includes</text><text fill="#000000" font-family="sans-serif" font-size="13" lengthAdjust="spacing" textLength="7" x="514.0726" y="167.7813">1</text><text fill="#000000" font-family="sans-serif" font-size="13" lengthAdjust="spacing" textLength="7" x="834.0919" y="273.4103">1</text></g><!--reverse link ContractType to JobOpening--><g id="link_ContractType_JobOpening"><path codeLine="128" d="M1248.7361,140.0523 C1234.3561,153.1623 1220.43,164.25 1202,175 C1121.97,221.71 1018.89,254.98 957.04,272.43 " fill="none" id="ContractType-backto-JobOpening" style="stroke:#181818;stroke-width:1.0;"/><polygon fill="#181818" points="1253.17,136.01,1243.8242,139.1175,1249.4751,139.3786,1249.214,145.0294,1253.17,136.01" style="stroke:#181818;stroke-width:1.0;"/><text fill="#000000" font-family="sans-serif" font-size="13" lengthAdjust="spacing" textLength="48" x="1141" y="217.7686">includes</text><text fill="#000000" font-family="sans-serif" font-size="13" lengthAdjust="spacing" textLength="7" x="1238.9249" y="156.0182">1</text><text fill="#000000" font-family="sans-serif" font-size="13" lengthAdjust="spacing" textLength="7" x="965.1316" y="267.1373">1</text></g><!--reverse link Plugin to JobOpening--><g id="link_Plugin_JobOpening"><path codeLine="131" d="M1693.8609,118.5164 C1555.4209,147.9164 1113.34,241.82 957.25,274.98 " fill="none" id="Plugin-backto-JobOpening" style="stroke:#181818;stroke-width:1.0;"/><polygon fill="#181818" points="1699.73,117.27,1690.0954,115.2269,1694.8391,118.3087,1691.7573,123.0523,1699.73,117.27" style="stroke:#181818;stroke-width:1.0;"/><text fill="#000000" font-family="sans-serif" font-size="13" lengthAdjust="spacing" textLength="48" x="1272" y="217.7686">includes</text><text fill="#000000" font-family="sans-serif" font-size="13" lengthAdjust="spacing" textLength="22" x="1670.0528" y="115.4896">0..2</text><text fill="#000000" font-family="sans-serif" font-size="13" lengthAdjust="spacing" textLength="7" x="965.0102" y="286.0472">1</text></g><!--link JobOpening to JobReference--><g id="link_JobOpening_JobReference"><path codeLine="132" d="M885.99,324.19 C874.79,347.69 862.7723,372.9341 851.5723,396.4241 " fill="none" id="JobOpening-to-JobReference" style="stroke:#181818;stroke-width:1.0;"/><polygon fill="#181818" points="848.99,401.84,856.474,395.4377,851.1419,397.3268,849.2528,391.9947,848.99,401.84" style="stroke:#181818;stroke-width:1.0;"/><text fill="#000000" font-family="sans-serif" font-size="13" lengthAdjust="spacing" textLength="69" x="870" y="368.7686">identified by</text><text fill="#000000" font-family="sans-serif" font-size="13" lengthAdjust="spacing" textLength="7" x="875.3367" y="343.7944">1</text><text fill="#000000" font-family="sans-serif" font-size="13" lengthAdjust="spacing" textLength="7" x="844.5615" y="391.3432">1</text></g><!--link JobOpening to JogOpeningStatus--><g id="link_JobOpening_JogOpeningStatus"><path codeLine="134" d="M848.99,321.75 C805.95,348.26 751.4996,381.7849 711.0296,406.6949 " fill="none" id="JobOpening-to-JogOpeningStatus" style="stroke:#181818;stroke-width:1.0;"/><polygon fill="#181818" points="705.92,409.84,715.6812,408.5288,710.178,407.2191,711.4878,401.716,705.92,409.84" style="stroke:#181818;stroke-width:1.0;"/><text fill="#000000" font-family="sans-serif" font-size="13" lengthAdjust="spacing" textLength="48" x="790" y="368.7686">includes</text><text fill="#000000" font-family="sans-serif" font-size="13" lengthAdjust="spacing" textLength="7" x="833.9027" y="323.3929">1</text><text fill="#000000" font-family="sans-serif" font-size="13" lengthAdjust="spacing" textLength="7" x="708.4984" y="399.3902">1</text></g><!--reverse link RecruitmentProcess to Phase--><g id="link_RecruitmentProcess_Phase"><path codeLine="135" d="M355.3455,461.7734 C377.1555,467.0334 389.14,469.88 411,475 C611.06,521.83 850.56,575.32 947.3,596.81 " fill="none" id="RecruitmentProcess-backto-Phase" style="stroke:#181818;stroke-width:1.0;"/><polygon fill="#181818" points="343.68,458.96,348.575,464.2552,355.3455,461.7734,350.4506,456.4782,343.68,458.96" style="stroke:#181818;stroke-width:1.0;"/><text fill="#000000" font-family="sans-serif" font-size="13" lengthAdjust="spacing" textLength="36" x="603" y="517.7686">part of</text><text fill="#000000" font-family="sans-serif" font-size="13" lengthAdjust="spacing" textLength="7" x="351.6081" y="458.0401">1</text><text fill="#000000" font-family="sans-serif" font-size="13" lengthAdjust="spacing" textLength="22" x="917.6078" y="592.1134">4..5</text></g><!--link RecruitmentProcess to PhaseNames--><g id="link_RecruitmentProcess_PhaseNames"><path codeLine="136" d="M343.68,438.5 C371.26,438.5 395.74,438.5 421.72,438.5 " fill="none" id="RecruitmentProcess-to-PhaseNames" style="stroke:#181818;stroke-width:1.0;"/><polygon fill="#181818" points="427.72,438.5,418.72,434.5,422.72,438.5,418.72,442.5,427.72,438.5" style="stroke:#181818;stroke-width:1.0;"/><text fill="#000000" font-family="sans-serif" font-size="13" lengthAdjust="spacing" textLength="48" x="361.75" y="432.2686">includes</text><text fill="#000000" font-family="sans-serif" font-size="13" lengthAdjust="spacing" textLength="7" x="351.6081" y="435.63">1</text><text fill="#000000" font-family="sans-serif" font-size="13" lengthAdjust="spacing" textLength="7" x="413.1142" y="435.4732">1</text></g><!--link JobOpening to RecruitmentProcess--><g id="link_JobOpening_RecruitmentProcess"><path codeLine="137" d="M848.72,300.83 C758.01,321.48 569.9,364.49 411,402 C389.15,407.16 371.3322,411.4208 349.5222,416.6908 " fill="none" id="JobOpening-to-RecruitmentProcess" style="stroke:#181818;stroke-width:1.0;"/><polygon fill="#181818" points="343.69,418.1,353.3777,419.8742,348.5501,416.9256,351.4987,412.098,343.69,418.1" style="stroke:#181818;stroke-width:1.0;"/><text fill="#000000" font-family="sans-serif" font-size="13" lengthAdjust="spacing" textLength="48" x="601" y="368.7686">includes</text><text fill="#000000" font-family="sans-serif" font-size="13" lengthAdjust="spacing" textLength="7" x="833.9558" y="299.4896">1</text><text fill="#000000" font-family="sans-serif" font-size="13" lengthAdjust="spacing" textLength="7" x="351.619" y="413.2857">1</text></g><!--link ScreeningPhase to Phase--><g id="link_ScreeningPhase_Phase"><path codeLine="140" d="M1251.48,467.08 C1190.9,499.5 1107.2891,544.2547 1050.4091,574.7047 " fill="none" id="ScreeningPhase-to-Phase" style="stroke:#181818;stroke-width:1.0;"/><polygon fill="none" points="1034.54,583.2,1053.2409,579.9944,1047.5773,569.415,1034.54,583.2" style="stroke:#181818;stroke-width:1.0;"/></g><!--link ResultPhase to Phase--><g id="link_ResultPhase_Phase"><path codeLine="141" d="M1118.74,467.08 C1095.9,492 1073.9596,515.9481 1046.7396,545.6581 " fill="none" id="ResultPhase-to-Phase" style="stroke:#181818;stroke-width:1.0;"/><polygon fill="none" points="1034.58,558.93,1051.1636,549.7113,1042.3156,541.6049,1034.58,558.93" style="stroke:#181818;stroke-width:1.0;"/></g><!--link InterviewPhase to Phase--><g id="link_InterviewPhase_Phase"><path codeLine="142" d="M144.18,467.09 C151.75,470.06 159.49,472.79 167,475 C457.5,560.32 804.9322,592.6005 929.3022,602.0905 " fill="none" id="InterviewPhase-to-Phase" style="stroke:#181818;stroke-width:1.0;"/><polygon fill="none" points="947.25,603.46,929.7587,596.1079,928.8457,608.0731,947.25,603.46" style="stroke:#181818;stroke-width:1.0;"/></g><!--link AnalysisPhase to Phase--><g id="link_AnalysisPhase_Phase"><path codeLine="143" d="M991,467.08 C991,490.98 991,508.19 991,537.25 " fill="none" id="AnalysisPhase-to-Phase" style="stroke:#181818;stroke-width:1.0;"/><polygon fill="none" points="991,555.25,997,537.25,985,537.25,991,555.25" style="stroke:#181818;stroke-width:1.0;"/></g><!--reverse link JobOpening to Notification--><g id="link_JobOpening_Notification"><path codeLine="145" d="M963.3502,293.9772 C1077.9102,305.4372 1332.28,337.51 1389,402 C1479.38,504.75 1450.14,688.14 1434.8,757.45 " fill="none" id="JobOpening-backto-Notification" style="stroke:#181818;stroke-width:1.0;"/><polygon fill="#181818" points="957.38,293.38,965.9372,298.256,962.3552,293.8777,966.7335,290.2957,957.38,293.38" style="stroke:#181818;stroke-width:1.0;"/><text fill="#000000" font-family="sans-serif" font-size="13" lengthAdjust="spacing" textLength="197" x="1444" y="517.7686">made when something changes in</text></g><!--reverse link JobApplication to Notification--><g id="link_JobApplication_Notification"><path codeLine="146" d="M1684.3635,613.701 C1623.3935,621.081 1536.54,639.87 1475,691.5 C1454.68,708.55 1442.25,736.56 1435.32,757.49 " fill="none" id="JobApplication-backto-Notification" style="stroke:#181818;stroke-width:1.0;"/><polygon fill="#181818" points="1690.32,612.98,1680.9046,610.0905,1685.3562,613.5808,1681.8659,618.0325,1690.32,612.98" style="stroke:#181818;stroke-width:1.0;"/><text fill="#000000" font-family="sans-serif" font-size="13" lengthAdjust="spacing" textLength="197" x="1476" y="704.2686">made when something changes in</text></g><!--link Plugin to PlugClass--><g id="link_Plugin_PlugClass"><path codeLine="148" d="M1759.4,144.09 C1776.86,177.88 1799.9852,222.6298 1815.9452,253.5098 " fill="none" id="Plugin-to-PlugClass" style="stroke:#181818;stroke-width:1.0;"/><polygon fill="#181818" points="1818.7,258.84,1818.1212,249.0082,1816.4043,254.3982,1811.0143,252.6813,1818.7,258.84" style="stroke:#181818;stroke-width:1.0;"/><text fill="#000000" font-family="sans-serif" font-size="13" lengthAdjust="spacing" textLength="48" x="1798" y="217.7686">includes</text><text fill="#000000" font-family="sans-serif" font-size="13" lengthAdjust="spacing" textLength="7" x="1755.0541" y="163.6766">1</text><text fill="#000000" font-family="sans-serif" font-size="13" lengthAdjust="spacing" textLength="7" x="1807.5838" y="248.3902">1</text></g><!--link Plugin to JarFile--><g id="link_Plugin_JarFile"><path codeLine="149" d="M1782.17,135.15 C1833.56,168.41 1916.0033,221.7694 1968.1533,255.5294 " fill="none" id="Plugin-to-JarFile" style="stroke:#181818;stroke-width:1.0;"/><polygon fill="#181818" points="1973.19,258.79,1967.8086,250.5413,1968.9927,256.0728,1963.4612,257.2569,1973.19,258.79" style="stroke:#181818;stroke-width:1.0;"/><text fill="#000000" font-family="sans-serif" font-size="13" lengthAdjust="spacing" textLength="48" x="1912" y="217.7686">includes</text><text fill="#000000" font-family="sans-serif" font-size="13" lengthAdjust="spacing" textLength="7" x="1790.1268" y="153.1442">1</text><text fill="#000000" font-family="sans-serif" font-size="13" lengthAdjust="spacing" textLength="7" x="1955.4808" y="248.3286">1</text></g><!--link Plugin to PlugDesc--><g id="link_Plugin_PlugDesc"><path codeLine="150" d="M1782.22,124.42 C1848.62,150.2 1983.24,203.06 2096,251 C2101.95,253.53 2102.6365,253.7971 2108.8065,256.5071 " fill="none" id="Plugin-to-PlugDesc" style="stroke:#181818;stroke-width:1.0;"/><polygon fill="#181818" points="2114.3,258.92,2107.6684,251.6384,2109.7221,256.9093,2104.4512,258.963,2114.3,258.92" style="stroke:#181818;stroke-width:1.0;"/><text fill="#000000" font-family="sans-serif" font-size="13" lengthAdjust="spacing" textLength="48" x="2019" y="217.7686">includes</text><text fill="#000000" font-family="sans-serif" font-size="13" lengthAdjust="spacing" textLength="7" x="1789.9063" y="123.9453">1</text><text fill="#000000" font-family="sans-serif" font-size="13" lengthAdjust="spacing" textLength="7" x="2097.8706" y="251.4805">1</text></g><!--link Plugin to PlugID--><g id="link_Plugin_PlugID"><path codeLine="151" d="M1699.83,137.69 C1656.16,168.66 1592.0343,214.1393 1545.1743,247.3693 " fill="none" id="Plugin-to-PlugID" style="stroke:#181818;stroke-width:1.0;"/><polygon fill="#181818" points="1540.28,250.84,1549.9353,248.8968,1544.3586,247.9477,1545.3076,242.3711,1540.28,250.84" style="stroke:#181818;stroke-width:1.0;"/><text fill="#000000" font-family="sans-serif" font-size="13" lengthAdjust="spacing" textLength="69" x="1601" y="217.7686">identified by</text><text fill="#000000" font-family="sans-serif" font-size="13" lengthAdjust="spacing" textLength="7" x="1684.8732" y="139.6429">1</text><text fill="#000000" font-family="sans-serif" font-size="13" lengthAdjust="spacing" textLength="7" x="1542.1974" y="240.3432">1</text></g><!--link Plugin to PlugType--><g id="link_Plugin_PlugType"><path codeLine="152" d="M1722.8,144.09 C1705.53,177.88 1682.6616,222.6179 1666.8716,253.4979 " fill="none" id="Plugin-to-PlugType" style="stroke:#181818;stroke-width:1.0;"/><polygon fill="#181818" points="1664.14,258.84,1671.7988,252.6479,1666.4163,254.3882,1664.676,249.0057,1664.14,258.84" style="stroke:#181818;stroke-width:1.0;"/><text fill="#000000" font-family="sans-serif" font-size="13" lengthAdjust="spacing" textLength="32" x="1691" y="217.7686">has a</text><text fill="#000000" font-family="sans-serif" font-size="13" lengthAdjust="spacing" textLength="7" x="1711.9347" y="163.6766">1</text><text fill="#000000" font-family="sans-serif" font-size="13" lengthAdjust="spacing" textLength="7" x="1659.6005" y="248.3902">1</text></g><!--link JobApplication to ID--><g id="link_JobApplication_ID"><path codeLine="155" d="M1756.86,644.22 C1761.02,674.84 1766.182,712.7847 1770.342,743.3947 " fill="none" id="JobApplication-to-ID" style="stroke:#181818;stroke-width:1.0;"/><polygon fill="#181818" points="1771.15,749.34,1773.9016,739.8833,1770.4767,744.3855,1765.9744,740.9606,1771.15,749.34" style="stroke:#181818;stroke-width:1.0;"/><text fill="#000000" font-family="sans-serif" font-size="13" lengthAdjust="spacing" textLength="69" x="1766" y="704.2686">identified by</text><text fill="#000000" font-family="sans-serif" font-size="13" lengthAdjust="spacing" textLength="7" x="1750.0937" y="663.5546">1</text><text fill="#000000" font-family="sans-serif" font-size="13" lengthAdjust="spacing" textLength="7" x="1762.5583" y="738.8432">1</text></g><!--link JobApplication to ApplicationFile--><g id="link_JobApplication_ApplicationFile"><path codeLine="156" d="M1813.51,626.99 C1868.65,645.06 1950.54,675.63 2015,715.5 C2026.96,722.9 2034.3295,728.2294 2045.1395,737.5194 " fill="none" id="JobApplication-to-ApplicationFile" style="stroke:#181818;stroke-width:1.0;"/><polygon fill="#181818" points="2049.69,741.43,2045.4714,732.5304,2045.8979,738.1711,2040.2572,738.5977,2049.69,741.43" style="stroke:#181818;stroke-width:1.0;"/><text fill="#000000" font-family="sans-serif" font-size="13" lengthAdjust="spacing" textLength="7" x="1821.4331" y="626.3174">1</text><text fill="#000000" font-family="sans-serif" font-size="13" lengthAdjust="spacing" textLength="20" x="2020.6949" y="730.7369">1..*</text></g><!--link ApplicationFile to Type--><g id="link_ApplicationFile_Type"><path codeLine="157" d="M2094,830.59 C2094,850.56 2094,867.65 2094,885.22 " fill="none" id="ApplicationFile-to-Type" style="stroke:#181818;stroke-width:1.0;"/><polygon fill="#181818" points="2094,891.22,2098,882.22,2094,886.22,2090,882.22,2094,891.22" style="stroke:#181818;stroke-width:1.0;"/><text fill="#000000" font-family="sans-serif" font-size="13" lengthAdjust="spacing" textLength="7" x="2086.5078" y="849.681">1</text><text fill="#000000" font-family="sans-serif" font-size="13" lengthAdjust="spacing" textLength="7" x="2086.1906" y="880.7424">1</text></g><!--reverse link JobOpening to JobApplication--><g id="link_JobOpening_JobApplication"><path codeLine="158" d="M963.2547,295.02 C1097.0447,309.6 1427.5,346.33 1450,356 C1565.79,405.74 1671.94,514.41 1721.92,570.86 " fill="none" id="JobOpening-backto-JobApplication" style="stroke:#181818;stroke-width:1.0;"/><polygon fill="#181818" points="957.29,294.37,965.8037,299.3215,962.2606,294.9117,966.6704,291.3686,957.29,294.37" style="stroke:#181818;stroke-width:1.0;"/><text fill="#000000" font-family="sans-serif" font-size="13" lengthAdjust="spacing" textLength="47" x="1626" y="443.2686">refers to</text><text fill="#000000" font-family="sans-serif" font-size="13" lengthAdjust="spacing" textLength="7" x="965.0555" y="292.1615">1</text><text fill="#000000" font-family="sans-serif" font-size="13" lengthAdjust="spacing" textLength="5" x="1710.7094" y="560.367">*</text></g><!--link JobApplication to Grade--><g id="link_JobApplication_Grade"><path codeLine="159" d="M1792.82,644.3 C1808.98,658.74 1827.57,675.68 1844,691.5 C1863.42,710.2 1880.299,727.3777 1897.239,745.0577 " fill="none" id="JobApplication-to-Grade" style="stroke:#181818;stroke-width:1.0;"/><polygon fill="#181818" points="1901.39,749.39,1898.0517,740.1242,1897.9308,745.7797,1892.2753,745.6588,1901.39,749.39" style="stroke:#181818;stroke-width:1.0;"/><text fill="#000000" font-family="sans-serif" font-size="13" lengthAdjust="spacing" textLength="48" x="1860" y="704.2686">includes</text><text fill="#000000" font-family="sans-serif" font-size="13" lengthAdjust="spacing" textLength="22" x="1870.6074" y="738.6321">0..1</text></g><!--link JobApplication to Status--><g id="link_JobApplication_Status"><path codeLine="160" d="M1727.75,644.29 C1714.58,663.34 1697.81,686.99 1682,707.5 C1668.92,724.47 1657.4542,738.304 1644.9342,752.914 " fill="none" id="JobApplication-to-Status" style="stroke:#181818;stroke-width:1.0;"/><polygon fill="#181818" points="1641.03,757.47,1649.9237,753.2389,1644.2835,753.6734,1643.849,748.0332,1641.03,757.47" style="stroke:#181818;stroke-width:1.0;"/><text fill="#000000" font-family="sans-serif" font-size="13" lengthAdjust="spacing" textLength="21" x="1694" y="704.2686">has</text><text fill="#000000" font-family="sans-serif" font-size="13" lengthAdjust="spacing" textLength="7" x="1715.9805" y="663.6367">1</text><text fill="#000000" font-family="sans-serif" font-size="13" lengthAdjust="spacing" textLength="7" x="1639.0342" y="746.6076">1</text></g><!--SRC=[bLRDRjim3BxhAGHV1XHmkWxR9HWA10cwfK3Re1rs67fHPCNHPik69BS8iZvH7s6tFDaaMPRadpIkBpPfyXD9aP_qOIjbAQRdvsM6cApoR8AB_1ndI8WueIZbA0UWHFWFIWcCheirl2i9eoo5ipJb94MIH7i0e7gC4umEhuH9AdU7Vu_idc1UKPahpOeNc0WHGIHWNxqt2FhvZiIIISAVA7bURP4WvizBlSJG6iR8m9elZrHgyHRbn6c4H5mkLCXEGrZYvPTE7ayegmWirhy9bcub3IZySaQq1L3-O2Z21yo9gPaFjQso_hq0maAAAfFUFv3tu6tN6KFPJb3XdLiQ7tlBdnU5oTaZmKUcjj_kli7nuXuCetGhU5sarkD18ba92zDMmltmbdV1vWMJ767vOrVMUOMA_RWjlIcIsbT_xCSciRwg69QqO4qP6daa0hojyZNXTvkV22E6gMseldeate88p6df8Whai3NVWfWb2M_6qtvV-55waAfTfHFdgY62V-50pOjAROB_-ukMM9LsL1g7LvheRjjGmcsXxyc6SC8mQIhj50Djt-xxDeiO_xRAb-ObeBZRGWU0aIvUY-EEZ5TeRnO95KsGklnkXLLMfVGOzl3iAUunJZNlcCy6-bqLhLsNJkVmbejHUBM_6pWj-c4RvNk3A9jh4qsS3iHeHg5S8tv5C-AyhJpAjpicUcMj2tOfFEbcPPcTR8IXlMhxDfqRg5pdlHbkG97rvqXUx6xwCgcRVp6I4m-l66MuobIsYPQ_SMH9qdpjJtE9prJlJSqfRLqT2YTg4Vf4j6Q5vDOeDqhGJAvI67cgk7uCUr572JIhm-WYWb_ZMB_zYGMda3ASLGaH823mqyOzZZxj4lJTQUE6V4yQXgTT0wjVmzO0MDg9FaucdnmqF5gHHgkCulZIcZhsrSPDaoLmlGF7N3f7Ux16_n9e0ZfJMNoUJBv4zVqAJajrPuF5vfXzV6bU_Z9sF0yOryO3IDEWKEsxcNBwUrd3W-3M5QhRnqhuftNJ2d-4aUcjQ9qwKvYhEOFFMyAWA78YjzeCRn5BLNgKWGuvlH_0DeEjYQbVmy9X-NfMbctxDdRFzQjXrM6ZPW_igTFhezQIpj3q-1Igqa44G2T_tsu3U9rIUU39v2pgiXBeoAs0TGoTXbA5ZwEpxbanLRocnaH0MNINDrXg01MSuT9EhtOYjLcvqL7f0_0V]--></g></svg>