<?xml version="1.0" encoding="us-ascii" standalone="no"?><svg xmlns="http://www.w3.org/2000/svg" xmlns:xlink="http://www.w3.org/1999/xlink" contentStyleType="text/css" height="835.2px" preserveAspectRatio="none" style="width:1950px;height:835px;background:#FFFFFF;" version="1.1" viewBox="0 0 1950 835" width="1950.4px" zoomAndPan="magnify"><defs/><g><text fill="#000000" font-family="sans-serif" font-size="11.2" font-weight="bold" lengthAdjust="spacing" textLength="608.8" x="670.2" y="24.0859">"US1016 - Execute the process that evaluates(grades) the interviews for a Job Opening " Sequence Diagram</text><rect fill="#FFFFFF" height="647.9094" style="stroke:#181818;stroke-width:0.8000000000000002;" width="8" x="50.8" y="106.5938"/><rect fill="#FFFFFF" height="202.3906" style="stroke:#181818;stroke-width:0.8000000000000002;" width="8" x="505.2" y="125.2266"/><rect fill="#FFFFFF" height="125.1641" style="stroke:#181818;stroke-width:0.8000000000000002;" width="8" x="505.2" y="352.65"/><rect fill="#FFFFFF" height="251.6563" style="stroke:#181818;stroke-width:0.8000000000000002;" width="8" x="505.2" y="502.8469"/><rect fill="#FFFFFF" height="75.0984" style="stroke:#181818;stroke-width:0.8000000000000002;" width="8" x="927.6" y="213.6531"/><rect fill="#FFFFFF" height="75.0984" style="stroke:#181818;stroke-width:0.8000000000000002;" width="8" x="927.6" y="377.6828"/><rect fill="#FFFFFF" height="180.5578" style="stroke:#181818;stroke-width:0.8000000000000002;" width="8" x="927.6" y="548.9125"/><rect fill="#FFFFFF" height="25.0328" style="stroke:#181818;stroke-width:0.8000000000000002;" width="8" x="1310" y="238.6859"/><rect fill="#FFFFFF" height="25.0328" style="stroke:#181818;stroke-width:0.8000000000000002;" width="8" x="1453.6" y="402.7156"/><rect fill="#FFFFFF" height="25.0328" style="stroke:#181818;stroke-width:0.8000000000000002;" width="8" x="1600" y="623.7391"/><rect fill="none" height="190.3906" style="stroke:#000000;stroke-width:1.2000000000000002;" width="1415.6" x="442.4" y="514.8469"/><line style="stroke:#181818;stroke-width:0.4000000000000001;stroke-dasharray:5.0,5.0;" x1="54.4" x2="54.4" y1="98.5938" y2="768.9031"/><line style="stroke:#181818;stroke-width:0.4000000000000001;stroke-dasharray:5.0,5.0;" x1="508.8" x2="508.8" y1="98.5938" y2="768.9031"/><line style="stroke:#181818;stroke-width:0.4000000000000001;stroke-dasharray:5.0,5.0;" x1="931.2" x2="931.2" y1="171.3234" y2="768.9031"/><line style="stroke:#181818;stroke-width:0.4000000000000001;stroke-dasharray:5.0,5.0;" x1="1314" x2="1314" y1="98.5938" y2="768.9031"/><line style="stroke:#181818;stroke-width:0.4000000000000001;stroke-dasharray:5.0,5.0;" x1="1457.2" x2="1457.2" y1="98.5938" y2="768.9031"/><line style="stroke:#181818;stroke-width:0.4000000000000001;stroke-dasharray:5.0,5.0;" x1="1603.6" x2="1603.6" y1="588.2094" y2="768.9031"/><line style="stroke:#181818;stroke-width:0.4000000000000001;stroke-dasharray:5.0,5.0;" x1="1717.2" x2="1717.2" y1="98.5938" y2="768.9031"/><line style="stroke:#181818;stroke-width:0.4000000000000001;stroke-dasharray:5.0,5.0;" x1="1806" x2="1806" y1="98.5938" y2="768.9031"/><line style="stroke:#181818;stroke-width:0.4000000000000001;stroke-dasharray:5.0,5.0;" x1="1902" x2="1902" y1="98.5938" y2="768.9031"/><text fill="#000000" font-family="sans-serif" font-size="11.2" lengthAdjust="spacing" textLength="96.8" x="4" y="95.7828">Customer Manager</text><ellipse cx="54.8" cy="42.4969" fill="#E3E3E3" rx="6.4" ry="6.4" style="stroke:#181818;stroke-width:0.4000000000000001;"/><path d="M54.8,48.8969 L54.8,70.4969 M44.4,55.2969 L65.2,55.2969 M54.8,70.4969 L44.4,82.4969 M54.8,70.4969 L65.2,82.4969 " fill="none" style="stroke:#181818;stroke-width:0.4000000000000001;"/><text fill="#000000" font-family="sans-serif" font-size="11.2" lengthAdjust="spacing" textLength="96.8" x="4" y="780.1891">Customer Manager</text><ellipse cx="54.8" cy="789.8" fill="#E3E3E3" rx="6.4" ry="6.4" style="stroke:#181818;stroke-width:0.4000000000000001;"/><path d="M54.8,796.2 L54.8,817.8 M44.4,802.6 L65.2,802.6 M54.8,817.8 L44.4,829.8 M54.8,817.8 L65.2,829.8 " fill="none" style="stroke:#181818;stroke-width:0.4000000000000001;"/><rect fill="#E3E3E3" height="40.9938" rx="2" ry="2" style="stroke:#181818;stroke-width:0.4000000000000001;" width="117.6" x="450.4" y="56.8"/><text fill="#000000" font-family="sans-serif" font-size="11.2" font-style="italic" lengthAdjust="spacing" textLength="76" x="471.2" y="74.4859">&#171;presentation&#187;</text><text fill="#000000" font-family="sans-serif" font-size="11.2" lengthAdjust="spacing" textLength="106.4" x="456" y="89.3828">:EvaluateInterviewsUI</text><rect fill="#E3E3E3" height="40.9938" rx="2" ry="2" style="stroke:#181818;stroke-width:0.4000000000000001;" width="117.6" x="450.4" y="768.1031"/><text fill="#000000" font-family="sans-serif" font-size="11.2" font-style="italic" lengthAdjust="spacing" textLength="76" x="471.2" y="785.7891">&#171;presentation&#187;</text><text fill="#000000" font-family="sans-serif" font-size="11.2" lengthAdjust="spacing" textLength="106.4" x="456" y="800.6859">:EvaluateInterviewsUI</text><text fill="#000000" font-family="sans-serif" font-size="11.2" font-style="italic" lengthAdjust="spacing" textLength="67.2" x="895.6" y="780.1891">&#171;application&#187;</text><text fill="#000000" font-family="sans-serif" font-size="11.2" lengthAdjust="spacing" textLength="146.4" x="856" y="795.0859">:EvaluateInterviewsController</text><ellipse cx="931.6" cy="810.6969" fill="#E3E3E3" rx="9.6" ry="9.6" style="stroke:#181818;stroke-width:0.4000000000000001;"/><polygon fill="#181818" points="928.4,801.0969,933.2,797.0969,931.6,801.0969,933.2,805.0969,928.4,801.0969" style="stroke:#181818;stroke-width:0.8000000000000002;"/><rect fill="#E3E3E3" height="40.9938" rx="2" ry="2" style="stroke:#181818;stroke-width:0.4000000000000001;" width="129.6" x="1249.2" y="56.8"/><text fill="#000000" font-family="sans-serif" font-size="11.2" font-style="italic" lengthAdjust="spacing" textLength="63.2" x="1282.4" y="74.4859">&#171;repository&#187;</text><text fill="#000000" font-family="sans-serif" font-size="11.2" lengthAdjust="spacing" textLength="118.4" x="1254.8" y="89.3828">:JobOpeningRepository</text><rect fill="#E3E3E3" height="40.9938" rx="2" ry="2" style="stroke:#181818;stroke-width:0.4000000000000001;" width="129.6" x="1249.2" y="768.1031"/><text fill="#000000" font-family="sans-serif" font-size="11.2" font-style="italic" lengthAdjust="spacing" textLength="63.2" x="1282.4" y="785.7891">&#171;repository&#187;</text><text fill="#000000" font-family="sans-serif" font-size="11.2" lengthAdjust="spacing" textLength="118.4" x="1254.8" y="800.6859">:JobOpeningRepository</text><rect fill="#E3E3E3" height="40.9938" rx="2" ry="2" style="stroke:#181818;stroke-width:0.4000000000000001;" width="141.6" x="1386.8" y="56.8"/><text fill="#000000" font-family="sans-serif" font-size="11.2" font-style="italic" lengthAdjust="spacing" textLength="63.2" x="1426" y="74.4859">&#171;repository&#187;</text><text fill="#000000" font-family="sans-serif" font-size="11.2" lengthAdjust="spacing" textLength="130.4" x="1392.4" y="89.3828">:JobApplicationRepository</text><rect fill="#E3E3E3" height="40.9938" rx="2" ry="2" style="stroke:#181818;stroke-width:0.4000000000000001;" width="141.6" x="1386.8" y="768.1031"/><text fill="#000000" font-family="sans-serif" font-size="11.2" font-style="italic" lengthAdjust="spacing" textLength="63.2" x="1426" y="785.7891">&#171;repository&#187;</text><text fill="#000000" font-family="sans-serif" font-size="11.2" lengthAdjust="spacing" textLength="130.4" x="1392.4" y="800.6859">:JobApplicationRepository</text><rect fill="#E3E3E3" height="40.9938" rx="2" ry="2" style="stroke:#181818;stroke-width:0.4000000000000001;" width="135.2" x="1536.4" y="768.1031"/><text fill="#000000" font-family="sans-serif" font-size="11.2" font-style="italic" lengthAdjust="spacing" textLength="124" x="1542" y="785.7891">&#171;requirementsInterface&#187;</text><text fill="#000000" font-family="sans-serif" font-size="11.2" lengthAdjust="spacing" textLength="88" x="1560" y="800.6859">jarClass :jarClass</text><rect fill="#E3E3E3" height="40.9938" rx="2" ry="2" style="stroke:#181818;stroke-width:0.4000000000000001;" width="75.2" x="1679.6" y="56.8"/><text fill="#000000" font-family="sans-serif" font-size="11.2" font-style="italic" lengthAdjust="spacing" textLength="49.6" x="1692.4" y="74.4859">&#171;domain&#187;</text><text fill="#000000" font-family="sans-serif" font-size="11.2" lengthAdjust="spacing" textLength="64" x="1685.2" y="89.3828">:JobOpening</text><rect fill="#E3E3E3" height="40.9938" rx="2" ry="2" style="stroke:#181818;stroke-width:0.4000000000000001;" width="75.2" x="1679.6" y="768.1031"/><text fill="#000000" font-family="sans-serif" font-size="11.2" font-style="italic" lengthAdjust="spacing" textLength="49.6" x="1692.4" y="785.7891">&#171;domain&#187;</text><text fill="#000000" font-family="sans-serif" font-size="11.2" lengthAdjust="spacing" textLength="64" x="1685.2" y="800.6859">:JobOpening</text><rect fill="#E3E3E3" height="40.9938" rx="2" ry="2" style="stroke:#181818;stroke-width:0.4000000000000001;" width="87.2" x="1762.8" y="56.8"/><text fill="#000000" font-family="sans-serif" font-size="11.2" font-style="italic" lengthAdjust="spacing" textLength="49.6" x="1781.6" y="74.4859">&#171;domain&#187;</text><text fill="#000000" font-family="sans-serif" font-size="11.2" lengthAdjust="spacing" textLength="76" x="1768.4" y="89.3828">:JobApplication</text><rect fill="#E3E3E3" height="40.9938" rx="2" ry="2" style="stroke:#181818;stroke-width:0.4000000000000001;" width="87.2" x="1762.8" y="768.1031"/><text fill="#000000" font-family="sans-serif" font-size="11.2" font-style="italic" lengthAdjust="spacing" textLength="49.6" x="1781.6" y="785.7891">&#171;domain&#187;</text><text fill="#000000" font-family="sans-serif" font-size="11.2" lengthAdjust="spacing" textLength="76" x="1768.4" y="800.6859">:JobApplication</text><rect fill="#E3E3E3" height="40.9938" rx="2" ry="2" style="stroke:#181818;stroke-width:0.4000000000000001;" width="88" x="1858" y="56.8"/><text fill="#000000" font-family="sans-serif" font-size="11.2" font-style="italic" lengthAdjust="spacing" textLength="49.6" x="1877.2" y="74.4859">&#171;domain&#187;</text><text fill="#000000" font-family="sans-serif" font-size="11.2" lengthAdjust="spacing" textLength="76.8" x="1863.6" y="89.3828">:ApplicationFile</text><rect fill="#E3E3E3" height="40.9938" rx="2" ry="2" style="stroke:#181818;stroke-width:0.4000000000000001;" width="88" x="1858" y="768.1031"/><text fill="#000000" font-family="sans-serif" font-size="11.2" font-style="italic" lengthAdjust="spacing" textLength="49.6" x="1877.2" y="785.7891">&#171;domain&#187;</text><text fill="#000000" font-family="sans-serif" font-size="11.2" lengthAdjust="spacing" textLength="76.8" x="1863.6" y="800.6859">:ApplicationFile</text><rect fill="#FFFFFF" height="647.9094" style="stroke:#181818;stroke-width:0.8000000000000002;" width="8" x="50.8" y="106.5938"/><rect fill="#FFFFFF" height="202.3906" style="stroke:#181818;stroke-width:0.8000000000000002;" width="8" x="505.2" y="125.2266"/><rect fill="#FFFFFF" height="125.1641" style="stroke:#181818;stroke-width:0.8000000000000002;" width="8" x="505.2" y="352.65"/><rect fill="#FFFFFF" height="251.6563" style="stroke:#181818;stroke-width:0.8000000000000002;" width="8" x="505.2" y="502.8469"/><rect fill="#FFFFFF" height="75.0984" style="stroke:#181818;stroke-width:0.8000000000000002;" width="8" x="927.6" y="213.6531"/><rect fill="#FFFFFF" height="75.0984" style="stroke:#181818;stroke-width:0.8000000000000002;" width="8" x="927.6" y="377.6828"/><rect fill="#FFFFFF" height="180.5578" style="stroke:#181818;stroke-width:0.8000000000000002;" width="8" x="927.6" y="548.9125"/><rect fill="#FFFFFF" height="25.0328" style="stroke:#181818;stroke-width:0.8000000000000002;" width="8" x="1310" y="238.6859"/><rect fill="#FFFFFF" height="25.0328" style="stroke:#181818;stroke-width:0.8000000000000002;" width="8" x="1453.6" y="402.7156"/><rect fill="#FFFFFF" height="25.0328" style="stroke:#181818;stroke-width:0.8000000000000002;" width="8" x="1600" y="623.7391"/><polygon fill="#181818" points="495.6,122.0266,503.6,125.2266,495.6,128.4266,498.8,125.2266" style="stroke:#181818;stroke-width:0.8000000000000002;"/><line style="stroke:#181818;stroke-width:0.8000000000000002;" x1="58.8" x2="500.4" y1="125.2266" y2="125.2266"/><text fill="#000000" font-family="sans-serif" font-size="10.4" font-weight="bold" lengthAdjust="spacing" textLength="5.6" x="64.4" y="121.0164">1</text><text fill="#000000" font-family="sans-serif" font-size="10.4" lengthAdjust="spacing" textLength="216" x="73.2" y="121.0164">asks to evaluate an Interview for a Job Opening</text><polygon fill="#181818" points="846.4,147.0594,854.4,150.2594,846.4,153.4594,849.6,150.2594" style="stroke:#181818;stroke-width:0.8000000000000002;"/><line style="stroke:#181818;stroke-width:0.8000000000000002;" x1="513.2" x2="851.2" y1="150.2594" y2="150.2594"/><text fill="#000000" font-family="sans-serif" font-size="10.4" font-weight="bold" lengthAdjust="spacing" textLength="5.6" x="518.8" y="146.0492">2</text><text fill="#000000" font-family="sans-serif" font-size="10.4" lengthAdjust="spacing" textLength="28.8" x="527.6" y="146.0492">create</text><text fill="#000000" font-family="sans-serif" font-size="11.2" font-style="italic" lengthAdjust="spacing" textLength="67.2" x="895.6" y="169.3125">&#171;application&#187;</text><text fill="#000000" font-family="sans-serif" font-size="11.2" lengthAdjust="spacing" textLength="146.4" x="856" y="184.2094">:EvaluateInterviewsController</text><ellipse cx="931.6" cy="144.4266" fill="#E3E3E3" rx="9.6" ry="9.6" style="stroke:#181818;stroke-width:0.4000000000000001;"/><polygon fill="#181818" points="928.4,134.8266,933.2,130.8266,931.6,134.8266,933.2,138.8266,928.4,134.8266" style="stroke:#181818;stroke-width:0.8000000000000002;"/><polygon fill="#181818" points="918,210.4531,926,213.6531,918,216.8531,921.2,213.6531" style="stroke:#181818;stroke-width:0.8000000000000002;"/><line style="stroke:#181818;stroke-width:0.8000000000000002;" x1="513.2" x2="922.8" y1="213.6531" y2="213.6531"/><text fill="#000000" font-family="sans-serif" font-size="10.4" font-weight="bold" lengthAdjust="spacing" textLength="5.6" x="518.8" y="209.443">3</text><text fill="#000000" font-family="sans-serif" font-size="10.4" lengthAdjust="spacing" textLength="183.2" x="527.6" y="209.443">findAllActiveJobOpeningsWithInterview()</text><polygon fill="#181818" points="1300.4,235.4859,1308.4,238.6859,1300.4,241.8859,1303.6,238.6859" style="stroke:#181818;stroke-width:0.8000000000000002;"/><line style="stroke:#181818;stroke-width:0.8000000000000002;" x1="935.6" x2="1305.2" y1="238.6859" y2="238.6859"/><text fill="#000000" font-family="sans-serif" font-size="10.4" font-weight="bold" lengthAdjust="spacing" textLength="5.6" x="941.2" y="234.4758">4</text><text fill="#000000" font-family="sans-serif" font-size="10.4" lengthAdjust="spacing" textLength="350.4" x="950" y="234.4758">findAllActiveJobOpeningsInInterviewPhaseByCustomerManager(currentUser)</text><polygon fill="#181818" points="944.4,260.5188,936.4,263.7188,944.4,266.9188,941.2,263.7188" style="stroke:#181818;stroke-width:0.8000000000000002;"/><line style="stroke:#181818;stroke-width:0.8000000000000002;stroke-dasharray:2.0,2.0;" x1="939.6" x2="1313.2" y1="263.7188" y2="263.7188"/><text fill="#000000" font-family="sans-serif" font-size="10.4" font-weight="bold" lengthAdjust="spacing" textLength="5.6" x="949.2" y="259.5086">5</text><text fill="#000000" font-family="sans-serif" font-size="10.4" lengthAdjust="spacing" textLength="57.6" x="958" y="259.5086">jobOpenings</text><polygon fill="#181818" points="522,285.5516,514,288.7516,522,291.9516,518.8,288.7516" style="stroke:#181818;stroke-width:0.8000000000000002;"/><line style="stroke:#181818;stroke-width:0.8000000000000002;stroke-dasharray:2.0,2.0;" x1="517.2" x2="930.8" y1="288.7516" y2="288.7516"/><text fill="#000000" font-family="sans-serif" font-size="10.4" font-weight="bold" lengthAdjust="spacing" textLength="5.6" x="526.8" y="284.5414">6</text><text fill="#000000" font-family="sans-serif" font-size="10.4" lengthAdjust="spacing" textLength="57.6" x="535.6" y="284.5414">jobOpenings</text><polygon fill="#181818" points="67.6,324.4172,59.6,327.6172,67.6,330.8172,64.4,327.6172" style="stroke:#181818;stroke-width:0.8000000000000002;"/><line style="stroke:#181818;stroke-width:0.8000000000000002;stroke-dasharray:2.0,2.0;" x1="62.8" x2="508.4" y1="327.6172" y2="327.6172"/><text fill="#000000" font-family="sans-serif" font-size="10.4" font-weight="bold" lengthAdjust="spacing" textLength="5.6" x="72.4" y="316.4906">7</text><text fill="#000000" font-family="sans-serif" font-size="10.4" lengthAdjust="spacing" textLength="263.2" x="81.2" y="309.5742">shows list of all the job openings with the interview phase</text><text fill="#000000" font-family="sans-serif" font-size="10.4" lengthAdjust="spacing" textLength="291.2" x="84.4" y="323.407">that are currently in the Interview Phase and asks to select one</text><polygon fill="#181818" points="495.6,349.45,503.6,352.65,495.6,355.85,498.8,352.65" style="stroke:#181818;stroke-width:0.8000000000000002;"/><line style="stroke:#181818;stroke-width:0.8000000000000002;" x1="58.8" x2="500.4" y1="352.65" y2="352.65"/><text fill="#000000" font-family="sans-serif" font-size="10.4" font-weight="bold" lengthAdjust="spacing" textLength="5.6" x="64.4" y="348.4398">8</text><text fill="#000000" font-family="sans-serif" font-size="10.4" lengthAdjust="spacing" textLength="98.4" x="73.2" y="348.4398">selects a job opening</text><polygon fill="#181818" points="918,374.4828,926,377.6828,918,380.8828,921.2,377.6828" style="stroke:#181818;stroke-width:0.8000000000000002;"/><line style="stroke:#181818;stroke-width:0.8000000000000002;" x1="513.2" x2="922.8" y1="377.6828" y2="377.6828"/><text fill="#000000" font-family="sans-serif" font-size="10.4" font-weight="bold" lengthAdjust="spacing" textLength="5.6" x="518.8" y="373.4727">9</text><text fill="#000000" font-family="sans-serif" font-size="10.4" lengthAdjust="spacing" textLength="390.4" x="527.6" y="373.4727">findAllAcceptedJobApplicationsWithAnswersFileByJobOpening(selectedJobOpening)</text><polygon fill="#181818" points="1444,399.5156,1452,402.7156,1444,405.9156,1447.2,402.7156" style="stroke:#181818;stroke-width:0.8000000000000002;"/><line style="stroke:#181818;stroke-width:0.8000000000000002;" x1="935.6" x2="1448.8" y1="402.7156" y2="402.7156"/><text fill="#000000" font-family="sans-serif" font-size="10.4" font-weight="bold" lengthAdjust="spacing" textLength="11.2" x="941.2" y="398.5055">10</text><text fill="#000000" font-family="sans-serif" font-size="10.4" lengthAdjust="spacing" textLength="284" x="955.6" y="398.5055">findAcceptedApplicationsByJobOpening(selectedJobOpening)</text><polygon fill="#181818" points="944.4,424.5484,936.4,427.7484,944.4,430.9484,941.2,427.7484" style="stroke:#181818;stroke-width:0.8000000000000002;"/><line style="stroke:#181818;stroke-width:0.8000000000000002;stroke-dasharray:2.0,2.0;" x1="939.6" x2="1456.8" y1="427.7484" y2="427.7484"/><text fill="#000000" font-family="sans-serif" font-size="10.4" font-weight="bold" lengthAdjust="spacing" textLength="11.2" x="949.2" y="423.5383">11</text><text fill="#000000" font-family="sans-serif" font-size="10.4" lengthAdjust="spacing" textLength="70.4" x="963.6" y="423.5383">jobApplications</text><polygon fill="#181818" points="522,449.5813,514,452.7813,522,455.9813,518.8,452.7813" style="stroke:#181818;stroke-width:0.8000000000000002;"/><line style="stroke:#181818;stroke-width:0.8000000000000002;" x1="517.2" x2="930.8" y1="452.7813" y2="452.7813"/><text fill="#000000" font-family="sans-serif" font-size="10.4" font-weight="bold" lengthAdjust="spacing" textLength="11.2" x="526.8" y="448.5711">12</text><text fill="#000000" font-family="sans-serif" font-size="10.4" lengthAdjust="spacing" textLength="70.4" x="541.2" y="448.5711">jobApplications</text><polygon fill="#181818" points="67.6,474.6141,59.6,477.8141,67.6,481.0141,64.4,477.8141" style="stroke:#181818;stroke-width:0.8000000000000002;"/><line style="stroke:#181818;stroke-width:0.8000000000000002;stroke-dasharray:2.0,2.0;" x1="62.8" x2="508.4" y1="477.8141" y2="477.8141"/><text fill="#000000" font-family="sans-serif" font-size="10.4" font-weight="bold" lengthAdjust="spacing" textLength="11.2" x="72.4" y="473.6039">13</text><text fill="#000000" font-family="sans-serif" font-size="10.4" lengthAdjust="spacing" textLength="412.8" x="86.8" y="473.6039">shows list of all the approved job applications for that Job Opening and asks to select one</text><polygon fill="#181818" points="495.6,499.6469,503.6,502.8469,495.6,506.0469,498.8,502.8469" style="stroke:#181818;stroke-width:0.8000000000000002;"/><line style="stroke:#181818;stroke-width:0.8000000000000002;" x1="58.8" x2="500.4" y1="502.8469" y2="502.8469"/><text fill="#000000" font-family="sans-serif" font-size="10.4" font-weight="bold" lengthAdjust="spacing" textLength="11.2" x="64.4" y="498.6367">14</text><text fill="#000000" font-family="sans-serif" font-size="10.4" lengthAdjust="spacing" textLength="112" x="78.8" y="498.6367">selects a job application</text><path d="M442.4,514.8469 L500.8,514.8469 L500.8,522.2797 L492.8,530.2797 L442.4,530.2797 L442.4,514.8469 " fill="#EEEEEE" style="stroke:#000000;stroke-width:1.2000000000000002;"/><rect fill="none" height="190.3906" style="stroke:#000000;stroke-width:1.2000000000000002;" width="1415.6" x="442.4" y="514.8469"/><text fill="#000000" font-family="sans-serif" font-size="10.4" font-weight="bold" lengthAdjust="spacing" textLength="22.4" x="454.4" y="526.8695">loop</text><text fill="#000000" font-family="sans-serif" font-size="8.8" font-weight="bold" lengthAdjust="spacing" textLength="68.8" x="512.8" y="525.943">[jobApplication]</text><polygon fill="#181818" points="918,545.7125,926,548.9125,918,552.1125,921.2,548.9125" style="stroke:#181818;stroke-width:0.8000000000000002;"/><line style="stroke:#181818;stroke-width:0.8000000000000002;" x1="513.2" x2="922.8" y1="548.9125" y2="548.9125"/><text fill="#000000" font-family="sans-serif" font-size="10.4" font-weight="bold" lengthAdjust="spacing" textLength="11.2" x="518.8" y="544.7023">15</text><text fill="#000000" font-family="sans-serif" font-size="10.4" lengthAdjust="spacing" textLength="332" x="533.2" y="544.7023">evaluateInterview(selectedJobOpening, jobApplication, interviewFilePath)</text><polygon fill="#181818" points="1526.8,570.7453,1534.8,573.9453,1526.8,577.1453,1530,573.9453" style="stroke:#181818;stroke-width:0.8000000000000002;"/><line style="stroke:#181818;stroke-width:0.8000000000000002;" x1="935.6" x2="1531.6" y1="573.9453" y2="573.9453"/><text fill="#000000" font-family="sans-serif" font-size="10.4" font-weight="bold" lengthAdjust="spacing" textLength="11.2" x="941.2" y="569.7352">16</text><text fill="#000000" font-family="sans-serif" font-size="10.4" lengthAdjust="spacing" textLength="28.8" x="955.6" y="569.7352">create</text><rect fill="#E3E3E3" height="40.9938" rx="2" ry="2" style="stroke:#181818;stroke-width:0.4000000000000001;" width="135.2" x="1536.4" y="555.3125"/><text fill="#000000" font-family="sans-serif" font-size="11.2" font-style="italic" lengthAdjust="spacing" textLength="124" x="1542" y="572.9984">&#171;requirementsInterface&#187;</text><text fill="#000000" font-family="sans-serif" font-size="11.2" lengthAdjust="spacing" textLength="88" x="1560" y="587.8953">jarClass :jarClass</text><polygon fill="#181818" points="1590.4,620.5391,1598.4,623.7391,1590.4,626.9391,1593.6,623.7391" style="stroke:#181818;stroke-width:0.8000000000000002;"/><line style="stroke:#181818;stroke-width:0.8000000000000002;" x1="935.6" x2="1595.2" y1="623.7391" y2="623.7391"/><text fill="#000000" font-family="sans-serif" font-size="10.4" font-weight="bold" lengthAdjust="spacing" textLength="11.2" x="941.2" y="619.5289">17</text><text fill="#000000" font-family="sans-serif" font-size="10.4" lengthAdjust="spacing" textLength="160.8" x="955.6" y="619.5289">evaluateInterview(interviewFilePath)</text><polygon fill="#181818" points="944.4,645.5719,936.4,648.7719,944.4,651.9719,941.2,648.7719" style="stroke:#181818;stroke-width:0.8000000000000002;"/><line style="stroke:#181818;stroke-width:0.8000000000000002;stroke-dasharray:2.0,2.0;" x1="939.6" x2="1603.2" y1="648.7719" y2="648.7719"/><text fill="#000000" font-family="sans-serif" font-size="10.4" font-weight="bold" lengthAdjust="spacing" textLength="11.2" x="949.2" y="644.5617">18</text><text fill="#000000" font-family="sans-serif" font-size="10.4" lengthAdjust="spacing" textLength="25.6" x="963.6" y="644.5617">grade</text><polygon fill="#181818" points="1796.8,670.6047,1804.8,673.8047,1796.8,677.0047,1800,673.8047" style="stroke:#181818;stroke-width:0.8000000000000002;"/><line style="stroke:#181818;stroke-width:0.8000000000000002;" x1="935.6" x2="1801.6" y1="673.8047" y2="673.8047"/><text fill="#000000" font-family="sans-serif" font-size="10.4" font-weight="bold" lengthAdjust="spacing" textLength="11.2" x="941.2" y="669.5945">19</text><text fill="#000000" font-family="sans-serif" font-size="10.4" lengthAdjust="spacing" textLength="81.6" x="955.6" y="669.5945">new Grade(grade)</text><polygon fill="#181818" points="1448,695.6375,1456,698.8375,1448,702.0375,1451.2,698.8375" style="stroke:#181818;stroke-width:0.8000000000000002;"/><line style="stroke:#181818;stroke-width:0.8000000000000002;" x1="935.6" x2="1452.8" y1="698.8375" y2="698.8375"/><text fill="#000000" font-family="sans-serif" font-size="10.4" font-weight="bold" lengthAdjust="spacing" textLength="11.2" x="941.2" y="694.6273">20</text><text fill="#000000" font-family="sans-serif" font-size="10.4" lengthAdjust="spacing" textLength="92" x="955.6" y="694.6273">save(jobApplication)</text><polygon fill="#181818" points="522,726.2703,514,729.4703,522,732.6703,518.8,729.4703" style="stroke:#181818;stroke-width:0.8000000000000002;"/><line style="stroke:#181818;stroke-width:0.8000000000000002;stroke-dasharray:2.0,2.0;" x1="517.2" x2="930.8" y1="729.4703" y2="729.4703"/><text fill="#000000" font-family="sans-serif" font-size="10.4" font-weight="bold" lengthAdjust="spacing" textLength="11.2" x="526.8" y="725.2602">21</text><text fill="#000000" font-family="sans-serif" font-size="10.4" lengthAdjust="spacing" textLength="84.8" x="541.2" y="725.2602">success message</text><polygon fill="#181818" points="63.6,751.3031,55.6,754.5031,63.6,757.7031,60.4,754.5031" style="stroke:#181818;stroke-width:0.8000000000000002;"/><line style="stroke:#181818;stroke-width:0.8000000000000002;stroke-dasharray:2.0,2.0;" x1="58.8" x2="508.4" y1="754.5031" y2="754.5031"/><text fill="#000000" font-family="sans-serif" font-size="10.4" font-weight="bold" lengthAdjust="spacing" textLength="11.2" x="68.4" y="750.293">22</text><text fill="#000000" font-family="sans-serif" font-size="10.4" lengthAdjust="spacing" textLength="117.6" x="82.8" y="750.293">shows success message</text><!--SRC=[bPPDRnen48Rl_XKZBeMgIEsb1rGXRMXQKHMbIefwwSNP7S29iJUsbvH_tx7toxkmq7A8Y7VUTyQUnxFOPw5oRlWUzbhfT6Vq7i6P0fbjdkGyVUPRV717YM0mTLnjPHnWTppJhq9jOSEbHSPuuRGgzeze67F2aMoqVlZm_iD7cCBj7qmBHqbs2BdHALfBtxa3F71PS8Tsl3KyGpi98K8vD0U1hnOssW27R_eHxd9KFjq87l2bG9KYV1QSP7lsPYSof53j7lKVnbD7ej6Yi8usPc355Ut4Z81RMAmObUz4AdAk78ncjrK1ooRbUXaYrqluz2atQ54vxeHMypbBjN96oxEoHVbCreb-tdyd0vxdKgIrlfkQDbNjwHvpRGLLVGpQRtVtG5hJh9wJ9grpNvvSaJzniv2SMZ2hlzMwHT2z5CBWdlPjm_OsFCKBnPVQvbzooFIU2tMbw5eMBGrBew0lGcBGzjPYiKT07AWzljyCwBDOmNJkUpeZwJF1fnlqW2jesdZAMwbl3DVBSi5_o8vCVQVVlYNZr215i7FFwUb6g2oHCl56s1wN_INShaa_dlJIUN7ZLtty6lbwIePjbwen_R7Z5c-EzNsehiCuBOoX7gyjcWdhvsWAe2md3sbjscxigKrw4fdXHQEmaxelGpwHHpYDpl7wCbOajZjDmq8Awq1lW4iPvWXPWguyuPKEkZjT8FSdyrkLeuWRXEfCv962GcmBHZX5OYLh0B8eQIw2LbZM51LQKn9XLqPRWYkgwX9RqtcVd1HpXrdtpWH-4cLVqLX_3MwEBGJZCcUGL4iJTjBXxg7MS2KDN5NQEEVL9Fr6HpmbPtXAUZp5kIuobGmmDLyl_ykeF8FhGD4uD_g0MUXXDDlBzrJ0A7vL3T3I0sKGaYW1YnNr1gJMUM-NZ9qYD6j6NJjdJflshkVqhhqddgiVtEqcmstjGjJl1vH4BU8nUItsNDN_K54VjiNvgiAxBe8k_Feu6zd5RS2kegvxDMUAniPNRrp-k9aCIw6vSfOVSDpjHAD3midtV62CUkPjaOOVLtlwGrE-hVO_fkXPZnwpiTsA_GK0]--></g></svg>