<?xml version="1.0" encoding="us-ascii" standalone="no"?><svg xmlns="http://www.w3.org/2000/svg" xmlns:xlink="http://www.w3.org/1999/xlink" contentStyleType="text/css" height="631.8px" preserveAspectRatio="none" style="width:1356px;height:631px;background:#FFFFFF;" version="1.1" viewBox="0 0 1356 631" width="1356px" zoomAndPan="magnify"><defs/><g><!--cluster Job Opening Aggregate--><g id="cluster_Job Opening Aggregate"><path d="M5.1,3.6082 L105.9,3.6082 A2.25,2.25 0 0 1 107.4,5.1082 L111.6,18.3809 L830.7,18.3809 A1.5,1.5 0 0 1 832.2,19.8809 L832.2,443.4082 A1.5,1.5 0 0 1 830.7,444.9082 L5.1,444.9082 A1.5,1.5 0 0 1 3.6,443.4082 L3.6,5.1082 A1.5,1.5 0 0 1 5.1,3.6082 " fill="none" style="stroke:#000000;stroke-width:0.8999999999999999;"/><line style="stroke:#000000;stroke-width:0.8999999999999999;" x1="3.6" x2="111.6" y1="18.3809" y2="18.3809"/><text fill="#000000" font-family="sans-serif" font-size="8.4" font-weight="bold" lengthAdjust="spacing" textLength="100.2" x="6" y="13.8727">Job Opening Aggregate</text></g><!--cluster Plugin Aggregate--><g id="cluster_Plugin Aggregate"><path d="M848.1,25.8082 L921.3,25.8082 A2.25,2.25 0 0 1 922.8,27.3082 L927,40.5809 L1350.3,40.5809 A1.5,1.5 0 0 1 1351.8,42.0809 L1351.8,224.1082 A1.5,1.5 0 0 1 1350.3,225.6082 L848.1,225.6082 A1.5,1.5 0 0 1 846.6,224.1082 L846.6,27.3082 A1.5,1.5 0 0 1 848.1,25.8082 " fill="none" style="stroke:#000000;stroke-width:0.8999999999999999;"/><line style="stroke:#000000;stroke-width:0.8999999999999999;" x1="846.6" x2="927" y1="40.5809" y2="40.5809"/><text fill="#000000" font-family="sans-serif" font-size="8.4" font-weight="bold" lengthAdjust="spacing" textLength="72.6" x="849" y="36.0727">Plugin Aggregate</text></g><!--cluster JobApplication Aggregate--><g id="cluster_JobApplication Aggregate"><path d="M848.1,352.8082 L957.3,352.8082 A2.25,2.25 0 0 1 958.8,354.3082 L963,367.5809 L1224.9,367.5809 A1.5,1.5 0 0 1 1226.4,369.0809 L1226.4,626.4082 A1.5,1.5 0 0 1 1224.9,627.9082 L848.1,627.9082 A1.5,1.5 0 0 1 846.6,626.4082 L846.6,354.3082 A1.5,1.5 0 0 1 848.1,352.8082 " fill="none" style="stroke:#000000;stroke-width:0.8999999999999999;"/><line style="stroke:#000000;stroke-width:0.8999999999999999;" x1="846.6" x2="963" y1="367.5809" y2="367.5809"/><text fill="#000000" font-family="sans-serif" font-size="8.4" font-weight="bold" lengthAdjust="spacing" textLength="108.6" x="849" y="363.0727">JobApplication Aggregate</text></g><!--class RecruitmentProcess--><g id="elem_RecruitmentProcess"><rect codeLine="5" fill="#F1F1F1" height="49.118" id="RecruitmentProcess" rx="1.5" ry="1.5" style="stroke:#181818;stroke-width:0.3;" width="95.4" x="110.7" y="264.6082"/><ellipse cx="119.7" cy="278.7809" fill="#ADD1B2" rx="6.6" ry="6.6" style="stroke:#181818;stroke-width:0.6;"/><path d="M121.3594,276.3059 Q121.4531,276.1746 121.5656,276.109 Q121.6781,276.0434 121.8094,276.0434 Q122.0344,276.0434 122.175,276.2027 Q122.3156,276.3527 122.3156,276.7184 L122.3156,277.5902 Q122.3156,277.9559 122.175,278.1152 Q122.0344,278.2746 121.8094,278.2746 Q121.6031,278.2746 121.4812,278.1527 Q121.3594,278.0402 121.2937,277.7309 Q121.2656,277.5152 121.1531,277.4027 Q120.9563,277.1777 120.5906,277.0465 Q120.225,276.9152 119.85,276.9152 Q119.3906,276.9152 119.0063,277.1121 Q118.6313,277.309 118.3313,277.759 Q118.0406,278.209 118.0406,278.8277 L118.0406,279.484 Q118.0406,280.2246 118.575,280.7215 Q119.1094,281.209 120.0656,281.209 Q120.6281,281.209 121.0219,281.059 Q121.2563,280.9652 121.5094,280.7027 Q121.6687,280.5434 121.7531,280.4965 Q121.8469,280.4496 121.9688,280.4496 Q122.1656,280.4496 122.3156,280.609 Q122.475,280.759 122.475,280.9652 Q122.475,281.1715 122.2688,281.4152 Q121.9688,281.7621 121.4906,281.959 Q120.8438,282.2309 120.0656,282.2309 Q119.1563,282.2309 118.4344,281.8559 Q117.8438,281.5559 117.4312,280.9184 Q117.0188,280.2715 117.0188,279.5027 L117.0188,278.809 Q117.0188,278.0121 117.3844,277.3277 Q117.7594,276.634 118.4156,276.2684 Q119.0719,275.8934 119.8125,275.8934 Q120.2531,275.8934 120.6375,275.9965 Q121.0313,276.0902 121.3594,276.3059 Z " fill="#000000"/><text fill="#000000" font-family="sans-serif" font-size="8.4" lengthAdjust="spacing" textLength="30" x="151.2" y="276.6727">&#171;entity&#187;</text><text fill="#000000" font-family="sans-serif" font-size="8.4" lengthAdjust="spacing" textLength="76.2" x="128.1" y="287.8453">RecruitmentProcess</text><line style="stroke:#181818;stroke-width:0.3;" x1="111.3" x2="205.5" y1="292.9535" y2="292.9535"/><text fill="#000000" font-family="sans-serif" font-size="8.4" lengthAdjust="spacing" textLength="71.4" x="114.3" y="304.418">HasInterviewPhase</text><line style="stroke:#181818;stroke-width:0.3;" x1="111.3" x2="205.5" y1="308.9262" y2="308.9262"/></g><!--class Phase--><g id="elem_Phase"><rect codeLine="9" fill="#F1F1F1" height="71.4633" id="Phase" rx="1.5" ry="1.5" style="stroke:#181818;stroke-width:0.3;" width="52.2" x="568.5" y="363.9082"/><ellipse cx="578.85" cy="378.0809" fill="#ADD1B2" rx="6.6" ry="6.6" style="stroke:#181818;stroke-width:0.6;"/><path d="M580.5094,375.6059 Q580.6031,375.4746 580.7156,375.409 Q580.8281,375.3434 580.9594,375.3434 Q581.1844,375.3434 581.325,375.5027 Q581.4656,375.6527 581.4656,376.0184 L581.4656,376.8902 Q581.4656,377.2559 581.325,377.4152 Q581.1844,377.5746 580.9594,377.5746 Q580.7531,377.5746 580.6313,377.4527 Q580.5094,377.3402 580.4438,377.0309 Q580.4156,376.8152 580.3031,376.7027 Q580.1062,376.4777 579.7406,376.3465 Q579.375,376.2152 579,376.2152 Q578.5406,376.2152 578.1563,376.4121 Q577.7813,376.609 577.4812,377.059 Q577.1906,377.509 577.1906,378.1277 L577.1906,378.784 Q577.1906,379.5246 577.725,380.0215 Q578.2594,380.509 579.2156,380.509 Q579.7781,380.509 580.1719,380.359 Q580.4063,380.2652 580.6594,380.0027 Q580.8188,379.8434 580.9031,379.7965 Q580.9969,379.7496 581.1188,379.7496 Q581.3156,379.7496 581.4656,379.909 Q581.625,380.059 581.625,380.2652 Q581.625,380.4715 581.4187,380.7152 Q581.1188,381.0621 580.6406,381.259 Q579.9938,381.5309 579.2156,381.5309 Q578.3063,381.5309 577.5844,381.1559 Q576.9938,380.8559 576.5813,380.2184 Q576.1687,379.5715 576.1687,378.8027 L576.1687,378.109 Q576.1687,377.3121 576.5344,376.6277 Q576.9094,375.934 577.5656,375.5684 Q578.2219,375.1934 578.9625,375.1934 Q579.4031,375.1934 579.7875,375.2965 Q580.1813,375.3902 580.5094,375.6059 Z " fill="#000000"/><text fill="#000000" font-family="sans-serif" font-size="8.4" lengthAdjust="spacing" textLength="30" x="587.55" y="375.9727">&#171;entity&#187;</text><text fill="#000000" font-family="sans-serif" font-size="8.4" lengthAdjust="spacing" textLength="24" x="590.55" y="387.1453">Phase</text><line style="stroke:#181818;stroke-width:0.3;" x1="569.1" x2="620.1" y1="392.2535" y2="392.2535"/><text fill="#000000" font-family="sans-serif" font-size="8.4" lengthAdjust="spacing" textLength="45" x="572.1" y="403.718">phaseName</text><text fill="#000000" font-family="sans-serif" font-size="8.4" lengthAdjust="spacing" textLength="34.8" x="572.1" y="414.8906">startDate</text><text fill="#000000" font-family="sans-serif" font-size="8.4" lengthAdjust="spacing" textLength="32.4" x="572.1" y="426.0633">endDate</text><line style="stroke:#181818;stroke-width:0.3;" x1="569.1" x2="620.1" y1="430.5715" y2="430.5715"/></g><!--class PhaseNames--><g id="elem_PhaseNames"><rect codeLine="15" fill="#F1F1F1" height="37.9453" id="PhaseNames" rx="1.5" ry="1.5" style="stroke:#181818;stroke-width:0.3;" width="74.4" x="256.8" y="270.3082"/><ellipse cx="265.8" cy="284.4809" fill="#ADD1B2" rx="6.6" ry="6.6" style="stroke:#181818;stroke-width:0.6;"/><path d="M267.4594,282.0059 Q267.5531,281.8746 267.6656,281.809 Q267.7781,281.7434 267.9094,281.7434 Q268.1344,281.7434 268.275,281.9027 Q268.4156,282.0527 268.4156,282.4184 L268.4156,283.2902 Q268.4156,283.6559 268.275,283.8152 Q268.1344,283.9746 267.9094,283.9746 Q267.7031,283.9746 267.5813,283.8527 Q267.4594,283.7402 267.3938,283.4309 Q267.3656,283.2152 267.2531,283.1027 Q267.0563,282.8777 266.6906,282.7465 Q266.325,282.6152 265.95,282.6152 Q265.4906,282.6152 265.1063,282.8121 Q264.7313,283.009 264.4313,283.459 Q264.1406,283.909 264.1406,284.5277 L264.1406,285.184 Q264.1406,285.9246 264.675,286.4215 Q265.2094,286.909 266.1656,286.909 Q266.7281,286.909 267.1219,286.759 Q267.3563,286.6652 267.6094,286.4027 Q267.7688,286.2434 267.8531,286.1965 Q267.9469,286.1496 268.0687,286.1496 Q268.2656,286.1496 268.4156,286.309 Q268.575,286.459 268.575,286.6652 Q268.575,286.8715 268.3688,287.1152 Q268.0687,287.4621 267.5906,287.659 Q266.9437,287.9309 266.1656,287.9309 Q265.2562,287.9309 264.5344,287.5559 Q263.9437,287.2559 263.5313,286.6184 Q263.1188,285.9715 263.1188,285.2027 L263.1188,284.509 Q263.1188,283.7121 263.4844,283.0277 Q263.8594,282.334 264.5156,281.9684 Q265.1719,281.5934 265.9125,281.5934 Q266.3531,281.5934 266.7375,281.6965 Q267.1312,281.7902 267.4594,282.0059 Z " fill="#000000"/><text fill="#000000" font-family="sans-serif" font-size="8.4" lengthAdjust="spacing" textLength="55.2" x="274.2" y="282.3727">&#171;value object&#187;</text><text fill="#000000" font-family="sans-serif" font-size="8.4" lengthAdjust="spacing" textLength="49.8" x="276.9" y="293.5453">PhaseNames</text><line style="stroke:#181818;stroke-width:0.3;" x1="257.4" x2="330.6" y1="298.6535" y2="298.6535"/><line style="stroke:#181818;stroke-width:0.3;" x1="257.4" x2="330.6" y1="303.4535" y2="303.4535"/></g><!--class ScreeningPhase--><g id="elem_ScreeningPhase"><rect codeLine="20" fill="#F1F1F1" height="37.9453" id="ScreeningPhase" rx="1.5" ry="1.5" style="stroke:#181818;stroke-width:0.3;" width="81.6" x="741" y="270.3082"/><ellipse cx="750" cy="284.4809" fill="#ADD1B2" rx="6.6" ry="6.6" style="stroke:#181818;stroke-width:0.6;"/><path d="M751.6594,282.0059 Q751.7531,281.8746 751.8656,281.809 Q751.9781,281.7434 752.1094,281.7434 Q752.3344,281.7434 752.475,281.9027 Q752.6156,282.0527 752.6156,282.4184 L752.6156,283.2902 Q752.6156,283.6559 752.475,283.8152 Q752.3344,283.9746 752.1094,283.9746 Q751.9031,283.9746 751.7813,283.8527 Q751.6594,283.7402 751.5938,283.4309 Q751.5656,283.2152 751.4531,283.1027 Q751.2563,282.8777 750.8906,282.7465 Q750.525,282.6152 750.15,282.6152 Q749.6906,282.6152 749.3063,282.8121 Q748.9313,283.009 748.6313,283.459 Q748.3406,283.909 748.3406,284.5277 L748.3406,285.184 Q748.3406,285.9246 748.875,286.4215 Q749.4094,286.909 750.3656,286.909 Q750.9281,286.909 751.3219,286.759 Q751.5563,286.6652 751.8094,286.4027 Q751.9688,286.2434 752.0531,286.1965 Q752.1469,286.1496 752.2688,286.1496 Q752.4656,286.1496 752.6156,286.309 Q752.775,286.459 752.775,286.6652 Q752.775,286.8715 752.5688,287.1152 Q752.2688,287.4621 751.7906,287.659 Q751.1438,287.9309 750.3656,287.9309 Q749.4563,287.9309 748.7344,287.5559 Q748.1438,287.2559 747.7312,286.6184 Q747.3188,285.9715 747.3188,285.2027 L747.3188,284.509 Q747.3188,283.7121 747.6844,283.0277 Q748.0594,282.334 748.7156,281.9684 Q749.3719,281.5934 750.1125,281.5934 Q750.5531,281.5934 750.9375,281.6965 Q751.3313,281.7902 751.6594,282.0059 Z " fill="#000000"/><text fill="#000000" font-family="sans-serif" font-size="8.4" lengthAdjust="spacing" textLength="30" x="774.6" y="282.3727">&#171;entity&#187;</text><text fill="#000000" font-family="sans-serif" font-size="8.4" lengthAdjust="spacing" textLength="62.4" x="758.4" y="293.5453">ScreeningPhase</text><line style="stroke:#181818;stroke-width:0.3;" x1="741.6" x2="822" y1="298.6535" y2="298.6535"/><line style="stroke:#181818;stroke-width:0.3;" x1="741.6" x2="822" y1="303.4535" y2="303.4535"/></g><!--class ResultPhase--><g id="elem_ResultPhase"><rect codeLine="24" fill="#F1F1F1" height="37.9453" id="ResultPhase" rx="1.5" ry="1.5" style="stroke:#181818;stroke-width:0.3;" width="67.2" x="652.8" y="270.3082"/><ellipse cx="661.8" cy="284.4809" fill="#ADD1B2" rx="6.6" ry="6.6" style="stroke:#181818;stroke-width:0.6;"/><path d="M663.4594,282.0059 Q663.5531,281.8746 663.6656,281.809 Q663.7781,281.7434 663.9094,281.7434 Q664.1344,281.7434 664.275,281.9027 Q664.4156,282.0527 664.4156,282.4184 L664.4156,283.2902 Q664.4156,283.6559 664.275,283.8152 Q664.1344,283.9746 663.9094,283.9746 Q663.7031,283.9746 663.5813,283.8527 Q663.4594,283.7402 663.3938,283.4309 Q663.3656,283.2152 663.2531,283.1027 Q663.0563,282.8777 662.6906,282.7465 Q662.325,282.6152 661.95,282.6152 Q661.4906,282.6152 661.1062,282.8121 Q660.7312,283.009 660.4313,283.459 Q660.1406,283.909 660.1406,284.5277 L660.1406,285.184 Q660.1406,285.9246 660.675,286.4215 Q661.2094,286.909 662.1656,286.909 Q662.7281,286.909 663.1219,286.759 Q663.3562,286.6652 663.6094,286.4027 Q663.7688,286.2434 663.8531,286.1965 Q663.9469,286.1496 664.0688,286.1496 Q664.2656,286.1496 664.4156,286.309 Q664.575,286.459 664.575,286.6652 Q664.575,286.8715 664.3688,287.1152 Q664.0688,287.4621 663.5906,287.659 Q662.9438,287.9309 662.1656,287.9309 Q661.2563,287.9309 660.5344,287.5559 Q659.9438,287.2559 659.5313,286.6184 Q659.1188,285.9715 659.1188,285.2027 L659.1188,284.509 Q659.1188,283.7121 659.4844,283.0277 Q659.8594,282.334 660.5156,281.9684 Q661.1719,281.5934 661.9125,281.5934 Q662.3531,281.5934 662.7375,281.6965 Q663.1313,281.7902 663.4594,282.0059 Z " fill="#000000"/><text fill="#000000" font-family="sans-serif" font-size="8.4" lengthAdjust="spacing" textLength="30" x="679.2" y="282.3727">&#171;entity&#187;</text><text fill="#000000" font-family="sans-serif" font-size="8.4" lengthAdjust="spacing" textLength="48" x="670.2" y="293.5453">ResultPhase</text><line style="stroke:#181818;stroke-width:0.3;" x1="653.4" x2="719.4" y1="298.6535" y2="298.6535"/><line style="stroke:#181818;stroke-width:0.3;" x1="653.4" x2="719.4" y1="303.4535" y2="303.4535"/></g><!--class AnalysisPhase--><g id="elem_AnalysisPhase"><rect codeLine="27" fill="#F1F1F1" height="37.9453" id="AnalysisPhase" rx="1.5" ry="1.5" style="stroke:#181818;stroke-width:0.3;" width="74.4" x="557.4" y="270.3082"/><ellipse cx="566.4" cy="284.4809" fill="#ADD1B2" rx="6.6" ry="6.6" style="stroke:#181818;stroke-width:0.6;"/><path d="M568.0594,282.0059 Q568.1531,281.8746 568.2656,281.809 Q568.3781,281.7434 568.5094,281.7434 Q568.7344,281.7434 568.875,281.9027 Q569.0156,282.0527 569.0156,282.4184 L569.0156,283.2902 Q569.0156,283.6559 568.875,283.8152 Q568.7344,283.9746 568.5094,283.9746 Q568.3031,283.9746 568.1813,283.8527 Q568.0594,283.7402 567.9938,283.4309 Q567.9656,283.2152 567.8531,283.1027 Q567.6563,282.8777 567.2906,282.7465 Q566.925,282.6152 566.55,282.6152 Q566.0906,282.6152 565.7063,282.8121 Q565.3313,283.009 565.0313,283.459 Q564.7406,283.909 564.7406,284.5277 L564.7406,285.184 Q564.7406,285.9246 565.275,286.4215 Q565.8094,286.909 566.7656,286.909 Q567.3281,286.909 567.7219,286.759 Q567.9563,286.6652 568.2094,286.4027 Q568.3688,286.2434 568.4531,286.1965 Q568.5469,286.1496 568.6687,286.1496 Q568.8656,286.1496 569.0156,286.309 Q569.175,286.459 569.175,286.6652 Q569.175,286.8715 568.9688,287.1152 Q568.6687,287.4621 568.1906,287.659 Q567.5437,287.9309 566.7656,287.9309 Q565.8562,287.9309 565.1344,287.5559 Q564.5437,287.2559 564.1313,286.6184 Q563.7188,285.9715 563.7188,285.2027 L563.7188,284.509 Q563.7188,283.7121 564.0844,283.0277 Q564.4594,282.334 565.1156,281.9684 Q565.7719,281.5934 566.5125,281.5934 Q566.9531,281.5934 567.3375,281.6965 Q567.7312,281.7902 568.0594,282.0059 Z " fill="#000000"/><text fill="#000000" font-family="sans-serif" font-size="8.4" lengthAdjust="spacing" textLength="30" x="587.4" y="282.3727">&#171;entity&#187;</text><text fill="#000000" font-family="sans-serif" font-size="8.4" lengthAdjust="spacing" textLength="55.2" x="574.8" y="293.5453">AnalysisPhase</text><line style="stroke:#181818;stroke-width:0.3;" x1="558" x2="631.2" y1="298.6535" y2="298.6535"/><line style="stroke:#181818;stroke-width:0.3;" x1="558" x2="631.2" y1="303.4535" y2="303.4535"/></g><!--class JobOpening--><g id="elem_JobOpening"><rect codeLine="31" fill="#F1F1F1" height="49.118" id="JobOpening" rx="1.5" ry="1.5" style="stroke:#181818;stroke-width:0.3;" width="64.8" x="466.8" y="166.8082"/><ellipse cx="475.8" cy="186.5672" fill="#ADD1B2" rx="6.6" ry="6.6" style="stroke:#181818;stroke-width:0.6;"/><path d="M477.4594,184.0922 Q477.5531,183.9609 477.6656,183.8953 Q477.7781,183.8297 477.9094,183.8297 Q478.1344,183.8297 478.275,183.9891 Q478.4156,184.1391 478.4156,184.5047 L478.4156,185.3766 Q478.4156,185.7422 478.275,185.9016 Q478.1344,186.0609 477.9094,186.0609 Q477.7031,186.0609 477.5812,185.9391 Q477.4594,185.8266 477.3937,185.5172 Q477.3656,185.3016 477.2531,185.1891 Q477.0563,184.9641 476.6906,184.8328 Q476.325,184.7016 475.95,184.7016 Q475.4906,184.7016 475.1063,184.8984 Q474.7313,185.0953 474.4313,185.5453 Q474.1406,185.9953 474.1406,186.6141 L474.1406,187.2703 Q474.1406,188.0109 474.675,188.5078 Q475.2094,188.9953 476.1656,188.9953 Q476.7281,188.9953 477.1219,188.8453 Q477.3563,188.7516 477.6094,188.4891 Q477.7687,188.3297 477.8531,188.2828 Q477.9469,188.2359 478.0687,188.2359 Q478.2656,188.2359 478.4156,188.3953 Q478.575,188.5453 478.575,188.7516 Q478.575,188.9578 478.3688,189.2016 Q478.0687,189.5484 477.5906,189.7453 Q476.9437,190.0172 476.1656,190.0172 Q475.2562,190.0172 474.5344,189.6422 Q473.9437,189.3422 473.5313,188.7047 Q473.1188,188.0578 473.1188,187.2891 L473.1188,186.5953 Q473.1188,185.7984 473.4844,185.1141 Q473.8594,184.4203 474.5156,184.0547 Q475.1719,183.6797 475.9125,183.6797 Q476.3531,183.6797 476.7375,183.7828 Q477.1312,183.8766 477.4594,184.0922 Z " fill="#000000"/><text fill="#000000" font-family="sans-serif" font-size="8.4" lengthAdjust="spacing" textLength="24.6" x="494.7" y="178.8727">&#171;root&#187;</text><text fill="#000000" font-family="sans-serif" font-size="8.4" lengthAdjust="spacing" textLength="30" x="490.8" y="190.0453">&#171;entity&#187;</text><text fill="#000000" font-family="sans-serif" font-size="8.4" lengthAdjust="spacing" textLength="45.6" x="484.2" y="201.218">JobOpening</text><line style="stroke:#181818;stroke-width:0.3;" x1="467.4" x2="531" y1="206.3262" y2="206.3262"/><line style="stroke:#181818;stroke-width:0.3;" x1="467.4" x2="531" y1="211.1262" y2="211.1262"/></g><!--class JogOpeningStatus--><g id="elem_JogOpeningStatus"><rect codeLine="36" fill="#F1F1F1" height="37.9453" id="JogOpeningStatus" rx="1.5" ry="1.5" style="stroke:#181818;stroke-width:0.3;" width="88.8" x="352.2" y="270.3082"/><ellipse cx="361.2" cy="284.4809" fill="#ADD1B2" rx="6.6" ry="6.6" style="stroke:#181818;stroke-width:0.6;"/><path d="M362.8594,282.0059 Q362.9531,281.8746 363.0656,281.809 Q363.1781,281.7434 363.3094,281.7434 Q363.5344,281.7434 363.675,281.9027 Q363.8156,282.0527 363.8156,282.4184 L363.8156,283.2902 Q363.8156,283.6559 363.675,283.8152 Q363.5344,283.9746 363.3094,283.9746 Q363.1031,283.9746 362.9813,283.8527 Q362.8594,283.7402 362.7938,283.4309 Q362.7656,283.2152 362.6531,283.1027 Q362.4563,282.8777 362.0906,282.7465 Q361.725,282.6152 361.35,282.6152 Q360.8906,282.6152 360.5062,282.8121 Q360.1312,283.009 359.8313,283.459 Q359.5406,283.909 359.5406,284.5277 L359.5406,285.184 Q359.5406,285.9246 360.075,286.4215 Q360.6094,286.909 361.5656,286.909 Q362.1281,286.909 362.5219,286.759 Q362.7562,286.6652 363.0094,286.4027 Q363.1688,286.2434 363.2531,286.1965 Q363.3469,286.1496 363.4688,286.1496 Q363.6656,286.1496 363.8156,286.309 Q363.975,286.459 363.975,286.6652 Q363.975,286.8715 363.7688,287.1152 Q363.4688,287.4621 362.9906,287.659 Q362.3438,287.9309 361.5656,287.9309 Q360.6563,287.9309 359.9344,287.5559 Q359.3438,287.2559 358.9313,286.6184 Q358.5188,285.9715 358.5188,285.2027 L358.5188,284.509 Q358.5188,283.7121 358.8844,283.0277 Q359.2594,282.334 359.9156,281.9684 Q360.5719,281.5934 361.3125,281.5934 Q361.7531,281.5934 362.1375,281.6965 Q362.5313,281.7902 362.8594,282.0059 Z " fill="#000000"/><text fill="#000000" font-family="sans-serif" font-size="8.4" lengthAdjust="spacing" textLength="55.2" x="376.8" y="282.3727">&#171;value object&#187;</text><text fill="#000000" font-family="sans-serif" font-size="8.4" lengthAdjust="spacing" textLength="69.6" x="369.6" y="293.5453">JogOpeningStatus</text><line style="stroke:#181818;stroke-width:0.3;" x1="352.8" x2="440.4" y1="298.6535" y2="298.6535"/><line style="stroke:#181818;stroke-width:0.3;" x1="352.8" x2="440.4" y1="303.4535" y2="303.4535"/></g><!--class ContractType--><g id="elem_ContractType"><rect codeLine="39" fill="#F1F1F1" height="37.9453" id="ContractType" rx="1.5" ry="1.5" style="stroke:#181818;stroke-width:0.3;" width="74.4" x="714" y="53.7082"/><ellipse cx="723" cy="67.8809" fill="#ADD1B2" rx="6.6" ry="6.6" style="stroke:#181818;stroke-width:0.6;"/><path d="M724.6594,65.4059 Q724.7531,65.2746 724.8656,65.209 Q724.9781,65.1434 725.1094,65.1434 Q725.3344,65.1434 725.475,65.3027 Q725.6156,65.4527 725.6156,65.8184 L725.6156,66.6902 Q725.6156,67.0559 725.475,67.2152 Q725.3344,67.3746 725.1094,67.3746 Q724.9031,67.3746 724.7813,67.2527 Q724.6594,67.1402 724.5938,66.8309 Q724.5656,66.6152 724.4531,66.5027 Q724.2563,66.2777 723.8906,66.1465 Q723.525,66.0152 723.15,66.0152 Q722.6906,66.0152 722.3063,66.2121 Q721.9313,66.409 721.6313,66.859 Q721.3406,67.309 721.3406,67.9277 L721.3406,68.584 Q721.3406,69.3246 721.875,69.8215 Q722.4094,70.309 723.3656,70.309 Q723.9281,70.309 724.3219,70.159 Q724.5563,70.0652 724.8094,69.8027 Q724.9688,69.6434 725.0531,69.5965 Q725.1469,69.5496 725.2688,69.5496 Q725.4656,69.5496 725.6156,69.709 Q725.775,69.859 725.775,70.0652 Q725.775,70.2715 725.5688,70.5152 Q725.2688,70.8621 724.7906,71.059 Q724.1438,71.3309 723.3656,71.3309 Q722.4563,71.3309 721.7344,70.9559 Q721.1438,70.6559 720.7312,70.0184 Q720.3188,69.3715 720.3188,68.6027 L720.3188,67.909 Q720.3188,67.1121 720.6844,66.4277 Q721.0594,65.734 721.7156,65.3684 Q722.3719,64.9934 723.1125,64.9934 Q723.5531,64.9934 723.9375,65.0965 Q724.3313,65.1902 724.6594,65.4059 Z " fill="#000000"/><text fill="#000000" font-family="sans-serif" font-size="8.4" lengthAdjust="spacing" textLength="55.2" x="731.4" y="65.7727">&#171;value object&#187;</text><text fill="#000000" font-family="sans-serif" font-size="8.4" lengthAdjust="spacing" textLength="51.6" x="733.2" y="76.9453">ContractType</text><line style="stroke:#181818;stroke-width:0.3;" x1="714.6" x2="787.8" y1="82.0535" y2="82.0535"/><line style="stroke:#181818;stroke-width:0.3;" x1="714.6" x2="787.8" y1="86.8535" y2="86.8535"/></g><!--class Mode--><g id="elem_Mode"><rect codeLine="42" fill="#F1F1F1" height="37.9453" id="Mode" rx="1.5" ry="1.5" style="stroke:#181818;stroke-width:0.3;" width="74.4" x="618.6" y="53.7082"/><ellipse cx="627.6" cy="67.8809" fill="#ADD1B2" rx="6.6" ry="6.6" style="stroke:#181818;stroke-width:0.6;"/><path d="M629.2594,65.4059 Q629.3531,65.2746 629.4656,65.209 Q629.5781,65.1434 629.7094,65.1434 Q629.9344,65.1434 630.075,65.3027 Q630.2156,65.4527 630.2156,65.8184 L630.2156,66.6902 Q630.2156,67.0559 630.075,67.2152 Q629.9344,67.3746 629.7094,67.3746 Q629.5031,67.3746 629.3813,67.2527 Q629.2594,67.1402 629.1938,66.8309 Q629.1656,66.6152 629.0531,66.5027 Q628.8562,66.2777 628.4906,66.1465 Q628.125,66.0152 627.75,66.0152 Q627.2906,66.0152 626.9063,66.2121 Q626.5313,66.409 626.2312,66.859 Q625.9406,67.309 625.9406,67.9277 L625.9406,68.584 Q625.9406,69.3246 626.475,69.8215 Q627.0094,70.309 627.9656,70.309 Q628.5281,70.309 628.9219,70.159 Q629.1563,70.0652 629.4094,69.8027 Q629.5688,69.6434 629.6531,69.5965 Q629.7469,69.5496 629.8688,69.5496 Q630.0656,69.5496 630.2156,69.709 Q630.375,69.859 630.375,70.0652 Q630.375,70.2715 630.1687,70.5152 Q629.8688,70.8621 629.3906,71.059 Q628.7438,71.3309 627.9656,71.3309 Q627.0563,71.3309 626.3344,70.9559 Q625.7438,70.6559 625.3313,70.0184 Q624.9187,69.3715 624.9187,68.6027 L624.9187,67.909 Q624.9187,67.1121 625.2844,66.4277 Q625.6594,65.734 626.3156,65.3684 Q626.9719,64.9934 627.7125,64.9934 Q628.1531,64.9934 628.5375,65.0965 Q628.9313,65.1902 629.2594,65.4059 Z " fill="#000000"/><text fill="#000000" font-family="sans-serif" font-size="8.4" lengthAdjust="spacing" textLength="55.2" x="636" y="65.7727">&#171;value object&#187;</text><text fill="#000000" font-family="sans-serif" font-size="8.4" lengthAdjust="spacing" textLength="21" x="653.1" y="76.9453">Mode</text><line style="stroke:#181818;stroke-width:0.3;" x1="619.2" x2="692.4" y1="82.0535" y2="82.0535"/><line style="stroke:#181818;stroke-width:0.3;" x1="619.2" x2="692.4" y1="86.8535" y2="86.8535"/></g><!--class JobFunction--><g id="elem_JobFunction"><rect codeLine="46" fill="#F1F1F1" height="37.9453" id="JobFunction" rx="1.5" ry="1.5" style="stroke:#181818;stroke-width:0.3;" width="74.4" x="523.2" y="53.7082"/><ellipse cx="532.2" cy="67.8809" fill="#ADD1B2" rx="6.6" ry="6.6" style="stroke:#181818;stroke-width:0.6;"/><path d="M533.8594,65.4059 Q533.9531,65.2746 534.0656,65.209 Q534.1781,65.1434 534.3094,65.1434 Q534.5344,65.1434 534.675,65.3027 Q534.8156,65.4527 534.8156,65.8184 L534.8156,66.6902 Q534.8156,67.0559 534.675,67.2152 Q534.5344,67.3746 534.3094,67.3746 Q534.1031,67.3746 533.9812,67.2527 Q533.8594,67.1402 533.7937,66.8309 Q533.7656,66.6152 533.6531,66.5027 Q533.4563,66.2777 533.0906,66.1465 Q532.725,66.0152 532.35,66.0152 Q531.8906,66.0152 531.5063,66.2121 Q531.1313,66.409 530.8313,66.859 Q530.5406,67.309 530.5406,67.9277 L530.5406,68.584 Q530.5406,69.3246 531.075,69.8215 Q531.6094,70.309 532.5656,70.309 Q533.1281,70.309 533.5219,70.159 Q533.7563,70.0652 534.0094,69.8027 Q534.1687,69.6434 534.2531,69.5965 Q534.3469,69.5496 534.4688,69.5496 Q534.6656,69.5496 534.8156,69.709 Q534.975,69.859 534.975,70.0652 Q534.975,70.2715 534.7688,70.5152 Q534.4688,70.8621 533.9906,71.059 Q533.3438,71.3309 532.5656,71.3309 Q531.6563,71.3309 530.9344,70.9559 Q530.3438,70.6559 529.9313,70.0184 Q529.5188,69.3715 529.5188,68.6027 L529.5188,67.909 Q529.5188,67.1121 529.8844,66.4277 Q530.2594,65.734 530.9156,65.3684 Q531.5719,64.9934 532.3125,64.9934 Q532.7531,64.9934 533.1375,65.0965 Q533.5313,65.1902 533.8594,65.4059 Z " fill="#000000"/><text fill="#000000" font-family="sans-serif" font-size="8.4" lengthAdjust="spacing" textLength="55.2" x="540.6" y="65.7727">&#171;value object&#187;</text><text fill="#000000" font-family="sans-serif" font-size="8.4" lengthAdjust="spacing" textLength="46.2" x="545.1" y="76.9453">JobFunction</text><line style="stroke:#181818;stroke-width:0.3;" x1="523.8" x2="597" y1="82.0535" y2="82.0535"/><line style="stroke:#181818;stroke-width:0.3;" x1="523.8" x2="597" y1="86.8535" y2="86.8535"/></g><!--class NumberOfVacancies--><g id="elem_NumberOfVacancies"><rect codeLine="50" fill="#F1F1F1" height="37.9453" id="NumberOfVacancies" rx="1.5" ry="1.5" style="stroke:#181818;stroke-width:0.3;" width="99" x="402.9" y="53.7082"/><ellipse cx="411.9" cy="67.8809" fill="#ADD1B2" rx="6.6" ry="6.6" style="stroke:#181818;stroke-width:0.6;"/><path d="M413.5594,65.4059 Q413.6531,65.2746 413.7656,65.209 Q413.8781,65.1434 414.0094,65.1434 Q414.2344,65.1434 414.375,65.3027 Q414.5156,65.4527 414.5156,65.8184 L414.5156,66.6902 Q414.5156,67.0559 414.375,67.2152 Q414.2344,67.3746 414.0094,67.3746 Q413.8031,67.3746 413.6813,67.2527 Q413.5594,67.1402 413.4938,66.8309 Q413.4656,66.6152 413.3531,66.5027 Q413.1563,66.2777 412.7906,66.1465 Q412.425,66.0152 412.05,66.0152 Q411.5906,66.0152 411.2063,66.2121 Q410.8313,66.409 410.5313,66.859 Q410.2406,67.309 410.2406,67.9277 L410.2406,68.584 Q410.2406,69.3246 410.775,69.8215 Q411.3094,70.309 412.2656,70.309 Q412.8281,70.309 413.2219,70.159 Q413.4563,70.0652 413.7094,69.8027 Q413.8688,69.6434 413.9531,69.5965 Q414.0469,69.5496 414.1688,69.5496 Q414.3656,69.5496 414.5156,69.709 Q414.675,69.859 414.675,70.0652 Q414.675,70.2715 414.4688,70.5152 Q414.1688,70.8621 413.6906,71.059 Q413.0438,71.3309 412.2656,71.3309 Q411.3563,71.3309 410.6344,70.9559 Q410.0438,70.6559 409.6312,70.0184 Q409.2188,69.3715 409.2188,68.6027 L409.2188,67.909 Q409.2188,67.1121 409.5844,66.4277 Q409.9594,65.734 410.6156,65.3684 Q411.2719,64.9934 412.0125,64.9934 Q412.4531,64.9934 412.8375,65.0965 Q413.2313,65.1902 413.5594,65.4059 Z " fill="#000000"/><text fill="#000000" font-family="sans-serif" font-size="8.4" lengthAdjust="spacing" textLength="55.2" x="432.6" y="65.7727">&#171;value object&#187;</text><text fill="#000000" font-family="sans-serif" font-size="8.4" lengthAdjust="spacing" textLength="77.4" x="422.7" y="76.9453">NumberOfVacancies</text><line style="stroke:#181818;stroke-width:0.3;" x1="403.5" x2="501.3" y1="82.0535" y2="82.0535"/><line style="stroke:#181818;stroke-width:0.3;" x1="403.5" x2="501.3" y1="86.8535" y2="86.8535"/></g><!--class Description--><g id="elem_Description"><rect codeLine="54" fill="#F1F1F1" height="37.9453" id="Description" rx="1.5" ry="1.5" style="stroke:#181818;stroke-width:0.3;" width="74.4" x="307.2" y="53.7082"/><ellipse cx="316.2" cy="67.8809" fill="#ADD1B2" rx="6.6" ry="6.6" style="stroke:#181818;stroke-width:0.6;"/><path d="M317.8594,65.4059 Q317.9531,65.2746 318.0656,65.209 Q318.1781,65.1434 318.3094,65.1434 Q318.5344,65.1434 318.675,65.3027 Q318.8156,65.4527 318.8156,65.8184 L318.8156,66.6902 Q318.8156,67.0559 318.675,67.2152 Q318.5344,67.3746 318.3094,67.3746 Q318.1031,67.3746 317.9813,67.2527 Q317.8594,67.1402 317.7938,66.8309 Q317.7656,66.6152 317.6531,66.5027 Q317.4563,66.2777 317.0906,66.1465 Q316.725,66.0152 316.35,66.0152 Q315.8906,66.0152 315.5062,66.2121 Q315.1312,66.409 314.8313,66.859 Q314.5406,67.309 314.5406,67.9277 L314.5406,68.584 Q314.5406,69.3246 315.075,69.8215 Q315.6094,70.309 316.5656,70.309 Q317.1281,70.309 317.5219,70.159 Q317.7562,70.0652 318.0094,69.8027 Q318.1688,69.6434 318.2531,69.5965 Q318.3469,69.5496 318.4688,69.5496 Q318.6656,69.5496 318.8156,69.709 Q318.975,69.859 318.975,70.0652 Q318.975,70.2715 318.7688,70.5152 Q318.4688,70.8621 317.9906,71.059 Q317.3438,71.3309 316.5656,71.3309 Q315.6563,71.3309 314.9344,70.9559 Q314.3438,70.6559 313.9313,70.0184 Q313.5188,69.3715 313.5188,68.6027 L313.5188,67.909 Q313.5188,67.1121 313.8844,66.4277 Q314.2594,65.734 314.9156,65.3684 Q315.5719,64.9934 316.3125,64.9934 Q316.7531,64.9934 317.1375,65.0965 Q317.5313,65.1902 317.8594,65.4059 Z " fill="#000000"/><text fill="#000000" font-family="sans-serif" font-size="8.4" lengthAdjust="spacing" textLength="55.2" x="324.6" y="65.7727">&#171;value object&#187;</text><text fill="#000000" font-family="sans-serif" font-size="8.4" lengthAdjust="spacing" textLength="42.6" x="330.9" y="76.9453">Description</text><line style="stroke:#181818;stroke-width:0.3;" x1="307.8" x2="381" y1="82.0535" y2="82.0535"/><line style="stroke:#181818;stroke-width:0.3;" x1="307.8" x2="381" y1="86.8535" y2="86.8535"/></g><!--class Address1--><g id="elem_Address1"><rect codeLine="59" fill="#F1F1F1" height="93.8086" id="Address1" rx="1.5" ry="1.5" style="stroke:#181818;stroke-width:0.3;" width="74.4" x="211.8" y="25.8082"/><ellipse cx="220.8" cy="39.9809" fill="#ADD1B2" rx="6.6" ry="6.6" style="stroke:#181818;stroke-width:0.6;"/><path d="M222.4594,37.5059 Q222.5531,37.3746 222.6656,37.309 Q222.7781,37.2434 222.9094,37.2434 Q223.1344,37.2434 223.275,37.4027 Q223.4156,37.5527 223.4156,37.9184 L223.4156,38.7902 Q223.4156,39.1559 223.275,39.3152 Q223.1344,39.4746 222.9094,39.4746 Q222.7031,39.4746 222.5812,39.3527 Q222.4594,39.2402 222.3937,38.9309 Q222.3656,38.7152 222.2531,38.6027 Q222.0563,38.3777 221.6906,38.2465 Q221.325,38.1152 220.95,38.1152 Q220.4906,38.1152 220.1063,38.3121 Q219.7313,38.509 219.4313,38.959 Q219.1406,39.409 219.1406,40.0277 L219.1406,40.684 Q219.1406,41.4246 219.675,41.9215 Q220.2094,42.409 221.1656,42.409 Q221.7281,42.409 222.1219,42.259 Q222.3563,42.1652 222.6094,41.9027 Q222.7687,41.7434 222.8531,41.6965 Q222.9469,41.6496 223.0688,41.6496 Q223.2656,41.6496 223.4156,41.809 Q223.575,41.959 223.575,42.1652 Q223.575,42.3715 223.3688,42.6152 Q223.0688,42.9621 222.5906,43.159 Q221.9438,43.4309 221.1656,43.4309 Q220.2563,43.4309 219.5344,43.0559 Q218.9438,42.7559 218.5313,42.1184 Q218.1188,41.4715 218.1188,40.7027 L218.1188,40.009 Q218.1188,39.2121 218.4844,38.5277 Q218.8594,37.834 219.5156,37.4684 Q220.1719,37.0934 220.9125,37.0934 Q221.3531,37.0934 221.7375,37.1965 Q222.1313,37.2902 222.4594,37.5059 Z " fill="#000000"/><text fill="#000000" font-family="sans-serif" font-size="8.4" lengthAdjust="spacing" textLength="55.2" x="229.2" y="37.8727">&#171;value object&#187;</text><text fill="#000000" font-family="sans-serif" font-size="8.4" lengthAdjust="spacing" textLength="31.2" x="241.2" y="49.0453">Address</text><line style="stroke:#181818;stroke-width:0.3;" x1="212.4" x2="285.6" y1="54.1535" y2="54.1535"/><text fill="#000000" font-family="sans-serif" font-size="8.4" lengthAdjust="spacing" textLength="22.8" x="215.4" y="65.618">Street</text><text fill="#000000" font-family="sans-serif" font-size="8.4" lengthAdjust="spacing" textLength="14.4" x="215.4" y="76.7906">City</text><text fill="#000000" font-family="sans-serif" font-size="8.4" lengthAdjust="spacing" textLength="19.8" x="215.4" y="87.9633">State</text><text fill="#000000" font-family="sans-serif" font-size="8.4" lengthAdjust="spacing" textLength="30" x="215.4" y="99.1359">Country</text><text fill="#000000" font-family="sans-serif" font-size="8.4" lengthAdjust="spacing" textLength="30" x="215.4" y="110.3086">Zipcode</text><line style="stroke:#181818;stroke-width:0.3;" x1="212.4" x2="285.6" y1="114.8168" y2="114.8168"/></g><!--class JobReference--><g id="elem_JobReference"><rect codeLine="67" fill="#F1F1F1" height="49.118" id="JobReference" rx="1.5" ry="1.5" style="stroke:#181818;stroke-width:0.3;" width="74.4" x="462" y="264.6082"/><ellipse cx="471" cy="284.3672" fill="#ADD1B2" rx="6.6" ry="6.6" style="stroke:#181818;stroke-width:0.6;"/><path d="M472.6594,281.8922 Q472.7531,281.7609 472.8656,281.6953 Q472.9781,281.6297 473.1094,281.6297 Q473.3344,281.6297 473.475,281.7891 Q473.6156,281.9391 473.6156,282.3047 L473.6156,283.1766 Q473.6156,283.5422 473.475,283.7016 Q473.3344,283.8609 473.1094,283.8609 Q472.9031,283.8609 472.7813,283.7391 Q472.6594,283.6266 472.5938,283.3172 Q472.5656,283.1016 472.4531,282.9891 Q472.2562,282.7641 471.8906,282.6328 Q471.525,282.5016 471.15,282.5016 Q470.6906,282.5016 470.3063,282.6984 Q469.9313,282.8953 469.6312,283.3453 Q469.3406,283.7953 469.3406,284.4141 L469.3406,285.0703 Q469.3406,285.8109 469.875,286.3078 Q470.4094,286.7953 471.3656,286.7953 Q471.9281,286.7953 472.3219,286.6453 Q472.5563,286.5516 472.8094,286.2891 Q472.9688,286.1297 473.0531,286.0828 Q473.1469,286.0359 473.2687,286.0359 Q473.4656,286.0359 473.6156,286.1953 Q473.775,286.3453 473.775,286.5516 Q473.775,286.7578 473.5687,287.0016 Q473.2687,287.3484 472.7906,287.5453 Q472.1437,287.8172 471.3656,287.8172 Q470.4562,287.8172 469.7344,287.4422 Q469.1437,287.1422 468.7313,286.5047 Q468.3187,285.8578 468.3187,285.0891 L468.3187,284.3953 Q468.3187,283.5984 468.6844,282.9141 Q469.0594,282.2203 469.7156,281.8547 Q470.3719,281.4797 471.1125,281.4797 Q471.5531,281.4797 471.9375,281.5828 Q472.3312,281.6766 472.6594,281.8922 Z " fill="#000000"/><text fill="#000000" font-family="sans-serif" font-size="8.4" lengthAdjust="spacing" textLength="55.2" x="479.4" y="276.6727">&#171;value object&#187;</text><text fill="#000000" font-family="sans-serif" font-size="8.4" lengthAdjust="spacing" textLength="42" x="486" y="287.8453">&#171;identifier&#187;</text><text fill="#000000" font-family="sans-serif" font-size="8.4" lengthAdjust="spacing" textLength="52.8" x="480.6" y="299.018">JobReference</text><line style="stroke:#181818;stroke-width:0.3;" x1="462.6" x2="535.8" y1="304.1262" y2="304.1262"/><line style="stroke:#181818;stroke-width:0.3;" x1="462.6" x2="535.8" y1="308.9262" y2="308.9262"/></g><!--class InterviewPhase--><g id="elem_InterviewPhase"><rect codeLine="70" fill="#F1F1F1" height="37.9453" id="InterviewPhase" rx="1.5" ry="1.5" style="stroke:#181818;stroke-width:0.3;" width="76.2" x="13.5" y="270.3082"/><ellipse cx="22.5" cy="284.4809" fill="#ADD1B2" rx="6.6" ry="6.6" style="stroke:#181818;stroke-width:0.6;"/><path d="M24.1594,282.0059 Q24.2531,281.8746 24.3656,281.809 Q24.4781,281.7434 24.6094,281.7434 Q24.8344,281.7434 24.975,281.9027 Q25.1156,282.0527 25.1156,282.4184 L25.1156,283.2902 Q25.1156,283.6559 24.975,283.8152 Q24.8344,283.9746 24.6094,283.9746 Q24.4031,283.9746 24.2813,283.8527 Q24.1594,283.7402 24.0938,283.4309 Q24.0656,283.2152 23.9531,283.1027 Q23.7562,282.8777 23.3906,282.7465 Q23.025,282.6152 22.65,282.6152 Q22.1906,282.6152 21.8063,282.8121 Q21.4313,283.009 21.1312,283.459 Q20.8406,283.909 20.8406,284.5277 L20.8406,285.184 Q20.8406,285.9246 21.375,286.4215 Q21.9094,286.909 22.8656,286.909 Q23.4281,286.909 23.8219,286.759 Q24.0563,286.6652 24.3094,286.4027 Q24.4688,286.2434 24.5531,286.1965 Q24.6469,286.1496 24.7688,286.1496 Q24.9656,286.1496 25.1156,286.309 Q25.275,286.459 25.275,286.6652 Q25.275,286.8715 25.0687,287.1152 Q24.7688,287.4621 24.2906,287.659 Q23.6438,287.9309 22.8656,287.9309 Q21.9563,287.9309 21.2344,287.5559 Q20.6438,287.2559 20.2313,286.6184 Q19.8187,285.9715 19.8187,285.2027 L19.8187,284.509 Q19.8187,283.7121 20.1844,283.0277 Q20.5594,282.334 21.2156,281.9684 Q21.8719,281.5934 22.6125,281.5934 Q23.0531,281.5934 23.4375,281.6965 Q23.8313,281.7902 24.1594,282.0059 Z " fill="#000000"/><text fill="#000000" font-family="sans-serif" font-size="8.4" lengthAdjust="spacing" textLength="30" x="44.4" y="282.3727">&#171;entity&#187;</text><text fill="#000000" font-family="sans-serif" font-size="8.4" lengthAdjust="spacing" textLength="57" x="30.9" y="293.5453">InterviewPhase</text><line style="stroke:#181818;stroke-width:0.3;" x1="14.1" x2="89.1" y1="298.6535" y2="298.6535"/><line style="stroke:#181818;stroke-width:0.3;" x1="14.1" x2="89.1" y1="303.4535" y2="303.4535"/></g><!--class Plugin--><g id="elem_Plugin"><rect codeLine="79" fill="#F1F1F1" height="49.118" id="Plugin" rx="1.5" ry="1.5" style="stroke:#181818;stroke-width:0.3;" width="49.2" x="1020" y="48.0082"/><ellipse cx="1029" cy="67.7672" fill="#ADD1B2" rx="6.6" ry="6.6" style="stroke:#181818;stroke-width:0.6;"/><path d="M1030.6594,65.2922 Q1030.7531,65.1609 1030.8656,65.0953 Q1030.9781,65.0297 1031.1094,65.0297 Q1031.3344,65.0297 1031.475,65.1891 Q1031.6156,65.3391 1031.6156,65.7047 L1031.6156,66.5766 Q1031.6156,66.9422 1031.475,67.1016 Q1031.3344,67.2609 1031.1094,67.2609 Q1030.9031,67.2609 1030.7813,67.1391 Q1030.6594,67.0266 1030.5938,66.7172 Q1030.5656,66.5016 1030.4531,66.3891 Q1030.2563,66.1641 1029.8906,66.0328 Q1029.525,65.9016 1029.15,65.9016 Q1028.6906,65.9016 1028.3062,66.0984 Q1027.9312,66.2953 1027.6313,66.7453 Q1027.3406,67.1953 1027.3406,67.8141 L1027.3406,68.4703 Q1027.3406,69.2109 1027.875,69.7078 Q1028.4094,70.1953 1029.3656,70.1953 Q1029.9281,70.1953 1030.3219,70.0453 Q1030.5562,69.9516 1030.8094,69.6891 Q1030.9688,69.5297 1031.0531,69.4828 Q1031.1469,69.4359 1031.2688,69.4359 Q1031.4656,69.4359 1031.6156,69.5953 Q1031.775,69.7453 1031.775,69.9516 Q1031.775,70.1578 1031.5688,70.4016 Q1031.2688,70.7484 1030.7906,70.9453 Q1030.1438,71.2172 1029.3656,71.2172 Q1028.4563,71.2172 1027.7344,70.8422 Q1027.1438,70.5422 1026.7313,69.9047 Q1026.3188,69.2578 1026.3188,68.4891 L1026.3188,67.7953 Q1026.3188,66.9984 1026.6844,66.3141 Q1027.0594,65.6203 1027.7156,65.2547 Q1028.3719,64.8797 1029.1125,64.8797 Q1029.5531,64.8797 1029.9375,64.9828 Q1030.3313,65.0766 1030.6594,65.2922 Z " fill="#000000"/><text fill="#000000" font-family="sans-serif" font-size="8.4" lengthAdjust="spacing" textLength="24.6" x="1040.1" y="60.0727">&#171;root&#187;</text><text fill="#000000" font-family="sans-serif" font-size="8.4" lengthAdjust="spacing" textLength="30" x="1037.4" y="71.2453">&#171;entity&#187;</text><text fill="#000000" font-family="sans-serif" font-size="8.4" lengthAdjust="spacing" textLength="23.4" x="1040.7" y="82.418">Plugin</text><line style="stroke:#181818;stroke-width:0.3;" x1="1020.6" x2="1068.6" y1="87.5262" y2="87.5262"/><line style="stroke:#181818;stroke-width:0.3;" x1="1020.6" x2="1068.6" y1="92.3262" y2="92.3262"/></g><!--class PlugID--><g id="elem_PlugID"><rect codeLine="81" fill="#F1F1F1" height="49.118" id="PlugID" rx="1.5" ry="1.5" style="stroke:#181818;stroke-width:0.3;" width="75" x="856.5" y="166.8082"/><ellipse cx="865.5" cy="186.5672" fill="#ADD1B2" rx="6.6" ry="6.6" style="stroke:#181818;stroke-width:0.6;"/><path d="M867.1594,184.0922 Q867.2531,183.9609 867.3656,183.8953 Q867.4781,183.8297 867.6094,183.8297 Q867.8344,183.8297 867.975,183.9891 Q868.1156,184.1391 868.1156,184.5047 L868.1156,185.3766 Q868.1156,185.7422 867.975,185.9016 Q867.8344,186.0609 867.6094,186.0609 Q867.4031,186.0609 867.2813,185.9391 Q867.1594,185.8266 867.0938,185.5172 Q867.0656,185.3016 866.9531,185.1891 Q866.7563,184.9641 866.3906,184.8328 Q866.025,184.7016 865.65,184.7016 Q865.1906,184.7016 864.8063,184.8984 Q864.4313,185.0953 864.1313,185.5453 Q863.8406,185.9953 863.8406,186.6141 L863.8406,187.2703 Q863.8406,188.0109 864.375,188.5078 Q864.9094,188.9953 865.8656,188.9953 Q866.4281,188.9953 866.8219,188.8453 Q867.0563,188.7516 867.3094,188.4891 Q867.4688,188.3297 867.5531,188.2828 Q867.6469,188.2359 867.7688,188.2359 Q867.9656,188.2359 868.1156,188.3953 Q868.275,188.5453 868.275,188.7516 Q868.275,188.9578 868.0688,189.2016 Q867.7688,189.5484 867.2906,189.7453 Q866.6438,190.0172 865.8656,190.0172 Q864.9563,190.0172 864.2344,189.6422 Q863.6438,189.3422 863.2312,188.7047 Q862.8188,188.0578 862.8188,187.2891 L862.8188,186.5953 Q862.8188,185.7984 863.1844,185.1141 Q863.5594,184.4203 864.2156,184.0547 Q864.8719,183.6797 865.6125,183.6797 Q866.0531,183.6797 866.4375,183.7828 Q866.8313,183.8766 867.1594,184.0922 Z " fill="#000000"/><text fill="#000000" font-family="sans-serif" font-size="8.4" lengthAdjust="spacing" textLength="55.2" x="874.2" y="178.8727">&#171;value object&#187;</text><text fill="#000000" font-family="sans-serif" font-size="8.4" lengthAdjust="spacing" textLength="42" x="880.8" y="190.0453">&#171;identifier&#187;</text><text fill="#000000" font-family="sans-serif" font-size="8.4" lengthAdjust="spacing" textLength="55.8" x="873.9" y="201.218">PluginIdentifier</text><line style="stroke:#181818;stroke-width:0.3;" x1="857.1" x2="930.9" y1="206.3262" y2="206.3262"/><line style="stroke:#181818;stroke-width:0.3;" x1="857.1" x2="930.9" y1="211.1262" y2="211.1262"/></g><!--class PlugType--><g id="elem_PlugType"><rect codeLine="83" fill="#F1F1F1" height="37.9453" id="PlugType" rx="1.5" ry="1.5" style="stroke:#181818;stroke-width:0.3;" width="74.4" x="952.8" y="172.5082"/><ellipse cx="961.8" cy="186.6809" fill="#ADD1B2" rx="6.6" ry="6.6" style="stroke:#181818;stroke-width:0.6;"/><path d="M963.4594,184.2059 Q963.5531,184.0746 963.6656,184.009 Q963.7781,183.9434 963.9094,183.9434 Q964.1344,183.9434 964.275,184.1027 Q964.4156,184.2527 964.4156,184.6184 L964.4156,185.4902 Q964.4156,185.8559 964.275,186.0152 Q964.1344,186.1746 963.9094,186.1746 Q963.7031,186.1746 963.5813,186.0527 Q963.4594,185.9402 963.3938,185.6309 Q963.3656,185.4152 963.2531,185.3027 Q963.0563,185.0777 962.6906,184.9465 Q962.325,184.8152 961.95,184.8152 Q961.4906,184.8152 961.1062,185.0121 Q960.7312,185.209 960.4313,185.659 Q960.1406,186.109 960.1406,186.7277 L960.1406,187.384 Q960.1406,188.1246 960.675,188.6215 Q961.2094,189.109 962.1656,189.109 Q962.7281,189.109 963.1219,188.959 Q963.3562,188.8652 963.6094,188.6027 Q963.7688,188.4434 963.8531,188.3965 Q963.9469,188.3496 964.0687,188.3496 Q964.2656,188.3496 964.4156,188.509 Q964.575,188.659 964.575,188.8652 Q964.575,189.0715 964.3688,189.3152 Q964.0687,189.6621 963.5906,189.859 Q962.9437,190.1309 962.1656,190.1309 Q961.2562,190.1309 960.5344,189.7559 Q959.9437,189.4559 959.5313,188.8184 Q959.1188,188.1715 959.1188,187.4027 L959.1188,186.709 Q959.1188,185.9121 959.4844,185.2277 Q959.8594,184.534 960.5156,184.1684 Q961.1719,183.7934 961.9125,183.7934 Q962.3531,183.7934 962.7375,183.8965 Q963.1312,183.9902 963.4594,184.2059 Z " fill="#000000"/><text fill="#000000" font-family="sans-serif" font-size="8.4" lengthAdjust="spacing" textLength="55.2" x="970.2" y="184.5727">&#171;value object&#187;</text><text fill="#000000" font-family="sans-serif" font-size="8.4" lengthAdjust="spacing" textLength="42.6" x="976.5" y="195.7453">PluginType</text><line style="stroke:#181818;stroke-width:0.3;" x1="953.4" x2="1026.6" y1="200.8535" y2="200.8535"/><line style="stroke:#181818;stroke-width:0.3;" x1="953.4" x2="1026.6" y1="205.6535" y2="205.6535"/></g><!--class PlugClass--><g id="elem_PlugClass"><rect codeLine="85" fill="#F1F1F1" height="37.9453" id="PlugClass" rx="1.5" ry="1.5" style="stroke:#181818;stroke-width:0.3;" width="103.2" x="1048.2" y="172.5082"/><ellipse cx="1057.2" cy="186.6809" fill="#ADD1B2" rx="6.6" ry="6.6" style="stroke:#181818;stroke-width:0.6;"/><path d="M1058.8594,184.2059 Q1058.9531,184.0746 1059.0656,184.009 Q1059.1781,183.9434 1059.3094,183.9434 Q1059.5344,183.9434 1059.675,184.1027 Q1059.8156,184.2527 1059.8156,184.6184 L1059.8156,185.4902 Q1059.8156,185.8559 1059.675,186.0152 Q1059.5344,186.1746 1059.3094,186.1746 Q1059.1031,186.1746 1058.9813,186.0527 Q1058.8594,185.9402 1058.7938,185.6309 Q1058.7656,185.4152 1058.6531,185.3027 Q1058.4563,185.0777 1058.0906,184.9465 Q1057.725,184.8152 1057.35,184.8152 Q1056.8906,184.8152 1056.5063,185.0121 Q1056.1313,185.209 1055.8313,185.659 Q1055.5406,186.109 1055.5406,186.7277 L1055.5406,187.384 Q1055.5406,188.1246 1056.075,188.6215 Q1056.6094,189.109 1057.5656,189.109 Q1058.1281,189.109 1058.5219,188.959 Q1058.7563,188.8652 1059.0094,188.6027 Q1059.1688,188.4434 1059.2531,188.3965 Q1059.3469,188.3496 1059.4688,188.3496 Q1059.6656,188.3496 1059.8156,188.509 Q1059.975,188.659 1059.975,188.8652 Q1059.975,189.0715 1059.7688,189.3152 Q1059.4688,189.6621 1058.9906,189.859 Q1058.3438,190.1309 1057.5656,190.1309 Q1056.6563,190.1309 1055.9344,189.7559 Q1055.3438,189.4559 1054.9312,188.8184 Q1054.5188,188.1715 1054.5188,187.4027 L1054.5188,186.709 Q1054.5188,185.9121 1054.8844,185.2277 Q1055.2594,184.534 1055.9156,184.1684 Q1056.5719,183.7934 1057.3125,183.7934 Q1057.7531,183.7934 1058.1375,183.8965 Q1058.5313,183.9902 1058.8594,184.2059 Z " fill="#000000"/><text fill="#000000" font-family="sans-serif" font-size="8.4" lengthAdjust="spacing" textLength="55.2" x="1080" y="184.5727">&#171;value object&#187;</text><text fill="#000000" font-family="sans-serif" font-size="8.4" lengthAdjust="spacing" textLength="84" x="1065.6" y="195.7453">PluginMainClassName</text><line style="stroke:#181818;stroke-width:0.3;" x1="1048.8" x2="1150.8" y1="200.8535" y2="200.8535"/><line style="stroke:#181818;stroke-width:0.3;" x1="1048.8" x2="1150.8" y1="205.6535" y2="205.6535"/></g><!--class JarFile--><g id="elem_JarFile"><rect codeLine="87" fill="#F1F1F1" height="37.9453" id="JarFile" rx="1.5" ry="1.5" style="stroke:#181818;stroke-width:0.3;" width="74.4" x="1172.4" y="172.5082"/><ellipse cx="1181.4" cy="186.6809" fill="#ADD1B2" rx="6.6" ry="6.6" style="stroke:#181818;stroke-width:0.6;"/><path d="M1183.0594,184.2059 Q1183.1531,184.0746 1183.2656,184.009 Q1183.3781,183.9434 1183.5094,183.9434 Q1183.7344,183.9434 1183.875,184.1027 Q1184.0156,184.2527 1184.0156,184.6184 L1184.0156,185.4902 Q1184.0156,185.8559 1183.875,186.0152 Q1183.7344,186.1746 1183.5094,186.1746 Q1183.3031,186.1746 1183.1812,186.0527 Q1183.0594,185.9402 1182.9937,185.6309 Q1182.9656,185.4152 1182.8531,185.3027 Q1182.6563,185.0777 1182.2906,184.9465 Q1181.925,184.8152 1181.55,184.8152 Q1181.0906,184.8152 1180.7063,185.0121 Q1180.3313,185.209 1180.0313,185.659 Q1179.7406,186.109 1179.7406,186.7277 L1179.7406,187.384 Q1179.7406,188.1246 1180.275,188.6215 Q1180.8094,189.109 1181.7656,189.109 Q1182.3281,189.109 1182.7219,188.959 Q1182.9563,188.8652 1183.2094,188.6027 Q1183.3687,188.4434 1183.4531,188.3965 Q1183.5469,188.3496 1183.6688,188.3496 Q1183.8656,188.3496 1184.0156,188.509 Q1184.175,188.659 1184.175,188.8652 Q1184.175,189.0715 1183.9688,189.3152 Q1183.6688,189.6621 1183.1906,189.859 Q1182.5438,190.1309 1181.7656,190.1309 Q1180.8563,190.1309 1180.1344,189.7559 Q1179.5438,189.4559 1179.1313,188.8184 Q1178.7188,188.1715 1178.7188,187.4027 L1178.7188,186.709 Q1178.7188,185.9121 1179.0844,185.2277 Q1179.4594,184.534 1180.1156,184.1684 Q1180.7719,183.7934 1181.5125,183.7934 Q1181.9531,183.7934 1182.3375,183.8965 Q1182.7313,183.9902 1183.0594,184.2059 Z " fill="#000000"/><text fill="#000000" font-family="sans-serif" font-size="8.4" lengthAdjust="spacing" textLength="55.2" x="1189.8" y="184.5727">&#171;value object&#187;</text><text fill="#000000" font-family="sans-serif" font-size="8.4" lengthAdjust="spacing" textLength="46.8" x="1194" y="195.7453">JarFileName</text><line style="stroke:#181818;stroke-width:0.3;" x1="1173" x2="1246.2" y1="200.8535" y2="200.8535"/><line style="stroke:#181818;stroke-width:0.3;" x1="1173" x2="1246.2" y1="205.6535" y2="205.6535"/></g><!--class PlugDesc--><g id="elem_PlugDesc"><rect codeLine="89" fill="#F1F1F1" height="37.9453" id="PlugDesc" rx="1.5" ry="1.5" style="stroke:#181818;stroke-width:0.3;" width="74.4" x="1267.8" y="172.5082"/><ellipse cx="1276.8" cy="186.6809" fill="#ADD1B2" rx="6.6" ry="6.6" style="stroke:#181818;stroke-width:0.6;"/><path d="M1278.4594,184.2059 Q1278.5531,184.0746 1278.6656,184.009 Q1278.7781,183.9434 1278.9094,183.9434 Q1279.1344,183.9434 1279.275,184.1027 Q1279.4156,184.2527 1279.4156,184.6184 L1279.4156,185.4902 Q1279.4156,185.8559 1279.275,186.0152 Q1279.1344,186.1746 1278.9094,186.1746 Q1278.7031,186.1746 1278.5813,186.0527 Q1278.4594,185.9402 1278.3938,185.6309 Q1278.3656,185.4152 1278.2531,185.3027 Q1278.0562,185.0777 1277.6906,184.9465 Q1277.325,184.8152 1276.95,184.8152 Q1276.4906,184.8152 1276.1063,185.0121 Q1275.7313,185.209 1275.4312,185.659 Q1275.1406,186.109 1275.1406,186.7277 L1275.1406,187.384 Q1275.1406,188.1246 1275.675,188.6215 Q1276.2094,189.109 1277.1656,189.109 Q1277.7281,189.109 1278.1219,188.959 Q1278.3563,188.8652 1278.6094,188.6027 Q1278.7688,188.4434 1278.8531,188.3965 Q1278.9469,188.3496 1279.0688,188.3496 Q1279.2656,188.3496 1279.4156,188.509 Q1279.575,188.659 1279.575,188.8652 Q1279.575,189.0715 1279.3687,189.3152 Q1279.0688,189.6621 1278.5906,189.859 Q1277.9438,190.1309 1277.1656,190.1309 Q1276.2563,190.1309 1275.5344,189.7559 Q1274.9438,189.4559 1274.5313,188.8184 Q1274.1187,188.1715 1274.1187,187.4027 L1274.1187,186.709 Q1274.1187,185.9121 1274.4844,185.2277 Q1274.8594,184.534 1275.5156,184.1684 Q1276.1719,183.7934 1276.9125,183.7934 Q1277.3531,183.7934 1277.7375,183.8965 Q1278.1313,183.9902 1278.4594,184.2059 Z " fill="#000000"/><text fill="#000000" font-family="sans-serif" font-size="8.4" lengthAdjust="spacing" textLength="55.2" x="1285.2" y="184.5727">&#171;value object&#187;</text><text fill="#000000" font-family="sans-serif" font-size="8.4" lengthAdjust="spacing" textLength="42.6" x="1291.5" y="195.7453">Description</text><line style="stroke:#181818;stroke-width:0.3;" x1="1268.4" x2="1341.6" y1="200.8535" y2="200.8535"/><line style="stroke:#181818;stroke-width:0.3;" x1="1268.4" x2="1341.6" y1="205.6535" y2="205.6535"/></g><!--class JobApplication--><g id="elem_JobApplication"><rect codeLine="94" fill="#F1F1F1" height="49.118" id="JobApplication" rx="1.5" ry="1.5" style="stroke:#181818;stroke-width:0.3;" width="73.8" x="951.9" y="375.0082"/><ellipse cx="960.9" cy="394.7672" fill="#ADD1B2" rx="6.6" ry="6.6" style="stroke:#181818;stroke-width:0.6;"/><path d="M962.5594,392.2922 Q962.6531,392.1609 962.7656,392.0953 Q962.8781,392.0297 963.0094,392.0297 Q963.2344,392.0297 963.375,392.1891 Q963.5156,392.3391 963.5156,392.7047 L963.5156,393.5766 Q963.5156,393.9422 963.375,394.1016 Q963.2344,394.2609 963.0094,394.2609 Q962.8031,394.2609 962.6813,394.1391 Q962.5594,394.0266 962.4938,393.7172 Q962.4656,393.5016 962.3531,393.3891 Q962.1563,393.1641 961.7906,393.0328 Q961.425,392.9016 961.05,392.9016 Q960.5906,392.9016 960.2063,393.0984 Q959.8313,393.2953 959.5313,393.7453 Q959.2406,394.1953 959.2406,394.8141 L959.2406,395.4703 Q959.2406,396.2109 959.775,396.7078 Q960.3094,397.1953 961.2656,397.1953 Q961.8281,397.1953 962.2219,397.0453 Q962.4563,396.9516 962.7094,396.6891 Q962.8688,396.5297 962.9531,396.4828 Q963.0469,396.4359 963.1687,396.4359 Q963.3656,396.4359 963.5156,396.5953 Q963.675,396.7453 963.675,396.9516 Q963.675,397.1578 963.4688,397.4016 Q963.1687,397.7484 962.6906,397.9453 Q962.0437,398.2172 961.2656,398.2172 Q960.3562,398.2172 959.6344,397.8422 Q959.0437,397.5422 958.6312,396.9047 Q958.2188,396.2578 958.2188,395.4891 L958.2188,394.7953 Q958.2188,393.9984 958.5844,393.3141 Q958.9594,392.6203 959.6156,392.2547 Q960.2719,391.8797 961.0125,391.8797 Q961.4531,391.8797 961.8375,391.9828 Q962.2312,392.0766 962.5594,392.2922 Z " fill="#000000"/><text fill="#000000" font-family="sans-serif" font-size="8.4" lengthAdjust="spacing" textLength="24.6" x="984.3" y="387.0727">&#171;root&#187;</text><text fill="#000000" font-family="sans-serif" font-size="8.4" lengthAdjust="spacing" textLength="30" x="981.6" y="398.2453">&#171;entity&#187;</text><text fill="#000000" font-family="sans-serif" font-size="8.4" lengthAdjust="spacing" textLength="54.6" x="969.3" y="409.418">JobApplication</text><line style="stroke:#181818;stroke-width:0.3;" x1="952.5" x2="1025.1" y1="414.5262" y2="414.5262"/><line style="stroke:#181818;stroke-width:0.3;" x1="952.5" x2="1025.1" y1="419.3262" y2="419.3262"/></g><!--class Status--><g id="elem_Status"><rect codeLine="97" fill="#F1F1F1" height="37.9453" id="Status" rx="1.5" ry="1.5" style="stroke:#181818;stroke-width:0.3;" width="74.4" x="856.2" y="495.0082"/><ellipse cx="865.2" cy="509.1809" fill="#ADD1B2" rx="6.6" ry="6.6" style="stroke:#181818;stroke-width:0.6;"/><path d="M866.8594,506.7059 Q866.9531,506.5746 867.0656,506.509 Q867.1781,506.4434 867.3094,506.4434 Q867.5344,506.4434 867.675,506.6027 Q867.8156,506.7527 867.8156,507.1184 L867.8156,507.9902 Q867.8156,508.3559 867.675,508.5152 Q867.5344,508.6746 867.3094,508.6746 Q867.1031,508.6746 866.9812,508.5527 Q866.8594,508.4402 866.7937,508.1309 Q866.7656,507.9152 866.6531,507.8027 Q866.4563,507.5777 866.0906,507.4465 Q865.725,507.3152 865.35,507.3152 Q864.8906,507.3152 864.5063,507.5121 Q864.1313,507.709 863.8313,508.159 Q863.5406,508.609 863.5406,509.2277 L863.5406,509.884 Q863.5406,510.6246 864.075,511.1215 Q864.6094,511.609 865.5656,511.609 Q866.1281,511.609 866.5219,511.459 Q866.7563,511.3652 867.0094,511.1027 Q867.1687,510.9434 867.2531,510.8965 Q867.3469,510.8496 867.4688,510.8496 Q867.6656,510.8496 867.8156,511.009 Q867.975,511.159 867.975,511.3652 Q867.975,511.5715 867.7688,511.8152 Q867.4688,512.1621 866.9906,512.359 Q866.3438,512.6309 865.5656,512.6309 Q864.6563,512.6309 863.9344,512.2559 Q863.3438,511.9559 862.9313,511.3184 Q862.5188,510.6715 862.5188,509.9027 L862.5188,509.209 Q862.5188,508.4121 862.8844,507.7277 Q863.2594,507.034 863.9156,506.6684 Q864.5719,506.2934 865.3125,506.2934 Q865.7531,506.2934 866.1375,506.3965 Q866.5313,506.4902 866.8594,506.7059 Z " fill="#000000"/><text fill="#000000" font-family="sans-serif" font-size="8.4" lengthAdjust="spacing" textLength="55.2" x="873.6" y="507.0727">&#171;value object&#187;</text><text fill="#000000" font-family="sans-serif" font-size="8.4" lengthAdjust="spacing" textLength="24" x="889.2" y="518.2453">Status</text><line style="stroke:#181818;stroke-width:0.3;" x1="856.8" x2="930" y1="523.3535" y2="523.3535"/><line style="stroke:#181818;stroke-width:0.3;" x1="856.8" x2="930" y1="528.1535" y2="528.1535"/></g><!--class ID--><g id="elem_ID"><rect codeLine="100" fill="#F1F1F1" height="49.118" id="ID" rx="1.5" ry="1.5" style="stroke:#181818;stroke-width:0.3;" width="74.4" x="951.6" y="489.3082"/><ellipse cx="960.6" cy="509.0672" fill="#ADD1B2" rx="6.6" ry="6.6" style="stroke:#181818;stroke-width:0.6;"/><path d="M962.2594,506.5922 Q962.3531,506.4609 962.4656,506.3953 Q962.5781,506.3297 962.7094,506.3297 Q962.9344,506.3297 963.075,506.4891 Q963.2156,506.6391 963.2156,507.0047 L963.2156,507.8766 Q963.2156,508.2422 963.075,508.4016 Q962.9344,508.5609 962.7094,508.5609 Q962.5031,508.5609 962.3812,508.4391 Q962.2594,508.3266 962.1937,508.0172 Q962.1656,507.8016 962.0531,507.6891 Q961.8562,507.4641 961.4906,507.3328 Q961.125,507.2016 960.75,507.2016 Q960.2906,507.2016 959.9063,507.3984 Q959.5313,507.5953 959.2312,508.0453 Q958.9406,508.4953 958.9406,509.1141 L958.9406,509.7703 Q958.9406,510.5109 959.475,511.0078 Q960.0094,511.4953 960.9656,511.4953 Q961.5281,511.4953 961.9219,511.3453 Q962.1563,511.2516 962.4094,510.9891 Q962.5687,510.8297 962.6531,510.7828 Q962.7469,510.7359 962.8688,510.7359 Q963.0656,510.7359 963.2156,510.8953 Q963.375,511.0453 963.375,511.2516 Q963.375,511.4578 963.1687,511.7016 Q962.8688,512.0484 962.3906,512.2453 Q961.7438,512.5172 960.9656,512.5172 Q960.0563,512.5172 959.3344,512.1422 Q958.7438,511.8422 958.3313,511.2047 Q957.9187,510.5578 957.9187,509.7891 L957.9187,509.0953 Q957.9187,508.2984 958.2844,507.6141 Q958.6594,506.9203 959.3156,506.5547 Q959.9719,506.1797 960.7125,506.1797 Q961.1531,506.1797 961.5375,506.2828 Q961.9313,506.3766 962.2594,506.5922 Z " fill="#000000"/><text fill="#000000" font-family="sans-serif" font-size="8.4" lengthAdjust="spacing" textLength="55.2" x="969" y="501.3727">&#171;value object&#187;</text><text fill="#000000" font-family="sans-serif" font-size="8.4" lengthAdjust="spacing" textLength="42" x="975.6" y="512.5453">&#171;identifier&#187;</text><text fill="#000000" font-family="sans-serif" font-size="8.4" lengthAdjust="spacing" textLength="6.6" x="993.3" y="523.718">Id</text><line style="stroke:#181818;stroke-width:0.3;" x1="952.2" x2="1025.4" y1="528.8262" y2="528.8262"/><line style="stroke:#181818;stroke-width:0.3;" x1="952.2" x2="1025.4" y1="533.6262" y2="533.6262"/></g><!--class Grade--><g id="elem_Grade"><rect codeLine="103" fill="#F1F1F1" height="49.118" id="Grade" rx="1.5" ry="1.5" style="stroke:#181818;stroke-width:0.3;" width="74.4" x="1047" y="489.3082"/><ellipse cx="1056" cy="509.0672" fill="#ADD1B2" rx="6.6" ry="6.6" style="stroke:#181818;stroke-width:0.6;"/><path d="M1057.6594,506.5922 Q1057.7531,506.4609 1057.8656,506.3953 Q1057.9781,506.3297 1058.1094,506.3297 Q1058.3344,506.3297 1058.475,506.4891 Q1058.6156,506.6391 1058.6156,507.0047 L1058.6156,507.8766 Q1058.6156,508.2422 1058.475,508.4016 Q1058.3344,508.5609 1058.1094,508.5609 Q1057.9031,508.5609 1057.7813,508.4391 Q1057.6594,508.3266 1057.5938,508.0172 Q1057.5656,507.8016 1057.4531,507.6891 Q1057.2563,507.4641 1056.8906,507.3328 Q1056.525,507.2016 1056.15,507.2016 Q1055.6906,507.2016 1055.3062,507.3984 Q1054.9312,507.5953 1054.6313,508.0453 Q1054.3406,508.4953 1054.3406,509.1141 L1054.3406,509.7703 Q1054.3406,510.5109 1054.875,511.0078 Q1055.4094,511.4953 1056.3656,511.4953 Q1056.9281,511.4953 1057.3219,511.3453 Q1057.5562,511.2516 1057.8094,510.9891 Q1057.9688,510.8297 1058.0531,510.7828 Q1058.1469,510.7359 1058.2688,510.7359 Q1058.4656,510.7359 1058.6156,510.8953 Q1058.775,511.0453 1058.775,511.2516 Q1058.775,511.4578 1058.5688,511.7016 Q1058.2688,512.0484 1057.7906,512.2453 Q1057.1438,512.5172 1056.3656,512.5172 Q1055.4563,512.5172 1054.7344,512.1422 Q1054.1438,511.8422 1053.7313,511.2047 Q1053.3188,510.5578 1053.3188,509.7891 L1053.3188,509.0953 Q1053.3188,508.2984 1053.6844,507.6141 Q1054.0594,506.9203 1054.7156,506.5547 Q1055.3719,506.1797 1056.1125,506.1797 Q1056.5531,506.1797 1056.9375,506.2828 Q1057.3313,506.3766 1057.6594,506.5922 Z " fill="#000000"/><text fill="#000000" font-family="sans-serif" font-size="8.4" lengthAdjust="spacing" textLength="55.2" x="1064.4" y="501.3727">&#171;value object&#187;</text><text fill="#000000" font-family="sans-serif" font-size="8.4" lengthAdjust="spacing" textLength="48" x="1068" y="512.5453">&#171;calculated&#187;</text><text fill="#000000" font-family="sans-serif" font-size="8.4" lengthAdjust="spacing" textLength="24" x="1080" y="523.718">Grade</text><line style="stroke:#181818;stroke-width:0.3;" x1="1047.6" x2="1120.8" y1="528.8262" y2="528.8262"/><line style="stroke:#181818;stroke-width:0.3;" x1="1047.6" x2="1120.8" y1="533.6262" y2="533.6262"/></g><!--class ApplicationFile--><g id="elem_ApplicationFile"><rect codeLine="106" fill="#F1F1F1" height="60.2906" id="ApplicationFile" rx="1.5" ry="1.5" style="stroke:#181818;stroke-width:0.3;" width="74.4" x="1142.4" y="483.9082"/><ellipse cx="1151.4" cy="498.0809" fill="#ADD1B2" rx="6.6" ry="6.6" style="stroke:#181818;stroke-width:0.6;"/><path d="M1153.0594,495.6059 Q1153.1531,495.4746 1153.2656,495.409 Q1153.3781,495.3434 1153.5094,495.3434 Q1153.7344,495.3434 1153.875,495.5027 Q1154.0156,495.6527 1154.0156,496.0184 L1154.0156,496.8902 Q1154.0156,497.2559 1153.875,497.4152 Q1153.7344,497.5746 1153.5094,497.5746 Q1153.3031,497.5746 1153.1812,497.4527 Q1153.0594,497.3402 1152.9937,497.0309 Q1152.9656,496.8152 1152.8531,496.7027 Q1152.6563,496.4777 1152.2906,496.3465 Q1151.925,496.2152 1151.55,496.2152 Q1151.0906,496.2152 1150.7063,496.4121 Q1150.3313,496.609 1150.0313,497.059 Q1149.7406,497.509 1149.7406,498.1277 L1149.7406,498.784 Q1149.7406,499.5246 1150.275,500.0215 Q1150.8094,500.509 1151.7656,500.509 Q1152.3281,500.509 1152.7219,500.359 Q1152.9563,500.2652 1153.2094,500.0027 Q1153.3687,499.8434 1153.4531,499.7965 Q1153.5469,499.7496 1153.6688,499.7496 Q1153.8656,499.7496 1154.0156,499.909 Q1154.175,500.059 1154.175,500.2652 Q1154.175,500.4715 1153.9688,500.7152 Q1153.6688,501.0621 1153.1906,501.259 Q1152.5438,501.5309 1151.7656,501.5309 Q1150.8563,501.5309 1150.1344,501.1559 Q1149.5438,500.8559 1149.1313,500.2184 Q1148.7188,499.5715 1148.7188,498.8027 L1148.7188,498.109 Q1148.7188,497.3121 1149.0844,496.6277 Q1149.4594,495.934 1150.1156,495.5684 Q1150.7719,495.1934 1151.5125,495.1934 Q1151.9531,495.1934 1152.3375,495.2965 Q1152.7313,495.3902 1153.0594,495.6059 Z " fill="#000000"/><text fill="#000000" font-family="sans-serif" font-size="8.4" lengthAdjust="spacing" textLength="55.2" x="1159.8" y="495.9727">&#171;value object&#187;</text><text fill="#000000" font-family="sans-serif" font-size="8.4" lengthAdjust="spacing" textLength="55.2" x="1159.8" y="507.1453">ApplicationFile</text><line style="stroke:#181818;stroke-width:0.3;" x1="1143" x2="1216.2" y1="512.2535" y2="512.2535"/><text fill="#000000" font-family="sans-serif" font-size="8.4" lengthAdjust="spacing" textLength="58.8" x="1146" y="523.718">relativeFilePath</text><text fill="#000000" font-family="sans-serif" font-size="8.4" lengthAdjust="spacing" textLength="40.8" x="1146" y="534.8906">fileContent</text><line style="stroke:#181818;stroke-width:0.3;" x1="1143" x2="1216.2" y1="539.3988" y2="539.3988"/></g><!--class Type--><g id="elem_Type"><rect codeLine="113" fill="#F1F1F1" height="37.9453" id="Type" rx="1.5" ry="1.5" style="stroke:#181818;stroke-width:0.3;" width="74.4" x="1142.4" y="580.5082"/><ellipse cx="1151.4" cy="594.6809" fill="#ADD1B2" rx="6.6" ry="6.6" style="stroke:#181818;stroke-width:0.6;"/><path d="M1153.0594,592.2059 Q1153.1531,592.0746 1153.2656,592.009 Q1153.3781,591.9434 1153.5094,591.9434 Q1153.7344,591.9434 1153.875,592.1027 Q1154.0156,592.2527 1154.0156,592.6184 L1154.0156,593.4902 Q1154.0156,593.8559 1153.875,594.0152 Q1153.7344,594.1746 1153.5094,594.1746 Q1153.3031,594.1746 1153.1812,594.0527 Q1153.0594,593.9402 1152.9937,593.6309 Q1152.9656,593.4152 1152.8531,593.3027 Q1152.6563,593.0777 1152.2906,592.9465 Q1151.925,592.8152 1151.55,592.8152 Q1151.0906,592.8152 1150.7063,593.0121 Q1150.3313,593.209 1150.0313,593.659 Q1149.7406,594.109 1149.7406,594.7277 L1149.7406,595.384 Q1149.7406,596.1246 1150.275,596.6215 Q1150.8094,597.109 1151.7656,597.109 Q1152.3281,597.109 1152.7219,596.959 Q1152.9563,596.8652 1153.2094,596.6027 Q1153.3687,596.4434 1153.4531,596.3965 Q1153.5469,596.3496 1153.6688,596.3496 Q1153.8656,596.3496 1154.0156,596.509 Q1154.175,596.659 1154.175,596.8652 Q1154.175,597.0715 1153.9688,597.3152 Q1153.6688,597.6621 1153.1906,597.859 Q1152.5438,598.1309 1151.7656,598.1309 Q1150.8563,598.1309 1150.1344,597.7559 Q1149.5438,597.4559 1149.1313,596.8184 Q1148.7188,596.1715 1148.7188,595.4027 L1148.7188,594.709 Q1148.7188,593.9121 1149.0844,593.2277 Q1149.4594,592.534 1150.1156,592.1684 Q1150.7719,591.7934 1151.5125,591.7934 Q1151.9531,591.7934 1152.3375,591.8965 Q1152.7313,591.9902 1153.0594,592.2059 Z " fill="#000000"/><text fill="#000000" font-family="sans-serif" font-size="8.4" lengthAdjust="spacing" textLength="55.2" x="1159.8" y="592.5727">&#171;value object&#187;</text><text fill="#000000" font-family="sans-serif" font-size="8.4" lengthAdjust="spacing" textLength="19.2" x="1177.8" y="603.7453">Type</text><line style="stroke:#181818;stroke-width:0.3;" x1="1143" x2="1216.2" y1="608.8535" y2="608.8535"/><line style="stroke:#181818;stroke-width:0.3;" x1="1143" x2="1216.2" y1="613.6535" y2="613.6535"/></g><!--reverse link Mode to JobOpening--><g id="link_Mode_JobOpening"><path codeLine="119" d="M636.0272,94.1844 C627.3512,103.0164 618.978,110.9242 608.4,119.4082 C583.926,139.0342 553.968,158.3242 531.63,171.8962 " fill="none" id="Mode-backto-JobOpening" style="stroke:#181818;stroke-width:0.6;"/><polygon fill="#181818" points="638.55,91.6162,633.0537,93.7866,636.4477,93.7563,636.4779,97.1503,638.55,91.6162" style="stroke:#181818;stroke-width:0.6;"/><text fill="#000000" font-family="sans-serif" font-size="7.8" lengthAdjust="spacing" textLength="28.8" x="583.2" y="146.4252">includes</text><text fill="#000000" font-family="sans-serif" font-size="7.8" lengthAdjust="spacing" textLength="4.2" x="630.3591" y="105.0085">1</text><text fill="#000000" font-family="sans-serif" font-size="7.8" lengthAdjust="spacing" textLength="4.2" x="536.4858" y="166.6702">1</text></g><!--reverse link JobFunction to JobOpening--><g id="link_JobFunction_JobOpening"><path codeLine="120" d="M549.1747,94.774 C538.6567,114.994 523.362,144.3862 511.77,166.6522 " fill="none" id="JobFunction-backto-JobOpening" style="stroke:#181818;stroke-width:0.6;"/><polygon fill="#181818" points="550.836,91.5802,546.2149,95.2633,549.4516,94.2417,550.4732,97.4784,550.836,91.5802" style="stroke:#181818;stroke-width:0.6;"/><text fill="#000000" font-family="sans-serif" font-size="7.8" lengthAdjust="spacing" textLength="28.8" x="526.2" y="146.4252">includes</text><text fill="#000000" font-family="sans-serif" font-size="7.8" lengthAdjust="spacing" textLength="4.2" x="544.2303" y="104.9651">1</text><text fill="#000000" font-family="sans-serif" font-size="7.8" lengthAdjust="spacing" textLength="4.2" x="509.2387" y="160.1313">1</text></g><!--reverse link NumberOfVacancies to JobOpening--><g id="link_NumberOfVacancies_JobOpening"><path codeLine="121" d="M461.045,94.9251 C469.091,115.1451 480.726,144.3862 489.588,166.6522 " fill="none" id="NumberOfVacancies-backto-JobOpening" style="stroke:#181818;stroke-width:0.6;"/><polygon fill="#181818" points="459.714,91.5802,459.4806,97.4849,460.8232,94.3676,463.9405,95.7102,459.714,91.5802" style="stroke:#181818;stroke-width:0.6;"/><text fill="#000000" font-family="sans-serif" font-size="7.8" lengthAdjust="spacing" textLength="28.8" x="481.8" y="146.4252">includes</text><text fill="#000000" font-family="sans-serif" font-size="7.8" lengthAdjust="spacing" textLength="4.2" x="456.5894" y="104.9651">1</text><text fill="#000000" font-family="sans-serif" font-size="7.8" lengthAdjust="spacing" textLength="4.2" x="483.5214" y="160.1313">1</text></g><!--reverse link Description to JobOpening--><g id="link_Description_JobOpening"><path codeLine="122" d="M364.4818,94.0975 C373.2838,102.9115 381.768,110.8522 392.4,119.4082 C416.112,138.5002 444.906,157.5322 466.614,171.1402 " fill="none" id="Description-backto-JobOpening" style="stroke:#181818;stroke-width:0.6;"/><polygon fill="#181818" points="361.938,91.5502,364.0556,97.0671,364.0579,93.673,367.452,93.6753,361.938,91.5502" style="stroke:#181818;stroke-width:0.6;"/><text fill="#000000" font-family="sans-serif" font-size="7.8" lengthAdjust="spacing" textLength="28.8" x="432.6" y="146.4252">includes</text><text fill="#000000" font-family="sans-serif" font-size="7.8" lengthAdjust="spacing" textLength="4.2" x="360.9221" y="104.9289">1</text><text fill="#000000" font-family="sans-serif" font-size="7.8" lengthAdjust="spacing" textLength="4.2" x="457.7531" y="165.9656">1</text></g><!--reverse link Address1 to JobOpening--><g id="link_Address1_JobOpening"><path codeLine="123" d="M289.1141,114.0852 C292.5941,116.8212 293.358,117.1582 297,119.4082 C351.888,153.2782 425.094,174.0082 466.68,183.8662 " fill="none" id="Address1-backto-JobOpening" style="stroke:#181818;stroke-width:0.6;"/><polygon fill="#181818" points="286.284,111.8602,289.0458,117.0844,288.6424,113.7144,292.0124,113.311,286.284,111.8602" style="stroke:#181818;stroke-width:0.6;"/><text fill="#000000" font-family="sans-serif" font-size="7.8" lengthAdjust="spacing" textLength="28.8" x="355.2" y="146.4252">includes</text><text fill="#000000" font-family="sans-serif" font-size="7.8" lengthAdjust="spacing" textLength="4.2" x="291.0839" y="114.2374">1</text><text fill="#000000" font-family="sans-serif" font-size="7.8" lengthAdjust="spacing" textLength="4.2" x="457.8279" y="180.4017">1</text></g><!--reverse link ContractType to JobOpening--><g id="link_ContractType_JobOpening"><path codeLine="124" d="M733.4096,94.2904 C724.7936,103.6624 715.818,111.9682 703.8,119.4082 C648.216,153.8062 573.834,174.4042 531.774,184.0882 " fill="none" id="ContractType-backto-JobOpening" style="stroke:#181818;stroke-width:0.6;"/><polygon fill="#181818" points="735.846,91.6402,730.4245,93.9913,733.8156,93.8487,733.9581,97.2398,735.846,91.6402" style="stroke:#181818;stroke-width:0.6;"/><text fill="#000000" font-family="sans-serif" font-size="7.8" lengthAdjust="spacing" textLength="28.8" x="667.8" y="146.4252">includes</text><text fill="#000000" font-family="sans-serif" font-size="7.8" lengthAdjust="spacing" textLength="4.2" x="728.2097" y="104.8111">1</text><text fill="#000000" font-family="sans-serif" font-size="7.8" lengthAdjust="spacing" textLength="4.2" x="536.4333" y="180.6535">1</text></g><!--reverse link Plugin to JobOpening--><g id="link_Plugin_JobOpening"><path codeLine="127" d="M1016.3917,79.5661 C960.0697,92.2321 821.274,123.2962 702,148.8082 C641.964,161.6482 571.794,176.0422 531.714,184.2082 " fill="none" id="Plugin-backto-JobOpening" style="stroke:#181818;stroke-width:0.6;"/><polygon fill="#181818" points="1019.904,78.7762,1014.109,77.6195,1016.9771,79.4344,1015.1622,82.3025,1019.904,78.7762" style="stroke:#181818;stroke-width:0.6;"/><text fill="#000000" font-family="sans-serif" font-size="7.8" lengthAdjust="spacing" textLength="28.8" x="748.8" y="146.4252">includes</text><text fill="#000000" font-family="sans-serif" font-size="7.8" lengthAdjust="spacing" textLength="13.2" x="1001.9118" y="77.1764">0..2</text><text fill="#000000" font-family="sans-serif" font-size="7.8" lengthAdjust="spacing" textLength="4.2" x="536.3653" y="192.3603">1</text></g><!--link JobOpening to JobReference--><g id="link_JobOpening_JobReference"><path codeLine="128" d="M499.2,216.1342 C499.2,230.8882 499.2,246.0982 499.2,260.8522 " fill="none" id="JobOpening-to-JobReference" style="stroke:#181818;stroke-width:0.6;"/><polygon fill="#181818" points="499.2,264.4522,501.6,259.0522,499.2,261.4522,496.8,259.0522,499.2,264.4522" style="stroke:#181818;stroke-width:0.6;"/><text fill="#000000" font-family="sans-serif" font-size="7.8" lengthAdjust="spacing" textLength="41.4" x="499.8" y="244.2252">identified by</text><text fill="#000000" font-family="sans-serif" font-size="7.8" lengthAdjust="spacing" textLength="4.2" x="494.6784" y="229.138">1</text><text fill="#000000" font-family="sans-serif" font-size="7.8" lengthAdjust="spacing" textLength="4.2" x="494.6653" y="257.9313">1</text></g><!--link JobOpening to JogOpeningStatus--><g id="link_JobOpening_JogOpeningStatus"><path codeLine="130" d="M473.574,216.1342 C455.766,232.8982 435.0232,252.4325 418.7272,267.7745 " fill="none" id="JobOpening-to-JogOpeningStatus" style="stroke:#181818;stroke-width:0.6;"/><polygon fill="#181818" points="416.106,270.2422,421.6829,268.2881,418.2903,268.1858,418.3926,264.7932,416.106,270.2422" style="stroke:#181818;stroke-width:0.6;"/><text fill="#000000" font-family="sans-serif" font-size="7.8" lengthAdjust="spacing" textLength="28.8" x="451.2" y="244.2252">includes</text><text fill="#000000" font-family="sans-serif" font-size="7.8" lengthAdjust="spacing" textLength="4.2" x="465.1285" y="229.138">1</text><text fill="#000000" font-family="sans-serif" font-size="7.8" lengthAdjust="spacing" textLength="4.2" x="415.496" y="263.4986">1</text></g><!--reverse link RecruitmentProcess to Phase--><g id="link_RecruitmentProcess_Phase"><path codeLine="131" d="M213.1258,304.9393 C226.2118,308.4973 233.466,310.4122 246.6,313.8082 C366.444,344.7802 510.252,379.0822 568.35,392.8222 " fill="none" id="RecruitmentProcess-backto-Phase" style="stroke:#181818;stroke-width:0.6;"/><polygon fill="#181818" points="206.178,303.0502,209.0222,306.3107,213.1258,304.9393,210.2816,301.6788,206.178,303.0502" style="stroke:#181818;stroke-width:0.6;"/><text fill="#000000" font-family="sans-serif" font-size="7.8" lengthAdjust="spacing" textLength="21.6" x="361.8" y="340.8252">part of</text><text fill="#000000" font-family="sans-serif" font-size="7.8" lengthAdjust="spacing" textLength="4.2" x="210.932" y="302.1126">1</text><text fill="#000000" font-family="sans-serif" font-size="7.8" lengthAdjust="spacing" textLength="13.2" x="550.5305" y="389.3756">4..5</text></g><!--link RecruitmentProcess to PhaseNames--><g id="link_RecruitmentProcess_PhaseNames"><path codeLine="132" d="M206.208,289.2082 C222.756,289.2082 237.444,289.2082 253.032,289.2082 " fill="none" id="RecruitmentProcess-to-PhaseNames" style="stroke:#181818;stroke-width:0.6;"/><polygon fill="#181818" points="256.632,289.2082,251.232,286.8082,253.632,289.2082,251.232,291.6082,256.632,289.2082" style="stroke:#181818;stroke-width:0.6;"/><text fill="#000000" font-family="sans-serif" font-size="7.8" lengthAdjust="spacing" textLength="28.8" x="217.05" y="285.0252">includes</text><text fill="#000000" font-family="sans-serif" font-size="7.8" lengthAdjust="spacing" textLength="4.2" x="210.9649" y="286.9513">1</text><text fill="#000000" font-family="sans-serif" font-size="7.8" lengthAdjust="spacing" textLength="4.2" x="247.8685" y="286.8372">1</text></g><!--link JobOpening to RecruitmentProcess--><g id="link_JobOpening_RecruitmentProcess"><path codeLine="133" d="M466.68,201.2242 C406.284,218.3482 280.0336,254.1345 209.6476,274.0845 " fill="none" id="JobOpening-to-RecruitmentProcess" style="stroke:#181818;stroke-width:0.6;"/><polygon fill="#181818" points="206.184,275.0662,212.0338,275.9027,209.0703,274.2481,210.7249,271.2846,206.184,275.0662" style="stroke:#181818;stroke-width:0.6;"/><text fill="#000000" font-family="sans-serif" font-size="7.8" lengthAdjust="spacing" textLength="28.8" x="339.6" y="244.2252">includes</text><text fill="#000000" font-family="sans-serif" font-size="7.8" lengthAdjust="spacing" textLength="4.2" x="457.8279" y="200.0922">1</text><text fill="#000000" font-family="sans-serif" font-size="7.8" lengthAdjust="spacing" textLength="4.2" x="210.9386" y="271.4614">1</text></g><!--link ScreeningPhase to Phase--><g id="link_ScreeningPhase_Phase"><path codeLine="136" d="M750.258,308.2102 C713.892,329.4202 664.1089,358.4605 630.1549,378.2665 " fill="none" id="ScreeningPhase-to-Phase" style="stroke:#181818;stroke-width:0.6;"/><polygon fill="none" points="620.826,383.7082,631.9688,381.3761,628.341,375.1569,620.826,383.7082" style="stroke:#181818;stroke-width:0.6;"/></g><!--link ResultPhase to Phase--><g id="link_ResultPhase_Phase"><path codeLine="137" d="M670.83,308.3302 C657.168,324.5782 643.976,340.2755 627.824,359.4875 " fill="none" id="ResultPhase-to-Phase" style="stroke:#181818;stroke-width:0.6;"/><polygon fill="none" points="620.874,367.7542,630.5795,361.8042,625.0684,357.1709,620.874,367.7542" style="stroke:#181818;stroke-width:0.6;"/></g><!--link InterviewPhase to Phase--><g id="link_InterviewPhase_Phase"><path codeLine="138" d="M85.602,308.1202 C90.414,310.2562 95.37,312.2362 100.2,313.8082 C273.504,370.2142 483.0448,390.4934 557.7328,396.3254 " fill="none" id="InterviewPhase-to-Phase" style="stroke:#181818;stroke-width:0.6;"/><polygon fill="none" points="568.5,397.1662,558.013,392.7364,557.4525,399.9145,568.5,397.1662" style="stroke:#181818;stroke-width:0.6;"/></g><!--link AnalysisPhase to Phase--><g id="link_AnalysisPhase_Phase"><path codeLine="139" d="M594.6,308.3302 C594.6,323.4862 594.6,334.5442 594.6,353.0062 " fill="none" id="AnalysisPhase-to-Phase" style="stroke:#181818;stroke-width:0.6;"/><polygon fill="none" points="594.6,363.8062,598.2,353.0062,591,353.0062,594.6,363.8062" style="stroke:#181818;stroke-width:0.6;"/></g><!--link Plugin to PlugClass--><g id="link_Plugin_PlugClass"><path codeLine="141" d="M1055.904,97.2922 C1066.344,119.5342 1080.1021,148.8435 1089.6061,169.0875 " fill="none" id="Plugin-to-PlugClass" style="stroke:#181818;stroke-width:0.6;"/><polygon fill="#181818" points="1091.136,172.3462,1091.0137,166.4382,1089.8611,169.6306,1086.6687,168.478,1091.136,172.3462" style="stroke:#181818;stroke-width:0.6;"/><text fill="#000000" font-family="sans-serif" font-size="7.8" lengthAdjust="spacing" textLength="28.8" x="1078.8" y="146.4252">includes</text><text fill="#000000" font-family="sans-serif" font-size="7.8" lengthAdjust="spacing" textLength="4.2" x="1053.1134" y="110.2895">1</text><text fill="#000000" font-family="sans-serif" font-size="7.8" lengthAdjust="spacing" textLength="4.2" x="1084.8168" y="165.8092">1</text></g><!--link Plugin to JarFile--><g id="link_Plugin_JarFile"><path codeLine="142" d="M1069.302,90.8122 C1100.136,112.7902 1149.6924,148.1107 1180.9824,170.4127 " fill="none" id="Plugin-to-JarFile" style="stroke:#181818;stroke-width:0.6;"/><polygon fill="#181818" points="1183.914,172.5022,1180.9096,167.4136,1181.471,170.761,1178.1237,171.3224,1183.914,172.5022" style="stroke:#181818;stroke-width:0.6;"/><text fill="#000000" font-family="sans-serif" font-size="7.8" lengthAdjust="spacing" textLength="28.8" x="1147.2" y="146.4252">includes</text><text fill="#000000" font-family="sans-serif" font-size="7.8" lengthAdjust="spacing" textLength="4.2" x="1074.0761" y="91.3862">1</text><text fill="#000000" font-family="sans-serif" font-size="7.8" lengthAdjust="spacing" textLength="4.2" x="1173.9831" y="165.771">1</text></g><!--link Plugin to PlugDesc--><g id="link_Plugin_PlugDesc"><path codeLine="143" d="M1069.236,83.5162 C1109.106,100.3162 1190.124,134.9302 1257.6,166.8082 C1261.35,168.5842 1262.0221,168.8802 1265.8981,170.7942 " fill="none" id="Plugin-to-PlugDesc" style="stroke:#181818;stroke-width:0.6;"/><polygon fill="#181818" points="1269.126,172.3882,1265.3468,167.8453,1266.4361,171.0599,1263.2215,172.1492,1269.126,172.3882" style="stroke:#181818;stroke-width:0.6;"/><text fill="#000000" font-family="sans-serif" font-size="7.8" lengthAdjust="spacing" textLength="28.8" x="1217.4" y="146.4252">includes</text><text fill="#000000" font-family="sans-serif" font-size="7.8" lengthAdjust="spacing" textLength="4.2" x="1073.9983" y="82.7906">1</text><text fill="#000000" font-family="sans-serif" font-size="7.8" lengthAdjust="spacing" textLength="4.2" x="1258.8739" y="166.7634">1</text></g><!--link Plugin to PlugID--><g id="link_Plugin_PlugID"><path codeLine="144" d="M1019.898,92.4982 C993.948,112.7602 955.9071,142.4642 927.8151,164.4062 " fill="none" id="Plugin-to-PlugID" style="stroke:#181818;stroke-width:0.6;"/><polygon fill="#181818" points="924.978,166.6222,930.711,165.1896,927.3423,164.7755,927.7563,161.4068,924.978,166.6222" style="stroke:#181818;stroke-width:0.6;"/><text fill="#000000" font-family="sans-serif" font-size="7.8" lengthAdjust="spacing" textLength="41.4" x="960.6" y="146.4252">identified by</text><text fill="#000000" font-family="sans-serif" font-size="7.8" lengthAdjust="spacing" textLength="4.2" x="1010.9239" y="93.3725">1</text><text fill="#000000" font-family="sans-serif" font-size="7.8" lengthAdjust="spacing" textLength="4.2" x="925.3804" y="160.0966">1</text></g><!--link Plugin to PlugType--><g id="link_Plugin_PlugType"><path codeLine="145" d="M1033.422,97.2922 C1023.09,119.5342 1009.4864,148.8372 1000.0844,169.0812 " fill="none" id="Plugin-to-PlugType" style="stroke:#181818;stroke-width:0.6;"/><polygon fill="#181818" points="998.568,172.3462,1003.0193,168.4596,999.8317,169.6253,998.6659,166.4377,998.568,172.3462" style="stroke:#181818;stroke-width:0.6;"/><text fill="#000000" font-family="sans-serif" font-size="7.8" lengthAdjust="spacing" textLength="19.2" x="1014.6" y="146.4252">has a</text><text fill="#000000" font-family="sans-serif" font-size="7.8" lengthAdjust="spacing" textLength="4.2" x="1027.1888" y="110.2895">1</text><text fill="#000000" font-family="sans-serif" font-size="7.8" lengthAdjust="spacing" textLength="4.2" x="995.6414" y="165.8092">1</text></g><!--link JobApplication to ID--><g id="link_JobApplication_ID"><path codeLine="148" d="M988.8,424.4722 C988.8,443.6182 988.8,466.5922 988.8,485.6782 " fill="none" id="JobApplication-to-ID" style="stroke:#181818;stroke-width:0.6;"/><polygon fill="#181818" points="988.8,489.2782,991.2,483.8782,988.8,486.2782,986.4,483.8782,988.8,489.2782" style="stroke:#181818;stroke-width:0.6;"/><text fill="#000000" font-family="sans-serif" font-size="7.8" lengthAdjust="spacing" textLength="41.4" x="989.4" y="463.5252">identified by</text><text fill="#000000" font-family="sans-serif" font-size="7.8" lengthAdjust="spacing" textLength="4.2" x="984.2916" y="437.309">1</text><text fill="#000000" font-family="sans-serif" font-size="7.8" lengthAdjust="spacing" textLength="4.2" x="984.2522" y="482.5924">1</text></g><!--link JobApplication to ApplicationFile--><g id="link_JobApplication_ApplicationFile"><path codeLine="149" d="M1025.802,421.4422 C1054.854,438.2002 1096.266,462.2782 1132.2,483.9082 C1135.518,485.9062 1135.8847,486.1161 1139.3287,488.2221 " fill="none" id="JobApplication-to-ApplicationFile" style="stroke:#181818;stroke-width:0.6;"/><polygon fill="#181818" points="1142.4,490.1002,1139.0451,485.2356,1139.8406,488.5351,1136.541,489.3306,1142.4,490.1002" style="stroke:#181818;stroke-width:0.6;"/><text fill="#000000" font-family="sans-serif" font-size="7.8" lengthAdjust="spacing" textLength="4.2" x="1030.5676" y="421.7143">1</text><text fill="#000000" font-family="sans-serif" font-size="7.8" lengthAdjust="spacing" textLength="12" x="1125.675" y="485.149">1..*</text></g><!--link ApplicationFile to Type--><g id="link_ApplicationFile_Type"><path codeLine="150" d="M1179.6,543.9922 C1179.6,556.0522 1179.6,566.0362 1179.6,576.6682 " fill="none" id="ApplicationFile-to-Type" style="stroke:#181818;stroke-width:0.6;"/><polygon fill="#181818" points="1179.6,580.2682,1182,574.8682,1179.6,577.2682,1177.2,574.8682,1179.6,580.2682" style="stroke:#181818;stroke-width:0.6;"/><text fill="#000000" font-family="sans-serif" font-size="7.8" lengthAdjust="spacing" textLength="4.2" x="1175.1047" y="557.3488">1</text><text fill="#000000" font-family="sans-serif" font-size="7.8" lengthAdjust="spacing" textLength="4.2" x="1174.9866" y="573.7158">1</text></g><!--reverse link JobOpening to JobApplication--><g id="link_JobOpening_JobApplication"><path codeLine="151" d="M535.4067,194.0181 C597.3027,198.4641 731.166,213.5122 833.4,264.6082 C888.756,292.2742 940.458,344.1742 968.034,374.7502 " fill="none" id="JobOpening-backto-JobApplication" style="stroke:#181818;stroke-width:0.6;"/><polygon fill="#181818" points="531.816,193.7602,537.0302,196.5409,534.8083,193.9751,537.3741,191.7533,531.816,193.7602" style="stroke:#181818;stroke-width:0.6;"/><text fill="#000000" font-family="sans-serif" font-size="7.8" lengthAdjust="spacing" textLength="28.2" x="905.4" y="292.5252">refers to</text><text fill="#000000" font-family="sans-serif" font-size="7.8" lengthAdjust="spacing" textLength="4.2" x="536.481" y="191.6252">1</text><text fill="#000000" font-family="sans-serif" font-size="7.8" lengthAdjust="spacing" textLength="3" x="961.4854" y="368.2131">*</text></g><!--link JobApplication to Grade--><g id="link_JobApplication_Grade"><path codeLine="152" d="M1010.208,424.3882 C1018.41,433.7362 1027.806,444.5662 1036.2,454.5082 C1045.722,465.7882 1053.828,475.6525 1062.492,486.3325 " fill="none" id="JobApplication-to-Grade" style="stroke:#181818;stroke-width:0.6;"/><polygon fill="#181818" points="1064.76,489.1282,1063.2218,483.4226,1062.87,486.7984,1059.4942,486.4466,1064.76,489.1282" style="stroke:#181818;stroke-width:0.6;"/><text fill="#000000" font-family="sans-serif" font-size="7.8" lengthAdjust="spacing" textLength="28.8" x="1045.8" y="463.5252">includes</text><text fill="#000000" font-family="sans-serif" font-size="7.8" lengthAdjust="spacing" textLength="13.2" x="1047.4099" y="482.6035">0..1</text></g><!--link JobApplication to Status--><g id="link_JobApplication_Status"><path codeLine="153" d="M968.334,424.4722 C950.538,445.5682 927.4677,472.9249 911.2857,492.1009 " fill="none" id="JobApplication-to-Status" style="stroke:#181818;stroke-width:0.6;"/><polygon fill="#181818" points="908.964,494.8522,914.2808,492.2731,910.8988,492.5595,910.6124,489.1775,908.964,494.8522" style="stroke:#181818;stroke-width:0.6;"/><text fill="#000000" font-family="sans-serif" font-size="7.8" lengthAdjust="spacing" textLength="12.6" x="941.4" y="463.5252">has</text><text fill="#000000" font-family="sans-serif" font-size="7.8" lengthAdjust="spacing" textLength="4.2" x="960.8196" y="437.309">1</text><text fill="#000000" font-family="sans-serif" font-size="7.8" lengthAdjust="spacing" textLength="4.2" x="907.4147" y="488.3164">1</text></g><!--SRC=[bLPBRjim4Dtp58Gs1GB8QOfsOnG131jf7I29aHHT5DdG5EsmbIc1f58OQawK8tJdavMaA7uaELQr4MSqypW_Fl7TavIbc9wVbpbYijhb4rpipd6EX4WpYhOSxG0e4Vw5jWGcryKQtfM4KRQ5i-sMaosI9Aa1WEenJZ0vl18cgTmV_ZwoUu9vHULEQLQym4I81281- -hQ8EZdAn9B9Wb_fkJtwWa9OhwyD5iCxM6C3AnPUQHIYxTeHvn6ICJbGeNiD8HbNdxfvF6Cyeh0OlsJOEbsqe32RsT4Mm3b3uOYVC2Sc9hvK6ELzUy541PILBdq_e5SWxTTPmpbUq65TuuqFlR8dnU5oTaZmKUcsc-xRt2yM8DXb6u5hukjzNYGI5R2miHAM0-tl0isBvZa2Cjl-xB9ArJKurfwKsIDhrxKOvDONrKCIrgmjWojF181tbQxDU5tc-y88uQf7QY-UYJUWWZCQUaY2kHmDD-2c6KPRu-dNL_ue_GWrRXA9yxLG0JVmWCrBohL1F_r1osnAkseD0wlDDFJjg64sqBVamtXX67ILjef1iO-dlkOHOn_hFAbqTNn9BVAgorb4R_5U_JFXk86uzJmWbcsyVrNnethqkaStd8n2g_nTmT2Y_umZFAzGPJDjOacDWTYDADGhX6_eZbntbOUvTiTOxsprhNEB_6VQ5QMESL8cnzfrf5UnRxjP0KgDnblXXjGMBCSoLlTfY-pPZWN8pdhy8fHZgjSPPjf-Gj7biJCgZvzrdsckZVDcOzrJIYSg4teCz6Q5P9FHhbHWcPQbS98rdVp6CwYENEQTM5oaS3FQQhV_ey2fv0od5SP4I0WsDF6FGuzxHBCtMdZbXnF6eP_enPMluQj0R2qaxoVJ3uuQ7Yq8grM6QNffJLrxAYDso7Bu7eFZhbqVht17lrBcWdeJ6NnSJBvb3Jt7pWjrPqA5fjZzkcbUVdBql4yODeO3o1DWqB5ToVbzEUoWGV1hIXKnxGVVebkGk47smqRb4cWfS4m_fwLfRk-ZIswVhMqDcpK5i7IVg-HqPREq0pP5AhO8GAcsI73kNuFu7M8r0DF9cT9bnP0Huu2rZ5qEggcE4tEkcGzLSIYvbH0MNItDrZg12WuGsQTOUb4QhDoiwlI1-0V]--></g></svg>