<?xml version="1.0" encoding="us-ascii" standalone="no"?><svg xmlns="http://www.w3.org/2000/svg" xmlns:xlink="http://www.w3.org/1999/xlink" contentStyleType="text/css" height="405.6px" preserveAspectRatio="none" style="width:836px;height:405px;background:#FFFFFF;" version="1.1" viewBox="0 0 836 405" width="836.4px" zoomAndPan="magnify"><defs/><g><!--cluster Job Opening Aggregate--><g id="cluster_Job Opening Aggregate"><path d="M5.1,3.6 L105.9,3.6 A2.25,2.25 0 0 1 107.4,5.1 L111.6,16.5844 L830.7,16.5844 A1.5,1.5 0 0 1 832.2,18.0844 L832.2,399.9 A1.5,1.5 0 0 1 830.7,401.4 L5.1,401.4 A1.5,1.5 0 0 1 3.6,399.9 L3.6,5.1 A1.5,1.5 0 0 1 5.1,3.6 " fill="none" style="stroke:#000000;stroke-width:0.8999999999999999;"/><line style="stroke:#000000;stroke-width:0.8999999999999999;" x1="3.6" x2="111.6" y1="16.5844" y2="16.5844"/><text fill="#000000" font-family="sans-serif" font-size="8.4" font-weight="bold" lengthAdjust="spacing" textLength="100.2" x="6" y="12.4043">Job Opening Aggregate</text></g><!--class RecruitmentProcess--><g id="elem_RecruitmentProcess"><rect codeLine="5" fill="#F1F1F1" height="43.7531" id="RecruitmentProcess" rx="1.5" ry="1.5" style="stroke:#181818;stroke-width:0.3;" width="95.4" x="110.7" y="240"/><ellipse cx="119.7" cy="252.3844" fill="#ADD1B2" rx="6.6" ry="6.6" style="stroke:#181818;stroke-width:0.6;"/><path d="M121.3594,249.9094 Q121.4531,249.7781 121.5656,249.7125 Q121.6781,249.6469 121.8094,249.6469 Q122.0344,249.6469 122.175,249.8062 Q122.3156,249.9562 122.3156,250.3219 L122.3156,251.1938 Q122.3156,251.5594 122.175,251.7188 Q122.0344,251.8781 121.8094,251.8781 Q121.6031,251.8781 121.4812,251.7563 Q121.3594,251.6437 121.2937,251.3344 Q121.2656,251.1187 121.1531,251.0063 Q120.9563,250.7813 120.5906,250.65 Q120.225,250.5187 119.85,250.5187 Q119.3906,250.5187 119.0063,250.7156 Q118.6313,250.9125 118.3313,251.3625 Q118.0406,251.8125 118.0406,252.4312 L118.0406,253.0875 Q118.0406,253.8281 118.575,254.325 Q119.1094,254.8125 120.0656,254.8125 Q120.6281,254.8125 121.0219,254.6625 Q121.2563,254.5688 121.5094,254.3062 Q121.6687,254.1469 121.7531,254.1 Q121.8469,254.0531 121.9688,254.0531 Q122.1656,254.0531 122.3156,254.2125 Q122.475,254.3625 122.475,254.5688 Q122.475,254.775 122.2688,255.0187 Q121.9688,255.3656 121.4906,255.5625 Q120.8438,255.8344 120.0656,255.8344 Q119.1563,255.8344 118.4344,255.4594 Q117.8438,255.1594 117.4312,254.5219 Q117.0188,253.875 117.0188,253.1063 L117.0188,252.4125 Q117.0188,251.6156 117.3844,250.9312 Q117.7594,250.2375 118.4156,249.8719 Q119.0719,249.4969 119.8125,249.4969 Q120.2531,249.4969 120.6375,249.6 Q121.0313,249.6938 121.3594,249.9094 Z " fill="#000000"/><text fill="#000000" font-family="sans-serif" font-size="8.4" lengthAdjust="spacing" textLength="30" x="151.2" y="250.6043">&#171;entity&#187;</text><text fill="#000000" font-family="sans-serif" font-size="8.4" lengthAdjust="spacing" textLength="76.2" x="128.1" y="259.9887">RecruitmentProcess</text><line style="stroke:#181818;stroke-width:0.3;" x1="111.3" x2="205.5" y1="264.7688" y2="264.7688"/><text fill="#000000" font-family="sans-serif" font-size="8.4" lengthAdjust="spacing" textLength="71.4" x="114.3" y="274.773">HasInterviewPhase</text><line style="stroke:#181818;stroke-width:0.3;" x1="111.3" x2="205.5" y1="278.9531" y2="278.9531"/></g><!--class Phase--><g id="elem_Phase"><rect codeLine="9" fill="#F1F1F1" height="62.5219" id="Phase" rx="1.5" ry="1.5" style="stroke:#181818;stroke-width:0.3;" width="52.2" x="568.5" y="329.4"/><ellipse cx="578.85" cy="341.7844" fill="#ADD1B2" rx="6.6" ry="6.6" style="stroke:#181818;stroke-width:0.6;"/><path d="M580.5094,339.3094 Q580.6031,339.1781 580.7156,339.1125 Q580.8281,339.0469 580.9594,339.0469 Q581.1844,339.0469 581.325,339.2063 Q581.4656,339.3563 581.4656,339.7219 L581.4656,340.5938 Q581.4656,340.9594 581.325,341.1188 Q581.1844,341.2781 580.9594,341.2781 Q580.7531,341.2781 580.6313,341.1563 Q580.5094,341.0438 580.4438,340.7344 Q580.4156,340.5188 580.3031,340.4063 Q580.1062,340.1813 579.7406,340.05 Q579.375,339.9188 579,339.9188 Q578.5406,339.9188 578.1563,340.1156 Q577.7813,340.3125 577.4812,340.7625 Q577.1906,341.2125 577.1906,341.8313 L577.1906,342.4875 Q577.1906,343.2281 577.725,343.725 Q578.2594,344.2125 579.2156,344.2125 Q579.7781,344.2125 580.1719,344.0625 Q580.4063,343.9688 580.6594,343.7063 Q580.8188,343.5469 580.9031,343.5 Q580.9969,343.4531 581.1188,343.4531 Q581.3156,343.4531 581.4656,343.6125 Q581.625,343.7625 581.625,343.9688 Q581.625,344.175 581.4187,344.4188 Q581.1188,344.7656 580.6406,344.9625 Q579.9938,345.2344 579.2156,345.2344 Q578.3063,345.2344 577.5844,344.8594 Q576.9938,344.5594 576.5813,343.9219 Q576.1687,343.275 576.1687,342.5062 L576.1687,341.8125 Q576.1687,341.0156 576.5344,340.3313 Q576.9094,339.6375 577.5656,339.2719 Q578.2219,338.8969 578.9625,338.8969 Q579.4031,338.8969 579.7875,339 Q580.1813,339.0938 580.5094,339.3094 Z " fill="#000000"/><text fill="#000000" font-family="sans-serif" font-size="8.4" lengthAdjust="spacing" textLength="30" x="587.55" y="340.0043">&#171;entity&#187;</text><text fill="#000000" font-family="sans-serif" font-size="8.4" lengthAdjust="spacing" textLength="24" x="590.55" y="349.3887">Phase</text><line style="stroke:#181818;stroke-width:0.3;" x1="569.1" x2="620.1" y1="354.1688" y2="354.1688"/><text fill="#000000" font-family="sans-serif" font-size="8.4" lengthAdjust="spacing" textLength="45" x="572.1" y="364.173">phaseName</text><text fill="#000000" font-family="sans-serif" font-size="8.4" lengthAdjust="spacing" textLength="34.8" x="572.1" y="373.5574">startDate</text><text fill="#000000" font-family="sans-serif" font-size="8.4" lengthAdjust="spacing" textLength="32.4" x="572.1" y="382.9418">endDate</text><line style="stroke:#181818;stroke-width:0.3;" x1="569.1" x2="620.1" y1="387.1219" y2="387.1219"/></g><!--class PhaseNames--><g id="elem_PhaseNames"><rect codeLine="15" fill="#F1F1F1" height="34.3688" id="PhaseNames" rx="1.5" ry="1.5" style="stroke:#181818;stroke-width:0.3;" width="74.4" x="256.8" y="244.8"/><ellipse cx="265.8" cy="257.1844" fill="#ADD1B2" rx="6.6" ry="6.6" style="stroke:#181818;stroke-width:0.6;"/><path d="M267.4594,254.7094 Q267.5531,254.5781 267.6656,254.5125 Q267.7781,254.4469 267.9094,254.4469 Q268.1344,254.4469 268.275,254.6063 Q268.4156,254.7563 268.4156,255.1219 L268.4156,255.9937 Q268.4156,256.3594 268.275,256.5188 Q268.1344,256.6781 267.9094,256.6781 Q267.7031,256.6781 267.5813,256.5563 Q267.4594,256.4437 267.3938,256.1344 Q267.3656,255.9188 267.2531,255.8062 Q267.0563,255.5812 266.6906,255.45 Q266.325,255.3188 265.95,255.3188 Q265.4906,255.3188 265.1063,255.5156 Q264.7313,255.7125 264.4313,256.1625 Q264.1406,256.6125 264.1406,257.2313 L264.1406,257.8875 Q264.1406,258.6281 264.675,259.125 Q265.2094,259.6125 266.1656,259.6125 Q266.7281,259.6125 267.1219,259.4625 Q267.3563,259.3688 267.6094,259.1063 Q267.7688,258.9469 267.8531,258.9 Q267.9469,258.8531 268.0687,258.8531 Q268.2656,258.8531 268.4156,259.0125 Q268.575,259.1625 268.575,259.3688 Q268.575,259.575 268.3688,259.8187 Q268.0687,260.1656 267.5906,260.3625 Q266.9437,260.6344 266.1656,260.6344 Q265.2562,260.6344 264.5344,260.2594 Q263.9437,259.9594 263.5313,259.3219 Q263.1188,258.675 263.1188,257.9063 L263.1188,257.2125 Q263.1188,256.4156 263.4844,255.7313 Q263.8594,255.0375 264.5156,254.6719 Q265.1719,254.2969 265.9125,254.2969 Q266.3531,254.2969 266.7375,254.4 Q267.1312,254.4937 267.4594,254.7094 Z " fill="#000000"/><text fill="#000000" font-family="sans-serif" font-size="8.4" lengthAdjust="spacing" textLength="55.2" x="274.2" y="255.4043">&#171;value object&#187;</text><text fill="#000000" font-family="sans-serif" font-size="8.4" lengthAdjust="spacing" textLength="49.8" x="276.9" y="264.7887">PhaseNames</text><line style="stroke:#181818;stroke-width:0.3;" x1="257.4" x2="330.6" y1="269.5687" y2="269.5687"/><line style="stroke:#181818;stroke-width:0.3;" x1="257.4" x2="330.6" y1="274.3688" y2="274.3688"/></g><!--class ScreeningPhase--><g id="elem_ScreeningPhase"><rect codeLine="20" fill="#F1F1F1" height="34.3688" id="ScreeningPhase" rx="1.5" ry="1.5" style="stroke:#181818;stroke-width:0.3;" width="81.6" x="741" y="244.8"/><ellipse cx="750" cy="257.1844" fill="#ADD1B2" rx="6.6" ry="6.6" style="stroke:#181818;stroke-width:0.6;"/><path d="M751.6594,254.7094 Q751.7531,254.5781 751.8656,254.5125 Q751.9781,254.4469 752.1094,254.4469 Q752.3344,254.4469 752.475,254.6063 Q752.6156,254.7563 752.6156,255.1219 L752.6156,255.9937 Q752.6156,256.3594 752.475,256.5188 Q752.3344,256.6781 752.1094,256.6781 Q751.9031,256.6781 751.7813,256.5563 Q751.6594,256.4437 751.5938,256.1344 Q751.5656,255.9188 751.4531,255.8062 Q751.2563,255.5812 750.8906,255.45 Q750.525,255.3188 750.15,255.3188 Q749.6906,255.3188 749.3063,255.5156 Q748.9313,255.7125 748.6313,256.1625 Q748.3406,256.6125 748.3406,257.2313 L748.3406,257.8875 Q748.3406,258.6281 748.875,259.125 Q749.4094,259.6125 750.3656,259.6125 Q750.9281,259.6125 751.3219,259.4625 Q751.5563,259.3688 751.8094,259.1063 Q751.9688,258.9469 752.0531,258.9 Q752.1469,258.8531 752.2688,258.8531 Q752.4656,258.8531 752.6156,259.0125 Q752.775,259.1625 752.775,259.3688 Q752.775,259.575 752.5688,259.8187 Q752.2688,260.1656 751.7906,260.3625 Q751.1438,260.6344 750.3656,260.6344 Q749.4563,260.6344 748.7344,260.2594 Q748.1438,259.9594 747.7312,259.3219 Q747.3188,258.675 747.3188,257.9063 L747.3188,257.2125 Q747.3188,256.4156 747.6844,255.7313 Q748.0594,255.0375 748.7156,254.6719 Q749.3719,254.2969 750.1125,254.2969 Q750.5531,254.2969 750.9375,254.4 Q751.3313,254.4937 751.6594,254.7094 Z " fill="#000000"/><text fill="#000000" font-family="sans-serif" font-size="8.4" lengthAdjust="spacing" textLength="30" x="774.6" y="255.4043">&#171;entity&#187;</text><text fill="#000000" font-family="sans-serif" font-size="8.4" lengthAdjust="spacing" textLength="62.4" x="758.4" y="264.7887">ScreeningPhase</text><line style="stroke:#181818;stroke-width:0.3;" x1="741.6" x2="822" y1="269.5687" y2="269.5687"/><line style="stroke:#181818;stroke-width:0.3;" x1="741.6" x2="822" y1="274.3688" y2="274.3688"/></g><!--class ResultPhase--><g id="elem_ResultPhase"><rect codeLine="24" fill="#F1F1F1" height="34.3688" id="ResultPhase" rx="1.5" ry="1.5" style="stroke:#181818;stroke-width:0.3;" width="67.2" x="652.8" y="244.8"/><ellipse cx="661.8" cy="257.1844" fill="#ADD1B2" rx="6.6" ry="6.6" style="stroke:#181818;stroke-width:0.6;"/><path d="M663.4594,254.7094 Q663.5531,254.5781 663.6656,254.5125 Q663.7781,254.4469 663.9094,254.4469 Q664.1344,254.4469 664.275,254.6063 Q664.4156,254.7563 664.4156,255.1219 L664.4156,255.9937 Q664.4156,256.3594 664.275,256.5188 Q664.1344,256.6781 663.9094,256.6781 Q663.7031,256.6781 663.5813,256.5563 Q663.4594,256.4437 663.3938,256.1344 Q663.3656,255.9188 663.2531,255.8062 Q663.0563,255.5812 662.6906,255.45 Q662.325,255.3188 661.95,255.3188 Q661.4906,255.3188 661.1062,255.5156 Q660.7312,255.7125 660.4313,256.1625 Q660.1406,256.6125 660.1406,257.2313 L660.1406,257.8875 Q660.1406,258.6281 660.675,259.125 Q661.2094,259.6125 662.1656,259.6125 Q662.7281,259.6125 663.1219,259.4625 Q663.3562,259.3688 663.6094,259.1063 Q663.7688,258.9469 663.8531,258.9 Q663.9469,258.8531 664.0688,258.8531 Q664.2656,258.8531 664.4156,259.0125 Q664.575,259.1625 664.575,259.3688 Q664.575,259.575 664.3688,259.8187 Q664.0688,260.1656 663.5906,260.3625 Q662.9438,260.6344 662.1656,260.6344 Q661.2563,260.6344 660.5344,260.2594 Q659.9438,259.9594 659.5313,259.3219 Q659.1188,258.675 659.1188,257.9063 L659.1188,257.2125 Q659.1188,256.4156 659.4844,255.7313 Q659.8594,255.0375 660.5156,254.6719 Q661.1719,254.2969 661.9125,254.2969 Q662.3531,254.2969 662.7375,254.4 Q663.1313,254.4937 663.4594,254.7094 Z " fill="#000000"/><text fill="#000000" font-family="sans-serif" font-size="8.4" lengthAdjust="spacing" textLength="30" x="679.2" y="255.4043">&#171;entity&#187;</text><text fill="#000000" font-family="sans-serif" font-size="8.4" lengthAdjust="spacing" textLength="48" x="670.2" y="264.7887">ResultPhase</text><line style="stroke:#181818;stroke-width:0.3;" x1="653.4" x2="719.4" y1="269.5687" y2="269.5687"/><line style="stroke:#181818;stroke-width:0.3;" x1="653.4" x2="719.4" y1="274.3688" y2="274.3688"/></g><!--class AnalysisPhase--><g id="elem_AnalysisPhase"><rect codeLine="27" fill="#F1F1F1" height="34.3688" id="AnalysisPhase" rx="1.5" ry="1.5" style="stroke:#181818;stroke-width:0.3;" width="74.4" x="557.4" y="244.8"/><ellipse cx="566.4" cy="257.1844" fill="#ADD1B2" rx="6.6" ry="6.6" style="stroke:#181818;stroke-width:0.6;"/><path d="M568.0594,254.7094 Q568.1531,254.5781 568.2656,254.5125 Q568.3781,254.4469 568.5094,254.4469 Q568.7344,254.4469 568.875,254.6063 Q569.0156,254.7563 569.0156,255.1219 L569.0156,255.9937 Q569.0156,256.3594 568.875,256.5188 Q568.7344,256.6781 568.5094,256.6781 Q568.3031,256.6781 568.1813,256.5563 Q568.0594,256.4437 567.9938,256.1344 Q567.9656,255.9188 567.8531,255.8062 Q567.6563,255.5812 567.2906,255.45 Q566.925,255.3188 566.55,255.3188 Q566.0906,255.3188 565.7063,255.5156 Q565.3313,255.7125 565.0313,256.1625 Q564.7406,256.6125 564.7406,257.2313 L564.7406,257.8875 Q564.7406,258.6281 565.275,259.125 Q565.8094,259.6125 566.7656,259.6125 Q567.3281,259.6125 567.7219,259.4625 Q567.9563,259.3688 568.2094,259.1063 Q568.3688,258.9469 568.4531,258.9 Q568.5469,258.8531 568.6687,258.8531 Q568.8656,258.8531 569.0156,259.0125 Q569.175,259.1625 569.175,259.3688 Q569.175,259.575 568.9688,259.8187 Q568.6687,260.1656 568.1906,260.3625 Q567.5437,260.6344 566.7656,260.6344 Q565.8562,260.6344 565.1344,260.2594 Q564.5437,259.9594 564.1313,259.3219 Q563.7188,258.675 563.7188,257.9063 L563.7188,257.2125 Q563.7188,256.4156 564.0844,255.7313 Q564.4594,255.0375 565.1156,254.6719 Q565.7719,254.2969 566.5125,254.2969 Q566.9531,254.2969 567.3375,254.4 Q567.7312,254.4937 568.0594,254.7094 Z " fill="#000000"/><text fill="#000000" font-family="sans-serif" font-size="8.4" lengthAdjust="spacing" textLength="30" x="587.4" y="255.4043">&#171;entity&#187;</text><text fill="#000000" font-family="sans-serif" font-size="8.4" lengthAdjust="spacing" textLength="55.2" x="574.8" y="264.7887">AnalysisPhase</text><line style="stroke:#181818;stroke-width:0.3;" x1="558" x2="631.2" y1="269.5687" y2="269.5687"/><line style="stroke:#181818;stroke-width:0.3;" x1="558" x2="631.2" y1="274.3688" y2="274.3688"/></g><!--class JobOpening--><g id="elem_JobOpening"><rect codeLine="31" fill="#F1F1F1" height="43.7531" id="JobOpening" rx="1.5" ry="1.5" style="stroke:#181818;stroke-width:0.3;" width="64.8" x="364.2" y="150.6"/><ellipse cx="373.2" cy="167.6766" fill="#ADD1B2" rx="6.6" ry="6.6" style="stroke:#181818;stroke-width:0.6;"/><path d="M374.8594,165.2016 Q374.9531,165.0703 375.0656,165.0047 Q375.1781,164.9391 375.3094,164.9391 Q375.5344,164.9391 375.675,165.0984 Q375.8156,165.2484 375.8156,165.6141 L375.8156,166.4859 Q375.8156,166.8516 375.675,167.0109 Q375.5344,167.1703 375.3094,167.1703 Q375.1031,167.1703 374.9813,167.0484 Q374.8594,166.9359 374.7938,166.6266 Q374.7656,166.4109 374.6531,166.2984 Q374.4563,166.0734 374.0906,165.9422 Q373.725,165.8109 373.35,165.8109 Q372.8906,165.8109 372.5062,166.0078 Q372.1312,166.2047 371.8313,166.6547 Q371.5406,167.1047 371.5406,167.7234 L371.5406,168.3797 Q371.5406,169.1203 372.075,169.6172 Q372.6094,170.1047 373.5656,170.1047 Q374.1281,170.1047 374.5219,169.9547 Q374.7562,169.8609 375.0094,169.5984 Q375.1688,169.4391 375.2531,169.3922 Q375.3469,169.3453 375.4688,169.3453 Q375.6656,169.3453 375.8156,169.5047 Q375.975,169.6547 375.975,169.8609 Q375.975,170.0672 375.7688,170.3109 Q375.4688,170.6578 374.9906,170.8547 Q374.3438,171.1266 373.5656,171.1266 Q372.6563,171.1266 371.9344,170.7516 Q371.3438,170.4516 370.9313,169.8141 Q370.5188,169.1672 370.5188,168.3984 L370.5188,167.7047 Q370.5188,166.9078 370.8844,166.2234 Q371.2594,165.5297 371.9156,165.1641 Q372.5719,164.7891 373.3125,164.7891 Q373.7531,164.7891 374.1375,164.8922 Q374.5313,164.9859 374.8594,165.2016 Z " fill="#000000"/><text fill="#000000" font-family="sans-serif" font-size="8.4" lengthAdjust="spacing" textLength="24.6" x="392.1" y="161.2043">&#171;root&#187;</text><text fill="#000000" font-family="sans-serif" font-size="8.4" lengthAdjust="spacing" textLength="30" x="388.2" y="170.5887">&#171;entity&#187;</text><text fill="#000000" font-family="sans-serif" font-size="8.4" lengthAdjust="spacing" textLength="45.6" x="381.6" y="179.973">JobOpening</text><line style="stroke:#181818;stroke-width:0.3;" x1="364.8" x2="428.4" y1="184.7531" y2="184.7531"/><line style="stroke:#181818;stroke-width:0.3;" x1="364.8" x2="428.4" y1="189.5531" y2="189.5531"/></g><!--class JogOpeningStatus--><g id="elem_JogOpeningStatus"><rect codeLine="36" fill="#F1F1F1" height="34.3688" id="JogOpeningStatus" rx="1.5" ry="1.5" style="stroke:#181818;stroke-width:0.3;" width="88.8" x="352.2" y="244.8"/><ellipse cx="361.2" cy="257.1844" fill="#ADD1B2" rx="6.6" ry="6.6" style="stroke:#181818;stroke-width:0.6;"/><path d="M362.8594,254.7094 Q362.9531,254.5781 363.0656,254.5125 Q363.1781,254.4469 363.3094,254.4469 Q363.5344,254.4469 363.675,254.6063 Q363.8156,254.7563 363.8156,255.1219 L363.8156,255.9937 Q363.8156,256.3594 363.675,256.5188 Q363.5344,256.6781 363.3094,256.6781 Q363.1031,256.6781 362.9813,256.5563 Q362.8594,256.4437 362.7938,256.1344 Q362.7656,255.9188 362.6531,255.8062 Q362.4563,255.5812 362.0906,255.45 Q361.725,255.3188 361.35,255.3188 Q360.8906,255.3188 360.5062,255.5156 Q360.1312,255.7125 359.8313,256.1625 Q359.5406,256.6125 359.5406,257.2313 L359.5406,257.8875 Q359.5406,258.6281 360.075,259.125 Q360.6094,259.6125 361.5656,259.6125 Q362.1281,259.6125 362.5219,259.4625 Q362.7562,259.3688 363.0094,259.1063 Q363.1688,258.9469 363.2531,258.9 Q363.3469,258.8531 363.4688,258.8531 Q363.6656,258.8531 363.8156,259.0125 Q363.975,259.1625 363.975,259.3688 Q363.975,259.575 363.7688,259.8187 Q363.4688,260.1656 362.9906,260.3625 Q362.3438,260.6344 361.5656,260.6344 Q360.6563,260.6344 359.9344,260.2594 Q359.3438,259.9594 358.9313,259.3219 Q358.5188,258.675 358.5188,257.9063 L358.5188,257.2125 Q358.5188,256.4156 358.8844,255.7313 Q359.2594,255.0375 359.9156,254.6719 Q360.5719,254.2969 361.3125,254.2969 Q361.7531,254.2969 362.1375,254.4 Q362.5313,254.4937 362.8594,254.7094 Z " fill="#000000"/><text fill="#000000" font-family="sans-serif" font-size="8.4" lengthAdjust="spacing" textLength="55.2" x="376.8" y="255.4043">&#171;value object&#187;</text><text fill="#000000" font-family="sans-serif" font-size="8.4" lengthAdjust="spacing" textLength="69.6" x="369.6" y="264.7887">JogOpeningStatus</text><line style="stroke:#181818;stroke-width:0.3;" x1="352.8" x2="440.4" y1="269.5687" y2="269.5687"/><line style="stroke:#181818;stroke-width:0.3;" x1="352.8" x2="440.4" y1="274.3688" y2="274.3688"/></g><!--class ContractType--><g id="elem_ContractType"><rect codeLine="39" fill="#F1F1F1" height="34.3688" id="ContractType" rx="1.5" ry="1.5" style="stroke:#181818;stroke-width:0.3;" width="74.4" x="604.8" y="47.4"/><ellipse cx="613.8" cy="59.7844" fill="#ADD1B2" rx="6.6" ry="6.6" style="stroke:#181818;stroke-width:0.6;"/><path d="M615.4594,57.3094 Q615.5531,57.1781 615.6656,57.1125 Q615.7781,57.0469 615.9094,57.0469 Q616.1344,57.0469 616.275,57.2063 Q616.4156,57.3562 616.4156,57.7219 L616.4156,58.5938 Q616.4156,58.9594 616.275,59.1188 Q616.1344,59.2781 615.9094,59.2781 Q615.7031,59.2781 615.5813,59.1563 Q615.4594,59.0437 615.3938,58.7344 Q615.3656,58.5188 615.2531,58.4063 Q615.0563,58.1813 614.6906,58.05 Q614.325,57.9187 613.95,57.9187 Q613.4906,57.9187 613.1062,58.1156 Q612.7312,58.3125 612.4313,58.7625 Q612.1406,59.2125 612.1406,59.8313 L612.1406,60.4875 Q612.1406,61.2281 612.675,61.725 Q613.2094,62.2125 614.1656,62.2125 Q614.7281,62.2125 615.1219,62.0625 Q615.3562,61.9688 615.6094,61.7063 Q615.7688,61.5469 615.8531,61.5 Q615.9469,61.4531 616.0688,61.4531 Q616.2656,61.4531 616.4156,61.6125 Q616.575,61.7625 616.575,61.9688 Q616.575,62.175 616.3688,62.4187 Q616.0688,62.7656 615.5906,62.9625 Q614.9438,63.2344 614.1656,63.2344 Q613.2563,63.2344 612.5344,62.8594 Q611.9438,62.5594 611.5313,61.9219 Q611.1188,61.275 611.1188,60.5062 L611.1188,59.8125 Q611.1188,59.0156 611.4844,58.3313 Q611.8594,57.6375 612.5156,57.2719 Q613.1719,56.8969 613.9125,56.8969 Q614.3531,56.8969 614.7375,57 Q615.1313,57.0938 615.4594,57.3094 Z " fill="#000000"/><text fill="#000000" font-family="sans-serif" font-size="8.4" lengthAdjust="spacing" textLength="55.2" x="622.2" y="58.0043">&#171;value object&#187;</text><text fill="#000000" font-family="sans-serif" font-size="8.4" lengthAdjust="spacing" textLength="51.6" x="624" y="67.3887">ContractType</text><line style="stroke:#181818;stroke-width:0.3;" x1="605.4" x2="678.6" y1="72.1688" y2="72.1688"/><line style="stroke:#181818;stroke-width:0.3;" x1="605.4" x2="678.6" y1="76.9688" y2="76.9688"/></g><!--class Mode--><g id="elem_Mode"><rect codeLine="42" fill="#F1F1F1" height="34.3688" id="Mode" rx="1.5" ry="1.5" style="stroke:#181818;stroke-width:0.3;" width="74.4" x="509.4" y="47.4"/><ellipse cx="518.4" cy="59.7844" fill="#ADD1B2" rx="6.6" ry="6.6" style="stroke:#181818;stroke-width:0.6;"/><path d="M520.0594,57.3094 Q520.1531,57.1781 520.2656,57.1125 Q520.3781,57.0469 520.5094,57.0469 Q520.7344,57.0469 520.875,57.2063 Q521.0156,57.3562 521.0156,57.7219 L521.0156,58.5938 Q521.0156,58.9594 520.875,59.1188 Q520.7344,59.2781 520.5094,59.2781 Q520.3031,59.2781 520.1813,59.1563 Q520.0594,59.0437 519.9938,58.7344 Q519.9656,58.5188 519.8531,58.4063 Q519.6563,58.1813 519.2906,58.05 Q518.925,57.9187 518.55,57.9187 Q518.0906,57.9187 517.7063,58.1156 Q517.3313,58.3125 517.0313,58.7625 Q516.7406,59.2125 516.7406,59.8313 L516.7406,60.4875 Q516.7406,61.2281 517.275,61.725 Q517.8094,62.2125 518.7656,62.2125 Q519.3281,62.2125 519.7219,62.0625 Q519.9563,61.9688 520.2094,61.7063 Q520.3688,61.5469 520.4531,61.5 Q520.5469,61.4531 520.6687,61.4531 Q520.8656,61.4531 521.0156,61.6125 Q521.175,61.7625 521.175,61.9688 Q521.175,62.175 520.9688,62.4187 Q520.6687,62.7656 520.1906,62.9625 Q519.5437,63.2344 518.7656,63.2344 Q517.8562,63.2344 517.1344,62.8594 Q516.5437,62.5594 516.1313,61.9219 Q515.7188,61.275 515.7188,60.5062 L515.7188,59.8125 Q515.7188,59.0156 516.0844,58.3313 Q516.4594,57.6375 517.1156,57.2719 Q517.7719,56.8969 518.5125,56.8969 Q518.9531,56.8969 519.3375,57 Q519.7312,57.0938 520.0594,57.3094 Z " fill="#000000"/><text fill="#000000" font-family="sans-serif" font-size="8.4" lengthAdjust="spacing" textLength="55.2" x="526.8" y="58.0043">&#171;value object&#187;</text><text fill="#000000" font-family="sans-serif" font-size="8.4" lengthAdjust="spacing" textLength="21" x="543.9" y="67.3887">Mode</text><line style="stroke:#181818;stroke-width:0.3;" x1="510" x2="583.2" y1="72.1688" y2="72.1688"/><line style="stroke:#181818;stroke-width:0.3;" x1="510" x2="583.2" y1="76.9688" y2="76.9688"/></g><!--class JobFunction--><g id="elem_JobFunction"><rect codeLine="46" fill="#F1F1F1" height="34.3688" id="JobFunction" rx="1.5" ry="1.5" style="stroke:#181818;stroke-width:0.3;" width="74.4" x="414" y="47.4"/><ellipse cx="423" cy="59.7844" fill="#ADD1B2" rx="6.6" ry="6.6" style="stroke:#181818;stroke-width:0.6;"/><path d="M424.6594,57.3094 Q424.7531,57.1781 424.8656,57.1125 Q424.9781,57.0469 425.1094,57.0469 Q425.3344,57.0469 425.475,57.2063 Q425.6156,57.3562 425.6156,57.7219 L425.6156,58.5938 Q425.6156,58.9594 425.475,59.1188 Q425.3344,59.2781 425.1094,59.2781 Q424.9031,59.2781 424.7813,59.1563 Q424.6594,59.0437 424.5938,58.7344 Q424.5656,58.5188 424.4531,58.4063 Q424.2562,58.1813 423.8906,58.05 Q423.525,57.9187 423.15,57.9187 Q422.6906,57.9187 422.3063,58.1156 Q421.9313,58.3125 421.6312,58.7625 Q421.3406,59.2125 421.3406,59.8313 L421.3406,60.4875 Q421.3406,61.2281 421.875,61.725 Q422.4094,62.2125 423.3656,62.2125 Q423.9281,62.2125 424.3219,62.0625 Q424.5563,61.9688 424.8094,61.7063 Q424.9688,61.5469 425.0531,61.5 Q425.1469,61.4531 425.2688,61.4531 Q425.4656,61.4531 425.6156,61.6125 Q425.775,61.7625 425.775,61.9688 Q425.775,62.175 425.5687,62.4187 Q425.2688,62.7656 424.7906,62.9625 Q424.1438,63.2344 423.3656,63.2344 Q422.4563,63.2344 421.7344,62.8594 Q421.1438,62.5594 420.7313,61.9219 Q420.3187,61.275 420.3187,60.5062 L420.3187,59.8125 Q420.3187,59.0156 420.6844,58.3313 Q421.0594,57.6375 421.7156,57.2719 Q422.3719,56.8969 423.1125,56.8969 Q423.5531,56.8969 423.9375,57 Q424.3313,57.0938 424.6594,57.3094 Z " fill="#000000"/><text fill="#000000" font-family="sans-serif" font-size="8.4" lengthAdjust="spacing" textLength="55.2" x="431.4" y="58.0043">&#171;value object&#187;</text><text fill="#000000" font-family="sans-serif" font-size="8.4" lengthAdjust="spacing" textLength="46.2" x="435.9" y="67.3887">JobFunction</text><line style="stroke:#181818;stroke-width:0.3;" x1="414.6" x2="487.8" y1="72.1688" y2="72.1688"/><line style="stroke:#181818;stroke-width:0.3;" x1="414.6" x2="487.8" y1="76.9688" y2="76.9688"/></g><!--class NumberOfVacancies--><g id="elem_NumberOfVacancies"><rect codeLine="50" fill="#F1F1F1" height="34.3688" id="NumberOfVacancies" rx="1.5" ry="1.5" style="stroke:#181818;stroke-width:0.3;" width="99" x="293.7" y="47.4"/><ellipse cx="302.7" cy="59.7844" fill="#ADD1B2" rx="6.6" ry="6.6" style="stroke:#181818;stroke-width:0.6;"/><path d="M304.3594,57.3094 Q304.4531,57.1781 304.5656,57.1125 Q304.6781,57.0469 304.8094,57.0469 Q305.0344,57.0469 305.175,57.2063 Q305.3156,57.3562 305.3156,57.7219 L305.3156,58.5938 Q305.3156,58.9594 305.175,59.1188 Q305.0344,59.2781 304.8094,59.2781 Q304.6031,59.2781 304.4813,59.1563 Q304.3594,59.0437 304.2938,58.7344 Q304.2656,58.5188 304.1531,58.4063 Q303.9563,58.1813 303.5906,58.05 Q303.225,57.9187 302.85,57.9187 Q302.3906,57.9187 302.0062,58.1156 Q301.6312,58.3125 301.3313,58.7625 Q301.0406,59.2125 301.0406,59.8313 L301.0406,60.4875 Q301.0406,61.2281 301.575,61.725 Q302.1094,62.2125 303.0656,62.2125 Q303.6281,62.2125 304.0219,62.0625 Q304.2562,61.9688 304.5094,61.7063 Q304.6688,61.5469 304.7531,61.5 Q304.8469,61.4531 304.9688,61.4531 Q305.1656,61.4531 305.3156,61.6125 Q305.475,61.7625 305.475,61.9688 Q305.475,62.175 305.2688,62.4187 Q304.9688,62.7656 304.4906,62.9625 Q303.8438,63.2344 303.0656,63.2344 Q302.1563,63.2344 301.4344,62.8594 Q300.8438,62.5594 300.4313,61.9219 Q300.0188,61.275 300.0188,60.5062 L300.0188,59.8125 Q300.0188,59.0156 300.3844,58.3313 Q300.7594,57.6375 301.4156,57.2719 Q302.0719,56.8969 302.8125,56.8969 Q303.2531,56.8969 303.6375,57 Q304.0313,57.0938 304.3594,57.3094 Z " fill="#000000"/><text fill="#000000" font-family="sans-serif" font-size="8.4" lengthAdjust="spacing" textLength="55.2" x="323.4" y="58.0043">&#171;value object&#187;</text><text fill="#000000" font-family="sans-serif" font-size="8.4" lengthAdjust="spacing" textLength="77.4" x="313.5" y="67.3887">NumberOfVacancies</text><line style="stroke:#181818;stroke-width:0.3;" x1="294.3" x2="392.1" y1="72.1688" y2="72.1688"/><line style="stroke:#181818;stroke-width:0.3;" x1="294.3" x2="392.1" y1="76.9688" y2="76.9688"/></g><!--class Description--><g id="elem_Description"><rect codeLine="54" fill="#F1F1F1" height="34.3688" id="Description" rx="1.5" ry="1.5" style="stroke:#181818;stroke-width:0.3;" width="74.4" x="198" y="47.4"/><ellipse cx="207" cy="59.7844" fill="#ADD1B2" rx="6.6" ry="6.6" style="stroke:#181818;stroke-width:0.6;"/><path d="M208.6594,57.3094 Q208.7531,57.1781 208.8656,57.1125 Q208.9781,57.0469 209.1094,57.0469 Q209.3344,57.0469 209.475,57.2063 Q209.6156,57.3562 209.6156,57.7219 L209.6156,58.5938 Q209.6156,58.9594 209.475,59.1188 Q209.3344,59.2781 209.1094,59.2781 Q208.9031,59.2781 208.7813,59.1563 Q208.6594,59.0437 208.5938,58.7344 Q208.5656,58.5188 208.4531,58.4063 Q208.2563,58.1813 207.8906,58.05 Q207.525,57.9187 207.15,57.9187 Q206.6906,57.9187 206.3063,58.1156 Q205.9313,58.3125 205.6313,58.7625 Q205.3406,59.2125 205.3406,59.8313 L205.3406,60.4875 Q205.3406,61.2281 205.875,61.725 Q206.4094,62.2125 207.3656,62.2125 Q207.9281,62.2125 208.3219,62.0625 Q208.5563,61.9688 208.8094,61.7063 Q208.9688,61.5469 209.0531,61.5 Q209.1469,61.4531 209.2687,61.4531 Q209.4656,61.4531 209.6156,61.6125 Q209.775,61.7625 209.775,61.9688 Q209.775,62.175 209.5688,62.4187 Q209.2687,62.7656 208.7906,62.9625 Q208.1437,63.2344 207.3656,63.2344 Q206.4562,63.2344 205.7344,62.8594 Q205.1437,62.5594 204.7313,61.9219 Q204.3188,61.275 204.3188,60.5062 L204.3188,59.8125 Q204.3188,59.0156 204.6844,58.3313 Q205.0594,57.6375 205.7156,57.2719 Q206.3719,56.8969 207.1125,56.8969 Q207.5531,56.8969 207.9375,57 Q208.3312,57.0938 208.6594,57.3094 Z " fill="#000000"/><text fill="#000000" font-family="sans-serif" font-size="8.4" lengthAdjust="spacing" textLength="55.2" x="215.4" y="58.0043">&#171;value object&#187;</text><text fill="#000000" font-family="sans-serif" font-size="8.4" lengthAdjust="spacing" textLength="42.6" x="221.7" y="67.3887">Description</text><line style="stroke:#181818;stroke-width:0.3;" x1="198.6" x2="271.8" y1="72.1688" y2="72.1688"/><line style="stroke:#181818;stroke-width:0.3;" x1="198.6" x2="271.8" y1="76.9688" y2="76.9688"/></g><!--class Address1--><g id="elem_Address1"><rect codeLine="59" fill="#F1F1F1" height="81.2906" id="Address1" rx="1.5" ry="1.5" style="stroke:#181818;stroke-width:0.3;" width="74.4" x="102.6" y="24"/><ellipse cx="111.6" cy="36.3844" fill="#ADD1B2" rx="6.6" ry="6.6" style="stroke:#181818;stroke-width:0.6;"/><path d="M113.2594,33.9094 Q113.3531,33.7781 113.4656,33.7125 Q113.5781,33.6469 113.7094,33.6469 Q113.9344,33.6469 114.075,33.8063 Q114.2156,33.9563 114.2156,34.3219 L114.2156,35.1938 Q114.2156,35.5594 114.075,35.7188 Q113.9344,35.8781 113.7094,35.8781 Q113.5031,35.8781 113.3813,35.7563 Q113.2594,35.6438 113.1938,35.3344 Q113.1656,35.1188 113.0531,35.0063 Q112.8563,34.7813 112.4906,34.65 Q112.125,34.5188 111.75,34.5188 Q111.2906,34.5188 110.9063,34.7156 Q110.5313,34.9125 110.2313,35.3625 Q109.9406,35.8125 109.9406,36.4313 L109.9406,37.0875 Q109.9406,37.8281 110.475,38.325 Q111.0094,38.8125 111.9656,38.8125 Q112.5281,38.8125 112.9219,38.6625 Q113.1563,38.5688 113.4094,38.3063 Q113.5688,38.1469 113.6531,38.1 Q113.7469,38.0531 113.8687,38.0531 Q114.0656,38.0531 114.2156,38.2125 Q114.375,38.3625 114.375,38.5688 Q114.375,38.775 114.1688,39.0188 Q113.8687,39.3656 113.3906,39.5625 Q112.7437,39.8344 111.9656,39.8344 Q111.0562,39.8344 110.3344,39.4594 Q109.7437,39.1594 109.3313,38.5219 Q108.9188,37.875 108.9188,37.1062 L108.9188,36.4125 Q108.9188,35.6156 109.2844,34.9313 Q109.6594,34.2375 110.3156,33.8719 Q110.9719,33.4969 111.7125,33.4969 Q112.1531,33.4969 112.5375,33.6 Q112.9312,33.6938 113.2594,33.9094 Z " fill="#000000"/><text fill="#000000" font-family="sans-serif" font-size="8.4" lengthAdjust="spacing" textLength="55.2" x="120" y="34.6043">&#171;value object&#187;</text><text fill="#000000" font-family="sans-serif" font-size="8.4" lengthAdjust="spacing" textLength="31.2" x="132" y="43.9887">Address</text><line style="stroke:#181818;stroke-width:0.3;" x1="103.2" x2="176.4" y1="48.7688" y2="48.7688"/><text fill="#000000" font-family="sans-serif" font-size="8.4" lengthAdjust="spacing" textLength="22.8" x="106.2" y="58.773">Street</text><text fill="#000000" font-family="sans-serif" font-size="8.4" lengthAdjust="spacing" textLength="14.4" x="106.2" y="68.1574">City</text><text fill="#000000" font-family="sans-serif" font-size="8.4" lengthAdjust="spacing" textLength="19.8" x="106.2" y="77.5418">State</text><text fill="#000000" font-family="sans-serif" font-size="8.4" lengthAdjust="spacing" textLength="30" x="106.2" y="86.9262">Country</text><text fill="#000000" font-family="sans-serif" font-size="8.4" lengthAdjust="spacing" textLength="30" x="106.2" y="96.3105">Zipcode</text><line style="stroke:#181818;stroke-width:0.3;" x1="103.2" x2="176.4" y1="100.4906" y2="100.4906"/></g><!--class JobReference--><g id="elem_JobReference"><rect codeLine="67" fill="#F1F1F1" height="43.7531" id="JobReference" rx="1.5" ry="1.5" style="stroke:#181818;stroke-width:0.3;" width="74.4" x="462" y="240"/><ellipse cx="471" cy="257.0766" fill="#ADD1B2" rx="6.6" ry="6.6" style="stroke:#181818;stroke-width:0.6;"/><path d="M472.6594,254.6016 Q472.7531,254.4703 472.8656,254.4047 Q472.9781,254.3391 473.1094,254.3391 Q473.3344,254.3391 473.475,254.4984 Q473.6156,254.6484 473.6156,255.0141 L473.6156,255.8859 Q473.6156,256.2516 473.475,256.4109 Q473.3344,256.5703 473.1094,256.5703 Q472.9031,256.5703 472.7813,256.4484 Q472.6594,256.3359 472.5938,256.0266 Q472.5656,255.8109 472.4531,255.6984 Q472.2562,255.4734 471.8906,255.3422 Q471.525,255.2109 471.15,255.2109 Q470.6906,255.2109 470.3063,255.4078 Q469.9313,255.6047 469.6312,256.0547 Q469.3406,256.5047 469.3406,257.1234 L469.3406,257.7797 Q469.3406,258.5203 469.875,259.0172 Q470.4094,259.5047 471.3656,259.5047 Q471.9281,259.5047 472.3219,259.3547 Q472.5563,259.2609 472.8094,258.9984 Q472.9688,258.8391 473.0531,258.7922 Q473.1469,258.7453 473.2687,258.7453 Q473.4656,258.7453 473.6156,258.9047 Q473.775,259.0547 473.775,259.2609 Q473.775,259.4672 473.5687,259.7109 Q473.2687,260.0578 472.7906,260.2547 Q472.1437,260.5266 471.3656,260.5266 Q470.4562,260.5266 469.7344,260.1516 Q469.1437,259.8516 468.7313,259.2141 Q468.3187,258.5672 468.3187,257.7984 L468.3187,257.1047 Q468.3187,256.3078 468.6844,255.6234 Q469.0594,254.9297 469.7156,254.5641 Q470.3719,254.1891 471.1125,254.1891 Q471.5531,254.1891 471.9375,254.2922 Q472.3312,254.3859 472.6594,254.6016 Z " fill="#000000"/><text fill="#000000" font-family="sans-serif" font-size="8.4" lengthAdjust="spacing" textLength="55.2" x="479.4" y="250.6043">&#171;value object&#187;</text><text fill="#000000" font-family="sans-serif" font-size="8.4" lengthAdjust="spacing" textLength="42" x="486" y="259.9887">&#171;identifier&#187;</text><text fill="#000000" font-family="sans-serif" font-size="8.4" lengthAdjust="spacing" textLength="52.8" x="480.6" y="269.373">JobReference</text><line style="stroke:#181818;stroke-width:0.3;" x1="462.6" x2="535.8" y1="274.1531" y2="274.1531"/><line style="stroke:#181818;stroke-width:0.3;" x1="462.6" x2="535.8" y1="278.9531" y2="278.9531"/></g><!--class InterviewPhase--><g id="elem_InterviewPhase"><rect codeLine="70" fill="#F1F1F1" height="34.3688" id="InterviewPhase" rx="1.5" ry="1.5" style="stroke:#181818;stroke-width:0.3;" width="76.2" x="13.5" y="244.8"/><ellipse cx="22.5" cy="257.1844" fill="#ADD1B2" rx="6.6" ry="6.6" style="stroke:#181818;stroke-width:0.6;"/><path d="M24.1594,254.7094 Q24.2531,254.5781 24.3656,254.5125 Q24.4781,254.4469 24.6094,254.4469 Q24.8344,254.4469 24.975,254.6063 Q25.1156,254.7563 25.1156,255.1219 L25.1156,255.9937 Q25.1156,256.3594 24.975,256.5188 Q24.8344,256.6781 24.6094,256.6781 Q24.4031,256.6781 24.2813,256.5563 Q24.1594,256.4437 24.0938,256.1344 Q24.0656,255.9188 23.9531,255.8062 Q23.7562,255.5812 23.3906,255.45 Q23.025,255.3188 22.65,255.3188 Q22.1906,255.3188 21.8063,255.5156 Q21.4313,255.7125 21.1312,256.1625 Q20.8406,256.6125 20.8406,257.2313 L20.8406,257.8875 Q20.8406,258.6281 21.375,259.125 Q21.9094,259.6125 22.8656,259.6125 Q23.4281,259.6125 23.8219,259.4625 Q24.0563,259.3688 24.3094,259.1063 Q24.4688,258.9469 24.5531,258.9 Q24.6469,258.8531 24.7688,258.8531 Q24.9656,258.8531 25.1156,259.0125 Q25.275,259.1625 25.275,259.3688 Q25.275,259.575 25.0687,259.8187 Q24.7688,260.1656 24.2906,260.3625 Q23.6438,260.6344 22.8656,260.6344 Q21.9563,260.6344 21.2344,260.2594 Q20.6438,259.9594 20.2313,259.3219 Q19.8187,258.675 19.8187,257.9063 L19.8187,257.2125 Q19.8187,256.4156 20.1844,255.7313 Q20.5594,255.0375 21.2156,254.6719 Q21.8719,254.2969 22.6125,254.2969 Q23.0531,254.2969 23.4375,254.4 Q23.8313,254.4937 24.1594,254.7094 Z " fill="#000000"/><text fill="#000000" font-family="sans-serif" font-size="8.4" lengthAdjust="spacing" textLength="30" x="44.4" y="255.4043">&#171;entity&#187;</text><text fill="#000000" font-family="sans-serif" font-size="8.4" lengthAdjust="spacing" textLength="57" x="30.9" y="264.7887">InterviewPhase</text><line style="stroke:#181818;stroke-width:0.3;" x1="14.1" x2="89.1" y1="269.5687" y2="269.5687"/><line style="stroke:#181818;stroke-width:0.3;" x1="14.1" x2="89.1" y1="274.3688" y2="274.3688"/></g><!--reverse link Mode to JobOpening--><g id="link_Mode_JobOpening"><path codeLine="77" d="M525.1598,84.1072 C516.6098,91.4812 508.956,97.752 499.2,105 C476.496,121.86 449.688,139.26 429.168,152.088 " fill="none" id="Mode-backto-JobOpening" style="stroke:#181818;stroke-width:0.6;"/><polygon fill="#181818" points="527.886,81.756,522.2293,83.4653,525.6142,83.7153,525.3642,87.1002,527.886,81.756" style="stroke:#181818;stroke-width:0.6;"/><text fill="#000000" font-family="sans-serif" font-size="7.8" lengthAdjust="spacing" textLength="28.8" x="472.2" y="130.6611">includes</text><text fill="#000000" font-family="sans-serif" font-size="7.8" lengthAdjust="spacing" textLength="4.2" x="519.1329" y="93.5265">1</text><text fill="#000000" font-family="sans-serif" font-size="7.8" lengthAdjust="spacing" textLength="4.2" x="433.8265" y="147.4661">1</text></g><!--reverse link JobFunction to JobOpening--><g id="link_JobFunction_JobOpening"><path codeLine="78" d="M441.0299,84.9917 C431.5559,103.5317 417.864,130.308 407.52,150.546 " fill="none" id="JobFunction-backto-JobOpening" style="stroke:#181818;stroke-width:0.6;"/><polygon fill="#181818" points="442.668,81.786,438.0737,85.5025,441.3029,84.4574,442.3479,87.6866,442.668,81.786" style="stroke:#181818;stroke-width:0.6;"/><text fill="#000000" font-family="sans-serif" font-size="7.8" lengthAdjust="spacing" textLength="28.8" x="421.2" y="130.6611">includes</text><text fill="#000000" font-family="sans-serif" font-size="7.8" lengthAdjust="spacing" textLength="4.2" x="436.1422" y="93.5631">1</text><text fill="#000000" font-family="sans-serif" font-size="7.8" lengthAdjust="spacing" textLength="4.2" x="405.0564" y="144.0936">1</text></g><!--reverse link NumberOfVacancies to JobOpening--><g id="link_NumberOfVacancies_JobOpening"><path codeLine="79" d="M353.156,85.0059 C362.426,103.5459 375.804,130.308 385.92,150.546 " fill="none" id="NumberOfVacancies-backto-JobOpening" style="stroke:#181818;stroke-width:0.6;"/><polygon fill="#181818" points="351.546,81.786,351.8143,87.6892,352.8876,84.4693,356.1076,85.5426,351.546,81.786" style="stroke:#181818;stroke-width:0.6;"/><text fill="#000000" font-family="sans-serif" font-size="7.8" lengthAdjust="spacing" textLength="28.8" x="376.8" y="130.6611">includes</text><text fill="#000000" font-family="sans-serif" font-size="7.8" lengthAdjust="spacing" textLength="4.2" x="348.7123" y="93.5631">1</text><text fill="#000000" font-family="sans-serif" font-size="7.8" lengthAdjust="spacing" textLength="4.2" x="379.2039" y="144.0936">1</text></g><!--reverse link Description to JobOpening--><g id="link_Description_JobOpening"><path codeLine="80" d="M256.5257,84.0947 C265.2077,91.5467 273.096,97.89 283.2,105 C309.372,123.42 340.83,141.702 363.972,154.482 " fill="none" id="Description-backto-JobOpening" style="stroke:#181818;stroke-width:0.6;"/><polygon fill="#181818" points="253.794,81.75,256.3284,87.0882,256.0704,83.7039,259.4547,83.4459,253.794,81.75" style="stroke:#181818;stroke-width:0.6;"/><text fill="#000000" font-family="sans-serif" font-size="7.8" lengthAdjust="spacing" textLength="28.8" x="325.8" y="130.6611">includes</text><text fill="#000000" font-family="sans-serif" font-size="7.8" lengthAdjust="spacing" textLength="4.2" x="253.2021" y="93.5192">1</text><text fill="#000000" font-family="sans-serif" font-size="7.8" lengthAdjust="spacing" textLength="4.2" x="355.1054" y="150.1818">1</text></g><!--reverse link Address1 to JobOpening--><g id="link_Address1_JobOpening"><path codeLine="81" d="M180.0482,100.3675 C183.5522,102.7975 184.188,103.02 187.8,105 C245.952,136.902 321.678,156.372 364.11,165.552 " fill="none" id="Address1-backto-JobOpening" style="stroke:#181818;stroke-width:0.6;"/><polygon fill="#181818" points="177.09,98.316,180.1597,103.3655,179.5552,100.0256,182.8951,99.4211,177.09,98.316" style="stroke:#181818;stroke-width:0.6;"/><text fill="#000000" font-family="sans-serif" font-size="7.8" lengthAdjust="spacing" textLength="28.8" x="248.4" y="130.6611">includes</text><text fill="#000000" font-family="sans-serif" font-size="7.8" lengthAdjust="spacing" textLength="4.2" x="181.8907" y="100.588">1</text><text fill="#000000" font-family="sans-serif" font-size="7.8" lengthAdjust="spacing" textLength="4.2" x="355.262" y="162.7394">1</text></g><!--reverse link ContractType to JobOpening--><g id="link_ContractType_JobOpening"><path codeLine="82" d="M622.7345,84.1911 C614.1305,92.0931 605.754,98.718 594.6,105 C540.294,135.57 469.734,155.232 429.174,164.868 " fill="none" id="ContractType-backto-JobOpening" style="stroke:#181818;stroke-width:0.6;"/><polygon fill="#181818" points="625.386,81.756,619.7854,83.641,623.1765,83.7853,623.0322,87.1763,625.386,81.756" style="stroke:#181818;stroke-width:0.6;"/><text fill="#000000" font-family="sans-serif" font-size="7.8" lengthAdjust="spacing" textLength="28.8" x="553.8" y="130.6611">includes</text><text fill="#000000" font-family="sans-serif" font-size="7.8" lengthAdjust="spacing" textLength="4.2" x="617.0923" y="93.5265">1</text><text fill="#000000" font-family="sans-serif" font-size="7.8" lengthAdjust="spacing" textLength="4.2" x="433.8333" y="161.9635">1</text></g><!--link JobOpening to JobReference--><g id="link_JobOpening_JobReference"><path codeLine="86" d="M421.434,194.448 C437.508,208.266 455.6219,223.8414 471.6839,237.6474 " fill="none" id="JobOpening-to-JobReference" style="stroke:#181818;stroke-width:0.6;"/><polygon fill="#181818" points="474.414,239.994,471.8833,234.654,472.1389,238.0385,468.7545,238.2941,474.414,239.994" style="stroke:#181818;stroke-width:0.6;"/><text fill="#000000" font-family="sans-serif" font-size="7.8" lengthAdjust="spacing" textLength="41.4" x="451.2" y="220.0611">identified by</text><text fill="#000000" font-family="sans-serif" font-size="7.8" lengthAdjust="spacing" textLength="4.2" x="421.2835" y="206.1989">1</text><text fill="#000000" font-family="sans-serif" font-size="7.8" lengthAdjust="spacing" textLength="4.2" x="464.9208" y="233.551">1</text></g><!--link JobOpening to JogOpeningStatus--><g id="link_JobOpening_JogOpeningStatus"><path codeLine="88" d="M396.6,194.448 C396.6,209.85 396.6,226.74 396.6,240.96 " fill="none" id="JobOpening-to-JogOpeningStatus" style="stroke:#181818;stroke-width:0.6;"/><polygon fill="#181818" points="396.6,244.56,399,239.16,396.6,241.56,394.2,239.16,396.6,244.56" style="stroke:#181818;stroke-width:0.6;"/><text fill="#000000" font-family="sans-serif" font-size="7.8" lengthAdjust="spacing" textLength="28.8" x="397.2" y="220.0611">includes</text><text fill="#000000" font-family="sans-serif" font-size="7.8" lengthAdjust="spacing" textLength="4.2" x="392.0259" y="206.1989">1</text><text fill="#000000" font-family="sans-serif" font-size="7.8" lengthAdjust="spacing" textLength="4.2" x="391.9144" y="238.2568">1</text></g><!--reverse link RecruitmentProcess to Phase--><g id="link_RecruitmentProcess_Phase"><path codeLine="89" d="M213.1886,275.9271 C226.2746,279.0891 233.472,280.776 246.6,283.8 C366.54,311.412 510.294,342.138 568.362,354.456 " fill="none" id="RecruitmentProcess-backto-Phase" style="stroke:#181818;stroke-width:0.6;"/><polygon fill="#181818" points="206.19,274.236,209.1256,277.4144,213.1886,275.9271,210.253,272.7487,206.19,274.236" style="stroke:#181818;stroke-width:0.6;"/><text fill="#000000" font-family="sans-serif" font-size="7.8" lengthAdjust="spacing" textLength="21.6" x="361.8" y="309.4611">part of</text><text fill="#000000" font-family="sans-serif" font-size="7.8" lengthAdjust="spacing" textLength="4.2" x="210.9451" y="273.6898">1</text><text fill="#000000" font-family="sans-serif" font-size="7.8" lengthAdjust="spacing" textLength="13.2" x="550.5442" y="351.676">4..5</text></g><!--link RecruitmentProcess to PhaseNames--><g id="link_RecruitmentProcess_PhaseNames"><path codeLine="90" d="M206.208,261.9 C222.756,261.9 237.444,261.9 253.032,261.9 " fill="none" id="RecruitmentProcess-to-PhaseNames" style="stroke:#181818;stroke-width:0.6;"/><polygon fill="#181818" points="256.632,261.9,251.232,259.5,253.632,261.9,251.232,264.3,256.632,261.9" style="stroke:#181818;stroke-width:0.6;"/><text fill="#000000" font-family="sans-serif" font-size="7.8" lengthAdjust="spacing" textLength="28.8" x="217.05" y="258.1611">includes</text><text fill="#000000" font-family="sans-serif" font-size="7.8" lengthAdjust="spacing" textLength="4.2" x="210.9649" y="260.178">1</text><text fill="#000000" font-family="sans-serif" font-size="7.8" lengthAdjust="spacing" textLength="4.2" x="247.8685" y="260.0839">1</text></g><!--link JobOpening to RecruitmentProcess--><g id="link_JobOpening_RecruitmentProcess"><path codeLine="91" d="M363.978,185.178 C323.208,200.274 256.468,224.986 209.62,242.332 " fill="none" id="JobOpening-to-RecruitmentProcess" style="stroke:#181818;stroke-width:0.6;"/><polygon fill="#181818" points="206.244,243.582,212.1414,243.9577,209.0573,242.5403,210.4747,239.4563,206.244,243.582" style="stroke:#181818;stroke-width:0.6;"/><text fill="#000000" font-family="sans-serif" font-size="7.8" lengthAdjust="spacing" textLength="28.8" x="285" y="220.0611">includes</text><text fill="#000000" font-family="sans-serif" font-size="7.8" lengthAdjust="spacing" textLength="4.2" x="355.1122" y="185.0026">1</text><text fill="#000000" font-family="sans-serif" font-size="7.8" lengthAdjust="spacing" textLength="4.2" x="210.8482" y="240.1839">1</text></g><!--link ScreeningPhase to Phase--><g id="link_ScreeningPhase_Phase"><path codeLine="94" d="M750.042,279.042 C713.64,298.002 664.2204,323.7386 630.3444,341.3846 " fill="none" id="ScreeningPhase-to-Phase" style="stroke:#181818;stroke-width:0.6;"/><polygon fill="none" points="620.766,346.374,632.0075,344.5774,628.6813,338.1918,620.766,346.374" style="stroke:#181818;stroke-width:0.6;"/></g><!--link ResultPhase to Phase--><g id="link_ResultPhase_Phase"><path codeLine="95" d="M670.83,279.042 C657.168,293.544 644.4297,307.0771 628.2777,324.2311 " fill="none" id="ResultPhase-to-Phase" style="stroke:#181818;stroke-width:0.6;"/><polygon fill="none" points="620.874,332.094,630.8986,326.6989,625.6567,321.7632,620.874,332.094" style="stroke:#181818;stroke-width:0.6;"/></g><!--link InterviewPhase to Phase--><g id="link_InterviewPhase_Phase"><path codeLine="96" d="M86.502,279.078 C91.044,280.854 95.688,282.486 100.2,283.8 C274.488,334.482 482.9478,352.4502 557.5758,357.6162 " fill="none" id="InterviewPhase-to-Phase" style="stroke:#181818;stroke-width:0.6;"/><polygon fill="none" points="568.35,358.362,557.8244,354.0248,557.3272,361.2076,568.35,358.362" style="stroke:#181818;stroke-width:0.6;"/></g><!--link AnalysisPhase to Phase--><g id="link_AnalysisPhase_Phase"><path codeLine="97" d="M594.6,279.042 C594.6,292.788 594.6,301.914 594.6,318.558 " fill="none" id="AnalysisPhase-to-Phase" style="stroke:#181818;stroke-width:0.6;"/><polygon fill="none" points="594.6,329.358,598.2,318.558,591,318.558,594.6,329.358" style="stroke:#181818;stroke-width:0.6;"/></g><!--SRC=[ZLNDQjmm4BxxAOGlXO9t2RINfImi6qeJQ1AofOUIYopFEcfioKXookBcYV88lUsJLP9_9DbETdMHPpJVf_dJ-CEZKfLSBPTLWPcgos91UBaa1POooIZE1IwZgCBa2UU0uckUejiA66KvskIvW1mhY9ieGdfP48gFhy0KLOVZlmTs3qJKL9LQSoSu0IbZX2MQgXlBODOtBA-O0l5CuS_T8vPWJrxQA-Rki4QMrduvfig8DxY4GICL5kfIkpneW6LEVXd5yOoB6X1FVmDHmqs6KBhhhDWbGEEZEGztH83DcNCrL7NuYGD-8cLTA8Vtv2Pw7xfXk3X8AXquq3ZV0xpWtCRicD03q-NlgczvdDX4yopZ35xpl4Fi55Qrx6X29MhcIpucstAc12Rgnw5gu_8LpNab_Swp5ci-cdE3IB_MZ2ZAMP-6NZwJ0TtKPGhYTlyJ4ym8xHfggZwJxn8a4RGQFF9alpNVezXacUYVP_TzuPxIJkbsLOEurGtXdVaFQijhNGHt-ejMHAVsh32EhpGptRQd8Bf4tyCU1302VQO7nKpRXtqVJX6B3rKkDIOxfW5GV16ZBqbYTjVSQ8Ke8qMTWOoyMfysdfJpDCIht6dZlaud3Vs7qTEQRTvQB-z0soN9khCUic_i-rfbA3sy2HazRU-QwK_0klPHk_PfiVWSj_CLhIezin7VlsMVhEtcXl6eN9vJA6cDPvXMNlJXRDQWl-kMFlAchgyEsye_2IQjT_0V]--></g></svg>