<?xml version="1.0" encoding="us-ascii" standalone="no"?><svg xmlns="http://www.w3.org/2000/svg" xmlns:xlink="http://www.w3.org/1999/xlink" contentStyleType="text/css" height="1793px" preserveAspectRatio="none" style="width:1542px;height:1793px;background:#FFFFFF;" version="1.1" viewBox="0 0 1542 1793" width="1542px" zoomAndPan="magnify"><defs/><g><text fill="#000000" font-family="sans-serif" font-size="14" font-weight="bold" lengthAdjust="spacing" textLength="817" x="364.25" y="27.6738">"US 1010 As Customer Manager, I want to open or close phases of the process for a job opening" Sequence Diagram</text><rect fill="#FFFFFF" height="1567.9297" style="stroke:#181818;stroke-width:1.0;" width="10" x="78.5" y="127.2813"/><rect fill="#FFFFFF" height="257.4219" style="stroke:#181818;stroke-width:1.0;" width="10" x="533.5" y="147.8047"/><rect fill="#FFFFFF" height="744.5625" style="stroke:#181818;stroke-width:1.0;" width="10" x="533.5" y="433.75"/><rect fill="#FFFFFF" height="488.375" style="stroke:#181818;stroke-width:1.0;" width="10" x="533.5" y="1206.8359"/><rect fill="#FFFFFF" height="85.5703" style="stroke:#181818;stroke-width:1.0;" width="10" x="944.5" y="249.6094"/><rect fill="#FFFFFF" height="85.5703" style="stroke:#181818;stroke-width:1.0;" width="10" x="944.5" y="462.2734"/><rect fill="#FFFFFF" height="431.3281" style="stroke:#181818;stroke-width:1.0;" width="10" x="949.5" y="641.4141"/><rect fill="#FFFFFF" height="431.3281" style="stroke:#181818;stroke-width:1.0;" width="10" x="949.5" y="641.4141"/><rect fill="#FFFFFF" height="431.3281" style="stroke:#181818;stroke-width:1.0;" width="10" x="944.5" y="1235.3594"/><rect fill="#FFFFFF" height="28.5234" style="stroke:#181818;stroke-width:1.0;" width="10" x="1216.5" y="490.7969"/><rect fill="#FFFFFF" height="28.5234" style="stroke:#181818;stroke-width:1.0;" width="10" x="1440.5" y="278.1328"/><rect fill="none" height="546.4219" style="stroke:#000000;stroke-width:1.5;" width="1526.5" x="10" y="562.8438"/><rect fill="none" height="73.5703" style="stroke:#000000;stroke-width:1.5;" width="472" x="806.5" y="697.9375"/><rect fill="none" height="102.0938" style="stroke:#000000;stroke-width:1.5;" width="472" x="806.5" y="785.5078"/><rect fill="none" height="115.0938" style="stroke:#000000;stroke-width:1.5;" width="472" x="806.5" y="901.6016"/><rect fill="none" height="73.5703" style="stroke:#000000;stroke-width:1.5;" width="472" x="806.5" y="1291.8828"/><rect fill="none" height="102.0938" style="stroke:#000000;stroke-width:1.5;" width="472" x="806.5" y="1379.4531"/><rect fill="none" height="115.0938" style="stroke:#000000;stroke-width:1.5;" width="472" x="806.5" y="1495.5469"/><line style="stroke:#181818;stroke-width:0.5;stroke-dasharray:5.0,5.0;" x1="83" x2="83" y1="117.2813" y2="1713.2109"/><line style="stroke:#181818;stroke-width:0.5;stroke-dasharray:5.0,5.0;" x1="538.5" x2="538.5" y1="117.2813" y2="1713.2109"/><line style="stroke:#181818;stroke-width:0.5;stroke-dasharray:5.0,5.0;" x1="949.5" x2="949.5" y1="202.4453" y2="1713.2109"/><line style="stroke:#181818;stroke-width:0.5;stroke-dasharray:5.0,5.0;" x1="1221.5" x2="1221.5" y1="117.2813" y2="1713.2109"/><line style="stroke:#181818;stroke-width:0.5;stroke-dasharray:5.0,5.0;" x1="1316.5" x2="1316.5" y1="117.2813" y2="1713.2109"/><line style="stroke:#181818;stroke-width:0.5;stroke-dasharray:5.0,5.0;" x1="1445.5" x2="1445.5" y1="117.2813" y2="1713.2109"/><text fill="#000000" font-family="sans-serif" font-size="14" lengthAdjust="spacing" textLength="121" x="20" y="114.3145">Customer Manager</text><ellipse cx="83.5" cy="50.1406" fill="#E3E3E3" rx="8" ry="8" style="stroke:#181818;stroke-width:0.5;"/><path d="M83.5,58.1406 L83.5,85.1406 M70.5,66.1406 L96.5,66.1406 M83.5,85.1406 L70.5,100.1406 M83.5,85.1406 L96.5,100.1406 " fill="none" style="stroke:#181818;stroke-width:0.5;"/><text fill="#000000" font-family="sans-serif" font-size="14" lengthAdjust="spacing" textLength="121" x="20" y="1724.8848">Customer Manager</text><ellipse cx="83.5" cy="1736.3516" fill="#E3E3E3" rx="8" ry="8" style="stroke:#181818;stroke-width:0.5;"/><path d="M83.5,1744.3516 L83.5,1771.3516 M70.5,1752.3516 L96.5,1752.3516 M83.5,1771.3516 L70.5,1786.3516 M83.5,1771.3516 L96.5,1786.3516 " fill="none" style="stroke:#181818;stroke-width:0.5;"/><rect fill="#E3E3E3" height="45.2813" rx="2.5" ry="2.5" style="stroke:#181818;stroke-width:0.5;" width="224" x="426.5" y="71"/><text fill="#000000" font-family="sans-serif" font-size="14" font-style="italic" lengthAdjust="spacing" textLength="95" x="491" y="90.6738">&#171;presentation&#187;</text><text fill="#000000" font-family="sans-serif" font-size="14" lengthAdjust="spacing" textLength="210" x="433.5" y="106.3145">:OpenClosePhasesJobOpeningUI</text><rect fill="#E3E3E3" height="45.2813" rx="2.5" ry="2.5" style="stroke:#181818;stroke-width:0.5;" width="224" x="426.5" y="1712.2109"/><text fill="#000000" font-family="sans-serif" font-size="14" font-style="italic" lengthAdjust="spacing" textLength="95" x="491" y="1731.8848">&#171;presentation&#187;</text><text fill="#000000" font-family="sans-serif" font-size="14" lengthAdjust="spacing" textLength="210" x="433.5" y="1747.5254">:OpenClosePhasesJobOpeningUI</text><text fill="#000000" font-family="sans-serif" font-size="14" font-style="italic" lengthAdjust="spacing" textLength="84" x="904.5" y="1724.8848">&#171;application&#187;</text><text fill="#000000" font-family="sans-serif" font-size="14" lengthAdjust="spacing" textLength="260" x="816.5" y="1740.5254">:OpenClosePhasesJobOpeningController</text><ellipse cx="949.5" cy="1759.4922" fill="#E3E3E3" rx="12" ry="12" style="stroke:#181818;stroke-width:0.5;"/><polygon fill="#181818" points="945.5,1747.4922,951.5,1742.4922,949.5,1747.4922,951.5,1752.4922,945.5,1747.4922" style="stroke:#181818;stroke-width:1.0;"/><rect fill="#E3E3E3" height="45.2813" rx="2.5" ry="2.5" style="stroke:#181818;stroke-width:0.5;" width="94" x="1174.5" y="71"/><text fill="#000000" font-family="sans-serif" font-size="14" font-style="italic" lengthAdjust="spacing" textLength="62" x="1190.5" y="90.6738">&#171;domain&#187;</text><text fill="#000000" font-family="sans-serif" font-size="14" lengthAdjust="spacing" textLength="80" x="1181.5" y="106.3145">:JobOpening</text><rect fill="#E3E3E3" height="45.2813" rx="2.5" ry="2.5" style="stroke:#181818;stroke-width:0.5;" width="94" x="1174.5" y="1712.2109"/><text fill="#000000" font-family="sans-serif" font-size="14" font-style="italic" lengthAdjust="spacing" textLength="62" x="1190.5" y="1731.8848">&#171;domain&#187;</text><text fill="#000000" font-family="sans-serif" font-size="14" lengthAdjust="spacing" textLength="80" x="1181.5" y="1747.5254">:JobOpening</text><rect fill="#E3E3E3" height="45.2813" rx="2.5" ry="2.5" style="stroke:#181818;stroke-width:0.5;" width="76" x="1278.5" y="71"/><text fill="#000000" font-family="sans-serif" font-size="14" font-style="italic" lengthAdjust="spacing" textLength="62" x="1285.5" y="90.6738">&#171;domain&#187;</text><text fill="#000000" font-family="sans-serif" font-size="14" lengthAdjust="spacing" textLength="44" x="1294.5" y="106.3145">:Phase</text><rect fill="#E3E3E3" height="45.2813" rx="2.5" ry="2.5" style="stroke:#181818;stroke-width:0.5;" width="76" x="1278.5" y="1712.2109"/><text fill="#000000" font-family="sans-serif" font-size="14" font-style="italic" lengthAdjust="spacing" textLength="62" x="1285.5" y="1731.8848">&#171;domain&#187;</text><text fill="#000000" font-family="sans-serif" font-size="14" lengthAdjust="spacing" textLength="44" x="1294.5" y="1747.5254">:Phase</text><rect fill="#E3E3E3" height="45.2813" rx="2.5" ry="2.5" style="stroke:#181818;stroke-width:0.5;" width="162" x="1364.5" y="71"/><text fill="#000000" font-family="sans-serif" font-size="14" font-style="italic" lengthAdjust="spacing" textLength="79" x="1406" y="90.6738">&#171;repository&#187;</text><text fill="#000000" font-family="sans-serif" font-size="14" lengthAdjust="spacing" textLength="148" x="1371.5" y="106.3145">:JobOpeningRepository</text><rect fill="#E3E3E3" height="45.2813" rx="2.5" ry="2.5" style="stroke:#181818;stroke-width:0.5;" width="162" x="1364.5" y="1712.2109"/><text fill="#000000" font-family="sans-serif" font-size="14" font-style="italic" lengthAdjust="spacing" textLength="79" x="1406" y="1731.8848">&#171;repository&#187;</text><text fill="#000000" font-family="sans-serif" font-size="14" lengthAdjust="spacing" textLength="148" x="1371.5" y="1747.5254">:JobOpeningRepository</text><rect fill="#FFFFFF" height="1567.9297" style="stroke:#181818;stroke-width:1.0;" width="10" x="78.5" y="127.2813"/><rect fill="#FFFFFF" height="257.4219" style="stroke:#181818;stroke-width:1.0;" width="10" x="533.5" y="147.8047"/><rect fill="#FFFFFF" height="744.5625" style="stroke:#181818;stroke-width:1.0;" width="10" x="533.5" y="433.75"/><rect fill="#FFFFFF" height="488.375" style="stroke:#181818;stroke-width:1.0;" width="10" x="533.5" y="1206.8359"/><rect fill="#FFFFFF" height="85.5703" style="stroke:#181818;stroke-width:1.0;" width="10" x="944.5" y="249.6094"/><rect fill="#FFFFFF" height="85.5703" style="stroke:#181818;stroke-width:1.0;" width="10" x="944.5" y="462.2734"/><rect fill="#FFFFFF" height="431.3281" style="stroke:#181818;stroke-width:1.0;" width="10" x="949.5" y="641.4141"/><rect fill="#FFFFFF" height="431.3281" style="stroke:#181818;stroke-width:1.0;" width="10" x="949.5" y="641.4141"/><rect fill="#FFFFFF" height="431.3281" style="stroke:#181818;stroke-width:1.0;" width="10" x="944.5" y="1235.3594"/><rect fill="#FFFFFF" height="28.5234" style="stroke:#181818;stroke-width:1.0;" width="10" x="1216.5" y="490.7969"/><rect fill="#FFFFFF" height="28.5234" style="stroke:#181818;stroke-width:1.0;" width="10" x="1440.5" y="278.1328"/><polygon fill="#181818" points="521.5,143.8047,531.5,147.8047,521.5,151.8047,525.5,147.8047" style="stroke:#181818;stroke-width:1.0;"/><line style="stroke:#181818;stroke-width:1.0;" x1="88.5" x2="527.5" y1="147.8047" y2="147.8047"/><text fill="#000000" font-family="sans-serif" font-size="13" font-weight="bold" lengthAdjust="spacing" textLength="7" x="95.5" y="143.0498">1</text><text fill="#000000" font-family="sans-serif" font-size="13" lengthAdjust="spacing" textLength="270" x="106.5" y="143.0498">asks to open or close phases for a job opening</text><polygon fill="#181818" points="804.5,172.3281,814.5,176.3281,804.5,180.3281,808.5,176.3281" style="stroke:#181818;stroke-width:1.0;"/><line style="stroke:#181818;stroke-width:1.0;" x1="543.5" x2="810.5" y1="176.3281" y2="176.3281"/><text fill="#000000" font-family="sans-serif" font-size="13" font-weight="bold" lengthAdjust="spacing" textLength="7" x="550.5" y="171.5732">2</text><text fill="#000000" font-family="sans-serif" font-size="13" lengthAdjust="spacing" textLength="36" x="561.5" y="171.5732">create</text><text fill="#000000" font-family="sans-serif" font-size="14" font-style="italic" lengthAdjust="spacing" textLength="84" x="904.5" y="200.4785">&#171;application&#187;</text><text fill="#000000" font-family="sans-serif" font-size="14" lengthAdjust="spacing" textLength="260" x="816.5" y="216.1191">:OpenClosePhasesJobOpeningController</text><ellipse cx="949.5" cy="171.8047" fill="#E3E3E3" rx="12" ry="12" style="stroke:#181818;stroke-width:0.5;"/><polygon fill="#181818" points="945.5,159.8047,951.5,154.8047,949.5,159.8047,951.5,164.8047,945.5,159.8047" style="stroke:#181818;stroke-width:1.0;"/><polygon fill="#181818" points="932.5,245.6094,942.5,249.6094,932.5,253.6094,936.5,249.6094" style="stroke:#181818;stroke-width:1.0;"/><line style="stroke:#181818;stroke-width:1.0;" x1="543.5" x2="938.5" y1="249.6094" y2="249.6094"/><text fill="#000000" font-family="sans-serif" font-size="13" font-weight="bold" lengthAdjust="spacing" textLength="7" x="550.5" y="244.8545">3</text><text fill="#000000" font-family="sans-serif" font-size="13" lengthAdjust="spacing" textLength="218" x="561.5" y="244.8545">allJobOpeningsByCustomerManager()</text><polygon fill="#181818" points="1428.5,274.1328,1438.5,278.1328,1428.5,282.1328,1432.5,278.1328" style="stroke:#181818;stroke-width:1.0;"/><line style="stroke:#181818;stroke-width:1.0;" x1="954.5" x2="1434.5" y1="278.1328" y2="278.1328"/><text fill="#000000" font-family="sans-serif" font-size="13" font-weight="bold" lengthAdjust="spacing" textLength="7" x="961.5" y="273.3779">4</text><text fill="#000000" font-family="sans-serif" font-size="13" lengthAdjust="spacing" textLength="285" x="972.5" y="273.3779">allJobOpeningsByCustomerManager(currentUser)</text><polygon fill="#181818" points="965.5,302.6563,955.5,306.6563,965.5,310.6563,961.5,306.6563" style="stroke:#181818;stroke-width:1.0;"/><line style="stroke:#181818;stroke-width:1.0;stroke-dasharray:2.0,2.0;" x1="959.5" x2="1444.5" y1="306.6563" y2="306.6563"/><text fill="#000000" font-family="sans-serif" font-size="13" font-weight="bold" lengthAdjust="spacing" textLength="7" x="971.5" y="301.9014">5</text><text fill="#000000" font-family="sans-serif" font-size="13" lengthAdjust="spacing" textLength="99" x="982.5" y="301.9014">listJobOpennings</text><polygon fill="#181818" points="554.5,331.1797,544.5,335.1797,554.5,339.1797,550.5,335.1797" style="stroke:#181818;stroke-width:1.0;"/><line style="stroke:#181818;stroke-width:1.0;stroke-dasharray:2.0,2.0;" x1="548.5" x2="948.5" y1="335.1797" y2="335.1797"/><text fill="#000000" font-family="sans-serif" font-size="13" font-weight="bold" lengthAdjust="spacing" textLength="7" x="560.5" y="330.4248">6</text><text fill="#000000" font-family="sans-serif" font-size="13" lengthAdjust="spacing" textLength="99" x="571.5" y="330.4248">listJobOpennings</text><line style="stroke:#181818;stroke-width:1.0;stroke-dasharray:2.0,2.0;" x1="543.5" x2="585.5" y1="363.7031" y2="363.7031"/><line style="stroke:#181818;stroke-width:1.0;stroke-dasharray:2.0,2.0;" x1="585.5" x2="585.5" y1="363.7031" y2="376.7031"/><line style="stroke:#181818;stroke-width:1.0;stroke-dasharray:2.0,2.0;" x1="544.5" x2="585.5" y1="376.7031" y2="376.7031"/><polygon fill="#181818" points="554.5,372.7031,544.5,376.7031,554.5,380.7031,550.5,376.7031" style="stroke:#181818;stroke-width:1.0;"/><text fill="#000000" font-family="sans-serif" font-size="13" font-weight="bold" lengthAdjust="spacing" textLength="7" x="550.5" y="358.9482">7</text><text fill="#000000" font-family="sans-serif" font-size="13" lengthAdjust="spacing" textLength="210" x="561.5" y="358.9482">selectJobOpening(listJobOpennings)</text><polygon fill="#181818" points="99.5,401.2266,89.5,405.2266,99.5,409.2266,95.5,405.2266" style="stroke:#181818;stroke-width:1.0;"/><line style="stroke:#181818;stroke-width:1.0;stroke-dasharray:2.0,2.0;" x1="93.5" x2="537.5" y1="405.2266" y2="405.2266"/><text fill="#000000" font-family="sans-serif" font-size="13" font-weight="bold" lengthAdjust="spacing" textLength="7" x="105.5" y="400.4717">8</text><text fill="#000000" font-family="sans-serif" font-size="13" lengthAdjust="spacing" textLength="324" x="116.5" y="400.4717">shows list of all the job openings and asks to select one</text><polygon fill="#181818" points="521.5,429.75,531.5,433.75,521.5,437.75,525.5,433.75" style="stroke:#181818;stroke-width:1.0;"/><line style="stroke:#181818;stroke-width:1.0;" x1="88.5" x2="527.5" y1="433.75" y2="433.75"/><text fill="#000000" font-family="sans-serif" font-size="13" font-weight="bold" lengthAdjust="spacing" textLength="7" x="95.5" y="428.9951">9</text><text fill="#000000" font-family="sans-serif" font-size="13" lengthAdjust="spacing" textLength="123" x="106.5" y="428.9951">selects a job opening</text><polygon fill="#181818" points="932.5,458.2734,942.5,462.2734,932.5,466.2734,936.5,462.2734" style="stroke:#181818;stroke-width:1.0;"/><line style="stroke:#181818;stroke-width:1.0;" x1="543.5" x2="938.5" y1="462.2734" y2="462.2734"/><text fill="#000000" font-family="sans-serif" font-size="13" font-weight="bold" lengthAdjust="spacing" textLength="14" x="550.5" y="457.5186">10</text><text fill="#000000" font-family="sans-serif" font-size="13" lengthAdjust="spacing" textLength="150" x="568.5" y="457.5186">currentPhase(jobOpening)</text><polygon fill="#181818" points="1204.5,486.7969,1214.5,490.7969,1204.5,494.7969,1208.5,490.7969" style="stroke:#181818;stroke-width:1.0;"/><line style="stroke:#181818;stroke-width:1.0;" x1="954.5" x2="1210.5" y1="490.7969" y2="490.7969"/><text fill="#000000" font-family="sans-serif" font-size="13" font-weight="bold" lengthAdjust="spacing" textLength="14" x="961.5" y="486.042">11</text><text fill="#000000" font-family="sans-serif" font-size="13" lengthAdjust="spacing" textLength="85" x="979.5" y="486.042">currentPhase()</text><polygon fill="#181818" points="965.5,515.3203,955.5,519.3203,965.5,523.3203,961.5,519.3203" style="stroke:#181818;stroke-width:1.0;"/><line style="stroke:#181818;stroke-width:1.0;stroke-dasharray:2.0,2.0;" x1="959.5" x2="1220.5" y1="519.3203" y2="519.3203"/><text fill="#000000" font-family="sans-serif" font-size="13" font-weight="bold" lengthAdjust="spacing" textLength="14" x="971.5" y="514.5654">12</text><text fill="#000000" font-family="sans-serif" font-size="13" lengthAdjust="spacing" textLength="35" x="989.5" y="514.5654">phase</text><polygon fill="#181818" points="554.5,543.8438,544.5,547.8438,554.5,551.8438,550.5,547.8438" style="stroke:#181818;stroke-width:1.0;"/><line style="stroke:#181818;stroke-width:1.0;stroke-dasharray:2.0,2.0;" x1="548.5" x2="948.5" y1="547.8438" y2="547.8438"/><text fill="#000000" font-family="sans-serif" font-size="13" font-weight="bold" lengthAdjust="spacing" textLength="14" x="560.5" y="543.0889">13</text><text fill="#000000" font-family="sans-serif" font-size="13" lengthAdjust="spacing" textLength="35" x="578.5" y="543.0889">phase</text><path d="M10,562.8438 L71,562.8438 L71,569.3672 L61,579.3672 L10,579.3672 L10,562.8438 " fill="#EEEEEE" style="stroke:#000000;stroke-width:1.5;"/><rect fill="none" height="546.4219" style="stroke:#000000;stroke-width:1.5;" width="1526.5" x="10" y="562.8438"/><text fill="#000000" font-family="sans-serif" font-size="13" font-weight="bold" lengthAdjust="spacing" textLength="16" x="25" y="575.6123">alt</text><text fill="#000000" font-family="sans-serif" font-size="11" font-weight="bold" lengthAdjust="spacing" textLength="80" x="86" y="574.8018">[phase == null]</text><line style="stroke:#181818;stroke-width:1.0;stroke-dasharray:2.0,2.0;" x1="543.5" x2="585.5" y1="599.8906" y2="599.8906"/><line style="stroke:#181818;stroke-width:1.0;stroke-dasharray:2.0,2.0;" x1="585.5" x2="585.5" y1="599.8906" y2="612.8906"/><line style="stroke:#181818;stroke-width:1.0;stroke-dasharray:2.0,2.0;" x1="544.5" x2="585.5" y1="612.8906" y2="612.8906"/><polygon fill="#181818" points="554.5,608.8906,544.5,612.8906,554.5,616.8906,550.5,612.8906" style="stroke:#181818;stroke-width:1.0;"/><text fill="#000000" font-family="sans-serif" font-size="13" font-weight="bold" lengthAdjust="spacing" textLength="14" x="550.5" y="595.1357">14</text><text fill="#000000" font-family="sans-serif" font-size="13" lengthAdjust="spacing" textLength="130" x="568.5" y="595.1357">selectOpenApplication</text><polygon fill="#181818" points="937.5,637.4141,947.5,641.4141,937.5,645.4141,941.5,641.4141" style="stroke:#181818;stroke-width:1.0;"/><line style="stroke:#181818;stroke-width:1.0;" x1="543.5" x2="943.5" y1="641.4141" y2="641.4141"/><text fill="#000000" font-family="sans-serif" font-size="13" font-weight="bold" lengthAdjust="spacing" textLength="14" x="550.5" y="636.6592">15</text><text fill="#000000" font-family="sans-serif" font-size="13" lengthAdjust="spacing" textLength="364" x="568.5" y="636.6592">processOperation(1, jobOpening, PhaseNames.APPLICATION)</text><line style="stroke:#181818;stroke-width:1.0;stroke-dasharray:2.0,2.0;" x1="959.5" x2="1001.5" y1="669.9375" y2="669.9375"/><line style="stroke:#181818;stroke-width:1.0;stroke-dasharray:2.0,2.0;" x1="1001.5" x2="1001.5" y1="669.9375" y2="682.9375"/><line style="stroke:#181818;stroke-width:1.0;stroke-dasharray:2.0,2.0;" x1="960.5" x2="1001.5" y1="682.9375" y2="682.9375"/><polygon fill="#181818" points="970.5,678.9375,960.5,682.9375,970.5,686.9375,966.5,682.9375" style="stroke:#181818;stroke-width:1.0;"/><text fill="#000000" font-family="sans-serif" font-size="13" font-weight="bold" lengthAdjust="spacing" textLength="14" x="966.5" y="665.1826">16</text><text fill="#000000" font-family="sans-serif" font-size="13" lengthAdjust="spacing" textLength="161" x="984.5" y="665.1826">getIndex(jobOpening, index)</text><path d="M806.5,697.9375 L867.5,697.9375 L867.5,704.4609 L857.5,714.4609 L806.5,714.4609 L806.5,697.9375 " fill="#EEEEEE" style="stroke:#000000;stroke-width:1.5;"/><rect fill="none" height="73.5703" style="stroke:#000000;stroke-width:1.5;" width="472" x="806.5" y="697.9375"/><text fill="#000000" font-family="sans-serif" font-size="13" font-weight="bold" lengthAdjust="spacing" textLength="16" x="821.5" y="710.7061">alt</text><text fill="#000000" font-family="sans-serif" font-size="11" font-weight="bold" lengthAdjust="spacing" textLength="62" x="882.5" y="709.8955">[choice = 1]</text><polygon fill="#181818" points="1209.5,730.9844,1219.5,734.9844,1209.5,738.9844,1213.5,734.9844" style="stroke:#181818;stroke-width:1.0;"/><line style="stroke:#181818;stroke-width:1.0;stroke-dasharray:2.0,2.0;" x1="959.5" x2="1215.5" y1="734.9844" y2="734.9844"/><text fill="#000000" font-family="sans-serif" font-size="13" font-weight="bold" lengthAdjust="spacing" textLength="14" x="966.5" y="730.2295">17</text><text fill="#000000" font-family="sans-serif" font-size="13" lengthAdjust="spacing" textLength="205" x="984.5" y="730.2295">setPhasesBeginDate(index, today);</text><polygon fill="#181818" points="1209.5,759.5078,1219.5,763.5078,1209.5,767.5078,1213.5,763.5078" style="stroke:#181818;stroke-width:1.0;"/><line style="stroke:#181818;stroke-width:1.0;" x1="959.5" x2="1215.5" y1="763.5078" y2="763.5078"/><text fill="#000000" font-family="sans-serif" font-size="13" font-weight="bold" lengthAdjust="spacing" textLength="14" x="966.5" y="758.7529">18</text><text fill="#000000" font-family="sans-serif" font-size="13" lengthAdjust="spacing" textLength="120" x="984.5" y="758.7529">currentPhase(phase)</text><path d="M806.5,785.5078 L867.5,785.5078 L867.5,792.0313 L857.5,802.0313 L806.5,802.0313 L806.5,785.5078 " fill="#EEEEEE" style="stroke:#000000;stroke-width:1.5;"/><rect fill="none" height="102.0938" style="stroke:#000000;stroke-width:1.5;" width="472" x="806.5" y="785.5078"/><text fill="#000000" font-family="sans-serif" font-size="13" font-weight="bold" lengthAdjust="spacing" textLength="16" x="821.5" y="798.2764">alt</text><text fill="#000000" font-family="sans-serif" font-size="11" font-weight="bold" lengthAdjust="spacing" textLength="62" x="882.5" y="797.4658">[choice = 2]</text><polygon fill="#181818" points="1209.5,818.5547,1219.5,822.5547,1209.5,826.5547,1213.5,822.5547" style="stroke:#181818;stroke-width:1.0;"/><line style="stroke:#181818;stroke-width:1.0;stroke-dasharray:2.0,2.0;" x1="959.5" x2="1215.5" y1="822.5547" y2="822.5547"/><text fill="#000000" font-family="sans-serif" font-size="13" font-weight="bold" lengthAdjust="spacing" textLength="14" x="966.5" y="817.7998">19</text><text fill="#000000" font-family="sans-serif" font-size="13" lengthAdjust="spacing" textLength="195" x="984.5" y="817.7998">setPhasesEndDate(index, today);</text><polygon fill="#181818" points="1209.5,847.0781,1219.5,851.0781,1209.5,855.0781,1213.5,851.0781" style="stroke:#181818;stroke-width:1.0;"/><line style="stroke:#181818;stroke-width:1.0;stroke-dasharray:2.0,2.0;" x1="959.5" x2="1215.5" y1="851.0781" y2="851.0781"/><text fill="#000000" font-family="sans-serif" font-size="13" font-weight="bold" lengthAdjust="spacing" textLength="14" x="966.5" y="846.3232">20</text><text fill="#000000" font-family="sans-serif" font-size="13" lengthAdjust="spacing" textLength="220" x="984.5" y="846.3232">setPhasesBeginDate(index+1, today);</text><polygon fill="#181818" points="1209.5,875.6016,1219.5,879.6016,1209.5,883.6016,1213.5,879.6016" style="stroke:#181818;stroke-width:1.0;"/><line style="stroke:#181818;stroke-width:1.0;" x1="959.5" x2="1215.5" y1="879.6016" y2="879.6016"/><text fill="#000000" font-family="sans-serif" font-size="13" font-weight="bold" lengthAdjust="spacing" textLength="14" x="966.5" y="874.8467">21</text><text fill="#000000" font-family="sans-serif" font-size="13" lengthAdjust="spacing" textLength="198" x="984.5" y="874.8467">currentPhaseToNextPhase(phase)</text><path d="M806.5,901.6016 L867.5,901.6016 L867.5,908.125 L857.5,918.125 L806.5,918.125 L806.5,901.6016 " fill="#EEEEEE" style="stroke:#000000;stroke-width:1.5;"/><rect fill="none" height="115.0938" style="stroke:#000000;stroke-width:1.5;" width="472" x="806.5" y="901.6016"/><text fill="#000000" font-family="sans-serif" font-size="13" font-weight="bold" lengthAdjust="spacing" textLength="16" x="821.5" y="914.3701">alt</text><text fill="#000000" font-family="sans-serif" font-size="11" font-weight="bold" lengthAdjust="spacing" textLength="62" x="882.5" y="913.5596">[choice = 3]</text><line style="stroke:#181818;stroke-width:1.0;stroke-dasharray:2.0,2.0;" x1="959.5" x2="1001.5" y1="938.6484" y2="938.6484"/><line style="stroke:#181818;stroke-width:1.0;stroke-dasharray:2.0,2.0;" x1="1001.5" x2="1001.5" y1="938.6484" y2="951.6484"/><line style="stroke:#181818;stroke-width:1.0;stroke-dasharray:2.0,2.0;" x1="960.5" x2="1001.5" y1="951.6484" y2="951.6484"/><polygon fill="#181818" points="970.5,947.6484,960.5,951.6484,970.5,955.6484,966.5,951.6484" style="stroke:#181818;stroke-width:1.0;"/><text fill="#000000" font-family="sans-serif" font-size="13" font-weight="bold" lengthAdjust="spacing" textLength="14" x="966.5" y="933.8936">22</text><text fill="#000000" font-family="sans-serif" font-size="13" lengthAdjust="spacing" textLength="196" x="984.5" y="933.8936">canBacktrack(phase, jobOpening)</text><polygon fill="#181818" points="1209.5,976.1719,1219.5,980.1719,1209.5,984.1719,1213.5,980.1719" style="stroke:#181818;stroke-width:1.0;"/><line style="stroke:#181818;stroke-width:1.0;stroke-dasharray:2.0,2.0;" x1="959.5" x2="1215.5" y1="980.1719" y2="980.1719"/><text fill="#000000" font-family="sans-serif" font-size="13" font-weight="bold" lengthAdjust="spacing" textLength="14" x="966.5" y="975.417">23</text><text fill="#000000" font-family="sans-serif" font-size="13" lengthAdjust="spacing" textLength="206" x="984.5" y="975.417">setPhasesEndDate(index-1, today);</text><polygon fill="#181818" points="1209.5,1004.6953,1219.5,1008.6953,1209.5,1012.6953,1213.5,1008.6953" style="stroke:#181818;stroke-width:1.0;"/><line style="stroke:#181818;stroke-width:1.0;" x1="959.5" x2="1215.5" y1="1008.6953" y2="1008.6953"/><text fill="#000000" font-family="sans-serif" font-size="13" font-weight="bold" lengthAdjust="spacing" textLength="14" x="966.5" y="1003.9404">24</text><text fill="#000000" font-family="sans-serif" font-size="13" lengthAdjust="spacing" textLength="220" x="984.5" y="1003.9404">currentPhaseToPreviousPhase(phase)</text><polygon fill="#181818" points="1433.5,1040.2188,1443.5,1044.2188,1433.5,1048.2188,1437.5,1044.2188" style="stroke:#181818;stroke-width:1.0;"/><line style="stroke:#181818;stroke-width:1.0;" x1="959.5" x2="1439.5" y1="1044.2188" y2="1044.2188"/><text fill="#000000" font-family="sans-serif" font-size="13" font-weight="bold" lengthAdjust="spacing" textLength="14" x="966.5" y="1039.4639">25</text><text fill="#000000" font-family="sans-serif" font-size="13" lengthAdjust="spacing" textLength="99" x="984.5" y="1039.4639">save(jobOpening)</text><polygon fill="#181818" points="554.5,1068.7422,544.5,1072.7422,554.5,1076.7422,550.5,1072.7422" style="stroke:#181818;stroke-width:1.0;"/><line style="stroke:#181818;stroke-width:1.0;stroke-dasharray:2.0,2.0;" x1="548.5" x2="948.5" y1="1072.7422" y2="1072.7422"/><text fill="#000000" font-family="sans-serif" font-size="13" font-weight="bold" lengthAdjust="spacing" textLength="14" x="560.5" y="1067.9873">26</text><text fill="#000000" font-family="sans-serif" font-size="13" lengthAdjust="spacing" textLength="65" x="578.5" y="1067.9873">jobOpening</text><polygon fill="#181818" points="99.5,1097.2656,89.5,1101.2656,99.5,1105.2656,95.5,1101.2656" style="stroke:#181818;stroke-width:1.0;"/><line style="stroke:#181818;stroke-width:1.0;stroke-dasharray:2.0,2.0;" x1="93.5" x2="532.5" y1="1101.2656" y2="1101.2656"/><text fill="#000000" font-family="sans-serif" font-size="13" font-weight="bold" lengthAdjust="spacing" textLength="14" x="105.5" y="1096.5107">27</text><text fill="#000000" font-family="sans-serif" font-size="13" lengthAdjust="spacing" textLength="281" x="123.5" y="1096.5107">show sucess message and jobOpening atributes</text><line style="stroke:#181818;stroke-width:1.0;stroke-dasharray:2.0,2.0;" x1="543.5" x2="585.5" y1="1136.7891" y2="1136.7891"/><line style="stroke:#181818;stroke-width:1.0;stroke-dasharray:2.0,2.0;" x1="585.5" x2="585.5" y1="1136.7891" y2="1149.7891"/><line style="stroke:#181818;stroke-width:1.0;stroke-dasharray:2.0,2.0;" x1="544.5" x2="585.5" y1="1149.7891" y2="1149.7891"/><polygon fill="#181818" points="554.5,1145.7891,544.5,1149.7891,554.5,1153.7891,550.5,1149.7891" style="stroke:#181818;stroke-width:1.0;"/><text fill="#000000" font-family="sans-serif" font-size="13" font-weight="bold" lengthAdjust="spacing" textLength="14" x="550.5" y="1132.0342">28</text><text fill="#000000" font-family="sans-serif" font-size="13" lengthAdjust="spacing" textLength="186" x="568.5" y="1132.0342">chooseCloseOpenPhase(phase)</text><polygon fill="#181818" points="99.5,1174.3125,89.5,1178.3125,99.5,1182.3125,95.5,1178.3125" style="stroke:#181818;stroke-width:1.0;"/><line style="stroke:#181818;stroke-width:1.0;stroke-dasharray:2.0,2.0;" x1="93.5" x2="537.5" y1="1178.3125" y2="1178.3125"/><text fill="#000000" font-family="sans-serif" font-size="13" font-weight="bold" lengthAdjust="spacing" textLength="14" x="105.5" y="1173.5576">29</text><text fill="#000000" font-family="sans-serif" font-size="13" lengthAdjust="spacing" textLength="403" x="123.5" y="1173.5576">show current phase and asks to open/close phase or other operations</text><polygon fill="#181818" points="521.5,1202.8359,531.5,1206.8359,521.5,1210.8359,525.5,1206.8359" style="stroke:#181818;stroke-width:1.0;"/><line style="stroke:#181818;stroke-width:1.0;" x1="88.5" x2="527.5" y1="1206.8359" y2="1206.8359"/><text fill="#000000" font-family="sans-serif" font-size="13" font-weight="bold" lengthAdjust="spacing" textLength="14" x="95.5" y="1202.0811">30</text><text fill="#000000" font-family="sans-serif" font-size="13" lengthAdjust="spacing" textLength="214" x="113.5" y="1202.0811">open/close phase or other operations</text><polygon fill="#181818" points="932.5,1231.3594,942.5,1235.3594,932.5,1239.3594,936.5,1235.3594" style="stroke:#181818;stroke-width:1.0;"/><line style="stroke:#181818;stroke-width:1.0;" x1="543.5" x2="938.5" y1="1235.3594" y2="1235.3594"/><text fill="#000000" font-family="sans-serif" font-size="13" font-weight="bold" lengthAdjust="spacing" textLength="14" x="550.5" y="1230.6045">31</text><text fill="#000000" font-family="sans-serif" font-size="13" lengthAdjust="spacing" textLength="264" x="568.5" y="1230.6045">processOperation(choice, jobOpening, phase)</text><line style="stroke:#181818;stroke-width:1.0;stroke-dasharray:2.0,2.0;" x1="954.5" x2="996.5" y1="1263.8828" y2="1263.8828"/><line style="stroke:#181818;stroke-width:1.0;stroke-dasharray:2.0,2.0;" x1="996.5" x2="996.5" y1="1263.8828" y2="1276.8828"/><line style="stroke:#181818;stroke-width:1.0;stroke-dasharray:2.0,2.0;" x1="955.5" x2="996.5" y1="1276.8828" y2="1276.8828"/><polygon fill="#181818" points="965.5,1272.8828,955.5,1276.8828,965.5,1280.8828,961.5,1276.8828" style="stroke:#181818;stroke-width:1.0;"/><text fill="#000000" font-family="sans-serif" font-size="13" font-weight="bold" lengthAdjust="spacing" textLength="14" x="961.5" y="1259.1279">32</text><text fill="#000000" font-family="sans-serif" font-size="13" lengthAdjust="spacing" textLength="161" x="979.5" y="1259.1279">getIndex(jobOpening, index)</text><path d="M806.5,1291.8828 L867.5,1291.8828 L867.5,1298.4063 L857.5,1308.4063 L806.5,1308.4063 L806.5,1291.8828 " fill="#EEEEEE" style="stroke:#000000;stroke-width:1.5;"/><rect fill="none" height="73.5703" style="stroke:#000000;stroke-width:1.5;" width="472" x="806.5" y="1291.8828"/><text fill="#000000" font-family="sans-serif" font-size="13" font-weight="bold" lengthAdjust="spacing" textLength="16" x="821.5" y="1304.6514">alt</text><text fill="#000000" font-family="sans-serif" font-size="11" font-weight="bold" lengthAdjust="spacing" textLength="62" x="882.5" y="1303.8408">[choice = 1]</text><polygon fill="#181818" points="1209.5,1324.9297,1219.5,1328.9297,1209.5,1332.9297,1213.5,1328.9297" style="stroke:#181818;stroke-width:1.0;"/><line style="stroke:#181818;stroke-width:1.0;stroke-dasharray:2.0,2.0;" x1="954.5" x2="1215.5" y1="1328.9297" y2="1328.9297"/><text fill="#000000" font-family="sans-serif" font-size="13" font-weight="bold" lengthAdjust="spacing" textLength="14" x="961.5" y="1324.1748">33</text><text fill="#000000" font-family="sans-serif" font-size="13" lengthAdjust="spacing" textLength="205" x="979.5" y="1324.1748">setPhasesBeginDate(index, today);</text><polygon fill="#181818" points="1209.5,1353.4531,1219.5,1357.4531,1209.5,1361.4531,1213.5,1357.4531" style="stroke:#181818;stroke-width:1.0;"/><line style="stroke:#181818;stroke-width:1.0;" x1="954.5" x2="1215.5" y1="1357.4531" y2="1357.4531"/><text fill="#000000" font-family="sans-serif" font-size="13" font-weight="bold" lengthAdjust="spacing" textLength="14" x="961.5" y="1352.6982">34</text><text fill="#000000" font-family="sans-serif" font-size="13" lengthAdjust="spacing" textLength="120" x="979.5" y="1352.6982">currentPhase(phase)</text><path d="M806.5,1379.4531 L867.5,1379.4531 L867.5,1385.9766 L857.5,1395.9766 L806.5,1395.9766 L806.5,1379.4531 " fill="#EEEEEE" style="stroke:#000000;stroke-width:1.5;"/><rect fill="none" height="102.0938" style="stroke:#000000;stroke-width:1.5;" width="472" x="806.5" y="1379.4531"/><text fill="#000000" font-family="sans-serif" font-size="13" font-weight="bold" lengthAdjust="spacing" textLength="16" x="821.5" y="1392.2217">alt</text><text fill="#000000" font-family="sans-serif" font-size="11" font-weight="bold" lengthAdjust="spacing" textLength="62" x="882.5" y="1391.4111">[choice = 2]</text><polygon fill="#181818" points="1209.5,1412.5,1219.5,1416.5,1209.5,1420.5,1213.5,1416.5" style="stroke:#181818;stroke-width:1.0;"/><line style="stroke:#181818;stroke-width:1.0;stroke-dasharray:2.0,2.0;" x1="954.5" x2="1215.5" y1="1416.5" y2="1416.5"/><text fill="#000000" font-family="sans-serif" font-size="13" font-weight="bold" lengthAdjust="spacing" textLength="14" x="961.5" y="1411.7451">35</text><text fill="#000000" font-family="sans-serif" font-size="13" lengthAdjust="spacing" textLength="195" x="979.5" y="1411.7451">setPhasesEndDate(index, today);</text><polygon fill="#181818" points="1209.5,1441.0234,1219.5,1445.0234,1209.5,1449.0234,1213.5,1445.0234" style="stroke:#181818;stroke-width:1.0;"/><line style="stroke:#181818;stroke-width:1.0;stroke-dasharray:2.0,2.0;" x1="954.5" x2="1215.5" y1="1445.0234" y2="1445.0234"/><text fill="#000000" font-family="sans-serif" font-size="13" font-weight="bold" lengthAdjust="spacing" textLength="14" x="961.5" y="1440.2686">36</text><text fill="#000000" font-family="sans-serif" font-size="13" lengthAdjust="spacing" textLength="220" x="979.5" y="1440.2686">setPhasesBeginDate(index+1, today);</text><polygon fill="#181818" points="1209.5,1469.5469,1219.5,1473.5469,1209.5,1477.5469,1213.5,1473.5469" style="stroke:#181818;stroke-width:1.0;"/><line style="stroke:#181818;stroke-width:1.0;" x1="954.5" x2="1215.5" y1="1473.5469" y2="1473.5469"/><text fill="#000000" font-family="sans-serif" font-size="13" font-weight="bold" lengthAdjust="spacing" textLength="14" x="961.5" y="1468.792">37</text><text fill="#000000" font-family="sans-serif" font-size="13" lengthAdjust="spacing" textLength="198" x="979.5" y="1468.792">currentPhaseToNextPhase(phase)</text><path d="M806.5,1495.5469 L867.5,1495.5469 L867.5,1502.0703 L857.5,1512.0703 L806.5,1512.0703 L806.5,1495.5469 " fill="#EEEEEE" style="stroke:#000000;stroke-width:1.5;"/><rect fill="none" height="115.0938" style="stroke:#000000;stroke-width:1.5;" width="472" x="806.5" y="1495.5469"/><text fill="#000000" font-family="sans-serif" font-size="13" font-weight="bold" lengthAdjust="spacing" textLength="16" x="821.5" y="1508.3154">alt</text><text fill="#000000" font-family="sans-serif" font-size="11" font-weight="bold" lengthAdjust="spacing" textLength="62" x="882.5" y="1507.5049">[choice = 3]</text><line style="stroke:#181818;stroke-width:1.0;stroke-dasharray:2.0,2.0;" x1="954.5" x2="996.5" y1="1532.5938" y2="1532.5938"/><line style="stroke:#181818;stroke-width:1.0;stroke-dasharray:2.0,2.0;" x1="996.5" x2="996.5" y1="1532.5938" y2="1545.5938"/><line style="stroke:#181818;stroke-width:1.0;stroke-dasharray:2.0,2.0;" x1="955.5" x2="996.5" y1="1545.5938" y2="1545.5938"/><polygon fill="#181818" points="965.5,1541.5938,955.5,1545.5938,965.5,1549.5938,961.5,1545.5938" style="stroke:#181818;stroke-width:1.0;"/><text fill="#000000" font-family="sans-serif" font-size="13" font-weight="bold" lengthAdjust="spacing" textLength="14" x="961.5" y="1527.8389">38</text><text fill="#000000" font-family="sans-serif" font-size="13" lengthAdjust="spacing" textLength="196" x="979.5" y="1527.8389">canBacktrack(phase, jobOpening)</text><polygon fill="#181818" points="1209.5,1570.1172,1219.5,1574.1172,1209.5,1578.1172,1213.5,1574.1172" style="stroke:#181818;stroke-width:1.0;"/><line style="stroke:#181818;stroke-width:1.0;stroke-dasharray:2.0,2.0;" x1="954.5" x2="1215.5" y1="1574.1172" y2="1574.1172"/><text fill="#000000" font-family="sans-serif" font-size="13" font-weight="bold" lengthAdjust="spacing" textLength="14" x="961.5" y="1569.3623">39</text><text fill="#000000" font-family="sans-serif" font-size="13" lengthAdjust="spacing" textLength="206" x="979.5" y="1569.3623">setPhasesEndDate(index-1, today);</text><polygon fill="#181818" points="1209.5,1598.6406,1219.5,1602.6406,1209.5,1606.6406,1213.5,1602.6406" style="stroke:#181818;stroke-width:1.0;"/><line style="stroke:#181818;stroke-width:1.0;" x1="954.5" x2="1215.5" y1="1602.6406" y2="1602.6406"/><text fill="#000000" font-family="sans-serif" font-size="13" font-weight="bold" lengthAdjust="spacing" textLength="14" x="961.5" y="1597.8857">40</text><text fill="#000000" font-family="sans-serif" font-size="13" lengthAdjust="spacing" textLength="220" x="979.5" y="1597.8857">currentPhaseToPreviousPhase(phase)</text><polygon fill="#181818" points="1433.5,1634.1641,1443.5,1638.1641,1433.5,1642.1641,1437.5,1638.1641" style="stroke:#181818;stroke-width:1.0;"/><line style="stroke:#181818;stroke-width:1.0;" x1="954.5" x2="1439.5" y1="1638.1641" y2="1638.1641"/><text fill="#000000" font-family="sans-serif" font-size="13" font-weight="bold" lengthAdjust="spacing" textLength="14" x="961.5" y="1633.4092">41</text><text fill="#000000" font-family="sans-serif" font-size="13" lengthAdjust="spacing" textLength="99" x="979.5" y="1633.4092">save(jobOpening)</text><polygon fill="#181818" points="554.5,1662.6875,544.5,1666.6875,554.5,1670.6875,550.5,1666.6875" style="stroke:#181818;stroke-width:1.0;"/><line style="stroke:#181818;stroke-width:1.0;stroke-dasharray:2.0,2.0;" x1="548.5" x2="948.5" y1="1666.6875" y2="1666.6875"/><text fill="#000000" font-family="sans-serif" font-size="13" font-weight="bold" lengthAdjust="spacing" textLength="14" x="560.5" y="1661.9326">42</text><text fill="#000000" font-family="sans-serif" font-size="13" lengthAdjust="spacing" textLength="65" x="578.5" y="1661.9326">jobOpening</text><polygon fill="#181818" points="94.5,1691.2109,84.5,1695.2109,94.5,1699.2109,90.5,1695.2109" style="stroke:#181818;stroke-width:1.0;"/><line style="stroke:#181818;stroke-width:1.0;stroke-dasharray:2.0,2.0;" x1="88.5" x2="537.5" y1="1695.2109" y2="1695.2109"/><text fill="#000000" font-family="sans-serif" font-size="13" font-weight="bold" lengthAdjust="spacing" textLength="14" x="100.5" y="1690.4561">43</text><text fill="#000000" font-family="sans-serif" font-size="13" lengthAdjust="spacing" textLength="281" x="118.5" y="1690.4561">show sucess message and jobOpening atributes</text><!--SRC=[fLRRKY8n47tFLtJn8hYuolhcgbMA-y2MAANo0M6841oIsIIZylVRoTmoDq7WmNAIxjFtqz5lN4HKqJMifP31Kiar0wDYHdH-4z7WZIxOizc431GB31MBq1VGIpgN7rmiu9M6cX52OoD5l9unHOZX1jKwqsSOd0tEu4R3CDO6pIWOKu6ugWyZ-A32W94W8oP0AWX2gHb4IwgP1laAPebVIWPCQtZ5UmehENFIQBO3p-nVp4J0u8xJ1Rf4ZfPypb1Icfdy93GmgDEf6ku0HM_61ACmFE2HzQ5pyOYWGsj-ugp_bRF7nCnqv1Ic8xYyZ1JJJ1Xgk1JNroIGmYWPVgKzJ4J2pEpBqptYq2WAUP31b1qfT9r6yObwSxcclAxYZ3ffzr-xO07sn2AfEUPdKx5IN03YgFmBiOZDA7-dXjdq4S3VS0mdrpOt5uZofbjhMIjUefxZJKV9WVqX6cBQJ1qV8swW64gGfdjhDGmBt_Nj9YjsMkjkBrShV4VD_DG5WGU8s9Y3xHQ2M2diYQbcgaTAkBd59kIoQ9F4IH5boBL9HPmNfAmzPzymvQBDYbO3XXPSbxJIxNI4A0v4in3feR3ShQ9YNYhriw6DhUfIVcZdXHrtJBKRUQzFD50nptihiGHIi0JESp3h8AyZ4sbTQRp6liDWhjDSf_LqazHTvK7rAXrR9AJMFbMGgceXcLmKtrx9tU3KelHKZyWHj9bViCGqdYZ7CjgBf9zWztA45j-ywqOFPGv-kiAPuAyfe_cApQuJlnSXRyOqPDBQUZGqYH1SNO68mp0ldkt4hE3Moar1i5dhPIM-o3PAdfpke0z-Ubpg7kYQwPytaydzQ7ZpCdfywBNLVmknv8s5HHc9EViibOBRarvbdcsSmL9ot6nNC6WUtrAzTLflVSiMNDoXCrq7tCUXcTDDxpVvcl2g7PisYA_3x1Y6vYjFVtt7qpzYlfkVkyRwOx1dj2_oWNqU5FZv5rKFgBZ5bvHH-2U1zvkjjtVAJlOFTwBOEvUntXxoxbjIq_S6jcpSEQi68cWT-UOLv2Q-s22WO_T4n8dLk9FToYYi03MApsB3DCdtK2t2Z4EmflXiSKyvgrvAKViAonASifE_ikpQEVNUGlPf9779AOy_MvTPPQ7jZbLRSgL8YoLJPSAafSjqc4U_vIcr3zkrCTsXBFTTXgiFUHkp7SPgXpFQ0Mos9SXpSY237SfU1p9NRQRtPQojR5KZ9UyTiXyhrUVVjp4c_m40]--></g></svg>