<?xml version="1.0" encoding="us-ascii" standalone="no"?><svg xmlns="http://www.w3.org/2000/svg" xmlns:xlink="http://www.w3.org/1999/xlink" contentStyleType="text/css" height="1375.5px" preserveAspectRatio="none" style="width:1371px;height:1375px;background:#FFFFFF;" version="1.1" viewBox="0 0 1371 1375" width="1371.3px" zoomAndPan="magnify"><defs/><g><text fill="#000000" font-family="sans-serif" font-size="9.8" font-weight="bold" lengthAdjust="spacing" textLength="436.8" x="468.125" y="21.0752">"US1014 - Record the time and date for an interview with a candidate" Sequence Diagram</text><rect fill="#FFFFFF" height="1212.1115" style="stroke:#181818;stroke-width:0.6999999999999998;" width="7" x="61.95" y="93.2695"/><rect fill="#FFFFFF" height="198.0918" style="stroke:#181818;stroke-width:0.6999999999999998;" width="7" x="379.05" y="109.5732"/><rect fill="#FFFFFF" height="133.726" style="stroke:#181818;stroke-width:0.6999999999999998;" width="7" x="379.05" y="329.5687"/><rect fill="#FFFFFF" height="164.2334" style="stroke:#181818;stroke-width:0.6999999999999998;" width="7" x="379.05" y="485.1984"/><rect fill="#FFFFFF" height="40.3074" style="stroke:#181818;stroke-width:0.6999999999999998;" width="7" x="379.05" y="671.3355"/><rect fill="#FFFFFF" height="280.7861" style="stroke:#181818;stroke-width:0.6999999999999998;" width="7" x="379.05" y="733.5467"/><rect fill="#FFFFFF" height="269.1445" style="stroke:#181818;stroke-width:0.6999999999999998;" width="7" x="379.05" y="1036.2365"/><rect fill="#FFFFFF" height="86.7111" style="stroke:#181818;stroke-width:0.6999999999999998;" width="7" x="668.15" y="186.9465"/><rect fill="#FFFFFF" height="65.7111" style="stroke:#181818;stroke-width:0.6999999999999998;" width="7" x="668.15" y="351.4725"/><rect fill="#FFFFFF" height="65.7111" style="stroke:#181818;stroke-width:0.6999999999999998;" width="7" x="668.15" y="507.1021"/><rect fill="#FFFFFF" height="65.7111" style="stroke:#181818;stroke-width:0.6999999999999998;" width="7" x="668.15" y="755.4504"/><rect fill="#FFFFFF" height="109.5186" style="stroke:#181818;stroke-width:0.6999999999999998;" width="7" x="668.15" y="861.4689"/><rect fill="#FFFFFF" height="65.7111" style="stroke:#181818;stroke-width:0.6999999999999998;" width="7" x="668.15" y="1058.1402"/><rect fill="#FFFFFF" height="109.5186" style="stroke:#181818;stroke-width:0.6999999999999998;" width="7" x="668.15" y="1164.1588"/><rect fill="#FFFFFF" height="21.9037" style="stroke:#181818;stroke-width:0.6999999999999998;" width="7" x="988.75" y="229.8502"/><rect fill="#FFFFFF" height="21.9037" style="stroke:#181818;stroke-width:0.6999999999999998;" width="7" x="1114.4" y="373.3762"/><rect fill="#FFFFFF" height="21.9037" style="stroke:#181818;stroke-width:0.6999999999999998;" width="7" x="1232.7" y="529.0059"/><rect fill="#FFFFFF" height="21.9037" style="stroke:#181818;stroke-width:0.6999999999999998;" width="7" x="1232.7" y="777.3541"/><rect fill="#FFFFFF" height="21.9037" style="stroke:#181818;stroke-width:0.6999999999999998;" width="7" x="1232.7" y="927.1801"/><rect fill="#FFFFFF" height="21.9037" style="stroke:#181818;stroke-width:0.6999999999999998;" width="7" x="1232.7" y="1080.0439"/><rect fill="#FFFFFF" height="21.9037" style="stroke:#181818;stroke-width:0.6999999999999998;" width="7" x="1232.7" y="1229.8699"/><rect fill="#FFFFFF" height="21.9037" style="stroke:#181818;stroke-width:0.6999999999999998;" width="7" x="1315.65" y="1186.0625"/><rect fill="none" height="700.8641" style="stroke:#000000;stroke-width:1.0499999999999998;" width="1359.75" x="7" y="583.3133"/><rect fill="none" height="299.652" style="stroke:#000000;stroke-width:1.0499999999999998;" width="1345.75" x="14" y="681.8355"/><rect fill="none" height="144.926" style="stroke:#000000;stroke-width:1.0499999999999998;" width="1052.1" x="300.65" y="831.6615"/><rect fill="none" height="144.926" style="stroke:#000000;stroke-width:1.0499999999999998;" width="1052.1" x="300.65" y="1134.3514"/><line style="stroke:#181818;stroke-width:0.3499999999999999;stroke-dasharray:5.0,5.0;" x1="65.1" x2="65.1" y1="86.2695" y2="1317.9811"/><line style="stroke:#181818;stroke-width:0.3499999999999999;stroke-dasharray:5.0,5.0;" x1="382.55" x2="382.55" y1="86.2695" y2="1317.9811"/><line style="stroke:#181818;stroke-width:0.3499999999999999;stroke-dasharray:5.0,5.0;" x1="671.65" x2="671.65" y1="149.908" y2="1317.9811"/><line style="stroke:#181818;stroke-width:0.3499999999999999;stroke-dasharray:5.0,5.0;" x1="992.25" x2="992.25" y1="86.2695" y2="1317.9811"/><line style="stroke:#181818;stroke-width:0.3499999999999999;stroke-dasharray:5.0,5.0;" x1="1117.55" x2="1117.55" y1="86.2695" y2="1317.9811"/><line style="stroke:#181818;stroke-width:0.3499999999999999;stroke-dasharray:5.0,5.0;" x1="1235.85" x2="1235.85" y1="86.2695" y2="1317.9811"/><line style="stroke:#181818;stroke-width:0.3499999999999999;stroke-dasharray:5.0,5.0;" x1="1319.15" x2="1319.15" y1="86.2695" y2="1317.9811"/><text fill="#000000" font-family="sans-serif" font-size="9.8" lengthAdjust="spacing" textLength="84.7" x="21" y="83.81">Customer Manager</text><ellipse cx="65.45" cy="37.1848" fill="#E3E3E3" rx="5.6" ry="5.6" style="stroke:#181818;stroke-width:0.3499999999999999;"/><path d="M65.45,42.7848 L65.45,61.6848 M56.35,48.3848 L74.55,48.3848 M65.45,61.6848 L56.35,72.1848 M65.45,61.6848 L74.55,72.1848 " fill="none" style="stroke:#181818;stroke-width:0.3499999999999999;"/><text fill="#000000" font-family="sans-serif" font-size="9.8" lengthAdjust="spacing" textLength="84.7" x="21" y="1327.8562">Customer Manager</text><ellipse cx="65.45" cy="1336.2658" fill="#E3E3E3" rx="5.6" ry="5.6" style="stroke:#181818;stroke-width:0.3499999999999999;"/><path d="M65.45,1341.8658 L65.45,1360.7658 M56.35,1347.4658 L74.55,1347.4658 M65.45,1360.7658 L56.35,1371.2658 M65.45,1360.7658 L74.55,1371.2658 " fill="none" style="stroke:#181818;stroke-width:0.3499999999999999;"/><rect fill="#E3E3E3" height="35.8695" rx="1.75" ry="1.75" style="stroke:#181818;stroke-width:0.3499999999999999;" width="149.8" x="307.65" y="49.7"/><text fill="#000000" font-family="sans-serif" font-size="9.8" font-style="italic" lengthAdjust="spacing" textLength="66.5" x="349.3" y="65.1752">&#171;presentation&#187;</text><text fill="#000000" font-family="sans-serif" font-size="9.8" lengthAdjust="spacing" textLength="140" x="312.55" y="78.21">:RecordTimeDateForInterviewUI</text><rect fill="#E3E3E3" height="35.8695" rx="1.75" ry="1.75" style="stroke:#181818;stroke-width:0.3499999999999999;" width="149.8" x="307.65" y="1317.2811"/><text fill="#000000" font-family="sans-serif" font-size="9.8" font-style="italic" lengthAdjust="spacing" textLength="66.5" x="349.3" y="1332.7562">&#171;presentation&#187;</text><text fill="#000000" font-family="sans-serif" font-size="9.8" lengthAdjust="spacing" textLength="140" x="312.55" y="1345.791">:RecordTimeDateForInterviewUI</text><text fill="#000000" font-family="sans-serif" font-size="9.8" font-style="italic" lengthAdjust="spacing" textLength="58.8" x="640.15" y="1327.8562">&#171;application&#187;</text><text fill="#000000" font-family="sans-serif" font-size="9.8" lengthAdjust="spacing" textLength="175" x="582.05" y="1340.891">:RecordTimeDateForInterviewController</text><ellipse cx="671.65" cy="1354.5506" fill="#E3E3E3" rx="8.4" ry="8.4" style="stroke:#181818;stroke-width:0.3499999999999999;"/><polygon fill="#181818" points="668.85,1346.1506,673.05,1342.6506,671.65,1346.1506,673.05,1349.6506,668.85,1346.1506" style="stroke:#181818;stroke-width:0.6999999999999998;"/><rect fill="#E3E3E3" height="35.8695" rx="1.75" ry="1.75" style="stroke:#181818;stroke-width:0.3499999999999999;" width="113.4" x="935.55" y="49.7"/><text fill="#000000" font-family="sans-serif" font-size="9.8" font-style="italic" lengthAdjust="spacing" textLength="55.3" x="964.6" y="65.1752">&#171;repository&#187;</text><text fill="#000000" font-family="sans-serif" font-size="9.8" lengthAdjust="spacing" textLength="103.6" x="940.45" y="78.21">:JobOpeningRepository</text><rect fill="#E3E3E3" height="35.8695" rx="1.75" ry="1.75" style="stroke:#181818;stroke-width:0.3499999999999999;" width="113.4" x="935.55" y="1317.2811"/><text fill="#000000" font-family="sans-serif" font-size="9.8" font-style="italic" lengthAdjust="spacing" textLength="55.3" x="964.6" y="1332.7562">&#171;repository&#187;</text><text fill="#000000" font-family="sans-serif" font-size="9.8" lengthAdjust="spacing" textLength="103.6" x="940.45" y="1345.791">:JobOpeningRepository</text><rect fill="#E3E3E3" height="35.8695" rx="1.75" ry="1.75" style="stroke:#181818;stroke-width:0.3499999999999999;" width="123.9" x="1055.95" y="49.7"/><text fill="#000000" font-family="sans-serif" font-size="9.8" font-style="italic" lengthAdjust="spacing" textLength="55.3" x="1090.25" y="65.1752">&#171;repository&#187;</text><text fill="#000000" font-family="sans-serif" font-size="9.8" lengthAdjust="spacing" textLength="114.1" x="1060.85" y="78.21">:JobApplicationRepository</text><rect fill="#E3E3E3" height="35.8695" rx="1.75" ry="1.75" style="stroke:#181818;stroke-width:0.3499999999999999;" width="123.9" x="1055.95" y="1317.2811"/><text fill="#000000" font-family="sans-serif" font-size="9.8" font-style="italic" lengthAdjust="spacing" textLength="55.3" x="1090.25" y="1332.7562">&#171;repository&#187;</text><text fill="#000000" font-family="sans-serif" font-size="9.8" lengthAdjust="spacing" textLength="114.1" x="1060.85" y="1345.791">:JobApplicationRepository</text><rect fill="#E3E3E3" height="35.8695" rx="1.75" ry="1.75" style="stroke:#181818;stroke-width:0.3499999999999999;" width="98.7" x="1186.85" y="49.7"/><text fill="#000000" font-family="sans-serif" font-size="9.8" font-style="italic" lengthAdjust="spacing" textLength="55.3" x="1208.55" y="65.1752">&#171;repository&#187;</text><text fill="#000000" font-family="sans-serif" font-size="9.8" lengthAdjust="spacing" textLength="88.9" x="1191.75" y="78.21">:InterviewRepository</text><rect fill="#E3E3E3" height="35.8695" rx="1.75" ry="1.75" style="stroke:#181818;stroke-width:0.3499999999999999;" width="98.7" x="1186.85" y="1317.2811"/><text fill="#000000" font-family="sans-serif" font-size="9.8" font-style="italic" lengthAdjust="spacing" textLength="55.3" x="1208.55" y="1332.7562">&#171;repository&#187;</text><text fill="#000000" font-family="sans-serif" font-size="9.8" lengthAdjust="spacing" textLength="88.9" x="1191.75" y="1345.791">:InterviewRepository</text><rect fill="#E3E3E3" height="35.8695" rx="1.75" ry="1.75" style="stroke:#181818;stroke-width:0.3499999999999999;" width="53.2" x="1292.55" y="49.7"/><text fill="#000000" font-family="sans-serif" font-size="9.8" font-style="italic" lengthAdjust="spacing" textLength="43.4" x="1297.45" y="65.1752">&#171;domain&#187;</text><text fill="#000000" font-family="sans-serif" font-size="9.8" lengthAdjust="spacing" textLength="41.3" x="1298.5" y="78.21">:Interview</text><rect fill="#E3E3E3" height="35.8695" rx="1.75" ry="1.75" style="stroke:#181818;stroke-width:0.3499999999999999;" width="53.2" x="1292.55" y="1317.2811"/><text fill="#000000" font-family="sans-serif" font-size="9.8" font-style="italic" lengthAdjust="spacing" textLength="43.4" x="1297.45" y="1332.7562">&#171;domain&#187;</text><text fill="#000000" font-family="sans-serif" font-size="9.8" lengthAdjust="spacing" textLength="41.3" x="1298.5" y="1345.791">:Interview</text><rect fill="#FFFFFF" height="1212.1115" style="stroke:#181818;stroke-width:0.6999999999999998;" width="7" x="61.95" y="93.2695"/><rect fill="#FFFFFF" height="198.0918" style="stroke:#181818;stroke-width:0.6999999999999998;" width="7" x="379.05" y="109.5732"/><rect fill="#FFFFFF" height="133.726" style="stroke:#181818;stroke-width:0.6999999999999998;" width="7" x="379.05" y="329.5687"/><rect fill="#FFFFFF" height="164.2334" style="stroke:#181818;stroke-width:0.6999999999999998;" width="7" x="379.05" y="485.1984"/><rect fill="#FFFFFF" height="40.3074" style="stroke:#181818;stroke-width:0.6999999999999998;" width="7" x="379.05" y="671.3355"/><rect fill="#FFFFFF" height="280.7861" style="stroke:#181818;stroke-width:0.6999999999999998;" width="7" x="379.05" y="733.5467"/><rect fill="#FFFFFF" height="269.1445" style="stroke:#181818;stroke-width:0.6999999999999998;" width="7" x="379.05" y="1036.2365"/><rect fill="#FFFFFF" height="86.7111" style="stroke:#181818;stroke-width:0.6999999999999998;" width="7" x="668.15" y="186.9465"/><rect fill="#FFFFFF" height="65.7111" style="stroke:#181818;stroke-width:0.6999999999999998;" width="7" x="668.15" y="351.4725"/><rect fill="#FFFFFF" height="65.7111" style="stroke:#181818;stroke-width:0.6999999999999998;" width="7" x="668.15" y="507.1021"/><rect fill="#FFFFFF" height="65.7111" style="stroke:#181818;stroke-width:0.6999999999999998;" width="7" x="668.15" y="755.4504"/><rect fill="#FFFFFF" height="109.5186" style="stroke:#181818;stroke-width:0.6999999999999998;" width="7" x="668.15" y="861.4689"/><rect fill="#FFFFFF" height="65.7111" style="stroke:#181818;stroke-width:0.6999999999999998;" width="7" x="668.15" y="1058.1402"/><rect fill="#FFFFFF" height="109.5186" style="stroke:#181818;stroke-width:0.6999999999999998;" width="7" x="668.15" y="1164.1588"/><rect fill="#FFFFFF" height="21.9037" style="stroke:#181818;stroke-width:0.6999999999999998;" width="7" x="988.75" y="229.8502"/><rect fill="#FFFFFF" height="21.9037" style="stroke:#181818;stroke-width:0.6999999999999998;" width="7" x="1114.4" y="373.3762"/><rect fill="#FFFFFF" height="21.9037" style="stroke:#181818;stroke-width:0.6999999999999998;" width="7" x="1232.7" y="529.0059"/><rect fill="#FFFFFF" height="21.9037" style="stroke:#181818;stroke-width:0.6999999999999998;" width="7" x="1232.7" y="777.3541"/><rect fill="#FFFFFF" height="21.9037" style="stroke:#181818;stroke-width:0.6999999999999998;" width="7" x="1232.7" y="927.1801"/><rect fill="#FFFFFF" height="21.9037" style="stroke:#181818;stroke-width:0.6999999999999998;" width="7" x="1232.7" y="1080.0439"/><rect fill="#FFFFFF" height="21.9037" style="stroke:#181818;stroke-width:0.6999999999999998;" width="7" x="1232.7" y="1229.8699"/><rect fill="#FFFFFF" height="21.9037" style="stroke:#181818;stroke-width:0.6999999999999998;" width="7" x="1315.65" y="1186.0625"/><polygon fill="#181818" points="370.65,106.7732,377.65,109.5732,370.65,112.3732,373.45,109.5732" style="stroke:#181818;stroke-width:0.6999999999999998;"/><line style="stroke:#181818;stroke-width:0.6999999999999998;" x1="68.95" x2="374.85" y1="109.5732" y2="109.5732"/><text fill="#000000" font-family="sans-serif" font-size="9.1" font-weight="bold" lengthAdjust="spacing" textLength="4.9" x="73.85" y="105.8894">1</text><text fill="#000000" font-family="sans-serif" font-size="9.1" lengthAdjust="spacing" textLength="262.5" x="81.55" y="105.8894">asks to record the time and date for an interview with a candidate</text><polygon fill="#181818" points="573.65,128.677,580.65,131.477,573.65,134.277,576.45,131.477" style="stroke:#181818;stroke-width:0.6999999999999998;"/><line style="stroke:#181818;stroke-width:0.6999999999999998;" x1="386.05" x2="577.85" y1="131.477" y2="131.477"/><text fill="#000000" font-family="sans-serif" font-size="9.1" font-weight="bold" lengthAdjust="spacing" textLength="4.9" x="390.95" y="127.7931">2</text><text fill="#000000" font-family="sans-serif" font-size="9.1" lengthAdjust="spacing" textLength="25.2" x="398.65" y="127.7931">create</text><text fill="#000000" font-family="sans-serif" font-size="9.8" font-style="italic" lengthAdjust="spacing" textLength="58.8" x="640.15" y="148.1484">&#171;application&#187;</text><text fill="#000000" font-family="sans-serif" font-size="9.8" lengthAdjust="spacing" textLength="175" x="582.05" y="161.1832">:RecordTimeDateForInterviewController</text><ellipse cx="671.65" cy="126.3732" fill="#E3E3E3" rx="8.4" ry="8.4" style="stroke:#181818;stroke-width:0.3499999999999999;"/><polygon fill="#181818" points="668.85,117.9732,673.05,114.4732,671.65,117.9732,673.05,121.4732,668.85,117.9732" style="stroke:#181818;stroke-width:0.6999999999999998;"/><polygon fill="#181818" points="659.75,184.1465,666.75,186.9465,659.75,189.7465,662.55,186.9465" style="stroke:#181818;stroke-width:0.6999999999999998;"/><line style="stroke:#181818;stroke-width:0.6999999999999998;" x1="386.05" x2="663.95" y1="186.9465" y2="186.9465"/><text fill="#000000" font-family="sans-serif" font-size="9.1" font-weight="bold" lengthAdjust="spacing" textLength="4.9" x="390.95" y="183.2626">3</text><text fill="#000000" font-family="sans-serif" font-size="9.1" lengthAdjust="spacing" textLength="135.8" x="398.65" y="183.2626">findAllJobOpeningsWithInterview()</text><polygon fill="#181818" points="980.35,227.0502,987.35,229.8502,980.35,232.6502,983.15,229.8502" style="stroke:#181818;stroke-width:0.6999999999999998;"/><line style="stroke:#181818;stroke-width:0.6999999999999998;" x1="675.15" x2="984.55" y1="229.8502" y2="229.8502"/><text fill="#000000" font-family="sans-serif" font-size="9.1" font-weight="bold" lengthAdjust="spacing" textLength="4.9" x="680.05" y="226.1663">4</text><text fill="#000000" font-family="sans-serif" font-size="9.1" lengthAdjust="spacing" textLength="292.6" x="687.75" y="226.1663">findAllActiveJobOpeningsWithInterviewByCustomerManager(currentUser)</text><polygon fill="#181818" points="682.85,248.9539,675.85,251.7539,682.85,254.5539,680.05,251.7539" style="stroke:#181818;stroke-width:0.6999999999999998;"/><line style="stroke:#181818;stroke-width:0.6999999999999998;stroke-dasharray:2.0,2.0;" x1="678.65" x2="991.55" y1="251.7539" y2="251.7539"/><text fill="#000000" font-family="sans-serif" font-size="9.1" font-weight="bold" lengthAdjust="spacing" textLength="4.9" x="687.05" y="248.07">5</text><text fill="#000000" font-family="sans-serif" font-size="9.1" lengthAdjust="spacing" textLength="50.4" x="694.75" y="248.07">jobOpenings</text><polygon fill="#181818" points="393.75,270.8576,386.75,273.6576,393.75,276.4576,390.95,273.6576" style="stroke:#181818;stroke-width:0.6999999999999998;"/><line style="stroke:#181818;stroke-width:0.6999999999999998;stroke-dasharray:2.0,2.0;" x1="389.55" x2="670.95" y1="273.6576" y2="273.6576"/><text fill="#000000" font-family="sans-serif" font-size="9.1" font-weight="bold" lengthAdjust="spacing" textLength="4.9" x="397.95" y="269.9737">6</text><text fill="#000000" font-family="sans-serif" font-size="9.1" lengthAdjust="spacing" textLength="50.4" x="405.65" y="269.9737">jobOpenings</text><polygon fill="#181818" points="76.65,304.865,69.65,307.665,76.65,310.465,73.85,307.665" style="stroke:#181818;stroke-width:0.6999999999999998;"/><line style="stroke:#181818;stroke-width:0.6999999999999998;stroke-dasharray:2.0,2.0;" x1="72.45" x2="381.85" y1="307.665" y2="307.665"/><text fill="#000000" font-family="sans-serif" font-size="9.1" font-weight="bold" lengthAdjust="spacing" textLength="4.9" x="80.85" y="297.9293">7</text><text fill="#000000" font-family="sans-serif" font-size="9.1" lengthAdjust="spacing" textLength="178.5" x="88.55" y="291.8774">shows a list of all the job openings that have</text><text fill="#000000" font-family="sans-serif" font-size="9.1" lengthAdjust="spacing" textLength="172.2" x="91.35" y="303.9812">the Interview phase and asks to select one</text><polygon fill="#181818" points="370.65,326.7687,377.65,329.5687,370.65,332.3687,373.45,329.5687" style="stroke:#181818;stroke-width:0.6999999999999998;"/><line style="stroke:#181818;stroke-width:0.6999999999999998;" x1="68.95" x2="374.85" y1="329.5687" y2="329.5687"/><text fill="#000000" font-family="sans-serif" font-size="9.1" font-weight="bold" lengthAdjust="spacing" textLength="4.9" x="73.85" y="325.8849">8</text><text fill="#000000" font-family="sans-serif" font-size="9.1" lengthAdjust="spacing" textLength="86.1" x="81.55" y="325.8849">selects a job opening</text><polygon fill="#181818" points="659.75,348.6725,666.75,351.4725,659.75,354.2725,662.55,351.4725" style="stroke:#181818;stroke-width:0.6999999999999998;"/><line style="stroke:#181818;stroke-width:0.6999999999999998;" x1="386.05" x2="663.95" y1="351.4725" y2="351.4725"/><text fill="#000000" font-family="sans-serif" font-size="9.1" font-weight="bold" lengthAdjust="spacing" textLength="4.9" x="390.95" y="347.7886">9</text><text fill="#000000" font-family="sans-serif" font-size="9.1" lengthAdjust="spacing" textLength="261.1" x="398.65" y="347.7886">getAcceptedJobApplicationsByJobOpening(selectedJobOpening)</text><polygon fill="#181818" points="1106,370.5762,1113,373.3762,1106,376.1762,1108.8,373.3762" style="stroke:#181818;stroke-width:0.6999999999999998;"/><line style="stroke:#181818;stroke-width:0.6999999999999998;" x1="675.15" x2="1110.2" y1="373.3762" y2="373.3762"/><text fill="#000000" font-family="sans-serif" font-size="9.1" font-weight="bold" lengthAdjust="spacing" textLength="9.8" x="680.05" y="369.6923">10</text><text fill="#000000" font-family="sans-serif" font-size="9.1" lengthAdjust="spacing" textLength="212.1" x="692.65" y="369.6923">findAcceptedApplicationsByJobOpening(jobOpening)</text><polygon fill="#181818" points="682.85,392.4799,675.85,395.2799,682.85,398.0799,680.05,395.2799" style="stroke:#181818;stroke-width:0.6999999999999998;"/><line style="stroke:#181818;stroke-width:0.6999999999999998;stroke-dasharray:2.0,2.0;" x1="678.65" x2="1117.2" y1="395.2799" y2="395.2799"/><text fill="#000000" font-family="sans-serif" font-size="9.1" font-weight="bold" lengthAdjust="spacing" textLength="9.8" x="687.05" y="391.596">11</text><text fill="#000000" font-family="sans-serif" font-size="9.1" lengthAdjust="spacing" textLength="61.6" x="699.65" y="391.596">jobApplications</text><polygon fill="#181818" points="393.75,414.3836,386.75,417.1836,393.75,419.9836,390.95,417.1836" style="stroke:#181818;stroke-width:0.6999999999999998;"/><line style="stroke:#181818;stroke-width:0.6999999999999998;stroke-dasharray:2.0,2.0;" x1="389.55" x2="670.95" y1="417.1836" y2="417.1836"/><text fill="#000000" font-family="sans-serif" font-size="9.1" font-weight="bold" lengthAdjust="spacing" textLength="9.8" x="397.95" y="413.4997">12</text><text fill="#000000" font-family="sans-serif" font-size="9.1" lengthAdjust="spacing" textLength="61.6" x="410.55" y="413.4997">jobApplications</text><polygon fill="#181818" points="76.65,460.4947,69.65,463.2947,76.65,466.0947,73.85,463.2947" style="stroke:#181818;stroke-width:0.6999999999999998;"/><line style="stroke:#181818;stroke-width:0.6999999999999998;stroke-dasharray:2.0,2.0;" x1="72.45" x2="381.85" y1="463.2947" y2="463.2947"/><text fill="#000000" font-family="sans-serif" font-size="9.1" font-weight="bold" lengthAdjust="spacing" textLength="9.8" x="80.85" y="447.5071">13</text><text fill="#000000" font-family="sans-serif" font-size="9.1" lengthAdjust="spacing" textLength="198.8" x="93.45" y="435.4034">list of candidates who applied for that job opening</text><text fill="#000000" font-family="sans-serif" font-size="9.1" lengthAdjust="spacing" textLength="174.3" x="96.25" y="447.5071">and whose application was accepted at the</text><text fill="#000000" font-family="sans-serif" font-size="9.1" lengthAdjust="spacing" textLength="161.7" x="96.25" y="459.6108">screening phase and asks to select one</text><polygon fill="#181818" points="370.65,482.3984,377.65,485.1984,370.65,487.9984,373.45,485.1984" style="stroke:#181818;stroke-width:0.6999999999999998;"/><line style="stroke:#181818;stroke-width:0.6999999999999998;" x1="68.95" x2="374.85" y1="485.1984" y2="485.1984"/><text fill="#000000" font-family="sans-serif" font-size="9.1" font-weight="bold" lengthAdjust="spacing" textLength="9.8" x="73.85" y="481.5146">14</text><text fill="#000000" font-family="sans-serif" font-size="9.1" lengthAdjust="spacing" textLength="79.1" x="86.45" y="481.5146">selects a candidate</text><polygon fill="#181818" points="659.75,504.3021,666.75,507.1021,659.75,509.9021,662.55,507.1021" style="stroke:#181818;stroke-width:0.6999999999999998;"/><line style="stroke:#181818;stroke-width:0.6999999999999998;" x1="386.05" x2="663.95" y1="507.1021" y2="507.1021"/><text fill="#000000" font-family="sans-serif" font-size="9.1" font-weight="bold" lengthAdjust="spacing" textLength="9.8" x="390.95" y="503.4183">15</text><text fill="#000000" font-family="sans-serif" font-size="9.1" lengthAdjust="spacing" textLength="201.6" x="403.55" y="503.4183">indInterviewsByJobApplication(selectedCandidate)</text><polygon fill="#181818" points="1224.3,526.2059,1231.3,529.0059,1224.3,531.8059,1227.1,529.0059" style="stroke:#181818;stroke-width:0.6999999999999998;"/><line style="stroke:#181818;stroke-width:0.6999999999999998;" x1="675.15" x2="1228.5" y1="529.0059" y2="529.0059"/><text fill="#000000" font-family="sans-serif" font-size="9.1" font-weight="bold" lengthAdjust="spacing" textLength="9.8" x="680.05" y="525.322">16</text><text fill="#000000" font-family="sans-serif" font-size="9.1" lengthAdjust="spacing" textLength="292.6" x="692.65" y="525.322">findAllActiveJobOpeningsWithInterviewByCustomerManager(currentUser)</text><polygon fill="#181818" points="682.85,548.1096,675.85,550.9096,682.85,553.7096,680.05,550.9096" style="stroke:#181818;stroke-width:0.6999999999999998;"/><line style="stroke:#181818;stroke-width:0.6999999999999998;stroke-dasharray:2.0,2.0;" x1="678.65" x2="1235.5" y1="550.9096" y2="550.9096"/><text fill="#000000" font-family="sans-serif" font-size="9.1" font-weight="bold" lengthAdjust="spacing" textLength="9.8" x="687.05" y="547.2257">17</text><text fill="#000000" font-family="sans-serif" font-size="9.1" lengthAdjust="spacing" textLength="70.7" x="699.65" y="547.2257">existingInterviews</text><polygon fill="#181818" points="393.75,570.0133,386.75,572.8133,393.75,575.6133,390.95,572.8133" style="stroke:#181818;stroke-width:0.6999999999999998;"/><line style="stroke:#181818;stroke-width:0.6999999999999998;stroke-dasharray:2.0,2.0;" x1="389.55" x2="670.95" y1="572.8133" y2="572.8133"/><text fill="#000000" font-family="sans-serif" font-size="9.1" font-weight="bold" lengthAdjust="spacing" textLength="9.8" x="397.95" y="569.1294">18</text><text fill="#000000" font-family="sans-serif" font-size="9.1" lengthAdjust="spacing" textLength="70.7" x="410.55" y="569.1294">existingInterviews</text><path d="M7,583.3133 L49.7,583.3133 L49.7,589.817 L42.7,596.817 L7,596.817 L7,583.3133 " fill="#EEEEEE" style="stroke:#000000;stroke-width:1.0499999999999998;"/><rect fill="none" height="700.8641" style="stroke:#000000;stroke-width:1.0499999999999998;" width="1359.75" x="7" y="583.3133"/><text fill="#000000" font-family="sans-serif" font-size="9.1" font-weight="bold" lengthAdjust="spacing" textLength="11.2" x="17.5" y="593.8331">alt</text><text fill="#000000" font-family="sans-serif" font-size="7.7" font-weight="bold" lengthAdjust="spacing" textLength="118.3" x="60.2" y="593.0224">[!existingInterviews.isEmpty()]</text><polygon fill="#181818" points="76.65,646.6318,69.65,649.4318,76.65,652.2318,73.85,649.4318" style="stroke:#181818;stroke-width:0.6999999999999998;"/><line style="stroke:#181818;stroke-width:0.6999999999999998;stroke-dasharray:2.0,2.0;" x1="72.45" x2="381.85" y1="649.4318" y2="649.4318"/><text fill="#000000" font-family="sans-serif" font-size="9.1" font-weight="bold" lengthAdjust="spacing" textLength="9.8" x="80.85" y="627.5924">19</text><text fill="#000000" font-family="sans-serif" font-size="9.1" lengthAdjust="spacing" textLength="149.8" x="93.45" y="609.4368">shows the appointment made for that</text><text fill="#000000" font-family="sans-serif" font-size="9.1" lengthAdjust="spacing" textLength="215.6" x="93.45" y="621.5405">Job Opening and Job Application. Shows a menu and</text><text fill="#000000" font-family="sans-serif" font-size="9.1" lengthAdjust="spacing" textLength="214.2" x="93.45" y="633.6442">asks the user to select one (the options are 1.update</text><text fill="#000000" font-family="sans-serif" font-size="9.1" lengthAdjust="spacing" textLength="140.7" x="93.45" y="645.7479">the interview appointment or 0.exit)</text><polygon fill="#181818" points="370.65,668.5355,377.65,671.3355,370.65,674.1355,373.45,671.3355" style="stroke:#181818;stroke-width:0.6999999999999998;"/><line style="stroke:#181818;stroke-width:0.6999999999999998;" x1="68.95" x2="374.85" y1="671.3355" y2="671.3355"/><text fill="#000000" font-family="sans-serif" font-size="9.1" font-weight="bold" lengthAdjust="spacing" textLength="9.8" x="73.85" y="667.6517">20</text><text fill="#000000" font-family="sans-serif" font-size="9.1" lengthAdjust="spacing" textLength="56.7" x="86.45" y="667.6517">selects option</text><path d="M14,681.8355 L56.7,681.8355 L56.7,688.3393 L49.7,695.3393 L14,695.3393 L14,681.8355 " fill="#EEEEEE" style="stroke:#000000;stroke-width:1.0499999999999998;"/><rect fill="none" height="299.652" style="stroke:#000000;stroke-width:1.0499999999999998;" width="1345.75" x="14" y="681.8355"/><text fill="#000000" font-family="sans-serif" font-size="9.1" font-weight="bold" lengthAdjust="spacing" textLength="11.2" x="24.5" y="692.3554">alt</text><text fill="#000000" font-family="sans-serif" font-size="7.7" font-weight="bold" lengthAdjust="spacing" textLength="39.2" x="67.2" y="691.5446">[choice=1]</text><polygon fill="#181818" points="76.65,708.843,69.65,711.643,76.65,714.443,73.85,711.643" style="stroke:#181818;stroke-width:0.6999999999999998;"/><line style="stroke:#181818;stroke-width:0.6999999999999998;stroke-dasharray:2.0,2.0;" x1="72.45" x2="381.85" y1="711.643" y2="711.643"/><text fill="#000000" font-family="sans-serif" font-size="9.1" font-weight="bold" lengthAdjust="spacing" textLength="9.8" x="80.85" y="707.9591">21</text><text fill="#000000" font-family="sans-serif" font-size="9.1" lengthAdjust="spacing" textLength="155.4" x="93.45" y="707.9591">asks to type the wanted date and hour</text><polygon fill="#181818" points="370.65,730.7467,377.65,733.5467,370.65,736.3467,373.45,733.5467" style="stroke:#181818;stroke-width:0.6999999999999998;"/><line style="stroke:#181818;stroke-width:0.6999999999999998;" x1="68.95" x2="374.85" y1="733.5467" y2="733.5467"/><text fill="#000000" font-family="sans-serif" font-size="9.1" font-weight="bold" lengthAdjust="spacing" textLength="9.8" x="73.85" y="729.8628">22</text><text fill="#000000" font-family="sans-serif" font-size="9.1" lengthAdjust="spacing" textLength="130.2" x="86.45" y="729.8628">types the  wanted date and time</text><polygon fill="#181818" points="659.75,752.6504,666.75,755.4504,659.75,758.2504,662.55,755.4504" style="stroke:#181818;stroke-width:0.6999999999999998;"/><line style="stroke:#181818;stroke-width:0.6999999999999998;" x1="386.05" x2="663.95" y1="755.4504" y2="755.4504"/><text fill="#000000" font-family="sans-serif" font-size="9.1" font-weight="bold" lengthAdjust="spacing" textLength="9.8" x="390.95" y="751.7665">23</text><text fill="#000000" font-family="sans-serif" font-size="9.1" lengthAdjust="spacing" textLength="199.5" x="403.55" y="751.7665">findEqualInterview(selectedJobOpening,date,hour)</text><polygon fill="#181818" points="1224.3,774.5541,1231.3,777.3541,1224.3,780.1541,1227.1,777.3541" style="stroke:#181818;stroke-width:0.6999999999999998;"/><line style="stroke:#181818;stroke-width:0.6999999999999998;" x1="675.15" x2="1228.5" y1="777.3541" y2="777.3541"/><text fill="#000000" font-family="sans-serif" font-size="9.1" font-weight="bold" lengthAdjust="spacing" textLength="9.8" x="680.05" y="773.6702">24</text><text fill="#000000" font-family="sans-serif" font-size="9.1" lengthAdjust="spacing" textLength="134.4" x="692.65" y="773.6702">findEqual(jobOpening, date, hour)</text><polygon fill="#181818" points="682.85,796.4578,675.85,799.2578,682.85,802.0578,680.05,799.2578" style="stroke:#181818;stroke-width:0.6999999999999998;"/><line style="stroke:#181818;stroke-width:0.6999999999999998;stroke-dasharray:2.0,2.0;" x1="678.65" x2="1235.5" y1="799.2578" y2="799.2578"/><text fill="#000000" font-family="sans-serif" font-size="9.1" font-weight="bold" lengthAdjust="spacing" textLength="9.8" x="687.05" y="795.5739">25</text><text fill="#000000" font-family="sans-serif" font-size="9.1" lengthAdjust="spacing" textLength="39.2" x="699.65" y="795.5739">interviews</text><polygon fill="#181818" points="393.75,818.3615,386.75,821.1615,393.75,823.9615,390.95,821.1615" style="stroke:#181818;stroke-width:0.6999999999999998;"/><line style="stroke:#181818;stroke-width:0.6999999999999998;stroke-dasharray:2.0,2.0;" x1="389.55" x2="670.95" y1="821.1615" y2="821.1615"/><text fill="#000000" font-family="sans-serif" font-size="9.1" font-weight="bold" lengthAdjust="spacing" textLength="9.8" x="397.95" y="817.4776">26</text><text fill="#000000" font-family="sans-serif" font-size="9.1" lengthAdjust="spacing" textLength="39.2" x="410.55" y="817.4776">interviews</text><path d="M300.65,831.6615 L343.35,831.6615 L343.35,838.1652 L336.35,845.1652 L300.65,845.1652 L300.65,831.6615 " fill="#EEEEEE" style="stroke:#000000;stroke-width:1.0499999999999998;"/><rect fill="none" height="144.926" style="stroke:#000000;stroke-width:1.0499999999999998;" width="1052.1" x="300.65" y="831.6615"/><text fill="#000000" font-family="sans-serif" font-size="9.1" font-weight="bold" lengthAdjust="spacing" textLength="11.2" x="311.15" y="842.1813">alt</text><text fill="#000000" font-family="sans-serif" font-size="7.7" font-weight="bold" lengthAdjust="spacing" textLength="278.6" x="353.85" y="841.3706">[!findEqualInterview(selectedJobOpening,date,hour).iterator().hasNext()]</text><polygon fill="#181818" points="659.75,858.6689,666.75,861.4689,659.75,864.2689,662.55,861.4689" style="stroke:#181818;stroke-width:0.6999999999999998;"/><line style="stroke:#181818;stroke-width:0.6999999999999998;" x1="386.05" x2="663.95" y1="861.4689" y2="861.4689"/><text fill="#000000" font-family="sans-serif" font-size="9.1" font-weight="bold" lengthAdjust="spacing" textLength="9.8" x="390.95" y="857.7851">27</text><text fill="#000000" font-family="sans-serif" font-size="9.1" lengthAdjust="spacing" textLength="179.2" x="403.55" y="857.7851">updateInterview(existingInterview, date, hour)</text><polygon fill="#181818" points="1310.75,880.5727,1317.75,883.3727,1310.75,886.1727,1313.55,883.3727" style="stroke:#181818;stroke-width:0.6999999999999998;"/><line style="stroke:#181818;stroke-width:0.6999999999999998;" x1="675.15" x2="1314.95" y1="883.3727" y2="883.3727"/><text fill="#000000" font-family="sans-serif" font-size="9.1" font-weight="bold" lengthAdjust="spacing" textLength="9.8" x="680.05" y="879.6888">28</text><text fill="#000000" font-family="sans-serif" font-size="9.1" lengthAdjust="spacing" textLength="54.6" x="692.65" y="879.6888">setDate(date)</text><polygon fill="#181818" points="1310.75,902.4764,1317.75,905.2764,1310.75,908.0764,1313.55,905.2764" style="stroke:#181818;stroke-width:0.6999999999999998;"/><line style="stroke:#181818;stroke-width:0.6999999999999998;" x1="675.15" x2="1314.95" y1="905.2764" y2="905.2764"/><text fill="#000000" font-family="sans-serif" font-size="9.1" font-weight="bold" lengthAdjust="spacing" textLength="9.8" x="680.05" y="901.5925">29</text><text fill="#000000" font-family="sans-serif" font-size="9.1" lengthAdjust="spacing" textLength="54.6" x="692.65" y="901.5925">setHour(hour)</text><polygon fill="#181818" points="1224.3,924.3801,1231.3,927.1801,1224.3,929.9801,1227.1,927.1801" style="stroke:#181818;stroke-width:0.6999999999999998;"/><line style="stroke:#181818;stroke-width:0.6999999999999998;" x1="675.15" x2="1228.5" y1="927.1801" y2="927.1801"/><text fill="#000000" font-family="sans-serif" font-size="9.1" font-weight="bold" lengthAdjust="spacing" textLength="9.8" x="680.05" y="923.4962">30</text><text fill="#000000" font-family="sans-serif" font-size="9.1" lengthAdjust="spacing" textLength="89.6" x="692.65" y="923.4962">save(existingInterview)</text><polygon fill="#181818" points="682.85,946.2838,675.85,949.0838,682.85,951.8838,680.05,949.0838" style="stroke:#181818;stroke-width:0.6999999999999998;"/><line style="stroke:#181818;stroke-width:0.6999999999999998;stroke-dasharray:2.0,2.0;" x1="678.65" x2="1235.5" y1="949.0838" y2="949.0838"/><text fill="#000000" font-family="sans-serif" font-size="9.1" font-weight="bold" lengthAdjust="spacing" textLength="9.8" x="687.05" y="945.3999">31</text><text fill="#000000" font-family="sans-serif" font-size="9.1" lengthAdjust="spacing" textLength="65.8" x="699.65" y="945.3999">existingInterview</text><polygon fill="#181818" points="393.75,968.1875,386.75,970.9875,393.75,973.7875,390.95,970.9875" style="stroke:#181818;stroke-width:0.6999999999999998;"/><line style="stroke:#181818;stroke-width:0.6999999999999998;stroke-dasharray:2.0,2.0;" x1="389.55" x2="670.95" y1="970.9875" y2="970.9875"/><text fill="#000000" font-family="sans-serif" font-size="9.1" font-weight="bold" lengthAdjust="spacing" textLength="9.8" x="397.95" y="967.3036">32</text><text fill="#000000" font-family="sans-serif" font-size="9.1" lengthAdjust="spacing" textLength="65.8" x="410.55" y="967.3036">existingInterview</text><line style="stroke:#000000;stroke-width:0.6999999999999998;stroke-dasharray:2.0,2.0;" x1="7" x2="1366.75" y1="987.0875" y2="987.0875"/><text fill="#000000" font-family="sans-serif" font-size="7.7" font-weight="bold" lengthAdjust="spacing" textLength="116.2" x="10.5" y="995.3966">[existingInterviews.isEmpty()]</text><polygon fill="#181818" points="76.65,1011.5328,69.65,1014.3328,76.65,1017.1328,73.85,1014.3328" style="stroke:#181818;stroke-width:0.6999999999999998;"/><line style="stroke:#181818;stroke-width:0.6999999999999998;stroke-dasharray:2.0,2.0;" x1="72.45" x2="381.85" y1="1014.3328" y2="1014.3328"/><text fill="#000000" font-family="sans-serif" font-size="9.1" font-weight="bold" lengthAdjust="spacing" textLength="9.8" x="80.85" y="1010.6489">33</text><text fill="#000000" font-family="sans-serif" font-size="9.1" lengthAdjust="spacing" textLength="155.4" x="93.45" y="1010.6489">asks to type the wanted date and hour</text><polygon fill="#181818" points="370.65,1033.4365,377.65,1036.2365,370.65,1039.0365,373.45,1036.2365" style="stroke:#181818;stroke-width:0.6999999999999998;"/><line style="stroke:#181818;stroke-width:0.6999999999999998;" x1="68.95" x2="374.85" y1="1036.2365" y2="1036.2365"/><text fill="#000000" font-family="sans-serif" font-size="9.1" font-weight="bold" lengthAdjust="spacing" textLength="9.8" x="73.85" y="1032.5526">34</text><text fill="#000000" font-family="sans-serif" font-size="9.1" lengthAdjust="spacing" textLength="127.4" x="86.45" y="1032.5526">types the wanted date and hour</text><polygon fill="#181818" points="659.75,1055.3402,666.75,1058.1402,659.75,1060.9402,662.55,1058.1402" style="stroke:#181818;stroke-width:0.6999999999999998;"/><line style="stroke:#181818;stroke-width:0.6999999999999998;" x1="386.05" x2="663.95" y1="1058.1402" y2="1058.1402"/><text fill="#000000" font-family="sans-serif" font-size="9.1" font-weight="bold" lengthAdjust="spacing" textLength="9.8" x="390.95" y="1054.4563">35</text><text fill="#000000" font-family="sans-serif" font-size="9.1" lengthAdjust="spacing" textLength="199.5" x="403.55" y="1054.4563">findEqualInterview(selectedJobOpening,date,hour)</text><polygon fill="#181818" points="1224.3,1077.2439,1231.3,1080.0439,1224.3,1082.8439,1227.1,1080.0439" style="stroke:#181818;stroke-width:0.6999999999999998;"/><line style="stroke:#181818;stroke-width:0.6999999999999998;" x1="675.15" x2="1228.5" y1="1080.0439" y2="1080.0439"/><text fill="#000000" font-family="sans-serif" font-size="9.1" font-weight="bold" lengthAdjust="spacing" textLength="9.8" x="680.05" y="1076.3601">36</text><text fill="#000000" font-family="sans-serif" font-size="9.1" lengthAdjust="spacing" textLength="134.4" x="692.65" y="1076.3601">findEqual(jobOpening, date, hour)</text><polygon fill="#181818" points="682.85,1099.1477,675.85,1101.9477,682.85,1104.7477,680.05,1101.9477" style="stroke:#181818;stroke-width:0.6999999999999998;"/><line style="stroke:#181818;stroke-width:0.6999999999999998;stroke-dasharray:2.0,2.0;" x1="678.65" x2="1235.5" y1="1101.9477" y2="1101.9477"/><text fill="#000000" font-family="sans-serif" font-size="9.1" font-weight="bold" lengthAdjust="spacing" textLength="9.8" x="687.05" y="1098.2638">37</text><text fill="#000000" font-family="sans-serif" font-size="9.1" lengthAdjust="spacing" textLength="39.2" x="699.65" y="1098.2638">interviews</text><polygon fill="#181818" points="393.75,1121.0514,386.75,1123.8514,393.75,1126.6514,390.95,1123.8514" style="stroke:#181818;stroke-width:0.6999999999999998;"/><line style="stroke:#181818;stroke-width:0.6999999999999998;stroke-dasharray:2.0,2.0;" x1="389.55" x2="670.95" y1="1123.8514" y2="1123.8514"/><text fill="#000000" font-family="sans-serif" font-size="9.1" font-weight="bold" lengthAdjust="spacing" textLength="9.8" x="397.95" y="1120.1675">38</text><text fill="#000000" font-family="sans-serif" font-size="9.1" lengthAdjust="spacing" textLength="39.2" x="410.55" y="1120.1675">interviews</text><path d="M300.65,1134.3514 L343.35,1134.3514 L343.35,1140.8551 L336.35,1147.8551 L300.65,1147.8551 L300.65,1134.3514 " fill="#EEEEEE" style="stroke:#000000;stroke-width:1.0499999999999998;"/><rect fill="none" height="144.926" style="stroke:#000000;stroke-width:1.0499999999999998;" width="1052.1" x="300.65" y="1134.3514"/><text fill="#000000" font-family="sans-serif" font-size="9.1" font-weight="bold" lengthAdjust="spacing" textLength="11.2" x="311.15" y="1144.8712">alt</text><text fill="#000000" font-family="sans-serif" font-size="7.7" font-weight="bold" lengthAdjust="spacing" textLength="278.6" x="353.85" y="1144.0604">[!findEqualInterview(selectedJobOpening,date,hour).iterator().hasNext()]</text><polygon fill="#181818" points="659.75,1161.3588,666.75,1164.1588,659.75,1166.9588,662.55,1164.1588" style="stroke:#181818;stroke-width:0.6999999999999998;"/><line style="stroke:#181818;stroke-width:0.6999999999999998;" x1="386.05" x2="663.95" y1="1164.1588" y2="1164.1588"/><text fill="#000000" font-family="sans-serif" font-size="9.1" font-weight="bold" lengthAdjust="spacing" textLength="9.8" x="390.95" y="1160.4749">39</text><text fill="#000000" font-family="sans-serif" font-size="9.1" lengthAdjust="spacing" textLength="221.2" x="403.55" y="1160.4749">registerInterview(jobOpening,jobApplication, date, hour)</text><polygon fill="#181818" points="1307.25,1183.2625,1314.25,1186.0625,1307.25,1188.8625,1310.05,1186.0625" style="stroke:#181818;stroke-width:0.6999999999999998;"/><line style="stroke:#181818;stroke-width:0.6999999999999998;" x1="675.15" x2="1311.45" y1="1186.0625" y2="1186.0625"/><text fill="#000000" font-family="sans-serif" font-size="9.1" font-weight="bold" lengthAdjust="spacing" textLength="9.8" x="680.05" y="1182.3786">40</text><text fill="#000000" font-family="sans-serif" font-size="9.1" lengthAdjust="spacing" textLength="222.6" x="692.65" y="1182.3786">new Interview( jobApplicationId, jobOpening, date, hour)</text><polygon fill="#181818" points="682.85,1205.1662,675.85,1207.9662,682.85,1210.7662,680.05,1207.9662" style="stroke:#181818;stroke-width:0.6999999999999998;"/><line style="stroke:#181818;stroke-width:0.6999999999999998;stroke-dasharray:2.0,2.0;" x1="678.65" x2="1318.45" y1="1207.9662" y2="1207.9662"/><text fill="#000000" font-family="sans-serif" font-size="9.1" font-weight="bold" lengthAdjust="spacing" textLength="9.8" x="687.05" y="1204.2823">41</text><text fill="#000000" font-family="sans-serif" font-size="9.1" lengthAdjust="spacing" textLength="34.3" x="699.65" y="1204.2823">interview</text><polygon fill="#181818" points="1224.3,1227.0699,1231.3,1229.8699,1224.3,1232.6699,1227.1,1229.8699" style="stroke:#181818;stroke-width:0.6999999999999998;"/><line style="stroke:#181818;stroke-width:0.6999999999999998;" x1="675.15" x2="1228.5" y1="1229.8699" y2="1229.8699"/><text fill="#000000" font-family="sans-serif" font-size="9.1" font-weight="bold" lengthAdjust="spacing" textLength="9.8" x="680.05" y="1226.186">42</text><text fill="#000000" font-family="sans-serif" font-size="9.1" lengthAdjust="spacing" textLength="89.6" x="692.65" y="1226.186">save(existingInterview)</text><polygon fill="#181818" points="682.85,1248.9736,675.85,1251.7736,682.85,1254.5736,680.05,1251.7736" style="stroke:#181818;stroke-width:0.6999999999999998;"/><line style="stroke:#181818;stroke-width:0.6999999999999998;stroke-dasharray:2.0,2.0;" x1="678.65" x2="1235.5" y1="1251.7736" y2="1251.7736"/><text fill="#000000" font-family="sans-serif" font-size="9.1" font-weight="bold" lengthAdjust="spacing" textLength="9.8" x="687.05" y="1248.0897">43</text><text fill="#000000" font-family="sans-serif" font-size="9.1" lengthAdjust="spacing" textLength="34.3" x="699.65" y="1248.0897">interview</text><polygon fill="#181818" points="393.75,1270.8773,386.75,1273.6773,393.75,1276.4773,390.95,1273.6773" style="stroke:#181818;stroke-width:0.6999999999999998;"/><line style="stroke:#181818;stroke-width:0.6999999999999998;stroke-dasharray:2.0,2.0;" x1="389.55" x2="670.95" y1="1273.6773" y2="1273.6773"/><text fill="#000000" font-family="sans-serif" font-size="9.1" font-weight="bold" lengthAdjust="spacing" textLength="9.8" x="397.95" y="1269.9935">44</text><text fill="#000000" font-family="sans-serif" font-size="9.1" lengthAdjust="spacing" textLength="34.3" x="410.55" y="1269.9935">interview</text><polygon fill="#181818" points="73.15,1302.5811,66.15,1305.3811,73.15,1308.1811,70.35,1305.3811" style="stroke:#181818;stroke-width:0.6999999999999998;"/><line style="stroke:#181818;stroke-width:0.6999999999999998;stroke-dasharray:2.0,2.0;" x1="68.95" x2="381.85" y1="1305.3811" y2="1305.3811"/><text fill="#000000" font-family="sans-serif" font-size="9.1" font-weight="bold" lengthAdjust="spacing" textLength="9.8" x="77.35" y="1301.6972">45</text><text fill="#000000" font-family="sans-serif" font-size="9.1" lengthAdjust="spacing" textLength="280.7" x="89.95" y="1301.6972">display success of operation and the interview appointment just made</text><!--SRC=[lLTDRnit4BtpLqnrgHJ8GWpq52G652L5DwWRm8xGYo_qxbXBUqLkIAvb_ViEkH_SBqbMYcHFDZdpXZFlpP0oJqBcNFCjR9LKSQhL5i7g0fbfTd8UF_4DtjfzXg0njbnkihQ1INcYTa9ku85d1XdZXLMosDwZPimAIswJzUtbsyi_u09kC5Ow0PjI7471k4mWuHRXGMdw1uIqg9y5xc0dR0eSOh8Gpc82j_YzG1aZV19yGv7Pxwb8dAUoz-g5yTWIncHL64jfQBZcaiwj9y0DhAuP7TQAMEHSMfYyAy_nZOxmYR3_L3gg0wyZxx6EuFtxNAD1QRaLIbvTiLX9grLsr7rLscHru6ytVnCGp_DCn3LEzoXVrFtN72KLy0PpPGHbiVU-NxxUaAjk5iSybm6uxxqyuTqSkUSOlTQlj2RZH6svS8anHu9uTdnInHdGjxg6YojNpNTa_MJ0AYUY7zH02Td4M4VbWlie0iLnvNxpXcB56hqz6OGTMdyGCbbcMQYv-PTYD2bDPop0EnTMHaYmMILMgimS8Y4xcXhWfJF3G_0VzxKwAt5Euq9hKjZQe9urkGnZkS_5kMWoUGmX6eknKzPVUTgQYXFULUQiMruN-vgSJQfsXcZ9XB6W7e1dcIUJG45LgBJ0BQJy6U-atsng07dAJKbwBGY36SqLK187rQufRicej7O7Q0KS4KQ7zmtQPHnZRZ7fTetvk0ziJKjiRrCj3GNHuNxPS5-X7uH-R4DsI5vML3cmGB3BhWqsqE7o5CC3xt6MnoYkgMqwpy0kLU3762Q-KJt1BGQ8PySfcJbsGsZOqPJWLNM0V4WDP6keGxtV3-XXL0nXI0oaq542STLeiMIeLQT60AiQRSPwzQgfZtvQrqSjOgEs9F25Q27uSFunMgEZkdWTHfagpopyDdHO2FDvcziz3SlXM72zJkmh6k9RIX6sFC6Wbpj9HOAgIfvpzt-BW0NSLjE5l0jlSITBNH1mGGNh2WIcRbtbNkJ0DSBbeiZzRN8dtLQuJDgdelEyNL1cTdPmueofh8mpP8nycZMgMPmg4UE7onAeNQDQuNQVeyzeHtSgLjUVIpPLXMPZZ8mCGWTIrcK0u-xL888ZSz49-FFtWcVX2XpEmBd3dRkZ7P-6JKjunDR4c_kJpQ6268Yze_90sM3c7PUsE2rfh-XpSru8CkFq5fhE5ZIh_i4NEmrjswrdgRq0FEYUOIcw5FM6Z1UVTO_CQJcDUZj_4SoqXzLdnD0jF3n8rw5Juh3J9MQ0qO4umjChHz70fqzVVn_TfP5Pnke_cWtw8G979zVejNTcUnwQ74swOxqw2jbFx31cNt3dD_31MAttmA_iQ3ZodMpmKuhvwGslSKCgm_03i5saxYFi_DQNT6q5uDwRBahcS8YGK5_68gfVdmVMfk0NJ0xnYebn1l__Vr1K9sqtVo9Cdl4zc88UgyQuvoyzRNNvYFMNwi7dn2Ezx_nBfzsilSdGBZdzEFuF]--></g></svg>