<?xml version="1.0" encoding="us-ascii" standalone="no"?><svg xmlns="http://www.w3.org/2000/svg" xmlns:xlink="http://www.w3.org/1999/xlink" contentStyleType="text/css" height="2845px" preserveAspectRatio="none" style="width:1169px;height:2845px;background:#FFFFFF;" version="1.1" viewBox="0 0 1169 2845" width="1169px" zoomAndPan="magnify"><defs/><g><text fill="#000000" font-family="sans-serif" font-size="14" font-weight="bold" lengthAdjust="spacing" textLength="591" x="282" y="25.1074">"US1014 - Record the time and date for an interview with a candidate" Class Diagram</text><!--class PhoneNumber--><g id="elem_PhoneNumber"><rect codeLine="4" fill="#F1F1F1" height="66.6211" id="PhoneNumber" rx="2.5" ry="2.5" style="stroke:#181818;stroke-width:0.5;" width="123" x="423" y="2541.1211"/><ellipse cx="438.45" cy="2557.1211" fill="#ADD1B2" rx="11" ry="11" style="stroke:#181818;stroke-width:1.0;"/><path d="M441.2156,2552.9961 Q441.3719,2552.7773 441.5594,2552.668 Q441.7469,2552.5586 441.9656,2552.5586 Q442.3406,2552.5586 442.575,2552.8242 Q442.8094,2553.0742 442.8094,2553.6836 L442.8094,2555.1367 Q442.8094,2555.7461 442.575,2556.0117 Q442.3406,2556.2773 441.9656,2556.2773 Q441.6219,2556.2773 441.4188,2556.0742 Q441.2156,2555.8867 441.1063,2555.3711 Q441.0594,2555.0117 440.8719,2554.8242 Q440.5438,2554.4492 439.9344,2554.2305 Q439.325,2554.0117 438.7,2554.0117 Q437.9344,2554.0117 437.2938,2554.3398 Q436.6688,2554.668 436.1688,2555.418 Q435.6844,2556.168 435.6844,2557.1992 L435.6844,2558.293 Q435.6844,2559.5273 436.575,2560.3555 Q437.4656,2561.168 439.0594,2561.168 Q439.9969,2561.168 440.6531,2560.918 Q441.0438,2560.7617 441.4656,2560.3242 Q441.7313,2560.0586 441.8719,2559.9805 Q442.0281,2559.9023 442.2313,2559.9023 Q442.5594,2559.9023 442.8094,2560.168 Q443.075,2560.418 443.075,2560.7617 Q443.075,2561.1055 442.7313,2561.5117 Q442.2313,2562.0898 441.4344,2562.418 Q440.3563,2562.8711 439.0594,2562.8711 Q437.5438,2562.8711 436.3406,2562.2461 Q435.3563,2561.7461 434.6688,2560.6836 Q433.9813,2559.6055 433.9813,2558.3242 L433.9813,2557.168 Q433.9813,2555.8398 434.5906,2554.6992 Q435.2156,2553.543 436.3094,2552.9336 Q437.4031,2552.3086 438.6375,2552.3086 Q439.3719,2552.3086 440.0125,2552.4805 Q440.6688,2552.6367 441.2156,2552.9961 Z " fill="#000000"/><text fill="#000000" font-family="sans-serif" font-size="14" lengthAdjust="spacing" textLength="90" x="452.55" y="2562.918">PhoneNumber</text><line style="stroke:#181818;stroke-width:0.5;" x1="424" x2="545" y1="2573.1211" y2="2573.1211"/><rect fill="none" height="6" style="stroke:#C82930;stroke-width:1.0;" width="6" x="431" y="2584.9316"/><text fill="#000000" font-family="sans-serif" font-size="14" lengthAdjust="spacing" textLength="97" x="443" y="2592.2285">number : String</text><line style="stroke:#181818;stroke-width:0.5;" x1="424" x2="545" y1="2599.7422" y2="2599.7422"/></g><!--class Candidate--><g id="elem_Candidate"><rect codeLine="10" fill="#F1F1F1" height="159.7266" id="Candidate" rx="2.5" ry="2.5" style="stroke:#181818;stroke-width:0.5;" width="227" x="486" y="2273.6211"/><ellipse cx="562.75" cy="2289.6211" fill="#ADD1B2" rx="11" ry="11" style="stroke:#181818;stroke-width:1.0;"/><path d="M565.5156,2285.4961 Q565.6719,2285.2773 565.8594,2285.168 Q566.0469,2285.0586 566.2656,2285.0586 Q566.6406,2285.0586 566.875,2285.3242 Q567.1094,2285.5742 567.1094,2286.1836 L567.1094,2287.6367 Q567.1094,2288.2461 566.875,2288.5117 Q566.6406,2288.7773 566.2656,2288.7773 Q565.9219,2288.7773 565.7188,2288.5742 Q565.5156,2288.3867 565.4063,2287.8711 Q565.3594,2287.5117 565.1719,2287.3242 Q564.8438,2286.9492 564.2344,2286.7305 Q563.625,2286.5117 563,2286.5117 Q562.2344,2286.5117 561.5938,2286.8398 Q560.9688,2287.168 560.4688,2287.918 Q559.9844,2288.668 559.9844,2289.6992 L559.9844,2290.793 Q559.9844,2292.0273 560.875,2292.8555 Q561.7656,2293.668 563.3594,2293.668 Q564.2969,2293.668 564.9531,2293.418 Q565.3438,2293.2617 565.7656,2292.8242 Q566.0313,2292.5586 566.1719,2292.4805 Q566.3281,2292.4023 566.5313,2292.4023 Q566.8594,2292.4023 567.1094,2292.668 Q567.375,2292.918 567.375,2293.2617 Q567.375,2293.6055 567.0313,2294.0117 Q566.5313,2294.5898 565.7344,2294.918 Q564.6563,2295.3711 563.3594,2295.3711 Q561.8438,2295.3711 560.6406,2294.7461 Q559.6563,2294.2461 558.9688,2293.1836 Q558.2813,2292.1055 558.2813,2290.8242 L558.2813,2289.668 Q558.2813,2288.3398 558.8906,2287.1992 Q559.5156,2286.043 560.6094,2285.4336 Q561.7031,2284.8086 562.9375,2284.8086 Q563.6719,2284.8086 564.3125,2284.9805 Q564.9688,2285.1367 565.5156,2285.4961 Z " fill="#000000"/><text fill="#000000" font-family="sans-serif" font-size="14" lengthAdjust="spacing" textLength="65" x="583.25" y="2295.418">Candidate</text><line style="stroke:#181818;stroke-width:0.5;" x1="487" x2="712" y1="2305.6211" y2="2305.6211"/><rect fill="none" height="6" style="stroke:#C82930;stroke-width:1.0;" width="6" x="494" y="2317.4316"/><text fill="#000000" font-family="sans-serif" font-size="14" lengthAdjust="spacing" textLength="160" x="506" y="2324.7285">systemUser : SystemUser</text><rect fill="none" height="6" style="stroke:#C82930;stroke-width:1.0;" width="6" x="494" y="2336.0527"/><text fill="#000000" font-family="sans-serif" font-size="14" lengthAdjust="spacing" textLength="191" x="506" y="2343.3496">phoneNumber : PhoneNumber</text><rect fill="none" height="6" style="stroke:#C82930;stroke-width:1.0;" width="6" x="494" y="2354.6738"/><text fill="#000000" font-family="sans-serif" font-size="14" lengthAdjust="spacing" textLength="109" x="506" y="2361.9707">id : EmailAddress</text><line style="stroke:#181818;stroke-width:0.5;" x1="487" x2="712" y1="2369.4844" y2="2369.4844"/><ellipse cx="497" cy="2384.2949" fill="#84BE84" rx="3" ry="3" style="stroke:#038048;stroke-width:1.0;"/><text fill="#000000" font-family="sans-serif" font-size="14" lengthAdjust="spacing" textLength="125" x="506" y="2388.5918">user() : SystemUser</text><ellipse cx="497" cy="2402.916" fill="#84BE84" rx="3" ry="3" style="stroke:#038048;stroke-width:1.0;"/><text fill="#000000" font-family="sans-serif" font-size="14" lengthAdjust="spacing" textLength="201" x="506" y="2407.2129">phoneNumber() : PhoneNumber</text><ellipse cx="497" cy="2421.5371" fill="#84BE84" rx="3" ry="3" style="stroke:#038048;stroke-width:1.0;"/><text fill="#000000" font-family="sans-serif" font-size="14" lengthAdjust="spacing" textLength="139" x="506" y="2425.834">getId() : EmailAddress</text></g><!--class JobApplication--><g id="elem_JobApplication"><rect codeLine="20" fill="#F1F1F1" height="178.3477" id="JobApplication" rx="2.5" ry="2.5" style="stroke:#181818;stroke-width:0.5;" width="222" x="436.5" y="925.6211"/><ellipse cx="497.75" cy="941.6211" fill="#ADD1B2" rx="11" ry="11" style="stroke:#181818;stroke-width:1.0;"/><path d="M500.5156,937.4961 Q500.6719,937.2773 500.8594,937.168 Q501.0469,937.0586 501.2656,937.0586 Q501.6406,937.0586 501.875,937.3242 Q502.1094,937.5742 502.1094,938.1836 L502.1094,939.6367 Q502.1094,940.2461 501.875,940.5117 Q501.6406,940.7773 501.2656,940.7773 Q500.9219,940.7773 500.7188,940.5742 Q500.5156,940.3867 500.4063,939.8711 Q500.3594,939.5117 500.1719,939.3242 Q499.8438,938.9492 499.2344,938.7305 Q498.625,938.5117 498,938.5117 Q497.2344,938.5117 496.5938,938.8398 Q495.9688,939.168 495.4688,939.918 Q494.9844,940.668 494.9844,941.6992 L494.9844,942.793 Q494.9844,944.0273 495.875,944.8555 Q496.7656,945.668 498.3594,945.668 Q499.2969,945.668 499.9531,945.418 Q500.3438,945.2617 500.7656,944.8242 Q501.0313,944.5586 501.1719,944.4805 Q501.3281,944.4023 501.5313,944.4023 Q501.8594,944.4023 502.1094,944.668 Q502.375,944.918 502.375,945.2617 Q502.375,945.6055 502.0313,946.0117 Q501.5313,946.5898 500.7344,946.918 Q499.6563,947.3711 498.3594,947.3711 Q496.8438,947.3711 495.6406,946.7461 Q494.6563,946.2461 493.9688,945.1836 Q493.2813,944.1055 493.2813,942.8242 L493.2813,941.668 Q493.2813,940.3398 493.8906,939.1992 Q494.5156,938.043 495.6094,937.4336 Q496.7031,936.8086 497.9375,936.8086 Q498.6719,936.8086 499.3125,936.9805 Q499.9688,937.1367 500.5156,937.4961 Z " fill="#000000"/><text fill="#000000" font-family="sans-serif" font-size="14" lengthAdjust="spacing" textLength="91" x="518.25" y="947.418">JobApplication</text><line style="stroke:#181818;stroke-width:0.5;" x1="437.5" x2="657.5" y1="957.6211" y2="957.6211"/><rect fill="none" height="6" style="stroke:#C82930;stroke-width:1.0;" width="6" x="444.5" y="969.4316"/><text fill="#000000" font-family="sans-serif" font-size="14" lengthAdjust="spacing" textLength="139" x="456.5" y="976.7285">candidate : Candidate</text><rect fill="none" height="6" style="stroke:#C82930;stroke-width:1.0;" width="6" x="444.5" y="988.0527"/><text fill="#000000" font-family="sans-serif" font-size="14" lengthAdjust="spacing" textLength="161" x="456.5" y="995.3496">jobOpening : JobOpening</text><rect fill="none" height="6" style="stroke:#C82930;stroke-width:1.0;" width="6" x="444.5" y="1006.6738"/><text fill="#000000" font-family="sans-serif" font-size="14" lengthAdjust="spacing" textLength="196" x="456.5" y="1013.9707">filePaths : List&lt;ApplicationFile&gt;</text><rect fill="none" height="6" style="stroke:#C82930;stroke-width:1.0;" width="6" x="444.5" y="1025.2949"/><text fill="#000000" font-family="sans-serif" font-size="14" lengthAdjust="spacing" textLength="90" x="456.5" y="1032.5918">status : Status</text><line style="stroke:#181818;stroke-width:0.5;" x1="437.5" x2="657.5" y1="1040.1055" y2="1040.1055"/><ellipse cx="447.5" cy="1054.916" fill="#84BE84" rx="3" ry="3" style="stroke:#038048;stroke-width:1.0;"/><text fill="#000000" font-family="sans-serif" font-size="14" lengthAdjust="spacing" textLength="149" x="456.5" y="1059.2129">candidate() : Candidate</text><ellipse cx="447.5" cy="1073.5371" fill="#84BE84" rx="3" ry="3" style="stroke:#038048;stroke-width:1.0;"/><text fill="#000000" font-family="sans-serif" font-size="14" lengthAdjust="spacing" textLength="100" x="456.5" y="1077.834">status() : Status</text><ellipse cx="447.5" cy="1092.1582" fill="#84BE84" rx="3" ry="3" style="stroke:#038048;stroke-width:1.0;"/><text fill="#000000" font-family="sans-serif" font-size="14" lengthAdjust="spacing" textLength="174" x="456.5" y="1096.4551">jobOpening() : JObOpening</text></g><!--class EmailAddress--><g id="elem_EmailAddress"><rect codeLine="31" fill="#F1F1F1" height="66.6211" id="EmailAddress" rx="2.5" ry="2.5" style="stroke:#181818;stroke-width:0.5;" width="118" x="540.5" y="2743.1211"/><ellipse cx="555.5" cy="2759.1211" fill="#ADD1B2" rx="11" ry="11" style="stroke:#181818;stroke-width:1.0;"/><path d="M558.2656,2754.9961 Q558.4219,2754.7773 558.6094,2754.668 Q558.7969,2754.5586 559.0156,2754.5586 Q559.3906,2754.5586 559.625,2754.8242 Q559.8594,2755.0742 559.8594,2755.6836 L559.8594,2757.1367 Q559.8594,2757.7461 559.625,2758.0117 Q559.3906,2758.2773 559.0156,2758.2773 Q558.6719,2758.2773 558.4688,2758.0742 Q558.2656,2757.8867 558.1563,2757.3711 Q558.1094,2757.0117 557.9219,2756.8242 Q557.5938,2756.4492 556.9844,2756.2305 Q556.375,2756.0117 555.75,2756.0117 Q554.9844,2756.0117 554.3438,2756.3398 Q553.7188,2756.668 553.2188,2757.418 Q552.7344,2758.168 552.7344,2759.1992 L552.7344,2760.293 Q552.7344,2761.5273 553.625,2762.3555 Q554.5156,2763.168 556.1094,2763.168 Q557.0469,2763.168 557.7031,2762.918 Q558.0938,2762.7617 558.5156,2762.3242 Q558.7813,2762.0586 558.9219,2761.9805 Q559.0781,2761.9023 559.2813,2761.9023 Q559.6094,2761.9023 559.8594,2762.168 Q560.125,2762.418 560.125,2762.7617 Q560.125,2763.1055 559.7813,2763.5117 Q559.2813,2764.0898 558.4844,2764.418 Q557.4063,2764.8711 556.1094,2764.8711 Q554.5938,2764.8711 553.3906,2764.2461 Q552.4063,2763.7461 551.7188,2762.6836 Q551.0313,2761.6055 551.0313,2760.3242 L551.0313,2759.168 Q551.0313,2757.8398 551.6406,2756.6992 Q552.2656,2755.543 553.3594,2754.9336 Q554.4531,2754.3086 555.6875,2754.3086 Q556.4219,2754.3086 557.0625,2754.4805 Q557.7188,2754.6367 558.2656,2754.9961 Z " fill="#000000"/><text fill="#000000" font-family="sans-serif" font-size="14" lengthAdjust="spacing" textLength="86" x="569.5" y="2764.918">EmailAddress</text><line style="stroke:#181818;stroke-width:0.5;" x1="541.5" x2="657.5" y1="2775.1211" y2="2775.1211"/><rect fill="none" height="6" style="stroke:#C82930;stroke-width:1.0;" width="6" x="548.5" y="2786.9316"/><text fill="#000000" font-family="sans-serif" font-size="14" lengthAdjust="spacing" textLength="82" x="560.5" y="2794.2285">email : String</text><line style="stroke:#181818;stroke-width:0.5;" x1="541.5" x2="657.5" y1="2801.7422" y2="2801.7422"/></g><!--class JobOpening--><g id="elem_JobOpening"><rect codeLine="35" fill="#F1F1F1" height="532.1484" id="JobOpening" rx="2.5" ry="2.5" style="stroke:#181818;stroke-width:0.5;" width="297" x="613" y="1164.6211"/><ellipse cx="719.25" cy="1180.6211" fill="#ADD1B2" rx="11" ry="11" style="stroke:#181818;stroke-width:1.0;"/><path d="M722.0156,1176.4961 Q722.1719,1176.2773 722.3594,1176.168 Q722.5469,1176.0586 722.7656,1176.0586 Q723.1406,1176.0586 723.375,1176.3242 Q723.6094,1176.5742 723.6094,1177.1836 L723.6094,1178.6367 Q723.6094,1179.2461 723.375,1179.5117 Q723.1406,1179.7773 722.7656,1179.7773 Q722.4219,1179.7773 722.2188,1179.5742 Q722.0156,1179.3867 721.9063,1178.8711 Q721.8594,1178.5117 721.6719,1178.3242 Q721.3438,1177.9492 720.7344,1177.7305 Q720.125,1177.5117 719.5,1177.5117 Q718.7344,1177.5117 718.0938,1177.8398 Q717.4688,1178.168 716.9688,1178.918 Q716.4844,1179.668 716.4844,1180.6992 L716.4844,1181.793 Q716.4844,1183.0273 717.375,1183.8555 Q718.2656,1184.668 719.8594,1184.668 Q720.7969,1184.668 721.4531,1184.418 Q721.8438,1184.2617 722.2656,1183.8242 Q722.5313,1183.5586 722.6719,1183.4805 Q722.8281,1183.4023 723.0313,1183.4023 Q723.3594,1183.4023 723.6094,1183.668 Q723.875,1183.918 723.875,1184.2617 Q723.875,1184.6055 723.5313,1185.0117 Q723.0313,1185.5898 722.2344,1185.918 Q721.1563,1186.3711 719.8594,1186.3711 Q718.3438,1186.3711 717.1406,1185.7461 Q716.1563,1185.2461 715.4688,1184.1836 Q714.7813,1183.1055 714.7813,1181.8242 L714.7813,1180.668 Q714.7813,1179.3398 715.3906,1178.1992 Q716.0156,1177.043 717.1094,1176.4336 Q718.2031,1175.8086 719.4375,1175.8086 Q720.1719,1175.8086 720.8125,1175.9805 Q721.4688,1176.1367 722.0156,1176.4961 Z " fill="#000000"/><text fill="#000000" font-family="sans-serif" font-size="14" lengthAdjust="spacing" textLength="76" x="739.75" y="1186.418">JobOpening</text><line style="stroke:#181818;stroke-width:0.5;" x1="614" x2="909" y1="1196.6211" y2="1196.6211"/><rect fill="none" height="6" style="stroke:#C82930;stroke-width:1.0;" width="6" x="621" y="1208.4316"/><text fill="#000000" font-family="sans-serif" font-size="14" lengthAdjust="spacing" textLength="185" x="633" y="1215.7285">jobReference : JobReference</text><rect fill="none" height="6" style="stroke:#C82930;stroke-width:1.0;" width="6" x="621" y="1227.0527"/><text fill="#000000" font-family="sans-serif" font-size="14" lengthAdjust="spacing" textLength="269" x="633" y="1234.3496">numberOfVacancies : NumberOfVacancies</text><rect fill="none" height="6" style="stroke:#C82930;stroke-width:1.0;" width="6" x="621" y="1245.6738"/><text fill="#000000" font-family="sans-serif" font-size="14" lengthAdjust="spacing" textLength="163" x="633" y="1252.9707">jobFunction : JobFunction</text><rect fill="none" height="6" style="stroke:#C82930;stroke-width:1.0;" width="6" x="621" y="1264.2949"/><text fill="#000000" font-family="sans-serif" font-size="14" lengthAdjust="spacing" textLength="181" x="633" y="1271.5918">contractType : ContractType</text><rect fill="none" height="6" style="stroke:#C82930;stroke-width:1.0;" width="6" x="621" y="1282.916"/><text fill="#000000" font-family="sans-serif" font-size="14" lengthAdjust="spacing" textLength="82" x="633" y="1290.2129">mode : Mode</text><rect fill="none" height="6" style="stroke:#C82930;stroke-width:1.0;" width="6" x="621" y="1301.5371"/><text fill="#000000" font-family="sans-serif" font-size="14" lengthAdjust="spacing" textLength="115" x="633" y="1308.834">address : Address</text><rect fill="none" height="6" style="stroke:#C82930;stroke-width:1.0;" width="6" x="621" y="1320.1582"/><text fill="#000000" font-family="sans-serif" font-size="14" lengthAdjust="spacing" textLength="166" x="633" y="1327.4551">companyName : Customer</text><rect fill="none" height="6" style="stroke:#C82930;stroke-width:1.0;" width="6" x="621" y="1338.7793"/><text fill="#000000" font-family="sans-serif" font-size="14" lengthAdjust="spacing" textLength="148" x="633" y="1346.0762">description :Description</text><rect fill="none" height="6" style="stroke:#C82930;stroke-width:1.0;" width="6" x="621" y="1357.4004"/><text fill="#000000" font-family="sans-serif" font-size="14" lengthAdjust="spacing" textLength="171" x="633" y="1364.6973">registrationDate : Calendar</text><rect fill="none" height="6" style="stroke:#C82930;stroke-width:1.0;" width="6" x="621" y="1376.0215"/><text fill="#000000" font-family="sans-serif" font-size="14" lengthAdjust="spacing" textLength="261" x="633" y="1383.3184">recruitmentProcess : RecruitmentProcess</text><rect fill="none" height="6" style="stroke:#C82930;stroke-width:1.0;" width="6" x="621" y="1394.6426"/><text fill="#000000" font-family="sans-serif" font-size="14" lengthAdjust="spacing" textLength="173" x="633" y="1401.9395">requirementsPlugin : Plugin</text><rect fill="none" height="6" style="stroke:#C82930;stroke-width:1.0;" width="6" x="621" y="1413.2637"/><text fill="#000000" font-family="sans-serif" font-size="14" lengthAdjust="spacing" textLength="141" x="633" y="1420.5605">interviewPlugin :Plugin</text><rect fill="none" height="6" style="stroke:#C82930;stroke-width:1.0;" width="6" x="621" y="1431.8848"/><text fill="#000000" font-family="sans-serif" font-size="14" lengthAdjust="spacing" textLength="241" x="633" y="1439.1816">jobOpeningStatus : JobOpeningStatus</text><line style="stroke:#181818;stroke-width:0.5;" x1="614" x2="909" y1="1446.6953" y2="1446.6953"/><ellipse cx="624" cy="1461.5059" fill="#84BE84" rx="3" ry="3" style="stroke:#038048;stroke-width:1.0;"/><text fill="#000000" font-family="sans-serif" font-size="14" lengthAdjust="spacing" textLength="191" x="633" y="1465.8027">jobReference() :JobReference</text><ellipse cx="624" cy="1480.127" fill="#84BE84" rx="3" ry="3" style="stroke:#038048;stroke-width:1.0;"/><text fill="#000000" font-family="sans-serif" font-size="14" lengthAdjust="spacing" textLength="173" x="633" y="1484.4238">jobFunction() : JobFunction</text><ellipse cx="624" cy="1498.748" fill="#84BE84" rx="3" ry="3" style="stroke:#038048;stroke-width:1.0;"/><text fill="#000000" font-family="sans-serif" font-size="14" lengthAdjust="spacing" textLength="191" x="633" y="1503.0449">contractType() : ContractType</text><ellipse cx="624" cy="1517.3691" fill="#84BE84" rx="3" ry="3" style="stroke:#038048;stroke-width:1.0;"/><text fill="#000000" font-family="sans-serif" font-size="14" lengthAdjust="spacing" textLength="92" x="633" y="1521.666">mode() : Mode</text><ellipse cx="624" cy="1535.9902" fill="#84BE84" rx="3" ry="3" style="stroke:#038048;stroke-width:1.0;"/><text fill="#000000" font-family="sans-serif" font-size="14" lengthAdjust="spacing" textLength="125" x="633" y="1540.2871">address() : Address</text><ellipse cx="624" cy="1554.6113" fill="#84BE84" rx="3" ry="3" style="stroke:#038048;stroke-width:1.0;"/><text fill="#000000" font-family="sans-serif" font-size="14" lengthAdjust="spacing" textLength="176" x="633" y="1558.9082">companyName() : Customer</text><ellipse cx="624" cy="1573.2324" fill="#84BE84" rx="3" ry="3" style="stroke:#038048;stroke-width:1.0;"/><text fill="#000000" font-family="sans-serif" font-size="14" lengthAdjust="spacing" textLength="162" x="633" y="1577.5293">description() : Description</text><ellipse cx="624" cy="1591.8535" fill="#84BE84" rx="3" ry="3" style="stroke:#038048;stroke-width:1.0;"/><text fill="#000000" font-family="sans-serif" font-size="14" lengthAdjust="spacing" textLength="181" x="633" y="1596.1504">registrationDate() : Calendar</text><ellipse cx="624" cy="1610.4746" fill="#84BE84" rx="3" ry="3" style="stroke:#038048;stroke-width:1.0;"/><text fill="#000000" font-family="sans-serif" font-size="14" lengthAdjust="spacing" textLength="217" x="633" y="1614.7715">setId(JobReference jobReference)</text><ellipse cx="624" cy="1629.0957" fill="#84BE84" rx="3" ry="3" style="stroke:#038048;stroke-width:1.0;"/><text fill="#000000" font-family="sans-serif" font-size="14" lengthAdjust="spacing" textLength="271" x="633" y="1633.3926">recruitmentProcess() : RecruitmentProcess</text><ellipse cx="624" cy="1647.7168" fill="#84BE84" rx="3" ry="3" style="stroke:#038048;stroke-width:1.0;"/><text fill="#000000" font-family="sans-serif" font-size="14" lengthAdjust="spacing" textLength="183" x="633" y="1652.0137">requirementsPlugin() : Plugin</text><ellipse cx="624" cy="1666.3379" fill="#84BE84" rx="3" ry="3" style="stroke:#038048;stroke-width:1.0;"/><text fill="#000000" font-family="sans-serif" font-size="14" lengthAdjust="spacing" textLength="155" x="633" y="1670.6348">interviewPlugin() : Plugin</text><ellipse cx="624" cy="1684.959" fill="#84BE84" rx="3" ry="3" style="stroke:#038048;stroke-width:1.0;"/><text fill="#000000" font-family="sans-serif" font-size="14" lengthAdjust="spacing" textLength="251" x="633" y="1689.2559">jobOpeningStatus() : JobOpeningStatus</text></g><!--class SystemUser--><g id="elem_SystemUser"><rect codeLine="65" fill="#F1F1F1" height="159.7266" id="SystemUser" rx="2.5" ry="2.5" style="stroke:#181818;stroke-width:0.5;" width="171" x="653" y="2494.6211"/><ellipse cx="696.8" cy="2510.6211" fill="#ADD1B2" rx="11" ry="11" style="stroke:#181818;stroke-width:1.0;"/><path d="M699.5656,2506.4961 Q699.7219,2506.2773 699.9094,2506.168 Q700.0969,2506.0586 700.3156,2506.0586 Q700.6906,2506.0586 700.925,2506.3242 Q701.1594,2506.5742 701.1594,2507.1836 L701.1594,2508.6367 Q701.1594,2509.2461 700.925,2509.5117 Q700.6906,2509.7773 700.3156,2509.7773 Q699.9719,2509.7773 699.7688,2509.5742 Q699.5656,2509.3867 699.4563,2508.8711 Q699.4094,2508.5117 699.2219,2508.3242 Q698.8938,2507.9492 698.2844,2507.7305 Q697.675,2507.5117 697.05,2507.5117 Q696.2844,2507.5117 695.6438,2507.8398 Q695.0188,2508.168 694.5188,2508.918 Q694.0344,2509.668 694.0344,2510.6992 L694.0344,2511.793 Q694.0344,2513.0273 694.925,2513.8555 Q695.8156,2514.668 697.4094,2514.668 Q698.3469,2514.668 699.0031,2514.418 Q699.3938,2514.2617 699.8156,2513.8242 Q700.0813,2513.5586 700.2219,2513.4805 Q700.3781,2513.4023 700.5813,2513.4023 Q700.9094,2513.4023 701.1594,2513.668 Q701.425,2513.918 701.425,2514.2617 Q701.425,2514.6055 701.0813,2515.0117 Q700.5813,2515.5898 699.7844,2515.918 Q698.7063,2516.3711 697.4094,2516.3711 Q695.8938,2516.3711 694.6906,2515.7461 Q693.7063,2515.2461 693.0188,2514.1836 Q692.3313,2513.1055 692.3313,2511.8242 L692.3313,2510.668 Q692.3313,2509.3398 692.9406,2508.1992 Q693.5656,2507.043 694.6594,2506.4336 Q695.7531,2505.8086 696.9875,2505.8086 Q697.7219,2505.8086 698.3625,2505.9805 Q699.0188,2506.1367 699.5656,2506.4961 Z " fill="#000000"/><text fill="#000000" font-family="sans-serif" font-size="14" lengthAdjust="spacing" textLength="75" x="717.2" y="2516.418">SystemUser</text><line style="stroke:#181818;stroke-width:0.5;" x1="654" x2="823" y1="2526.6211" y2="2526.6211"/><rect fill="none" height="6" style="stroke:#C82930;stroke-width:1.0;" width="6" x="661" y="2538.4316"/><text fill="#000000" font-family="sans-serif" font-size="14" lengthAdjust="spacing" textLength="139" x="673" y="2545.7285">username : Username</text><rect fill="none" height="6" style="stroke:#C82930;stroke-width:1.0;" width="6" x="661" y="2557.0527"/><text fill="#000000" font-family="sans-serif" font-size="14" lengthAdjust="spacing" textLength="83" x="673" y="2564.3496">name : Name</text><rect fill="none" height="6" style="stroke:#C82930;stroke-width:1.0;" width="6" x="661" y="2575.6738"/><text fill="#000000" font-family="sans-serif" font-size="14" lengthAdjust="spacing" textLength="131" x="673" y="2582.9707">email : EmailAddress</text><line style="stroke:#181818;stroke-width:0.5;" x1="654" x2="823" y1="2590.4844" y2="2590.4844"/><ellipse cx="664" cy="2605.2949" fill="#84BE84" rx="3" ry="3" style="stroke:#038048;stroke-width:1.0;"/><text fill="#000000" font-family="sans-serif" font-size="14" lengthAdjust="spacing" textLength="131" x="673" y="2609.5918">identity() : Username</text><ellipse cx="664" cy="2623.916" fill="#84BE84" rx="3" ry="3" style="stroke:#038048;stroke-width:1.0;"/><text fill="#000000" font-family="sans-serif" font-size="14" lengthAdjust="spacing" textLength="145" x="673" y="2628.2129">email()  : EmailAddress</text><ellipse cx="664" cy="2642.5371" fill="#84BE84" rx="3" ry="3" style="stroke:#038048;stroke-width:1.0;"/><text fill="#000000" font-family="sans-serif" font-size="14" lengthAdjust="spacing" textLength="93" x="673" y="2646.834">name() : Name</text></g><!--class Name--><g id="elem_Name"><rect codeLine="74" fill="#F1F1F1" height="122.4844" id="Name" rx="2.5" ry="2.5" style="stroke:#181818;stroke-width:0.5;" width="144" x="693.5" y="2715.6211"/><ellipse cx="743.25" cy="2731.6211" fill="#ADD1B2" rx="11" ry="11" style="stroke:#181818;stroke-width:1.0;"/><path d="M746.0156,2727.4961 Q746.1719,2727.2773 746.3594,2727.168 Q746.5469,2727.0586 746.7656,2727.0586 Q747.1406,2727.0586 747.375,2727.3242 Q747.6094,2727.5742 747.6094,2728.1836 L747.6094,2729.6367 Q747.6094,2730.2461 747.375,2730.5117 Q747.1406,2730.7773 746.7656,2730.7773 Q746.4219,2730.7773 746.2188,2730.5742 Q746.0156,2730.3867 745.9063,2729.8711 Q745.8594,2729.5117 745.6719,2729.3242 Q745.3438,2728.9492 744.7344,2728.7305 Q744.125,2728.5117 743.5,2728.5117 Q742.7344,2728.5117 742.0938,2728.8398 Q741.4688,2729.168 740.9688,2729.918 Q740.4844,2730.668 740.4844,2731.6992 L740.4844,2732.793 Q740.4844,2734.0273 741.375,2734.8555 Q742.2656,2735.668 743.8594,2735.668 Q744.7969,2735.668 745.4531,2735.418 Q745.8438,2735.2617 746.2656,2734.8242 Q746.5313,2734.5586 746.6719,2734.4805 Q746.8281,2734.4023 747.0313,2734.4023 Q747.3594,2734.4023 747.6094,2734.668 Q747.875,2734.918 747.875,2735.2617 Q747.875,2735.6055 747.5313,2736.0117 Q747.0313,2736.5898 746.2344,2736.918 Q745.1563,2737.3711 743.8594,2737.3711 Q742.3438,2737.3711 741.1406,2736.7461 Q740.1563,2736.2461 739.4688,2735.1836 Q738.7813,2734.1055 738.7813,2732.8242 L738.7813,2731.668 Q738.7813,2730.3398 739.3906,2729.1992 Q740.0156,2728.043 741.1094,2727.4336 Q742.2031,2726.8086 743.4375,2726.8086 Q744.1719,2726.8086 744.8125,2726.9805 Q745.4688,2727.1367 746.0156,2727.4961 Z " fill="#000000"/><text fill="#000000" font-family="sans-serif" font-size="14" lengthAdjust="spacing" textLength="36" x="763.75" y="2737.418">Name</text><line style="stroke:#181818;stroke-width:0.5;" x1="694.5" x2="836.5" y1="2747.6211" y2="2747.6211"/><rect fill="none" height="6" style="stroke:#C82930;stroke-width:1.0;" width="6" x="701.5" y="2759.4316"/><text fill="#000000" font-family="sans-serif" font-size="14" lengthAdjust="spacing" textLength="108" x="713.5" y="2766.7285">firstName : String</text><rect fill="none" height="6" style="stroke:#C82930;stroke-width:1.0;" width="6" x="701.5" y="2778.0527"/><text fill="#000000" font-family="sans-serif" font-size="14" lengthAdjust="spacing" textLength="107" x="713.5" y="2785.3496">lastName : String</text><line style="stroke:#181818;stroke-width:0.5;" x1="694.5" x2="836.5" y1="2792.8633" y2="2792.8633"/><ellipse cx="704.5" cy="2807.6738" fill="#84BE84" rx="3" ry="3" style="stroke:#038048;stroke-width:1.0;"/><text fill="#000000" font-family="sans-serif" font-size="14" lengthAdjust="spacing" textLength="118" x="713.5" y="2811.9707">firstName() : String</text><ellipse cx="704.5" cy="2826.2949" fill="#84BE84" rx="3" ry="3" style="stroke:#038048;stroke-width:1.0;"/><text fill="#000000" font-family="sans-serif" font-size="14" lengthAdjust="spacing" textLength="117" x="713.5" y="2830.5918">lastName() : String</text></g><!--class RecordTimeDateForInterviewUI--><g id="elem_RecordTimeDateForInterviewUI"><rect codeLine="81" fill="#F1F1F1" height="178.3477" id="RecordTimeDateForInterviewUI" rx="2.5" ry="2.5" style="stroke:#181818;stroke-width:0.5;" width="410" x="393.5" y="46.6211"/><ellipse cx="496.25" cy="62.6211" fill="#ADD1B2" rx="11" ry="11" style="stroke:#181818;stroke-width:1.0;"/><path d="M499.0156,58.4961 Q499.1719,58.2773 499.3594,58.168 Q499.5469,58.0586 499.7656,58.0586 Q500.1406,58.0586 500.375,58.3242 Q500.6094,58.5742 500.6094,59.1836 L500.6094,60.6367 Q500.6094,61.2461 500.375,61.5117 Q500.1406,61.7773 499.7656,61.7773 Q499.4219,61.7773 499.2188,61.5742 Q499.0156,61.3867 498.9063,60.8711 Q498.8594,60.5117 498.6719,60.3242 Q498.3438,59.9492 497.7344,59.7305 Q497.125,59.5117 496.5,59.5117 Q495.7344,59.5117 495.0938,59.8398 Q494.4688,60.168 493.9688,60.918 Q493.4844,61.668 493.4844,62.6992 L493.4844,63.793 Q493.4844,65.0273 494.375,65.8555 Q495.2656,66.668 496.8594,66.668 Q497.7969,66.668 498.4531,66.418 Q498.8438,66.2617 499.2656,65.8242 Q499.5313,65.5586 499.6719,65.4805 Q499.8281,65.4023 500.0313,65.4023 Q500.3594,65.4023 500.6094,65.668 Q500.875,65.918 500.875,66.2617 Q500.875,66.6055 500.5313,67.0117 Q500.0313,67.5898 499.2344,67.918 Q498.1563,68.3711 496.8594,68.3711 Q495.3438,68.3711 494.1406,67.7461 Q493.1563,67.2461 492.4688,66.1836 Q491.7813,65.1055 491.7813,63.8242 L491.7813,62.668 Q491.7813,61.3398 492.3906,60.1992 Q493.0156,59.043 494.1094,58.4336 Q495.2031,57.8086 496.4375,57.8086 Q497.1719,57.8086 497.8125,57.9805 Q498.4688,58.1367 499.0156,58.4961 Z " fill="#000000"/><text fill="#000000" font-family="sans-serif" font-size="14" lengthAdjust="spacing" textLength="196" x="516.75" y="68.418">RecordTimeDateForInterviewUI</text><line style="stroke:#181818;stroke-width:0.5;" x1="394.5" x2="802.5" y1="78.6211" y2="78.6211"/><line style="stroke:#181818;stroke-width:0.5;" x1="394.5" x2="802.5" y1="86.6211" y2="86.6211"/><rect fill="#F24D5C" height="6" style="stroke:#C82930;stroke-width:1.0;" width="6" x="401.5" y="98.4316"/><text fill="#000000" font-family="sans-serif" font-size="14" lengthAdjust="spacing" textLength="211" x="413.5" y="105.7285">selectJobOpening() : JobOpening</text><rect fill="#F24D5C" height="6" style="stroke:#C82930;stroke-width:1.0;" width="6" x="401.5" y="117.0527"/><text fill="#000000" font-family="sans-serif" font-size="14" lengthAdjust="spacing" textLength="333" x="413.5" y="124.3496">displayJobOpeningMenu(jobOpenings) : JobOpening</text><rect fill="#F24D5C" height="6" style="stroke:#C82930;stroke-width:1.0;" width="6" x="401.5" y="135.6738"/><text fill="#000000" font-family="sans-serif" font-size="14" lengthAdjust="spacing" textLength="318" x="413.5" y="142.9707">selectCandidate(selectedJobOpening) : Candidate</text><rect fill="#F24D5C" height="6" style="stroke:#C82930;stroke-width:1.0;" width="6" x="401.5" y="154.2949"/><text fill="#000000" font-family="sans-serif" font-size="14" lengthAdjust="spacing" textLength="326" x="413.5" y="161.5918">displayCandidateMenu(jobApplications) : Candidate</text><ellipse cx="404.5" cy="175.916" fill="#84BE84" rx="3" ry="3" style="stroke:#038048;stroke-width:1.0;"/><text fill="#000000" font-family="sans-serif" font-size="14" lengthAdjust="spacing" textLength="368" x="413.5" y="180.2129">typeDateWithinTimePeriod(startDate, endDate) : Calendar</text><ellipse cx="404.5" cy="194.5371" fill="#84BE84" rx="3" ry="3" style="stroke:#038048;stroke-width:1.0;"/><text fill="#000000" font-family="sans-serif" font-size="14" lengthAdjust="spacing" textLength="248" x="413.5" y="198.834">typeHourWithinTimePeriod() : Calendar</text><ellipse cx="404.5" cy="213.1582" fill="#84BE84" rx="3" ry="3" style="stroke:#038048;stroke-width:1.0;"/><text fill="#000000" font-family="sans-serif" font-size="14" lengthAdjust="spacing" textLength="384" x="413.5" y="217.4551">displayInterviewSchedule(jobOpening, candidate, date, hour)</text></g><!--class RecordTimeDateForInterviewController--><g id="elem_RecordTimeDateForInterviewController"><rect codeLine="92" fill="#F1F1F1" height="103.8633" id="RecordTimeDateForInterviewController" rx="2.5" ry="2.5" style="stroke:#181818;stroke-width:0.5;" width="519" x="339" y="285.6211"/><ellipse cx="471.25" cy="301.6211" fill="#ADD1B2" rx="11" ry="11" style="stroke:#181818;stroke-width:1.0;"/><path d="M474.0156,297.4961 Q474.1719,297.2773 474.3594,297.168 Q474.5469,297.0586 474.7656,297.0586 Q475.1406,297.0586 475.375,297.3242 Q475.6094,297.5742 475.6094,298.1836 L475.6094,299.6367 Q475.6094,300.2461 475.375,300.5117 Q475.1406,300.7773 474.7656,300.7773 Q474.4219,300.7773 474.2188,300.5742 Q474.0156,300.3867 473.9063,299.8711 Q473.8594,299.5117 473.6719,299.3242 Q473.3438,298.9492 472.7344,298.7305 Q472.125,298.5117 471.5,298.5117 Q470.7344,298.5117 470.0938,298.8398 Q469.4688,299.168 468.9688,299.918 Q468.4844,300.668 468.4844,301.6992 L468.4844,302.793 Q468.4844,304.0273 469.375,304.8555 Q470.2656,305.668 471.8594,305.668 Q472.7969,305.668 473.4531,305.418 Q473.8438,305.2617 474.2656,304.8242 Q474.5313,304.5586 474.6719,304.4805 Q474.8281,304.4023 475.0313,304.4023 Q475.3594,304.4023 475.6094,304.668 Q475.875,304.918 475.875,305.2617 Q475.875,305.6055 475.5313,306.0117 Q475.0313,306.5898 474.2344,306.918 Q473.1563,307.3711 471.8594,307.3711 Q470.3438,307.3711 469.1406,306.7461 Q468.1563,306.2461 467.4688,305.1836 Q466.7813,304.1055 466.7813,302.8242 L466.7813,301.668 Q466.7813,300.3398 467.3906,299.1992 Q468.0156,298.043 469.1094,297.4336 Q470.2031,296.8086 471.4375,296.8086 Q472.1719,296.8086 472.8125,296.9805 Q473.4688,297.1367 474.0156,297.4961 Z " fill="#000000"/><text fill="#000000" font-family="sans-serif" font-size="14" lengthAdjust="spacing" textLength="246" x="491.75" y="307.418">RecordTimeDateForInterviewController</text><line style="stroke:#181818;stroke-width:0.5;" x1="340" x2="857" y1="317.6211" y2="317.6211"/><line style="stroke:#181818;stroke-width:0.5;" x1="340" x2="857" y1="325.6211" y2="325.6211"/><ellipse cx="350" cy="340.4316" fill="#84BE84" rx="3" ry="3" style="stroke:#038048;stroke-width:1.0;"/><text fill="#000000" font-family="sans-serif" font-size="14" lengthAdjust="spacing" textLength="340" x="359" y="344.7285">findAllJobOpeningsWithInterview() : List&lt;JobOpening&gt;</text><ellipse cx="350" cy="359.0527" fill="#84BE84" rx="3" ry="3" style="stroke:#038048;stroke-width:1.0;"/><text fill="#000000" font-family="sans-serif" font-size="14" lengthAdjust="spacing" textLength="493" x="359" y="363.3496">getAcceptedJobApplicationsByJobOpening(jobOpening) : List&lt;JobApplication&gt;</text><ellipse cx="350" cy="377.6738" fill="#84BE84" rx="3" ry="3" style="stroke:#038048;stroke-width:1.0;"/><text fill="#000000" font-family="sans-serif" font-size="14" lengthAdjust="spacing" textLength="476" x="359" y="381.9707">registerInterviewSchedule(jobOpening, candidate, date, hour) : JobOpening</text></g><!--class TimePeriod--><g id="elem_TimePeriod"><rect codeLine="99" fill="#F1F1F1" height="122.4844" id="TimePeriod" rx="2.5" ry="2.5" style="stroke:#181818;stroke-width:0.5;" width="164" x="907.5" y="2292.6211"/><ellipse cx="949.5" cy="2308.6211" fill="#ADD1B2" rx="11" ry="11" style="stroke:#181818;stroke-width:1.0;"/><path d="M952.2656,2304.4961 Q952.4219,2304.2773 952.6094,2304.168 Q952.7969,2304.0586 953.0156,2304.0586 Q953.3906,2304.0586 953.625,2304.3242 Q953.8594,2304.5742 953.8594,2305.1836 L953.8594,2306.6367 Q953.8594,2307.2461 953.625,2307.5117 Q953.3906,2307.7773 953.0156,2307.7773 Q952.6719,2307.7773 952.4688,2307.5742 Q952.2656,2307.3867 952.1563,2306.8711 Q952.1094,2306.5117 951.9219,2306.3242 Q951.5938,2305.9492 950.9844,2305.7305 Q950.375,2305.5117 949.75,2305.5117 Q948.9844,2305.5117 948.3438,2305.8398 Q947.7188,2306.168 947.2188,2306.918 Q946.7344,2307.668 946.7344,2308.6992 L946.7344,2309.793 Q946.7344,2311.0273 947.625,2311.8555 Q948.5156,2312.668 950.1094,2312.668 Q951.0469,2312.668 951.7031,2312.418 Q952.0938,2312.2617 952.5156,2311.8242 Q952.7813,2311.5586 952.9219,2311.4805 Q953.0781,2311.4023 953.2813,2311.4023 Q953.6094,2311.4023 953.8594,2311.668 Q954.125,2311.918 954.125,2312.2617 Q954.125,2312.6055 953.7813,2313.0117 Q953.2813,2313.5898 952.4844,2313.918 Q951.4063,2314.3711 950.1094,2314.3711 Q948.5938,2314.3711 947.3906,2313.7461 Q946.4063,2313.2461 945.7188,2312.1836 Q945.0313,2311.1055 945.0313,2309.8242 L945.0313,2308.668 Q945.0313,2307.3398 945.6406,2306.1992 Q946.2656,2305.043 947.3594,2304.4336 Q948.4531,2303.8086 949.6875,2303.8086 Q950.4219,2303.8086 951.0625,2303.9805 Q951.7188,2304.1367 952.2656,2304.4961 Z " fill="#000000"/><text fill="#000000" font-family="sans-serif" font-size="14" lengthAdjust="spacing" textLength="72" x="969.5" y="2314.418">TimePeriod</text><line style="stroke:#181818;stroke-width:0.5;" x1="908.5" x2="1070.5" y1="2324.6211" y2="2324.6211"/><rect fill="none" height="6" style="stroke:#C82930;stroke-width:1.0;" width="6" x="915.5" y="2336.4316"/><text fill="#000000" font-family="sans-serif" font-size="14" lengthAdjust="spacing" textLength="128" x="927.5" y="2343.7285">startDate : Calendar</text><rect fill="none" height="6" style="stroke:#C82930;stroke-width:1.0;" width="6" x="915.5" y="2355.0527"/><text fill="#000000" font-family="sans-serif" font-size="14" lengthAdjust="spacing" textLength="124" x="927.5" y="2362.3496">endDate : Calendar</text><line style="stroke:#181818;stroke-width:0.5;" x1="908.5" x2="1070.5" y1="2369.8633" y2="2369.8633"/><ellipse cx="918.5" cy="2384.6738" fill="#84BE84" rx="3" ry="3" style="stroke:#038048;stroke-width:1.0;"/><text fill="#000000" font-family="sans-serif" font-size="14" lengthAdjust="spacing" textLength="138" x="927.5" y="2388.9707">startDate() : Calendar</text><ellipse cx="918.5" cy="2403.2949" fill="#84BE84" rx="3" ry="3" style="stroke:#038048;stroke-width:1.0;"/><text fill="#000000" font-family="sans-serif" font-size="14" lengthAdjust="spacing" textLength="134" x="927.5" y="2407.5918">endDate() : Calendar</text></g><!--class RecruitmentProcess--><g id="elem_RecruitmentProcess"><rect codeLine="107" fill="#F1F1F1" height="234.2109" id="RecruitmentProcess" rx="2.5" ry="2.5" style="stroke:#181818;stroke-width:0.5;" width="321" x="601" y="1757.6211"/><ellipse cx="693.75" cy="1773.6211" fill="#ADD1B2" rx="11" ry="11" style="stroke:#181818;stroke-width:1.0;"/><path d="M696.5156,1769.4961 Q696.6719,1769.2773 696.8594,1769.168 Q697.0469,1769.0586 697.2656,1769.0586 Q697.6406,1769.0586 697.875,1769.3242 Q698.1094,1769.5742 698.1094,1770.1836 L698.1094,1771.6367 Q698.1094,1772.2461 697.875,1772.5117 Q697.6406,1772.7773 697.2656,1772.7773 Q696.9219,1772.7773 696.7188,1772.5742 Q696.5156,1772.3867 696.4063,1771.8711 Q696.3594,1771.5117 696.1719,1771.3242 Q695.8438,1770.9492 695.2344,1770.7305 Q694.625,1770.5117 694,1770.5117 Q693.2344,1770.5117 692.5938,1770.8398 Q691.9688,1771.168 691.4688,1771.918 Q690.9844,1772.668 690.9844,1773.6992 L690.9844,1774.793 Q690.9844,1776.0273 691.875,1776.8555 Q692.7656,1777.668 694.3594,1777.668 Q695.2969,1777.668 695.9531,1777.418 Q696.3438,1777.2617 696.7656,1776.8242 Q697.0313,1776.5586 697.1719,1776.4805 Q697.3281,1776.4023 697.5313,1776.4023 Q697.8594,1776.4023 698.1094,1776.668 Q698.375,1776.918 698.375,1777.2617 Q698.375,1777.6055 698.0313,1778.0117 Q697.5313,1778.5898 696.7344,1778.918 Q695.6563,1779.3711 694.3594,1779.3711 Q692.8438,1779.3711 691.6406,1778.7461 Q690.6563,1778.2461 689.9688,1777.1836 Q689.2813,1776.1055 689.2813,1774.8242 L689.2813,1773.668 Q689.2813,1772.3398 689.8906,1771.1992 Q690.5156,1770.043 691.6094,1769.4336 Q692.7031,1768.8086 693.9375,1768.8086 Q694.6719,1768.8086 695.3125,1768.9805 Q695.9688,1769.1367 696.5156,1769.4961 Z " fill="#000000"/><text fill="#000000" font-family="sans-serif" font-size="14" lengthAdjust="spacing" textLength="127" x="714.25" y="1779.418">RecruitmentProcess</text><line style="stroke:#181818;stroke-width:0.5;" x1="602" x2="921" y1="1789.6211" y2="1789.6211"/><rect fill="none" height="6" style="stroke:#C82930;stroke-width:1.0;" width="6" x="609" y="1801.4316"/><text fill="#000000" font-family="sans-serif" font-size="14" lengthAdjust="spacing" textLength="180" x="621" y="1808.7285">currentPhase : PhaseNames</text><rect fill="none" height="6" style="stroke:#C82930;stroke-width:1.0;" width="6" x="609" y="1820.0527"/><text fill="#000000" font-family="sans-serif" font-size="14" lengthAdjust="spacing" textLength="141" x="621" y="1827.3496">hasInterview : boolean</text><rect fill="none" height="6" style="stroke:#C82930;stroke-width:1.0;" width="6" x="609" y="1838.6738"/><text fill="#000000" font-family="sans-serif" font-size="14" lengthAdjust="spacing" textLength="136" x="621" y="1845.9707">phases : List&lt;Phase&gt;</text><rect fill="none" height="6" style="stroke:#C82930;stroke-width:1.0;" width="6" x="609" y="1857.2949"/><text fill="#000000" font-family="sans-serif" font-size="14" lengthAdjust="spacing" textLength="285" x="621" y="1864.5918">interviews : List&lt;InterviewSchedule&gt;</text><line style="stroke:#181818;stroke-width:0.5;" x1="602" x2="921" y1="1872.1055" y2="1872.1055"/><ellipse cx="612" cy="1886.916" fill="#84BE84" rx="3" ry="3" style="stroke:#038048;stroke-width:1.0;"/><text fill="#000000" font-family="sans-serif" font-size="14" lengthAdjust="spacing" textLength="190" x="621" y="1891.2129">currentPhase() : PhaseNames</text><ellipse cx="612" cy="1905.5371" fill="#84BE84" rx="3" ry="3" style="stroke:#038048;stroke-width:1.0;"/><text fill="#000000" font-family="sans-serif" font-size="14" lengthAdjust="spacing" textLength="151" x="621" y="1909.834">hasInterview() : boolean</text><ellipse cx="612" cy="1924.1582" fill="#84BE84" rx="3" ry="3" style="stroke:#038048;stroke-width:1.0;"/><text fill="#000000" font-family="sans-serif" font-size="14" lengthAdjust="spacing" textLength="101" x="621" y="1928.4551">phase() : Phase</text><ellipse cx="612" cy="1942.7793" fill="#84BE84" rx="3" ry="3" style="stroke:#038048;stroke-width:1.0;"/><text fill="#000000" font-family="sans-serif" font-size="14" lengthAdjust="spacing" textLength="295" x="621" y="1947.0762">interviews() : List&lt;InterviewSchedule&gt;</text><ellipse cx="612" cy="1961.4004" fill="#84BE84" rx="3" ry="3" style="stroke:#038048;stroke-width:1.0;"/><text fill="#000000" font-family="sans-serif" font-size="14" lengthAdjust="spacing" textLength="232" x="621" y="1965.6973">getInterviewPhase() : InterviewPhase</text><ellipse cx="612" cy="1980.0215" fill="#84BE84" rx="3" ry="3" style="stroke:#038048;stroke-width:1.0;"/><text fill="#000000" font-family="sans-serif" font-size="14" lengthAdjust="spacing" textLength="262" x="621" y="1984.3184">addInterviewSchedule(interview)</text></g><!--class Phase--><g id="elem_Phase"><rect codeLine="121" fill="#F1F1F1" height="122.4844" id="Phase" rx="2.5" ry="2.5" style="stroke:#181818;stroke-width:0.5;" width="206" x="886.5" y="2071.6211"/><ellipse cx="965.25" cy="2087.6211" fill="#A9DCDF" rx="11" ry="11" style="stroke:#181818;stroke-width:1.0;"/><path d="M967.4375,2089.3867 L963.2969,2089.3867 L962.875,2090.418 L963.2969,2090.418 Q963.9063,2090.418 964.1719,2090.6523 Q964.4375,2090.8867 964.4375,2091.2773 Q964.4375,2091.6523 964.1719,2091.8867 Q963.9063,2092.1211 963.2969,2092.1211 L961,2092.1211 Q960.3906,2092.1211 960.1406,2091.8867 Q959.875,2091.6523 959.875,2091.2617 Q959.875,2090.8867 960.1563,2090.6523 Q960.4219,2090.4023 961.0469,2090.418 L963.7188,2083.7617 L962.6094,2083.7617 Q962,2083.7617 961.7344,2083.5273 Q961.4688,2083.293 961.4688,2082.9023 Q961.4688,2082.5273 961.7344,2082.293 Q962,2082.0586 962.6094,2082.0586 L966.2813,2082.0586 L969.6719,2090.418 Q970.2656,2090.418 970.4531,2090.5586 Q970.8438,2090.8242 970.8438,2091.2773 Q970.8438,2091.6523 970.5781,2091.8867 Q970.3281,2092.1211 969.7188,2092.1211 L967.4219,2092.1211 Q966.8125,2092.1211 966.5469,2091.8867 Q966.2813,2091.6523 966.2813,2091.2617 Q966.2813,2090.8867 966.5469,2090.6523 Q966.8125,2090.418 967.4219,2090.418 L967.8438,2090.418 L967.4375,2089.3867 Z M966.7188,2087.6836 L965.3594,2084.3086 L963.9844,2087.6836 L966.7188,2087.6836 Z " fill="#000000"/><text fill="#000000" font-family="sans-serif" font-size="14" font-style="italic" lengthAdjust="spacing" textLength="40" x="985.75" y="2093.418">Phase</text><line style="stroke:#181818;stroke-width:0.5;" x1="887.5" x2="1091.5" y1="2103.6211" y2="2103.6211"/><rect fill="none" height="6" style="stroke:#C82930;stroke-width:1.0;" width="6" x="894.5" y="2115.4316"/><text fill="#000000" font-family="sans-serif" font-size="14" lengthAdjust="spacing" textLength="151" x="906.5" y="2122.7285">timePeriod : TimePeriod</text><rect fill="none" height="6" style="stroke:#C82930;stroke-width:1.0;" width="6" x="894.5" y="2134.0527"/><text fill="#000000" font-family="sans-serif" font-size="14" lengthAdjust="spacing" textLength="170" x="906.5" y="2141.3496">phaseName : PhaseNames</text><line style="stroke:#181818;stroke-width:0.5;" x1="887.5" x2="1091.5" y1="2148.8633" y2="2148.8633"/><ellipse cx="897.5" cy="2163.6738" fill="#84BE84" rx="3" ry="3" style="stroke:#038048;stroke-width:1.0;"/><text fill="#000000" font-family="sans-serif" font-size="14" lengthAdjust="spacing" textLength="157" x="906.5" y="2167.9707">timePeriod(): TimePeriod</text><ellipse cx="897.5" cy="2182.2949" fill="#84BE84" rx="3" ry="3" style="stroke:#038048;stroke-width:1.0;"/><text fill="#000000" font-family="sans-serif" font-size="14" lengthAdjust="spacing" textLength="180" x="906.5" y="2186.5918">phaseName() : PhaseNames</text></g><!--class InterviewPhase--><g id="elem_InterviewPhase"><rect codeLine="129" fill="#F1F1F1" height="48" id="InterviewPhase" rx="2.5" ry="2.5" style="stroke:#181818;stroke-width:0.5;" width="127" x="957" y="1850.6211"/><ellipse cx="972" cy="1866.6211" fill="#ADD1B2" rx="11" ry="11" style="stroke:#181818;stroke-width:1.0;"/><path d="M974.7656,1862.4961 Q974.9219,1862.2773 975.1094,1862.168 Q975.2969,1862.0586 975.5156,1862.0586 Q975.8906,1862.0586 976.125,1862.3242 Q976.3594,1862.5742 976.3594,1863.1836 L976.3594,1864.6367 Q976.3594,1865.2461 976.125,1865.5117 Q975.8906,1865.7773 975.5156,1865.7773 Q975.1719,1865.7773 974.9688,1865.5742 Q974.7656,1865.3867 974.6563,1864.8711 Q974.6094,1864.5117 974.4219,1864.3242 Q974.0938,1863.9492 973.4844,1863.7305 Q972.875,1863.5117 972.25,1863.5117 Q971.4844,1863.5117 970.8438,1863.8398 Q970.2188,1864.168 969.7188,1864.918 Q969.2344,1865.668 969.2344,1866.6992 L969.2344,1867.793 Q969.2344,1869.0273 970.125,1869.8555 Q971.0156,1870.668 972.6094,1870.668 Q973.5469,1870.668 974.2031,1870.418 Q974.5938,1870.2617 975.0156,1869.8242 Q975.2813,1869.5586 975.4219,1869.4805 Q975.5781,1869.4023 975.7813,1869.4023 Q976.1094,1869.4023 976.3594,1869.668 Q976.625,1869.918 976.625,1870.2617 Q976.625,1870.6055 976.2813,1871.0117 Q975.7813,1871.5898 974.9844,1871.918 Q973.9063,1872.3711 972.6094,1872.3711 Q971.0938,1872.3711 969.8906,1871.7461 Q968.9063,1871.2461 968.2188,1870.1836 Q967.5313,1869.1055 967.5313,1867.8242 L967.5313,1866.668 Q967.5313,1865.3398 968.1406,1864.1992 Q968.7656,1863.043 969.8594,1862.4336 Q970.9531,1861.8086 972.1875,1861.8086 Q972.9219,1861.8086 973.5625,1861.9805 Q974.2188,1862.1367 974.7656,1862.4961 Z " fill="#000000"/><text fill="#000000" font-family="sans-serif" font-size="14" lengthAdjust="spacing" textLength="95" x="986" y="1872.418">InterviewPhase</text><line style="stroke:#181818;stroke-width:0.5;" x1="958" x2="1083" y1="1882.6211" y2="1882.6211"/><line style="stroke:#181818;stroke-width:0.5;" x1="958" x2="1083" y1="1890.6211" y2="1890.6211"/></g><!--class PersistenceContext--><g id="elem_PersistenceContext"><rect codeLine="132" fill="#F1F1F1" height="66.6211" id="PersistenceContext" rx="2.5" ry="2.5" style="stroke:#181818;stroke-width:0.5;" width="238" x="479.5" y="450.6211"/><ellipse cx="533.25" cy="466.6211" fill="#ADD1B2" rx="11" ry="11" style="stroke:#181818;stroke-width:1.0;"/><path d="M536.0156,462.4961 Q536.1719,462.2773 536.3594,462.168 Q536.5469,462.0586 536.7656,462.0586 Q537.1406,462.0586 537.375,462.3242 Q537.6094,462.5742 537.6094,463.1836 L537.6094,464.6367 Q537.6094,465.2461 537.375,465.5117 Q537.1406,465.7773 536.7656,465.7773 Q536.4219,465.7773 536.2188,465.5742 Q536.0156,465.3867 535.9063,464.8711 Q535.8594,464.5117 535.6719,464.3242 Q535.3438,463.9492 534.7344,463.7305 Q534.125,463.5117 533.5,463.5117 Q532.7344,463.5117 532.0938,463.8398 Q531.4688,464.168 530.9688,464.918 Q530.4844,465.668 530.4844,466.6992 L530.4844,467.793 Q530.4844,469.0273 531.375,469.8555 Q532.2656,470.668 533.8594,470.668 Q534.7969,470.668 535.4531,470.418 Q535.8438,470.2617 536.2656,469.8242 Q536.5313,469.5586 536.6719,469.4805 Q536.8281,469.4023 537.0313,469.4023 Q537.3594,469.4023 537.6094,469.668 Q537.875,469.918 537.875,470.2617 Q537.875,470.6055 537.5313,471.0117 Q537.0313,471.5898 536.2344,471.918 Q535.1563,472.3711 533.8594,472.3711 Q532.3438,472.3711 531.1406,471.7461 Q530.1563,471.2461 529.4688,470.1836 Q528.7813,469.1055 528.7813,467.8242 L528.7813,466.668 Q528.7813,465.3398 529.3906,464.1992 Q530.0156,463.043 531.1094,462.4336 Q532.2031,461.8086 533.4375,461.8086 Q534.1719,461.8086 534.8125,461.9805 Q535.4688,462.1367 536.0156,462.4961 Z " fill="#000000"/><text fill="#000000" font-family="sans-serif" font-size="14" lengthAdjust="spacing" textLength="122" x="553.75" y="472.418">PersistenceContext</text><line style="stroke:#181818;stroke-width:0.5;" x1="480.5" x2="716.5" y1="482.6211" y2="482.6211"/><line style="stroke:#181818;stroke-width:0.5;" x1="480.5" x2="716.5" y1="490.6211" y2="490.6211"/><ellipse cx="490.5" cy="505.4316" fill="#84BE84" rx="3" ry="3" style="stroke:#038048;stroke-width:1.0;"/><text fill="#000000" font-family="sans-serif" font-size="14" lengthAdjust="spacing" textLength="212" x="499.5" y="509.7285">repositories() : RepositoryFactory</text></g><!--class RepositoryFactory--><g id="elem_RepositoryFactory"><rect codeLine="136" fill="#F1F1F1" height="122.4844" id="RepositoryFactory" rx="2.5" ry="2.5" style="stroke:#181818;stroke-width:0.5;" width="331" x="433" y="578.6211"/><ellipse cx="536.25" cy="594.6211" fill="#B4A7E5" rx="11" ry="11" style="stroke:#181818;stroke-width:1.0;"/><path d="M537.2031,591.2617 L537.2031,597.918 L538.9219,597.918 Q539.5313,597.918 539.7969,598.1523 Q540.0625,598.3867 540.0625,598.7773 Q540.0625,599.1523 539.7969,599.3867 Q539.5313,599.6211 538.9219,599.6211 L533.7813,599.6211 Q533.1719,599.6211 532.9063,599.3867 Q532.6406,599.1523 532.6406,598.7617 Q532.6406,598.3867 532.9063,598.1523 Q533.1719,597.918 533.7813,597.918 L535.5,597.918 L535.5,591.2617 L533.7813,591.2617 Q533.1719,591.2617 532.9063,591.0273 Q532.6406,590.793 532.6406,590.4023 Q532.6406,590.0273 532.9063,589.793 Q533.1719,589.5586 533.7813,589.5586 L538.9219,589.5586 Q539.5313,589.5586 539.7969,589.793 Q540.0625,590.0273 540.0625,590.4023 Q540.0625,590.793 539.7969,591.0273 Q539.5313,591.2617 538.9219,591.2617 L537.2031,591.2617 Z " fill="#000000"/><text fill="#000000" font-family="sans-serif" font-size="14" font-style="italic" lengthAdjust="spacing" textLength="116" x="556.75" y="600.418">RepositoryFactory</text><line style="stroke:#181818;stroke-width:0.5;" x1="434" x2="763" y1="610.6211" y2="610.6211"/><line style="stroke:#181818;stroke-width:0.5;" x1="434" x2="763" y1="618.6211" y2="618.6211"/><text fill="#000000" font-family="sans-serif" font-size="14" lengthAdjust="spacing" textLength="246" x="439" y="637.7285">jobOpenings() : JobOpeningRepository</text><text fill="#000000" font-family="sans-serif" font-size="14" lengthAdjust="spacing" textLength="289" x="439" y="656.3496">jobOpenings(autoTx) : JobOpeningRepository</text><text fill="#000000" font-family="sans-serif" font-size="14" lengthAdjust="spacing" textLength="276" x="439" y="674.9707">jobApplications() : JobApplicationRepository</text><text fill="#000000" font-family="sans-serif" font-size="14" lengthAdjust="spacing" textLength="319" x="439" y="693.5918">jobApplications(autoTx) ; JobApplicationRepository</text></g><!--class JobOpeningRepository--><g id="elem_JobOpeningRepository"><rect codeLine="144" fill="#F1F1F1" height="85.2422" id="JobOpeningRepository" rx="2.5" ry="2.5" style="stroke:#181818;stroke-width:0.5;" width="609" x="553" y="761.6211"/><ellipse cx="780.75" cy="777.6211" fill="#B4A7E5" rx="11" ry="11" style="stroke:#181818;stroke-width:1.0;"/><path d="M781.7031,774.2617 L781.7031,780.918 L783.4219,780.918 Q784.0313,780.918 784.2969,781.1523 Q784.5625,781.3867 784.5625,781.7773 Q784.5625,782.1523 784.2969,782.3867 Q784.0313,782.6211 783.4219,782.6211 L778.2813,782.6211 Q777.6719,782.6211 777.4063,782.3867 Q777.1406,782.1523 777.1406,781.7617 Q777.1406,781.3867 777.4063,781.1523 Q777.6719,780.918 778.2813,780.918 L780,780.918 L780,774.2617 L778.2813,774.2617 Q777.6719,774.2617 777.4063,774.0273 Q777.1406,773.793 777.1406,773.4023 Q777.1406,773.0273 777.4063,772.793 Q777.6719,772.5586 778.2813,772.5586 L783.4219,772.5586 Q784.0313,772.5586 784.2969,772.793 Q784.5625,773.0273 784.5625,773.4023 Q784.5625,773.793 784.2969,774.0273 Q784.0313,774.2617 783.4219,774.2617 L781.7031,774.2617 Z " fill="#000000"/><text fill="#000000" font-family="sans-serif" font-size="14" font-style="italic" lengthAdjust="spacing" textLength="145" x="801.25" y="783.418">JobOpeningRepository</text><line style="stroke:#181818;stroke-width:0.5;" x1="554" x2="1161" y1="793.6211" y2="793.6211"/><line style="stroke:#181818;stroke-width:0.5;" x1="554" x2="1161" y1="801.6211" y2="801.6211"/><text fill="#000000" font-family="sans-serif" font-size="14" lengthAdjust="spacing" textLength="597" x="559" y="820.7285">findJobOpeningsWithInterviewByCustomerManager(customerManager) : Iterable&lt;JobOpening&gt;</text><text fill="#000000" font-family="sans-serif" font-size="14" lengthAdjust="spacing" textLength="201" x="559" y="839.3496">save(jobOpening) : JobOpening</text></g><!--class JobApplicationRepository--><g id="elem_JobApplicationRepository"><rect codeLine="149" fill="#F1F1F1" height="66.6211" id="JobApplicationRepository" rx="2.5" ry="2.5" style="stroke:#181818;stroke-width:0.5;" width="511" x="7" y="770.6211"/><ellipse cx="178.25" cy="786.6211" fill="#B4A7E5" rx="11" ry="11" style="stroke:#181818;stroke-width:1.0;"/><path d="M179.2031,783.2617 L179.2031,789.918 L180.9219,789.918 Q181.5313,789.918 181.7969,790.1523 Q182.0625,790.3867 182.0625,790.7773 Q182.0625,791.1523 181.7969,791.3867 Q181.5313,791.6211 180.9219,791.6211 L175.7813,791.6211 Q175.1719,791.6211 174.9063,791.3867 Q174.6406,791.1523 174.6406,790.7617 Q174.6406,790.3867 174.9063,790.1523 Q175.1719,789.918 175.7813,789.918 L177.5,789.918 L177.5,783.2617 L175.7813,783.2617 Q175.1719,783.2617 174.9063,783.0273 Q174.6406,782.793 174.6406,782.4023 Q174.6406,782.0273 174.9063,781.793 Q175.1719,781.5586 175.7813,781.5586 L180.9219,781.5586 Q181.5313,781.5586 181.7969,781.793 Q182.0625,782.0273 182.0625,782.4023 Q182.0625,782.793 181.7969,783.0273 Q181.5313,783.2617 180.9219,783.2617 L179.2031,783.2617 Z " fill="#000000"/><text fill="#000000" font-family="sans-serif" font-size="14" font-style="italic" lengthAdjust="spacing" textLength="160" x="198.75" y="792.418">JobApplicationRepository</text><line style="stroke:#181818;stroke-width:0.5;" x1="8" x2="517" y1="802.6211" y2="802.6211"/><line style="stroke:#181818;stroke-width:0.5;" x1="8" x2="517" y1="810.6211" y2="810.6211"/><text fill="#000000" font-family="sans-serif" font-size="14" lengthAdjust="spacing" textLength="499" x="13" y="829.7285">findAcceptedApplicationsByJobOpening(jobOpening) : Iterable&lt;JobApplication&gt;</text></g><!--class InterviewSchedule--><g id="elem_InterviewSchedule"><rect codeLine="154" fill="#F1F1F1" height="159.7266" id="InterviewSchedule" rx="2.5" ry="2.5" style="stroke:#181818;stroke-width:0.5;" width="175" x="623" y="2052.6211"/><ellipse cx="651.05" cy="2068.6211" fill="#ADD1B2" rx="11" ry="11" style="stroke:#181818;stroke-width:1.0;"/><path d="M653.8156,2064.4961 Q653.9719,2064.2773 654.1594,2064.168 Q654.3469,2064.0586 654.5656,2064.0586 Q654.9406,2064.0586 655.175,2064.3242 Q655.4094,2064.5742 655.4094,2065.1836 L655.4094,2066.6367 Q655.4094,2067.2461 655.175,2067.5117 Q654.9406,2067.7773 654.5656,2067.7773 Q654.2219,2067.7773 654.0188,2067.5742 Q653.8156,2067.3867 653.7063,2066.8711 Q653.6594,2066.5117 653.4719,2066.3242 Q653.1438,2065.9492 652.5344,2065.7305 Q651.925,2065.5117 651.3,2065.5117 Q650.5344,2065.5117 649.8938,2065.8398 Q649.2688,2066.168 648.7688,2066.918 Q648.2844,2067.668 648.2844,2068.6992 L648.2844,2069.793 Q648.2844,2071.0273 649.175,2071.8555 Q650.0656,2072.668 651.6594,2072.668 Q652.5969,2072.668 653.2531,2072.418 Q653.6438,2072.2617 654.0656,2071.8242 Q654.3313,2071.5586 654.4719,2071.4805 Q654.6281,2071.4023 654.8313,2071.4023 Q655.1594,2071.4023 655.4094,2071.668 Q655.675,2071.918 655.675,2072.2617 Q655.675,2072.6055 655.3313,2073.0117 Q654.8313,2073.5898 654.0344,2073.918 Q652.9563,2074.3711 651.6594,2074.3711 Q650.1438,2074.3711 648.9406,2073.7461 Q647.9563,2073.2461 647.2688,2072.1836 Q646.5813,2071.1055 646.5813,2069.8242 L646.5813,2068.668 Q646.5813,2067.3398 647.1906,2066.1992 Q647.8156,2065.043 648.9094,2064.4336 Q650.0031,2063.8086 651.2375,2063.8086 Q651.9719,2063.8086 652.6125,2063.9805 Q653.2688,2064.1367 653.8156,2064.4961 Z " fill="#000000"/><text fill="#000000" font-family="sans-serif" font-size="14" lengthAdjust="spacing" textLength="114" x="667.95" y="2074.418">InterviewSchedule</text><line style="stroke:#181818;stroke-width:0.5;" x1="624" x2="797" y1="2084.6211" y2="2084.6211"/><rect fill="none" height="6" style="stroke:#C82930;stroke-width:1.0;" width="6" x="631" y="2096.4316"/><text fill="#000000" font-family="sans-serif" font-size="14" lengthAdjust="spacing" textLength="98" x="643" y="2103.7285">date : Calendar</text><rect fill="none" height="6" style="stroke:#C82930;stroke-width:1.0;" width="6" x="631" y="2115.0527"/><text fill="#000000" font-family="sans-serif" font-size="14" lengthAdjust="spacing" textLength="99" x="643" y="2122.3496">hour : Calendar</text><rect fill="none" height="6" style="stroke:#C82930;stroke-width:1.0;" width="6" x="631" y="2133.6738"/><text fill="#000000" font-family="sans-serif" font-size="14" lengthAdjust="spacing" textLength="139" x="643" y="2140.9707">candidate : Candidate</text><line style="stroke:#181818;stroke-width:0.5;" x1="624" x2="797" y1="2148.4844" y2="2148.4844"/><ellipse cx="634" cy="2163.2949" fill="#84BE84" rx="3" ry="3" style="stroke:#038048;stroke-width:1.0;"/><text fill="#000000" font-family="sans-serif" font-size="14" lengthAdjust="spacing" textLength="108" x="643" y="2167.5918">date() : Calendar</text><ellipse cx="634" cy="2181.916" fill="#84BE84" rx="3" ry="3" style="stroke:#038048;stroke-width:1.0;"/><text fill="#000000" font-family="sans-serif" font-size="14" lengthAdjust="spacing" textLength="109" x="643" y="2186.2129">hour() : Calendar</text><ellipse cx="634" cy="2200.5371" fill="#84BE84" rx="3" ry="3" style="stroke:#038048;stroke-width:1.0;"/><text fill="#000000" font-family="sans-serif" font-size="14" lengthAdjust="spacing" textLength="149" x="643" y="2204.834">candidate() : Candidate</text></g><!--link Candidate to SystemUser--><g id="link_Candidate_SystemUser"><path codeLine="165" d="M649.68,2433.6811 C662.2,2453.4111 672.4134,2469.5062 684.9434,2489.2362 " fill="none" id="Candidate-to-SystemUser" style="stroke:#181818;stroke-width:1.0;"/><polygon fill="#181818" points="688.16,2494.3011,686.7117,2484.5593,685.4795,2490.0803,679.9585,2488.8481,688.16,2494.3011" style="stroke:#181818;stroke-width:1.0;"/></g><!--link SystemUser to EmailAddress--><g id="link_SystemUser_EmailAddress"><path codeLine="167" d="M683.56,2654.6711 C662.16,2685.4611 642.2645,2714.0943 625.6245,2738.0343 " fill="none" id="SystemUser-to-EmailAddress" style="stroke:#181818;stroke-width:1.0;"/><polygon fill="#181818" points="622.2,2742.9611,630.6212,2737.8539,625.0537,2738.8554,624.0522,2733.288,622.2,2742.9611" style="stroke:#181818;stroke-width:1.0;"/></g><!--link SystemUser to Name--><g id="link_SystemUser_Name"><path codeLine="168" d="M749.17,2654.6711 C751.9,2674.8611 753.9895,2690.3147 756.5595,2709.4047 " fill="none" id="SystemUser-to-Name" style="stroke:#181818;stroke-width:1.0;"/><polygon fill="#181818" points="757.36,2715.3511,760.1234,2705.8979,756.6929,2710.3958,752.195,2706.9652,757.36,2715.3511" style="stroke:#181818;stroke-width:1.0;"/></g><!--link Candidate to EmailAddress--><g id="link_Candidate_EmailAddress"><path codeLine="169" d="M599.5,2433.8111 C599.5,2526.9411 599.5,2671.1711 599.5,2736.9811 " fill="none" id="Candidate-to-EmailAddress" style="stroke:#181818;stroke-width:1.0;"/><polygon fill="#181818" points="599.5,2742.9811,603.5,2733.9811,599.5,2737.9811,595.5,2733.9811,599.5,2742.9811" style="stroke:#181818;stroke-width:1.0;"/></g><!--link Candidate to PhoneNumber--><g id="link_Candidate_PhoneNumber"><path codeLine="170" d="M557.98,2433.6811 C538.55,2470.6811 519.2695,2507.409 504.4295,2535.669 " fill="none" id="Candidate-to-PhoneNumber" style="stroke:#181818;stroke-width:1.0;"/><polygon fill="#181818" points="501.64,2540.9811,509.3657,2534.8726,503.9646,2536.5543,502.2829,2531.1532,501.64,2540.9811" style="stroke:#181818;stroke-width:1.0;"/></g><!--link RecordTimeDateForInterviewUI to RecordTimeDateForInterviewController--><g id="link_RecordTimeDateForInterviewUI_RecordTimeDateForInterviewController"><path codeLine="172" d="M598.5,224.6311 C598.5,245.4911 598.5,261.0511 598.5,279.6211 " fill="none" id="RecordTimeDateForInterviewUI-to-RecordTimeDateForInterviewController" style="stroke:#181818;stroke-width:1.0;stroke-dasharray:7.0,7.0;"/><polygon fill="#181818" points="598.5,285.6211,602.5,276.6211,598.5,280.6211,594.5,276.6211,598.5,285.6211" style="stroke:#181818;stroke-width:1.0;"/></g><!--link RecordTimeDateForInterviewController to PersistenceContext--><g id="link_RecordTimeDateForInterviewController_PersistenceContext"><path codeLine="175" d="M598.5,389.9711 C598.5,410.0911 598.5,426.5711 598.5,444.4111 " fill="none" id="RecordTimeDateForInterviewController-to-PersistenceContext" style="stroke:#181818;stroke-width:1.0;stroke-dasharray:7.0,7.0;"/><polygon fill="#181818" points="598.5,450.4111,602.5,441.4111,598.5,445.4111,594.5,441.4111,598.5,450.4111" style="stroke:#181818;stroke-width:1.0;"/></g><!--link RecordTimeDateForInterviewController to JobApplicationRepository--><g id="link_RecordTimeDateForInterviewController_JobApplicationRepository"><path codeLine="176" d="M525.69,389.8711 C503.51,407.5611 480.1,428.5311 461.5,450.6211 C373.25,555.4611 306.3427,699.5959 278.3427,764.9559 " fill="none" id="RecordTimeDateForInterviewController-to-JobApplicationRepository" style="stroke:#181818;stroke-width:1.0;stroke-dasharray:7.0,7.0;"/><polygon fill="#181818" points="275.98,770.4711,283.2009,763.7734,277.9489,765.8751,275.8472,760.6231,275.98,770.4711" style="stroke:#181818;stroke-width:1.0;"/></g><!--link RecordTimeDateForInterviewController to JobOpeningRepository--><g id="link_RecordTimeDateForInterviewController_JobOpeningRepository"><path codeLine="177" d="M675.77,389.7711 C697.39,407.0411 719.36,427.7911 735.5,450.6211 C805.3,549.3811 837.1165,685.7379 849.7965,755.4679 " fill="none" id="RecordTimeDateForInterviewController-to-JobOpeningRepository" style="stroke:#181818;stroke-width:1.0;stroke-dasharray:7.0,7.0;"/><polygon fill="#181818" points="850.87,761.3711,853.1953,751.8007,849.9754,756.4518,845.3243,753.2319,850.87,761.3711" style="stroke:#181818;stroke-width:1.0;"/></g><!--link PersistenceContext to RepositoryFactory--><g id="link_PersistenceContext_RepositoryFactory"><path codeLine="179" d="M598.5,517.6711 C598.5,535.3611 598.5,551.8011 598.5,572.5411 " fill="none" id="PersistenceContext-to-RepositoryFactory" style="stroke:#181818;stroke-width:1.0;"/><polygon fill="#181818" points="598.5,578.5411,602.5,569.5411,598.5,573.5411,594.5,569.5411,598.5,578.5411" style="stroke:#181818;stroke-width:1.0;"/></g><!--link RepositoryFactory to JobApplicationRepository--><g id="link_RepositoryFactory_JobApplicationRepository"><path codeLine="182" d="M474.34,700.6711 C425.55,724.2611 376.8514,747.8187 335.5414,767.7987 " fill="none" id="RepositoryFactory-to-JobApplicationRepository" style="stroke:#181818;stroke-width:1.0;stroke-dasharray:7.0,7.0;"/><polygon fill="#181818" points="330.14,770.4111,339.9837,770.0934,334.6412,768.2341,336.5005,762.8915,330.14,770.4111" style="stroke:#181818;stroke-width:1.0;"/></g><!--link RepositoryFactory to JobOpeningRepository--><g id="link_RepositoryFactory_JobOpeningRepository"><path codeLine="183" d="M694.21,700.6711 C726.48,720.9211 756.6873,739.8726 786.1773,758.3726 " fill="none" id="RepositoryFactory-to-JobOpeningRepository" style="stroke:#181818;stroke-width:1.0;stroke-dasharray:7.0,7.0;"/><polygon fill="#181818" points="791.26,761.5611,785.7617,753.3899,787.0245,758.904,781.5103,760.1668,791.26,761.5611" style="stroke:#181818;stroke-width:1.0;"/></g><!--link JobApplicationRepository to JobApplication--><g id="link_JobApplicationRepository_JobApplication"><path codeLine="185" d="M307.03,837.7011 C341.63,863.0111 386.3172,895.7089 431.4472,928.7189 " fill="none" id="JobApplicationRepository-to-JobApplication" style="stroke:#181818;stroke-width:1.0;"/><polygon fill="#181818" points="436.29,932.2611,431.3873,923.7192,432.2543,929.3092,426.6643,930.1763,436.29,932.2611" style="stroke:#181818;stroke-width:1.0;"/><text fill="#000000" font-family="sans-serif" font-size="13" lengthAdjust="spacing" textLength="36" x="380.5" y="891.6494">stores</text><text fill="#000000" font-family="sans-serif" font-size="13" lengthAdjust="spacing" textLength="5" x="423.6501" y="923.1829">*</text></g><!--link JobOpeningRepository to JobOpening--><g id="link_JobOpeningRepository_JobOpening"><path codeLine="186" d="M851.05,847.0611 C841.03,912.2911 821.8216,1037.2307 803.1916,1158.4307 " fill="none" id="JobOpeningRepository-to-JobOpening" style="stroke:#181818;stroke-width:1.0;"/><polygon fill="#181818" points="802.28,1164.3611,807.6009,1156.0733,803.0396,1159.4191,799.6938,1154.8579,802.28,1164.3611" style="stroke:#181818;stroke-width:1.0;"/><text fill="#000000" font-family="sans-serif" font-size="13" lengthAdjust="spacing" textLength="36" x="839.5" y="1020.1494">stores</text><text fill="#000000" font-family="sans-serif" font-size="13" lengthAdjust="spacing" textLength="5" x="798.4164" y="1153.2346">*</text></g><!--link JobApplication to Candidate--><g id="link_JobApplication_Candidate"><path codeLine="188" d="M547.5,1103.6511 C547.5,1187.4611 547.5,1317.1411 547.5,1429.6211 C547.5,1429.6211 547.5,1429.6211 547.5,2133.6211 C547.5,2180.9011 557.4089,2226.6703 569.6589,2267.8403 " fill="none" id="JobApplication-to-Candidate" style="stroke:#181818;stroke-width:1.0;"/><polygon fill="#181818" points="571.37,2273.5911,572.6372,2263.8241,569.9441,2268.7987,564.9694,2266.1056,571.37,2273.5911" style="stroke:#181818;stroke-width:1.0;"/><text fill="#000000" font-family="sans-serif" font-size="13" lengthAdjust="spacing" textLength="7" x="540.1992" y="1126.0585">1</text><text fill="#000000" font-family="sans-serif" font-size="13" lengthAdjust="spacing" textLength="7" x="561.4541" y="2262.4841">1</text></g><!--link JobApplication to JobOpening--><g id="link_JobApplication_JobOpening"><path codeLine="189" d="M593.01,1103.6711 C602.65,1122.3111 610.5356,1137.5607 621.6456,1159.0607 " fill="none" id="JobApplication-to-JobOpening" style="stroke:#181818;stroke-width:1.0;"/><polygon fill="#181818" points="624.4,1164.3911,623.8219,1154.5592,622.1046,1159.9491,616.7147,1158.2318,624.4,1164.3911" style="stroke:#181818;stroke-width:1.0;"/><text fill="#000000" font-family="sans-serif" font-size="13" lengthAdjust="spacing" textLength="7" x="589.6202" y="1126.0802">1</text><text fill="#000000" font-family="sans-serif" font-size="13" lengthAdjust="spacing" textLength="7" x="613.2259" y="1153.2655">1</text></g><!--link InterviewSchedule to Candidate--><g id="link_InterviewSchedule_Candidate"><path codeLine="191" d="M670.43,2212.6811 C660.43,2232.4111 652.4247,2248.2204 642.4147,2267.9504 " fill="none" id="InterviewSchedule-to-Candidate" style="stroke:#181818;stroke-width:1.0;"/><polygon fill="#181818" points="639.7,2273.3011,647.3392,2267.0848,641.9622,2268.8421,640.2049,2263.4652,639.7,2273.3011" style="stroke:#181818;stroke-width:1.0;"/><text fill="#000000" font-family="sans-serif" font-size="13" lengthAdjust="spacing" textLength="7" x="659.6857" y="2234.3443">1</text><text fill="#000000" font-family="sans-serif" font-size="13" lengthAdjust="spacing" textLength="7" x="635.9686" y="2262.444">1</text></g><!--link RecruitmentProcess to InterviewSchedule--><g id="link_RecruitmentProcess_InterviewSchedule"><path codeLine="193" d="M738.39,1991.6411 C734.3,2012.1411 731.3008,2027.1764 727.4808,2046.3764 " fill="none" id="RecruitmentProcess-to-InterviewSchedule" style="stroke:#181818;stroke-width:1.0;"/><polygon fill="#181818" points="726.31,2052.2611,731.9893,2044.2146,727.2857,2047.3572,724.1431,2042.6536,726.31,2052.2611" style="stroke:#181818;stroke-width:1.0;"/><text fill="#000000" font-family="sans-serif" font-size="13" lengthAdjust="spacing" textLength="7" x="729.6853" y="2013.7131">1</text><text fill="#000000" font-family="sans-serif" font-size="13" lengthAdjust="spacing" textLength="20" x="706.8275" y="2041.4005">0..*</text></g><!--link JobOpening to RecruitmentProcess--><g id="link_JobOpening_RecruitmentProcess"><path codeLine="194" d="M761.5,1696.7111 C761.5,1717.8211 761.5,1732.3711 761.5,1751.5611 " fill="none" id="JobOpening-to-RecruitmentProcess" style="stroke:#181818;stroke-width:1.0;"/><polygon fill="#181818" points="761.5,1757.5611,765.5,1748.5611,761.5,1752.5611,757.5,1748.5611,761.5,1757.5611" style="stroke:#181818;stroke-width:1.0;"/><text fill="#000000" font-family="sans-serif" font-size="13" lengthAdjust="spacing" textLength="7" x="754.3961" y="1718.8934">1</text><text fill="#000000" font-family="sans-serif" font-size="13" lengthAdjust="spacing" textLength="7" x="754.2758" y="1746.5483">1</text></g><!--link RecruitmentProcess to Phase--><g id="link_RecruitmentProcess_Phase"><path codeLine="196" d="M864.83,1991.6411 C889.45,2019.2911 910.7598,2043.2103 932.0698,2067.1403 " fill="none" id="RecruitmentProcess-to-Phase" style="stroke:#181818;stroke-width:1.0;"/><polygon fill="#181818" points="936.06,2071.6211,933.0619,2062.2397,932.7348,2067.8871,927.0874,2067.56,936.06,2071.6211" style="stroke:#181818;stroke-width:1.0;"/><text fill="#000000" font-family="sans-serif" font-size="13" lengthAdjust="spacing" textLength="7" x="864.2254" y="2013.7131">1</text><text fill="#000000" font-family="sans-serif" font-size="13" lengthAdjust="spacing" textLength="22" x="906.2064" y="2060.1673">4..5</text></g><!--link InterviewPhase to Phase--><g id="link_InterviewPhase_Phase"><path codeLine="197" d="M1017.69,1898.7911 C1013.01,1937.4411 1005.6333,1998.3816 998.9533,2053.5616 " fill="none" id="InterviewPhase-to-Phase" style="stroke:#181818;stroke-width:1.0;"/><polygon fill="none" points="996.79,2071.4311,1004.9098,2054.2826,992.9967,2052.8405,996.79,2071.4311" style="stroke:#181818;stroke-width:1.0;"/></g><!--link Phase to TimePeriod--><g id="link_Phase_TimePeriod"><path codeLine="199" d="M989.5,2193.7511 C989.5,2224.4011 989.5,2255.5611 989.5,2286.2411 " fill="none" id="Phase-to-TimePeriod" style="stroke:#181818;stroke-width:1.0;"/><polygon fill="#181818" points="989.5,2292.2411,993.5,2283.2411,989.5,2287.2411,985.5,2283.2411,989.5,2292.2411" style="stroke:#181818;stroke-width:1.0;"/></g><!--SRC=[dLT9Rnit5BxpLn0wsQL7Y87qqXO2dBX6RTIsuAKzKpEKn6AsafmaWkB_tiUTd95Kjpd4mxVnlUzjbEAgPdZs-dpvuV8ZBl0JApjHORLbMF66OTfMkAAAuNKdu81vgvZumjbN_9MhBQQu10ck9MRuSqsbnDUSRWHj42hDSRdjMlOmD2iczgXepGV-2JyhmTiDUaF82txsXa1CxgHYpQkqek60YZvQ0qvY6nMy0igl3UNrLLK99YL2P02bi_FS1abi65vgXMoOkgqCEJFrvhsywrPNVL_paYhUjNk4uLyHGG2z48VZ_TMj7dlMGhJ0l0i7nrtpcYsfsafW_iwb-YMnVWEyXPEJYgf16k3q1p9a4kur7kSt4wjYmxTAXXpzCQoxn-1H238D7RA1cJvdIGjWE5sG0hjFRCq4Qqjc8mr7d_V7zHyKN2uvqv4yZ6d6nitGbZfuQyAVK55shHAqL2-xtg2S757HT9KctiCVL53hE9nzza2vwMcxUw2DqHsawXfTCnMJfU2zlUyw7b0Xs0Qo8KmUhdrYQzPML6XcAGQk6jQgfUXAUzdJXAW5_nwuO9ecb_MmuJei-m45wrl9SpmZPkZPP_rkH8BQJl7McSm09mcIDiq9bYJ5qbPEYYRHQ1gomPCuF0t58qeIHAq5Zob9C3MS55OoXjNLhGEMIDDzQIGu3VDS6nYZR4mS09zCmRVjRb4c8_WptZW37i8y1w4FudI1Fj0pfxM5zke-eVujuS4SV3jb4uPWNe6dNEtCPK6LsEu3ubIZzUWRky4TVG97rbn8vKhUTQwP9I1pW4o2k9iOaUCLKaQup2wC5zWLEfytdRZrkBxUxX6CSbQpKjsDXauSWqN5PL_JNIJTitOuYncGOmLhCGoxCtjcLPJ9Xw6_8L3y1ScebRaAKT08Efu_OSdnLaUtP89trHaCLQ4qvm93pUgFl8Aruc_T82QAkPXpAM3rN6vPDTGiYViYRfKBRF_VWk7pzq1l-hchQrsG17PCMrtLTSH7Qk-2i77Dx9ueiG0rM8LNPSbw2sqArgSaMud7gPr4NDkoVS_4_mauJ_zRU314SFMBmUSb6zGkHIaDaI0woeaJpgafsAC90xUMWn2QiAMIcPS4_DMT0gCVFaEmm5frNSregrym81EslT5O9Bl0un8a9eWj88JqNlU62JUJz6R3z7UJFfTFPc2uDXR3WOlDwoYCpM0i9vc5CStpv2fJo7GbpUB1_h481W1N5L8BvcEU7NfkU2KnGzybdPQfaA0o1YgaDlT_7nbWGkgoXTMZEufzKtkzLlfESjK9plpkSOJT3KG2VxG14-wQmWARiFSe6MwZSHY5Co4wgExbsodHj3szpOHsGjZR_lcuYkwv6D0X5_P83vbZ4-RJpZyFxcbBD_3kBlEpgI8GfgkQPLD8qYziD67oMP2vTT1xwvgVPEySOwapsIYBusTIub2trNW0wG6M4Gx_Ke25C9r7MdT4ElRUrsw54owAHVg31yLlmyeU4IEUUKZabZBnd9N-SaAd7W9uFb-yQrsXKtQYcB4txSxtwnujzVzYOTg8QEgJ0Mew8dIS8zg_ENP4_80NnumONsO_p4QtG2b1Dq9-qI5pgLBy8UiKHbVXsUNCoiFVM9udX99kHfEEEc8EJNTnbFmmduEl4rD9Q9dL0pySJfh_E9__E7FhCzyRmF- -S1paAOja5Vq3]--></g></svg>