<?xml version="1.0" encoding="us-ascii" standalone="no"?><svg xmlns="http://www.w3.org/2000/svg" xmlns:xlink="http://www.w3.org/1999/xlink" contentStyleType="text/css" height="480.6px" preserveAspectRatio="none" style="width:1430px;height:480px;background:#FFFFFF;" version="1.1" viewBox="0 0 1430 480" width="1430.4px" zoomAndPan="magnify"><defs/><g><!--cluster Job Opening Aggregate--><g id="cluster_Job Opening Aggregate"><path d="M602.7,3.6082 L703.5,3.6082 A2.25,2.25 0 0 1 705,5.1082 L709.2,18.3809 L1424.7,18.3809 A1.5,1.5 0 0 1 1426.2,19.8809 L1426.2,474.9082 A1.5,1.5 0 0 1 1424.7,476.4082 L602.7,476.4082 A1.5,1.5 0 0 1 601.2,474.9082 L601.2,5.1082 A1.5,1.5 0 0 1 602.7,3.6082 " fill="none" style="stroke:#000000;stroke-width:0.8999999999999999;"/><line style="stroke:#000000;stroke-width:0.8999999999999999;" x1="601.2" x2="709.2" y1="18.3809" y2="18.3809"/><text fill="#000000" font-family="sans-serif" font-size="8.4" font-weight="bold" lengthAdjust="spacing" textLength="100.2" x="603.6" y="13.8727">Job Opening Aggregate</text></g><!--cluster Interview Aggregate--><g id="cluster_Interview Aggregate"><path d="M459.3,20.4082 L545.7,20.4082 A2.25,2.25 0 0 1 547.2,21.9082 L551.4,35.1809 L563.1,35.1809 A1.5,1.5 0 0 1 564.6,36.6809 L564.6,237.9082 A1.5,1.5 0 0 1 563.1,239.4082 L459.3,239.4082 A1.5,1.5 0 0 1 457.8,237.9082 L457.8,21.9082 A1.5,1.5 0 0 1 459.3,20.4082 " fill="none" style="stroke:#000000;stroke-width:0.8999999999999999;"/><line style="stroke:#000000;stroke-width:0.8999999999999999;" x1="457.8" x2="551.4" y1="35.1809" y2="35.1809"/><text fill="#000000" font-family="sans-serif" font-size="8.4" font-weight="bold" lengthAdjust="spacing" textLength="85.8" x="460.2" y="30.6727">Interview Aggregate</text></g><!--cluster JobApplication Aggregate--><g id="cluster_JobApplication Aggregate"><path d="M208.5,270.0082 L317.7,270.0082 A2.25,2.25 0 0 1 319.2,271.5082 L323.4,284.7809 L585.3,284.7809 A1.5,1.5 0 0 1 586.8,286.2809 L586.8,463.8082 A1.5,1.5 0 0 1 585.3,465.3082 L208.5,465.3082 A1.5,1.5 0 0 1 207,463.8082 L207,271.5082 A1.5,1.5 0 0 1 208.5,270.0082 " fill="none" style="stroke:#000000;stroke-width:0.8999999999999999;"/><line style="stroke:#000000;stroke-width:0.8999999999999999;" x1="207" x2="323.4" y1="284.7809" y2="284.7809"/><text fill="#000000" font-family="sans-serif" font-size="8.4" font-weight="bold" lengthAdjust="spacing" textLength="108.6" x="209.4" y="280.2727">JobApplication Aggregate</text></g><!--cluster Candidate Aggregate--><g id="cluster_Candidate Aggregate"><path d="M5.1,158.4082 L94.5,158.4082 A2.25,2.25 0 0 1 96,159.9082 L100.2,173.1809 L191.1,173.1809 A1.5,1.5 0 0 1 192.6,174.6809 L192.6,354.9082 A1.5,1.5 0 0 1 191.1,356.4082 L5.1,356.4082 A1.5,1.5 0 0 1 3.6,354.9082 L3.6,159.9082 A1.5,1.5 0 0 1 5.1,158.4082 " fill="none" style="stroke:#000000;stroke-width:0.8999999999999999;"/><line style="stroke:#000000;stroke-width:0.8999999999999999;" x1="3.6" x2="100.2" y1="173.1809" y2="173.1809"/><text fill="#000000" font-family="sans-serif" font-size="8.4" font-weight="bold" lengthAdjust="spacing" textLength="88.8" x="6" y="168.6727">Candidate Aggregate</text></g><!--class RecruitmentProcess--><g id="elem_RecruitmentProcess"><rect codeLine="5" fill="#F1F1F1" height="49.118" id="RecruitmentProcess" rx="1.5" ry="1.5" style="stroke:#181818;stroke-width:0.3;" width="95.4" x="708.3" y="292.2082"/><ellipse cx="717.3" cy="306.3809" fill="#ADD1B2" rx="6.6" ry="6.6" style="stroke:#181818;stroke-width:0.6;"/><path d="M718.9594,303.9059 Q719.0531,303.7746 719.1656,303.709 Q719.2781,303.6434 719.4094,303.6434 Q719.6344,303.6434 719.775,303.8027 Q719.9156,303.9527 719.9156,304.3184 L719.9156,305.1902 Q719.9156,305.5559 719.775,305.7152 Q719.6344,305.8746 719.4094,305.8746 Q719.2031,305.8746 719.0813,305.7527 Q718.9594,305.6402 718.8938,305.3309 Q718.8656,305.1152 718.7531,305.0027 Q718.5563,304.7777 718.1906,304.6465 Q717.825,304.5152 717.45,304.5152 Q716.9906,304.5152 716.6062,304.7121 Q716.2312,304.909 715.9313,305.359 Q715.6406,305.809 715.6406,306.4277 L715.6406,307.084 Q715.6406,307.8246 716.175,308.3215 Q716.7094,308.809 717.6656,308.809 Q718.2281,308.809 718.6219,308.659 Q718.8562,308.5652 719.1094,308.3027 Q719.2688,308.1434 719.3531,308.0965 Q719.4469,308.0496 719.5688,308.0496 Q719.7656,308.0496 719.9156,308.209 Q720.075,308.359 720.075,308.5652 Q720.075,308.7715 719.8688,309.0152 Q719.5688,309.3621 719.0906,309.559 Q718.4438,309.8309 717.6656,309.8309 Q716.7563,309.8309 716.0344,309.4559 Q715.4438,309.1559 715.0313,308.5184 Q714.6188,307.8715 714.6188,307.1027 L714.6188,306.409 Q714.6188,305.6121 714.9844,304.9277 Q715.3594,304.234 716.0156,303.8684 Q716.6719,303.4934 717.4125,303.4934 Q717.8531,303.4934 718.2375,303.5965 Q718.6313,303.6902 718.9594,303.9059 Z " fill="#000000"/><text fill="#000000" font-family="sans-serif" font-size="8.4" lengthAdjust="spacing" textLength="30" x="748.8" y="304.2727">&#171;entity&#187;</text><text fill="#000000" font-family="sans-serif" font-size="8.4" lengthAdjust="spacing" textLength="76.2" x="725.7" y="315.4453">RecruitmentProcess</text><line style="stroke:#181818;stroke-width:0.3;" x1="708.9" x2="803.1" y1="320.5535" y2="320.5535"/><text fill="#000000" font-family="sans-serif" font-size="8.4" lengthAdjust="spacing" textLength="71.4" x="711.9" y="332.018">HasInterviewPhase</text><line style="stroke:#181818;stroke-width:0.3;" x1="708.9" x2="803.1" y1="336.5262" y2="336.5262"/></g><!--class Phase--><g id="elem_Phase"><rect codeLine="9" fill="#F1F1F1" height="71.4633" id="Phase" rx="1.5" ry="1.5" style="stroke:#181818;stroke-width:0.3;" width="52.2" x="1162.5" y="395.4082"/><ellipse cx="1172.85" cy="409.5809" fill="#ADD1B2" rx="6.6" ry="6.6" style="stroke:#181818;stroke-width:0.6;"/><path d="M1174.5094,407.1059 Q1174.6031,406.9746 1174.7156,406.909 Q1174.8281,406.8434 1174.9594,406.8434 Q1175.1844,406.8434 1175.325,407.0027 Q1175.4656,407.1527 1175.4656,407.5184 L1175.4656,408.3902 Q1175.4656,408.7559 1175.325,408.9152 Q1175.1844,409.0746 1174.9594,409.0746 Q1174.7531,409.0746 1174.6313,408.9527 Q1174.5094,408.8402 1174.4438,408.5309 Q1174.4156,408.3152 1174.3031,408.2027 Q1174.1063,407.9777 1173.7406,407.8465 Q1173.375,407.7152 1173,407.7152 Q1172.5406,407.7152 1172.1563,407.9121 Q1171.7813,408.109 1171.4813,408.559 Q1171.1906,409.009 1171.1906,409.6277 L1171.1906,410.284 Q1171.1906,411.0246 1171.725,411.5215 Q1172.2594,412.009 1173.2156,412.009 Q1173.7781,412.009 1174.1719,411.859 Q1174.4063,411.7652 1174.6594,411.5027 Q1174.8188,411.3434 1174.9031,411.2965 Q1174.9969,411.2496 1175.1187,411.2496 Q1175.3156,411.2496 1175.4656,411.409 Q1175.625,411.559 1175.625,411.7652 Q1175.625,411.9715 1175.4188,412.2152 Q1175.1187,412.5621 1174.6406,412.759 Q1173.9937,413.0309 1173.2156,413.0309 Q1172.3062,413.0309 1171.5844,412.6559 Q1170.9937,412.3559 1170.5813,411.7184 Q1170.1688,411.0715 1170.1688,410.3027 L1170.1688,409.609 Q1170.1688,408.8121 1170.5344,408.1277 Q1170.9094,407.434 1171.5656,407.0684 Q1172.2219,406.6934 1172.9625,406.6934 Q1173.4031,406.6934 1173.7875,406.7965 Q1174.1812,406.8902 1174.5094,407.1059 Z " fill="#000000"/><text fill="#000000" font-family="sans-serif" font-size="8.4" lengthAdjust="spacing" textLength="30" x="1181.55" y="407.4727">&#171;entity&#187;</text><text fill="#000000" font-family="sans-serif" font-size="8.4" lengthAdjust="spacing" textLength="24" x="1184.55" y="418.6453">Phase</text><line style="stroke:#181818;stroke-width:0.3;" x1="1163.1" x2="1214.1" y1="423.7535" y2="423.7535"/><text fill="#000000" font-family="sans-serif" font-size="8.4" lengthAdjust="spacing" textLength="45" x="1166.1" y="435.218">phaseName</text><text fill="#000000" font-family="sans-serif" font-size="8.4" lengthAdjust="spacing" textLength="34.8" x="1166.1" y="446.3906">startDate</text><text fill="#000000" font-family="sans-serif" font-size="8.4" lengthAdjust="spacing" textLength="32.4" x="1166.1" y="457.5633">endDate</text><line style="stroke:#181818;stroke-width:0.3;" x1="1163.1" x2="1214.1" y1="462.0715" y2="462.0715"/></g><!--class PhaseNames--><g id="elem_PhaseNames"><rect codeLine="15" fill="#F1F1F1" height="37.9453" id="PhaseNames" rx="1.5" ry="1.5" style="stroke:#181818;stroke-width:0.3;" width="74.4" x="854.4" y="297.9082"/><ellipse cx="863.4" cy="312.0809" fill="#ADD1B2" rx="6.6" ry="6.6" style="stroke:#181818;stroke-width:0.6;"/><path d="M865.0594,309.6059 Q865.1531,309.4746 865.2656,309.409 Q865.3781,309.3434 865.5094,309.3434 Q865.7344,309.3434 865.875,309.5027 Q866.0156,309.6527 866.0156,310.0184 L866.0156,310.8902 Q866.0156,311.2559 865.875,311.4152 Q865.7344,311.5746 865.5094,311.5746 Q865.3031,311.5746 865.1813,311.4527 Q865.0594,311.3402 864.9938,311.0309 Q864.9656,310.8152 864.8531,310.7027 Q864.6563,310.4777 864.2906,310.3465 Q863.925,310.2152 863.55,310.2152 Q863.0906,310.2152 862.7063,310.4121 Q862.3313,310.609 862.0313,311.059 Q861.7406,311.509 861.7406,312.1277 L861.7406,312.784 Q861.7406,313.5246 862.275,314.0215 Q862.8094,314.509 863.7656,314.509 Q864.3281,314.509 864.7219,314.359 Q864.9563,314.2652 865.2094,314.0027 Q865.3688,313.8434 865.4531,313.7965 Q865.5469,313.7496 865.6687,313.7496 Q865.8656,313.7496 866.0156,313.909 Q866.175,314.059 866.175,314.2652 Q866.175,314.4715 865.9688,314.7152 Q865.6687,315.0621 865.1906,315.259 Q864.5437,315.5309 863.7656,315.5309 Q862.8562,315.5309 862.1344,315.1559 Q861.5437,314.8559 861.1313,314.2184 Q860.7188,313.5715 860.7188,312.8027 L860.7188,312.109 Q860.7188,311.3121 861.0844,310.6277 Q861.4594,309.934 862.1156,309.5684 Q862.7719,309.1934 863.5125,309.1934 Q863.9531,309.1934 864.3375,309.2965 Q864.7312,309.3902 865.0594,309.6059 Z " fill="#000000"/><text fill="#000000" font-family="sans-serif" font-size="8.4" lengthAdjust="spacing" textLength="55.2" x="871.8" y="309.9727">&#171;value object&#187;</text><text fill="#000000" font-family="sans-serif" font-size="8.4" lengthAdjust="spacing" textLength="49.8" x="874.5" y="321.1453">PhaseNames</text><line style="stroke:#181818;stroke-width:0.3;" x1="855" x2="928.2" y1="326.2535" y2="326.2535"/><line style="stroke:#181818;stroke-width:0.3;" x1="855" x2="928.2" y1="331.0535" y2="331.0535"/></g><!--class ScreeningPhase--><g id="elem_ScreeningPhase"><rect codeLine="20" fill="#F1F1F1" height="37.9453" id="ScreeningPhase" rx="1.5" ry="1.5" style="stroke:#181818;stroke-width:0.3;" width="81.6" x="1335" y="297.9082"/><ellipse cx="1344" cy="312.0809" fill="#ADD1B2" rx="6.6" ry="6.6" style="stroke:#181818;stroke-width:0.6;"/><path d="M1345.6594,309.6059 Q1345.7531,309.4746 1345.8656,309.409 Q1345.9781,309.3434 1346.1094,309.3434 Q1346.3344,309.3434 1346.475,309.5027 Q1346.6156,309.6527 1346.6156,310.0184 L1346.6156,310.8902 Q1346.6156,311.2559 1346.475,311.4152 Q1346.3344,311.5746 1346.1094,311.5746 Q1345.9031,311.5746 1345.7813,311.4527 Q1345.6594,311.3402 1345.5938,311.0309 Q1345.5656,310.8152 1345.4531,310.7027 Q1345.2563,310.4777 1344.8906,310.3465 Q1344.525,310.2152 1344.15,310.2152 Q1343.6906,310.2152 1343.3062,310.4121 Q1342.9312,310.609 1342.6313,311.059 Q1342.3406,311.509 1342.3406,312.1277 L1342.3406,312.784 Q1342.3406,313.5246 1342.875,314.0215 Q1343.4094,314.509 1344.3656,314.509 Q1344.9281,314.509 1345.3219,314.359 Q1345.5562,314.2652 1345.8094,314.0027 Q1345.9688,313.8434 1346.0531,313.7965 Q1346.1469,313.7496 1346.2688,313.7496 Q1346.4656,313.7496 1346.6156,313.909 Q1346.775,314.059 1346.775,314.2652 Q1346.775,314.4715 1346.5688,314.7152 Q1346.2688,315.0621 1345.7906,315.259 Q1345.1438,315.5309 1344.3656,315.5309 Q1343.4563,315.5309 1342.7344,315.1559 Q1342.1438,314.8559 1341.7313,314.2184 Q1341.3188,313.5715 1341.3188,312.8027 L1341.3188,312.109 Q1341.3188,311.3121 1341.6844,310.6277 Q1342.0594,309.934 1342.7156,309.5684 Q1343.3719,309.1934 1344.1125,309.1934 Q1344.5531,309.1934 1344.9375,309.2965 Q1345.3313,309.3902 1345.6594,309.6059 Z " fill="#000000"/><text fill="#000000" font-family="sans-serif" font-size="8.4" lengthAdjust="spacing" textLength="30" x="1368.6" y="309.9727">&#171;entity&#187;</text><text fill="#000000" font-family="sans-serif" font-size="8.4" lengthAdjust="spacing" textLength="62.4" x="1352.4" y="321.1453">ScreeningPhase</text><line style="stroke:#181818;stroke-width:0.3;" x1="1335.6" x2="1416" y1="326.2535" y2="326.2535"/><line style="stroke:#181818;stroke-width:0.3;" x1="1335.6" x2="1416" y1="331.0535" y2="331.0535"/></g><!--class ResultPhase--><g id="elem_ResultPhase"><rect codeLine="24" fill="#F1F1F1" height="37.9453" id="ResultPhase" rx="1.5" ry="1.5" style="stroke:#181818;stroke-width:0.3;" width="67.2" x="1246.8" y="297.9082"/><ellipse cx="1255.8" cy="312.0809" fill="#ADD1B2" rx="6.6" ry="6.6" style="stroke:#181818;stroke-width:0.6;"/><path d="M1257.4594,309.6059 Q1257.5531,309.4746 1257.6656,309.409 Q1257.7781,309.3434 1257.9094,309.3434 Q1258.1344,309.3434 1258.275,309.5027 Q1258.4156,309.6527 1258.4156,310.0184 L1258.4156,310.8902 Q1258.4156,311.2559 1258.275,311.4152 Q1258.1344,311.5746 1257.9094,311.5746 Q1257.7031,311.5746 1257.5813,311.4527 Q1257.4594,311.3402 1257.3938,311.0309 Q1257.3656,310.8152 1257.2531,310.7027 Q1257.0562,310.4777 1256.6906,310.3465 Q1256.325,310.2152 1255.95,310.2152 Q1255.4906,310.2152 1255.1063,310.4121 Q1254.7313,310.609 1254.4312,311.059 Q1254.1406,311.509 1254.1406,312.1277 L1254.1406,312.784 Q1254.1406,313.5246 1254.675,314.0215 Q1255.2094,314.509 1256.1656,314.509 Q1256.7281,314.509 1257.1219,314.359 Q1257.3563,314.2652 1257.6094,314.0027 Q1257.7688,313.8434 1257.8531,313.7965 Q1257.9469,313.7496 1258.0688,313.7496 Q1258.2656,313.7496 1258.4156,313.909 Q1258.575,314.059 1258.575,314.2652 Q1258.575,314.4715 1258.3687,314.7152 Q1258.0688,315.0621 1257.5906,315.259 Q1256.9438,315.5309 1256.1656,315.5309 Q1255.2563,315.5309 1254.5344,315.1559 Q1253.9438,314.8559 1253.5313,314.2184 Q1253.1187,313.5715 1253.1187,312.8027 L1253.1187,312.109 Q1253.1187,311.3121 1253.4844,310.6277 Q1253.8594,309.934 1254.5156,309.5684 Q1255.1719,309.1934 1255.9125,309.1934 Q1256.3531,309.1934 1256.7375,309.2965 Q1257.1313,309.3902 1257.4594,309.6059 Z " fill="#000000"/><text fill="#000000" font-family="sans-serif" font-size="8.4" lengthAdjust="spacing" textLength="30" x="1273.2" y="309.9727">&#171;entity&#187;</text><text fill="#000000" font-family="sans-serif" font-size="8.4" lengthAdjust="spacing" textLength="48" x="1264.2" y="321.1453">ResultPhase</text><line style="stroke:#181818;stroke-width:0.3;" x1="1247.4" x2="1313.4" y1="326.2535" y2="326.2535"/><line style="stroke:#181818;stroke-width:0.3;" x1="1247.4" x2="1313.4" y1="331.0535" y2="331.0535"/></g><!--class AnalysisPhase--><g id="elem_AnalysisPhase"><rect codeLine="27" fill="#F1F1F1" height="37.9453" id="AnalysisPhase" rx="1.5" ry="1.5" style="stroke:#181818;stroke-width:0.3;" width="74.4" x="1151.4" y="297.9082"/><ellipse cx="1160.4" cy="312.0809" fill="#ADD1B2" rx="6.6" ry="6.6" style="stroke:#181818;stroke-width:0.6;"/><path d="M1162.0594,309.6059 Q1162.1531,309.4746 1162.2656,309.409 Q1162.3781,309.3434 1162.5094,309.3434 Q1162.7344,309.3434 1162.875,309.5027 Q1163.0156,309.6527 1163.0156,310.0184 L1163.0156,310.8902 Q1163.0156,311.2559 1162.875,311.4152 Q1162.7344,311.5746 1162.5094,311.5746 Q1162.3031,311.5746 1162.1812,311.4527 Q1162.0594,311.3402 1161.9937,311.0309 Q1161.9656,310.8152 1161.8531,310.7027 Q1161.6563,310.4777 1161.2906,310.3465 Q1160.925,310.2152 1160.55,310.2152 Q1160.0906,310.2152 1159.7063,310.4121 Q1159.3313,310.609 1159.0313,311.059 Q1158.7406,311.509 1158.7406,312.1277 L1158.7406,312.784 Q1158.7406,313.5246 1159.275,314.0215 Q1159.8094,314.509 1160.7656,314.509 Q1161.3281,314.509 1161.7219,314.359 Q1161.9563,314.2652 1162.2094,314.0027 Q1162.3687,313.8434 1162.4531,313.7965 Q1162.5469,313.7496 1162.6688,313.7496 Q1162.8656,313.7496 1163.0156,313.909 Q1163.175,314.059 1163.175,314.2652 Q1163.175,314.4715 1162.9688,314.7152 Q1162.6688,315.0621 1162.1906,315.259 Q1161.5438,315.5309 1160.7656,315.5309 Q1159.8563,315.5309 1159.1344,315.1559 Q1158.5438,314.8559 1158.1313,314.2184 Q1157.7188,313.5715 1157.7188,312.8027 L1157.7188,312.109 Q1157.7188,311.3121 1158.0844,310.6277 Q1158.4594,309.934 1159.1156,309.5684 Q1159.7719,309.1934 1160.5125,309.1934 Q1160.9531,309.1934 1161.3375,309.2965 Q1161.7313,309.3902 1162.0594,309.6059 Z " fill="#000000"/><text fill="#000000" font-family="sans-serif" font-size="8.4" lengthAdjust="spacing" textLength="30" x="1181.4" y="309.9727">&#171;entity&#187;</text><text fill="#000000" font-family="sans-serif" font-size="8.4" lengthAdjust="spacing" textLength="55.2" x="1168.8" y="321.1453">AnalysisPhase</text><line style="stroke:#181818;stroke-width:0.3;" x1="1152" x2="1225.2" y1="326.2535" y2="326.2535"/><line style="stroke:#181818;stroke-width:0.3;" x1="1152" x2="1225.2" y1="331.0535" y2="331.0535"/></g><!--class JobOpening--><g id="elem_JobOpening"><rect codeLine="31" fill="#F1F1F1" height="49.118" id="JobOpening" rx="1.5" ry="1.5" style="stroke:#181818;stroke-width:0.3;" width="64.8" x="819" y="180.6082"/><ellipse cx="828" cy="200.3672" fill="#ADD1B2" rx="6.6" ry="6.6" style="stroke:#181818;stroke-width:0.6;"/><path d="M829.6594,197.8922 Q829.7531,197.7609 829.8656,197.6953 Q829.9781,197.6297 830.1094,197.6297 Q830.3344,197.6297 830.475,197.7891 Q830.6156,197.9391 830.6156,198.3047 L830.6156,199.1766 Q830.6156,199.5422 830.475,199.7016 Q830.3344,199.8609 830.1094,199.8609 Q829.9031,199.8609 829.7813,199.7391 Q829.6594,199.6266 829.5938,199.3172 Q829.5656,199.1016 829.4531,198.9891 Q829.2563,198.7641 828.8906,198.6328 Q828.525,198.5016 828.15,198.5016 Q827.6906,198.5016 827.3063,198.6984 Q826.9313,198.8953 826.6313,199.3453 Q826.3406,199.7953 826.3406,200.4141 L826.3406,201.0703 Q826.3406,201.8109 826.875,202.3078 Q827.4094,202.7953 828.3656,202.7953 Q828.9281,202.7953 829.3219,202.6453 Q829.5563,202.5516 829.8094,202.2891 Q829.9688,202.1297 830.0531,202.0828 Q830.1469,202.0359 830.2688,202.0359 Q830.4656,202.0359 830.6156,202.1953 Q830.775,202.3453 830.775,202.5516 Q830.775,202.7578 830.5688,203.0016 Q830.2688,203.3484 829.7906,203.5453 Q829.1438,203.8172 828.3656,203.8172 Q827.4563,203.8172 826.7344,203.4422 Q826.1438,203.1422 825.7312,202.5047 Q825.3188,201.8578 825.3188,201.0891 L825.3188,200.3953 Q825.3188,199.5984 825.6844,198.9141 Q826.0594,198.2203 826.7156,197.8547 Q827.3719,197.4797 828.1125,197.4797 Q828.5531,197.4797 828.9375,197.5828 Q829.3313,197.6766 829.6594,197.8922 Z " fill="#000000"/><text fill="#000000" font-family="sans-serif" font-size="8.4" lengthAdjust="spacing" textLength="24.6" x="846.9" y="192.6727">&#171;root&#187;</text><text fill="#000000" font-family="sans-serif" font-size="8.4" lengthAdjust="spacing" textLength="30" x="843" y="203.8453">&#171;entity&#187;</text><text fill="#000000" font-family="sans-serif" font-size="8.4" lengthAdjust="spacing" textLength="45.6" x="836.4" y="215.018">JobOpening</text><line style="stroke:#181818;stroke-width:0.3;" x1="819.6" x2="883.2" y1="220.1262" y2="220.1262"/><line style="stroke:#181818;stroke-width:0.3;" x1="819.6" x2="883.2" y1="224.9262" y2="224.9262"/></g><!--class JogOpeningState--><g id="elem_JogOpeningState"><rect codeLine="36" fill="#F1F1F1" height="37.9453" id="JogOpeningState" rx="1.5" ry="1.5" style="stroke:#181818;stroke-width:0.3;" width="84.6" x="950.1" y="297.9082"/><ellipse cx="959.1" cy="312.0809" fill="#ADD1B2" rx="6.6" ry="6.6" style="stroke:#181818;stroke-width:0.6;"/><path d="M960.7594,309.6059 Q960.8531,309.4746 960.9656,309.409 Q961.0781,309.3434 961.2094,309.3434 Q961.4344,309.3434 961.575,309.5027 Q961.7156,309.6527 961.7156,310.0184 L961.7156,310.8902 Q961.7156,311.2559 961.575,311.4152 Q961.4344,311.5746 961.2094,311.5746 Q961.0031,311.5746 960.8812,311.4527 Q960.7594,311.3402 960.6937,311.0309 Q960.6656,310.8152 960.5531,310.7027 Q960.3562,310.4777 959.9906,310.3465 Q959.625,310.2152 959.25,310.2152 Q958.7906,310.2152 958.4063,310.4121 Q958.0313,310.609 957.7312,311.059 Q957.4406,311.509 957.4406,312.1277 L957.4406,312.784 Q957.4406,313.5246 957.975,314.0215 Q958.5094,314.509 959.4656,314.509 Q960.0281,314.509 960.4219,314.359 Q960.6563,314.2652 960.9094,314.0027 Q961.0687,313.8434 961.1531,313.7965 Q961.2469,313.7496 961.3688,313.7496 Q961.5656,313.7496 961.7156,313.909 Q961.875,314.059 961.875,314.2652 Q961.875,314.4715 961.6687,314.7152 Q961.3688,315.0621 960.8906,315.259 Q960.2438,315.5309 959.4656,315.5309 Q958.5563,315.5309 957.8344,315.1559 Q957.2438,314.8559 956.8313,314.2184 Q956.4187,313.5715 956.4187,312.8027 L956.4187,312.109 Q956.4187,311.3121 956.7844,310.6277 Q957.1594,309.934 957.8156,309.5684 Q958.4719,309.1934 959.2125,309.1934 Q959.6531,309.1934 960.0375,309.2965 Q960.4313,309.3902 960.7594,309.6059 Z " fill="#000000"/><text fill="#000000" font-family="sans-serif" font-size="8.4" lengthAdjust="spacing" textLength="55.2" x="972.6" y="309.9727">&#171;value object&#187;</text><text fill="#000000" font-family="sans-serif" font-size="8.4" lengthAdjust="spacing" textLength="65.4" x="967.5" y="321.1453">JogOpeningState</text><line style="stroke:#181818;stroke-width:0.3;" x1="950.7" x2="1034.1" y1="326.2535" y2="326.2535"/><line style="stroke:#181818;stroke-width:0.3;" x1="950.7" x2="1034.1" y1="331.0535" y2="331.0535"/></g><!--class ContractType--><g id="elem_ContractType"><rect codeLine="39" fill="#F1F1F1" height="37.9453" id="ContractType" rx="1.5" ry="1.5" style="stroke:#181818;stroke-width:0.3;" width="74.4" x="1113" y="53.7082"/><ellipse cx="1122" cy="67.8809" fill="#ADD1B2" rx="6.6" ry="6.6" style="stroke:#181818;stroke-width:0.6;"/><path d="M1123.6594,65.4059 Q1123.7531,65.2746 1123.8656,65.209 Q1123.9781,65.1434 1124.1094,65.1434 Q1124.3344,65.1434 1124.475,65.3027 Q1124.6156,65.4527 1124.6156,65.8184 L1124.6156,66.6902 Q1124.6156,67.0559 1124.475,67.2152 Q1124.3344,67.3746 1124.1094,67.3746 Q1123.9031,67.3746 1123.7813,67.2527 Q1123.6594,67.1402 1123.5938,66.8309 Q1123.5656,66.6152 1123.4531,66.5027 Q1123.2563,66.2777 1122.8906,66.1465 Q1122.525,66.0152 1122.15,66.0152 Q1121.6906,66.0152 1121.3062,66.2121 Q1120.9312,66.409 1120.6313,66.859 Q1120.3406,67.309 1120.3406,67.9277 L1120.3406,68.584 Q1120.3406,69.3246 1120.875,69.8215 Q1121.4094,70.309 1122.3656,70.309 Q1122.9281,70.309 1123.3219,70.159 Q1123.5562,70.0652 1123.8094,69.8027 Q1123.9688,69.6434 1124.0531,69.5965 Q1124.1469,69.5496 1124.2688,69.5496 Q1124.4656,69.5496 1124.6156,69.709 Q1124.775,69.859 1124.775,70.0652 Q1124.775,70.2715 1124.5688,70.5152 Q1124.2688,70.8621 1123.7906,71.059 Q1123.1438,71.3309 1122.3656,71.3309 Q1121.4563,71.3309 1120.7344,70.9559 Q1120.1438,70.6559 1119.7313,70.0184 Q1119.3188,69.3715 1119.3188,68.6027 L1119.3188,67.909 Q1119.3188,67.1121 1119.6844,66.4277 Q1120.0594,65.734 1120.7156,65.3684 Q1121.3719,64.9934 1122.1125,64.9934 Q1122.5531,64.9934 1122.9375,65.0965 Q1123.3313,65.1902 1123.6594,65.4059 Z " fill="#000000"/><text fill="#000000" font-family="sans-serif" font-size="8.4" lengthAdjust="spacing" textLength="55.2" x="1130.4" y="65.7727">&#171;value object&#187;</text><text fill="#000000" font-family="sans-serif" font-size="8.4" lengthAdjust="spacing" textLength="51.6" x="1132.2" y="76.9453">ContractType</text><line style="stroke:#181818;stroke-width:0.3;" x1="1113.6" x2="1186.8" y1="82.0535" y2="82.0535"/><line style="stroke:#181818;stroke-width:0.3;" x1="1113.6" x2="1186.8" y1="86.8535" y2="86.8535"/></g><!--class Mode--><g id="elem_Mode"><rect codeLine="42" fill="#F1F1F1" height="37.9453" id="Mode" rx="1.5" ry="1.5" style="stroke:#181818;stroke-width:0.3;" width="74.4" x="1017.6" y="53.7082"/><ellipse cx="1026.6" cy="67.8809" fill="#ADD1B2" rx="6.6" ry="6.6" style="stroke:#181818;stroke-width:0.6;"/><path d="M1028.2594,65.4059 Q1028.3531,65.2746 1028.4656,65.209 Q1028.5781,65.1434 1028.7094,65.1434 Q1028.9344,65.1434 1029.075,65.3027 Q1029.2156,65.4527 1029.2156,65.8184 L1029.2156,66.6902 Q1029.2156,67.0559 1029.075,67.2152 Q1028.9344,67.3746 1028.7094,67.3746 Q1028.5031,67.3746 1028.3813,67.2527 Q1028.2594,67.1402 1028.1938,66.8309 Q1028.1656,66.6152 1028.0531,66.5027 Q1027.8563,66.2777 1027.4906,66.1465 Q1027.125,66.0152 1026.75,66.0152 Q1026.2906,66.0152 1025.9063,66.2121 Q1025.5313,66.409 1025.2313,66.859 Q1024.9406,67.309 1024.9406,67.9277 L1024.9406,68.584 Q1024.9406,69.3246 1025.475,69.8215 Q1026.0094,70.309 1026.9656,70.309 Q1027.5281,70.309 1027.9219,70.159 Q1028.1563,70.0652 1028.4094,69.8027 Q1028.5688,69.6434 1028.6531,69.5965 Q1028.7469,69.5496 1028.8687,69.5496 Q1029.0656,69.5496 1029.2156,69.709 Q1029.375,69.859 1029.375,70.0652 Q1029.375,70.2715 1029.1688,70.5152 Q1028.8687,70.8621 1028.3906,71.059 Q1027.7437,71.3309 1026.9656,71.3309 Q1026.0562,71.3309 1025.3344,70.9559 Q1024.7437,70.6559 1024.3313,70.0184 Q1023.9187,69.3715 1023.9187,68.6027 L1023.9187,67.909 Q1023.9187,67.1121 1024.2844,66.4277 Q1024.6594,65.734 1025.3156,65.3684 Q1025.9719,64.9934 1026.7125,64.9934 Q1027.1531,64.9934 1027.5375,65.0965 Q1027.9312,65.1902 1028.2594,65.4059 Z " fill="#000000"/><text fill="#000000" font-family="sans-serif" font-size="8.4" lengthAdjust="spacing" textLength="55.2" x="1035" y="65.7727">&#171;value object&#187;</text><text fill="#000000" font-family="sans-serif" font-size="8.4" lengthAdjust="spacing" textLength="21" x="1052.1" y="76.9453">Mode</text><line style="stroke:#181818;stroke-width:0.3;" x1="1018.2" x2="1091.4" y1="82.0535" y2="82.0535"/><line style="stroke:#181818;stroke-width:0.3;" x1="1018.2" x2="1091.4" y1="86.8535" y2="86.8535"/></g><!--class JobFunction--><g id="elem_JobFunction"><rect codeLine="46" fill="#F1F1F1" height="37.9453" id="JobFunction" rx="1.5" ry="1.5" style="stroke:#181818;stroke-width:0.3;" width="74.4" x="922.2" y="53.7082"/><ellipse cx="931.2" cy="67.8809" fill="#ADD1B2" rx="6.6" ry="6.6" style="stroke:#181818;stroke-width:0.6;"/><path d="M932.8594,65.4059 Q932.9531,65.2746 933.0656,65.209 Q933.1781,65.1434 933.3094,65.1434 Q933.5344,65.1434 933.675,65.3027 Q933.8156,65.4527 933.8156,65.8184 L933.8156,66.6902 Q933.8156,67.0559 933.675,67.2152 Q933.5344,67.3746 933.3094,67.3746 Q933.1031,67.3746 932.9812,67.2527 Q932.8594,67.1402 932.7937,66.8309 Q932.7656,66.6152 932.6531,66.5027 Q932.4563,66.2777 932.0906,66.1465 Q931.725,66.0152 931.35,66.0152 Q930.8906,66.0152 930.5062,66.2121 Q930.1312,66.409 929.8313,66.859 Q929.5406,67.309 929.5406,67.9277 L929.5406,68.584 Q929.5406,69.3246 930.075,69.8215 Q930.6094,70.309 931.5656,70.309 Q932.1281,70.309 932.5219,70.159 Q932.7562,70.0652 933.0094,69.8027 Q933.1687,69.6434 933.2531,69.5965 Q933.3469,69.5496 933.4688,69.5496 Q933.6656,69.5496 933.8156,69.709 Q933.975,69.859 933.975,70.0652 Q933.975,70.2715 933.7688,70.5152 Q933.4688,70.8621 932.9906,71.059 Q932.3438,71.3309 931.5656,71.3309 Q930.6563,71.3309 929.9344,70.9559 Q929.3438,70.6559 928.9313,70.0184 Q928.5188,69.3715 928.5188,68.6027 L928.5188,67.909 Q928.5188,67.1121 928.8844,66.4277 Q929.2594,65.734 929.9156,65.3684 Q930.5719,64.9934 931.3125,64.9934 Q931.7531,64.9934 932.1375,65.0965 Q932.5313,65.1902 932.8594,65.4059 Z " fill="#000000"/><text fill="#000000" font-family="sans-serif" font-size="8.4" lengthAdjust="spacing" textLength="55.2" x="939.6" y="65.7727">&#171;value object&#187;</text><text fill="#000000" font-family="sans-serif" font-size="8.4" lengthAdjust="spacing" textLength="46.2" x="944.1" y="76.9453">JobFunction</text><line style="stroke:#181818;stroke-width:0.3;" x1="922.8" x2="996" y1="82.0535" y2="82.0535"/><line style="stroke:#181818;stroke-width:0.3;" x1="922.8" x2="996" y1="86.8535" y2="86.8535"/></g><!--class NumberOfVacancies--><g id="elem_NumberOfVacancies"><rect codeLine="50" fill="#F1F1F1" height="37.9453" id="NumberOfVacancies" rx="1.5" ry="1.5" style="stroke:#181818;stroke-width:0.3;" width="99" x="801.9" y="53.7082"/><ellipse cx="810.9" cy="67.8809" fill="#ADD1B2" rx="6.6" ry="6.6" style="stroke:#181818;stroke-width:0.6;"/><path d="M812.5594,65.4059 Q812.6531,65.2746 812.7656,65.209 Q812.8781,65.1434 813.0094,65.1434 Q813.2344,65.1434 813.375,65.3027 Q813.5156,65.4527 813.5156,65.8184 L813.5156,66.6902 Q813.5156,67.0559 813.375,67.2152 Q813.2344,67.3746 813.0094,67.3746 Q812.8031,67.3746 812.6813,67.2527 Q812.5594,67.1402 812.4938,66.8309 Q812.4656,66.6152 812.3531,66.5027 Q812.1563,66.2777 811.7906,66.1465 Q811.425,66.0152 811.05,66.0152 Q810.5906,66.0152 810.2063,66.2121 Q809.8313,66.409 809.5313,66.859 Q809.2406,67.309 809.2406,67.9277 L809.2406,68.584 Q809.2406,69.3246 809.775,69.8215 Q810.3094,70.309 811.2656,70.309 Q811.8281,70.309 812.2219,70.159 Q812.4563,70.0652 812.7094,69.8027 Q812.8688,69.6434 812.9531,69.5965 Q813.0469,69.5496 813.1687,69.5496 Q813.3656,69.5496 813.5156,69.709 Q813.675,69.859 813.675,70.0652 Q813.675,70.2715 813.4688,70.5152 Q813.1687,70.8621 812.6906,71.059 Q812.0437,71.3309 811.2656,71.3309 Q810.3562,71.3309 809.6344,70.9559 Q809.0437,70.6559 808.6313,70.0184 Q808.2188,69.3715 808.2188,68.6027 L808.2188,67.909 Q808.2188,67.1121 808.5844,66.4277 Q808.9594,65.734 809.6156,65.3684 Q810.2719,64.9934 811.0125,64.9934 Q811.4531,64.9934 811.8375,65.0965 Q812.2312,65.1902 812.5594,65.4059 Z " fill="#000000"/><text fill="#000000" font-family="sans-serif" font-size="8.4" lengthAdjust="spacing" textLength="55.2" x="831.6" y="65.7727">&#171;value object&#187;</text><text fill="#000000" font-family="sans-serif" font-size="8.4" lengthAdjust="spacing" textLength="77.4" x="821.7" y="76.9453">NumberOfVacancies</text><line style="stroke:#181818;stroke-width:0.3;" x1="802.5" x2="900.3" y1="82.0535" y2="82.0535"/><line style="stroke:#181818;stroke-width:0.3;" x1="802.5" x2="900.3" y1="86.8535" y2="86.8535"/></g><!--class Description--><g id="elem_Description"><rect codeLine="54" fill="#F1F1F1" height="37.9453" id="Description" rx="1.5" ry="1.5" style="stroke:#181818;stroke-width:0.3;" width="74.4" x="706.2" y="53.7082"/><ellipse cx="715.2" cy="67.8809" fill="#ADD1B2" rx="6.6" ry="6.6" style="stroke:#181818;stroke-width:0.6;"/><path d="M716.8594,65.4059 Q716.9531,65.2746 717.0656,65.209 Q717.1781,65.1434 717.3094,65.1434 Q717.5344,65.1434 717.675,65.3027 Q717.8156,65.4527 717.8156,65.8184 L717.8156,66.6902 Q717.8156,67.0559 717.675,67.2152 Q717.5344,67.3746 717.3094,67.3746 Q717.1031,67.3746 716.9812,67.2527 Q716.8594,67.1402 716.7937,66.8309 Q716.7656,66.6152 716.6531,66.5027 Q716.4563,66.2777 716.0906,66.1465 Q715.725,66.0152 715.35,66.0152 Q714.8906,66.0152 714.5063,66.2121 Q714.1313,66.409 713.8313,66.859 Q713.5406,67.309 713.5406,67.9277 L713.5406,68.584 Q713.5406,69.3246 714.075,69.8215 Q714.6094,70.309 715.5656,70.309 Q716.1281,70.309 716.5219,70.159 Q716.7563,70.0652 717.0094,69.8027 Q717.1687,69.6434 717.2531,69.5965 Q717.3469,69.5496 717.4688,69.5496 Q717.6656,69.5496 717.8156,69.709 Q717.975,69.859 717.975,70.0652 Q717.975,70.2715 717.7688,70.5152 Q717.4688,70.8621 716.9906,71.059 Q716.3438,71.3309 715.5656,71.3309 Q714.6563,71.3309 713.9344,70.9559 Q713.3438,70.6559 712.9313,70.0184 Q712.5188,69.3715 712.5188,68.6027 L712.5188,67.909 Q712.5188,67.1121 712.8844,66.4277 Q713.2594,65.734 713.9156,65.3684 Q714.5719,64.9934 715.3125,64.9934 Q715.7531,64.9934 716.1375,65.0965 Q716.5313,65.1902 716.8594,65.4059 Z " fill="#000000"/><text fill="#000000" font-family="sans-serif" font-size="8.4" lengthAdjust="spacing" textLength="55.2" x="723.6" y="65.7727">&#171;value object&#187;</text><text fill="#000000" font-family="sans-serif" font-size="8.4" lengthAdjust="spacing" textLength="42.6" x="729.9" y="76.9453">Description</text><line style="stroke:#181818;stroke-width:0.3;" x1="706.8" x2="780" y1="82.0535" y2="82.0535"/><line style="stroke:#181818;stroke-width:0.3;" x1="706.8" x2="780" y1="86.8535" y2="86.8535"/></g><!--class Address1--><g id="elem_Address1"><rect codeLine="59" fill="#F1F1F1" height="93.8086" id="Address1" rx="1.5" ry="1.5" style="stroke:#181818;stroke-width:0.3;" width="74.4" x="610.8" y="25.8082"/><ellipse cx="619.8" cy="39.9809" fill="#ADD1B2" rx="6.6" ry="6.6" style="stroke:#181818;stroke-width:0.6;"/><path d="M621.4594,37.5059 Q621.5531,37.3746 621.6656,37.309 Q621.7781,37.2434 621.9094,37.2434 Q622.1344,37.2434 622.275,37.4027 Q622.4156,37.5527 622.4156,37.9184 L622.4156,38.7902 Q622.4156,39.1559 622.275,39.3152 Q622.1344,39.4746 621.9094,39.4746 Q621.7031,39.4746 621.5813,39.3527 Q621.4594,39.2402 621.3938,38.9309 Q621.3656,38.7152 621.2531,38.6027 Q621.0563,38.3777 620.6906,38.2465 Q620.325,38.1152 619.95,38.1152 Q619.4906,38.1152 619.1062,38.3121 Q618.7312,38.509 618.4313,38.959 Q618.1406,39.409 618.1406,40.0277 L618.1406,40.684 Q618.1406,41.4246 618.675,41.9215 Q619.2094,42.409 620.1656,42.409 Q620.7281,42.409 621.1219,42.259 Q621.3562,42.1652 621.6094,41.9027 Q621.7688,41.7434 621.8531,41.6965 Q621.9469,41.6496 622.0688,41.6496 Q622.2656,41.6496 622.4156,41.809 Q622.575,41.959 622.575,42.1652 Q622.575,42.3715 622.3688,42.6152 Q622.0688,42.9621 621.5906,43.159 Q620.9438,43.4309 620.1656,43.4309 Q619.2563,43.4309 618.5344,43.0559 Q617.9438,42.7559 617.5313,42.1184 Q617.1188,41.4715 617.1188,40.7027 L617.1188,40.009 Q617.1188,39.2121 617.4844,38.5277 Q617.8594,37.834 618.5156,37.4684 Q619.1719,37.0934 619.9125,37.0934 Q620.3531,37.0934 620.7375,37.1965 Q621.1313,37.2902 621.4594,37.5059 Z " fill="#000000"/><text fill="#000000" font-family="sans-serif" font-size="8.4" lengthAdjust="spacing" textLength="55.2" x="628.2" y="37.8727">&#171;value object&#187;</text><text fill="#000000" font-family="sans-serif" font-size="8.4" lengthAdjust="spacing" textLength="31.2" x="640.2" y="49.0453">Address</text><line style="stroke:#181818;stroke-width:0.3;" x1="611.4" x2="684.6" y1="54.1535" y2="54.1535"/><text fill="#000000" font-family="sans-serif" font-size="8.4" lengthAdjust="spacing" textLength="22.8" x="614.4" y="65.618">Street</text><text fill="#000000" font-family="sans-serif" font-size="8.4" lengthAdjust="spacing" textLength="14.4" x="614.4" y="76.7906">City</text><text fill="#000000" font-family="sans-serif" font-size="8.4" lengthAdjust="spacing" textLength="19.8" x="614.4" y="87.9633">State</text><text fill="#000000" font-family="sans-serif" font-size="8.4" lengthAdjust="spacing" textLength="30" x="614.4" y="99.1359">Country</text><text fill="#000000" font-family="sans-serif" font-size="8.4" lengthAdjust="spacing" textLength="30" x="614.4" y="110.3086">Zipcode</text><line style="stroke:#181818;stroke-width:0.3;" x1="611.4" x2="684.6" y1="114.8168" y2="114.8168"/></g><!--class JobReference--><g id="elem_JobReference"><rect codeLine="67" fill="#F1F1F1" height="49.118" id="JobReference" rx="1.5" ry="1.5" style="stroke:#181818;stroke-width:0.3;" width="74.4" x="1056" y="292.2082"/><ellipse cx="1065" cy="311.9672" fill="#ADD1B2" rx="6.6" ry="6.6" style="stroke:#181818;stroke-width:0.6;"/><path d="M1066.6594,309.4922 Q1066.7531,309.3609 1066.8656,309.2953 Q1066.9781,309.2297 1067.1094,309.2297 Q1067.3344,309.2297 1067.475,309.3891 Q1067.6156,309.5391 1067.6156,309.9047 L1067.6156,310.7766 Q1067.6156,311.1422 1067.475,311.3016 Q1067.3344,311.4609 1067.1094,311.4609 Q1066.9031,311.4609 1066.7813,311.3391 Q1066.6594,311.2266 1066.5938,310.9172 Q1066.5656,310.7016 1066.4531,310.5891 Q1066.2563,310.3641 1065.8906,310.2328 Q1065.525,310.1016 1065.15,310.1016 Q1064.6906,310.1016 1064.3062,310.2984 Q1063.9312,310.4953 1063.6313,310.9453 Q1063.3406,311.3953 1063.3406,312.0141 L1063.3406,312.6703 Q1063.3406,313.4109 1063.875,313.9078 Q1064.4094,314.3953 1065.3656,314.3953 Q1065.9281,314.3953 1066.3219,314.2453 Q1066.5562,314.1516 1066.8094,313.8891 Q1066.9688,313.7297 1067.0531,313.6828 Q1067.1469,313.6359 1067.2688,313.6359 Q1067.4656,313.6359 1067.6156,313.7953 Q1067.775,313.9453 1067.775,314.1516 Q1067.775,314.3578 1067.5688,314.6016 Q1067.2688,314.9484 1066.7906,315.1453 Q1066.1438,315.4172 1065.3656,315.4172 Q1064.4563,315.4172 1063.7344,315.0422 Q1063.1438,314.7422 1062.7313,314.1047 Q1062.3188,313.4578 1062.3188,312.6891 L1062.3188,311.9953 Q1062.3188,311.1984 1062.6844,310.5141 Q1063.0594,309.8203 1063.7156,309.4547 Q1064.3719,309.0797 1065.1125,309.0797 Q1065.5531,309.0797 1065.9375,309.1828 Q1066.3313,309.2766 1066.6594,309.4922 Z " fill="#000000"/><text fill="#000000" font-family="sans-serif" font-size="8.4" lengthAdjust="spacing" textLength="55.2" x="1073.4" y="304.2727">&#171;value object&#187;</text><text fill="#000000" font-family="sans-serif" font-size="8.4" lengthAdjust="spacing" textLength="42" x="1080" y="315.4453">&#171;identifier&#187;</text><text fill="#000000" font-family="sans-serif" font-size="8.4" lengthAdjust="spacing" textLength="52.8" x="1074.6" y="326.618">JobReference</text><line style="stroke:#181818;stroke-width:0.3;" x1="1056.6" x2="1129.8" y1="331.7262" y2="331.7262"/><line style="stroke:#181818;stroke-width:0.3;" x1="1056.6" x2="1129.8" y1="336.5262" y2="336.5262"/></g><!--class InterviewPhase--><g id="elem_InterviewPhase"><rect codeLine="70" fill="#F1F1F1" height="37.9453" id="InterviewPhase" rx="1.5" ry="1.5" style="stroke:#181818;stroke-width:0.3;" width="76.2" x="611.1" y="297.9082"/><ellipse cx="620.1" cy="312.0809" fill="#ADD1B2" rx="6.6" ry="6.6" style="stroke:#181818;stroke-width:0.6;"/><path d="M621.7594,309.6059 Q621.8531,309.4746 621.9656,309.409 Q622.0781,309.3434 622.2094,309.3434 Q622.4344,309.3434 622.575,309.5027 Q622.7156,309.6527 622.7156,310.0184 L622.7156,310.8902 Q622.7156,311.2559 622.575,311.4152 Q622.4344,311.5746 622.2094,311.5746 Q622.0031,311.5746 621.8813,311.4527 Q621.7594,311.3402 621.6938,311.0309 Q621.6656,310.8152 621.5531,310.7027 Q621.3562,310.4777 620.9906,310.3465 Q620.625,310.2152 620.25,310.2152 Q619.7906,310.2152 619.4063,310.4121 Q619.0313,310.609 618.7312,311.059 Q618.4406,311.509 618.4406,312.1277 L618.4406,312.784 Q618.4406,313.5246 618.975,314.0215 Q619.5094,314.509 620.4656,314.509 Q621.0281,314.509 621.4219,314.359 Q621.6563,314.2652 621.9094,314.0027 Q622.0688,313.8434 622.1531,313.7965 Q622.2469,313.7496 622.3688,313.7496 Q622.5656,313.7496 622.7156,313.909 Q622.875,314.059 622.875,314.2652 Q622.875,314.4715 622.6687,314.7152 Q622.3688,315.0621 621.8906,315.259 Q621.2438,315.5309 620.4656,315.5309 Q619.5563,315.5309 618.8344,315.1559 Q618.2438,314.8559 617.8313,314.2184 Q617.4187,313.5715 617.4187,312.8027 L617.4187,312.109 Q617.4187,311.3121 617.7844,310.6277 Q618.1594,309.934 618.8156,309.5684 Q619.4719,309.1934 620.2125,309.1934 Q620.6531,309.1934 621.0375,309.2965 Q621.4313,309.3902 621.7594,309.6059 Z " fill="#000000"/><text fill="#000000" font-family="sans-serif" font-size="8.4" lengthAdjust="spacing" textLength="30" x="642" y="309.9727">&#171;entity&#187;</text><text fill="#000000" font-family="sans-serif" font-size="8.4" lengthAdjust="spacing" textLength="57" x="628.5" y="321.1453">InterviewPhase</text><line style="stroke:#181818;stroke-width:0.3;" x1="611.7" x2="686.7" y1="326.2535" y2="326.2535"/><line style="stroke:#181818;stroke-width:0.3;" x1="611.7" x2="686.7" y1="331.0535" y2="331.0535"/></g><!--class Interview--><g id="elem_Interview"><rect codeLine="80" fill="#F1F1F1" height="49.118" id="Interview" rx="1.5" ry="1.5" style="stroke:#181818;stroke-width:0.3;" width="52.2" x="485.1" y="180.6082"/><ellipse cx="494.1" cy="200.3672" fill="#ADD1B2" rx="6.6" ry="6.6" style="stroke:#181818;stroke-width:0.6;"/><path d="M495.7594,197.8922 Q495.8531,197.7609 495.9656,197.6953 Q496.0781,197.6297 496.2094,197.6297 Q496.4344,197.6297 496.575,197.7891 Q496.7156,197.9391 496.7156,198.3047 L496.7156,199.1766 Q496.7156,199.5422 496.575,199.7016 Q496.4344,199.8609 496.2094,199.8609 Q496.0031,199.8609 495.8812,199.7391 Q495.7594,199.6266 495.6937,199.3172 Q495.6656,199.1016 495.5531,198.9891 Q495.3563,198.7641 494.9906,198.6328 Q494.625,198.5016 494.25,198.5016 Q493.7906,198.5016 493.4063,198.6984 Q493.0313,198.8953 492.7313,199.3453 Q492.4406,199.7953 492.4406,200.4141 L492.4406,201.0703 Q492.4406,201.8109 492.975,202.3078 Q493.5094,202.7953 494.4656,202.7953 Q495.0281,202.7953 495.4219,202.6453 Q495.6563,202.5516 495.9094,202.2891 Q496.0687,202.1297 496.1531,202.0828 Q496.2469,202.0359 496.3688,202.0359 Q496.5656,202.0359 496.7156,202.1953 Q496.875,202.3453 496.875,202.5516 Q496.875,202.7578 496.6688,203.0016 Q496.3688,203.3484 495.8906,203.5453 Q495.2438,203.8172 494.4656,203.8172 Q493.5563,203.8172 492.8344,203.4422 Q492.2438,203.1422 491.8312,202.5047 Q491.4188,201.8578 491.4188,201.0891 L491.4188,200.3953 Q491.4188,199.5984 491.7844,198.9141 Q492.1594,198.2203 492.8156,197.8547 Q493.4719,197.4797 494.2125,197.4797 Q494.6531,197.4797 495.0375,197.5828 Q495.4313,197.6766 495.7594,197.8922 Z " fill="#000000"/><text fill="#000000" font-family="sans-serif" font-size="8.4" lengthAdjust="spacing" textLength="24.6" x="506.7" y="192.6727">&#171;root&#187;</text><text fill="#000000" font-family="sans-serif" font-size="8.4" lengthAdjust="spacing" textLength="30" x="504" y="203.8453">&#171;entity&#187;</text><text fill="#000000" font-family="sans-serif" font-size="8.4" lengthAdjust="spacing" textLength="33" x="502.5" y="215.018">Interview</text><line style="stroke:#181818;stroke-width:0.3;" x1="485.7" x2="536.7" y1="220.1262" y2="220.1262"/><line style="stroke:#181818;stroke-width:0.3;" x1="485.7" x2="536.7" y1="224.9262" y2="224.9262"/></g><!--class InterviewSchedule--><g id="elem_InterviewSchedule"><rect codeLine="82" fill="#F1F1F1" height="60.2906" id="InterviewSchedule" rx="1.5" ry="1.5" style="stroke:#181818;stroke-width:0.3;" width="87.6" x="467.4" y="42.6082"/><ellipse cx="476.4" cy="56.7809" fill="#ADD1B2" rx="6.6" ry="6.6" style="stroke:#181818;stroke-width:0.6;"/><path d="M478.0594,54.3059 Q478.1531,54.1746 478.2656,54.109 Q478.3781,54.0434 478.5094,54.0434 Q478.7344,54.0434 478.875,54.2027 Q479.0156,54.3527 479.0156,54.7184 L479.0156,55.5902 Q479.0156,55.9559 478.875,56.1152 Q478.7344,56.2746 478.5094,56.2746 Q478.3031,56.2746 478.1813,56.1527 Q478.0594,56.0402 477.9938,55.7309 Q477.9656,55.5152 477.8531,55.4027 Q477.6563,55.1777 477.2906,55.0465 Q476.925,54.9152 476.55,54.9152 Q476.0906,54.9152 475.7062,55.1121 Q475.3312,55.309 475.0313,55.759 Q474.7406,56.209 474.7406,56.8277 L474.7406,57.484 Q474.7406,58.2246 475.275,58.7215 Q475.8094,59.209 476.7656,59.209 Q477.3281,59.209 477.7219,59.059 Q477.9562,58.9652 478.2094,58.7027 Q478.3688,58.5434 478.4531,58.4965 Q478.5469,58.4496 478.6688,58.4496 Q478.8656,58.4496 479.0156,58.609 Q479.175,58.759 479.175,58.9652 Q479.175,59.1715 478.9688,59.4152 Q478.6688,59.7621 478.1906,59.959 Q477.5438,60.2309 476.7656,60.2309 Q475.8563,60.2309 475.1344,59.8559 Q474.5438,59.5559 474.1312,58.9184 Q473.7188,58.2715 473.7188,57.5027 L473.7188,56.809 Q473.7188,56.0121 474.0844,55.3277 Q474.4594,54.634 475.1156,54.2684 Q475.7719,53.8934 476.5125,53.8934 Q476.9531,53.8934 477.3375,53.9965 Q477.7313,54.0902 478.0594,54.3059 Z " fill="#000000"/><text fill="#000000" font-family="sans-serif" font-size="8.4" lengthAdjust="spacing" textLength="55.2" x="491.4" y="54.6727">&#171;value object&#187;</text><text fill="#000000" font-family="sans-serif" font-size="8.4" lengthAdjust="spacing" textLength="68.4" x="484.8" y="65.8453">InterviewSchedule</text><line style="stroke:#181818;stroke-width:0.3;" x1="468" x2="554.4" y1="70.9535" y2="70.9535"/><text fill="#000000" font-family="sans-serif" font-size="8.4" lengthAdjust="spacing" textLength="16.8" x="471" y="82.418">date</text><text fill="#000000" font-family="sans-serif" font-size="8.4" lengthAdjust="spacing" textLength="17.4" x="471" y="93.5906">hour</text><line style="stroke:#181818;stroke-width:0.3;" x1="468" x2="554.4" y1="98.0988" y2="98.0988"/></g><!--class JobApplication--><g id="elem_JobApplication"><rect codeLine="89" fill="#F1F1F1" height="49.118" id="JobApplication" rx="1.5" ry="1.5" style="stroke:#181818;stroke-width:0.3;" width="73.8" x="407.7" y="292.2082"/><ellipse cx="416.7" cy="311.9672" fill="#ADD1B2" rx="6.6" ry="6.6" style="stroke:#181818;stroke-width:0.6;"/><path d="M418.3594,309.4922 Q418.4531,309.3609 418.5656,309.2953 Q418.6781,309.2297 418.8094,309.2297 Q419.0344,309.2297 419.175,309.3891 Q419.3156,309.5391 419.3156,309.9047 L419.3156,310.7766 Q419.3156,311.1422 419.175,311.3016 Q419.0344,311.4609 418.8094,311.4609 Q418.6031,311.4609 418.4813,311.3391 Q418.3594,311.2266 418.2938,310.9172 Q418.2656,310.7016 418.1531,310.5891 Q417.9563,310.3641 417.5906,310.2328 Q417.225,310.1016 416.85,310.1016 Q416.3906,310.1016 416.0062,310.2984 Q415.6312,310.4953 415.3313,310.9453 Q415.0406,311.3953 415.0406,312.0141 L415.0406,312.6703 Q415.0406,313.4109 415.575,313.9078 Q416.1094,314.3953 417.0656,314.3953 Q417.6281,314.3953 418.0219,314.2453 Q418.2562,314.1516 418.5094,313.8891 Q418.6688,313.7297 418.7531,313.6828 Q418.8469,313.6359 418.9688,313.6359 Q419.1656,313.6359 419.3156,313.7953 Q419.475,313.9453 419.475,314.1516 Q419.475,314.3578 419.2688,314.6016 Q418.9688,314.9484 418.4906,315.1453 Q417.8438,315.4172 417.0656,315.4172 Q416.1563,315.4172 415.4344,315.0422 Q414.8438,314.7422 414.4313,314.1047 Q414.0188,313.4578 414.0188,312.6891 L414.0188,311.9953 Q414.0188,311.1984 414.3844,310.5141 Q414.7594,309.8203 415.4156,309.4547 Q416.0719,309.0797 416.8125,309.0797 Q417.2531,309.0797 417.6375,309.1828 Q418.0313,309.2766 418.3594,309.4922 Z " fill="#000000"/><text fill="#000000" font-family="sans-serif" font-size="8.4" lengthAdjust="spacing" textLength="24.6" x="440.1" y="304.2727">&#171;root&#187;</text><text fill="#000000" font-family="sans-serif" font-size="8.4" lengthAdjust="spacing" textLength="30" x="437.4" y="315.4453">&#171;entity&#187;</text><text fill="#000000" font-family="sans-serif" font-size="8.4" lengthAdjust="spacing" textLength="54.6" x="425.1" y="326.618">JobApplication</text><line style="stroke:#181818;stroke-width:0.3;" x1="408.3" x2="480.9" y1="331.7262" y2="331.7262"/><line style="stroke:#181818;stroke-width:0.3;" x1="408.3" x2="480.9" y1="336.5262" y2="336.5262"/></g><!--class Status--><g id="elem_Status"><rect codeLine="92" fill="#F1F1F1" height="37.9453" id="Status" rx="1.5" ry="1.5" style="stroke:#181818;stroke-width:0.3;" width="74.4" x="216.6" y="412.2082"/><ellipse cx="225.6" cy="426.3809" fill="#ADD1B2" rx="6.6" ry="6.6" style="stroke:#181818;stroke-width:0.6;"/><path d="M227.2594,423.9059 Q227.3531,423.7746 227.4656,423.709 Q227.5781,423.6434 227.7094,423.6434 Q227.9344,423.6434 228.075,423.8027 Q228.2156,423.9527 228.2156,424.3184 L228.2156,425.1902 Q228.2156,425.5559 228.075,425.7152 Q227.9344,425.8746 227.7094,425.8746 Q227.5031,425.8746 227.3813,425.7527 Q227.2594,425.6402 227.1938,425.3309 Q227.1656,425.1152 227.0531,425.0027 Q226.8563,424.7777 226.4906,424.6465 Q226.125,424.5152 225.75,424.5152 Q225.2906,424.5152 224.9063,424.7121 Q224.5313,424.909 224.2313,425.359 Q223.9406,425.809 223.9406,426.4277 L223.9406,427.084 Q223.9406,427.8246 224.475,428.3215 Q225.0094,428.809 225.9656,428.809 Q226.5281,428.809 226.9219,428.659 Q227.1563,428.5652 227.4094,428.3027 Q227.5688,428.1434 227.6531,428.0965 Q227.7469,428.0496 227.8688,428.0496 Q228.0656,428.0496 228.2156,428.209 Q228.375,428.359 228.375,428.5652 Q228.375,428.7715 228.1688,429.0152 Q227.8688,429.3621 227.3906,429.559 Q226.7438,429.8309 225.9656,429.8309 Q225.0563,429.8309 224.3344,429.4559 Q223.7438,429.1559 223.3312,428.5184 Q222.9188,427.8715 222.9188,427.1027 L222.9188,426.409 Q222.9188,425.6121 223.2844,424.9277 Q223.6594,424.234 224.3156,423.8684 Q224.9719,423.4934 225.7125,423.4934 Q226.1531,423.4934 226.5375,423.5965 Q226.9313,423.6902 227.2594,423.9059 Z " fill="#000000"/><text fill="#000000" font-family="sans-serif" font-size="8.4" lengthAdjust="spacing" textLength="55.2" x="234" y="424.2727">&#171;value object&#187;</text><text fill="#000000" font-family="sans-serif" font-size="8.4" lengthAdjust="spacing" textLength="24" x="249.6" y="435.4453">Status</text><line style="stroke:#181818;stroke-width:0.3;" x1="217.2" x2="290.4" y1="440.5535" y2="440.5535"/><line style="stroke:#181818;stroke-width:0.3;" x1="217.2" x2="290.4" y1="445.3535" y2="445.3535"/></g><!--class ID--><g id="elem_ID"><rect codeLine="95" fill="#F1F1F1" height="49.118" id="ID" rx="1.5" ry="1.5" style="stroke:#181818;stroke-width:0.3;" width="74.4" x="312" y="406.5082"/><ellipse cx="321" cy="426.2672" fill="#ADD1B2" rx="6.6" ry="6.6" style="stroke:#181818;stroke-width:0.6;"/><path d="M322.6594,423.7922 Q322.7531,423.6609 322.8656,423.5953 Q322.9781,423.5297 323.1094,423.5297 Q323.3344,423.5297 323.475,423.6891 Q323.6156,423.8391 323.6156,424.2047 L323.6156,425.0766 Q323.6156,425.4422 323.475,425.6016 Q323.3344,425.7609 323.1094,425.7609 Q322.9031,425.7609 322.7813,425.6391 Q322.6594,425.5266 322.5938,425.2172 Q322.5656,425.0016 322.4531,424.8891 Q322.2562,424.6641 321.8906,424.5328 Q321.525,424.4016 321.15,424.4016 Q320.6906,424.4016 320.3063,424.5984 Q319.9313,424.7953 319.6312,425.2453 Q319.3406,425.6953 319.3406,426.3141 L319.3406,426.9703 Q319.3406,427.7109 319.875,428.2078 Q320.4094,428.6953 321.3656,428.6953 Q321.9281,428.6953 322.3219,428.5453 Q322.5563,428.4516 322.8094,428.1891 Q322.9688,428.0297 323.0531,427.9828 Q323.1469,427.9359 323.2688,427.9359 Q323.4656,427.9359 323.6156,428.0953 Q323.775,428.2453 323.775,428.4516 Q323.775,428.6578 323.5687,428.9016 Q323.2688,429.2484 322.7906,429.4453 Q322.1438,429.7172 321.3656,429.7172 Q320.4563,429.7172 319.7344,429.3422 Q319.1438,429.0422 318.7313,428.4047 Q318.3187,427.7578 318.3187,426.9891 L318.3187,426.2953 Q318.3187,425.4984 318.6844,424.8141 Q319.0594,424.1203 319.7156,423.7547 Q320.3719,423.3797 321.1125,423.3797 Q321.5531,423.3797 321.9375,423.4828 Q322.3313,423.5766 322.6594,423.7922 Z " fill="#000000"/><text fill="#000000" font-family="sans-serif" font-size="8.4" lengthAdjust="spacing" textLength="55.2" x="329.4" y="418.5727">&#171;value object&#187;</text><text fill="#000000" font-family="sans-serif" font-size="8.4" lengthAdjust="spacing" textLength="42" x="336" y="429.7453">&#171;identifier&#187;</text><text fill="#000000" font-family="sans-serif" font-size="8.4" lengthAdjust="spacing" textLength="6.6" x="353.7" y="440.918">Id</text><line style="stroke:#181818;stroke-width:0.3;" x1="312.6" x2="385.8" y1="446.0262" y2="446.0262"/><line style="stroke:#181818;stroke-width:0.3;" x1="312.6" x2="385.8" y1="450.8262" y2="450.8262"/></g><!--class Curriculum--><g id="elem_Curriculum"><rect codeLine="100" fill="#F1F1F1" height="37.9453" id="Curriculum" rx="1.5" ry="1.5" style="stroke:#181818;stroke-width:0.3;" width="74.4" x="407.4" y="412.2082"/><ellipse cx="416.4" cy="426.3809" fill="#ADD1B2" rx="6.6" ry="6.6" style="stroke:#181818;stroke-width:0.6;"/><path d="M418.0594,423.9059 Q418.1531,423.7746 418.2656,423.709 Q418.3781,423.6434 418.5094,423.6434 Q418.7344,423.6434 418.875,423.8027 Q419.0156,423.9527 419.0156,424.3184 L419.0156,425.1902 Q419.0156,425.5559 418.875,425.7152 Q418.7344,425.8746 418.5094,425.8746 Q418.3031,425.8746 418.1813,425.7527 Q418.0594,425.6402 417.9938,425.3309 Q417.9656,425.1152 417.8531,425.0027 Q417.6563,424.7777 417.2906,424.6465 Q416.925,424.5152 416.55,424.5152 Q416.0906,424.5152 415.7063,424.7121 Q415.3313,424.909 415.0313,425.359 Q414.7406,425.809 414.7406,426.4277 L414.7406,427.084 Q414.7406,427.8246 415.275,428.3215 Q415.8094,428.809 416.7656,428.809 Q417.3281,428.809 417.7219,428.659 Q417.9563,428.5652 418.2094,428.3027 Q418.3688,428.1434 418.4531,428.0965 Q418.5469,428.0496 418.6688,428.0496 Q418.8656,428.0496 419.0156,428.209 Q419.175,428.359 419.175,428.5652 Q419.175,428.7715 418.9688,429.0152 Q418.6688,429.3621 418.1906,429.559 Q417.5438,429.8309 416.7656,429.8309 Q415.8563,429.8309 415.1344,429.4559 Q414.5438,429.1559 414.1312,428.5184 Q413.7188,427.8715 413.7188,427.1027 L413.7188,426.409 Q413.7188,425.6121 414.0844,424.9277 Q414.4594,424.234 415.1156,423.8684 Q415.7719,423.4934 416.5125,423.4934 Q416.9531,423.4934 417.3375,423.5965 Q417.7313,423.6902 418.0594,423.9059 Z " fill="#000000"/><text fill="#000000" font-family="sans-serif" font-size="8.4" lengthAdjust="spacing" textLength="55.2" x="424.8" y="424.2727">&#171;value object&#187;</text><text fill="#000000" font-family="sans-serif" font-size="8.4" lengthAdjust="spacing" textLength="40.8" x="432" y="435.4453">Curriculum</text><line style="stroke:#181818;stroke-width:0.3;" x1="408" x2="481.2" y1="440.5535" y2="440.5535"/><line style="stroke:#181818;stroke-width:0.3;" x1="408" x2="481.2" y1="445.3535" y2="445.3535"/></g><!--class Grade--><g id="elem_Grade"><rect codeLine="104" fill="#F1F1F1" height="49.118" id="Grade" rx="1.5" ry="1.5" style="stroke:#181818;stroke-width:0.3;" width="74.4" x="502.8" y="406.5082"/><ellipse cx="511.8" cy="426.2672" fill="#ADD1B2" rx="6.6" ry="6.6" style="stroke:#181818;stroke-width:0.6;"/><path d="M513.4594,423.7922 Q513.5531,423.6609 513.6656,423.5953 Q513.7781,423.5297 513.9094,423.5297 Q514.1344,423.5297 514.275,423.6891 Q514.4156,423.8391 514.4156,424.2047 L514.4156,425.0766 Q514.4156,425.4422 514.275,425.6016 Q514.1344,425.7609 513.9094,425.7609 Q513.7031,425.7609 513.5813,425.6391 Q513.4594,425.5266 513.3938,425.2172 Q513.3656,425.0016 513.2531,424.8891 Q513.0563,424.6641 512.6906,424.5328 Q512.325,424.4016 511.95,424.4016 Q511.4906,424.4016 511.1063,424.5984 Q510.7313,424.7953 510.4313,425.2453 Q510.1406,425.6953 510.1406,426.3141 L510.1406,426.9703 Q510.1406,427.7109 510.675,428.2078 Q511.2094,428.6953 512.1656,428.6953 Q512.7281,428.6953 513.1219,428.5453 Q513.3562,428.4516 513.6094,428.1891 Q513.7688,428.0297 513.8531,427.9828 Q513.9469,427.9359 514.0688,427.9359 Q514.2656,427.9359 514.4156,428.0953 Q514.575,428.2453 514.575,428.4516 Q514.575,428.6578 514.3688,428.9016 Q514.0688,429.2484 513.5906,429.4453 Q512.9438,429.7172 512.1656,429.7172 Q511.2562,429.7172 510.5344,429.3422 Q509.9437,429.0422 509.5313,428.4047 Q509.1188,427.7578 509.1188,426.9891 L509.1188,426.2953 Q509.1188,425.4984 509.4844,424.8141 Q509.8594,424.1203 510.5156,423.7547 Q511.1719,423.3797 511.9125,423.3797 Q512.3531,423.3797 512.7375,423.4828 Q513.1313,423.5766 513.4594,423.7922 Z " fill="#000000"/><text fill="#000000" font-family="sans-serif" font-size="8.4" lengthAdjust="spacing" textLength="55.2" x="520.2" y="418.5727">&#171;value object&#187;</text><text fill="#000000" font-family="sans-serif" font-size="8.4" lengthAdjust="spacing" textLength="48" x="523.8" y="429.7453">&#171;calculated&#187;</text><text fill="#000000" font-family="sans-serif" font-size="8.4" lengthAdjust="spacing" textLength="24" x="535.8" y="440.918">Grade</text><line style="stroke:#181818;stroke-width:0.3;" x1="503.4" x2="576.6" y1="446.0262" y2="446.0262"/><line style="stroke:#181818;stroke-width:0.3;" x1="503.4" x2="576.6" y1="450.8262" y2="450.8262"/></g><!--class Candidate--><g id="elem_Candidate"><rect codeLine="109" fill="#F1F1F1" height="49.118" id="Candidate" rx="1.5" ry="1.5" style="stroke:#181818;stroke-width:0.3;" width="58.2" x="122.1" y="180.6082"/><ellipse cx="131.1" cy="200.3672" fill="#ADD1B2" rx="6.6" ry="6.6" style="stroke:#181818;stroke-width:0.6;"/><path d="M132.7594,197.8922 Q132.8531,197.7609 132.9656,197.6953 Q133.0781,197.6297 133.2094,197.6297 Q133.4344,197.6297 133.575,197.7891 Q133.7156,197.9391 133.7156,198.3047 L133.7156,199.1766 Q133.7156,199.5422 133.575,199.7016 Q133.4344,199.8609 133.2094,199.8609 Q133.0031,199.8609 132.8813,199.7391 Q132.7594,199.6266 132.6938,199.3172 Q132.6656,199.1016 132.5531,198.9891 Q132.3563,198.7641 131.9906,198.6328 Q131.625,198.5016 131.25,198.5016 Q130.7906,198.5016 130.4063,198.6984 Q130.0313,198.8953 129.7313,199.3453 Q129.4406,199.7953 129.4406,200.4141 L129.4406,201.0703 Q129.4406,201.8109 129.975,202.3078 Q130.5094,202.7953 131.4656,202.7953 Q132.0281,202.7953 132.4219,202.6453 Q132.6563,202.5516 132.9094,202.2891 Q133.0688,202.1297 133.1531,202.0828 Q133.2469,202.0359 133.3688,202.0359 Q133.5656,202.0359 133.7156,202.1953 Q133.875,202.3453 133.875,202.5516 Q133.875,202.7578 133.6688,203.0016 Q133.3688,203.3484 132.8906,203.5453 Q132.2438,203.8172 131.4656,203.8172 Q130.5563,203.8172 129.8344,203.4422 Q129.2438,203.1422 128.8312,202.5047 Q128.4188,201.8578 128.4188,201.0891 L128.4188,200.3953 Q128.4188,199.5984 128.7844,198.9141 Q129.1594,198.2203 129.8156,197.8547 Q130.4719,197.4797 131.2125,197.4797 Q131.6531,197.4797 132.0375,197.5828 Q132.4313,197.6766 132.7594,197.8922 Z " fill="#000000"/><text fill="#000000" font-family="sans-serif" font-size="8.4" lengthAdjust="spacing" textLength="24.6" x="146.7" y="192.6727">&#171;root&#187;</text><text fill="#000000" font-family="sans-serif" font-size="8.4" lengthAdjust="spacing" textLength="30" x="144" y="203.8453">&#171;entity&#187;</text><text fill="#000000" font-family="sans-serif" font-size="8.4" lengthAdjust="spacing" textLength="39" x="139.5" y="215.018">Candidate</text><line style="stroke:#181818;stroke-width:0.3;" x1="122.7" x2="179.7" y1="220.1262" y2="220.1262"/><line style="stroke:#181818;stroke-width:0.3;" x1="122.7" x2="179.7" y1="224.9262" y2="224.9262"/></g><!--class Name2--><g id="elem_Name2"><rect codeLine="113" fill="#F1F1F1" height="60.2906" id="Name2" rx="1.5" ry="1.5" style="stroke:#181818;stroke-width:0.3;" width="74.4" x="13.2" y="286.8082"/><ellipse cx="22.2" cy="300.9809" fill="#ADD1B2" rx="6.6" ry="6.6" style="stroke:#181818;stroke-width:0.6;"/><path d="M23.8594,298.5059 Q23.9531,298.3746 24.0656,298.309 Q24.1781,298.2434 24.3094,298.2434 Q24.5344,298.2434 24.675,298.4027 Q24.8156,298.5527 24.8156,298.9184 L24.8156,299.7902 Q24.8156,300.1559 24.675,300.3152 Q24.5344,300.4746 24.3094,300.4746 Q24.1031,300.4746 23.9813,300.3527 Q23.8594,300.2402 23.7938,299.9309 Q23.7656,299.7152 23.6531,299.6027 Q23.4563,299.3777 23.0906,299.2465 Q22.725,299.1152 22.35,299.1152 Q21.8906,299.1152 21.5062,299.3121 Q21.1312,299.509 20.8313,299.959 Q20.5406,300.409 20.5406,301.0277 L20.5406,301.684 Q20.5406,302.4246 21.075,302.9215 Q21.6094,303.409 22.5656,303.409 Q23.1281,303.409 23.5219,303.259 Q23.7562,303.1652 24.0094,302.9027 Q24.1688,302.7434 24.2531,302.6965 Q24.3469,302.6496 24.4688,302.6496 Q24.6656,302.6496 24.8156,302.809 Q24.975,302.959 24.975,303.1652 Q24.975,303.3715 24.7688,303.6152 Q24.4688,303.9621 23.9906,304.159 Q23.3438,304.4309 22.5656,304.4309 Q21.6563,304.4309 20.9344,304.0559 Q20.3438,303.7559 19.9313,303.1184 Q19.5188,302.4715 19.5188,301.7027 L19.5188,301.009 Q19.5188,300.2121 19.8844,299.5277 Q20.2594,298.834 20.9156,298.4684 Q21.5719,298.0934 22.3125,298.0934 Q22.7531,298.0934 23.1375,298.1965 Q23.5313,298.2902 23.8594,298.5059 Z " fill="#000000"/><text fill="#000000" font-family="sans-serif" font-size="8.4" lengthAdjust="spacing" textLength="55.2" x="30.6" y="298.8727">&#171;value object&#187;</text><text fill="#000000" font-family="sans-serif" font-size="8.4" lengthAdjust="spacing" textLength="21.6" x="47.4" y="310.0453">Name</text><line style="stroke:#181818;stroke-width:0.3;" x1="13.8" x2="87" y1="315.1535" y2="315.1535"/><text fill="#000000" font-family="sans-serif" font-size="8.4" lengthAdjust="spacing" textLength="35.4" x="16.8" y="326.618">firstName</text><text fill="#000000" font-family="sans-serif" font-size="8.4" lengthAdjust="spacing" textLength="34.8" x="16.8" y="337.7906">lastName</text><line style="stroke:#181818;stroke-width:0.3;" x1="13.8" x2="87" y1="342.2988" y2="342.2988"/></g><!--class PhoneNumber--><g id="elem_PhoneNumber"><rect codeLine="118" fill="#F1F1F1" height="37.9453" id="PhoneNumber" rx="1.5" ry="1.5" style="stroke:#181818;stroke-width:0.3;" width="74.4" x="13.2" y="186.3082"/><ellipse cx="22.2" cy="200.4809" fill="#ADD1B2" rx="6.6" ry="6.6" style="stroke:#181818;stroke-width:0.6;"/><path d="M23.8594,198.0059 Q23.9531,197.8746 24.0656,197.809 Q24.1781,197.7434 24.3094,197.7434 Q24.5344,197.7434 24.675,197.9027 Q24.8156,198.0527 24.8156,198.4184 L24.8156,199.2902 Q24.8156,199.6559 24.675,199.8152 Q24.5344,199.9746 24.3094,199.9746 Q24.1031,199.9746 23.9813,199.8527 Q23.8594,199.7402 23.7938,199.4309 Q23.7656,199.2152 23.6531,199.1027 Q23.4563,198.8777 23.0906,198.7465 Q22.725,198.6152 22.35,198.6152 Q21.8906,198.6152 21.5062,198.8121 Q21.1312,199.009 20.8313,199.459 Q20.5406,199.909 20.5406,200.5277 L20.5406,201.184 Q20.5406,201.9246 21.075,202.4215 Q21.6094,202.909 22.5656,202.909 Q23.1281,202.909 23.5219,202.759 Q23.7562,202.6652 24.0094,202.4027 Q24.1688,202.2434 24.2531,202.1965 Q24.3469,202.1496 24.4688,202.1496 Q24.6656,202.1496 24.8156,202.309 Q24.975,202.459 24.975,202.6652 Q24.975,202.8715 24.7688,203.1152 Q24.4688,203.4621 23.9906,203.659 Q23.3438,203.9309 22.5656,203.9309 Q21.6563,203.9309 20.9344,203.5559 Q20.3438,203.2559 19.9313,202.6184 Q19.5188,201.9715 19.5188,201.2027 L19.5188,200.509 Q19.5188,199.7121 19.8844,199.0277 Q20.2594,198.334 20.9156,197.9684 Q21.5719,197.5934 22.3125,197.5934 Q22.7531,197.5934 23.1375,197.6965 Q23.5313,197.7902 23.8594,198.0059 Z " fill="#000000"/><text fill="#000000" font-family="sans-serif" font-size="8.4" lengthAdjust="spacing" textLength="55.2" x="30.6" y="198.3727">&#171;value object&#187;</text><text fill="#000000" font-family="sans-serif" font-size="8.4" lengthAdjust="spacing" textLength="54" x="31.2" y="209.5453">PhoneNumber</text><line style="stroke:#181818;stroke-width:0.3;" x1="13.8" x2="87" y1="214.6535" y2="214.6535"/><line style="stroke:#181818;stroke-width:0.3;" x1="13.8" x2="87" y1="219.4535" y2="219.4535"/></g><!--class EMail2--><g id="elem_EMail2"><rect codeLine="121" fill="#F1F1F1" height="49.118" id="EMail2" rx="1.5" ry="1.5" style="stroke:#181818;stroke-width:0.3;" width="74.4" x="108.6" y="292.2082"/><ellipse cx="117.6" cy="311.9672" fill="#ADD1B2" rx="6.6" ry="6.6" style="stroke:#181818;stroke-width:0.6;"/><path d="M119.2594,309.4922 Q119.3531,309.3609 119.4656,309.2953 Q119.5781,309.2297 119.7094,309.2297 Q119.9344,309.2297 120.075,309.3891 Q120.2156,309.5391 120.2156,309.9047 L120.2156,310.7766 Q120.2156,311.1422 120.075,311.3016 Q119.9344,311.4609 119.7094,311.4609 Q119.5031,311.4609 119.3813,311.3391 Q119.2594,311.2266 119.1938,310.9172 Q119.1656,310.7016 119.0531,310.5891 Q118.8562,310.3641 118.4906,310.2328 Q118.125,310.1016 117.75,310.1016 Q117.2906,310.1016 116.9063,310.2984 Q116.5313,310.4953 116.2312,310.9453 Q115.9406,311.3953 115.9406,312.0141 L115.9406,312.6703 Q115.9406,313.4109 116.475,313.9078 Q117.0094,314.3953 117.9656,314.3953 Q118.5281,314.3953 118.9219,314.2453 Q119.1563,314.1516 119.4094,313.8891 Q119.5688,313.7297 119.6531,313.6828 Q119.7469,313.6359 119.8687,313.6359 Q120.0656,313.6359 120.2156,313.7953 Q120.375,313.9453 120.375,314.1516 Q120.375,314.3578 120.1687,314.6016 Q119.8687,314.9484 119.3906,315.1453 Q118.7437,315.4172 117.9656,315.4172 Q117.0562,315.4172 116.3344,315.0422 Q115.7437,314.7422 115.3313,314.1047 Q114.9188,313.4578 114.9188,312.6891 L114.9188,311.9953 Q114.9188,311.1984 115.2844,310.5141 Q115.6594,309.8203 116.3156,309.4547 Q116.9719,309.0797 117.7125,309.0797 Q118.1531,309.0797 118.5375,309.1828 Q118.9312,309.2766 119.2594,309.4922 Z " fill="#000000"/><text fill="#000000" font-family="sans-serif" font-size="8.4" lengthAdjust="spacing" textLength="55.2" x="126" y="304.2727">&#171;value object&#187;</text><text fill="#000000" font-family="sans-serif" font-size="8.4" lengthAdjust="spacing" textLength="42" x="132.6" y="315.4453">&#171;identifier&#187;</text><text fill="#000000" font-family="sans-serif" font-size="8.4" lengthAdjust="spacing" textLength="23.4" x="141.9" y="326.618">E-Mail</text><line style="stroke:#181818;stroke-width:0.3;" x1="109.2" x2="182.4" y1="331.7262" y2="331.7262"/><line style="stroke:#181818;stroke-width:0.3;" x1="109.2" x2="182.4" y1="336.5262" y2="336.5262"/></g><!--reverse link Candidate to JobApplication--><g id="link_Candidate_JobApplication"><path codeLine="126" d="M183.7715,218.0677 C237.4775,238.2697 348.432,280.0222 407.52,302.2582 " fill="none" id="Candidate-backto-JobApplication" style="stroke:#181818;stroke-width:0.6;"/><polygon fill="#181818" points="180.402,216.8002,184.6113,220.9477,183.2099,217.8564,186.3012,216.4551,180.402,216.8002" style="stroke:#181818;stroke-width:0.6;"/><text fill="#000000" font-family="sans-serif" font-size="7.8" lengthAdjust="spacing" textLength="28.2" x="289.2" y="258.0252">refers to</text><text fill="#000000" font-family="sans-serif" font-size="7.8" lengthAdjust="spacing" textLength="4.2" x="185.1951" y="216.0309">1</text><text fill="#000000" font-family="sans-serif" font-size="7.8" lengthAdjust="spacing" textLength="4.2" x="398.7898" y="298.218">1</text></g><!--link Candidate to EMail2--><g id="link_Candidate_EMail2"><path codeLine="127" d="M150.012,230.0362 C149.112,248.4442 148.058,270.0485 147.158,288.4385 " fill="none" id="Candidate-to-EMail2" style="stroke:#181818;stroke-width:0.6;"/><polygon fill="#181818" points="146.982,292.0342,149.6431,286.758,147.1286,289.0378,144.8488,286.5233,146.982,292.0342" style="stroke:#181818;stroke-width:0.6;"/><text fill="#000000" font-family="sans-serif" font-size="7.8" lengthAdjust="spacing" textLength="41.4" x="150" y="258.0252">identified by</text><text fill="#000000" font-family="sans-serif" font-size="7.8" lengthAdjust="spacing" textLength="4.2" x="145.3291" y="242.8677">1</text><text fill="#000000" font-family="sans-serif" font-size="7.8" lengthAdjust="spacing" textLength="4.2" x="142.6357" y="285.5105">1</text></g><!--reverse link PhoneNumber to Candidate--><g id="link_PhoneNumber_Candidate"><path codeLine="128" d="M91.248,205.2082 C102.576,205.2082 111.258,205.2082 121.98,205.2082 " fill="none" id="PhoneNumber-backto-Candidate" style="stroke:#181818;stroke-width:0.6;"/><polygon fill="#181818" points="87.648,205.2082,93.048,207.6082,90.648,205.2082,93.048,202.8082,87.648,205.2082" style="stroke:#181818;stroke-width:0.6;"/><text fill="#000000" font-family="sans-serif" font-size="7.8" lengthAdjust="spacing" textLength="12.6" x="98.55" y="201.0252">has</text><text fill="#000000" font-family="sans-serif" font-size="7.8" lengthAdjust="spacing" textLength="4.2" x="92.4435" y="202.8054">1</text><text fill="#000000" font-family="sans-serif" font-size="7.8" lengthAdjust="spacing" textLength="4.2" x="113.1799" y="202.695">1</text></g><!--link Candidate to Name2--><g id="link_Candidate_Name2"><path codeLine="129" d="M129.078,230.0362 C113.838,246.7282 95.9193,266.3536 79.7373,284.0776 " fill="none" id="Candidate-to-Name2" style="stroke:#181818;stroke-width:0.6;"/><polygon fill="#181818" points="77.31,286.7362,82.7234,284.3665,79.3328,284.5207,79.1786,281.1301,77.31,286.7362" style="stroke:#181818;stroke-width:0.6;"/><text fill="#000000" font-family="sans-serif" font-size="7.8" lengthAdjust="spacing" textLength="12.6" x="111" y="258.0252">has</text></g><!--link JobApplication to Curriculum--><g id="link_JobApplication_Curriculum"><path codeLine="131" d="M444.6,341.6722 C444.6,362.7682 444.6,389.2762 444.6,408.4522 " fill="none" id="JobApplication-to-Curriculum" style="stroke:#181818;stroke-width:0.6;"/><polygon fill="#181818" points="444.6,412.0522,447,406.6522,444.6,409.0522,442.2,406.6522,444.6,412.0522" style="stroke:#181818;stroke-width:0.6;"/><text fill="#000000" font-family="sans-serif" font-size="7.8" lengthAdjust="spacing" textLength="28.8" x="445.2" y="375.0252">includes</text><text fill="#000000" font-family="sans-serif" font-size="7.8" lengthAdjust="spacing" textLength="4.2" x="440.0916" y="354.509">1</text><text fill="#000000" font-family="sans-serif" font-size="7.8" lengthAdjust="spacing" textLength="4.2" x="439.9866" y="405.5164">1</text></g><!--link JobApplication to ID--><g id="link_JobApplication_ID"><path codeLine="132" d="M419.832,341.5342 C412.338,349.1602 404.238,357.7582 397.2,366.0082 C386.19,378.9082 376.9211,391.171 368.0111,403.567 " fill="none" id="JobApplication-to-ID" style="stroke:#181818;stroke-width:0.6;"/><polygon fill="#181818" points="365.91,406.4902,371.0105,403.5061,367.661,404.0542,367.1129,400.7046,365.91,406.4902" style="stroke:#181818;stroke-width:0.6;"/><text fill="#000000" font-family="sans-serif" font-size="7.8" lengthAdjust="spacing" textLength="41.4" x="397.8" y="375.0252">identified by</text><text fill="#000000" font-family="sans-serif" font-size="7.8" lengthAdjust="spacing" textLength="4.2" x="411.5178" y="354.538">1</text><text fill="#000000" font-family="sans-serif" font-size="7.8" lengthAdjust="spacing" textLength="4.2" x="364.1298" y="399.8064">1</text></g><!--link JobApplication to Status--><g id="link_JobApplication_Status"><path codeLine="133" d="M407.448,335.9902 C378.168,351.0442 336.618,373.3042 301.8,395.4082 C293.694,400.5562 288.0417,404.4561 280.4397,410.0601 " fill="none" id="JobApplication-to-Status" style="stroke:#181818;stroke-width:0.6;"/><polygon fill="#181818" points="277.542,412.1962,283.3127,410.9238,279.9568,410.4161,280.4645,407.0602,277.542,412.1962" style="stroke:#181818;stroke-width:0.6;"/><text fill="#000000" font-family="sans-serif" font-size="7.8" lengthAdjust="spacing" textLength="8.4" x="348" y="375.0252">ha</text><text fill="#000000" font-family="sans-serif" font-size="7.8" lengthAdjust="spacing" textLength="4.2" x="398.7095" y="335.8503">1</text><text fill="#000000" font-family="sans-serif" font-size="7.8" lengthAdjust="spacing" textLength="4.2" x="277.8057" y="405.4637">1</text></g><!--link JobOpening to JogOpeningState--><g id="link_JobOpening_JogOpeningState"><path codeLine="135" d="M875.07,229.8502 C887.004,240.6922 902.268,252.7582 918,260.4082 C926.844,264.7102 930.936,260.5522 939.6,265.2082 C954.528,273.2362 965.8249,283.9794 975.5149,295.0494 " fill="none" id="JobOpening-to-JogOpeningState" style="stroke:#181818;stroke-width:0.6;"/><polygon fill="#181818" points="977.886,297.7582,976.1352,292.1142,975.9101,295.5009,972.5234,295.2757,977.886,297.7582" style="stroke:#181818;stroke-width:0.6;"/><text fill="#000000" font-family="sans-serif" font-size="7.8" lengthAdjust="spacing" textLength="28.8" x="918.6" y="258.0252">includes</text><text fill="#000000" font-family="sans-serif" font-size="7.8" lengthAdjust="spacing" textLength="4.2" x="874.3077" y="243.0278">1</text><text fill="#000000" font-family="sans-serif" font-size="7.8" lengthAdjust="spacing" textLength="4.2" x="970.4151" y="291.2235">1</text></g><!--link JobOpening to JogOpeningState--><g id="link_JobOpening_JogOpeningState"><path codeLine="152" d="M883.998,214.5562 C904.746,221.3602 931.23,232.4722 950.4,249.0082 C965.922,262.4002 976.0601,279.7161 983.1101,294.5661 " fill="none" id="JobOpening-to-JogOpeningState-1" style="stroke:#181818;stroke-width:0.6;"/><polygon fill="#181818" points="984.654,297.8182,984.5062,291.9107,983.3674,295.1081,980.17,293.9693,984.654,297.8182" style="stroke:#181818;stroke-width:0.6;"/><text fill="#000000" font-family="sans-serif" font-size="7.8" lengthAdjust="spacing" textLength="28.8" x="961.2" y="258.0252">includes</text><text fill="#000000" font-family="sans-serif" font-size="7.8" lengthAdjust="spacing" textLength="4.2" x="888.6605" y="213.3613">1</text><text fill="#000000" font-family="sans-serif" font-size="7.8" lengthAdjust="spacing" textLength="4.2" x="978.4233" y="291.0697">1</text></g><!--reverse link RecruitmentProcess to Phase--><g id="link_RecruitmentProcess_Phase"><path codeLine="139" d="M805.187,344.7235 C819.311,351.8995 828.912,355.9762 844.2,361.2082 C959.178,400.5562 1103.808,420.6322 1162.278,427.6042 " fill="none" id="RecruitmentProcess-backto-Phase" style="stroke:#181818;stroke-width:0.6;"/><polygon fill="#181818" points="798.768,341.4622,800.8904,345.2325,805.187,344.7235,803.0646,340.9532,798.768,341.4622" style="stroke:#181818;stroke-width:0.6;"/><text fill="#000000" font-family="sans-serif" font-size="7.8" lengthAdjust="spacing" textLength="21.6" x="889.8" y="375.0252">part of</text><text fill="#000000" font-family="sans-serif" font-size="7.8" lengthAdjust="spacing" textLength="4.2" x="800.7953" y="354.4549">1</text><text fill="#000000" font-family="sans-serif" font-size="7.8" lengthAdjust="spacing" textLength="13.2" x="1144.4483" y="424.6191">4..5</text></g><!--link RecruitmentProcess to PhaseNames--><g id="link_RecruitmentProcess_PhaseNames"><path codeLine="140" d="M803.808,316.8082 C820.356,316.8082 835.044,316.8082 850.632,316.8082 " fill="none" id="RecruitmentProcess-to-PhaseNames" style="stroke:#181818;stroke-width:0.6;"/><polygon fill="#181818" points="854.232,316.8082,848.832,314.4082,851.232,316.8082,848.832,319.2082,854.232,316.8082" style="stroke:#181818;stroke-width:0.6;"/><text fill="#000000" font-family="sans-serif" font-size="7.8" lengthAdjust="spacing" textLength="28.8" x="814.65" y="312.6252">includes</text><text fill="#000000" font-family="sans-serif" font-size="7.8" lengthAdjust="spacing" textLength="4.2" x="808.5649" y="314.5513">1</text><text fill="#000000" font-family="sans-serif" font-size="7.8" lengthAdjust="spacing" textLength="4.2" x="845.4685" y="314.4372">1</text></g><!--link JobOpening to RecruitmentProcess--><g id="link_JobOpening_RecruitmentProcess"><path codeLine="141" d="M818.952,221.9062 C807.21,228.9622 794.598,238.1302 785.4,249.0082 C774.834,261.5062 768.6439,274.9863 763.9219,288.7023 " fill="none" id="JobOpening-to-RecruitmentProcess" style="stroke:#181818;stroke-width:0.6;"/><polygon fill="#181818" points="762.75,292.1062,766.7771,287.7816,763.7266,289.2696,762.2385,286.2191,762.75,292.1062" style="stroke:#181818;stroke-width:0.6;"/><text fill="#000000" font-family="sans-serif" font-size="7.8" lengthAdjust="spacing" textLength="28.8" x="786" y="258.0252">includes</text><text fill="#000000" font-family="sans-serif" font-size="7.8" lengthAdjust="spacing" textLength="4.2" x="809.8937" y="221.7722">1</text><text fill="#000000" font-family="sans-serif" font-size="7.8" lengthAdjust="spacing" textLength="4.2" x="759.3202" y="285.4085">1</text></g><!--link JobOpening to RecruitmentProcess--><g id="link_JobOpening_RecruitmentProcess"><path codeLine="153" d="M838.56,229.9162 C832.806,239.7982 825.558,251.0842 817.8,260.4082 C808.416,271.6882 799.4703,280.427 788.8143,289.727 " fill="none" id="JobOpening-to-RecruitmentProcess-1" style="stroke:#181818;stroke-width:0.6;"/><polygon fill="#181818" points="786.102,292.0942,791.7486,290.3517,788.3623,290.1216,788.5923,286.7353,786.102,292.0942" style="stroke:#181818;stroke-width:0.6;"/><text fill="#000000" font-family="sans-serif" font-size="7.8" lengthAdjust="spacing" textLength="28.8" x="826.8" y="258.0252">includes</text><text fill="#000000" font-family="sans-serif" font-size="7.8" lengthAdjust="spacing" textLength="4.2" x="832.0723" y="242.9172">1</text><text fill="#000000" font-family="sans-serif" font-size="7.8" lengthAdjust="spacing" textLength="4.2" x="786.5398" y="285.3945">1</text></g><!--link JobApplication to Grade--><g id="link_JobApplication_Grade"><path codeLine="143" d="M465.066,341.6722 C481.218,360.8182 501.313,384.6403 517.411,403.7263 " fill="none" id="JobApplication-to-Grade" style="stroke:#181818;stroke-width:0.6;"/><polygon fill="#181818" points="519.732,406.4782,518.085,400.803,517.7978,404.185,514.4159,403.8978,519.732,406.4782" style="stroke:#181818;stroke-width:0.6;"/><text fill="#000000" font-family="sans-serif" font-size="7.8" lengthAdjust="spacing" textLength="28.8" x="495.6" y="375.0252">includes</text><text fill="#000000" font-family="sans-serif" font-size="7.8" lengthAdjust="spacing" textLength="13.2" x="502.082" y="399.7924">0..1</text></g><!--reverse link Mode to JobOpening--><g id="link_Mode_JobOpening"><path codeLine="145" d="M1035.775,94.1274 C1027.105,103.1454 1018.494,111.2122 1007.4,119.4082 C967.626,148.7902 916.518,174.7762 883.854,190.1002 " fill="none" id="Mode-backto-JobOpening" style="stroke:#181818;stroke-width:0.6;"/><polygon fill="#181818" points="1038.27,91.5322,1032.7974,93.7616,1036.1908,93.6948,1036.2576,97.0883,1038.27,91.5322" style="stroke:#181818;stroke-width:0.6;"/><text fill="#000000" font-family="sans-serif" font-size="7.8" lengthAdjust="spacing" textLength="28.8" x="979.8" y="146.4252">includes</text><text fill="#000000" font-family="sans-serif" font-size="7.8" lengthAdjust="spacing" textLength="4.2" x="1030.2276" y="104.9072">1</text><text fill="#000000" font-family="sans-serif" font-size="7.8" lengthAdjust="spacing" textLength="4.2" x="888.4972" y="185.619">1</text></g><!--reverse link JobFunction to JobOpening--><g id="link_JobFunction_JobOpening"><path codeLine="146" d="M941.8682,94.5354 C922.7402,117.8094 892.182,154.9882 871.146,180.5842 " fill="none" id="JobFunction-backto-JobOpening" style="stroke:#181818;stroke-width:0.6;"/><polygon fill="#181818" points="944.154,91.7542,938.8712,94.4022,942.2492,94.0719,942.5795,97.4499,944.154,91.7542" style="stroke:#181818;stroke-width:0.6;"/><text fill="#000000" font-family="sans-serif" font-size="7.8" lengthAdjust="spacing" textLength="28.8" x="906" y="146.4252">includes</text><text fill="#000000" font-family="sans-serif" font-size="7.8" lengthAdjust="spacing" textLength="4.2" x="936.6474" y="104.7959">1</text><text fill="#000000" font-family="sans-serif" font-size="7.8" lengthAdjust="spacing" textLength="4.2" x="869.8686" y="173.8994">1</text></g><!--reverse link NumberOfVacancies to JobOpening--><g id="link_NumberOfVacancies_JobOpening"><path codeLine="147" d="M851.4,95.3542 C851.4,118.6282 851.4,154.9882 851.4,180.5842 " fill="none" id="NumberOfVacancies-backto-JobOpening" style="stroke:#181818;stroke-width:0.6;"/><polygon fill="#181818" points="851.4,91.7542,849,97.1542,851.4,94.7542,853.8,97.1542,851.4,91.7542" style="stroke:#181818;stroke-width:0.6;"/><text fill="#000000" font-family="sans-serif" font-size="7.8" lengthAdjust="spacing" textLength="28.8" x="852" y="146.4252">includes</text><text fill="#000000" font-family="sans-serif" font-size="7.8" lengthAdjust="spacing" textLength="4.2" x="846.7997" y="104.7959">1</text><text fill="#000000" font-family="sans-serif" font-size="7.8" lengthAdjust="spacing" textLength="4.2" x="846.8522" y="173.8994">1</text></g><!--reverse link Description to JobOpening--><g id="link_Description_JobOpening"><path codeLine="148" d="M760.9318,94.5354 C780.0598,117.8094 810.618,154.9882 831.654,180.5842 " fill="none" id="Description-backto-JobOpening" style="stroke:#181818;stroke-width:0.6;"/><polygon fill="#181818" points="758.646,91.7542,760.2205,97.4499,760.5508,94.0719,763.9288,94.4022,758.646,91.7542" style="stroke:#181818;stroke-width:0.6;"/><text fill="#000000" font-family="sans-serif" font-size="7.8" lengthAdjust="spacing" textLength="28.8" x="804" y="146.4252">includes</text><text fill="#000000" font-family="sans-serif" font-size="7.8" lengthAdjust="spacing" textLength="4.2" x="756.952" y="104.7959">1</text><text fill="#000000" font-family="sans-serif" font-size="7.8" lengthAdjust="spacing" textLength="4.2" x="823.8358" y="173.8994">1</text></g><!--reverse link Address1 to JobOpening--><g id="link_Address1_JobOpening"><path codeLine="149" d="M688.181,113.3301 C691.655,116.2881 692.46,116.8042 696,119.4082 C735.666,148.5682 786.45,174.5602 818.964,189.9502 " fill="none" id="Address1-backto-JobOpening" style="stroke:#181818;stroke-width:0.6;"/><polygon fill="#181818" points="685.44,110.9962,687.9956,116.3243,687.7242,112.9411,691.1074,112.6697,685.44,110.9962" style="stroke:#181818;stroke-width:0.6;"/><text fill="#000000" font-family="sans-serif" font-size="7.8" lengthAdjust="spacing" textLength="28.8" x="741" y="146.4252">includes</text><text fill="#000000" font-family="sans-serif" font-size="7.8" lengthAdjust="spacing" textLength="4.2" x="690.0118" y="113.0602">1</text><text fill="#000000" font-family="sans-serif" font-size="7.8" lengthAdjust="spacing" textLength="4.2" x="809.9074" y="185.3224">1</text></g><!--reverse link ContractType to JobOpening--><g id="link_ContractType_JobOpening"><path codeLine="150" d="M1132.4379,94.3365 C1123.8339,103.7265 1114.854,112.0222 1102.8,119.4082 C1031.082,163.3462 933.858,187.9342 883.938,198.4342 " fill="none" id="ContractType-backto-JobOpening" style="stroke:#181818;stroke-width:0.6;"/><polygon fill="#181818" points="1134.87,91.6822,1129.4524,94.0422,1132.8433,93.8941,1132.9914,97.285,1134.87,91.6822" style="stroke:#181818;stroke-width:0.6;"/><text fill="#000000" font-family="sans-serif" font-size="7.8" lengthAdjust="spacing" textLength="28.8" x="1065" y="146.4252">includes</text><text fill="#000000" font-family="sans-serif" font-size="7.8" lengthAdjust="spacing" textLength="4.2" x="1127.2385" y="104.8613">1</text><text fill="#000000" font-family="sans-serif" font-size="7.8" lengthAdjust="spacing" textLength="4.2" x="888.5925" y="195.0729">1</text></g><!--link JobOpening to JobReference--><g id="link_JobOpening_JobReference"><path codeLine="151" d="M883.968,210.3562 C924.372,217.1662 994.158,232.8442 1045.2,265.2082 C1056.39,272.3062 1064.4033,279.8791 1072.6113,289.3711 " fill="none" id="JobOpening-to-JobReference" style="stroke:#181818;stroke-width:0.6;"/><polygon fill="#181818" points="1074.966,292.0942,1073.2493,286.4397,1073.0037,289.825,1069.6185,289.5794,1074.966,292.0942" style="stroke:#181818;stroke-width:0.6;"/><text fill="#000000" font-family="sans-serif" font-size="7.8" lengthAdjust="spacing" textLength="41.4" x="1036.2" y="258.0252">identified by</text><text fill="#000000" font-family="sans-serif" font-size="7.8" lengthAdjust="spacing" textLength="4.2" x="888.6265" y="220.1675">1</text><text fill="#000000" font-family="sans-serif" font-size="7.8" lengthAdjust="spacing" textLength="4.2" x="1067.3982" y="285.3945">1</text></g><!--reverse link JobOpening to JobApplication--><g id="link_JobOpening_JobApplication"><path codeLine="154" d="M815.4739,213.3665 C767.5639,223.6325 678.672,243.4342 601.2,265.2082 C559.842,276.8302 513.084,292.3762 481.518,303.2422 " fill="none" id="JobOpening-backto-JobApplication" style="stroke:#181818;stroke-width:0.6;"/><polygon fill="#181818" points="818.994,212.6122,813.211,211.3969,816.0606,213.2408,814.2167,216.0903,818.994,212.6122" style="stroke:#181818;stroke-width:0.6;"/><text fill="#000000" font-family="sans-serif" font-size="7.8" lengthAdjust="spacing" textLength="28.2" x="655.8" y="258.0252">refers to</text><text fill="#000000" font-family="sans-serif" font-size="7.8" lengthAdjust="spacing" textLength="4.2" x="809.9416" y="211.1712">1</text><text fill="#000000" font-family="sans-serif" font-size="7.8" lengthAdjust="spacing" textLength="3" x="486.2002" y="299.1999">*</text></g><!--link ResultPhase to Phase--><g id="link_ResultPhase_Phase"><path codeLine="156" d="M1265.448,335.8342 C1251.78,352.6702 1238.0664,369.5629 1221.6684,389.7649 " fill="none" id="ResultPhase-to-Phase" style="stroke:#181818;stroke-width:0.6;"/><polygon fill="none" points="1214.862,398.1502,1224.4635,392.0337,1218.8733,387.4961,1214.862,398.1502" style="stroke:#181818;stroke-width:0.6;"/></g><!--link ScreeningPhase to Phase--><g id="link_ScreeningPhase_Phase"><path codeLine="157" d="M1356.576,335.8342 C1347.378,344.1442 1335.954,353.7382 1324.8,361.2082 C1288.65,385.4182 1252.8019,402.7011 1224.6019,415.1211 " fill="none" id="ScreeningPhase-to-Phase" style="stroke:#181818;stroke-width:0.6;"/><polygon fill="none" points="1214.718,419.4742,1226.0529,418.4157,1223.1508,411.8265,1214.718,419.4742" style="stroke:#181818;stroke-width:0.6;"/></g><!--link InterviewPhase to Phase--><g id="link_InterviewPhase_Phase"><path codeLine="158" d="M664.674,335.8042 C673.428,344.9542 685.14,355.2982 697.8,361.2082 C781.962,400.5082 1062.4085,422.0767 1151.6345,428.1007 " fill="none" id="InterviewPhase-to-Phase" style="stroke:#181818;stroke-width:0.6;"/><polygon fill="none" points="1162.41,428.8282,1151.877,424.5089,1151.392,431.6925,1162.41,428.8282" style="stroke:#181818;stroke-width:0.6;"/></g><!--link AnalysisPhase to Phase--><g id="link_AnalysisPhase_Phase"><path codeLine="159" d="M1188.6,335.8342 C1188.6,351.8542 1188.6,364.7242 1188.6,384.3862 " fill="none" id="AnalysisPhase-to-Phase" style="stroke:#181818;stroke-width:0.6;"/><polygon fill="none" points="1188.6,395.1862,1192.2,384.3862,1185,384.3862,1188.6,395.1862" style="stroke:#181818;stroke-width:0.6;"/></g><!--reverse link InterviewSchedule to Interview--><g id="link_InterviewSchedule_Interview"><path codeLine="162" d="M511.2,106.2982 C511.2,129.7522 511.2,158.5642 511.2,180.4882 " fill="none" id="InterviewSchedule-backto-Interview" style="stroke:#181818;stroke-width:0.6;"/><polygon fill="#181818" points="511.2,102.6982,508.8,108.0982,511.2,105.6982,513.6,108.0982,511.2,102.6982" style="stroke:#181818;stroke-width:0.6;"/><text fill="#000000" font-family="sans-serif" font-size="7.8" lengthAdjust="spacing" textLength="4.2" x="506.7047" y="116.0556">1</text><text fill="#000000" font-family="sans-serif" font-size="7.8" lengthAdjust="spacing" textLength="4.2" x="506.6522" y="173.7875">1</text></g><!--link Interview to JobApplication--><g id="link_Interview_JobApplication"><path codeLine="163" d="M496.584,230.0362 C485.478,248.4442 472.1403,270.5621 461.0403,288.9521 " fill="none" id="Interview-to-JobApplication" style="stroke:#181818;stroke-width:0.6;"/><polygon fill="#181818" points="459.18,292.0342,464.0252,288.6513,460.7303,289.4658,459.9157,286.1709,459.18,292.0342" style="stroke:#181818;stroke-width:0.6;"/><text fill="#000000" font-family="sans-serif" font-size="7.8" lengthAdjust="spacing" textLength="4.2" x="489.9288" y="242.8677">1</text><text fill="#000000" font-family="sans-serif" font-size="7.8" lengthAdjust="spacing" textLength="4.2" x="456.969" y="285.5105">1</text></g><!--link Interview to JobOpening--><g id="link_Interview_JobOpening"><path codeLine="164" d="M537.444,205.2082 C631.266,205.2082 721.482,205.2082 815.298,205.2082 " fill="none" id="Interview-to-JobOpening" style="stroke:#181818;stroke-width:0.6;"/><polygon fill="#181818" points="818.898,205.2082,813.498,202.8082,815.898,205.2082,813.498,207.6082,818.898,205.2082" style="stroke:#181818;stroke-width:0.6;"/><text fill="#000000" font-family="sans-serif" font-size="7.8" lengthAdjust="spacing" textLength="4.2" x="542.1385" y="202.6018">1</text><text fill="#000000" font-family="sans-serif" font-size="7.8" lengthAdjust="spacing" textLength="4.2" x="810.0484" y="202.7571">1</text></g><!--SRC=[dLRTQjim5BxNKmZV30fErxBTc588IRUrq1-QiOlH6qLM4csER2Iv8tXveZx2xl9aasHRFuwRk3M1w1oTVtr7HnzMKXOYEJqjCiHakSv6E5-VuWm94QSKBJbQ0r0W_1ij2OnkyZcyBmYZR0d7ooKdIoH9L040rMUKOBHx8KnIkTdzUsAF1FEIohNYFF0S4o4YY0JSPrV6Wlw-8N7D9E7FbFnvM251pCwsTj7dmmWPisRbB1MQl4DhOZb28YwdAcJB8InrzBQJnpFAIWBp-I-2fVMa3Ghdpf1D0PG-w8jmXZanDNEXXgn6Voy0lv2YpAJJz-WA75OTCvHj11LEEU2us0DzdkScPsS9FZ5r_Ctf6pkEh42_bMu5R_9bep6J6ZcrbO07g_u3xvgQv4noXENtJL7RyHdLi0EzpTDQLo-geIdClvGCIvgpjWWjFT02l2lNSyBl5pyGHWpJ1axxx87sfaHWJWiRaKVxm3naOfocl6tEPdtc6cac5LYb9ISA3jwUtqwJl5I7u7P_qWAhqWvAO_T2Kusr1IMyAVGZMH1E66w1uXWze0zH7zuXHZza1SK5OElTSbOmlECEz8RdBtHLASElfsp5PdX5qZBhnDbotKcaVh5NUScR7BRX7JqkYenYf14Gf72amqtDFTsswXxBLktWKMfGb3MQwkN0dkv2u3gj2p9r_Nm4H9EISuhBh5pNTu8bgs6Di7l1A5CAgbwffhzor5mHPbLjGwHC44kfFfItbTcgrK6srC1-roF7AEh5ENJeM50kP33mb0d7E3xUSaRgIwYPRvP-v_bTnRU8PiRObLwTktDKFrUyw2o25t5i_ZlmJRXkUG5b7ih7yQMMhit2nFfDuNm3lCYrx4MiHPrwelhViwPCDQLCeDu1dIwmpXoQb2HbE2jJ8bwLlfvggI2kJcvEjkuIuz-uRzzOJg8x9Rq0rBV_e3ArF8dZwDDez3cgtoemATJx1-QBr-HL8VIVUzXqylJ2CbLJ_psM4XTP9s6Zyt4qKkgcdO8iz0psaU3v2wDen-rnuRs9Ubp56vx7XTjHULJGVvkqPXkmz-VO1m0t_Vg0zIR8lECiGnKT_qbtr2JGDIlmNgZA_j_B6bKWVFZwE-5uzdU2zwg_0S3Uh0pk4hlhvFnyEtTDLyZAD7c3_m00]--></g></svg>