<?xml version="1.0" encoding="us-ascii" standalone="no"?><svg xmlns="http://www.w3.org/2000/svg" xmlns:xlink="http://www.w3.org/1999/xlink" contentStyleType="text/css" height="814.1px" preserveAspectRatio="none" style="width:1787px;height:814px;background:#FFFFFF;" version="1.1" viewBox="0 0 1787 814" width="1787.1px" zoomAndPan="magnify"><defs/><g><!--cluster Plugin Aggregate--><g id="cluster_Plugin Aggregate"><path d="M5.95,323.4096 L91.35,323.4096 A2.625,2.625 0 0 1 93.1,325.1596 L98,340.6443 L591.85,340.6443 A1.75,1.75 0 0 1 593.6,342.3943 L593.6,554.7596 A1.75,1.75 0 0 1 591.85,556.5096 L5.95,556.5096 A1.75,1.75 0 0 1 4.2,554.7596 L4.2,325.1596 A1.75,1.75 0 0 1 5.95,323.4096 " fill="none" style="stroke:#000000;stroke-width:1.0499999999999998;"/><line style="stroke:#000000;stroke-width:1.0499999999999998;" x1="4.2" x2="98" y1="340.6443" y2="340.6443"/><text fill="#000000" font-family="sans-serif" font-size="9.8" font-weight="bold" lengthAdjust="spacing" textLength="84.7" x="7" y="335.3848">Plugin Aggregate</text></g><!--cluster Customer Aggregate--><g id="cluster_Customer Aggregate"><path d="M1324.05,4.2096 L1426.25,4.2096 A2.625,2.625 0 0 1 1428,5.9596 L1432.9,21.4443 L1715.35,21.4443 A1.75,1.75 0 0 1 1717.1,23.1943 L1717.1,417.2096 A1.75,1.75 0 0 1 1715.35,418.9596 L1324.05,418.9596 A1.75,1.75 0 0 1 1322.3,417.2096 L1322.3,5.9596 A1.75,1.75 0 0 1 1324.05,4.2096 " fill="none" style="stroke:#000000;stroke-width:1.0499999999999998;"/><line style="stroke:#000000;stroke-width:1.0499999999999998;" x1="1322.3" x2="1432.9" y1="21.4443" y2="21.4443"/><text fill="#000000" font-family="sans-serif" font-size="9.8" font-weight="bold" lengthAdjust="spacing" textLength="101.5" x="1325.1" y="16.1848">Customer Aggregate</text></g><!--cluster Job Opening Aggregate--><g id="cluster_Job Opening Aggregate"><path d="M612.15,297.5096 L729.75,297.5096 A2.625,2.625 0 0 1 731.5,299.2596 L736.4,314.7443 L1303.75,314.7443 A1.75,1.75 0 0 1 1305.5,316.4943 L1305.5,807.4596 A1.75,1.75 0 0 1 1303.75,809.2096 L612.15,809.2096 A1.75,1.75 0 0 1 610.4,807.4596 L610.4,299.2596 A1.75,1.75 0 0 1 612.15,297.5096 " fill="none" style="stroke:#000000;stroke-width:1.0499999999999998;"/><line style="stroke:#000000;stroke-width:1.0499999999999998;" x1="610.4" x2="736.4" y1="314.7443" y2="314.7443"/><text fill="#000000" font-family="sans-serif" font-size="9.8" font-weight="bold" lengthAdjust="spacing" textLength="116.9" x="613.2" y="309.4848">Job Opening Aggregate</text></g><!--class Plugin--><g id="elem_Plugin"><rect codeLine="4" fill="#F1F1F1" height="57.3043" id="Plugin" rx="1.75" ry="1.75" style="stroke:#181818;stroke-width:0.3499999999999999;" width="57.4" x="334.6" y="349.3096"/><ellipse cx="345.1" cy="372.3617" fill="#ADD1B2" rx="7.7" ry="7.7" style="stroke:#181818;stroke-width:0.6999999999999998;"/><path d="M347.0359,369.4742 Q347.1453,369.3211 347.2766,369.2445 Q347.4078,369.168 347.5609,369.168 Q347.8234,369.168 347.9875,369.3539 Q348.1516,369.5289 348.1516,369.9555 L348.1516,370.9727 Q348.1516,371.3992 347.9875,371.5852 Q347.8234,371.7711 347.5609,371.7711 Q347.3203,371.7711 347.1781,371.6289 Q347.0359,371.4977 346.9594,371.1367 Q346.9266,370.8852 346.7953,370.7539 Q346.5656,370.4914 346.1391,370.3383 Q345.7125,370.1852 345.275,370.1852 Q344.7391,370.1852 344.2906,370.4148 Q343.8531,370.6445 343.5031,371.1695 Q343.1641,371.6945 343.1641,372.4164 L343.1641,373.182 Q343.1641,374.0461 343.7875,374.6258 Q344.4109,375.1945 345.5266,375.1945 Q346.1828,375.1945 346.6422,375.0195 Q346.9156,374.9102 347.2109,374.6039 Q347.3969,374.418 347.4953,374.3633 Q347.6047,374.3086 347.7469,374.3086 Q347.9766,374.3086 348.1516,374.4945 Q348.3375,374.6695 348.3375,374.9102 Q348.3375,375.1508 348.0969,375.4352 Q347.7469,375.8398 347.1891,376.0695 Q346.4344,376.3867 345.5266,376.3867 Q344.4656,376.3867 343.6234,375.9492 Q342.9344,375.5992 342.4531,374.8555 Q341.9719,374.1008 341.9719,373.2039 L341.9719,372.3945 Q341.9719,371.4648 342.3984,370.6664 Q342.8359,369.857 343.6016,369.4305 Q344.3672,368.993 345.2312,368.993 Q345.7453,368.993 346.1937,369.1133 Q346.6531,369.2227 347.0359,369.4742 Z " fill="#000000"/><text fill="#000000" font-family="sans-serif" font-size="9.8" lengthAdjust="spacing" textLength="28.7" x="358.05" y="363.3848">&#171;root&#187;</text><text fill="#000000" font-family="sans-serif" font-size="9.8" lengthAdjust="spacing" textLength="35" x="354.9" y="376.4195">&#171;entity&#187;</text><text fill="#000000" font-family="sans-serif" font-size="9.8" lengthAdjust="spacing" textLength="27.3" x="358.75" y="389.4543">Plugin</text><line style="stroke:#181818;stroke-width:0.3499999999999999;" x1="335.3" x2="391.3" y1="395.4139" y2="395.4139"/><line style="stroke:#181818;stroke-width:0.3499999999999999;" x1="335.3" x2="391.3" y1="401.0139" y2="401.0139"/></g><!--class PlugID--><g id="elem_PlugID"><rect codeLine="6" fill="#F1F1F1" height="57.3043" id="PlugID" rx="1.75" ry="1.75" style="stroke:#181818;stroke-width:0.3499999999999999;" width="87.5" x="15.75" y="487.9096"/><ellipse cx="26.25" cy="510.9617" fill="#ADD1B2" rx="7.7" ry="7.7" style="stroke:#181818;stroke-width:0.6999999999999998;"/><path d="M28.1859,508.0742 Q28.2953,507.9211 28.4266,507.8445 Q28.5578,507.768 28.7109,507.768 Q28.9734,507.768 29.1375,507.9539 Q29.3016,508.1289 29.3016,508.5555 L29.3016,509.5727 Q29.3016,509.9992 29.1375,510.1852 Q28.9734,510.3711 28.7109,510.3711 Q28.4703,510.3711 28.3281,510.2289 Q28.1859,510.0977 28.1094,509.7367 Q28.0766,509.4852 27.9453,509.3539 Q27.7156,509.0914 27.2891,508.9383 Q26.8625,508.7852 26.425,508.7852 Q25.8891,508.7852 25.4406,509.0148 Q25.0031,509.2445 24.6531,509.7695 Q24.3141,510.2945 24.3141,511.0164 L24.3141,511.782 Q24.3141,512.6461 24.9375,513.2258 Q25.5609,513.7945 26.6766,513.7945 Q27.3328,513.7945 27.7922,513.6195 Q28.0656,513.5102 28.3609,513.2039 Q28.5469,513.018 28.6453,512.9633 Q28.7547,512.9086 28.8969,512.9086 Q29.1266,512.9086 29.3016,513.0945 Q29.4875,513.2695 29.4875,513.5102 Q29.4875,513.7508 29.2469,514.0352 Q28.8969,514.4398 28.3391,514.6695 Q27.5844,514.9867 26.6766,514.9867 Q25.6156,514.9867 24.7734,514.5492 Q24.0844,514.1992 23.6031,513.4555 Q23.1219,512.7008 23.1219,511.8039 L23.1219,510.9945 Q23.1219,510.0648 23.5484,509.2664 Q23.9859,508.457 24.7516,508.0305 Q25.5172,507.593 26.3812,507.593 Q26.8953,507.593 27.3437,507.7133 Q27.8031,507.8227 28.1859,508.0742 Z " fill="#000000"/><text fill="#000000" font-family="sans-serif" font-size="9.8" lengthAdjust="spacing" textLength="64.4" x="36.4" y="501.9848">&#171;value object&#187;</text><text fill="#000000" font-family="sans-serif" font-size="9.8" lengthAdjust="spacing" textLength="49" x="44.1" y="515.0195">&#171;identifier&#187;</text><text fill="#000000" font-family="sans-serif" font-size="9.8" lengthAdjust="spacing" textLength="65.1" x="36.05" y="528.0543">PluginIdentifier</text><line style="stroke:#181818;stroke-width:0.3499999999999999;" x1="16.45" x2="102.55" y1="534.0139" y2="534.0139"/><line style="stroke:#181818;stroke-width:0.3499999999999999;" x1="16.45" x2="102.55" y1="539.6139" y2="539.6139"/></g><!--class PlugType--><g id="elem_PlugType"><rect codeLine="8" fill="#F1F1F1" height="44.2695" id="PlugType" rx="1.75" ry="1.75" style="stroke:#181818;stroke-width:0.3499999999999999;" width="86.8" x="128.1" y="494.5596"/><ellipse cx="138.6" cy="511.0943" fill="#ADD1B2" rx="7.7" ry="7.7" style="stroke:#181818;stroke-width:0.6999999999999998;"/><path d="M140.5359,508.2068 Q140.6453,508.0537 140.7766,507.9771 Q140.9078,507.9006 141.0609,507.9006 Q141.3234,507.9006 141.4875,508.0865 Q141.6516,508.2615 141.6516,508.6881 L141.6516,509.7053 Q141.6516,510.1318 141.4875,510.3178 Q141.3234,510.5037 141.0609,510.5037 Q140.8203,510.5037 140.6781,510.3615 Q140.5359,510.2303 140.4594,509.8693 Q140.4266,509.6178 140.2953,509.4865 Q140.0656,509.224 139.6391,509.0709 Q139.2125,508.9178 138.775,508.9178 Q138.2391,508.9178 137.7906,509.1475 Q137.3531,509.3771 137.0031,509.9021 Q136.6641,510.4271 136.6641,511.149 L136.6641,511.9146 Q136.6641,512.7787 137.2875,513.3584 Q137.9109,513.9271 139.0266,513.9271 Q139.6828,513.9271 140.1422,513.7521 Q140.4156,513.6428 140.7109,513.3365 Q140.8969,513.1506 140.9953,513.0959 Q141.1047,513.0412 141.2469,513.0412 Q141.4766,513.0412 141.6516,513.2271 Q141.8375,513.4021 141.8375,513.6428 Q141.8375,513.8834 141.5969,514.1678 Q141.2469,514.5725 140.6891,514.8021 Q139.9344,515.1193 139.0266,515.1193 Q137.9656,515.1193 137.1234,514.6818 Q136.4344,514.3318 135.9531,513.5881 Q135.4719,512.8334 135.4719,511.9365 L135.4719,511.1271 Q135.4719,510.1975 135.8984,509.399 Q136.3359,508.5896 137.1016,508.1631 Q137.8672,507.7256 138.7312,507.7256 Q139.2453,507.7256 139.6937,507.8459 Q140.1531,507.9553 140.5359,508.2068 Z " fill="#000000"/><text fill="#000000" font-family="sans-serif" font-size="9.8" lengthAdjust="spacing" textLength="64.4" x="148.4" y="508.6348">&#171;value object&#187;</text><text fill="#000000" font-family="sans-serif" font-size="9.8" lengthAdjust="spacing" textLength="49.7" x="155.75" y="521.6695">PluginType</text><line style="stroke:#181818;stroke-width:0.3499999999999999;" x1="128.8" x2="214.2" y1="527.6291" y2="527.6291"/><line style="stroke:#181818;stroke-width:0.3499999999999999;" x1="128.8" x2="214.2" y1="533.2291" y2="533.2291"/></g><!--class PlugClass--><g id="elem_PlugClass"><rect codeLine="10" fill="#F1F1F1" height="44.2695" id="PlugClass" rx="1.75" ry="1.75" style="stroke:#181818;stroke-width:0.3499999999999999;" width="120.4" x="239.4" y="494.5596"/><ellipse cx="249.9" cy="511.0943" fill="#ADD1B2" rx="7.7" ry="7.7" style="stroke:#181818;stroke-width:0.6999999999999998;"/><path d="M251.8359,508.2068 Q251.9453,508.0537 252.0766,507.9771 Q252.2078,507.9006 252.3609,507.9006 Q252.6234,507.9006 252.7875,508.0865 Q252.9516,508.2615 252.9516,508.6881 L252.9516,509.7053 Q252.9516,510.1318 252.7875,510.3178 Q252.6234,510.5037 252.3609,510.5037 Q252.1203,510.5037 251.9781,510.3615 Q251.8359,510.2303 251.7594,509.8693 Q251.7266,509.6178 251.5953,509.4865 Q251.3656,509.224 250.9391,509.0709 Q250.5125,508.9178 250.075,508.9178 Q249.5391,508.9178 249.0906,509.1475 Q248.6531,509.3771 248.3031,509.9021 Q247.9641,510.4271 247.9641,511.149 L247.9641,511.9146 Q247.9641,512.7787 248.5875,513.3584 Q249.2109,513.9271 250.3266,513.9271 Q250.9828,513.9271 251.4422,513.7521 Q251.7156,513.6428 252.0109,513.3365 Q252.1969,513.1506 252.2953,513.0959 Q252.4047,513.0412 252.5469,513.0412 Q252.7766,513.0412 252.9516,513.2271 Q253.1375,513.4021 253.1375,513.6428 Q253.1375,513.8834 252.8969,514.1678 Q252.5469,514.5725 251.9891,514.8021 Q251.2344,515.1193 250.3266,515.1193 Q249.2656,515.1193 248.4234,514.6818 Q247.7344,514.3318 247.2531,513.5881 Q246.7719,512.8334 246.7719,511.9365 L246.7719,511.1271 Q246.7719,510.1975 247.1984,509.399 Q247.6359,508.5896 248.4016,508.1631 Q249.1672,507.7256 250.0312,507.7256 Q250.5453,507.7256 250.9937,507.8459 Q251.4531,507.9553 251.8359,508.2068 Z " fill="#000000"/><text fill="#000000" font-family="sans-serif" font-size="9.8" lengthAdjust="spacing" textLength="64.4" x="276.5" y="508.6348">&#171;value object&#187;</text><text fill="#000000" font-family="sans-serif" font-size="9.8" lengthAdjust="spacing" textLength="98" x="259.7" y="521.6695">PluginMainClassName</text><line style="stroke:#181818;stroke-width:0.3499999999999999;" x1="240.1" x2="359.1" y1="527.6291" y2="527.6291"/><line style="stroke:#181818;stroke-width:0.3499999999999999;" x1="240.1" x2="359.1" y1="533.2291" y2="533.2291"/></g><!--class JarFile--><g id="elem_JarFile"><rect codeLine="12" fill="#F1F1F1" height="44.2695" id="JarFile" rx="1.75" ry="1.75" style="stroke:#181818;stroke-width:0.3499999999999999;" width="86.8" x="384.3" y="494.5596"/><ellipse cx="394.8" cy="511.0943" fill="#ADD1B2" rx="7.7" ry="7.7" style="stroke:#181818;stroke-width:0.6999999999999998;"/><path d="M396.7359,508.2068 Q396.8453,508.0537 396.9766,507.9771 Q397.1078,507.9006 397.2609,507.9006 Q397.5234,507.9006 397.6875,508.0865 Q397.8516,508.2615 397.8516,508.6881 L397.8516,509.7053 Q397.8516,510.1318 397.6875,510.3178 Q397.5234,510.5037 397.2609,510.5037 Q397.0203,510.5037 396.8781,510.3615 Q396.7359,510.2303 396.6594,509.8693 Q396.6266,509.6178 396.4953,509.4865 Q396.2656,509.224 395.8391,509.0709 Q395.4125,508.9178 394.975,508.9178 Q394.4391,508.9178 393.9906,509.1475 Q393.5531,509.3771 393.2031,509.9021 Q392.8641,510.4271 392.8641,511.149 L392.8641,511.9146 Q392.8641,512.7787 393.4875,513.3584 Q394.1109,513.9271 395.2266,513.9271 Q395.8828,513.9271 396.3422,513.7521 Q396.6156,513.6428 396.9109,513.3365 Q397.0969,513.1506 397.1953,513.0959 Q397.3047,513.0412 397.4469,513.0412 Q397.6766,513.0412 397.8516,513.2271 Q398.0375,513.4021 398.0375,513.6428 Q398.0375,513.8834 397.7969,514.1678 Q397.4469,514.5725 396.8891,514.8021 Q396.1344,515.1193 395.2266,515.1193 Q394.1656,515.1193 393.3234,514.6818 Q392.6344,514.3318 392.1531,513.5881 Q391.6719,512.8334 391.6719,511.9365 L391.6719,511.1271 Q391.6719,510.1975 392.0984,509.399 Q392.5359,508.5896 393.3016,508.1631 Q394.0672,507.7256 394.9312,507.7256 Q395.4453,507.7256 395.8937,507.8459 Q396.3531,507.9553 396.7359,508.2068 Z " fill="#000000"/><text fill="#000000" font-family="sans-serif" font-size="9.8" lengthAdjust="spacing" textLength="64.4" x="404.6" y="508.6348">&#171;value object&#187;</text><text fill="#000000" font-family="sans-serif" font-size="9.8" lengthAdjust="spacing" textLength="54.6" x="409.5" y="521.6695">JarFileName</text><line style="stroke:#181818;stroke-width:0.3499999999999999;" x1="385" x2="470.4" y1="527.6291" y2="527.6291"/><line style="stroke:#181818;stroke-width:0.3499999999999999;" x1="385" x2="470.4" y1="533.2291" y2="533.2291"/></g><!--class PlugDesc--><g id="elem_PlugDesc"><rect codeLine="14" fill="#F1F1F1" height="44.2695" id="PlugDesc" rx="1.75" ry="1.75" style="stroke:#181818;stroke-width:0.3499999999999999;" width="86.8" x="495.6" y="494.5596"/><ellipse cx="506.1" cy="511.0943" fill="#ADD1B2" rx="7.7" ry="7.7" style="stroke:#181818;stroke-width:0.6999999999999998;"/><path d="M508.0359,508.2068 Q508.1453,508.0537 508.2766,507.9771 Q508.4078,507.9006 508.5609,507.9006 Q508.8234,507.9006 508.9875,508.0865 Q509.1516,508.2615 509.1516,508.6881 L509.1516,509.7053 Q509.1516,510.1318 508.9875,510.3178 Q508.8234,510.5037 508.5609,510.5037 Q508.3203,510.5037 508.1781,510.3615 Q508.0359,510.2303 507.9594,509.8693 Q507.9266,509.6178 507.7953,509.4865 Q507.5656,509.224 507.1391,509.0709 Q506.7125,508.9178 506.275,508.9178 Q505.7391,508.9178 505.2906,509.1475 Q504.8531,509.3771 504.5031,509.9021 Q504.1641,510.4271 504.1641,511.149 L504.1641,511.9146 Q504.1641,512.7787 504.7875,513.3584 Q505.4109,513.9271 506.5266,513.9271 Q507.1828,513.9271 507.6422,513.7521 Q507.9156,513.6428 508.2109,513.3365 Q508.3969,513.1506 508.4953,513.0959 Q508.6047,513.0412 508.7469,513.0412 Q508.9766,513.0412 509.1516,513.2271 Q509.3375,513.4021 509.3375,513.6428 Q509.3375,513.8834 509.0969,514.1678 Q508.7469,514.5725 508.1891,514.8021 Q507.4344,515.1193 506.5266,515.1193 Q505.4656,515.1193 504.6234,514.6818 Q503.9344,514.3318 503.4531,513.5881 Q502.9719,512.8334 502.9719,511.9365 L502.9719,511.1271 Q502.9719,510.1975 503.3984,509.399 Q503.8359,508.5896 504.6016,508.1631 Q505.3672,507.7256 506.2312,507.7256 Q506.7453,507.7256 507.1937,507.8459 Q507.6531,507.9553 508.0359,508.2068 Z " fill="#000000"/><text fill="#000000" font-family="sans-serif" font-size="9.8" lengthAdjust="spacing" textLength="64.4" x="515.9" y="508.6348">&#171;value object&#187;</text><text fill="#000000" font-family="sans-serif" font-size="9.8" lengthAdjust="spacing" textLength="49.7" x="523.25" y="521.6695">Description</text><line style="stroke:#181818;stroke-width:0.3499999999999999;" x1="496.3" x2="581.7" y1="527.6291" y2="527.6291"/><line style="stroke:#181818;stroke-width:0.3499999999999999;" x1="496.3" x2="581.7" y1="533.2291" y2="533.2291"/></g><!--class Customer--><g id="elem_Customer"><rect codeLine="19" fill="#F1F1F1" height="57.3043" id="Customer" rx="1.75" ry="1.75" style="stroke:#181818;stroke-width:0.3499999999999999;" width="65.1" x="1518.65" y="194.6096"/><ellipse cx="1529.15" cy="217.6617" fill="#ADD1B2" rx="7.7" ry="7.7" style="stroke:#181818;stroke-width:0.6999999999999998;"/><path d="M1531.0859,214.7742 Q1531.1953,214.6211 1531.3266,214.5445 Q1531.4578,214.468 1531.6109,214.468 Q1531.8734,214.468 1532.0375,214.6539 Q1532.2016,214.8289 1532.2016,215.2555 L1532.2016,216.2727 Q1532.2016,216.6992 1532.0375,216.8852 Q1531.8734,217.0711 1531.6109,217.0711 Q1531.3703,217.0711 1531.2281,216.9289 Q1531.0859,216.7977 1531.0094,216.4367 Q1530.9766,216.1852 1530.8453,216.0539 Q1530.6156,215.7914 1530.1891,215.6383 Q1529.7625,215.4852 1529.325,215.4852 Q1528.7891,215.4852 1528.3406,215.7148 Q1527.9031,215.9445 1527.5531,216.4695 Q1527.2141,216.9945 1527.2141,217.7164 L1527.2141,218.482 Q1527.2141,219.3461 1527.8375,219.9258 Q1528.4609,220.4945 1529.5766,220.4945 Q1530.2328,220.4945 1530.6922,220.3195 Q1530.9656,220.2102 1531.2609,219.9039 Q1531.4469,219.718 1531.5453,219.6633 Q1531.6547,219.6086 1531.7969,219.6086 Q1532.0266,219.6086 1532.2016,219.7945 Q1532.3875,219.9695 1532.3875,220.2102 Q1532.3875,220.4508 1532.1469,220.7352 Q1531.7969,221.1398 1531.2391,221.3695 Q1530.4844,221.6867 1529.5766,221.6867 Q1528.5156,221.6867 1527.6734,221.2492 Q1526.9844,220.8992 1526.5031,220.1555 Q1526.0219,219.4008 1526.0219,218.5039 L1526.0219,217.6945 Q1526.0219,216.7648 1526.4484,215.9664 Q1526.8859,215.157 1527.6516,214.7305 Q1528.4172,214.293 1529.2812,214.293 Q1529.7953,214.293 1530.2437,214.4133 Q1530.7031,214.5227 1531.0859,214.7742 Z " fill="#000000"/><text fill="#000000" font-family="sans-serif" font-size="9.8" lengthAdjust="spacing" textLength="35" x="1542.8" y="208.6848">&#171;entity&#187;</text><text fill="#000000" font-family="sans-serif" font-size="9.8" lengthAdjust="spacing" textLength="28.7" x="1545.95" y="221.7195">&#171;root&#187;</text><text fill="#000000" font-family="sans-serif" font-size="9.8" lengthAdjust="spacing" textLength="42.7" x="1538.95" y="234.7543">Customer</text><line style="stroke:#181818;stroke-width:0.3499999999999999;" x1="1519.35" x2="1583.05" y1="240.7139" y2="240.7139"/><line style="stroke:#181818;stroke-width:0.3499999999999999;" x1="1519.35" x2="1583.05" y1="246.3139" y2="246.3139"/></g><!--class SystemUser--><g id="elem_SystemUser"><rect codeLine="23" fill="#F1F1F1" height="33.6" id="SystemUser" rx="1.75" ry="1.75" style="stroke:#181818;stroke-width:0.3499999999999999;" width="74.9" x="1333.85" y="361.2096"/><ellipse cx="1344.35" cy="372.4096" fill="#ADD1B2" rx="7.7" ry="7.7" style="stroke:#181818;stroke-width:0.6999999999999998;"/><path d="M1346.2859,369.5221 Q1346.3953,369.3689 1346.5266,369.2924 Q1346.6578,369.2158 1346.8109,369.2158 Q1347.0734,369.2158 1347.2375,369.4018 Q1347.4016,369.5768 1347.4016,370.0033 L1347.4016,371.0205 Q1347.4016,371.4471 1347.2375,371.633 Q1347.0734,371.8189 1346.8109,371.8189 Q1346.5703,371.8189 1346.4281,371.6768 Q1346.2859,371.5455 1346.2094,371.1846 Q1346.1766,370.933 1346.0453,370.8018 Q1345.8156,370.5393 1345.3891,370.3861 Q1344.9625,370.233 1344.525,370.233 Q1343.9891,370.233 1343.5406,370.4627 Q1343.1031,370.6924 1342.7531,371.2174 Q1342.4141,371.7424 1342.4141,372.4643 L1342.4141,373.2299 Q1342.4141,374.0939 1343.0375,374.6736 Q1343.6609,375.2424 1344.7766,375.2424 Q1345.4328,375.2424 1345.8922,375.0674 Q1346.1656,374.958 1346.4609,374.6518 Q1346.6469,374.4658 1346.7453,374.4111 Q1346.8547,374.3564 1346.9969,374.3564 Q1347.2266,374.3564 1347.4016,374.5424 Q1347.5875,374.7174 1347.5875,374.958 Q1347.5875,375.1986 1347.3469,375.483 Q1346.9969,375.8877 1346.4391,376.1174 Q1345.6844,376.4346 1344.7766,376.4346 Q1343.7156,376.4346 1342.8734,375.9971 Q1342.1844,375.6471 1341.7031,374.9033 Q1341.2219,374.1486 1341.2219,373.2518 L1341.2219,372.4424 Q1341.2219,371.5127 1341.6484,370.7143 Q1342.0859,369.9049 1342.8516,369.4783 Q1343.6172,369.0408 1344.4812,369.0408 Q1344.9953,369.0408 1345.4437,369.1611 Q1345.9031,369.2705 1346.2859,369.5221 Z " fill="#000000"/><text fill="#000000" font-family="sans-serif" font-size="9.8" lengthAdjust="spacing" textLength="52.5" x="1354.15" y="376.4674">SystemUser</text><line style="stroke:#181818;stroke-width:0.3499999999999999;" x1="1334.55" x2="1408.05" y1="383.6096" y2="383.6096"/><line style="stroke:#181818;stroke-width:0.3499999999999999;" x1="1334.55" x2="1408.05" y1="389.2096" y2="389.2096"/></g><!--class Name1--><g id="elem_Name1"><rect codeLine="26" fill="#F1F1F1" height="59.6695" id="Name1" rx="1.75" ry="1.75" style="stroke:#181818;stroke-width:0.3499999999999999;" width="49.7" x="1433.25" y="348.2596"/><ellipse cx="1444.695" cy="359.4596" fill="#ADD1B2" rx="7.7" ry="7.7" style="stroke:#181818;stroke-width:0.6999999999999998;"/><path d="M1446.6309,356.5721 Q1446.7403,356.4189 1446.8716,356.3424 Q1447.0028,356.2658 1447.1559,356.2658 Q1447.4184,356.2658 1447.5825,356.4518 Q1447.7466,356.6268 1447.7466,357.0533 L1447.7466,358.0705 Q1447.7466,358.4971 1447.5825,358.683 Q1447.4184,358.8689 1447.1559,358.8689 Q1446.9153,358.8689 1446.7731,358.7268 Q1446.6309,358.5955 1446.5544,358.2346 Q1446.5216,357.983 1446.3903,357.8518 Q1446.1606,357.5893 1445.7341,357.4361 Q1445.3075,357.283 1444.87,357.283 Q1444.3341,357.283 1443.8856,357.5127 Q1443.4481,357.7424 1443.0981,358.2674 Q1442.7591,358.7924 1442.7591,359.5143 L1442.7591,360.2799 Q1442.7591,361.1439 1443.3825,361.7236 Q1444.0059,362.2924 1445.1216,362.2924 Q1445.7778,362.2924 1446.2372,362.1174 Q1446.5106,362.008 1446.8059,361.7018 Q1446.9919,361.5158 1447.0903,361.4611 Q1447.1997,361.4064 1447.3419,361.4064 Q1447.5716,361.4064 1447.7466,361.5924 Q1447.9325,361.7674 1447.9325,362.008 Q1447.9325,362.2486 1447.6919,362.533 Q1447.3419,362.9377 1446.7841,363.1674 Q1446.0294,363.4846 1445.1216,363.4846 Q1444.0606,363.4846 1443.2184,363.0471 Q1442.5294,362.6971 1442.0481,361.9533 Q1441.5669,361.1986 1441.5669,360.3018 L1441.5669,359.4924 Q1441.5669,358.5627 1441.9934,357.7643 Q1442.4309,356.9549 1443.1966,356.5283 Q1443.9622,356.0908 1444.8262,356.0908 Q1445.3403,356.0908 1445.7887,356.2111 Q1446.2481,356.3205 1446.6309,356.5721 Z " fill="#000000"/><text fill="#000000" font-family="sans-serif" font-size="9.8" lengthAdjust="spacing" textLength="25.2" x="1454.705" y="363.5174">Name</text><line style="stroke:#181818;stroke-width:0.3499999999999999;" x1="1433.95" x2="1482.25" y1="370.6596" y2="370.6596"/><text fill="#000000" font-family="sans-serif" font-size="9.8" lengthAdjust="spacing" textLength="41.3" x="1437.45" y="384.0348">firstName</text><text fill="#000000" font-family="sans-serif" font-size="9.8" lengthAdjust="spacing" textLength="40.6" x="1437.45" y="397.0695">lastName</text><line style="stroke:#181818;stroke-width:0.3499999999999999;" x1="1433.95" x2="1482.25" y1="402.3291" y2="402.3291"/></g><!--class EMail1--><g id="elem_EMail1"><rect codeLine="30" fill="#F1F1F1" height="44.2695" id="EMail1" rx="1.75" ry="1.75" style="stroke:#181818;stroke-width:0.3499999999999999;" width="86.8" x="1507.8" y="355.9596"/><ellipse cx="1518.3" cy="372.4943" fill="#ADD1B2" rx="7.7" ry="7.7" style="stroke:#181818;stroke-width:0.6999999999999998;"/><path d="M1520.2359,369.6068 Q1520.3453,369.4537 1520.4766,369.3771 Q1520.6078,369.3006 1520.7609,369.3006 Q1521.0234,369.3006 1521.1875,369.4865 Q1521.3516,369.6615 1521.3516,370.0881 L1521.3516,371.1053 Q1521.3516,371.5318 1521.1875,371.7178 Q1521.0234,371.9037 1520.7609,371.9037 Q1520.5203,371.9037 1520.3781,371.7615 Q1520.2359,371.6303 1520.1594,371.2693 Q1520.1266,371.0178 1519.9953,370.8865 Q1519.7656,370.624 1519.3391,370.4709 Q1518.9125,370.3178 1518.475,370.3178 Q1517.9391,370.3178 1517.4906,370.5475 Q1517.0531,370.7771 1516.7031,371.3021 Q1516.3641,371.8271 1516.3641,372.549 L1516.3641,373.3146 Q1516.3641,374.1787 1516.9875,374.7584 Q1517.6109,375.3271 1518.7266,375.3271 Q1519.3828,375.3271 1519.8422,375.1521 Q1520.1156,375.0428 1520.4109,374.7365 Q1520.5969,374.5506 1520.6953,374.4959 Q1520.8047,374.4412 1520.9469,374.4412 Q1521.1766,374.4412 1521.3516,374.6271 Q1521.5375,374.8021 1521.5375,375.0428 Q1521.5375,375.2834 1521.2969,375.5678 Q1520.9469,375.9725 1520.3891,376.2021 Q1519.6344,376.5193 1518.7266,376.5193 Q1517.6656,376.5193 1516.8234,376.0818 Q1516.1344,375.7318 1515.6531,374.9881 Q1515.1719,374.2334 1515.1719,373.3365 L1515.1719,372.5271 Q1515.1719,371.5975 1515.5984,370.799 Q1516.0359,369.9896 1516.8016,369.5631 Q1517.5672,369.1256 1518.4312,369.1256 Q1518.9453,369.1256 1519.3937,369.2459 Q1519.8531,369.3553 1520.2359,369.6068 Z " fill="#000000"/><text fill="#000000" font-family="sans-serif" font-size="9.8" lengthAdjust="spacing" textLength="64.4" x="1528.1" y="370.0348">&#171;value object&#187;</text><text fill="#000000" font-family="sans-serif" font-size="9.8" lengthAdjust="spacing" textLength="27.3" x="1546.65" y="383.0695">E-Mail</text><line style="stroke:#181818;stroke-width:0.3499999999999999;" x1="1508.5" x2="1593.9" y1="389.0291" y2="389.0291"/><line style="stroke:#181818;stroke-width:0.3499999999999999;" x1="1508.5" x2="1593.9" y1="394.6291" y2="394.6291"/></g><!--class Address2--><g id="elem_Address2"><rect codeLine="33" fill="#F1F1F1" height="109.4434" id="Address2" rx="1.75" ry="1.75" style="stroke:#181818;stroke-width:0.3499999999999999;" width="86.8" x="1507.8" y="30.1096"/><ellipse cx="1518.3" cy="46.6443" fill="#ADD1B2" rx="7.7" ry="7.7" style="stroke:#181818;stroke-width:0.6999999999999998;"/><path d="M1520.2359,43.7568 Q1520.3453,43.6037 1520.4766,43.5271 Q1520.6078,43.4506 1520.7609,43.4506 Q1521.0234,43.4506 1521.1875,43.6365 Q1521.3516,43.8115 1521.3516,44.2381 L1521.3516,45.2553 Q1521.3516,45.6818 1521.1875,45.8678 Q1521.0234,46.0537 1520.7609,46.0537 Q1520.5203,46.0537 1520.3781,45.9115 Q1520.2359,45.7803 1520.1594,45.4193 Q1520.1266,45.1678 1519.9953,45.0365 Q1519.7656,44.774 1519.3391,44.6209 Q1518.9125,44.4678 1518.475,44.4678 Q1517.9391,44.4678 1517.4906,44.6975 Q1517.0531,44.9271 1516.7031,45.4521 Q1516.3641,45.9771 1516.3641,46.699 L1516.3641,47.4646 Q1516.3641,48.3287 1516.9875,48.9084 Q1517.6109,49.4771 1518.7266,49.4771 Q1519.3828,49.4771 1519.8422,49.3021 Q1520.1156,49.1928 1520.4109,48.8865 Q1520.5969,48.7006 1520.6953,48.6459 Q1520.8047,48.5912 1520.9469,48.5912 Q1521.1766,48.5912 1521.3516,48.7771 Q1521.5375,48.9521 1521.5375,49.1928 Q1521.5375,49.4334 1521.2969,49.7178 Q1520.9469,50.1225 1520.3891,50.3521 Q1519.6344,50.6693 1518.7266,50.6693 Q1517.6656,50.6693 1516.8234,50.2318 Q1516.1344,49.8818 1515.6531,49.1381 Q1515.1719,48.3834 1515.1719,47.4865 L1515.1719,46.6771 Q1515.1719,45.7475 1515.5984,44.949 Q1516.0359,44.1396 1516.8016,43.7131 Q1517.5672,43.2756 1518.4312,43.2756 Q1518.9453,43.2756 1519.3937,43.3959 Q1519.8531,43.5053 1520.2359,43.7568 Z " fill="#000000"/><text fill="#000000" font-family="sans-serif" font-size="9.8" lengthAdjust="spacing" textLength="64.4" x="1528.1" y="44.1848">&#171;value object&#187;</text><text fill="#000000" font-family="sans-serif" font-size="9.8" lengthAdjust="spacing" textLength="36.4" x="1542.1" y="57.2195">Address</text><line style="stroke:#181818;stroke-width:0.3499999999999999;" x1="1508.5" x2="1593.9" y1="63.1791" y2="63.1791"/><text fill="#000000" font-family="sans-serif" font-size="9.8" lengthAdjust="spacing" textLength="26.6" x="1512" y="76.5543">Street</text><text fill="#000000" font-family="sans-serif" font-size="9.8" lengthAdjust="spacing" textLength="16.8" x="1512" y="89.5891">City</text><text fill="#000000" font-family="sans-serif" font-size="9.8" lengthAdjust="spacing" textLength="23.1" x="1512" y="102.6238">State</text><text fill="#000000" font-family="sans-serif" font-size="9.8" lengthAdjust="spacing" textLength="35" x="1512" y="115.6586">Country</text><text fill="#000000" font-family="sans-serif" font-size="9.8" lengthAdjust="spacing" textLength="35" x="1512" y="128.6934">Zipcode</text><line style="stroke:#181818;stroke-width:0.3499999999999999;" x1="1508.5" x2="1593.9" y1="133.9529" y2="133.9529"/></g><!--class Code--><g id="elem_Code"><rect codeLine="41" fill="#F1F1F1" height="44.2695" id="Code" rx="1.75" ry="1.75" style="stroke:#181818;stroke-width:0.3499999999999999;" width="86.8" x="1619.1" y="355.9596"/><ellipse cx="1629.6" cy="372.4943" fill="#ADD1B2" rx="7.7" ry="7.7" style="stroke:#181818;stroke-width:0.6999999999999998;"/><path d="M1631.5359,369.6068 Q1631.6453,369.4537 1631.7766,369.3771 Q1631.9078,369.3006 1632.0609,369.3006 Q1632.3234,369.3006 1632.4875,369.4865 Q1632.6516,369.6615 1632.6516,370.0881 L1632.6516,371.1053 Q1632.6516,371.5318 1632.4875,371.7178 Q1632.3234,371.9037 1632.0609,371.9037 Q1631.8203,371.9037 1631.6781,371.7615 Q1631.5359,371.6303 1631.4594,371.2693 Q1631.4266,371.0178 1631.2953,370.8865 Q1631.0656,370.624 1630.6391,370.4709 Q1630.2125,370.3178 1629.775,370.3178 Q1629.2391,370.3178 1628.7906,370.5475 Q1628.3531,370.7771 1628.0031,371.3021 Q1627.6641,371.8271 1627.6641,372.549 L1627.6641,373.3146 Q1627.6641,374.1787 1628.2875,374.7584 Q1628.9109,375.3271 1630.0266,375.3271 Q1630.6828,375.3271 1631.1422,375.1521 Q1631.4156,375.0428 1631.7109,374.7365 Q1631.8969,374.5506 1631.9953,374.4959 Q1632.1047,374.4412 1632.2469,374.4412 Q1632.4766,374.4412 1632.6516,374.6271 Q1632.8375,374.8021 1632.8375,375.0428 Q1632.8375,375.2834 1632.5969,375.5678 Q1632.2469,375.9725 1631.6891,376.2021 Q1630.9344,376.5193 1630.0266,376.5193 Q1628.9656,376.5193 1628.1234,376.0818 Q1627.4344,375.7318 1626.9531,374.9881 Q1626.4719,374.2334 1626.4719,373.3365 L1626.4719,372.5271 Q1626.4719,371.5975 1626.8984,370.799 Q1627.3359,369.9896 1628.1016,369.5631 Q1628.8672,369.1256 1629.7312,369.1256 Q1630.2453,369.1256 1630.6937,369.2459 Q1631.1531,369.3553 1631.5359,369.6068 Z " fill="#000000"/><text fill="#000000" font-family="sans-serif" font-size="9.8" lengthAdjust="spacing" textLength="64.4" x="1639.4" y="370.0348">&#171;value object&#187;</text><text fill="#000000" font-family="sans-serif" font-size="9.8" lengthAdjust="spacing" textLength="23.8" x="1659.7" y="383.0695">Code</text><line style="stroke:#181818;stroke-width:0.3499999999999999;" x1="1619.8" x2="1705.2" y1="389.0291" y2="389.0291"/><line style="stroke:#181818;stroke-width:0.3499999999999999;" x1="1619.8" x2="1705.2" y1="394.6291" y2="394.6291"/></g><!--class RecruitmentProcess--><g id="elem_RecruitmentProcess"><rect codeLine="48" fill="#F1F1F1" height="57.3043" id="RecruitmentProcess" rx="1.75" ry="1.75" style="stroke:#181818;stroke-width:0.3499999999999999;" width="111.3" x="633.15" y="602.0096"/><ellipse cx="643.65" cy="618.5443" fill="#ADD1B2" rx="7.7" ry="7.7" style="stroke:#181818;stroke-width:0.6999999999999998;"/><path d="M645.5859,615.6568 Q645.6953,615.5037 645.8266,615.4271 Q645.9578,615.3506 646.1109,615.3506 Q646.3734,615.3506 646.5375,615.5365 Q646.7016,615.7115 646.7016,616.1381 L646.7016,617.1553 Q646.7016,617.5818 646.5375,617.7678 Q646.3734,617.9537 646.1109,617.9537 Q645.8703,617.9537 645.7281,617.8115 Q645.5859,617.6803 645.5094,617.3193 Q645.4766,617.0678 645.3453,616.9365 Q645.1156,616.674 644.6891,616.5209 Q644.2625,616.3678 643.825,616.3678 Q643.2891,616.3678 642.8406,616.5975 Q642.4031,616.8271 642.0531,617.3521 Q641.7141,617.8771 641.7141,618.599 L641.7141,619.3646 Q641.7141,620.2287 642.3375,620.8084 Q642.9609,621.3771 644.0766,621.3771 Q644.7328,621.3771 645.1922,621.2021 Q645.4656,621.0928 645.7609,620.7865 Q645.9469,620.6006 646.0453,620.5459 Q646.1547,620.4912 646.2969,620.4912 Q646.5266,620.4912 646.7016,620.6771 Q646.8875,620.8521 646.8875,621.0928 Q646.8875,621.3334 646.6469,621.6178 Q646.2969,622.0225 645.7391,622.2521 Q644.9844,622.5693 644.0766,622.5693 Q643.0156,622.5693 642.1734,622.1318 Q641.4844,621.7818 641.0031,621.0381 Q640.5219,620.2834 640.5219,619.3865 L640.5219,618.5771 Q640.5219,617.6475 640.9484,616.849 Q641.3859,616.0396 642.1516,615.6131 Q642.9172,615.1756 643.7812,615.1756 Q644.2953,615.1756 644.7437,615.2959 Q645.2031,615.4053 645.5859,615.6568 Z " fill="#000000"/><text fill="#000000" font-family="sans-serif" font-size="9.8" lengthAdjust="spacing" textLength="35" x="680.4" y="616.0848">&#171;entity&#187;</text><text fill="#000000" font-family="sans-serif" font-size="9.8" lengthAdjust="spacing" textLength="88.9" x="653.45" y="629.1195">RecruitmentProcess</text><line style="stroke:#181818;stroke-width:0.3499999999999999;" x1="633.85" x2="743.75" y1="635.0791" y2="635.0791"/><text fill="#000000" font-family="sans-serif" font-size="9.8" lengthAdjust="spacing" textLength="83.3" x="637.35" y="648.4543">HasInterviewPhase</text><line style="stroke:#181818;stroke-width:0.3499999999999999;" x1="633.85" x2="743.75" y1="653.7139" y2="653.7139"/></g><!--class Phase--><g id="elem_Phase"><rect codeLine="52" fill="#F1F1F1" height="83.3738" id="Phase" rx="1.75" ry="1.75" style="stroke:#181818;stroke-width:0.3499999999999999;" width="57.4" x="660.1" y="714.7096"/><ellipse cx="670.6" cy="731.2443" fill="#ADD1B2" rx="7.7" ry="7.7" style="stroke:#181818;stroke-width:0.6999999999999998;"/><path d="M672.5359,728.3568 Q672.6453,728.2037 672.7766,728.1271 Q672.9078,728.0506 673.0609,728.0506 Q673.3234,728.0506 673.4875,728.2365 Q673.6516,728.4115 673.6516,728.8381 L673.6516,729.8553 Q673.6516,730.2818 673.4875,730.4678 Q673.3234,730.6537 673.0609,730.6537 Q672.8203,730.6537 672.6781,730.5115 Q672.5359,730.3803 672.4594,730.0193 Q672.4266,729.7678 672.2953,729.6365 Q672.0656,729.374 671.6391,729.2209 Q671.2125,729.0678 670.775,729.0678 Q670.2391,729.0678 669.7906,729.2975 Q669.3531,729.5271 669.0031,730.0521 Q668.6641,730.5771 668.6641,731.299 L668.6641,732.0646 Q668.6641,732.9287 669.2875,733.5084 Q669.9109,734.0771 671.0266,734.0771 Q671.6828,734.0771 672.1422,733.9021 Q672.4156,733.7928 672.7109,733.4865 Q672.8969,733.3006 672.9953,733.2459 Q673.1047,733.1912 673.2469,733.1912 Q673.4766,733.1912 673.6516,733.3771 Q673.8375,733.5521 673.8375,733.7928 Q673.8375,734.0334 673.5969,734.3178 Q673.2469,734.7225 672.6891,734.9521 Q671.9344,735.2693 671.0266,735.2693 Q669.9656,735.2693 669.1234,734.8318 Q668.4344,734.4818 667.9531,733.7381 Q667.4719,732.9834 667.4719,732.0865 L667.4719,731.2771 Q667.4719,730.3475 667.8984,729.549 Q668.3359,728.7396 669.1016,728.3131 Q669.8672,727.8756 670.7312,727.8756 Q671.2453,727.8756 671.6937,727.9959 Q672.1531,728.1053 672.5359,728.3568 Z " fill="#000000"/><text fill="#000000" font-family="sans-serif" font-size="9.8" lengthAdjust="spacing" textLength="35" x="680.4" y="728.7848">&#171;entity&#187;</text><text fill="#000000" font-family="sans-serif" font-size="9.8" lengthAdjust="spacing" textLength="28" x="683.9" y="741.8195">Phase</text><line style="stroke:#181818;stroke-width:0.3499999999999999;" x1="660.8" x2="716.8" y1="747.7791" y2="747.7791"/><text fill="#000000" font-family="sans-serif" font-size="9.8" lengthAdjust="spacing" textLength="48.3" x="664.3" y="761.1543">description</text><text fill="#000000" font-family="sans-serif" font-size="9.8" lengthAdjust="spacing" textLength="45.5" x="664.3" y="774.1891">beginDate</text><text fill="#000000" font-family="sans-serif" font-size="9.8" lengthAdjust="spacing" textLength="39.2" x="664.3" y="787.2238">finalDate</text><line style="stroke:#181818;stroke-width:0.3499999999999999;" x1="660.8" x2="716.8" y1="792.4834" y2="792.4834"/></g><!--class InterviewPhaseStatus--><g id="elem_InterviewPhaseStatus"><rect codeLine="58" fill="#F1F1F1" height="44.2695" id="InterviewPhaseStatus" rx="1.75" ry="1.75" style="stroke:#181818;stroke-width:0.3499999999999999;" width="116.9" x="768.95" y="608.6596"/><ellipse cx="779.45" cy="625.1943" fill="#ADD1B2" rx="7.7" ry="7.7" style="stroke:#181818;stroke-width:0.6999999999999998;"/><path d="M781.3859,622.3068 Q781.4953,622.1537 781.6266,622.0771 Q781.7578,622.0006 781.9109,622.0006 Q782.1734,622.0006 782.3375,622.1865 Q782.5016,622.3615 782.5016,622.7881 L782.5016,623.8053 Q782.5016,624.2318 782.3375,624.4178 Q782.1734,624.6037 781.9109,624.6037 Q781.6703,624.6037 781.5281,624.4615 Q781.3859,624.3303 781.3094,623.9693 Q781.2766,623.7178 781.1453,623.5865 Q780.9156,623.324 780.4891,623.1709 Q780.0625,623.0178 779.625,623.0178 Q779.0891,623.0178 778.6406,623.2475 Q778.2031,623.4771 777.8531,624.0021 Q777.5141,624.5271 777.5141,625.249 L777.5141,626.0146 Q777.5141,626.8787 778.1375,627.4584 Q778.7609,628.0271 779.8766,628.0271 Q780.5328,628.0271 780.9922,627.8521 Q781.2656,627.7428 781.5609,627.4365 Q781.7469,627.2506 781.8453,627.1959 Q781.9547,627.1412 782.0969,627.1412 Q782.3266,627.1412 782.5016,627.3271 Q782.6875,627.5021 782.6875,627.7428 Q782.6875,627.9834 782.4469,628.2678 Q782.0969,628.6725 781.5391,628.9021 Q780.7844,629.2193 779.8766,629.2193 Q778.8156,629.2193 777.9734,628.7818 Q777.2844,628.4318 776.8031,627.6881 Q776.3219,626.9334 776.3219,626.0365 L776.3219,625.2271 Q776.3219,624.2975 776.7484,623.499 Q777.1859,622.6896 777.9516,622.2631 Q778.7172,621.8256 779.5812,621.8256 Q780.0953,621.8256 780.5437,621.9459 Q781.0031,622.0553 781.3859,622.3068 Z " fill="#000000"/><text fill="#000000" font-family="sans-serif" font-size="9.8" lengthAdjust="spacing" textLength="64.4" x="804.3" y="622.7348">&#171;value object&#187;</text><text fill="#000000" font-family="sans-serif" font-size="9.8" lengthAdjust="spacing" textLength="94.5" x="789.25" y="635.7695">InterviewPhaseStatus</text><line style="stroke:#181818;stroke-width:0.3499999999999999;" x1="769.65" x2="885.15" y1="641.7291" y2="641.7291"/><line style="stroke:#181818;stroke-width:0.3499999999999999;" x1="769.65" x2="885.15" y1="647.3291" y2="647.3291"/></g><!--class JobOpening--><g id="elem_JobOpening"><rect codeLine="60" fill="#F1F1F1" height="57.3043" id="JobOpening" rx="1.75" ry="1.75" style="stroke:#181818;stroke-width:0.3499999999999999;" width="75.6" x="916.3" y="487.9096"/><ellipse cx="926.8" cy="510.9617" fill="#ADD1B2" rx="7.7" ry="7.7" style="stroke:#181818;stroke-width:0.6999999999999998;"/><path d="M928.7359,508.0742 Q928.8453,507.9211 928.9766,507.8445 Q929.1078,507.768 929.2609,507.768 Q929.5234,507.768 929.6875,507.9539 Q929.8516,508.1289 929.8516,508.5555 L929.8516,509.5727 Q929.8516,509.9992 929.6875,510.1852 Q929.5234,510.3711 929.2609,510.3711 Q929.0203,510.3711 928.8781,510.2289 Q928.7359,510.0977 928.6594,509.7367 Q928.6266,509.4852 928.4953,509.3539 Q928.2656,509.0914 927.8391,508.9383 Q927.4125,508.7852 926.975,508.7852 Q926.4391,508.7852 925.9906,509.0148 Q925.5531,509.2445 925.2031,509.7695 Q924.8641,510.2945 924.8641,511.0164 L924.8641,511.782 Q924.8641,512.6461 925.4875,513.2258 Q926.1109,513.7945 927.2266,513.7945 Q927.8828,513.7945 928.3422,513.6195 Q928.6156,513.5102 928.9109,513.2039 Q929.0969,513.018 929.1953,512.9633 Q929.3047,512.9086 929.4469,512.9086 Q929.6766,512.9086 929.8516,513.0945 Q930.0375,513.2695 930.0375,513.5102 Q930.0375,513.7508 929.7969,514.0352 Q929.4469,514.4398 928.8891,514.6695 Q928.1344,514.9867 927.2266,514.9867 Q926.1656,514.9867 925.3234,514.5492 Q924.6344,514.1992 924.1531,513.4555 Q923.6719,512.7008 923.6719,511.8039 L923.6719,510.9945 Q923.6719,510.0648 924.0984,509.2664 Q924.5359,508.457 925.3016,508.0305 Q926.0672,507.593 926.9312,507.593 Q927.4453,507.593 927.8937,507.7133 Q928.3531,507.8227 928.7359,508.0742 Z " fill="#000000"/><text fill="#000000" font-family="sans-serif" font-size="9.8" lengthAdjust="spacing" textLength="28.7" x="948.85" y="501.9848">&#171;root&#187;</text><text fill="#000000" font-family="sans-serif" font-size="9.8" lengthAdjust="spacing" textLength="35" x="944.3" y="515.0195">&#171;entity&#187;</text><text fill="#000000" font-family="sans-serif" font-size="9.8" lengthAdjust="spacing" textLength="53.2" x="936.6" y="528.0543">JobOpening</text><line style="stroke:#181818;stroke-width:0.3499999999999999;" x1="917" x2="991.2" y1="534.0139" y2="534.0139"/><line style="stroke:#181818;stroke-width:0.3499999999999999;" x1="917" x2="991.2" y1="539.6139" y2="539.6139"/></g><!--class SetupStatus--><g id="elem_SetupStatus"><rect codeLine="65" fill="#F1F1F1" height="44.2695" id="SetupStatus" rx="1.75" ry="1.75" style="stroke:#181818;stroke-width:0.3499999999999999;" width="86.8" x="910.7" y="608.6596"/><ellipse cx="921.2" cy="625.1943" fill="#ADD1B2" rx="7.7" ry="7.7" style="stroke:#181818;stroke-width:0.6999999999999998;"/><path d="M923.1359,622.3068 Q923.2453,622.1537 923.3766,622.0771 Q923.5078,622.0006 923.6609,622.0006 Q923.9234,622.0006 924.0875,622.1865 Q924.2516,622.3615 924.2516,622.7881 L924.2516,623.8053 Q924.2516,624.2318 924.0875,624.4178 Q923.9234,624.6037 923.6609,624.6037 Q923.4203,624.6037 923.2781,624.4615 Q923.1359,624.3303 923.0594,623.9693 Q923.0266,623.7178 922.8953,623.5865 Q922.6656,623.324 922.2391,623.1709 Q921.8125,623.0178 921.375,623.0178 Q920.8391,623.0178 920.3906,623.2475 Q919.9531,623.4771 919.6031,624.0021 Q919.2641,624.5271 919.2641,625.249 L919.2641,626.0146 Q919.2641,626.8787 919.8875,627.4584 Q920.5109,628.0271 921.6266,628.0271 Q922.2828,628.0271 922.7422,627.8521 Q923.0156,627.7428 923.3109,627.4365 Q923.4969,627.2506 923.5953,627.1959 Q923.7047,627.1412 923.8469,627.1412 Q924.0766,627.1412 924.2516,627.3271 Q924.4375,627.5021 924.4375,627.7428 Q924.4375,627.9834 924.1969,628.2678 Q923.8469,628.6725 923.2891,628.9021 Q922.5344,629.2193 921.6266,629.2193 Q920.5656,629.2193 919.7234,628.7818 Q919.0344,628.4318 918.5531,627.6881 Q918.0719,626.9334 918.0719,626.0365 L918.0719,625.2271 Q918.0719,624.2975 918.4984,623.499 Q918.9359,622.6896 919.7016,622.2631 Q920.4672,621.8256 921.3312,621.8256 Q921.8453,621.8256 922.2937,621.9459 Q922.7531,622.0553 923.1359,622.3068 Z " fill="#000000"/><text fill="#000000" font-family="sans-serif" font-size="9.8" lengthAdjust="spacing" textLength="64.4" x="931" y="622.7348">&#171;value object&#187;</text><text fill="#000000" font-family="sans-serif" font-size="9.8" lengthAdjust="spacing" textLength="53.9" x="936.25" y="635.7695">SetupStatus</text><line style="stroke:#181818;stroke-width:0.3499999999999999;" x1="911.4" x2="996.8" y1="641.7291" y2="641.7291"/><line style="stroke:#181818;stroke-width:0.3499999999999999;" x1="911.4" x2="996.8" y1="647.3291" y2="647.3291"/></g><!--class RequirementsStatus--><g id="elem_RequirementsStatus"><rect codeLine="68" fill="#F1F1F1" height="44.2695" id="RequirementsStatus" rx="1.75" ry="1.75" style="stroke:#181818;stroke-width:0.3499999999999999;" width="112" x="1022" y="608.6596"/><ellipse cx="1032.5" cy="625.1943" fill="#ADD1B2" rx="7.7" ry="7.7" style="stroke:#181818;stroke-width:0.6999999999999998;"/><path d="M1034.4359,622.3068 Q1034.5453,622.1537 1034.6766,622.0771 Q1034.8078,622.0006 1034.9609,622.0006 Q1035.2234,622.0006 1035.3875,622.1865 Q1035.5516,622.3615 1035.5516,622.7881 L1035.5516,623.8053 Q1035.5516,624.2318 1035.3875,624.4178 Q1035.2234,624.6037 1034.9609,624.6037 Q1034.7203,624.6037 1034.5781,624.4615 Q1034.4359,624.3303 1034.3594,623.9693 Q1034.3266,623.7178 1034.1953,623.5865 Q1033.9656,623.324 1033.5391,623.1709 Q1033.1125,623.0178 1032.675,623.0178 Q1032.1391,623.0178 1031.6906,623.2475 Q1031.2531,623.4771 1030.9031,624.0021 Q1030.5641,624.5271 1030.5641,625.249 L1030.5641,626.0146 Q1030.5641,626.8787 1031.1875,627.4584 Q1031.8109,628.0271 1032.9266,628.0271 Q1033.5828,628.0271 1034.0422,627.8521 Q1034.3156,627.7428 1034.6109,627.4365 Q1034.7969,627.2506 1034.8953,627.1959 Q1035.0047,627.1412 1035.1469,627.1412 Q1035.3766,627.1412 1035.5516,627.3271 Q1035.7375,627.5021 1035.7375,627.7428 Q1035.7375,627.9834 1035.4969,628.2678 Q1035.1469,628.6725 1034.5891,628.9021 Q1033.8344,629.2193 1032.9266,629.2193 Q1031.8656,629.2193 1031.0234,628.7818 Q1030.3344,628.4318 1029.8531,627.6881 Q1029.3719,626.9334 1029.3719,626.0365 L1029.3719,625.2271 Q1029.3719,624.2975 1029.7984,623.499 Q1030.2359,622.6896 1031.0016,622.2631 Q1031.7672,621.8256 1032.6312,621.8256 Q1033.1453,621.8256 1033.5937,621.9459 Q1034.0531,622.0553 1034.4359,622.3068 Z " fill="#000000"/><text fill="#000000" font-family="sans-serif" font-size="9.8" lengthAdjust="spacing" textLength="64.4" x="1054.9" y="622.7348">&#171;value object&#187;</text><text fill="#000000" font-family="sans-serif" font-size="9.8" lengthAdjust="spacing" textLength="89.6" x="1042.3" y="635.7695">RequirementsStatus</text><line style="stroke:#181818;stroke-width:0.3499999999999999;" x1="1022.7" x2="1133.3" y1="641.7291" y2="641.7291"/><line style="stroke:#181818;stroke-width:0.3499999999999999;" x1="1022.7" x2="1133.3" y1="647.3291" y2="647.3291"/></g><!--class ContractType--><g id="elem_ContractType"><rect codeLine="73" fill="#F1F1F1" height="44.2695" id="ContractType" rx="1.75" ry="1.75" style="stroke:#181818;stroke-width:0.3499999999999999;" width="86.8" x="1207.5" y="355.9596"/><ellipse cx="1218" cy="372.4943" fill="#ADD1B2" rx="7.7" ry="7.7" style="stroke:#181818;stroke-width:0.6999999999999998;"/><path d="M1219.9359,369.6068 Q1220.0453,369.4537 1220.1766,369.3771 Q1220.3078,369.3006 1220.4609,369.3006 Q1220.7234,369.3006 1220.8875,369.4865 Q1221.0516,369.6615 1221.0516,370.0881 L1221.0516,371.1053 Q1221.0516,371.5318 1220.8875,371.7178 Q1220.7234,371.9037 1220.4609,371.9037 Q1220.2203,371.9037 1220.0781,371.7615 Q1219.9359,371.6303 1219.8594,371.2693 Q1219.8266,371.0178 1219.6953,370.8865 Q1219.4656,370.624 1219.0391,370.4709 Q1218.6125,370.3178 1218.175,370.3178 Q1217.6391,370.3178 1217.1906,370.5475 Q1216.7531,370.7771 1216.4031,371.3021 Q1216.0641,371.8271 1216.0641,372.549 L1216.0641,373.3146 Q1216.0641,374.1787 1216.6875,374.7584 Q1217.3109,375.3271 1218.4266,375.3271 Q1219.0828,375.3271 1219.5422,375.1521 Q1219.8156,375.0428 1220.1109,374.7365 Q1220.2969,374.5506 1220.3953,374.4959 Q1220.5047,374.4412 1220.6469,374.4412 Q1220.8766,374.4412 1221.0516,374.6271 Q1221.2375,374.8021 1221.2375,375.0428 Q1221.2375,375.2834 1220.9969,375.5678 Q1220.6469,375.9725 1220.0891,376.2021 Q1219.3344,376.5193 1218.4266,376.5193 Q1217.3656,376.5193 1216.5234,376.0818 Q1215.8344,375.7318 1215.3531,374.9881 Q1214.8719,374.2334 1214.8719,373.3365 L1214.8719,372.5271 Q1214.8719,371.5975 1215.2984,370.799 Q1215.7359,369.9896 1216.5016,369.5631 Q1217.2672,369.1256 1218.1312,369.1256 Q1218.6453,369.1256 1219.0937,369.2459 Q1219.5531,369.3553 1219.9359,369.6068 Z " fill="#000000"/><text fill="#000000" font-family="sans-serif" font-size="9.8" lengthAdjust="spacing" textLength="64.4" x="1227.8" y="370.0348">&#171;value object&#187;</text><text fill="#000000" font-family="sans-serif" font-size="9.8" lengthAdjust="spacing" textLength="60.2" x="1229.9" y="383.0695">ContractType</text><line style="stroke:#181818;stroke-width:0.3499999999999999;" x1="1208.2" x2="1293.6" y1="389.0291" y2="389.0291"/><line style="stroke:#181818;stroke-width:0.3499999999999999;" x1="1208.2" x2="1293.6" y1="394.6291" y2="394.6291"/></g><!--class Mode--><g id="elem_Mode"><rect codeLine="76" fill="#F1F1F1" height="57.3043" id="Mode" rx="1.75" ry="1.75" style="stroke:#181818;stroke-width:0.3499999999999999;" width="86.8" x="1096.2" y="349.3096"/><ellipse cx="1106.7" cy="365.8443" fill="#ADD1B2" rx="7.7" ry="7.7" style="stroke:#181818;stroke-width:0.6999999999999998;"/><path d="M1108.6359,362.9568 Q1108.7453,362.8037 1108.8766,362.7271 Q1109.0078,362.6506 1109.1609,362.6506 Q1109.4234,362.6506 1109.5875,362.8365 Q1109.7516,363.0115 1109.7516,363.4381 L1109.7516,364.4553 Q1109.7516,364.8818 1109.5875,365.0678 Q1109.4234,365.2537 1109.1609,365.2537 Q1108.9203,365.2537 1108.7781,365.1115 Q1108.6359,364.9803 1108.5594,364.6193 Q1108.5266,364.3678 1108.3953,364.2365 Q1108.1656,363.974 1107.7391,363.8209 Q1107.3125,363.6678 1106.875,363.6678 Q1106.3391,363.6678 1105.8906,363.8975 Q1105.4531,364.1271 1105.1031,364.6521 Q1104.7641,365.1771 1104.7641,365.899 L1104.7641,366.6646 Q1104.7641,367.5287 1105.3875,368.1084 Q1106.0109,368.6771 1107.1266,368.6771 Q1107.7828,368.6771 1108.2422,368.5021 Q1108.5156,368.3928 1108.8109,368.0865 Q1108.9969,367.9006 1109.0953,367.8459 Q1109.2047,367.7912 1109.3469,367.7912 Q1109.5766,367.7912 1109.7516,367.9771 Q1109.9375,368.1521 1109.9375,368.3928 Q1109.9375,368.6334 1109.6969,368.9178 Q1109.3469,369.3225 1108.7891,369.5521 Q1108.0344,369.8693 1107.1266,369.8693 Q1106.0656,369.8693 1105.2234,369.4318 Q1104.5344,369.0818 1104.0531,368.3381 Q1103.5719,367.5834 1103.5719,366.6865 L1103.5719,365.8771 Q1103.5719,364.9475 1103.9984,364.149 Q1104.4359,363.3396 1105.2016,362.9131 Q1105.9672,362.4756 1106.8312,362.4756 Q1107.3453,362.4756 1107.7937,362.5959 Q1108.2531,362.7053 1108.6359,362.9568 Z " fill="#000000"/><text fill="#000000" font-family="sans-serif" font-size="9.8" lengthAdjust="spacing" textLength="64.4" x="1116.5" y="363.3848">&#171;value object&#187;</text><text fill="#000000" font-family="sans-serif" font-size="9.8" lengthAdjust="spacing" textLength="24.5" x="1136.45" y="376.4195">Mode</text><line style="stroke:#181818;stroke-width:0.3499999999999999;" x1="1096.9" x2="1182.3" y1="382.3791" y2="382.3791"/><text fill="#000000" font-family="sans-serif" font-size="9.8" lengthAdjust="spacing" textLength="48.3" x="1100.4" y="395.7543">description</text><line style="stroke:#181818;stroke-width:0.3499999999999999;" x1="1096.9" x2="1182.3" y1="401.0139" y2="401.0139"/></g><!--class JobFunction--><g id="elem_JobFunction"><rect codeLine="80" fill="#F1F1F1" height="57.3043" id="JobFunction" rx="1.75" ry="1.75" style="stroke:#181818;stroke-width:0.3499999999999999;" width="86.8" x="984.9" y="349.3096"/><ellipse cx="995.4" cy="365.8443" fill="#ADD1B2" rx="7.7" ry="7.7" style="stroke:#181818;stroke-width:0.6999999999999998;"/><path d="M997.3359,362.9568 Q997.4453,362.8037 997.5766,362.7271 Q997.7078,362.6506 997.8609,362.6506 Q998.1234,362.6506 998.2875,362.8365 Q998.4516,363.0115 998.4516,363.4381 L998.4516,364.4553 Q998.4516,364.8818 998.2875,365.0678 Q998.1234,365.2537 997.8609,365.2537 Q997.6203,365.2537 997.4781,365.1115 Q997.3359,364.9803 997.2594,364.6193 Q997.2266,364.3678 997.0953,364.2365 Q996.8656,363.974 996.4391,363.8209 Q996.0125,363.6678 995.575,363.6678 Q995.0391,363.6678 994.5906,363.8975 Q994.1531,364.1271 993.8031,364.6521 Q993.4641,365.1771 993.4641,365.899 L993.4641,366.6646 Q993.4641,367.5287 994.0875,368.1084 Q994.7109,368.6771 995.8266,368.6771 Q996.4828,368.6771 996.9422,368.5021 Q997.2156,368.3928 997.5109,368.0865 Q997.6969,367.9006 997.7953,367.8459 Q997.9047,367.7912 998.0469,367.7912 Q998.2766,367.7912 998.4516,367.9771 Q998.6375,368.1521 998.6375,368.3928 Q998.6375,368.6334 998.3969,368.9178 Q998.0469,369.3225 997.4891,369.5521 Q996.7344,369.8693 995.8266,369.8693 Q994.7656,369.8693 993.9234,369.4318 Q993.2344,369.0818 992.7531,368.3381 Q992.2719,367.5834 992.2719,366.6865 L992.2719,365.8771 Q992.2719,364.9475 992.6984,364.149 Q993.1359,363.3396 993.9016,362.9131 Q994.6672,362.4756 995.5312,362.4756 Q996.0453,362.4756 996.4937,362.5959 Q996.9531,362.7053 997.3359,362.9568 Z " fill="#000000"/><text fill="#000000" font-family="sans-serif" font-size="9.8" lengthAdjust="spacing" textLength="64.4" x="1005.2" y="363.3848">&#171;value object&#187;</text><text fill="#000000" font-family="sans-serif" font-size="9.8" lengthAdjust="spacing" textLength="53.9" x="1010.45" y="376.4195">JobFunction</text><line style="stroke:#181818;stroke-width:0.3499999999999999;" x1="985.6" x2="1071" y1="382.3791" y2="382.3791"/><text fill="#000000" font-family="sans-serif" font-size="9.8" lengthAdjust="spacing" textLength="48.3" x="989.1" y="395.7543">description</text><line style="stroke:#181818;stroke-width:0.3499999999999999;" x1="985.6" x2="1071" y1="401.0139" y2="401.0139"/></g><!--class NumberOfVacancies--><g id="elem_NumberOfVacancies"><rect codeLine="84" fill="#F1F1F1" height="44.2695" id="NumberOfVacancies" rx="1.75" ry="1.75" style="stroke:#181818;stroke-width:0.3499999999999999;" width="115.5" x="844.55" y="355.9596"/><ellipse cx="855.05" cy="372.4943" fill="#ADD1B2" rx="7.7" ry="7.7" style="stroke:#181818;stroke-width:0.6999999999999998;"/><path d="M856.9859,369.6068 Q857.0953,369.4537 857.2266,369.3771 Q857.3578,369.3006 857.5109,369.3006 Q857.7734,369.3006 857.9375,369.4865 Q858.1016,369.6615 858.1016,370.0881 L858.1016,371.1053 Q858.1016,371.5318 857.9375,371.7178 Q857.7734,371.9037 857.5109,371.9037 Q857.2703,371.9037 857.1281,371.7615 Q856.9859,371.6303 856.9094,371.2693 Q856.8766,371.0178 856.7453,370.8865 Q856.5156,370.624 856.0891,370.4709 Q855.6625,370.3178 855.225,370.3178 Q854.6891,370.3178 854.2406,370.5475 Q853.8031,370.7771 853.4531,371.3021 Q853.1141,371.8271 853.1141,372.549 L853.1141,373.3146 Q853.1141,374.1787 853.7375,374.7584 Q854.3609,375.3271 855.4766,375.3271 Q856.1328,375.3271 856.5922,375.1521 Q856.8656,375.0428 857.1609,374.7365 Q857.3469,374.5506 857.4453,374.4959 Q857.5547,374.4412 857.6969,374.4412 Q857.9266,374.4412 858.1016,374.6271 Q858.2875,374.8021 858.2875,375.0428 Q858.2875,375.2834 858.0469,375.5678 Q857.6969,375.9725 857.1391,376.2021 Q856.3844,376.5193 855.4766,376.5193 Q854.4156,376.5193 853.5734,376.0818 Q852.8844,375.7318 852.4031,374.9881 Q851.9219,374.2334 851.9219,373.3365 L851.9219,372.5271 Q851.9219,371.5975 852.3484,370.799 Q852.7859,369.9896 853.5516,369.5631 Q854.3172,369.1256 855.1812,369.1256 Q855.6953,369.1256 856.1437,369.2459 Q856.6031,369.3553 856.9859,369.6068 Z " fill="#000000"/><text fill="#000000" font-family="sans-serif" font-size="9.8" lengthAdjust="spacing" textLength="64.4" x="879.2" y="370.0348">&#171;value object&#187;</text><text fill="#000000" font-family="sans-serif" font-size="9.8" lengthAdjust="spacing" textLength="90.3" x="867.65" y="383.0695">NumberOfVacancies</text><line style="stroke:#181818;stroke-width:0.3499999999999999;" x1="845.25" x2="959.35" y1="389.0291" y2="389.0291"/><line style="stroke:#181818;stroke-width:0.3499999999999999;" x1="845.25" x2="959.35" y1="394.6291" y2="394.6291"/></g><!--class Description--><g id="elem_Description"><rect codeLine="88" fill="#F1F1F1" height="57.3043" id="Description" rx="1.75" ry="1.75" style="stroke:#181818;stroke-width:0.3499999999999999;" width="86.8" x="732.9" y="349.3096"/><ellipse cx="743.4" cy="365.8443" fill="#ADD1B2" rx="7.7" ry="7.7" style="stroke:#181818;stroke-width:0.6999999999999998;"/><path d="M745.3359,362.9568 Q745.4453,362.8037 745.5766,362.7271 Q745.7078,362.6506 745.8609,362.6506 Q746.1234,362.6506 746.2875,362.8365 Q746.4516,363.0115 746.4516,363.4381 L746.4516,364.4553 Q746.4516,364.8818 746.2875,365.0678 Q746.1234,365.2537 745.8609,365.2537 Q745.6203,365.2537 745.4781,365.1115 Q745.3359,364.9803 745.2594,364.6193 Q745.2266,364.3678 745.0953,364.2365 Q744.8656,363.974 744.4391,363.8209 Q744.0125,363.6678 743.575,363.6678 Q743.0391,363.6678 742.5906,363.8975 Q742.1531,364.1271 741.8031,364.6521 Q741.4641,365.1771 741.4641,365.899 L741.4641,366.6646 Q741.4641,367.5287 742.0875,368.1084 Q742.7109,368.6771 743.8266,368.6771 Q744.4828,368.6771 744.9422,368.5021 Q745.2156,368.3928 745.5109,368.0865 Q745.6969,367.9006 745.7953,367.8459 Q745.9047,367.7912 746.0469,367.7912 Q746.2766,367.7912 746.4516,367.9771 Q746.6375,368.1521 746.6375,368.3928 Q746.6375,368.6334 746.3969,368.9178 Q746.0469,369.3225 745.4891,369.5521 Q744.7344,369.8693 743.8266,369.8693 Q742.7656,369.8693 741.9234,369.4318 Q741.2344,369.0818 740.7531,368.3381 Q740.2719,367.5834 740.2719,366.6865 L740.2719,365.8771 Q740.2719,364.9475 740.6984,364.149 Q741.1359,363.3396 741.9016,362.9131 Q742.6672,362.4756 743.5312,362.4756 Q744.0453,362.4756 744.4937,362.5959 Q744.9531,362.7053 745.3359,362.9568 Z " fill="#000000"/><text fill="#000000" font-family="sans-serif" font-size="9.8" lengthAdjust="spacing" textLength="64.4" x="753.2" y="363.3848">&#171;value object&#187;</text><text fill="#000000" font-family="sans-serif" font-size="9.8" lengthAdjust="spacing" textLength="49.7" x="760.55" y="376.4195">Description</text><line style="stroke:#181818;stroke-width:0.3499999999999999;" x1="733.6" x2="819" y1="382.3791" y2="382.3791"/><text fill="#000000" font-family="sans-serif" font-size="9.8" lengthAdjust="spacing" textLength="48.3" x="737.1" y="395.7543">description</text><line style="stroke:#181818;stroke-width:0.3499999999999999;" x1="733.6" x2="819" y1="401.0139" y2="401.0139"/></g><!--class Address1--><g id="elem_Address1"><rect codeLine="93" fill="#F1F1F1" height="109.4434" id="Address1" rx="1.75" ry="1.75" style="stroke:#181818;stroke-width:0.3499999999999999;" width="86.8" x="621.6" y="323.4096"/><ellipse cx="632.1" cy="339.9443" fill="#ADD1B2" rx="7.7" ry="7.7" style="stroke:#181818;stroke-width:0.6999999999999998;"/><path d="M634.0359,337.0568 Q634.1453,336.9037 634.2766,336.8271 Q634.4078,336.7506 634.5609,336.7506 Q634.8234,336.7506 634.9875,336.9365 Q635.1516,337.1115 635.1516,337.5381 L635.1516,338.5553 Q635.1516,338.9818 634.9875,339.1678 Q634.8234,339.3537 634.5609,339.3537 Q634.3203,339.3537 634.1781,339.2115 Q634.0359,339.0803 633.9594,338.7193 Q633.9266,338.4678 633.7953,338.3365 Q633.5656,338.074 633.1391,337.9209 Q632.7125,337.7678 632.275,337.7678 Q631.7391,337.7678 631.2906,337.9975 Q630.8531,338.2271 630.5031,338.7521 Q630.1641,339.2771 630.1641,339.999 L630.1641,340.7646 Q630.1641,341.6287 630.7875,342.2084 Q631.4109,342.7771 632.5266,342.7771 Q633.1828,342.7771 633.6422,342.6021 Q633.9156,342.4928 634.2109,342.1865 Q634.3969,342.0006 634.4953,341.9459 Q634.6047,341.8912 634.7469,341.8912 Q634.9766,341.8912 635.1516,342.0771 Q635.3375,342.2521 635.3375,342.4928 Q635.3375,342.7334 635.0969,343.0178 Q634.7469,343.4225 634.1891,343.6521 Q633.4344,343.9693 632.5266,343.9693 Q631.4656,343.9693 630.6234,343.5318 Q629.9344,343.1818 629.4531,342.4381 Q628.9719,341.6834 628.9719,340.7865 L628.9719,339.9771 Q628.9719,339.0475 629.3984,338.249 Q629.8359,337.4396 630.6016,337.0131 Q631.3672,336.5756 632.2312,336.5756 Q632.7453,336.5756 633.1937,336.6959 Q633.6531,336.8053 634.0359,337.0568 Z " fill="#000000"/><text fill="#000000" font-family="sans-serif" font-size="9.8" lengthAdjust="spacing" textLength="64.4" x="641.9" y="337.4848">&#171;value object&#187;</text><text fill="#000000" font-family="sans-serif" font-size="9.8" lengthAdjust="spacing" textLength="36.4" x="655.9" y="350.5195">Address</text><line style="stroke:#181818;stroke-width:0.3499999999999999;" x1="622.3" x2="707.7" y1="356.4791" y2="356.4791"/><text fill="#000000" font-family="sans-serif" font-size="9.8" lengthAdjust="spacing" textLength="26.6" x="625.8" y="369.8543">Street</text><text fill="#000000" font-family="sans-serif" font-size="9.8" lengthAdjust="spacing" textLength="16.8" x="625.8" y="382.8891">City</text><text fill="#000000" font-family="sans-serif" font-size="9.8" lengthAdjust="spacing" textLength="23.1" x="625.8" y="395.9238">State</text><text fill="#000000" font-family="sans-serif" font-size="9.8" lengthAdjust="spacing" textLength="35" x="625.8" y="408.9586">Country</text><text fill="#000000" font-family="sans-serif" font-size="9.8" lengthAdjust="spacing" textLength="35" x="625.8" y="421.9934">Zipcode</text><line style="stroke:#181818;stroke-width:0.3499999999999999;" x1="622.3" x2="707.7" y1="427.2529" y2="427.2529"/></g><!--class JobReference--><g id="elem_JobReference"><rect codeLine="101" fill="#F1F1F1" height="57.3043" id="JobReference" rx="1.75" ry="1.75" style="stroke:#181818;stroke-width:0.3499999999999999;" width="86.8" x="1158.5" y="602.0096"/><ellipse cx="1169" cy="625.0617" fill="#ADD1B2" rx="7.7" ry="7.7" style="stroke:#181818;stroke-width:0.6999999999999998;"/><path d="M1170.9359,622.1742 Q1171.0453,622.0211 1171.1766,621.9445 Q1171.3078,621.868 1171.4609,621.868 Q1171.7234,621.868 1171.8875,622.0539 Q1172.0516,622.2289 1172.0516,622.6555 L1172.0516,623.6727 Q1172.0516,624.0992 1171.8875,624.2852 Q1171.7234,624.4711 1171.4609,624.4711 Q1171.2203,624.4711 1171.0781,624.3289 Q1170.9359,624.1977 1170.8594,623.8367 Q1170.8266,623.5852 1170.6953,623.4539 Q1170.4656,623.1914 1170.0391,623.0383 Q1169.6125,622.8852 1169.175,622.8852 Q1168.6391,622.8852 1168.1906,623.1148 Q1167.7531,623.3445 1167.4031,623.8695 Q1167.0641,624.3945 1167.0641,625.1164 L1167.0641,625.882 Q1167.0641,626.7461 1167.6875,627.3258 Q1168.3109,627.8945 1169.4266,627.8945 Q1170.0828,627.8945 1170.5422,627.7195 Q1170.8156,627.6102 1171.1109,627.3039 Q1171.2969,627.118 1171.3953,627.0633 Q1171.5047,627.0086 1171.6469,627.0086 Q1171.8766,627.0086 1172.0516,627.1945 Q1172.2375,627.3695 1172.2375,627.6102 Q1172.2375,627.8508 1171.9969,628.1352 Q1171.6469,628.5398 1171.0891,628.7695 Q1170.3344,629.0867 1169.4266,629.0867 Q1168.3656,629.0867 1167.5234,628.6492 Q1166.8344,628.2992 1166.3531,627.5555 Q1165.8719,626.8008 1165.8719,625.9039 L1165.8719,625.0945 Q1165.8719,624.1648 1166.2984,623.3664 Q1166.7359,622.557 1167.5016,622.1305 Q1168.2672,621.693 1169.1312,621.693 Q1169.6453,621.693 1170.0937,621.8133 Q1170.5531,621.9227 1170.9359,622.1742 Z " fill="#000000"/><text fill="#000000" font-family="sans-serif" font-size="9.8" lengthAdjust="spacing" textLength="64.4" x="1178.8" y="616.0848">&#171;value object&#187;</text><text fill="#000000" font-family="sans-serif" font-size="9.8" lengthAdjust="spacing" textLength="49" x="1186.5" y="629.1195">&#171;identifier&#187;</text><text fill="#000000" font-family="sans-serif" font-size="9.8" lengthAdjust="spacing" textLength="61.6" x="1180.2" y="642.1543">JobReference</text><line style="stroke:#181818;stroke-width:0.3499999999999999;" x1="1159.2" x2="1244.6" y1="648.1139" y2="648.1139"/><line style="stroke:#181818;stroke-width:0.3499999999999999;" x1="1159.2" x2="1244.6" y1="653.7139" y2="653.7139"/></g><!--link Plugin to PlugClass--><g id="link_Plugin_PlugClass"><path codeLine="105" d="M350.259,406.8076 C338.205,432.7566 322.3341,466.9433 311.3651,490.5613 " fill="none" id="Plugin-to-PlugClass" style="stroke:#181818;stroke-width:0.6999999999999998;"/><polygon fill="#181818" points="309.596,494.3706,314.7892,489.8362,311.0703,491.1962,309.7102,487.4773,309.596,494.3706" style="stroke:#181818;stroke-width:0.6999999999999998;"/><text fill="#000000" font-family="sans-serif" font-size="9.1" lengthAdjust="spacing" textLength="33.6" x="329" y="464.1294">includes</text><text fill="#000000" font-family="sans-serif" font-size="9.1" lengthAdjust="spacing" textLength="4.9" x="342.9869" y="421.9711">1</text><text fill="#000000" font-family="sans-serif" font-size="9.1" lengthAdjust="spacing" textLength="4.9" x="306.1816" y="486.744">1</text></g><!--link Plugin to JarFile--><g id="link_Plugin_JarFile"><path codeLine="106" d="M376.488,406.8076 C388.668,432.7566 404.7191,466.9507 415.8071,490.5687 " fill="none" id="Plugin-to-JarFile" style="stroke:#181818;stroke-width:0.6999999999999998;"/><polygon fill="#181818" points="417.592,494.3706,417.4493,487.4778,416.1046,491.2023,412.3801,489.8577,417.592,494.3706" style="stroke:#181818;stroke-width:0.6999999999999998;"/><text fill="#000000" font-family="sans-serif" font-size="9.1" lengthAdjust="spacing" textLength="33.6" x="403.9" y="464.1294">includes</text><text fill="#000000" font-family="sans-serif" font-size="9.1" lengthAdjust="spacing" textLength="4.9" x="373.2323" y="421.9711">1</text><text fill="#000000" font-family="sans-serif" font-size="9.1" lengthAdjust="spacing" textLength="4.9" x="410.2196" y="486.744">1</text></g><!--link Plugin to PlugDesc--><g id="link_Plugin_PlugDesc"><path codeLine="107" d="M392.119,401.2146 C425.215,427.0586 475.8187,466.5717 508.3057,491.9397 " fill="none" id="Plugin-to-PlugDesc" style="stroke:#181818;stroke-width:0.6999999999999998;"/><polygon fill="#181818" points="511.616,494.5246,508.3738,488.4403,508.8574,492.3705,504.9272,492.8541,511.616,494.5246" style="stroke:#181818;stroke-width:0.6999999999999998;"/><text fill="#000000" font-family="sans-serif" font-size="9.1" lengthAdjust="spacing" textLength="33.6" x="473.2" y="464.1294">includes</text><text fill="#000000" font-family="sans-serif" font-size="9.1" lengthAdjust="spacing" textLength="4.9" x="397.6888" y="402.2346">1</text><text fill="#000000" font-family="sans-serif" font-size="9.1" lengthAdjust="spacing" textLength="4.9" x="500.5627" y="486.6657">1</text></g><!--link Plugin to PlugID--><g id="link_Plugin_PlugID"><path codeLine="108" d="M334.586,390.6306 C288.127,410.0766 193.774,450.2636 115.5,487.9096 C111.58,489.7926 111.2895,489.9213 107.2295,491.9163 " fill="none" id="Plugin-to-PlugID" style="stroke:#181818;stroke-width:0.6999999999999998;"/><polygon fill="#181818" points="103.46,493.7686,110.3491,493.5032,106.6013,492.225,107.8794,488.4772,103.46,493.7686" style="stroke:#181818;stroke-width:0.6999999999999998;"/><text fill="#000000" font-family="sans-serif" font-size="9.1" lengthAdjust="spacing" textLength="48.3" x="184.1" y="464.1294">identified by</text><text fill="#000000" font-family="sans-serif" font-size="9.1" lengthAdjust="spacing" textLength="4.9" x="324.1349" y="389.7653">1</text><text fill="#000000" font-family="sans-serif" font-size="9.1" lengthAdjust="spacing" textLength="4.9" x="108.8262" y="488.3767">1</text></g><!--link Plugin to PlugType--><g id="link_Plugin_PlugType"><path codeLine="109" d="M334.586,399.2476 C298.739,424.8886 241.1427,466.0896 204.7777,492.1086 " fill="none" id="Plugin-to-PlugType" style="stroke:#181818;stroke-width:0.6999999999999998;"/><polygon fill="#181818" points="201.362,494.5526,208.1149,493.1638,204.2084,492.516,204.8563,488.6095,201.362,494.5526" style="stroke:#181818;stroke-width:0.6999999999999998;"/><text fill="#000000" font-family="sans-serif" font-size="9.1" lengthAdjust="spacing" textLength="22.4" x="256.9" y="464.1294">has a</text><text fill="#000000" font-family="sans-serif" font-size="9.1" lengthAdjust="spacing" textLength="4.9" x="324.1349" y="413.9369">1</text><text fill="#000000" font-family="sans-serif" font-size="9.1" lengthAdjust="spacing" textLength="4.9" x="202.1157" y="486.6995">1</text></g><!--reverse link Plugin to JobOpening--><g id="link_Plugin_JobOpening"><path codeLine="110" d="M396.0958,387.168 C456.8068,402.771 598.633,438.8046 721.7,466.9096 C790.041,482.5196 870.1,499.0046 916.174,508.3216 " fill="none" id="Plugin-backto-JobOpening" style="stroke:#181818;stroke-width:0.6999999999999998;"/><polygon fill="#181818" points="392.028,386.1226,397.4327,390.4026,395.4178,386.9938,398.8267,384.9789,392.028,386.1226" style="stroke:#181818;stroke-width:0.6999999999999998;"/><text fill="#000000" font-family="sans-serif" font-size="9.1" lengthAdjust="spacing" textLength="33.6" x="722.4" y="464.1294">includes</text><text fill="#000000" font-family="sans-serif" font-size="9.1" lengthAdjust="spacing" textLength="15.4" x="397.606" y="384.3965">0..2</text><text fill="#000000" font-family="sans-serif" font-size="9.1" lengthAdjust="spacing" textLength="4.9" x="905.8485" y="504.3483">1</text></g><!--link Customer to EMail1--><g id="link_Customer_EMail1"><path codeLine="111" d="M1551.2,252.1286 C1551.2,282.0326 1551.2,324.4876 1551.2,351.5986 " fill="none" id="Customer-to-EMail1" style="stroke:#181818;stroke-width:0.6999999999999998;"/><polygon fill="#181818" points="1551.2,355.7986,1554,349.4986,1551.2,352.2986,1548.4,349.4986,1551.2,355.7986" style="stroke:#181818;stroke-width:0.6999999999999998;"/><text fill="#000000" font-family="sans-serif" font-size="9.1" lengthAdjust="spacing" textLength="27.3" x="1551.9" y="283.5294">has an</text><text fill="#000000" font-family="sans-serif" font-size="9.1" lengthAdjust="spacing" textLength="4.9" x="1545.9248" y="267.2953">1</text><text fill="#000000" font-family="sans-serif" font-size="9.1" lengthAdjust="spacing" textLength="4.9" x="1545.7947" y="347.9137">1</text></g><!--reverse link Address2 to Customer--><g id="link_Address2_Customer"><path codeLine="113" d="M1551.2,143.6356 C1551.2,162.4586 1551.2,178.6146 1551.2,194.4766 " fill="none" id="Address2-backto-Customer" style="stroke:#181818;stroke-width:0.6999999999999998;"/><polygon fill="#181818" points="1551.2,139.4356,1548.4,145.7356,1551.2,142.9356,1554,145.7356,1551.2,139.4356" style="stroke:#181818;stroke-width:0.6999999999999998;"/><text fill="#000000" font-family="sans-serif" font-size="9.1" lengthAdjust="spacing" textLength="27.3" x="1551.9" y="170.8294">has an</text></g><!--link Customer to Code--><g id="link_Customer_Code"><path codeLine="115" d="M1575.651,252.1706 C1585.745,264.1686 1597.358,278.4696 1607.2,291.9096 C1622.649,313.0006 1636.5115,334.6734 1647.3195,352.2224 " fill="none" id="Customer-to-Code" style="stroke:#181818;stroke-width:0.6999999999999998;"/><polygon fill="#181818" points="1649.522,355.7986,1648.6024,348.966,1647.6866,352.8184,1643.8342,351.9026,1649.522,355.7986" style="stroke:#181818;stroke-width:0.6999999999999998;"/><text fill="#000000" font-family="sans-serif" font-size="9.1" lengthAdjust="spacing" textLength="48.3" x="1603.7" y="283.5294">identified by</text></g><!--link Customer to Name1--><g id="link_Customer_Name1"><path codeLine="116" d="M1525.055,252.0726 C1514.926,263.8186 1503.74,277.9656 1495.2,291.9096 C1484.308,309.6896 1476.4858,327.3186 1469.9058,344.3216 " fill="none" id="Customer-to-Name1" style="stroke:#181818;stroke-width:0.6999999999999998;"/><polygon fill="#181818" points="1468.39,348.2386,1473.275,343.3737,1469.6532,344.9745,1468.0524,341.3526,1468.39,348.2386" style="stroke:#181818;stroke-width:0.6999999999999998;"/><text fill="#000000" font-family="sans-serif" font-size="9.1" lengthAdjust="spacing" textLength="14.7" x="1508.5" y="283.5294">has</text></g><!--link Customer to SystemUser--><g id="link_Customer_SystemUser"><path codeLine="117" d="M1518.433,233.0606 C1488.865,242.8676 1446.256,261.3546 1421,291.9096 C1402.856,313.8616 1389.169,339.4718 1380.51,357.4198 " fill="none" id="Customer-to-SystemUser" style="stroke:#181818;stroke-width:0.6999999999999998;"/><polygon fill="#181818" points="1378.685,361.2026,1383.9443,356.7451,1380.2058,358.0503,1378.9006,354.3117,1378.685,361.2026" style="stroke:#181818;stroke-width:0.6999999999999998;"/><text fill="#000000" font-family="sans-serif" font-size="9.1" lengthAdjust="spacing" textLength="49.7" x="1438.5" y="283.5294">managed by</text></g><!--reverse link Mode to JobOpening--><g id="link_Mode_JobOpening"><path codeLine="118" d="M1109.3669,409.9047 C1100.5189,418.5147 1093.442,424.8256 1083.6,432.6096 C1054.347,455.7376 1018.521,478.3966 991.97,494.2236 " fill="none" id="Mode-backto-JobOpening" style="stroke:#181818;stroke-width:0.6999999999999998;"/><polygon fill="#181818" points="1112.377,406.9756,1105.9092,409.3625,1109.8686,409.4165,1109.8146,413.3759,1112.377,406.9756" style="stroke:#181818;stroke-width:0.6999999999999998;"/><text fill="#000000" font-family="sans-serif" font-size="9.1" lengthAdjust="spacing" textLength="33.6" x="1054.2" y="464.1294">includes</text><text fill="#000000" font-family="sans-serif" font-size="9.1" lengthAdjust="spacing" textLength="4.9" x="1103.1188" y="421.9457">1</text><text fill="#000000" font-family="sans-serif" font-size="9.1" lengthAdjust="spacing" textLength="4.9" x="997.388" y="488.3559">1</text></g><!--reverse link JobFunction to JobOpening--><g id="link_JobFunction_JobOpening"><path codeLine="119" d="M1011.1051,410.5019 C998.3021,434.1759 982.072,464.1866 969.276,487.8536 " fill="none" id="JobFunction-backto-JobOpening" style="stroke:#181818;stroke-width:0.6999999999999998;"/><polygon fill="#181818" points="1013.103,406.8076,1007.6432,411.0172,1011.4381,409.8862,1012.569,413.6811,1013.103,406.8076" style="stroke:#181818;stroke-width:0.6999999999999998;"/><text fill="#000000" font-family="sans-serif" font-size="9.1" lengthAdjust="spacing" textLength="33.6" x="987.7" y="464.1294">includes</text><text fill="#000000" font-family="sans-serif" font-size="9.1" lengthAdjust="spacing" textLength="4.9" x="1005.5008" y="421.9711">1</text><text fill="#000000" font-family="sans-serif" font-size="9.1" lengthAdjust="spacing" textLength="4.9" x="966.4837" y="480.05">1</text></g><!--reverse link NumberOfVacancies to JobOpening--><g id="link_NumberOfVacancies_JobOpening"><path codeLine="120" d="M911.8762,404.0726 C920.7872,427.6626 933.653,461.7506 943.46,487.7276 " fill="none" id="NumberOfVacancies-backto-JobOpening" style="stroke:#181818;stroke-width:0.6999999999999998;"/><polygon fill="#181818" points="910.392,400.1436,909.9989,407.0266,911.6288,403.4178,915.2376,405.0477,910.392,400.1436" style="stroke:#181818;stroke-width:0.6999999999999998;"/><text fill="#000000" font-family="sans-serif" font-size="9.1" lengthAdjust="spacing" textLength="33.6" x="935.2" y="464.1294">includes</text><text fill="#000000" font-family="sans-serif" font-size="9.1" lengthAdjust="spacing" textLength="4.9" x="906.6557" y="415.7592">1</text><text fill="#000000" font-family="sans-serif" font-size="9.1" lengthAdjust="spacing" textLength="4.9" x="936.4738" y="480.1199">1</text></g><!--reverse link Description to JobOpening--><g id="link_Description_JobOpening"><path codeLine="121" d="M806.6742,409.7354 C815.5222,418.3384 822.563,424.6856 832.3,432.6096 C859.124,454.4356 891.527,476.4086 916.167,492.3056 " fill="none" id="Description-backto-JobOpening" style="stroke:#181818;stroke-width:0.6999999999999998;"/><polygon fill="#181818" points="803.663,406.8076,806.228,413.2069,806.1724,409.2475,810.1318,409.1919,803.663,406.8076" style="stroke:#181818;stroke-width:0.6999999999999998;"/><text fill="#000000" font-family="sans-serif" font-size="9.1" lengthAdjust="spacing" textLength="33.6" x="878.5" y="464.1294">includes</text><text fill="#000000" font-family="sans-serif" font-size="9.1" lengthAdjust="spacing" textLength="4.9" x="802.5778" y="421.9711">1</text><text fill="#000000" font-family="sans-serif" font-size="9.1" lengthAdjust="spacing" textLength="4.9" x="905.8405" y="486.1801">1</text></g><!--reverse link Address1 to JobOpening--><g id="link_Address1_JobOpening"><path codeLine="122" d="M711.8799,426.9153 C715.6879,429.9183 716.317,430.1246 720.3,432.6096 C783.559,472.0406 868.091,496.2186 916.258,507.7546 " fill="none" id="Address1-backto-JobOpening" style="stroke:#181818;stroke-width:0.6999999999999998;"/><polygon fill="#181818" points="708.582,424.3146,711.795,430.4143,711.3303,426.4819,715.2627,426.0171,708.582,424.3146" style="stroke:#181818;stroke-width:0.6999999999999998;"/><text fill="#000000" font-family="sans-serif" font-size="9.1" lengthAdjust="spacing" textLength="33.6" x="788.2" y="464.1294">includes</text><text fill="#000000" font-family="sans-serif" font-size="9.1" lengthAdjust="spacing" textLength="4.9" x="713.9044" y="426.8981">1</text><text fill="#000000" font-family="sans-serif" font-size="9.1" lengthAdjust="spacing" textLength="4.9" x="905.6919" y="517.1869">1</text></g><!--reverse link ContractType to JobOpening--><g id="link_ContractType_JobOpening"><path codeLine="123" d="M1229.8593,403.2877 C1219.6743,414.2287 1209.054,423.9366 1194.9,432.6096 C1129.17,472.8806 1041.355,496.9186 991.977,508.1676 " fill="none" id="ContractType-backto-JobOpening" style="stroke:#181818;stroke-width:0.6999999999999998;"/><polygon fill="#181818" points="1232.721,400.2136,1226.379,402.917,1230.3362,402.7754,1230.4778,406.7326,1232.721,400.2136" style="stroke:#181818;stroke-width:0.6999999999999998;"/><text fill="#000000" font-family="sans-serif" font-size="9.1" lengthAdjust="spacing" textLength="33.6" x="1152.9" y="464.1294">includes</text><text fill="#000000" font-family="sans-serif" font-size="9.1" lengthAdjust="spacing" textLength="4.9" x="1223.7597" y="415.5796">1</text><text fill="#000000" font-family="sans-serif" font-size="9.1" lengthAdjust="spacing" textLength="4.9" x="997.3959" y="504.1736">1</text></g><!--link JobOpening to JobReference--><g id="link_JobOpening_JobReference"><path codeLine="124" d="M992.005,533.4166 C1030.876,550.0766 1092.952,577.0966 1145.9,602.0096 C1149.932,603.9066 1150.3343,604.0779 1154.5063,606.1079 " fill="none" id="JobOpening-to-JobReference" style="stroke:#181818;stroke-width:0.6999999999999998;"/><polygon fill="#181818" points="1158.283,607.9456,1153.8431,602.6714,1155.1358,606.4142,1151.3929,607.7069,1158.283,607.9456" style="stroke:#181818;stroke-width:0.6999999999999998;"/><text fill="#000000" font-family="sans-serif" font-size="9.1" lengthAdjust="spacing" textLength="33.6" x="1099.7" y="578.2294">includes</text><text fill="#000000" font-family="sans-serif" font-size="9.1" lengthAdjust="spacing" textLength="4.9" x="997.4277" y="532.8154">1</text><text fill="#000000" font-family="sans-serif" font-size="9.1" lengthAdjust="spacing" textLength="4.9" x="1148.0565" y="602.5626">1</text></g><!--reverse link Customer to JobOpening--><g id="link_Customer_JobOpening"><path codeLine="125" d="M1588.2005,227.2991 C1627.7575,232.5491 1688.477,247.3196 1718.5,291.9096 C1753.43,343.7796 1760.255,386.0596 1718.5,432.6096 C1669.451,487.3006 1139.579,509.5256 992.04,514.6846 " fill="none" id="Customer-backto-JobOpening" style="stroke:#181818;stroke-width:0.6999999999999998;"/><polygon fill="#181818" points="1584.037,226.7466,1589.9139,230.3511,1587.5066,227.2071,1590.6506,224.7998,1584.037,226.7466" style="stroke:#181818;stroke-width:0.6999999999999998;"/><text fill="#000000" font-family="sans-serif" font-size="9.1" lengthAdjust="spacing" textLength="33.6" x="1747.9" y="381.8794">includes</text><text fill="#000000" font-family="sans-serif" font-size="9.1" lengthAdjust="spacing" textLength="4.9" x="1589.4403" y="224.3045">1</text><text fill="#000000" font-family="sans-serif" font-size="9.1" lengthAdjust="spacing" textLength="4.9" x="997.4674" y="511.5663">1</text></g><!--link JobOpening to SetupStatus--><g id="link_JobOpening_SetupStatus"><path codeLine="126" d="M954.1,545.4566 C954.1,565.0146 954.1,586.4836 954.1,604.3826 " fill="none" id="JobOpening-to-SetupStatus" style="stroke:#181818;stroke-width:0.6999999999999998;"/><polygon fill="#181818" points="954.1,608.5826,956.9,602.2826,954.1,605.0826,951.3,602.2826,954.1,608.5826" style="stroke:#181818;stroke-width:0.6999999999999998;"/></g><!--link JobOpening to RequirementsStatus--><g id="link_JobOpening_RequirementsStatus"><path codeLine="127" d="M985.047,545.4566 C1006.551,565.0146 1031.6611,587.8574 1051.3381,605.7564 " fill="none" id="JobOpening-to-RequirementsStatus" style="stroke:#181818;stroke-width:0.6999999999999998;"/><polygon fill="#181818" points="1054.445,608.5826,1051.6688,602.2721,1051.8559,606.2274,1047.9005,606.4146,1054.445,608.5826" style="stroke:#181818;stroke-width:0.6999999999999998;"/></g><!--link JobOpening to InterviewPhaseStatus--><g id="link_JobOpening_InterviewPhaseStatus"><path codeLine="128" d="M922.453,545.4566 C900.466,565.0146 874.7503,587.8924 854.6253,605.7914 " fill="none" id="JobOpening-to-InterviewPhaseStatus" style="stroke:#181818;stroke-width:0.6999999999999998;"/><polygon fill="#181818" points="851.487,608.5826,858.0553,606.488,854.1023,606.2566,854.3337,602.3035,851.487,608.5826" style="stroke:#181818;stroke-width:0.6999999999999998;"/></g><!--reverse link RecruitmentProcess to Phase--><g id="link_RecruitmentProcess_Phase"><path codeLine="129" d="M688.8,668.0056 C688.8,684.2596 688.8,696.5796 688.8,714.6116 " fill="none" id="RecruitmentProcess-backto-Phase" style="stroke:#181818;stroke-width:0.6999999999999998;"/><polygon fill="#181818" points="688.8,659.6056,686,663.8056,688.8,668.0056,691.6,663.8056,688.8,659.6056" style="stroke:#181818;stroke-width:0.6999999999999998;"/><text fill="#000000" font-family="sans-serif" font-size="9.1" lengthAdjust="spacing" textLength="25.2" x="689.5" y="690.9294">part of</text><text fill="#000000" font-family="sans-serif" font-size="9.1" lengthAdjust="spacing" textLength="4.9" x="683.5248" y="674.7841">1</text><text fill="#000000" font-family="sans-serif" font-size="9.1" lengthAdjust="spacing" textLength="15.4" x="672.4616" y="706.7261">4..5</text></g><!--link JobOpening to RecruitmentProcess--><g id="link_JobOpening_RecruitmentProcess"><path codeLine="130" d="M916.09,533.4586 C871.171,552.5406 799.9127,582.8115 748.4137,604.6865 " fill="none" id="JobOpening-to-RecruitmentProcess" style="stroke:#181818;stroke-width:0.6999999999999998;"/><polygon fill="#181818" points="744.548,606.3286,751.4413,606.4427,747.7694,604.9602,749.2519,601.2884,744.548,606.3286" style="stroke:#181818;stroke-width:0.6999999999999998;"/><text fill="#000000" font-family="sans-serif" font-size="9.1" lengthAdjust="spacing" textLength="33.6" x="830.2" y="578.2294">includes</text><text fill="#000000" font-family="sans-serif" font-size="9.1" lengthAdjust="spacing" textLength="4.9" x="905.7532" y="532.8631">1</text><text fill="#000000" font-family="sans-serif" font-size="9.1" lengthAdjust="spacing" textLength="4.9" x="750.095" y="601.3717">1</text></g><!--SRC=[bLN9Rjim4BthAmXT2XImKmVjnIWA14w29a0M96qFHIyqDLROIfHAKYaCmr-KJ-WjNnPI51TjaUEBoU6RfzddtOEKfLWU7PKPPhBAipafyYEIOI5c2SKfntaKbPZymIcW-3QhKihGIPfoIB64U1SXzQlX2CNFJxmevFF_N-pv2PYaSglFHYb6M21pD4hxG5LfFkAi0bIiVmDf66YYEJOKk6UvS3B7Tt5w49_H_xOjmMdgonjqhp1bAmsvnhadgIK7iLnYVaupSDhD_I3TKn24qrBImWTIowpoFaZIgXAoo86Ff2aES-CpPhLgUdlPHGr_P7Jljq92_btebtqKaZglz661p0VrRqEva5he94h12upVuuwVpLJOivhvJ9yM3NFpzN75aoJX84IjsPoFlLNwToyvW6o9LYei7OmANnjIL4poDkedBKcHm86MhHJKH5aTl3jX2Y-BDRefWL6Mjh8ubiOx8BoYCbUIMruGwtTVx2Fm5OiB9e4_KlXt-u25JKV7-A2DDSWKdpu5iKnySNhX6bJBdBQYjw4CPqQalpCQeBPTEWMLyMVeOR1z-cC8gVuhrarCJVkvgufhwFoeNVSWgp8m9xYZtK4CT_2teXnqGaH0XFfonpTTJQeSCP5kieM2ThECSbpPYhpo5JcGroaQ5T7pYX4tf8BxAzKonOgkgtmD_6Rp0nFC28KcPZtnxh0iTaTfS7_TokYjysRX-JgpfZLdsZEcEr_2sJBbMdTdgWJSmGOuC08s8qxWAcmVDHjw4QFPx8l-SuiDBH5b9AjKEFgePe7rCKYzAep-iujg68GQLBF8DSWwaA3rjlr91zILhQ1g1Y3io3xCvySn-ZoRrJ3VtE67tMOqzccWMIgMZKMHtHKrbLFmxqwaBT8Jl6Tq2s7MOQtUVl2hLBtccAcvNslh5gnTQ5mPzYHehMbmhrEcLOAcc0RRSfy4XgF9qevdAv3wV8KLF9PQnNeORPq7FyIxJ_sft4KCBQIeltLhNzyhepxEvvzYip_HiiHSecBJyTDM-W3Bqlhm0W00]--></g></svg>