<?xml version="1.0" encoding="us-ascii" standalone="no"?><svg xmlns="http://www.w3.org/2000/svg" xmlns:xlink="http://www.w3.org/1999/xlink" contentStyleType="text/css" height="1009.4px" preserveAspectRatio="none" style="width:1443px;height:1009px;background:#FFFFFF;" version="1.1" viewBox="0 0 1443 1009" width="1443.4px" zoomAndPan="magnify"><defs/><g><text fill="#000000" font-family="sans-serif" font-size="9.8" font-weight="bold" lengthAdjust="spacing" textLength="396.2" x="528.15" y="21.0752">"US1009 - Select Requirement Specification for Job Opening" Sequence Diagram</text><rect fill="#FFFFFF" height="852.1105" style="stroke:#181818;stroke-width:0.6999999999999998;" width="7" x="60.55" y="93.2695"/><rect fill="#FFFFFF" height="374.2252" style="stroke:#181818;stroke-width:0.6999999999999998;" width="7" x="415.45" y="121.677"/><rect fill="#FFFFFF" height="240.9408" style="stroke:#181818;stroke-width:0.6999999999999998;" width="7" x="415.45" y="536.2096"/><rect fill="#FFFFFF" height="121.6223" style="stroke:#181818;stroke-width:0.6999999999999998;" width="7" x="415.45" y="817.4578"/><rect fill="#FFFFFF" height="262.8445" style="stroke:#181818;stroke-width:0.6999999999999998;" width="7" x="661.15" y="199.0502"/><rect fill="#FFFFFF" height="197.1334" style="stroke:#181818;stroke-width:0.6999999999999998;" width="7" x="661.15" y="558.1133"/><rect fill="#FFFFFF" height="65.7111" style="stroke:#181818;stroke-width:0.6999999999999998;" width="7" x="661.15" y="839.3615"/><rect fill="#FFFFFF" height="43.8074" style="stroke:#181818;stroke-width:0.6999999999999998;" width="7" x="775.95" y="220.9539"/><rect fill="#FFFFFF" height="109.5186" style="stroke:#181818;stroke-width:0.6999999999999998;" width="7" x="975.8" y="286.665"/><rect fill="#FFFFFF" height="109.5186" style="stroke:#181818;stroke-width:0.6999999999999998;" width="7" x="975.8" y="580.017"/><rect fill="#FFFFFF" height="43.8074" style="stroke:#181818;stroke-width:0.6999999999999998;" width="7" x="1101.1" y="330.4725"/><rect fill="#FFFFFF" height="43.8074" style="stroke:#181818;stroke-width:0.6999999999999998;" width="7" x="1101.1" y="623.8244"/><rect fill="#FFFFFF" height="21.9037" style="stroke:#181818;stroke-width:0.6999999999999998;" width="7" x="1284.5" y="418.0873"/><rect fill="#FFFFFF" height="21.9037" style="stroke:#181818;stroke-width:0.6999999999999998;" width="7" x="1391.95" y="711.4393"/><line style="stroke:#181818;stroke-width:0.3499999999999999;stroke-dasharray:5.0,5.0;" x1="63.7" x2="63.7" y1="86.2695" y2="951.6801"/><line style="stroke:#181818;stroke-width:0.3499999999999999;stroke-dasharray:5.0,5.0;" x1="418.6" x2="418.6" y1="86.2695" y2="951.6801"/><line style="stroke:#181818;stroke-width:0.3499999999999999;stroke-dasharray:5.0,5.0;" x1="664.3" x2="664.3" y1="162.0117" y2="951.6801"/><line style="stroke:#181818;stroke-width:0.3499999999999999;stroke-dasharray:5.0,5.0;" x1="779.1" x2="779.1" y1="86.2695" y2="951.6801"/><line style="stroke:#181818;stroke-width:0.3499999999999999;stroke-dasharray:5.0,5.0;" x1="872.9" x2="872.9" y1="86.2695" y2="951.6801"/><line style="stroke:#181818;stroke-width:0.3499999999999999;stroke-dasharray:5.0,5.0;" x1="979.3" x2="979.3" y1="86.2695" y2="951.6801"/><line style="stroke:#181818;stroke-width:0.3499999999999999;stroke-dasharray:5.0,5.0;" x1="1104.6" x2="1104.6" y1="86.2695" y2="951.6801"/><line style="stroke:#181818;stroke-width:0.3499999999999999;stroke-dasharray:5.0,5.0;" x1="1191.4" x2="1191.4" y1="86.2695" y2="951.6801"/><line style="stroke:#181818;stroke-width:0.3499999999999999;stroke-dasharray:5.0,5.0;" x1="1288" x2="1288" y1="86.2695" y2="951.6801"/><line style="stroke:#181818;stroke-width:0.3499999999999999;stroke-dasharray:5.0,5.0;" x1="1395.1" x2="1395.1" y1="86.2695" y2="951.6801"/><text fill="#000000" font-family="sans-serif" font-size="9.8" lengthAdjust="spacing" textLength="81.9" x="21" y="83.81">CustomerManager</text><ellipse cx="64.05" cy="37.1848" fill="#E3E3E3" rx="5.6" ry="5.6" style="stroke:#181818;stroke-width:0.3499999999999999;"/><path d="M64.05,42.7848 L64.05,61.6848 M54.95,48.3848 L73.15,48.3848 M64.05,61.6848 L54.95,72.1848 M64.05,61.6848 L73.15,72.1848 " fill="none" style="stroke:#181818;stroke-width:0.3499999999999999;"/><text fill="#000000" font-family="sans-serif" font-size="9.8" lengthAdjust="spacing" textLength="81.9" x="21" y="961.5553">CustomerManager</text><ellipse cx="64.05" cy="969.9648" fill="#E3E3E3" rx="5.6" ry="5.6" style="stroke:#181818;stroke-width:0.3499999999999999;"/><path d="M64.05,975.5648 L64.05,994.4648 M54.95,981.1648 L73.15,981.1648 M64.05,994.4648 L54.95,1004.9648 M64.05,994.4648 L73.15,1004.9648 " fill="none" style="stroke:#181818;stroke-width:0.3499999999999999;"/><rect fill="#E3E3E3" height="35.8695" rx="1.75" ry="1.75" style="stroke:#181818;stroke-width:0.3499999999999999;" width="109.9" x="364" y="49.7"/><text fill="#000000" font-family="sans-serif" font-size="9.8" font-style="italic" lengthAdjust="spacing" textLength="66.5" x="385.7" y="65.1752">&#171;presentation&#187;</text><text fill="#000000" font-family="sans-serif" font-size="9.8" lengthAdjust="spacing" textLength="100.1" x="368.9" y="78.21">:SelectRequirementsUI</text><rect fill="#E3E3E3" height="35.8695" rx="1.75" ry="1.75" style="stroke:#181818;stroke-width:0.3499999999999999;" width="109.9" x="364" y="950.9801"/><text fill="#000000" font-family="sans-serif" font-size="9.8" font-style="italic" lengthAdjust="spacing" textLength="66.5" x="385.7" y="966.4553">&#171;presentation&#187;</text><text fill="#000000" font-family="sans-serif" font-size="9.8" lengthAdjust="spacing" textLength="100.1" x="368.9" y="979.49">:SelectRequirementsUI</text><text fill="#000000" font-family="sans-serif" font-size="9.8" font-style="italic" lengthAdjust="spacing" textLength="58.8" x="633.15" y="961.5553">&#171;application&#187;</text><text fill="#000000" font-family="sans-serif" font-size="9.8" lengthAdjust="spacing" textLength="135.1" x="595" y="974.59">:SelectRequirementsController</text><ellipse cx="664.65" cy="988.2496" fill="#E3E3E3" rx="8.4" ry="8.4" style="stroke:#181818;stroke-width:0.3499999999999999;"/><polygon fill="#181818" points="661.85,979.8496,666.05,976.3496,664.65,979.8496,666.05,983.3496,661.85,979.8496" style="stroke:#181818;stroke-width:0.6999999999999998;"/><rect fill="#E3E3E3" height="35.8695" rx="1.75" ry="1.75" style="stroke:#181818;stroke-width:0.3499999999999999;" width="70.7" x="744.1" y="49.7"/><text fill="#000000" font-family="sans-serif" font-size="9.8" font-style="italic" lengthAdjust="spacing" textLength="58.8" x="750.05" y="65.1752">&#171;application&#187;</text><text fill="#000000" font-family="sans-serif" font-size="9.8" lengthAdjust="spacing" textLength="60.9" x="749" y="78.21">AuthzRegistry</text><rect fill="#E3E3E3" height="35.8695" rx="1.75" ry="1.75" style="stroke:#181818;stroke-width:0.3499999999999999;" width="70.7" x="744.1" y="950.9801"/><text fill="#000000" font-family="sans-serif" font-size="9.8" font-style="italic" lengthAdjust="spacing" textLength="58.8" x="750.05" y="966.4553">&#171;application&#187;</text><text fill="#000000" font-family="sans-serif" font-size="9.8" lengthAdjust="spacing" textLength="60.9" x="749" y="979.49">AuthzRegistry</text><rect fill="#E3E3E3" height="35.8695" rx="1.75" ry="1.75" style="stroke:#181818;stroke-width:0.3499999999999999;" width="102.9" x="821.8" y="49.7"/><text fill="#000000" font-family="sans-serif" font-size="9.8" font-style="italic" lengthAdjust="spacing" textLength="58.8" x="843.85" y="65.1752">&#171;application&#187;</text><text fill="#000000" font-family="sans-serif" font-size="9.8" lengthAdjust="spacing" textLength="93.1" x="826.7" y="78.21">:AuthorizationService</text><rect fill="#E3E3E3" height="35.8695" rx="1.75" ry="1.75" style="stroke:#181818;stroke-width:0.3499999999999999;" width="102.9" x="821.8" y="950.9801"/><text fill="#000000" font-family="sans-serif" font-size="9.8" font-style="italic" lengthAdjust="spacing" textLength="58.8" x="843.85" y="966.4553">&#171;application&#187;</text><text fill="#000000" font-family="sans-serif" font-size="9.8" lengthAdjust="spacing" textLength="93.1" x="826.7" y="979.49">:AuthorizationService</text><rect fill="#E3E3E3" height="35.8695" rx="1.75" ry="1.75" style="stroke:#181818;stroke-width:0.3499999999999999;" width="95.2" x="931.7" y="49.7"/><text fill="#000000" font-family="sans-serif" font-size="9.8" font-style="italic" lengthAdjust="spacing" textLength="62.3" x="948.15" y="65.1752">&#171;persistence&#187;</text><text fill="#000000" font-family="sans-serif" font-size="9.8" lengthAdjust="spacing" textLength="85.4" x="936.6" y="78.21">PersistenceContext</text><rect fill="#E3E3E3" height="35.8695" rx="1.75" ry="1.75" style="stroke:#181818;stroke-width:0.3499999999999999;" width="95.2" x="931.7" y="950.9801"/><text fill="#000000" font-family="sans-serif" font-size="9.8" font-style="italic" lengthAdjust="spacing" textLength="62.3" x="948.15" y="966.4553">&#171;persistence&#187;</text><text fill="#000000" font-family="sans-serif" font-size="9.8" lengthAdjust="spacing" textLength="85.4" x="936.6" y="979.49">PersistenceContext</text><rect fill="#E3E3E3" height="35.8695" rx="1.75" ry="1.75" style="stroke:#181818;stroke-width:0.3499999999999999;" width="93.8" x="1057.7" y="49.7"/><text fill="#000000" font-family="sans-serif" font-size="9.8" font-style="italic" lengthAdjust="spacing" textLength="62.3" x="1073.45" y="65.1752">&#171;persistence&#187;</text><text fill="#000000" font-family="sans-serif" font-size="9.8" lengthAdjust="spacing" textLength="84" x="1062.6" y="78.21">:RepositoryFactory</text><rect fill="#E3E3E3" height="35.8695" rx="1.75" ry="1.75" style="stroke:#181818;stroke-width:0.3499999999999999;" width="93.8" x="1057.7" y="950.9801"/><text fill="#000000" font-family="sans-serif" font-size="9.8" font-style="italic" lengthAdjust="spacing" textLength="62.3" x="1073.45" y="966.4553">&#171;persistence&#187;</text><text fill="#000000" font-family="sans-serif" font-size="9.8" lengthAdjust="spacing" textLength="84" x="1062.6" y="979.49">:RepositoryFactory</text><rect fill="#E3E3E3" height="35.8695" rx="1.75" ry="1.75" style="stroke:#181818;stroke-width:0.3499999999999999;" width="65.8" x="1158.5" y="49.7"/><text fill="#000000" font-family="sans-serif" font-size="9.8" font-style="italic" lengthAdjust="spacing" textLength="43.4" x="1169.7" y="65.1752">&#171;domain&#187;</text><text fill="#000000" font-family="sans-serif" font-size="9.8" lengthAdjust="spacing" textLength="56" x="1163.4" y="78.21">:JobOpening</text><rect fill="#E3E3E3" height="35.8695" rx="1.75" ry="1.75" style="stroke:#181818;stroke-width:0.3499999999999999;" width="65.8" x="1158.5" y="950.9801"/><text fill="#000000" font-family="sans-serif" font-size="9.8" font-style="italic" lengthAdjust="spacing" textLength="43.4" x="1169.7" y="966.4553">&#171;domain&#187;</text><text fill="#000000" font-family="sans-serif" font-size="9.8" lengthAdjust="spacing" textLength="56" x="1163.4" y="979.49">:JobOpening</text><rect fill="#E3E3E3" height="35.8695" rx="1.75" ry="1.75" style="stroke:#181818;stroke-width:0.3499999999999999;" width="113.4" x="1231.3" y="49.7"/><text fill="#000000" font-family="sans-serif" font-size="9.8" font-style="italic" lengthAdjust="spacing" textLength="55.3" x="1260.35" y="65.1752">&#171;repository&#187;</text><text fill="#000000" font-family="sans-serif" font-size="9.8" lengthAdjust="spacing" textLength="103.6" x="1236.2" y="78.21">:JobOpeningRepository</text><rect fill="#E3E3E3" height="35.8695" rx="1.75" ry="1.75" style="stroke:#181818;stroke-width:0.3499999999999999;" width="113.4" x="1231.3" y="950.9801"/><text fill="#000000" font-family="sans-serif" font-size="9.8" font-style="italic" lengthAdjust="spacing" textLength="55.3" x="1260.35" y="966.4553">&#171;repository&#187;</text><text fill="#000000" font-family="sans-serif" font-size="9.8" lengthAdjust="spacing" textLength="103.6" x="1236.2" y="979.49">:JobOpeningRepository</text><rect fill="#E3E3E3" height="35.8695" rx="1.75" ry="1.75" style="stroke:#181818;stroke-width:0.3499999999999999;" width="87.5" x="1351.7" y="49.7"/><text fill="#000000" font-family="sans-serif" font-size="9.8" font-style="italic" lengthAdjust="spacing" textLength="55.3" x="1367.8" y="65.1752">&#171;repository&#187;</text><text fill="#000000" font-family="sans-serif" font-size="9.8" lengthAdjust="spacing" textLength="77.7" x="1356.6" y="78.21">:PluginRepository</text><rect fill="#E3E3E3" height="35.8695" rx="1.75" ry="1.75" style="stroke:#181818;stroke-width:0.3499999999999999;" width="87.5" x="1351.7" y="950.9801"/><text fill="#000000" font-family="sans-serif" font-size="9.8" font-style="italic" lengthAdjust="spacing" textLength="55.3" x="1367.8" y="966.4553">&#171;repository&#187;</text><text fill="#000000" font-family="sans-serif" font-size="9.8" lengthAdjust="spacing" textLength="77.7" x="1356.6" y="979.49">:PluginRepository</text><rect fill="#FFFFFF" height="852.1105" style="stroke:#181818;stroke-width:0.6999999999999998;" width="7" x="60.55" y="93.2695"/><rect fill="#FFFFFF" height="374.2252" style="stroke:#181818;stroke-width:0.6999999999999998;" width="7" x="415.45" y="121.677"/><rect fill="#FFFFFF" height="240.9408" style="stroke:#181818;stroke-width:0.6999999999999998;" width="7" x="415.45" y="536.2096"/><rect fill="#FFFFFF" height="121.6223" style="stroke:#181818;stroke-width:0.6999999999999998;" width="7" x="415.45" y="817.4578"/><rect fill="#FFFFFF" height="262.8445" style="stroke:#181818;stroke-width:0.6999999999999998;" width="7" x="661.15" y="199.0502"/><rect fill="#FFFFFF" height="197.1334" style="stroke:#181818;stroke-width:0.6999999999999998;" width="7" x="661.15" y="558.1133"/><rect fill="#FFFFFF" height="65.7111" style="stroke:#181818;stroke-width:0.6999999999999998;" width="7" x="661.15" y="839.3615"/><rect fill="#FFFFFF" height="43.8074" style="stroke:#181818;stroke-width:0.6999999999999998;" width="7" x="775.95" y="220.9539"/><rect fill="#FFFFFF" height="109.5186" style="stroke:#181818;stroke-width:0.6999999999999998;" width="7" x="975.8" y="286.665"/><rect fill="#FFFFFF" height="109.5186" style="stroke:#181818;stroke-width:0.6999999999999998;" width="7" x="975.8" y="580.017"/><rect fill="#FFFFFF" height="43.8074" style="stroke:#181818;stroke-width:0.6999999999999998;" width="7" x="1101.1" y="330.4725"/><rect fill="#FFFFFF" height="43.8074" style="stroke:#181818;stroke-width:0.6999999999999998;" width="7" x="1101.1" y="623.8244"/><rect fill="#FFFFFF" height="21.9037" style="stroke:#181818;stroke-width:0.6999999999999998;" width="7" x="1284.5" y="418.0873"/><rect fill="#FFFFFF" height="21.9037" style="stroke:#181818;stroke-width:0.6999999999999998;" width="7" x="1391.95" y="711.4393"/><polygon fill="#181818" points="407.05,118.877,414.05,121.677,407.05,124.477,409.85,121.677" style="stroke:#181818;stroke-width:0.6999999999999998;"/><line style="stroke:#181818;stroke-width:0.6999999999999998;" x1="67.55" x2="411.25" y1="121.677" y2="121.677"/><text fill="#000000" font-family="sans-serif" font-size="9.1" font-weight="bold" lengthAdjust="spacing" textLength="4.9" x="72.45" y="111.9412">1</text><text fill="#000000" font-family="sans-serif" font-size="9.1" lengthAdjust="spacing" textLength="128.1" x="80.15" y="105.8894">Asks to select the Requirement</text><text fill="#000000" font-family="sans-serif" font-size="9.1" lengthAdjust="spacing" textLength="123.2" x="82.95" y="117.9931">Specification for a job Opening</text><polygon fill="#181818" points="586.6,140.7807,593.6,143.5807,586.6,146.3807,589.4,143.5807" style="stroke:#181818;stroke-width:0.6999999999999998;"/><line style="stroke:#181818;stroke-width:0.6999999999999998;" x1="422.45" x2="590.8" y1="143.5807" y2="143.5807"/><text fill="#000000" font-family="sans-serif" font-size="9.1" font-weight="bold" lengthAdjust="spacing" textLength="4.9" x="427.35" y="139.8968">2</text><text fill="#000000" font-family="sans-serif" font-size="9.1" lengthAdjust="spacing" textLength="25.2" x="435.05" y="139.8968">create</text><text fill="#000000" font-family="sans-serif" font-size="9.8" font-style="italic" lengthAdjust="spacing" textLength="58.8" x="633.15" y="160.2521">&#171;application&#187;</text><text fill="#000000" font-family="sans-serif" font-size="9.8" lengthAdjust="spacing" textLength="135.1" x="595" y="173.2869">:SelectRequirementsController</text><ellipse cx="664.65" cy="138.477" fill="#E3E3E3" rx="8.4" ry="8.4" style="stroke:#181818;stroke-width:0.3499999999999999;"/><polygon fill="#181818" points="661.85,130.077,666.05,126.577,664.65,130.077,666.05,133.577,661.85,130.077" style="stroke:#181818;stroke-width:0.6999999999999998;"/><polygon fill="#181818" points="652.75,196.2502,659.75,199.0502,652.75,201.8502,655.55,199.0502" style="stroke:#181818;stroke-width:0.6999999999999998;"/><line style="stroke:#181818;stroke-width:0.6999999999999998;" x1="422.45" x2="656.95" y1="199.0502" y2="199.0502"/><text fill="#000000" font-family="sans-serif" font-size="9.1" font-weight="bold" lengthAdjust="spacing" textLength="4.9" x="427.35" y="195.3663">3</text><text fill="#000000" font-family="sans-serif" font-size="9.1" lengthAdjust="spacing" textLength="67.2" x="435.05" y="195.3663">allJobOpenings()</text><polygon fill="#181818" points="767.55,218.1539,774.55,220.9539,767.55,223.7539,770.35,220.9539" style="stroke:#181818;stroke-width:0.6999999999999998;"/><line style="stroke:#181818;stroke-width:0.6999999999999998;" x1="668.15" x2="771.75" y1="220.9539" y2="220.9539"/><text fill="#000000" font-family="sans-serif" font-size="9.1" font-weight="bold" lengthAdjust="spacing" textLength="4.9" x="673.05" y="217.27">4</text><text fill="#000000" font-family="sans-serif" font-size="9.1" lengthAdjust="spacing" textLength="86.8" x="680.75" y="217.27">authorizationService()</text><polygon fill="#181818" points="864.85,240.0576,871.85,242.8576,864.85,245.6576,867.65,242.8576" style="stroke:#181818;stroke-width:0.6999999999999998;"/><line style="stroke:#181818;stroke-width:0.6999999999999998;" x1="782.95" x2="869.05" y1="242.8576" y2="242.8576"/><text fill="#000000" font-family="sans-serif" font-size="9.1" font-weight="bold" lengthAdjust="spacing" textLength="4.9" x="787.85" y="239.1737">5</text><text fill="#000000" font-family="sans-serif" font-size="9.1" lengthAdjust="spacing" textLength="30.8" x="795.55" y="239.1737">create()</text><polygon fill="#181818" points="675.85,261.9613,668.85,264.7613,675.85,267.5613,673.05,264.7613" style="stroke:#181818;stroke-width:0.6999999999999998;"/><line style="stroke:#181818;stroke-width:0.6999999999999998;stroke-dasharray:2.0,2.0;" x1="671.65" x2="778.75" y1="264.7613" y2="264.7613"/><text fill="#000000" font-family="sans-serif" font-size="9.1" font-weight="bold" lengthAdjust="spacing" textLength="4.9" x="680.05" y="261.0774">6</text><text fill="#000000" font-family="sans-serif" font-size="9.1" lengthAdjust="spacing" textLength="22.4" x="687.75" y="261.0774">authz</text><polygon fill="#181818" points="967.4,283.865,974.4,286.665,967.4,289.465,970.2,286.665" style="stroke:#181818;stroke-width:0.6999999999999998;"/><line style="stroke:#181818;stroke-width:0.6999999999999998;" x1="668.15" x2="971.6" y1="286.665" y2="286.665"/><text fill="#000000" font-family="sans-serif" font-size="9.1" font-weight="bold" lengthAdjust="spacing" textLength="4.9" x="673.05" y="282.9812">7</text><text fill="#000000" font-family="sans-serif" font-size="9.1" lengthAdjust="spacing" textLength="52.5" x="680.75" y="282.9812">repositories()</text><polygon fill="#181818" points="1096.2,305.7687,1103.2,308.5687,1096.2,311.3687,1099,308.5687" style="stroke:#181818;stroke-width:0.6999999999999998;"/><line style="stroke:#181818;stroke-width:0.6999999999999998;" x1="982.8" x2="1100.4" y1="308.5687" y2="308.5687"/><text fill="#000000" font-family="sans-serif" font-size="9.1" font-weight="bold" lengthAdjust="spacing" textLength="4.9" x="987.7" y="304.8849">8</text><text fill="#000000" font-family="sans-serif" font-size="9.1" lengthAdjust="spacing" textLength="30.8" x="995.4" y="304.8849">create()</text><polygon fill="#181818" points="1092.7,327.6725,1099.7,330.4725,1092.7,333.2725,1095.5,330.4725" style="stroke:#181818;stroke-width:0.6999999999999998;"/><line style="stroke:#181818;stroke-width:0.6999999999999998;" x1="982.8" x2="1096.9" y1="330.4725" y2="330.4725"/><text fill="#000000" font-family="sans-serif" font-size="9.1" font-weight="bold" lengthAdjust="spacing" textLength="4.9" x="987.7" y="326.7886">9</text><text fill="#000000" font-family="sans-serif" font-size="9.1" lengthAdjust="spacing" textLength="56" x="995.4" y="326.7886">jobOpenings()</text><polygon fill="#181818" points="1279.6,349.5762,1286.6,352.3762,1279.6,355.1762,1282.4,352.3762" style="stroke:#181818;stroke-width:0.6999999999999998;"/><line style="stroke:#181818;stroke-width:0.6999999999999998;" x1="1108.1" x2="1283.8" y1="352.3762" y2="352.3762"/><text fill="#000000" font-family="sans-serif" font-size="9.1" font-weight="bold" lengthAdjust="spacing" textLength="9.8" x="1113" y="348.6923">10</text><text fill="#000000" font-family="sans-serif" font-size="9.1" lengthAdjust="spacing" textLength="30.8" x="1125.6" y="348.6923">create()</text><polygon fill="#181818" points="990.5,371.4799,983.5,374.2799,990.5,377.0799,987.7,374.2799" style="stroke:#181818;stroke-width:0.6999999999999998;"/><line style="stroke:#181818;stroke-width:0.6999999999999998;stroke-dasharray:2.0,2.0;" x1="986.3" x2="1103.9" y1="374.2799" y2="374.2799"/><text fill="#000000" font-family="sans-serif" font-size="9.1" font-weight="bold" lengthAdjust="spacing" textLength="9.8" x="994.7" y="370.596">11</text><text fill="#000000" font-family="sans-serif" font-size="9.1" lengthAdjust="spacing" textLength="88.9" x="1007.3" y="370.596">jobOpeningRepository</text><polygon fill="#181818" points="675.85,393.3836,668.85,396.1836,675.85,398.9836,673.05,396.1836" style="stroke:#181818;stroke-width:0.6999999999999998;"/><line style="stroke:#181818;stroke-width:0.6999999999999998;stroke-dasharray:2.0,2.0;" x1="671.65" x2="978.6" y1="396.1836" y2="396.1836"/><text fill="#000000" font-family="sans-serif" font-size="9.1" font-weight="bold" lengthAdjust="spacing" textLength="9.8" x="680.05" y="392.4997">12</text><text fill="#000000" font-family="sans-serif" font-size="9.1" lengthAdjust="spacing" textLength="88.9" x="692.65" y="392.4997">jobOpeningRepository</text><polygon fill="#181818" points="1276.1,415.2873,1283.1,418.0873,1276.1,420.8873,1278.9,418.0873" style="stroke:#181818;stroke-width:0.6999999999999998;"/><line style="stroke:#181818;stroke-width:0.6999999999999998;" x1="668.15" x2="1280.3" y1="418.0873" y2="418.0873"/><text fill="#000000" font-family="sans-serif" font-size="9.1" font-weight="bold" lengthAdjust="spacing" textLength="9.8" x="673.05" y="414.4034">13</text><text fill="#000000" font-family="sans-serif" font-size="9.1" lengthAdjust="spacing" textLength="56" x="685.65" y="414.4034">jobOpenings()</text><polygon fill="#181818" points="675.85,437.191,668.85,439.991,675.85,442.791,673.05,439.991" style="stroke:#181818;stroke-width:0.6999999999999998;"/><line style="stroke:#181818;stroke-width:0.6999999999999998;stroke-dasharray:2.0,2.0;" x1="671.65" x2="1287.3" y1="439.991" y2="439.991"/><text fill="#000000" font-family="sans-serif" font-size="9.1" font-weight="bold" lengthAdjust="spacing" textLength="9.8" x="680.05" y="436.3071">14</text><text fill="#000000" font-family="sans-serif" font-size="9.1" lengthAdjust="spacing" textLength="67.2" x="692.65" y="436.3071">allJobOpenings()</text><polygon fill="#181818" points="430.15,459.0947,423.15,461.8947,430.15,464.6947,427.35,461.8947" style="stroke:#181818;stroke-width:0.6999999999999998;"/><line style="stroke:#181818;stroke-width:0.6999999999999998;stroke-dasharray:2.0,2.0;" x1="425.95" x2="663.95" y1="461.8947" y2="461.8947"/><text fill="#000000" font-family="sans-serif" font-size="9.1" font-weight="bold" lengthAdjust="spacing" textLength="9.8" x="434.35" y="458.2108">15</text><text fill="#000000" font-family="sans-serif" font-size="9.1" lengthAdjust="spacing" textLength="50.4" x="446.95" y="458.2108">jobOpenings</text><polygon fill="#181818" points="75.25,493.1021,68.25,495.9021,75.25,498.7021,72.45,495.9021" style="stroke:#181818;stroke-width:0.6999999999999998;"/><line style="stroke:#181818;stroke-width:0.6999999999999998;stroke-dasharray:2.0,2.0;" x1="71.05" x2="418.25" y1="495.9021" y2="495.9021"/><text fill="#000000" font-family="sans-serif" font-size="9.1" font-weight="bold" lengthAdjust="spacing" textLength="9.8" x="79.45" y="486.1664">16</text><text fill="#000000" font-family="sans-serif" font-size="9.1" lengthAdjust="spacing" textLength="268.1" x="92.05" y="480.1146">Shows the list of Job Openings and aks to select one to associate</text><text fill="#000000" font-family="sans-serif" font-size="9.1" lengthAdjust="spacing" textLength="231" x="94.85" y="492.2183">the requirement specification selected to that job opening</text><polygon fill="#181818" points="407.05,533.4096,414.05,536.2096,407.05,539.0096,409.85,536.2096" style="stroke:#181818;stroke-width:0.6999999999999998;"/><line style="stroke:#181818;stroke-width:0.6999999999999998;" x1="67.55" x2="411.25" y1="536.2096" y2="536.2096"/><text fill="#000000" font-family="sans-serif" font-size="9.1" font-weight="bold" lengthAdjust="spacing" textLength="9.8" x="72.45" y="532.5257">17</text><text fill="#000000" font-family="sans-serif" font-size="9.1" lengthAdjust="spacing" textLength="97.3" x="85.05" y="532.5257">Selects the job Opening</text><polygon fill="#181818" points="652.75,555.3133,659.75,558.1133,652.75,560.9133,655.55,558.1133" style="stroke:#181818;stroke-width:0.6999999999999998;"/><line style="stroke:#181818;stroke-width:0.6999999999999998;" x1="422.45" x2="656.95" y1="558.1133" y2="558.1133"/><text fill="#000000" font-family="sans-serif" font-size="9.1" font-weight="bold" lengthAdjust="spacing" textLength="9.8" x="427.35" y="554.4294">18</text><text fill="#000000" font-family="sans-serif" font-size="9.1" lengthAdjust="spacing" textLength="70.7" x="439.95" y="554.4294">allRequirements()</text><polygon fill="#181818" points="967.4,577.217,974.4,580.017,967.4,582.817,970.2,580.017" style="stroke:#181818;stroke-width:0.6999999999999998;"/><line style="stroke:#181818;stroke-width:0.6999999999999998;" x1="668.15" x2="971.6" y1="580.017" y2="580.017"/><text fill="#000000" font-family="sans-serif" font-size="9.1" font-weight="bold" lengthAdjust="spacing" textLength="9.8" x="673.05" y="576.3331">19</text><text fill="#000000" font-family="sans-serif" font-size="9.1" lengthAdjust="spacing" textLength="52.5" x="685.65" y="576.3331">repositories()</text><polygon fill="#181818" points="1096.2,599.1207,1103.2,601.9207,1096.2,604.7207,1099,601.9207" style="stroke:#181818;stroke-width:0.6999999999999998;"/><line style="stroke:#181818;stroke-width:0.6999999999999998;" x1="982.8" x2="1100.4" y1="601.9207" y2="601.9207"/><text fill="#000000" font-family="sans-serif" font-size="9.1" font-weight="bold" lengthAdjust="spacing" textLength="9.8" x="987.7" y="598.2368">20</text><text fill="#000000" font-family="sans-serif" font-size="9.1" lengthAdjust="spacing" textLength="30.8" x="1000.3" y="598.2368">create()</text><polygon fill="#181818" points="1092.7,621.0244,1099.7,623.8244,1092.7,626.6244,1095.5,623.8244" style="stroke:#181818;stroke-width:0.6999999999999998;"/><line style="stroke:#181818;stroke-width:0.6999999999999998;" x1="982.8" x2="1096.9" y1="623.8244" y2="623.8244"/><text fill="#000000" font-family="sans-serif" font-size="9.1" font-weight="bold" lengthAdjust="spacing" textLength="9.8" x="987.7" y="620.1405">21</text><text fill="#000000" font-family="sans-serif" font-size="9.1" lengthAdjust="spacing" textLength="34.3" x="1000.3" y="620.1405">plugins()</text><polygon fill="#181818" points="1387.05,642.9281,1394.05,645.7281,1387.05,648.5281,1389.85,645.7281" style="stroke:#181818;stroke-width:0.6999999999999998;"/><line style="stroke:#181818;stroke-width:0.6999999999999998;" x1="1108.1" x2="1391.25" y1="645.7281" y2="645.7281"/><text fill="#000000" font-family="sans-serif" font-size="9.1" font-weight="bold" lengthAdjust="spacing" textLength="9.8" x="1113" y="642.0442">22</text><text fill="#000000" font-family="sans-serif" font-size="9.1" lengthAdjust="spacing" textLength="30.8" x="1125.6" y="642.0442">create()</text><polygon fill="#181818" points="990.5,664.8318,983.5,667.6318,990.5,670.4318,987.7,667.6318" style="stroke:#181818;stroke-width:0.6999999999999998;"/><line style="stroke:#181818;stroke-width:0.6999999999999998;stroke-dasharray:2.0,2.0;" x1="986.3" x2="1103.9" y1="667.6318" y2="667.6318"/><text fill="#000000" font-family="sans-serif" font-size="9.1" font-weight="bold" lengthAdjust="spacing" textLength="9.8" x="994.7" y="663.9479">23</text><text fill="#000000" font-family="sans-serif" font-size="9.1" lengthAdjust="spacing" textLength="67.2" x="1007.3" y="663.9479">pluginRepository</text><polygon fill="#181818" points="675.85,686.7355,668.85,689.5355,675.85,692.3355,673.05,689.5355" style="stroke:#181818;stroke-width:0.6999999999999998;"/><line style="stroke:#181818;stroke-width:0.6999999999999998;stroke-dasharray:2.0,2.0;" x1="671.65" x2="978.6" y1="689.5355" y2="689.5355"/><text fill="#000000" font-family="sans-serif" font-size="9.1" font-weight="bold" lengthAdjust="spacing" textLength="9.8" x="680.05" y="685.8517">24</text><text fill="#000000" font-family="sans-serif" font-size="9.1" lengthAdjust="spacing" textLength="67.2" x="692.65" y="685.8517">pluginRepository</text><polygon fill="#181818" points="1383.55,708.6393,1390.55,711.4393,1383.55,714.2393,1386.35,711.4393" style="stroke:#181818;stroke-width:0.6999999999999998;"/><line style="stroke:#181818;stroke-width:0.6999999999999998;" x1="668.15" x2="1387.75" y1="711.4393" y2="711.4393"/><text fill="#000000" font-family="sans-serif" font-size="9.1" font-weight="bold" lengthAdjust="spacing" textLength="9.8" x="673.05" y="707.7554">25</text><text fill="#000000" font-family="sans-serif" font-size="9.1" lengthAdjust="spacing" textLength="195.3" x="685.65" y="707.7554">findPluginByType(PluginType.REQUIREMENTS)</text><polygon fill="#181818" points="675.85,730.543,668.85,733.343,675.85,736.143,673.05,733.343" style="stroke:#181818;stroke-width:0.6999999999999998;"/><line style="stroke:#181818;stroke-width:0.6999999999999998;" x1="671.65" x2="1394.75" y1="733.343" y2="733.343"/><text fill="#000000" font-family="sans-serif" font-size="9.1" font-weight="bold" lengthAdjust="spacing" textLength="9.8" x="680.05" y="729.6591">26</text><text fill="#000000" font-family="sans-serif" font-size="9.1" lengthAdjust="spacing" textLength="28.7" x="692.65" y="729.6591">plugins</text><polygon fill="#181818" points="430.15,752.4467,423.15,755.2467,430.15,758.0467,427.35,755.2467" style="stroke:#181818;stroke-width:0.6999999999999998;"/><line style="stroke:#181818;stroke-width:0.6999999999999998;stroke-dasharray:2.0,2.0;" x1="425.95" x2="663.95" y1="755.2467" y2="755.2467"/><text fill="#000000" font-family="sans-serif" font-size="9.1" font-weight="bold" lengthAdjust="spacing" textLength="9.8" x="434.35" y="751.5628">27</text><text fill="#000000" font-family="sans-serif" font-size="9.1" lengthAdjust="spacing" textLength="28.7" x="446.95" y="751.5628">plugins</text><polygon fill="#181818" points="75.25,774.3504,68.25,777.1504,75.25,779.9504,72.45,777.1504" style="stroke:#181818;stroke-width:0.6999999999999998;"/><line style="stroke:#181818;stroke-width:0.6999999999999998;stroke-dasharray:2.0,2.0;" x1="71.05" x2="418.25" y1="777.1504" y2="777.1504"/><text fill="#000000" font-family="sans-serif" font-size="9.1" font-weight="bold" lengthAdjust="spacing" textLength="9.8" x="79.45" y="773.4665">28</text><text fill="#000000" font-family="sans-serif" font-size="9.1" lengthAdjust="spacing" textLength="318.5" x="92.05" y="773.4665">Shows list of the registered Requirement Specifications and asks to select one</text><polygon fill="#181818" points="407.05,814.6578,414.05,817.4578,407.05,820.2578,409.85,817.4578" style="stroke:#181818;stroke-width:0.6999999999999998;"/><line style="stroke:#181818;stroke-width:0.6999999999999998;" x1="67.55" x2="411.25" y1="817.4578" y2="817.4578"/><text fill="#000000" font-family="sans-serif" font-size="9.1" font-weight="bold" lengthAdjust="spacing" textLength="9.8" x="72.45" y="813.7739">29</text><text fill="#000000" font-family="sans-serif" font-size="9.1" lengthAdjust="spacing" textLength="186.2" x="85.05" y="813.7739">Selects the wanted Requirement Specification</text><polygon fill="#181818" points="652.75,836.5615,659.75,839.3615,652.75,842.1615,655.55,839.3615" style="stroke:#181818;stroke-width:0.6999999999999998;"/><line style="stroke:#181818;stroke-width:0.6999999999999998;" x1="422.45" x2="656.95" y1="839.3615" y2="839.3615"/><text fill="#000000" font-family="sans-serif" font-size="9.1" font-weight="bold" lengthAdjust="spacing" textLength="9.8" x="427.35" y="835.6776">30</text><text fill="#000000" font-family="sans-serif" font-size="9.1" lengthAdjust="spacing" textLength="212.8" x="439.95" y="835.6776">putRequirement(jobOpeningSelected,pluginSelected)</text><polygon fill="#181818" points="1183,858.4652,1190,861.2652,1183,864.0652,1185.8,861.2652" style="stroke:#181818;stroke-width:0.6999999999999998;"/><line style="stroke:#181818;stroke-width:0.6999999999999998;" x1="668.15" x2="1187.2" y1="861.2652" y2="861.2652"/><text fill="#000000" font-family="sans-serif" font-size="9.1" font-weight="bold" lengthAdjust="spacing" textLength="9.8" x="673.05" y="857.5813">31</text><text fill="#000000" font-family="sans-serif" font-size="9.1" lengthAdjust="spacing" textLength="123.2" x="685.65" y="857.5813">putRequirementsPlugin(plugin)</text><polygon fill="#181818" points="1279.6,880.3689,1286.6,883.1689,1279.6,885.9689,1282.4,883.1689" style="stroke:#181818;stroke-width:0.6999999999999998;"/><line style="stroke:#181818;stroke-width:0.6999999999999998;" x1="668.15" x2="1283.8" y1="883.1689" y2="883.1689"/><text fill="#000000" font-family="sans-serif" font-size="9.1" font-weight="bold" lengthAdjust="spacing" textLength="9.8" x="673.05" y="879.4851">32</text><text fill="#000000" font-family="sans-serif" font-size="9.1" lengthAdjust="spacing" textLength="69.3" x="685.65" y="879.4851">save(jobOpening)</text><polygon fill="#181818" points="430.15,902.2727,423.15,905.0727,430.15,907.8727,427.35,905.0727" style="stroke:#181818;stroke-width:0.6999999999999998;"/><line style="stroke:#181818;stroke-width:0.6999999999999998;stroke-dasharray:2.0,2.0;" x1="425.95" x2="663.95" y1="905.0727" y2="905.0727"/><text fill="#000000" font-family="sans-serif" font-size="9.1" font-weight="bold" lengthAdjust="spacing" textLength="9.8" x="434.35" y="901.3888">33</text><text fill="#000000" font-family="sans-serif" font-size="9.1" lengthAdjust="spacing" textLength="2.8" x="446.95" y="901.3888">&#160;</text><polygon fill="#181818" points="75.25,936.2801,68.25,939.0801,75.25,941.8801,72.45,939.0801" style="stroke:#181818;stroke-width:0.6999999999999998;"/><line style="stroke:#181818;stroke-width:0.6999999999999998;stroke-dasharray:2.0,2.0;" x1="71.05" x2="418.25" y1="939.0801" y2="939.0801"/><text fill="#000000" font-family="sans-serif" font-size="9.1" font-weight="bold" lengthAdjust="spacing" textLength="9.8" x="79.45" y="929.3443">34</text><text fill="#000000" font-family="sans-serif" font-size="9.1" lengthAdjust="spacing" textLength="156.8" x="92.05" y="923.2925">shows operation success and displays</text><text fill="#000000" font-family="sans-serif" font-size="9.1" lengthAdjust="spacing" textLength="205.1" x="94.85" y="935.3962">the plugin selected and the job opening associated</text><!--SRC=[pLTHJzim47xth_1u6KmhiCTLMoNMWLOqHfRGjxruoRKrf7PcEx3owtUsqyH9Ieg69iqI8edlyts-k-_ilbuPK-ZnoKcHCs7ATNwSolM9XbybY1H66MTBnTQ4w3ik2eQFT2s5J5TAhe4QLK8mKx3qZYqXCPiSg8BKCB7CGmEzOfbyu6995opNG0WhZHJb-YSeOhX1rC4yUNTw-fwEQ08vha1ZPC8Lh44OcXIGyWLFcU5Iq8LKz5B-fDS525po016UDFrSaMQfGPjfgGsILLTC83b5cQPdTe8W9yDJNk2-wS7O-mlSwVdim1hFP_J3XqA1nc_EysH2KYcCalbEsDJFvQ0SV7eJVyK5M57a5NF4jroVbMRr6CEIQwCs3dCMqs78s6AauezkDW5rprFmqFdDbsGO787IwCk6odA5tyOXewdTPpFNynb38JN7o6qkN6Gzr_XY3mnpLAS8xI-lqJwJQyR5W6dZgmB5Y5Brnnuooiib5nrKr0CHMnFydXceQe1G7EwHZYOsrMDwfkyqDP9gNu1c1M4H_X0xof3HswOGtP9srAxcCsA7_JQVeHjR4c_UeAjK0SxxcMOA9rYUDx7GXqUajPurGf3zDvfWhQ3zZdAmg6QtCS4_j7RbiVMC9gIcsnreFffi-TWIVT8oWz1FlQBd5qt7TGeuRFSoCEgreka-qsWwcc3z1TjvBk2s5LtoR4xnnJxJ-68qmN8TFoF2DO9YfAt-GbvDBU_31-7VJmyZK6VrXSumFxMrpxNTToUqlGYYJVqHdoisJvHynsE8THv7a_civP5q45ugDGWrXXfmSX_JP2KVjDDtZhsBoaLud6ZAH4PPgnL80VQDQIrJZgjZBx1e5HnHkjKRF0uoYp8hPboRa5MR25ZQ1k62bAEJma5VVQIdDUrsW_97ZcVUxJkz9JjT9JoeTcN7nUl_bcxXMls_a6tqjwejEgVFFrFi2nnPjROtrMRHcghoZsfUS97vm_NJvcPJmA5_iO_7yVdt-Im-lph_TfEqyzTuZLlVetWhzogBJp92O9-Hb_jEwB3k0-5lTR_Ll5UmlNo1GgK-UT-i6eBkTWJIT-xE-m4v3ohw0IyqGpp8hjj5iyjQx4KPtaeFcnwPL4tfhO_ZzhKdmEvrepsS5_I6rxckB-rBvD2lVpG0nVhIx1u2SdtXDOadpwxrRlRR8wm5xMe1MxAgEdQPfg1zhZEkyKVHHbTjtc-dwUdMPDk2gvxU70qPsSUnkXJ-0G00]--></g></svg>