<?xml version="1.0" encoding="us-ascii" standalone="no"?><svg xmlns="http://www.w3.org/2000/svg" xmlns:xlink="http://www.w3.org/1999/xlink" contentStyleType="text/css" height="945px" preserveAspectRatio="none" style="width:819px;height:945px;background:#FFFFFF;" version="1.1" viewBox="0 0 819 945" width="819px" zoomAndPan="magnify"><defs><filter height="300%" id="f1ahjr2gu2oxjn" width="300%" x="-1" y="-1"><feGaussianBlur result="blurOut" stdDeviation="2.0"/><feColorMatrix in="blurOut" result="blurOut2" type="matrix" values="0 0 0 0 0 0 0 0 0 0 0 0 0 0 0 0 0 0 .4 0"/><feOffset dx="4.0" dy="4.0" in="blurOut2" result="blurOut3"/><feBlend in="SourceGraphic" in2="blurOut3" mode="normal"/></filter></defs><g><!--class ConfigurePluginUI--><g id="elem_ConfigurePluginUI"><rect codeLine="9" fill="#F1F1F1" filter="url(#f1ahjr2gu2oxjn)" height="48" id="ConfigurePluginUI" rx="2.5" ry="2.5" style="stroke:#181818;stroke-width:0.5;" width="145" x="121.5" y="72"/><ellipse cx="136.5" cy="88" fill="#ADD1B2" rx="11" ry="11" style="stroke:#181818;stroke-width:1.0;"/><path d="M139.2656,83.875 Q139.4219,83.6563 139.6094,83.5469 Q139.7969,83.4375 140.0156,83.4375 Q140.3906,83.4375 140.625,83.7031 Q140.8594,83.9531 140.8594,84.5625 L140.8594,86.0156 Q140.8594,86.625 140.625,86.8906 Q140.3906,87.1563 140.0156,87.1563 Q139.6719,87.1563 139.4688,86.9531 Q139.2656,86.7656 139.1563,86.25 Q139.1094,85.8906 138.9219,85.7031 Q138.5938,85.3281 137.9844,85.1094 Q137.375,84.8906 136.75,84.8906 Q135.9844,84.8906 135.3438,85.2188 Q134.7188,85.5469 134.2188,86.2969 Q133.7344,87.0469 133.7344,88.0781 L133.7344,89.1719 Q133.7344,90.4063 134.625,91.2344 Q135.5156,92.0469 137.1094,92.0469 Q138.0469,92.0469 138.7031,91.7969 Q139.0938,91.6406 139.5156,91.2031 Q139.7813,90.9375 139.9219,90.8594 Q140.0781,90.7813 140.2813,90.7813 Q140.6094,90.7813 140.8594,91.0469 Q141.125,91.2969 141.125,91.6406 Q141.125,91.9844 140.7813,92.3906 Q140.2813,92.9688 139.4844,93.2969 Q138.4063,93.75 137.1094,93.75 Q135.5938,93.75 134.3906,93.125 Q133.4063,92.625 132.7188,91.5625 Q132.0313,90.4844 132.0313,89.2031 L132.0313,88.0469 Q132.0313,86.7188 132.6406,85.5781 Q133.2656,84.4219 134.3594,83.8125 Q135.4531,83.1875 136.6875,83.1875 Q137.4219,83.1875 138.0625,83.3594 Q138.7188,83.5156 139.2656,83.875 Z " fill="#000000"/><text fill="#000000" font-family="sans-serif" font-size="14" lengthAdjust="spacing" textLength="113" x="150.5" y="93.7969">ConfigurePluginUI</text><line style="stroke:#181818;stroke-width:0.5;" x1="122.5" x2="265.5" y1="104" y2="104"/><line style="stroke:#181818;stroke-width:0.5;" x1="122.5" x2="265.5" y1="112" y2="112"/></g><!--class ConfigurePluginController--><g id="elem_ConfigurePluginController"><rect codeLine="11" fill="#F1F1F1" filter="url(#f1ahjr2gu2oxjn)" height="178.3477" id="ConfigurePluginController" rx="2.5" ry="2.5" style="stroke:#181818;stroke-width:0.5;" width="405" x="301.5" y="7"/><ellipse cx="418.25" cy="23" fill="#ADD1B2" rx="11" ry="11" style="stroke:#181818;stroke-width:1.0;"/><path d="M421.0156,18.875 Q421.1719,18.6563 421.3594,18.5469 Q421.5469,18.4375 421.7656,18.4375 Q422.1406,18.4375 422.375,18.7031 Q422.6094,18.9531 422.6094,19.5625 L422.6094,21.0156 Q422.6094,21.625 422.375,21.8906 Q422.1406,22.1563 421.7656,22.1563 Q421.4219,22.1563 421.2188,21.9531 Q421.0156,21.7656 420.9063,21.25 Q420.8594,20.8906 420.6719,20.7031 Q420.3438,20.3281 419.7344,20.1094 Q419.125,19.8906 418.5,19.8906 Q417.7344,19.8906 417.0938,20.2188 Q416.4688,20.5469 415.9688,21.2969 Q415.4844,22.0469 415.4844,23.0781 L415.4844,24.1719 Q415.4844,25.4063 416.375,26.2344 Q417.2656,27.0469 418.8594,27.0469 Q419.7969,27.0469 420.4531,26.7969 Q420.8438,26.6406 421.2656,26.2031 Q421.5313,25.9375 421.6719,25.8594 Q421.8281,25.7813 422.0313,25.7813 Q422.3594,25.7813 422.6094,26.0469 Q422.875,26.2969 422.875,26.6406 Q422.875,26.9844 422.5313,27.3906 Q422.0313,27.9688 421.2344,28.2969 Q420.1563,28.75 418.8594,28.75 Q417.3438,28.75 416.1406,28.125 Q415.1563,27.625 414.4688,26.5625 Q413.7813,25.4844 413.7813,24.2031 L413.7813,23.0469 Q413.7813,21.7188 414.3906,20.5781 Q415.0156,19.4219 416.1094,18.8125 Q417.2031,18.1875 418.4375,18.1875 Q419.1719,18.1875 419.8125,18.3594 Q420.4688,18.5156 421.0156,18.875 Z " fill="#000000"/><text fill="#000000" font-family="sans-serif" font-size="14" lengthAdjust="spacing" textLength="163" x="438.75" y="28.7969">ConfigurePluginController</text><line style="stroke:#181818;stroke-width:0.5;" x1="302.5" x2="705.5" y1="39" y2="39"/><line style="stroke:#181818;stroke-width:0.5;" x1="302.5" x2="705.5" y1="47" y2="47"/><text fill="#000000" font-family="sans-serif" font-size="14" lengthAdjust="spacing" textLength="393" x="307.5" y="66.1074">+createPlugin(PluginType pluginType, Description description,</text><text fill="#000000" font-family="sans-serif" font-size="14" lengthAdjust="spacing" textLength="287" x="311.5" y="84.7285">PluginMainClassName pluginMainClassName,</text><text fill="#000000" font-family="sans-serif" font-size="14" lengthAdjust="spacing" textLength="329" x="311.5" y="103.3496">JarFileName jarFileName) : boolean operationStatus</text><text fill="#000000" font-family="sans-serif" font-size="14" lengthAdjust="spacing" textLength="344" x="307.5" y="121.9707">+fetchPluginTypes() : List&lt;PluginType&gt; pluginTypeList</text><text fill="#000000" font-family="sans-serif" font-size="14" lengthAdjust="spacing" textLength="206" x="307.5" y="140.5918">+fetchJarFiles() : List&lt;String&gt; list</text><text fill="#000000" font-family="sans-serif" font-size="14" lengthAdjust="spacing" textLength="207" x="307.5" y="159.2129">+displayOptions(List&lt;String&gt; list)</text><text fill="#000000" font-family="sans-serif" font-size="14" lengthAdjust="spacing" textLength="270" x="307.5" y="177.834">+displayPluginTypes(List&lt;PluginType&gt; list)</text></g><!--class RepositoryFactory--><g id="elem_RepositoryFactory"><rect codeLine="21" fill="#F1F1F1" filter="url(#f1ahjr2gu2oxjn)" height="66.6211" id="RepositoryFactory" rx="2.5" ry="2.5" style="stroke:#181818;stroke-width:0.5;" width="191" x="408.5" y="264"/><ellipse cx="442.85" cy="280" fill="#ADD1B2" rx="11" ry="11" style="stroke:#181818;stroke-width:1.0;"/><path d="M445.6156,275.875 Q445.7719,275.6563 445.9594,275.5469 Q446.1469,275.4375 446.3656,275.4375 Q446.7406,275.4375 446.975,275.7031 Q447.2094,275.9531 447.2094,276.5625 L447.2094,278.0156 Q447.2094,278.625 446.975,278.8906 Q446.7406,279.1563 446.3656,279.1563 Q446.0219,279.1563 445.8188,278.9531 Q445.6156,278.7656 445.5063,278.25 Q445.4594,277.8906 445.2719,277.7031 Q444.9438,277.3281 444.3344,277.1094 Q443.725,276.8906 443.1,276.8906 Q442.3344,276.8906 441.6938,277.2188 Q441.0688,277.5469 440.5688,278.2969 Q440.0844,279.0469 440.0844,280.0781 L440.0844,281.1719 Q440.0844,282.4063 440.975,283.2344 Q441.8656,284.0469 443.4594,284.0469 Q444.3969,284.0469 445.0531,283.7969 Q445.4438,283.6406 445.8656,283.2031 Q446.1313,282.9375 446.2719,282.8594 Q446.4281,282.7813 446.6313,282.7813 Q446.9594,282.7813 447.2094,283.0469 Q447.475,283.2969 447.475,283.6406 Q447.475,283.9844 447.1313,284.3906 Q446.6313,284.9688 445.8344,285.2969 Q444.7563,285.75 443.4594,285.75 Q441.9438,285.75 440.7406,285.125 Q439.7563,284.625 439.0688,283.5625 Q438.3813,282.4844 438.3813,281.2031 L438.3813,280.0469 Q438.3813,278.7188 438.9906,277.5781 Q439.6156,276.4219 440.7094,275.8125 Q441.8031,275.1875 443.0375,275.1875 Q443.7719,275.1875 444.4125,275.3594 Q445.0688,275.5156 445.6156,275.875 Z " fill="#000000"/><text fill="#000000" font-family="sans-serif" font-size="14" lengthAdjust="spacing" textLength="116" x="461.15" y="285.7969">RepositoryFactory</text><line style="stroke:#181818;stroke-width:0.5;" x1="409.5" x2="598.5" y1="296" y2="296"/><line style="stroke:#181818;stroke-width:0.5;" x1="409.5" x2="598.5" y1="304" y2="304"/><text fill="#000000" font-family="sans-serif" font-size="14" lengthAdjust="spacing" textLength="179" x="414.5" y="323.1074">+Plugins(): PluginRepository</text></g><!--class PluginRepository--><g id="elem_PluginRepository"><rect codeLine="25" fill="#F1F1F1" filter="url(#f1ahjr2gu2oxjn)" height="122.4844" id="PluginRepository" rx="2.5" ry="2.5" style="stroke:#181818;stroke-width:0.5;" width="405" x="301.5" y="392"/><ellipse cx="446.25" cy="408" fill="#ADD1B2" rx="11" ry="11" style="stroke:#181818;stroke-width:1.0;"/><path d="M449.0156,403.875 Q449.1719,403.6563 449.3594,403.5469 Q449.5469,403.4375 449.7656,403.4375 Q450.1406,403.4375 450.375,403.7031 Q450.6094,403.9531 450.6094,404.5625 L450.6094,406.0156 Q450.6094,406.625 450.375,406.8906 Q450.1406,407.1563 449.7656,407.1563 Q449.4219,407.1563 449.2188,406.9531 Q449.0156,406.7656 448.9063,406.25 Q448.8594,405.8906 448.6719,405.7031 Q448.3438,405.3281 447.7344,405.1094 Q447.125,404.8906 446.5,404.8906 Q445.7344,404.8906 445.0938,405.2188 Q444.4688,405.5469 443.9688,406.2969 Q443.4844,407.0469 443.4844,408.0781 L443.4844,409.1719 Q443.4844,410.4063 444.375,411.2344 Q445.2656,412.0469 446.8594,412.0469 Q447.7969,412.0469 448.4531,411.7969 Q448.8438,411.6406 449.2656,411.2031 Q449.5313,410.9375 449.6719,410.8594 Q449.8281,410.7813 450.0313,410.7813 Q450.3594,410.7813 450.6094,411.0469 Q450.875,411.2969 450.875,411.6406 Q450.875,411.9844 450.5313,412.3906 Q450.0313,412.9688 449.2344,413.2969 Q448.1563,413.75 446.8594,413.75 Q445.3438,413.75 444.1406,413.125 Q443.1563,412.625 442.4688,411.5625 Q441.7813,410.4844 441.7813,409.2031 L441.7813,408.0469 Q441.7813,406.7188 442.3906,405.5781 Q443.0156,404.4219 444.1094,403.8125 Q445.2031,403.1875 446.4375,403.1875 Q447.1719,403.1875 447.8125,403.3594 Q448.4688,403.5156 449.0156,403.875 Z " fill="#000000"/><text fill="#000000" font-family="sans-serif" font-size="14" lengthAdjust="spacing" textLength="107" x="466.75" y="413.7969">PluginRepository</text><line style="stroke:#181818;stroke-width:0.5;" x1="302.5" x2="705.5" y1="424" y2="424"/><line style="stroke:#181818;stroke-width:0.5;" x1="302.5" x2="705.5" y1="432" y2="432"/><text fill="#000000" font-family="sans-serif" font-size="14" lengthAdjust="spacing" textLength="393" x="307.5" y="451.1074">+createPlugin(PluginType pluginType, Description description,</text><text fill="#000000" font-family="sans-serif" font-size="14" lengthAdjust="spacing" textLength="287" x="311.5" y="469.7285">PluginMainClassName pluginMainClassName,</text><text fill="#000000" font-family="sans-serif" font-size="14" lengthAdjust="spacing" textLength="329" x="311.5" y="488.3496">JarFileName jarFileName) : boolean operationStatus</text><text fill="#000000" font-family="sans-serif" font-size="14" lengthAdjust="spacing" textLength="247" x="307.5" y="506.9707">+save(Plugin plugin) : boolean success</text></g><!--class Plugin--><g id="elem_Plugin"><rect codeLine="30" fill="#F1F1F1" filter="url(#f1ahjr2gu2oxjn)" height="48" id="Plugin" rx="2.5" ry="2.5" style="stroke:#181818;stroke-width:0.5;" width="71" x="468.5" y="593"/><ellipse cx="483.5" cy="609" fill="#ADD1B2" rx="11" ry="11" style="stroke:#181818;stroke-width:1.0;"/><path d="M486.2656,604.875 Q486.4219,604.6563 486.6094,604.5469 Q486.7969,604.4375 487.0156,604.4375 Q487.3906,604.4375 487.625,604.7031 Q487.8594,604.9531 487.8594,605.5625 L487.8594,607.0156 Q487.8594,607.625 487.625,607.8906 Q487.3906,608.1563 487.0156,608.1563 Q486.6719,608.1563 486.4688,607.9531 Q486.2656,607.7656 486.1563,607.25 Q486.1094,606.8906 485.9219,606.7031 Q485.5938,606.3281 484.9844,606.1094 Q484.375,605.8906 483.75,605.8906 Q482.9844,605.8906 482.3438,606.2188 Q481.7188,606.5469 481.2188,607.2969 Q480.7344,608.0469 480.7344,609.0781 L480.7344,610.1719 Q480.7344,611.4063 481.625,612.2344 Q482.5156,613.0469 484.1094,613.0469 Q485.0469,613.0469 485.7031,612.7969 Q486.0938,612.6406 486.5156,612.2031 Q486.7813,611.9375 486.9219,611.8594 Q487.0781,611.7813 487.2813,611.7813 Q487.6094,611.7813 487.8594,612.0469 Q488.125,612.2969 488.125,612.6406 Q488.125,612.9844 487.7813,613.3906 Q487.2813,613.9688 486.4844,614.2969 Q485.4063,614.75 484.1094,614.75 Q482.5938,614.75 481.3906,614.125 Q480.4063,613.625 479.7188,612.5625 Q479.0313,611.4844 479.0313,610.2031 L479.0313,609.0469 Q479.0313,607.7188 479.6406,606.5781 Q480.2656,605.4219 481.3594,604.8125 Q482.4531,604.1875 483.6875,604.1875 Q484.4219,604.1875 485.0625,604.3594 Q485.7188,604.5156 486.2656,604.875 Z " fill="#000000"/><text fill="#000000" font-family="sans-serif" font-size="14" lengthAdjust="spacing" textLength="39" x="497.5" y="614.7969">Plugin</text><line style="stroke:#181818;stroke-width:0.5;" x1="469.5" x2="538.5" y1="625" y2="625"/><line style="stroke:#181818;stroke-width:0.5;" x1="469.5" x2="538.5" y1="633" y2="633"/></g><!--class PluginIdentifier--><g id="elem_PluginIdentifier"><rect codeLine="33" fill="#F1F1F1" filter="url(#f1ahjr2gu2oxjn)" height="66.6211" id="PluginIdentifier" rx="2.5" ry="2.5" style="stroke:#181818;stroke-width:0.5;" width="125" x="135.5" y="702"/><ellipse cx="150.5" cy="718" fill="#ADD1B2" rx="11" ry="11" style="stroke:#181818;stroke-width:1.0;"/><path d="M153.2656,713.875 Q153.4219,713.6563 153.6094,713.5469 Q153.7969,713.4375 154.0156,713.4375 Q154.3906,713.4375 154.625,713.7031 Q154.8594,713.9531 154.8594,714.5625 L154.8594,716.0156 Q154.8594,716.625 154.625,716.8906 Q154.3906,717.1563 154.0156,717.1563 Q153.6719,717.1563 153.4688,716.9531 Q153.2656,716.7656 153.1563,716.25 Q153.1094,715.8906 152.9219,715.7031 Q152.5938,715.3281 151.9844,715.1094 Q151.375,714.8906 150.75,714.8906 Q149.9844,714.8906 149.3438,715.2188 Q148.7188,715.5469 148.2188,716.2969 Q147.7344,717.0469 147.7344,718.0781 L147.7344,719.1719 Q147.7344,720.4063 148.625,721.2344 Q149.5156,722.0469 151.1094,722.0469 Q152.0469,722.0469 152.7031,721.7969 Q153.0938,721.6406 153.5156,721.2031 Q153.7813,720.9375 153.9219,720.8594 Q154.0781,720.7813 154.2813,720.7813 Q154.6094,720.7813 154.8594,721.0469 Q155.125,721.2969 155.125,721.6406 Q155.125,721.9844 154.7813,722.3906 Q154.2813,722.9688 153.4844,723.2969 Q152.4063,723.75 151.1094,723.75 Q149.5938,723.75 148.3906,723.125 Q147.4063,722.625 146.7188,721.5625 Q146.0313,720.4844 146.0313,719.2031 L146.0313,718.0469 Q146.0313,716.7188 146.6406,715.5781 Q147.2656,714.4219 148.3594,713.8125 Q149.4531,713.1875 150.6875,713.1875 Q151.4219,713.1875 152.0625,713.3594 Q152.7188,713.5156 153.2656,713.875 Z " fill="#000000"/><text fill="#000000" font-family="sans-serif" font-size="14" lengthAdjust="spacing" textLength="93" x="164.5" y="723.7969">PluginIdentifier</text><line style="stroke:#181818;stroke-width:0.5;" x1="136.5" x2="259.5" y1="734" y2="734"/><text fill="#000000" font-family="sans-serif" font-size="14" lengthAdjust="spacing" textLength="100" x="141.5" y="753.1074">-String identifier</text><line style="stroke:#181818;stroke-width:0.5;" x1="136.5" x2="259.5" y1="760.6211" y2="760.6211"/></g><!--class PluginType--><g id="elem_PluginType"><rect codeLine="36" fill="#F1F1F1" filter="url(#f1ahjr2gu2oxjn)" height="103.8633" id="PluginType" rx="2.5" ry="2.5" style="stroke:#181818;stroke-width:0.5;" width="376" x="7" y="830"/><ellipse cx="155.25" cy="846" fill="#ADD1B2" rx="11" ry="11" style="stroke:#181818;stroke-width:1.0;"/><path d="M158.0156,841.875 Q158.1719,841.6563 158.3594,841.5469 Q158.5469,841.4375 158.7656,841.4375 Q159.1406,841.4375 159.375,841.7031 Q159.6094,841.9531 159.6094,842.5625 L159.6094,844.0156 Q159.6094,844.625 159.375,844.8906 Q159.1406,845.1563 158.7656,845.1563 Q158.4219,845.1563 158.2188,844.9531 Q158.0156,844.7656 157.9063,844.25 Q157.8594,843.8906 157.6719,843.7031 Q157.3438,843.3281 156.7344,843.1094 Q156.125,842.8906 155.5,842.8906 Q154.7344,842.8906 154.0938,843.2188 Q153.4688,843.5469 152.9688,844.2969 Q152.4844,845.0469 152.4844,846.0781 L152.4844,847.1719 Q152.4844,848.4063 153.375,849.2344 Q154.2656,850.0469 155.8594,850.0469 Q156.7969,850.0469 157.4531,849.7969 Q157.8438,849.6406 158.2656,849.2031 Q158.5313,848.9375 158.6719,848.8594 Q158.8281,848.7813 159.0313,848.7813 Q159.3594,848.7813 159.6094,849.0469 Q159.875,849.2969 159.875,849.6406 Q159.875,849.9844 159.5313,850.3906 Q159.0313,850.9688 158.2344,851.2969 Q157.1563,851.75 155.8594,851.75 Q154.3438,851.75 153.1406,851.125 Q152.1563,850.625 151.4688,849.5625 Q150.7813,848.4844 150.7813,847.2031 L150.7813,846.0469 Q150.7813,844.7188 151.3906,843.5781 Q152.0156,842.4219 153.1094,841.8125 Q154.2031,841.1875 155.4375,841.1875 Q156.1719,841.1875 156.8125,841.3594 Q157.4688,841.5156 158.0156,841.875 Z " fill="#000000"/><text fill="#000000" font-family="sans-serif" font-size="14" lengthAdjust="spacing" textLength="71" x="175.75" y="851.7969">PluginType</text><line style="stroke:#181818;stroke-width:0.5;" x1="8" x2="382" y1="862" y2="862"/><text fill="#000000" font-family="sans-serif" font-size="14" lengthAdjust="spacing" textLength="85" x="13" y="881.1074">-String name;</text><text fill="#000000" font-family="sans-serif" font-size="14" lengthAdjust="spacing" textLength="114" x="13" y="899.7285">-String shorthand;</text><line style="stroke:#181818;stroke-width:0.5;" x1="8" x2="382" y1="907.2422" y2="907.2422"/><text fill="#000000" font-family="sans-serif" font-size="14" lengthAdjust="spacing" textLength="364" x="13" y="926.3496">+static pluginTypeList() : List&lt;PluginType&gt; pluginTypeList</text></g><!--class PluginMainClassName--><g id="elem_PluginMainClassName"><rect codeLine="41" fill="#F1F1F1" filter="url(#f1ahjr2gu2oxjn)" height="66.6211" id="PluginMainClassName" rx="2.5" ry="2.5" style="stroke:#181818;stroke-width:0.5;" width="172" x="418" y="848.5"/><ellipse cx="433" cy="864.5" fill="#ADD1B2" rx="11" ry="11" style="stroke:#181818;stroke-width:1.0;"/><path d="M435.7656,860.375 Q435.9219,860.1563 436.1094,860.0469 Q436.2969,859.9375 436.5156,859.9375 Q436.8906,859.9375 437.125,860.2031 Q437.3594,860.4531 437.3594,861.0625 L437.3594,862.5156 Q437.3594,863.125 437.125,863.3906 Q436.8906,863.6563 436.5156,863.6563 Q436.1719,863.6563 435.9688,863.4531 Q435.7656,863.2656 435.6563,862.75 Q435.6094,862.3906 435.4219,862.2031 Q435.0938,861.8281 434.4844,861.6094 Q433.875,861.3906 433.25,861.3906 Q432.4844,861.3906 431.8438,861.7188 Q431.2188,862.0469 430.7188,862.7969 Q430.2344,863.5469 430.2344,864.5781 L430.2344,865.6719 Q430.2344,866.9063 431.125,867.7344 Q432.0156,868.5469 433.6094,868.5469 Q434.5469,868.5469 435.2031,868.2969 Q435.5938,868.1406 436.0156,867.7031 Q436.2813,867.4375 436.4219,867.3594 Q436.5781,867.2813 436.7813,867.2813 Q437.1094,867.2813 437.3594,867.5469 Q437.625,867.7969 437.625,868.1406 Q437.625,868.4844 437.2813,868.8906 Q436.7813,869.4688 435.9844,869.7969 Q434.9063,870.25 433.6094,870.25 Q432.0938,870.25 430.8906,869.625 Q429.9063,869.125 429.2188,868.0625 Q428.5313,866.9844 428.5313,865.7031 L428.5313,864.5469 Q428.5313,863.2188 429.1406,862.0781 Q429.7656,860.9219 430.8594,860.3125 Q431.9531,859.6875 433.1875,859.6875 Q433.9219,859.6875 434.5625,859.8594 Q435.2188,860.0156 435.7656,860.375 Z " fill="#000000"/><text fill="#000000" font-family="sans-serif" font-size="14" lengthAdjust="spacing" textLength="140" x="447" y="870.2969">PluginMainClassName</text><line style="stroke:#181818;stroke-width:0.5;" x1="419" x2="589" y1="880.5" y2="880.5"/><text fill="#000000" font-family="sans-serif" font-size="14" lengthAdjust="spacing" textLength="81" x="424" y="899.6074">-String name</text><line style="stroke:#181818;stroke-width:0.5;" x1="419" x2="589" y1="907.1211" y2="907.1211"/></g><!--class JarFileName--><g id="elem_JarFileName"><rect codeLine="44" fill="#F1F1F1" filter="url(#f1ahjr2gu2oxjn)" height="66.6211" id="JarFileName" rx="2.5" ry="2.5" style="stroke:#181818;stroke-width:0.5;" width="110" x="625" y="848.5"/><ellipse cx="640" cy="864.5" fill="#ADD1B2" rx="11" ry="11" style="stroke:#181818;stroke-width:1.0;"/><path d="M642.7656,860.375 Q642.9219,860.1563 643.1094,860.0469 Q643.2969,859.9375 643.5156,859.9375 Q643.8906,859.9375 644.125,860.2031 Q644.3594,860.4531 644.3594,861.0625 L644.3594,862.5156 Q644.3594,863.125 644.125,863.3906 Q643.8906,863.6563 643.5156,863.6563 Q643.1719,863.6563 642.9688,863.4531 Q642.7656,863.2656 642.6563,862.75 Q642.6094,862.3906 642.4219,862.2031 Q642.0938,861.8281 641.4844,861.6094 Q640.875,861.3906 640.25,861.3906 Q639.4844,861.3906 638.8438,861.7188 Q638.2188,862.0469 637.7188,862.7969 Q637.2344,863.5469 637.2344,864.5781 L637.2344,865.6719 Q637.2344,866.9063 638.125,867.7344 Q639.0156,868.5469 640.6094,868.5469 Q641.5469,868.5469 642.2031,868.2969 Q642.5938,868.1406 643.0156,867.7031 Q643.2813,867.4375 643.4219,867.3594 Q643.5781,867.2813 643.7813,867.2813 Q644.1094,867.2813 644.3594,867.5469 Q644.625,867.7969 644.625,868.1406 Q644.625,868.4844 644.2813,868.8906 Q643.7813,869.4688 642.9844,869.7969 Q641.9063,870.25 640.6094,870.25 Q639.0938,870.25 637.8906,869.625 Q636.9063,869.125 636.2188,868.0625 Q635.5313,866.9844 635.5313,865.7031 L635.5313,864.5469 Q635.5313,863.2188 636.1406,862.0781 Q636.7656,860.9219 637.8594,860.3125 Q638.9531,859.6875 640.1875,859.6875 Q640.9219,859.6875 641.5625,859.8594 Q642.2188,860.0156 642.7656,860.375 Z " fill="#000000"/><text fill="#000000" font-family="sans-serif" font-size="14" lengthAdjust="spacing" textLength="78" x="654" y="870.2969">JarFileName</text><line style="stroke:#181818;stroke-width:0.5;" x1="626" x2="734" y1="880.5" y2="880.5"/><text fill="#000000" font-family="sans-serif" font-size="14" lengthAdjust="spacing" textLength="81" x="631" y="899.6074">-String name</text><line style="stroke:#181818;stroke-width:0.5;" x1="626" x2="734" y1="907.1211" y2="907.1211"/></g><!--class Description--><g id="elem_Description"><rect codeLine="47" fill="#F1F1F1" filter="url(#f1ahjr2gu2oxjn)" height="66.6211" id="Description" rx="2.5" ry="2.5" style="stroke:#181818;stroke-width:0.5;" width="127" x="680.5" y="702"/><ellipse cx="706.3" cy="718" fill="#ADD1B2" rx="11" ry="11" style="stroke:#181818;stroke-width:1.0;"/><path d="M709.0656,713.875 Q709.2219,713.6563 709.4094,713.5469 Q709.5969,713.4375 709.8156,713.4375 Q710.1906,713.4375 710.425,713.7031 Q710.6594,713.9531 710.6594,714.5625 L710.6594,716.0156 Q710.6594,716.625 710.425,716.8906 Q710.1906,717.1563 709.8156,717.1563 Q709.4719,717.1563 709.2688,716.9531 Q709.0656,716.7656 708.9563,716.25 Q708.9094,715.8906 708.7219,715.7031 Q708.3938,715.3281 707.7844,715.1094 Q707.175,714.8906 706.55,714.8906 Q705.7844,714.8906 705.1438,715.2188 Q704.5188,715.5469 704.0188,716.2969 Q703.5344,717.0469 703.5344,718.0781 L703.5344,719.1719 Q703.5344,720.4063 704.425,721.2344 Q705.3156,722.0469 706.9094,722.0469 Q707.8469,722.0469 708.5031,721.7969 Q708.8938,721.6406 709.3156,721.2031 Q709.5813,720.9375 709.7219,720.8594 Q709.8781,720.7813 710.0813,720.7813 Q710.4094,720.7813 710.6594,721.0469 Q710.925,721.2969 710.925,721.6406 Q710.925,721.9844 710.5813,722.3906 Q710.0813,722.9688 709.2844,723.2969 Q708.2063,723.75 706.9094,723.75 Q705.3938,723.75 704.1906,723.125 Q703.2063,722.625 702.5188,721.5625 Q701.8313,720.4844 701.8313,719.2031 L701.8313,718.0469 Q701.8313,716.7188 702.4406,715.5781 Q703.0656,714.4219 704.1594,713.8125 Q705.2531,713.1875 706.4875,713.1875 Q707.2219,713.1875 707.8625,713.3594 Q708.5188,713.5156 709.0656,713.875 Z " fill="#000000"/><text fill="#000000" font-family="sans-serif" font-size="14" lengthAdjust="spacing" textLength="71" x="722.7" y="723.7969">Description</text><line style="stroke:#181818;stroke-width:0.5;" x1="681.5" x2="806.5" y1="734" y2="734"/><text fill="#000000" font-family="sans-serif" font-size="14" lengthAdjust="spacing" textLength="115" x="686.5" y="753.1074">-String description</text><line style="stroke:#181818;stroke-width:0.5;" x1="681.5" x2="806.5" y1="760.6211" y2="760.6211"/></g><!--link ConfigurePluginUI to ConfigurePluginController--><g id="link_ConfigurePluginUI_ConfigurePluginController"><path codeLine="52" d="M266.61,96 C283.84,96 297.33,96 297.33,96 C297.33,96 292.75,96 295.26,96 " fill="none" id="ConfigurePluginUI-to-ConfigurePluginController" style="stroke:#181818;stroke-width:1.0;stroke-dasharray:7.0,7.0;"/><polygon fill="#181818" points="301.26,96,292.26,92,296.26,96,292.26,100,301.26,96" style="stroke:#181818;stroke-width:1.0;"/></g><!--link ConfigurePluginController to RepositoryFactory--><g id="link_ConfigurePluginController_RepositoryFactory"><path codeLine="53" d="M504,185.08 C504,213.06 504,236.27 504,257.77 " fill="none" id="ConfigurePluginController-to-RepositoryFactory" style="stroke:#181818;stroke-width:1.0;stroke-dasharray:7.0,7.0;"/><polygon fill="#181818" points="504,263.77,508,254.77,504,258.77,500,254.77,504,263.77" style="stroke:#181818;stroke-width:1.0;"/><text fill="#000000" font-family="sans-serif" font-size="13" lengthAdjust="spacing" textLength="67" x="505" y="230.0283">repositories</text></g><!--link RepositoryFactory to RepositoryFactory--><g id="link_RepositoryFactory_RepositoryFactory"><path codeLine="54" d="M599.6,285.89 C619.86,287.07 634.5,290.94 634.5,297.5 C634.5,304.06 625.8498,307.5811 605.5898,308.7611 " fill="none" id="RepositoryFactory-to-RepositoryFactory" style="stroke:#181818;stroke-width:1.0;"/><polygon fill="#181818" points="599.6,309.11,608.8174,312.5799,604.5915,308.8193,608.3522,304.5935,599.6,309.11" style="stroke:#181818;stroke-width:1.0;"/><text fill="#000000" font-family="sans-serif" font-size="13" lengthAdjust="spacing" textLength="49" x="640.5" y="303.0283">instance</text></g><!--link RepositoryFactory to PluginRepository--><g id="link_RepositoryFactory_PluginRepository"><path codeLine="55" d="M504,331.05 C504,348.74 504,365.18 504,385.92 " fill="none" id="RepositoryFactory-to-PluginRepository" style="stroke:#181818;stroke-width:1.0;"/><polygon fill="#181818" points="504,391.92,508,382.92,504,386.92,500,382.92,504,391.92" style="stroke:#181818;stroke-width:1.0;"/><text fill="#000000" font-family="sans-serif" font-size="13" lengthAdjust="spacing" textLength="7" x="496.5953" y="380.892">1</text></g><!--link PluginRepository to Plugin--><g id="link_PluginRepository_Plugin"><path codeLine="56" d="M504,514.32 C504,541.67 504,566.39 504,586.83 " fill="none" id="PluginRepository-to-Plugin" style="stroke:#181818;stroke-width:1.0;"/><polygon fill="#181818" points="504,592.83,508,583.83,504,587.83,500,583.83,504,592.83" style="stroke:#181818;stroke-width:1.0;"/><text fill="#000000" font-family="sans-serif" font-size="13" lengthAdjust="spacing" textLength="36" x="505" y="559.0283">Plugin</text><text fill="#000000" font-family="sans-serif" font-size="13" lengthAdjust="spacing" textLength="7" x="496.5953" y="536.4101">1</text><text fill="#000000" font-family="sans-serif" font-size="13" lengthAdjust="spacing" textLength="5" x="498.3906" y="581.9305">*</text></g><!--link Plugin to PluginIdentifier--><g id="link_Plugin_PluginIdentifier"><path codeLine="57" d="M468.33,626.75 C406.98,641.81 288,671 288,671 C288,671 271.2723,682.8006 249.2223,698.3606 " fill="none" id="Plugin-to-PluginIdentifier" style="stroke:#181818;stroke-width:1.0;"/><polygon fill="#181818" points="244.32,701.82,253.9797,699.8991,248.4053,698.9372,249.3672,693.3627,244.32,701.82" style="stroke:#181818;stroke-width:1.0;"/><text fill="#000000" font-family="sans-serif" font-size="13" lengthAdjust="spacing" textLength="7" x="453.6184" y="624.0531">1</text><text fill="#000000" font-family="sans-serif" font-size="13" lengthAdjust="spacing" textLength="7" x="245.7502" y="690.6101">1</text></g><!--link Plugin to JarFileName--><g id="link_Plugin_JarFileName"><path codeLine="58" d="M519.62,641.34 C551.08,688.36 618.8237,789.5731 654.8437,843.4131 " fill="none" id="Plugin-to-JarFileName" style="stroke:#181818;stroke-width:1.0;"/><polygon fill="#181818" points="658.18,848.4,656.5001,838.6955,655.3997,844.2443,649.8509,843.1439,658.18,848.4" style="stroke:#181818;stroke-width:1.0;"/><text fill="#000000" font-family="sans-serif" font-size="13" lengthAdjust="spacing" textLength="7" x="515.4228" y="662.9962">1</text><text fill="#000000" font-family="sans-serif" font-size="13" lengthAdjust="spacing" textLength="7" x="646.1951" y="837.2058">1</text></g><!--link Plugin to Description--><g id="link_Plugin_Description"><path codeLine="59" d="M539.69,630.69 C583.77,646.37 653,671 653,671 C653,671 669.9494,682.8266 692.2494,698.3866 " fill="none" id="Plugin-to-Description" style="stroke:#181818;stroke-width:1.0;"/><polygon fill="#181818" points="697.17,701.82,692.0781,693.3896,693.0695,698.9589,687.5002,699.9503,697.17,701.82" style="stroke:#181818;stroke-width:1.0;"/><text fill="#000000" font-family="sans-serif" font-size="13" lengthAdjust="spacing" textLength="7" x="547.4055" y="628.7687">1</text><text fill="#000000" font-family="sans-serif" font-size="13" lengthAdjust="spacing" textLength="7" x="680.2613" y="690.6101">1</text></g><!--link Plugin to PluginMainClassName--><g id="link_Plugin_PluginMainClassName"><path codeLine="60" d="M504,641.34 C504,688.36 504,788.56 504,842.4 " fill="none" id="Plugin-to-PluginMainClassName" style="stroke:#181818;stroke-width:1.0;"/><polygon fill="#181818" points="504,848.4,508,839.4,504,843.4,500,839.4,504,848.4" style="stroke:#181818;stroke-width:1.0;"/><text fill="#000000" font-family="sans-serif" font-size="13" lengthAdjust="spacing" textLength="5" x="498.4219" y="662.9962">*</text><text fill="#000000" font-family="sans-serif" font-size="13" lengthAdjust="spacing" textLength="7" x="496.3109" y="837.2058">1</text></g><!--link Plugin to PluginType--><g id="link_Plugin_PluginType"><path codeLine="61" d="M476.85,641.11 C427.51,683.1 326.6492,768.9513 259.6392,825.9813 " fill="none" id="Plugin-to-PluginType" style="stroke:#181818;stroke-width:1.0;"/><polygon fill="#181818" points="255.07,829.87,264.5163,827.0831,258.8777,826.6294,259.3314,820.9908,255.07,829.87" style="stroke:#181818;stroke-width:1.0;"/><text fill="#000000" font-family="sans-serif" font-size="13" lengthAdjust="spacing" textLength="5" x="464.6228" y="663.1225">*</text><text fill="#000000" font-family="sans-serif" font-size="13" lengthAdjust="spacing" textLength="7" x="255.6716" y="818.7799">1</text></g><!--SRC=[rPHDRzGm48Rl_XMZNjYMjeBhjbe9WIfjLJx4qbilKsSsCVNQaUs00kA_OoTUn_benPLSudYUT_9cPk9Nzace6WqUuA2LvfNH1m9d6c93f4R-X2NjN2i93767gfGvO2iiz4-XogbI2aMkhGbgBTlmmB8WbsZjE-UCU6mSRRbME_6Bu0rZh0l1UwtsecmCVP5DATJz5dwpFyin_-YCbfACPy1Vhu4RGXV3g_xshREIbkVmWImtedP2AoY6zVc3Wbxn4NtkyC9FU3XAHti1lKLp8oHroFTXVGfhUDHQ4YhGDHaCgNSENMEZnJqvNWtMx2f8xeHrryFc9ZCSGhaqlZZJxNmrLRdnXKza8MmjiVtSVPbTpR3JCPVRcLdfUT-4Ouk-KgsjSDgqDyZ3BPM_btbhwxWSqA3lvTF8_zGyYpyeMekvSurjE2Thfv_QJV1ePrkGSc8lqkHUGDyT42cIfZwhn0HMtlFLUCjMshWALN4L7OFr_WMV3DG_3TtOmBYm2quIdrVt9IxlvOJBMjiDtlnKkDmyVnomvm-AIw-Rp-_Qdt1nJv1bS-1YMULdtP-Bd9OKNdBozcJ-7yp6Fr0TVNQauVZxH7X0Ki9XWiPCXB8MBEN8Af_2PvbyeUClS65Ws5y0]--></g></svg>