<?xml version="1.0" encoding="us-ascii" standalone="no"?><svg xmlns="http://www.w3.org/2000/svg" xmlns:xlink="http://www.w3.org/1999/xlink" contentStyleType="text/css" height="770.4px" preserveAspectRatio="none" style="width:1422px;height:770px;background:#FFFFFF;" version="1.1" viewBox="0 0 1422 770" width="1422px" zoomAndPan="magnify"><defs/><g><rect fill="#FFFFFF" height="595.9002" style="stroke:#181818;stroke-width:0.9;" width="9" x="58.95" y="84.259"/><rect fill="#FFFFFF" height="140.8096" style="stroke:#181818;stroke-width:0.9;" width="9" x="325.35" y="105.2209"/><rect fill="#FFFFFF" height="28.1619" style="stroke:#181818;stroke-width:0.9;" width="9" x="325.35" y="274.1924"/><rect fill="#FFFFFF" height="349.643" style="stroke:#181818;stroke-width:0.9;" width="9" x="325.35" y="330.5162"/><rect fill="#FFFFFF" height="56.3238" style="stroke:#181818;stroke-width:0.9;" width="9" x="751.95" y="161.5447"/><rect fill="#FFFFFF" height="293.3191" style="stroke:#181818;stroke-width:0.9;" width="9" x="751.95" y="358.6781"/><rect fill="#FFFFFF" height="28.1619" style="stroke:#181818;stroke-width:0.9;" width="9" x="984.6" y="415.002"/><rect fill="#FFFFFF" height="152.5096" style="stroke:#181818;stroke-width:0.9;" width="9" x="1178.55" y="471.3258"/><line style="stroke:#181818;stroke-width:0.45;stroke-dasharray:5.0,5.0;" x1="63" x2="63" y1="75.259" y2="696.3592"/><line style="stroke:#181818;stroke-width:0.45;stroke-dasharray:5.0,5.0;" x1="329.4" x2="329.4" y1="75.259" y2="696.3592"/><line style="stroke:#181818;stroke-width:0.45;stroke-dasharray:5.0,5.0;" x1="756" x2="756" y1="75.259" y2="696.3592"/><line style="stroke:#181818;stroke-width:0.45;stroke-dasharray:5.0,5.0;" x1="881.1" x2="881.1" y1="75.259" y2="696.3592"/><line style="stroke:#181818;stroke-width:0.45;stroke-dasharray:5.0,5.0;" x1="989.1" x2="989.1" y1="75.259" y2="696.3592"/><line style="stroke:#181818;stroke-width:0.45;stroke-dasharray:5.0,5.0;" x1="1182.6" x2="1182.6" y1="75.259" y2="696.3592"/><line style="stroke:#181818;stroke-width:0.45;stroke-dasharray:5.0,5.0;" x1="1281.6" x2="1281.6" y1="75.259" y2="696.3592"/><line style="stroke:#181818;stroke-width:0.45;stroke-dasharray:5.0,5.0;" x1="1366.2" x2="1366.2" y1="75.259" y2="696.3592"/><text fill="#000000" font-family="sans-serif" font-size="12.6" lengthAdjust="spacing" textLength="112.5" x="4.5" y="72.0967">Language Engineer</text><ellipse cx="63.45" cy="12.15" fill="#E3E3E3" rx="7.2" ry="7.2" style="stroke:#181818;stroke-width:0.45;"/><path d="M63.45,19.35 L63.45,43.65 M51.75,26.55 L75.15,26.55 M63.45,43.65 L51.75,57.15 M63.45,43.65 L75.15,57.15 " fill="none" style="stroke:#181818;stroke-width:0.45;"/><text fill="#000000" font-family="sans-serif" font-size="12.6" lengthAdjust="spacing" textLength="112.5" x="4.5" y="709.0559">Language Engineer</text><ellipse cx="63.45" cy="719.8682" fill="#E3E3E3" rx="7.2" ry="7.2" style="stroke:#181818;stroke-width:0.45;"/><path d="M63.45,727.0682 L63.45,751.3682 M51.75,734.2682 L75.15,734.2682 M63.45,751.3682 L51.75,764.8682 M63.45,751.3682 L75.15,764.8682 " fill="none" style="stroke:#181818;stroke-width:0.45;"/><rect fill="#E3E3E3" height="46.118" rx="2.25" ry="2.25" style="stroke:#181818;stroke-width:0.45;" width="114.3" x="272.7" y="28.241"/><text fill="#000000" font-family="sans-serif" font-size="12.6" font-style="italic" lengthAdjust="spacing" textLength="85.5" x="287.1" y="48.1377">&#171;presentation&#187;</text><text fill="#000000" font-family="sans-serif" font-size="12.6" lengthAdjust="spacing" textLength="101.7" x="279" y="64.8967">ConfigurePluginUI</text><rect fill="#E3E3E3" height="46.118" rx="2.25" ry="2.25" style="stroke:#181818;stroke-width:0.45;" width="114.3" x="272.7" y="695.4592"/><text fill="#000000" font-family="sans-serif" font-size="12.6" font-style="italic" lengthAdjust="spacing" textLength="85.5" x="287.1" y="715.3559">&#171;presentation&#187;</text><text fill="#000000" font-family="sans-serif" font-size="12.6" lengthAdjust="spacing" textLength="101.7" x="279" y="732.1148">ConfigurePluginUI</text><text fill="#000000" font-family="sans-serif" font-size="12.6" font-style="italic" lengthAdjust="spacing" textLength="75.6" x="715.95" y="55.3377">&#171;application&#187;</text><text fill="#000000" font-family="sans-serif" font-size="12.6" lengthAdjust="spacing" textLength="150.3" x="678.6" y="72.0967">:ConfigurePluginController</text><ellipse cx="756.45" cy="27.341" fill="#E3E3E3" rx="10.8" ry="10.8" style="stroke:#181818;stroke-width:0.45;"/><polygon fill="#181818" points="752.85,16.541,758.25,12.041,756.45,16.541,758.25,21.041,752.85,16.541" style="stroke:#181818;stroke-width:0.9;"/><text fill="#000000" font-family="sans-serif" font-size="12.6" font-style="italic" lengthAdjust="spacing" textLength="75.6" x="715.95" y="709.0559">&#171;application&#187;</text><text fill="#000000" font-family="sans-serif" font-size="12.6" lengthAdjust="spacing" textLength="150.3" x="678.6" y="725.8148">:ConfigurePluginController</text><ellipse cx="756.45" cy="743.3771" fill="#E3E3E3" rx="10.8" ry="10.8" style="stroke:#181818;stroke-width:0.45;"/><polygon fill="#181818" points="752.85,732.5771,758.25,728.0771,756.45,732.5771,758.25,737.0771,752.85,732.5771" style="stroke:#181818;stroke-width:0.9;"/><rect fill="#E3E3E3" height="29.359" rx="2.25" ry="2.25" style="stroke:#181818;stroke-width:0.45;" width="76.5" x="843.3" y="45"/><text fill="#000000" font-family="sans-serif" font-size="12.6" lengthAdjust="spacing" textLength="63.9" x="849.6" y="64.8967">PluginType</text><rect fill="#E3E3E3" height="29.359" rx="2.25" ry="2.25" style="stroke:#181818;stroke-width:0.45;" width="76.5" x="843.3" y="695.4592"/><text fill="#000000" font-family="sans-serif" font-size="12.6" lengthAdjust="spacing" textLength="63.9" x="849.6" y="715.3559">PluginType</text><rect fill="#E3E3E3" height="46.118" rx="2.25" ry="2.25" style="stroke:#181818;stroke-width:0.45;" width="120.6" x="928.8" y="28.241"/><text fill="#000000" font-family="sans-serif" font-size="12.6" font-style="italic" lengthAdjust="spacing" textLength="53.1" x="962.55" y="48.1377">&#171;factory&#187;</text><text fill="#000000" font-family="sans-serif" font-size="12.6" lengthAdjust="spacing" textLength="108" x="935.1" y="64.8967">:RepositoryFactory</text><rect fill="#E3E3E3" height="46.118" rx="2.25" ry="2.25" style="stroke:#181818;stroke-width:0.45;" width="120.6" x="928.8" y="695.4592"/><text fill="#000000" font-family="sans-serif" font-size="12.6" font-style="italic" lengthAdjust="spacing" textLength="53.1" x="962.55" y="715.3559">&#171;factory&#187;</text><text fill="#000000" font-family="sans-serif" font-size="12.6" lengthAdjust="spacing" textLength="108" x="935.1" y="732.1148">:RepositoryFactory</text><rect fill="#E3E3E3" height="46.118" rx="2.25" ry="2.25" style="stroke:#181818;stroke-width:0.45;" width="112.5" x="1126.8" y="28.241"/><text fill="#000000" font-family="sans-serif" font-size="12.6" font-style="italic" lengthAdjust="spacing" textLength="71.1" x="1147.5" y="48.1377">&#171;repository&#187;</text><text fill="#000000" font-family="sans-serif" font-size="12.6" lengthAdjust="spacing" textLength="99.9" x="1133.1" y="64.8967">:PluginRepository</text><rect fill="#E3E3E3" height="46.118" rx="2.25" ry="2.25" style="stroke:#181818;stroke-width:0.45;" width="112.5" x="1126.8" y="695.4592"/><text fill="#000000" font-family="sans-serif" font-size="12.6" font-style="italic" lengthAdjust="spacing" textLength="71.1" x="1147.5" y="715.3559">&#171;repository&#187;</text><text fill="#000000" font-family="sans-serif" font-size="12.6" lengthAdjust="spacing" textLength="99.9" x="1133.1" y="732.1148">:PluginRepository</text><rect fill="#E3E3E3" height="46.118" rx="2.25" ry="2.25" style="stroke:#181818;stroke-width:0.45;" width="51.3" x="1256.4" y="28.241"/><text fill="#000000" font-family="sans-serif" font-size="12.6" lengthAdjust="spacing" textLength="34.2" x="1264.95" y="48.1377">plugin</text><text fill="#000000" font-family="sans-serif" font-size="12.6" lengthAdjust="spacing" textLength="38.7" x="1262.7" y="64.8967">:Plugin</text><rect fill="#E3E3E3" height="46.118" rx="2.25" ry="2.25" style="stroke:#181818;stroke-width:0.45;" width="51.3" x="1256.4" y="695.4592"/><text fill="#000000" font-family="sans-serif" font-size="12.6" lengthAdjust="spacing" textLength="34.2" x="1264.95" y="715.3559">plugin</text><text fill="#000000" font-family="sans-serif" font-size="12.6" lengthAdjust="spacing" textLength="38.7" x="1262.7" y="732.1148">:Plugin</text><rect fill="#E3E3E3" height="29.359" rx="2.25" ry="2.25" style="stroke:#181818;stroke-width:0.45;" width="99.9" x="1316.7" y="45"/><text fill="#000000" font-family="sans-serif" font-size="12.6" lengthAdjust="spacing" textLength="87.3" x="1323" y="64.8967">:PluginIdentifier</text><rect fill="#E3E3E3" height="29.359" rx="2.25" ry="2.25" style="stroke:#181818;stroke-width:0.45;" width="99.9" x="1316.7" y="695.4592"/><text fill="#000000" font-family="sans-serif" font-size="12.6" lengthAdjust="spacing" textLength="87.3" x="1323" y="715.3559">:PluginIdentifier</text><rect fill="#FFFFFF" height="595.9002" style="stroke:#181818;stroke-width:0.9;" width="9" x="58.95" y="84.259"/><rect fill="#FFFFFF" height="140.8096" style="stroke:#181818;stroke-width:0.9;" width="9" x="325.35" y="105.2209"/><rect fill="#FFFFFF" height="28.1619" style="stroke:#181818;stroke-width:0.9;" width="9" x="325.35" y="274.1924"/><rect fill="#FFFFFF" height="349.643" style="stroke:#181818;stroke-width:0.9;" width="9" x="325.35" y="330.5162"/><rect fill="#FFFFFF" height="56.3238" style="stroke:#181818;stroke-width:0.9;" width="9" x="751.95" y="161.5447"/><rect fill="#FFFFFF" height="293.3191" style="stroke:#181818;stroke-width:0.9;" width="9" x="751.95" y="358.6781"/><rect fill="#FFFFFF" height="28.1619" style="stroke:#181818;stroke-width:0.9;" width="9" x="984.6" y="415.002"/><rect fill="#FFFFFF" height="152.5096" style="stroke:#181818;stroke-width:0.9;" width="9" x="1178.55" y="471.3258"/><polygon fill="#181818" points="314.55,101.6209,323.55,105.2209,314.55,108.8209,318.15,105.2209" style="stroke:#181818;stroke-width:0.9;"/><line style="stroke:#181818;stroke-width:0.9;" x1="67.95" x2="319.95" y1="105.2209" y2="105.2209"/><text fill="#000000" font-family="sans-serif" font-size="11.7" font-weight="bold" lengthAdjust="spacing" textLength="6.3" x="74.25" y="100.4845">1</text><text fill="#000000" font-family="sans-serif" font-size="11.7" lengthAdjust="spacing" textLength="159.3" x="84.15" y="100.4845">asks to configure a new Plugin</text><polygon fill="#181818" points="745.65,129.7828,754.65,133.3828,745.65,136.9828,749.25,133.3828" style="stroke:#181818;stroke-width:0.9;"/><line style="stroke:#181818;stroke-width:0.9;" x1="334.35" x2="751.05" y1="133.3828" y2="133.3828"/><text fill="#000000" font-family="sans-serif" font-size="11.7" font-weight="bold" lengthAdjust="spacing" textLength="6.3" x="340.65" y="128.6464">2</text><text fill="#000000" font-family="sans-serif" font-size="11.7" lengthAdjust="spacing" textLength="39.6" x="350.55" y="128.6464">create()</text><polygon fill="#181818" points="741.15,157.9447,750.15,161.5447,741.15,165.1447,744.75,161.5447" style="stroke:#181818;stroke-width:0.9;"/><line style="stroke:#181818;stroke-width:0.9;" x1="334.35" x2="746.55" y1="161.5447" y2="161.5447"/><text fill="#000000" font-family="sans-serif" font-size="11.7" font-weight="bold" lengthAdjust="spacing" textLength="6.3" x="340.65" y="156.8083">3</text><text fill="#000000" font-family="sans-serif" font-size="11.7" lengthAdjust="spacing" textLength="96.3" x="350.55" y="156.8083">fetchPluginTypes()</text><polygon fill="#181818" points="870.75,186.1066,879.75,189.7066,870.75,193.3066,874.35,189.7066" style="stroke:#181818;stroke-width:0.9;"/><line style="stroke:#181818;stroke-width:0.9;" x1="760.95" x2="876.15" y1="189.7066" y2="189.7066"/><text fill="#000000" font-family="sans-serif" font-size="11.7" font-weight="bold" lengthAdjust="spacing" textLength="6.3" x="767.25" y="184.9702">4</text><text fill="#000000" font-family="sans-serif" font-size="11.7" lengthAdjust="spacing" textLength="81.9" x="777.15" y="184.9702">pluginTypeList()</text><polygon fill="#181818" points="344.25,214.2686,335.25,217.8686,344.25,221.4686,340.65,217.8686" style="stroke:#181818;stroke-width:0.9;"/><line style="stroke:#181818;stroke-width:0.9;stroke-dasharray:2.0,2.0;" x1="338.85" x2="755.55" y1="217.8686" y2="217.8686"/><text fill="#000000" font-family="sans-serif" font-size="11.7" font-weight="bold" lengthAdjust="spacing" textLength="6.3" x="349.65" y="213.1321">5</text><text fill="#000000" font-family="sans-serif" font-size="11.7" lengthAdjust="spacing" textLength="74.7" x="359.55" y="213.1321">pluginTypeList</text><polygon fill="#181818" points="77.85,242.4305,68.85,246.0305,77.85,249.6305,74.25,246.0305" style="stroke:#181818;stroke-width:0.9;"/><line style="stroke:#181818;stroke-width:0.9;stroke-dasharray:2.0,2.0;" x1="72.45" x2="328.95" y1="246.0305" y2="246.0305"/><text fill="#000000" font-family="sans-serif" font-size="11.7" font-weight="bold" lengthAdjust="spacing" textLength="6.3" x="83.25" y="241.294">6</text><text fill="#000000" font-family="sans-serif" font-size="11.7" lengthAdjust="spacing" textLength="125.1" x="93.15" y="241.294">requests the plugin type</text><polygon fill="#181818" points="314.55,270.5924,323.55,274.1924,314.55,277.7924,318.15,274.1924" style="stroke:#181818;stroke-width:0.9;"/><line style="stroke:#181818;stroke-width:0.9;" x1="67.95" x2="319.95" y1="274.1924" y2="274.1924"/><text fill="#000000" font-family="sans-serif" font-size="11.7" font-weight="bold" lengthAdjust="spacing" textLength="6.3" x="74.25" y="269.456">7</text><text fill="#000000" font-family="sans-serif" font-size="11.7" lengthAdjust="spacing" textLength="117.9" x="84.15" y="269.456">selects the plugin type</text><polygon fill="#181818" points="77.85,298.7543,68.85,302.3543,77.85,305.9543,74.25,302.3543" style="stroke:#181818;stroke-width:0.9;"/><line style="stroke:#181818;stroke-width:0.9;stroke-dasharray:2.0,2.0;" x1="72.45" x2="328.95" y1="302.3543" y2="302.3543"/><text fill="#000000" font-family="sans-serif" font-size="11.7" font-weight="bold" lengthAdjust="spacing" textLength="6.3" x="83.25" y="297.6179">8</text><text fill="#000000" font-family="sans-serif" font-size="11.7" lengthAdjust="spacing" textLength="181.8" x="93.15" y="297.6179">requests the jar file and description</text><polygon fill="#181818" points="314.55,326.9162,323.55,330.5162,314.55,334.1162,318.15,330.5162" style="stroke:#181818;stroke-width:0.9;"/><line style="stroke:#181818;stroke-width:0.9;" x1="67.95" x2="319.95" y1="330.5162" y2="330.5162"/><text fill="#000000" font-family="sans-serif" font-size="11.7" font-weight="bold" lengthAdjust="spacing" textLength="6.3" x="74.25" y="325.7798">9</text><text fill="#000000" font-family="sans-serif" font-size="11.7" lengthAdjust="spacing" textLength="230.4" x="84.15" y="325.7798">selects the jar file and provides a description</text><polygon fill="#181818" points="741.15,355.0781,750.15,358.6781,741.15,362.2781,744.75,358.6781" style="stroke:#181818;stroke-width:0.9;"/><line style="stroke:#181818;stroke-width:0.9;" x1="334.35" x2="746.55" y1="358.6781" y2="358.6781"/><text fill="#000000" font-family="sans-serif" font-size="11.7" font-weight="bold" lengthAdjust="spacing" textLength="12.6" x="340.65" y="353.9417">10</text><text fill="#000000" font-family="sans-serif" font-size="11.7" lengthAdjust="spacing" textLength="384.3" x="356.85" y="353.9417">createPlugin(pluginType, description, pluginMainClassName, jarFileName)</text><polygon fill="#181818" points="978.3,383.24,987.3,386.84,978.3,390.44,981.9,386.84" style="stroke:#181818;stroke-width:0.9;"/><line style="stroke:#181818;stroke-width:0.9;" x1="760.95" x2="983.7" y1="386.84" y2="386.84"/><text fill="#000000" font-family="sans-serif" font-size="11.7" font-weight="bold" lengthAdjust="spacing" textLength="12.6" x="767.25" y="382.1036">11</text><text fill="#000000" font-family="sans-serif" font-size="11.7" lengthAdjust="spacing" textLength="39.6" x="783.45" y="382.1036">create()</text><polygon fill="#181818" points="973.8,411.402,982.8,415.002,973.8,418.602,977.4,415.002" style="stroke:#181818;stroke-width:0.9;"/><line style="stroke:#181818;stroke-width:0.9;" x1="760.95" x2="979.2" y1="415.002" y2="415.002"/><text fill="#000000" font-family="sans-serif" font-size="11.7" font-weight="bold" lengthAdjust="spacing" textLength="12.6" x="767.25" y="410.2655">12</text><text fill="#000000" font-family="sans-serif" font-size="11.7" lengthAdjust="spacing" textLength="45.9" x="783.45" y="410.2655">Plugins()</text><polygon fill="#181818" points="1172.25,439.5639,1181.25,443.1639,1172.25,446.7639,1175.85,443.1639" style="stroke:#181818;stroke-width:0.9;"/><line style="stroke:#181818;stroke-width:0.9;" x1="989.1" x2="1177.65" y1="443.1639" y2="443.1639"/><text fill="#000000" font-family="sans-serif" font-size="11.7" font-weight="bold" lengthAdjust="spacing" textLength="12.6" x="995.4" y="438.4274">13</text><text fill="#000000" font-family="sans-serif" font-size="11.7" lengthAdjust="spacing" textLength="39.6" x="1011.6" y="438.4274">create()</text><polygon fill="#181818" points="1167.75,467.7258,1176.75,471.3258,1167.75,474.9258,1171.35,471.3258" style="stroke:#181818;stroke-width:0.9;"/><line style="stroke:#181818;stroke-width:0.9;" x1="760.95" x2="1173.15" y1="471.3258" y2="471.3258"/><text fill="#000000" font-family="sans-serif" font-size="11.7" font-weight="bold" lengthAdjust="spacing" textLength="12.6" x="767.25" y="466.5894">14</text><text fill="#000000" font-family="sans-serif" font-size="11.7" lengthAdjust="spacing" textLength="384.3" x="783.45" y="466.5894">createPlugin(pluginType, description, pluginMainClassName, jarFileName)</text><polygon fill="#181818" points="1271.25,495.8877,1280.25,499.4877,1271.25,503.0877,1274.85,499.4877" style="stroke:#181818;stroke-width:0.9;"/><line style="stroke:#181818;stroke-width:0.9;" x1="1187.55" x2="1276.65" y1="499.4877" y2="499.4877"/><text fill="#000000" font-family="sans-serif" font-size="11.7" font-weight="bold" lengthAdjust="spacing" textLength="12.6" x="1193.85" y="494.7513">15</text><text fill="#000000" font-family="sans-serif" font-size="11.7" lengthAdjust="spacing" textLength="39.6" x="1210.05" y="494.7513">create()</text><polygon fill="#181818" points="1355.85,524.0496,1364.85,527.6496,1355.85,531.2496,1359.45,527.6496" style="stroke:#181818;stroke-width:0.9;"/><line style="stroke:#181818;stroke-width:0.9;" x1="1282.05" x2="1361.25" y1="527.6496" y2="527.6496"/><text fill="#000000" font-family="sans-serif" font-size="11.7" font-weight="bold" lengthAdjust="spacing" textLength="12.6" x="1288.35" y="522.9132">16</text><text fill="#000000" font-family="sans-serif" font-size="11.7" lengthAdjust="spacing" textLength="39.6" x="1304.55" y="522.9132">create()</text><polygon fill="#181818" points="1197.45,552.2115,1188.45,555.8115,1197.45,559.4115,1193.85,555.8115" style="stroke:#181818;stroke-width:0.9;"/><line style="stroke:#181818;stroke-width:0.9;stroke-dasharray:2.0,2.0;" x1="1192.05" x2="1281.15" y1="555.8115" y2="555.8115"/><text fill="#000000" font-family="sans-serif" font-size="11.7" font-weight="bold" lengthAdjust="spacing" textLength="12.6" x="1202.85" y="551.0751">17</text><text fill="#000000" font-family="sans-serif" font-size="11.7" lengthAdjust="spacing" textLength="30.6" x="1219.05" y="551.0751">plugin</text><line style="stroke:#181818;stroke-width:0.9;" x1="1187.55" x2="1225.35" y1="583.9734" y2="583.9734"/><line style="stroke:#181818;stroke-width:0.9;" x1="1225.35" x2="1225.35" y1="583.9734" y2="595.6734"/><line style="stroke:#181818;stroke-width:0.9;" x1="1188.45" x2="1225.35" y1="595.6734" y2="595.6734"/><polygon fill="#181818" points="1197.45,592.0734,1188.45,595.6734,1197.45,599.2734,1193.85,595.6734" style="stroke:#181818;stroke-width:0.9;"/><text fill="#000000" font-family="sans-serif" font-size="11.7" font-weight="bold" lengthAdjust="spacing" textLength="12.6" x="1193.85" y="579.237">18</text><text fill="#000000" font-family="sans-serif" font-size="11.7" lengthAdjust="spacing" textLength="61.2" x="1210.05" y="579.237">save(plugin)</text><polygon fill="#181818" points="770.85,620.2354,761.85,623.8354,770.85,627.4354,767.25,623.8354" style="stroke:#181818;stroke-width:0.9;"/><line style="stroke:#181818;stroke-width:0.9;stroke-dasharray:2.0,2.0;" x1="765.45" x2="1182.15" y1="623.8354" y2="623.8354"/><text fill="#000000" font-family="sans-serif" font-size="11.7" font-weight="bold" lengthAdjust="spacing" textLength="12.6" x="776.25" y="619.0989">19</text><text fill="#000000" font-family="sans-serif" font-size="11.7" lengthAdjust="spacing" textLength="81.9" x="792.45" y="619.0989">operationStatus</text><polygon fill="#181818" points="344.25,648.3973,335.25,651.9973,344.25,655.5973,340.65,651.9973" style="stroke:#181818;stroke-width:0.9;"/><line style="stroke:#181818;stroke-width:0.9;stroke-dasharray:2.0,2.0;" x1="338.85" x2="755.55" y1="651.9973" y2="651.9973"/><text fill="#000000" font-family="sans-serif" font-size="11.7" font-weight="bold" lengthAdjust="spacing" textLength="12.6" x="349.65" y="647.2608">20</text><text fill="#000000" font-family="sans-serif" font-size="11.7" lengthAdjust="spacing" textLength="81.9" x="365.85" y="647.2608">operationStatus</text><polygon fill="#181818" points="73.35,676.5592,64.35,680.1592,73.35,683.7592,69.75,680.1592" style="stroke:#181818;stroke-width:0.9;"/><line style="stroke:#181818;stroke-width:0.9;stroke-dasharray:2.0,2.0;" x1="67.95" x2="328.95" y1="680.1592" y2="680.1592"/><text fill="#000000" font-family="sans-serif" font-size="11.7" font-weight="bold" lengthAdjust="spacing" textLength="12.6" x="78.75" y="675.4228">21</text><text fill="#000000" font-family="sans-serif" font-size="11.7" lengthAdjust="spacing" textLength="135.9" x="94.95" y="675.4228">display operation success</text><!--SRC=[jLLBZzem4BxdLuoub9MMFn2jSa5T2GaGseLRBrup0PTWkxR3bd_ViUCybz9mQ0w8UBx7F6p7deJKpB0pd9LK_6ZK6S6P4XFRH3JZ9tR0TtSj40non-IXw0BiaUtLfv07o5bXCKbOwPGipnzeakJRKUmHSgNSX_gTCEwKWScI94hIXE_o82IYcG2pi5ub9EW45vf91vEvahaub0OtHKcmtIAWTWjuUT46BKh7d50oonAkf3EgW4awuCohG14Tvjkt9R6PreNWDRddMT6sLus1iDdsm-aRQcK55N5z3RLS0yp_9zsyMXfgffLeIwsacqLYcYOs9Ei0-o6ZI8TwqsInfxQ8NCI2Xuk9du2uC8U-sm3q2xFCzpG5mfyiE0MyxY4maFXPstauDFJT8hpl5aGFRKs16wJ8z2a684PIoD7nOzjP6o6DbaU5bI14jCqs1TtWbyAwIAa08UCX8iJts1TjKY7AUfNIzlrLedLKvX4Z7nm93CcnkhexALWiQEVVvdLPTmr_CWEve5F4v9xSB3T2-qtua7jFH1jreVDbQL93lQ-JWk6egf5Cspu-TrMUOw4hHkUeODQksPaGvFzAzlwbcicjfp-5Ugp-c0osoQsd3w-IjDCHPfxmLvH_F62MjIUlaynTNcSs__JmsT_o-7_DxlMWDRwBRs5rhYC6qn9hKdkpF4RlDwWg_S5yAwfb5umzVHehCClYAL0QJVWAlDENfBHZjy385eUDCCl2tJhMwSlzrUxBvb8XkRsmkc3NLXPioJdQLhX_coITLxht_m00]--></g></svg>