<?xml version="1.0" encoding="us-ascii" standalone="no"?><svg xmlns="http://www.w3.org/2000/svg" xmlns:xlink="http://www.w3.org/1999/xlink" contentStyleType="text/css" height="278.1px" preserveAspectRatio="none" style="width:769px;height:278px;background:#FFFFFF;" version="1.1" viewBox="0 0 769 278" width="769.5px" zoomAndPan="magnify"><defs/><g><!--cluster Plugin Aggregate--><g id="cluster_Plugin Aggregate"><path d="M7.65,5.4123 L117.45,5.4123 A3.375,3.375 0 0 1 119.7,7.6623 L126,27.5713 L760.95,27.5713 A2.25,2.25 0 0 1 763.2,29.8213 L763.2,269.5623 A2.25,2.25 0 0 1 760.95,271.8123 L7.65,271.8123 A2.25,2.25 0 0 1 5.4,269.5623 L5.4,7.6623 A2.25,2.25 0 0 1 7.65,5.4123 " fill="none" style="stroke:#000000;stroke-width:1.35;"/><line style="stroke:#000000;stroke-width:1.35;" x1="5.4" x2="126" y1="27.5713" y2="27.5713"/><text fill="#000000" font-family="sans-serif" font-size="12.6" font-weight="bold" lengthAdjust="spacing" textLength="108.9" x="9" y="20.809">Plugin Aggregate</text></g><!--class Plugin--><g id="elem_Plugin"><rect codeLine="9" fill="#F1F1F1" height="73.677" id="Plugin" rx="2.25" ry="2.25" style="stroke:#181818;stroke-width:0.45;" width="73.8" x="348.3" y="38.7123"/><ellipse cx="361.8" cy="68.3508" fill="#ADD1B2" rx="9.9" ry="9.9" style="stroke:#181818;stroke-width:0.9;"/><path d="M364.2891,64.6383 Q364.4297,64.4414 364.5984,64.343 Q364.7672,64.2445 364.9641,64.2445 Q365.3016,64.2445 365.5125,64.4836 Q365.7234,64.7086 365.7234,65.257 L365.7234,66.5648 Q365.7234,67.1133 365.5125,67.3523 Q365.3016,67.5914 364.9641,67.5914 Q364.6547,67.5914 364.4719,67.4086 Q364.2891,67.2398 364.1906,66.7758 Q364.1484,66.4523 363.9797,66.2836 Q363.6844,65.9461 363.1359,65.7492 Q362.5875,65.5523 362.025,65.5523 Q361.3359,65.5523 360.7594,65.8477 Q360.1969,66.143 359.7469,66.818 Q359.3109,67.493 359.3109,68.4211 L359.3109,69.4055 Q359.3109,70.5164 360.1125,71.2617 Q360.9141,71.993 362.3484,71.993 Q363.1922,71.993 363.7828,71.768 Q364.1344,71.6273 364.5141,71.2336 Q364.7531,70.9945 364.8797,70.9242 Q365.0203,70.8539 365.2031,70.8539 Q365.4984,70.8539 365.7234,71.093 Q365.9625,71.318 365.9625,71.6273 Q365.9625,71.9367 365.6531,72.3023 Q365.2031,72.8227 364.4859,73.118 Q363.5156,73.5258 362.3484,73.5258 Q360.9844,73.5258 359.9016,72.9633 Q359.0156,72.5133 358.3969,71.557 Q357.7781,70.5867 357.7781,69.4336 L357.7781,68.393 Q357.7781,67.1977 358.3266,66.1711 Q358.8891,65.1305 359.8734,64.582 Q360.8578,64.0195 361.9688,64.0195 Q362.6297,64.0195 363.2063,64.1742 Q363.7969,64.3148 364.2891,64.6383 Z " fill="#000000"/><text fill="#000000" font-family="sans-serif" font-size="12.6" lengthAdjust="spacing" textLength="36.9" x="378.45" y="56.809">&#171;root&#187;</text><text fill="#000000" font-family="sans-serif" font-size="12.6" lengthAdjust="spacing" textLength="45" x="374.4" y="73.568">&#171;entity&#187;</text><text fill="#000000" font-family="sans-serif" font-size="12.6" lengthAdjust="spacing" textLength="35.1" x="379.35" y="90.327">Plugin</text><line style="stroke:#181818;stroke-width:0.45;" x1="349.2" x2="421.2" y1="97.9893" y2="97.9893"/><line style="stroke:#181818;stroke-width:0.45;" x1="349.2" x2="421.2" y1="105.1893" y2="105.1893"/></g><!--class PlugID--><g id="elem_PlugID"><rect codeLine="11" fill="#F1F1F1" height="73.677" id="PlugID" rx="2.25" ry="2.25" style="stroke:#181818;stroke-width:0.45;" width="112.5" x="20.25" y="183.6123"/><ellipse cx="33.75" cy="213.2508" fill="#ADD1B2" rx="9.9" ry="9.9" style="stroke:#181818;stroke-width:0.9;"/><path d="M36.2391,209.5383 Q36.3797,209.3414 36.5484,209.243 Q36.7172,209.1445 36.9141,209.1445 Q37.2516,209.1445 37.4625,209.3836 Q37.6734,209.6086 37.6734,210.157 L37.6734,211.4648 Q37.6734,212.0133 37.4625,212.2523 Q37.2516,212.4914 36.9141,212.4914 Q36.6047,212.4914 36.4219,212.3086 Q36.2391,212.1398 36.1406,211.6758 Q36.0984,211.3523 35.9297,211.1836 Q35.6344,210.8461 35.0859,210.6492 Q34.5375,210.4523 33.975,210.4523 Q33.2859,210.4523 32.7094,210.7477 Q32.1469,211.043 31.6969,211.718 Q31.2609,212.393 31.2609,213.3211 L31.2609,214.3055 Q31.2609,215.4164 32.0625,216.1617 Q32.8641,216.893 34.2984,216.893 Q35.1422,216.893 35.7328,216.668 Q36.0844,216.5273 36.4641,216.1336 Q36.7031,215.8945 36.8297,215.8242 Q36.9703,215.7539 37.1531,215.7539 Q37.4484,215.7539 37.6734,215.993 Q37.9125,216.218 37.9125,216.5273 Q37.9125,216.8367 37.6031,217.2023 Q37.1531,217.7227 36.4359,218.018 Q35.4656,218.4258 34.2984,218.4258 Q32.9344,218.4258 31.8516,217.8633 Q30.9656,217.4133 30.3469,216.457 Q29.7281,215.4867 29.7281,214.3336 L29.7281,213.293 Q29.7281,212.0977 30.2766,211.0711 Q30.8391,210.0305 31.8234,209.482 Q32.8078,208.9195 33.9188,208.9195 Q34.5797,208.9195 35.1563,209.0742 Q35.7469,209.2148 36.2391,209.5383 Z " fill="#000000"/><text fill="#000000" font-family="sans-serif" font-size="12.6" lengthAdjust="spacing" textLength="82.8" x="46.8" y="201.709">&#171;value object&#187;</text><text fill="#000000" font-family="sans-serif" font-size="12.6" lengthAdjust="spacing" textLength="63" x="56.7" y="218.468">&#171;identifier&#187;</text><text fill="#000000" font-family="sans-serif" font-size="12.6" lengthAdjust="spacing" textLength="83.7" x="46.35" y="235.227">PluginIdentifier</text><line style="stroke:#181818;stroke-width:0.45;" x1="21.15" x2="131.85" y1="242.8893" y2="242.8893"/><line style="stroke:#181818;stroke-width:0.45;" x1="21.15" x2="131.85" y1="250.0893" y2="250.0893"/></g><!--class PlugType--><g id="elem_PlugType"><rect codeLine="13" fill="#F1F1F1" height="56.918" id="PlugType" rx="2.25" ry="2.25" style="stroke:#181818;stroke-width:0.45;" width="111.6" x="164.7" y="192.1623"/><ellipse cx="178.2" cy="213.4213" fill="#ADD1B2" rx="9.9" ry="9.9" style="stroke:#181818;stroke-width:0.9;"/><path d="M180.6891,209.7088 Q180.8297,209.5119 180.9984,209.4135 Q181.1672,209.315 181.3641,209.315 Q181.7016,209.315 181.9125,209.5541 Q182.1234,209.7791 182.1234,210.3275 L182.1234,211.6354 Q182.1234,212.1838 181.9125,212.4229 Q181.7016,212.6619 181.3641,212.6619 Q181.0547,212.6619 180.8719,212.4791 Q180.6891,212.3104 180.5906,211.8463 Q180.5484,211.5229 180.3797,211.3541 Q180.0844,211.0166 179.5359,210.8197 Q178.9875,210.6229 178.425,210.6229 Q177.7359,210.6229 177.1594,210.9182 Q176.5969,211.2135 176.1469,211.8885 Q175.7109,212.5635 175.7109,213.4916 L175.7109,214.476 Q175.7109,215.5869 176.5125,216.3322 Q177.3141,217.0635 178.7484,217.0635 Q179.5922,217.0635 180.1828,216.8385 Q180.5344,216.6979 180.9141,216.3041 Q181.1531,216.065 181.2797,215.9947 Q181.4203,215.9244 181.6031,215.9244 Q181.8984,215.9244 182.1234,216.1635 Q182.3625,216.3885 182.3625,216.6979 Q182.3625,217.0072 182.0531,217.3729 Q181.6031,217.8932 180.8859,218.1885 Q179.9156,218.5963 178.7484,218.5963 Q177.3844,218.5963 176.3016,218.0338 Q175.4156,217.5838 174.7969,216.6275 Q174.1781,215.6572 174.1781,214.5041 L174.1781,213.4635 Q174.1781,212.2682 174.7266,211.2416 Q175.2891,210.201 176.2734,209.6525 Q177.2578,209.09 178.3688,209.09 Q179.0297,209.09 179.6063,209.2447 Q180.1969,209.3854 180.6891,209.7088 Z " fill="#000000"/><text fill="#000000" font-family="sans-serif" font-size="12.6" lengthAdjust="spacing" textLength="82.8" x="190.8" y="210.259">&#171;value object&#187;</text><text fill="#000000" font-family="sans-serif" font-size="12.6" lengthAdjust="spacing" textLength="63.9" x="200.25" y="227.018">PluginType</text><line style="stroke:#181818;stroke-width:0.45;" x1="165.6" x2="275.4" y1="234.6803" y2="234.6803"/><line style="stroke:#181818;stroke-width:0.45;" x1="165.6" x2="275.4" y1="241.8803" y2="241.8803"/></g><!--class PlugClass--><g id="elem_PlugClass"><rect codeLine="15" fill="#F1F1F1" height="56.918" id="PlugClass" rx="2.25" ry="2.25" style="stroke:#181818;stroke-width:0.45;" width="154.8" x="307.8" y="192.1623"/><ellipse cx="321.3" cy="213.4213" fill="#ADD1B2" rx="9.9" ry="9.9" style="stroke:#181818;stroke-width:0.9;"/><path d="M323.7891,209.7088 Q323.9297,209.5119 324.0984,209.4135 Q324.2672,209.315 324.4641,209.315 Q324.8016,209.315 325.0125,209.5541 Q325.2234,209.7791 325.2234,210.3275 L325.2234,211.6354 Q325.2234,212.1838 325.0125,212.4229 Q324.8016,212.6619 324.4641,212.6619 Q324.1547,212.6619 323.9719,212.4791 Q323.7891,212.3104 323.6906,211.8463 Q323.6484,211.5229 323.4797,211.3541 Q323.1844,211.0166 322.6359,210.8197 Q322.0875,210.6229 321.525,210.6229 Q320.8359,210.6229 320.2594,210.9182 Q319.6969,211.2135 319.2469,211.8885 Q318.8109,212.5635 318.8109,213.4916 L318.8109,214.476 Q318.8109,215.5869 319.6125,216.3322 Q320.4141,217.0635 321.8484,217.0635 Q322.6922,217.0635 323.2828,216.8385 Q323.6344,216.6979 324.0141,216.3041 Q324.2531,216.065 324.3797,215.9947 Q324.5203,215.9244 324.7031,215.9244 Q324.9984,215.9244 325.2234,216.1635 Q325.4625,216.3885 325.4625,216.6979 Q325.4625,217.0072 325.1531,217.3729 Q324.7031,217.8932 323.9859,218.1885 Q323.0156,218.5963 321.8484,218.5963 Q320.4844,218.5963 319.4016,218.0338 Q318.5156,217.5838 317.8969,216.6275 Q317.2781,215.6572 317.2781,214.5041 L317.2781,213.4635 Q317.2781,212.2682 317.8266,211.2416 Q318.3891,210.201 319.3734,209.6525 Q320.3578,209.09 321.4688,209.09 Q322.1297,209.09 322.7063,209.2447 Q323.2969,209.3854 323.7891,209.7088 Z " fill="#000000"/><text fill="#000000" font-family="sans-serif" font-size="12.6" lengthAdjust="spacing" textLength="82.8" x="355.5" y="210.259">&#171;value object&#187;</text><text fill="#000000" font-family="sans-serif" font-size="12.6" lengthAdjust="spacing" textLength="126" x="333.9" y="227.018">PluginMainClassName</text><line style="stroke:#181818;stroke-width:0.45;" x1="308.7" x2="461.7" y1="234.6803" y2="234.6803"/><line style="stroke:#181818;stroke-width:0.45;" x1="308.7" x2="461.7" y1="241.8803" y2="241.8803"/></g><!--class JarFile--><g id="elem_JarFile"><rect codeLine="17" fill="#F1F1F1" height="56.918" id="JarFile" rx="2.25" ry="2.25" style="stroke:#181818;stroke-width:0.45;" width="111.6" x="494.1" y="192.1623"/><ellipse cx="507.6" cy="213.4213" fill="#ADD1B2" rx="9.9" ry="9.9" style="stroke:#181818;stroke-width:0.9;"/><path d="M510.0891,209.7088 Q510.2297,209.5119 510.3984,209.4135 Q510.5672,209.315 510.7641,209.315 Q511.1016,209.315 511.3125,209.5541 Q511.5234,209.7791 511.5234,210.3275 L511.5234,211.6354 Q511.5234,212.1838 511.3125,212.4229 Q511.1016,212.6619 510.7641,212.6619 Q510.4547,212.6619 510.2719,212.4791 Q510.0891,212.3104 509.9906,211.8463 Q509.9484,211.5229 509.7797,211.3541 Q509.4844,211.0166 508.9359,210.8197 Q508.3875,210.6229 507.825,210.6229 Q507.1359,210.6229 506.5594,210.9182 Q505.9969,211.2135 505.5469,211.8885 Q505.1109,212.5635 505.1109,213.4916 L505.1109,214.476 Q505.1109,215.5869 505.9125,216.3322 Q506.7141,217.0635 508.1484,217.0635 Q508.9922,217.0635 509.5828,216.8385 Q509.9344,216.6979 510.3141,216.3041 Q510.5531,216.065 510.6797,215.9947 Q510.8203,215.9244 511.0031,215.9244 Q511.2984,215.9244 511.5234,216.1635 Q511.7625,216.3885 511.7625,216.6979 Q511.7625,217.0072 511.4531,217.3729 Q511.0031,217.8932 510.2859,218.1885 Q509.3156,218.5963 508.1484,218.5963 Q506.7844,218.5963 505.7016,218.0338 Q504.8156,217.5838 504.1969,216.6275 Q503.5781,215.6572 503.5781,214.5041 L503.5781,213.4635 Q503.5781,212.2682 504.1266,211.2416 Q504.6891,210.201 505.6734,209.6525 Q506.6578,209.09 507.7688,209.09 Q508.4297,209.09 509.0063,209.2447 Q509.5969,209.3854 510.0891,209.7088 Z " fill="#000000"/><text fill="#000000" font-family="sans-serif" font-size="12.6" lengthAdjust="spacing" textLength="82.8" x="520.2" y="210.259">&#171;value object&#187;</text><text fill="#000000" font-family="sans-serif" font-size="12.6" lengthAdjust="spacing" textLength="70.2" x="526.5" y="227.018">JarFileName</text><line style="stroke:#181818;stroke-width:0.45;" x1="495" x2="604.8" y1="234.6803" y2="234.6803"/><line style="stroke:#181818;stroke-width:0.45;" x1="495" x2="604.8" y1="241.8803" y2="241.8803"/></g><!--class PlugDesc--><g id="elem_PlugDesc"><rect codeLine="19" fill="#F1F1F1" height="56.918" id="PlugDesc" rx="2.25" ry="2.25" style="stroke:#181818;stroke-width:0.45;" width="111.6" x="637.2" y="192.1623"/><ellipse cx="650.7" cy="213.4213" fill="#ADD1B2" rx="9.9" ry="9.9" style="stroke:#181818;stroke-width:0.9;"/><path d="M653.1891,209.7088 Q653.3297,209.5119 653.4984,209.4135 Q653.6672,209.315 653.8641,209.315 Q654.2016,209.315 654.4125,209.5541 Q654.6234,209.7791 654.6234,210.3275 L654.6234,211.6354 Q654.6234,212.1838 654.4125,212.4229 Q654.2016,212.6619 653.8641,212.6619 Q653.5547,212.6619 653.3719,212.4791 Q653.1891,212.3104 653.0906,211.8463 Q653.0484,211.5229 652.8797,211.3541 Q652.5844,211.0166 652.0359,210.8197 Q651.4875,210.6229 650.925,210.6229 Q650.2359,210.6229 649.6594,210.9182 Q649.0969,211.2135 648.6469,211.8885 Q648.2109,212.5635 648.2109,213.4916 L648.2109,214.476 Q648.2109,215.5869 649.0125,216.3322 Q649.8141,217.0635 651.2484,217.0635 Q652.0922,217.0635 652.6828,216.8385 Q653.0344,216.6979 653.4141,216.3041 Q653.6531,216.065 653.7797,215.9947 Q653.9203,215.9244 654.1031,215.9244 Q654.3984,215.9244 654.6234,216.1635 Q654.8625,216.3885 654.8625,216.6979 Q654.8625,217.0072 654.5531,217.3729 Q654.1031,217.8932 653.3859,218.1885 Q652.4156,218.5963 651.2484,218.5963 Q649.8844,218.5963 648.8016,218.0338 Q647.9156,217.5838 647.2969,216.6275 Q646.6781,215.6572 646.6781,214.5041 L646.6781,213.4635 Q646.6781,212.2682 647.2266,211.2416 Q647.7891,210.201 648.7734,209.6525 Q649.7578,209.09 650.8688,209.09 Q651.5297,209.09 652.1063,209.2447 Q652.6969,209.3854 653.1891,209.7088 Z " fill="#000000"/><text fill="#000000" font-family="sans-serif" font-size="12.6" lengthAdjust="spacing" textLength="82.8" x="663.3" y="210.259">&#171;value object&#187;</text><text fill="#000000" font-family="sans-serif" font-size="12.6" lengthAdjust="spacing" textLength="63.9" x="672.75" y="227.018">Description</text><line style="stroke:#181818;stroke-width:0.45;" x1="638.1" x2="747.9" y1="234.6803" y2="234.6803"/><line style="stroke:#181818;stroke-width:0.45;" x1="638.1" x2="747.9" y1="241.8803" y2="241.8803"/></g><!--link Plugin to PlugClass--><g id="link_Plugin_PlugClass"><path codeLine="28" d="M385.2,112.6203 C385.2,137.2983 385.2,164.0913 385.2,186.6993 " fill="none" id="Plugin-to-PlugClass" style="stroke:#181818;stroke-width:0.9;"/><polygon fill="#181818" points="385.2,192.0993,388.8,183.9993,385.2,187.5993,381.6,183.9993,385.2,192.0993" style="stroke:#181818;stroke-width:0.9;"/><text fill="#000000" font-family="sans-serif" font-size="11.7" lengthAdjust="spacing" textLength="43.2" x="386.1" y="153.0378">includes</text><text fill="#000000" font-family="sans-serif" font-size="11.7" lengthAdjust="spacing" textLength="6.3" x="378.4177" y="132.1135">1</text><text fill="#000000" font-family="sans-serif" font-size="11.7" lengthAdjust="spacing" textLength="6.3" x="378.2503" y="181.9913">1</text></g><!--link Plugin to JarFile--><g id="link_Plugin_JarFile"><path codeLine="29" d="M422.163,108.6243 C450.99,133.6803 486.5406,164.5637 513.9816,188.4047 " fill="none" id="Plugin-to-JarFile" style="stroke:#181818;stroke-width:0.9;"/><polygon fill="#181818" points="518.058,191.9463,514.3045,183.9163,514.661,188.995,509.5823,189.3515,518.058,191.9463" style="stroke:#181818;stroke-width:0.9;"/><text fill="#000000" font-family="sans-serif" font-size="11.7" lengthAdjust="spacing" textLength="43.2" x="472.5" y="153.0378">includes</text><text fill="#000000" font-family="sans-serif" font-size="11.7" lengthAdjust="spacing" textLength="6.3" x="429.3081" y="110.5017">1</text><text fill="#000000" font-family="sans-serif" font-size="11.7" lengthAdjust="spacing" textLength="6.3" x="504.5409" y="181.8068">1</text></g><!--link Plugin to PlugDesc--><g id="link_Plugin_PlugDesc"><path codeLine="30" d="M422.334,92.7123 C469.134,113.2683 551.934,150.0873 621.9,183.6123 C627.516,186.3033 628.5226,186.7503 634.3276,189.6393 " fill="none" id="Plugin-to-PlugDesc" style="stroke:#181818;stroke-width:0.9;"/><polygon fill="#181818" points="639.162,192.0453,633.5144,185.2134,635.1333,190.0403,630.3064,191.6593,639.162,192.0453" style="stroke:#181818;stroke-width:0.9;"/><text fill="#000000" font-family="sans-serif" font-size="11.7" lengthAdjust="spacing" textLength="43.2" x="564.3" y="153.0378">includes</text><text fill="#000000" font-family="sans-serif" font-size="11.7" lengthAdjust="spacing" textLength="6.3" x="429.2578" y="91.6951">1</text><text fill="#000000" font-family="sans-serif" font-size="11.7" lengthAdjust="spacing" textLength="6.3" x="623.7795" y="183.6181">1</text></g><!--link Plugin to PlugID--><g id="link_Plugin_PlugID"><path codeLine="31" d="M348.219,89.8863 C315.801,101.9283 267.615,120.5943 226.8,139.5123 C195.147,154.1913 165.4735,169.7545 137.5735,185.0725 " fill="none" id="Plugin-to-PlugID" style="stroke:#181818;stroke-width:0.9;"/><polygon fill="#181818" points="132.84,187.6713,141.6728,186.9287,136.7846,185.5056,138.2077,180.6174,132.84,187.6713" style="stroke:#181818;stroke-width:0.9;"/><text fill="#000000" font-family="sans-serif" font-size="11.7" lengthAdjust="spacing" textLength="62.1" x="227.7" y="153.0378">identified by</text><text fill="#000000" font-family="sans-serif" font-size="11.7" lengthAdjust="spacing" textLength="6.3" x="334.7707" y="88.426">1</text><text fill="#000000" font-family="sans-serif" font-size="11.7" lengthAdjust="spacing" textLength="6.3" x="140.0903" y="180.0854">1</text></g><!--link Plugin to PlugType--><g id="link_Plugin_PlugType"><path codeLine="32" d="M348.237,108.6243 C319.41,133.6803 283.8594,164.5637 256.4184,188.4047 " fill="none" id="Plugin-to-PlugType" style="stroke:#181818;stroke-width:0.9;"/><polygon fill="#181818" points="252.342,191.9463,260.8177,189.3515,255.739,188.995,256.0955,183.9163,252.342,191.9463" style="stroke:#181818;stroke-width:0.9;"/><text fill="#000000" font-family="sans-serif" font-size="11.7" lengthAdjust="spacing" textLength="28.8" x="307.8" y="153.0378">has a</text><text fill="#000000" font-family="sans-serif" font-size="11.7" lengthAdjust="spacing" textLength="6.3" x="334.7919" y="110.5017">1</text><text fill="#000000" font-family="sans-serif" font-size="11.7" lengthAdjust="spacing" textLength="6.3" x="251.9597" y="181.8068">1</text></g><!--SRC=[bP6nJiCm48PtFyKf2rC7LWOaH8LK91038yirlZX7NJko7L24-aHz1BOy6JPEN50PmYtsdV_lFzldTsmwTBW7twAqxsmKDAWz2N6XgGaGB3XMRG39Zkh0reWO7TOxL0JLa-uL6xXHof72GDM7W1YrHky1gl7eh0tZvuiPZsG2Xo7jCrG1UiZR31r-e95yGzqJsErhR9iTM2QFXicTN3QbLlmswqL-cNyUEYfaIlx1FY2RsoHvnFt9vBkooEKUtHrhAlIKBsBNv6l7NHf8wPngCtmGEQQ_lgnWjRfEIxaYN06RMlUI_Bbgkigv1k9frAHbRlct22RLD98acaSbOJlyRbc4QG9HsiONeH1V]--></g></svg>