<?xml version="1.0" encoding="us-ascii" standalone="no"?><svg xmlns="http://www.w3.org/2000/svg" xmlns:xlink="http://www.w3.org/1999/xlink" contentStyleType="text/css" height="642px" preserveAspectRatio="none" style="width:1156px;height:642px;background:#FFFFFF;" version="1.1" viewBox="0 0 1156 642" width="1156px" zoomAndPan="magnify"><defs/><g><text fill="#000000" font-family="sans-serif" font-size="14" font-weight="bold" lengthAdjust="spacing" textLength="933" x="110.5" y="27.6738">"US 3001 - As Candidate, I want to be notified in my application when the state of one of my applications changes." Sequence Diagram</text><rect fill="#FFFFFF" height="352.5156" style="stroke:#181818;stroke-width:1.0;" width="10" x="175" y="171.9688"/><rect fill="#FFFFFF" height="198.8984" style="stroke:#181818;stroke-width:1.0;" width="10" x="442" y="262.5391"/><rect fill="#FFFFFF" height="141.8516" style="stroke:#181818;stroke-width:1.0;" width="10" x="679" y="291.0625"/><rect fill="#FFFFFF" height="28.5234" style="stroke:#181818;stroke-width:1.0;" width="10" x="821.5" y="375.8672"/><rect fill="#FFFFFF" height="28.5234" style="stroke:#181818;stroke-width:1.0;" width="10" x="935" y="205.4922"/><line style="stroke:#181818;stroke-width:0.5;stroke-dasharray:5.0,5.0;" x1="179.5" x2="179.5" y1="104.9219" y2="578.0078"/><line style="stroke:#181818;stroke-width:0.5;stroke-dasharray:5.0,5.0;" x1="446.5" x2="446.5" y1="104.9219" y2="578.0078"/><line style="stroke:#181818;stroke-width:0.5;stroke-dasharray:5.0,5.0;" x1="684" x2="684" y1="104.9219" y2="578.0078"/><line style="stroke:#181818;stroke-width:0.5;stroke-dasharray:5.0,5.0;" x1="826" x2="826" y1="337.2031" y2="578.0078"/><line style="stroke:#181818;stroke-width:0.5;stroke-dasharray:5.0,5.0;" x1="940" x2="940" y1="104.9219" y2="578.0078"/><line style="stroke:#181818;stroke-width:0.5;stroke-dasharray:5.0,5.0;" x1="1072" x2="1072" y1="104.9219" y2="578.0078"/><rect fill="#E3E3E3" height="45.2813" rx="2.5" ry="2.5" style="stroke:#181818;stroke-width:0.5;" width="103" x="128.5" y="58.6406"/><text fill="#000000" font-family="sans-serif" font-size="14" font-style="italic" lengthAdjust="spacing" textLength="62" x="149" y="78.3145">&#171;System&#187;</text><text fill="#000000" font-family="sans-serif" font-size="14" lengthAdjust="spacing" textLength="89" x="135.5" y="93.9551">:ClientHandler</text><rect fill="#E3E3E3" height="45.2813" rx="2.5" ry="2.5" style="stroke:#181818;stroke-width:0.5;" width="103" x="128.5" y="577.0078"/><text fill="#000000" font-family="sans-serif" font-size="14" font-style="italic" lengthAdjust="spacing" textLength="62" x="149" y="596.6816">&#171;System&#187;</text><text fill="#000000" font-family="sans-serif" font-size="14" lengthAdjust="spacing" textLength="89" x="135.5" y="612.3223">:ClientHandler</text><text fill="#000000" font-family="sans-serif" font-size="14" font-style="italic" lengthAdjust="spacing" textLength="84" x="402" y="86.3145">&#171;application&#187;</text><text fill="#000000" font-family="sans-serif" font-size="14" lengthAdjust="spacing" textLength="127" x="380.5" y="101.9551">:NotifyReqController</text><ellipse cx="447" cy="57.6406" fill="#E3E3E3" rx="12" ry="12" style="stroke:#181818;stroke-width:0.5;"/><polygon fill="#181818" points="443,45.6406,449,40.6406,447,45.6406,449,50.6406,443,45.6406" style="stroke:#181818;stroke-width:1.0;"/><text fill="#000000" font-family="sans-serif" font-size="14" font-style="italic" lengthAdjust="spacing" textLength="84" x="402" y="589.6816">&#171;application&#187;</text><text fill="#000000" font-family="sans-serif" font-size="14" lengthAdjust="spacing" textLength="127" x="380.5" y="605.3223">:NotifyReqController</text><ellipse cx="447" cy="624.2891" fill="#E3E3E3" rx="12" ry="12" style="stroke:#181818;stroke-width:0.5;"/><polygon fill="#181818" points="443,612.2891,449,607.2891,447,612.2891,449,617.2891,443,612.2891" style="stroke:#181818;stroke-width:1.0;"/><rect fill="#E3E3E3" height="45.2813" rx="2.5" ry="2.5" style="stroke:#181818;stroke-width:0.5;" width="134" x="617" y="58.6406"/><text fill="#000000" font-family="sans-serif" font-size="14" font-style="italic" lengthAdjust="spacing" textLength="62" x="653" y="78.3145">&#171;domain&#187;</text><text fill="#000000" font-family="sans-serif" font-size="14" lengthAdjust="spacing" textLength="120" x="624" y="93.9551">:NotificationService</text><rect fill="#E3E3E3" height="45.2813" rx="2.5" ry="2.5" style="stroke:#181818;stroke-width:0.5;" width="134" x="617" y="577.0078"/><text fill="#000000" font-family="sans-serif" font-size="14" font-style="italic" lengthAdjust="spacing" textLength="62" x="653" y="596.6816">&#171;domain&#187;</text><text fill="#000000" font-family="sans-serif" font-size="14" lengthAdjust="spacing" textLength="120" x="624" y="612.3223">:NotificationService</text><rect fill="#E3E3E3" height="45.2813" rx="2.5" ry="2.5" style="stroke:#181818;stroke-width:0.5;" width="117" x="768" y="577.0078"/><text fill="#000000" font-family="sans-serif" font-size="14" font-style="italic" lengthAdjust="spacing" textLength="62" x="795.5" y="596.6816">&#171;domain&#187;</text><text fill="#000000" font-family="sans-serif" font-size="14" lengthAdjust="spacing" textLength="103" x="775" y="612.3223">:NotificationDTO</text><rect fill="#E3E3E3" height="45.2813" rx="2.5" ry="2.5" style="stroke:#181818;stroke-width:0.5;" width="90" x="895" y="58.6406"/><text fill="#000000" font-family="sans-serif" font-size="14" font-style="italic" lengthAdjust="spacing" textLength="62" x="909" y="78.3145">&#171;domain&#187;</text><text fill="#000000" font-family="sans-serif" font-size="14" lengthAdjust="spacing" textLength="76" x="902" y="93.9551">:SerializeUtil</text><rect fill="#E3E3E3" height="45.2813" rx="2.5" ry="2.5" style="stroke:#181818;stroke-width:0.5;" width="90" x="895" y="577.0078"/><text fill="#000000" font-family="sans-serif" font-size="14" font-style="italic" lengthAdjust="spacing" textLength="62" x="909" y="596.6816">&#171;domain&#187;</text><text fill="#000000" font-family="sans-serif" font-size="14" lengthAdjust="spacing" textLength="76" x="902" y="612.3223">:SerializeUtil</text><rect fill="#E3E3E3" height="45.2813" rx="2.5" ry="2.5" style="stroke:#181818;stroke-width:0.5;" width="155" x="995" y="58.6406"/><text fill="#000000" font-family="sans-serif" font-size="14" font-style="italic" lengthAdjust="spacing" textLength="79" x="1033" y="78.3145">&#171;repository&#187;</text><text fill="#000000" font-family="sans-serif" font-size="14" lengthAdjust="spacing" textLength="141" x="1002" y="93.9551">:NotificationRepository</text><rect fill="#E3E3E3" height="45.2813" rx="2.5" ry="2.5" style="stroke:#181818;stroke-width:0.5;" width="155" x="995" y="577.0078"/><text fill="#000000" font-family="sans-serif" font-size="14" font-style="italic" lengthAdjust="spacing" textLength="79" x="1033" y="596.6816">&#171;repository&#187;</text><text fill="#000000" font-family="sans-serif" font-size="14" lengthAdjust="spacing" textLength="141" x="1002" y="612.3223">:NotificationRepository</text><rect fill="#FFFFFF" height="352.5156" style="stroke:#181818;stroke-width:1.0;" width="10" x="175" y="171.9688"/><rect fill="#FFFFFF" height="198.8984" style="stroke:#181818;stroke-width:1.0;" width="10" x="442" y="262.5391"/><rect fill="#FFFFFF" height="141.8516" style="stroke:#181818;stroke-width:1.0;" width="10" x="679" y="291.0625"/><rect fill="#FFFFFF" height="28.5234" style="stroke:#181818;stroke-width:1.0;" width="10" x="821.5" y="375.8672"/><rect fill="#FFFFFF" height="28.5234" style="stroke:#181818;stroke-width:1.0;" width="10" x="935" y="205.4922"/><polygon fill="#181818" points="168,131.4453,178,135.4453,168,139.4453,172,135.4453" style="stroke:#181818;stroke-width:1.0;"/><line style="stroke:#181818;stroke-width:1.0;" x1="0" x2="174" y1="135.4453" y2="135.4453"/><text fill="#000000" font-family="sans-serif" font-size="13" font-weight="bold" lengthAdjust="spacing" textLength="7" x="7" y="130.6904">1</text><text fill="#000000" font-family="sans-serif" font-size="13" lengthAdjust="spacing" textLength="131" x="18" y="130.6904">(tcp) maskAsReadRep</text><line style="stroke:#181818;stroke-width:1.0;" x1="180" x2="227" y1="158.9688" y2="158.9688"/><line style="stroke:#181818;stroke-width:1.0;" x1="227" x2="227" y1="158.9688" y2="171.9688"/><line style="stroke:#181818;stroke-width:1.0;" x1="186" x2="227" y1="171.9688" y2="171.9688"/><polygon fill="#181818" points="196,167.9688,186,171.9688,196,175.9688,192,171.9688" style="stroke:#181818;stroke-width:1.0;"/><text fill="#000000" font-family="sans-serif" font-size="13" font-weight="bold" lengthAdjust="spacing" textLength="7" x="192" y="154.2139">2</text><text fill="#000000" font-family="sans-serif" font-size="13" lengthAdjust="spacing" textLength="218" x="203" y="154.2139">maskAsReadRep(version, code, data)</text><polygon fill="#181818" points="923,201.4922,933,205.4922,923,209.4922,927,205.4922" style="stroke:#181818;stroke-width:1.0;"/><line style="stroke:#181818;stroke-width:1.0;" x1="185" x2="929" y1="205.4922" y2="205.4922"/><text fill="#000000" font-family="sans-serif" font-size="13" font-weight="bold" lengthAdjust="spacing" textLength="7" x="192" y="200.7373">3</text><text fill="#000000" font-family="sans-serif" font-size="13" lengthAdjust="spacing" textLength="108" x="203" y="200.7373">deserializeObject()</text><polygon fill="#181818" points="196,230.0156,186,234.0156,196,238.0156,192,234.0156" style="stroke:#181818;stroke-width:1.0;"/><line style="stroke:#181818;stroke-width:1.0;stroke-dasharray:2.0,2.0;" x1="190" x2="939" y1="234.0156" y2="234.0156"/><text fill="#000000" font-family="sans-serif" font-size="13" font-weight="bold" lengthAdjust="spacing" textLength="7" x="202" y="229.2607">4</text><text fill="#000000" font-family="sans-serif" font-size="13" lengthAdjust="spacing" textLength="88" x="213" y="229.2607">notificationDTO</text><polygon fill="#181818" points="430,258.5391,440,262.5391,430,266.5391,434,262.5391" style="stroke:#181818;stroke-width:1.0;"/><line style="stroke:#181818;stroke-width:1.0;" x1="185" x2="436" y1="262.5391" y2="262.5391"/><text fill="#000000" font-family="sans-serif" font-size="13" font-weight="bold" lengthAdjust="spacing" textLength="7" x="192" y="257.7842">5</text><text fill="#000000" font-family="sans-serif" font-size="13" lengthAdjust="spacing" textLength="197" x="203" y="257.7842">maskAsReadRep(notificationDTO)</text><polygon fill="#181818" points="667,287.0625,677,291.0625,667,295.0625,671,291.0625" style="stroke:#181818;stroke-width:1.0;"/><line style="stroke:#181818;stroke-width:1.0;" x1="452" x2="673" y1="291.0625" y2="291.0625"/><text fill="#000000" font-family="sans-serif" font-size="13" font-weight="bold" lengthAdjust="spacing" textLength="7" x="459" y="286.3076">6</text><text fill="#000000" font-family="sans-serif" font-size="13" lengthAdjust="spacing" textLength="197" x="470" y="286.3076">maskAsReadRep(notificationDTO)</text><polygon fill="#181818" points="756,315.5859,766,319.5859,756,323.5859,760,319.5859" style="stroke:#181818;stroke-width:1.0;"/><line style="stroke:#181818;stroke-width:1.0;stroke-dasharray:2.0,2.0;" x1="689" x2="762" y1="319.5859" y2="319.5859"/><text fill="#000000" font-family="sans-serif" font-size="13" font-weight="bold" lengthAdjust="spacing" textLength="7" x="696" y="314.8311">7</text><text fill="#000000" font-family="sans-serif" font-size="13" lengthAdjust="spacing" textLength="44" x="707" y="314.8311">create()</text><rect fill="#E3E3E3" height="45.2813" rx="2.5" ry="2.5" style="stroke:#181818;stroke-width:0.5;" width="117" x="768" y="299.0625"/><text fill="#000000" font-family="sans-serif" font-size="14" font-style="italic" lengthAdjust="spacing" textLength="62" x="795.5" y="318.7363">&#171;domain&#187;</text><text fill="#000000" font-family="sans-serif" font-size="14" lengthAdjust="spacing" textLength="103" x="775" y="334.377">:NotificationDTO</text><polygon fill="#181818" points="809.5,371.8672,819.5,375.8672,809.5,379.8672,813.5,375.8672" style="stroke:#181818;stroke-width:1.0;"/><line style="stroke:#181818;stroke-width:1.0;" x1="689" x2="815.5" y1="375.8672" y2="375.8672"/><text fill="#000000" font-family="sans-serif" font-size="13" font-weight="bold" lengthAdjust="spacing" textLength="7" x="696" y="371.1123">8</text><text fill="#000000" font-family="sans-serif" font-size="13" lengthAdjust="spacing" textLength="57" x="707" y="371.1123">toObject()</text><polygon fill="#181818" points="700,400.3906,690,404.3906,700,408.3906,696,404.3906" style="stroke:#181818;stroke-width:1.0;"/><line style="stroke:#181818;stroke-width:1.0;stroke-dasharray:2.0,2.0;" x1="694" x2="825.5" y1="404.3906" y2="404.3906"/><text fill="#000000" font-family="sans-serif" font-size="13" font-weight="bold" lengthAdjust="spacing" textLength="7" x="706" y="399.6357">9</text><text fill="#000000" font-family="sans-serif" font-size="13" lengthAdjust="spacing" textLength="24" x="717" y="399.6357">notif</text><polygon fill="#181818" points="463,428.9141,453,432.9141,463,436.9141,459,432.9141" style="stroke:#181818;stroke-width:1.0;"/><line style="stroke:#181818;stroke-width:1.0;stroke-dasharray:2.0,2.0;" x1="457" x2="683" y1="432.9141" y2="432.9141"/><text fill="#000000" font-family="sans-serif" font-size="13" font-weight="bold" lengthAdjust="spacing" textLength="14" x="469" y="428.1592">10</text><text fill="#000000" font-family="sans-serif" font-size="13" lengthAdjust="spacing" textLength="24" x="487" y="428.1592">notif</text><polygon fill="#181818" points="196,457.4375,186,461.4375,196,465.4375,192,461.4375" style="stroke:#181818;stroke-width:1.0;"/><line style="stroke:#181818;stroke-width:1.0;stroke-dasharray:2.0,2.0;" x1="190" x2="446" y1="461.4375" y2="461.4375"/><text fill="#000000" font-family="sans-serif" font-size="13" font-weight="bold" lengthAdjust="spacing" textLength="14" x="202" y="456.6826">11</text><text fill="#000000" font-family="sans-serif" font-size="13" lengthAdjust="spacing" textLength="24" x="220" y="456.6826">notif</text><polygon fill="#181818" points="1060.5,485.9609,1070.5,489.9609,1060.5,493.9609,1064.5,489.9609" style="stroke:#181818;stroke-width:1.0;"/><line style="stroke:#181818;stroke-width:1.0;" x1="185" x2="1066.5" y1="489.9609" y2="489.9609"/><text fill="#000000" font-family="sans-serif" font-size="13" font-weight="bold" lengthAdjust="spacing" textLength="14" x="192" y="485.2061">12</text><text fill="#000000" font-family="sans-serif" font-size="13" lengthAdjust="spacing" textLength="58" x="210" y="485.2061">save(notif)</text><line style="stroke:#181818;stroke-width:1.0;stroke-dasharray:2.0,2.0;" x1="185" x2="227" y1="523.4844" y2="523.4844"/><line style="stroke:#181818;stroke-width:1.0;stroke-dasharray:2.0,2.0;" x1="227" x2="227" y1="523.4844" y2="536.4844"/><line style="stroke:#181818;stroke-width:1.0;stroke-dasharray:2.0,2.0;" x1="180" x2="227" y1="536.4844" y2="536.4844"/><polygon fill="#181818" points="190,532.4844,180,536.4844,190,540.4844,186,536.4844" style="stroke:#181818;stroke-width:1.0;"/><text fill="#000000" font-family="sans-serif" font-size="13" font-weight="bold" lengthAdjust="spacing" textLength="14" x="192" y="518.7295">13</text><text fill="#000000" font-family="sans-serif" font-size="13" lengthAdjust="spacing" textLength="225" x="210" y="518.7295">maskAsReadResp(version, code, data)</text><polygon fill="#181818" points="11,556.0078,1,560.0078,11,564.0078,7,560.0078" style="stroke:#181818;stroke-width:1.0;"/><line style="stroke:#181818;stroke-width:1.0;stroke-dasharray:2.0,2.0;" x1="5" x2="179" y1="560.0078" y2="560.0078"/><text fill="#000000" font-family="sans-serif" font-size="13" font-weight="bold" lengthAdjust="spacing" textLength="14" x="17" y="555.2529">14</text><text fill="#000000" font-family="sans-serif" font-size="13" lengthAdjust="spacing" textLength="138" x="35" y="555.2529">(tcp) maskAsReadResp</text><!--SRC=[fLLTRjim37xNAOYy92cQeDtUZ290bsBOXg81alK0Yip4Qct9jPHssNLsb5rib1pPiZCN0-OyH1BvaH_57vbdgKfUyG8AhRJ8AbqWsEg0p3IIaejdliUDFUO85GhBrJwF5Kp6K_qcrHvsF3V863zOhGx55Yl6hBG46prkuEFLrJNCuDR0agjKfjpY9No5DwuiM0rR1AMjt4bCGIeeZi3BCfU2MwaLl6Mem6O8nX8Ez0wqydzTFGCY8tfevYFOuCi1bK2uatnFFDauaod2JckxrJyOVKJVIY5Bns2KB7E9oduXRZbM8-26B5IlMC7DpUPeB1QB1HDQsKhdfFtWk1xN-BAiZm9c-NrzJuY84y6wZiYivBdyYOzMvi5HUqBeL1TSEc0FwPsUp3foKc13bDOnSXXuzttbGVGV0yPTn3UzlMrZM6EfZRIwEdfekoKBLRFvdqY7-PxxxZkbRxO8sKfWOaKvXOARvrkpHfuIWh6JUBPer3eA4pepvEmIX4wfBgaw-PG15rQ-keAhKMG6OaDHA0caQCB9Qlj4VJAPUltOHWi8fjgJMHo3wYRCQwSuQ2fmSjNNZwndof5gx3XzniR-_pmYwcDgE-kmc3vIT9Ff72bVEKKs9jG07ISwYyptHG8UxZNUYQQbuwlw7mBg9ef0BgYmdYsYUarW9rNwwTZCe8a8gwd3D8PQZASRxKEYQcvFdKOnzzBO6X05sBULQrq2YRC-kXO7tZ7n1FPe6zBcmO_NpxgYFbsLg6ZwJfwQPPqUU2UQNZmdZrHttkvgrteA-k-4q_AbT2GWAdJtUax25VBfZ9QnszCr25bVGwGOkJsTrZy0LAc_IDhrA5nSH2GYePDHngpkz6UN7wlFUlnyoTMI7Y4MkGv5tcXtQxokIr_ROGorkf6gRqeN8idenPNxpBfupO7UDVlxbqxSxdfExvwhcmhiiQGtanwxIhfq0NoOmyWDI9geQZ-2PbRMOdTlpZAro5z7MGBD7Ekqcl6zHho6sxxVzI78k7-DIzXukFi39pVdYGf_FR6OjcDkO8YRWIdEUccWEGutina4TkVl1N5qtny0]--></g></svg>