<?xml version="1.0" encoding="us-ascii" standalone="no"?><svg xmlns="http://www.w3.org/2000/svg" xmlns:xlink="http://www.w3.org/1999/xlink" contentStyleType="text/css" height="632px" preserveAspectRatio="none" style="width:961px;height:632px;background:#FFFFFF;" version="1.1" viewBox="0 0 961 632" width="961px" zoomAndPan="magnify"><defs/><g><text fill="#000000" font-family="sans-serif" font-size="14" font-weight="bold" lengthAdjust="spacing" textLength="933" x="10" y="27.6738">"US 3001 - As Candidate, I want to be notified in my application when the state of one of my applications changes." Sequence Diagram</text><rect fill="#FFFFFF" height="407.5625" style="stroke:#181818;stroke-width:1.0;" width="10" x="186.25" y="127.2813"/><rect fill="#FFFFFF" height="215.8984" style="stroke:#181818;stroke-width:1.0;" width="10" x="383.25" y="147.8047"/><rect fill="#FFFFFF" height="142.6172" style="stroke:#181818;stroke-width:1.0;" width="10" x="383.25" y="392.2266"/><rect fill="#FFFFFF" height="85.5703" style="stroke:#181818;stroke-width:1.0;" width="10" x="559.25" y="249.6094"/><rect fill="#FFFFFF" height="85.5703" style="stroke:#181818;stroke-width:1.0;" width="10" x="559.25" y="420.75"/><rect fill="#FFFFFF" height="28.5234" style="stroke:#181818;stroke-width:1.0;" width="10" x="749.25" y="278.1328"/><rect fill="#FFFFFF" height="28.5234" style="stroke:#181818;stroke-width:1.0;" width="10" x="749.25" y="449.2734"/><line style="stroke:#181818;stroke-width:0.5;stroke-dasharray:5.0,5.0;" x1="190.75" x2="190.75" y1="117.2813" y2="552.8438"/><line style="stroke:#181818;stroke-width:0.5;stroke-dasharray:5.0,5.0;" x1="387.75" x2="387.75" y1="117.2813" y2="552.8438"/><line style="stroke:#181818;stroke-width:0.5;stroke-dasharray:5.0,5.0;" x1="563.75" x2="563.75" y1="202.4453" y2="552.8438"/><line style="stroke:#181818;stroke-width:0.5;stroke-dasharray:5.0,5.0;" x1="754.25" x2="754.25" y1="117.2813" y2="552.8438"/><text fill="#000000" font-family="sans-serif" font-size="14" lengthAdjust="spacing" textLength="65" x="155.75" y="114.3145">Candidate</text><ellipse cx="191.25" cy="50.1406" fill="#E3E3E3" rx="8" ry="8" style="stroke:#181818;stroke-width:0.5;"/><path d="M191.25,58.1406 L191.25,85.1406 M178.25,66.1406 L204.25,66.1406 M191.25,85.1406 L178.25,100.1406 M191.25,85.1406 L204.25,100.1406 " fill="none" style="stroke:#181818;stroke-width:0.5;"/><text fill="#000000" font-family="sans-serif" font-size="14" lengthAdjust="spacing" textLength="65" x="155.75" y="564.5176">Candidate</text><ellipse cx="191.25" cy="575.9844" fill="#E3E3E3" rx="8" ry="8" style="stroke:#181818;stroke-width:0.5;"/><path d="M191.25,583.9844 L191.25,610.9844 M178.25,591.9844 L204.25,591.9844 M191.25,610.9844 L178.25,625.9844 M191.25,610.9844 L204.25,625.9844 " fill="none" style="stroke:#181818;stroke-width:0.5;"/><rect fill="#E3E3E3" height="45.2813" rx="2.5" ry="2.5" style="stroke:#181818;stroke-width:0.5;" width="123" x="326.75" y="71"/><text fill="#000000" font-family="sans-serif" font-size="14" font-style="italic" lengthAdjust="spacing" textLength="95" x="340.75" y="90.6738">&#171;presentation&#187;</text><text fill="#000000" font-family="sans-serif" font-size="14" lengthAdjust="spacing" textLength="109" x="333.75" y="106.3145">:NotifCandidateUI</text><rect fill="#E3E3E3" height="45.2813" rx="2.5" ry="2.5" style="stroke:#181818;stroke-width:0.5;" width="123" x="326.75" y="551.8438"/><text fill="#000000" font-family="sans-serif" font-size="14" font-style="italic" lengthAdjust="spacing" textLength="95" x="340.75" y="571.5176">&#171;presentation&#187;</text><text fill="#000000" font-family="sans-serif" font-size="14" lengthAdjust="spacing" textLength="109" x="333.75" y="587.1582">:NotifCandidateUI</text><text fill="#000000" font-family="sans-serif" font-size="14" font-style="italic" lengthAdjust="spacing" textLength="84" x="519.25" y="564.5176">&#171;application&#187;</text><text fill="#000000" font-family="sans-serif" font-size="14" lengthAdjust="spacing" textLength="127" x="497.75" y="580.1582">:NotifyReqController</text><ellipse cx="564.25" cy="599.125" fill="#E3E3E3" rx="12" ry="12" style="stroke:#181818;stroke-width:0.5;"/><polygon fill="#181818" points="560.25,587.125,566.25,582.125,564.25,587.125,566.25,592.125,560.25,587.125" style="stroke:#181818;stroke-width:1.0;"/><rect fill="#E3E3E3" height="45.2813" rx="2.5" ry="2.5" style="stroke:#181818;stroke-width:0.5;" width="88" x="710.25" y="71"/><text fill="#000000" font-family="sans-serif" font-size="14" font-style="italic" lengthAdjust="spacing" textLength="62" x="723.25" y="90.6738">&#171;System&#187;</text><text fill="#000000" font-family="sans-serif" font-size="14" lengthAdjust="spacing" textLength="74" x="717.25" y="106.3145">:TCPServer</text><rect fill="#E3E3E3" height="45.2813" rx="2.5" ry="2.5" style="stroke:#181818;stroke-width:0.5;" width="88" x="710.25" y="551.8438"/><text fill="#000000" font-family="sans-serif" font-size="14" font-style="italic" lengthAdjust="spacing" textLength="62" x="723.25" y="571.5176">&#171;System&#187;</text><text fill="#000000" font-family="sans-serif" font-size="14" lengthAdjust="spacing" textLength="74" x="717.25" y="587.1582">:TCPServer</text><rect fill="#FFFFFF" height="407.5625" style="stroke:#181818;stroke-width:1.0;" width="10" x="186.25" y="127.2813"/><rect fill="#FFFFFF" height="215.8984" style="stroke:#181818;stroke-width:1.0;" width="10" x="383.25" y="147.8047"/><rect fill="#FFFFFF" height="142.6172" style="stroke:#181818;stroke-width:1.0;" width="10" x="383.25" y="392.2266"/><rect fill="#FFFFFF" height="85.5703" style="stroke:#181818;stroke-width:1.0;" width="10" x="559.25" y="249.6094"/><rect fill="#FFFFFF" height="85.5703" style="stroke:#181818;stroke-width:1.0;" width="10" x="559.25" y="420.75"/><rect fill="#FFFFFF" height="28.5234" style="stroke:#181818;stroke-width:1.0;" width="10" x="749.25" y="278.1328"/><rect fill="#FFFFFF" height="28.5234" style="stroke:#181818;stroke-width:1.0;" width="10" x="749.25" y="449.2734"/><polygon fill="#181818" points="371.25,143.8047,381.25,147.8047,371.25,151.8047,375.25,147.8047" style="stroke:#181818;stroke-width:1.0;"/><line style="stroke:#181818;stroke-width:1.0;" x1="196.25" x2="377.25" y1="147.8047" y2="147.8047"/><text fill="#000000" font-family="sans-serif" font-size="13" font-weight="bold" lengthAdjust="spacing" textLength="7" x="203.25" y="143.0498">1</text><text fill="#000000" font-family="sans-serif" font-size="13" lengthAdjust="spacing" textLength="141" x="214.25" y="143.0498">asks to see notifications</text><polygon fill="#181818" points="485.75,172.3281,495.75,176.3281,485.75,180.3281,489.75,176.3281" style="stroke:#181818;stroke-width:1.0;"/><line style="stroke:#181818;stroke-width:1.0;" x1="393.25" x2="491.75" y1="176.3281" y2="176.3281"/><text fill="#000000" font-family="sans-serif" font-size="13" font-weight="bold" lengthAdjust="spacing" textLength="7" x="400.25" y="171.5732">2</text><text fill="#000000" font-family="sans-serif" font-size="13" lengthAdjust="spacing" textLength="36" x="411.25" y="171.5732">create</text><text fill="#000000" font-family="sans-serif" font-size="14" font-style="italic" lengthAdjust="spacing" textLength="84" x="519.25" y="200.4785">&#171;application&#187;</text><text fill="#000000" font-family="sans-serif" font-size="14" lengthAdjust="spacing" textLength="127" x="497.75" y="216.1191">:NotifyReqController</text><ellipse cx="564.25" cy="171.8047" fill="#E3E3E3" rx="12" ry="12" style="stroke:#181818;stroke-width:0.5;"/><polygon fill="#181818" points="560.25,159.8047,566.25,154.8047,564.25,159.8047,566.25,164.8047,560.25,159.8047" style="stroke:#181818;stroke-width:1.0;"/><polygon fill="#181818" points="547.25,245.6094,557.25,249.6094,547.25,253.6094,551.25,249.6094" style="stroke:#181818;stroke-width:1.0;"/><line style="stroke:#181818;stroke-width:1.0;" x1="393.25" x2="553.25" y1="249.6094" y2="249.6094"/><text fill="#000000" font-family="sans-serif" font-size="13" font-weight="bold" lengthAdjust="spacing" textLength="7" x="400.25" y="244.8545">3</text><text fill="#000000" font-family="sans-serif" font-size="13" lengthAdjust="spacing" textLength="62" x="411.25" y="244.8545">notifyReq()</text><polygon fill="#181818" points="737.25,274.1328,747.25,278.1328,737.25,282.1328,741.25,278.1328" style="stroke:#181818;stroke-width:1.0;"/><line style="stroke:#181818;stroke-width:1.0;" x1="569.25" x2="743.25" y1="278.1328" y2="278.1328"/><text fill="#000000" font-family="sans-serif" font-size="13" font-weight="bold" lengthAdjust="spacing" textLength="7" x="576.25" y="273.3779">4</text><text fill="#000000" font-family="sans-serif" font-size="13" lengthAdjust="spacing" textLength="84" x="587.25" y="273.3779">(tcp) notifyReq</text><polygon fill="#181818" points="580.25,302.6563,570.25,306.6563,580.25,310.6563,576.25,306.6563" style="stroke:#181818;stroke-width:1.0;"/><line style="stroke:#181818;stroke-width:1.0;stroke-dasharray:2.0,2.0;" x1="574.25" x2="753.25" y1="306.6563" y2="306.6563"/><text fill="#000000" font-family="sans-serif" font-size="13" font-weight="bold" lengthAdjust="spacing" textLength="7" x="586.25" y="301.9014">5</text><text fill="#000000" font-family="sans-serif" font-size="13" lengthAdjust="spacing" textLength="91" x="597.25" y="301.9014">(tcp) notifyResp</text><polygon fill="#181818" points="404.25,331.1797,394.25,335.1797,404.25,339.1797,400.25,335.1797" style="stroke:#181818;stroke-width:1.0;"/><line style="stroke:#181818;stroke-width:1.0;stroke-dasharray:2.0,2.0;" x1="398.25" x2="563.25" y1="335.1797" y2="335.1797"/><text fill="#000000" font-family="sans-serif" font-size="13" font-weight="bold" lengthAdjust="spacing" textLength="7" x="410.25" y="330.4248">6</text><text fill="#000000" font-family="sans-serif" font-size="13" lengthAdjust="spacing" textLength="61" x="421.25" y="330.4248">notifyResp</text><polygon fill="#181818" points="207.25,359.7031,197.25,363.7031,207.25,367.7031,203.25,363.7031" style="stroke:#181818;stroke-width:1.0;"/><line style="stroke:#181818;stroke-width:1.0;stroke-dasharray:2.0,2.0;" x1="201.25" x2="387.25" y1="363.7031" y2="363.7031"/><text fill="#000000" font-family="sans-serif" font-size="13" font-weight="bold" lengthAdjust="spacing" textLength="7" x="213.25" y="358.9482">7</text><text fill="#000000" font-family="sans-serif" font-size="13" lengthAdjust="spacing" textLength="138" x="224.25" y="358.9482">show list of notifications</text><polygon fill="#181818" points="371.25,388.2266,381.25,392.2266,371.25,396.2266,375.25,392.2266" style="stroke:#181818;stroke-width:1.0;"/><line style="stroke:#181818;stroke-width:1.0;" x1="196.25" x2="377.25" y1="392.2266" y2="392.2266"/><text fill="#000000" font-family="sans-serif" font-size="13" font-weight="bold" lengthAdjust="spacing" textLength="7" x="203.25" y="387.4717">8</text><text fill="#000000" font-family="sans-serif" font-size="13" lengthAdjust="spacing" textLength="108" x="214.25" y="387.4717">choose notification</text><polygon fill="#181818" points="547.25,416.75,557.25,420.75,547.25,424.75,551.25,420.75" style="stroke:#181818;stroke-width:1.0;"/><line style="stroke:#181818;stroke-width:1.0;" x1="393.25" x2="553.25" y1="420.75" y2="420.75"/><text fill="#000000" font-family="sans-serif" font-size="13" font-weight="bold" lengthAdjust="spacing" textLength="7" x="400.25" y="415.9951">9</text><text fill="#000000" font-family="sans-serif" font-size="13" lengthAdjust="spacing" textLength="136" x="411.25" y="415.9951">markNotification(select)</text><polygon fill="#181818" points="737.25,445.2734,747.25,449.2734,737.25,453.2734,741.25,449.2734" style="stroke:#181818;stroke-width:1.0;"/><line style="stroke:#181818;stroke-width:1.0;" x1="569.25" x2="743.25" y1="449.2734" y2="449.2734"/><text fill="#000000" font-family="sans-serif" font-size="13" font-weight="bold" lengthAdjust="spacing" textLength="14" x="576.25" y="444.5186">10</text><text fill="#000000" font-family="sans-serif" font-size="13" lengthAdjust="spacing" textLength="131" x="594.25" y="444.5186">(tcp) maskAsReadRep</text><polygon fill="#181818" points="580.25,473.7969,570.25,477.7969,580.25,481.7969,576.25,477.7969" style="stroke:#181818;stroke-width:1.0;"/><line style="stroke:#181818;stroke-width:1.0;stroke-dasharray:2.0,2.0;" x1="574.25" x2="753.25" y1="477.7969" y2="477.7969"/><text fill="#000000" font-family="sans-serif" font-size="13" font-weight="bold" lengthAdjust="spacing" textLength="14" x="586.25" y="473.042">11</text><text fill="#000000" font-family="sans-serif" font-size="13" lengthAdjust="spacing" textLength="138" x="604.25" y="473.042">(tcp) maskAsReadResp</text><polygon fill="#181818" points="404.25,502.3203,394.25,506.3203,404.25,510.3203,400.25,506.3203" style="stroke:#181818;stroke-width:1.0;"/><line style="stroke:#181818;stroke-width:1.0;stroke-dasharray:2.0,2.0;" x1="398.25" x2="563.25" y1="506.3203" y2="506.3203"/><text fill="#000000" font-family="sans-serif" font-size="13" font-weight="bold" lengthAdjust="spacing" textLength="14" x="410.25" y="501.5654">12</text><text fill="#000000" font-family="sans-serif" font-size="13" lengthAdjust="spacing" textLength="53" x="428.25" y="501.5654">message</text><polygon fill="#181818" points="202.25,530.8438,192.25,534.8438,202.25,538.8438,198.25,534.8438" style="stroke:#181818;stroke-width:1.0;"/><line style="stroke:#181818;stroke-width:1.0;stroke-dasharray:2.0,2.0;" x1="196.25" x2="387.25" y1="534.8438" y2="534.8438"/><text fill="#000000" font-family="sans-serif" font-size="13" font-weight="bold" lengthAdjust="spacing" textLength="14" x="208.25" y="530.0889">13</text><text fill="#000000" font-family="sans-serif" font-size="13" lengthAdjust="spacing" textLength="145" x="226.25" y="530.0889">shows list of notifications</text><!--SRC=[fLJ1Rjf04BtlLunyAObAbQet5255z89KHHKE7x2i1xp2td5sXb3-lhCs64DGMwM-sDvzxysRUMlpreV6Hbj3JO5S6Qb6aBX3m_rEOztMRZ2NGuKGqOaDcse8uD8MjFTX0sjRCHfZTq9XLwym6YDUb9OjS_ZsyF0Lnl34CBEXy8KL_0npsDiW80GhX43YrnuBy07g0zYcgRopuYd0liG0KYAmA0ze3HJQsoMEmPLg3_bB1Zc-xZ0uXE_URjId-LJw0c5D92lwPQmJYf3rNZAmwimOxKcyyqsobKsUawKUivotgEKS7X-RY8n1shBJgN4K959reXmM-3hhbYgCdVRBueVo1cwLTbdjPVOpn_Xs97IFIiaFB5WhEfdsRsa0QXJqci5ucknC5B_bD4R6qnoF4p4TCbqzUpdlrvIi4idR_RtAk8WAC8Fju-waKqrzZUvkI2PClzgsgiHZ1nCOYMlkpWe3JsU53dpUwDx7n_hlHBZfeGLUYrmvEGtfpzosXM7dgRIokAGzL9ubdRUhsTwGqU6Uou-dRM5N4l5bCBTZkJdvsiRjyu0wOgpqE_ne3BMUbITUe2qMsFnF54EXZyHH8xF-MVun2uqY9S5_YU8gYQ6c-Gq0]--></g></svg>