<?xml version="1.0" encoding="us-ascii" standalone="no"?><svg xmlns="http://www.w3.org/2000/svg" xmlns:xlink="http://www.w3.org/1999/xlink" contentStyleType="text/css" height="753px" preserveAspectRatio="none" style="width:1210px;height:753px;background:#FFFFFF;" version="1.1" viewBox="0 0 1210 753" width="1210px" zoomAndPan="magnify"><defs/><g><text fill="#000000" font-family="sans-serif" font-size="14" font-weight="bold" lengthAdjust="spacing" textLength="933" x="137.5" y="27.6738">"US 3001 - As Candidate, I want to be notified in my application when the state of one of my applications changes." Sequence Diagram</text><rect fill="#FFFFFF" height="464.0859" style="stroke:#181818;stroke-width:1.0;" width="10" x="128" y="171.9688"/><rect fill="#FFFFFF" height="281.9453" style="stroke:#181818;stroke-width:1.0;" width="10" x="348" y="262.5391"/><rect fill="#FFFFFF" height="28.5234" style="stroke:#181818;stroke-width:1.0;" width="10" x="498" y="205.4922"/><rect fill="#FFFFFF" height="224.8984" style="stroke:#181818;stroke-width:1.0;" width="10" x="648.5" y="291.0625"/><rect fill="#FFFFFF" height="95.8047" style="stroke:#181818;stroke-width:1.0;" width="10" x="653.5" y="384.6328"/><rect fill="#FFFFFF" height="28.5234" style="stroke:#181818;stroke-width:1.0;" width="10" x="989" y="573.0078"/><rect fill="#FFFFFF" height="28.5234" style="stroke:#181818;stroke-width:1.0;" width="10" x="1121.5" y="319.5859"/><line style="stroke:#181818;stroke-width:0.5;stroke-dasharray:5.0,5.0;" x1="132.5" x2="132.5" y1="104.9219" y2="689.5781"/><line style="stroke:#181818;stroke-width:0.5;stroke-dasharray:5.0,5.0;" x1="352.5" x2="352.5" y1="104.9219" y2="689.5781"/><line style="stroke:#181818;stroke-width:0.5;stroke-dasharray:5.0,5.0;" x1="502.5" x2="502.5" y1="104.9219" y2="689.5781"/><line style="stroke:#181818;stroke-width:0.5;stroke-dasharray:5.0,5.0;" x1="653.5" x2="653.5" y1="104.9219" y2="689.5781"/><line style="stroke:#181818;stroke-width:0.5;stroke-dasharray:5.0,5.0;" x1="880" x2="880" y1="435.7734" y2="689.5781"/><line style="stroke:#181818;stroke-width:0.5;stroke-dasharray:5.0,5.0;" x1="994" x2="994" y1="104.9219" y2="689.5781"/><line style="stroke:#181818;stroke-width:0.5;stroke-dasharray:5.0,5.0;" x1="1126" x2="1126" y1="104.9219" y2="689.5781"/><rect fill="#E3E3E3" height="45.2813" rx="2.5" ry="2.5" style="stroke:#181818;stroke-width:0.5;" width="103" x="81.5" y="58.6406"/><text fill="#000000" font-family="sans-serif" font-size="14" font-style="italic" lengthAdjust="spacing" textLength="62" x="102" y="78.3145">&#171;System&#187;</text><text fill="#000000" font-family="sans-serif" font-size="14" lengthAdjust="spacing" textLength="89" x="88.5" y="93.9551">:ClientHandler</text><rect fill="#E3E3E3" height="45.2813" rx="2.5" ry="2.5" style="stroke:#181818;stroke-width:0.5;" width="103" x="81.5" y="688.5781"/><text fill="#000000" font-family="sans-serif" font-size="14" font-style="italic" lengthAdjust="spacing" textLength="62" x="102" y="708.252">&#171;System&#187;</text><text fill="#000000" font-family="sans-serif" font-size="14" lengthAdjust="spacing" textLength="89" x="88.5" y="723.8926">:ClientHandler</text><text fill="#000000" font-family="sans-serif" font-size="14" font-style="italic" lengthAdjust="spacing" textLength="84" x="308" y="86.3145">&#171;application&#187;</text><text fill="#000000" font-family="sans-serif" font-size="14" lengthAdjust="spacing" textLength="127" x="286.5" y="101.9551">:NotifyReqController</text><ellipse cx="353" cy="57.6406" fill="#E3E3E3" rx="12" ry="12" style="stroke:#181818;stroke-width:0.5;"/><polygon fill="#181818" points="349,45.6406,355,40.6406,353,45.6406,355,50.6406,349,45.6406" style="stroke:#181818;stroke-width:1.0;"/><text fill="#000000" font-family="sans-serif" font-size="14" font-style="italic" lengthAdjust="spacing" textLength="84" x="308" y="701.252">&#171;application&#187;</text><text fill="#000000" font-family="sans-serif" font-size="14" lengthAdjust="spacing" textLength="127" x="286.5" y="716.8926">:NotifyReqController</text><ellipse cx="353" cy="735.8594" fill="#E3E3E3" rx="12" ry="12" style="stroke:#181818;stroke-width:0.5;"/><polygon fill="#181818" points="349,723.8594,355,718.8594,353,723.8594,355,728.8594,349,723.8594" style="stroke:#181818;stroke-width:1.0;"/><rect fill="#E3E3E3" height="45.2813" rx="2.5" ry="2.5" style="stroke:#181818;stroke-width:0.5;" width="147" x="429.5" y="58.6406"/><text fill="#000000" font-family="sans-serif" font-size="14" font-style="italic" lengthAdjust="spacing" textLength="60" x="473" y="78.3145">&#171;service&#187;</text><text fill="#000000" font-family="sans-serif" font-size="14" lengthAdjust="spacing" textLength="133" x="436.5" y="93.9551">:AuthorizationService</text><rect fill="#E3E3E3" height="45.2813" rx="2.5" ry="2.5" style="stroke:#181818;stroke-width:0.5;" width="147" x="429.5" y="688.5781"/><text fill="#000000" font-family="sans-serif" font-size="14" font-style="italic" lengthAdjust="spacing" textLength="60" x="473" y="708.252">&#171;service&#187;</text><text fill="#000000" font-family="sans-serif" font-size="14" lengthAdjust="spacing" textLength="133" x="436.5" y="723.8926">:AuthorizationService</text><rect fill="#E3E3E3" height="45.2813" rx="2.5" ry="2.5" style="stroke:#181818;stroke-width:0.5;" width="134" x="586.5" y="58.6406"/><text fill="#000000" font-family="sans-serif" font-size="14" font-style="italic" lengthAdjust="spacing" textLength="62" x="622.5" y="78.3145">&#171;domain&#187;</text><text fill="#000000" font-family="sans-serif" font-size="14" lengthAdjust="spacing" textLength="120" x="593.5" y="93.9551">:NotificationService</text><rect fill="#E3E3E3" height="45.2813" rx="2.5" ry="2.5" style="stroke:#181818;stroke-width:0.5;" width="134" x="586.5" y="688.5781"/><text fill="#000000" font-family="sans-serif" font-size="14" font-style="italic" lengthAdjust="spacing" textLength="62" x="622.5" y="708.252">&#171;domain&#187;</text><text fill="#000000" font-family="sans-serif" font-size="14" lengthAdjust="spacing" textLength="120" x="593.5" y="723.8926">:NotificationService</text><rect fill="#E3E3E3" height="45.2813" rx="2.5" ry="2.5" style="stroke:#181818;stroke-width:0.5;" width="117" x="822" y="688.5781"/><text fill="#000000" font-family="sans-serif" font-size="14" font-style="italic" lengthAdjust="spacing" textLength="62" x="849.5" y="708.252">&#171;domain&#187;</text><text fill="#000000" font-family="sans-serif" font-size="14" lengthAdjust="spacing" textLength="103" x="829" y="723.8926">:NotificationDTO</text><rect fill="#E3E3E3" height="45.2813" rx="2.5" ry="2.5" style="stroke:#181818;stroke-width:0.5;" width="90" x="949" y="58.6406"/><text fill="#000000" font-family="sans-serif" font-size="14" font-style="italic" lengthAdjust="spacing" textLength="62" x="963" y="78.3145">&#171;domain&#187;</text><text fill="#000000" font-family="sans-serif" font-size="14" lengthAdjust="spacing" textLength="76" x="956" y="93.9551">:SerializeUtil</text><rect fill="#E3E3E3" height="45.2813" rx="2.5" ry="2.5" style="stroke:#181818;stroke-width:0.5;" width="90" x="949" y="688.5781"/><text fill="#000000" font-family="sans-serif" font-size="14" font-style="italic" lengthAdjust="spacing" textLength="62" x="963" y="708.252">&#171;domain&#187;</text><text fill="#000000" font-family="sans-serif" font-size="14" lengthAdjust="spacing" textLength="76" x="956" y="723.8926">:SerializeUtil</text><rect fill="#E3E3E3" height="45.2813" rx="2.5" ry="2.5" style="stroke:#181818;stroke-width:0.5;" width="155" x="1049" y="58.6406"/><text fill="#000000" font-family="sans-serif" font-size="14" font-style="italic" lengthAdjust="spacing" textLength="79" x="1087" y="78.3145">&#171;repository&#187;</text><text fill="#000000" font-family="sans-serif" font-size="14" lengthAdjust="spacing" textLength="141" x="1056" y="93.9551">:NotificationRepository</text><rect fill="#E3E3E3" height="45.2813" rx="2.5" ry="2.5" style="stroke:#181818;stroke-width:0.5;" width="155" x="1049" y="688.5781"/><text fill="#000000" font-family="sans-serif" font-size="14" font-style="italic" lengthAdjust="spacing" textLength="79" x="1087" y="708.252">&#171;repository&#187;</text><text fill="#000000" font-family="sans-serif" font-size="14" lengthAdjust="spacing" textLength="141" x="1056" y="723.8926">:NotificationRepository</text><rect fill="#FFFFFF" height="464.0859" style="stroke:#181818;stroke-width:1.0;" width="10" x="128" y="171.9688"/><rect fill="#FFFFFF" height="281.9453" style="stroke:#181818;stroke-width:1.0;" width="10" x="348" y="262.5391"/><rect fill="#FFFFFF" height="28.5234" style="stroke:#181818;stroke-width:1.0;" width="10" x="498" y="205.4922"/><rect fill="#FFFFFF" height="224.8984" style="stroke:#181818;stroke-width:1.0;" width="10" x="648.5" y="291.0625"/><rect fill="#FFFFFF" height="95.8047" style="stroke:#181818;stroke-width:1.0;" width="10" x="653.5" y="384.6328"/><rect fill="#FFFFFF" height="28.5234" style="stroke:#181818;stroke-width:1.0;" width="10" x="989" y="573.0078"/><rect fill="#FFFFFF" height="28.5234" style="stroke:#181818;stroke-width:1.0;" width="10" x="1121.5" y="319.5859"/><polygon fill="#181818" points="121,131.4453,131,135.4453,121,139.4453,125,135.4453" style="stroke:#181818;stroke-width:1.0;"/><line style="stroke:#181818;stroke-width:1.0;" x1="0" x2="127" y1="135.4453" y2="135.4453"/><text fill="#000000" font-family="sans-serif" font-size="13" font-weight="bold" lengthAdjust="spacing" textLength="7" x="7" y="130.6904">1</text><text fill="#000000" font-family="sans-serif" font-size="13" lengthAdjust="spacing" textLength="84" x="18" y="130.6904">(tcp) notifyReq</text><line style="stroke:#181818;stroke-width:1.0;" x1="133" x2="180" y1="158.9688" y2="158.9688"/><line style="stroke:#181818;stroke-width:1.0;" x1="180" x2="180" y1="158.9688" y2="171.9688"/><line style="stroke:#181818;stroke-width:1.0;" x1="139" x2="180" y1="171.9688" y2="171.9688"/><polygon fill="#181818" points="149,167.9688,139,171.9688,149,175.9688,145,171.9688" style="stroke:#181818;stroke-width:1.0;"/><text fill="#000000" font-family="sans-serif" font-size="13" font-weight="bold" lengthAdjust="spacing" textLength="7" x="145" y="154.2139">2</text><text fill="#000000" font-family="sans-serif" font-size="13" lengthAdjust="spacing" textLength="171" x="156" y="154.2139">notifyReq(version, code, data)</text><polygon fill="#181818" points="486,201.4922,496,205.4922,486,209.4922,490,205.4922" style="stroke:#181818;stroke-width:1.0;"/><line style="stroke:#181818;stroke-width:1.0;" x1="138" x2="492" y1="205.4922" y2="205.4922"/><text fill="#000000" font-family="sans-serif" font-size="13" font-weight="bold" lengthAdjust="spacing" textLength="7" x="145" y="200.7373">3</text><text fill="#000000" font-family="sans-serif" font-size="13" lengthAdjust="spacing" textLength="156" x="156" y="200.7373">authenticatedUser().email()</text><polygon fill="#181818" points="149,230.0156,139,234.0156,149,238.0156,145,234.0156" style="stroke:#181818;stroke-width:1.0;"/><line style="stroke:#181818;stroke-width:1.0;stroke-dasharray:2.0,2.0;" x1="143" x2="502" y1="234.0156" y2="234.0156"/><text fill="#000000" font-family="sans-serif" font-size="13" font-weight="bold" lengthAdjust="spacing" textLength="7" x="155" y="229.2607">4</text><text fill="#000000" font-family="sans-serif" font-size="13" lengthAdjust="spacing" textLength="31" x="166" y="229.2607">email</text><polygon fill="#181818" points="336,258.5391,346,262.5391,336,266.5391,340,262.5391" style="stroke:#181818;stroke-width:1.0;"/><line style="stroke:#181818;stroke-width:1.0;" x1="138" x2="342" y1="262.5391" y2="262.5391"/><text fill="#000000" font-family="sans-serif" font-size="13" font-weight="bold" lengthAdjust="spacing" textLength="7" x="145" y="257.7842">5</text><text fill="#000000" font-family="sans-serif" font-size="13" lengthAdjust="spacing" textLength="93" x="156" y="257.7842">nofityRep(email)</text><polygon fill="#181818" points="636.5,287.0625,646.5,291.0625,636.5,295.0625,640.5,291.0625" style="stroke:#181818;stroke-width:1.0;"/><line style="stroke:#181818;stroke-width:1.0;" x1="358" x2="642.5" y1="291.0625" y2="291.0625"/><text fill="#000000" font-family="sans-serif" font-size="13" font-weight="bold" lengthAdjust="spacing" textLength="7" x="365" y="286.3076">6</text><text fill="#000000" font-family="sans-serif" font-size="13" lengthAdjust="spacing" textLength="157" x="376" y="286.3076">findByReceiverEmail(email)</text><polygon fill="#181818" points="1109.5,315.5859,1119.5,319.5859,1109.5,323.5859,1113.5,319.5859" style="stroke:#181818;stroke-width:1.0;"/><line style="stroke:#181818;stroke-width:1.0;stroke-dasharray:2.0,2.0;" x1="658.5" x2="1115.5" y1="319.5859" y2="319.5859"/><text fill="#000000" font-family="sans-serif" font-size="13" font-weight="bold" lengthAdjust="spacing" textLength="7" x="665.5" y="314.8311">7</text><text fill="#000000" font-family="sans-serif" font-size="13" lengthAdjust="spacing" textLength="157" x="676.5" y="314.8311">findByReceiverEmail(email)</text><polygon fill="#181818" points="669.5,344.1094,659.5,348.1094,669.5,352.1094,665.5,348.1094" style="stroke:#181818;stroke-width:1.0;"/><line style="stroke:#181818;stroke-width:1.0;stroke-dasharray:2.0,2.0;" x1="663.5" x2="1125.5" y1="348.1094" y2="348.1094"/><text fill="#000000" font-family="sans-serif" font-size="13" font-weight="bold" lengthAdjust="spacing" textLength="7" x="675.5" y="343.3545">8</text><text fill="#000000" font-family="sans-serif" font-size="13" lengthAdjust="spacing" textLength="90" x="686.5" y="343.3545">notificationsList</text><line style="stroke:#181818;stroke-width:1.0;" x1="658.5" x2="705.5" y1="371.6328" y2="371.6328"/><line style="stroke:#181818;stroke-width:1.0;" x1="705.5" x2="705.5" y1="371.6328" y2="384.6328"/><line style="stroke:#181818;stroke-width:1.0;" x1="664.5" x2="705.5" y1="384.6328" y2="384.6328"/><polygon fill="#181818" points="674.5,380.6328,664.5,384.6328,674.5,388.6328,670.5,384.6328" style="stroke:#181818;stroke-width:1.0;"/><text fill="#000000" font-family="sans-serif" font-size="13" font-weight="bold" lengthAdjust="spacing" textLength="7" x="670.5" y="366.8779">9</text><text fill="#000000" font-family="sans-serif" font-size="13" lengthAdjust="spacing" textLength="192" x="681.5" y="366.8779">transformToDTO(notificationsList)</text><polygon fill="#181818" points="810,414.1563,820,418.1563,810,422.1563,814,418.1563" style="stroke:#181818;stroke-width:1.0;"/><line style="stroke:#181818;stroke-width:1.0;stroke-dasharray:2.0,2.0;" x1="663.5" x2="816" y1="418.1563" y2="418.1563"/><text fill="#000000" font-family="sans-serif" font-size="13" font-weight="bold" lengthAdjust="spacing" textLength="14" x="670.5" y="413.4014">10</text><text fill="#000000" font-family="sans-serif" font-size="13" lengthAdjust="spacing" textLength="44" x="688.5" y="413.4014">create()</text><rect fill="#E3E3E3" height="45.2813" rx="2.5" ry="2.5" style="stroke:#181818;stroke-width:0.5;" width="117" x="822" y="397.6328"/><text fill="#000000" font-family="sans-serif" font-size="14" font-style="italic" lengthAdjust="spacing" textLength="62" x="849.5" y="417.3066">&#171;domain&#187;</text><text fill="#000000" font-family="sans-serif" font-size="14" lengthAdjust="spacing" textLength="103" x="829" y="432.9473">:NotificationDTO</text><line style="stroke:#181818;stroke-width:1.0;stroke-dasharray:2.0,2.0;" x1="663.5" x2="705.5" y1="479.4375" y2="479.4375"/><line style="stroke:#181818;stroke-width:1.0;stroke-dasharray:2.0,2.0;" x1="705.5" x2="705.5" y1="479.4375" y2="492.4375"/><line style="stroke:#181818;stroke-width:1.0;stroke-dasharray:2.0,2.0;" x1="658.5" x2="705.5" y1="492.4375" y2="492.4375"/><polygon fill="#181818" points="668.5,488.4375,658.5,492.4375,668.5,496.4375,664.5,492.4375" style="stroke:#181818;stroke-width:1.0;"/><text fill="#000000" font-family="sans-serif" font-size="13" font-weight="bold" lengthAdjust="spacing" textLength="14" x="670.5" y="474.6826">11</text><text fill="#000000" font-family="sans-serif" font-size="13" lengthAdjust="spacing" textLength="90" x="688.5" y="474.6826">notificationsList</text><polygon fill="#181818" points="369,511.9609,359,515.9609,369,519.9609,365,515.9609" style="stroke:#181818;stroke-width:1.0;"/><line style="stroke:#181818;stroke-width:1.0;stroke-dasharray:2.0,2.0;" x1="363" x2="652.5" y1="515.9609" y2="515.9609"/><text fill="#000000" font-family="sans-serif" font-size="13" font-weight="bold" lengthAdjust="spacing" textLength="14" x="375" y="511.2061">12</text><text fill="#000000" font-family="sans-serif" font-size="13" lengthAdjust="spacing" textLength="90" x="393" y="511.2061">notificationsList</text><polygon fill="#181818" points="149,540.4844,139,544.4844,149,548.4844,145,544.4844" style="stroke:#181818;stroke-width:1.0;"/><line style="stroke:#181818;stroke-width:1.0;stroke-dasharray:2.0,2.0;" x1="143" x2="352" y1="544.4844" y2="544.4844"/><text fill="#000000" font-family="sans-serif" font-size="13" font-weight="bold" lengthAdjust="spacing" textLength="14" x="155" y="539.7295">13</text><text fill="#000000" font-family="sans-serif" font-size="13" lengthAdjust="spacing" textLength="90" x="173" y="539.7295">notificationsList</text><polygon fill="#181818" points="977,569.0078,987,573.0078,977,577.0078,981,573.0078" style="stroke:#181818;stroke-width:1.0;"/><line style="stroke:#181818;stroke-width:1.0;" x1="138" x2="983" y1="573.0078" y2="573.0078"/><text fill="#000000" font-family="sans-serif" font-size="13" font-weight="bold" lengthAdjust="spacing" textLength="14" x="145" y="568.2529">14</text><text fill="#000000" font-family="sans-serif" font-size="13" lengthAdjust="spacing" textLength="146" x="163" y="568.2529">serialize(notificationsList)</text><polygon fill="#181818" points="149,597.5313,139,601.5313,149,605.5313,145,601.5313" style="stroke:#181818;stroke-width:1.0;"/><line style="stroke:#181818;stroke-width:1.0;stroke-dasharray:2.0,2.0;" x1="143" x2="993" y1="601.5313" y2="601.5313"/><text fill="#000000" font-family="sans-serif" font-size="13" font-weight="bold" lengthAdjust="spacing" textLength="14" x="155" y="596.7764">15</text><text fill="#000000" font-family="sans-serif" font-size="13" lengthAdjust="spacing" textLength="61" x="173" y="596.7764">notifyResp</text><line style="stroke:#181818;stroke-width:1.0;stroke-dasharray:2.0,2.0;" x1="138" x2="180" y1="635.0547" y2="635.0547"/><line style="stroke:#181818;stroke-width:1.0;stroke-dasharray:2.0,2.0;" x1="180" x2="180" y1="635.0547" y2="648.0547"/><line style="stroke:#181818;stroke-width:1.0;stroke-dasharray:2.0,2.0;" x1="133" x2="180" y1="648.0547" y2="648.0547"/><polygon fill="#181818" points="143,644.0547,133,648.0547,143,652.0547,139,648.0547" style="stroke:#181818;stroke-width:1.0;"/><text fill="#000000" font-family="sans-serif" font-size="13" font-weight="bold" lengthAdjust="spacing" textLength="14" x="145" y="630.2998">16</text><text fill="#000000" font-family="sans-serif" font-size="13" lengthAdjust="spacing" textLength="178" x="163" y="630.2998">notifyResp(version, code, data)</text><polygon fill="#181818" points="11,667.5781,1,671.5781,11,675.5781,7,671.5781" style="stroke:#181818;stroke-width:1.0;"/><line style="stroke:#181818;stroke-width:1.0;stroke-dasharray:2.0,2.0;" x1="5" x2="132" y1="671.5781" y2="671.5781"/><text fill="#000000" font-family="sans-serif" font-size="13" font-weight="bold" lengthAdjust="spacing" textLength="14" x="17" y="666.8232">17</text><text fill="#000000" font-family="sans-serif" font-size="13" lengthAdjust="spacing" textLength="91" x="35" y="666.8232">(tcp) notifyResp</text><!--SRC=[ZLPHRjim3FtNAOZyn1dgeDt-WY90bsxOXg85clO0Yat7Qct9bPHswNLsb5rib1pRikErJJuYYNoFZnGbnJmAMN7DIoYLL4ckLObWzGwPQIqLJnxv5jTsNo1eJ2oNso9qC3bFrOkGMyXuOP0nlhDAxieDQiQii0IRtA_Xo-df6SHmOM35PIfIRl44Vi8BbnQiWWs2L5Pa0bCG4iezyAegHCAjK19USfHWSmHZ2GSg0oNzJz_FG9AJF3Jp2QpnQOSoGRWKV4iwsJGNAKAcbDsetum-9D-AH5HEmMInAWHA-uEq5QWdm0qnw6VKS7w-tXkBvNB94YMjLWLvNpkj-rjyMjLB3MPrTtj5Y40JmVg1BdOsLrgyUgkB8HBqs343SPbwH3m38g_X42NawQ2fAhauLX02B-zkF8X-Gy2qZ_YbDXTTIhTOAIEiqdiFxQR4eDl9KLZI9NWXNl7UYg9HsgryJEyWzi0q5C3YPRED2uXiKitgBdCxnzZ152zRbzOOqTmGvmaaAgL6fNRbCmOyiUBPTM2D88gMOtJt5a27WNhNEecOtjDUHhCvKfP5D7Febd0CxXp6rkCmAq_cF5DyXwpBrtMfIpOJbfAj8i_XzBGCpiET4V2Zka9rGfcGwLT29IY8wvjFfSNt2-IZJg4PnykWKngYzZA8acOqSvYMgCEmgJDqywOCjQw7NekQAs5i3GZgCkGgbAg0pFaGNPkxSdV01MpHjgBDjR_dlYjD9-IcGadNOFJG3cSrpnlP3F8vHAIzyRmtMHUfyNyZdKuldUO591fTNOz5aBLPes4Ozb26HDHb21o3i8VL-Wk0ClM5f1aBDGoFveTRPm1qji5I73Qa36prjlSFmnXVsv4TZTLScapfyavHWj4HAvr-6Ejljzeh_ATFGUbPp_gEw51rmz_3ry_B_z1Zy44jscL_gfkBRvmmWFdRm6qs-T6V0B7DhTjviwEdrlxzenPkTZQdfzYT80rsNz4pJk-l5gvn0JxFOU8kPhhLvNO2xHrTcrq7EMR6WWkvUnWMO9hfsBQmCBiEvScwwJ1PQaD3hT2lJOXkRykHvy5Ku-_3eDB-WJYFOsWYzryW5vy-_m00]--></g></svg>