<?xml version="1.0" encoding="us-ascii" standalone="no"?><svg xmlns="http://www.w3.org/2000/svg" xmlns:xlink="http://www.w3.org/1999/xlink" contentStyleType="text/css" height="445px" preserveAspectRatio="none" style="width:961px;height:445px;background:#FFFFFF;" version="1.1" viewBox="0 0 961 445" width="961px" zoomAndPan="magnify"><defs/><g><text fill="#000000" font-family="sans-serif" font-size="14" font-weight="bold" lengthAdjust="spacing" textLength="933" x="10" y="27.6738">"US 3001 - As Candidate, I want to be notified in my application when the state of one of my applications changes." Sequence Diagram</text><rect fill="#FFFFFF" height="220.1875" style="stroke:#181818;stroke-width:1.0;" width="10" x="281.25" y="127.2813"/><rect fill="#FFFFFF" height="85.5703" style="stroke:#181818;stroke-width:1.0;" width="10" x="471.25" y="147.8047"/><rect fill="#FFFFFF" height="85.5703" style="stroke:#181818;stroke-width:1.0;" width="10" x="471.25" y="261.8984"/><rect fill="#FFFFFF" height="28.5234" style="stroke:#181818;stroke-width:1.0;" width="10" x="654.25" y="176.3281"/><rect fill="#FFFFFF" height="28.5234" style="stroke:#181818;stroke-width:1.0;" width="10" x="654.25" y="290.4219"/><line style="stroke:#181818;stroke-width:0.5;stroke-dasharray:5.0,5.0;" x1="285.75" x2="285.75" y1="117.2813" y2="365.4688"/><line style="stroke:#181818;stroke-width:0.5;stroke-dasharray:5.0,5.0;" x1="476.25" x2="476.25" y1="117.2813" y2="365.4688"/><line style="stroke:#181818;stroke-width:0.5;stroke-dasharray:5.0,5.0;" x1="659.25" x2="659.25" y1="117.2813" y2="365.4688"/><text fill="#000000" font-family="sans-serif" font-size="14" lengthAdjust="spacing" textLength="65" x="250.75" y="114.3145">Candidate</text><ellipse cx="286.25" cy="50.1406" fill="#E3E3E3" rx="8" ry="8" style="stroke:#181818;stroke-width:0.5;"/><path d="M286.25,58.1406 L286.25,85.1406 M273.25,66.1406 L299.25,66.1406 M286.25,85.1406 L273.25,100.1406 M286.25,85.1406 L299.25,100.1406 " fill="none" style="stroke:#181818;stroke-width:0.5;"/><text fill="#000000" font-family="sans-serif" font-size="14" lengthAdjust="spacing" textLength="65" x="250.75" y="377.1426">Candidate</text><ellipse cx="286.25" cy="388.6094" fill="#E3E3E3" rx="8" ry="8" style="stroke:#181818;stroke-width:0.5;"/><path d="M286.25,396.6094 L286.25,423.6094 M273.25,404.6094 L299.25,404.6094 M286.25,423.6094 L273.25,438.6094 M286.25,423.6094 L299.25,438.6094 " fill="none" style="stroke:#181818;stroke-width:0.5;"/><rect fill="#E3E3E3" height="45.2813" rx="2.5" ry="2.5" style="stroke:#181818;stroke-width:0.5;" width="108" x="422.25" y="71"/><text fill="#000000" font-family="sans-serif" font-size="14" font-style="italic" lengthAdjust="spacing" textLength="62" x="445.25" y="90.6738">&#171;System&#187;</text><text fill="#000000" font-family="sans-serif" font-size="14" lengthAdjust="spacing" textLength="94" x="429.25" y="106.3145">:CandidateApp</text><rect fill="#E3E3E3" height="45.2813" rx="2.5" ry="2.5" style="stroke:#181818;stroke-width:0.5;" width="108" x="422.25" y="364.4688"/><text fill="#000000" font-family="sans-serif" font-size="14" font-style="italic" lengthAdjust="spacing" textLength="62" x="445.25" y="384.1426">&#171;System&#187;</text><text fill="#000000" font-family="sans-serif" font-size="14" lengthAdjust="spacing" textLength="94" x="429.25" y="399.7832">:CandidateApp</text><rect fill="#E3E3E3" height="45.2813" rx="2.5" ry="2.5" style="stroke:#181818;stroke-width:0.5;" width="88" x="615.25" y="71"/><text fill="#000000" font-family="sans-serif" font-size="14" font-style="italic" lengthAdjust="spacing" textLength="62" x="628.25" y="90.6738">&#171;System&#187;</text><text fill="#000000" font-family="sans-serif" font-size="14" lengthAdjust="spacing" textLength="74" x="622.25" y="106.3145">:TCPServer</text><rect fill="#E3E3E3" height="45.2813" rx="2.5" ry="2.5" style="stroke:#181818;stroke-width:0.5;" width="88" x="615.25" y="364.4688"/><text fill="#000000" font-family="sans-serif" font-size="14" font-style="italic" lengthAdjust="spacing" textLength="62" x="628.25" y="384.1426">&#171;System&#187;</text><text fill="#000000" font-family="sans-serif" font-size="14" lengthAdjust="spacing" textLength="74" x="622.25" y="399.7832">:TCPServer</text><rect fill="#FFFFFF" height="220.1875" style="stroke:#181818;stroke-width:1.0;" width="10" x="281.25" y="127.2813"/><rect fill="#FFFFFF" height="85.5703" style="stroke:#181818;stroke-width:1.0;" width="10" x="471.25" y="147.8047"/><rect fill="#FFFFFF" height="85.5703" style="stroke:#181818;stroke-width:1.0;" width="10" x="471.25" y="261.8984"/><rect fill="#FFFFFF" height="28.5234" style="stroke:#181818;stroke-width:1.0;" width="10" x="654.25" y="176.3281"/><rect fill="#FFFFFF" height="28.5234" style="stroke:#181818;stroke-width:1.0;" width="10" x="654.25" y="290.4219"/><polygon fill="#181818" points="459.25,143.8047,469.25,147.8047,459.25,151.8047,463.25,147.8047" style="stroke:#181818;stroke-width:1.0;"/><line style="stroke:#181818;stroke-width:1.0;" x1="291.25" x2="465.25" y1="147.8047" y2="147.8047"/><text fill="#000000" font-family="sans-serif" font-size="13" font-weight="bold" lengthAdjust="spacing" textLength="7" x="298.25" y="143.0498">1</text><text fill="#000000" font-family="sans-serif" font-size="13" lengthAdjust="spacing" textLength="141" x="309.25" y="143.0498">asks to see notifications</text><polygon fill="#181818" points="642.25,172.3281,652.25,176.3281,642.25,180.3281,646.25,176.3281" style="stroke:#181818;stroke-width:1.0;"/><line style="stroke:#181818;stroke-width:1.0;" x1="481.25" x2="648.25" y1="176.3281" y2="176.3281"/><text fill="#000000" font-family="sans-serif" font-size="13" font-weight="bold" lengthAdjust="spacing" textLength="7" x="488.25" y="171.5732">2</text><text fill="#000000" font-family="sans-serif" font-size="13" lengthAdjust="spacing" textLength="84" x="499.25" y="171.5732">(tcp) notifyReq</text><polygon fill="#181818" points="492.25,200.8516,482.25,204.8516,492.25,208.8516,488.25,204.8516" style="stroke:#181818;stroke-width:1.0;"/><line style="stroke:#181818;stroke-width:1.0;stroke-dasharray:2.0,2.0;" x1="486.25" x2="658.25" y1="204.8516" y2="204.8516"/><text fill="#000000" font-family="sans-serif" font-size="13" font-weight="bold" lengthAdjust="spacing" textLength="7" x="498.25" y="200.0967">3</text><text fill="#000000" font-family="sans-serif" font-size="13" lengthAdjust="spacing" textLength="91" x="509.25" y="200.0967">(tcp) notifyResp</text><polygon fill="#181818" points="302.25,229.375,292.25,233.375,302.25,237.375,298.25,233.375" style="stroke:#181818;stroke-width:1.0;"/><line style="stroke:#181818;stroke-width:1.0;stroke-dasharray:2.0,2.0;" x1="296.25" x2="475.25" y1="233.375" y2="233.375"/><text fill="#000000" font-family="sans-serif" font-size="13" font-weight="bold" lengthAdjust="spacing" textLength="7" x="308.25" y="228.6201">4</text><text fill="#000000" font-family="sans-serif" font-size="13" lengthAdjust="spacing" textLength="138" x="319.25" y="228.6201">show list of notifications</text><polygon fill="#181818" points="459.25,257.8984,469.25,261.8984,459.25,265.8984,463.25,261.8984" style="stroke:#181818;stroke-width:1.0;"/><line style="stroke:#181818;stroke-width:1.0;" x1="291.25" x2="465.25" y1="261.8984" y2="261.8984"/><text fill="#000000" font-family="sans-serif" font-size="13" font-weight="bold" lengthAdjust="spacing" textLength="7" x="298.25" y="257.1436">5</text><text fill="#000000" font-family="sans-serif" font-size="13" lengthAdjust="spacing" textLength="108" x="309.25" y="257.1436">choose notification</text><polygon fill="#181818" points="642.25,286.4219,652.25,290.4219,642.25,294.4219,646.25,290.4219" style="stroke:#181818;stroke-width:1.0;"/><line style="stroke:#181818;stroke-width:1.0;" x1="481.25" x2="648.25" y1="290.4219" y2="290.4219"/><text fill="#000000" font-family="sans-serif" font-size="13" font-weight="bold" lengthAdjust="spacing" textLength="7" x="488.25" y="285.667">6</text><text fill="#000000" font-family="sans-serif" font-size="13" lengthAdjust="spacing" textLength="131" x="499.25" y="285.667">(tcp) maskAsReadRep</text><polygon fill="#181818" points="492.25,314.9453,482.25,318.9453,492.25,322.9453,488.25,318.9453" style="stroke:#181818;stroke-width:1.0;"/><line style="stroke:#181818;stroke-width:1.0;stroke-dasharray:2.0,2.0;" x1="486.25" x2="658.25" y1="318.9453" y2="318.9453"/><text fill="#000000" font-family="sans-serif" font-size="13" font-weight="bold" lengthAdjust="spacing" textLength="7" x="498.25" y="314.1904">7</text><text fill="#000000" font-family="sans-serif" font-size="13" lengthAdjust="spacing" textLength="138" x="509.25" y="314.1904">(tcp) maskAsReadResp</text><polygon fill="#181818" points="297.25,343.4688,287.25,347.4688,297.25,351.4688,293.25,347.4688" style="stroke:#181818;stroke-width:1.0;"/><line style="stroke:#181818;stroke-width:1.0;stroke-dasharray:2.0,2.0;" x1="291.25" x2="475.25" y1="347.4688" y2="347.4688"/><text fill="#000000" font-family="sans-serif" font-size="13" font-weight="bold" lengthAdjust="spacing" textLength="7" x="303.25" y="342.7139">8</text><text fill="#000000" font-family="sans-serif" font-size="13" lengthAdjust="spacing" textLength="145" x="314.25" y="342.7139">shows list of notifications</text><!--SRC=[hP5DRi9038NtSmehcxPIgQYwGmW9qKrt5MaFO2Q6Z4Z6GsoWtBuJGY6Xe4eLiycF_Ju_lv6bym4hBA5appQlk2JGQar6ZfM0TeaBIdLN45Ha5VsYQ3T8ZXbldL_070iXOt2jxDVbZ2fZr6cK9PyflFJxpz23iS04VUOoL7g4DzYYLr266O5dTND76JWFvGumXC9PLCSUjZbvq9n0DEg0vy1-_-Zs2TWysYDvIY2brPgy9NXrk8W-pLtkCe8viyxuow1LhY0vUaa0epDZuaxgh0krhMHmB8z3Q3fQFs0uJ7UYL8v6PxAFoNjArOQglQPvRNVNqzsctYHEX7Wcq1jrsOEeN4gTZD1FD8SbJQEfpudJqfxA7MASS70oW7kruQ6XxgQqQX5FoARvL6Y-Ux-DTc4IZfACpc4NdUsHaICvRw5melN5dcry0NbbvTxep9xDcQKRuQq2BECTZMLAc4qft233DkzVESOOwnJbZnYlfjWkc6y0]--></g></svg>