<?xml version="1.0" encoding="us-ascii" standalone="no"?><svg xmlns="http://www.w3.org/2000/svg" xmlns:xlink="http://www.w3.org/1999/xlink" contentStyleType="text/css" height="839px" preserveAspectRatio="none" style="width:1634px;height:839px;background:#FFFFFF;" version="1.1" viewBox="0 0 1634 839" width="1634px" zoomAndPan="magnify"><defs/><g><rect fill="#FFFFFF" height="659.75" style="stroke:#181818;stroke-width:1.0;" width="10" x="46.5" y="90.6406"/><rect fill="#FFFFFF" height="444.0859" style="stroke:#181818;stroke-width:1.0;" width="10" x="343.5" y="111.1641"/><rect fill="#FFFFFF" height="127.0938" style="stroke:#181818;stroke-width:1.0;" width="10" x="343.5" y="607.2969"/><rect fill="#FFFFFF" height="313.7578" style="stroke:#181818;stroke-width:1.0;" width="10" x="625.5" y="212.9688"/><rect fill="#FFFFFF" height="70.0469" style="stroke:#181818;stroke-width:1.0;" width="10" x="625.5" y="635.8203"/><rect fill="#FFFFFF" height="57.0469" style="stroke:#181818;stroke-width:1.0;" width="10" x="919.5" y="241.4922"/><rect fill="#FFFFFF" height="114.0938" style="stroke:#181818;stroke-width:1.0;" width="10" x="1205" y="327.0625"/><rect fill="#FFFFFF" height="57.0469" style="stroke:#181818;stroke-width:1.0;" width="10" x="1384" y="355.5859"/><rect fill="#FFFFFF" height="28.5234" style="stroke:#181818;stroke-width:1.0;" width="10" x="1542" y="469.6797"/><rect fill="none" height="172.1406" style="stroke:#000000;stroke-width:1.5;" width="914.5" x="10" y="570.25"/><line style="stroke:#181818;stroke-width:0.5;stroke-dasharray:5.0,5.0;" x1="51" x2="51" y1="80.6406" y2="759.3906"/><line style="stroke:#181818;stroke-width:0.5;stroke-dasharray:5.0,5.0;" x1="348" x2="348" y1="80.6406" y2="759.3906"/><line style="stroke:#181818;stroke-width:0.5;stroke-dasharray:5.0,5.0;" x1="630" x2="630" y1="165.8047" y2="759.3906"/><line style="stroke:#181818;stroke-width:0.5;stroke-dasharray:5.0,5.0;" x1="924" x2="924" y1="80.6406" y2="759.3906"/><line style="stroke:#181818;stroke-width:0.5;stroke-dasharray:5.0,5.0;" x1="1058" x2="1058" y1="80.6406" y2="759.3906"/><line style="stroke:#181818;stroke-width:0.5;stroke-dasharray:5.0,5.0;" x1="1210" x2="1210" y1="80.6406" y2="759.3906"/><line style="stroke:#181818;stroke-width:0.5;stroke-dasharray:5.0,5.0;" x1="1389" x2="1389" y1="80.6406" y2="759.3906"/><line style="stroke:#181818;stroke-width:0.5;stroke-dasharray:5.0,5.0;" x1="1547" x2="1547" y1="80.6406" y2="759.3906"/><text fill="#000000" font-family="sans-serif" font-size="14" lengthAdjust="spacing" textLength="57" x="20" y="77.6738">Operator</text><ellipse cx="51.5" cy="13.5" fill="#E3E3E3" rx="8" ry="8" style="stroke:#181818;stroke-width:0.5;"/><path d="M51.5,21.5 L51.5,48.5 M38.5,29.5 L64.5,29.5 M51.5,48.5 L38.5,63.5 M51.5,48.5 L64.5,63.5 " fill="none" style="stroke:#181818;stroke-width:0.5;"/><text fill="#000000" font-family="sans-serif" font-size="14" lengthAdjust="spacing" textLength="57" x="20" y="771.0645">Operator</text><ellipse cx="51.5" cy="782.5313" fill="#E3E3E3" rx="8" ry="8" style="stroke:#181818;stroke-width:0.5;"/><path d="M51.5,790.5313 L51.5,817.5313 M38.5,798.5313 L64.5,798.5313 M51.5,817.5313 L38.5,832.5313 M51.5,817.5313 L64.5,832.5313 " fill="none" style="stroke:#181818;stroke-width:0.5;"/><rect fill="#E3E3E3" height="45.2813" rx="2.5" ry="2.5" style="stroke:#181818;stroke-width:0.5;" width="251" x="223" y="34.3594"/><text fill="#000000" font-family="sans-serif" font-size="14" font-style="italic" lengthAdjust="spacing" textLength="95" x="301" y="54.0332">&#171;presentation&#187;</text><text fill="#000000" font-family="sans-serif" font-size="14" lengthAdjust="spacing" textLength="237" x="230" y="69.6738">:GenerateRequirementSpecificationUI</text><rect fill="#E3E3E3" height="45.2813" rx="2.5" ry="2.5" style="stroke:#181818;stroke-width:0.5;" width="251" x="223" y="758.3906"/><text fill="#000000" font-family="sans-serif" font-size="14" font-style="italic" lengthAdjust="spacing" textLength="95" x="301" y="778.0645">&#171;presentation&#187;</text><text fill="#000000" font-family="sans-serif" font-size="14" lengthAdjust="spacing" textLength="237" x="230" y="793.7051">:GenerateRequirementSpecificationUI</text><text fill="#000000" font-family="sans-serif" font-size="14" font-style="italic" lengthAdjust="spacing" textLength="84" x="585.5" y="771.0645">&#171;application&#187;</text><text fill="#000000" font-family="sans-serif" font-size="14" lengthAdjust="spacing" textLength="287" x="484" y="786.7051">:GenerateRequirementSpecificationController</text><ellipse cx="630.5" cy="805.6719" fill="#E3E3E3" rx="12" ry="12" style="stroke:#181818;stroke-width:0.5;"/><polygon fill="#181818" points="626.5,793.6719,632.5,788.6719,630.5,793.6719,632.5,798.6719,626.5,793.6719" style="stroke:#181818;stroke-width:1.0;"/><rect fill="#E3E3E3" height="45.2813" rx="2.5" ry="2.5" style="stroke:#181818;stroke-width:0.5;" width="101" x="874" y="34.3594"/><text fill="#000000" font-family="sans-serif" font-size="14" font-style="italic" lengthAdjust="spacing" textLength="84" x="882.5" y="54.0332">&#171;application&#187;</text><text fill="#000000" font-family="sans-serif" font-size="14" lengthAdjust="spacing" textLength="87" x="881" y="69.6738">AuthzRegistry</text><rect fill="#E3E3E3" height="45.2813" rx="2.5" ry="2.5" style="stroke:#181818;stroke-width:0.5;" width="101" x="874" y="758.3906"/><text fill="#000000" font-family="sans-serif" font-size="14" font-style="italic" lengthAdjust="spacing" textLength="84" x="882.5" y="778.0645">&#171;application&#187;</text><text fill="#000000" font-family="sans-serif" font-size="14" lengthAdjust="spacing" textLength="87" x="881" y="793.7051">AuthzRegistry</text><rect fill="#E3E3E3" height="45.2813" rx="2.5" ry="2.5" style="stroke:#181818;stroke-width:0.5;" width="147" x="985" y="34.3594"/><text fill="#000000" font-family="sans-serif" font-size="14" font-style="italic" lengthAdjust="spacing" textLength="84" x="1016.5" y="54.0332">&#171;application&#187;</text><text fill="#000000" font-family="sans-serif" font-size="14" lengthAdjust="spacing" textLength="133" x="992" y="69.6738">:AuthorizationService</text><rect fill="#E3E3E3" height="45.2813" rx="2.5" ry="2.5" style="stroke:#181818;stroke-width:0.5;" width="147" x="985" y="758.3906"/><text fill="#000000" font-family="sans-serif" font-size="14" font-style="italic" lengthAdjust="spacing" textLength="84" x="1016.5" y="778.0645">&#171;application&#187;</text><text fill="#000000" font-family="sans-serif" font-size="14" lengthAdjust="spacing" textLength="133" x="992" y="793.7051">:AuthorizationService</text><rect fill="#E3E3E3" height="45.2813" rx="2.5" ry="2.5" style="stroke:#181818;stroke-width:0.5;" width="136" x="1142" y="34.3594"/><text fill="#000000" font-family="sans-serif" font-size="14" font-style="italic" lengthAdjust="spacing" textLength="89" x="1165.5" y="54.0332">&#171;persistence&#187;</text><text fill="#000000" font-family="sans-serif" font-size="14" lengthAdjust="spacing" textLength="122" x="1149" y="69.6738">PersistenceContext</text><rect fill="#E3E3E3" height="45.2813" rx="2.5" ry="2.5" style="stroke:#181818;stroke-width:0.5;" width="136" x="1142" y="758.3906"/><text fill="#000000" font-family="sans-serif" font-size="14" font-style="italic" lengthAdjust="spacing" textLength="89" x="1165.5" y="778.0645">&#171;persistence&#187;</text><text fill="#000000" font-family="sans-serif" font-size="14" lengthAdjust="spacing" textLength="122" x="1149" y="793.7051">PersistenceContext</text><rect fill="#E3E3E3" height="45.2813" rx="2.5" ry="2.5" style="stroke:#181818;stroke-width:0.5;" width="134" x="1322" y="34.3594"/><text fill="#000000" font-family="sans-serif" font-size="14" font-style="italic" lengthAdjust="spacing" textLength="89" x="1344.5" y="54.0332">&#171;persistence&#187;</text><text fill="#000000" font-family="sans-serif" font-size="14" lengthAdjust="spacing" textLength="120" x="1329" y="69.6738">:RepositoryFactory</text><rect fill="#E3E3E3" height="45.2813" rx="2.5" ry="2.5" style="stroke:#181818;stroke-width:0.5;" width="134" x="1322" y="758.3906"/><text fill="#000000" font-family="sans-serif" font-size="14" font-style="italic" lengthAdjust="spacing" textLength="89" x="1344.5" y="778.0645">&#171;persistence&#187;</text><text fill="#000000" font-family="sans-serif" font-size="14" lengthAdjust="spacing" textLength="120" x="1329" y="793.7051">:RepositoryFactory</text><rect fill="#E3E3E3" height="45.2813" rx="2.5" ry="2.5" style="stroke:#181818;stroke-width:0.5;" width="162" x="1466" y="34.3594"/><text fill="#000000" font-family="sans-serif" font-size="14" font-style="italic" lengthAdjust="spacing" textLength="79" x="1507.5" y="54.0332">&#171;repository&#187;</text><text fill="#000000" font-family="sans-serif" font-size="14" lengthAdjust="spacing" textLength="148" x="1473" y="69.6738">:JobOpeningRepository</text><rect fill="#E3E3E3" height="45.2813" rx="2.5" ry="2.5" style="stroke:#181818;stroke-width:0.5;" width="162" x="1466" y="758.3906"/><text fill="#000000" font-family="sans-serif" font-size="14" font-style="italic" lengthAdjust="spacing" textLength="79" x="1507.5" y="778.0645">&#171;repository&#187;</text><text fill="#000000" font-family="sans-serif" font-size="14" lengthAdjust="spacing" textLength="148" x="1473" y="793.7051">:JobOpeningRepository</text><rect fill="#FFFFFF" height="659.75" style="stroke:#181818;stroke-width:1.0;" width="10" x="46.5" y="90.6406"/><rect fill="#FFFFFF" height="444.0859" style="stroke:#181818;stroke-width:1.0;" width="10" x="343.5" y="111.1641"/><rect fill="#FFFFFF" height="127.0938" style="stroke:#181818;stroke-width:1.0;" width="10" x="343.5" y="607.2969"/><rect fill="#FFFFFF" height="313.7578" style="stroke:#181818;stroke-width:1.0;" width="10" x="625.5" y="212.9688"/><rect fill="#FFFFFF" height="70.0469" style="stroke:#181818;stroke-width:1.0;" width="10" x="625.5" y="635.8203"/><rect fill="#FFFFFF" height="57.0469" style="stroke:#181818;stroke-width:1.0;" width="10" x="919.5" y="241.4922"/><rect fill="#FFFFFF" height="114.0938" style="stroke:#181818;stroke-width:1.0;" width="10" x="1205" y="327.0625"/><rect fill="#FFFFFF" height="57.0469" style="stroke:#181818;stroke-width:1.0;" width="10" x="1384" y="355.5859"/><rect fill="#FFFFFF" height="28.5234" style="stroke:#181818;stroke-width:1.0;" width="10" x="1542" y="469.6797"/><polygon fill="#181818" points="331.5,107.1641,341.5,111.1641,331.5,115.1641,335.5,111.1641" style="stroke:#181818;stroke-width:1.0;"/><line style="stroke:#181818;stroke-width:1.0;" x1="56.5" x2="337.5" y1="111.1641" y2="111.1641"/><text fill="#000000" font-family="sans-serif" font-size="13" font-weight="bold" lengthAdjust="spacing" textLength="7" x="63.5" y="106.4092">1</text><text fill="#000000" font-family="sans-serif" font-size="13" lengthAdjust="spacing" textLength="202" x="74.5" y="106.4092">Generate Interview Model Template</text><polygon fill="#181818" points="472,135.6875,482,139.6875,472,143.6875,476,139.6875" style="stroke:#181818;stroke-width:1.0;"/><line style="stroke:#181818;stroke-width:1.0;" x1="353.5" x2="478" y1="139.6875" y2="139.6875"/><text fill="#000000" font-family="sans-serif" font-size="13" font-weight="bold" lengthAdjust="spacing" textLength="7" x="360.5" y="134.9326">2</text><text fill="#000000" font-family="sans-serif" font-size="13" lengthAdjust="spacing" textLength="36" x="371.5" y="134.9326">create</text><text fill="#000000" font-family="sans-serif" font-size="14" font-style="italic" lengthAdjust="spacing" textLength="84" x="585.5" y="163.8379">&#171;application&#187;</text><text fill="#000000" font-family="sans-serif" font-size="14" lengthAdjust="spacing" textLength="287" x="484" y="179.4785">:GenerateRequirementSpecificationController</text><ellipse cx="630.5" cy="135.1641" fill="#E3E3E3" rx="12" ry="12" style="stroke:#181818;stroke-width:0.5;"/><polygon fill="#181818" points="626.5,123.1641,632.5,118.1641,630.5,123.1641,632.5,128.1641,626.5,123.1641" style="stroke:#181818;stroke-width:1.0;"/><polygon fill="#181818" points="613.5,208.9688,623.5,212.9688,613.5,216.9688,617.5,212.9688" style="stroke:#181818;stroke-width:1.0;"/><line style="stroke:#181818;stroke-width:1.0;" x1="353.5" x2="619.5" y1="212.9688" y2="212.9688"/><text fill="#000000" font-family="sans-serif" font-size="13" font-weight="bold" lengthAdjust="spacing" textLength="7" x="360.5" y="208.2139">3</text><text fill="#000000" font-family="sans-serif" font-size="13" lengthAdjust="spacing" textLength="96" x="371.5" y="208.2139">allJobOpenings()</text><polygon fill="#181818" points="907.5,237.4922,917.5,241.4922,907.5,245.4922,911.5,241.4922" style="stroke:#181818;stroke-width:1.0;"/><line style="stroke:#181818;stroke-width:1.0;" x1="635.5" x2="913.5" y1="241.4922" y2="241.4922"/><text fill="#000000" font-family="sans-serif" font-size="13" font-weight="bold" lengthAdjust="spacing" textLength="7" x="642.5" y="236.7373">4</text><text fill="#000000" font-family="sans-serif" font-size="13" lengthAdjust="spacing" textLength="124" x="653.5" y="236.7373">authorizationService()</text><polygon fill="#181818" points="1046.5,266.0156,1056.5,270.0156,1046.5,274.0156,1050.5,270.0156" style="stroke:#181818;stroke-width:1.0;"/><line style="stroke:#181818;stroke-width:1.0;" x1="929.5" x2="1052.5" y1="270.0156" y2="270.0156"/><text fill="#000000" font-family="sans-serif" font-size="13" font-weight="bold" lengthAdjust="spacing" textLength="7" x="936.5" y="265.2607">5</text><text fill="#000000" font-family="sans-serif" font-size="13" lengthAdjust="spacing" textLength="44" x="947.5" y="265.2607">create()</text><polygon fill="#181818" points="646.5,294.5391,636.5,298.5391,646.5,302.5391,642.5,298.5391" style="stroke:#181818;stroke-width:1.0;"/><line style="stroke:#181818;stroke-width:1.0;stroke-dasharray:2.0,2.0;" x1="640.5" x2="923.5" y1="298.5391" y2="298.5391"/><text fill="#000000" font-family="sans-serif" font-size="13" font-weight="bold" lengthAdjust="spacing" textLength="7" x="652.5" y="293.7842">6</text><text fill="#000000" font-family="sans-serif" font-size="13" lengthAdjust="spacing" textLength="32" x="663.5" y="293.7842">authz</text><polygon fill="#181818" points="1193,323.0625,1203,327.0625,1193,331.0625,1197,327.0625" style="stroke:#181818;stroke-width:1.0;"/><line style="stroke:#181818;stroke-width:1.0;" x1="635.5" x2="1199" y1="327.0625" y2="327.0625"/><text fill="#000000" font-family="sans-serif" font-size="13" font-weight="bold" lengthAdjust="spacing" textLength="7" x="642.5" y="322.3076">7</text><text fill="#000000" font-family="sans-serif" font-size="13" lengthAdjust="spacing" textLength="75" x="653.5" y="322.3076">repositories()</text><polygon fill="#181818" points="1372,351.5859,1382,355.5859,1372,359.5859,1376,355.5859" style="stroke:#181818;stroke-width:1.0;"/><line style="stroke:#181818;stroke-width:1.0;" x1="1215" x2="1378" y1="355.5859" y2="355.5859"/><text fill="#000000" font-family="sans-serif" font-size="13" font-weight="bold" lengthAdjust="spacing" textLength="7" x="1222" y="350.8311">8</text><text fill="#000000" font-family="sans-serif" font-size="13" lengthAdjust="spacing" textLength="80" x="1233" y="350.8311">jobOpenings()</text><polygon fill="#181818" points="1535,380.1094,1545,384.1094,1535,388.1094,1539,384.1094" style="stroke:#181818;stroke-width:1.0;"/><line style="stroke:#181818;stroke-width:1.0;" x1="1394" x2="1541" y1="384.1094" y2="384.1094"/><text fill="#000000" font-family="sans-serif" font-size="13" font-weight="bold" lengthAdjust="spacing" textLength="7" x="1401" y="379.3545">9</text><text fill="#000000" font-family="sans-serif" font-size="13" lengthAdjust="spacing" textLength="44" x="1412" y="379.3545">create()</text><polygon fill="#181818" points="1226,408.6328,1216,412.6328,1226,416.6328,1222,412.6328" style="stroke:#181818;stroke-width:1.0;"/><line style="stroke:#181818;stroke-width:1.0;stroke-dasharray:2.0,2.0;" x1="1220" x2="1388" y1="412.6328" y2="412.6328"/><text fill="#000000" font-family="sans-serif" font-size="13" font-weight="bold" lengthAdjust="spacing" textLength="14" x="1232" y="407.8779">10</text><text fill="#000000" font-family="sans-serif" font-size="13" lengthAdjust="spacing" textLength="127" x="1250" y="407.8779">jobOpeningRepository</text><polygon fill="#181818" points="646.5,437.1563,636.5,441.1563,646.5,445.1563,642.5,441.1563" style="stroke:#181818;stroke-width:1.0;"/><line style="stroke:#181818;stroke-width:1.0;stroke-dasharray:2.0,2.0;" x1="640.5" x2="1209" y1="441.1563" y2="441.1563"/><text fill="#000000" font-family="sans-serif" font-size="13" font-weight="bold" lengthAdjust="spacing" textLength="14" x="652.5" y="436.4014">11</text><text fill="#000000" font-family="sans-serif" font-size="13" lengthAdjust="spacing" textLength="127" x="670.5" y="436.4014">jobOpeningRepository</text><polygon fill="#181818" points="1530,465.6797,1540,469.6797,1530,473.6797,1534,469.6797" style="stroke:#181818;stroke-width:1.0;"/><line style="stroke:#181818;stroke-width:1.0;" x1="635.5" x2="1536" y1="469.6797" y2="469.6797"/><text fill="#000000" font-family="sans-serif" font-size="13" font-weight="bold" lengthAdjust="spacing" textLength="14" x="642.5" y="464.9248">12</text><text fill="#000000" font-family="sans-serif" font-size="13" lengthAdjust="spacing" textLength="80" x="660.5" y="464.9248">jobOpenings()</text><polygon fill="#181818" points="646.5,494.2031,636.5,498.2031,646.5,502.2031,642.5,498.2031" style="stroke:#181818;stroke-width:1.0;"/><line style="stroke:#181818;stroke-width:1.0;stroke-dasharray:2.0,2.0;" x1="640.5" x2="1546" y1="498.2031" y2="498.2031"/><text fill="#000000" font-family="sans-serif" font-size="13" font-weight="bold" lengthAdjust="spacing" textLength="14" x="652.5" y="493.4482">13</text><text fill="#000000" font-family="sans-serif" font-size="13" lengthAdjust="spacing" textLength="88" x="670.5" y="493.4482">allJobOpenings</text><polygon fill="#181818" points="364.5,522.7266,354.5,526.7266,364.5,530.7266,360.5,526.7266" style="stroke:#181818;stroke-width:1.0;"/><line style="stroke:#181818;stroke-width:1.0;stroke-dasharray:2.0,2.0;" x1="358.5" x2="629.5" y1="526.7266" y2="526.7266"/><text fill="#000000" font-family="sans-serif" font-size="13" font-weight="bold" lengthAdjust="spacing" textLength="14" x="370.5" y="521.9717">14</text><text fill="#000000" font-family="sans-serif" font-size="13" lengthAdjust="spacing" textLength="88" x="388.5" y="521.9717">allJobOpenings</text><polygon fill="#181818" points="67.5,551.25,57.5,555.25,67.5,559.25,63.5,555.25" style="stroke:#181818;stroke-width:1.0;"/><line style="stroke:#181818;stroke-width:1.0;stroke-dasharray:2.0,2.0;" x1="61.5" x2="347.5" y1="555.25" y2="555.25"/><text fill="#000000" font-family="sans-serif" font-size="13" font-weight="bold" lengthAdjust="spacing" textLength="14" x="73.5" y="550.4951">15</text><text fill="#000000" font-family="sans-serif" font-size="13" lengthAdjust="spacing" textLength="219" x="91.5" y="550.4951">Show the list of jobOpening to choose</text><path d="M10,570.25 L71,570.25 L71,576.7734 L61,586.7734 L10,586.7734 L10,570.25 " fill="#EEEEEE" style="stroke:#000000;stroke-width:1.5;"/><rect fill="none" height="172.1406" style="stroke:#000000;stroke-width:1.5;" width="914.5" x="10" y="570.25"/><text fill="#000000" font-family="sans-serif" font-size="13" font-weight="bold" lengthAdjust="spacing" textLength="16" x="25" y="583.0186">alt</text><text fill="#000000" font-family="sans-serif" font-size="11" font-weight="bold" lengthAdjust="spacing" textLength="64" x="86" y="582.208">[option != 0]</text><polygon fill="#181818" points="331.5,603.2969,341.5,607.2969,331.5,611.2969,335.5,607.2969" style="stroke:#181818;stroke-width:1.0;"/><line style="stroke:#181818;stroke-width:1.0;" x1="56.5" x2="337.5" y1="607.2969" y2="607.2969"/><text fill="#000000" font-family="sans-serif" font-size="13" font-weight="bold" lengthAdjust="spacing" textLength="14" x="63.5" y="602.542">16</text><text fill="#000000" font-family="sans-serif" font-size="13" lengthAdjust="spacing" textLength="124" x="81.5" y="602.542">Choose a jobOpening</text><polygon fill="#181818" points="613.5,631.8203,623.5,635.8203,613.5,639.8203,617.5,635.8203" style="stroke:#181818;stroke-width:1.0;"/><line style="stroke:#181818;stroke-width:1.0;" x1="353.5" x2="619.5" y1="635.8203" y2="635.8203"/><text fill="#000000" font-family="sans-serif" font-size="13" font-weight="bold" lengthAdjust="spacing" textLength="14" x="360.5" y="631.0654">17</text><text fill="#000000" font-family="sans-serif" font-size="13" lengthAdjust="spacing" textLength="225" x="378.5" y="631.0654">generateInterviewTemplate(jobOpening)</text><line style="stroke:#181818;stroke-width:1.0;" x1="635.5" x2="677.5" y1="664.3438" y2="664.3438"/><line style="stroke:#181818;stroke-width:1.0;" x1="677.5" x2="677.5" y1="664.3438" y2="677.3438"/><line style="stroke:#181818;stroke-width:1.0;" x1="636.5" x2="677.5" y1="677.3438" y2="677.3438"/><polygon fill="#181818" points="646.5,673.3438,636.5,677.3438,646.5,681.3438,642.5,677.3438" style="stroke:#181818;stroke-width:1.0;"/><text fill="#000000" font-family="sans-serif" font-size="13" font-weight="bold" lengthAdjust="spacing" textLength="14" x="642.5" y="659.5889">18</text><text fill="#000000" font-family="sans-serif" font-size="13" lengthAdjust="spacing" textLength="252" x="660.5" y="659.5889">Generate the file and write the template in it</text><polygon fill="#181818" points="364.5,701.8672,354.5,705.8672,364.5,709.8672,360.5,705.8672" style="stroke:#181818;stroke-width:1.0;"/><line style="stroke:#181818;stroke-width:1.0;stroke-dasharray:2.0,2.0;" x1="358.5" x2="629.5" y1="705.8672" y2="705.8672"/><text fill="#000000" font-family="sans-serif" font-size="13" font-weight="bold" lengthAdjust="spacing" textLength="14" x="370.5" y="701.1123">19</text><text fill="#000000" font-family="sans-serif" font-size="13" lengthAdjust="spacing" textLength="42" x="388.5" y="701.1123">sucess</text><polygon fill="#181818" points="67.5,730.3906,57.5,734.3906,67.5,738.3906,63.5,734.3906" style="stroke:#181818;stroke-width:1.0;"/><line style="stroke:#181818;stroke-width:1.0;stroke-dasharray:2.0,2.0;" x1="61.5" x2="347.5" y1="734.3906" y2="734.3906"/><text fill="#000000" font-family="sans-serif" font-size="13" font-weight="bold" lengthAdjust="spacing" textLength="14" x="73.5" y="729.6357">20</text><text fill="#000000" font-family="sans-serif" font-size="13" lengthAdjust="spacing" textLength="245" x="91.5" y="729.6357">Show the success message of file created</text><!--SRC=[ZLNRRjim37tNLt1zMLSWovwDpa1GO5i631kIvWDKcOdLof8doStQhn-bkBPyGL8z63P57fBdIFJ7qllQPSjbhRZsJQK-2rCj7VvjK0jS598VBAyOSqzIrvnUeJBQYDAQ2i7R1fETceidVi2jVr485eNd-g1I1rVomXobFi2UAuUCySORtLGFQEbTU6FXTusMXnVkO1KiZ4Az5BAcyk0g-uuwEE26AfGMAzH-MwEGUocubqRlrbSXTBU6szlQegFzQCzp9epsrgXtWDoTF1NQ2DP_4YYlQzMw4UQWk5NZozSD7gJpzYL6hZPmFYGBCSRArxYxHVii1Pv2T_S_jkU3_w1rb2i85Kh4Vpv69kP0GlyrIRx1sZX99BzyY-oVYfvOBw3yD0-acYPP-yWH427OxeC0ejhocIHeHGPQyGqMUH0lWpUDO4sT4IruX5-cG0NtMD5PzHXZmkgWTciMLp3krWJK2tTpGv32OeWx1OuSQ9ihrRVYhZ-n0NZlscQWrTiMEKbD43Dgja09r6hJMbORYeiwlnL7pYqwxItoONtXU9qs2qp1EYO61IN78El8b-YwUjAI4kT-Dp4kyicfo1udP0qn9n6zpsGhnSywAixu3_eZSXvd3c4Vd_1rfggqtn7ti_0zyGb-oYHxLtusfrv21ymJFOF8fdmD6XcVyVFrpHQso7VhMPW4OkwgXFj6XprqdC6sD4Vm9O8Yfi3iamx16n2bCVHtI133pOuzAtAlm-M23r_XImS-71rtCHvu0ikcWwAlQpG73ktawGRFsyIvxl6IipbI8sr-v9Da6UHCXbqWPI_fzybr0KShMvDlAm2fGNh6nj0JWLmZqBbn0QDrIRBHcbMG4eLCKD63_lr1p5Z_wGuNx59YaY9OK1TnTFy7]--></g></svg>