<?xml version="1.0" encoding="us-ascii" standalone="no"?><svg xmlns="http://www.w3.org/2000/svg" xmlns:xlink="http://www.w3.org/1999/xlink" contentStyleType="text/css" height="1237px" preserveAspectRatio="none" style="width:2264px;height:1237px;background:#FFFFFF;" version="1.1" viewBox="0 0 2264 1237" width="2264px" zoomAndPan="magnify"><defs/><g><text fill="#000000" font-family="sans-serif" font-size="14" font-weight="bold" lengthAdjust="spacing" textLength="437" x="906.75" y="22.6738">"US2003 - Generate Requirement Specification" Class Diagram</text><!--class UI--><g id="elem_UI"><rect codeLine="5" fill="#F1F1F1" height="48" id="UI" rx="2.5" ry="2.5" style="stroke:#181818;stroke-width:0.5;" width="265" x="737" y="43.6406"/><ellipse cx="752" cy="59.6406" fill="#ADD1B2" rx="11" ry="11" style="stroke:#181818;stroke-width:1.0;"/><path d="M754.7656,55.5156 Q754.9219,55.2969 755.1094,55.1875 Q755.2969,55.0781 755.5156,55.0781 Q755.8906,55.0781 756.125,55.3438 Q756.3594,55.5938 756.3594,56.2031 L756.3594,57.6563 Q756.3594,58.2656 756.125,58.5313 Q755.8906,58.7969 755.5156,58.7969 Q755.1719,58.7969 754.9688,58.5938 Q754.7656,58.4063 754.6563,57.8906 Q754.6094,57.5313 754.4219,57.3438 Q754.0938,56.9688 753.4844,56.75 Q752.875,56.5313 752.25,56.5313 Q751.4844,56.5313 750.8438,56.8594 Q750.2188,57.1875 749.7188,57.9375 Q749.2344,58.6875 749.2344,59.7188 L749.2344,60.8125 Q749.2344,62.0469 750.125,62.875 Q751.0156,63.6875 752.6094,63.6875 Q753.5469,63.6875 754.2031,63.4375 Q754.5938,63.2813 755.0156,62.8438 Q755.2813,62.5781 755.4219,62.5 Q755.5781,62.4219 755.7813,62.4219 Q756.1094,62.4219 756.3594,62.6875 Q756.625,62.9375 756.625,63.2813 Q756.625,63.625 756.2813,64.0313 Q755.7813,64.6094 754.9844,64.9375 Q753.9063,65.3906 752.6094,65.3906 Q751.0938,65.3906 749.8906,64.7656 Q748.9063,64.2656 748.2188,63.2031 Q747.5313,62.125 747.5313,60.8438 L747.5313,59.6875 Q747.5313,58.3594 748.1406,57.2188 Q748.7656,56.0625 749.8594,55.4531 Q750.9531,54.8281 752.1875,54.8281 Q752.9219,54.8281 753.5625,55 Q754.2188,55.1563 754.7656,55.5156 Z " fill="#000000"/><text fill="#000000" font-family="sans-serif" font-size="14" lengthAdjust="spacing" textLength="233" x="766" y="64.4941">GenerateRequirementSpecificationUI</text><line style="stroke:#181818;stroke-width:0.5;" x1="738" x2="1001" y1="75.6406" y2="75.6406"/><line style="stroke:#181818;stroke-width:0.5;" x1="738" x2="1001" y1="83.6406" y2="83.6406"/></g><!--class PersistenceContext--><g id="elem_PersistenceContext"><rect codeLine="9" fill="#F1F1F1" height="63.6406" id="PersistenceContext" rx="2.5" ry="2.5" style="stroke:#181818;stroke-width:0.5;" width="154" x="585.5" y="300.1406"/><ellipse cx="600.5" cy="316.1406" fill="#ADD1B2" rx="11" ry="11" style="stroke:#181818;stroke-width:1.0;"/><path d="M603.2656,312.0156 Q603.4219,311.7969 603.6094,311.6875 Q603.7969,311.5781 604.0156,311.5781 Q604.3906,311.5781 604.625,311.8438 Q604.8594,312.0938 604.8594,312.7031 L604.8594,314.1563 Q604.8594,314.7656 604.625,315.0313 Q604.3906,315.2969 604.0156,315.2969 Q603.6719,315.2969 603.4688,315.0938 Q603.2656,314.9063 603.1563,314.3906 Q603.1094,314.0313 602.9219,313.8438 Q602.5938,313.4688 601.9844,313.25 Q601.375,313.0313 600.75,313.0313 Q599.9844,313.0313 599.3438,313.3594 Q598.7188,313.6875 598.2188,314.4375 Q597.7344,315.1875 597.7344,316.2188 L597.7344,317.3125 Q597.7344,318.5469 598.625,319.375 Q599.5156,320.1875 601.1094,320.1875 Q602.0469,320.1875 602.7031,319.9375 Q603.0938,319.7813 603.5156,319.3438 Q603.7813,319.0781 603.9219,319 Q604.0781,318.9219 604.2813,318.9219 Q604.6094,318.9219 604.8594,319.1875 Q605.125,319.4375 605.125,319.7813 Q605.125,320.125 604.7813,320.5313 Q604.2813,321.1094 603.4844,321.4375 Q602.4063,321.8906 601.1094,321.8906 Q599.5938,321.8906 598.3906,321.2656 Q597.4063,320.7656 596.7188,319.7031 Q596.0313,318.625 596.0313,317.3438 L596.0313,316.1875 Q596.0313,314.8594 596.6406,313.7188 Q597.2656,312.5625 598.3594,311.9531 Q599.4531,311.3281 600.6875,311.3281 Q601.4219,311.3281 602.0625,311.5 Q602.7188,311.6563 603.2656,312.0156 Z " fill="#000000"/><text fill="#000000" font-family="sans-serif" font-size="14" lengthAdjust="spacing" textLength="122" x="614.5" y="320.9941">PersistenceContext</text><line style="stroke:#181818;stroke-width:0.5;" x1="586.5" x2="738.5" y1="332.1406" y2="332.1406"/><line style="stroke:#181818;stroke-width:0.5;" x1="586.5" x2="738.5" y1="340.1406" y2="340.1406"/><text fill="#000000" font-family="sans-serif" font-size="14" lengthAdjust="spacing" textLength="84" x="591.5" y="356.8145">repositories()</text></g><!--class Controller--><g id="elem_Controller"><rect codeLine="13" fill="#F1F1F1" height="79.2813" id="Controller" rx="2.5" ry="2.5" style="stroke:#181818;stroke-width:0.5;" width="424" x="657.5" y="152.6406"/><ellipse cx="723.75" cy="168.6406" fill="#ADD1B2" rx="11" ry="11" style="stroke:#181818;stroke-width:1.0;"/><path d="M726.5156,164.5156 Q726.6719,164.2969 726.8594,164.1875 Q727.0469,164.0781 727.2656,164.0781 Q727.6406,164.0781 727.875,164.3438 Q728.1094,164.5938 728.1094,165.2031 L728.1094,166.6563 Q728.1094,167.2656 727.875,167.5313 Q727.6406,167.7969 727.2656,167.7969 Q726.9219,167.7969 726.7188,167.5938 Q726.5156,167.4063 726.4063,166.8906 Q726.3594,166.5313 726.1719,166.3438 Q725.8438,165.9688 725.2344,165.75 Q724.625,165.5313 724,165.5313 Q723.2344,165.5313 722.5938,165.8594 Q721.9688,166.1875 721.4688,166.9375 Q720.9844,167.6875 720.9844,168.7188 L720.9844,169.8125 Q720.9844,171.0469 721.875,171.875 Q722.7656,172.6875 724.3594,172.6875 Q725.2969,172.6875 725.9531,172.4375 Q726.3438,172.2813 726.7656,171.8438 Q727.0313,171.5781 727.1719,171.5 Q727.3281,171.4219 727.5313,171.4219 Q727.8594,171.4219 728.1094,171.6875 Q728.375,171.9375 728.375,172.2813 Q728.375,172.625 728.0313,173.0313 Q727.5313,173.6094 726.7344,173.9375 Q725.6563,174.3906 724.3594,174.3906 Q722.8438,174.3906 721.6406,173.7656 Q720.6563,173.2656 719.9688,172.2031 Q719.2813,171.125 719.2813,169.8438 L719.2813,168.6875 Q719.2813,167.3594 719.8906,166.2188 Q720.5156,165.0625 721.6094,164.4531 Q722.7031,163.8281 723.9375,163.8281 Q724.6719,163.8281 725.3125,164 Q725.9688,164.1563 726.5156,164.5156 Z " fill="#000000"/><text fill="#000000" font-family="sans-serif" font-size="14" lengthAdjust="spacing" textLength="283" x="744.25" y="173.4941">GenerateRequirementSpecificationController</text><line style="stroke:#181818;stroke-width:0.5;" x1="658.5" x2="1080.5" y1="184.6406" y2="184.6406"/><line style="stroke:#181818;stroke-width:0.5;" x1="658.5" x2="1080.5" y1="192.6406" y2="192.6406"/><ellipse cx="668.5" cy="205.9609" fill="#84BE84" rx="3" ry="3" style="stroke:#038048;stroke-width:1.0;"/><text fill="#000000" font-family="sans-serif" font-size="14" lengthAdjust="spacing" textLength="258" x="677.5" y="209.3145">allJobOpenings() : Iterable&lt;JobOpening&gt;</text><ellipse cx="668.5" cy="221.6016" fill="#84BE84" rx="3" ry="3" style="stroke:#038048;stroke-width:1.0;"/><text fill="#000000" font-family="sans-serif" font-size="14" lengthAdjust="spacing" textLength="398" x="677.5" y="224.9551">generateRequirementSpecificationTemplate(jobOpening) : void</text></g><!--class Factory--><g id="elem_Factory"><rect codeLine="18" fill="#F1F1F1" height="79.2813" id="Factory" rx="2.5" ry="2.5" style="stroke:#181818;stroke-width:0.5;" width="250" x="774.5" y="292.6406"/><ellipse cx="837.25" cy="308.6406" fill="#B4A7E5" rx="11" ry="11" style="stroke:#181818;stroke-width:1.0;"/><path d="M838.2031,305.2813 L838.2031,311.9375 L839.9219,311.9375 Q840.5313,311.9375 840.7969,312.1719 Q841.0625,312.4063 841.0625,312.7969 Q841.0625,313.1719 840.7969,313.4063 Q840.5313,313.6406 839.9219,313.6406 L834.7813,313.6406 Q834.1719,313.6406 833.9063,313.4063 Q833.6406,313.1719 833.6406,312.7813 Q833.6406,312.4063 833.9063,312.1719 Q834.1719,311.9375 834.7813,311.9375 L836.5,311.9375 L836.5,305.2813 L834.7813,305.2813 Q834.1719,305.2813 833.9063,305.0469 Q833.6406,304.8125 833.6406,304.4219 Q833.6406,304.0469 833.9063,303.8125 Q834.1719,303.5781 834.7813,303.5781 L839.9219,303.5781 Q840.5313,303.5781 840.7969,303.8125 Q841.0625,304.0469 841.0625,304.4219 Q841.0625,304.8125 840.7969,305.0469 Q840.5313,305.2813 839.9219,305.2813 L838.2031,305.2813 Z " fill="#000000"/><text fill="#000000" font-family="sans-serif" font-size="14" font-style="italic" lengthAdjust="spacing" textLength="116" x="857.75" y="313.4941">RepositoryFactory</text><line style="stroke:#181818;stroke-width:0.5;" x1="775.5" x2="1023.5" y1="324.6406" y2="324.6406"/><line style="stroke:#181818;stroke-width:0.5;" x1="775.5" x2="1023.5" y1="332.6406" y2="332.6406"/><text fill="#000000" font-family="sans-serif" font-size="14" lengthAdjust="spacing" textLength="94" x="780.5" y="349.3145">jobOpenings();</text><text fill="#000000" font-family="sans-serif" font-size="14" lengthAdjust="spacing" textLength="238" x="780.5" y="364.9551">jobOpenings(TransactionalContext tx)</text></g><!--class JobOpeningRepository--><g id="elem_JobOpeningRepository"><rect codeLine="24" fill="#F1F1F1" height="63.6406" id="JobOpeningRepository" rx="2.5" ry="2.5" style="stroke:#181818;stroke-width:0.5;" width="177" x="900" y="432.6406"/><ellipse cx="915" cy="448.6406" fill="#B4A7E5" rx="11" ry="11" style="stroke:#181818;stroke-width:1.0;"/><path d="M915.9531,445.2813 L915.9531,451.9375 L917.6719,451.9375 Q918.2813,451.9375 918.5469,452.1719 Q918.8125,452.4063 918.8125,452.7969 Q918.8125,453.1719 918.5469,453.4063 Q918.2813,453.6406 917.6719,453.6406 L912.5313,453.6406 Q911.9219,453.6406 911.6563,453.4063 Q911.3906,453.1719 911.3906,452.7813 Q911.3906,452.4063 911.6563,452.1719 Q911.9219,451.9375 912.5313,451.9375 L914.25,451.9375 L914.25,445.2813 L912.5313,445.2813 Q911.9219,445.2813 911.6563,445.0469 Q911.3906,444.8125 911.3906,444.4219 Q911.3906,444.0469 911.6563,443.8125 Q911.9219,443.5781 912.5313,443.5781 L917.6719,443.5781 Q918.2813,443.5781 918.5469,443.8125 Q918.8125,444.0469 918.8125,444.4219 Q918.8125,444.8125 918.5469,445.0469 Q918.2813,445.2813 917.6719,445.2813 L915.9531,445.2813 Z " fill="#000000"/><text fill="#000000" font-family="sans-serif" font-size="14" font-style="italic" lengthAdjust="spacing" textLength="145" x="929" y="453.4941">JobOpeningRepository</text><line style="stroke:#181818;stroke-width:0.5;" x1="901" x2="1076" y1="464.6406" y2="464.6406"/><line style="stroke:#181818;stroke-width:0.5;" x1="901" x2="1076" y1="472.6406" y2="472.6406"/><text fill="#000000" font-family="sans-serif" font-size="14" lengthAdjust="spacing" textLength="94" x="906" y="489.3145">jobOpenings();</text></g><!--class JobOpening--><g id="elem_JobOpening"><rect codeLine="29" fill="#F1F1F1" height="454.6563" id="JobOpening" rx="2.5" ry="2.5" style="stroke:#181818;stroke-width:0.5;" width="482" x="747.5" y="572.6406"/><ellipse cx="946.25" cy="588.6406" fill="#ADD1B2" rx="11" ry="11" style="stroke:#181818;stroke-width:1.0;"/><path d="M949.0156,584.5156 Q949.1719,584.2969 949.3594,584.1875 Q949.5469,584.0781 949.7656,584.0781 Q950.1406,584.0781 950.375,584.3438 Q950.6094,584.5938 950.6094,585.2031 L950.6094,586.6563 Q950.6094,587.2656 950.375,587.5313 Q950.1406,587.7969 949.7656,587.7969 Q949.4219,587.7969 949.2188,587.5938 Q949.0156,587.4063 948.9063,586.8906 Q948.8594,586.5313 948.6719,586.3438 Q948.3438,585.9688 947.7344,585.75 Q947.125,585.5313 946.5,585.5313 Q945.7344,585.5313 945.0938,585.8594 Q944.4688,586.1875 943.9688,586.9375 Q943.4844,587.6875 943.4844,588.7188 L943.4844,589.8125 Q943.4844,591.0469 944.375,591.875 Q945.2656,592.6875 946.8594,592.6875 Q947.7969,592.6875 948.4531,592.4375 Q948.8438,592.2813 949.2656,591.8438 Q949.5313,591.5781 949.6719,591.5 Q949.8281,591.4219 950.0313,591.4219 Q950.3594,591.4219 950.6094,591.6875 Q950.875,591.9375 950.875,592.2813 Q950.875,592.625 950.5313,593.0313 Q950.0313,593.6094 949.2344,593.9375 Q948.1563,594.3906 946.8594,594.3906 Q945.3438,594.3906 944.1406,593.7656 Q943.1563,593.2656 942.4688,592.2031 Q941.7813,591.125 941.7813,589.8438 L941.7813,588.6875 Q941.7813,587.3594 942.3906,586.2188 Q943.0156,585.0625 944.1094,584.4531 Q945.2031,583.8281 946.4375,583.8281 Q947.1719,583.8281 947.8125,584 Q948.4688,584.1563 949.0156,584.5156 Z " fill="#000000"/><text fill="#000000" font-family="sans-serif" font-size="14" lengthAdjust="spacing" textLength="76" x="966.75" y="593.4941">JobOpening</text><line style="stroke:#181818;stroke-width:0.5;" x1="748.5" x2="1228.5" y1="604.6406" y2="604.6406"/><rect fill="none" height="6" style="stroke:#C82930;stroke-width:1.0;" width="6" x="755.5" y="614.9609"/><text fill="#000000" font-family="sans-serif" font-size="14" lengthAdjust="spacing" textLength="185" x="767.5" y="621.3145">jobReference : JobReference</text><rect fill="none" height="6" style="stroke:#C82930;stroke-width:1.0;" width="6" x="755.5" y="630.6016"/><text fill="#000000" font-family="sans-serif" font-size="14" lengthAdjust="spacing" textLength="269" x="767.5" y="636.9551">numberOfVacancies : NumberOfVacancies</text><rect fill="none" height="6" style="stroke:#C82930;stroke-width:1.0;" width="6" x="755.5" y="646.2422"/><text fill="#000000" font-family="sans-serif" font-size="14" lengthAdjust="spacing" textLength="163" x="767.5" y="652.5957">jobFunction : JobFunction</text><rect fill="none" height="6" style="stroke:#C82930;stroke-width:1.0;" width="6" x="755.5" y="661.8828"/><text fill="#000000" font-family="sans-serif" font-size="14" lengthAdjust="spacing" textLength="181" x="767.5" y="668.2363">contractType : ContractType</text><rect fill="none" height="6" style="stroke:#C82930;stroke-width:1.0;" width="6" x="755.5" y="677.5234"/><text fill="#000000" font-family="sans-serif" font-size="14" lengthAdjust="spacing" textLength="82" x="767.5" y="683.877">mode : Mode</text><rect fill="none" height="6" style="stroke:#C82930;stroke-width:1.0;" width="6" x="755.5" y="693.1641"/><text fill="#000000" font-family="sans-serif" font-size="14" lengthAdjust="spacing" textLength="115" x="767.5" y="699.5176">address : Address</text><rect fill="none" height="6" style="stroke:#C82930;stroke-width:1.0;" width="6" x="755.5" y="708.8047"/><text fill="#000000" font-family="sans-serif" font-size="14" lengthAdjust="spacing" textLength="166" x="767.5" y="715.1582">companyName : Customer</text><rect fill="none" height="6" style="stroke:#C82930;stroke-width:1.0;" width="6" x="755.5" y="724.4453"/><text fill="#000000" font-family="sans-serif" font-size="14" lengthAdjust="spacing" textLength="148" x="767.5" y="730.7988">description :Description</text><rect fill="none" height="6" style="stroke:#C82930;stroke-width:1.0;" width="6" x="755.5" y="740.0859"/><text fill="#000000" font-family="sans-serif" font-size="14" lengthAdjust="spacing" textLength="171" x="767.5" y="746.4395">registrationDate : Calendar</text><rect fill="none" height="6" style="stroke:#C82930;stroke-width:1.0;" width="6" x="755.5" y="755.7266"/><text fill="#000000" font-family="sans-serif" font-size="14" lengthAdjust="spacing" textLength="261" x="767.5" y="762.0801">recruitmentProcess : RecruitmentProcess</text><rect fill="none" height="6" style="stroke:#C82930;stroke-width:1.0;" width="6" x="755.5" y="771.3672"/><text fill="#000000" font-family="sans-serif" font-size="14" lengthAdjust="spacing" textLength="173" x="767.5" y="777.7207">requirementsPlugin : Plugin</text><rect fill="none" height="6" style="stroke:#C82930;stroke-width:1.0;" width="6" x="755.5" y="787.0078"/><text fill="#000000" font-family="sans-serif" font-size="14" lengthAdjust="spacing" textLength="145" x="767.5" y="793.3613">interviewPlugin : Plugin</text><line style="stroke:#181818;stroke-width:0.5;" x1="748.5" x2="1228.5" y1="800.3281" y2="800.3281"/><ellipse cx="758.5" cy="813.6484" fill="#84BE84" rx="3" ry="3" style="stroke:#038048;stroke-width:1.0;"/><text fill="#000000" font-family="sans-serif" font-size="14" lengthAdjust="spacing" textLength="195" x="767.5" y="817.002">jobReference() : JobReference</text><ellipse cx="758.5" cy="829.2891" fill="#84BE84" rx="3" ry="3" style="stroke:#038048;stroke-width:1.0;"/><text fill="#000000" font-family="sans-serif" font-size="14" lengthAdjust="spacing" textLength="173" x="767.5" y="832.6426">jobFunction() : JobFunction</text><ellipse cx="758.5" cy="844.9297" fill="#84BE84" rx="3" ry="3" style="stroke:#038048;stroke-width:1.0;"/><text fill="#000000" font-family="sans-serif" font-size="14" lengthAdjust="spacing" textLength="191" x="767.5" y="848.2832">contractType() : ContractType</text><ellipse cx="758.5" cy="860.5703" fill="#84BE84" rx="3" ry="3" style="stroke:#038048;stroke-width:1.0;"/><text fill="#000000" font-family="sans-serif" font-size="14" lengthAdjust="spacing" textLength="92" x="767.5" y="863.9238">mode() : Mode</text><ellipse cx="758.5" cy="876.2109" fill="#84BE84" rx="3" ry="3" style="stroke:#038048;stroke-width:1.0;"/><text fill="#000000" font-family="sans-serif" font-size="14" lengthAdjust="spacing" textLength="125" x="767.5" y="879.5645">address() : Address</text><ellipse cx="758.5" cy="891.8516" fill="#84BE84" rx="3" ry="3" style="stroke:#038048;stroke-width:1.0;"/><text fill="#000000" font-family="sans-serif" font-size="14" lengthAdjust="spacing" textLength="176" x="767.5" y="895.2051">companyName() : Customer</text><ellipse cx="758.5" cy="907.4922" fill="#84BE84" rx="3" ry="3" style="stroke:#038048;stroke-width:1.0;"/><text fill="#000000" font-family="sans-serif" font-size="14" lengthAdjust="spacing" textLength="162" x="767.5" y="910.8457">description() : Description</text><ellipse cx="758.5" cy="923.1328" fill="#84BE84" rx="3" ry="3" style="stroke:#038048;stroke-width:1.0;"/><text fill="#000000" font-family="sans-serif" font-size="14" lengthAdjust="spacing" textLength="181" x="767.5" y="926.4863">registrationDate() : Calendar</text><ellipse cx="758.5" cy="938.7734" fill="#84BE84" rx="3" ry="3" style="stroke:#038048;stroke-width:1.0;"/><text fill="#000000" font-family="sans-serif" font-size="14" lengthAdjust="spacing" textLength="217" x="767.5" y="942.127">setId(JobReference jobReference)</text><ellipse cx="758.5" cy="954.4141" fill="#84BE84" rx="3" ry="3" style="stroke:#038048;stroke-width:1.0;"/><text fill="#000000" font-family="sans-serif" font-size="14" lengthAdjust="spacing" textLength="271" x="767.5" y="957.7676">recruitmentProcess() : RecruitmentProcess</text><ellipse cx="758.5" cy="970.0547" fill="#84BE84" rx="3" ry="3" style="stroke:#038048;stroke-width:1.0;"/><text fill="#000000" font-family="sans-serif" font-size="14" lengthAdjust="spacing" textLength="456" x="767.5" y="973.4082">putRequirementsPlugin(Plugin requirementsPlugin) : requirementsPlugin</text><ellipse cx="758.5" cy="985.6953" fill="#84BE84" rx="3" ry="3" style="stroke:#038048;stroke-width:1.0;"/><text fill="#000000" font-family="sans-serif" font-size="14" lengthAdjust="spacing" textLength="367" x="767.5" y="989.0488">putInterviewPlugin(Plugin interviewPlugin) : interviewPlugin</text><ellipse cx="758.5" cy="1001.3359" fill="#84BE84" rx="3" ry="3" style="stroke:#038048;stroke-width:1.0;"/><text fill="#000000" font-family="sans-serif" font-size="14" lengthAdjust="spacing" textLength="266" x="767.5" y="1004.6895">requirementsPlugin() : requirementsPlugin</text><ellipse cx="758.5" cy="1016.9766" fill="#84BE84" rx="3" ry="3" style="stroke:#038048;stroke-width:1.0;"/><text fill="#000000" font-family="sans-serif" font-size="14" lengthAdjust="spacing" textLength="210" x="767.5" y="1020.3301">interviewPlugin() : interviewPlugin</text></g><!--class JobReference--><g id="elem_JobReference"><rect codeLine="61" fill="#F1F1F1" height="63.6406" id="JobReference" rx="2.5" ry="2.5" style="stroke:#181818;stroke-width:0.5;" width="167" x="7" y="1127.6406"/><ellipse cx="43.15" cy="1143.6406" fill="#ADD1B2" rx="11" ry="11" style="stroke:#181818;stroke-width:1.0;"/><path d="M45.9156,1139.5156 Q46.0719,1139.2969 46.2594,1139.1875 Q46.4469,1139.0781 46.6656,1139.0781 Q47.0406,1139.0781 47.275,1139.3438 Q47.5094,1139.5938 47.5094,1140.2031 L47.5094,1141.6563 Q47.5094,1142.2656 47.275,1142.5313 Q47.0406,1142.7969 46.6656,1142.7969 Q46.3219,1142.7969 46.1188,1142.5938 Q45.9156,1142.4063 45.8063,1141.8906 Q45.7594,1141.5313 45.5719,1141.3438 Q45.2438,1140.9688 44.6344,1140.75 Q44.025,1140.5313 43.4,1140.5313 Q42.6344,1140.5313 41.9938,1140.8594 Q41.3688,1141.1875 40.8688,1141.9375 Q40.3844,1142.6875 40.3844,1143.7188 L40.3844,1144.8125 Q40.3844,1146.0469 41.275,1146.875 Q42.1656,1147.6875 43.7594,1147.6875 Q44.6969,1147.6875 45.3531,1147.4375 Q45.7438,1147.2813 46.1656,1146.8438 Q46.4313,1146.5781 46.5719,1146.5 Q46.7281,1146.4219 46.9313,1146.4219 Q47.2594,1146.4219 47.5094,1146.6875 Q47.775,1146.9375 47.775,1147.2813 Q47.775,1147.625 47.4313,1148.0313 Q46.9313,1148.6094 46.1344,1148.9375 Q45.0563,1149.3906 43.7594,1149.3906 Q42.2438,1149.3906 41.0406,1148.7656 Q40.0563,1148.2656 39.3688,1147.2031 Q38.6813,1146.125 38.6813,1144.8438 L38.6813,1143.6875 Q38.6813,1142.3594 39.2906,1141.2188 Q39.9156,1140.0625 41.0094,1139.4531 Q42.1031,1138.8281 43.3375,1138.8281 Q44.0719,1138.8281 44.7125,1139 Q45.3688,1139.1563 45.9156,1139.5156 Z " fill="#000000"/><text fill="#000000" font-family="sans-serif" font-size="14" lengthAdjust="spacing" textLength="88" x="61.85" y="1148.4941">JobReference</text><line style="stroke:#181818;stroke-width:0.5;" x1="8" x2="173" y1="1159.6406" y2="1159.6406"/><rect fill="none" height="6" style="stroke:#C82930;stroke-width:1.0;" width="6" x="15" y="1169.9609"/><text fill="#000000" font-family="sans-serif" font-size="14" lengthAdjust="spacing" textLength="141" x="27" y="1176.3145">jobReference : Integer</text><line style="stroke:#181818;stroke-width:0.5;" x1="8" x2="173" y1="1183.2813" y2="1183.2813"/></g><!--class JobFunction--><g id="elem_JobFunction"><rect codeLine="65" fill="#F1F1F1" height="63.6406" id="JobFunction" rx="2.5" ry="2.5" style="stroke:#181818;stroke-width:0.5;" width="165" x="209" y="1127.6406"/><ellipse cx="249.2" cy="1143.6406" fill="#ADD1B2" rx="11" ry="11" style="stroke:#181818;stroke-width:1.0;"/><path d="M251.9656,1139.5156 Q252.1219,1139.2969 252.3094,1139.1875 Q252.4969,1139.0781 252.7156,1139.0781 Q253.0906,1139.0781 253.325,1139.3438 Q253.5594,1139.5938 253.5594,1140.2031 L253.5594,1141.6563 Q253.5594,1142.2656 253.325,1142.5313 Q253.0906,1142.7969 252.7156,1142.7969 Q252.3719,1142.7969 252.1688,1142.5938 Q251.9656,1142.4063 251.8563,1141.8906 Q251.8094,1141.5313 251.6219,1141.3438 Q251.2938,1140.9688 250.6844,1140.75 Q250.075,1140.5313 249.45,1140.5313 Q248.6844,1140.5313 248.0438,1140.8594 Q247.4188,1141.1875 246.9188,1141.9375 Q246.4344,1142.6875 246.4344,1143.7188 L246.4344,1144.8125 Q246.4344,1146.0469 247.325,1146.875 Q248.2156,1147.6875 249.8094,1147.6875 Q250.7469,1147.6875 251.4031,1147.4375 Q251.7938,1147.2813 252.2156,1146.8438 Q252.4813,1146.5781 252.6219,1146.5 Q252.7781,1146.4219 252.9813,1146.4219 Q253.3094,1146.4219 253.5594,1146.6875 Q253.825,1146.9375 253.825,1147.2813 Q253.825,1147.625 253.4813,1148.0313 Q252.9813,1148.6094 252.1844,1148.9375 Q251.1063,1149.3906 249.8094,1149.3906 Q248.2938,1149.3906 247.0906,1148.7656 Q246.1063,1148.2656 245.4188,1147.2031 Q244.7313,1146.125 244.7313,1144.8438 L244.7313,1143.6875 Q244.7313,1142.3594 245.3406,1141.2188 Q245.9656,1140.0625 247.0594,1139.4531 Q248.1531,1138.8281 249.3875,1138.8281 Q250.1219,1138.8281 250.7625,1139 Q251.4188,1139.1563 251.9656,1139.5156 Z " fill="#000000"/><text fill="#000000" font-family="sans-serif" font-size="14" lengthAdjust="spacing" textLength="77" x="268.8" y="1148.4941">JobFunction</text><line style="stroke:#181818;stroke-width:0.5;" x1="210" x2="373" y1="1159.6406" y2="1159.6406"/><rect fill="none" height="6" style="stroke:#C82930;stroke-width:1.0;" width="6" x="217" y="1169.9609"/><text fill="#000000" font-family="sans-serif" font-size="14" lengthAdjust="spacing" textLength="139" x="229" y="1176.3145">jobDescription : String</text><line style="stroke:#181818;stroke-width:0.5;" x1="210" x2="373" y1="1183.2813" y2="1183.2813"/></g><!--class NumberOfVacancies--><g id="elem_NumberOfVacancies"><rect codeLine="69" fill="#F1F1F1" height="63.6406" id="NumberOfVacancies" rx="2.5" ry="2.5" style="stroke:#181818;stroke-width:0.5;" width="161" x="409" y="1127.6406"/><ellipse cx="424" cy="1143.6406" fill="#ADD1B2" rx="11" ry="11" style="stroke:#181818;stroke-width:1.0;"/><path d="M426.7656,1139.5156 Q426.9219,1139.2969 427.1094,1139.1875 Q427.2969,1139.0781 427.5156,1139.0781 Q427.8906,1139.0781 428.125,1139.3438 Q428.3594,1139.5938 428.3594,1140.2031 L428.3594,1141.6563 Q428.3594,1142.2656 428.125,1142.5313 Q427.8906,1142.7969 427.5156,1142.7969 Q427.1719,1142.7969 426.9688,1142.5938 Q426.7656,1142.4063 426.6563,1141.8906 Q426.6094,1141.5313 426.4219,1141.3438 Q426.0938,1140.9688 425.4844,1140.75 Q424.875,1140.5313 424.25,1140.5313 Q423.4844,1140.5313 422.8438,1140.8594 Q422.2188,1141.1875 421.7188,1141.9375 Q421.2344,1142.6875 421.2344,1143.7188 L421.2344,1144.8125 Q421.2344,1146.0469 422.125,1146.875 Q423.0156,1147.6875 424.6094,1147.6875 Q425.5469,1147.6875 426.2031,1147.4375 Q426.5938,1147.2813 427.0156,1146.8438 Q427.2813,1146.5781 427.4219,1146.5 Q427.5781,1146.4219 427.7813,1146.4219 Q428.1094,1146.4219 428.3594,1146.6875 Q428.625,1146.9375 428.625,1147.2813 Q428.625,1147.625 428.2813,1148.0313 Q427.7813,1148.6094 426.9844,1148.9375 Q425.9063,1149.3906 424.6094,1149.3906 Q423.0938,1149.3906 421.8906,1148.7656 Q420.9063,1148.2656 420.2188,1147.2031 Q419.5313,1146.125 419.5313,1144.8438 L419.5313,1143.6875 Q419.5313,1142.3594 420.1406,1141.2188 Q420.7656,1140.0625 421.8594,1139.4531 Q422.9531,1138.8281 424.1875,1138.8281 Q424.9219,1138.8281 425.5625,1139 Q426.2188,1139.1563 426.7656,1139.5156 Z " fill="#000000"/><text fill="#000000" font-family="sans-serif" font-size="14" lengthAdjust="spacing" textLength="129" x="438" y="1148.4941">NumberOfVacancies</text><line style="stroke:#181818;stroke-width:0.5;" x1="410" x2="569" y1="1159.6406" y2="1159.6406"/><rect fill="none" height="6" style="stroke:#C82930;stroke-width:1.0;" width="6" x="417" y="1169.9609"/><text fill="#000000" font-family="sans-serif" font-size="14" lengthAdjust="spacing" textLength="104" x="429" y="1176.3145">number : Integer</text><line style="stroke:#181818;stroke-width:0.5;" x1="410" x2="569" y1="1183.2813" y2="1183.2813"/></g><!--class ContractType--><g id="elem_ContractType"><rect codeLine="73" fill="#F1F1F1" height="63.6406" id="ContractType" rx="2.5" ry="2.5" style="stroke:#181818;stroke-width:0.5;" width="158" x="605.5" y="1127.6406"/><ellipse cx="638.5" cy="1143.6406" fill="#ADD1B2" rx="11" ry="11" style="stroke:#181818;stroke-width:1.0;"/><path d="M641.2656,1139.5156 Q641.4219,1139.2969 641.6094,1139.1875 Q641.7969,1139.0781 642.0156,1139.0781 Q642.3906,1139.0781 642.625,1139.3438 Q642.8594,1139.5938 642.8594,1140.2031 L642.8594,1141.6563 Q642.8594,1142.2656 642.625,1142.5313 Q642.3906,1142.7969 642.0156,1142.7969 Q641.6719,1142.7969 641.4688,1142.5938 Q641.2656,1142.4063 641.1563,1141.8906 Q641.1094,1141.5313 640.9219,1141.3438 Q640.5938,1140.9688 639.9844,1140.75 Q639.375,1140.5313 638.75,1140.5313 Q637.9844,1140.5313 637.3438,1140.8594 Q636.7188,1141.1875 636.2188,1141.9375 Q635.7344,1142.6875 635.7344,1143.7188 L635.7344,1144.8125 Q635.7344,1146.0469 636.625,1146.875 Q637.5156,1147.6875 639.1094,1147.6875 Q640.0469,1147.6875 640.7031,1147.4375 Q641.0938,1147.2813 641.5156,1146.8438 Q641.7813,1146.5781 641.9219,1146.5 Q642.0781,1146.4219 642.2813,1146.4219 Q642.6094,1146.4219 642.8594,1146.6875 Q643.125,1146.9375 643.125,1147.2813 Q643.125,1147.625 642.7813,1148.0313 Q642.2813,1148.6094 641.4844,1148.9375 Q640.4063,1149.3906 639.1094,1149.3906 Q637.5938,1149.3906 636.3906,1148.7656 Q635.4063,1148.2656 634.7188,1147.2031 Q634.0313,1146.125 634.0313,1144.8438 L634.0313,1143.6875 Q634.0313,1142.3594 634.6406,1141.2188 Q635.2656,1140.0625 636.3594,1139.4531 Q637.4531,1138.8281 638.6875,1138.8281 Q639.4219,1138.8281 640.0625,1139 Q640.7188,1139.1563 641.2656,1139.5156 Z " fill="#000000"/><text fill="#000000" font-family="sans-serif" font-size="14" lengthAdjust="spacing" textLength="86" x="656.5" y="1148.4941">ContractType</text><line style="stroke:#181818;stroke-width:0.5;" x1="606.5" x2="762.5" y1="1159.6406" y2="1159.6406"/><rect fill="none" height="6" style="stroke:#C82930;stroke-width:1.0;" width="6" x="613.5" y="1169.9609"/><text fill="#000000" font-family="sans-serif" font-size="14" lengthAdjust="spacing" textLength="132" x="625.5" y="1176.3145">contractType : String</text><line style="stroke:#181818;stroke-width:0.5;" x1="606.5" x2="762.5" y1="1183.2813" y2="1183.2813"/></g><!--class Mode--><g id="elem_Mode"><rect codeLine="78" fill="#F1F1F1" height="63.6406" id="Mode" rx="2.5" ry="2.5" style="stroke:#181818;stroke-width:0.5;" width="181" x="799" y="1127.6406"/><ellipse cx="867.75" cy="1143.6406" fill="#ADD1B2" rx="11" ry="11" style="stroke:#181818;stroke-width:1.0;"/><path d="M870.5156,1139.5156 Q870.6719,1139.2969 870.8594,1139.1875 Q871.0469,1139.0781 871.2656,1139.0781 Q871.6406,1139.0781 871.875,1139.3438 Q872.1094,1139.5938 872.1094,1140.2031 L872.1094,1141.6563 Q872.1094,1142.2656 871.875,1142.5313 Q871.6406,1142.7969 871.2656,1142.7969 Q870.9219,1142.7969 870.7188,1142.5938 Q870.5156,1142.4063 870.4063,1141.8906 Q870.3594,1141.5313 870.1719,1141.3438 Q869.8438,1140.9688 869.2344,1140.75 Q868.625,1140.5313 868,1140.5313 Q867.2344,1140.5313 866.5938,1140.8594 Q865.9688,1141.1875 865.4688,1141.9375 Q864.9844,1142.6875 864.9844,1143.7188 L864.9844,1144.8125 Q864.9844,1146.0469 865.875,1146.875 Q866.7656,1147.6875 868.3594,1147.6875 Q869.2969,1147.6875 869.9531,1147.4375 Q870.3438,1147.2813 870.7656,1146.8438 Q871.0313,1146.5781 871.1719,1146.5 Q871.3281,1146.4219 871.5313,1146.4219 Q871.8594,1146.4219 872.1094,1146.6875 Q872.375,1146.9375 872.375,1147.2813 Q872.375,1147.625 872.0313,1148.0313 Q871.5313,1148.6094 870.7344,1148.9375 Q869.6563,1149.3906 868.3594,1149.3906 Q866.8438,1149.3906 865.6406,1148.7656 Q864.6563,1148.2656 863.9688,1147.2031 Q863.2813,1146.125 863.2813,1144.8438 L863.2813,1143.6875 Q863.2813,1142.3594 863.8906,1141.2188 Q864.5156,1140.0625 865.6094,1139.4531 Q866.7031,1138.8281 867.9375,1138.8281 Q868.6719,1138.8281 869.3125,1139 Q869.9688,1139.1563 870.5156,1139.5156 Z " fill="#000000"/><text fill="#000000" font-family="sans-serif" font-size="14" lengthAdjust="spacing" textLength="35" x="888.25" y="1148.4941">Mode</text><line style="stroke:#181818;stroke-width:0.5;" x1="800" x2="979" y1="1159.6406" y2="1159.6406"/><rect fill="none" height="6" style="stroke:#C82930;stroke-width:1.0;" width="6" x="807" y="1169.9609"/><text fill="#000000" font-family="sans-serif" font-size="14" lengthAdjust="spacing" textLength="155" x="819" y="1176.3145">modeDescription : String</text><line style="stroke:#181818;stroke-width:0.5;" x1="800" x2="979" y1="1183.2813" y2="1183.2813"/></g><!--class Description--><g id="elem_Description"><rect codeLine="82" fill="#F1F1F1" height="63.6406" id="Description" rx="2.5" ry="2.5" style="stroke:#181818;stroke-width:0.5;" width="144" x="1015.5" y="1127.6406"/><ellipse cx="1048.95" cy="1143.6406" fill="#ADD1B2" rx="11" ry="11" style="stroke:#181818;stroke-width:1.0;"/><path d="M1051.7156,1139.5156 Q1051.8719,1139.2969 1052.0594,1139.1875 Q1052.2469,1139.0781 1052.4656,1139.0781 Q1052.8406,1139.0781 1053.075,1139.3438 Q1053.3094,1139.5938 1053.3094,1140.2031 L1053.3094,1141.6563 Q1053.3094,1142.2656 1053.075,1142.5313 Q1052.8406,1142.7969 1052.4656,1142.7969 Q1052.1219,1142.7969 1051.9188,1142.5938 Q1051.7156,1142.4063 1051.6063,1141.8906 Q1051.5594,1141.5313 1051.3719,1141.3438 Q1051.0438,1140.9688 1050.4344,1140.75 Q1049.825,1140.5313 1049.2,1140.5313 Q1048.4344,1140.5313 1047.7938,1140.8594 Q1047.1688,1141.1875 1046.6688,1141.9375 Q1046.1844,1142.6875 1046.1844,1143.7188 L1046.1844,1144.8125 Q1046.1844,1146.0469 1047.075,1146.875 Q1047.9656,1147.6875 1049.5594,1147.6875 Q1050.4969,1147.6875 1051.1531,1147.4375 Q1051.5438,1147.2813 1051.9656,1146.8438 Q1052.2313,1146.5781 1052.3719,1146.5 Q1052.5281,1146.4219 1052.7313,1146.4219 Q1053.0594,1146.4219 1053.3094,1146.6875 Q1053.575,1146.9375 1053.575,1147.2813 Q1053.575,1147.625 1053.2313,1148.0313 Q1052.7313,1148.6094 1051.9344,1148.9375 Q1050.8563,1149.3906 1049.5594,1149.3906 Q1048.0438,1149.3906 1046.8406,1148.7656 Q1045.8563,1148.2656 1045.1688,1147.2031 Q1044.4813,1146.125 1044.4813,1144.8438 L1044.4813,1143.6875 Q1044.4813,1142.3594 1045.0906,1141.2188 Q1045.7156,1140.0625 1046.8094,1139.4531 Q1047.9031,1138.8281 1049.1375,1138.8281 Q1049.8719,1138.8281 1050.5125,1139 Q1051.1688,1139.1563 1051.7156,1139.5156 Z " fill="#000000"/><text fill="#000000" font-family="sans-serif" font-size="14" lengthAdjust="spacing" textLength="71" x="1067.05" y="1148.4941">Description</text><line style="stroke:#181818;stroke-width:0.5;" x1="1016.5" x2="1158.5" y1="1159.6406" y2="1159.6406"/><rect fill="none" height="6" style="stroke:#C82930;stroke-width:1.0;" width="6" x="1023.5" y="1169.9609"/><text fill="#000000" font-family="sans-serif" font-size="14" lengthAdjust="spacing" textLength="118" x="1035.5" y="1176.3145">description : String</text><line style="stroke:#181818;stroke-width:0.5;" x1="1016.5" x2="1158.5" y1="1183.2813" y2="1183.2813"/></g><!--class Plugin--><g id="elem_Plugin"><rect codeLine="86" fill="#F1F1F1" height="126.2031" id="Plugin" rx="2.5" ry="2.5" style="stroke:#181818;stroke-width:0.5;" width="317" x="1195" y="1096.6406"/><ellipse cx="1329.75" cy="1112.6406" fill="#ADD1B2" rx="11" ry="11" style="stroke:#181818;stroke-width:1.0;"/><path d="M1332.5156,1108.5156 Q1332.6719,1108.2969 1332.8594,1108.1875 Q1333.0469,1108.0781 1333.2656,1108.0781 Q1333.6406,1108.0781 1333.875,1108.3438 Q1334.1094,1108.5938 1334.1094,1109.2031 L1334.1094,1110.6563 Q1334.1094,1111.2656 1333.875,1111.5313 Q1333.6406,1111.7969 1333.2656,1111.7969 Q1332.9219,1111.7969 1332.7188,1111.5938 Q1332.5156,1111.4063 1332.4063,1110.8906 Q1332.3594,1110.5313 1332.1719,1110.3438 Q1331.8438,1109.9688 1331.2344,1109.75 Q1330.625,1109.5313 1330,1109.5313 Q1329.2344,1109.5313 1328.5938,1109.8594 Q1327.9688,1110.1875 1327.4688,1110.9375 Q1326.9844,1111.6875 1326.9844,1112.7188 L1326.9844,1113.8125 Q1326.9844,1115.0469 1327.875,1115.875 Q1328.7656,1116.6875 1330.3594,1116.6875 Q1331.2969,1116.6875 1331.9531,1116.4375 Q1332.3438,1116.2813 1332.7656,1115.8438 Q1333.0313,1115.5781 1333.1719,1115.5 Q1333.3281,1115.4219 1333.5313,1115.4219 Q1333.8594,1115.4219 1334.1094,1115.6875 Q1334.375,1115.9375 1334.375,1116.2813 Q1334.375,1116.625 1334.0313,1117.0313 Q1333.5313,1117.6094 1332.7344,1117.9375 Q1331.6563,1118.3906 1330.3594,1118.3906 Q1328.8438,1118.3906 1327.6406,1117.7656 Q1326.6563,1117.2656 1325.9688,1116.2031 Q1325.2813,1115.125 1325.2813,1113.8438 L1325.2813,1112.6875 Q1325.2813,1111.3594 1325.8906,1110.2188 Q1326.5156,1109.0625 1327.6094,1108.4531 Q1328.7031,1107.8281 1329.9375,1107.8281 Q1330.6719,1107.8281 1331.3125,1108 Q1331.9688,1108.1563 1332.5156,1108.5156 Z " fill="#000000"/><text fill="#000000" font-family="sans-serif" font-size="14" lengthAdjust="spacing" textLength="39" x="1350.25" y="1117.4941">Plugin</text><line style="stroke:#181818;stroke-width:0.5;" x1="1196" x2="1511" y1="1128.6406" y2="1128.6406"/><rect fill="none" height="6" style="stroke:#C82930;stroke-width:1.0;" width="6" x="1203" y="1138.9609"/><text fill="#000000" font-family="sans-serif" font-size="14" lengthAdjust="spacing" textLength="156" x="1215" y="1145.3145">pluginID : PluginIdentifier</text><rect fill="none" height="6" style="stroke:#C82930;stroke-width:1.0;" width="6" x="1203" y="1154.6016"/><text fill="#000000" font-family="sans-serif" font-size="14" lengthAdjust="spacing" textLength="153" x="1215" y="1160.9551">pluginType : PluginType</text><rect fill="none" height="6" style="stroke:#C82930;stroke-width:1.0;" width="6" x="1203" y="1170.2422"/><text fill="#000000" font-family="sans-serif" font-size="14" lengthAdjust="spacing" textLength="152" x="1215" y="1176.5957">description : Description</text><rect fill="none" height="6" style="stroke:#C82930;stroke-width:1.0;" width="6" x="1203" y="1185.8828"/><text fill="#000000" font-family="sans-serif" font-size="14" lengthAdjust="spacing" textLength="291" x="1215" y="1192.2363">pluginMainClassName : PluginMainClassName</text><rect fill="none" height="6" style="stroke:#C82930;stroke-width:1.0;" width="6" x="1203" y="1201.5234"/><text fill="#000000" font-family="sans-serif" font-size="14" lengthAdjust="spacing" textLength="165" x="1215" y="1207.877">jarFileName : JarFileName</text><line style="stroke:#181818;stroke-width:0.5;" x1="1196" x2="1511" y1="1214.8438" y2="1214.8438"/></g><!--class Customer--><g id="elem_Customer"><rect codeLine="95" fill="#F1F1F1" height="110.5625" id="Customer" rx="2.5" ry="2.5" style="stroke:#181818;stroke-width:0.5;" width="227" x="1547" y="1104.1406"/><ellipse cx="1625.75" cy="1120.1406" fill="#ADD1B2" rx="11" ry="11" style="stroke:#181818;stroke-width:1.0;"/><path d="M1628.5156,1116.0156 Q1628.6719,1115.7969 1628.8594,1115.6875 Q1629.0469,1115.5781 1629.2656,1115.5781 Q1629.6406,1115.5781 1629.875,1115.8438 Q1630.1094,1116.0938 1630.1094,1116.7031 L1630.1094,1118.1563 Q1630.1094,1118.7656 1629.875,1119.0313 Q1629.6406,1119.2969 1629.2656,1119.2969 Q1628.9219,1119.2969 1628.7188,1119.0938 Q1628.5156,1118.9063 1628.4063,1118.3906 Q1628.3594,1118.0313 1628.1719,1117.8438 Q1627.8438,1117.4688 1627.2344,1117.25 Q1626.625,1117.0313 1626,1117.0313 Q1625.2344,1117.0313 1624.5938,1117.3594 Q1623.9688,1117.6875 1623.4688,1118.4375 Q1622.9844,1119.1875 1622.9844,1120.2188 L1622.9844,1121.3125 Q1622.9844,1122.5469 1623.875,1123.375 Q1624.7656,1124.1875 1626.3594,1124.1875 Q1627.2969,1124.1875 1627.9531,1123.9375 Q1628.3438,1123.7813 1628.7656,1123.3438 Q1629.0313,1123.0781 1629.1719,1123 Q1629.3281,1122.9219 1629.5313,1122.9219 Q1629.8594,1122.9219 1630.1094,1123.1875 Q1630.375,1123.4375 1630.375,1123.7813 Q1630.375,1124.125 1630.0313,1124.5313 Q1629.5313,1125.1094 1628.7344,1125.4375 Q1627.6563,1125.8906 1626.3594,1125.8906 Q1624.8438,1125.8906 1623.6406,1125.2656 Q1622.6563,1124.7656 1621.9688,1123.7031 Q1621.2813,1122.625 1621.2813,1121.3438 L1621.2813,1120.1875 Q1621.2813,1118.8594 1621.8906,1117.7188 Q1622.5156,1116.5625 1623.6094,1115.9531 Q1624.7031,1115.3281 1625.9375,1115.3281 Q1626.6719,1115.3281 1627.3125,1115.5 Q1627.9688,1115.6563 1628.5156,1116.0156 Z " fill="#000000"/><text fill="#000000" font-family="sans-serif" font-size="14" lengthAdjust="spacing" textLength="61" x="1646.25" y="1124.9941">Customer</text><line style="stroke:#181818;stroke-width:0.5;" x1="1548" x2="1773" y1="1136.1406" y2="1136.1406"/><rect fill="none" height="6" style="stroke:#C82930;stroke-width:1.0;" width="6" x="1555" y="1146.4609"/><text fill="#000000" font-family="sans-serif" font-size="14" lengthAdjust="spacing" textLength="160" x="1567" y="1152.8145">systemUser : SystemUser</text><rect fill="none" height="6" style="stroke:#C82930;stroke-width:1.0;" width="6" x="1555" y="1162.1016"/><text fill="#000000" font-family="sans-serif" font-size="14" lengthAdjust="spacing" textLength="77" x="1567" y="1168.4551">code : Code</text><rect fill="none" height="6" style="stroke:#C82930;stroke-width:1.0;" width="6" x="1555" y="1177.7422"/><text fill="#000000" font-family="sans-serif" font-size="14" lengthAdjust="spacing" textLength="115" x="1567" y="1184.0957">address : Address</text><rect fill="none" height="6" style="stroke:#C82930;stroke-width:1.0;" width="6" x="1555" y="1193.3828"/><text fill="#000000" font-family="sans-serif" font-size="14" lengthAdjust="spacing" textLength="201" x="1567" y="1199.7363">customerManager : SystemUser</text><line style="stroke:#181818;stroke-width:0.5;" x1="1548" x2="1773" y1="1206.7031" y2="1206.7031"/></g><!--class RecruitmentProcess--><g id="elem_RecruitmentProcess"><rect codeLine="102" fill="#F1F1F1" height="79.2813" id="RecruitmentProcess" rx="2.5" ry="2.5" style="stroke:#181818;stroke-width:0.5;" width="167" x="1809" y="1120.1406"/><ellipse cx="1827.6" cy="1136.1406" fill="#ADD1B2" rx="11" ry="11" style="stroke:#181818;stroke-width:1.0;"/><path d="M1830.3656,1132.0156 Q1830.5219,1131.7969 1830.7094,1131.6875 Q1830.8969,1131.5781 1831.1156,1131.5781 Q1831.4906,1131.5781 1831.725,1131.8438 Q1831.9594,1132.0938 1831.9594,1132.7031 L1831.9594,1134.1563 Q1831.9594,1134.7656 1831.725,1135.0313 Q1831.4906,1135.2969 1831.1156,1135.2969 Q1830.7719,1135.2969 1830.5688,1135.0938 Q1830.3656,1134.9063 1830.2563,1134.3906 Q1830.2094,1134.0313 1830.0219,1133.8438 Q1829.6938,1133.4688 1829.0844,1133.25 Q1828.475,1133.0313 1827.85,1133.0313 Q1827.0844,1133.0313 1826.4438,1133.3594 Q1825.8188,1133.6875 1825.3188,1134.4375 Q1824.8344,1135.1875 1824.8344,1136.2188 L1824.8344,1137.3125 Q1824.8344,1138.5469 1825.725,1139.375 Q1826.6156,1140.1875 1828.2094,1140.1875 Q1829.1469,1140.1875 1829.8031,1139.9375 Q1830.1938,1139.7813 1830.6156,1139.3438 Q1830.8813,1139.0781 1831.0219,1139 Q1831.1781,1138.9219 1831.3813,1138.9219 Q1831.7094,1138.9219 1831.9594,1139.1875 Q1832.225,1139.4375 1832.225,1139.7813 Q1832.225,1140.125 1831.8813,1140.5313 Q1831.3813,1141.1094 1830.5844,1141.4375 Q1829.5063,1141.8906 1828.2094,1141.8906 Q1826.6938,1141.8906 1825.4906,1141.2656 Q1824.5063,1140.7656 1823.8188,1139.7031 Q1823.1313,1138.625 1823.1313,1137.3438 L1823.1313,1136.1875 Q1823.1313,1134.8594 1823.7406,1133.7188 Q1824.3656,1132.5625 1825.4594,1131.9531 Q1826.5531,1131.3281 1827.7875,1131.3281 Q1828.5219,1131.3281 1829.1625,1131.5 Q1829.8188,1131.6563 1830.3656,1132.0156 Z " fill="#000000"/><text fill="#000000" font-family="sans-serif" font-size="14" lengthAdjust="spacing" textLength="127" x="1842.4" y="1140.9941">RecruitmentProcess</text><line style="stroke:#181818;stroke-width:0.5;" x1="1810" x2="1975" y1="1152.1406" y2="1152.1406"/><rect fill="none" height="6" style="stroke:#C82930;stroke-width:1.0;" width="6" x="1817" y="1162.4609"/><text fill="#000000" font-family="sans-serif" font-size="14" lengthAdjust="spacing" textLength="141" x="1829" y="1168.8145">hasInterview : boolean</text><rect fill="none" height="6" style="stroke:#C82930;stroke-width:1.0;" width="6" x="1817" y="1178.1016"/><text fill="#000000" font-family="sans-serif" font-size="14" lengthAdjust="spacing" textLength="136" x="1829" y="1184.4551">phases : List&lt;Phase&gt;</text><line style="stroke:#181818;stroke-width:0.5;" x1="1810" x2="1975" y1="1191.4219" y2="1191.4219"/></g><!--class Address--><g id="elem_Address"><rect codeLine="108" fill="#F1F1F1" height="141.8438" id="Address" rx="2.5" ry="2.5" style="stroke:#181818;stroke-width:0.5;" width="246" x="2011.5" y="1088.6406"/><ellipse cx="2104.25" cy="1104.6406" fill="#ADD1B2" rx="11" ry="11" style="stroke:#181818;stroke-width:1.0;"/><path d="M2107.0156,1100.5156 Q2107.1719,1100.2969 2107.3594,1100.1875 Q2107.5469,1100.0781 2107.7656,1100.0781 Q2108.1406,1100.0781 2108.375,1100.3438 Q2108.6094,1100.5938 2108.6094,1101.2031 L2108.6094,1102.6563 Q2108.6094,1103.2656 2108.375,1103.5313 Q2108.1406,1103.7969 2107.7656,1103.7969 Q2107.4219,1103.7969 2107.2188,1103.5938 Q2107.0156,1103.4063 2106.9063,1102.8906 Q2106.8594,1102.5313 2106.6719,1102.3438 Q2106.3438,1101.9688 2105.7344,1101.75 Q2105.125,1101.5313 2104.5,1101.5313 Q2103.7344,1101.5313 2103.0938,1101.8594 Q2102.4688,1102.1875 2101.9688,1102.9375 Q2101.4844,1103.6875 2101.4844,1104.7188 L2101.4844,1105.8125 Q2101.4844,1107.0469 2102.375,1107.875 Q2103.2656,1108.6875 2104.8594,1108.6875 Q2105.7969,1108.6875 2106.4531,1108.4375 Q2106.8438,1108.2813 2107.2656,1107.8438 Q2107.5313,1107.5781 2107.6719,1107.5 Q2107.8281,1107.4219 2108.0313,1107.4219 Q2108.3594,1107.4219 2108.6094,1107.6875 Q2108.875,1107.9375 2108.875,1108.2813 Q2108.875,1108.625 2108.5313,1109.0313 Q2108.0313,1109.6094 2107.2344,1109.9375 Q2106.1563,1110.3906 2104.8594,1110.3906 Q2103.3438,1110.3906 2102.1406,1109.7656 Q2101.1563,1109.2656 2100.4688,1108.2031 Q2099.7813,1107.125 2099.7813,1105.8438 L2099.7813,1104.6875 Q2099.7813,1103.3594 2100.3906,1102.2188 Q2101.0156,1101.0625 2102.1094,1100.4531 Q2103.2031,1099.8281 2104.4375,1099.8281 Q2105.1719,1099.8281 2105.8125,1100 Q2106.4688,1100.1563 2107.0156,1100.5156 Z " fill="#000000"/><text fill="#000000" font-family="sans-serif" font-size="14" lengthAdjust="spacing" textLength="52" x="2124.75" y="1109.4941">Address</text><line style="stroke:#181818;stroke-width:0.5;" x1="2012.5" x2="2256.5" y1="1120.6406" y2="1120.6406"/><rect fill="none" height="6" style="stroke:#C82930;stroke-width:1.0;" width="6" x="2019.5" y="1130.9609"/><text fill="#000000" font-family="sans-serif" font-size="14" lengthAdjust="spacing" textLength="85" x="2031.5" y="1137.3145">street : String</text><rect fill="none" height="6" style="stroke:#C82930;stroke-width:1.0;" width="6" x="2019.5" y="1146.6016"/><text fill="#000000" font-family="sans-serif" font-size="14" lengthAdjust="spacing" textLength="70" x="2031.5" y="1152.9551">city : String</text><rect fill="none" height="6" style="stroke:#C82930;stroke-width:1.0;" width="6" x="2019.5" y="1162.2422"/><text fill="#000000" font-family="sans-serif" font-size="14" lengthAdjust="spacing" textLength="80" x="2031.5" y="1168.5957">state : String</text><rect fill="none" height="6" style="stroke:#C82930;stroke-width:1.0;" width="6" x="2019.5" y="1177.8828"/><text fill="#000000" font-family="sans-serif" font-size="14" lengthAdjust="spacing" textLength="96" x="2031.5" y="1184.2363">country : String</text><rect fill="none" height="6" style="stroke:#C82930;stroke-width:1.0;" width="6" x="2019.5" y="1193.5234"/><text fill="#000000" font-family="sans-serif" font-size="14" lengthAdjust="spacing" textLength="97" x="2031.5" y="1199.877">zipcode : String</text><line style="stroke:#181818;stroke-width:0.5;" x1="2012.5" x2="2256.5" y1="1206.8438" y2="1206.8438"/><rect fill="#F24D5C" height="6" style="stroke:#C82930;stroke-width:1.0;" width="6" x="2019.5" y="1217.1641"/><text fill="#000000" font-family="sans-serif" font-size="14" lengthAdjust="spacing" textLength="220" x="2031.5" y="1223.5176">validateZipcode(zipcode) : boolean</text></g><!--link UI to Controller--><g id="link_UI_Controller"><path codeLine="118" d="M869.5,91.6806 C869.5,108.7306 869.5,126.3606 869.5,146.3006 " fill="none" id="UI-to-Controller" style="stroke:#181818;stroke-width:1.0;stroke-dasharray:7.0,7.0;"/><polygon fill="#181818" points="869.5,152.3006,873.5,143.3006,869.5,147.3006,865.5,143.3006,869.5,152.3006" style="stroke:#181818;stroke-width:1.0;"/></g><!--link Controller to PersistenceContext--><g id="link_Controller_PersistenceContext"><path codeLine="120" d="M811.56,231.7606 C779.27,253.2906 744.5723,276.4224 714.2723,296.6224 " fill="none" id="Controller-to-PersistenceContext" style="stroke:#181818;stroke-width:1.0;stroke-dasharray:7.0,7.0;"/><polygon fill="#181818" points="709.28,299.9506,718.9873,298.2865,713.4403,297.1771,714.5497,291.6301,709.28,299.9506" style="stroke:#181818;stroke-width:1.0;"/></g><!--link Controller to JobOpeningRepository--><g id="link_Controller_JobOpeningRepository"><path codeLine="121" d="M975.35,231.7306 C1001.55,246.5906 1026.42,266.4906 1041.5,292.6406 C1067.51,337.7406 1040.1764,392.0776 1015.8364,427.6776 " fill="none" id="Controller-to-JobOpeningRepository" style="stroke:#181818;stroke-width:1.0;stroke-dasharray:7.0,7.0;"/><polygon fill="#181818" points="1012.45,432.6306,1020.8316,427.4587,1015.272,428.5031,1014.2276,422.9435,1012.45,432.6306" style="stroke:#181818;stroke-width:1.0;"/></g><!--link PersistenceContext to Factory--><g id="link_PersistenceContext_Factory"><path codeLine="123" d="M739.8,332.1406 C751.34,332.1406 756.88,332.1406 768.42,332.1406 " fill="none" id="PersistenceContext-to-Factory" style="stroke:#181818;stroke-width:1.0;"/><polygon fill="#181818" points="774.42,332.1406,765.42,328.1406,769.42,332.1406,765.42,336.1406,774.42,332.1406" style="stroke:#181818;stroke-width:1.0;"/></g><!--link Factory to JobOpeningRepository--><g id="link_Factory_JobOpeningRepository"><path codeLine="124" d="M925.96,371.9406 C939.18,391.3306 951.5791,409.5038 963.9791,427.6838 " fill="none" id="Factory-to-JobOpeningRepository" style="stroke:#181818;stroke-width:1.0;stroke-dasharray:7.0,7.0;"/><polygon fill="#181818" points="967.36,432.6406,965.5932,422.9515,964.5426,428.51,958.9842,427.4594,967.36,432.6406" style="stroke:#181818;stroke-width:1.0;"/></g><!--link JobOpeningRepository to JobOpening--><g id="link_JobOpeningRepository_JobOpening"><path codeLine="126" d="M988.5,496.7206 C988.5,516.0406 988.5,536.8206 988.5,566.5206 " fill="none" id="JobOpeningRepository-to-JobOpening" style="stroke:#181818;stroke-width:1.0;"/><polygon fill="#181818" points="988.5,572.5206,992.5,563.5206,988.5,567.5206,984.5,563.5206,988.5,572.5206" style="stroke:#181818;stroke-width:1.0;"/><text fill="#000000" font-family="sans-serif" font-size="13" lengthAdjust="spacing" textLength="36" x="989.5" y="539.4092">stores</text><text fill="#000000" font-family="sans-serif" font-size="13" lengthAdjust="spacing" textLength="5" x="983.4102" y="561.8731">*</text></g><!--link JobOpening to Address--><g id="link_JobOpening_Address"><path codeLine="129" d="M1229.6,856.9706 C1435.75,907.7906 1738.62,989.8606 1993.5,1088.6406 C1999.36,1090.9106 1999.7889,1090.9916 2005.7589,1093.5316 " fill="none" id="JobOpening-to-Address" style="stroke:#181818;stroke-width:1.0;"/><polygon fill="#181818" points="2011.28,1095.8806,2004.5644,1088.6764,2006.6791,1093.9231,2001.4324,1096.0378,2011.28,1095.8806" style="stroke:#181818;stroke-width:1.0;"/></g><!--link JobOpening to Mode--><g id="link_JobOpening_Mode"><path codeLine="130" d="M925.73,1027.8006 C914.81,1067.2306 906.4213,1097.5283 899.7113,1121.7583 " fill="none" id="JobOpening-to-Mode" style="stroke:#181818;stroke-width:1.0;"/><polygon fill="#181818" points="898.11,1127.5406,904.3669,1119.9346,899.4444,1122.722,896.657,1117.7995,898.11,1127.5406" style="stroke:#181818;stroke-width:1.0;"/></g><!--link JobOpening to Customer--><g id="link_JobOpening_Customer"><path codeLine="131" d="M1229.6,929.1106 C1323.25,978.8706 1431.41,1036.3706 1529.5,1088.6406 C1538.83,1093.6106 1543.235,1095.9688 1552.955,1101.1488 " fill="none" id="JobOpening-to-Customer" style="stroke:#181818;stroke-width:1.0;"/><polygon fill="#181818" points="1558.25,1103.9706,1552.1887,1096.2079,1553.8375,1101.6191,1548.4262,1103.2679,1558.25,1103.9706" style="stroke:#181818;stroke-width:1.0;"/></g><!--link JobOpening to ContractType--><g id="link_JobOpening_ContractType"><path codeLine="132" d="M795.76,1027.8006 C762.23,1067.2306 735.4375,1098.7403 714.8275,1122.9703 " fill="none" id="JobOpening-to-ContractType" style="stroke:#181818;stroke-width:1.0;"/><polygon fill="#181818" points="710.94,1127.5406,719.8181,1123.2768,714.1796,1123.7321,713.7244,1118.0935,710.94,1127.5406" style="stroke:#181818;stroke-width:1.0;"/></g><!--link JobOpening to JobFunction--><g id="link_JobOpening_JobFunction"><path codeLine="133" d="M747.49,906.3706 C636.87,957.4006 505.29,1022.0106 391.5,1088.6406 C371.57,1100.3106 355.3489,1111.2344 337.6989,1123.9444 " fill="none" id="JobOpening-to-JobFunction" style="stroke:#181818;stroke-width:1.0;"/><polygon fill="#181818" points="332.83,1127.4506,342.4709,1125.4373,336.8875,1124.5288,337.796,1118.9454,332.83,1127.4506" style="stroke:#181818;stroke-width:1.0;"/></g><!--link JobOpening to JobReference--><g id="link_JobOpening_JobReference"><path codeLine="134" d="M747.18,870.1606 C585.48,920.7106 370.28,996.4406 191.5,1088.6406 C170.26,1099.5906 153.1267,1110.8238 135.1067,1123.9738 " fill="none" id="JobOpening-to-JobReference" style="stroke:#181818;stroke-width:1.0;"/><polygon fill="#181818" points="130.26,1127.5106,139.888,1125.4365,134.2989,1124.5632,135.1722,1118.9742,130.26,1127.5106" style="stroke:#181818;stroke-width:1.0;"/></g><!--link JobOpening to Description--><g id="link_JobOpening_Description"><path codeLine="135" d="M1051.27,1027.8006 C1062.19,1067.2306 1070.5787,1097.5283 1077.2887,1121.7583 " fill="none" id="JobOpening-to-Description" style="stroke:#181818;stroke-width:1.0;"/><polygon fill="#181818" points="1078.89,1127.5406,1080.343,1117.7995,1077.5556,1122.722,1072.6331,1119.9346,1078.89,1127.5406" style="stroke:#181818;stroke-width:1.0;"/></g><!--link JobOpening to NumberOfVacancies--><g id="link_JobOpening_NumberOfVacancies"><path codeLine="136" d="M747.4,973.8706 C665.23,1032.7406 586.7276,1088.9865 537.8276,1124.0165 " fill="none" id="JobOpening-to-NumberOfVacancies" style="stroke:#181818;stroke-width:1.0;"/><polygon fill="#181818" points="532.95,1127.5106,542.5958,1125.5212,537.0147,1124.5989,537.937,1119.0177,532.95,1127.5106" style="stroke:#181818;stroke-width:1.0;"/></g><!--link JobOpening to RecruitmentProcess--><g id="link_JobOpening_RecruitmentProcess"><path codeLine="137" d="M1229.88,869.3406 C1393.01,919.7806 1610.76,995.7006 1791.5,1088.6406 C1808.86,1097.5706 1821.7996,1105.6028 1837.5796,1116.6828 " fill="none" id="JobOpening-to-RecruitmentProcess" style="stroke:#181818;stroke-width:1.0;"/><polygon fill="#181818" points="1842.49,1120.1306,1837.423,1111.6852,1838.398,1117.2574,1832.8258,1118.2324,1842.49,1120.1306" style="stroke:#181818;stroke-width:1.0;"/></g><!--link JobOpening to Plugin--><g id="link_JobOpening_Plugin"><path codeLine="138" d="M1219.92,1027.8006 C1245.35,1052.7106 1265.1137,1072.0721 1285.6237,1092.1621 " fill="none" id="JobOpening-to-Plugin" style="stroke:#181818;stroke-width:1.0;"/><polygon fill="#181818" points="1289.91,1096.3606,1286.2796,1087.2053,1286.3381,1092.8619,1280.6815,1092.9204,1289.91,1096.3606" style="stroke:#181818;stroke-width:1.0;"/><text fill="#000000" font-family="sans-serif" font-size="13" lengthAdjust="spacing" textLength="22" x="1259.2855" y="1086.0216">0..2</text></g><!--SRC=[XLPBRzim3BxxLmW-fJCI5DsjAm8C3JguMDiWQNROJR6PJ8LVa-IkMR7_FkfXMPQz9PU4R_8ZAKOoMG29TzkhoykFP4w-G0MSIY0R-Dao3YLKacmRoDY1PLIokeh9RK6582j6ZvoMKHHbceuxKyzoOBXBOq85sQNlKVIdire35qn8g3AuhIi9R_8z8lZXqDI2oPep4BEBNlzi5EM5rqK1N4VhIUCteKLnN- -V6gXOTKJNv9ga4Ztk2xZf1KkZV3mJx1dAfa3vxCLPAeUlDSjLoWmBuWUQ8S2RhfxJ7StKbyxE_ZQflVXfVHgndZcj1EfZM5fOh8XyqzXuaVeQ-f2J_djCUnE2cdFKsy01kEe95dFlaIYjsd8F_EdmZMQqoh0xgF8OyeoNkxRIwHed7OMoJ3K5Ita-DIh2hKUYjAnpnNt0BwHeddCGAifdyqlRbmsjJe-qrEQja7K970KvY8opnWHTzGIAE1nnphXksqeDE1hI0ggSSYtDUCkaQl2Qrva9k1anjQOR1R4ksYDJvPaVADLzU6NmAnH54KbyOFNW3Q5DFCWwSGzQueEcnKFO4WMRvXlW4WkSPZde4WywuyI1btZWQT40loJ4prWx11C1CirdVaN4h_T2kmZnr4wcO4wQLcv6ICyigkCUA3zZhl6J3dlIEGbQfJm4B9toA8T_XWgiPrCU8u9RHzpQENZCXkBx6ooVolsekZCmwwR2jrhveq-sakCw-sQZ7NN6PgEdW_apvWo2zVLYTMPg19MwtkLpcNbo5o8_OsFWDEfpqcWgNRbrItFi3BxIgXXFmoQyTaGq5Mqmzvxr0sMLFdtstLcFkLR_XV8xLe3Lk- -fGV-xrND5YnCUmd8dT3EsZkXXpyrhcKF7cdWShQxr_K0hUXpvwtCOxvxBvWSLRdFGVb_N1T2gapOerc__LtmLRjQAMWv6m2RK5oSvWFIQQHDbyZHY2caUw42rRd7knjg_MMEXiVnEy4eBbgEdxqPXPXKl_6emurrA5ekbzqyXYlhVMZJ-an9gJ5tTA1hRpPVsv4Vs-p_MKrmodoz9_27sR_OrjXgXZdmBhTVDHC3Mzo7WkJCGylqR4yZyypGMzOSjaFdh5OZ6_oC2XObJ4MZ4bul5LTnVtRy0]--></g></svg>