<?xml version="1.0" encoding="us-ascii" standalone="no"?><svg xmlns="http://www.w3.org/2000/svg" xmlns:xlink="http://www.w3.org/1999/xlink" contentStyleType="text/css" height="319.2px" preserveAspectRatio="none" style="width:743px;height:319px;background:#FFFFFF;" version="1.1" viewBox="0 0 743 319" width="743.4px" zoomAndPan="magnify"><defs/><g><!--cluster Plugin Aggregate--><g id="cluster_Plugin Aggregate"><path d="M5.95,4.2 L91.35,4.2 A2.625,2.625 0 0 1 93.1,5.95 L98,19.3484 L591.85,19.3484 A1.75,1.75 0 0 1 593.6,21.0984 L593.6,206.85 A1.75,1.75 0 0 1 591.85,208.6 L5.95,208.6 A1.75,1.75 0 0 1 4.2,206.85 L4.2,5.95 A1.75,1.75 0 0 1 5.95,4.2 " fill="none" style="stroke:#000000;stroke-width:1.0499999999999998;"/><line style="stroke:#000000;stroke-width:1.0499999999999998;" x1="4.2" x2="98" y1="19.3484" y2="19.3484"/><text fill="#000000" font-family="sans-serif" font-size="9.8" font-weight="bold" lengthAdjust="spacing" textLength="84.7" x="7" y="14.4717">Plugin Aggregate</text></g><!--cluster Job Opening Aggregate--><g id="cluster_Job Opening Aggregate"><path d="M612.15,122.5 L729.75,122.5 A2.625,2.625 0 0 1 731.5,124.25 L736.4,137.6484 L736.75,137.6484 A1.75,1.75 0 0 1 738.5,139.3984 L738.5,312.55 A1.75,1.75 0 0 1 736.75,314.3 L612.15,314.3 A1.75,1.75 0 0 1 610.4,312.55 L610.4,124.25 A1.75,1.75 0 0 1 612.15,122.5 " fill="none" style="stroke:#000000;stroke-width:1.0499999999999998;"/><line style="stroke:#000000;stroke-width:1.0499999999999998;" x1="610.4" x2="736.4" y1="137.6484" y2="137.6484"/><text fill="#000000" font-family="sans-serif" font-size="9.8" font-weight="bold" lengthAdjust="spacing" textLength="116.9" x="613.2" y="132.7717">Job Opening Aggregate</text></g><!--class Plugin--><g id="elem_Plugin"><rect codeLine="4" fill="#F1F1F1" height="51.0453" id="Plugin" rx="1.75" ry="1.75" style="stroke:#181818;stroke-width:0.3499999999999999;" width="57.4" x="334.6" y="28"/><ellipse cx="345.1" cy="47.9227" fill="#ADD1B2" rx="7.7" ry="7.7" style="stroke:#181818;stroke-width:0.6999999999999998;"/><path d="M347.0359,45.0352 Q347.1453,44.882 347.2766,44.8055 Q347.4078,44.7289 347.5609,44.7289 Q347.8234,44.7289 347.9875,44.9148 Q348.1516,45.0898 348.1516,45.5164 L348.1516,46.5336 Q348.1516,46.9602 347.9875,47.1461 Q347.8234,47.332 347.5609,47.332 Q347.3203,47.332 347.1781,47.1898 Q347.0359,47.0586 346.9594,46.6977 Q346.9266,46.4461 346.7953,46.3148 Q346.5656,46.0523 346.1391,45.8992 Q345.7125,45.7461 345.275,45.7461 Q344.7391,45.7461 344.2906,45.9758 Q343.8531,46.2055 343.5031,46.7305 Q343.1641,47.2555 343.1641,47.9773 L343.1641,48.743 Q343.1641,49.607 343.7875,50.1867 Q344.4109,50.7555 345.5266,50.7555 Q346.1828,50.7555 346.6422,50.5805 Q346.9156,50.4711 347.2109,50.1648 Q347.3969,49.9789 347.4953,49.9242 Q347.6047,49.8695 347.7469,49.8695 Q347.9766,49.8695 348.1516,50.0555 Q348.3375,50.2305 348.3375,50.4711 Q348.3375,50.7117 348.0969,50.9961 Q347.7469,51.4008 347.1891,51.6305 Q346.4344,51.9477 345.5266,51.9477 Q344.4656,51.9477 343.6234,51.5102 Q342.9344,51.1602 342.4531,50.4164 Q341.9719,49.6617 341.9719,48.7648 L341.9719,47.9555 Q341.9719,47.0258 342.3984,46.2273 Q342.8359,45.418 343.6016,44.9914 Q344.3672,44.5539 345.2312,44.5539 Q345.7453,44.5539 346.1937,44.6742 Q346.6531,44.7836 347.0359,45.0352 Z " fill="#000000"/><text fill="#000000" font-family="sans-serif" font-size="9.8" lengthAdjust="spacing" textLength="28.7" x="358.05" y="40.3717">&#171;root&#187;</text><text fill="#000000" font-family="sans-serif" font-size="9.8" lengthAdjust="spacing" textLength="35" x="354.9" y="51.3201">&#171;entity&#187;</text><text fill="#000000" font-family="sans-serif" font-size="9.8" lengthAdjust="spacing" textLength="27.3" x="358.75" y="62.2686">Plugin</text><line style="stroke:#181818;stroke-width:0.3499999999999999;" x1="335.3" x2="391.3" y1="67.8453" y2="67.8453"/><line style="stroke:#181818;stroke-width:0.3499999999999999;" x1="335.3" x2="391.3" y1="73.4453" y2="73.4453"/></g><!--class PlugID--><g id="elem_PlugID"><rect codeLine="6" fill="#F1F1F1" height="51.0453" id="PlugID" rx="1.75" ry="1.75" style="stroke:#181818;stroke-width:0.3499999999999999;" width="87.5" x="15.75" y="146.3"/><ellipse cx="26.25" cy="166.2227" fill="#ADD1B2" rx="7.7" ry="7.7" style="stroke:#181818;stroke-width:0.6999999999999998;"/><path d="M28.1859,163.3352 Q28.2953,163.182 28.4266,163.1055 Q28.5578,163.0289 28.7109,163.0289 Q28.9734,163.0289 29.1375,163.2148 Q29.3016,163.3898 29.3016,163.8164 L29.3016,164.8336 Q29.3016,165.2602 29.1375,165.4461 Q28.9734,165.632 28.7109,165.632 Q28.4703,165.632 28.3281,165.4898 Q28.1859,165.3586 28.1094,164.9977 Q28.0766,164.7461 27.9453,164.6148 Q27.7156,164.3523 27.2891,164.1992 Q26.8625,164.0461 26.425,164.0461 Q25.8891,164.0461 25.4406,164.2758 Q25.0031,164.5055 24.6531,165.0305 Q24.3141,165.5555 24.3141,166.2773 L24.3141,167.043 Q24.3141,167.907 24.9375,168.4867 Q25.5609,169.0555 26.6766,169.0555 Q27.3328,169.0555 27.7922,168.8805 Q28.0656,168.7711 28.3609,168.4648 Q28.5469,168.2789 28.6453,168.2242 Q28.7547,168.1695 28.8969,168.1695 Q29.1266,168.1695 29.3016,168.3555 Q29.4875,168.5305 29.4875,168.7711 Q29.4875,169.0117 29.2469,169.2961 Q28.8969,169.7008 28.3391,169.9305 Q27.5844,170.2477 26.6766,170.2477 Q25.6156,170.2477 24.7734,169.8102 Q24.0844,169.4602 23.6031,168.7164 Q23.1219,167.9617 23.1219,167.0648 L23.1219,166.2555 Q23.1219,165.3258 23.5484,164.5273 Q23.9859,163.718 24.7516,163.2914 Q25.5172,162.8539 26.3812,162.8539 Q26.8953,162.8539 27.3437,162.9742 Q27.8031,163.0836 28.1859,163.3352 Z " fill="#000000"/><text fill="#000000" font-family="sans-serif" font-size="9.8" lengthAdjust="spacing" textLength="64.4" x="36.4" y="158.6717">&#171;value object&#187;</text><text fill="#000000" font-family="sans-serif" font-size="9.8" lengthAdjust="spacing" textLength="49" x="44.1" y="169.6201">&#171;identifier&#187;</text><text fill="#000000" font-family="sans-serif" font-size="9.8" lengthAdjust="spacing" textLength="65.1" x="36.05" y="180.5686">PluginIdentifier</text><line style="stroke:#181818;stroke-width:0.3499999999999999;" x1="16.45" x2="102.55" y1="186.1453" y2="186.1453"/><line style="stroke:#181818;stroke-width:0.3499999999999999;" x1="16.45" x2="102.55" y1="191.7453" y2="191.7453"/></g><!--class PlugType--><g id="elem_PlugType"><rect codeLine="8" fill="#F1F1F1" height="40.0969" id="PlugType" rx="1.75" ry="1.75" style="stroke:#181818;stroke-width:0.3499999999999999;" width="86.8" x="128.1" y="151.9"/><ellipse cx="138.6" cy="166.3484" fill="#ADD1B2" rx="7.7" ry="7.7" style="stroke:#181818;stroke-width:0.6999999999999998;"/><path d="M140.5359,163.4609 Q140.6453,163.3078 140.7766,163.2312 Q140.9078,163.1547 141.0609,163.1547 Q141.3234,163.1547 141.4875,163.3406 Q141.6516,163.5156 141.6516,163.9422 L141.6516,164.9594 Q141.6516,165.3859 141.4875,165.5719 Q141.3234,165.7578 141.0609,165.7578 Q140.8203,165.7578 140.6781,165.6156 Q140.5359,165.4844 140.4594,165.1234 Q140.4266,164.8719 140.2953,164.7406 Q140.0656,164.4781 139.6391,164.325 Q139.2125,164.1719 138.775,164.1719 Q138.2391,164.1719 137.7906,164.4016 Q137.3531,164.6312 137.0031,165.1562 Q136.6641,165.6812 136.6641,166.4031 L136.6641,167.1687 Q136.6641,168.0328 137.2875,168.6125 Q137.9109,169.1812 139.0266,169.1812 Q139.6828,169.1812 140.1422,169.0062 Q140.4156,168.8969 140.7109,168.5906 Q140.8969,168.4047 140.9953,168.35 Q141.1047,168.2953 141.2469,168.2953 Q141.4766,168.2953 141.6516,168.4812 Q141.8375,168.6562 141.8375,168.8969 Q141.8375,169.1375 141.5969,169.4219 Q141.2469,169.8266 140.6891,170.0562 Q139.9344,170.3734 139.0266,170.3734 Q137.9656,170.3734 137.1234,169.9359 Q136.4344,169.5859 135.9531,168.8422 Q135.4719,168.0875 135.4719,167.1906 L135.4719,166.3812 Q135.4719,165.4516 135.8984,164.6531 Q136.3359,163.8437 137.1016,163.4172 Q137.8672,162.9797 138.7312,162.9797 Q139.2453,162.9797 139.6937,163.1 Q140.1531,163.2094 140.5359,163.4609 Z " fill="#000000"/><text fill="#000000" font-family="sans-serif" font-size="9.8" lengthAdjust="spacing" textLength="64.4" x="148.4" y="164.2717">&#171;value object&#187;</text><text fill="#000000" font-family="sans-serif" font-size="9.8" lengthAdjust="spacing" textLength="49.7" x="155.75" y="175.2201">PluginType</text><line style="stroke:#181818;stroke-width:0.3499999999999999;" x1="128.8" x2="214.2" y1="180.7969" y2="180.7969"/><line style="stroke:#181818;stroke-width:0.3499999999999999;" x1="128.8" x2="214.2" y1="186.3969" y2="186.3969"/></g><!--class PlugClass--><g id="elem_PlugClass"><rect codeLine="10" fill="#F1F1F1" height="40.0969" id="PlugClass" rx="1.75" ry="1.75" style="stroke:#181818;stroke-width:0.3499999999999999;" width="120.4" x="239.4" y="151.9"/><ellipse cx="249.9" cy="166.3484" fill="#ADD1B2" rx="7.7" ry="7.7" style="stroke:#181818;stroke-width:0.6999999999999998;"/><path d="M251.8359,163.4609 Q251.9453,163.3078 252.0766,163.2312 Q252.2078,163.1547 252.3609,163.1547 Q252.6234,163.1547 252.7875,163.3406 Q252.9516,163.5156 252.9516,163.9422 L252.9516,164.9594 Q252.9516,165.3859 252.7875,165.5719 Q252.6234,165.7578 252.3609,165.7578 Q252.1203,165.7578 251.9781,165.6156 Q251.8359,165.4844 251.7594,165.1234 Q251.7266,164.8719 251.5953,164.7406 Q251.3656,164.4781 250.9391,164.325 Q250.5125,164.1719 250.075,164.1719 Q249.5391,164.1719 249.0906,164.4016 Q248.6531,164.6312 248.3031,165.1562 Q247.9641,165.6812 247.9641,166.4031 L247.9641,167.1687 Q247.9641,168.0328 248.5875,168.6125 Q249.2109,169.1812 250.3266,169.1812 Q250.9828,169.1812 251.4422,169.0062 Q251.7156,168.8969 252.0109,168.5906 Q252.1969,168.4047 252.2953,168.35 Q252.4047,168.2953 252.5469,168.2953 Q252.7766,168.2953 252.9516,168.4812 Q253.1375,168.6562 253.1375,168.8969 Q253.1375,169.1375 252.8969,169.4219 Q252.5469,169.8266 251.9891,170.0562 Q251.2344,170.3734 250.3266,170.3734 Q249.2656,170.3734 248.4234,169.9359 Q247.7344,169.5859 247.2531,168.8422 Q246.7719,168.0875 246.7719,167.1906 L246.7719,166.3812 Q246.7719,165.4516 247.1984,164.6531 Q247.6359,163.8437 248.4016,163.4172 Q249.1672,162.9797 250.0312,162.9797 Q250.5453,162.9797 250.9937,163.1 Q251.4531,163.2094 251.8359,163.4609 Z " fill="#000000"/><text fill="#000000" font-family="sans-serif" font-size="9.8" lengthAdjust="spacing" textLength="64.4" x="276.5" y="164.2717">&#171;value object&#187;</text><text fill="#000000" font-family="sans-serif" font-size="9.8" lengthAdjust="spacing" textLength="98" x="259.7" y="175.2201">PluginMainClassName</text><line style="stroke:#181818;stroke-width:0.3499999999999999;" x1="240.1" x2="359.1" y1="180.7969" y2="180.7969"/><line style="stroke:#181818;stroke-width:0.3499999999999999;" x1="240.1" x2="359.1" y1="186.3969" y2="186.3969"/></g><!--class JarFile--><g id="elem_JarFile"><rect codeLine="12" fill="#F1F1F1" height="40.0969" id="JarFile" rx="1.75" ry="1.75" style="stroke:#181818;stroke-width:0.3499999999999999;" width="86.8" x="384.3" y="151.9"/><ellipse cx="394.8" cy="166.3484" fill="#ADD1B2" rx="7.7" ry="7.7" style="stroke:#181818;stroke-width:0.6999999999999998;"/><path d="M396.7359,163.4609 Q396.8453,163.3078 396.9766,163.2312 Q397.1078,163.1547 397.2609,163.1547 Q397.5234,163.1547 397.6875,163.3406 Q397.8516,163.5156 397.8516,163.9422 L397.8516,164.9594 Q397.8516,165.3859 397.6875,165.5719 Q397.5234,165.7578 397.2609,165.7578 Q397.0203,165.7578 396.8781,165.6156 Q396.7359,165.4844 396.6594,165.1234 Q396.6266,164.8719 396.4953,164.7406 Q396.2656,164.4781 395.8391,164.325 Q395.4125,164.1719 394.975,164.1719 Q394.4391,164.1719 393.9906,164.4016 Q393.5531,164.6312 393.2031,165.1562 Q392.8641,165.6812 392.8641,166.4031 L392.8641,167.1687 Q392.8641,168.0328 393.4875,168.6125 Q394.1109,169.1812 395.2266,169.1812 Q395.8828,169.1812 396.3422,169.0062 Q396.6156,168.8969 396.9109,168.5906 Q397.0969,168.4047 397.1953,168.35 Q397.3047,168.2953 397.4469,168.2953 Q397.6766,168.2953 397.8516,168.4812 Q398.0375,168.6562 398.0375,168.8969 Q398.0375,169.1375 397.7969,169.4219 Q397.4469,169.8266 396.8891,170.0562 Q396.1344,170.3734 395.2266,170.3734 Q394.1656,170.3734 393.3234,169.9359 Q392.6344,169.5859 392.1531,168.8422 Q391.6719,168.0875 391.6719,167.1906 L391.6719,166.3812 Q391.6719,165.4516 392.0984,164.6531 Q392.5359,163.8437 393.3016,163.4172 Q394.0672,162.9797 394.9312,162.9797 Q395.4453,162.9797 395.8937,163.1 Q396.3531,163.2094 396.7359,163.4609 Z " fill="#000000"/><text fill="#000000" font-family="sans-serif" font-size="9.8" lengthAdjust="spacing" textLength="64.4" x="404.6" y="164.2717">&#171;value object&#187;</text><text fill="#000000" font-family="sans-serif" font-size="9.8" lengthAdjust="spacing" textLength="54.6" x="409.5" y="175.2201">JarFileName</text><line style="stroke:#181818;stroke-width:0.3499999999999999;" x1="385" x2="470.4" y1="180.7969" y2="180.7969"/><line style="stroke:#181818;stroke-width:0.3499999999999999;" x1="385" x2="470.4" y1="186.3969" y2="186.3969"/></g><!--class PlugDesc--><g id="elem_PlugDesc"><rect codeLine="14" fill="#F1F1F1" height="40.0969" id="PlugDesc" rx="1.75" ry="1.75" style="stroke:#181818;stroke-width:0.3499999999999999;" width="86.8" x="495.6" y="151.9"/><ellipse cx="506.1" cy="166.3484" fill="#ADD1B2" rx="7.7" ry="7.7" style="stroke:#181818;stroke-width:0.6999999999999998;"/><path d="M508.0359,163.4609 Q508.1453,163.3078 508.2766,163.2312 Q508.4078,163.1547 508.5609,163.1547 Q508.8234,163.1547 508.9875,163.3406 Q509.1516,163.5156 509.1516,163.9422 L509.1516,164.9594 Q509.1516,165.3859 508.9875,165.5719 Q508.8234,165.7578 508.5609,165.7578 Q508.3203,165.7578 508.1781,165.6156 Q508.0359,165.4844 507.9594,165.1234 Q507.9266,164.8719 507.7953,164.7406 Q507.5656,164.4781 507.1391,164.325 Q506.7125,164.1719 506.275,164.1719 Q505.7391,164.1719 505.2906,164.4016 Q504.8531,164.6312 504.5031,165.1562 Q504.1641,165.6812 504.1641,166.4031 L504.1641,167.1687 Q504.1641,168.0328 504.7875,168.6125 Q505.4109,169.1812 506.5266,169.1812 Q507.1828,169.1812 507.6422,169.0062 Q507.9156,168.8969 508.2109,168.5906 Q508.3969,168.4047 508.4953,168.35 Q508.6047,168.2953 508.7469,168.2953 Q508.9766,168.2953 509.1516,168.4812 Q509.3375,168.6562 509.3375,168.8969 Q509.3375,169.1375 509.0969,169.4219 Q508.7469,169.8266 508.1891,170.0562 Q507.4344,170.3734 506.5266,170.3734 Q505.4656,170.3734 504.6234,169.9359 Q503.9344,169.5859 503.4531,168.8422 Q502.9719,168.0875 502.9719,167.1906 L502.9719,166.3812 Q502.9719,165.4516 503.3984,164.6531 Q503.8359,163.8437 504.6016,163.4172 Q505.3672,162.9797 506.2312,162.9797 Q506.7453,162.9797 507.1937,163.1 Q507.6531,163.2094 508.0359,163.4609 Z " fill="#000000"/><text fill="#000000" font-family="sans-serif" font-size="9.8" lengthAdjust="spacing" textLength="64.4" x="515.9" y="164.2717">&#171;value object&#187;</text><text fill="#000000" font-family="sans-serif" font-size="9.8" lengthAdjust="spacing" textLength="49.7" x="523.25" y="175.2201">Description</text><line style="stroke:#181818;stroke-width:0.3499999999999999;" x1="496.3" x2="581.7" y1="180.7969" y2="180.7969"/><line style="stroke:#181818;stroke-width:0.3499999999999999;" x1="496.3" x2="581.7" y1="186.3969" y2="186.3969"/></g><!--class JobOpening--><g id="elem_JobOpening"><rect codeLine="23" fill="#F1F1F1" height="51.0453" id="JobOpening" rx="1.75" ry="1.75" style="stroke:#181818;stroke-width:0.3499999999999999;" width="75.6" x="624.4" y="146.3"/><ellipse cx="634.9" cy="166.2227" fill="#ADD1B2" rx="7.7" ry="7.7" style="stroke:#181818;stroke-width:0.6999999999999998;"/><path d="M636.8359,163.3352 Q636.9453,163.182 637.0766,163.1055 Q637.2078,163.0289 637.3609,163.0289 Q637.6234,163.0289 637.7875,163.2148 Q637.9516,163.3898 637.9516,163.8164 L637.9516,164.8336 Q637.9516,165.2602 637.7875,165.4461 Q637.6234,165.632 637.3609,165.632 Q637.1203,165.632 636.9781,165.4898 Q636.8359,165.3586 636.7594,164.9977 Q636.7266,164.7461 636.5953,164.6148 Q636.3656,164.3523 635.9391,164.1992 Q635.5125,164.0461 635.075,164.0461 Q634.5391,164.0461 634.0906,164.2758 Q633.6531,164.5055 633.3031,165.0305 Q632.9641,165.5555 632.9641,166.2773 L632.9641,167.043 Q632.9641,167.907 633.5875,168.4867 Q634.2109,169.0555 635.3266,169.0555 Q635.9828,169.0555 636.4422,168.8805 Q636.7156,168.7711 637.0109,168.4648 Q637.1969,168.2789 637.2953,168.2242 Q637.4047,168.1695 637.5469,168.1695 Q637.7766,168.1695 637.9516,168.3555 Q638.1375,168.5305 638.1375,168.7711 Q638.1375,169.0117 637.8969,169.2961 Q637.5469,169.7008 636.9891,169.9305 Q636.2344,170.2477 635.3266,170.2477 Q634.2656,170.2477 633.4234,169.8102 Q632.7344,169.4602 632.2531,168.7164 Q631.7719,167.9617 631.7719,167.0648 L631.7719,166.2555 Q631.7719,165.3258 632.1984,164.5273 Q632.6359,163.718 633.4016,163.2914 Q634.1672,162.8539 635.0312,162.8539 Q635.5453,162.8539 635.9937,162.9742 Q636.4531,163.0836 636.8359,163.3352 Z " fill="#000000"/><text fill="#000000" font-family="sans-serif" font-size="9.8" lengthAdjust="spacing" textLength="28.7" x="656.95" y="158.6717">&#171;root&#187;</text><text fill="#000000" font-family="sans-serif" font-size="9.8" lengthAdjust="spacing" textLength="35" x="652.4" y="169.6201">&#171;entity&#187;</text><text fill="#000000" font-family="sans-serif" font-size="9.8" lengthAdjust="spacing" textLength="53.2" x="644.7" y="180.5686">JobOpening</text><line style="stroke:#181818;stroke-width:0.3499999999999999;" x1="625.1" x2="699.3" y1="186.1453" y2="186.1453"/><line style="stroke:#181818;stroke-width:0.3499999999999999;" x1="625.1" x2="699.3" y1="191.7453" y2="191.7453"/></g><!--class JobReference--><g id="elem_JobReference"><rect codeLine="28" fill="#F1F1F1" height="51.0453" id="JobReference" rx="1.75" ry="1.75" style="stroke:#181818;stroke-width:0.3499999999999999;" width="86.8" x="621.6" y="252"/><ellipse cx="632.1" cy="271.9227" fill="#ADD1B2" rx="7.7" ry="7.7" style="stroke:#181818;stroke-width:0.6999999999999998;"/><path d="M634.0359,269.0352 Q634.1453,268.882 634.2766,268.8055 Q634.4078,268.7289 634.5609,268.7289 Q634.8234,268.7289 634.9875,268.9148 Q635.1516,269.0898 635.1516,269.5164 L635.1516,270.5336 Q635.1516,270.9602 634.9875,271.1461 Q634.8234,271.332 634.5609,271.332 Q634.3203,271.332 634.1781,271.1898 Q634.0359,271.0586 633.9594,270.6977 Q633.9266,270.4461 633.7953,270.3148 Q633.5656,270.0523 633.1391,269.8992 Q632.7125,269.7461 632.275,269.7461 Q631.7391,269.7461 631.2906,269.9758 Q630.8531,270.2055 630.5031,270.7305 Q630.1641,271.2555 630.1641,271.9773 L630.1641,272.743 Q630.1641,273.607 630.7875,274.1867 Q631.4109,274.7555 632.5266,274.7555 Q633.1828,274.7555 633.6422,274.5805 Q633.9156,274.4711 634.2109,274.1648 Q634.3969,273.9789 634.4953,273.9242 Q634.6047,273.8695 634.7469,273.8695 Q634.9766,273.8695 635.1516,274.0555 Q635.3375,274.2305 635.3375,274.4711 Q635.3375,274.7117 635.0969,274.9961 Q634.7469,275.4008 634.1891,275.6305 Q633.4344,275.9477 632.5266,275.9477 Q631.4656,275.9477 630.6234,275.5102 Q629.9344,275.1602 629.4531,274.4164 Q628.9719,273.6617 628.9719,272.7648 L628.9719,271.9555 Q628.9719,271.0258 629.3984,270.2273 Q629.8359,269.418 630.6016,268.9914 Q631.3672,268.5539 632.2312,268.5539 Q632.7453,268.5539 633.1937,268.6742 Q633.6531,268.7836 634.0359,269.0352 Z " fill="#000000"/><text fill="#000000" font-family="sans-serif" font-size="9.8" lengthAdjust="spacing" textLength="64.4" x="641.9" y="264.3717">&#171;value object&#187;</text><text fill="#000000" font-family="sans-serif" font-size="9.8" lengthAdjust="spacing" textLength="49" x="649.6" y="275.3201">&#171;identifier&#187;</text><text fill="#000000" font-family="sans-serif" font-size="9.8" lengthAdjust="spacing" textLength="61.6" x="643.3" y="286.2686">JobReference</text><line style="stroke:#181818;stroke-width:0.3499999999999999;" x1="622.3" x2="707.7" y1="291.8453" y2="291.8453"/><line style="stroke:#181818;stroke-width:0.3499999999999999;" x1="622.3" x2="707.7" y1="297.4453" y2="297.4453"/></g><!--link Plugin to PlugClass--><g id="link_Plugin_PlugClass"><path codeLine="34" d="M349.636,79.331 C337.792,101.066 322.9109,128.3741 312.1029,148.2051 " fill="none" id="Plugin-to-PlugClass" style="stroke:#181818;stroke-width:0.6999999999999998;"/><polygon fill="#181818" points="310.093,151.893,315.5664,147.7011,311.7679,148.8198,310.6493,145.0213,310.093,151.893" style="stroke:#181818;stroke-width:0.6999999999999998;"/><text fill="#000000" font-family="sans-serif" font-size="9.1" lengthAdjust="spacing" textLength="33.6" x="338.1" y="109.038">includes</text><text fill="#000000" font-family="sans-serif" font-size="9.1" lengthAdjust="spacing" textLength="4.9" x="341.9664" y="92.8785">1</text><text fill="#000000" font-family="sans-serif" font-size="9.1" lengthAdjust="spacing" textLength="4.9" x="307.1535" y="144.2928">1</text></g><!--link Plugin to JarFile--><g id="link_Plugin_JarFile"><path codeLine="35" d="M377.118,79.331 C389.088,101.066 404.1411,128.3835 415.0681,148.2145 " fill="none" id="Plugin-to-JarFile" style="stroke:#181818;stroke-width:0.6999999999999998;"/><polygon fill="#181818" points="417.095,151.893,416.507,145.0239,415.4059,148.8275,411.6023,147.7265,417.095,151.893" style="stroke:#181818;stroke-width:0.6999999999999998;"/><text fill="#000000" font-family="sans-serif" font-size="9.1" lengthAdjust="spacing" textLength="33.6" x="394.1" y="109.038">includes</text><text fill="#000000" font-family="sans-serif" font-size="9.1" lengthAdjust="spacing" textLength="4.9" x="374.1719" y="92.8785">1</text><text fill="#000000" font-family="sans-serif" font-size="9.1" lengthAdjust="spacing" textLength="4.9" x="409.0128" y="144.2928">1</text></g><!--link Plugin to PlugDesc--><g id="link_Plugin_PlugDesc"><path codeLine="36" d="M392.168,66.339 C417.459,77.602 454.615,95.795 483.7,116.9 C497.742,127.092 508.8026,137.717 519.1696,148.798 " fill="none" id="Plugin-to-PlugDesc" style="stroke:#181818;stroke-width:0.6999999999999998;"/><polygon fill="#181818" points="522.039,151.865,519.7796,145.3515,519.6478,149.3092,515.6902,149.1774,522.039,151.865" style="stroke:#181818;stroke-width:0.6999999999999998;"/><text fill="#000000" font-family="sans-serif" font-size="9.1" lengthAdjust="spacing" textLength="33.6" x="475.3" y="109.038">includes</text><text fill="#000000" font-family="sans-serif" font-size="9.1" lengthAdjust="spacing" textLength="4.9" x="397.5508" y="66.1691">1</text><text fill="#000000" font-family="sans-serif" font-size="9.1" lengthAdjust="spacing" textLength="4.9" x="512.4076" y="144.2579">1</text></g><!--link Plugin to PlugID--><g id="link_Plugin_PlugID"><path codeLine="37" d="M334.411,56.686 C286.265,61.768 187.782,76.601 115.5,116.9 C102.137,124.348 92.5305,132.7242 82.7585,143.1822 " fill="none" id="Plugin-to-PlugID" style="stroke:#181818;stroke-width:0.6999999999999998;"/><polygon fill="#181818" points="79.891,146.251,86.2381,143.5595,82.2806,143.6937,82.1464,139.7361,79.891,146.251" style="stroke:#181818;stroke-width:0.6999999999999998;"/><text fill="#000000" font-family="sans-serif" font-size="9.1" lengthAdjust="spacing" textLength="48.3" x="147.7" y="109.038">identified by</text><text fill="#000000" font-family="sans-serif" font-size="9.1" lengthAdjust="spacing" textLength="4.9" x="324.1246" y="54.857">1</text><text fill="#000000" font-family="sans-serif" font-size="9.1" lengthAdjust="spacing" textLength="4.9" x="78.5231" y="138.7259">1</text></g><!--link Plugin to PlugType--><g id="link_Plugin_PlugType"><path codeLine="38" d="M334.334,64.19 C305.613,74.795 261.051,93.31 226.8,116.9 C212.401,126.819 201.2119,137.5622 190.8799,148.7762 " fill="none" id="Plugin-to-PlugType" style="stroke:#181818;stroke-width:0.6999999999999998;"/><polygon fill="#181818" points="188.034,151.865,194.3621,149.129,190.4056,149.291,190.2436,145.3345,188.034,151.865" style="stroke:#181818;stroke-width:0.6999999999999998;"/><text fill="#000000" font-family="sans-serif" font-size="9.1" lengthAdjust="spacing" textLength="22.4" x="252" y="109.038">has a</text><text fill="#000000" font-family="sans-serif" font-size="9.1" lengthAdjust="spacing" textLength="4.9" x="324.0344" y="75.1351">1</text><text fill="#000000" font-family="sans-serif" font-size="9.1" lengthAdjust="spacing" textLength="4.9" x="186.567" y="144.2579">1</text></g><!--reverse link Plugin to JobOpening--><g id="link_Plugin_JobOpening"><path codeLine="39" d="M396.2538,58.9217 C441.2148,66.0057 525.812,82.691 593.6,116.9 C608.783,124.565 623.812,135.905 635.915,146.237 " fill="none" id="Plugin-backto-JobOpening" style="stroke:#181818;stroke-width:0.6999999999999998;"/><polygon fill="#181818" points="392.105,58.268,397.8924,62.0144,395.5623,58.8127,398.764,56.4826,392.105,58.268" style="stroke:#181818;stroke-width:0.6999999999999998;"/><text fill="#000000" font-family="sans-serif" font-size="9.1" lengthAdjust="spacing" textLength="33.6" x="576.8" y="109.038">includes</text><text fill="#000000" font-family="sans-serif" font-size="9.1" lengthAdjust="spacing" textLength="15.4" x="397.6948" y="56.7104">0..2</text><text fill="#000000" font-family="sans-serif" font-size="9.1" lengthAdjust="spacing" textLength="4.9" x="625.3578" y="138.7092">1</text></g><!--link JobOpening to JobReference--><g id="link_JobOpening_JobReference"><path codeLine="42" d="M662.872,197.533 C663.313,213.983 663.7744,231.2465 664.2154,247.6895 " fill="none" id="JobOpening-to-JobReference" style="stroke:#181818;stroke-width:0.6999999999999998;"/><polygon fill="#181818" points="664.328,251.888,666.9581,245.5152,664.2342,248.3893,661.3601,245.6653,664.328,251.888" style="stroke:#181818;stroke-width:0.6999999999999998;"/><text fill="#000000" font-family="sans-serif" font-size="9.1" lengthAdjust="spacing" textLength="33.6" x="664.3" y="228.738">includes</text><text fill="#000000" font-family="sans-serif" font-size="9.1" lengthAdjust="spacing" textLength="4.9" x="657.6553" y="211.2561">1</text><text fill="#000000" font-family="sans-serif" font-size="9.1" lengthAdjust="spacing" textLength="4.9" x="658.8329" y="244.5402">1</text></g><!--SRC=[bPA_QiCm4CPtFSNXfPEJjcCeXT9GIA1_A1sxoF95KIjBHfOB8UI9yWZT_6ILR5csIOV4YwJpx_lkTAUhhRLbjPZFIqcLhGivOxgOCqchAiq5vOOMX9IKVLEEaBp9cWi53vmRvDHYiYVWlXO7I9gZqTeslv-gEQAomkxylXCbG2lejfteC98wvG-LDOBElf051v5xZur0CxYiOYpwhPPd-NNwZrs9KUaF5sYVgL2F7dcXnM3IHivoMLFp92H6TJYVfLrYnOmehT138tsi5n_8Q4fhdS5hYKeeFXcL-oP9JeS5hagT1MrNP3pkISX5BXkSStZ73HfK37lB6EZhRoyG7ifD0cbwxvVONrY0K4pMELQdLEZZAGFkhsFyqlVhVmW25TwJX_ehv93jfYaZw9-FGxVkIZIQNSzcjmdSfMcB3TqR9oPa5Ezg373ionGdVm00]--></g></svg>