<?xml version="1.0" encoding="us-ascii" standalone="no"?><svg xmlns="http://www.w3.org/2000/svg" xmlns:xlink="http://www.w3.org/1999/xlink" contentStyleType="text/css" height="461px" preserveAspectRatio="none" style="width:930px;height:461px;background:#FFFFFF;" version="1.1" viewBox="0 0 930 461" width="930px" zoomAndPan="magnify"><defs/><g><text fill="#000000" font-family="sans-serif" font-size="14" font-weight="bold" lengthAdjust="spacing" textLength="902" x="10" y="27.6738">"US 3000 - As Candidate, I want to list all my applications and their state (including the number of applicants)." Sequence Diagram</text><rect fill="#FFFFFF" height="236.4219" style="stroke:#181818;stroke-width:1.0;" width="10" x="65.25" y="127.2813"/><rect fill="#FFFFFF" height="215.8984" style="stroke:#181818;stroke-width:1.0;" width="10" x="400.25" y="147.8047"/><rect fill="#FFFFFF" height="85.5703" style="stroke:#181818;stroke-width:1.0;" width="10" x="631.25" y="249.6094"/><rect fill="#FFFFFF" height="28.5234" style="stroke:#181818;stroke-width:1.0;" width="10" x="839.25" y="278.1328"/><line style="stroke:#181818;stroke-width:0.5;stroke-dasharray:5.0,5.0;" x1="69.75" x2="69.75" y1="117.2813" y2="381.7031"/><line style="stroke:#181818;stroke-width:0.5;stroke-dasharray:5.0,5.0;" x1="405.25" x2="405.25" y1="117.2813" y2="381.7031"/><line style="stroke:#181818;stroke-width:0.5;stroke-dasharray:5.0,5.0;" x1="636.25" x2="636.25" y1="202.4453" y2="381.7031"/><line style="stroke:#181818;stroke-width:0.5;stroke-dasharray:5.0,5.0;" x1="844.25" x2="844.25" y1="117.2813" y2="381.7031"/><text fill="#000000" font-family="sans-serif" font-size="14" lengthAdjust="spacing" textLength="65" x="34.75" y="114.3145">Candidate</text><ellipse cx="70.25" cy="50.1406" fill="#E3E3E3" rx="8" ry="8" style="stroke:#181818;stroke-width:0.5;"/><path d="M70.25,58.1406 L70.25,85.1406 M57.25,66.1406 L83.25,66.1406 M70.25,85.1406 L57.25,100.1406 M70.25,85.1406 L83.25,100.1406 " fill="none" style="stroke:#181818;stroke-width:0.5;"/><text fill="#000000" font-family="sans-serif" font-size="14" lengthAdjust="spacing" textLength="65" x="34.75" y="393.377">Candidate</text><ellipse cx="70.25" cy="404.8438" fill="#E3E3E3" rx="8" ry="8" style="stroke:#181818;stroke-width:0.5;"/><path d="M70.25,412.8438 L70.25,439.8438 M57.25,420.8438 L83.25,420.8438 M70.25,439.8438 L57.25,454.8438 M70.25,439.8438 L83.25,454.8438 " fill="none" style="stroke:#181818;stroke-width:0.5;"/><rect fill="#E3E3E3" height="45.2813" rx="2.5" ry="2.5" style="stroke:#181818;stroke-width:0.5;" width="200" x="305.25" y="71"/><text fill="#000000" font-family="sans-serif" font-size="14" font-style="italic" lengthAdjust="spacing" textLength="95" x="357.75" y="90.6738">&#171;presentation&#187;</text><text fill="#000000" font-family="sans-serif" font-size="14" lengthAdjust="spacing" textLength="186" x="312.25" y="106.3145">:DisplayStateJobApplicationUI</text><rect fill="#E3E3E3" height="45.2813" rx="2.5" ry="2.5" style="stroke:#181818;stroke-width:0.5;" width="200" x="305.25" y="380.7031"/><text fill="#000000" font-family="sans-serif" font-size="14" font-style="italic" lengthAdjust="spacing" textLength="95" x="357.75" y="400.377">&#171;presentation&#187;</text><text fill="#000000" font-family="sans-serif" font-size="14" lengthAdjust="spacing" textLength="186" x="312.25" y="416.0176">:DisplayStateJobApplicationUI</text><text fill="#000000" font-family="sans-serif" font-size="14" font-style="italic" lengthAdjust="spacing" textLength="84" x="591.25" y="393.377">&#171;application&#187;</text><text fill="#000000" font-family="sans-serif" font-size="14" lengthAdjust="spacing" textLength="236" x="515.25" y="409.0176">:DisplayStateJobApplicationController</text><ellipse cx="636.25" cy="427.9844" fill="#E3E3E3" rx="12" ry="12" style="stroke:#181818;stroke-width:0.5;"/><polygon fill="#181818" points="632.25,415.9844,638.25,410.9844,636.25,415.9844,638.25,420.9844,632.25,415.9844" style="stroke:#181818;stroke-width:1.0;"/><rect fill="#E3E3E3" height="45.2813" rx="2.5" ry="2.5" style="stroke:#181818;stroke-width:0.5;" width="88" x="800.25" y="71"/><text fill="#000000" font-family="sans-serif" font-size="14" font-style="italic" lengthAdjust="spacing" textLength="62" x="813.25" y="90.6738">&#171;System&#187;</text><text fill="#000000" font-family="sans-serif" font-size="14" lengthAdjust="spacing" textLength="74" x="807.25" y="106.3145">:TCPServer</text><rect fill="#E3E3E3" height="45.2813" rx="2.5" ry="2.5" style="stroke:#181818;stroke-width:0.5;" width="88" x="800.25" y="380.7031"/><text fill="#000000" font-family="sans-serif" font-size="14" font-style="italic" lengthAdjust="spacing" textLength="62" x="813.25" y="400.377">&#171;System&#187;</text><text fill="#000000" font-family="sans-serif" font-size="14" lengthAdjust="spacing" textLength="74" x="807.25" y="416.0176">:TCPServer</text><rect fill="#FFFFFF" height="236.4219" style="stroke:#181818;stroke-width:1.0;" width="10" x="65.25" y="127.2813"/><rect fill="#FFFFFF" height="215.8984" style="stroke:#181818;stroke-width:1.0;" width="10" x="400.25" y="147.8047"/><rect fill="#FFFFFF" height="85.5703" style="stroke:#181818;stroke-width:1.0;" width="10" x="631.25" y="249.6094"/><rect fill="#FFFFFF" height="28.5234" style="stroke:#181818;stroke-width:1.0;" width="10" x="839.25" y="278.1328"/><polygon fill="#181818" points="388.25,143.8047,398.25,147.8047,388.25,151.8047,392.25,147.8047" style="stroke:#181818;stroke-width:1.0;"/><line style="stroke:#181818;stroke-width:1.0;" x1="75.25" x2="394.25" y1="147.8047" y2="147.8047"/><text fill="#000000" font-family="sans-serif" font-size="13" font-weight="bold" lengthAdjust="spacing" textLength="7" x="82.25" y="143.0498">1</text><text fill="#000000" font-family="sans-serif" font-size="13" lengthAdjust="spacing" textLength="176" x="93.25" y="143.0498">asks to list all the applications</text><polygon fill="#181818" points="503.25,172.3281,513.25,176.3281,503.25,180.3281,507.25,176.3281" style="stroke:#181818;stroke-width:1.0;"/><line style="stroke:#181818;stroke-width:1.0;" x1="410.25" x2="509.25" y1="176.3281" y2="176.3281"/><text fill="#000000" font-family="sans-serif" font-size="13" font-weight="bold" lengthAdjust="spacing" textLength="7" x="417.25" y="171.5732">2</text><text fill="#000000" font-family="sans-serif" font-size="13" lengthAdjust="spacing" textLength="36" x="428.25" y="171.5732">create</text><text fill="#000000" font-family="sans-serif" font-size="14" font-style="italic" lengthAdjust="spacing" textLength="84" x="591.25" y="200.4785">&#171;application&#187;</text><text fill="#000000" font-family="sans-serif" font-size="14" lengthAdjust="spacing" textLength="236" x="515.25" y="216.1191">:DisplayStateJobApplicationController</text><ellipse cx="636.25" cy="171.8047" fill="#E3E3E3" rx="12" ry="12" style="stroke:#181818;stroke-width:0.5;"/><polygon fill="#181818" points="632.25,159.8047,638.25,154.8047,636.25,159.8047,638.25,164.8047,632.25,159.8047" style="stroke:#181818;stroke-width:1.0;"/><polygon fill="#181818" points="619.25,245.6094,629.25,249.6094,619.25,253.6094,623.25,249.6094" style="stroke:#181818;stroke-width:1.0;"/><line style="stroke:#181818;stroke-width:1.0;" x1="410.25" x2="625.25" y1="249.6094" y2="249.6094"/><text fill="#000000" font-family="sans-serif" font-size="13" font-weight="bold" lengthAdjust="spacing" textLength="7" x="417.25" y="244.8545">3</text><text fill="#000000" font-family="sans-serif" font-size="13" lengthAdjust="spacing" textLength="134" x="428.25" y="244.8545">listAllApplicationsReq()</text><polygon fill="#181818" points="827.25,274.1328,837.25,278.1328,827.25,282.1328,831.25,278.1328" style="stroke:#181818;stroke-width:1.0;"/><line style="stroke:#181818;stroke-width:1.0;" x1="641.25" x2="833.25" y1="278.1328" y2="278.1328"/><text fill="#000000" font-family="sans-serif" font-size="13" font-weight="bold" lengthAdjust="spacing" textLength="7" x="648.25" y="273.3779">4</text><text fill="#000000" font-family="sans-serif" font-size="13" lengthAdjust="spacing" textLength="156" x="659.25" y="273.3779">(tcp) listAllApplicationsReq</text><polygon fill="#181818" points="652.25,302.6563,642.25,306.6563,652.25,310.6563,648.25,306.6563" style="stroke:#181818;stroke-width:1.0;"/><line style="stroke:#181818;stroke-width:1.0;stroke-dasharray:2.0,2.0;" x1="646.25" x2="843.25" y1="306.6563" y2="306.6563"/><text fill="#000000" font-family="sans-serif" font-size="13" font-weight="bold" lengthAdjust="spacing" textLength="7" x="658.25" y="301.9014">5</text><text fill="#000000" font-family="sans-serif" font-size="13" lengthAdjust="spacing" textLength="163" x="669.25" y="301.9014">(tcp) listAllApplicationsResp</text><polygon fill="#181818" points="421.25,331.1797,411.25,335.1797,421.25,339.1797,417.25,335.1797" style="stroke:#181818;stroke-width:1.0;"/><line style="stroke:#181818;stroke-width:1.0;stroke-dasharray:2.0,2.0;" x1="415.25" x2="635.25" y1="335.1797" y2="335.1797"/><text fill="#000000" font-family="sans-serif" font-size="13" font-weight="bold" lengthAdjust="spacing" textLength="7" x="427.25" y="330.4248">6</text><text fill="#000000" font-family="sans-serif" font-size="13" lengthAdjust="spacing" textLength="133" x="438.25" y="330.4248">listAllApplicationsResp</text><polygon fill="#181818" points="81.25,359.7031,71.25,363.7031,81.25,367.7031,77.25,363.7031" style="stroke:#181818;stroke-width:1.0;"/><line style="stroke:#181818;stroke-width:1.0;stroke-dasharray:2.0,2.0;" x1="75.25" x2="404.25" y1="363.7031" y2="363.7031"/><text fill="#000000" font-family="sans-serif" font-size="13" font-weight="bold" lengthAdjust="spacing" textLength="7" x="87.25" y="358.9482">7</text><text fill="#000000" font-family="sans-serif" font-size="13" lengthAdjust="spacing" textLength="290" x="98.25" y="358.9482">shows list of all the jobApplications and their state</text><!--SRC=[bPB1Rjim38RlUWh2boR5CWJOpIW21EubnGv5tJo08ZEn5bbI9RfftdwKxJfEjnQeJZR9_-DFIl6ehPT1Dj0uwrGTN8D0eKKHnuoNwYWFMDBP80HK9Et1J0jYBIjtqlO0UsaY2Y5RShPjTXY484qioxOb_5ekbx20TOH2safNal07RE0aBG4vC3eII6EWEOFqtcWbIJiRWOk1QjG18h46PjegqrQf7uUXRmHk_wwo5ES_CoZnfKMh4EwrFB1DSLFh2c7l7EtScv2AN81ij9A1P6D2y4YabVR9LPRVw-YDF9UfyOFRhI- -jfjEiTt0tPqF6D5I5r-jX7AMWZDVoek-nc3e6py__MRGP6xcN5jvBXvB3A-3eFzaINcEX0rNfudqQreGJm5y2bYiah-Swu_nQiLfRzCTYrwHpaZPRiOOGnYLFDxUCau5v08nIG_PlEkmDcOoQ7p2bzdyF_ma6AFT_4mPnifXHihFFy5Dt5vmlVAIwFyNWxElYT6FkWe_4ZzuVD_fDq3TfDDjBLO5vB5sfzXVINgxmwtykNeb_pp-4JF1yqM9QJVn5m00]--></g></svg>