<?xml version="1.0" encoding="us-ascii" standalone="no"?><svg xmlns="http://www.w3.org/2000/svg" xmlns:xlink="http://www.w3.org/1999/xlink" contentStyleType="text/css" height="286.4px" preserveAspectRatio="none" style="width:899px;height:286px;background:#FFFFFF;" version="1.1" viewBox="0 0 899 286" width="899.2px" zoomAndPan="magnify"><defs/><g><!--cluster Job Opening Aggregate--><g id="cluster_Job Opening Aggregate"><path d="M345,2.4 L412.2,2.4 A1.5,1.5 0 0 1 413.2,3.4 L416,11.0563 L895.4,11.0563 A1,1 0 0 1 896.4,12.0563 L896.4,282.6 A1,1 0 0 1 895.4,283.6 L345,283.6 A1,1 0 0 1 344,282.6 L344,3.4 A1,1 0 0 1 345,2.4 " fill="none" style="stroke:#000000;stroke-width:0.6000000000000001;"/><line style="stroke:#000000;stroke-width:0.6000000000000001;" x1="344" x2="416" y1="11.0563" y2="11.0563"/><text fill="#000000" font-family="sans-serif" font-size="5.6" font-weight="bold" lengthAdjust="spacing" textLength="66.8" x="345.6" y="8.2695">Job Opening Aggregate</text></g><!--cluster Notification Aggregate--><g id="cluster_Notification Aggregate"><path d="M266.2,162.4 L329.4,162.4 A1.5,1.5 0 0 1 330.4,163.4 L333.2,171.0563 L333.4,171.0563 A1,1 0 0 1 334.4,172.0563 L334.4,204.2 A1,1 0 0 1 333.4,205.2 L266.2,205.2 A1,1 0 0 1 265.2,204.2 L265.2,163.4 A1,1 0 0 1 266.2,162.4 " fill="none" style="stroke:#000000;stroke-width:0.6000000000000001;"/><line style="stroke:#000000;stroke-width:0.6000000000000001;" x1="265.2" x2="333.2" y1="171.0563" y2="171.0563"/><text fill="#000000" font-family="sans-serif" font-size="5.6" font-weight="bold" lengthAdjust="spacing" textLength="62.8" x="266.8" y="168.2695">Notification Aggregate</text></g><!--cluster JobApplication Aggregate--><g id="cluster_JobApplication Aggregate"><path d="M3.4,94.8 L76.2,94.8 A1.5,1.5 0 0 1 77.2,95.8 L80,103.4563 L254.6,103.4563 A1,1 0 0 1 255.6,104.4563 L255.6,273.2 A1,1 0 0 1 254.6,274.2 L3.4,274.2 A1,1 0 0 1 2.4,273.2 L2.4,95.8 A1,1 0 0 1 3.4,94.8 " fill="none" style="stroke:#000000;stroke-width:0.6000000000000001;"/><line style="stroke:#000000;stroke-width:0.6000000000000001;" x1="2.4" x2="80" y1="103.4563" y2="103.4563"/><text fill="#000000" font-family="sans-serif" font-size="5.6" font-weight="bold" lengthAdjust="spacing" textLength="72.4" x="4" y="100.6695">JobApplication Aggregate</text></g><!--class RecruitmentProcess--><g id="elem_RecruitmentProcess"><rect codeLine="5" fill="#F1F1F1" height="29.1688" id="RecruitmentProcess" rx="1" ry="1" style="stroke:#181818;stroke-width:0.20000000000000004;" width="63.6" x="415.4" y="172.8"/><ellipse cx="421.4" cy="181.0563" fill="#ADD1B2" rx="4.4" ry="4.4" style="stroke:#181818;stroke-width:0.4000000000000001;"/><path d="M422.5063,179.4063 Q422.5688,179.3188 422.6438,179.275 Q422.7188,179.2313 422.8063,179.2313 Q422.9563,179.2313 423.05,179.3375 Q423.1438,179.4375 423.1438,179.6813 L423.1438,180.2625 Q423.1438,180.5063 423.05,180.6125 Q422.9563,180.7188 422.8063,180.7188 Q422.6688,180.7188 422.5875,180.6375 Q422.5063,180.5625 422.4625,180.3563 Q422.4438,180.2125 422.3688,180.1375 Q422.2375,179.9875 421.9938,179.9 Q421.75,179.8125 421.5,179.8125 Q421.1938,179.8125 420.9375,179.9438 Q420.6875,180.075 420.4875,180.375 Q420.2938,180.675 420.2938,181.0875 L420.2938,181.525 Q420.2938,182.0188 420.65,182.35 Q421.0063,182.675 421.6438,182.675 Q422.0188,182.675 422.2813,182.575 Q422.4375,182.5125 422.6063,182.3375 Q422.7125,182.2313 422.7688,182.2 Q422.8313,182.1688 422.9125,182.1688 Q423.0438,182.1688 423.1438,182.275 Q423.25,182.375 423.25,182.5125 Q423.25,182.65 423.1125,182.8125 Q422.9125,183.0438 422.5938,183.175 Q422.1625,183.3563 421.6438,183.3563 Q421.0375,183.3563 420.5563,183.1063 Q420.1625,182.9063 419.8875,182.4813 Q419.6125,182.05 419.6125,181.5375 L419.6125,181.075 Q419.6125,180.5438 419.8563,180.0875 Q420.1063,179.625 420.5438,179.3813 Q420.9813,179.1313 421.475,179.1313 Q421.7688,179.1313 422.025,179.2 Q422.2875,179.2625 422.5063,179.4063 Z " fill="#000000"/><text fill="#000000" font-family="sans-serif" font-size="5.6" lengthAdjust="spacing" textLength="20" x="442.4" y="179.8695">&#171;entity&#187;</text><text fill="#000000" font-family="sans-serif" font-size="5.6" lengthAdjust="spacing" textLength="50.8" x="427" y="186.1258">RecruitmentProcess</text><line style="stroke:#181818;stroke-width:0.20000000000000004;" x1="415.8" x2="478.6" y1="189.3125" y2="189.3125"/><text fill="#000000" font-family="sans-serif" font-size="5.6" lengthAdjust="spacing" textLength="47.6" x="417.8" y="195.982">HasInterviewPhase</text><line style="stroke:#181818;stroke-width:0.20000000000000004;" x1="415.8" x2="478.6" y1="198.7688" y2="198.7688"/></g><!--class Phase--><g id="elem_Phase"><rect codeLine="9" fill="#F1F1F1" height="41.6813" id="Phase" rx="1" ry="1" style="stroke:#181818;stroke-width:0.20000000000000004;" width="34.8" x="720.6" y="235.6"/><ellipse cx="727.5" cy="243.8563" fill="#ADD1B2" rx="4.4" ry="4.4" style="stroke:#181818;stroke-width:0.4000000000000001;"/><path d="M728.6063,242.2063 Q728.6688,242.1188 728.7438,242.075 Q728.8188,242.0313 728.9063,242.0313 Q729.0563,242.0313 729.15,242.1375 Q729.2438,242.2375 729.2438,242.4813 L729.2438,243.0625 Q729.2438,243.3063 729.15,243.4125 Q729.0563,243.5188 728.9063,243.5188 Q728.7688,243.5188 728.6875,243.4375 Q728.6063,243.3625 728.5625,243.1563 Q728.5438,243.0125 728.4688,242.9375 Q728.3375,242.7875 728.0938,242.7 Q727.85,242.6125 727.6,242.6125 Q727.2938,242.6125 727.0375,242.7438 Q726.7875,242.875 726.5875,243.175 Q726.3938,243.475 726.3938,243.8875 L726.3938,244.325 Q726.3938,244.8188 726.75,245.15 Q727.1063,245.475 727.7438,245.475 Q728.1188,245.475 728.3813,245.375 Q728.5375,245.3125 728.7063,245.1375 Q728.8125,245.0313 728.8688,245 Q728.9313,244.9688 729.0125,244.9688 Q729.1438,244.9688 729.2438,245.075 Q729.35,245.175 729.35,245.3125 Q729.35,245.45 729.2125,245.6125 Q729.0125,245.8438 728.6938,245.975 Q728.2625,246.1563 727.7438,246.1563 Q727.1375,246.1563 726.6563,245.9063 Q726.2625,245.7063 725.9875,245.2813 Q725.7125,244.85 725.7125,244.3375 L725.7125,243.875 Q725.7125,243.3438 725.9563,242.8875 Q726.2063,242.425 726.6438,242.1813 Q727.0813,241.9313 727.575,241.9313 Q727.8688,241.9313 728.125,242 Q728.3875,242.0625 728.6063,242.2063 Z " fill="#000000"/><text fill="#000000" font-family="sans-serif" font-size="5.6" lengthAdjust="spacing" textLength="20" x="733.3" y="242.6695">&#171;entity&#187;</text><text fill="#000000" font-family="sans-serif" font-size="5.6" lengthAdjust="spacing" textLength="16" x="735.3" y="248.9258">Phase</text><line style="stroke:#181818;stroke-width:0.20000000000000004;" x1="721" x2="755" y1="252.1125" y2="252.1125"/><text fill="#000000" font-family="sans-serif" font-size="5.6" lengthAdjust="spacing" textLength="30" x="723" y="258.782">phaseName</text><text fill="#000000" font-family="sans-serif" font-size="5.6" lengthAdjust="spacing" textLength="23.2" x="723" y="265.0383">startDate</text><text fill="#000000" font-family="sans-serif" font-size="5.6" lengthAdjust="spacing" textLength="21.6" x="723" y="271.2945">endDate</text><line style="stroke:#181818;stroke-width:0.20000000000000004;" x1="721" x2="755" y1="274.0813" y2="274.0813"/></g><!--class PhaseNames--><g id="elem_PhaseNames"><rect codeLine="15" fill="#F1F1F1" height="22.9125" id="PhaseNames" rx="1" ry="1" style="stroke:#181818;stroke-width:0.20000000000000004;" width="49.6" x="512.8" y="176"/><ellipse cx="518.8" cy="184.2563" fill="#ADD1B2" rx="4.4" ry="4.4" style="stroke:#181818;stroke-width:0.4000000000000001;"/><path d="M519.9063,182.6063 Q519.9688,182.5188 520.0438,182.475 Q520.1188,182.4313 520.2063,182.4313 Q520.3563,182.4313 520.45,182.5375 Q520.5438,182.6375 520.5438,182.8813 L520.5438,183.4625 Q520.5438,183.7063 520.45,183.8125 Q520.3563,183.9188 520.2063,183.9188 Q520.0688,183.9188 519.9875,183.8375 Q519.9063,183.7625 519.8625,183.5563 Q519.8438,183.4125 519.7688,183.3375 Q519.6375,183.1875 519.3938,183.1 Q519.15,183.0125 518.9,183.0125 Q518.5938,183.0125 518.3375,183.1438 Q518.0875,183.275 517.8875,183.575 Q517.6938,183.875 517.6938,184.2875 L517.6938,184.725 Q517.6938,185.2188 518.05,185.55 Q518.4063,185.875 519.0438,185.875 Q519.4188,185.875 519.6813,185.775 Q519.8375,185.7125 520.0063,185.5375 Q520.1125,185.4313 520.1688,185.4 Q520.2313,185.3688 520.3125,185.3688 Q520.4438,185.3688 520.5438,185.475 Q520.65,185.575 520.65,185.7125 Q520.65,185.85 520.5125,186.0125 Q520.3125,186.2438 519.9938,186.375 Q519.5625,186.5563 519.0438,186.5563 Q518.4375,186.5563 517.9563,186.3063 Q517.5625,186.1063 517.2875,185.6813 Q517.0125,185.25 517.0125,184.7375 L517.0125,184.275 Q517.0125,183.7438 517.2563,183.2875 Q517.5063,182.825 517.9438,182.5813 Q518.3813,182.3313 518.875,182.3313 Q519.1688,182.3313 519.425,182.4 Q519.6875,182.4625 519.9063,182.6063 Z " fill="#000000"/><text fill="#000000" font-family="sans-serif" font-size="5.6" lengthAdjust="spacing" textLength="36.8" x="524.4" y="183.0695">&#171;value object&#187;</text><text fill="#000000" font-family="sans-serif" font-size="5.6" lengthAdjust="spacing" textLength="33.2" x="526.2" y="189.3258">PhaseNames</text><line style="stroke:#181818;stroke-width:0.20000000000000004;" x1="513.2" x2="562" y1="192.5125" y2="192.5125"/><line style="stroke:#181818;stroke-width:0.20000000000000004;" x1="513.2" x2="562" y1="195.7125" y2="195.7125"/></g><!--class ScreeningPhase--><g id="elem_ScreeningPhase"><rect codeLine="20" fill="#F1F1F1" height="22.9125" id="ScreeningPhase" rx="1" ry="1" style="stroke:#181818;stroke-width:0.20000000000000004;" width="54.4" x="835.6" y="176"/><ellipse cx="841.6" cy="184.2563" fill="#ADD1B2" rx="4.4" ry="4.4" style="stroke:#181818;stroke-width:0.4000000000000001;"/><path d="M842.7063,182.6063 Q842.7688,182.5188 842.8438,182.475 Q842.9188,182.4313 843.0063,182.4313 Q843.1563,182.4313 843.25,182.5375 Q843.3438,182.6375 843.3438,182.8813 L843.3438,183.4625 Q843.3438,183.7063 843.25,183.8125 Q843.1563,183.9188 843.0063,183.9188 Q842.8688,183.9188 842.7875,183.8375 Q842.7063,183.7625 842.6625,183.5563 Q842.6438,183.4125 842.5688,183.3375 Q842.4375,183.1875 842.1938,183.1 Q841.95,183.0125 841.7,183.0125 Q841.3938,183.0125 841.1375,183.1438 Q840.8875,183.275 840.6875,183.575 Q840.4938,183.875 840.4938,184.2875 L840.4938,184.725 Q840.4938,185.2188 840.85,185.55 Q841.2063,185.875 841.8438,185.875 Q842.2188,185.875 842.4813,185.775 Q842.6375,185.7125 842.8063,185.5375 Q842.9125,185.4313 842.9688,185.4 Q843.0313,185.3688 843.1125,185.3688 Q843.2438,185.3688 843.3438,185.475 Q843.45,185.575 843.45,185.7125 Q843.45,185.85 843.3125,186.0125 Q843.1125,186.2438 842.7938,186.375 Q842.3625,186.5563 841.8438,186.5563 Q841.2375,186.5563 840.7563,186.3063 Q840.3625,186.1063 840.0875,185.6813 Q839.8125,185.25 839.8125,184.7375 L839.8125,184.275 Q839.8125,183.7438 840.0563,183.2875 Q840.3063,182.825 840.7438,182.5813 Q841.1813,182.3313 841.675,182.3313 Q841.9688,182.3313 842.225,182.4 Q842.4875,182.4625 842.7063,182.6063 Z " fill="#000000"/><text fill="#000000" font-family="sans-serif" font-size="5.6" lengthAdjust="spacing" textLength="20" x="858" y="183.0695">&#171;entity&#187;</text><text fill="#000000" font-family="sans-serif" font-size="5.6" lengthAdjust="spacing" textLength="41.6" x="847.2" y="189.3258">ScreeningPhase</text><line style="stroke:#181818;stroke-width:0.20000000000000004;" x1="836" x2="889.6" y1="192.5125" y2="192.5125"/><line style="stroke:#181818;stroke-width:0.20000000000000004;" x1="836" x2="889.6" y1="195.7125" y2="195.7125"/></g><!--class ResultPhase--><g id="elem_ResultPhase"><rect codeLine="24" fill="#F1F1F1" height="22.9125" id="ResultPhase" rx="1" ry="1" style="stroke:#181818;stroke-width:0.20000000000000004;" width="44.8" x="776.8" y="176"/><ellipse cx="782.8" cy="184.2563" fill="#ADD1B2" rx="4.4" ry="4.4" style="stroke:#181818;stroke-width:0.4000000000000001;"/><path d="M783.9063,182.6063 Q783.9688,182.5188 784.0438,182.475 Q784.1188,182.4313 784.2063,182.4313 Q784.3563,182.4313 784.45,182.5375 Q784.5438,182.6375 784.5438,182.8813 L784.5438,183.4625 Q784.5438,183.7063 784.45,183.8125 Q784.3563,183.9188 784.2063,183.9188 Q784.0688,183.9188 783.9875,183.8375 Q783.9063,183.7625 783.8625,183.5563 Q783.8438,183.4125 783.7688,183.3375 Q783.6375,183.1875 783.3938,183.1 Q783.15,183.0125 782.9,183.0125 Q782.5938,183.0125 782.3375,183.1438 Q782.0875,183.275 781.8875,183.575 Q781.6938,183.875 781.6938,184.2875 L781.6938,184.725 Q781.6938,185.2188 782.05,185.55 Q782.4063,185.875 783.0438,185.875 Q783.4188,185.875 783.6813,185.775 Q783.8375,185.7125 784.0063,185.5375 Q784.1125,185.4313 784.1688,185.4 Q784.2313,185.3688 784.3125,185.3688 Q784.4438,185.3688 784.5438,185.475 Q784.65,185.575 784.65,185.7125 Q784.65,185.85 784.5125,186.0125 Q784.3125,186.2438 783.9938,186.375 Q783.5625,186.5563 783.0438,186.5563 Q782.4375,186.5563 781.9563,186.3063 Q781.5625,186.1063 781.2875,185.6813 Q781.0125,185.25 781.0125,184.7375 L781.0125,184.275 Q781.0125,183.7438 781.2563,183.2875 Q781.5063,182.825 781.9438,182.5813 Q782.3813,182.3313 782.875,182.3313 Q783.1688,182.3313 783.425,182.4 Q783.6875,182.4625 783.9063,182.6063 Z " fill="#000000"/><text fill="#000000" font-family="sans-serif" font-size="5.6" lengthAdjust="spacing" textLength="20" x="794.4" y="183.0695">&#171;entity&#187;</text><text fill="#000000" font-family="sans-serif" font-size="5.6" lengthAdjust="spacing" textLength="32" x="788.4" y="189.3258">ResultPhase</text><line style="stroke:#181818;stroke-width:0.20000000000000004;" x1="777.2" x2="821.2" y1="192.5125" y2="192.5125"/><line style="stroke:#181818;stroke-width:0.20000000000000004;" x1="777.2" x2="821.2" y1="195.7125" y2="195.7125"/></g><!--class AnalysisPhase--><g id="elem_AnalysisPhase"><rect codeLine="27" fill="#F1F1F1" height="22.9125" id="AnalysisPhase" rx="1" ry="1" style="stroke:#181818;stroke-width:0.20000000000000004;" width="49.6" x="713.2" y="176"/><ellipse cx="719.2" cy="184.2563" fill="#ADD1B2" rx="4.4" ry="4.4" style="stroke:#181818;stroke-width:0.4000000000000001;"/><path d="M720.3063,182.6063 Q720.3688,182.5188 720.4438,182.475 Q720.5188,182.4313 720.6063,182.4313 Q720.7563,182.4313 720.85,182.5375 Q720.9438,182.6375 720.9438,182.8813 L720.9438,183.4625 Q720.9438,183.7063 720.85,183.8125 Q720.7563,183.9188 720.6063,183.9188 Q720.4688,183.9188 720.3875,183.8375 Q720.3063,183.7625 720.2625,183.5563 Q720.2438,183.4125 720.1688,183.3375 Q720.0375,183.1875 719.7938,183.1 Q719.55,183.0125 719.3,183.0125 Q718.9938,183.0125 718.7375,183.1438 Q718.4875,183.275 718.2875,183.575 Q718.0938,183.875 718.0938,184.2875 L718.0938,184.725 Q718.0938,185.2188 718.45,185.55 Q718.8063,185.875 719.4438,185.875 Q719.8188,185.875 720.0813,185.775 Q720.2375,185.7125 720.4063,185.5375 Q720.5125,185.4313 720.5688,185.4 Q720.6313,185.3688 720.7125,185.3688 Q720.8438,185.3688 720.9438,185.475 Q721.05,185.575 721.05,185.7125 Q721.05,185.85 720.9125,186.0125 Q720.7125,186.2438 720.3938,186.375 Q719.9625,186.5563 719.4438,186.5563 Q718.8375,186.5563 718.3563,186.3063 Q717.9625,186.1063 717.6875,185.6813 Q717.4125,185.25 717.4125,184.7375 L717.4125,184.275 Q717.4125,183.7438 717.6563,183.2875 Q717.9063,182.825 718.3438,182.5813 Q718.7813,182.3313 719.275,182.3313 Q719.5688,182.3313 719.825,182.4 Q720.0875,182.4625 720.3063,182.6063 Z " fill="#000000"/><text fill="#000000" font-family="sans-serif" font-size="5.6" lengthAdjust="spacing" textLength="20" x="733.2" y="183.0695">&#171;entity&#187;</text><text fill="#000000" font-family="sans-serif" font-size="5.6" lengthAdjust="spacing" textLength="36.8" x="724.8" y="189.3258">AnalysisPhase</text><line style="stroke:#181818;stroke-width:0.20000000000000004;" x1="713.6" x2="762.4" y1="192.5125" y2="192.5125"/><line style="stroke:#181818;stroke-width:0.20000000000000004;" x1="713.6" x2="762.4" y1="195.7125" y2="195.7125"/></g><!--class JobOpening--><g id="elem_JobOpening"><rect codeLine="31" fill="#F1F1F1" height="29.1688" id="JobOpening" rx="1" ry="1" style="stroke:#181818;stroke-width:0.20000000000000004;" width="43.2" x="489.2" y="108.4"/><ellipse cx="495.2" cy="119.7844" fill="#ADD1B2" rx="4.4" ry="4.4" style="stroke:#181818;stroke-width:0.4000000000000001;"/><path d="M496.3063,118.1344 Q496.3688,118.0469 496.4438,118.0031 Q496.5188,117.9594 496.6063,117.9594 Q496.7563,117.9594 496.85,118.0656 Q496.9438,118.1656 496.9438,118.4094 L496.9438,118.9906 Q496.9438,119.2344 496.85,119.3406 Q496.7563,119.4469 496.6063,119.4469 Q496.4688,119.4469 496.3875,119.3656 Q496.3063,119.2906 496.2625,119.0844 Q496.2438,118.9406 496.1688,118.8656 Q496.0375,118.7156 495.7938,118.6281 Q495.55,118.5406 495.3,118.5406 Q494.9938,118.5406 494.7375,118.6719 Q494.4875,118.8031 494.2875,119.1031 Q494.0938,119.4031 494.0938,119.8156 L494.0938,120.2531 Q494.0938,120.7469 494.45,121.0781 Q494.8063,121.4031 495.4438,121.4031 Q495.8188,121.4031 496.0813,121.3031 Q496.2375,121.2406 496.4063,121.0656 Q496.5125,120.9594 496.5688,120.9281 Q496.6313,120.8969 496.7125,120.8969 Q496.8438,120.8969 496.9438,121.0031 Q497.05,121.1031 497.05,121.2406 Q497.05,121.3781 496.9125,121.5406 Q496.7125,121.7719 496.3938,121.9031 Q495.9625,122.0844 495.4438,122.0844 Q494.8375,122.0844 494.3563,121.8344 Q493.9625,121.6344 493.6875,121.2094 Q493.4125,120.7781 493.4125,120.2656 L493.4125,119.8031 Q493.4125,119.2719 493.6563,118.8156 Q493.9063,118.3531 494.3438,118.1094 Q494.7813,117.8594 495.275,117.8594 Q495.5688,117.8594 495.825,117.9281 Q496.0875,117.9906 496.3063,118.1344 Z " fill="#000000"/><text fill="#000000" font-family="sans-serif" font-size="5.6" lengthAdjust="spacing" textLength="16.4" x="507.8" y="115.4695">&#171;root&#187;</text><text fill="#000000" font-family="sans-serif" font-size="5.6" lengthAdjust="spacing" textLength="20" x="505.2" y="121.7258">&#171;entity&#187;</text><text fill="#000000" font-family="sans-serif" font-size="5.6" lengthAdjust="spacing" textLength="30.4" x="500.8" y="127.982">JobOpening</text><line style="stroke:#181818;stroke-width:0.20000000000000004;" x1="489.6" x2="532" y1="131.1688" y2="131.1688"/><line style="stroke:#181818;stroke-width:0.20000000000000004;" x1="489.6" x2="532" y1="134.3688" y2="134.3688"/></g><!--class JogOpeningStatus--><g id="elem_JogOpeningStatus"><rect codeLine="36" fill="#F1F1F1" height="22.9125" id="JogOpeningStatus" rx="1" ry="1" style="stroke:#181818;stroke-width:0.20000000000000004;" width="59.2" x="576.4" y="176"/><ellipse cx="582.4" cy="184.2563" fill="#ADD1B2" rx="4.4" ry="4.4" style="stroke:#181818;stroke-width:0.4000000000000001;"/><path d="M583.5063,182.6063 Q583.5688,182.5188 583.6438,182.475 Q583.7188,182.4313 583.8063,182.4313 Q583.9563,182.4313 584.05,182.5375 Q584.1438,182.6375 584.1438,182.8813 L584.1438,183.4625 Q584.1438,183.7063 584.05,183.8125 Q583.9563,183.9188 583.8063,183.9188 Q583.6688,183.9188 583.5875,183.8375 Q583.5063,183.7625 583.4625,183.5563 Q583.4438,183.4125 583.3688,183.3375 Q583.2375,183.1875 582.9938,183.1 Q582.75,183.0125 582.5,183.0125 Q582.1938,183.0125 581.9375,183.1438 Q581.6875,183.275 581.4875,183.575 Q581.2938,183.875 581.2938,184.2875 L581.2938,184.725 Q581.2938,185.2188 581.65,185.55 Q582.0063,185.875 582.6438,185.875 Q583.0188,185.875 583.2813,185.775 Q583.4375,185.7125 583.6063,185.5375 Q583.7125,185.4313 583.7688,185.4 Q583.8313,185.3688 583.9125,185.3688 Q584.0438,185.3688 584.1438,185.475 Q584.25,185.575 584.25,185.7125 Q584.25,185.85 584.1125,186.0125 Q583.9125,186.2438 583.5938,186.375 Q583.1625,186.5563 582.6438,186.5563 Q582.0375,186.5563 581.5563,186.3063 Q581.1625,186.1063 580.8875,185.6813 Q580.6125,185.25 580.6125,184.7375 L580.6125,184.275 Q580.6125,183.7438 580.8563,183.2875 Q581.1063,182.825 581.5438,182.5813 Q581.9813,182.3313 582.475,182.3313 Q582.7688,182.3313 583.025,182.4 Q583.2875,182.4625 583.5063,182.6063 Z " fill="#000000"/><text fill="#000000" font-family="sans-serif" font-size="5.6" lengthAdjust="spacing" textLength="36.8" x="592.8" y="183.0695">&#171;value object&#187;</text><text fill="#000000" font-family="sans-serif" font-size="5.6" lengthAdjust="spacing" textLength="46.4" x="588" y="189.3258">JogOpeningStatus</text><line style="stroke:#181818;stroke-width:0.20000000000000004;" x1="576.8" x2="635.2" y1="192.5125" y2="192.5125"/><line style="stroke:#181818;stroke-width:0.20000000000000004;" x1="576.8" x2="635.2" y1="195.7125" y2="195.7125"/></g><!--class ContractType--><g id="elem_ContractType"><rect codeLine="39" fill="#F1F1F1" height="22.9125" id="ContractType" rx="1" ry="1" style="stroke:#181818;stroke-width:0.20000000000000004;" width="49.6" x="685.2" y="31.6"/><ellipse cx="691.2" cy="39.8563" fill="#ADD1B2" rx="4.4" ry="4.4" style="stroke:#181818;stroke-width:0.4000000000000001;"/><path d="M692.3063,38.2063 Q692.3688,38.1188 692.4438,38.075 Q692.5188,38.0313 692.6063,38.0313 Q692.7563,38.0313 692.85,38.1375 Q692.9438,38.2375 692.9438,38.4813 L692.9438,39.0625 Q692.9438,39.3063 692.85,39.4125 Q692.7563,39.5188 692.6063,39.5188 Q692.4688,39.5188 692.3875,39.4375 Q692.3063,39.3625 692.2625,39.1563 Q692.2438,39.0125 692.1688,38.9375 Q692.0375,38.7875 691.7938,38.7 Q691.55,38.6125 691.3,38.6125 Q690.9938,38.6125 690.7375,38.7438 Q690.4875,38.875 690.2875,39.175 Q690.0938,39.475 690.0938,39.8875 L690.0938,40.325 Q690.0938,40.8188 690.45,41.15 Q690.8063,41.475 691.4438,41.475 Q691.8188,41.475 692.0813,41.375 Q692.2375,41.3125 692.4063,41.1375 Q692.5125,41.0313 692.5688,41 Q692.6313,40.9688 692.7125,40.9688 Q692.8438,40.9688 692.9438,41.075 Q693.05,41.175 693.05,41.3125 Q693.05,41.45 692.9125,41.6125 Q692.7125,41.8438 692.3938,41.975 Q691.9625,42.1563 691.4438,42.1563 Q690.8375,42.1563 690.3563,41.9063 Q689.9625,41.7063 689.6875,41.2813 Q689.4125,40.85 689.4125,40.3375 L689.4125,39.875 Q689.4125,39.3438 689.6563,38.8875 Q689.9063,38.425 690.3438,38.1813 Q690.7813,37.9313 691.275,37.9313 Q691.5688,37.9313 691.825,38 Q692.0875,38.0625 692.3063,38.2063 Z " fill="#000000"/><text fill="#000000" font-family="sans-serif" font-size="5.6" lengthAdjust="spacing" textLength="36.8" x="696.8" y="38.6695">&#171;value object&#187;</text><text fill="#000000" font-family="sans-serif" font-size="5.6" lengthAdjust="spacing" textLength="34.4" x="698" y="44.9258">ContractType</text><line style="stroke:#181818;stroke-width:0.20000000000000004;" x1="685.6" x2="734.4" y1="48.1125" y2="48.1125"/><line style="stroke:#181818;stroke-width:0.20000000000000004;" x1="685.6" x2="734.4" y1="51.3125" y2="51.3125"/></g><!--class Mode--><g id="elem_Mode"><rect codeLine="42" fill="#F1F1F1" height="22.9125" id="Mode" rx="1" ry="1" style="stroke:#181818;stroke-width:0.20000000000000004;" width="49.6" x="621.6" y="31.6"/><ellipse cx="627.6" cy="39.8563" fill="#ADD1B2" rx="4.4" ry="4.4" style="stroke:#181818;stroke-width:0.4000000000000001;"/><path d="M628.7063,38.2063 Q628.7688,38.1188 628.8438,38.075 Q628.9188,38.0313 629.0063,38.0313 Q629.1563,38.0313 629.25,38.1375 Q629.3438,38.2375 629.3438,38.4813 L629.3438,39.0625 Q629.3438,39.3063 629.25,39.4125 Q629.1563,39.5188 629.0063,39.5188 Q628.8688,39.5188 628.7875,39.4375 Q628.7063,39.3625 628.6625,39.1563 Q628.6438,39.0125 628.5688,38.9375 Q628.4375,38.7875 628.1938,38.7 Q627.95,38.6125 627.7,38.6125 Q627.3938,38.6125 627.1375,38.7438 Q626.8875,38.875 626.6875,39.175 Q626.4938,39.475 626.4938,39.8875 L626.4938,40.325 Q626.4938,40.8188 626.85,41.15 Q627.2063,41.475 627.8438,41.475 Q628.2188,41.475 628.4813,41.375 Q628.6375,41.3125 628.8063,41.1375 Q628.9125,41.0313 628.9688,41 Q629.0313,40.9688 629.1125,40.9688 Q629.2438,40.9688 629.3438,41.075 Q629.45,41.175 629.45,41.3125 Q629.45,41.45 629.3125,41.6125 Q629.1125,41.8438 628.7938,41.975 Q628.3625,42.1563 627.8438,42.1563 Q627.2375,42.1563 626.7563,41.9063 Q626.3625,41.7063 626.0875,41.2813 Q625.8125,40.85 625.8125,40.3375 L625.8125,39.875 Q625.8125,39.3438 626.0563,38.8875 Q626.3063,38.425 626.7438,38.1813 Q627.1813,37.9313 627.675,37.9313 Q627.9688,37.9313 628.225,38 Q628.4875,38.0625 628.7063,38.2063 Z " fill="#000000"/><text fill="#000000" font-family="sans-serif" font-size="5.6" lengthAdjust="spacing" textLength="36.8" x="633.2" y="38.6695">&#171;value object&#187;</text><text fill="#000000" font-family="sans-serif" font-size="5.6" lengthAdjust="spacing" textLength="14" x="644.6" y="44.9258">Mode</text><line style="stroke:#181818;stroke-width:0.20000000000000004;" x1="622" x2="670.8" y1="48.1125" y2="48.1125"/><line style="stroke:#181818;stroke-width:0.20000000000000004;" x1="622" x2="670.8" y1="51.3125" y2="51.3125"/></g><!--class JobFunction--><g id="elem_JobFunction"><rect codeLine="46" fill="#F1F1F1" height="22.9125" id="JobFunction" rx="1" ry="1" style="stroke:#181818;stroke-width:0.20000000000000004;" width="49.6" x="558" y="31.6"/><ellipse cx="564" cy="39.8563" fill="#ADD1B2" rx="4.4" ry="4.4" style="stroke:#181818;stroke-width:0.4000000000000001;"/><path d="M565.1063,38.2063 Q565.1688,38.1188 565.2438,38.075 Q565.3188,38.0313 565.4063,38.0313 Q565.5563,38.0313 565.65,38.1375 Q565.7438,38.2375 565.7438,38.4813 L565.7438,39.0625 Q565.7438,39.3063 565.65,39.4125 Q565.5563,39.5188 565.4063,39.5188 Q565.2688,39.5188 565.1875,39.4375 Q565.1063,39.3625 565.0625,39.1563 Q565.0438,39.0125 564.9688,38.9375 Q564.8375,38.7875 564.5938,38.7 Q564.35,38.6125 564.1,38.6125 Q563.7938,38.6125 563.5375,38.7438 Q563.2875,38.875 563.0875,39.175 Q562.8938,39.475 562.8938,39.8875 L562.8938,40.325 Q562.8938,40.8188 563.25,41.15 Q563.6063,41.475 564.2438,41.475 Q564.6188,41.475 564.8813,41.375 Q565.0375,41.3125 565.2063,41.1375 Q565.3125,41.0313 565.3688,41 Q565.4313,40.9688 565.5125,40.9688 Q565.6438,40.9688 565.7438,41.075 Q565.85,41.175 565.85,41.3125 Q565.85,41.45 565.7125,41.6125 Q565.5125,41.8438 565.1938,41.975 Q564.7625,42.1563 564.2438,42.1563 Q563.6375,42.1563 563.1563,41.9063 Q562.7625,41.7063 562.4875,41.2813 Q562.2125,40.85 562.2125,40.3375 L562.2125,39.875 Q562.2125,39.3438 562.4563,38.8875 Q562.7063,38.425 563.1438,38.1813 Q563.5813,37.9313 564.075,37.9313 Q564.3688,37.9313 564.625,38 Q564.8875,38.0625 565.1063,38.2063 Z " fill="#000000"/><text fill="#000000" font-family="sans-serif" font-size="5.6" lengthAdjust="spacing" textLength="36.8" x="569.6" y="38.6695">&#171;value object&#187;</text><text fill="#000000" font-family="sans-serif" font-size="5.6" lengthAdjust="spacing" textLength="30.8" x="572.6" y="44.9258">JobFunction</text><line style="stroke:#181818;stroke-width:0.20000000000000004;" x1="558.4" x2="607.2" y1="48.1125" y2="48.1125"/><line style="stroke:#181818;stroke-width:0.20000000000000004;" x1="558.4" x2="607.2" y1="51.3125" y2="51.3125"/></g><!--class NumberOfVacancies--><g id="elem_NumberOfVacancies"><rect codeLine="50" fill="#F1F1F1" height="22.9125" id="NumberOfVacancies" rx="1" ry="1" style="stroke:#181818;stroke-width:0.20000000000000004;" width="66" x="477.8" y="31.6"/><ellipse cx="483.8" cy="39.8563" fill="#ADD1B2" rx="4.4" ry="4.4" style="stroke:#181818;stroke-width:0.4000000000000001;"/><path d="M484.9063,38.2063 Q484.9688,38.1188 485.0438,38.075 Q485.1188,38.0313 485.2063,38.0313 Q485.3563,38.0313 485.45,38.1375 Q485.5438,38.2375 485.5438,38.4813 L485.5438,39.0625 Q485.5438,39.3063 485.45,39.4125 Q485.3563,39.5188 485.2063,39.5188 Q485.0688,39.5188 484.9875,39.4375 Q484.9063,39.3625 484.8625,39.1563 Q484.8438,39.0125 484.7688,38.9375 Q484.6375,38.7875 484.3938,38.7 Q484.15,38.6125 483.9,38.6125 Q483.5938,38.6125 483.3375,38.7438 Q483.0875,38.875 482.8875,39.175 Q482.6938,39.475 482.6938,39.8875 L482.6938,40.325 Q482.6938,40.8188 483.05,41.15 Q483.4063,41.475 484.0438,41.475 Q484.4188,41.475 484.6813,41.375 Q484.8375,41.3125 485.0063,41.1375 Q485.1125,41.0313 485.1688,41 Q485.2313,40.9688 485.3125,40.9688 Q485.4438,40.9688 485.5438,41.075 Q485.65,41.175 485.65,41.3125 Q485.65,41.45 485.5125,41.6125 Q485.3125,41.8438 484.9938,41.975 Q484.5625,42.1563 484.0438,42.1563 Q483.4375,42.1563 482.9563,41.9063 Q482.5625,41.7063 482.2875,41.2813 Q482.0125,40.85 482.0125,40.3375 L482.0125,39.875 Q482.0125,39.3438 482.2563,38.8875 Q482.5063,38.425 482.9438,38.1813 Q483.3813,37.9313 483.875,37.9313 Q484.1688,37.9313 484.425,38 Q484.6875,38.0625 484.9063,38.2063 Z " fill="#000000"/><text fill="#000000" font-family="sans-serif" font-size="5.6" lengthAdjust="spacing" textLength="36.8" x="497.6" y="38.6695">&#171;value object&#187;</text><text fill="#000000" font-family="sans-serif" font-size="5.6" lengthAdjust="spacing" textLength="51.6" x="491" y="44.9258">NumberOfVacancies</text><line style="stroke:#181818;stroke-width:0.20000000000000004;" x1="478.2" x2="543.4" y1="48.1125" y2="48.1125"/><line style="stroke:#181818;stroke-width:0.20000000000000004;" x1="478.2" x2="543.4" y1="51.3125" y2="51.3125"/></g><!--class Description--><g id="elem_Description"><rect codeLine="54" fill="#F1F1F1" height="22.9125" id="Description" rx="1" ry="1" style="stroke:#181818;stroke-width:0.20000000000000004;" width="49.6" x="414" y="31.6"/><ellipse cx="420" cy="39.8563" fill="#ADD1B2" rx="4.4" ry="4.4" style="stroke:#181818;stroke-width:0.4000000000000001;"/><path d="M421.1063,38.2063 Q421.1688,38.1188 421.2438,38.075 Q421.3188,38.0313 421.4063,38.0313 Q421.5563,38.0313 421.65,38.1375 Q421.7438,38.2375 421.7438,38.4813 L421.7438,39.0625 Q421.7438,39.3063 421.65,39.4125 Q421.5563,39.5188 421.4063,39.5188 Q421.2688,39.5188 421.1875,39.4375 Q421.1063,39.3625 421.0625,39.1563 Q421.0438,39.0125 420.9688,38.9375 Q420.8375,38.7875 420.5938,38.7 Q420.35,38.6125 420.1,38.6125 Q419.7938,38.6125 419.5375,38.7438 Q419.2875,38.875 419.0875,39.175 Q418.8938,39.475 418.8938,39.8875 L418.8938,40.325 Q418.8938,40.8188 419.25,41.15 Q419.6063,41.475 420.2438,41.475 Q420.6188,41.475 420.8813,41.375 Q421.0375,41.3125 421.2063,41.1375 Q421.3125,41.0313 421.3688,41 Q421.4313,40.9688 421.5125,40.9688 Q421.6438,40.9688 421.7438,41.075 Q421.85,41.175 421.85,41.3125 Q421.85,41.45 421.7125,41.6125 Q421.5125,41.8438 421.1938,41.975 Q420.7625,42.1563 420.2438,42.1563 Q419.6375,42.1563 419.1563,41.9063 Q418.7625,41.7063 418.4875,41.2813 Q418.2125,40.85 418.2125,40.3375 L418.2125,39.875 Q418.2125,39.3438 418.4563,38.8875 Q418.7063,38.425 419.1438,38.1813 Q419.5813,37.9313 420.075,37.9313 Q420.3688,37.9313 420.625,38 Q420.8875,38.0625 421.1063,38.2063 Z " fill="#000000"/><text fill="#000000" font-family="sans-serif" font-size="5.6" lengthAdjust="spacing" textLength="36.8" x="425.6" y="38.6695">&#171;value object&#187;</text><text fill="#000000" font-family="sans-serif" font-size="5.6" lengthAdjust="spacing" textLength="28.4" x="429.8" y="44.9258">Description</text><line style="stroke:#181818;stroke-width:0.20000000000000004;" x1="414.4" x2="463.2" y1="48.1125" y2="48.1125"/><line style="stroke:#181818;stroke-width:0.20000000000000004;" x1="414.4" x2="463.2" y1="51.3125" y2="51.3125"/></g><!--class Address1--><g id="elem_Address1"><rect codeLine="59" fill="#F1F1F1" height="54.1938" id="Address1" rx="1" ry="1" style="stroke:#181818;stroke-width:0.20000000000000004;" width="49.6" x="350.4" y="16"/><ellipse cx="356.4" cy="24.2563" fill="#ADD1B2" rx="4.4" ry="4.4" style="stroke:#181818;stroke-width:0.4000000000000001;"/><path d="M357.5063,22.6063 Q357.5688,22.5188 357.6438,22.475 Q357.7188,22.4313 357.8063,22.4313 Q357.9563,22.4313 358.05,22.5375 Q358.1438,22.6375 358.1438,22.8813 L358.1438,23.4625 Q358.1438,23.7063 358.05,23.8125 Q357.9563,23.9188 357.8063,23.9188 Q357.6688,23.9188 357.5875,23.8375 Q357.5063,23.7625 357.4625,23.5563 Q357.4438,23.4125 357.3688,23.3375 Q357.2375,23.1875 356.9938,23.1 Q356.75,23.0125 356.5,23.0125 Q356.1938,23.0125 355.9375,23.1438 Q355.6875,23.275 355.4875,23.575 Q355.2938,23.875 355.2938,24.2875 L355.2938,24.725 Q355.2938,25.2188 355.65,25.55 Q356.0063,25.875 356.6438,25.875 Q357.0188,25.875 357.2813,25.775 Q357.4375,25.7125 357.6063,25.5375 Q357.7125,25.4313 357.7688,25.4 Q357.8313,25.3688 357.9125,25.3688 Q358.0438,25.3688 358.1438,25.475 Q358.25,25.575 358.25,25.7125 Q358.25,25.85 358.1125,26.0125 Q357.9125,26.2438 357.5938,26.375 Q357.1625,26.5563 356.6438,26.5563 Q356.0375,26.5563 355.5563,26.3063 Q355.1625,26.1063 354.8875,25.6813 Q354.6125,25.25 354.6125,24.7375 L354.6125,24.275 Q354.6125,23.7438 354.8563,23.2875 Q355.1063,22.825 355.5438,22.5813 Q355.9813,22.3313 356.475,22.3313 Q356.7688,22.3313 357.025,22.4 Q357.2875,22.4625 357.5063,22.6063 Z " fill="#000000"/><text fill="#000000" font-family="sans-serif" font-size="5.6" lengthAdjust="spacing" textLength="36.8" x="362" y="23.0695">&#171;value object&#187;</text><text fill="#000000" font-family="sans-serif" font-size="5.6" lengthAdjust="spacing" textLength="20.8" x="370" y="29.3258">Address</text><line style="stroke:#181818;stroke-width:0.20000000000000004;" x1="350.8" x2="399.6" y1="32.5125" y2="32.5125"/><text fill="#000000" font-family="sans-serif" font-size="5.6" lengthAdjust="spacing" textLength="15.2" x="352.8" y="39.182">Street</text><text fill="#000000" font-family="sans-serif" font-size="5.6" lengthAdjust="spacing" textLength="9.6" x="352.8" y="45.4383">City</text><text fill="#000000" font-family="sans-serif" font-size="5.6" lengthAdjust="spacing" textLength="13.2" x="352.8" y="51.6945">State</text><text fill="#000000" font-family="sans-serif" font-size="5.6" lengthAdjust="spacing" textLength="20" x="352.8" y="57.9508">Country</text><text fill="#000000" font-family="sans-serif" font-size="5.6" lengthAdjust="spacing" textLength="20" x="352.8" y="64.207">Zipcode</text><line style="stroke:#181818;stroke-width:0.20000000000000004;" x1="350.8" x2="399.6" y1="66.9938" y2="66.9938"/></g><!--class JobReference--><g id="elem_JobReference"><rect codeLine="67" fill="#F1F1F1" height="29.1688" id="JobReference" rx="1" ry="1" style="stroke:#181818;stroke-width:0.20000000000000004;" width="49.6" x="649.6" y="172.8"/><ellipse cx="655.6" cy="184.1844" fill="#ADD1B2" rx="4.4" ry="4.4" style="stroke:#181818;stroke-width:0.4000000000000001;"/><path d="M656.7063,182.5344 Q656.7688,182.4469 656.8438,182.4031 Q656.9188,182.3594 657.0063,182.3594 Q657.1563,182.3594 657.25,182.4656 Q657.3438,182.5656 657.3438,182.8094 L657.3438,183.3906 Q657.3438,183.6344 657.25,183.7406 Q657.1563,183.8469 657.0063,183.8469 Q656.8688,183.8469 656.7875,183.7656 Q656.7063,183.6906 656.6625,183.4844 Q656.6438,183.3406 656.5688,183.2656 Q656.4375,183.1156 656.1938,183.0281 Q655.95,182.9406 655.7,182.9406 Q655.3938,182.9406 655.1375,183.0719 Q654.8875,183.2031 654.6875,183.5031 Q654.4938,183.8031 654.4938,184.2156 L654.4938,184.6531 Q654.4938,185.1469 654.85,185.4781 Q655.2063,185.8031 655.8438,185.8031 Q656.2188,185.8031 656.4813,185.7031 Q656.6375,185.6406 656.8063,185.4656 Q656.9125,185.3594 656.9688,185.3281 Q657.0313,185.2969 657.1125,185.2969 Q657.2438,185.2969 657.3438,185.4031 Q657.45,185.5031 657.45,185.6406 Q657.45,185.7781 657.3125,185.9406 Q657.1125,186.1719 656.7938,186.3031 Q656.3625,186.4844 655.8438,186.4844 Q655.2375,186.4844 654.7563,186.2344 Q654.3625,186.0344 654.0875,185.6094 Q653.8125,185.1781 653.8125,184.6656 L653.8125,184.2031 Q653.8125,183.6719 654.0563,183.2156 Q654.3063,182.7531 654.7438,182.5094 Q655.1813,182.2594 655.675,182.2594 Q655.9688,182.2594 656.225,182.3281 Q656.4875,182.3906 656.7063,182.5344 Z " fill="#000000"/><text fill="#000000" font-family="sans-serif" font-size="5.6" lengthAdjust="spacing" textLength="36.8" x="661.2" y="179.8695">&#171;value object&#187;</text><text fill="#000000" font-family="sans-serif" font-size="5.6" lengthAdjust="spacing" textLength="28" x="665.6" y="186.1258">&#171;identifier&#187;</text><text fill="#000000" font-family="sans-serif" font-size="5.6" lengthAdjust="spacing" textLength="35.2" x="662" y="192.382">JobReference</text><line style="stroke:#181818;stroke-width:0.20000000000000004;" x1="650" x2="698.8" y1="195.5688" y2="195.5688"/><line style="stroke:#181818;stroke-width:0.20000000000000004;" x1="650" x2="698.8" y1="198.7688" y2="198.7688"/></g><!--class InterviewPhase--><g id="elem_InterviewPhase"><rect codeLine="70" fill="#F1F1F1" height="22.9125" id="InterviewPhase" rx="1" ry="1" style="stroke:#181818;stroke-width:0.20000000000000004;" width="50.8" x="350.6" y="176"/><ellipse cx="356.6" cy="184.2563" fill="#ADD1B2" rx="4.4" ry="4.4" style="stroke:#181818;stroke-width:0.4000000000000001;"/><path d="M357.7063,182.6063 Q357.7688,182.5188 357.8438,182.475 Q357.9188,182.4313 358.0063,182.4313 Q358.1563,182.4313 358.25,182.5375 Q358.3438,182.6375 358.3438,182.8813 L358.3438,183.4625 Q358.3438,183.7063 358.25,183.8125 Q358.1563,183.9188 358.0063,183.9188 Q357.8688,183.9188 357.7875,183.8375 Q357.7063,183.7625 357.6625,183.5563 Q357.6438,183.4125 357.5688,183.3375 Q357.4375,183.1875 357.1938,183.1 Q356.95,183.0125 356.7,183.0125 Q356.3938,183.0125 356.1375,183.1438 Q355.8875,183.275 355.6875,183.575 Q355.4938,183.875 355.4938,184.2875 L355.4938,184.725 Q355.4938,185.2188 355.85,185.55 Q356.2063,185.875 356.8438,185.875 Q357.2188,185.875 357.4813,185.775 Q357.6375,185.7125 357.8063,185.5375 Q357.9125,185.4313 357.9688,185.4 Q358.0313,185.3688 358.1125,185.3688 Q358.2438,185.3688 358.3438,185.475 Q358.45,185.575 358.45,185.7125 Q358.45,185.85 358.3125,186.0125 Q358.1125,186.2438 357.7938,186.375 Q357.3625,186.5563 356.8438,186.5563 Q356.2375,186.5563 355.7563,186.3063 Q355.3625,186.1063 355.0875,185.6813 Q354.8125,185.25 354.8125,184.7375 L354.8125,184.275 Q354.8125,183.7438 355.0563,183.2875 Q355.3063,182.825 355.7438,182.5813 Q356.1813,182.3313 356.675,182.3313 Q356.9688,182.3313 357.225,182.4 Q357.4875,182.4625 357.7063,182.6063 Z " fill="#000000"/><text fill="#000000" font-family="sans-serif" font-size="5.6" lengthAdjust="spacing" textLength="20" x="371.2" y="183.0695">&#171;entity&#187;</text><text fill="#000000" font-family="sans-serif" font-size="5.6" lengthAdjust="spacing" textLength="38" x="362.2" y="189.3258">InterviewPhase</text><line style="stroke:#181818;stroke-width:0.20000000000000004;" x1="351" x2="401" y1="192.5125" y2="192.5125"/><line style="stroke:#181818;stroke-width:0.20000000000000004;" x1="351" x2="401" y1="195.7125" y2="195.7125"/></g><!--class Notification--><g id="elem_Notification"><rect codeLine="77" fill="#F1F1F1" height="22.9125" id="Notification" rx="1" ry="1" style="stroke:#181818;stroke-width:0.20000000000000004;" width="40.4" x="285.8" y="176"/><ellipse cx="291.8" cy="184.2563" fill="#ADD1B2" rx="4.4" ry="4.4" style="stroke:#181818;stroke-width:0.4000000000000001;"/><path d="M292.9063,182.6063 Q292.9688,182.5188 293.0438,182.475 Q293.1188,182.4313 293.2063,182.4313 Q293.3563,182.4313 293.45,182.5375 Q293.5438,182.6375 293.5438,182.8813 L293.5438,183.4625 Q293.5438,183.7063 293.45,183.8125 Q293.3563,183.9188 293.2063,183.9188 Q293.0688,183.9188 292.9875,183.8375 Q292.9063,183.7625 292.8625,183.5563 Q292.8438,183.4125 292.7688,183.3375 Q292.6375,183.1875 292.3938,183.1 Q292.15,183.0125 291.9,183.0125 Q291.5938,183.0125 291.3375,183.1438 Q291.0875,183.275 290.8875,183.575 Q290.6938,183.875 290.6938,184.2875 L290.6938,184.725 Q290.6938,185.2188 291.05,185.55 Q291.4063,185.875 292.0438,185.875 Q292.4188,185.875 292.6813,185.775 Q292.8375,185.7125 293.0063,185.5375 Q293.1125,185.4313 293.1688,185.4 Q293.2313,185.3688 293.3125,185.3688 Q293.4438,185.3688 293.5438,185.475 Q293.65,185.575 293.65,185.7125 Q293.65,185.85 293.5125,186.0125 Q293.3125,186.2438 292.9938,186.375 Q292.5625,186.5563 292.0438,186.5563 Q291.4375,186.5563 290.9563,186.3063 Q290.5625,186.1063 290.2875,185.6813 Q290.0125,185.25 290.0125,184.7375 L290.0125,184.275 Q290.0125,183.7438 290.2563,183.2875 Q290.5063,182.825 290.9438,182.5813 Q291.3813,182.3313 291.875,182.3313 Q292.1688,182.3313 292.425,182.4 Q292.6875,182.4625 292.9063,182.6063 Z " fill="#000000"/><text fill="#000000" font-family="sans-serif" font-size="5.6" lengthAdjust="spacing" textLength="20" x="301.2" y="183.0695">&#171;entity&#187;</text><text fill="#000000" font-family="sans-serif" font-size="5.6" lengthAdjust="spacing" textLength="27.6" x="297.4" y="189.3258">Notification</text><line style="stroke:#181818;stroke-width:0.20000000000000004;" x1="286.2" x2="325.8" y1="192.5125" y2="192.5125"/><line style="stroke:#181818;stroke-width:0.20000000000000004;" x1="286.2" x2="325.8" y1="195.7125" y2="195.7125"/></g><!--class JobApplication--><g id="elem_JobApplication"><rect codeLine="83" fill="#F1F1F1" height="29.1688" id="JobApplication" rx="1" ry="1" style="stroke:#181818;stroke-width:0.20000000000000004;" width="49.2" x="151" y="108.4"/><ellipse cx="157" cy="119.7844" fill="#ADD1B2" rx="4.4" ry="4.4" style="stroke:#181818;stroke-width:0.4000000000000001;"/><path d="M158.1063,118.1344 Q158.1688,118.0469 158.2438,118.0031 Q158.3188,117.9594 158.4063,117.9594 Q158.5563,117.9594 158.65,118.0656 Q158.7438,118.1656 158.7438,118.4094 L158.7438,118.9906 Q158.7438,119.2344 158.65,119.3406 Q158.5563,119.4469 158.4063,119.4469 Q158.2688,119.4469 158.1875,119.3656 Q158.1063,119.2906 158.0625,119.0844 Q158.0438,118.9406 157.9688,118.8656 Q157.8375,118.7156 157.5938,118.6281 Q157.35,118.5406 157.1,118.5406 Q156.7938,118.5406 156.5375,118.6719 Q156.2875,118.8031 156.0875,119.1031 Q155.8938,119.4031 155.8938,119.8156 L155.8938,120.2531 Q155.8938,120.7469 156.25,121.0781 Q156.6063,121.4031 157.2438,121.4031 Q157.6188,121.4031 157.8813,121.3031 Q158.0375,121.2406 158.2063,121.0656 Q158.3125,120.9594 158.3688,120.9281 Q158.4313,120.8969 158.5125,120.8969 Q158.6438,120.8969 158.7438,121.0031 Q158.85,121.1031 158.85,121.2406 Q158.85,121.3781 158.7125,121.5406 Q158.5125,121.7719 158.1938,121.9031 Q157.7625,122.0844 157.2438,122.0844 Q156.6375,122.0844 156.1563,121.8344 Q155.7625,121.6344 155.4875,121.2094 Q155.2125,120.7781 155.2125,120.2656 L155.2125,119.8031 Q155.2125,119.2719 155.4563,118.8156 Q155.7063,118.3531 156.1438,118.1094 Q156.5813,117.8594 157.075,117.8594 Q157.3688,117.8594 157.625,117.9281 Q157.8875,117.9906 158.1063,118.1344 Z " fill="#000000"/><text fill="#000000" font-family="sans-serif" font-size="5.6" lengthAdjust="spacing" textLength="16.4" x="172.6" y="115.4695">&#171;root&#187;</text><text fill="#000000" font-family="sans-serif" font-size="5.6" lengthAdjust="spacing" textLength="20" x="170.8" y="121.7258">&#171;entity&#187;</text><text fill="#000000" font-family="sans-serif" font-size="5.6" lengthAdjust="spacing" textLength="36.4" x="162.6" y="127.982">JobApplication</text><line style="stroke:#181818;stroke-width:0.20000000000000004;" x1="151.4" x2="199.8" y1="131.1688" y2="131.1688"/><line style="stroke:#181818;stroke-width:0.20000000000000004;" x1="151.4" x2="199.8" y1="134.3688" y2="134.3688"/></g><!--class Status--><g id="elem_Status"><rect codeLine="86" fill="#F1F1F1" height="22.9125" id="Status" rx="1" ry="1" style="stroke:#181818;stroke-width:0.20000000000000004;" width="49.6" x="8.8" y="176"/><ellipse cx="14.8" cy="184.2563" fill="#ADD1B2" rx="4.4" ry="4.4" style="stroke:#181818;stroke-width:0.4000000000000001;"/><path d="M15.9063,182.6063 Q15.9688,182.5188 16.0438,182.475 Q16.1188,182.4313 16.2063,182.4313 Q16.3563,182.4313 16.45,182.5375 Q16.5438,182.6375 16.5438,182.8813 L16.5438,183.4625 Q16.5438,183.7063 16.45,183.8125 Q16.3563,183.9188 16.2063,183.9188 Q16.0688,183.9188 15.9875,183.8375 Q15.9063,183.7625 15.8625,183.5563 Q15.8438,183.4125 15.7688,183.3375 Q15.6375,183.1875 15.3938,183.1 Q15.15,183.0125 14.9,183.0125 Q14.5938,183.0125 14.3375,183.1438 Q14.0875,183.275 13.8875,183.575 Q13.6938,183.875 13.6938,184.2875 L13.6938,184.725 Q13.6938,185.2188 14.05,185.55 Q14.4063,185.875 15.0438,185.875 Q15.4188,185.875 15.6813,185.775 Q15.8375,185.7125 16.0063,185.5375 Q16.1125,185.4313 16.1688,185.4 Q16.2313,185.3688 16.3125,185.3688 Q16.4438,185.3688 16.5438,185.475 Q16.65,185.575 16.65,185.7125 Q16.65,185.85 16.5125,186.0125 Q16.3125,186.2438 15.9938,186.375 Q15.5625,186.5563 15.0438,186.5563 Q14.4375,186.5563 13.9563,186.3063 Q13.5625,186.1063 13.2875,185.6813 Q13.0125,185.25 13.0125,184.7375 L13.0125,184.275 Q13.0125,183.7438 13.2563,183.2875 Q13.5063,182.825 13.9438,182.5813 Q14.3813,182.3313 14.875,182.3313 Q15.1688,182.3313 15.425,182.4 Q15.6875,182.4625 15.9063,182.6063 Z " fill="#000000"/><text fill="#000000" font-family="sans-serif" font-size="5.6" lengthAdjust="spacing" textLength="36.8" x="20.4" y="183.0695">&#171;value object&#187;</text><text fill="#000000" font-family="sans-serif" font-size="5.6" lengthAdjust="spacing" textLength="16" x="30.8" y="189.3258">Status</text><line style="stroke:#181818;stroke-width:0.20000000000000004;" x1="9.2" x2="58" y1="192.5125" y2="192.5125"/><line style="stroke:#181818;stroke-width:0.20000000000000004;" x1="9.2" x2="58" y1="195.7125" y2="195.7125"/></g><!--class ID--><g id="elem_ID"><rect codeLine="89" fill="#F1F1F1" height="29.1688" id="ID" rx="1" ry="1" style="stroke:#181818;stroke-width:0.20000000000000004;" width="49.6" x="72.4" y="172.8"/><ellipse cx="78.4" cy="184.1844" fill="#ADD1B2" rx="4.4" ry="4.4" style="stroke:#181818;stroke-width:0.4000000000000001;"/><path d="M79.5063,182.5344 Q79.5688,182.4469 79.6438,182.4031 Q79.7188,182.3594 79.8063,182.3594 Q79.9563,182.3594 80.05,182.4656 Q80.1438,182.5656 80.1438,182.8094 L80.1438,183.3906 Q80.1438,183.6344 80.05,183.7406 Q79.9563,183.8469 79.8063,183.8469 Q79.6688,183.8469 79.5875,183.7656 Q79.5063,183.6906 79.4625,183.4844 Q79.4438,183.3406 79.3688,183.2656 Q79.2375,183.1156 78.9938,183.0281 Q78.75,182.9406 78.5,182.9406 Q78.1938,182.9406 77.9375,183.0719 Q77.6875,183.2031 77.4875,183.5031 Q77.2938,183.8031 77.2938,184.2156 L77.2938,184.6531 Q77.2938,185.1469 77.65,185.4781 Q78.0063,185.8031 78.6438,185.8031 Q79.0188,185.8031 79.2813,185.7031 Q79.4375,185.6406 79.6063,185.4656 Q79.7125,185.3594 79.7688,185.3281 Q79.8313,185.2969 79.9125,185.2969 Q80.0438,185.2969 80.1438,185.4031 Q80.25,185.5031 80.25,185.6406 Q80.25,185.7781 80.1125,185.9406 Q79.9125,186.1719 79.5938,186.3031 Q79.1625,186.4844 78.6438,186.4844 Q78.0375,186.4844 77.5563,186.2344 Q77.1625,186.0344 76.8875,185.6094 Q76.6125,185.1781 76.6125,184.6656 L76.6125,184.2031 Q76.6125,183.6719 76.8563,183.2156 Q77.1063,182.7531 77.5438,182.5094 Q77.9813,182.2594 78.475,182.2594 Q78.7688,182.2594 79.025,182.3281 Q79.2875,182.3906 79.5063,182.5344 Z " fill="#000000"/><text fill="#000000" font-family="sans-serif" font-size="5.6" lengthAdjust="spacing" textLength="36.8" x="84" y="179.8695">&#171;value object&#187;</text><text fill="#000000" font-family="sans-serif" font-size="5.6" lengthAdjust="spacing" textLength="28" x="88.4" y="186.1258">&#171;identifier&#187;</text><text fill="#000000" font-family="sans-serif" font-size="5.6" lengthAdjust="spacing" textLength="4.4" x="100.2" y="192.382">Id</text><line style="stroke:#181818;stroke-width:0.20000000000000004;" x1="72.8" x2="121.6" y1="195.5688" y2="195.5688"/><line style="stroke:#181818;stroke-width:0.20000000000000004;" x1="72.8" x2="121.6" y1="198.7688" y2="198.7688"/></g><!--class Grade--><g id="elem_Grade"><rect codeLine="92" fill="#F1F1F1" height="29.1688" id="Grade" rx="1" ry="1" style="stroke:#181818;stroke-width:0.20000000000000004;" width="49.6" x="136" y="172.8"/><ellipse cx="142" cy="184.1844" fill="#ADD1B2" rx="4.4" ry="4.4" style="stroke:#181818;stroke-width:0.4000000000000001;"/><path d="M143.1063,182.5344 Q143.1688,182.4469 143.2438,182.4031 Q143.3188,182.3594 143.4063,182.3594 Q143.5563,182.3594 143.65,182.4656 Q143.7438,182.5656 143.7438,182.8094 L143.7438,183.3906 Q143.7438,183.6344 143.65,183.7406 Q143.5563,183.8469 143.4063,183.8469 Q143.2688,183.8469 143.1875,183.7656 Q143.1063,183.6906 143.0625,183.4844 Q143.0438,183.3406 142.9688,183.2656 Q142.8375,183.1156 142.5938,183.0281 Q142.35,182.9406 142.1,182.9406 Q141.7938,182.9406 141.5375,183.0719 Q141.2875,183.2031 141.0875,183.5031 Q140.8938,183.8031 140.8938,184.2156 L140.8938,184.6531 Q140.8938,185.1469 141.25,185.4781 Q141.6063,185.8031 142.2438,185.8031 Q142.6188,185.8031 142.8813,185.7031 Q143.0375,185.6406 143.2063,185.4656 Q143.3125,185.3594 143.3688,185.3281 Q143.4313,185.2969 143.5125,185.2969 Q143.6438,185.2969 143.7438,185.4031 Q143.85,185.5031 143.85,185.6406 Q143.85,185.7781 143.7125,185.9406 Q143.5125,186.1719 143.1938,186.3031 Q142.7625,186.4844 142.2438,186.4844 Q141.6375,186.4844 141.1563,186.2344 Q140.7625,186.0344 140.4875,185.6094 Q140.2125,185.1781 140.2125,184.6656 L140.2125,184.2031 Q140.2125,183.6719 140.4563,183.2156 Q140.7063,182.7531 141.1438,182.5094 Q141.5813,182.2594 142.075,182.2594 Q142.3688,182.2594 142.625,182.3281 Q142.8875,182.3906 143.1063,182.5344 Z " fill="#000000"/><text fill="#000000" font-family="sans-serif" font-size="5.6" lengthAdjust="spacing" textLength="36.8" x="147.6" y="179.8695">&#171;value object&#187;</text><text fill="#000000" font-family="sans-serif" font-size="5.6" lengthAdjust="spacing" textLength="32" x="150" y="186.1258">&#171;calculated&#187;</text><text fill="#000000" font-family="sans-serif" font-size="5.6" lengthAdjust="spacing" textLength="16" x="158" y="192.382">Grade</text><line style="stroke:#181818;stroke-width:0.20000000000000004;" x1="136.4" x2="185.2" y1="195.5688" y2="195.5688"/><line style="stroke:#181818;stroke-width:0.20000000000000004;" x1="136.4" x2="185.2" y1="198.7688" y2="198.7688"/></g><!--class ApplicationFile--><g id="elem_ApplicationFile"><rect codeLine="95" fill="#F1F1F1" height="35.425" id="ApplicationFile" rx="1" ry="1" style="stroke:#181818;stroke-width:0.20000000000000004;" width="49.6" x="199.6" y="169.6"/><ellipse cx="205.6" cy="177.8563" fill="#ADD1B2" rx="4.4" ry="4.4" style="stroke:#181818;stroke-width:0.4000000000000001;"/><path d="M206.7063,176.2063 Q206.7688,176.1188 206.8438,176.075 Q206.9188,176.0313 207.0063,176.0313 Q207.1563,176.0313 207.25,176.1375 Q207.3438,176.2375 207.3438,176.4813 L207.3438,177.0625 Q207.3438,177.3063 207.25,177.4125 Q207.1563,177.5188 207.0063,177.5188 Q206.8688,177.5188 206.7875,177.4375 Q206.7063,177.3625 206.6625,177.1563 Q206.6438,177.0125 206.5688,176.9375 Q206.4375,176.7875 206.1938,176.7 Q205.95,176.6125 205.7,176.6125 Q205.3938,176.6125 205.1375,176.7438 Q204.8875,176.875 204.6875,177.175 Q204.4938,177.475 204.4938,177.8875 L204.4938,178.325 Q204.4938,178.8188 204.85,179.15 Q205.2063,179.475 205.8438,179.475 Q206.2188,179.475 206.4813,179.375 Q206.6375,179.3125 206.8063,179.1375 Q206.9125,179.0313 206.9688,179 Q207.0313,178.9688 207.1125,178.9688 Q207.2438,178.9688 207.3438,179.075 Q207.45,179.175 207.45,179.3125 Q207.45,179.45 207.3125,179.6125 Q207.1125,179.8438 206.7938,179.975 Q206.3625,180.1563 205.8438,180.1563 Q205.2375,180.1563 204.7563,179.9063 Q204.3625,179.7063 204.0875,179.2813 Q203.8125,178.85 203.8125,178.3375 L203.8125,177.875 Q203.8125,177.3438 204.0563,176.8875 Q204.3063,176.425 204.7438,176.1813 Q205.1813,175.9313 205.675,175.9313 Q205.9688,175.9313 206.225,176 Q206.4875,176.0625 206.7063,176.2063 Z " fill="#000000"/><text fill="#000000" font-family="sans-serif" font-size="5.6" lengthAdjust="spacing" textLength="36.8" x="211.2" y="176.6695">&#171;value object&#187;</text><text fill="#000000" font-family="sans-serif" font-size="5.6" lengthAdjust="spacing" textLength="36.8" x="211.2" y="182.9258">ApplicationFile</text><line style="stroke:#181818;stroke-width:0.20000000000000004;" x1="200" x2="248.8" y1="186.1125" y2="186.1125"/><text fill="#000000" font-family="sans-serif" font-size="5.6" lengthAdjust="spacing" textLength="39.2" x="202" y="192.782">relativeFilePath</text><text fill="#000000" font-family="sans-serif" font-size="5.6" lengthAdjust="spacing" textLength="27.2" x="202" y="199.0383">fileContent</text><line style="stroke:#181818;stroke-width:0.20000000000000004;" x1="200" x2="248.8" y1="201.825" y2="201.825"/></g><!--class Type--><g id="elem_Type"><rect codeLine="102" fill="#F1F1F1" height="22.9125" id="Type" rx="1" ry="1" style="stroke:#181818;stroke-width:0.20000000000000004;" width="49.6" x="199.6" y="245"/><ellipse cx="205.6" cy="253.2563" fill="#ADD1B2" rx="4.4" ry="4.4" style="stroke:#181818;stroke-width:0.4000000000000001;"/><path d="M206.7063,251.6063 Q206.7688,251.5188 206.8438,251.475 Q206.9188,251.4313 207.0063,251.4313 Q207.1563,251.4313 207.25,251.5375 Q207.3438,251.6375 207.3438,251.8813 L207.3438,252.4625 Q207.3438,252.7063 207.25,252.8125 Q207.1563,252.9188 207.0063,252.9188 Q206.8688,252.9188 206.7875,252.8375 Q206.7063,252.7625 206.6625,252.5563 Q206.6438,252.4125 206.5688,252.3375 Q206.4375,252.1875 206.1938,252.1 Q205.95,252.0125 205.7,252.0125 Q205.3938,252.0125 205.1375,252.1438 Q204.8875,252.275 204.6875,252.575 Q204.4938,252.875 204.4938,253.2875 L204.4938,253.725 Q204.4938,254.2188 204.85,254.55 Q205.2063,254.875 205.8438,254.875 Q206.2188,254.875 206.4813,254.775 Q206.6375,254.7125 206.8063,254.5375 Q206.9125,254.4313 206.9688,254.4 Q207.0313,254.3688 207.1125,254.3688 Q207.2438,254.3688 207.3438,254.475 Q207.45,254.575 207.45,254.7125 Q207.45,254.85 207.3125,255.0125 Q207.1125,255.2438 206.7938,255.375 Q206.3625,255.5563 205.8438,255.5563 Q205.2375,255.5563 204.7563,255.3063 Q204.3625,255.1063 204.0875,254.6813 Q203.8125,254.25 203.8125,253.7375 L203.8125,253.275 Q203.8125,252.7438 204.0563,252.2875 Q204.3063,251.825 204.7438,251.5813 Q205.1813,251.3313 205.675,251.3313 Q205.9688,251.3313 206.225,251.4 Q206.4875,251.4625 206.7063,251.6063 Z " fill="#000000"/><text fill="#000000" font-family="sans-serif" font-size="5.6" lengthAdjust="spacing" textLength="36.8" x="211.2" y="252.0695">&#171;value object&#187;</text><text fill="#000000" font-family="sans-serif" font-size="5.6" lengthAdjust="spacing" textLength="12.8" x="223.2" y="258.3258">Type</text><line style="stroke:#181818;stroke-width:0.20000000000000004;" x1="200" x2="248.8" y1="261.5125" y2="261.5125"/><line style="stroke:#181818;stroke-width:0.20000000000000004;" x1="200" x2="248.8" y1="264.7125" y2="264.7125"/></g><!--reverse link Mode to JobOpening--><g id="link_Mode_JobOpening"><path codeLine="108" d="M632.8152,56.0391 C627.0832,61.1151 621.74,65.412 614.8,70 C587.832,87.82 554.024,103.884 532.412,113.444 " fill="none" id="Mode-backto-JobOpening" style="stroke:#181818;stroke-width:0.4000000000000001;"/><polygon fill="#181818" points="634.612,54.448,630.8561,55.6369,633.1147,55.7739,632.9776,58.0325,634.612,54.448" style="stroke:#181818;stroke-width:0.4000000000000001;"/><text fill="#000000" font-family="sans-serif" font-size="5.2" lengthAdjust="spacing" textLength="19.2" x="593.2" y="87.1074">includes</text><text fill="#000000" font-family="sans-serif" font-size="5.2" lengthAdjust="spacing" textLength="2.8" x="628.7623" y="62.4615">1</text><text fill="#000000" font-family="sans-serif" font-size="5.2" lengthAdjust="spacing" textLength="2.8" x="535.6481" y="110.8308">1</text></g><!--reverse link JobFunction to JobOpening--><g id="link_JobFunction_JobOpening"><path codeLine="109" d="M571.1737,56.1879 C558.3857,70.2559 537.84,92.856 523.768,108.336 " fill="none" id="JobFunction-backto-JobOpening" style="stroke:#181818;stroke-width:0.4000000000000001;"/><polygon fill="#181818" points="572.788,54.412,569.1825,55.9997,571.4427,55.8919,571.5504,58.1521,572.788,54.412" style="stroke:#181818;stroke-width:0.4000000000000001;"/><text fill="#000000" font-family="sans-serif" font-size="5.2" lengthAdjust="spacing" textLength="19.2" x="547.2" y="87.1074">includes</text><text fill="#000000" font-family="sans-serif" font-size="5.2" lengthAdjust="spacing" textLength="2.8" x="567.349" y="62.4171">1</text><text fill="#000000" font-family="sans-serif" font-size="5.2" lengthAdjust="spacing" textLength="2.8" x="523.1732" y="104.1373">1</text></g><!--reverse link NumberOfVacancies to JobOpening--><g id="link_NumberOfVacancies_JobOpening"><path codeLine="110" d="M510.8,56.812 C510.8,70.88 510.8,92.856 510.8,108.336 " fill="none" id="NumberOfVacancies-backto-JobOpening" style="stroke:#181818;stroke-width:0.4000000000000001;"/><polygon fill="#181818" points="510.8,54.412,509.2,58.012,510.8,56.412,512.4,58.012,510.8,54.412" style="stroke:#181818;stroke-width:0.4000000000000001;"/><text fill="#000000" font-family="sans-serif" font-size="5.2" lengthAdjust="spacing" textLength="19.2" x="511.2" y="87.1074">includes</text><text fill="#000000" font-family="sans-serif" font-size="5.2" lengthAdjust="spacing" textLength="2.8" x="507.6763" y="62.4171">1</text><text fill="#000000" font-family="sans-serif" font-size="5.2" lengthAdjust="spacing" textLength="2.8" x="507.7331" y="104.1373">1</text></g><!--reverse link Description to JobOpening--><g id="link_Description_JobOpening"><path codeLine="111" d="M450.4263,56.1879 C463.2143,70.2559 483.76,92.856 497.832,108.336 " fill="none" id="Description-backto-JobOpening" style="stroke:#181818;stroke-width:0.4000000000000001;"/><polygon fill="#181818" points="448.812,54.412,450.0496,58.1521,450.1573,55.8919,452.4175,55.9997,448.812,54.412" style="stroke:#181818;stroke-width:0.4000000000000001;"/><text fill="#000000" font-family="sans-serif" font-size="5.2" lengthAdjust="spacing" textLength="19.2" x="479.2" y="87.1074">includes</text><text fill="#000000" font-family="sans-serif" font-size="5.2" lengthAdjust="spacing" textLength="2.8" x="448.0035" y="62.4171">1</text><text fill="#000000" font-family="sans-serif" font-size="5.2" lengthAdjust="spacing" textLength="2.8" x="492.2931" y="104.1373">1</text></g><!--reverse link Address1 to JobOpening--><g id="link_Address1_JobOpening"><path codeLine="112" d="M402.0432,66.441 C404.3872,68.201 404.844,68.452 407.2,70 C434.084,87.676 467.684,103.744 489.196,113.348 " fill="none" id="Address1-backto-JobOpening" style="stroke:#181818;stroke-width:0.4000000000000001;"/><polygon fill="#181818" points="400.124,65,402.0421,68.441,401.7233,66.2009,403.9635,65.8821,400.124,65" style="stroke:#181818;stroke-width:0.4000000000000001;"/><text fill="#000000" font-family="sans-serif" font-size="5.2" lengthAdjust="spacing" textLength="19.2" x="437.6" y="87.1074">includes</text><text fill="#000000" font-family="sans-serif" font-size="5.2" lengthAdjust="spacing" textLength="2.8" x="403.1677" y="66.3283">1</text><text fill="#000000" font-family="sans-serif" font-size="5.2" lengthAdjust="spacing" textLength="2.8" x="483.1611" y="110.7213">1</text></g><!--reverse link ContractType to JobOpening--><g id="link_ContractType_JobOpening"><path codeLine="113" d="M697.346,56.0696 C691.598,61.3856 685.944,65.86 678.4,70 C629.74,96.704 565.56,112.024 532.52,118.648 " fill="none" id="ContractType-backto-JobOpening" style="stroke:#181818;stroke-width:0.4000000000000001;"/><polygon fill="#181818" points="699.108,54.44,695.3787,55.7097,697.6397,55.798,697.5514,58.059,699.108,54.44" style="stroke:#181818;stroke-width:0.4000000000000001;"/><text fill="#000000" font-family="sans-serif" font-size="5.2" lengthAdjust="spacing" textLength="19.2" x="652.8" y="87.1074">includes</text><text fill="#000000" font-family="sans-serif" font-size="5.2" lengthAdjust="spacing" textLength="2.8" x="693.4655" y="62.4516">1</text><text fill="#000000" font-family="sans-serif" font-size="5.2" lengthAdjust="spacing" textLength="2.8" x="535.6268" y="116.8105">1</text></g><!--link JobOpening to JobReference--><g id="link_JobOpening_JobReference"><path codeLine="117" d="M532.488,126.188 C559.604,130.352 606.828,139.864 642.8,159.2 C649.364,162.728 653.958,166.2262 659.222,171.1182 " fill="none" id="JobOpening-to-JobReference" style="stroke:#181818;stroke-width:0.4000000000000001;"/><polygon fill="#181818" points="660.98,172.752,659.4321,169.1293,659.515,171.3905,657.2537,171.4733,660.98,172.752" style="stroke:#181818;stroke-width:0.4000000000000001;"/><text fill="#000000" font-family="sans-serif" font-size="5.2" lengthAdjust="spacing" textLength="27.6" x="636.4" y="154.7074">identified by</text><text fill="#000000" font-family="sans-serif" font-size="5.2" lengthAdjust="spacing" textLength="2.8" x="535.5905" y="125.3637">1</text><text fill="#000000" font-family="sans-serif" font-size="5.2" lengthAdjust="spacing" textLength="2.8" x="655.2623" y="168.448">1</text></g><!--link JobOpening to JogOpeningStatus--><g id="link_JobOpening_JogOpeningStatus"><path codeLine="119" d="M532.508,135.876 C543.756,142.524 557.612,151.004 569.6,159.2 C577.28,164.448 583.6538,169.2292 590.3618,174.4772 " fill="none" id="JobOpening-to-JogOpeningStatus" style="stroke:#181818;stroke-width:0.4000000000000001;"/><polygon fill="#181818" points="592.252,175.956,590.4025,172.4776,590.6768,174.7236,588.4307,174.9979,592.252,175.956" style="stroke:#181818;stroke-width:0.4000000000000001;"/><text fill="#000000" font-family="sans-serif" font-size="5.2" lengthAdjust="spacing" textLength="19.2" x="563.6" y="154.7074">includes</text><text fill="#000000" font-family="sans-serif" font-size="5.2" lengthAdjust="spacing" textLength="2.8" x="535.6131" y="136.3536">1</text><text fill="#000000" font-family="sans-serif" font-size="5.2" lengthAdjust="spacing" textLength="2.8" x="585.949" y="171.7807">1</text></g><!--reverse link RecruitmentProcess to Phase--><g id="link_RecruitmentProcess_Phase"><path codeLine="120" d="M483.6785,201.4537 C492.3185,204.4777 497.192,205.964 506,208.4 C584.964,230.228 681.552,246.912 720.492,253.236 " fill="none" id="RecruitmentProcess-backto-Phase" style="stroke:#181818;stroke-width:0.4000000000000001;"/><polygon fill="#181818" points="479.148,199.868,480.8847,202.171,483.6785,201.4537,481.9418,199.1507,479.148,199.868" style="stroke:#181818;stroke-width:0.4000000000000001;"/><text fill="#000000" font-family="sans-serif" font-size="5.2" lengthAdjust="spacing" textLength="14.4" x="562.8" y="222.3074">part of</text><text fill="#000000" font-family="sans-serif" font-size="5.2" lengthAdjust="spacing" textLength="2.8" x="482.2223" y="199.8778">1</text><text fill="#000000" font-family="sans-serif" font-size="5.2" lengthAdjust="spacing" textLength="8.8" x="708.6112" y="251.5137">4..5</text></g><!--link RecruitmentProcess to PhaseNames--><g id="link_RecruitmentProcess_PhaseNames"><path codeLine="121" d="M479.072,187.4 C490.104,187.4 499.896,187.4 510.288,187.4 " fill="none" id="RecruitmentProcess-to-PhaseNames" style="stroke:#181818;stroke-width:0.4000000000000001;"/><polygon fill="#181818" points="512.688,187.4,509.088,185.8,510.688,187.4,509.088,189,512.688,187.4" style="stroke:#181818;stroke-width:0.4000000000000001;"/><text fill="#000000" font-family="sans-serif" font-size="5.2" lengthAdjust="spacing" textLength="19.2" x="486.3" y="184.9074">includes</text><text fill="#000000" font-family="sans-serif" font-size="5.2" lengthAdjust="spacing" textLength="2.8" x="482.2432" y="186.252">1</text><text fill="#000000" font-family="sans-serif" font-size="5.2" lengthAdjust="spacing" textLength="2.8" x="506.8457" y="186.1893">1</text></g><!--link JobOpening to RecruitmentProcess--><g id="link_JobOpening_RecruitmentProcess"><path codeLine="122" d="M496.528,137.672 C486.052,148.148 473.5851,160.6149 463.1211,171.0789 " fill="none" id="JobOpening-to-RecruitmentProcess" style="stroke:#181818;stroke-width:0.4000000000000001;"/><polygon fill="#181818" points="461.424,172.776,465.101,171.3618,462.8382,171.3618,462.8382,169.099,461.424,172.776" style="stroke:#181818;stroke-width:0.4000000000000001;"/><text fill="#000000" font-family="sans-serif" font-size="5.2" lengthAdjust="spacing" textLength="19.2" x="483.2" y="154.7074">includes</text><text fill="#000000" font-family="sans-serif" font-size="5.2" lengthAdjust="spacing" textLength="2.8" x="490.9364" y="145.5131">1</text><text fill="#000000" font-family="sans-serif" font-size="5.2" lengthAdjust="spacing" textLength="2.8" x="461.1487" y="168.4768">1</text></g><!--link ScreeningPhase to Phase--><g id="link_ScreeningPhase_Phase"><path codeLine="125" d="M845.1,198.808 C839.888,201.972 834.148,205.38 828.8,208.4 C803.612,222.616 780.2407,234.7139 761.8327,244.0259 " fill="none" id="ScreeningPhase-to-Phase" style="stroke:#181818;stroke-width:0.4000000000000001;"/><polygon fill="none" points="755.408,247.276,762.9161,246.1675,760.7494,241.8844,755.408,247.276" style="stroke:#181818;stroke-width:0.4000000000000001;"/></g><!--link ResultPhase to Phase--><g id="link_ResultPhase_Phase"><path codeLine="126" d="M789.232,198.908 C780.12,209.064 771.2493,218.9497 760.3173,231.1297 " fill="none" id="ResultPhase-to-Phase" style="stroke:#181818;stroke-width:0.4000000000000001;"/><polygon fill="none" points="755.508,236.488,762.1033,232.7328,758.5312,229.5266,755.508,236.488" style="stroke:#181818;stroke-width:0.4000000000000001;"/></g><!--link InterviewPhase to Phase--><g id="link_InterviewPhase_Phase"><path codeLine="127" d="M390.468,198.844 C395.84,202.432 402.148,206.084 408.4,208.4 C521.976,250.488 663.1963,255.5026 713.3683,255.9586 " fill="none" id="InterviewPhase-to-Phase" style="stroke:#181818;stroke-width:0.4000000000000001;"/><polygon fill="none" points="720.568,256.024,713.3901,253.5587,713.3465,258.3585,720.568,256.024" style="stroke:#181818;stroke-width:0.4000000000000001;"/></g><!--link AnalysisPhase to Phase--><g id="link_AnalysisPhase_Phase"><path codeLine="128" d="M738,198.908 C738,208.8 738,216.316 738,228.332 " fill="none" id="AnalysisPhase-to-Phase" style="stroke:#181818;stroke-width:0.4000000000000001;"/><polygon fill="none" points="738,235.532,740.4,228.332,735.6,228.332,738,235.532" style="stroke:#181818;stroke-width:0.4000000000000001;"/></g><!--reverse link JobOpening to Notification--><g id="link_JobOpening_Notification"><path codeLine="130" d="M486.7158,125.382 C454.0038,128.642 393.052,137.208 344,159.2 C334.676,163.38 325.4,170.108 318.344,175.896 " fill="none" id="JobOpening-backto-Notification" style="stroke:#181818;stroke-width:0.4000000000000001;"/><polygon fill="#181818" points="489.104,125.144,485.3631,123.9089,487.1139,125.3423,485.6804,127.0931,489.104,125.144" style="stroke:#181818;stroke-width:0.4000000000000001;"/><text fill="#000000" font-family="sans-serif" font-size="5.2" lengthAdjust="spacing" textLength="78.8" x="365.6" y="154.7074">made when something changes in</text></g><!--reverse link JobApplication to Notification--><g id="link_JobApplication_Notification"><path codeLine="131" d="M202.4356,136.3099 C216.0436,142.7139 231.14,149.58 246.8,156 C250.652,157.58 251.812,157.48 255.6,159.2 C266.516,164.16 278.276,170.58 287.684,175.996 " fill="none" id="JobApplication-backto-Notification" style="stroke:#181818;stroke-width:0.4000000000000001;"/><polygon fill="#181818" points="200.264,135.288,202.84,138.2686,202.0736,136.1396,204.2026,135.3732,200.264,135.288" style="stroke:#181818;stroke-width:0.4000000000000001;"/><text fill="#000000" font-family="sans-serif" font-size="5.2" lengthAdjust="spacing" textLength="78.8" x="247.2" y="154.7074">made when something changes in</text></g><!--link JobApplication to ID--><g id="link_JobApplication_ID"><path codeLine="135" d="M150.896,137.22 C144.904,140.96 138.656,145.2 133.2,149.6 C124.644,156.504 117.678,163.5442 111.042,170.8802 " fill="none" id="JobApplication-to-ID" style="stroke:#181818;stroke-width:0.4000000000000001;"/><polygon fill="#181818" points="109.432,172.66,113.0336,171.0636,110.7737,171.1768,110.6605,168.9169,109.432,172.66" style="stroke:#181818;stroke-width:0.4000000000000001;"/><text fill="#000000" font-family="sans-serif" font-size="5.2" lengthAdjust="spacing" textLength="27.6" x="133.6" y="154.7074">identified by</text><text fill="#000000" font-family="sans-serif" font-size="5.2" lengthAdjust="spacing" textLength="2.8" x="145.0777" y="137.6618">1</text><text fill="#000000" font-family="sans-serif" font-size="5.2" lengthAdjust="spacing" textLength="2.8" x="108.6969" y="168.4468">1</text></g><!--link JobApplication to ApplicationFile--><g id="link_JobApplication_ApplicationFile"><path codeLine="136" d="M181.688,137.628 C184.536,143.568 188.224,150.376 192.4,156 C195.904,160.72 198.4445,163.6814 202.6805,167.8854 " fill="none" id="JobApplication-to-ApplicationFile" style="stroke:#181818;stroke-width:0.4000000000000001;"/><polygon fill="#181818" points="204.384,169.576,202.9559,165.9044,202.9644,168.1672,200.7017,168.1757,204.384,169.576" style="stroke:#181818;stroke-width:0.4000000000000001;"/><text fill="#000000" font-family="sans-serif" font-size="5.2" lengthAdjust="spacing" textLength="2.8" x="179.7231" y="145.4612">1</text><text fill="#000000" font-family="sans-serif" font-size="5.2" lengthAdjust="spacing" textLength="8" x="192.4064" y="165.2994">1..*</text></g><!--link ApplicationFile to Type--><g id="link_ApplicationFile_Type"><path codeLine="137" d="M224.4,205.364 C224.4,217.836 224.4,231.8 224.4,242.504 " fill="none" id="ApplicationFile-to-Type" style="stroke:#181818;stroke-width:0.4000000000000001;"/><polygon fill="#181818" points="224.4,244.904,226,241.304,224.4,242.904,222.8,241.304,224.4,244.904" style="stroke:#181818;stroke-width:0.4000000000000001;"/><text fill="#000000" font-family="sans-serif" font-size="5.2" lengthAdjust="spacing" textLength="2.8" x="221.4119" y="212.8874">1</text><text fill="#000000" font-family="sans-serif" font-size="5.2" lengthAdjust="spacing" textLength="2.8" x="221.2763" y="240.7167">1</text></g><!--reverse link JobOpening to JobApplication--><g id="link_JobOpening_JobApplication"><path codeLine="138" d="M486.8005,124.5312 C456.6525,126.3832 402.64,129.432 354.5,130.6 C299.416,131.94 234.844,127.78 200.332,125.096 " fill="none" id="JobOpening-backto-JobApplication" style="stroke:#181818;stroke-width:0.4000000000000001;"/><polygon fill="#181818" points="489.196,124.384,485.5047,123.0077,487.1998,124.5066,485.7009,126.2017,489.196,124.384" style="stroke:#181818;stroke-width:0.4000000000000001;"/><text fill="#000000" font-family="sans-serif" font-size="5.2" lengthAdjust="spacing" textLength="18.8" x="335.3" y="129.3074">refers to</text><text fill="#000000" font-family="sans-serif" font-size="5.2" lengthAdjust="spacing" textLength="2.8" x="483.1611" y="123.3092">1</text><text fill="#000000" font-family="sans-serif" font-size="5.2" lengthAdjust="spacing" textLength="2" x="203.3739" y="121.7808">*</text></g><!--link JobApplication to Grade--><g id="link_JobApplication_Grade"><path codeLine="139" d="M170.04,137.664 C168.7,141.496 167.376,145.668 166.4,149.6 C164.536,157.12 163.5054,163.2715 162.6054,170.2875 " fill="none" id="JobApplication-to-Grade" style="stroke:#181818;stroke-width:0.4000000000000001;"/><polygon fill="#181818" points="162.3,172.668,164.345,169.3008,162.5545,170.6843,161.1711,168.8937,162.3,172.668" style="stroke:#181818;stroke-width:0.4000000000000001;"/><text fill="#000000" font-family="sans-serif" font-size="5.2" lengthAdjust="spacing" textLength="19.2" x="166.8" y="154.7074">includes</text><text fill="#000000" font-family="sans-serif" font-size="5.2" lengthAdjust="spacing" textLength="8.8" x="152.9472" y="168.4563">0..1</text></g><!--link JobApplication to Status--><g id="link_JobApplication_Status"><path codeLine="140" d="M150.952,128.352 C127.76,133.692 92.604,143.6 65.2,159.2 C57.388,163.648 51.5051,168.5592 45.7171,174.2112 " fill="none" id="JobApplication-to-Status" style="stroke:#181818;stroke-width:0.4000000000000001;"/><polygon fill="#181818" points="44,175.888,47.6935,174.5176,45.4309,174.4907,45.4578,172.2281,44,175.888" style="stroke:#181818;stroke-width:0.4000000000000001;"/><text fill="#000000" font-family="sans-serif" font-size="5.2" lengthAdjust="spacing" textLength="8.4" x="82.8" y="154.7074">has</text><text fill="#000000" font-family="sans-serif" font-size="5.2" lengthAdjust="spacing" textLength="2.8" x="144.9774" y="127.7851">1</text><text fill="#000000" font-family="sans-serif" font-size="5.2" lengthAdjust="spacing" textLength="2.8" x="43.2813" y="171.697">1</text></g><!--SRC=[bLRRQjim6BxNKmZV30fsLjXkGYc4Xcujh2tjsCNeZI8hZZPRCfBS4hm-KHzXTtcoIV91ikmsNcwi_zT_FdpAXvrIfLmk5cMEcAgAFC6yME0SIHcd56K25G2K2Fz66O7HDT_0sv8moZAuoZ91CgH8L0C0zSygmUZmIfYYQd_u-yZk2HOLLONct0cEYPGHH1AEsRMrO7vVaRnYYeWdIfxlTaWIU_FIk9ZoOOMiMNjobaf3tg22z1ofa51h7NBF8Inrz4kGnnFAAmBvvXV1glTa34hdpf9j0RG-c8hm0GjYQ-P27R9Q_L40VY5bbIkdxz4rU5zrnL2-brGwvG77nJxG5vpRd9qb-CXq-zlkMpkEhC6qbR22rpnhDHuKKfLipGoPi9vkUMZiWZCb45RVzsMJby-evxNq6qyRNNEevoQnkQmOLfIphWmTFTC2lAcA3H6tsny88uPfEr1ZzanxQoAne6KVaKVxe_cUYLMQYcuzs_EfMwK7fSTLzUI57WZlpb-e2rxf9hZRdxJ4khIpqZYyqjHCsvOIqHRwdco980oJhj8zOsBiXtC_H16hFsIvqhnu47V3JG0OcU8DCEwDzVBbhHEVqGLfok-3wAeiywC-nYjeI-BfTaNnM7rIxrRQsxxcE7FbmWvTfKrTrpFNxV2AKOwhN6UR6lgBGEt-sLDzV4nTffSqR-5io6j24KGxeK_4SEwGsbdcLXC697GACm6hnnQ7AKqtWG4C69r6y2oEpTU18Ln2od1UfKG23nkE2u_M_xYAj-d7XRkzFYhe0sbdrdocfVNFkz1oSNpUIlVRQkIxoKdXPl-cIl0KU6x6VnfiQ2Swj4z9yZbgtcEuBFKR3_dsBVdut7xSunsqomiAnetmXAMbb_tmBTTAVyuRyy1xfNts48Rycy7Bx5_uaPdM3L1g2GkzFF1vHnYKl21gPyJm3h5CfqSP213d_mqqBVQHfs_PrNhKsy2TgsIId4JXkeA0zWjljoveobaSdOGGkjJhhWTDGiL3vzRInoJHnYp41DqEucnpweTFrnw0Vm00]--></g></svg>