<?xml version="1.0" encoding="us-ascii" standalone="no"?><svg xmlns="http://www.w3.org/2000/svg" xmlns:xlink="http://www.w3.org/1999/xlink" contentStyleType="text/css" height="841px" preserveAspectRatio="none" style="width:1571px;height:841px;background:#FFFFFF;" version="1.1" viewBox="0 0 1571 841" width="1571px" zoomAndPan="magnify"><defs/><g><text fill="#000000" font-family="sans-serif" font-size="14" font-weight="bold" lengthAdjust="spacing" textLength="902" x="336.25" y="27.6738">"US 3000 - As Candidate, I want to list all my applications and their state (including the number of applicants)." Sequence Diagram</text><rect fill="#FFFFFF" height="551.6563" style="stroke:#181818;stroke-width:1.0;" width="10" x="200" y="171.9688"/><rect fill="#FFFFFF" height="369.5156" style="stroke:#181818;stroke-width:1.0;" width="10" x="492" y="262.5391"/><rect fill="#FFFFFF" height="28.5234" style="stroke:#181818;stroke-width:1.0;" width="10" x="681" y="205.4922"/><rect fill="#FFFFFF" height="312.4688" style="stroke:#181818;stroke-width:1.0;" width="10" x="842.5" y="291.0625"/><rect fill="#FFFFFF" height="95.8047" style="stroke:#181818;stroke-width:1.0;" width="10" x="847.5" y="472.2031"/><rect fill="#FFFFFF" height="28.5234" style="stroke:#181818;stroke-width:1.0;" width="10" x="1318.5" y="660.5781"/><rect fill="#FFFFFF" height="28.5234" style="stroke:#181818;stroke-width:1.0;" width="10" x="1462" y="319.5859"/><rect fill="#FFFFFF" height="28.5234" style="stroke:#181818;stroke-width:1.0;" width="10" x="1462" y="400.1563"/><rect fill="none" height="73.5703" style="stroke:#000000;stroke-width:1.5;" width="806" x="759.5" y="363.1094"/><line style="stroke:#181818;stroke-width:0.5;stroke-dasharray:5.0,5.0;" x1="204.5" x2="204.5" y1="104.9219" y2="777.1484"/><line style="stroke:#181818;stroke-width:0.5;stroke-dasharray:5.0,5.0;" x1="496.5" x2="496.5" y1="104.9219" y2="777.1484"/><line style="stroke:#181818;stroke-width:0.5;stroke-dasharray:5.0,5.0;" x1="685.5" x2="685.5" y1="104.9219" y2="777.1484"/><line style="stroke:#181818;stroke-width:0.5;stroke-dasharray:5.0,5.0;" x1="847.5" x2="847.5" y1="104.9219" y2="777.1484"/><line style="stroke:#181818;stroke-width:0.5;stroke-dasharray:5.0,5.0;" x1="1182.5" x2="1182.5" y1="523.3438" y2="777.1484"/><line style="stroke:#181818;stroke-width:0.5;stroke-dasharray:5.0,5.0;" x1="1323.5" x2="1323.5" y1="104.9219" y2="777.1484"/><line style="stroke:#181818;stroke-width:0.5;stroke-dasharray:5.0,5.0;" x1="1466.5" x2="1466.5" y1="104.9219" y2="777.1484"/><rect fill="#E3E3E3" height="45.2813" rx="2.5" ry="2.5" style="stroke:#181818;stroke-width:0.5;" width="103" x="153.5" y="58.6406"/><text fill="#000000" font-family="sans-serif" font-size="14" font-style="italic" lengthAdjust="spacing" textLength="62" x="174" y="78.3145">&#171;System&#187;</text><text fill="#000000" font-family="sans-serif" font-size="14" lengthAdjust="spacing" textLength="89" x="160.5" y="93.9551">:ClientHandler</text><rect fill="#E3E3E3" height="45.2813" rx="2.5" ry="2.5" style="stroke:#181818;stroke-width:0.5;" width="103" x="153.5" y="776.1484"/><text fill="#000000" font-family="sans-serif" font-size="14" font-style="italic" lengthAdjust="spacing" textLength="62" x="174" y="795.8223">&#171;System&#187;</text><text fill="#000000" font-family="sans-serif" font-size="14" lengthAdjust="spacing" textLength="89" x="160.5" y="811.4629">:ClientHandler</text><text fill="#000000" font-family="sans-serif" font-size="14" font-style="italic" lengthAdjust="spacing" textLength="84" x="452" y="86.3145">&#171;application&#187;</text><text fill="#000000" font-family="sans-serif" font-size="14" lengthAdjust="spacing" textLength="205" x="391.5" y="101.9551">:ListAllApplicationsReqController</text><ellipse cx="497" cy="57.6406" fill="#E3E3E3" rx="12" ry="12" style="stroke:#181818;stroke-width:0.5;"/><polygon fill="#181818" points="493,45.6406,499,40.6406,497,45.6406,499,50.6406,493,45.6406" style="stroke:#181818;stroke-width:1.0;"/><text fill="#000000" font-family="sans-serif" font-size="14" font-style="italic" lengthAdjust="spacing" textLength="84" x="452" y="788.8223">&#171;application&#187;</text><text fill="#000000" font-family="sans-serif" font-size="14" lengthAdjust="spacing" textLength="205" x="391.5" y="804.4629">:ListAllApplicationsReqController</text><ellipse cx="497" cy="823.4297" fill="#E3E3E3" rx="12" ry="12" style="stroke:#181818;stroke-width:0.5;"/><polygon fill="#181818" points="493,811.4297,499,806.4297,497,811.4297,499,816.4297,493,811.4297" style="stroke:#181818;stroke-width:1.0;"/><rect fill="#E3E3E3" height="45.2813" rx="2.5" ry="2.5" style="stroke:#181818;stroke-width:0.5;" width="147" x="612.5" y="58.6406"/><text fill="#000000" font-family="sans-serif" font-size="14" font-style="italic" lengthAdjust="spacing" textLength="60" x="656" y="78.3145">&#171;service&#187;</text><text fill="#000000" font-family="sans-serif" font-size="14" lengthAdjust="spacing" textLength="133" x="619.5" y="93.9551">:AuthorizationService</text><rect fill="#E3E3E3" height="45.2813" rx="2.5" ry="2.5" style="stroke:#181818;stroke-width:0.5;" width="147" x="612.5" y="776.1484"/><text fill="#000000" font-family="sans-serif" font-size="14" font-style="italic" lengthAdjust="spacing" textLength="60" x="656" y="795.8223">&#171;service&#187;</text><text fill="#000000" font-family="sans-serif" font-size="14" lengthAdjust="spacing" textLength="133" x="619.5" y="811.4629">:AuthorizationService</text><rect fill="#E3E3E3" height="45.2813" rx="2.5" ry="2.5" style="stroke:#181818;stroke-width:0.5;" width="156" x="769.5" y="58.6406"/><text fill="#000000" font-family="sans-serif" font-size="14" font-style="italic" lengthAdjust="spacing" textLength="60" x="817.5" y="78.3145">&#171;service&#187;</text><text fill="#000000" font-family="sans-serif" font-size="14" lengthAdjust="spacing" textLength="142" x="776.5" y="93.9551">:JobApplicationService</text><rect fill="#E3E3E3" height="45.2813" rx="2.5" ry="2.5" style="stroke:#181818;stroke-width:0.5;" width="156" x="769.5" y="776.1484"/><text fill="#000000" font-family="sans-serif" font-size="14" font-style="italic" lengthAdjust="spacing" textLength="60" x="817.5" y="795.8223">&#171;service&#187;</text><text fill="#000000" font-family="sans-serif" font-size="14" lengthAdjust="spacing" textLength="142" x="776.5" y="811.4629">:JobApplicationService</text><rect fill="#E3E3E3" height="45.2813" rx="2.5" ry="2.5" style="stroke:#181818;stroke-width:0.5;" width="172" x="1096.5" y="776.1484"/><text fill="#000000" font-family="sans-serif" font-size="14" font-style="italic" lengthAdjust="spacing" textLength="62" x="1151.5" y="795.8223">&#171;domain&#187;</text><text fill="#000000" font-family="sans-serif" font-size="14" lengthAdjust="spacing" textLength="158" x="1103.5" y="811.4629">:JobApplicationStateDTO</text><rect fill="#E3E3E3" height="45.2813" rx="2.5" ry="2.5" style="stroke:#181818;stroke-width:0.5;" width="90" x="1278.5" y="58.6406"/><text fill="#000000" font-family="sans-serif" font-size="14" font-style="italic" lengthAdjust="spacing" textLength="62" x="1292.5" y="78.3145">&#171;domain&#187;</text><text fill="#000000" font-family="sans-serif" font-size="14" lengthAdjust="spacing" textLength="76" x="1285.5" y="93.9551">:SerializeUtil</text><rect fill="#E3E3E3" height="45.2813" rx="2.5" ry="2.5" style="stroke:#181818;stroke-width:0.5;" width="90" x="1278.5" y="776.1484"/><text fill="#000000" font-family="sans-serif" font-size="14" font-style="italic" lengthAdjust="spacing" textLength="62" x="1292.5" y="795.8223">&#171;domain&#187;</text><text fill="#000000" font-family="sans-serif" font-size="14" lengthAdjust="spacing" textLength="76" x="1285.5" y="811.4629">:SerializeUtil</text><rect fill="#E3E3E3" height="45.2813" rx="2.5" ry="2.5" style="stroke:#181818;stroke-width:0.5;" width="177" x="1378.5" y="58.6406"/><text fill="#000000" font-family="sans-serif" font-size="14" font-style="italic" lengthAdjust="spacing" textLength="79" x="1427.5" y="78.3145">&#171;repository&#187;</text><text fill="#000000" font-family="sans-serif" font-size="14" lengthAdjust="spacing" textLength="163" x="1385.5" y="93.9551">:JobApplicationRepository</text><rect fill="#E3E3E3" height="45.2813" rx="2.5" ry="2.5" style="stroke:#181818;stroke-width:0.5;" width="177" x="1378.5" y="776.1484"/><text fill="#000000" font-family="sans-serif" font-size="14" font-style="italic" lengthAdjust="spacing" textLength="79" x="1427.5" y="795.8223">&#171;repository&#187;</text><text fill="#000000" font-family="sans-serif" font-size="14" lengthAdjust="spacing" textLength="163" x="1385.5" y="811.4629">:JobApplicationRepository</text><rect fill="#FFFFFF" height="551.6563" style="stroke:#181818;stroke-width:1.0;" width="10" x="200" y="171.9688"/><rect fill="#FFFFFF" height="369.5156" style="stroke:#181818;stroke-width:1.0;" width="10" x="492" y="262.5391"/><rect fill="#FFFFFF" height="28.5234" style="stroke:#181818;stroke-width:1.0;" width="10" x="681" y="205.4922"/><rect fill="#FFFFFF" height="312.4688" style="stroke:#181818;stroke-width:1.0;" width="10" x="842.5" y="291.0625"/><rect fill="#FFFFFF" height="95.8047" style="stroke:#181818;stroke-width:1.0;" width="10" x="847.5" y="472.2031"/><rect fill="#FFFFFF" height="28.5234" style="stroke:#181818;stroke-width:1.0;" width="10" x="1318.5" y="660.5781"/><rect fill="#FFFFFF" height="28.5234" style="stroke:#181818;stroke-width:1.0;" width="10" x="1462" y="319.5859"/><rect fill="#FFFFFF" height="28.5234" style="stroke:#181818;stroke-width:1.0;" width="10" x="1462" y="400.1563"/><polygon fill="#181818" points="193,131.4453,203,135.4453,193,139.4453,197,135.4453" style="stroke:#181818;stroke-width:1.0;"/><line style="stroke:#181818;stroke-width:1.0;" x1="0" x2="199" y1="135.4453" y2="135.4453"/><text fill="#000000" font-family="sans-serif" font-size="13" font-weight="bold" lengthAdjust="spacing" textLength="7" x="7" y="130.6904">1</text><text fill="#000000" font-family="sans-serif" font-size="13" lengthAdjust="spacing" textLength="156" x="18" y="130.6904">(tcp) listAllApplicationsReq</text><line style="stroke:#181818;stroke-width:1.0;" x1="205" x2="252" y1="158.9688" y2="158.9688"/><line style="stroke:#181818;stroke-width:1.0;" x1="252" x2="252" y1="158.9688" y2="171.9688"/><line style="stroke:#181818;stroke-width:1.0;" x1="211" x2="252" y1="171.9688" y2="171.9688"/><polygon fill="#181818" points="221,167.9688,211,171.9688,221,175.9688,217,171.9688" style="stroke:#181818;stroke-width:1.0;"/><text fill="#000000" font-family="sans-serif" font-size="13" font-weight="bold" lengthAdjust="spacing" textLength="7" x="217" y="154.2139">2</text><text fill="#000000" font-family="sans-serif" font-size="13" lengthAdjust="spacing" textLength="243" x="228" y="154.2139">listAllApplicationsReq(version, code, data)</text><polygon fill="#181818" points="669,201.4922,679,205.4922,669,209.4922,673,205.4922" style="stroke:#181818;stroke-width:1.0;"/><line style="stroke:#181818;stroke-width:1.0;" x1="210" x2="675" y1="205.4922" y2="205.4922"/><text fill="#000000" font-family="sans-serif" font-size="13" font-weight="bold" lengthAdjust="spacing" textLength="7" x="217" y="200.7373">3</text><text fill="#000000" font-family="sans-serif" font-size="13" lengthAdjust="spacing" textLength="156" x="228" y="200.7373">authenticatedUser().email()</text><polygon fill="#181818" points="221,230.0156,211,234.0156,221,238.0156,217,234.0156" style="stroke:#181818;stroke-width:1.0;"/><line style="stroke:#181818;stroke-width:1.0;stroke-dasharray:2.0,2.0;" x1="215" x2="685" y1="234.0156" y2="234.0156"/><text fill="#000000" font-family="sans-serif" font-size="13" font-weight="bold" lengthAdjust="spacing" textLength="7" x="227" y="229.2607">4</text><text fill="#000000" font-family="sans-serif" font-size="13" lengthAdjust="spacing" textLength="31" x="238" y="229.2607">email</text><polygon fill="#181818" points="480,258.5391,490,262.5391,480,266.5391,484,262.5391" style="stroke:#181818;stroke-width:1.0;"/><line style="stroke:#181818;stroke-width:1.0;" x1="210" x2="486" y1="262.5391" y2="262.5391"/><text fill="#000000" font-family="sans-serif" font-size="13" font-weight="bold" lengthAdjust="spacing" textLength="7" x="217" y="257.7842">5</text><text fill="#000000" font-family="sans-serif" font-size="13" lengthAdjust="spacing" textLength="142" x="228" y="257.7842">listAllApplications(email)</text><polygon fill="#181818" points="830.5,287.0625,840.5,291.0625,830.5,295.0625,834.5,291.0625" style="stroke:#181818;stroke-width:1.0;"/><line style="stroke:#181818;stroke-width:1.0;" x1="502" x2="836.5" y1="291.0625" y2="291.0625"/><text fill="#000000" font-family="sans-serif" font-size="13" font-weight="bold" lengthAdjust="spacing" textLength="7" x="509" y="286.3076">6</text><text fill="#000000" font-family="sans-serif" font-size="13" lengthAdjust="spacing" textLength="224" x="520" y="286.3076">findJobApplicationsByCandidate(email)</text><polygon fill="#181818" points="1450,315.5859,1460,319.5859,1450,323.5859,1454,319.5859" style="stroke:#181818;stroke-width:1.0;"/><line style="stroke:#181818;stroke-width:1.0;" x1="852.5" x2="1456" y1="319.5859" y2="319.5859"/><text fill="#000000" font-family="sans-serif" font-size="13" font-weight="bold" lengthAdjust="spacing" textLength="7" x="859.5" y="314.8311">7</text><text fill="#000000" font-family="sans-serif" font-size="13" lengthAdjust="spacing" textLength="133" x="870.5" y="314.8311">findByCandidate(email)</text><polygon fill="#181818" points="863.5,344.1094,853.5,348.1094,863.5,352.1094,859.5,348.1094" style="stroke:#181818;stroke-width:1.0;"/><line style="stroke:#181818;stroke-width:1.0;stroke-dasharray:2.0,2.0;" x1="857.5" x2="1466" y1="348.1094" y2="348.1094"/><text fill="#000000" font-family="sans-serif" font-size="13" font-weight="bold" lengthAdjust="spacing" textLength="7" x="869.5" y="343.3545">8</text><text fill="#000000" font-family="sans-serif" font-size="13" lengthAdjust="spacing" textLength="102" x="880.5" y="343.3545">jobApplicationList</text><path d="M759.5,363.1094 L832.5,363.1094 L832.5,369.6328 L822.5,379.6328 L759.5,379.6328 L759.5,363.1094 " fill="#EEEEEE" style="stroke:#000000;stroke-width:1.5;"/><rect fill="none" height="73.5703" style="stroke:#000000;stroke-width:1.5;" width="806" x="759.5" y="363.1094"/><text fill="#000000" font-family="sans-serif" font-size="13" font-weight="bold" lengthAdjust="spacing" textLength="28" x="774.5" y="375.8779">loop</text><text fill="#000000" font-family="sans-serif" font-size="11" font-weight="bold" lengthAdjust="spacing" textLength="116" x="847.5" y="375.0674">[each job application]</text><polygon fill="#181818" points="1450,396.1563,1460,400.1563,1450,404.1563,1454,400.1563" style="stroke:#181818;stroke-width:1.0;"/><line style="stroke:#181818;stroke-width:1.0;" x1="852.5" x2="1456" y1="400.1563" y2="400.1563"/><text fill="#000000" font-family="sans-serif" font-size="13" font-weight="bold" lengthAdjust="spacing" textLength="7" x="859.5" y="395.4014">9</text><text fill="#000000" font-family="sans-serif" font-size="13" lengthAdjust="spacing" textLength="177" x="870.5" y="395.4014">findByJobOpening(jobOpening)</text><polygon fill="#181818" points="863.5,424.6797,853.5,428.6797,863.5,432.6797,859.5,428.6797" style="stroke:#181818;stroke-width:1.0;"/><line style="stroke:#181818;stroke-width:1.0;stroke-dasharray:2.0,2.0;" x1="857.5" x2="1466" y1="428.6797" y2="428.6797"/><text fill="#000000" font-family="sans-serif" font-size="13" font-weight="bold" lengthAdjust="spacing" textLength="14" x="869.5" y="423.9248">10</text><text fill="#000000" font-family="sans-serif" font-size="13" lengthAdjust="spacing" textLength="88" x="887.5" y="423.9248">jobApplications</text><line style="stroke:#181818;stroke-width:1.0;" x1="852.5" x2="899.5" y1="459.2031" y2="459.2031"/><line style="stroke:#181818;stroke-width:1.0;" x1="899.5" x2="899.5" y1="459.2031" y2="472.2031"/><line style="stroke:#181818;stroke-width:1.0;" x1="858.5" x2="899.5" y1="472.2031" y2="472.2031"/><polygon fill="#181818" points="868.5,468.2031,858.5,472.2031,868.5,476.2031,864.5,472.2031" style="stroke:#181818;stroke-width:1.0;"/><text fill="#000000" font-family="sans-serif" font-size="13" font-weight="bold" lengthAdjust="spacing" textLength="14" x="864.5" y="454.4482">11</text><text fill="#000000" font-family="sans-serif" font-size="13" lengthAdjust="spacing" textLength="293" x="882.5" y="454.4482">transformToDTO(jobApplicationNumberCandidates)</text><polygon fill="#181818" points="1084.5,501.7266,1094.5,505.7266,1084.5,509.7266,1088.5,505.7266" style="stroke:#181818;stroke-width:1.0;"/><line style="stroke:#181818;stroke-width:1.0;stroke-dasharray:2.0,2.0;" x1="857.5" x2="1090.5" y1="505.7266" y2="505.7266"/><text fill="#000000" font-family="sans-serif" font-size="13" font-weight="bold" lengthAdjust="spacing" textLength="14" x="864.5" y="500.9717">12</text><text fill="#000000" font-family="sans-serif" font-size="13" lengthAdjust="spacing" textLength="44" x="882.5" y="500.9717">create()</text><rect fill="#E3E3E3" height="45.2813" rx="2.5" ry="2.5" style="stroke:#181818;stroke-width:0.5;" width="172" x="1096.5" y="485.2031"/><text fill="#000000" font-family="sans-serif" font-size="14" font-style="italic" lengthAdjust="spacing" textLength="62" x="1151.5" y="504.877">&#171;domain&#187;</text><text fill="#000000" font-family="sans-serif" font-size="14" lengthAdjust="spacing" textLength="158" x="1103.5" y="520.5176">:JobApplicationStateDTO</text><line style="stroke:#181818;stroke-width:1.0;stroke-dasharray:2.0,2.0;" x1="857.5" x2="899.5" y1="567.0078" y2="567.0078"/><line style="stroke:#181818;stroke-width:1.0;stroke-dasharray:2.0,2.0;" x1="899.5" x2="899.5" y1="567.0078" y2="580.0078"/><line style="stroke:#181818;stroke-width:1.0;stroke-dasharray:2.0,2.0;" x1="852.5" x2="899.5" y1="580.0078" y2="580.0078"/><polygon fill="#181818" points="862.5,576.0078,852.5,580.0078,862.5,584.0078,858.5,580.0078" style="stroke:#181818;stroke-width:1.0;"/><text fill="#000000" font-family="sans-serif" font-size="13" font-weight="bold" lengthAdjust="spacing" textLength="14" x="864.5" y="562.2529">13</text><text fill="#000000" font-family="sans-serif" font-size="13" lengthAdjust="spacing" textLength="159" x="882.5" y="562.2529">jobApplicationStateDTOList</text><polygon fill="#181818" points="513,599.5313,503,603.5313,513,607.5313,509,603.5313" style="stroke:#181818;stroke-width:1.0;"/><line style="stroke:#181818;stroke-width:1.0;stroke-dasharray:2.0,2.0;" x1="507" x2="846.5" y1="603.5313" y2="603.5313"/><text fill="#000000" font-family="sans-serif" font-size="13" font-weight="bold" lengthAdjust="spacing" textLength="14" x="519" y="598.7764">14</text><text fill="#000000" font-family="sans-serif" font-size="13" lengthAdjust="spacing" textLength="159" x="537" y="598.7764">jobApplicationStateDTOList</text><polygon fill="#181818" points="221,628.0547,211,632.0547,221,636.0547,217,632.0547" style="stroke:#181818;stroke-width:1.0;"/><line style="stroke:#181818;stroke-width:1.0;stroke-dasharray:2.0,2.0;" x1="215" x2="496" y1="632.0547" y2="632.0547"/><text fill="#000000" font-family="sans-serif" font-size="13" font-weight="bold" lengthAdjust="spacing" textLength="14" x="227" y="627.2998">15</text><text fill="#000000" font-family="sans-serif" font-size="13" lengthAdjust="spacing" textLength="159" x="245" y="627.2998">jobApplicationStateDTOList</text><polygon fill="#181818" points="1306.5,656.5781,1316.5,660.5781,1306.5,664.5781,1310.5,660.5781" style="stroke:#181818;stroke-width:1.0;"/><line style="stroke:#181818;stroke-width:1.0;" x1="210" x2="1312.5" y1="660.5781" y2="660.5781"/><text fill="#000000" font-family="sans-serif" font-size="13" font-weight="bold" lengthAdjust="spacing" textLength="14" x="217" y="655.8232">16</text><text fill="#000000" font-family="sans-serif" font-size="13" lengthAdjust="spacing" textLength="215" x="235" y="655.8232">serialize(jobApplicationStateDTOList)</text><polygon fill="#181818" points="221,685.1016,211,689.1016,221,693.1016,217,689.1016" style="stroke:#181818;stroke-width:1.0;"/><line style="stroke:#181818;stroke-width:1.0;stroke-dasharray:2.0,2.0;" x1="215" x2="1322.5" y1="689.1016" y2="689.1016"/><text fill="#000000" font-family="sans-serif" font-size="13" font-weight="bold" lengthAdjust="spacing" textLength="14" x="227" y="684.3467">17</text><text fill="#000000" font-family="sans-serif" font-size="13" lengthAdjust="spacing" textLength="133" x="245" y="684.3467">listAllApplicationsResp</text><line style="stroke:#181818;stroke-width:1.0;stroke-dasharray:2.0,2.0;" x1="210" x2="252" y1="722.625" y2="722.625"/><line style="stroke:#181818;stroke-width:1.0;stroke-dasharray:2.0,2.0;" x1="252" x2="252" y1="722.625" y2="735.625"/><line style="stroke:#181818;stroke-width:1.0;stroke-dasharray:2.0,2.0;" x1="205" x2="252" y1="735.625" y2="735.625"/><polygon fill="#181818" points="215,731.625,205,735.625,215,739.625,211,735.625" style="stroke:#181818;stroke-width:1.0;"/><text fill="#000000" font-family="sans-serif" font-size="13" font-weight="bold" lengthAdjust="spacing" textLength="14" x="217" y="717.8701">18</text><text fill="#000000" font-family="sans-serif" font-size="13" lengthAdjust="spacing" textLength="250" x="235" y="717.8701">listAllApplicationsResp(version, code, data)</text><polygon fill="#181818" points="11,755.1484,1,759.1484,11,763.1484,7,759.1484" style="stroke:#181818;stroke-width:1.0;"/><line style="stroke:#181818;stroke-width:1.0;stroke-dasharray:2.0,2.0;" x1="5" x2="204" y1="759.1484" y2="759.1484"/><text fill="#000000" font-family="sans-serif" font-size="13" font-weight="bold" lengthAdjust="spacing" textLength="14" x="17" y="754.3936">19</text><text fill="#000000" font-family="sans-serif" font-size="13" lengthAdjust="spacing" textLength="163" x="35" y="754.3936">(tcp) listAllApplicationsResp</text><!--SRC=[bLPBRjim4Dtp50DlB0MnaROx8J3WEYZQ8cW09pa08z4I4ufKI3gfSvqUfHVhKDI7bcMdiHScEJDltdp8iNdYigAQbb0ggT92gvA1rLj6J2UfQFf4StPhTuA1PgcbCXUXWYbefbwvp653XM64qArLSbi-C4s8vHRD9lUtyENYuW9ci3ImeZBZ6RNi77x0AvKMh0B1ZGKg19Gxe5KbU4ejLz80AeCj6DTWBDf0n6KgjfdpXyVW7O7Qj5RIcdW-WLlsl6KoPN35QOuqoRJW6OEDKlP1_IRuGVQMfxno12R9Id0cxNVq9fYU03M8e5yG-VBoTcSiAnSBaYffjHAeVOribq8i0w9hzhpoyXPWTRU-HlCW6iJOzxhSsa9f_bPBdKEUijfsJ81OngyGPm3qKpq4P4AaCUEJjYxBLtStjJ7-ec6cIieT-UafmpMhbE5MwLrjscyHGNUR0-_8ZrF1tzYzvQ9bt9-4xZ_WVRaUUYLajcXhca1aqogkc-wmZ8GqUhD5fp-k6Q7GuFeSKfLXEsDJqnWlG6hvY-jLRuvu7U1eNHF0ArDW-pbebjrZeQ9upZ1g4SNEkWCSCtSAO-UpCDuQp6bcx1sm87hNmAEXHpLSN2jtS4xR7TGBdpeVt8RBRBzOvkkkUmGwh23CZimKslLi4JIKnmn1qdOLEviEgBSXKoVezsrsFCN7VNhkUdk385r3BA5K1IWkXjPUt5UXDqmWPxOZRNxLRzStfJ4xDnMJ-AP5ZzqozZWdeXd4qtXCcZVnPjDxQlLFXDFpnKkVGAgPo-iX2PIsPxWCtJPfIBbFGw0Ok6rE_HU0uUlk4eax4jGQx-zXZPj62Q_36gsMwn4IJItgGWwwtjdi5oySECTe72dHHyYO4IOaI47ekMzDgwaq6wNBEuMvY_OXVGVrTOv7Rz6Wk6TdGNb983js7zgHq6Gp2A5r4O3uiVSEn1W6gT-DzitzVmxrk-EQIIhSQPuNrdMMsURCsBz_LE9sd-POP8UbmUugbW7-Ez3SNGo0ptEOk561mqNc4-YcXXUxyZXaGeAXqC-d14oxZOup7Wo5thn6xRT1-ACJns2NxASkX6ePlWjoP6uDYk8c5u7BsGnQk1DJqp73ppy0]--></g></svg>