<?xml version="1.0" encoding="us-ascii" standalone="no"?><svg xmlns="http://www.w3.org/2000/svg" xmlns:xlink="http://www.w3.org/1999/xlink" contentStyleType="text/css" height="331px" preserveAspectRatio="none" style="width:930px;height:331px;background:#FFFFFF;" version="1.1" viewBox="0 0 930 331" width="930px" zoomAndPan="magnify"><defs/><g><text fill="#000000" font-family="sans-serif" font-size="14" font-weight="bold" lengthAdjust="spacing" textLength="902" x="10" y="27.6738">"US 3000 - As Candidate, I want to list all my applications and their state (including the number of applicants)." Sequence Diagram</text><rect fill="#FFFFFF" height="106.0938" style="stroke:#181818;stroke-width:1.0;" width="10" x="180.75" y="127.2813"/><rect fill="#FFFFFF" height="85.5703" style="stroke:#181818;stroke-width:1.0;" width="10" x="515.75" y="147.8047"/><rect fill="#FFFFFF" height="28.5234" style="stroke:#181818;stroke-width:1.0;" width="10" x="723.75" y="176.3281"/><line style="stroke:#181818;stroke-width:0.5;stroke-dasharray:5.0,5.0;" x1="185.25" x2="185.25" y1="117.2813" y2="251.375"/><line style="stroke:#181818;stroke-width:0.5;stroke-dasharray:5.0,5.0;" x1="520.75" x2="520.75" y1="117.2813" y2="251.375"/><line style="stroke:#181818;stroke-width:0.5;stroke-dasharray:5.0,5.0;" x1="728.75" x2="728.75" y1="117.2813" y2="251.375"/><text fill="#000000" font-family="sans-serif" font-size="14" lengthAdjust="spacing" textLength="65" x="150.25" y="114.3145">Candidate</text><ellipse cx="185.75" cy="50.1406" fill="#E3E3E3" rx="8" ry="8" style="stroke:#181818;stroke-width:0.5;"/><path d="M185.75,58.1406 L185.75,85.1406 M172.75,66.1406 L198.75,66.1406 M185.75,85.1406 L172.75,100.1406 M185.75,85.1406 L198.75,100.1406 " fill="none" style="stroke:#181818;stroke-width:0.5;"/><text fill="#000000" font-family="sans-serif" font-size="14" lengthAdjust="spacing" textLength="65" x="150.25" y="263.0488">Candidate</text><ellipse cx="185.75" cy="274.5156" fill="#E3E3E3" rx="8" ry="8" style="stroke:#181818;stroke-width:0.5;"/><path d="M185.75,282.5156 L185.75,309.5156 M172.75,290.5156 L198.75,290.5156 M185.75,309.5156 L172.75,324.5156 M185.75,309.5156 L198.75,324.5156 " fill="none" style="stroke:#181818;stroke-width:0.5;"/><rect fill="#E3E3E3" height="45.2813" rx="2.5" ry="2.5" style="stroke:#181818;stroke-width:0.5;" width="108" x="466.75" y="71"/><text fill="#000000" font-family="sans-serif" font-size="14" font-style="italic" lengthAdjust="spacing" textLength="62" x="489.75" y="90.6738">&#171;System&#187;</text><text fill="#000000" font-family="sans-serif" font-size="14" lengthAdjust="spacing" textLength="94" x="473.75" y="106.3145">:CandidateApp</text><rect fill="#E3E3E3" height="45.2813" rx="2.5" ry="2.5" style="stroke:#181818;stroke-width:0.5;" width="108" x="466.75" y="250.375"/><text fill="#000000" font-family="sans-serif" font-size="14" font-style="italic" lengthAdjust="spacing" textLength="62" x="489.75" y="270.0488">&#171;System&#187;</text><text fill="#000000" font-family="sans-serif" font-size="14" lengthAdjust="spacing" textLength="94" x="473.75" y="285.6895">:CandidateApp</text><rect fill="#E3E3E3" height="45.2813" rx="2.5" ry="2.5" style="stroke:#181818;stroke-width:0.5;" width="88" x="684.75" y="71"/><text fill="#000000" font-family="sans-serif" font-size="14" font-style="italic" lengthAdjust="spacing" textLength="62" x="697.75" y="90.6738">&#171;System&#187;</text><text fill="#000000" font-family="sans-serif" font-size="14" lengthAdjust="spacing" textLength="74" x="691.75" y="106.3145">:TCPServer</text><rect fill="#E3E3E3" height="45.2813" rx="2.5" ry="2.5" style="stroke:#181818;stroke-width:0.5;" width="88" x="684.75" y="250.375"/><text fill="#000000" font-family="sans-serif" font-size="14" font-style="italic" lengthAdjust="spacing" textLength="62" x="697.75" y="270.0488">&#171;System&#187;</text><text fill="#000000" font-family="sans-serif" font-size="14" lengthAdjust="spacing" textLength="74" x="691.75" y="285.6895">:TCPServer</text><rect fill="#FFFFFF" height="106.0938" style="stroke:#181818;stroke-width:1.0;" width="10" x="180.75" y="127.2813"/><rect fill="#FFFFFF" height="85.5703" style="stroke:#181818;stroke-width:1.0;" width="10" x="515.75" y="147.8047"/><rect fill="#FFFFFF" height="28.5234" style="stroke:#181818;stroke-width:1.0;" width="10" x="723.75" y="176.3281"/><polygon fill="#181818" points="503.75,143.8047,513.75,147.8047,503.75,151.8047,507.75,147.8047" style="stroke:#181818;stroke-width:1.0;"/><line style="stroke:#181818;stroke-width:1.0;" x1="190.75" x2="509.75" y1="147.8047" y2="147.8047"/><text fill="#000000" font-family="sans-serif" font-size="13" font-weight="bold" lengthAdjust="spacing" textLength="7" x="197.75" y="143.0498">1</text><text fill="#000000" font-family="sans-serif" font-size="13" lengthAdjust="spacing" textLength="176" x="208.75" y="143.0498">asks to list all the applications</text><polygon fill="#181818" points="711.75,172.3281,721.75,176.3281,711.75,180.3281,715.75,176.3281" style="stroke:#181818;stroke-width:1.0;"/><line style="stroke:#181818;stroke-width:1.0;" x1="525.75" x2="717.75" y1="176.3281" y2="176.3281"/><text fill="#000000" font-family="sans-serif" font-size="13" font-weight="bold" lengthAdjust="spacing" textLength="7" x="532.75" y="171.5732">2</text><text fill="#000000" font-family="sans-serif" font-size="13" lengthAdjust="spacing" textLength="156" x="543.75" y="171.5732">(tcp) listAllApplicationsReq</text><polygon fill="#181818" points="536.75,200.8516,526.75,204.8516,536.75,208.8516,532.75,204.8516" style="stroke:#181818;stroke-width:1.0;"/><line style="stroke:#181818;stroke-width:1.0;stroke-dasharray:2.0,2.0;" x1="530.75" x2="727.75" y1="204.8516" y2="204.8516"/><text fill="#000000" font-family="sans-serif" font-size="13" font-weight="bold" lengthAdjust="spacing" textLength="7" x="542.75" y="200.0967">3</text><text fill="#000000" font-family="sans-serif" font-size="13" lengthAdjust="spacing" textLength="163" x="553.75" y="200.0967">(tcp) listAllApplicationsResp</text><polygon fill="#181818" points="196.75,229.375,186.75,233.375,196.75,237.375,192.75,233.375" style="stroke:#181818;stroke-width:1.0;"/><line style="stroke:#181818;stroke-width:1.0;stroke-dasharray:2.0,2.0;" x1="190.75" x2="519.75" y1="233.375" y2="233.375"/><text fill="#000000" font-family="sans-serif" font-size="13" font-weight="bold" lengthAdjust="spacing" textLength="7" x="202.75" y="228.6201">4</text><text fill="#000000" font-family="sans-serif" font-size="13" lengthAdjust="spacing" textLength="290" x="213.75" y="228.6201">shows list of all the jobApplications and their state</text><!--SRC=[VLBBReCm4BpxArPScaYbYjHR526XzD9RLTeFs9WDk34siPUa-VkQa8A9rFe4dft73lY3CYqwRA2nnihQsOQ0NKV2ZqYBye0L5NpH18uaewbqFE1hBErPcGhsg3q9WHrRqpKxSaAmua1BFWjuNgrMa4BkOOkcL2KoFS8hdD4mi0MjF0Dg3Sq5i6sraiZA6WzX6BWcvS1puC126QcxilSBrp0OWTt_iWpxvLC21HqxCfBWHM4LOeg7MfK4UsjvPxy5IhOEaZ5A0XY22H5MOYLLswTArYESj-qm4Lt0PbDSF5EJPNUqZ-rRGUv4xieP7kFftbsT-cM28uIpXJIRQwy3y-1dnVJRnis8WTkVII_I6D6PS32w1Lh3WcMxl1haMkUHz3iT8_L9Vc1EmF2UfbbiyQ-kdsALTA_xH-A-cv3Mr_RiXphwhtrhvClkydz-bscDo6xMaeW1yGC0]--></g></svg>