<?xml version="1.0" encoding="us-ascii" standalone="no"?><svg xmlns="http://www.w3.org/2000/svg" xmlns:xlink="http://www.w3.org/1999/xlink" contentStyleType="text/css" height="753px" preserveAspectRatio="none" style="width:2884px;height:753px;background:#FFFFFF;" version="1.1" viewBox="0 0 2884 753" width="2884px" zoomAndPan="magnify"><defs/><g><!--cluster Candidate Aggregate--><g id="cluster_Candidate Aggregate"><path d="M8.5,264.0137 L157.5,264.0137 A3.75,3.75 0 0 1 160,266.5137 L167,288.6348 L370.5,288.6348 A2.5,2.5 0 0 1 373,291.1348 L373,562.5137 A2.5,2.5 0 0 1 370.5,565.0137 L8.5,565.0137 A2.5,2.5 0 0 1 6,562.5137 L6,266.5137 A2.5,2.5 0 0 1 8.5,264.0137 " fill="none" style="stroke:#000000;stroke-width:1.5;"/><line style="stroke:#000000;stroke-width:1.5;" x1="6" x2="167" y1="288.6348" y2="288.6348"/><text fill="#000000" font-family="sans-serif" font-size="14" font-weight="bold" lengthAdjust="spacing" textLength="148" x="10" y="281.1211">Candidate Aggregate</text></g><!--cluster JobApplication Aggregate--><g id="cluster_JobApplication Aggregate"><path d="M522.5,264.0137 L704.5,264.0137 A3.75,3.75 0 0 1 707,266.5137 L714,288.6348 L991.5,288.6348 A2.5,2.5 0 0 1 994,291.1348 L994,561.0137 A2.5,2.5 0 0 1 991.5,563.5137 L522.5,563.5137 A2.5,2.5 0 0 1 520,561.0137 L520,266.5137 A2.5,2.5 0 0 1 522.5,264.0137 " fill="none" style="stroke:#000000;stroke-width:1.5;"/><line style="stroke:#000000;stroke-width:1.5;" x1="520" x2="714" y1="288.6348" y2="288.6348"/><text fill="#000000" font-family="sans-serif" font-size="14" font-weight="bold" lengthAdjust="spacing" textLength="181" x="524" y="281.1211">JobApplication Aggregate</text></g><!--cluster Job Opening Aggregate--><g id="cluster_Job Opening Aggregate"><path d="M1020.5,6.0137 L1188.5,6.0137 A3.75,3.75 0 0 1 1191,8.5137 L1198,30.6348 L2008.5,30.6348 A2.5,2.5 0 0 1 2011,33.1348 L2011,743.5137 A2.5,2.5 0 0 1 2008.5,746.0137 L1020.5,746.0137 A2.5,2.5 0 0 1 1018,743.5137 L1018,8.5137 A2.5,2.5 0 0 1 1020.5,6.0137 " fill="none" style="stroke:#000000;stroke-width:1.5;"/><line style="stroke:#000000;stroke-width:1.5;" x1="1018" x2="1198" y1="30.6348" y2="30.6348"/><text fill="#000000" font-family="sans-serif" font-size="14" font-weight="bold" lengthAdjust="spacing" textLength="167" x="1022" y="23.1211">Job Opening Aggregate</text></g><!--cluster Plugin Aggregate--><g id="cluster_Plugin Aggregate"><path d="M2037.5,43.0137 L2159.5,43.0137 A3.75,3.75 0 0 1 2162,45.5137 L2169,67.6348 L2874.5,67.6348 A2.5,2.5 0 0 1 2877,70.1348 L2877,396.5137 A2.5,2.5 0 0 1 2874.5,399.0137 L2037.5,399.0137 A2.5,2.5 0 0 1 2035,396.5137 L2035,45.5137 A2.5,2.5 0 0 1 2037.5,43.0137 " fill="none" style="stroke:#000000;stroke-width:1.5;"/><line style="stroke:#000000;stroke-width:1.5;" x1="2035" x2="2169" y1="67.6348" y2="67.6348"/><text fill="#000000" font-family="sans-serif" font-size="14" font-weight="bold" lengthAdjust="spacing" textLength="121" x="2039" y="60.1211">Plugin Aggregate</text></g><!--class Candidate--><g id="elem_Candidate"><rect codeLine="4" fill="#F1F1F1" height="81.8633" id="Candidate" rx="2.5" ry="2.5" style="stroke:#181818;stroke-width:0.5;" width="97" x="259.5" y="301.0137"/><ellipse cx="274.5" cy="333.9453" fill="#ADD1B2" rx="11" ry="11" style="stroke:#181818;stroke-width:1.0;"/><path d="M277.2656,329.8203 Q277.4219,329.6016 277.6094,329.4922 Q277.7969,329.3828 278.0156,329.3828 Q278.3906,329.3828 278.625,329.6484 Q278.8594,329.8984 278.8594,330.5078 L278.8594,331.9609 Q278.8594,332.5703 278.625,332.8359 Q278.3906,333.1016 278.0156,333.1016 Q277.6719,333.1016 277.4688,332.8984 Q277.2656,332.7109 277.1563,332.1953 Q277.1094,331.8359 276.9219,331.6484 Q276.5938,331.2734 275.9844,331.0547 Q275.375,330.8359 274.75,330.8359 Q273.9844,330.8359 273.3438,331.1641 Q272.7188,331.4922 272.2188,332.2422 Q271.7344,332.9922 271.7344,334.0234 L271.7344,335.1172 Q271.7344,336.3516 272.625,337.1797 Q273.5156,337.9922 275.1094,337.9922 Q276.0469,337.9922 276.7031,337.7422 Q277.0938,337.5859 277.5156,337.1484 Q277.7813,336.8828 277.9219,336.8047 Q278.0781,336.7266 278.2813,336.7266 Q278.6094,336.7266 278.8594,336.9922 Q279.125,337.2422 279.125,337.5859 Q279.125,337.9297 278.7813,338.3359 Q278.2813,338.9141 277.4844,339.2422 Q276.4063,339.6953 275.1094,339.6953 Q273.5938,339.6953 272.3906,339.0703 Q271.4063,338.5703 270.7188,337.5078 Q270.0313,336.4297 270.0313,335.1484 L270.0313,333.9922 Q270.0313,332.6641 270.6406,331.5234 Q271.2656,330.3672 272.3594,329.7578 Q273.4531,329.1328 274.6875,329.1328 Q275.4219,329.1328 276.0625,329.3047 Q276.7188,329.4609 277.2656,329.8203 Z " fill="#000000"/><text fill="#000000" font-family="sans-serif" font-size="14" lengthAdjust="spacing" textLength="41" x="300.5" y="321.1211">&#171;root&#187;</text><text fill="#000000" font-family="sans-serif" font-size="14" lengthAdjust="spacing" textLength="50" x="296" y="339.7422">&#171;entity&#187;</text><text fill="#000000" font-family="sans-serif" font-size="14" lengthAdjust="spacing" textLength="65" x="288.5" y="358.3633">Candidate</text><line style="stroke:#181818;stroke-width:0.5;" x1="260.5" x2="355.5" y1="366.877" y2="366.877"/><line style="stroke:#181818;stroke-width:0.5;" x1="260.5" x2="355.5" y1="374.877" y2="374.877"/></g><g id="elem_EmailCandidate"><path d="M181.5,493.0137 L181.5,502.5137 L146.13,506.5137 L181.5,510.5137 L181.5,520.3047 A0,0 0 0 0 181.5,520.3047 L250.5,520.3047 A0,0 0 0 0 250.5,520.3047 L250.5,503.0137 L240.5,493.0137 L181.5,493.0137 A0,0 0 0 0 181.5,493.0137 " fill="#FEFFDD" style="stroke:#181818;stroke-width:0.5;"/><path d="M240.5,493.0137 L240.5,503.0137 L250.5,503.0137 L240.5,493.0137 " fill="#FEFFDD" style="stroke:#181818;stroke-width:0.5;"/><text fill="#000000" font-family="sans-serif" font-size="13" lengthAdjust="spacing" textLength="48" x="187.5" y="512.042">Identifire</text></g><!--class Name--><g id="elem_Name"><rect codeLine="12" fill="#F1F1F1" height="85.2422" id="Name" rx="2.5" ry="2.5" style="stroke:#181818;stroke-width:0.5;" width="71" x="285.5" y="464.0137"/><ellipse cx="301.85" cy="480.0137" fill="#ADD1B2" rx="11" ry="11" style="stroke:#181818;stroke-width:1.0;"/><path d="M304.6156,475.8887 Q304.7719,475.6699 304.9594,475.5605 Q305.1469,475.4512 305.3656,475.4512 Q305.7406,475.4512 305.975,475.7168 Q306.2094,475.9668 306.2094,476.5762 L306.2094,478.0293 Q306.2094,478.6387 305.975,478.9043 Q305.7406,479.1699 305.3656,479.1699 Q305.0219,479.1699 304.8188,478.9668 Q304.6156,478.7793 304.5063,478.2637 Q304.4594,477.9043 304.2719,477.7168 Q303.9438,477.3418 303.3344,477.123 Q302.725,476.9043 302.1,476.9043 Q301.3344,476.9043 300.6938,477.2324 Q300.0688,477.5605 299.5688,478.3105 Q299.0844,479.0605 299.0844,480.0918 L299.0844,481.1855 Q299.0844,482.4199 299.975,483.248 Q300.8656,484.0605 302.4594,484.0605 Q303.3969,484.0605 304.0531,483.8105 Q304.4438,483.6543 304.8656,483.2168 Q305.1313,482.9512 305.2719,482.873 Q305.4281,482.7949 305.6313,482.7949 Q305.9594,482.7949 306.2094,483.0605 Q306.475,483.3105 306.475,483.6543 Q306.475,483.998 306.1313,484.4043 Q305.6313,484.9824 304.8344,485.3105 Q303.7563,485.7637 302.4594,485.7637 Q300.9438,485.7637 299.7406,485.1387 Q298.7563,484.6387 298.0688,483.5762 Q297.3813,482.498 297.3813,481.2168 L297.3813,480.0605 Q297.3813,478.7324 297.9906,477.5918 Q298.6156,476.4355 299.7094,475.8262 Q300.8031,475.2012 302.0375,475.2012 Q302.7719,475.2012 303.4125,475.373 Q304.0688,475.5293 304.6156,475.8887 Z " fill="#000000"/><text fill="#000000" font-family="sans-serif" font-size="14" lengthAdjust="spacing" textLength="36" x="316.15" y="485.8105">Name</text><line style="stroke:#181818;stroke-width:0.5;" x1="286.5" x2="355.5" y1="496.0137" y2="496.0137"/><text fill="#000000" font-family="sans-serif" font-size="14" lengthAdjust="spacing" textLength="59" x="291.5" y="515.1211">firstName</text><text fill="#000000" font-family="sans-serif" font-size="14" lengthAdjust="spacing" textLength="58" x="291.5" y="533.7422">lastName</text><line style="stroke:#181818;stroke-width:0.5;" x1="286.5" x2="355.5" y1="541.2559" y2="541.2559"/></g><!--class PhoneNumber--><g id="elem_PhoneNumber"><rect codeLine="17" fill="#F1F1F1" height="81.8633" id="PhoneNumber" rx="2.5" ry="2.5" style="stroke:#181818;stroke-width:0.5;" width="124" x="78" y="301.0137"/><ellipse cx="93" cy="324.6348" fill="#ADD1B2" rx="11" ry="11" style="stroke:#181818;stroke-width:1.0;"/><path d="M95.7656,320.5098 Q95.9219,320.291 96.1094,320.1816 Q96.2969,320.0723 96.5156,320.0723 Q96.8906,320.0723 97.125,320.3379 Q97.3594,320.5879 97.3594,321.1973 L97.3594,322.6504 Q97.3594,323.2598 97.125,323.5254 Q96.8906,323.791 96.5156,323.791 Q96.1719,323.791 95.9688,323.5879 Q95.7656,323.4004 95.6563,322.8848 Q95.6094,322.5254 95.4219,322.3379 Q95.0938,321.9629 94.4844,321.7441 Q93.875,321.5254 93.25,321.5254 Q92.4844,321.5254 91.8438,321.8535 Q91.2188,322.1816 90.7188,322.9316 Q90.2344,323.6816 90.2344,324.7129 L90.2344,325.8066 Q90.2344,327.041 91.125,327.8691 Q92.0156,328.6816 93.6094,328.6816 Q94.5469,328.6816 95.2031,328.4316 Q95.5938,328.2754 96.0156,327.8379 Q96.2813,327.5723 96.4219,327.4941 Q96.5781,327.416 96.7813,327.416 Q97.1094,327.416 97.3594,327.6816 Q97.625,327.9316 97.625,328.2754 Q97.625,328.6191 97.2813,329.0254 Q96.7813,329.6035 95.9844,329.9316 Q94.9063,330.3848 93.6094,330.3848 Q92.0938,330.3848 90.8906,329.7598 Q89.9063,329.2598 89.2188,328.1973 Q88.5313,327.1191 88.5313,325.8379 L88.5313,324.6816 Q88.5313,323.3535 89.1406,322.2129 Q89.7656,321.0566 90.8594,320.4473 Q91.9531,319.8223 93.1875,319.8223 Q93.9219,319.8223 94.5625,319.9941 Q95.2188,320.1504 95.7656,320.5098 Z " fill="#000000"/><text fill="#000000" font-family="sans-serif" font-size="14" lengthAdjust="spacing" textLength="92" x="107" y="321.1211">&#171;value object&#187;</text><text fill="#000000" font-family="sans-serif" font-size="14" lengthAdjust="spacing" textLength="90" x="108" y="339.7422">PhoneNumber</text><line style="stroke:#181818;stroke-width:0.5;" x1="79" x2="201" y1="348.2559" y2="348.2559"/><text fill="#000000" font-family="sans-serif" font-size="14" lengthAdjust="spacing" textLength="89" x="84" y="367.3633">phoneNumber</text><line style="stroke:#181818;stroke-width:0.5;" x1="79" x2="201" y1="374.877" y2="374.877"/></g><!--class EMail--><g id="elem_EMail"><rect codeLine="21" fill="#F1F1F1" height="81.8633" id="EMail" rx="2.5" ry="2.5" style="stroke:#181818;stroke-width:0.5;" width="124" x="22" y="465.5137"/><ellipse cx="37" cy="489.1348" fill="#ADD1B2" rx="11" ry="11" style="stroke:#181818;stroke-width:1.0;"/><path d="M39.7656,485.0098 Q39.9219,484.791 40.1094,484.6816 Q40.2969,484.5723 40.5156,484.5723 Q40.8906,484.5723 41.125,484.8379 Q41.3594,485.0879 41.3594,485.6973 L41.3594,487.1504 Q41.3594,487.7598 41.125,488.0254 Q40.8906,488.291 40.5156,488.291 Q40.1719,488.291 39.9688,488.0879 Q39.7656,487.9004 39.6563,487.3848 Q39.6094,487.0254 39.4219,486.8379 Q39.0938,486.4629 38.4844,486.2441 Q37.875,486.0254 37.25,486.0254 Q36.4844,486.0254 35.8438,486.3535 Q35.2188,486.6816 34.7188,487.4316 Q34.2344,488.1816 34.2344,489.2129 L34.2344,490.3066 Q34.2344,491.541 35.125,492.3691 Q36.0156,493.1816 37.6094,493.1816 Q38.5469,493.1816 39.2031,492.9316 Q39.5938,492.7754 40.0156,492.3379 Q40.2813,492.0723 40.4219,491.9941 Q40.5781,491.916 40.7813,491.916 Q41.1094,491.916 41.3594,492.1816 Q41.625,492.4316 41.625,492.7754 Q41.625,493.1191 41.2813,493.5254 Q40.7813,494.1035 39.9844,494.4316 Q38.9063,494.8848 37.6094,494.8848 Q36.0938,494.8848 34.8906,494.2598 Q33.9063,493.7598 33.2188,492.6973 Q32.5313,491.6191 32.5313,490.3379 L32.5313,489.1816 Q32.5313,487.8535 33.1406,486.7129 Q33.7656,485.5566 34.8594,484.9473 Q35.9531,484.3223 37.1875,484.3223 Q37.9219,484.3223 38.5625,484.4941 Q39.2188,484.6504 39.7656,485.0098 Z " fill="#000000"/><text fill="#000000" font-family="sans-serif" font-size="14" lengthAdjust="spacing" textLength="92" x="51" y="485.6211">&#171;value object&#187;</text><text fill="#000000" font-family="sans-serif" font-size="14" lengthAdjust="spacing" textLength="39" x="77.5" y="504.2422">E-Mail</text><line style="stroke:#181818;stroke-width:0.5;" x1="23" x2="145" y1="512.7559" y2="512.7559"/><text fill="#000000" font-family="sans-serif" font-size="14" lengthAdjust="spacing" textLength="33" x="28" y="531.8633">email</text><line style="stroke:#181818;stroke-width:0.5;" x1="23" x2="145" y1="539.377" y2="539.377"/></g><!--class JobApplication--><g id="elem_JobApplication"><rect codeLine="28" fill="#F1F1F1" height="81.8633" id="JobApplication" rx="2.5" ry="2.5" style="stroke:#181818;stroke-width:0.5;" width="123" x="695.5" y="301.0137"/><ellipse cx="710.5" cy="333.9453" fill="#ADD1B2" rx="11" ry="11" style="stroke:#181818;stroke-width:1.0;"/><path d="M713.2656,329.8203 Q713.4219,329.6016 713.6094,329.4922 Q713.7969,329.3828 714.0156,329.3828 Q714.3906,329.3828 714.625,329.6484 Q714.8594,329.8984 714.8594,330.5078 L714.8594,331.9609 Q714.8594,332.5703 714.625,332.8359 Q714.3906,333.1016 714.0156,333.1016 Q713.6719,333.1016 713.4688,332.8984 Q713.2656,332.7109 713.1563,332.1953 Q713.1094,331.8359 712.9219,331.6484 Q712.5938,331.2734 711.9844,331.0547 Q711.375,330.8359 710.75,330.8359 Q709.9844,330.8359 709.3438,331.1641 Q708.7188,331.4922 708.2188,332.2422 Q707.7344,332.9922 707.7344,334.0234 L707.7344,335.1172 Q707.7344,336.3516 708.625,337.1797 Q709.5156,337.9922 711.1094,337.9922 Q712.0469,337.9922 712.7031,337.7422 Q713.0938,337.5859 713.5156,337.1484 Q713.7813,336.8828 713.9219,336.8047 Q714.0781,336.7266 714.2813,336.7266 Q714.6094,336.7266 714.8594,336.9922 Q715.125,337.2422 715.125,337.5859 Q715.125,337.9297 714.7813,338.3359 Q714.2813,338.9141 713.4844,339.2422 Q712.4063,339.6953 711.1094,339.6953 Q709.5938,339.6953 708.3906,339.0703 Q707.4063,338.5703 706.7188,337.5078 Q706.0313,336.4297 706.0313,335.1484 L706.0313,333.9922 Q706.0313,332.6641 706.6406,331.5234 Q707.2656,330.3672 708.3594,329.7578 Q709.4531,329.1328 710.6875,329.1328 Q711.4219,329.1328 712.0625,329.3047 Q712.7188,329.4609 713.2656,329.8203 Z " fill="#000000"/><text fill="#000000" font-family="sans-serif" font-size="14" lengthAdjust="spacing" textLength="41" x="749.5" y="321.1211">&#171;root&#187;</text><text fill="#000000" font-family="sans-serif" font-size="14" lengthAdjust="spacing" textLength="50" x="745" y="339.7422">&#171;entity&#187;</text><text fill="#000000" font-family="sans-serif" font-size="14" lengthAdjust="spacing" textLength="91" x="724.5" y="358.3633">JobApplication</text><line style="stroke:#181818;stroke-width:0.5;" x1="696.5" x2="817.5" y1="366.877" y2="366.877"/><line style="stroke:#181818;stroke-width:0.5;" x1="696.5" x2="817.5" y1="374.877" y2="374.877"/></g><!--class Status--><g id="elem_Status"><rect codeLine="31" fill="#F1F1F1" height="63.2422" id="Status" rx="2.5" ry="2.5" style="stroke:#181818;stroke-width:0.5;" width="124" x="536" y="475.0137"/><ellipse cx="551" cy="498.6348" fill="#ADD1B2" rx="11" ry="11" style="stroke:#181818;stroke-width:1.0;"/><path d="M553.7656,494.5098 Q553.9219,494.291 554.1094,494.1816 Q554.2969,494.0723 554.5156,494.0723 Q554.8906,494.0723 555.125,494.3379 Q555.3594,494.5879 555.3594,495.1973 L555.3594,496.6504 Q555.3594,497.2598 555.125,497.5254 Q554.8906,497.791 554.5156,497.791 Q554.1719,497.791 553.9688,497.5879 Q553.7656,497.4004 553.6563,496.8848 Q553.6094,496.5254 553.4219,496.3379 Q553.0938,495.9629 552.4844,495.7441 Q551.875,495.5254 551.25,495.5254 Q550.4844,495.5254 549.8438,495.8535 Q549.2188,496.1816 548.7188,496.9316 Q548.2344,497.6816 548.2344,498.7129 L548.2344,499.8066 Q548.2344,501.041 549.125,501.8691 Q550.0156,502.6816 551.6094,502.6816 Q552.5469,502.6816 553.2031,502.4316 Q553.5938,502.2754 554.0156,501.8379 Q554.2813,501.5723 554.4219,501.4941 Q554.5781,501.416 554.7813,501.416 Q555.1094,501.416 555.3594,501.6816 Q555.625,501.9316 555.625,502.2754 Q555.625,502.6191 555.2813,503.0254 Q554.7813,503.6035 553.9844,503.9316 Q552.9063,504.3848 551.6094,504.3848 Q550.0938,504.3848 548.8906,503.7598 Q547.9063,503.2598 547.2188,502.1973 Q546.5313,501.1191 546.5313,499.8379 L546.5313,498.6816 Q546.5313,497.3535 547.1406,496.2129 Q547.7656,495.0566 548.8594,494.4473 Q549.9531,493.8223 551.1875,493.8223 Q551.9219,493.8223 552.5625,493.9941 Q553.2188,494.1504 553.7656,494.5098 Z " fill="#000000"/><text fill="#000000" font-family="sans-serif" font-size="14" lengthAdjust="spacing" textLength="92" x="565" y="495.1211">&#171;value object&#187;</text><text fill="#000000" font-family="sans-serif" font-size="14" lengthAdjust="spacing" textLength="40" x="591" y="513.7422">Status</text><line style="stroke:#181818;stroke-width:0.5;" x1="537" x2="659" y1="522.2559" y2="522.2559"/><line style="stroke:#181818;stroke-width:0.5;" x1="537" x2="659" y1="530.2559" y2="530.2559"/></g><!--class Curriculum--><g id="elem_Curriculum"><rect codeLine="36" fill="#F1F1F1" height="63.2422" id="Curriculum" rx="2.5" ry="2.5" style="stroke:#181818;stroke-width:0.5;" width="124" x="695" y="475.0137"/><ellipse cx="710" cy="498.6348" fill="#ADD1B2" rx="11" ry="11" style="stroke:#181818;stroke-width:1.0;"/><path d="M712.7656,494.5098 Q712.9219,494.291 713.1094,494.1816 Q713.2969,494.0723 713.5156,494.0723 Q713.8906,494.0723 714.125,494.3379 Q714.3594,494.5879 714.3594,495.1973 L714.3594,496.6504 Q714.3594,497.2598 714.125,497.5254 Q713.8906,497.791 713.5156,497.791 Q713.1719,497.791 712.9688,497.5879 Q712.7656,497.4004 712.6563,496.8848 Q712.6094,496.5254 712.4219,496.3379 Q712.0938,495.9629 711.4844,495.7441 Q710.875,495.5254 710.25,495.5254 Q709.4844,495.5254 708.8438,495.8535 Q708.2188,496.1816 707.7188,496.9316 Q707.2344,497.6816 707.2344,498.7129 L707.2344,499.8066 Q707.2344,501.041 708.125,501.8691 Q709.0156,502.6816 710.6094,502.6816 Q711.5469,502.6816 712.2031,502.4316 Q712.5938,502.2754 713.0156,501.8379 Q713.2813,501.5723 713.4219,501.4941 Q713.5781,501.416 713.7813,501.416 Q714.1094,501.416 714.3594,501.6816 Q714.625,501.9316 714.625,502.2754 Q714.625,502.6191 714.2813,503.0254 Q713.7813,503.6035 712.9844,503.9316 Q711.9063,504.3848 710.6094,504.3848 Q709.0938,504.3848 707.8906,503.7598 Q706.9063,503.2598 706.2188,502.1973 Q705.5313,501.1191 705.5313,499.8379 L705.5313,498.6816 Q705.5313,497.3535 706.1406,496.2129 Q706.7656,495.0566 707.8594,494.4473 Q708.9531,493.8223 710.1875,493.8223 Q710.9219,493.8223 711.5625,493.9941 Q712.2188,494.1504 712.7656,494.5098 Z " fill="#000000"/><text fill="#000000" font-family="sans-serif" font-size="14" lengthAdjust="spacing" textLength="92" x="724" y="495.1211">&#171;value object&#187;</text><text fill="#000000" font-family="sans-serif" font-size="14" lengthAdjust="spacing" textLength="68" x="736" y="513.7422">Curriculum</text><line style="stroke:#181818;stroke-width:0.5;" x1="696" x2="818" y1="522.2559" y2="522.2559"/><line style="stroke:#181818;stroke-width:0.5;" x1="696" x2="818" y1="530.2559" y2="530.2559"/></g><!--class Grade2--><g id="elem_Grade2"><rect codeLine="40" fill="#F1F1F1" height="81.8633" id="Grade2" rx="2.5" ry="2.5" style="stroke:#181818;stroke-width:0.5;" width="124" x="854" y="465.5137"/><ellipse cx="869" cy="498.4453" fill="#ADD1B2" rx="11" ry="11" style="stroke:#181818;stroke-width:1.0;"/><path d="M871.7656,494.3203 Q871.9219,494.1016 872.1094,493.9922 Q872.2969,493.8828 872.5156,493.8828 Q872.8906,493.8828 873.125,494.1484 Q873.3594,494.3984 873.3594,495.0078 L873.3594,496.4609 Q873.3594,497.0703 873.125,497.3359 Q872.8906,497.6016 872.5156,497.6016 Q872.1719,497.6016 871.9688,497.3984 Q871.7656,497.2109 871.6563,496.6953 Q871.6094,496.3359 871.4219,496.1484 Q871.0938,495.7734 870.4844,495.5547 Q869.875,495.3359 869.25,495.3359 Q868.4844,495.3359 867.8438,495.6641 Q867.2188,495.9922 866.7188,496.7422 Q866.2344,497.4922 866.2344,498.5234 L866.2344,499.6172 Q866.2344,500.8516 867.125,501.6797 Q868.0156,502.4922 869.6094,502.4922 Q870.5469,502.4922 871.2031,502.2422 Q871.5938,502.0859 872.0156,501.6484 Q872.2813,501.3828 872.4219,501.3047 Q872.5781,501.2266 872.7813,501.2266 Q873.1094,501.2266 873.3594,501.4922 Q873.625,501.7422 873.625,502.0859 Q873.625,502.4297 873.2813,502.8359 Q872.7813,503.4141 871.9844,503.7422 Q870.9063,504.1953 869.6094,504.1953 Q868.0938,504.1953 866.8906,503.5703 Q865.9063,503.0703 865.2188,502.0078 Q864.5313,500.9297 864.5313,499.6484 L864.5313,498.4922 Q864.5313,497.1641 865.1406,496.0234 Q865.7656,494.8672 866.8594,494.2578 Q867.9531,493.6328 869.1875,493.6328 Q869.9219,493.6328 870.5625,493.8047 Q871.2188,493.9609 871.7656,494.3203 Z " fill="#000000"/><text fill="#000000" font-family="sans-serif" font-size="14" lengthAdjust="spacing" textLength="92" x="883" y="485.6211">&#171;value object&#187;</text><text fill="#000000" font-family="sans-serif" font-size="14" lengthAdjust="spacing" textLength="80" x="889" y="504.2422">&#171;calculated&#187;</text><text fill="#000000" font-family="sans-serif" font-size="14" lengthAdjust="spacing" textLength="40" x="909" y="522.8633">Grade</text><line style="stroke:#181818;stroke-width:0.5;" x1="855" x2="977" y1="531.377" y2="531.377"/><line style="stroke:#181818;stroke-width:0.5;" x1="855" x2="977" y1="539.377" y2="539.377"/></g><!--class RecruitmentProcess--><g id="elem_RecruitmentProcess"><rect codeLine="50" fill="#F1F1F1" height="81.8633" id="RecruitmentProcess" rx="2.5" ry="2.5" style="stroke:#181818;stroke-width:0.5;" width="159" x="1076.5" y="465.5137"/><ellipse cx="1091.5" cy="489.1348" fill="#ADD1B2" rx="11" ry="11" style="stroke:#181818;stroke-width:1.0;"/><path d="M1094.2656,485.0098 Q1094.4219,484.791 1094.6094,484.6816 Q1094.7969,484.5723 1095.0156,484.5723 Q1095.3906,484.5723 1095.625,484.8379 Q1095.8594,485.0879 1095.8594,485.6973 L1095.8594,487.1504 Q1095.8594,487.7598 1095.625,488.0254 Q1095.3906,488.291 1095.0156,488.291 Q1094.6719,488.291 1094.4688,488.0879 Q1094.2656,487.9004 1094.1563,487.3848 Q1094.1094,487.0254 1093.9219,486.8379 Q1093.5938,486.4629 1092.9844,486.2441 Q1092.375,486.0254 1091.75,486.0254 Q1090.9844,486.0254 1090.3438,486.3535 Q1089.7188,486.6816 1089.2188,487.4316 Q1088.7344,488.1816 1088.7344,489.2129 L1088.7344,490.3066 Q1088.7344,491.541 1089.625,492.3691 Q1090.5156,493.1816 1092.1094,493.1816 Q1093.0469,493.1816 1093.7031,492.9316 Q1094.0938,492.7754 1094.5156,492.3379 Q1094.7813,492.0723 1094.9219,491.9941 Q1095.0781,491.916 1095.2813,491.916 Q1095.6094,491.916 1095.8594,492.1816 Q1096.125,492.4316 1096.125,492.7754 Q1096.125,493.1191 1095.7813,493.5254 Q1095.2813,494.1035 1094.4844,494.4316 Q1093.4063,494.8848 1092.1094,494.8848 Q1090.5938,494.8848 1089.3906,494.2598 Q1088.4063,493.7598 1087.7188,492.6973 Q1087.0313,491.6191 1087.0313,490.3379 L1087.0313,489.1816 Q1087.0313,487.8535 1087.6406,486.7129 Q1088.2656,485.5566 1089.3594,484.9473 Q1090.4531,484.3223 1091.6875,484.3223 Q1092.4219,484.3223 1093.0625,484.4941 Q1093.7188,484.6504 1094.2656,485.0098 Z " fill="#000000"/><text fill="#000000" font-family="sans-serif" font-size="14" lengthAdjust="spacing" textLength="50" x="1144" y="485.6211">&#171;entity&#187;</text><text fill="#000000" font-family="sans-serif" font-size="14" lengthAdjust="spacing" textLength="127" x="1105.5" y="504.2422">RecruitmentProcess</text><line style="stroke:#181818;stroke-width:0.5;" x1="1077.5" x2="1234.5" y1="512.7559" y2="512.7559"/><text fill="#000000" font-family="sans-serif" font-size="14" lengthAdjust="spacing" textLength="119" x="1082.5" y="531.8633">HasInterviewPhase</text><line style="stroke:#181818;stroke-width:0.5;" x1="1077.5" x2="1234.5" y1="539.377" y2="539.377"/></g><!--class Phase--><g id="elem_Phase"><rect codeLine="55" fill="#F1F1F1" height="100.4844" id="Phase" rx="2.5" ry="2.5" style="stroke:#181818;stroke-width:0.5;" width="82" x="1115" y="630.0137"/><ellipse cx="1130" cy="653.6348" fill="#ADD1B2" rx="11" ry="11" style="stroke:#181818;stroke-width:1.0;"/><path d="M1132.7656,649.5098 Q1132.9219,649.291 1133.1094,649.1816 Q1133.2969,649.0723 1133.5156,649.0723 Q1133.8906,649.0723 1134.125,649.3379 Q1134.3594,649.5879 1134.3594,650.1973 L1134.3594,651.6504 Q1134.3594,652.2598 1134.125,652.5254 Q1133.8906,652.791 1133.5156,652.791 Q1133.1719,652.791 1132.9688,652.5879 Q1132.7656,652.4004 1132.6563,651.8848 Q1132.6094,651.5254 1132.4219,651.3379 Q1132.0938,650.9629 1131.4844,650.7441 Q1130.875,650.5254 1130.25,650.5254 Q1129.4844,650.5254 1128.8438,650.8535 Q1128.2188,651.1816 1127.7188,651.9316 Q1127.2344,652.6816 1127.2344,653.7129 L1127.2344,654.8066 Q1127.2344,656.041 1128.125,656.8691 Q1129.0156,657.6816 1130.6094,657.6816 Q1131.5469,657.6816 1132.2031,657.4316 Q1132.5938,657.2754 1133.0156,656.8379 Q1133.2813,656.5723 1133.4219,656.4941 Q1133.5781,656.416 1133.7813,656.416 Q1134.1094,656.416 1134.3594,656.6816 Q1134.625,656.9316 1134.625,657.2754 Q1134.625,657.6191 1134.2813,658.0254 Q1133.7813,658.6035 1132.9844,658.9316 Q1131.9063,659.3848 1130.6094,659.3848 Q1129.0938,659.3848 1127.8906,658.7598 Q1126.9063,658.2598 1126.2188,657.1973 Q1125.5313,656.1191 1125.5313,654.8379 L1125.5313,653.6816 Q1125.5313,652.3535 1126.1406,651.2129 Q1126.7656,650.0566 1127.8594,649.4473 Q1128.9531,648.8223 1130.1875,648.8223 Q1130.9219,648.8223 1131.5625,648.9941 Q1132.2188,649.1504 1132.7656,649.5098 Z " fill="#000000"/><text fill="#000000" font-family="sans-serif" font-size="14" lengthAdjust="spacing" textLength="50" x="1144" y="650.1211">&#171;entity&#187;</text><text fill="#000000" font-family="sans-serif" font-size="14" lengthAdjust="spacing" textLength="40" x="1149" y="668.7422">Phase</text><line style="stroke:#181818;stroke-width:0.5;" x1="1116" x2="1196" y1="677.2559" y2="677.2559"/><text fill="#000000" font-family="sans-serif" font-size="14" lengthAdjust="spacing" textLength="65" x="1121" y="696.3633">beginDate</text><text fill="#000000" font-family="sans-serif" font-size="14" lengthAdjust="spacing" textLength="56" x="1121" y="714.9844">finalDate</text><line style="stroke:#181818;stroke-width:0.5;" x1="1116" x2="1196" y1="722.498" y2="722.498"/></g><!--class JobOpening--><g id="elem_JobOpening"><rect codeLine="61" fill="#F1F1F1" height="81.8633" id="JobOpening" rx="2.5" ry="2.5" style="stroke:#181818;stroke-width:0.5;" width="108" x="1456" y="301.0137"/><ellipse cx="1471" cy="333.9453" fill="#ADD1B2" rx="11" ry="11" style="stroke:#181818;stroke-width:1.0;"/><path d="M1473.7656,329.8203 Q1473.9219,329.6016 1474.1094,329.4922 Q1474.2969,329.3828 1474.5156,329.3828 Q1474.8906,329.3828 1475.125,329.6484 Q1475.3594,329.8984 1475.3594,330.5078 L1475.3594,331.9609 Q1475.3594,332.5703 1475.125,332.8359 Q1474.8906,333.1016 1474.5156,333.1016 Q1474.1719,333.1016 1473.9688,332.8984 Q1473.7656,332.7109 1473.6563,332.1953 Q1473.6094,331.8359 1473.4219,331.6484 Q1473.0938,331.2734 1472.4844,331.0547 Q1471.875,330.8359 1471.25,330.8359 Q1470.4844,330.8359 1469.8438,331.1641 Q1469.2188,331.4922 1468.7188,332.2422 Q1468.2344,332.9922 1468.2344,334.0234 L1468.2344,335.1172 Q1468.2344,336.3516 1469.125,337.1797 Q1470.0156,337.9922 1471.6094,337.9922 Q1472.5469,337.9922 1473.2031,337.7422 Q1473.5938,337.5859 1474.0156,337.1484 Q1474.2813,336.8828 1474.4219,336.8047 Q1474.5781,336.7266 1474.7813,336.7266 Q1475.1094,336.7266 1475.3594,336.9922 Q1475.625,337.2422 1475.625,337.5859 Q1475.625,337.9297 1475.2813,338.3359 Q1474.7813,338.9141 1473.9844,339.2422 Q1472.9063,339.6953 1471.6094,339.6953 Q1470.0938,339.6953 1468.8906,339.0703 Q1467.9063,338.5703 1467.2188,337.5078 Q1466.5313,336.4297 1466.5313,335.1484 L1466.5313,333.9922 Q1466.5313,332.6641 1467.1406,331.5234 Q1467.7656,330.3672 1468.8594,329.7578 Q1469.9531,329.1328 1471.1875,329.1328 Q1471.9219,329.1328 1472.5625,329.3047 Q1473.2188,329.4609 1473.7656,329.8203 Z " fill="#000000"/><text fill="#000000" font-family="sans-serif" font-size="14" lengthAdjust="spacing" textLength="41" x="1502.5" y="321.1211">&#171;root&#187;</text><text fill="#000000" font-family="sans-serif" font-size="14" lengthAdjust="spacing" textLength="50" x="1496" y="339.7422">&#171;entity&#187;</text><text fill="#000000" font-family="sans-serif" font-size="14" lengthAdjust="spacing" textLength="76" x="1485" y="358.3633">JobOpening</text><line style="stroke:#181818;stroke-width:0.5;" x1="1457" x2="1563" y1="366.877" y2="366.877"/><line style="stroke:#181818;stroke-width:0.5;" x1="1457" x2="1563" y1="374.877" y2="374.877"/></g><!--class SetupStatus--><g id="elem_SetupStatus"><rect codeLine="66" fill="#F1F1F1" height="63.2422" id="SetupStatus" rx="2.5" ry="2.5" style="stroke:#181818;stroke-width:0.5;" width="124" x="1271" y="475.0137"/><ellipse cx="1286" cy="498.6348" fill="#ADD1B2" rx="11" ry="11" style="stroke:#181818;stroke-width:1.0;"/><path d="M1288.7656,494.5098 Q1288.9219,494.291 1289.1094,494.1816 Q1289.2969,494.0723 1289.5156,494.0723 Q1289.8906,494.0723 1290.125,494.3379 Q1290.3594,494.5879 1290.3594,495.1973 L1290.3594,496.6504 Q1290.3594,497.2598 1290.125,497.5254 Q1289.8906,497.791 1289.5156,497.791 Q1289.1719,497.791 1288.9688,497.5879 Q1288.7656,497.4004 1288.6563,496.8848 Q1288.6094,496.5254 1288.4219,496.3379 Q1288.0938,495.9629 1287.4844,495.7441 Q1286.875,495.5254 1286.25,495.5254 Q1285.4844,495.5254 1284.8438,495.8535 Q1284.2188,496.1816 1283.7188,496.9316 Q1283.2344,497.6816 1283.2344,498.7129 L1283.2344,499.8066 Q1283.2344,501.041 1284.125,501.8691 Q1285.0156,502.6816 1286.6094,502.6816 Q1287.5469,502.6816 1288.2031,502.4316 Q1288.5938,502.2754 1289.0156,501.8379 Q1289.2813,501.5723 1289.4219,501.4941 Q1289.5781,501.416 1289.7813,501.416 Q1290.1094,501.416 1290.3594,501.6816 Q1290.625,501.9316 1290.625,502.2754 Q1290.625,502.6191 1290.2813,503.0254 Q1289.7813,503.6035 1288.9844,503.9316 Q1287.9063,504.3848 1286.6094,504.3848 Q1285.0938,504.3848 1283.8906,503.7598 Q1282.9063,503.2598 1282.2188,502.1973 Q1281.5313,501.1191 1281.5313,499.8379 L1281.5313,498.6816 Q1281.5313,497.3535 1282.1406,496.2129 Q1282.7656,495.0566 1283.8594,494.4473 Q1284.9531,493.8223 1286.1875,493.8223 Q1286.9219,493.8223 1287.5625,493.9941 Q1288.2188,494.1504 1288.7656,494.5098 Z " fill="#000000"/><text fill="#000000" font-family="sans-serif" font-size="14" lengthAdjust="spacing" textLength="92" x="1300" y="495.1211">&#171;value object&#187;</text><text fill="#000000" font-family="sans-serif" font-size="14" lengthAdjust="spacing" textLength="77" x="1307.5" y="513.7422">SetupStatus</text><line style="stroke:#181818;stroke-width:0.5;" x1="1272" x2="1394" y1="522.2559" y2="522.2559"/><line style="stroke:#181818;stroke-width:0.5;" x1="1272" x2="1394" y1="530.2559" y2="530.2559"/></g><!--class RequirementsStatus--><g id="elem_RequirementsStatus"><rect codeLine="69" fill="#F1F1F1" height="63.2422" id="RequirementsStatus" rx="2.5" ry="2.5" style="stroke:#181818;stroke-width:0.5;" width="160" x="1430" y="475.0137"/><ellipse cx="1445" cy="498.6348" fill="#ADD1B2" rx="11" ry="11" style="stroke:#181818;stroke-width:1.0;"/><path d="M1447.7656,494.5098 Q1447.9219,494.291 1448.1094,494.1816 Q1448.2969,494.0723 1448.5156,494.0723 Q1448.8906,494.0723 1449.125,494.3379 Q1449.3594,494.5879 1449.3594,495.1973 L1449.3594,496.6504 Q1449.3594,497.2598 1449.125,497.5254 Q1448.8906,497.791 1448.5156,497.791 Q1448.1719,497.791 1447.9688,497.5879 Q1447.7656,497.4004 1447.6563,496.8848 Q1447.6094,496.5254 1447.4219,496.3379 Q1447.0938,495.9629 1446.4844,495.7441 Q1445.875,495.5254 1445.25,495.5254 Q1444.4844,495.5254 1443.8438,495.8535 Q1443.2188,496.1816 1442.7188,496.9316 Q1442.2344,497.6816 1442.2344,498.7129 L1442.2344,499.8066 Q1442.2344,501.041 1443.125,501.8691 Q1444.0156,502.6816 1445.6094,502.6816 Q1446.5469,502.6816 1447.2031,502.4316 Q1447.5938,502.2754 1448.0156,501.8379 Q1448.2813,501.5723 1448.4219,501.4941 Q1448.5781,501.416 1448.7813,501.416 Q1449.1094,501.416 1449.3594,501.6816 Q1449.625,501.9316 1449.625,502.2754 Q1449.625,502.6191 1449.2813,503.0254 Q1448.7813,503.6035 1447.9844,503.9316 Q1446.9063,504.3848 1445.6094,504.3848 Q1444.0938,504.3848 1442.8906,503.7598 Q1441.9063,503.2598 1441.2188,502.1973 Q1440.5313,501.1191 1440.5313,499.8379 L1440.5313,498.6816 Q1440.5313,497.3535 1441.1406,496.2129 Q1441.7656,495.0566 1442.8594,494.4473 Q1443.9531,493.8223 1445.1875,493.8223 Q1445.9219,493.8223 1446.5625,493.9941 Q1447.2188,494.1504 1447.7656,494.5098 Z " fill="#000000"/><text fill="#000000" font-family="sans-serif" font-size="14" lengthAdjust="spacing" textLength="92" x="1477" y="495.1211">&#171;value object&#187;</text><text fill="#000000" font-family="sans-serif" font-size="14" lengthAdjust="spacing" textLength="128" x="1459" y="513.7422">RequirementsStatus</text><line style="stroke:#181818;stroke-width:0.5;" x1="1431" x2="1589" y1="522.2559" y2="522.2559"/><line style="stroke:#181818;stroke-width:0.5;" x1="1431" x2="1589" y1="530.2559" y2="530.2559"/></g><!--class InterviewPhaseStatus--><g id="elem_InterviewPhaseStatus"><rect codeLine="72" fill="#F1F1F1" height="63.2422" id="InterviewPhaseStatus" rx="2.5" ry="2.5" style="stroke:#181818;stroke-width:0.5;" width="167" x="1625.5" y="475.0137"/><ellipse cx="1640.5" cy="498.6348" fill="#ADD1B2" rx="11" ry="11" style="stroke:#181818;stroke-width:1.0;"/><path d="M1643.2656,494.5098 Q1643.4219,494.291 1643.6094,494.1816 Q1643.7969,494.0723 1644.0156,494.0723 Q1644.3906,494.0723 1644.625,494.3379 Q1644.8594,494.5879 1644.8594,495.1973 L1644.8594,496.6504 Q1644.8594,497.2598 1644.625,497.5254 Q1644.3906,497.791 1644.0156,497.791 Q1643.6719,497.791 1643.4688,497.5879 Q1643.2656,497.4004 1643.1563,496.8848 Q1643.1094,496.5254 1642.9219,496.3379 Q1642.5938,495.9629 1641.9844,495.7441 Q1641.375,495.5254 1640.75,495.5254 Q1639.9844,495.5254 1639.3438,495.8535 Q1638.7188,496.1816 1638.2188,496.9316 Q1637.7344,497.6816 1637.7344,498.7129 L1637.7344,499.8066 Q1637.7344,501.041 1638.625,501.8691 Q1639.5156,502.6816 1641.1094,502.6816 Q1642.0469,502.6816 1642.7031,502.4316 Q1643.0938,502.2754 1643.5156,501.8379 Q1643.7813,501.5723 1643.9219,501.4941 Q1644.0781,501.416 1644.2813,501.416 Q1644.6094,501.416 1644.8594,501.6816 Q1645.125,501.9316 1645.125,502.2754 Q1645.125,502.6191 1644.7813,503.0254 Q1644.2813,503.6035 1643.4844,503.9316 Q1642.4063,504.3848 1641.1094,504.3848 Q1639.5938,504.3848 1638.3906,503.7598 Q1637.4063,503.2598 1636.7188,502.1973 Q1636.0313,501.1191 1636.0313,499.8379 L1636.0313,498.6816 Q1636.0313,497.3535 1636.6406,496.2129 Q1637.2656,495.0566 1638.3594,494.4473 Q1639.4531,493.8223 1640.6875,493.8223 Q1641.4219,493.8223 1642.0625,493.9941 Q1642.7188,494.1504 1643.2656,494.5098 Z " fill="#000000"/><text fill="#000000" font-family="sans-serif" font-size="14" lengthAdjust="spacing" textLength="92" x="1676" y="495.1211">&#171;value object&#187;</text><text fill="#000000" font-family="sans-serif" font-size="14" lengthAdjust="spacing" textLength="135" x="1654.5" y="513.7422">InterviewPhaseStatus</text><line style="stroke:#181818;stroke-width:0.5;" x1="1626.5" x2="1791.5" y1="522.2559" y2="522.2559"/><line style="stroke:#181818;stroke-width:0.5;" x1="1626.5" x2="1791.5" y1="530.2559" y2="530.2559"/></g><!--class ContractType--><g id="elem_ContractType"><rect codeLine="75" fill="#F1F1F1" height="63.2422" id="ContractType" rx="2.5" ry="2.5" style="stroke:#181818;stroke-width:0.5;" width="124" x="1871" y="89.5137"/><ellipse cx="1886" cy="113.1348" fill="#ADD1B2" rx="11" ry="11" style="stroke:#181818;stroke-width:1.0;"/><path d="M1888.7656,109.0098 Q1888.9219,108.791 1889.1094,108.6816 Q1889.2969,108.5723 1889.5156,108.5723 Q1889.8906,108.5723 1890.125,108.8379 Q1890.3594,109.0879 1890.3594,109.6973 L1890.3594,111.1504 Q1890.3594,111.7598 1890.125,112.0254 Q1889.8906,112.291 1889.5156,112.291 Q1889.1719,112.291 1888.9688,112.0879 Q1888.7656,111.9004 1888.6563,111.3848 Q1888.6094,111.0254 1888.4219,110.8379 Q1888.0938,110.4629 1887.4844,110.2441 Q1886.875,110.0254 1886.25,110.0254 Q1885.4844,110.0254 1884.8438,110.3535 Q1884.2188,110.6816 1883.7188,111.4316 Q1883.2344,112.1816 1883.2344,113.2129 L1883.2344,114.3066 Q1883.2344,115.541 1884.125,116.3691 Q1885.0156,117.1816 1886.6094,117.1816 Q1887.5469,117.1816 1888.2031,116.9316 Q1888.5938,116.7754 1889.0156,116.3379 Q1889.2813,116.0723 1889.4219,115.9941 Q1889.5781,115.916 1889.7813,115.916 Q1890.1094,115.916 1890.3594,116.1816 Q1890.625,116.4316 1890.625,116.7754 Q1890.625,117.1191 1890.2813,117.5254 Q1889.7813,118.1035 1888.9844,118.4316 Q1887.9063,118.8848 1886.6094,118.8848 Q1885.0938,118.8848 1883.8906,118.2598 Q1882.9063,117.7598 1882.2188,116.6973 Q1881.5313,115.6191 1881.5313,114.3379 L1881.5313,113.1816 Q1881.5313,111.8535 1882.1406,110.7129 Q1882.7656,109.5566 1883.8594,108.9473 Q1884.9531,108.3223 1886.1875,108.3223 Q1886.9219,108.3223 1887.5625,108.4941 Q1888.2188,108.6504 1888.7656,109.0098 Z " fill="#000000"/><text fill="#000000" font-family="sans-serif" font-size="14" lengthAdjust="spacing" textLength="92" x="1900" y="109.6211">&#171;value object&#187;</text><text fill="#000000" font-family="sans-serif" font-size="14" lengthAdjust="spacing" textLength="86" x="1903" y="128.2422">ContractType</text><line style="stroke:#181818;stroke-width:0.5;" x1="1872" x2="1994" y1="136.7559" y2="136.7559"/><line style="stroke:#181818;stroke-width:0.5;" x1="1872" x2="1994" y1="144.7559" y2="144.7559"/></g><!--class Mode--><g id="elem_Mode"><rect codeLine="78" fill="#F1F1F1" height="81.8633" id="Mode" rx="2.5" ry="2.5" style="stroke:#181818;stroke-width:0.5;" width="124" x="1712" y="80.0137"/><ellipse cx="1727" cy="103.6348" fill="#ADD1B2" rx="11" ry="11" style="stroke:#181818;stroke-width:1.0;"/><path d="M1729.7656,99.5098 Q1729.9219,99.291 1730.1094,99.1816 Q1730.2969,99.0723 1730.5156,99.0723 Q1730.8906,99.0723 1731.125,99.3379 Q1731.3594,99.5879 1731.3594,100.1973 L1731.3594,101.6504 Q1731.3594,102.2598 1731.125,102.5254 Q1730.8906,102.791 1730.5156,102.791 Q1730.1719,102.791 1729.9688,102.5879 Q1729.7656,102.4004 1729.6563,101.8848 Q1729.6094,101.5254 1729.4219,101.3379 Q1729.0938,100.9629 1728.4844,100.7441 Q1727.875,100.5254 1727.25,100.5254 Q1726.4844,100.5254 1725.8438,100.8535 Q1725.2188,101.1816 1724.7188,101.9316 Q1724.2344,102.6816 1724.2344,103.7129 L1724.2344,104.8066 Q1724.2344,106.041 1725.125,106.8691 Q1726.0156,107.6816 1727.6094,107.6816 Q1728.5469,107.6816 1729.2031,107.4316 Q1729.5938,107.2754 1730.0156,106.8379 Q1730.2813,106.5723 1730.4219,106.4941 Q1730.5781,106.416 1730.7813,106.416 Q1731.1094,106.416 1731.3594,106.6816 Q1731.625,106.9316 1731.625,107.2754 Q1731.625,107.6191 1731.2813,108.0254 Q1730.7813,108.6035 1729.9844,108.9316 Q1728.9063,109.3848 1727.6094,109.3848 Q1726.0938,109.3848 1724.8906,108.7598 Q1723.9063,108.2598 1723.2188,107.1973 Q1722.5313,106.1191 1722.5313,104.8379 L1722.5313,103.6816 Q1722.5313,102.3535 1723.1406,101.2129 Q1723.7656,100.0566 1724.8594,99.4473 Q1725.9531,98.8223 1727.1875,98.8223 Q1727.9219,98.8223 1728.5625,98.9941 Q1729.2188,99.1504 1729.7656,99.5098 Z " fill="#000000"/><text fill="#000000" font-family="sans-serif" font-size="14" lengthAdjust="spacing" textLength="92" x="1741" y="100.1211">&#171;value object&#187;</text><text fill="#000000" font-family="sans-serif" font-size="14" lengthAdjust="spacing" textLength="35" x="1769.5" y="118.7422">Mode</text><line style="stroke:#181818;stroke-width:0.5;" x1="1713" x2="1835" y1="127.2559" y2="127.2559"/><text fill="#000000" font-family="sans-serif" font-size="14" lengthAdjust="spacing" textLength="69" x="1718" y="146.3633">description</text><line style="stroke:#181818;stroke-width:0.5;" x1="1713" x2="1835" y1="153.877" y2="153.877"/></g><!--class JobFunction--><g id="elem_JobFunction"><rect codeLine="82" fill="#F1F1F1" height="81.8633" id="JobFunction" rx="2.5" ry="2.5" style="stroke:#181818;stroke-width:0.5;" width="124" x="1553" y="80.0137"/><ellipse cx="1568" cy="103.6348" fill="#ADD1B2" rx="11" ry="11" style="stroke:#181818;stroke-width:1.0;"/><path d="M1570.7656,99.5098 Q1570.9219,99.291 1571.1094,99.1816 Q1571.2969,99.0723 1571.5156,99.0723 Q1571.8906,99.0723 1572.125,99.3379 Q1572.3594,99.5879 1572.3594,100.1973 L1572.3594,101.6504 Q1572.3594,102.2598 1572.125,102.5254 Q1571.8906,102.791 1571.5156,102.791 Q1571.1719,102.791 1570.9688,102.5879 Q1570.7656,102.4004 1570.6563,101.8848 Q1570.6094,101.5254 1570.4219,101.3379 Q1570.0938,100.9629 1569.4844,100.7441 Q1568.875,100.5254 1568.25,100.5254 Q1567.4844,100.5254 1566.8438,100.8535 Q1566.2188,101.1816 1565.7188,101.9316 Q1565.2344,102.6816 1565.2344,103.7129 L1565.2344,104.8066 Q1565.2344,106.041 1566.125,106.8691 Q1567.0156,107.6816 1568.6094,107.6816 Q1569.5469,107.6816 1570.2031,107.4316 Q1570.5938,107.2754 1571.0156,106.8379 Q1571.2813,106.5723 1571.4219,106.4941 Q1571.5781,106.416 1571.7813,106.416 Q1572.1094,106.416 1572.3594,106.6816 Q1572.625,106.9316 1572.625,107.2754 Q1572.625,107.6191 1572.2813,108.0254 Q1571.7813,108.6035 1570.9844,108.9316 Q1569.9063,109.3848 1568.6094,109.3848 Q1567.0938,109.3848 1565.8906,108.7598 Q1564.9063,108.2598 1564.2188,107.1973 Q1563.5313,106.1191 1563.5313,104.8379 L1563.5313,103.6816 Q1563.5313,102.3535 1564.1406,101.2129 Q1564.7656,100.0566 1565.8594,99.4473 Q1566.9531,98.8223 1568.1875,98.8223 Q1568.9219,98.8223 1569.5625,98.9941 Q1570.2188,99.1504 1570.7656,99.5098 Z " fill="#000000"/><text fill="#000000" font-family="sans-serif" font-size="14" lengthAdjust="spacing" textLength="92" x="1582" y="100.1211">&#171;value object&#187;</text><text fill="#000000" font-family="sans-serif" font-size="14" lengthAdjust="spacing" textLength="77" x="1589.5" y="118.7422">JobFunction</text><line style="stroke:#181818;stroke-width:0.5;" x1="1554" x2="1676" y1="127.2559" y2="127.2559"/><text fill="#000000" font-family="sans-serif" font-size="14" lengthAdjust="spacing" textLength="69" x="1559" y="146.3633">description</text><line style="stroke:#181818;stroke-width:0.5;" x1="1554" x2="1676" y1="153.877" y2="153.877"/></g><!--class NumberOfVacancies--><g id="elem_NumberOfVacancies"><rect codeLine="86" fill="#F1F1F1" height="63.2422" id="NumberOfVacancies" rx="2.5" ry="2.5" style="stroke:#181818;stroke-width:0.5;" width="165" x="1352.5" y="89.5137"/><ellipse cx="1367.5" cy="113.1348" fill="#ADD1B2" rx="11" ry="11" style="stroke:#181818;stroke-width:1.0;"/><path d="M1370.2656,109.0098 Q1370.4219,108.791 1370.6094,108.6816 Q1370.7969,108.5723 1371.0156,108.5723 Q1371.3906,108.5723 1371.625,108.8379 Q1371.8594,109.0879 1371.8594,109.6973 L1371.8594,111.1504 Q1371.8594,111.7598 1371.625,112.0254 Q1371.3906,112.291 1371.0156,112.291 Q1370.6719,112.291 1370.4688,112.0879 Q1370.2656,111.9004 1370.1563,111.3848 Q1370.1094,111.0254 1369.9219,110.8379 Q1369.5938,110.4629 1368.9844,110.2441 Q1368.375,110.0254 1367.75,110.0254 Q1366.9844,110.0254 1366.3438,110.3535 Q1365.7188,110.6816 1365.2188,111.4316 Q1364.7344,112.1816 1364.7344,113.2129 L1364.7344,114.3066 Q1364.7344,115.541 1365.625,116.3691 Q1366.5156,117.1816 1368.1094,117.1816 Q1369.0469,117.1816 1369.7031,116.9316 Q1370.0938,116.7754 1370.5156,116.3379 Q1370.7813,116.0723 1370.9219,115.9941 Q1371.0781,115.916 1371.2813,115.916 Q1371.6094,115.916 1371.8594,116.1816 Q1372.125,116.4316 1372.125,116.7754 Q1372.125,117.1191 1371.7813,117.5254 Q1371.2813,118.1035 1370.4844,118.4316 Q1369.4063,118.8848 1368.1094,118.8848 Q1366.5938,118.8848 1365.3906,118.2598 Q1364.4063,117.7598 1363.7188,116.6973 Q1363.0313,115.6191 1363.0313,114.3379 L1363.0313,113.1816 Q1363.0313,111.8535 1363.6406,110.7129 Q1364.2656,109.5566 1365.3594,108.9473 Q1366.4531,108.3223 1367.6875,108.3223 Q1368.4219,108.3223 1369.0625,108.4941 Q1369.7188,108.6504 1370.2656,109.0098 Z " fill="#000000"/><text fill="#000000" font-family="sans-serif" font-size="14" lengthAdjust="spacing" textLength="92" x="1402" y="109.6211">&#171;value object&#187;</text><text fill="#000000" font-family="sans-serif" font-size="14" lengthAdjust="spacing" textLength="129" x="1385.5" y="128.2422">NumberOfVacancies</text><line style="stroke:#181818;stroke-width:0.5;" x1="1353.5" x2="1516.5" y1="136.7559" y2="136.7559"/><line style="stroke:#181818;stroke-width:0.5;" x1="1353.5" x2="1516.5" y1="144.7559" y2="144.7559"/></g><!--class Description--><g id="elem_Description"><rect codeLine="90" fill="#F1F1F1" height="81.8633" id="Description" rx="2.5" ry="2.5" style="stroke:#181818;stroke-width:0.5;" width="124" x="1193" y="80.0137"/><ellipse cx="1208" cy="103.6348" fill="#ADD1B2" rx="11" ry="11" style="stroke:#181818;stroke-width:1.0;"/><path d="M1210.7656,99.5098 Q1210.9219,99.291 1211.1094,99.1816 Q1211.2969,99.0723 1211.5156,99.0723 Q1211.8906,99.0723 1212.125,99.3379 Q1212.3594,99.5879 1212.3594,100.1973 L1212.3594,101.6504 Q1212.3594,102.2598 1212.125,102.5254 Q1211.8906,102.791 1211.5156,102.791 Q1211.1719,102.791 1210.9688,102.5879 Q1210.7656,102.4004 1210.6563,101.8848 Q1210.6094,101.5254 1210.4219,101.3379 Q1210.0938,100.9629 1209.4844,100.7441 Q1208.875,100.5254 1208.25,100.5254 Q1207.4844,100.5254 1206.8438,100.8535 Q1206.2188,101.1816 1205.7188,101.9316 Q1205.2344,102.6816 1205.2344,103.7129 L1205.2344,104.8066 Q1205.2344,106.041 1206.125,106.8691 Q1207.0156,107.6816 1208.6094,107.6816 Q1209.5469,107.6816 1210.2031,107.4316 Q1210.5938,107.2754 1211.0156,106.8379 Q1211.2813,106.5723 1211.4219,106.4941 Q1211.5781,106.416 1211.7813,106.416 Q1212.1094,106.416 1212.3594,106.6816 Q1212.625,106.9316 1212.625,107.2754 Q1212.625,107.6191 1212.2813,108.0254 Q1211.7813,108.6035 1210.9844,108.9316 Q1209.9063,109.3848 1208.6094,109.3848 Q1207.0938,109.3848 1205.8906,108.7598 Q1204.9063,108.2598 1204.2188,107.1973 Q1203.5313,106.1191 1203.5313,104.8379 L1203.5313,103.6816 Q1203.5313,102.3535 1204.1406,101.2129 Q1204.7656,100.0566 1205.8594,99.4473 Q1206.9531,98.8223 1208.1875,98.8223 Q1208.9219,98.8223 1209.5625,98.9941 Q1210.2188,99.1504 1210.7656,99.5098 Z " fill="#000000"/><text fill="#000000" font-family="sans-serif" font-size="14" lengthAdjust="spacing" textLength="92" x="1222" y="100.1211">&#171;value object&#187;</text><text fill="#000000" font-family="sans-serif" font-size="14" lengthAdjust="spacing" textLength="71" x="1232.5" y="118.7422">Description</text><line style="stroke:#181818;stroke-width:0.5;" x1="1194" x2="1316" y1="127.2559" y2="127.2559"/><text fill="#000000" font-family="sans-serif" font-size="14" lengthAdjust="spacing" textLength="69" x="1199" y="146.3633">description</text><line style="stroke:#181818;stroke-width:0.5;" x1="1194" x2="1316" y1="153.877" y2="153.877"/></g><!--class Address1--><g id="elem_Address1"><rect codeLine="95" fill="#F1F1F1" height="156.3477" id="Address1" rx="2.5" ry="2.5" style="stroke:#181818;stroke-width:0.5;" width="124" x="1034" y="43.0137"/><ellipse cx="1049" cy="66.6348" fill="#ADD1B2" rx="11" ry="11" style="stroke:#181818;stroke-width:1.0;"/><path d="M1051.7656,62.5098 Q1051.9219,62.291 1052.1094,62.1816 Q1052.2969,62.0723 1052.5156,62.0723 Q1052.8906,62.0723 1053.125,62.3379 Q1053.3594,62.5879 1053.3594,63.1973 L1053.3594,64.6504 Q1053.3594,65.2598 1053.125,65.5254 Q1052.8906,65.791 1052.5156,65.791 Q1052.1719,65.791 1051.9688,65.5879 Q1051.7656,65.4004 1051.6563,64.8848 Q1051.6094,64.5254 1051.4219,64.3379 Q1051.0938,63.9629 1050.4844,63.7441 Q1049.875,63.5254 1049.25,63.5254 Q1048.4844,63.5254 1047.8438,63.8535 Q1047.2188,64.1816 1046.7188,64.9316 Q1046.2344,65.6816 1046.2344,66.7129 L1046.2344,67.8066 Q1046.2344,69.041 1047.125,69.8691 Q1048.0156,70.6816 1049.6094,70.6816 Q1050.5469,70.6816 1051.2031,70.4316 Q1051.5938,70.2754 1052.0156,69.8379 Q1052.2813,69.5723 1052.4219,69.4941 Q1052.5781,69.416 1052.7813,69.416 Q1053.1094,69.416 1053.3594,69.6816 Q1053.625,69.9316 1053.625,70.2754 Q1053.625,70.6191 1053.2813,71.0254 Q1052.7813,71.6035 1051.9844,71.9316 Q1050.9063,72.3848 1049.6094,72.3848 Q1048.0938,72.3848 1046.8906,71.7598 Q1045.9063,71.2598 1045.2188,70.1973 Q1044.5313,69.1191 1044.5313,67.8379 L1044.5313,66.6816 Q1044.5313,65.3535 1045.1406,64.2129 Q1045.7656,63.0566 1046.8594,62.4473 Q1047.9531,61.8223 1049.1875,61.8223 Q1049.9219,61.8223 1050.5625,61.9941 Q1051.2188,62.1504 1051.7656,62.5098 Z " fill="#000000"/><text fill="#000000" font-family="sans-serif" font-size="14" lengthAdjust="spacing" textLength="92" x="1063" y="63.1211">&#171;value object&#187;</text><text fill="#000000" font-family="sans-serif" font-size="14" lengthAdjust="spacing" textLength="52" x="1083" y="81.7422">Address</text><line style="stroke:#181818;stroke-width:0.5;" x1="1035" x2="1157" y1="90.2559" y2="90.2559"/><text fill="#000000" font-family="sans-serif" font-size="14" lengthAdjust="spacing" textLength="38" x="1040" y="109.3633">Street</text><text fill="#000000" font-family="sans-serif" font-size="14" lengthAdjust="spacing" textLength="24" x="1040" y="127.9844">City</text><text fill="#000000" font-family="sans-serif" font-size="14" lengthAdjust="spacing" textLength="33" x="1040" y="146.6055">State</text><text fill="#000000" font-family="sans-serif" font-size="14" lengthAdjust="spacing" textLength="50" x="1040" y="165.2266">Country</text><text fill="#000000" font-family="sans-serif" font-size="14" lengthAdjust="spacing" textLength="50" x="1040" y="183.8477">Zipcode</text><line style="stroke:#181818;stroke-width:0.5;" x1="1035" x2="1157" y1="191.3613" y2="191.3613"/></g><!--class JobReference--><g id="elem_JobReference"><rect codeLine="103" fill="#F1F1F1" height="81.8633" id="JobReference" rx="2.5" ry="2.5" style="stroke:#181818;stroke-width:0.5;" width="124" x="1828" y="465.5137"/><ellipse cx="1843" cy="498.4453" fill="#ADD1B2" rx="11" ry="11" style="stroke:#181818;stroke-width:1.0;"/><path d="M1845.7656,494.3203 Q1845.9219,494.1016 1846.1094,493.9922 Q1846.2969,493.8828 1846.5156,493.8828 Q1846.8906,493.8828 1847.125,494.1484 Q1847.3594,494.3984 1847.3594,495.0078 L1847.3594,496.4609 Q1847.3594,497.0703 1847.125,497.3359 Q1846.8906,497.6016 1846.5156,497.6016 Q1846.1719,497.6016 1845.9688,497.3984 Q1845.7656,497.2109 1845.6563,496.6953 Q1845.6094,496.3359 1845.4219,496.1484 Q1845.0938,495.7734 1844.4844,495.5547 Q1843.875,495.3359 1843.25,495.3359 Q1842.4844,495.3359 1841.8438,495.6641 Q1841.2188,495.9922 1840.7188,496.7422 Q1840.2344,497.4922 1840.2344,498.5234 L1840.2344,499.6172 Q1840.2344,500.8516 1841.125,501.6797 Q1842.0156,502.4922 1843.6094,502.4922 Q1844.5469,502.4922 1845.2031,502.2422 Q1845.5938,502.0859 1846.0156,501.6484 Q1846.2813,501.3828 1846.4219,501.3047 Q1846.5781,501.2266 1846.7813,501.2266 Q1847.1094,501.2266 1847.3594,501.4922 Q1847.625,501.7422 1847.625,502.0859 Q1847.625,502.4297 1847.2813,502.8359 Q1846.7813,503.4141 1845.9844,503.7422 Q1844.9063,504.1953 1843.6094,504.1953 Q1842.0938,504.1953 1840.8906,503.5703 Q1839.9063,503.0703 1839.2188,502.0078 Q1838.5313,500.9297 1838.5313,499.6484 L1838.5313,498.4922 Q1838.5313,497.1641 1839.1406,496.0234 Q1839.7656,494.8672 1840.8594,494.2578 Q1841.9531,493.6328 1843.1875,493.6328 Q1843.9219,493.6328 1844.5625,493.8047 Q1845.2188,493.9609 1845.7656,494.3203 Z " fill="#000000"/><text fill="#000000" font-family="sans-serif" font-size="14" lengthAdjust="spacing" textLength="92" x="1857" y="485.6211">&#171;value object&#187;</text><text fill="#000000" font-family="sans-serif" font-size="14" lengthAdjust="spacing" textLength="70" x="1868" y="504.2422">&#171;identifier&#187;</text><text fill="#000000" font-family="sans-serif" font-size="14" lengthAdjust="spacing" textLength="88" x="1859" y="522.8633">JobReference</text><line style="stroke:#181818;stroke-width:0.5;" x1="1829" x2="1951" y1="531.377" y2="531.377"/><line style="stroke:#181818;stroke-width:0.5;" x1="1829" x2="1951" y1="539.377" y2="539.377"/></g><!--class Plugin--><g id="elem_Plugin"><rect codeLine="109" fill="#F1F1F1" height="81.8633" id="Plugin" rx="2.5" ry="2.5" style="stroke:#181818;stroke-width:0.5;" width="82" x="2324" y="80.0137"/><ellipse cx="2339" cy="112.9453" fill="#ADD1B2" rx="11" ry="11" style="stroke:#181818;stroke-width:1.0;"/><path d="M2341.7656,108.8203 Q2341.9219,108.6016 2342.1094,108.4922 Q2342.2969,108.3828 2342.5156,108.3828 Q2342.8906,108.3828 2343.125,108.6484 Q2343.3594,108.8984 2343.3594,109.5078 L2343.3594,110.9609 Q2343.3594,111.5703 2343.125,111.8359 Q2342.8906,112.1016 2342.5156,112.1016 Q2342.1719,112.1016 2341.9688,111.8984 Q2341.7656,111.7109 2341.6563,111.1953 Q2341.6094,110.8359 2341.4219,110.6484 Q2341.0938,110.2734 2340.4844,110.0547 Q2339.875,109.8359 2339.25,109.8359 Q2338.4844,109.8359 2337.8438,110.1641 Q2337.2188,110.4922 2336.7188,111.2422 Q2336.2344,111.9922 2336.2344,113.0234 L2336.2344,114.1172 Q2336.2344,115.3516 2337.125,116.1797 Q2338.0156,116.9922 2339.6094,116.9922 Q2340.5469,116.9922 2341.2031,116.7422 Q2341.5938,116.5859 2342.0156,116.1484 Q2342.2813,115.8828 2342.4219,115.8047 Q2342.5781,115.7266 2342.7813,115.7266 Q2343.1094,115.7266 2343.3594,115.9922 Q2343.625,116.2422 2343.625,116.5859 Q2343.625,116.9297 2343.2813,117.3359 Q2342.7813,117.9141 2341.9844,118.2422 Q2340.9063,118.6953 2339.6094,118.6953 Q2338.0938,118.6953 2336.8906,118.0703 Q2335.9063,117.5703 2335.2188,116.5078 Q2334.5313,115.4297 2334.5313,114.1484 L2334.5313,112.9922 Q2334.5313,111.6641 2335.1406,110.5234 Q2335.7656,109.3672 2336.8594,108.7578 Q2337.9531,108.1328 2339.1875,108.1328 Q2339.9219,108.1328 2340.5625,108.3047 Q2341.2188,108.4609 2341.7656,108.8203 Z " fill="#000000"/><text fill="#000000" font-family="sans-serif" font-size="14" lengthAdjust="spacing" textLength="41" x="2357.5" y="100.1211">&#171;root&#187;</text><text fill="#000000" font-family="sans-serif" font-size="14" lengthAdjust="spacing" textLength="50" x="2353" y="118.7422">&#171;entity&#187;</text><text fill="#000000" font-family="sans-serif" font-size="14" lengthAdjust="spacing" textLength="39" x="2358.5" y="137.3633">Plugin</text><line style="stroke:#181818;stroke-width:0.5;" x1="2325" x2="2405" y1="145.877" y2="145.877"/><line style="stroke:#181818;stroke-width:0.5;" x1="2325" x2="2405" y1="153.877" y2="153.877"/></g><!--class PlugID--><g id="elem_PlugID"><rect codeLine="111" fill="#F1F1F1" height="81.8633" id="PlugID" rx="2.5" ry="2.5" style="stroke:#181818;stroke-width:0.5;" width="125" x="2051.5" y="301.0137"/><ellipse cx="2066.5" cy="333.9453" fill="#ADD1B2" rx="11" ry="11" style="stroke:#181818;stroke-width:1.0;"/><path d="M2069.2656,329.8203 Q2069.4219,329.6016 2069.6094,329.4922 Q2069.7969,329.3828 2070.0156,329.3828 Q2070.3906,329.3828 2070.625,329.6484 Q2070.8594,329.8984 2070.8594,330.5078 L2070.8594,331.9609 Q2070.8594,332.5703 2070.625,332.8359 Q2070.3906,333.1016 2070.0156,333.1016 Q2069.6719,333.1016 2069.4688,332.8984 Q2069.2656,332.7109 2069.1563,332.1953 Q2069.1094,331.8359 2068.9219,331.6484 Q2068.5938,331.2734 2067.9844,331.0547 Q2067.375,330.8359 2066.75,330.8359 Q2065.9844,330.8359 2065.3438,331.1641 Q2064.7188,331.4922 2064.2188,332.2422 Q2063.7344,332.9922 2063.7344,334.0234 L2063.7344,335.1172 Q2063.7344,336.3516 2064.625,337.1797 Q2065.5156,337.9922 2067.1094,337.9922 Q2068.0469,337.9922 2068.7031,337.7422 Q2069.0938,337.5859 2069.5156,337.1484 Q2069.7813,336.8828 2069.9219,336.8047 Q2070.0781,336.7266 2070.2813,336.7266 Q2070.6094,336.7266 2070.8594,336.9922 Q2071.125,337.2422 2071.125,337.5859 Q2071.125,337.9297 2070.7813,338.3359 Q2070.2813,338.9141 2069.4844,339.2422 Q2068.4063,339.6953 2067.1094,339.6953 Q2065.5938,339.6953 2064.3906,339.0703 Q2063.4063,338.5703 2062.7188,337.5078 Q2062.0313,336.4297 2062.0313,335.1484 L2062.0313,333.9922 Q2062.0313,332.6641 2062.6406,331.5234 Q2063.2656,330.3672 2064.3594,329.7578 Q2065.4531,329.1328 2066.6875,329.1328 Q2067.4219,329.1328 2068.0625,329.3047 Q2068.7188,329.4609 2069.2656,329.8203 Z " fill="#000000"/><text fill="#000000" font-family="sans-serif" font-size="14" lengthAdjust="spacing" textLength="92" x="2081" y="321.1211">&#171;value object&#187;</text><text fill="#000000" font-family="sans-serif" font-size="14" lengthAdjust="spacing" textLength="70" x="2092" y="339.7422">&#171;identifier&#187;</text><text fill="#000000" font-family="sans-serif" font-size="14" lengthAdjust="spacing" textLength="93" x="2080.5" y="358.3633">PluginIdentifier</text><line style="stroke:#181818;stroke-width:0.5;" x1="2052.5" x2="2175.5" y1="366.877" y2="366.877"/><line style="stroke:#181818;stroke-width:0.5;" x1="2052.5" x2="2175.5" y1="374.877" y2="374.877"/></g><!--class PlugType--><g id="elem_PlugType"><rect codeLine="113" fill="#F1F1F1" height="63.2422" id="PlugType" rx="2.5" ry="2.5" style="stroke:#181818;stroke-width:0.5;" width="124" x="2212" y="310.5137"/><ellipse cx="2227" cy="334.1348" fill="#ADD1B2" rx="11" ry="11" style="stroke:#181818;stroke-width:1.0;"/><path d="M2229.7656,330.0098 Q2229.9219,329.791 2230.1094,329.6816 Q2230.2969,329.5723 2230.5156,329.5723 Q2230.8906,329.5723 2231.125,329.8379 Q2231.3594,330.0879 2231.3594,330.6973 L2231.3594,332.1504 Q2231.3594,332.7598 2231.125,333.0254 Q2230.8906,333.291 2230.5156,333.291 Q2230.1719,333.291 2229.9688,333.0879 Q2229.7656,332.9004 2229.6563,332.3848 Q2229.6094,332.0254 2229.4219,331.8379 Q2229.0938,331.4629 2228.4844,331.2441 Q2227.875,331.0254 2227.25,331.0254 Q2226.4844,331.0254 2225.8438,331.3535 Q2225.2188,331.6816 2224.7188,332.4316 Q2224.2344,333.1816 2224.2344,334.2129 L2224.2344,335.3066 Q2224.2344,336.541 2225.125,337.3691 Q2226.0156,338.1816 2227.6094,338.1816 Q2228.5469,338.1816 2229.2031,337.9316 Q2229.5938,337.7754 2230.0156,337.3379 Q2230.2813,337.0723 2230.4219,336.9941 Q2230.5781,336.916 2230.7813,336.916 Q2231.1094,336.916 2231.3594,337.1816 Q2231.625,337.4316 2231.625,337.7754 Q2231.625,338.1191 2231.2813,338.5254 Q2230.7813,339.1035 2229.9844,339.4316 Q2228.9063,339.8848 2227.6094,339.8848 Q2226.0938,339.8848 2224.8906,339.2598 Q2223.9063,338.7598 2223.2188,337.6973 Q2222.5313,336.6191 2222.5313,335.3379 L2222.5313,334.1816 Q2222.5313,332.8535 2223.1406,331.7129 Q2223.7656,330.5566 2224.8594,329.9473 Q2225.9531,329.3223 2227.1875,329.3223 Q2227.9219,329.3223 2228.5625,329.4941 Q2229.2188,329.6504 2229.7656,330.0098 Z " fill="#000000"/><text fill="#000000" font-family="sans-serif" font-size="14" lengthAdjust="spacing" textLength="92" x="2241" y="330.6211">&#171;value object&#187;</text><text fill="#000000" font-family="sans-serif" font-size="14" lengthAdjust="spacing" textLength="71" x="2251.5" y="349.2422">PluginType</text><line style="stroke:#181818;stroke-width:0.5;" x1="2213" x2="2335" y1="357.7559" y2="357.7559"/><line style="stroke:#181818;stroke-width:0.5;" x1="2213" x2="2335" y1="365.7559" y2="365.7559"/></g><!--class PlugClass--><g id="elem_PlugClass"><rect codeLine="115" fill="#F1F1F1" height="63.2422" id="PlugClass" rx="2.5" ry="2.5" style="stroke:#181818;stroke-width:0.5;" width="172" x="2371" y="310.5137"/><ellipse cx="2386" cy="334.1348" fill="#ADD1B2" rx="11" ry="11" style="stroke:#181818;stroke-width:1.0;"/><path d="M2388.7656,330.0098 Q2388.9219,329.791 2389.1094,329.6816 Q2389.2969,329.5723 2389.5156,329.5723 Q2389.8906,329.5723 2390.125,329.8379 Q2390.3594,330.0879 2390.3594,330.6973 L2390.3594,332.1504 Q2390.3594,332.7598 2390.125,333.0254 Q2389.8906,333.291 2389.5156,333.291 Q2389.1719,333.291 2388.9688,333.0879 Q2388.7656,332.9004 2388.6563,332.3848 Q2388.6094,332.0254 2388.4219,331.8379 Q2388.0938,331.4629 2387.4844,331.2441 Q2386.875,331.0254 2386.25,331.0254 Q2385.4844,331.0254 2384.8438,331.3535 Q2384.2188,331.6816 2383.7188,332.4316 Q2383.2344,333.1816 2383.2344,334.2129 L2383.2344,335.3066 Q2383.2344,336.541 2384.125,337.3691 Q2385.0156,338.1816 2386.6094,338.1816 Q2387.5469,338.1816 2388.2031,337.9316 Q2388.5938,337.7754 2389.0156,337.3379 Q2389.2813,337.0723 2389.4219,336.9941 Q2389.5781,336.916 2389.7813,336.916 Q2390.1094,336.916 2390.3594,337.1816 Q2390.625,337.4316 2390.625,337.7754 Q2390.625,338.1191 2390.2813,338.5254 Q2389.7813,339.1035 2388.9844,339.4316 Q2387.9063,339.8848 2386.6094,339.8848 Q2385.0938,339.8848 2383.8906,339.2598 Q2382.9063,338.7598 2382.2188,337.6973 Q2381.5313,336.6191 2381.5313,335.3379 L2381.5313,334.1816 Q2381.5313,332.8535 2382.1406,331.7129 Q2382.7656,330.5566 2383.8594,329.9473 Q2384.9531,329.3223 2386.1875,329.3223 Q2386.9219,329.3223 2387.5625,329.4941 Q2388.2188,329.6504 2388.7656,330.0098 Z " fill="#000000"/><text fill="#000000" font-family="sans-serif" font-size="14" lengthAdjust="spacing" textLength="92" x="2424" y="330.6211">&#171;value object&#187;</text><text fill="#000000" font-family="sans-serif" font-size="14" lengthAdjust="spacing" textLength="140" x="2400" y="349.2422">PluginMainClassName</text><line style="stroke:#181818;stroke-width:0.5;" x1="2372" x2="2542" y1="357.7559" y2="357.7559"/><line style="stroke:#181818;stroke-width:0.5;" x1="2372" x2="2542" y1="365.7559" y2="365.7559"/></g><!--class JarFile--><g id="elem_JarFile"><rect codeLine="117" fill="#F1F1F1" height="63.2422" id="JarFile" rx="2.5" ry="2.5" style="stroke:#181818;stroke-width:0.5;" width="124" x="2578" y="310.5137"/><ellipse cx="2593" cy="334.1348" fill="#ADD1B2" rx="11" ry="11" style="stroke:#181818;stroke-width:1.0;"/><path d="M2595.7656,330.0098 Q2595.9219,329.791 2596.1094,329.6816 Q2596.2969,329.5723 2596.5156,329.5723 Q2596.8906,329.5723 2597.125,329.8379 Q2597.3594,330.0879 2597.3594,330.6973 L2597.3594,332.1504 Q2597.3594,332.7598 2597.125,333.0254 Q2596.8906,333.291 2596.5156,333.291 Q2596.1719,333.291 2595.9688,333.0879 Q2595.7656,332.9004 2595.6563,332.3848 Q2595.6094,332.0254 2595.4219,331.8379 Q2595.0938,331.4629 2594.4844,331.2441 Q2593.875,331.0254 2593.25,331.0254 Q2592.4844,331.0254 2591.8438,331.3535 Q2591.2188,331.6816 2590.7188,332.4316 Q2590.2344,333.1816 2590.2344,334.2129 L2590.2344,335.3066 Q2590.2344,336.541 2591.125,337.3691 Q2592.0156,338.1816 2593.6094,338.1816 Q2594.5469,338.1816 2595.2031,337.9316 Q2595.5938,337.7754 2596.0156,337.3379 Q2596.2813,337.0723 2596.4219,336.9941 Q2596.5781,336.916 2596.7813,336.916 Q2597.1094,336.916 2597.3594,337.1816 Q2597.625,337.4316 2597.625,337.7754 Q2597.625,338.1191 2597.2813,338.5254 Q2596.7813,339.1035 2595.9844,339.4316 Q2594.9063,339.8848 2593.6094,339.8848 Q2592.0938,339.8848 2590.8906,339.2598 Q2589.9063,338.7598 2589.2188,337.6973 Q2588.5313,336.6191 2588.5313,335.3379 L2588.5313,334.1816 Q2588.5313,332.8535 2589.1406,331.7129 Q2589.7656,330.5566 2590.8594,329.9473 Q2591.9531,329.3223 2593.1875,329.3223 Q2593.9219,329.3223 2594.5625,329.4941 Q2595.2188,329.6504 2595.7656,330.0098 Z " fill="#000000"/><text fill="#000000" font-family="sans-serif" font-size="14" lengthAdjust="spacing" textLength="92" x="2607" y="330.6211">&#171;value object&#187;</text><text fill="#000000" font-family="sans-serif" font-size="14" lengthAdjust="spacing" textLength="78" x="2614" y="349.2422">JarFileName</text><line style="stroke:#181818;stroke-width:0.5;" x1="2579" x2="2701" y1="357.7559" y2="357.7559"/><line style="stroke:#181818;stroke-width:0.5;" x1="2579" x2="2701" y1="365.7559" y2="365.7559"/></g><!--class PlugDesc--><g id="elem_PlugDesc"><rect codeLine="119" fill="#F1F1F1" height="63.2422" id="PlugDesc" rx="2.5" ry="2.5" style="stroke:#181818;stroke-width:0.5;" width="124" x="2737" y="310.5137"/><ellipse cx="2752" cy="334.1348" fill="#ADD1B2" rx="11" ry="11" style="stroke:#181818;stroke-width:1.0;"/><path d="M2754.7656,330.0098 Q2754.9219,329.791 2755.1094,329.6816 Q2755.2969,329.5723 2755.5156,329.5723 Q2755.8906,329.5723 2756.125,329.8379 Q2756.3594,330.0879 2756.3594,330.6973 L2756.3594,332.1504 Q2756.3594,332.7598 2756.125,333.0254 Q2755.8906,333.291 2755.5156,333.291 Q2755.1719,333.291 2754.9688,333.0879 Q2754.7656,332.9004 2754.6563,332.3848 Q2754.6094,332.0254 2754.4219,331.8379 Q2754.0938,331.4629 2753.4844,331.2441 Q2752.875,331.0254 2752.25,331.0254 Q2751.4844,331.0254 2750.8438,331.3535 Q2750.2188,331.6816 2749.7188,332.4316 Q2749.2344,333.1816 2749.2344,334.2129 L2749.2344,335.3066 Q2749.2344,336.541 2750.125,337.3691 Q2751.0156,338.1816 2752.6094,338.1816 Q2753.5469,338.1816 2754.2031,337.9316 Q2754.5938,337.7754 2755.0156,337.3379 Q2755.2813,337.0723 2755.4219,336.9941 Q2755.5781,336.916 2755.7813,336.916 Q2756.1094,336.916 2756.3594,337.1816 Q2756.625,337.4316 2756.625,337.7754 Q2756.625,338.1191 2756.2813,338.5254 Q2755.7813,339.1035 2754.9844,339.4316 Q2753.9063,339.8848 2752.6094,339.8848 Q2751.0938,339.8848 2749.8906,339.2598 Q2748.9063,338.7598 2748.2188,337.6973 Q2747.5313,336.6191 2747.5313,335.3379 L2747.5313,334.1816 Q2747.5313,332.8535 2748.1406,331.7129 Q2748.7656,330.5566 2749.8594,329.9473 Q2750.9531,329.3223 2752.1875,329.3223 Q2752.9219,329.3223 2753.5625,329.4941 Q2754.2188,329.6504 2754.7656,330.0098 Z " fill="#000000"/><text fill="#000000" font-family="sans-serif" font-size="14" lengthAdjust="spacing" textLength="92" x="2766" y="330.6211">&#171;value object&#187;</text><text fill="#000000" font-family="sans-serif" font-size="14" lengthAdjust="spacing" textLength="71" x="2776.5" y="349.2422">Description</text><line style="stroke:#181818;stroke-width:0.5;" x1="2738" x2="2860" y1="357.7559" y2="357.7559"/><line style="stroke:#181818;stroke-width:0.5;" x1="2738" x2="2860" y1="365.7559" y2="365.7559"/></g><!--class UserDomain--><g id="elem_UserDomain"><rect codeLine="45" fill="#F1F1F1" height="48" id="UserDomain" rx="2.5" ry="2.5" style="stroke:#181818;stroke-width:0.5;" width="109" x="391.5" y="482.5137"/><ellipse cx="406.5" cy="498.5137" fill="#ADD1B2" rx="11" ry="11" style="stroke:#181818;stroke-width:1.0;"/><path d="M409.2656,494.3887 Q409.4219,494.1699 409.6094,494.0605 Q409.7969,493.9512 410.0156,493.9512 Q410.3906,493.9512 410.625,494.2168 Q410.8594,494.4668 410.8594,495.0762 L410.8594,496.5293 Q410.8594,497.1387 410.625,497.4043 Q410.3906,497.6699 410.0156,497.6699 Q409.6719,497.6699 409.4688,497.4668 Q409.2656,497.2793 409.1563,496.7637 Q409.1094,496.4043 408.9219,496.2168 Q408.5938,495.8418 407.9844,495.623 Q407.375,495.4043 406.75,495.4043 Q405.9844,495.4043 405.3438,495.7324 Q404.7188,496.0605 404.2188,496.8105 Q403.7344,497.5605 403.7344,498.5918 L403.7344,499.6855 Q403.7344,500.9199 404.625,501.748 Q405.5156,502.5605 407.1094,502.5605 Q408.0469,502.5605 408.7031,502.3105 Q409.0938,502.1543 409.5156,501.7168 Q409.7813,501.4512 409.9219,501.373 Q410.0781,501.2949 410.2813,501.2949 Q410.6094,501.2949 410.8594,501.5605 Q411.125,501.8105 411.125,502.1543 Q411.125,502.498 410.7813,502.9043 Q410.2813,503.4824 409.4844,503.8105 Q408.4063,504.2637 407.1094,504.2637 Q405.5938,504.2637 404.3906,503.6387 Q403.4063,503.1387 402.7188,502.0762 Q402.0313,500.998 402.0313,499.7168 L402.0313,498.5605 Q402.0313,497.2324 402.6406,496.0918 Q403.2656,494.9355 404.3594,494.3262 Q405.4531,493.7012 406.6875,493.7012 Q407.4219,493.7012 408.0625,493.873 Q408.7188,494.0293 409.2656,494.3887 Z " fill="#000000"/><text fill="#000000" font-family="sans-serif" font-size="14" lengthAdjust="spacing" textLength="77" x="420.5" y="504.3105">UserDomain</text><line style="stroke:#181818;stroke-width:0.5;" x1="392.5" x2="499.5" y1="514.5137" y2="514.5137"/><line style="stroke:#181818;stroke-width:0.5;" x1="392.5" x2="499.5" y1="522.5137" y2="522.5137"/></g><!--link Plugin to PlugClass--><g id="link_Plugin_PlugClass"><path codeLine="123" d="M2381.87,162.1837 C2399.82,204.9037 2425.4962,266.022 2441.7662,304.752 " fill="none" id="Plugin-to-PlugClass" style="stroke:#181818;stroke-width:1.0;"/><polygon fill="#181818" points="2444.09,310.2837,2444.2921,300.4369,2442.1535,305.6739,2436.9165,303.5353,2444.09,310.2837" style="stroke:#181818;stroke-width:1.0;"/><text fill="#000000" font-family="sans-serif" font-size="13" lengthAdjust="spacing" textLength="48" x="2417" y="244.042">includes</text><text fill="#000000" font-family="sans-serif" font-size="13" lengthAdjust="spacing" textLength="7" x="2376.9173" y="183.8505">1</text><text fill="#000000" font-family="sans-serif" font-size="13" lengthAdjust="spacing" textLength="7" x="2433.7054" y="299.0196">1</text></g><!--link Plugin to JarFile--><g id="link_Plugin_JarFile"><path codeLine="124" d="M2406.32,146.4937 C2447.35,171.6537 2511.18,213.1137 2561,256.0137 C2580.24,272.5737 2595.7314,288.9061 2610.5114,305.8161 " fill="none" id="Plugin-to-JarFile" style="stroke:#181818;stroke-width:1.0;"/><polygon fill="#181818" points="2614.46,310.3337,2611.5489,300.9249,2611.1695,306.569,2605.5254,306.1896,2614.46,310.3337" style="stroke:#181818;stroke-width:1.0;"/><text fill="#000000" font-family="sans-serif" font-size="13" lengthAdjust="spacing" textLength="48" x="2552" y="244.042">includes</text><text fill="#000000" font-family="sans-serif" font-size="13" lengthAdjust="spacing" textLength="7" x="2414.0234" y="146.4772">1</text><text fill="#000000" font-family="sans-serif" font-size="13" lengthAdjust="spacing" textLength="7" x="2601.4705" y="299.0799">1</text></g><!--link Plugin to PlugDesc--><g id="link_Plugin_PlugDesc"><path codeLine="125" d="M2406.18,131.0037 C2475.45,147.4837 2617.74,187.3237 2720,256.0137 C2741.74,270.6137 2757.9894,287.6446 2772.4494,305.4646 " fill="none" id="Plugin-to-PlugDesc" style="stroke:#181818;stroke-width:1.0;"/><polygon fill="#181818" points="2776.23,310.1237,2773.6652,300.6146,2773.0795,306.2411,2767.453,305.6554,2776.23,310.1237" style="stroke:#181818;stroke-width:1.0;"/><text fill="#000000" font-family="sans-serif" font-size="13" lengthAdjust="spacing" textLength="48" x="2703" y="244.042">includes</text><text fill="#000000" font-family="sans-serif" font-size="13" lengthAdjust="spacing" textLength="7" x="2414.1386" y="128.3355">1</text><text fill="#000000" font-family="sans-serif" font-size="13" lengthAdjust="spacing" textLength="7" x="2764.0581" y="299.205">1</text></g><!--link Plugin to PlugID--><g id="link_Plugin_PlugID"><path codeLine="126" d="M2323.84,151.8737 C2288.57,178.0537 2236.96,217.8137 2195,256.0137 C2179.62,270.0137 2167.7407,281.9637 2154.0807,296.5537 " fill="none" id="Plugin-to-PlugID" style="stroke:#181818;stroke-width:1.0;"/><polygon fill="#181818" points="2149.98,300.9337,2159.0511,297.0976,2153.3973,297.2837,2153.2112,291.6299,2149.98,300.9337" style="stroke:#181818;stroke-width:1.0;"/><text fill="#000000" font-family="sans-serif" font-size="13" lengthAdjust="spacing" textLength="69" x="2222" y="244.042">identified by</text><text fill="#000000" font-family="sans-serif" font-size="13" lengthAdjust="spacing" textLength="7" x="2308.8849" y="152.923">1</text><text fill="#000000" font-family="sans-serif" font-size="13" lengthAdjust="spacing" textLength="7" x="2148.3595" y="289.7857">1</text></g><!--link Plugin to PlugType--><g id="link_Plugin_PlugType"><path codeLine="127" d="M2348.31,162.1837 C2330.56,204.9037 2305.1619,266.0128 2289.0719,304.7428 " fill="none" id="Plugin-to-PlugType" style="stroke:#181818;stroke-width:1.0;"/><polygon fill="#181818" points="2286.77,310.2837,2293.9168,303.507,2288.6883,305.6663,2286.5289,300.4378,2286.77,310.2837" style="stroke:#181818;stroke-width:1.0;"/><text fill="#000000" font-family="sans-serif" font-size="13" lengthAdjust="spacing" textLength="32" x="2320" y="244.042">has a</text><text fill="#000000" font-family="sans-serif" font-size="13" lengthAdjust="spacing" textLength="7" x="2338.2184" y="183.8505">1</text><text fill="#000000" font-family="sans-serif" font-size="13" lengthAdjust="spacing" textLength="7" x="2281.6819" y="299.0196">1</text></g><!--reverse link Plugin to JobOpening--><g id="link_Plugin_JobOpening"><path codeLine="128" d="M2317.9477,134.0627 C2177.3477,170.0827 1722.55,286.5737 1564.11,327.1537 " fill="none" id="Plugin-backto-JobOpening" style="stroke:#181818;stroke-width:1.0;"/><polygon fill="#181818" points="2323.76,132.5737,2314.0489,130.9324,2318.9164,133.8145,2316.0343,138.6821,2323.76,132.5737" style="stroke:#181818;stroke-width:1.0;"/><text fill="#000000" font-family="sans-serif" font-size="13" lengthAdjust="spacing" textLength="48" x="1938" y="244.042">includes</text><text fill="#000000" font-family="sans-serif" font-size="13" lengthAdjust="spacing" textLength="22" x="2294.0873" y="130.0828">0..2</text><text fill="#000000" font-family="sans-serif" font-size="13" lengthAdjust="spacing" textLength="7" x="1571.8513" y="340.3561">1</text></g><!--link Candidate to EMail--><g id="link_Candidate_EMail"><path codeLine="132" d="M259.4,378.2737 C224.01,403.9437 180.8965,435.2203 144.0665,461.9403 " fill="none" id="Candidate-to-EMail" style="stroke:#181818;stroke-width:1.0;"/><polygon fill="#181818" points="139.21,465.4637,148.8437,463.4163,143.2571,462.5275,144.1459,456.9409,139.21,465.4637" style="stroke:#181818;stroke-width:1.0;"/><text fill="#000000" font-family="sans-serif" font-size="13" lengthAdjust="spacing" textLength="69" x="204" y="430.042">identified by</text><text fill="#000000" font-family="sans-serif" font-size="13" lengthAdjust="spacing" textLength="7" x="244.4222" y="379.5855">1</text><text fill="#000000" font-family="sans-serif" font-size="13" lengthAdjust="spacing" textLength="7" x="140.7745" y="454.3207">1</text></g><!--reverse link PhoneNumber to Candidate--><g id="link_PhoneNumber_Candidate"><path codeLine="133" d="M208.08,342.0137 C226.96,342.0137 241.43,342.0137 259.3,342.0137 " fill="none" id="PhoneNumber-backto-Candidate" style="stroke:#181818;stroke-width:1.0;"/><polygon fill="#181818" points="202.08,342.0137,211.08,346.0137,207.08,342.0137,211.08,338.0137,202.08,342.0137" style="stroke:#181818;stroke-width:1.0;"/><text fill="#000000" font-family="sans-serif" font-size="13" lengthAdjust="spacing" textLength="21" x="220.25" y="335.042">has</text><text fill="#000000" font-family="sans-serif" font-size="13" lengthAdjust="spacing" textLength="7" x="210.0726" y="338.0321">1</text><text fill="#000000" font-family="sans-serif" font-size="13" lengthAdjust="spacing" textLength="7" x="244.6331" y="337.825">1</text></g><!--link Candidate to Name--><g id="link_Candidate_Name"><path codeLine="134" d="M311.21,383.1837 C313.18,407.7137 315.2025,433.0427 317.1825,457.8427 " fill="none" id="Candidate-to-Name" style="stroke:#181818;stroke-width:1.0;"/><polygon fill="#181818" points="317.66,463.8237,320.931,454.5339,317.2621,458.8395,312.9564,455.1706,317.66,463.8237" style="stroke:#181818;stroke-width:1.0;"/><text fill="#000000" font-family="sans-serif" font-size="13" lengthAdjust="spacing" textLength="21" x="317" y="430.042">has</text><text fill="#000000" font-family="sans-serif" font-size="13" lengthAdjust="spacing" textLength="7" x="304.1656" y="404.8505">1</text><text fill="#000000" font-family="sans-serif" font-size="13" lengthAdjust="spacing" textLength="7" x="309.5699" y="452.6975">1</text></g><!--link Candidate to UserDomain--><g id="link_Candidate_UserDomain"><path codeLine="136" d="M342.11,383.1837 C368.61,414.3837 400.5463,451.9902 422.4463,477.7802 " fill="none" id="Candidate-to-UserDomain" style="stroke:#181818;stroke-width:1.0;stroke-dasharray:7.0,7.0;"/><polygon fill="#181818" points="426.33,482.3537,423.5535,472.9043,423.0936,478.5424,417.4555,478.0825,426.33,482.3537" style="stroke:#181818;stroke-width:1.0;"/><text fill="#000000" font-family="sans-serif" font-size="13" lengthAdjust="spacing" textLength="7" x="339.7972" y="404.8505">1</text><text fill="#000000" font-family="sans-serif" font-size="13" lengthAdjust="spacing" textLength="7" x="413.3927" y="471.0502">1</text></g><!--link JobApplication to Curriculum--><g id="link_JobApplication_Curriculum"><path codeLine="138" d="M757,383.1837 C757,411.5637 757,443.0237 757,468.9837 " fill="none" id="JobApplication-to-Curriculum" style="stroke:#181818;stroke-width:1.0;"/><polygon fill="#181818" points="757,474.9837,761,465.9837,757,469.9837,753,465.9837,757,474.9837" style="stroke:#181818;stroke-width:1.0;"/><text fill="#000000" font-family="sans-serif" font-size="13" lengthAdjust="spacing" textLength="48" x="758" y="430.042">includes</text><text fill="#000000" font-family="sans-serif" font-size="13" lengthAdjust="spacing" textLength="7" x="749.4641" y="404.8505">1</text><text fill="#000000" font-family="sans-serif" font-size="13" lengthAdjust="spacing" textLength="7" x="749.2781" y="463.7608">1</text></g><!--link JobApplication to Grade2--><g id="link_JobApplication_Grade2"><path codeLine="139" d="M796.3,383.1837 C820.77,408.1837 847.9239,435.935 872.4039,460.955 " fill="none" id="JobApplication-to-Grade2" style="stroke:#181818;stroke-width:1.0;"/><polygon fill="#181818" points="876.6,465.2437,873.165,456.0133,873.1032,461.6698,867.4467,461.6081,876.6,465.2437" style="stroke:#181818;stroke-width:1.0;"/><text fill="#000000" font-family="sans-serif" font-size="13" lengthAdjust="spacing" textLength="48" x="848" y="430.042">includes</text><text fill="#000000" font-family="sans-serif" font-size="13" lengthAdjust="spacing" textLength="22" x="846.5675" y="454.374">0..1</text></g><!--link JobApplication to Status--><g id="link_JobApplication_Status"><path codeLine="140" d="M717.7,383.1837 C689.92,411.5637 657.4661,444.735 632.0661,470.695 " fill="none" id="JobApplication-to-Status" style="stroke:#181818;stroke-width:1.0;"/><polygon fill="#181818" points="627.87,474.9837,637.0233,471.3481,631.3668,471.4098,631.3051,465.7533,627.87,474.9837" style="stroke:#181818;stroke-width:1.0;"/><text fill="#000000" font-family="sans-serif" font-size="13" lengthAdjust="spacing" textLength="21" x="684" y="430.042">has</text><text fill="#000000" font-family="sans-serif" font-size="13" lengthAdjust="spacing" textLength="7" x="704.1463" y="404.8505">1</text><text fill="#000000" font-family="sans-serif" font-size="13" lengthAdjust="spacing" textLength="7" x="626.3088" y="463.7608">1</text></g><!--link JobApplication to Candidate--><g id="link_JobApplication_Candidate"><path codeLine="141" d="M695.29,342.0137 C605.12,342.0137 445.18,342.0137 362.91,342.0137 " fill="none" id="JobApplication-to-Candidate" style="stroke:#181818;stroke-width:1.0;"/><polygon fill="#181818" points="356.91,342.0137,365.91,346.0137,361.91,342.0137,365.91,338.0137,356.91,342.0137" style="stroke:#181818;stroke-width:1.0;"/><text fill="#000000" font-family="sans-serif" font-size="13" lengthAdjust="spacing" textLength="47" x="502.5" y="335.042">refers to</text><text fill="#000000" font-family="sans-serif" font-size="13" lengthAdjust="spacing" textLength="7" x="680.3425" y="338.0321">1</text><text fill="#000000" font-family="sans-serif" font-size="13" lengthAdjust="spacing" textLength="7" x="364.6077" y="337.825">1</text></g><!--reverse link Mode to JobOpening--><g id="link_Mode_JobOpening"><path codeLine="143" d="M1730.3961,166.3247 C1717.9861,178.4947 1708.32,187.4837 1695,199.0137 C1652.61,235.7237 1601.93,274.2737 1564.35,301.9337 " fill="none" id="Mode-backto-JobOpening" style="stroke:#181818;stroke-width:1.0;"/><polygon fill="#181818" points="1734.68,162.1237,1725.4535,165.5693,1731.1101,165.6245,1731.0549,171.2811,1734.68,162.1237" style="stroke:#181818;stroke-width:1.0;"/><text fill="#000000" font-family="sans-serif" font-size="13" lengthAdjust="spacing" textLength="48" x="1656" y="244.042">includes</text><text fill="#000000" font-family="sans-serif" font-size="13" lengthAdjust="spacing" textLength="7" x="1721.1232" y="183.7813">1</text><text fill="#000000" font-family="sans-serif" font-size="13" lengthAdjust="spacing" textLength="7" x="1572.1236" y="292.4628">1</text></g><!--reverse link JobFunction to JobOpening--><g id="link_JobFunction_JobOpening"><path codeLine="144" d="M1593.1467,167.5943 C1574.2667,206.9843 1548.22,261.3037 1529.31,300.7337 " fill="none" id="JobFunction-backto-JobOpening" style="stroke:#181818;stroke-width:1.0;"/><polygon fill="#181818" points="1595.74,162.1837,1588.2429,168.5707,1593.5789,166.6925,1595.457,172.0285,1595.74,162.1837" style="stroke:#181818;stroke-width:1.0;"/><text fill="#000000" font-family="sans-serif" font-size="13" lengthAdjust="spacing" textLength="48" x="1563" y="244.042">includes</text><text fill="#000000" font-family="sans-serif" font-size="13" lengthAdjust="spacing" textLength="7" x="1585.2549" y="183.8505">1</text><text fill="#000000" font-family="sans-serif" font-size="13" lengthAdjust="spacing" textLength="7" x="1524.8297" y="289.8624">1</text></g><!--reverse link NumberOfVacancies to JobOpening--><g id="link_NumberOfVacancies_JobOpening"><path codeLine="145" d="M1447.5334,158.6002 C1460.8134,197.3902 1481.68,258.3137 1496.29,300.9737 " fill="none" id="NumberOfVacancies-backto-JobOpening" style="stroke:#181818;stroke-width:1.0;"/><polygon fill="#181818" points="1445.59,152.9237,1444.7207,162.7341,1447.2095,157.6541,1452.2895,160.1429,1445.59,152.9237" style="stroke:#181818;stroke-width:1.0;"/><text fill="#000000" font-family="sans-serif" font-size="13" lengthAdjust="spacing" textLength="48" x="1477" y="244.042">includes</text><text fill="#000000" font-family="sans-serif" font-size="13" lengthAdjust="spacing" textLength="7" x="1439.9415" y="174.6598">1</text><text fill="#000000" font-family="sans-serif" font-size="13" lengthAdjust="spacing" textLength="7" x="1486.4396" y="289.8324">1</text></g><!--reverse link Description to JobOpening--><g id="link_Description_JobOpening"><path codeLine="146" d="M1299.7964,166.4312 C1312.2664,178.4712 1321.86,187.3937 1335,199.0137 C1375.3,234.6437 1422.8,272.9637 1458.13,300.8137 " fill="none" id="Description-backto-JobOpening" style="stroke:#181818;stroke-width:1.0;"/><polygon fill="#181818" points="1295.48,162.2637,1299.1762,171.3926,1299.077,165.7366,1304.733,165.6374,1295.48,162.2637" style="stroke:#181818;stroke-width:1.0;"/><text fill="#000000" font-family="sans-serif" font-size="13" lengthAdjust="spacing" textLength="48" x="1392" y="244.042">includes</text><text fill="#000000" font-family="sans-serif" font-size="13" lengthAdjust="spacing" textLength="7" x="1294.1426" y="183.9427">1</text><text fill="#000000" font-family="sans-serif" font-size="13" lengthAdjust="spacing" textLength="7" x="1441.9593" y="289.6459">1</text></g><!--reverse link Address1 to JobOpening--><g id="link_Address1_JobOpening"><path codeLine="147" d="M1163.0682,189.7954 C1168.8082,194.4554 1170.05,195.0837 1176,199.0137 C1266.8,259.0437 1387.15,302.7137 1455.82,324.7737 " fill="none" id="Address1-backto-JobOpening" style="stroke:#181818;stroke-width:1.0;"/><polygon fill="#181818" points="1158.41,186.0137,1162.8761,194.7917,1162.2918,189.1651,1167.9184,188.5808,1158.41,186.0137" style="stroke:#181818;stroke-width:1.0;"/><text fill="#000000" font-family="sans-serif" font-size="13" lengthAdjust="spacing" textLength="48" x="1263" y="244.042">includes</text><text fill="#000000" font-family="sans-serif" font-size="13" lengthAdjust="spacing" textLength="7" x="1166.0308" y="189.5715">1</text><text fill="#000000" font-family="sans-serif" font-size="13" lengthAdjust="spacing" textLength="7" x="1441.0693" y="318.3719">1</text></g><!--reverse link ContractType to JobOpening--><g id="link_ContractType_JobOpening"><path codeLine="148" d="M1902.6764,157.0503 C1888.2864,172.4703 1873.52,186.1737 1854,199.0137 C1759.95,260.9037 1634.56,304.3337 1564.06,325.7537 " fill="none" id="ContractType-backto-JobOpening" style="stroke:#181818;stroke-width:1.0;"/><polygon fill="#181818" points="1906.77,152.6637,1897.7052,156.5145,1903.3587,156.3192,1903.554,161.9727,1906.77,152.6637" style="stroke:#181818;stroke-width:1.0;"/><text fill="#000000" font-family="sans-serif" font-size="13" lengthAdjust="spacing" textLength="48" x="1802" y="244.042">includes</text><text fill="#000000" font-family="sans-serif" font-size="13" lengthAdjust="spacing" textLength="7" x="1893.6382" y="174.978">1</text><text fill="#000000" font-family="sans-serif" font-size="13" lengthAdjust="spacing" textLength="7" x="1572.1544" y="319.3302">1</text></g><!--link JobOpening to JobReference--><g id="link_JobOpening_JobReference"><path codeLine="149" d="M1564.03,363.0237 C1624.61,385.8737 1725.43,425.1237 1810,464.0137 C1815.83,466.6937 1816.4574,466.9328 1822.4474,469.8828 " fill="none" id="JobOpening-to-JobReference" style="stroke:#181818;stroke-width:1.0;"/><polygon fill="#181818" points="1827.83,472.5337,1821.5233,464.9689,1823.3445,470.3246,1817.9888,472.1458,1827.83,472.5337" style="stroke:#181818;stroke-width:1.0;"/><text fill="#000000" font-family="sans-serif" font-size="13" lengthAdjust="spacing" textLength="48" x="1737" y="430.042">includes</text><text fill="#000000" font-family="sans-serif" font-size="13" lengthAdjust="spacing" textLength="7" x="1572.1202" y="361.8413">1</text><text fill="#000000" font-family="sans-serif" font-size="13" lengthAdjust="spacing" textLength="7" x="1812.8265" y="464.4108">1</text></g><!--link JobOpening to SetupStatus--><g id="link_JobOpening_SetupStatus"><path codeLine="150" d="M1466.25,383.1837 C1435.33,411.5637 1398.9494,444.9654 1370.6794,470.9254 " fill="none" id="JobOpening-to-SetupStatus" style="stroke:#181818;stroke-width:1.0;"/><polygon fill="#181818" points="1366.26,474.9837,1375.5945,471.8425,1369.9428,471.6018,1370.1835,465.9501,1366.26,474.9837" style="stroke:#181818;stroke-width:1.0;"/><text fill="#000000" font-family="sans-serif" font-size="13" lengthAdjust="spacing" textLength="48" x="1427" y="430.042">includes</text><text fill="#000000" font-family="sans-serif" font-size="13" lengthAdjust="spacing" textLength="7" x="1452.0148" y="404.8505">1</text><text fill="#000000" font-family="sans-serif" font-size="13" lengthAdjust="spacing" textLength="7" x="1365.398" y="463.7608">1</text></g><!--link JobOpening to RequirementsStatus--><g id="link_JobOpening_RequirementsStatus"><path codeLine="151" d="M1510,383.1837 C1510,411.5637 1510,443.0237 1510,468.9837 " fill="none" id="JobOpening-to-RequirementsStatus" style="stroke:#181818;stroke-width:1.0;"/><polygon fill="#181818" points="1510,474.9837,1514,465.9837,1510,469.9837,1506,465.9837,1510,474.9837" style="stroke:#181818;stroke-width:1.0;"/><text fill="#000000" font-family="sans-serif" font-size="13" lengthAdjust="spacing" textLength="48" x="1511" y="430.042">includes</text><text fill="#000000" font-family="sans-serif" font-size="13" lengthAdjust="spacing" textLength="7" x="1502.4641" y="404.8505">1</text><text fill="#000000" font-family="sans-serif" font-size="13" lengthAdjust="spacing" textLength="7" x="1502.2781" y="463.7608">1</text></g><!--link JobOpening to InterviewPhaseStatus--><g id="link_JobOpening_InterviewPhaseStatus"><path codeLine="152" d="M1559.19,383.1837 C1593.95,411.5637 1635.1833,445.2279 1666.9633,471.1879 " fill="none" id="JobOpening-to-InterviewPhaseStatus" style="stroke:#181818;stroke-width:1.0;"/><polygon fill="#181818" points="1671.61,474.9837,1667.1704,466.1922,1667.7377,471.8205,1662.1094,472.3879,1671.61,474.9837" style="stroke:#181818;stroke-width:1.0;"/><text fill="#000000" font-family="sans-serif" font-size="13" lengthAdjust="spacing" textLength="48" x="1622" y="430.042">includes</text><text fill="#000000" font-family="sans-serif" font-size="13" lengthAdjust="spacing" textLength="7" x="1559.1863" y="404.8505">1</text><text fill="#000000" font-family="sans-serif" font-size="13" lengthAdjust="spacing" textLength="7" x="1656.1764" y="463.7608">1</text></g><!--link JobApplication to JobOpening--><g id="link_JobApplication_JobOpening"><path codeLine="153" d="M818.62,342.0137 C962.63,342.0137 1313.35,342.0137 1449.76,342.0137 " fill="none" id="JobApplication-to-JobOpening" style="stroke:#181818;stroke-width:1.0;"/><polygon fill="#181818" points="1455.76,342.0137,1446.76,338.0137,1450.76,342.0137,1446.76,346.0137,1455.76,342.0137" style="stroke:#181818;stroke-width:1.0;"/><text fill="#000000" font-family="sans-serif" font-size="13" lengthAdjust="spacing" textLength="47" x="1113.75" y="335.042">refers to</text><text fill="#000000" font-family="sans-serif" font-size="13" lengthAdjust="spacing" textLength="5" x="826.4346" y="338.0321">*</text><text fill="#000000" font-family="sans-serif" font-size="13" lengthAdjust="spacing" textLength="7" x="1441.0012" y="337.9285">1</text></g><!--link JobOpening to RecruitmentProcess--><g id="link_JobOpening_RecruitmentProcess"><path codeLine="154" d="M1455.86,367.6037 C1425.34,381.4837 1386.52,399.1737 1352,415.0137 C1313.67,432.5937 1276.6264,449.6863 1241.0364,466.1363 " fill="none" id="JobOpening-to-RecruitmentProcess" style="stroke:#181818;stroke-width:1.0;"/><polygon fill="#181818" points="1235.59,468.6537,1245.4378,468.5085,1240.1286,466.5559,1242.0813,461.2467,1235.59,468.6537" style="stroke:#181818;stroke-width:1.0;"/><text fill="#000000" font-family="sans-serif" font-size="13" lengthAdjust="spacing" textLength="48" x="1353" y="430.042">includes</text><text fill="#000000" font-family="sans-serif" font-size="13" lengthAdjust="spacing" textLength="7" x="1441.1146" y="366.9572">1</text><text fill="#000000" font-family="sans-serif" font-size="13" lengthAdjust="spacing" textLength="7" x="1243.5095" y="461.2837">1</text></g><!--reverse link RecruitmentProcess to Phase--><g id="link_RecruitmentProcess_Phase"><path codeLine="155" d="M1156,559.7237 C1156,584.2737 1156,603.8437 1156,629.8737 " fill="none" id="RecruitmentProcess-backto-Phase" style="stroke:#181818;stroke-width:1.0;"/><polygon fill="#181818" points="1156,547.7237,1152,553.7237,1156,559.7237,1160,553.7237,1156,547.7237" style="stroke:#181818;stroke-width:1.0;"/><text fill="#000000" font-family="sans-serif" font-size="13" lengthAdjust="spacing" textLength="36" x="1157" y="596.042">part of</text><text fill="#000000" font-family="sans-serif" font-size="13" lengthAdjust="spacing" textLength="7" x="1148.4641" y="569.3966">1</text><text fill="#000000" font-family="sans-serif" font-size="13" lengthAdjust="spacing" textLength="22" x="1132.4531" y="618.6421">4..5</text></g><!--SRC=[bLRDJXin4BxxAQnSAY4b5DHU8bG99T062OYWxQ7gnV4wmUt6k_LwgT2A9yeZz9Odw_XdRMysoIuvW3sU-UP_TjuzAPKNuzFJF2L2bUjqHBFrAKr9KGmJJbQIh17A2VrDLWmF9aGaF26AuSlLIh8Ld0OLml0p4dYmtSWiKzj_FyLsmuJYwaMVlTW0amBxMuMCwAlvAp90XTUhDU6fPp5FxTyiqU1BBWymC94OG8HYu-x8sbgW3xZoee1JA4tp5E0FX5VKzF2Pf2N3sU8NeyRJ-LCcs5svNZ1fqAExrP47GWnu6F5gU0j1C61N-kHCPJeqzWWGhr5URhB5PPwdd1B5C_6sv3HbZT8cgP6cWpO_AgBAmeZROrNxsX6-IIabfsLQhcrr-6i0E2g_tL2IWW2uc-ZxPqaIcsPpEgzih905-5OmESqWaE3MJWJnVSu45wj6-9gwGzGU69KbLskWp6L6MM5TRvD3cNqXnKme9fyv-pj_8WLh-BTFYU5oDGMd08KNRCN5jD4WIov86aYjkBLpZqtodTTrujsrGgXNyJyoLUPnxiCTLxqG7jYV4XfPXwo8W72RtW-l6UC8STz3rQyX9vbGab3rzILtComYL3xWHp5kCrUM-X1IcR22IfxhHklb7gJekXGqxjNw7jN7Mr6n7K_to- -44a4vSqbeaQj-PJ4D-WrGT3zkvN7OooIHTQkvyrd0UrIICUMl4oZow2rkbabMGlx2wm-UKyXABzUs6-w-FaowX3om9PDCK5Pdn1DyVSMpPfwMqBq7flIXCMs5x30mnwhFLDurrehEFCtZpQQzyAoyRmDz3ItGInQ-PsAYMVpNMDCDfHVA3P7NF6LUsjrxoUvMfTQiQRKm9Cc5-Mo0XyDF-f-t3eyn5pGjeMZRNCwADW-6L-3H_sfj-vcmutBPq4nrbXAyU6cgz8mw-C0A0mqJ3_P-D3eVu8lXqB25cHuhHgYvQ8tCee72WcVjrW3c1Oztp0axZMQz66hE83q6Ym9ORBNPlOp5gAbjD3BQmWSQePtLn5iKTeJOfPqbo2Y4K02_NGIEy0Pez-co1hQviFCYybJgNY-moX3IazqykzZl3tqqiRkPMmEuMoIgycxcUefsCiPVl1hsS7b5r13RU31sCiUBH1TlUrNe5Dct31mha9E1aMju6pBVL57NUdiPX2wg5UnvrA8d4DKFez77WLtvy3WdKk5iYVu3]--></g></svg>