<?xml version="1.0" encoding="us-ascii" standalone="no"?><svg xmlns="http://www.w3.org/2000/svg" xmlns:xlink="http://www.w3.org/1999/xlink" contentStyleType="text/css" height="1181px" preserveAspectRatio="none" style="width:2002px;height:1181px;background:#FFFFFF;" version="1.1" viewBox="0 0 2002 1181" width="2002px" zoomAndPan="magnify"><defs/><g><text fill="#000000" font-family="sans-serif" font-size="14" font-weight="bold" lengthAdjust="spacing" textLength="659" x="670.5" y="30.1074">"US1017 - Upload a text file with the candidate responses for an interview" Sequence Diagram</text><rect fill="#FFFFFF" height="947.0508" style="stroke:#181818;stroke-width:1.0;" width="10" x="31.5" y="133.2422"/><rect fill="#FFFFFF" height="235.6973" style="stroke:#181818;stroke-width:1.0;" width="10" x="666.5" y="156.5332"/><rect fill="#FFFFFF" height="156.4551" style="stroke:#181818;stroke-width:1.0;" width="10" x="666.5" y="423.5215"/><rect fill="#FFFFFF" height="93.873" style="stroke:#181818;stroke-width:1.0;" width="10" x="666.5" y="611.2676"/><rect fill="#FFFFFF" height="343.8613" style="stroke:#181818;stroke-width:1.0;" width="10" x="666.5" y="736.4316"/><rect fill="#FFFFFF" height="93.873" style="stroke:#181818;stroke-width:1.0;" width="10" x="1009.5" y="267.0664"/><rect fill="#FFFFFF" height="93.873" style="stroke:#181818;stroke-width:1.0;" width="10" x="1009.5" y="454.8125"/><rect fill="#FFFFFF" height="281.2793" style="stroke:#181818;stroke-width:1.0;" width="10" x="1009.5" y="767.7227"/><rect fill="#FFFFFF" height="31.291" style="stroke:#181818;stroke-width:1.0;" width="10" x="1195" y="298.3574"/><rect fill="#FFFFFF" height="31.291" style="stroke:#181818;stroke-width:1.0;" width="10" x="1374.5" y="486.1035"/><rect fill="#FFFFFF" height="31.291" style="stroke:#181818;stroke-width:1.0;" width="10" x="1527.5" y="986.4199"/><rect fill="#FFFFFF" height="31.291" style="stroke:#181818;stroke-width:1.0;" width="10" x="1639" y="799.0137"/><rect fill="#FFFFFF" height="31.291" style="stroke:#181818;stroke-width:1.0;" width="10" x="1768.5" y="642.5586"/><rect fill="#FFFFFF" height="31.291" style="stroke:#181818;stroke-width:1.0;" width="10" x="1921" y="923.8379"/><line style="stroke:#181818;stroke-width:0.5;stroke-dasharray:5.0,5.0;" x1="36" x2="36" y1="123.2422" y2="1098.293"/><line style="stroke:#181818;stroke-width:0.5;stroke-dasharray:5.0,5.0;" x1="671" x2="671" y1="123.2422" y2="1098.293"/><line style="stroke:#181818;stroke-width:0.5;stroke-dasharray:5.0,5.0;" x1="1014" x2="1014" y1="214.1543" y2="1098.293"/><line style="stroke:#181818;stroke-width:0.5;stroke-dasharray:5.0,5.0;" x1="1200" x2="1200" y1="123.2422" y2="1098.293"/><line style="stroke:#181818;stroke-width:0.5;stroke-dasharray:5.0,5.0;" x1="1379" x2="1379" y1="123.2422" y2="1098.293"/><line style="stroke:#181818;stroke-width:0.5;stroke-dasharray:5.0,5.0;" x1="1532" x2="1532" y1="123.2422" y2="1098.293"/><line style="stroke:#181818;stroke-width:0.5;stroke-dasharray:5.0,5.0;" x1="1644" x2="1644" y1="123.2422" y2="1098.293"/><line style="stroke:#181818;stroke-width:0.5;stroke-dasharray:5.0,5.0;" x1="1773" x2="1773" y1="123.2422" y2="1098.293"/><line style="stroke:#181818;stroke-width:0.5;stroke-dasharray:5.0,5.0;" x1="1926" x2="1926" y1="879.4258" y2="1098.293"/><text fill="#000000" font-family="sans-serif" font-size="14" lengthAdjust="spacing" textLength="57" x="5" y="119.7285">Operator</text><ellipse cx="36.5" cy="53.1211" fill="#E3E3E3" rx="8" ry="8" style="stroke:#181818;stroke-width:0.5;"/><path d="M36.5,61.1211 L36.5,88.1211 M23.5,69.1211 L49.5,69.1211 M36.5,88.1211 L23.5,103.1211 M36.5,88.1211 L49.5,103.1211 " fill="none" style="stroke:#181818;stroke-width:0.5;"/><text fill="#000000" font-family="sans-serif" font-size="14" lengthAdjust="spacing" textLength="57" x="5" y="1112.4004">Operator</text><ellipse cx="36.5" cy="1124.4141" fill="#E3E3E3" rx="8" ry="8" style="stroke:#181818;stroke-width:0.5;"/><path d="M36.5,1132.4141 L36.5,1159.4141 M23.5,1140.4141 L49.5,1140.4141 M36.5,1159.4141 L23.5,1174.4141 M36.5,1159.4141 L49.5,1174.4141 " fill="none" style="stroke:#181818;stroke-width:0.5;"/><rect fill="#E3E3E3" height="51.2422" rx="2.5" ry="2.5" style="stroke:#181818;stroke-width:0.5;" width="147" x="598" y="71"/><text fill="#000000" font-family="sans-serif" font-size="14" font-style="italic" lengthAdjust="spacing" textLength="95" x="624" y="93.1074">&#171;presentation&#187;</text><text fill="#000000" font-family="sans-serif" font-size="14" lengthAdjust="spacing" textLength="133" x="605" y="111.7285">:ImportInterviewFileUI</text><rect fill="#E3E3E3" height="51.2422" rx="2.5" ry="2.5" style="stroke:#181818;stroke-width:0.5;" width="147" x="598" y="1097.293"/><text fill="#000000" font-family="sans-serif" font-size="14" font-style="italic" lengthAdjust="spacing" textLength="95" x="624" y="1119.4004">&#171;presentation&#187;</text><text fill="#000000" font-family="sans-serif" font-size="14" lengthAdjust="spacing" textLength="133" x="605" y="1138.0215">:ImportInterviewFileUI</text><text fill="#000000" font-family="sans-serif" font-size="14" font-style="italic" lengthAdjust="spacing" textLength="84" x="969.5" y="1112.4004">&#171;application&#187;</text><text fill="#000000" font-family="sans-serif" font-size="14" lengthAdjust="spacing" textLength="183" x="920" y="1131.0215">:ImportInterviewFileController</text><ellipse cx="1014.5" cy="1150.5352" fill="#E3E3E3" rx="12" ry="12" style="stroke:#181818;stroke-width:0.5;"/><polygon fill="#181818" points="1010.5,1138.5352,1016.5,1133.5352,1014.5,1138.5352,1016.5,1143.5352,1010.5,1138.5352" style="stroke:#181818;stroke-width:1.0;"/><rect fill="#E3E3E3" height="51.2422" rx="2.5" ry="2.5" style="stroke:#181818;stroke-width:0.5;" width="162" x="1119" y="71"/><text fill="#000000" font-family="sans-serif" font-size="14" font-style="italic" lengthAdjust="spacing" textLength="79" x="1160.5" y="93.1074">&#171;repository&#187;</text><text fill="#000000" font-family="sans-serif" font-size="14" lengthAdjust="spacing" textLength="148" x="1126" y="111.7285">:JobOpeningRepository</text><rect fill="#E3E3E3" height="51.2422" rx="2.5" ry="2.5" style="stroke:#181818;stroke-width:0.5;" width="162" x="1119" y="1097.293"/><text fill="#000000" font-family="sans-serif" font-size="14" font-style="italic" lengthAdjust="spacing" textLength="79" x="1160.5" y="1119.4004">&#171;repository&#187;</text><text fill="#000000" font-family="sans-serif" font-size="14" lengthAdjust="spacing" textLength="148" x="1126" y="1138.0215">:JobOpeningRepository</text><rect fill="#E3E3E3" height="51.2422" rx="2.5" ry="2.5" style="stroke:#181818;stroke-width:0.5;" width="177" x="1291" y="71"/><text fill="#000000" font-family="sans-serif" font-size="14" font-style="italic" lengthAdjust="spacing" textLength="79" x="1340" y="93.1074">&#171;repository&#187;</text><text fill="#000000" font-family="sans-serif" font-size="14" lengthAdjust="spacing" textLength="163" x="1298" y="111.7285">:JobApplicationRepository</text><rect fill="#E3E3E3" height="51.2422" rx="2.5" ry="2.5" style="stroke:#181818;stroke-width:0.5;" width="177" x="1291" y="1097.293"/><text fill="#000000" font-family="sans-serif" font-size="14" font-style="italic" lengthAdjust="spacing" textLength="79" x="1340" y="1119.4004">&#171;repository&#187;</text><text fill="#000000" font-family="sans-serif" font-size="14" lengthAdjust="spacing" textLength="163" x="1298" y="1138.0215">:JobApplicationRepository</text><rect fill="#E3E3E3" height="32.6211" rx="2.5" ry="2.5" style="stroke:#181818;stroke-width:0.5;" width="109" x="1478" y="89.6211"/><text fill="#000000" font-family="sans-serif" font-size="14" lengthAdjust="spacing" textLength="95" x="1485" y="111.7285">:JobApplication</text><rect fill="#E3E3E3" height="32.6211" rx="2.5" ry="2.5" style="stroke:#181818;stroke-width:0.5;" width="109" x="1478" y="1097.293"/><text fill="#000000" font-family="sans-serif" font-size="14" lengthAdjust="spacing" textLength="95" x="1485" y="1119.4004">:JobApplication</text><rect fill="#E3E3E3" height="32.6211" rx="2.5" ry="2.5" style="stroke:#181818;stroke-width:0.5;" width="94" x="1597" y="89.6211"/><text fill="#000000" font-family="sans-serif" font-size="14" lengthAdjust="spacing" textLength="80" x="1604" y="111.7285">:JobOpening</text><rect fill="#E3E3E3" height="32.6211" rx="2.5" ry="2.5" style="stroke:#181818;stroke-width:0.5;" width="94" x="1597" y="1097.293"/><text fill="#000000" font-family="sans-serif" font-size="14" lengthAdjust="spacing" textLength="80" x="1604" y="1119.4004">:JobOpening</text><rect fill="#E3E3E3" height="32.6211" rx="2.5" ry="2.5" style="stroke:#181818;stroke-width:0.5;" width="145" x="1701" y="89.6211"/><text fill="#000000" font-family="sans-serif" font-size="14" lengthAdjust="spacing" textLength="131" x="1708" y="111.7285">:ImportFolderReader</text><rect fill="#E3E3E3" height="32.6211" rx="2.5" ry="2.5" style="stroke:#181818;stroke-width:0.5;" width="145" x="1701" y="1097.293"/><text fill="#000000" font-family="sans-serif" font-size="14" lengthAdjust="spacing" textLength="131" x="1708" y="1119.4004">:ImportFolderReader</text><rect fill="#E3E3E3" height="51.2422" rx="2.5" ry="2.5" style="stroke:#181818;stroke-width:0.5;" width="140" x="1856" y="1097.293"/><text fill="#000000" font-family="sans-serif" font-size="14" font-style="italic" lengthAdjust="spacing" textLength="126" x="1863" y="1119.4004">&#171;interviewInterface&#187;</text><text fill="#000000" font-family="sans-serif" font-size="14" lengthAdjust="spacing" textLength="110" x="1871" y="1138.0215">jarClass :jarClass</text><rect fill="#FFFFFF" height="947.0508" style="stroke:#181818;stroke-width:1.0;" width="10" x="31.5" y="133.2422"/><rect fill="#FFFFFF" height="235.6973" style="stroke:#181818;stroke-width:1.0;" width="10" x="666.5" y="156.5332"/><rect fill="#FFFFFF" height="156.4551" style="stroke:#181818;stroke-width:1.0;" width="10" x="666.5" y="423.5215"/><rect fill="#FFFFFF" height="93.873" style="stroke:#181818;stroke-width:1.0;" width="10" x="666.5" y="611.2676"/><rect fill="#FFFFFF" height="343.8613" style="stroke:#181818;stroke-width:1.0;" width="10" x="666.5" y="736.4316"/><rect fill="#FFFFFF" height="93.873" style="stroke:#181818;stroke-width:1.0;" width="10" x="1009.5" y="267.0664"/><rect fill="#FFFFFF" height="93.873" style="stroke:#181818;stroke-width:1.0;" width="10" x="1009.5" y="454.8125"/><rect fill="#FFFFFF" height="281.2793" style="stroke:#181818;stroke-width:1.0;" width="10" x="1009.5" y="767.7227"/><rect fill="#FFFFFF" height="31.291" style="stroke:#181818;stroke-width:1.0;" width="10" x="1195" y="298.3574"/><rect fill="#FFFFFF" height="31.291" style="stroke:#181818;stroke-width:1.0;" width="10" x="1374.5" y="486.1035"/><rect fill="#FFFFFF" height="31.291" style="stroke:#181818;stroke-width:1.0;" width="10" x="1527.5" y="986.4199"/><rect fill="#FFFFFF" height="31.291" style="stroke:#181818;stroke-width:1.0;" width="10" x="1639" y="799.0137"/><rect fill="#FFFFFF" height="31.291" style="stroke:#181818;stroke-width:1.0;" width="10" x="1768.5" y="642.5586"/><rect fill="#FFFFFF" height="31.291" style="stroke:#181818;stroke-width:1.0;" width="10" x="1921" y="923.8379"/><polygon fill="#181818" points="654.5,152.5332,664.5,156.5332,654.5,160.5332,658.5,156.5332" style="stroke:#181818;stroke-width:1.0;"/><line style="stroke:#181818;stroke-width:1.0;" x1="41.5" x2="660.5" y1="156.5332" y2="156.5332"/><text fill="#000000" font-family="sans-serif" font-size="13" font-weight="bold" lengthAdjust="spacing" textLength="7" x="48.5" y="151.2705">1</text><text fill="#000000" font-family="sans-serif" font-size="13" lengthAdjust="spacing" textLength="171" x="59.5" y="151.2705">Asks to select a Job Opening</text><polygon fill="#181818" points="908,183.8242,918,187.8242,908,191.8242,912,187.8242" style="stroke:#181818;stroke-width:1.0;"/><line style="stroke:#181818;stroke-width:1.0;" x1="676.5" x2="914" y1="187.8242" y2="187.8242"/><text fill="#000000" font-family="sans-serif" font-size="13" font-weight="bold" lengthAdjust="spacing" textLength="7" x="683.5" y="182.5615">2</text><text fill="#000000" font-family="sans-serif" font-size="13" lengthAdjust="spacing" textLength="36" x="694.5" y="182.5615">create</text><text fill="#000000" font-family="sans-serif" font-size="14" font-style="italic" lengthAdjust="spacing" textLength="84" x="969.5" y="211.6406">&#171;application&#187;</text><text fill="#000000" font-family="sans-serif" font-size="14" lengthAdjust="spacing" textLength="183" x="920" y="230.2617">:ImportInterviewFileController</text><ellipse cx="1014.5" cy="180.5332" fill="#E3E3E3" rx="12" ry="12" style="stroke:#181818;stroke-width:0.5;"/><polygon fill="#181818" points="1010.5,168.5332,1016.5,163.5332,1014.5,168.5332,1016.5,173.5332,1010.5,168.5332" style="stroke:#181818;stroke-width:1.0;"/><polygon fill="#181818" points="997.5,263.0664,1007.5,267.0664,997.5,271.0664,1001.5,267.0664" style="stroke:#181818;stroke-width:1.0;"/><line style="stroke:#181818;stroke-width:1.0;" x1="676.5" x2="1003.5" y1="267.0664" y2="267.0664"/><text fill="#000000" font-family="sans-serif" font-size="13" font-weight="bold" lengthAdjust="spacing" textLength="7" x="683.5" y="261.8037">3</text><text fill="#000000" font-family="sans-serif" font-size="13" lengthAdjust="spacing" textLength="101" x="694.5" y="261.8037">getJobOpenings()</text><polygon fill="#181818" points="1183,294.3574,1193,298.3574,1183,302.3574,1187,298.3574" style="stroke:#181818;stroke-width:1.0;"/><line style="stroke:#181818;stroke-width:1.0;" x1="1019.5" x2="1189" y1="298.3574" y2="298.3574"/><text fill="#000000" font-family="sans-serif" font-size="13" font-weight="bold" lengthAdjust="spacing" textLength="7" x="1026.5" y="293.0947">4</text><text fill="#000000" font-family="sans-serif" font-size="13" lengthAdjust="spacing" textLength="101" x="1037.5" y="293.0947">getJobOpenings()</text><polygon fill="#181818" points="1030.5,325.6484,1020.5,329.6484,1030.5,333.6484,1026.5,329.6484" style="stroke:#181818;stroke-width:1.0;"/><line style="stroke:#181818;stroke-width:1.0;stroke-dasharray:2.0,2.0;" x1="1024.5" x2="1199" y1="329.6484" y2="329.6484"/><text fill="#000000" font-family="sans-serif" font-size="13" font-weight="bold" lengthAdjust="spacing" textLength="7" x="1036.5" y="324.3857">5</text><text fill="#000000" font-family="sans-serif" font-size="13" lengthAdjust="spacing" textLength="74" x="1047.5" y="324.3857">openingList()</text><polygon fill="#181818" points="687.5,356.9395,677.5,360.9395,687.5,364.9395,683.5,360.9395" style="stroke:#181818;stroke-width:1.0;"/><line style="stroke:#181818;stroke-width:1.0;stroke-dasharray:2.0,2.0;" x1="681.5" x2="1013.5" y1="360.9395" y2="360.9395"/><text fill="#000000" font-family="sans-serif" font-size="13" font-weight="bold" lengthAdjust="spacing" textLength="7" x="693.5" y="355.6768">6</text><text fill="#000000" font-family="sans-serif" font-size="13" lengthAdjust="spacing" textLength="74" x="704.5" y="355.6768">openingList()</text><polygon fill="#181818" points="52.5,388.2305,42.5,392.2305,52.5,396.2305,48.5,392.2305" style="stroke:#181818;stroke-width:1.0;"/><line style="stroke:#181818;stroke-width:1.0;" x1="46.5" x2="670.5" y1="392.2305" y2="392.2305"/><text fill="#000000" font-family="sans-serif" font-size="13" font-weight="bold" lengthAdjust="spacing" textLength="7" x="58.5" y="386.9678">7</text><text fill="#000000" font-family="sans-serif" font-size="13" lengthAdjust="spacing" textLength="372" x="69.5" y="386.9678">Show the list of all job openings and request the selection of one</text><polygon fill="#181818" points="654.5,419.5215,664.5,423.5215,654.5,427.5215,658.5,423.5215" style="stroke:#181818;stroke-width:1.0;"/><line style="stroke:#181818;stroke-width:1.0;" x1="41.5" x2="660.5" y1="423.5215" y2="423.5215"/><text fill="#000000" font-family="sans-serif" font-size="13" font-weight="bold" lengthAdjust="spacing" textLength="7" x="48.5" y="418.2588">8</text><text fill="#000000" font-family="sans-serif" font-size="13" lengthAdjust="spacing" textLength="124" x="59.5" y="418.2588">Selects a jobOpening</text><polygon fill="#181818" points="997.5,450.8125,1007.5,454.8125,997.5,458.8125,1001.5,454.8125" style="stroke:#181818;stroke-width:1.0;"/><line style="stroke:#181818;stroke-width:1.0;" x1="676.5" x2="1003.5" y1="454.8125" y2="454.8125"/><text fill="#000000" font-family="sans-serif" font-size="13" font-weight="bold" lengthAdjust="spacing" textLength="7" x="683.5" y="449.5498">9</text><text fill="#000000" font-family="sans-serif" font-size="13" lengthAdjust="spacing" textLength="246" x="694.5" y="449.5498">getJobApplicationsByOpening(jobOpening)</text><polygon fill="#181818" points="1362.5,482.1035,1372.5,486.1035,1362.5,490.1035,1366.5,486.1035" style="stroke:#181818;stroke-width:1.0;"/><line style="stroke:#181818;stroke-width:1.0;" x1="1019.5" x2="1368.5" y1="486.1035" y2="486.1035"/><text fill="#000000" font-family="sans-serif" font-size="13" font-weight="bold" lengthAdjust="spacing" textLength="14" x="1026.5" y="480.8408">10</text><text fill="#000000" font-family="sans-serif" font-size="13" lengthAdjust="spacing" textLength="177" x="1044.5" y="480.8408">findByJobOpening(jobOpening)</text><polygon fill="#181818" points="1030.5,513.3945,1020.5,517.3945,1030.5,521.3945,1026.5,517.3945" style="stroke:#181818;stroke-width:1.0;"/><line style="stroke:#181818;stroke-width:1.0;stroke-dasharray:2.0,2.0;" x1="1024.5" x2="1378.5" y1="517.3945" y2="517.3945"/><text fill="#000000" font-family="sans-serif" font-size="13" font-weight="bold" lengthAdjust="spacing" textLength="14" x="1036.5" y="512.1318">11</text><text fill="#000000" font-family="sans-serif" font-size="13" lengthAdjust="spacing" textLength="83" x="1054.5" y="512.1318">applicationList</text><polygon fill="#181818" points="687.5,544.6855,677.5,548.6855,687.5,552.6855,683.5,548.6855" style="stroke:#181818;stroke-width:1.0;"/><line style="stroke:#181818;stroke-width:1.0;stroke-dasharray:2.0,2.0;" x1="681.5" x2="1013.5" y1="548.6855" y2="548.6855"/><text fill="#000000" font-family="sans-serif" font-size="13" font-weight="bold" lengthAdjust="spacing" textLength="14" x="693.5" y="543.4229">12</text><text fill="#000000" font-family="sans-serif" font-size="13" lengthAdjust="spacing" textLength="83" x="711.5" y="543.4229">applicationList</text><polygon fill="#181818" points="52.5,575.9766,42.5,579.9766,52.5,583.9766,48.5,579.9766" style="stroke:#181818;stroke-width:1.0;"/><line style="stroke:#181818;stroke-width:1.0;stroke-dasharray:2.0,2.0;" x1="46.5" x2="670.5" y1="579.9766" y2="579.9766"/><text fill="#000000" font-family="sans-serif" font-size="13" font-weight="bold" lengthAdjust="spacing" textLength="14" x="58.5" y="574.7139">13</text><text fill="#000000" font-family="sans-serif" font-size="13" lengthAdjust="spacing" textLength="583" x="76.5" y="574.7139">show the list of all job applications made to the selected job opening and request the selection of one</text><polygon fill="#181818" points="654.5,607.2676,664.5,611.2676,654.5,615.2676,658.5,611.2676" style="stroke:#181818;stroke-width:1.0;"/><line style="stroke:#181818;stroke-width:1.0;" x1="41.5" x2="660.5" y1="611.2676" y2="611.2676"/><text fill="#000000" font-family="sans-serif" font-size="13" font-weight="bold" lengthAdjust="spacing" textLength="14" x="48.5" y="606.0049">14</text><text fill="#000000" font-family="sans-serif" font-size="13" lengthAdjust="spacing" textLength="138" x="66.5" y="606.0049">selects a jobApplication</text><polygon fill="#181818" points="1756.5,638.5586,1766.5,642.5586,1756.5,646.5586,1760.5,642.5586" style="stroke:#181818;stroke-width:1.0;"/><line style="stroke:#181818;stroke-width:1.0;" x1="676.5" x2="1762.5" y1="642.5586" y2="642.5586"/><text fill="#000000" font-family="sans-serif" font-size="13" font-weight="bold" lengthAdjust="spacing" textLength="14" x="683.5" y="637.2959">15</text><text fill="#000000" font-family="sans-serif" font-size="13" lengthAdjust="spacing" textLength="156" x="701.5" y="637.2959">getFilesFromImportFolder()</text><polygon fill="#181818" points="687.5,669.8496,677.5,673.8496,687.5,677.8496,683.5,673.8496" style="stroke:#181818;stroke-width:1.0;"/><line style="stroke:#181818;stroke-width:1.0;stroke-dasharray:2.0,2.0;" x1="681.5" x2="1772.5" y1="673.8496" y2="673.8496"/><text fill="#000000" font-family="sans-serif" font-size="13" font-weight="bold" lengthAdjust="spacing" textLength="14" x="693.5" y="668.5869">16</text><text fill="#000000" font-family="sans-serif" font-size="13" lengthAdjust="spacing" textLength="45" x="711.5" y="668.5869">fileList()</text><polygon fill="#181818" points="52.5,701.1406,42.5,705.1406,52.5,709.1406,48.5,705.1406" style="stroke:#181818;stroke-width:1.0;"/><line style="stroke:#181818;stroke-width:1.0;stroke-dasharray:2.0,2.0;" x1="46.5" x2="670.5" y1="705.1406" y2="705.1406"/><text fill="#000000" font-family="sans-serif" font-size="13" font-weight="bold" lengthAdjust="spacing" textLength="14" x="58.5" y="699.8779">17</text><text fill="#000000" font-family="sans-serif" font-size="13" lengthAdjust="spacing" textLength="303" x="76.5" y="699.8779">show the list of files and request the selection of one</text><polygon fill="#181818" points="654.5,732.4316,664.5,736.4316,654.5,740.4316,658.5,736.4316" style="stroke:#181818;stroke-width:1.0;"/><line style="stroke:#181818;stroke-width:1.0;" x1="41.5" x2="660.5" y1="736.4316" y2="736.4316"/><text fill="#000000" font-family="sans-serif" font-size="13" font-weight="bold" lengthAdjust="spacing" textLength="14" x="48.5" y="731.1689">18</text><text fill="#000000" font-family="sans-serif" font-size="13" lengthAdjust="spacing" textLength="73" x="66.5" y="731.1689">selects a file</text><polygon fill="#181818" points="997.5,763.7227,1007.5,767.7227,997.5,771.7227,1001.5,767.7227" style="stroke:#181818;stroke-width:1.0;"/><line style="stroke:#181818;stroke-width:1.0;" x1="676.5" x2="1003.5" y1="767.7227" y2="767.7227"/><text fill="#000000" font-family="sans-serif" font-size="13" font-weight="bold" lengthAdjust="spacing" textLength="14" x="683.5" y="762.46">19</text><text fill="#000000" font-family="sans-serif" font-size="13" lengthAdjust="spacing" textLength="296" x="701.5" y="762.46">validateAndAddFile(file, jobApplication, jobOpening)</text><polygon fill="#181818" points="1627,795.0137,1637,799.0137,1627,803.0137,1631,799.0137" style="stroke:#181818;stroke-width:1.0;"/><line style="stroke:#181818;stroke-width:1.0;" x1="1019.5" x2="1633" y1="799.0137" y2="799.0137"/><text fill="#000000" font-family="sans-serif" font-size="13" font-weight="bold" lengthAdjust="spacing" textLength="14" x="1026.5" y="793.751">20</text><text fill="#000000" font-family="sans-serif" font-size="13" lengthAdjust="spacing" textLength="111" x="1044.5" y="793.751">getInterviewPlugin()</text><polygon fill="#181818" points="1030.5,826.3047,1020.5,830.3047,1030.5,834.3047,1026.5,830.3047" style="stroke:#181818;stroke-width:1.0;"/><line style="stroke:#181818;stroke-width:1.0;stroke-dasharray:2.0,2.0;" x1="1024.5" x2="1643" y1="830.3047" y2="830.3047"/><text fill="#000000" font-family="sans-serif" font-size="13" font-weight="bold" lengthAdjust="spacing" textLength="14" x="1036.5" y="825.042">21</text><text fill="#000000" font-family="sans-serif" font-size="13" lengthAdjust="spacing" textLength="85" x="1054.5" y="825.042">interviewPlugin</text><polygon fill="#181818" points="1844,857.5957,1854,861.5957,1844,865.5957,1848,861.5957" style="stroke:#181818;stroke-width:1.0;"/><line style="stroke:#181818;stroke-width:1.0;" x1="1019.5" x2="1850" y1="861.5957" y2="861.5957"/><text fill="#000000" font-family="sans-serif" font-size="13" font-weight="bold" lengthAdjust="spacing" textLength="14" x="1026.5" y="856.333">22</text><text fill="#000000" font-family="sans-serif" font-size="13" lengthAdjust="spacing" textLength="36" x="1044.5" y="856.333">create</text><rect fill="#E3E3E3" height="51.2422" rx="2.5" ry="2.5" style="stroke:#181818;stroke-width:0.5;" width="140" x="1856" y="838.3047"/><text fill="#000000" font-family="sans-serif" font-size="14" font-style="italic" lengthAdjust="spacing" textLength="126" x="1863" y="860.4121">&#171;interviewInterface&#187;</text><text fill="#000000" font-family="sans-serif" font-size="14" lengthAdjust="spacing" textLength="110" x="1871" y="879.0332">jarClass :jarClass</text><polygon fill="#181818" points="1909,919.8379,1919,923.8379,1909,927.8379,1913,923.8379" style="stroke:#181818;stroke-width:1.0;"/><line style="stroke:#181818;stroke-width:1.0;" x1="1019.5" x2="1915" y1="923.8379" y2="923.8379"/><text fill="#000000" font-family="sans-serif" font-size="13" font-weight="bold" lengthAdjust="spacing" textLength="14" x="1026.5" y="918.5752">23</text><text fill="#000000" font-family="sans-serif" font-size="13" lengthAdjust="spacing" textLength="49" x="1044.5" y="918.5752">antlr(file)</text><polygon fill="#181818" points="1030.5,951.1289,1020.5,955.1289,1030.5,959.1289,1026.5,955.1289" style="stroke:#181818;stroke-width:1.0;"/><line style="stroke:#181818;stroke-width:1.0;stroke-dasharray:2.0,2.0;" x1="1024.5" x2="1925" y1="955.1289" y2="955.1289"/><text fill="#000000" font-family="sans-serif" font-size="13" font-weight="bold" lengthAdjust="spacing" textLength="14" x="1036.5" y="949.8662">24</text><text fill="#000000" font-family="sans-serif" font-size="13" lengthAdjust="spacing" textLength="25" x="1054.5" y="949.8662">valid</text><polygon fill="#181818" points="1515.5,982.4199,1525.5,986.4199,1515.5,990.4199,1519.5,986.4199" style="stroke:#181818;stroke-width:1.0;"/><line style="stroke:#181818;stroke-width:1.0;" x1="1019.5" x2="1521.5" y1="986.4199" y2="986.4199"/><text fill="#000000" font-family="sans-serif" font-size="13" font-weight="bold" lengthAdjust="spacing" textLength="14" x="1026.5" y="981.1572">25</text><text fill="#000000" font-family="sans-serif" font-size="13" lengthAdjust="spacing" textLength="66" x="1044.5" y="981.1572">addFile(file)</text><polygon fill="#181818" points="1030.5,1013.7109,1020.5,1017.7109,1030.5,1021.7109,1026.5,1017.7109" style="stroke:#181818;stroke-width:1.0;"/><line style="stroke:#181818;stroke-width:1.0;stroke-dasharray:2.0,2.0;" x1="1024.5" x2="1531.5" y1="1017.7109" y2="1017.7109"/><text fill="#000000" font-family="sans-serif" font-size="13" font-weight="bold" lengthAdjust="spacing" textLength="14" x="1036.5" y="1012.4482">26</text><text fill="#000000" font-family="sans-serif" font-size="13" lengthAdjust="spacing" textLength="49" x="1054.5" y="1012.4482">success</text><polygon fill="#181818" points="687.5,1045.002,677.5,1049.002,687.5,1053.002,683.5,1049.002" style="stroke:#181818;stroke-width:1.0;"/><line style="stroke:#181818;stroke-width:1.0;stroke-dasharray:2.0,2.0;" x1="681.5" x2="1013.5" y1="1049.002" y2="1049.002"/><text fill="#000000" font-family="sans-serif" font-size="13" font-weight="bold" lengthAdjust="spacing" textLength="14" x="693.5" y="1043.7393">27</text><text fill="#000000" font-family="sans-serif" font-size="13" lengthAdjust="spacing" textLength="49" x="711.5" y="1043.7393">success</text><polygon fill="#181818" points="47.5,1076.293,37.5,1080.293,47.5,1084.293,43.5,1080.293" style="stroke:#181818;stroke-width:1.0;"/><line style="stroke:#181818;stroke-width:1.0;stroke-dasharray:2.0,2.0;" x1="41.5" x2="670.5" y1="1080.293" y2="1080.293"/><text fill="#000000" font-family="sans-serif" font-size="13" font-weight="bold" lengthAdjust="spacing" textLength="14" x="53.5" y="1075.0303">28</text><text fill="#000000" font-family="sans-serif" font-size="13" lengthAdjust="spacing" textLength="49" x="71.5" y="1075.0303">success</text><!--SRC=[hLNRRk8m47ttLunusMvLfEtJIgX2IbbLeYfY1Si7c7W0jyREsgQKlzznhau8g2irJqayvypud1dRlKcTSSlti3VQf3jhzWZU7f2vUYNZwHlVujAV58B5r7EzLN60st5XZb9lOSELGyRumHjzsA_HCkQb9zXWjRp_SVyJXh3AbE42E7ZyyB2Hj7YKVWT-Xv1oBQJWFgHncT4E7MoC1Qv1Qe_sNU9n04lyUq2T8loIV4lvsRUT54Y1ng_D1-Ef9yXWdg7bz3O0xc0oOrIgbwdCkFOm64ttcR5-Mf4-KHchQHwwciB3GqRvKNlkfT7ZCKkDzjQeVjoaM5HOflgpU246dcLAfXL1E_cpMLDrcWHRO6QSf2fFENQ-8AIj__K1auQt0qx-2vn3dfEBbHNhyrxPdemIQ1V8HRdd84CxyfNRYUBEmQXwAnE68cilSnqtF4KgbWNZv7imdznYGCza1iDnC6G4YNjpu0quLDI0r3rKAPIb5i4rUZKjVeI7iCGGBBcz9PRK8aMmldLQtQ9lzkzkljTHJM4KMFyD7yCnMNO56OFdY_WtuOPDQbD0NwJpRRJ02_WSEApa-Gm-BvwLcoytFXl1ScUE-V0f0eFP05SANadTajFHz0cQHvevMW-1XGVKGo7QQ2mOeqoL0v5_onn3N86wygrhsnLNeivrZwUIuARX-fnPIJ1h8xLuF3L-zRB4H4bB-AHbN3JcGVmBqYTNhFiSGsipGP_SFOAxI_P5l0xsDAfXV1hxKCGcVud7BlOuCgpNvyBZS70K7eStzqJNJtp4bBrSO_Dp9X8eXzTAXhlawWIqu5T535JkYqNPLDdxfIWRwfsh_0PCj4Y421NV1E1THzCxw7RjUQiKVJQcKxoGkBwrVgl3Lkgkk7JOXs-AhlfxrDow1QIxtn9I9qeMyJ7RMQ9MrrxPV3lTrEM0FBU7AzVYB6SPsp278OgaEkCkgMDcTqXJTEwScvqFw8NOMkPM8_N7XhxeQvQORiR-0G00]--></g></svg>