<?xml version="1.0" encoding="us-ascii" standalone="no"?><svg xmlns="http://www.w3.org/2000/svg" xmlns:xlink="http://www.w3.org/1999/xlink" contentStyleType="text/css" height="634.8px" preserveAspectRatio="none" style="width:1356px;height:634px;background:#FFFFFF;" version="1.1" viewBox="0 0 1356 634" width="1356px" zoomAndPan="magnify"><defs/><g><!--cluster Job Opening Aggregate--><g id="cluster_Job Opening Aggregate"><path d="M5.1,3.6082 L105.9,3.6082 A2.25,2.25 0 0 1 107.4,5.1082 L111.6,18.3809 L830.7,18.3809 A1.5,1.5 0 0 1 832.2,19.8809 L832.2,443.4082 A1.5,1.5 0 0 1 830.7,444.9082 L5.1,444.9082 A1.5,1.5 0 0 1 3.6,443.4082 L3.6,5.1082 A1.5,1.5 0 0 1 5.1,3.6082 " fill="none" style="stroke:#000000;stroke-width:0.8999999999999999;"/><line style="stroke:#000000;stroke-width:0.8999999999999999;" x1="3.6" x2="111.6" y1="18.3809" y2="18.3809"/><text fill="#000000" font-family="sans-serif" font-size="8.4" font-weight="bold" lengthAdjust="spacing" textLength="100.2" x="6" y="13.8727">Job Opening Aggregate</text></g><!--cluster Notification Aggregate--><g id="cluster_Notification Aggregate"><path d="M797.1,475.5082 L891.9,475.5082 A2.25,2.25 0 0 1 893.4,477.0082 L897.6,490.2809 L897.9,490.2809 A1.5,1.5 0 0 1 899.4,491.7809 L899.4,543.6082 A1.5,1.5 0 0 1 897.9,545.1082 L797.1,545.1082 A1.5,1.5 0 0 1 795.6,543.6082 L795.6,477.0082 A1.5,1.5 0 0 1 797.1,475.5082 " fill="none" style="stroke:#000000;stroke-width:0.8999999999999999;"/><line style="stroke:#000000;stroke-width:0.8999999999999999;" x1="795.6" x2="897.6" y1="490.2809" y2="490.2809"/><text fill="#000000" font-family="sans-serif" font-size="8.4" font-weight="bold" lengthAdjust="spacing" textLength="94.2" x="798" y="485.7727">Notification Aggregate</text></g><!--cluster Plugin Aggregate--><g id="cluster_Plugin Aggregate"><path d="M848.1,25.8082 L921.3,25.8082 A2.25,2.25 0 0 1 922.8,27.3082 L927,40.5809 L1350.3,40.5809 A1.5,1.5 0 0 1 1351.8,42.0809 L1351.8,224.1082 A1.5,1.5 0 0 1 1350.3,225.6082 L848.1,225.6082 A1.5,1.5 0 0 1 846.6,224.1082 L846.6,27.3082 A1.5,1.5 0 0 1 848.1,25.8082 " fill="none" style="stroke:#000000;stroke-width:0.8999999999999999;"/><line style="stroke:#000000;stroke-width:0.8999999999999999;" x1="846.6" x2="927" y1="40.5809" y2="40.5809"/><text fill="#000000" font-family="sans-serif" font-size="8.4" font-weight="bold" lengthAdjust="spacing" textLength="72.6" x="849" y="36.0727">Plugin Aggregate</text></g><!--cluster JobApplication Aggregate--><g id="cluster_JobApplication Aggregate"><path d="M924.9,352.8082 L1034.1,352.8082 A2.25,2.25 0 0 1 1035.6,354.3082 L1039.8,367.5809 L1301.7,367.5809 A1.5,1.5 0 0 1 1303.2,369.0809 L1303.2,629.1082 A1.5,1.5 0 0 1 1301.7,630.6082 L924.9,630.6082 A1.5,1.5 0 0 1 923.4,629.1082 L923.4,354.3082 A1.5,1.5 0 0 1 924.9,352.8082 " fill="none" style="stroke:#000000;stroke-width:0.8999999999999999;"/><line style="stroke:#000000;stroke-width:0.8999999999999999;" x1="923.4" x2="1039.8" y1="367.5809" y2="367.5809"/><text fill="#000000" font-family="sans-serif" font-size="8.4" font-weight="bold" lengthAdjust="spacing" textLength="108.6" x="925.8" y="363.0727">JobApplication Aggregate</text></g><!--class RecruitmentProcess--><g id="elem_RecruitmentProcess"><rect codeLine="5" fill="#F1F1F1" height="49.118" id="RecruitmentProcess" rx="1.5" ry="1.5" style="stroke:#181818;stroke-width:0.3;" width="95.4" x="110.7" y="264.6082"/><ellipse cx="119.7" cy="278.7809" fill="#ADD1B2" rx="6.6" ry="6.6" style="stroke:#181818;stroke-width:0.6;"/><path d="M121.3594,276.3059 Q121.4531,276.1746 121.5656,276.109 Q121.6781,276.0434 121.8094,276.0434 Q122.0344,276.0434 122.175,276.2027 Q122.3156,276.3527 122.3156,276.7184 L122.3156,277.5902 Q122.3156,277.9559 122.175,278.1152 Q122.0344,278.2746 121.8094,278.2746 Q121.6031,278.2746 121.4812,278.1527 Q121.3594,278.0402 121.2937,277.7309 Q121.2656,277.5152 121.1531,277.4027 Q120.9563,277.1777 120.5906,277.0465 Q120.225,276.9152 119.85,276.9152 Q119.3906,276.9152 119.0063,277.1121 Q118.6313,277.309 118.3313,277.759 Q118.0406,278.209 118.0406,278.8277 L118.0406,279.484 Q118.0406,280.2246 118.575,280.7215 Q119.1094,281.209 120.0656,281.209 Q120.6281,281.209 121.0219,281.059 Q121.2563,280.9652 121.5094,280.7027 Q121.6687,280.5434 121.7531,280.4965 Q121.8469,280.4496 121.9688,280.4496 Q122.1656,280.4496 122.3156,280.609 Q122.475,280.759 122.475,280.9652 Q122.475,281.1715 122.2688,281.4152 Q121.9688,281.7621 121.4906,281.959 Q120.8438,282.2309 120.0656,282.2309 Q119.1563,282.2309 118.4344,281.8559 Q117.8438,281.5559 117.4312,280.9184 Q117.0188,280.2715 117.0188,279.5027 L117.0188,278.809 Q117.0188,278.0121 117.3844,277.3277 Q117.7594,276.634 118.4156,276.2684 Q119.0719,275.8934 119.8125,275.8934 Q120.2531,275.8934 120.6375,275.9965 Q121.0313,276.0902 121.3594,276.3059 Z " fill="#000000"/><text fill="#000000" font-family="sans-serif" font-size="8.4" lengthAdjust="spacing" textLength="30" x="151.2" y="276.6727">&#171;entity&#187;</text><text fill="#000000" font-family="sans-serif" font-size="8.4" lengthAdjust="spacing" textLength="76.2" x="128.1" y="287.8453">RecruitmentProcess</text><line style="stroke:#181818;stroke-width:0.3;" x1="111.3" x2="205.5" y1="292.9535" y2="292.9535"/><text fill="#000000" font-family="sans-serif" font-size="8.4" lengthAdjust="spacing" textLength="71.4" x="114.3" y="304.418">HasInterviewPhase</text><line style="stroke:#181818;stroke-width:0.3;" x1="111.3" x2="205.5" y1="308.9262" y2="308.9262"/></g><!--class Phase--><g id="elem_Phase"><rect codeLine="9" fill="#F1F1F1" height="71.4633" id="Phase" rx="1.5" ry="1.5" style="stroke:#181818;stroke-width:0.3;" width="52.2" x="568.5" y="363.9082"/><ellipse cx="578.85" cy="378.0809" fill="#ADD1B2" rx="6.6" ry="6.6" style="stroke:#181818;stroke-width:0.6;"/><path d="M580.5094,375.6059 Q580.6031,375.4746 580.7156,375.409 Q580.8281,375.3434 580.9594,375.3434 Q581.1844,375.3434 581.325,375.5027 Q581.4656,375.6527 581.4656,376.0184 L581.4656,376.8902 Q581.4656,377.2559 581.325,377.4152 Q581.1844,377.5746 580.9594,377.5746 Q580.7531,377.5746 580.6313,377.4527 Q580.5094,377.3402 580.4438,377.0309 Q580.4156,376.8152 580.3031,376.7027 Q580.1062,376.4777 579.7406,376.3465 Q579.375,376.2152 579,376.2152 Q578.5406,376.2152 578.1563,376.4121 Q577.7813,376.609 577.4812,377.059 Q577.1906,377.509 577.1906,378.1277 L577.1906,378.784 Q577.1906,379.5246 577.725,380.0215 Q578.2594,380.509 579.2156,380.509 Q579.7781,380.509 580.1719,380.359 Q580.4063,380.2652 580.6594,380.0027 Q580.8188,379.8434 580.9031,379.7965 Q580.9969,379.7496 581.1188,379.7496 Q581.3156,379.7496 581.4656,379.909 Q581.625,380.059 581.625,380.2652 Q581.625,380.4715 581.4187,380.7152 Q581.1188,381.0621 580.6406,381.259 Q579.9938,381.5309 579.2156,381.5309 Q578.3063,381.5309 577.5844,381.1559 Q576.9938,380.8559 576.5813,380.2184 Q576.1687,379.5715 576.1687,378.8027 L576.1687,378.109 Q576.1687,377.3121 576.5344,376.6277 Q576.9094,375.934 577.5656,375.5684 Q578.2219,375.1934 578.9625,375.1934 Q579.4031,375.1934 579.7875,375.2965 Q580.1813,375.3902 580.5094,375.6059 Z " fill="#000000"/><text fill="#000000" font-family="sans-serif" font-size="8.4" lengthAdjust="spacing" textLength="30" x="587.55" y="375.9727">&#171;entity&#187;</text><text fill="#000000" font-family="sans-serif" font-size="8.4" lengthAdjust="spacing" textLength="24" x="590.55" y="387.1453">Phase</text><line style="stroke:#181818;stroke-width:0.3;" x1="569.1" x2="620.1" y1="392.2535" y2="392.2535"/><text fill="#000000" font-family="sans-serif" font-size="8.4" lengthAdjust="spacing" textLength="45" x="572.1" y="403.718">phaseName</text><text fill="#000000" font-family="sans-serif" font-size="8.4" lengthAdjust="spacing" textLength="34.8" x="572.1" y="414.8906">startDate</text><text fill="#000000" font-family="sans-serif" font-size="8.4" lengthAdjust="spacing" textLength="32.4" x="572.1" y="426.0633">endDate</text><line style="stroke:#181818;stroke-width:0.3;" x1="569.1" x2="620.1" y1="430.5715" y2="430.5715"/></g><!--class PhaseNames--><g id="elem_PhaseNames"><rect codeLine="15" fill="#F1F1F1" height="37.9453" id="PhaseNames" rx="1.5" ry="1.5" style="stroke:#181818;stroke-width:0.3;" width="74.4" x="256.8" y="270.3082"/><ellipse cx="265.8" cy="284.4809" fill="#ADD1B2" rx="6.6" ry="6.6" style="stroke:#181818;stroke-width:0.6;"/><path d="M267.4594,282.0059 Q267.5531,281.8746 267.6656,281.809 Q267.7781,281.7434 267.9094,281.7434 Q268.1344,281.7434 268.275,281.9027 Q268.4156,282.0527 268.4156,282.4184 L268.4156,283.2902 Q268.4156,283.6559 268.275,283.8152 Q268.1344,283.9746 267.9094,283.9746 Q267.7031,283.9746 267.5813,283.8527 Q267.4594,283.7402 267.3938,283.4309 Q267.3656,283.2152 267.2531,283.1027 Q267.0563,282.8777 266.6906,282.7465 Q266.325,282.6152 265.95,282.6152 Q265.4906,282.6152 265.1063,282.8121 Q264.7313,283.009 264.4313,283.459 Q264.1406,283.909 264.1406,284.5277 L264.1406,285.184 Q264.1406,285.9246 264.675,286.4215 Q265.2094,286.909 266.1656,286.909 Q266.7281,286.909 267.1219,286.759 Q267.3563,286.6652 267.6094,286.4027 Q267.7688,286.2434 267.8531,286.1965 Q267.9469,286.1496 268.0687,286.1496 Q268.2656,286.1496 268.4156,286.309 Q268.575,286.459 268.575,286.6652 Q268.575,286.8715 268.3688,287.1152 Q268.0687,287.4621 267.5906,287.659 Q266.9437,287.9309 266.1656,287.9309 Q265.2562,287.9309 264.5344,287.5559 Q263.9437,287.2559 263.5313,286.6184 Q263.1188,285.9715 263.1188,285.2027 L263.1188,284.509 Q263.1188,283.7121 263.4844,283.0277 Q263.8594,282.334 264.5156,281.9684 Q265.1719,281.5934 265.9125,281.5934 Q266.3531,281.5934 266.7375,281.6965 Q267.1312,281.7902 267.4594,282.0059 Z " fill="#000000"/><text fill="#000000" font-family="sans-serif" font-size="8.4" lengthAdjust="spacing" textLength="55.2" x="274.2" y="282.3727">&#171;value object&#187;</text><text fill="#000000" font-family="sans-serif" font-size="8.4" lengthAdjust="spacing" textLength="49.8" x="276.9" y="293.5453">PhaseNames</text><line style="stroke:#181818;stroke-width:0.3;" x1="257.4" x2="330.6" y1="298.6535" y2="298.6535"/><line style="stroke:#181818;stroke-width:0.3;" x1="257.4" x2="330.6" y1="303.4535" y2="303.4535"/></g><!--class ScreeningPhase--><g id="elem_ScreeningPhase"><rect codeLine="20" fill="#F1F1F1" height="37.9453" id="ScreeningPhase" rx="1.5" ry="1.5" style="stroke:#181818;stroke-width:0.3;" width="81.6" x="741" y="270.3082"/><ellipse cx="750" cy="284.4809" fill="#ADD1B2" rx="6.6" ry="6.6" style="stroke:#181818;stroke-width:0.6;"/><path d="M751.6594,282.0059 Q751.7531,281.8746 751.8656,281.809 Q751.9781,281.7434 752.1094,281.7434 Q752.3344,281.7434 752.475,281.9027 Q752.6156,282.0527 752.6156,282.4184 L752.6156,283.2902 Q752.6156,283.6559 752.475,283.8152 Q752.3344,283.9746 752.1094,283.9746 Q751.9031,283.9746 751.7813,283.8527 Q751.6594,283.7402 751.5938,283.4309 Q751.5656,283.2152 751.4531,283.1027 Q751.2563,282.8777 750.8906,282.7465 Q750.525,282.6152 750.15,282.6152 Q749.6906,282.6152 749.3063,282.8121 Q748.9313,283.009 748.6313,283.459 Q748.3406,283.909 748.3406,284.5277 L748.3406,285.184 Q748.3406,285.9246 748.875,286.4215 Q749.4094,286.909 750.3656,286.909 Q750.9281,286.909 751.3219,286.759 Q751.5563,286.6652 751.8094,286.4027 Q751.9688,286.2434 752.0531,286.1965 Q752.1469,286.1496 752.2688,286.1496 Q752.4656,286.1496 752.6156,286.309 Q752.775,286.459 752.775,286.6652 Q752.775,286.8715 752.5688,287.1152 Q752.2688,287.4621 751.7906,287.659 Q751.1438,287.9309 750.3656,287.9309 Q749.4563,287.9309 748.7344,287.5559 Q748.1438,287.2559 747.7312,286.6184 Q747.3188,285.9715 747.3188,285.2027 L747.3188,284.509 Q747.3188,283.7121 747.6844,283.0277 Q748.0594,282.334 748.7156,281.9684 Q749.3719,281.5934 750.1125,281.5934 Q750.5531,281.5934 750.9375,281.6965 Q751.3313,281.7902 751.6594,282.0059 Z " fill="#000000"/><text fill="#000000" font-family="sans-serif" font-size="8.4" lengthAdjust="spacing" textLength="30" x="774.6" y="282.3727">&#171;entity&#187;</text><text fill="#000000" font-family="sans-serif" font-size="8.4" lengthAdjust="spacing" textLength="62.4" x="758.4" y="293.5453">ScreeningPhase</text><line style="stroke:#181818;stroke-width:0.3;" x1="741.6" x2="822" y1="298.6535" y2="298.6535"/><line style="stroke:#181818;stroke-width:0.3;" x1="741.6" x2="822" y1="303.4535" y2="303.4535"/></g><!--class ResultPhase--><g id="elem_ResultPhase"><rect codeLine="24" fill="#F1F1F1" height="37.9453" id="ResultPhase" rx="1.5" ry="1.5" style="stroke:#181818;stroke-width:0.3;" width="67.2" x="652.8" y="270.3082"/><ellipse cx="661.8" cy="284.4809" fill="#ADD1B2" rx="6.6" ry="6.6" style="stroke:#181818;stroke-width:0.6;"/><path d="M663.4594,282.0059 Q663.5531,281.8746 663.6656,281.809 Q663.7781,281.7434 663.9094,281.7434 Q664.1344,281.7434 664.275,281.9027 Q664.4156,282.0527 664.4156,282.4184 L664.4156,283.2902 Q664.4156,283.6559 664.275,283.8152 Q664.1344,283.9746 663.9094,283.9746 Q663.7031,283.9746 663.5813,283.8527 Q663.4594,283.7402 663.3938,283.4309 Q663.3656,283.2152 663.2531,283.1027 Q663.0563,282.8777 662.6906,282.7465 Q662.325,282.6152 661.95,282.6152 Q661.4906,282.6152 661.1062,282.8121 Q660.7312,283.009 660.4313,283.459 Q660.1406,283.909 660.1406,284.5277 L660.1406,285.184 Q660.1406,285.9246 660.675,286.4215 Q661.2094,286.909 662.1656,286.909 Q662.7281,286.909 663.1219,286.759 Q663.3562,286.6652 663.6094,286.4027 Q663.7688,286.2434 663.8531,286.1965 Q663.9469,286.1496 664.0688,286.1496 Q664.2656,286.1496 664.4156,286.309 Q664.575,286.459 664.575,286.6652 Q664.575,286.8715 664.3688,287.1152 Q664.0688,287.4621 663.5906,287.659 Q662.9438,287.9309 662.1656,287.9309 Q661.2563,287.9309 660.5344,287.5559 Q659.9438,287.2559 659.5313,286.6184 Q659.1188,285.9715 659.1188,285.2027 L659.1188,284.509 Q659.1188,283.7121 659.4844,283.0277 Q659.8594,282.334 660.5156,281.9684 Q661.1719,281.5934 661.9125,281.5934 Q662.3531,281.5934 662.7375,281.6965 Q663.1313,281.7902 663.4594,282.0059 Z " fill="#000000"/><text fill="#000000" font-family="sans-serif" font-size="8.4" lengthAdjust="spacing" textLength="30" x="679.2" y="282.3727">&#171;entity&#187;</text><text fill="#000000" font-family="sans-serif" font-size="8.4" lengthAdjust="spacing" textLength="48" x="670.2" y="293.5453">ResultPhase</text><line style="stroke:#181818;stroke-width:0.3;" x1="653.4" x2="719.4" y1="298.6535" y2="298.6535"/><line style="stroke:#181818;stroke-width:0.3;" x1="653.4" x2="719.4" y1="303.4535" y2="303.4535"/></g><!--class AnalysisPhase--><g id="elem_AnalysisPhase"><rect codeLine="27" fill="#F1F1F1" height="37.9453" id="AnalysisPhase" rx="1.5" ry="1.5" style="stroke:#181818;stroke-width:0.3;" width="74.4" x="557.4" y="270.3082"/><ellipse cx="566.4" cy="284.4809" fill="#ADD1B2" rx="6.6" ry="6.6" style="stroke:#181818;stroke-width:0.6;"/><path d="M568.0594,282.0059 Q568.1531,281.8746 568.2656,281.809 Q568.3781,281.7434 568.5094,281.7434 Q568.7344,281.7434 568.875,281.9027 Q569.0156,282.0527 569.0156,282.4184 L569.0156,283.2902 Q569.0156,283.6559 568.875,283.8152 Q568.7344,283.9746 568.5094,283.9746 Q568.3031,283.9746 568.1813,283.8527 Q568.0594,283.7402 567.9938,283.4309 Q567.9656,283.2152 567.8531,283.1027 Q567.6563,282.8777 567.2906,282.7465 Q566.925,282.6152 566.55,282.6152 Q566.0906,282.6152 565.7063,282.8121 Q565.3313,283.009 565.0313,283.459 Q564.7406,283.909 564.7406,284.5277 L564.7406,285.184 Q564.7406,285.9246 565.275,286.4215 Q565.8094,286.909 566.7656,286.909 Q567.3281,286.909 567.7219,286.759 Q567.9563,286.6652 568.2094,286.4027 Q568.3688,286.2434 568.4531,286.1965 Q568.5469,286.1496 568.6687,286.1496 Q568.8656,286.1496 569.0156,286.309 Q569.175,286.459 569.175,286.6652 Q569.175,286.8715 568.9688,287.1152 Q568.6687,287.4621 568.1906,287.659 Q567.5437,287.9309 566.7656,287.9309 Q565.8562,287.9309 565.1344,287.5559 Q564.5437,287.2559 564.1313,286.6184 Q563.7188,285.9715 563.7188,285.2027 L563.7188,284.509 Q563.7188,283.7121 564.0844,283.0277 Q564.4594,282.334 565.1156,281.9684 Q565.7719,281.5934 566.5125,281.5934 Q566.9531,281.5934 567.3375,281.6965 Q567.7312,281.7902 568.0594,282.0059 Z " fill="#000000"/><text fill="#000000" font-family="sans-serif" font-size="8.4" lengthAdjust="spacing" textLength="30" x="587.4" y="282.3727">&#171;entity&#187;</text><text fill="#000000" font-family="sans-serif" font-size="8.4" lengthAdjust="spacing" textLength="55.2" x="574.8" y="293.5453">AnalysisPhase</text><line style="stroke:#181818;stroke-width:0.3;" x1="558" x2="631.2" y1="298.6535" y2="298.6535"/><line style="stroke:#181818;stroke-width:0.3;" x1="558" x2="631.2" y1="303.4535" y2="303.4535"/></g><!--class JobOpening--><g id="elem_JobOpening"><rect codeLine="31" fill="#F1F1F1" height="49.118" id="JobOpening" rx="1.5" ry="1.5" style="stroke:#181818;stroke-width:0.3;" width="64.8" x="509.4" y="166.8082"/><ellipse cx="518.4" cy="186.5672" fill="#ADD1B2" rx="6.6" ry="6.6" style="stroke:#181818;stroke-width:0.6;"/><path d="M520.0594,184.0922 Q520.1531,183.9609 520.2656,183.8953 Q520.3781,183.8297 520.5094,183.8297 Q520.7344,183.8297 520.875,183.9891 Q521.0156,184.1391 521.0156,184.5047 L521.0156,185.3766 Q521.0156,185.7422 520.875,185.9016 Q520.7344,186.0609 520.5094,186.0609 Q520.3031,186.0609 520.1813,185.9391 Q520.0594,185.8266 519.9938,185.5172 Q519.9656,185.3016 519.8531,185.1891 Q519.6563,184.9641 519.2906,184.8328 Q518.925,184.7016 518.55,184.7016 Q518.0906,184.7016 517.7063,184.8984 Q517.3313,185.0953 517.0313,185.5453 Q516.7406,185.9953 516.7406,186.6141 L516.7406,187.2703 Q516.7406,188.0109 517.275,188.5078 Q517.8094,188.9953 518.7656,188.9953 Q519.3281,188.9953 519.7219,188.8453 Q519.9563,188.7516 520.2094,188.4891 Q520.3688,188.3297 520.4531,188.2828 Q520.5469,188.2359 520.6687,188.2359 Q520.8656,188.2359 521.0156,188.3953 Q521.175,188.5453 521.175,188.7516 Q521.175,188.9578 520.9688,189.2016 Q520.6687,189.5484 520.1906,189.7453 Q519.5437,190.0172 518.7656,190.0172 Q517.8562,190.0172 517.1344,189.6422 Q516.5437,189.3422 516.1313,188.7047 Q515.7188,188.0578 515.7188,187.2891 L515.7188,186.5953 Q515.7188,185.7984 516.0844,185.1141 Q516.4594,184.4203 517.1156,184.0547 Q517.7719,183.6797 518.5125,183.6797 Q518.9531,183.6797 519.3375,183.7828 Q519.7312,183.8766 520.0594,184.0922 Z " fill="#000000"/><text fill="#000000" font-family="sans-serif" font-size="8.4" lengthAdjust="spacing" textLength="24.6" x="537.3" y="178.8727">&#171;root&#187;</text><text fill="#000000" font-family="sans-serif" font-size="8.4" lengthAdjust="spacing" textLength="30" x="533.4" y="190.0453">&#171;entity&#187;</text><text fill="#000000" font-family="sans-serif" font-size="8.4" lengthAdjust="spacing" textLength="45.6" x="526.8" y="201.218">JobOpening</text><line style="stroke:#181818;stroke-width:0.3;" x1="510" x2="573.6" y1="206.3262" y2="206.3262"/><line style="stroke:#181818;stroke-width:0.3;" x1="510" x2="573.6" y1="211.1262" y2="211.1262"/></g><!--class JogOpeningStatus--><g id="elem_JogOpeningStatus"><rect codeLine="36" fill="#F1F1F1" height="37.9453" id="JogOpeningStatus" rx="1.5" ry="1.5" style="stroke:#181818;stroke-width:0.3;" width="88.8" x="352.2" y="270.3082"/><ellipse cx="361.2" cy="284.4809" fill="#ADD1B2" rx="6.6" ry="6.6" style="stroke:#181818;stroke-width:0.6;"/><path d="M362.8594,282.0059 Q362.9531,281.8746 363.0656,281.809 Q363.1781,281.7434 363.3094,281.7434 Q363.5344,281.7434 363.675,281.9027 Q363.8156,282.0527 363.8156,282.4184 L363.8156,283.2902 Q363.8156,283.6559 363.675,283.8152 Q363.5344,283.9746 363.3094,283.9746 Q363.1031,283.9746 362.9813,283.8527 Q362.8594,283.7402 362.7938,283.4309 Q362.7656,283.2152 362.6531,283.1027 Q362.4563,282.8777 362.0906,282.7465 Q361.725,282.6152 361.35,282.6152 Q360.8906,282.6152 360.5062,282.8121 Q360.1312,283.009 359.8313,283.459 Q359.5406,283.909 359.5406,284.5277 L359.5406,285.184 Q359.5406,285.9246 360.075,286.4215 Q360.6094,286.909 361.5656,286.909 Q362.1281,286.909 362.5219,286.759 Q362.7562,286.6652 363.0094,286.4027 Q363.1688,286.2434 363.2531,286.1965 Q363.3469,286.1496 363.4688,286.1496 Q363.6656,286.1496 363.8156,286.309 Q363.975,286.459 363.975,286.6652 Q363.975,286.8715 363.7688,287.1152 Q363.4688,287.4621 362.9906,287.659 Q362.3438,287.9309 361.5656,287.9309 Q360.6563,287.9309 359.9344,287.5559 Q359.3438,287.2559 358.9313,286.6184 Q358.5188,285.9715 358.5188,285.2027 L358.5188,284.509 Q358.5188,283.7121 358.8844,283.0277 Q359.2594,282.334 359.9156,281.9684 Q360.5719,281.5934 361.3125,281.5934 Q361.7531,281.5934 362.1375,281.6965 Q362.5313,281.7902 362.8594,282.0059 Z " fill="#000000"/><text fill="#000000" font-family="sans-serif" font-size="8.4" lengthAdjust="spacing" textLength="55.2" x="376.8" y="282.3727">&#171;value object&#187;</text><text fill="#000000" font-family="sans-serif" font-size="8.4" lengthAdjust="spacing" textLength="69.6" x="369.6" y="293.5453">JogOpeningStatus</text><line style="stroke:#181818;stroke-width:0.3;" x1="352.8" x2="440.4" y1="298.6535" y2="298.6535"/><line style="stroke:#181818;stroke-width:0.3;" x1="352.8" x2="440.4" y1="303.4535" y2="303.4535"/></g><!--class ContractType--><g id="elem_ContractType"><rect codeLine="39" fill="#F1F1F1" height="37.9453" id="ContractType" rx="1.5" ry="1.5" style="stroke:#181818;stroke-width:0.3;" width="74.4" x="731.4" y="53.7082"/><ellipse cx="740.4" cy="67.8809" fill="#ADD1B2" rx="6.6" ry="6.6" style="stroke:#181818;stroke-width:0.6;"/><path d="M742.0594,65.4059 Q742.1531,65.2746 742.2656,65.209 Q742.3781,65.1434 742.5094,65.1434 Q742.7344,65.1434 742.875,65.3027 Q743.0156,65.4527 743.0156,65.8184 L743.0156,66.6902 Q743.0156,67.0559 742.875,67.2152 Q742.7344,67.3746 742.5094,67.3746 Q742.3031,67.3746 742.1813,67.2527 Q742.0594,67.1402 741.9938,66.8309 Q741.9656,66.6152 741.8531,66.5027 Q741.6563,66.2777 741.2906,66.1465 Q740.925,66.0152 740.55,66.0152 Q740.0906,66.0152 739.7063,66.2121 Q739.3313,66.409 739.0313,66.859 Q738.7406,67.309 738.7406,67.9277 L738.7406,68.584 Q738.7406,69.3246 739.275,69.8215 Q739.8094,70.309 740.7656,70.309 Q741.3281,70.309 741.7219,70.159 Q741.9563,70.0652 742.2094,69.8027 Q742.3688,69.6434 742.4531,69.5965 Q742.5469,69.5496 742.6687,69.5496 Q742.8656,69.5496 743.0156,69.709 Q743.175,69.859 743.175,70.0652 Q743.175,70.2715 742.9688,70.5152 Q742.6687,70.8621 742.1906,71.059 Q741.5437,71.3309 740.7656,71.3309 Q739.8562,71.3309 739.1344,70.9559 Q738.5437,70.6559 738.1313,70.0184 Q737.7188,69.3715 737.7188,68.6027 L737.7188,67.909 Q737.7188,67.1121 738.0844,66.4277 Q738.4594,65.734 739.1156,65.3684 Q739.7719,64.9934 740.5125,64.9934 Q740.9531,64.9934 741.3375,65.0965 Q741.7312,65.1902 742.0594,65.4059 Z " fill="#000000"/><text fill="#000000" font-family="sans-serif" font-size="8.4" lengthAdjust="spacing" textLength="55.2" x="748.8" y="65.7727">&#171;value object&#187;</text><text fill="#000000" font-family="sans-serif" font-size="8.4" lengthAdjust="spacing" textLength="51.6" x="750.6" y="76.9453">ContractType</text><line style="stroke:#181818;stroke-width:0.3;" x1="732" x2="805.2" y1="82.0535" y2="82.0535"/><line style="stroke:#181818;stroke-width:0.3;" x1="732" x2="805.2" y1="86.8535" y2="86.8535"/></g><!--class Mode--><g id="elem_Mode"><rect codeLine="42" fill="#F1F1F1" height="37.9453" id="Mode" rx="1.5" ry="1.5" style="stroke:#181818;stroke-width:0.3;" width="74.4" x="636" y="53.7082"/><ellipse cx="645" cy="67.8809" fill="#ADD1B2" rx="6.6" ry="6.6" style="stroke:#181818;stroke-width:0.6;"/><path d="M646.6594,65.4059 Q646.7531,65.2746 646.8656,65.209 Q646.9781,65.1434 647.1094,65.1434 Q647.3344,65.1434 647.475,65.3027 Q647.6156,65.4527 647.6156,65.8184 L647.6156,66.6902 Q647.6156,67.0559 647.475,67.2152 Q647.3344,67.3746 647.1094,67.3746 Q646.9031,67.3746 646.7813,67.2527 Q646.6594,67.1402 646.5938,66.8309 Q646.5656,66.6152 646.4531,66.5027 Q646.2563,66.2777 645.8906,66.1465 Q645.525,66.0152 645.15,66.0152 Q644.6906,66.0152 644.3063,66.2121 Q643.9313,66.409 643.6313,66.859 Q643.3406,67.309 643.3406,67.9277 L643.3406,68.584 Q643.3406,69.3246 643.875,69.8215 Q644.4094,70.309 645.3656,70.309 Q645.9281,70.309 646.3219,70.159 Q646.5563,70.0652 646.8094,69.8027 Q646.9688,69.6434 647.0531,69.5965 Q647.1469,69.5496 647.2688,69.5496 Q647.4656,69.5496 647.6156,69.709 Q647.775,69.859 647.775,70.0652 Q647.775,70.2715 647.5688,70.5152 Q647.2688,70.8621 646.7906,71.059 Q646.1438,71.3309 645.3656,71.3309 Q644.4563,71.3309 643.7344,70.9559 Q643.1438,70.6559 642.7312,70.0184 Q642.3188,69.3715 642.3188,68.6027 L642.3188,67.909 Q642.3188,67.1121 642.6844,66.4277 Q643.0594,65.734 643.7156,65.3684 Q644.3719,64.9934 645.1125,64.9934 Q645.5531,64.9934 645.9375,65.0965 Q646.3313,65.1902 646.6594,65.4059 Z " fill="#000000"/><text fill="#000000" font-family="sans-serif" font-size="8.4" lengthAdjust="spacing" textLength="55.2" x="653.4" y="65.7727">&#171;value object&#187;</text><text fill="#000000" font-family="sans-serif" font-size="8.4" lengthAdjust="spacing" textLength="21" x="670.5" y="76.9453">Mode</text><line style="stroke:#181818;stroke-width:0.3;" x1="636.6" x2="709.8" y1="82.0535" y2="82.0535"/><line style="stroke:#181818;stroke-width:0.3;" x1="636.6" x2="709.8" y1="86.8535" y2="86.8535"/></g><!--class JobFunction--><g id="elem_JobFunction"><rect codeLine="46" fill="#F1F1F1" height="37.9453" id="JobFunction" rx="1.5" ry="1.5" style="stroke:#181818;stroke-width:0.3;" width="74.4" x="540.6" y="53.7082"/><ellipse cx="549.6" cy="67.8809" fill="#ADD1B2" rx="6.6" ry="6.6" style="stroke:#181818;stroke-width:0.6;"/><path d="M551.2594,65.4059 Q551.3531,65.2746 551.4656,65.209 Q551.5781,65.1434 551.7094,65.1434 Q551.9344,65.1434 552.075,65.3027 Q552.2156,65.4527 552.2156,65.8184 L552.2156,66.6902 Q552.2156,67.0559 552.075,67.2152 Q551.9344,67.3746 551.7094,67.3746 Q551.5031,67.3746 551.3813,67.2527 Q551.2594,67.1402 551.1938,66.8309 Q551.1656,66.6152 551.0531,66.5027 Q550.8562,66.2777 550.4906,66.1465 Q550.125,66.0152 549.75,66.0152 Q549.2906,66.0152 548.9063,66.2121 Q548.5313,66.409 548.2312,66.859 Q547.9406,67.309 547.9406,67.9277 L547.9406,68.584 Q547.9406,69.3246 548.475,69.8215 Q549.0094,70.309 549.9656,70.309 Q550.5281,70.309 550.9219,70.159 Q551.1563,70.0652 551.4094,69.8027 Q551.5688,69.6434 551.6531,69.5965 Q551.7469,69.5496 551.8688,69.5496 Q552.0656,69.5496 552.2156,69.709 Q552.375,69.859 552.375,70.0652 Q552.375,70.2715 552.1687,70.5152 Q551.8688,70.8621 551.3906,71.059 Q550.7438,71.3309 549.9656,71.3309 Q549.0563,71.3309 548.3344,70.9559 Q547.7438,70.6559 547.3313,70.0184 Q546.9187,69.3715 546.9187,68.6027 L546.9187,67.909 Q546.9187,67.1121 547.2844,66.4277 Q547.6594,65.734 548.3156,65.3684 Q548.9719,64.9934 549.7125,64.9934 Q550.1531,64.9934 550.5375,65.0965 Q550.9313,65.1902 551.2594,65.4059 Z " fill="#000000"/><text fill="#000000" font-family="sans-serif" font-size="8.4" lengthAdjust="spacing" textLength="55.2" x="558" y="65.7727">&#171;value object&#187;</text><text fill="#000000" font-family="sans-serif" font-size="8.4" lengthAdjust="spacing" textLength="46.2" x="562.5" y="76.9453">JobFunction</text><line style="stroke:#181818;stroke-width:0.3;" x1="541.2" x2="614.4" y1="82.0535" y2="82.0535"/><line style="stroke:#181818;stroke-width:0.3;" x1="541.2" x2="614.4" y1="86.8535" y2="86.8535"/></g><!--class NumberOfVacancies--><g id="elem_NumberOfVacancies"><rect codeLine="50" fill="#F1F1F1" height="37.9453" id="NumberOfVacancies" rx="1.5" ry="1.5" style="stroke:#181818;stroke-width:0.3;" width="99" x="420.3" y="53.7082"/><ellipse cx="429.3" cy="67.8809" fill="#ADD1B2" rx="6.6" ry="6.6" style="stroke:#181818;stroke-width:0.6;"/><path d="M430.9594,65.4059 Q431.0531,65.2746 431.1656,65.209 Q431.2781,65.1434 431.4094,65.1434 Q431.6344,65.1434 431.775,65.3027 Q431.9156,65.4527 431.9156,65.8184 L431.9156,66.6902 Q431.9156,67.0559 431.775,67.2152 Q431.6344,67.3746 431.4094,67.3746 Q431.2031,67.3746 431.0813,67.2527 Q430.9594,67.1402 430.8938,66.8309 Q430.8656,66.6152 430.7531,66.5027 Q430.5563,66.2777 430.1906,66.1465 Q429.825,66.0152 429.45,66.0152 Q428.9906,66.0152 428.6063,66.2121 Q428.2313,66.409 427.9313,66.859 Q427.6406,67.309 427.6406,67.9277 L427.6406,68.584 Q427.6406,69.3246 428.175,69.8215 Q428.7094,70.309 429.6656,70.309 Q430.2281,70.309 430.6219,70.159 Q430.8563,70.0652 431.1094,69.8027 Q431.2688,69.6434 431.3531,69.5965 Q431.4469,69.5496 431.5687,69.5496 Q431.7656,69.5496 431.9156,69.709 Q432.075,69.859 432.075,70.0652 Q432.075,70.2715 431.8688,70.5152 Q431.5687,70.8621 431.0906,71.059 Q430.4437,71.3309 429.6656,71.3309 Q428.7562,71.3309 428.0344,70.9559 Q427.4437,70.6559 427.0313,70.0184 Q426.6188,69.3715 426.6188,68.6027 L426.6188,67.909 Q426.6188,67.1121 426.9844,66.4277 Q427.3594,65.734 428.0156,65.3684 Q428.6719,64.9934 429.4125,64.9934 Q429.8531,64.9934 430.2375,65.0965 Q430.6312,65.1902 430.9594,65.4059 Z " fill="#000000"/><text fill="#000000" font-family="sans-serif" font-size="8.4" lengthAdjust="spacing" textLength="55.2" x="450" y="65.7727">&#171;value object&#187;</text><text fill="#000000" font-family="sans-serif" font-size="8.4" lengthAdjust="spacing" textLength="77.4" x="440.1" y="76.9453">NumberOfVacancies</text><line style="stroke:#181818;stroke-width:0.3;" x1="420.9" x2="518.7" y1="82.0535" y2="82.0535"/><line style="stroke:#181818;stroke-width:0.3;" x1="420.9" x2="518.7" y1="86.8535" y2="86.8535"/></g><!--class Description--><g id="elem_Description"><rect codeLine="54" fill="#F1F1F1" height="37.9453" id="Description" rx="1.5" ry="1.5" style="stroke:#181818;stroke-width:0.3;" width="74.4" x="324.6" y="53.7082"/><ellipse cx="333.6" cy="67.8809" fill="#ADD1B2" rx="6.6" ry="6.6" style="stroke:#181818;stroke-width:0.6;"/><path d="M335.2594,65.4059 Q335.3531,65.2746 335.4656,65.209 Q335.5781,65.1434 335.7094,65.1434 Q335.9344,65.1434 336.075,65.3027 Q336.2156,65.4527 336.2156,65.8184 L336.2156,66.6902 Q336.2156,67.0559 336.075,67.2152 Q335.9344,67.3746 335.7094,67.3746 Q335.5031,67.3746 335.3812,67.2527 Q335.2594,67.1402 335.1937,66.8309 Q335.1656,66.6152 335.0531,66.5027 Q334.8563,66.2777 334.4906,66.1465 Q334.125,66.0152 333.75,66.0152 Q333.2906,66.0152 332.9063,66.2121 Q332.5313,66.409 332.2313,66.859 Q331.9406,67.309 331.9406,67.9277 L331.9406,68.584 Q331.9406,69.3246 332.475,69.8215 Q333.0094,70.309 333.9656,70.309 Q334.5281,70.309 334.9219,70.159 Q335.1563,70.0652 335.4094,69.8027 Q335.5687,69.6434 335.6531,69.5965 Q335.7469,69.5496 335.8688,69.5496 Q336.0656,69.5496 336.2156,69.709 Q336.375,69.859 336.375,70.0652 Q336.375,70.2715 336.1688,70.5152 Q335.8688,70.8621 335.3906,71.059 Q334.7438,71.3309 333.9656,71.3309 Q333.0563,71.3309 332.3344,70.9559 Q331.7438,70.6559 331.3313,70.0184 Q330.9188,69.3715 330.9188,68.6027 L330.9188,67.909 Q330.9188,67.1121 331.2844,66.4277 Q331.6594,65.734 332.3156,65.3684 Q332.9719,64.9934 333.7125,64.9934 Q334.1531,64.9934 334.5375,65.0965 Q334.9313,65.1902 335.2594,65.4059 Z " fill="#000000"/><text fill="#000000" font-family="sans-serif" font-size="8.4" lengthAdjust="spacing" textLength="55.2" x="342" y="65.7727">&#171;value object&#187;</text><text fill="#000000" font-family="sans-serif" font-size="8.4" lengthAdjust="spacing" textLength="42.6" x="348.3" y="76.9453">Description</text><line style="stroke:#181818;stroke-width:0.3;" x1="325.2" x2="398.4" y1="82.0535" y2="82.0535"/><line style="stroke:#181818;stroke-width:0.3;" x1="325.2" x2="398.4" y1="86.8535" y2="86.8535"/></g><!--class Address1--><g id="elem_Address1"><rect codeLine="59" fill="#F1F1F1" height="93.8086" id="Address1" rx="1.5" ry="1.5" style="stroke:#181818;stroke-width:0.3;" width="74.4" x="229.2" y="25.8082"/><ellipse cx="238.2" cy="39.9809" fill="#ADD1B2" rx="6.6" ry="6.6" style="stroke:#181818;stroke-width:0.6;"/><path d="M239.8594,37.5059 Q239.9531,37.3746 240.0656,37.309 Q240.1781,37.2434 240.3094,37.2434 Q240.5344,37.2434 240.675,37.4027 Q240.8156,37.5527 240.8156,37.9184 L240.8156,38.7902 Q240.8156,39.1559 240.675,39.3152 Q240.5344,39.4746 240.3094,39.4746 Q240.1031,39.4746 239.9813,39.3527 Q239.8594,39.2402 239.7938,38.9309 Q239.7656,38.7152 239.6531,38.6027 Q239.4562,38.3777 239.0906,38.2465 Q238.725,38.1152 238.35,38.1152 Q237.8906,38.1152 237.5063,38.3121 Q237.1313,38.509 236.8312,38.959 Q236.5406,39.409 236.5406,40.0277 L236.5406,40.684 Q236.5406,41.4246 237.075,41.9215 Q237.6094,42.409 238.5656,42.409 Q239.1281,42.409 239.5219,42.259 Q239.7563,42.1652 240.0094,41.9027 Q240.1688,41.7434 240.2531,41.6965 Q240.3469,41.6496 240.4688,41.6496 Q240.6656,41.6496 240.8156,41.809 Q240.975,41.959 240.975,42.1652 Q240.975,42.3715 240.7687,42.6152 Q240.4688,42.9621 239.9906,43.159 Q239.3438,43.4309 238.5656,43.4309 Q237.6563,43.4309 236.9344,43.0559 Q236.3438,42.7559 235.9312,42.1184 Q235.5187,41.4715 235.5187,40.7027 L235.5187,40.009 Q235.5187,39.2121 235.8844,38.5277 Q236.2594,37.834 236.9156,37.4684 Q237.5719,37.0934 238.3125,37.0934 Q238.7531,37.0934 239.1375,37.1965 Q239.5313,37.2902 239.8594,37.5059 Z " fill="#000000"/><text fill="#000000" font-family="sans-serif" font-size="8.4" lengthAdjust="spacing" textLength="55.2" x="246.6" y="37.8727">&#171;value object&#187;</text><text fill="#000000" font-family="sans-serif" font-size="8.4" lengthAdjust="spacing" textLength="31.2" x="258.6" y="49.0453">Address</text><line style="stroke:#181818;stroke-width:0.3;" x1="229.8" x2="303" y1="54.1535" y2="54.1535"/><text fill="#000000" font-family="sans-serif" font-size="8.4" lengthAdjust="spacing" textLength="22.8" x="232.8" y="65.618">Street</text><text fill="#000000" font-family="sans-serif" font-size="8.4" lengthAdjust="spacing" textLength="14.4" x="232.8" y="76.7906">City</text><text fill="#000000" font-family="sans-serif" font-size="8.4" lengthAdjust="spacing" textLength="19.8" x="232.8" y="87.9633">State</text><text fill="#000000" font-family="sans-serif" font-size="8.4" lengthAdjust="spacing" textLength="30" x="232.8" y="99.1359">Country</text><text fill="#000000" font-family="sans-serif" font-size="8.4" lengthAdjust="spacing" textLength="30" x="232.8" y="110.3086">Zipcode</text><line style="stroke:#181818;stroke-width:0.3;" x1="229.8" x2="303" y1="114.8168" y2="114.8168"/></g><!--class JobReference--><g id="elem_JobReference"><rect codeLine="67" fill="#F1F1F1" height="49.118" id="JobReference" rx="1.5" ry="1.5" style="stroke:#181818;stroke-width:0.3;" width="74.4" x="462" y="264.6082"/><ellipse cx="471" cy="284.3672" fill="#ADD1B2" rx="6.6" ry="6.6" style="stroke:#181818;stroke-width:0.6;"/><path d="M472.6594,281.8922 Q472.7531,281.7609 472.8656,281.6953 Q472.9781,281.6297 473.1094,281.6297 Q473.3344,281.6297 473.475,281.7891 Q473.6156,281.9391 473.6156,282.3047 L473.6156,283.1766 Q473.6156,283.5422 473.475,283.7016 Q473.3344,283.8609 473.1094,283.8609 Q472.9031,283.8609 472.7813,283.7391 Q472.6594,283.6266 472.5938,283.3172 Q472.5656,283.1016 472.4531,282.9891 Q472.2562,282.7641 471.8906,282.6328 Q471.525,282.5016 471.15,282.5016 Q470.6906,282.5016 470.3063,282.6984 Q469.9313,282.8953 469.6312,283.3453 Q469.3406,283.7953 469.3406,284.4141 L469.3406,285.0703 Q469.3406,285.8109 469.875,286.3078 Q470.4094,286.7953 471.3656,286.7953 Q471.9281,286.7953 472.3219,286.6453 Q472.5563,286.5516 472.8094,286.2891 Q472.9688,286.1297 473.0531,286.0828 Q473.1469,286.0359 473.2687,286.0359 Q473.4656,286.0359 473.6156,286.1953 Q473.775,286.3453 473.775,286.5516 Q473.775,286.7578 473.5687,287.0016 Q473.2687,287.3484 472.7906,287.5453 Q472.1437,287.8172 471.3656,287.8172 Q470.4562,287.8172 469.7344,287.4422 Q469.1437,287.1422 468.7313,286.5047 Q468.3187,285.8578 468.3187,285.0891 L468.3187,284.3953 Q468.3187,283.5984 468.6844,282.9141 Q469.0594,282.2203 469.7156,281.8547 Q470.3719,281.4797 471.1125,281.4797 Q471.5531,281.4797 471.9375,281.5828 Q472.3312,281.6766 472.6594,281.8922 Z " fill="#000000"/><text fill="#000000" font-family="sans-serif" font-size="8.4" lengthAdjust="spacing" textLength="55.2" x="479.4" y="276.6727">&#171;value object&#187;</text><text fill="#000000" font-family="sans-serif" font-size="8.4" lengthAdjust="spacing" textLength="42" x="486" y="287.8453">&#171;identifier&#187;</text><text fill="#000000" font-family="sans-serif" font-size="8.4" lengthAdjust="spacing" textLength="52.8" x="480.6" y="299.018">JobReference</text><line style="stroke:#181818;stroke-width:0.3;" x1="462.6" x2="535.8" y1="304.1262" y2="304.1262"/><line style="stroke:#181818;stroke-width:0.3;" x1="462.6" x2="535.8" y1="308.9262" y2="308.9262"/></g><!--class InterviewPhase--><g id="elem_InterviewPhase"><rect codeLine="70" fill="#F1F1F1" height="37.9453" id="InterviewPhase" rx="1.5" ry="1.5" style="stroke:#181818;stroke-width:0.3;" width="76.2" x="13.5" y="270.3082"/><ellipse cx="22.5" cy="284.4809" fill="#ADD1B2" rx="6.6" ry="6.6" style="stroke:#181818;stroke-width:0.6;"/><path d="M24.1594,282.0059 Q24.2531,281.8746 24.3656,281.809 Q24.4781,281.7434 24.6094,281.7434 Q24.8344,281.7434 24.975,281.9027 Q25.1156,282.0527 25.1156,282.4184 L25.1156,283.2902 Q25.1156,283.6559 24.975,283.8152 Q24.8344,283.9746 24.6094,283.9746 Q24.4031,283.9746 24.2813,283.8527 Q24.1594,283.7402 24.0938,283.4309 Q24.0656,283.2152 23.9531,283.1027 Q23.7562,282.8777 23.3906,282.7465 Q23.025,282.6152 22.65,282.6152 Q22.1906,282.6152 21.8063,282.8121 Q21.4313,283.009 21.1312,283.459 Q20.8406,283.909 20.8406,284.5277 L20.8406,285.184 Q20.8406,285.9246 21.375,286.4215 Q21.9094,286.909 22.8656,286.909 Q23.4281,286.909 23.8219,286.759 Q24.0563,286.6652 24.3094,286.4027 Q24.4688,286.2434 24.5531,286.1965 Q24.6469,286.1496 24.7688,286.1496 Q24.9656,286.1496 25.1156,286.309 Q25.275,286.459 25.275,286.6652 Q25.275,286.8715 25.0687,287.1152 Q24.7688,287.4621 24.2906,287.659 Q23.6438,287.9309 22.8656,287.9309 Q21.9563,287.9309 21.2344,287.5559 Q20.6438,287.2559 20.2313,286.6184 Q19.8187,285.9715 19.8187,285.2027 L19.8187,284.509 Q19.8187,283.7121 20.1844,283.0277 Q20.5594,282.334 21.2156,281.9684 Q21.8719,281.5934 22.6125,281.5934 Q23.0531,281.5934 23.4375,281.6965 Q23.8313,281.7902 24.1594,282.0059 Z " fill="#000000"/><text fill="#000000" font-family="sans-serif" font-size="8.4" lengthAdjust="spacing" textLength="30" x="44.4" y="282.3727">&#171;entity&#187;</text><text fill="#000000" font-family="sans-serif" font-size="8.4" lengthAdjust="spacing" textLength="57" x="30.9" y="293.5453">InterviewPhase</text><line style="stroke:#181818;stroke-width:0.3;" x1="14.1" x2="89.1" y1="298.6535" y2="298.6535"/><line style="stroke:#181818;stroke-width:0.3;" x1="14.1" x2="89.1" y1="303.4535" y2="303.4535"/></g><!--class Notification--><g id="elem_Notification"><rect codeLine="77" fill="#F1F1F1" height="37.9453" id="Notification" rx="1.5" ry="1.5" style="stroke:#181818;stroke-width:0.3;" width="60.6" x="826.5" y="497.7082"/><ellipse cx="835.5" cy="511.8809" fill="#ADD1B2" rx="6.6" ry="6.6" style="stroke:#181818;stroke-width:0.6;"/><path d="M837.1594,509.4059 Q837.2531,509.2746 837.3656,509.209 Q837.4781,509.1434 837.6094,509.1434 Q837.8344,509.1434 837.975,509.3027 Q838.1156,509.4527 838.1156,509.8184 L838.1156,510.6902 Q838.1156,511.0559 837.975,511.2152 Q837.8344,511.3746 837.6094,511.3746 Q837.4031,511.3746 837.2813,511.2527 Q837.1594,511.1402 837.0938,510.8309 Q837.0656,510.6152 836.9531,510.5027 Q836.7563,510.2777 836.3906,510.1465 Q836.025,510.0152 835.65,510.0152 Q835.1906,510.0152 834.8063,510.2121 Q834.4313,510.409 834.1313,510.859 Q833.8406,511.309 833.8406,511.9277 L833.8406,512.584 Q833.8406,513.3246 834.375,513.8215 Q834.9094,514.309 835.8656,514.309 Q836.4281,514.309 836.8219,514.159 Q837.0563,514.0652 837.3094,513.8027 Q837.4688,513.6434 837.5531,513.5965 Q837.6469,513.5496 837.7688,513.5496 Q837.9656,513.5496 838.1156,513.709 Q838.275,513.859 838.275,514.0652 Q838.275,514.2715 838.0688,514.5152 Q837.7688,514.8621 837.2906,515.059 Q836.6438,515.3309 835.8656,515.3309 Q834.9563,515.3309 834.2344,514.9559 Q833.6438,514.6559 833.2312,514.0184 Q832.8188,513.3715 832.8188,512.6027 L832.8188,511.909 Q832.8188,511.1121 833.1844,510.4277 Q833.5594,509.734 834.2156,509.3684 Q834.8719,508.9934 835.6125,508.9934 Q836.0531,508.9934 836.4375,509.0965 Q836.8313,509.1902 837.1594,509.4059 Z " fill="#000000"/><text fill="#000000" font-family="sans-serif" font-size="8.4" lengthAdjust="spacing" textLength="30" x="849.6" y="509.7727">&#171;entity&#187;</text><text fill="#000000" font-family="sans-serif" font-size="8.4" lengthAdjust="spacing" textLength="41.4" x="843.9" y="520.9453">Notification</text><line style="stroke:#181818;stroke-width:0.3;" x1="827.1" x2="886.5" y1="526.0535" y2="526.0535"/><line style="stroke:#181818;stroke-width:0.3;" x1="827.1" x2="886.5" y1="530.8535" y2="530.8535"/></g><!--class Plugin--><g id="elem_Plugin"><rect codeLine="83" fill="#F1F1F1" height="49.118" id="Plugin" rx="1.5" ry="1.5" style="stroke:#181818;stroke-width:0.3;" width="49.2" x="1020" y="48.0082"/><ellipse cx="1029" cy="67.7672" fill="#ADD1B2" rx="6.6" ry="6.6" style="stroke:#181818;stroke-width:0.6;"/><path d="M1030.6594,65.2922 Q1030.7531,65.1609 1030.8656,65.0953 Q1030.9781,65.0297 1031.1094,65.0297 Q1031.3344,65.0297 1031.475,65.1891 Q1031.6156,65.3391 1031.6156,65.7047 L1031.6156,66.5766 Q1031.6156,66.9422 1031.475,67.1016 Q1031.3344,67.2609 1031.1094,67.2609 Q1030.9031,67.2609 1030.7813,67.1391 Q1030.6594,67.0266 1030.5938,66.7172 Q1030.5656,66.5016 1030.4531,66.3891 Q1030.2563,66.1641 1029.8906,66.0328 Q1029.525,65.9016 1029.15,65.9016 Q1028.6906,65.9016 1028.3062,66.0984 Q1027.9312,66.2953 1027.6313,66.7453 Q1027.3406,67.1953 1027.3406,67.8141 L1027.3406,68.4703 Q1027.3406,69.2109 1027.875,69.7078 Q1028.4094,70.1953 1029.3656,70.1953 Q1029.9281,70.1953 1030.3219,70.0453 Q1030.5562,69.9516 1030.8094,69.6891 Q1030.9688,69.5297 1031.0531,69.4828 Q1031.1469,69.4359 1031.2688,69.4359 Q1031.4656,69.4359 1031.6156,69.5953 Q1031.775,69.7453 1031.775,69.9516 Q1031.775,70.1578 1031.5688,70.4016 Q1031.2688,70.7484 1030.7906,70.9453 Q1030.1438,71.2172 1029.3656,71.2172 Q1028.4563,71.2172 1027.7344,70.8422 Q1027.1438,70.5422 1026.7313,69.9047 Q1026.3188,69.2578 1026.3188,68.4891 L1026.3188,67.7953 Q1026.3188,66.9984 1026.6844,66.3141 Q1027.0594,65.6203 1027.7156,65.2547 Q1028.3719,64.8797 1029.1125,64.8797 Q1029.5531,64.8797 1029.9375,64.9828 Q1030.3313,65.0766 1030.6594,65.2922 Z " fill="#000000"/><text fill="#000000" font-family="sans-serif" font-size="8.4" lengthAdjust="spacing" textLength="24.6" x="1040.1" y="60.0727">&#171;root&#187;</text><text fill="#000000" font-family="sans-serif" font-size="8.4" lengthAdjust="spacing" textLength="30" x="1037.4" y="71.2453">&#171;entity&#187;</text><text fill="#000000" font-family="sans-serif" font-size="8.4" lengthAdjust="spacing" textLength="23.4" x="1040.7" y="82.418">Plugin</text><line style="stroke:#181818;stroke-width:0.3;" x1="1020.6" x2="1068.6" y1="87.5262" y2="87.5262"/><line style="stroke:#181818;stroke-width:0.3;" x1="1020.6" x2="1068.6" y1="92.3262" y2="92.3262"/></g><!--class PlugID--><g id="elem_PlugID"><rect codeLine="85" fill="#F1F1F1" height="49.118" id="PlugID" rx="1.5" ry="1.5" style="stroke:#181818;stroke-width:0.3;" width="75" x="856.5" y="166.8082"/><ellipse cx="865.5" cy="186.5672" fill="#ADD1B2" rx="6.6" ry="6.6" style="stroke:#181818;stroke-width:0.6;"/><path d="M867.1594,184.0922 Q867.2531,183.9609 867.3656,183.8953 Q867.4781,183.8297 867.6094,183.8297 Q867.8344,183.8297 867.975,183.9891 Q868.1156,184.1391 868.1156,184.5047 L868.1156,185.3766 Q868.1156,185.7422 867.975,185.9016 Q867.8344,186.0609 867.6094,186.0609 Q867.4031,186.0609 867.2813,185.9391 Q867.1594,185.8266 867.0938,185.5172 Q867.0656,185.3016 866.9531,185.1891 Q866.7563,184.9641 866.3906,184.8328 Q866.025,184.7016 865.65,184.7016 Q865.1906,184.7016 864.8063,184.8984 Q864.4313,185.0953 864.1313,185.5453 Q863.8406,185.9953 863.8406,186.6141 L863.8406,187.2703 Q863.8406,188.0109 864.375,188.5078 Q864.9094,188.9953 865.8656,188.9953 Q866.4281,188.9953 866.8219,188.8453 Q867.0563,188.7516 867.3094,188.4891 Q867.4688,188.3297 867.5531,188.2828 Q867.6469,188.2359 867.7688,188.2359 Q867.9656,188.2359 868.1156,188.3953 Q868.275,188.5453 868.275,188.7516 Q868.275,188.9578 868.0688,189.2016 Q867.7688,189.5484 867.2906,189.7453 Q866.6438,190.0172 865.8656,190.0172 Q864.9563,190.0172 864.2344,189.6422 Q863.6438,189.3422 863.2312,188.7047 Q862.8188,188.0578 862.8188,187.2891 L862.8188,186.5953 Q862.8188,185.7984 863.1844,185.1141 Q863.5594,184.4203 864.2156,184.0547 Q864.8719,183.6797 865.6125,183.6797 Q866.0531,183.6797 866.4375,183.7828 Q866.8313,183.8766 867.1594,184.0922 Z " fill="#000000"/><text fill="#000000" font-family="sans-serif" font-size="8.4" lengthAdjust="spacing" textLength="55.2" x="874.2" y="178.8727">&#171;value object&#187;</text><text fill="#000000" font-family="sans-serif" font-size="8.4" lengthAdjust="spacing" textLength="42" x="880.8" y="190.0453">&#171;identifier&#187;</text><text fill="#000000" font-family="sans-serif" font-size="8.4" lengthAdjust="spacing" textLength="55.8" x="873.9" y="201.218">PluginIdentifier</text><line style="stroke:#181818;stroke-width:0.3;" x1="857.1" x2="930.9" y1="206.3262" y2="206.3262"/><line style="stroke:#181818;stroke-width:0.3;" x1="857.1" x2="930.9" y1="211.1262" y2="211.1262"/></g><!--class PlugType--><g id="elem_PlugType"><rect codeLine="87" fill="#F1F1F1" height="37.9453" id="PlugType" rx="1.5" ry="1.5" style="stroke:#181818;stroke-width:0.3;" width="74.4" x="952.8" y="172.5082"/><ellipse cx="961.8" cy="186.6809" fill="#ADD1B2" rx="6.6" ry="6.6" style="stroke:#181818;stroke-width:0.6;"/><path d="M963.4594,184.2059 Q963.5531,184.0746 963.6656,184.009 Q963.7781,183.9434 963.9094,183.9434 Q964.1344,183.9434 964.275,184.1027 Q964.4156,184.2527 964.4156,184.6184 L964.4156,185.4902 Q964.4156,185.8559 964.275,186.0152 Q964.1344,186.1746 963.9094,186.1746 Q963.7031,186.1746 963.5813,186.0527 Q963.4594,185.9402 963.3938,185.6309 Q963.3656,185.4152 963.2531,185.3027 Q963.0563,185.0777 962.6906,184.9465 Q962.325,184.8152 961.95,184.8152 Q961.4906,184.8152 961.1062,185.0121 Q960.7312,185.209 960.4313,185.659 Q960.1406,186.109 960.1406,186.7277 L960.1406,187.384 Q960.1406,188.1246 960.675,188.6215 Q961.2094,189.109 962.1656,189.109 Q962.7281,189.109 963.1219,188.959 Q963.3562,188.8652 963.6094,188.6027 Q963.7688,188.4434 963.8531,188.3965 Q963.9469,188.3496 964.0687,188.3496 Q964.2656,188.3496 964.4156,188.509 Q964.575,188.659 964.575,188.8652 Q964.575,189.0715 964.3688,189.3152 Q964.0687,189.6621 963.5906,189.859 Q962.9437,190.1309 962.1656,190.1309 Q961.2562,190.1309 960.5344,189.7559 Q959.9437,189.4559 959.5313,188.8184 Q959.1188,188.1715 959.1188,187.4027 L959.1188,186.709 Q959.1188,185.9121 959.4844,185.2277 Q959.8594,184.534 960.5156,184.1684 Q961.1719,183.7934 961.9125,183.7934 Q962.3531,183.7934 962.7375,183.8965 Q963.1312,183.9902 963.4594,184.2059 Z " fill="#000000"/><text fill="#000000" font-family="sans-serif" font-size="8.4" lengthAdjust="spacing" textLength="55.2" x="970.2" y="184.5727">&#171;value object&#187;</text><text fill="#000000" font-family="sans-serif" font-size="8.4" lengthAdjust="spacing" textLength="42.6" x="976.5" y="195.7453">PluginType</text><line style="stroke:#181818;stroke-width:0.3;" x1="953.4" x2="1026.6" y1="200.8535" y2="200.8535"/><line style="stroke:#181818;stroke-width:0.3;" x1="953.4" x2="1026.6" y1="205.6535" y2="205.6535"/></g><!--class PlugClass--><g id="elem_PlugClass"><rect codeLine="89" fill="#F1F1F1" height="37.9453" id="PlugClass" rx="1.5" ry="1.5" style="stroke:#181818;stroke-width:0.3;" width="103.2" x="1048.2" y="172.5082"/><ellipse cx="1057.2" cy="186.6809" fill="#ADD1B2" rx="6.6" ry="6.6" style="stroke:#181818;stroke-width:0.6;"/><path d="M1058.8594,184.2059 Q1058.9531,184.0746 1059.0656,184.009 Q1059.1781,183.9434 1059.3094,183.9434 Q1059.5344,183.9434 1059.675,184.1027 Q1059.8156,184.2527 1059.8156,184.6184 L1059.8156,185.4902 Q1059.8156,185.8559 1059.675,186.0152 Q1059.5344,186.1746 1059.3094,186.1746 Q1059.1031,186.1746 1058.9813,186.0527 Q1058.8594,185.9402 1058.7938,185.6309 Q1058.7656,185.4152 1058.6531,185.3027 Q1058.4563,185.0777 1058.0906,184.9465 Q1057.725,184.8152 1057.35,184.8152 Q1056.8906,184.8152 1056.5063,185.0121 Q1056.1313,185.209 1055.8313,185.659 Q1055.5406,186.109 1055.5406,186.7277 L1055.5406,187.384 Q1055.5406,188.1246 1056.075,188.6215 Q1056.6094,189.109 1057.5656,189.109 Q1058.1281,189.109 1058.5219,188.959 Q1058.7563,188.8652 1059.0094,188.6027 Q1059.1688,188.4434 1059.2531,188.3965 Q1059.3469,188.3496 1059.4688,188.3496 Q1059.6656,188.3496 1059.8156,188.509 Q1059.975,188.659 1059.975,188.8652 Q1059.975,189.0715 1059.7688,189.3152 Q1059.4688,189.6621 1058.9906,189.859 Q1058.3438,190.1309 1057.5656,190.1309 Q1056.6563,190.1309 1055.9344,189.7559 Q1055.3438,189.4559 1054.9312,188.8184 Q1054.5188,188.1715 1054.5188,187.4027 L1054.5188,186.709 Q1054.5188,185.9121 1054.8844,185.2277 Q1055.2594,184.534 1055.9156,184.1684 Q1056.5719,183.7934 1057.3125,183.7934 Q1057.7531,183.7934 1058.1375,183.8965 Q1058.5313,183.9902 1058.8594,184.2059 Z " fill="#000000"/><text fill="#000000" font-family="sans-serif" font-size="8.4" lengthAdjust="spacing" textLength="55.2" x="1080" y="184.5727">&#171;value object&#187;</text><text fill="#000000" font-family="sans-serif" font-size="8.4" lengthAdjust="spacing" textLength="84" x="1065.6" y="195.7453">PluginMainClassName</text><line style="stroke:#181818;stroke-width:0.3;" x1="1048.8" x2="1150.8" y1="200.8535" y2="200.8535"/><line style="stroke:#181818;stroke-width:0.3;" x1="1048.8" x2="1150.8" y1="205.6535" y2="205.6535"/></g><!--class JarFile--><g id="elem_JarFile"><rect codeLine="91" fill="#F1F1F1" height="37.9453" id="JarFile" rx="1.5" ry="1.5" style="stroke:#181818;stroke-width:0.3;" width="74.4" x="1172.4" y="172.5082"/><ellipse cx="1181.4" cy="186.6809" fill="#ADD1B2" rx="6.6" ry="6.6" style="stroke:#181818;stroke-width:0.6;"/><path d="M1183.0594,184.2059 Q1183.1531,184.0746 1183.2656,184.009 Q1183.3781,183.9434 1183.5094,183.9434 Q1183.7344,183.9434 1183.875,184.1027 Q1184.0156,184.2527 1184.0156,184.6184 L1184.0156,185.4902 Q1184.0156,185.8559 1183.875,186.0152 Q1183.7344,186.1746 1183.5094,186.1746 Q1183.3031,186.1746 1183.1812,186.0527 Q1183.0594,185.9402 1182.9937,185.6309 Q1182.9656,185.4152 1182.8531,185.3027 Q1182.6563,185.0777 1182.2906,184.9465 Q1181.925,184.8152 1181.55,184.8152 Q1181.0906,184.8152 1180.7063,185.0121 Q1180.3313,185.209 1180.0313,185.659 Q1179.7406,186.109 1179.7406,186.7277 L1179.7406,187.384 Q1179.7406,188.1246 1180.275,188.6215 Q1180.8094,189.109 1181.7656,189.109 Q1182.3281,189.109 1182.7219,188.959 Q1182.9563,188.8652 1183.2094,188.6027 Q1183.3687,188.4434 1183.4531,188.3965 Q1183.5469,188.3496 1183.6688,188.3496 Q1183.8656,188.3496 1184.0156,188.509 Q1184.175,188.659 1184.175,188.8652 Q1184.175,189.0715 1183.9688,189.3152 Q1183.6688,189.6621 1183.1906,189.859 Q1182.5438,190.1309 1181.7656,190.1309 Q1180.8563,190.1309 1180.1344,189.7559 Q1179.5438,189.4559 1179.1313,188.8184 Q1178.7188,188.1715 1178.7188,187.4027 L1178.7188,186.709 Q1178.7188,185.9121 1179.0844,185.2277 Q1179.4594,184.534 1180.1156,184.1684 Q1180.7719,183.7934 1181.5125,183.7934 Q1181.9531,183.7934 1182.3375,183.8965 Q1182.7313,183.9902 1183.0594,184.2059 Z " fill="#000000"/><text fill="#000000" font-family="sans-serif" font-size="8.4" lengthAdjust="spacing" textLength="55.2" x="1189.8" y="184.5727">&#171;value object&#187;</text><text fill="#000000" font-family="sans-serif" font-size="8.4" lengthAdjust="spacing" textLength="46.8" x="1194" y="195.7453">JarFileName</text><line style="stroke:#181818;stroke-width:0.3;" x1="1173" x2="1246.2" y1="200.8535" y2="200.8535"/><line style="stroke:#181818;stroke-width:0.3;" x1="1173" x2="1246.2" y1="205.6535" y2="205.6535"/></g><!--class PlugDesc--><g id="elem_PlugDesc"><rect codeLine="93" fill="#F1F1F1" height="37.9453" id="PlugDesc" rx="1.5" ry="1.5" style="stroke:#181818;stroke-width:0.3;" width="74.4" x="1267.8" y="172.5082"/><ellipse cx="1276.8" cy="186.6809" fill="#ADD1B2" rx="6.6" ry="6.6" style="stroke:#181818;stroke-width:0.6;"/><path d="M1278.4594,184.2059 Q1278.5531,184.0746 1278.6656,184.009 Q1278.7781,183.9434 1278.9094,183.9434 Q1279.1344,183.9434 1279.275,184.1027 Q1279.4156,184.2527 1279.4156,184.6184 L1279.4156,185.4902 Q1279.4156,185.8559 1279.275,186.0152 Q1279.1344,186.1746 1278.9094,186.1746 Q1278.7031,186.1746 1278.5813,186.0527 Q1278.4594,185.9402 1278.3938,185.6309 Q1278.3656,185.4152 1278.2531,185.3027 Q1278.0562,185.0777 1277.6906,184.9465 Q1277.325,184.8152 1276.95,184.8152 Q1276.4906,184.8152 1276.1063,185.0121 Q1275.7313,185.209 1275.4312,185.659 Q1275.1406,186.109 1275.1406,186.7277 L1275.1406,187.384 Q1275.1406,188.1246 1275.675,188.6215 Q1276.2094,189.109 1277.1656,189.109 Q1277.7281,189.109 1278.1219,188.959 Q1278.3563,188.8652 1278.6094,188.6027 Q1278.7688,188.4434 1278.8531,188.3965 Q1278.9469,188.3496 1279.0688,188.3496 Q1279.2656,188.3496 1279.4156,188.509 Q1279.575,188.659 1279.575,188.8652 Q1279.575,189.0715 1279.3687,189.3152 Q1279.0688,189.6621 1278.5906,189.859 Q1277.9438,190.1309 1277.1656,190.1309 Q1276.2563,190.1309 1275.5344,189.7559 Q1274.9438,189.4559 1274.5313,188.8184 Q1274.1187,188.1715 1274.1187,187.4027 L1274.1187,186.709 Q1274.1187,185.9121 1274.4844,185.2277 Q1274.8594,184.534 1275.5156,184.1684 Q1276.1719,183.7934 1276.9125,183.7934 Q1277.3531,183.7934 1277.7375,183.8965 Q1278.1313,183.9902 1278.4594,184.2059 Z " fill="#000000"/><text fill="#000000" font-family="sans-serif" font-size="8.4" lengthAdjust="spacing" textLength="55.2" x="1285.2" y="184.5727">&#171;value object&#187;</text><text fill="#000000" font-family="sans-serif" font-size="8.4" lengthAdjust="spacing" textLength="42.6" x="1291.5" y="195.7453">Description</text><line style="stroke:#181818;stroke-width:0.3;" x1="1268.4" x2="1341.6" y1="200.8535" y2="200.8535"/><line style="stroke:#181818;stroke-width:0.3;" x1="1268.4" x2="1341.6" y1="205.6535" y2="205.6535"/></g><!--class JobApplication--><g id="elem_JobApplication"><rect codeLine="98" fill="#F1F1F1" height="49.118" id="JobApplication" rx="1.5" ry="1.5" style="stroke:#181818;stroke-width:0.3;" width="73.8" x="1014.3" y="375.0082"/><ellipse cx="1023.3" cy="394.7672" fill="#ADD1B2" rx="6.6" ry="6.6" style="stroke:#181818;stroke-width:0.6;"/><path d="M1024.9594,392.2922 Q1025.0531,392.1609 1025.1656,392.0953 Q1025.2781,392.0297 1025.4094,392.0297 Q1025.6344,392.0297 1025.775,392.1891 Q1025.9156,392.3391 1025.9156,392.7047 L1025.9156,393.5766 Q1025.9156,393.9422 1025.775,394.1016 Q1025.6344,394.2609 1025.4094,394.2609 Q1025.2031,394.2609 1025.0813,394.1391 Q1024.9594,394.0266 1024.8938,393.7172 Q1024.8656,393.5016 1024.7531,393.3891 Q1024.5562,393.1641 1024.1906,393.0328 Q1023.825,392.9016 1023.45,392.9016 Q1022.9906,392.9016 1022.6062,393.0984 Q1022.2312,393.2953 1021.9313,393.7453 Q1021.6406,394.1953 1021.6406,394.8141 L1021.6406,395.4703 Q1021.6406,396.2109 1022.175,396.7078 Q1022.7094,397.1953 1023.6656,397.1953 Q1024.2281,397.1953 1024.6219,397.0453 Q1024.8563,396.9516 1025.1094,396.6891 Q1025.2688,396.5297 1025.3531,396.4828 Q1025.4469,396.4359 1025.5688,396.4359 Q1025.7656,396.4359 1025.9156,396.5953 Q1026.075,396.7453 1026.075,396.9516 Q1026.075,397.1578 1025.8687,397.4016 Q1025.5688,397.7484 1025.0906,397.9453 Q1024.4438,398.2172 1023.6656,398.2172 Q1022.7562,398.2172 1022.0344,397.8422 Q1021.4437,397.5422 1021.0313,396.9047 Q1020.6188,396.2578 1020.6188,395.4891 L1020.6188,394.7953 Q1020.6188,393.9984 1020.9844,393.3141 Q1021.3594,392.6203 1022.0156,392.2547 Q1022.6719,391.8797 1023.4125,391.8797 Q1023.8531,391.8797 1024.2375,391.9828 Q1024.6313,392.0766 1024.9594,392.2922 Z " fill="#000000"/><text fill="#000000" font-family="sans-serif" font-size="8.4" lengthAdjust="spacing" textLength="24.6" x="1046.7" y="387.0727">&#171;root&#187;</text><text fill="#000000" font-family="sans-serif" font-size="8.4" lengthAdjust="spacing" textLength="30" x="1044" y="398.2453">&#171;entity&#187;</text><text fill="#000000" font-family="sans-serif" font-size="8.4" lengthAdjust="spacing" textLength="54.6" x="1031.7" y="409.418">JobApplication</text><line style="stroke:#181818;stroke-width:0.3;" x1="1014.9" x2="1087.5" y1="414.5262" y2="414.5262"/><line style="stroke:#181818;stroke-width:0.3;" x1="1014.9" x2="1087.5" y1="419.3262" y2="419.3262"/></g><!--class Status--><g id="elem_Status"><rect codeLine="101" fill="#F1F1F1" height="37.9453" id="Status" rx="1.5" ry="1.5" style="stroke:#181818;stroke-width:0.3;" width="74.4" x="933" y="497.7082"/><ellipse cx="942" cy="511.8809" fill="#ADD1B2" rx="6.6" ry="6.6" style="stroke:#181818;stroke-width:0.6;"/><path d="M943.6594,509.4059 Q943.7531,509.2746 943.8656,509.209 Q943.9781,509.1434 944.1094,509.1434 Q944.3344,509.1434 944.475,509.3027 Q944.6156,509.4527 944.6156,509.8184 L944.6156,510.6902 Q944.6156,511.0559 944.475,511.2152 Q944.3344,511.3746 944.1094,511.3746 Q943.9031,511.3746 943.7813,511.2527 Q943.6594,511.1402 943.5938,510.8309 Q943.5656,510.6152 943.4531,510.5027 Q943.2562,510.2777 942.8906,510.1465 Q942.525,510.0152 942.15,510.0152 Q941.6906,510.0152 941.3063,510.2121 Q940.9313,510.409 940.6312,510.859 Q940.3406,511.309 940.3406,511.9277 L940.3406,512.584 Q940.3406,513.3246 940.875,513.8215 Q941.4094,514.309 942.3656,514.309 Q942.9281,514.309 943.3219,514.159 Q943.5563,514.0652 943.8094,513.8027 Q943.9688,513.6434 944.0531,513.5965 Q944.1469,513.5496 944.2688,513.5496 Q944.4656,513.5496 944.6156,513.709 Q944.775,513.859 944.775,514.0652 Q944.775,514.2715 944.5687,514.5152 Q944.2688,514.8621 943.7906,515.059 Q943.1438,515.3309 942.3656,515.3309 Q941.4563,515.3309 940.7344,514.9559 Q940.1438,514.6559 939.7312,514.0184 Q939.3187,513.3715 939.3187,512.6027 L939.3187,511.909 Q939.3187,511.1121 939.6844,510.4277 Q940.0594,509.734 940.7156,509.3684 Q941.3719,508.9934 942.1125,508.9934 Q942.5531,508.9934 942.9375,509.0965 Q943.3313,509.1902 943.6594,509.4059 Z " fill="#000000"/><text fill="#000000" font-family="sans-serif" font-size="8.4" lengthAdjust="spacing" textLength="55.2" x="950.4" y="509.7727">&#171;value object&#187;</text><text fill="#000000" font-family="sans-serif" font-size="8.4" lengthAdjust="spacing" textLength="24" x="966" y="520.9453">Status</text><line style="stroke:#181818;stroke-width:0.3;" x1="933.6" x2="1006.8" y1="526.0535" y2="526.0535"/><line style="stroke:#181818;stroke-width:0.3;" x1="933.6" x2="1006.8" y1="530.8535" y2="530.8535"/></g><!--class ID--><g id="elem_ID"><rect codeLine="104" fill="#F1F1F1" height="49.118" id="ID" rx="1.5" ry="1.5" style="stroke:#181818;stroke-width:0.3;" width="74.4" x="1028.4" y="492.0082"/><ellipse cx="1037.4" cy="511.7672" fill="#ADD1B2" rx="6.6" ry="6.6" style="stroke:#181818;stroke-width:0.6;"/><path d="M1039.0594,509.2922 Q1039.1531,509.1609 1039.2656,509.0953 Q1039.3781,509.0297 1039.5094,509.0297 Q1039.7344,509.0297 1039.875,509.1891 Q1040.0156,509.3391 1040.0156,509.7047 L1040.0156,510.5766 Q1040.0156,510.9422 1039.875,511.1016 Q1039.7344,511.2609 1039.5094,511.2609 Q1039.3031,511.2609 1039.1812,511.1391 Q1039.0594,511.0266 1038.9937,510.7172 Q1038.9656,510.5016 1038.8531,510.3891 Q1038.6563,510.1641 1038.2906,510.0328 Q1037.925,509.9016 1037.55,509.9016 Q1037.0906,509.9016 1036.7063,510.0984 Q1036.3313,510.2953 1036.0313,510.7453 Q1035.7406,511.1953 1035.7406,511.8141 L1035.7406,512.4703 Q1035.7406,513.2109 1036.275,513.7078 Q1036.8094,514.1953 1037.7656,514.1953 Q1038.3281,514.1953 1038.7219,514.0453 Q1038.9563,513.9516 1039.2094,513.6891 Q1039.3687,513.5297 1039.4531,513.4828 Q1039.5469,513.4359 1039.6688,513.4359 Q1039.8656,513.4359 1040.0156,513.5953 Q1040.175,513.7453 1040.175,513.9516 Q1040.175,514.1578 1039.9688,514.4016 Q1039.6688,514.7484 1039.1906,514.9453 Q1038.5438,515.2172 1037.7656,515.2172 Q1036.8563,515.2172 1036.1344,514.8422 Q1035.5438,514.5422 1035.1313,513.9047 Q1034.7188,513.2578 1034.7188,512.4891 L1034.7188,511.7953 Q1034.7188,510.9984 1035.0844,510.3141 Q1035.4594,509.6203 1036.1156,509.2547 Q1036.7719,508.8797 1037.5125,508.8797 Q1037.9531,508.8797 1038.3375,508.9828 Q1038.7313,509.0766 1039.0594,509.2922 Z " fill="#000000"/><text fill="#000000" font-family="sans-serif" font-size="8.4" lengthAdjust="spacing" textLength="55.2" x="1045.8" y="504.0727">&#171;value object&#187;</text><text fill="#000000" font-family="sans-serif" font-size="8.4" lengthAdjust="spacing" textLength="42" x="1052.4" y="515.2453">&#171;identifier&#187;</text><text fill="#000000" font-family="sans-serif" font-size="8.4" lengthAdjust="spacing" textLength="6.6" x="1070.1" y="526.418">Id</text><line style="stroke:#181818;stroke-width:0.3;" x1="1029" x2="1102.2" y1="531.5262" y2="531.5262"/><line style="stroke:#181818;stroke-width:0.3;" x1="1029" x2="1102.2" y1="536.3262" y2="536.3262"/></g><!--class Grade--><g id="elem_Grade"><rect codeLine="107" fill="#F1F1F1" height="49.118" id="Grade" rx="1.5" ry="1.5" style="stroke:#181818;stroke-width:0.3;" width="74.4" x="1123.8" y="492.0082"/><ellipse cx="1132.8" cy="511.7672" fill="#ADD1B2" rx="6.6" ry="6.6" style="stroke:#181818;stroke-width:0.6;"/><path d="M1134.4594,509.2922 Q1134.5531,509.1609 1134.6656,509.0953 Q1134.7781,509.0297 1134.9094,509.0297 Q1135.1344,509.0297 1135.275,509.1891 Q1135.4156,509.3391 1135.4156,509.7047 L1135.4156,510.5766 Q1135.4156,510.9422 1135.275,511.1016 Q1135.1344,511.2609 1134.9094,511.2609 Q1134.7031,511.2609 1134.5813,511.1391 Q1134.4594,511.0266 1134.3938,510.7172 Q1134.3656,510.5016 1134.2531,510.3891 Q1134.0562,510.1641 1133.6906,510.0328 Q1133.325,509.9016 1132.95,509.9016 Q1132.4906,509.9016 1132.1063,510.0984 Q1131.7313,510.2953 1131.4312,510.7453 Q1131.1406,511.1953 1131.1406,511.8141 L1131.1406,512.4703 Q1131.1406,513.2109 1131.675,513.7078 Q1132.2094,514.1953 1133.1656,514.1953 Q1133.7281,514.1953 1134.1219,514.0453 Q1134.3563,513.9516 1134.6094,513.6891 Q1134.7688,513.5297 1134.8531,513.4828 Q1134.9469,513.4359 1135.0688,513.4359 Q1135.2656,513.4359 1135.4156,513.5953 Q1135.575,513.7453 1135.575,513.9516 Q1135.575,514.1578 1135.3687,514.4016 Q1135.0688,514.7484 1134.5906,514.9453 Q1133.9438,515.2172 1133.1656,515.2172 Q1132.2563,515.2172 1131.5344,514.8422 Q1130.9438,514.5422 1130.5313,513.9047 Q1130.1187,513.2578 1130.1187,512.4891 L1130.1187,511.7953 Q1130.1187,510.9984 1130.4844,510.3141 Q1130.8594,509.6203 1131.5156,509.2547 Q1132.1719,508.8797 1132.9125,508.8797 Q1133.3531,508.8797 1133.7375,508.9828 Q1134.1313,509.0766 1134.4594,509.2922 Z " fill="#000000"/><text fill="#000000" font-family="sans-serif" font-size="8.4" lengthAdjust="spacing" textLength="55.2" x="1141.2" y="504.0727">&#171;value object&#187;</text><text fill="#000000" font-family="sans-serif" font-size="8.4" lengthAdjust="spacing" textLength="48" x="1144.8" y="515.2453">&#171;calculated&#187;</text><text fill="#000000" font-family="sans-serif" font-size="8.4" lengthAdjust="spacing" textLength="24" x="1156.8" y="526.418">Grade</text><line style="stroke:#181818;stroke-width:0.3;" x1="1124.4" x2="1197.6" y1="531.5262" y2="531.5262"/><line style="stroke:#181818;stroke-width:0.3;" x1="1124.4" x2="1197.6" y1="536.3262" y2="536.3262"/></g><!--class ApplicationFile--><g id="elem_ApplicationFile"><rect codeLine="110" fill="#F1F1F1" height="60.2906" id="ApplicationFile" rx="1.5" ry="1.5" style="stroke:#181818;stroke-width:0.3;" width="74.4" x="1219.2" y="486.6082"/><ellipse cx="1228.2" cy="500.7809" fill="#ADD1B2" rx="6.6" ry="6.6" style="stroke:#181818;stroke-width:0.6;"/><path d="M1229.8594,498.3059 Q1229.9531,498.1746 1230.0656,498.109 Q1230.1781,498.0434 1230.3094,498.0434 Q1230.5344,498.0434 1230.675,498.2027 Q1230.8156,498.3527 1230.8156,498.7184 L1230.8156,499.5902 Q1230.8156,499.9559 1230.675,500.1152 Q1230.5344,500.2746 1230.3094,500.2746 Q1230.1031,500.2746 1229.9813,500.1527 Q1229.8594,500.0402 1229.7938,499.7309 Q1229.7656,499.5152 1229.6531,499.4027 Q1229.4563,499.1777 1229.0906,499.0465 Q1228.725,498.9152 1228.35,498.9152 Q1227.8906,498.9152 1227.5063,499.1121 Q1227.1313,499.309 1226.8313,499.759 Q1226.5406,500.209 1226.5406,500.8277 L1226.5406,501.484 Q1226.5406,502.2246 1227.075,502.7215 Q1227.6094,503.209 1228.5656,503.209 Q1229.1281,503.209 1229.5219,503.059 Q1229.7563,502.9652 1230.0094,502.7027 Q1230.1688,502.5434 1230.2531,502.4965 Q1230.3469,502.4496 1230.4688,502.4496 Q1230.6656,502.4496 1230.8156,502.609 Q1230.975,502.759 1230.975,502.9652 Q1230.975,503.1715 1230.7688,503.4152 Q1230.4688,503.7621 1229.9906,503.959 Q1229.3438,504.2309 1228.5656,504.2309 Q1227.6563,504.2309 1226.9344,503.8559 Q1226.3438,503.5559 1225.9312,502.9184 Q1225.5188,502.2715 1225.5188,501.5027 L1225.5188,500.809 Q1225.5188,500.0121 1225.8844,499.3277 Q1226.2594,498.634 1226.9156,498.2684 Q1227.5719,497.8934 1228.3125,497.8934 Q1228.7531,497.8934 1229.1375,497.9965 Q1229.5313,498.0902 1229.8594,498.3059 Z " fill="#000000"/><text fill="#000000" font-family="sans-serif" font-size="8.4" lengthAdjust="spacing" textLength="55.2" x="1236.6" y="498.6727">&#171;value object&#187;</text><text fill="#000000" font-family="sans-serif" font-size="8.4" lengthAdjust="spacing" textLength="55.2" x="1236.6" y="509.8453">ApplicationFile</text><line style="stroke:#181818;stroke-width:0.3;" x1="1219.8" x2="1293" y1="514.9535" y2="514.9535"/><text fill="#000000" font-family="sans-serif" font-size="8.4" lengthAdjust="spacing" textLength="58.8" x="1222.8" y="526.418">relativeFilePath</text><text fill="#000000" font-family="sans-serif" font-size="8.4" lengthAdjust="spacing" textLength="40.8" x="1222.8" y="537.5906">fileContent</text><line style="stroke:#181818;stroke-width:0.3;" x1="1219.8" x2="1293" y1="542.0988" y2="542.0988"/></g><!--class Type--><g id="elem_Type"><rect codeLine="117" fill="#F1F1F1" height="37.9453" id="Type" rx="1.5" ry="1.5" style="stroke:#181818;stroke-width:0.3;" width="74.4" x="1219.2" y="583.2082"/><ellipse cx="1228.2" cy="597.3809" fill="#ADD1B2" rx="6.6" ry="6.6" style="stroke:#181818;stroke-width:0.6;"/><path d="M1229.8594,594.9059 Q1229.9531,594.7746 1230.0656,594.709 Q1230.1781,594.6434 1230.3094,594.6434 Q1230.5344,594.6434 1230.675,594.8027 Q1230.8156,594.9527 1230.8156,595.3184 L1230.8156,596.1902 Q1230.8156,596.5559 1230.675,596.7152 Q1230.5344,596.8746 1230.3094,596.8746 Q1230.1031,596.8746 1229.9813,596.7527 Q1229.8594,596.6402 1229.7938,596.3309 Q1229.7656,596.1152 1229.6531,596.0027 Q1229.4563,595.7777 1229.0906,595.6465 Q1228.725,595.5152 1228.35,595.5152 Q1227.8906,595.5152 1227.5063,595.7121 Q1227.1313,595.909 1226.8313,596.359 Q1226.5406,596.809 1226.5406,597.4277 L1226.5406,598.084 Q1226.5406,598.8246 1227.075,599.3215 Q1227.6094,599.809 1228.5656,599.809 Q1229.1281,599.809 1229.5219,599.659 Q1229.7563,599.5652 1230.0094,599.3027 Q1230.1688,599.1434 1230.2531,599.0965 Q1230.3469,599.0496 1230.4688,599.0496 Q1230.6656,599.0496 1230.8156,599.209 Q1230.975,599.359 1230.975,599.5652 Q1230.975,599.7715 1230.7688,600.0152 Q1230.4688,600.3621 1229.9906,600.559 Q1229.3438,600.8309 1228.5656,600.8309 Q1227.6563,600.8309 1226.9344,600.4559 Q1226.3438,600.1559 1225.9312,599.5184 Q1225.5188,598.8715 1225.5188,598.1027 L1225.5188,597.409 Q1225.5188,596.6121 1225.8844,595.9277 Q1226.2594,595.234 1226.9156,594.8684 Q1227.5719,594.4934 1228.3125,594.4934 Q1228.7531,594.4934 1229.1375,594.5965 Q1229.5313,594.6902 1229.8594,594.9059 Z " fill="#000000"/><text fill="#000000" font-family="sans-serif" font-size="8.4" lengthAdjust="spacing" textLength="55.2" x="1236.6" y="595.2727">&#171;value object&#187;</text><text fill="#000000" font-family="sans-serif" font-size="8.4" lengthAdjust="spacing" textLength="19.2" x="1254.6" y="606.4453">Type</text><line style="stroke:#181818;stroke-width:0.3;" x1="1219.8" x2="1293" y1="611.5535" y2="611.5535"/><line style="stroke:#181818;stroke-width:0.3;" x1="1219.8" x2="1293" y1="616.3535" y2="616.3535"/></g><!--reverse link Mode to JobOpening--><g id="link_Mode_JobOpening"><path codeLine="123" d="M652.1748,94.18 C643.4988,102.736 635.508,110.4442 625.8,119.4082 C611.226,132.8722 607.29,135.9202 592.2,148.8082 C585.36,154.6522 577.938,160.8862 570.948,166.7182 " fill="none" id="Mode-backto-JobOpening" style="stroke:#181818;stroke-width:0.6;"/><polygon fill="#181818" points="654.738,91.6522,649.2079,93.7351,652.602,93.7587,652.5783,97.1527,654.738,91.6522" style="stroke:#181818;stroke-width:0.6;"/><text fill="#000000" font-family="sans-serif" font-size="7.8" lengthAdjust="spacing" textLength="28.8" x="605.4" y="146.4252">includes</text><text fill="#000000" font-family="sans-serif" font-size="7.8" lengthAdjust="spacing" textLength="4.2" x="646.4899" y="104.8254">1</text><text fill="#000000" font-family="sans-serif" font-size="7.8" lengthAdjust="spacing" textLength="4.2" x="571.2278" y="160.0225">1</text></g><!--reverse link JobFunction to JobOpening--><g id="link_JobFunction_JobOpening"><path codeLine="124" d="M571.1188,95.0227 C564.9328,115.2427 556.014,144.3862 549.192,166.6522 " fill="none" id="JobFunction-backto-JobOpening" style="stroke:#181818;stroke-width:0.6;"/><polygon fill="#181818" points="572.172,91.5802,568.2972,96.0418,571.2943,94.449,572.8872,97.4461,572.172,91.5802" style="stroke:#181818;stroke-width:0.6;"/><text fill="#000000" font-family="sans-serif" font-size="7.8" lengthAdjust="spacing" textLength="28.8" x="558" y="146.4252">includes</text><text fill="#000000" font-family="sans-serif" font-size="7.8" lengthAdjust="spacing" textLength="4.2" x="566.3781" y="104.9651">1</text><text fill="#000000" font-family="sans-serif" font-size="7.8" lengthAdjust="spacing" textLength="4.2" x="545.8354" y="160.1313">1</text></g><!--reverse link NumberOfVacancies to JobOpening--><g id="link_NumberOfVacancies_JobOpening"><path codeLine="125" d="M482.9296,94.6506 C495.3076,114.8706 513.378,144.3862 527.01,166.6522 " fill="none" id="NumberOfVacancies-backto-JobOpening" style="stroke:#181818;stroke-width:0.6;"/><polygon fill="#181818" points="481.05,91.5802,481.8225,97.4388,482.6163,94.1388,485.9163,94.9327,481.05,91.5802" style="stroke:#181818;stroke-width:0.6;"/><text fill="#000000" font-family="sans-serif" font-size="7.8" lengthAdjust="spacing" textLength="28.8" x="514.8" y="146.4252">includes</text><text fill="#000000" font-family="sans-serif" font-size="7.8" lengthAdjust="spacing" textLength="4.2" x="478.7372" y="104.9651">1</text><text fill="#000000" font-family="sans-serif" font-size="7.8" lengthAdjust="spacing" textLength="4.2" x="520.1182" y="160.1313">1</text></g><!--reverse link Description to JobOpening--><g id="link_Description_JobOpening"><path codeLine="126" d="M381.0708,94.1162 C389.8608,103.1342 398.592,111.2182 409.8,119.4082 C441.462,142.5442 481.518,163.1542 509.154,176.2102 " fill="none" id="Description-backto-JobOpening" style="stroke:#181818;stroke-width:0.6;"/><polygon fill="#181818" points="378.558,91.5382,380.6085,97.0803,380.652,93.6865,384.0458,93.73,378.558,91.5382" style="stroke:#181818;stroke-width:0.6;"/><text fill="#000000" font-family="sans-serif" font-size="7.8" lengthAdjust="spacing" textLength="28.8" x="455.4" y="146.4252">includes</text><text fill="#000000" font-family="sans-serif" font-size="7.8" lengthAdjust="spacing" textLength="4.2" x="377.3812" y="104.9144">1</text><text fill="#000000" font-family="sans-serif" font-size="7.8" lengthAdjust="spacing" textLength="4.2" x="500.5022" y="171.843">1</text></g><!--reverse link Address1 to JobOpening--><g id="link_Address1_JobOpening"><path codeLine="127" d="M306.4847,114.1368 C309.9707,116.8608 310.74,117.1882 314.4,119.4082 C377.562,157.7002 463.2,177.3082 509.262,185.6662 " fill="none" id="Address1-backto-JobOpening" style="stroke:#181818;stroke-width:0.6;"/><polygon fill="#181818" points="303.648,111.9202,306.4253,117.1362,306.0119,113.7674,309.3807,113.354,303.648,111.9202" style="stroke:#181818;stroke-width:0.6;"/><text fill="#000000" font-family="sans-serif" font-size="7.8" lengthAdjust="spacing" textLength="28.8" x="373.2" y="146.4252">includes</text><text fill="#000000" font-family="sans-serif" font-size="7.8" lengthAdjust="spacing" textLength="4.2" x="308.4435" y="114.3047">1</text><text fill="#000000" font-family="sans-serif" font-size="7.8" lengthAdjust="spacing" textLength="4.2" x="500.4075" y="182.4435">1</text></g><!--reverse link ContractType to JobOpening--><g id="link_ContractType_JobOpening"><path codeLine="128" d="M750.4513,94.2934 C741.8233,103.5634 732.96,111.7762 721.2,119.4082 C674.028,150.0202 611.646,171.1702 574.242,182.1202 " fill="none" id="ContractType-backto-JobOpening" style="stroke:#181818;stroke-width:0.6;"/><polygon fill="#181818" points="752.904,91.6582,747.4682,93.9759,750.8601,93.8542,750.9818,97.2461,752.904,91.6582" style="stroke:#181818;stroke-width:0.6;"/><text fill="#000000" font-family="sans-serif" font-size="7.8" lengthAdjust="spacing" textLength="28.8" x="689.4" y="146.4252">includes</text><text fill="#000000" font-family="sans-serif" font-size="7.8" lengthAdjust="spacing" textLength="4.2" x="745.2004" y="104.8326">1</text><text fill="#000000" font-family="sans-serif" font-size="7.8" lengthAdjust="spacing" textLength="4.2" x="579.0995" y="178.3319">1</text></g><!--reverse link Plugin to JobOpening--><g id="link_Plugin_JobOpening"><path codeLine="131" d="M1016.335,79.9063 C962.479,92.6683 834.138,123.0262 723.6,148.8082 C671.388,160.9882 610.704,174.9742 574.32,183.3382 " fill="none" id="Plugin-backto-JobOpening" style="stroke:#181818;stroke-width:0.6;"/><polygon fill="#181818" points="1019.838,79.0762,1014.0301,77.986,1016.9188,79.7679,1015.1369,82.6567,1019.838,79.0762" style="stroke:#181818;stroke-width:0.6;"/><text fill="#000000" font-family="sans-serif" font-size="7.8" lengthAdjust="spacing" textLength="28.8" x="767.4" y="146.4252">includes</text><text fill="#000000" font-family="sans-serif" font-size="7.8" lengthAdjust="spacing" textLength="13.2" x="1002.0317" y="77.513">0..2</text><text fill="#000000" font-family="sans-serif" font-size="7.8" lengthAdjust="spacing" textLength="4.2" x="578.9721" y="191.3733">1</text></g><!--link JobOpening to JobReference--><g id="link_JobOpening_JobReference"><path codeLine="132" d="M531.162,216.1342 C524.652,230.8882 517.8133,246.4046 511.3033,261.1586 " fill="none" id="JobOpening-to-JobReference" style="stroke:#181818;stroke-width:0.6;"/><polygon fill="#181818" points="509.85,264.4522,514.2257,260.4806,511.0611,261.7075,509.8342,258.5429,509.85,264.4522" style="stroke:#181818;stroke-width:0.6;"/><text fill="#000000" font-family="sans-serif" font-size="7.8" lengthAdjust="spacing" textLength="41.4" x="522" y="244.2252">identified by</text><text fill="#000000" font-family="sans-serif" font-size="7.8" lengthAdjust="spacing" textLength="4.2" x="525.0115" y="229.138">1</text><text fill="#000000" font-family="sans-serif" font-size="7.8" lengthAdjust="spacing" textLength="4.2" x="507.0127" y="257.9313">1</text></g><!--link JobOpening to JogOpeningStatus--><g id="link_JobOpening_JogOpeningStatus"><path codeLine="134" d="M509.394,213.5662 C483.822,230.5822 451.5212,252.072 427.2632,268.212 " fill="none" id="JobOpening-to-JogOpeningStatus" style="stroke:#181818;stroke-width:0.6;"/><polygon fill="#181818" points="424.266,270.2062,430.0913,269.2131,426.7637,268.5444,427.4324,265.2168,424.266,270.2062" style="stroke:#181818;stroke-width:0.6;"/><text fill="#000000" font-family="sans-serif" font-size="7.8" lengthAdjust="spacing" textLength="28.8" x="474" y="244.2252">includes</text><text fill="#000000" font-family="sans-serif" font-size="7.8" lengthAdjust="spacing" textLength="4.2" x="500.3416" y="214.2">1</text><text fill="#000000" font-family="sans-serif" font-size="7.8" lengthAdjust="spacing" textLength="4.2" x="425.339" y="263.4552">1</text></g><!--reverse link RecruitmentProcess to Phase--><g id="link_RecruitmentProcess_Phase"><path codeLine="135" d="M213.1258,304.9393 C226.2118,308.4973 233.466,310.4122 246.6,313.8082 C366.444,344.7802 510.252,379.0822 568.35,392.8222 " fill="none" id="RecruitmentProcess-backto-Phase" style="stroke:#181818;stroke-width:0.6;"/><polygon fill="#181818" points="206.178,303.0502,209.0222,306.3107,213.1258,304.9393,210.2816,301.6788,206.178,303.0502" style="stroke:#181818;stroke-width:0.6;"/><text fill="#000000" font-family="sans-serif" font-size="7.8" lengthAdjust="spacing" textLength="21.6" x="361.8" y="340.8252">part of</text><text fill="#000000" font-family="sans-serif" font-size="7.8" lengthAdjust="spacing" textLength="4.2" x="210.932" y="302.1126">1</text><text fill="#000000" font-family="sans-serif" font-size="7.8" lengthAdjust="spacing" textLength="13.2" x="550.5305" y="389.3756">4..5</text></g><!--link RecruitmentProcess to PhaseNames--><g id="link_RecruitmentProcess_PhaseNames"><path codeLine="136" d="M206.208,289.2082 C222.756,289.2082 237.444,289.2082 253.032,289.2082 " fill="none" id="RecruitmentProcess-to-PhaseNames" style="stroke:#181818;stroke-width:0.6;"/><polygon fill="#181818" points="256.632,289.2082,251.232,286.8082,253.632,289.2082,251.232,291.6082,256.632,289.2082" style="stroke:#181818;stroke-width:0.6;"/><text fill="#000000" font-family="sans-serif" font-size="7.8" lengthAdjust="spacing" textLength="28.8" x="217.05" y="285.0252">includes</text><text fill="#000000" font-family="sans-serif" font-size="7.8" lengthAdjust="spacing" textLength="4.2" x="210.9649" y="286.9513">1</text><text fill="#000000" font-family="sans-serif" font-size="7.8" lengthAdjust="spacing" textLength="4.2" x="247.8685" y="286.8372">1</text></g><!--link JobOpening to RecruitmentProcess--><g id="link_JobOpening_RecruitmentProcess"><path codeLine="137" d="M509.19,199.7542 C454.704,212.7502 341.76,239.9662 246.6,264.6082 C233.466,268.0102 222.7375,270.8682 209.6515,274.4322 " fill="none" id="JobOpening-to-RecruitmentProcess" style="stroke:#181818;stroke-width:0.6;"/><polygon fill="#181818" points="206.178,275.3782,212.0189,276.2748,209.0726,274.5899,210.7575,271.6435,206.178,275.3782" style="stroke:#181818;stroke-width:0.6;"/><text fill="#000000" font-family="sans-serif" font-size="7.8" lengthAdjust="spacing" textLength="28.8" x="360.6" y="244.2252">includes</text><text fill="#000000" font-family="sans-serif" font-size="7.8" lengthAdjust="spacing" textLength="4.2" x="500.3258" y="198.4246">1</text><text fill="#000000" font-family="sans-serif" font-size="7.8" lengthAdjust="spacing" textLength="4.2" x="210.932" y="271.8032">1</text></g><!--link ScreeningPhase to Phase--><g id="link_ScreeningPhase_Phase"><path codeLine="140" d="M750.258,308.2102 C713.892,329.4202 664.1089,358.4605 630.1549,378.2665 " fill="none" id="ScreeningPhase-to-Phase" style="stroke:#181818;stroke-width:0.6;"/><polygon fill="none" points="620.826,383.7082,631.9688,381.3761,628.341,375.1569,620.826,383.7082" style="stroke:#181818;stroke-width:0.6;"/></g><!--link ResultPhase to Phase--><g id="link_ResultPhase_Phase"><path codeLine="141" d="M670.83,308.3302 C657.168,324.5782 643.976,340.2755 627.824,359.4875 " fill="none" id="ResultPhase-to-Phase" style="stroke:#181818;stroke-width:0.6;"/><polygon fill="none" points="620.874,367.7542,630.5795,361.8042,625.0684,357.1709,620.874,367.7542" style="stroke:#181818;stroke-width:0.6;"/></g><!--link InterviewPhase to Phase--><g id="link_InterviewPhase_Phase"><path codeLine="142" d="M85.602,308.1202 C90.414,310.2562 95.37,312.2362 100.2,313.8082 C273.504,370.2142 483.0448,390.4934 557.7328,396.3254 " fill="none" id="InterviewPhase-to-Phase" style="stroke:#181818;stroke-width:0.6;"/><polygon fill="none" points="568.5,397.1662,558.013,392.7364,557.4525,399.9145,568.5,397.1662" style="stroke:#181818;stroke-width:0.6;"/></g><!--link AnalysisPhase to Phase--><g id="link_AnalysisPhase_Phase"><path codeLine="143" d="M594.6,308.3302 C594.6,323.4862 594.6,334.5442 594.6,353.0062 " fill="none" id="AnalysisPhase-to-Phase" style="stroke:#181818;stroke-width:0.6;"/><polygon fill="none" points="594.6,363.8062,598.2,353.0062,591,353.0062,594.6,363.8062" style="stroke:#181818;stroke-width:0.6;"/></g><!--reverse link JobOpening to Notification--><g id="link_JobOpening_Notification"><path codeLine="145" d="M577.7944,195.8162 C646.5004,203.7302 799.656,225.3322 833.4,264.6082 C891.744,332.5162 871.884,452.0962 861.468,497.6662 " fill="none" id="JobOpening-backto-Notification" style="stroke:#181818;stroke-width:0.6;"/><polygon fill="#181818" points="574.218,195.4042,579.3079,198.4064,577.1983,195.7475,579.8572,193.6379,574.218,195.4042" style="stroke:#181818;stroke-width:0.6;"/><text fill="#000000" font-family="sans-serif" font-size="7.8" lengthAdjust="spacing" textLength="118.2" x="868.2" y="340.8252">made when something changes in</text></g><!--reverse link JobApplication to Notification--><g id="link_JobApplication_Notification"><path codeLine="146" d="M1010.6823,404.2105 C973.8903,409.4785 921.36,422.0782 885,454.5082 C872.376,465.7642 865.032,483.8182 861.024,497.4562 " fill="none" id="JobApplication-backto-Notification" style="stroke:#181818;stroke-width:0.6;"/><polygon fill="#181818" points="1014.246,403.7002,1008.5603,402.0898,1011.2763,404.1254,1009.2407,406.8414,1014.246,403.7002" style="stroke:#181818;stroke-width:0.6;"/><text fill="#000000" font-family="sans-serif" font-size="7.8" lengthAdjust="spacing" textLength="118.2" x="885.6" y="463.5252">made when something changes in</text></g><!--link Plugin to PlugClass--><g id="link_Plugin_PlugClass"><path codeLine="148" d="M1055.904,97.2922 C1066.344,119.5342 1080.1021,148.8435 1089.6061,169.0875 " fill="none" id="Plugin-to-PlugClass" style="stroke:#181818;stroke-width:0.6;"/><polygon fill="#181818" points="1091.136,172.3462,1091.0137,166.4382,1089.8611,169.6306,1086.6687,168.478,1091.136,172.3462" style="stroke:#181818;stroke-width:0.6;"/><text fill="#000000" font-family="sans-serif" font-size="7.8" lengthAdjust="spacing" textLength="28.8" x="1078.8" y="146.4252">includes</text><text fill="#000000" font-family="sans-serif" font-size="7.8" lengthAdjust="spacing" textLength="4.2" x="1053.1134" y="110.2895">1</text><text fill="#000000" font-family="sans-serif" font-size="7.8" lengthAdjust="spacing" textLength="4.2" x="1084.8168" y="165.8092">1</text></g><!--link Plugin to JarFile--><g id="link_Plugin_JarFile"><path codeLine="149" d="M1069.302,90.8122 C1100.136,112.7902 1149.6924,148.1107 1180.9824,170.4127 " fill="none" id="Plugin-to-JarFile" style="stroke:#181818;stroke-width:0.6;"/><polygon fill="#181818" points="1183.914,172.5022,1180.9096,167.4136,1181.471,170.761,1178.1237,171.3224,1183.914,172.5022" style="stroke:#181818;stroke-width:0.6;"/><text fill="#000000" font-family="sans-serif" font-size="7.8" lengthAdjust="spacing" textLength="28.8" x="1147.2" y="146.4252">includes</text><text fill="#000000" font-family="sans-serif" font-size="7.8" lengthAdjust="spacing" textLength="4.2" x="1074.0761" y="91.3862">1</text><text fill="#000000" font-family="sans-serif" font-size="7.8" lengthAdjust="spacing" textLength="4.2" x="1173.9831" y="165.771">1</text></g><!--link Plugin to PlugDesc--><g id="link_Plugin_PlugDesc"><path codeLine="150" d="M1069.236,83.5162 C1109.106,100.3162 1190.124,134.9302 1257.6,166.8082 C1261.35,168.5842 1262.0221,168.8802 1265.8981,170.7942 " fill="none" id="Plugin-to-PlugDesc" style="stroke:#181818;stroke-width:0.6;"/><polygon fill="#181818" points="1269.126,172.3882,1265.3468,167.8453,1266.4361,171.0599,1263.2215,172.1492,1269.126,172.3882" style="stroke:#181818;stroke-width:0.6;"/><text fill="#000000" font-family="sans-serif" font-size="7.8" lengthAdjust="spacing" textLength="28.8" x="1217.4" y="146.4252">includes</text><text fill="#000000" font-family="sans-serif" font-size="7.8" lengthAdjust="spacing" textLength="4.2" x="1073.9983" y="82.7906">1</text><text fill="#000000" font-family="sans-serif" font-size="7.8" lengthAdjust="spacing" textLength="4.2" x="1258.8739" y="166.7634">1</text></g><!--link Plugin to PlugID--><g id="link_Plugin_PlugID"><path codeLine="151" d="M1019.898,92.4982 C993.948,112.7602 955.9071,142.4642 927.8151,164.4062 " fill="none" id="Plugin-to-PlugID" style="stroke:#181818;stroke-width:0.6;"/><polygon fill="#181818" points="924.978,166.6222,930.711,165.1896,927.3423,164.7755,927.7563,161.4068,924.978,166.6222" style="stroke:#181818;stroke-width:0.6;"/><text fill="#000000" font-family="sans-serif" font-size="7.8" lengthAdjust="spacing" textLength="41.4" x="960.6" y="146.4252">identified by</text><text fill="#000000" font-family="sans-serif" font-size="7.8" lengthAdjust="spacing" textLength="4.2" x="1010.9239" y="93.3725">1</text><text fill="#000000" font-family="sans-serif" font-size="7.8" lengthAdjust="spacing" textLength="4.2" x="925.3804" y="160.0966">1</text></g><!--link Plugin to PlugType--><g id="link_Plugin_PlugType"><path codeLine="152" d="M1033.422,97.2922 C1023.09,119.5342 1009.4864,148.8372 1000.0844,169.0812 " fill="none" id="Plugin-to-PlugType" style="stroke:#181818;stroke-width:0.6;"/><polygon fill="#181818" points="998.568,172.3462,1003.0193,168.4596,999.8317,169.6253,998.6659,166.4377,998.568,172.3462" style="stroke:#181818;stroke-width:0.6;"/><text fill="#000000" font-family="sans-serif" font-size="7.8" lengthAdjust="spacing" textLength="19.2" x="1014.6" y="146.4252">has a</text><text fill="#000000" font-family="sans-serif" font-size="7.8" lengthAdjust="spacing" textLength="4.2" x="1027.1888" y="110.2895">1</text><text fill="#000000" font-family="sans-serif" font-size="7.8" lengthAdjust="spacing" textLength="4.2" x="995.6414" y="165.8092">1</text></g><!--link JobApplication to ID--><g id="link_JobApplication_ID"><path codeLine="155" d="M1054.218,424.4842 C1056.684,444.3142 1059.7075,468.6238 1062.1675,488.3938 " fill="none" id="JobApplication-to-ID" style="stroke:#181818;stroke-width:0.6;"/><polygon fill="#181818" points="1062.612,491.9662,1064.3268,486.3112,1062.2416,488.9892,1059.5636,486.9039,1062.612,491.9662" style="stroke:#181818;stroke-width:0.6;"/><text fill="#000000" font-family="sans-serif" font-size="7.8" lengthAdjust="spacing" textLength="41.4" x="1059.6" y="463.5252">identified by</text><text fill="#000000" font-family="sans-serif" font-size="7.8" lengthAdjust="spacing" textLength="4.2" x="1050.1528" y="437.3228">1</text><text fill="#000000" font-family="sans-serif" font-size="7.8" lengthAdjust="spacing" textLength="4.2" x="1057.5693" y="485.2784">1</text></g><!--link JobApplication to ApplicationFile--><g id="link_JobApplication_ApplicationFile"><path codeLine="156" d="M1088.124,412.5922 C1121.328,424.6642 1170.642,444.9442 1209,470.7082 C1215.804,475.2802 1219.8808,478.4227 1226.0368,484.0867 " fill="none" id="JobApplication-to-ApplicationFile" style="stroke:#181818;stroke-width:0.6;"/><polygon fill="#181818" points="1228.686,486.5242,1226.3371,481.1018,1226.4783,484.4929,1223.0871,484.6341,1228.686,486.5242" style="stroke:#181818;stroke-width:0.6;"/><text fill="#000000" font-family="sans-serif" font-size="7.8" lengthAdjust="spacing" textLength="4.2" x="1092.8801" y="411.7857">1</text><text fill="#000000" font-family="sans-serif" font-size="7.8" lengthAdjust="spacing" textLength="12" x="1211.945" y="479.7853">1..*</text></g><!--link ApplicationFile to Type--><g id="link_ApplicationFile_Type"><path codeLine="157" d="M1256.4,546.6922 C1256.4,558.7522 1256.4,568.7362 1256.4,579.3682 " fill="none" id="ApplicationFile-to-Type" style="stroke:#181818;stroke-width:0.6;"/><polygon fill="#181818" points="1256.4,582.9682,1258.8,577.5682,1256.4,579.9682,1254,577.5682,1256.4,582.9682" style="stroke:#181818;stroke-width:0.6;"/><text fill="#000000" font-family="sans-serif" font-size="7.8" lengthAdjust="spacing" textLength="4.2" x="1251.9047" y="560.0488">1</text><text fill="#000000" font-family="sans-serif" font-size="7.8" lengthAdjust="spacing" textLength="4.2" x="1251.7866" y="576.4158">1</text></g><!--reverse link JobOpening to JobApplication--><g id="link_JobOpening_JobApplication"><path codeLine="158" d="M577.9619,196.1924 C658.2719,205.5404 856.626,229.0882 870,235.2082 C940.866,267.6142 1003.35,337.8922 1032.984,374.9782 " fill="none" id="JobOpening-backto-JobApplication" style="stroke:#181818;stroke-width:0.6;"/><polygon fill="#181818" points="574.386,195.7762,579.4723,198.7844,577.3659,196.1231,580.0273,194.0166,574.386,195.7762" style="stroke:#181818;stroke-width:0.6;"/><text fill="#000000" font-family="sans-serif" font-size="7.8" lengthAdjust="spacing" textLength="28.2" x="976.8" y="292.5252">refers to</text><text fill="#000000" font-family="sans-serif" font-size="7.8" lengthAdjust="spacing" textLength="4.2" x="579.0469" y="193.9121">1</text><text fill="#000000" font-family="sans-serif" font-size="7.8" lengthAdjust="spacing" textLength="3" x="1026.7185" y="368.2924">*</text></g><!--link JobApplication to Grade--><g id="link_JobApplication_Grade"><path codeLine="159" d="M1076.562,424.4542 C1086.066,433.7182 1096.86,444.4702 1106.4,454.5082 C1117.806,466.5142 1127.7177,477.5567 1137.7377,489.0107 " fill="none" id="JobApplication-to-Grade" style="stroke:#181818;stroke-width:0.6;"/><polygon fill="#181818" points="1140.108,491.7202,1138.3589,486.0757,1138.1327,489.4623,1134.7462,489.2361,1140.108,491.7202" style="stroke:#181818;stroke-width:0.6;"/><text fill="#000000" font-family="sans-serif" font-size="7.8" lengthAdjust="spacing" textLength="28.8" x="1116" y="463.5252">includes</text><text fill="#000000" font-family="sans-serif" font-size="7.8" lengthAdjust="spacing" textLength="13.2" x="1122.5265" y="485.1783">0..1</text></g><!--link JobApplication to Status--><g id="link_JobApplication_Status"><path codeLine="160" d="M1036.56,424.2802 C1028.718,436.8682 1018.728,452.4202 1009.2,465.9082 C1001.628,476.6182 994.912,485.3816 987.49,494.7056 " fill="none" id="JobApplication-to-Status" style="stroke:#181818;stroke-width:0.6;"/><polygon fill="#181818" points="985.248,497.5222,990.4888,494.792,987.1164,495.175,986.7333,491.8026,985.248,497.5222" style="stroke:#181818;stroke-width:0.6;"/><text fill="#000000" font-family="sans-serif" font-size="7.8" lengthAdjust="spacing" textLength="12.6" x="1017" y="463.5252">has</text><text fill="#000000" font-family="sans-serif" font-size="7.8" lengthAdjust="spacing" textLength="4.2" x="1029.7967" y="437.2757">1</text><text fill="#000000" font-family="sans-serif" font-size="7.8" lengthAdjust="spacing" textLength="4.2" x="983.5971" y="490.9805">1</text></g><!--SRC=[bLRDRjim3BxhAGHV1XHmkWxR9HWA10cwfK3Re1rs67fHPCNHPik69BS8iZvH7s6tFDaaMPRadpIkBpPfyXD9aP_qOIjbAQRdvsM6cApoR8AB_1ndI8WueIZbA0UWHFWFIWcCheirl2i9eoo5ipJb94MIH7i0e7gC4umEhuH9AdU7Vu_idc1UKPahpOeNc0WHGIHWNxqt2FhvZiIIISAVA7bURP4WvizBlSJG6iR8m9elZrHgyHRbn6c4H5mkLCXEGrZYvPTE7ayegmWirhy9bcub3IZySaQq1L3-O2Z21yo9gPaFjQso_hq0maAAAfFUFv3tu6tN6KFPJb3XdLiQ7tlBdnU5oTaZmKUcjj_kli7nuXuCetGhU5sarkD18ba92zDMmltmbdV1vWMJ767vOrVMUOMA_RWjlIcIsbT_xCSciRwg69QqO4qP6daa0hojyZNXTvkV22E6gMseldeate88p6df8Whai3NVWfWb2M_6qtvV-55waAfTfHFdgY62V-50pOjAROB_-ukMM9LsL1g7LvheRjjGmcsXxyc6SC8mQIhj50Djt-xxDeiO_xRAb-ObeBZRGWU0aIvUY-EEZ5TeRnO95KsGklnkXLLMfVGOzl3iAUunJZNlcCy6-bqLhLsNJkVmbejHUBM_6pWj-c4RvNk3A9jh4qsS3iHeHg5S8tv5C-AyhJpAjpicUcMj2tOfFEbcPPcTR8IXlMhxDfqRg5pdlHbkG97rvqXUx6xwCgcRVp6I4m-l66MuobIsYPQ_SMH9qdpjJtE9prJlJSqfRLqT2YTg4Vf4j6Q5vDOeDqhGJAvI67cgk7uCUr572JIhm-WYWb_ZMB_zYGMda3ASLGaH823mqyOzZZxj4lJTQUE6V4yQXgTT0wjVmzO0MDg9FaucdnmqF5gHHgkCulZIcZhsrSPDaoLmlGF7N3f7Ux16_n9e0ZfJMNoUJBv4zVqAJajrPuF5vfXzV6bU_Z9sF0yOryO3IDEWKEsxcNBwUrd3W-3M5QhRnqhuftNJ2d-4aUcjQ9qwKvYhEOFFMyAWA78YjzeCRn5BLNgKWGuvlH_0DeEjYQbVmy9X-NfMbctxDdRFzQjXrM6ZPW_igTFhezQIpj3q-1Igqa44G2T_tsu3U9rIUU39v2pgiXBeoAs0TGoTXbA5ZwEpxbanLRocnaH0MNINDrXg01MSuT9EhtOYjLcvqL7f0_0V]--></g></svg>