<?xml version="1.0" encoding="us-ascii" standalone="no"?><svg xmlns="http://www.w3.org/2000/svg" xmlns:xlink="http://www.w3.org/1999/xlink" contentStyleType="text/css" height="765.5px" preserveAspectRatio="none" style="width:1352px;height:765px;background:#FFFFFF;" version="1.1" viewBox="0 0 1352 765" width="1352.5px" zoomAndPan="magnify"><defs/><g><text fill="#000000" font-family="sans-serif" font-size="7" font-weight="bold" lengthAdjust="spacing" textLength="411" x="471.625" y="15.0537">"US1016 - I want the system to notify candidates,by email, of the result of the verification process" Sequence Diagram</text><rect fill="#FFFFFF" height="648.4561" style="stroke:#181818;stroke-width:0.5;" width="5" x="31.75" y="66.6211"/><rect fill="#FFFFFF" height="117.8486" style="stroke:#181818;stroke-width:0.5;" width="5" x="216.25" y="78.2666"/><rect fill="#FFFFFF" height="503.3164" style="stroke:#181818;stroke-width:0.5;" width="5" x="216.25" y="211.7607"/><rect fill="#FFFFFF" height="46.9365" style="stroke:#181818;stroke-width:0.5;" width="5" x="552.75" y="133.5332"/><rect fill="#FFFFFF" height="46.9365" style="stroke:#181818;stroke-width:0.5;" width="5" x="552.75" y="227.4063"/><rect fill="#FFFFFF" height="46.9365" style="stroke:#181818;stroke-width:0.5;" width="5" x="552.75" y="303.1338"/><rect fill="#FFFFFF" height="93.7031" style="stroke:#181818;stroke-width:0.5;" width="5" x="552.75" y="392.0068"/><rect fill="#FFFFFF" height="62.582" style="stroke:#181818;stroke-width:0.5;" width="5" x="552.75" y="501.3555"/><rect fill="#FFFFFF" height="78.0576" style="stroke:#181818;stroke-width:0.5;" width="5" x="552.75" y="590.083"/><rect fill="#FFFFFF" height="15.6455" style="stroke:#181818;stroke-width:0.5;" width="5" x="552.75" y="683.7861"/><rect fill="#FFFFFF" height="15.6455" style="stroke:#181818;stroke-width:0.5;" width="5" x="699.25" y="149.1787"/><rect fill="#FFFFFF" height="15.6455" style="stroke:#181818;stroke-width:0.5;" width="5" x="789" y="243.0518"/><rect fill="#FFFFFF" height="46.7666" style="stroke:#181818;stroke-width:0.5;" width="5" x="877.25" y="605.7285"/><rect fill="#FFFFFF" height="15.6455" style="stroke:#181818;stroke-width:0.5;" width="5" x="1039.5" y="438.7734"/><rect fill="#FFFFFF" height="15.6455" style="stroke:#181818;stroke-width:0.5;" width="5" x="1114" y="318.7793"/><rect fill="#FFFFFF" height="15.6455" style="stroke:#181818;stroke-width:0.5;" width="5" x="1228" y="517.001"/><rect fill="none" height="293.0947" style="stroke:#000000;stroke-width:0.75;" width="1224.5" x="125.25" y="281.8428"/><rect fill="none" height="213.8672" style="stroke:#000000;stroke-width:0.75;" width="1214.5" x="130.25" y="357.5703"/><rect fill="none" height="197.2217" style="stroke:#000000;stroke-width:0.75;" width="1204.5" x="135.25" y="370.7158"/><line style="stroke:#181818;stroke-width:0.25;stroke-dasharray:5.0,5.0;" x1="34" x2="34" y1="61.6211" y2="724.0771"/><line style="stroke:#181818;stroke-width:0.25;stroke-dasharray:5.0,5.0;" x1="218.75" x2="218.75" y1="61.6211" y2="724.0771"/><line style="stroke:#181818;stroke-width:0.25;stroke-dasharray:5.0,5.0;" x1="555.25" x2="555.25" y1="107.0771" y2="724.0771"/><line style="stroke:#181818;stroke-width:0.25;stroke-dasharray:5.0,5.0;" x1="701.75" x2="701.75" y1="61.6211" y2="724.0771"/><line style="stroke:#181818;stroke-width:0.25;stroke-dasharray:5.0,5.0;" x1="791.25" x2="791.25" y1="61.6211" y2="724.0771"/><line style="stroke:#181818;stroke-width:0.25;stroke-dasharray:5.0,5.0;" x1="879.75" x2="879.75" y1="61.6211" y2="724.0771"/><line style="stroke:#181818;stroke-width:0.25;stroke-dasharray:5.0,5.0;" x1="959.75" x2="959.75" y1="630.2891" y2="724.0771"/><line style="stroke:#181818;stroke-width:0.25;stroke-dasharray:5.0,5.0;" x1="1041.75" x2="1041.75" y1="416.5674" y2="724.0771"/><line style="stroke:#181818;stroke-width:0.25;stroke-dasharray:5.0,5.0;" x1="1116.25" x2="1116.25" y1="61.6211" y2="724.0771"/><line style="stroke:#181818;stroke-width:0.25;stroke-dasharray:5.0,5.0;" x1="1176.25" x2="1176.25" y1="61.6211" y2="724.0771"/><line style="stroke:#181818;stroke-width:0.25;stroke-dasharray:5.0,5.0;" x1="1230.25" x2="1230.25" y1="61.6211" y2="724.0771"/><line style="stroke:#181818;stroke-width:0.25;stroke-dasharray:5.0,5.0;" x1="1295.75" x2="1295.75" y1="61.6211" y2="724.0771"/><text fill="#000000" font-family="sans-serif" font-size="7" lengthAdjust="spacing" textLength="60.5" x="2.5" y="59.8643">Customer Manager</text><ellipse cx="34.25" cy="26.5605" fill="#E3E3E3" rx="4" ry="4" style="stroke:#181818;stroke-width:0.25;"/><path d="M34.25,30.5605 L34.25,44.0605 M27.75,34.5605 L40.75,34.5605 M34.25,44.0605 L27.75,51.5605 M34.25,44.0605 L40.75,51.5605 " fill="none" style="stroke:#181818;stroke-width:0.25;"/><text fill="#000000" font-family="sans-serif" font-size="7" lengthAdjust="spacing" textLength="60.5" x="2.5" y="731.1309">Customer Manager</text><ellipse cx="34.25" cy="737.1377" fill="#E3E3E3" rx="4" ry="4" style="stroke:#181818;stroke-width:0.25;"/><path d="M34.25,741.1377 L34.25,754.6377 M27.75,745.1377 L40.75,745.1377 M34.25,754.6377 L27.75,762.1377 M34.25,754.6377 L40.75,762.1377 " fill="none" style="stroke:#181818;stroke-width:0.25;"/><rect fill="#E3E3E3" height="25.6211" rx="1.25" ry="1.25" style="stroke:#181818;stroke-width:0.25;" width="157" x="140.25" y="35.5"/><text fill="#000000" font-family="sans-serif" font-size="7" font-style="italic" lengthAdjust="spacing" textLength="47.5" x="195" y="46.5537">&#171;presentation&#187;</text><text fill="#000000" font-family="sans-serif" font-size="7" lengthAdjust="spacing" textLength="150" x="143.75" y="55.8643">:ExecuteVerificationRequirementsJobOpeningUI</text><rect fill="#E3E3E3" height="25.6211" rx="1.25" ry="1.25" style="stroke:#181818;stroke-width:0.25;" width="157" x="140.25" y="723.5771"/><text fill="#000000" font-family="sans-serif" font-size="7" font-style="italic" lengthAdjust="spacing" textLength="47.5" x="195" y="734.6309">&#171;presentation&#187;</text><text fill="#000000" font-family="sans-serif" font-size="7" lengthAdjust="spacing" textLength="150" x="143.75" y="743.9414">:ExecuteVerificationRequirementsJobOpeningUI</text><text fill="#000000" font-family="sans-serif" font-size="7" font-style="italic" lengthAdjust="spacing" textLength="42" x="532.75" y="731.1309">&#171;application&#187;</text><text fill="#000000" font-family="sans-serif" font-size="7" lengthAdjust="spacing" textLength="175" x="466.25" y="740.4414">:ExecuteVerificationRequirementsJobOpeningController</text><ellipse cx="555.25" cy="750.1982" fill="#E3E3E3" rx="6" ry="6" style="stroke:#181818;stroke-width:0.25;"/><polygon fill="#181818" points="553.25,744.1982,556.25,741.6982,555.25,744.1982,556.25,746.6982,553.25,744.1982" style="stroke:#181818;stroke-width:0.5;"/><rect fill="#E3E3E3" height="25.6211" rx="1.25" ry="1.25" style="stroke:#181818;stroke-width:0.25;" width="81" x="661.25" y="35.5"/><text fill="#000000" font-family="sans-serif" font-size="7" font-style="italic" lengthAdjust="spacing" textLength="39.5" x="682" y="46.5537">&#171;repository&#187;</text><text fill="#000000" font-family="sans-serif" font-size="7" lengthAdjust="spacing" textLength="74" x="664.75" y="55.8643">:JobOpeningRepository</text><rect fill="#E3E3E3" height="25.6211" rx="1.25" ry="1.25" style="stroke:#181818;stroke-width:0.25;" width="81" x="661.25" y="723.5771"/><text fill="#000000" font-family="sans-serif" font-size="7" font-style="italic" lengthAdjust="spacing" textLength="39.5" x="682" y="734.6309">&#171;repository&#187;</text><text fill="#000000" font-family="sans-serif" font-size="7" lengthAdjust="spacing" textLength="74" x="664.75" y="743.9414">:JobOpeningRepository</text><rect fill="#E3E3E3" height="25.6211" rx="1.25" ry="1.25" style="stroke:#181818;stroke-width:0.25;" width="88.5" x="747.25" y="35.5"/><text fill="#000000" font-family="sans-serif" font-size="7" font-style="italic" lengthAdjust="spacing" textLength="39.5" x="771.75" y="46.5537">&#171;repository&#187;</text><text fill="#000000" font-family="sans-serif" font-size="7" lengthAdjust="spacing" textLength="81.5" x="750.75" y="55.8643">:JobApplicationRepository</text><rect fill="#E3E3E3" height="25.6211" rx="1.25" ry="1.25" style="stroke:#181818;stroke-width:0.25;" width="88.5" x="747.25" y="723.5771"/><text fill="#000000" font-family="sans-serif" font-size="7" font-style="italic" lengthAdjust="spacing" textLength="39.5" x="771.75" y="734.6309">&#171;repository&#187;</text><text fill="#000000" font-family="sans-serif" font-size="7" lengthAdjust="spacing" textLength="81.5" x="750.75" y="743.9414">:JobApplicationRepository</text><rect fill="#E3E3E3" height="25.6211" rx="1.25" ry="1.25" style="stroke:#181818;stroke-width:0.25;" width="78" x="840.75" y="35.5"/><text fill="#000000" font-family="sans-serif" font-size="7" font-style="italic" lengthAdjust="spacing" textLength="30" x="864.75" y="46.5537">&#171;service&#187;</text><text fill="#000000" font-family="sans-serif" font-size="7" lengthAdjust="spacing" textLength="71" x="844.25" y="55.8643">:JobApplicationService</text><rect fill="#E3E3E3" height="25.6211" rx="1.25" ry="1.25" style="stroke:#181818;stroke-width:0.25;" width="78" x="840.75" y="723.5771"/><text fill="#000000" font-family="sans-serif" font-size="7" font-style="italic" lengthAdjust="spacing" textLength="30" x="864.75" y="734.6309">&#171;service&#187;</text><text fill="#000000" font-family="sans-serif" font-size="7" lengthAdjust="spacing" textLength="71" x="844.25" y="743.9414">:JobApplicationService</text><rect fill="#E3E3E3" height="25.6211" rx="1.25" ry="1.25" style="stroke:#181818;stroke-width:0.25;" width="69.5" x="925.25" y="723.5771"/><text fill="#000000" font-family="sans-serif" font-size="7" font-style="italic" lengthAdjust="spacing" textLength="31" x="944.5" y="734.6309">&#171;domain&#187;</text><text fill="#000000" font-family="sans-serif" font-size="7" lengthAdjust="spacing" textLength="62.5" x="928.75" y="743.9414">:JobApplicationDTO</text><rect fill="#E3E3E3" height="25.6211" rx="1.25" ry="1.25" style="stroke:#181818;stroke-width:0.25;" width="84.5" x="999.75" y="723.5771"/><text fill="#000000" font-family="sans-serif" font-size="7" font-style="italic" lengthAdjust="spacing" textLength="77.5" x="1003.25" y="734.6309">&#171;requirementsInterface&#187;</text><text fill="#000000" font-family="sans-serif" font-size="7" lengthAdjust="spacing" textLength="55" x="1014.5" y="743.9414">jarClass :jarClass</text><rect fill="#E3E3E3" height="25.6211" rx="1.25" ry="1.25" style="stroke:#181818;stroke-width:0.25;" width="54.5" x="1089.25" y="35.5"/><text fill="#000000" font-family="sans-serif" font-size="7" font-style="italic" lengthAdjust="spacing" textLength="31" x="1101" y="46.5537">&#171;domain&#187;</text><text fill="#000000" font-family="sans-serif" font-size="7" lengthAdjust="spacing" textLength="47.5" x="1092.75" y="55.8643">:JobApplication</text><rect fill="#E3E3E3" height="25.6211" rx="1.25" ry="1.25" style="stroke:#181818;stroke-width:0.25;" width="54.5" x="1089.25" y="723.5771"/><text fill="#000000" font-family="sans-serif" font-size="7" font-style="italic" lengthAdjust="spacing" textLength="31" x="1101" y="734.6309">&#171;domain&#187;</text><text fill="#000000" font-family="sans-serif" font-size="7" lengthAdjust="spacing" textLength="47.5" x="1092.75" y="743.9414">:JobApplication</text><rect fill="#E3E3E3" height="25.6211" rx="1.25" ry="1.25" style="stroke:#181818;stroke-width:0.25;" width="55" x="1148.75" y="35.5"/><text fill="#000000" font-family="sans-serif" font-size="7" font-style="italic" lengthAdjust="spacing" textLength="31" x="1160.75" y="46.5537">&#171;domain&#187;</text><text fill="#000000" font-family="sans-serif" font-size="7" lengthAdjust="spacing" textLength="48" x="1152.25" y="55.8643">:ApplicationFile</text><rect fill="#E3E3E3" height="25.6211" rx="1.25" ry="1.25" style="stroke:#181818;stroke-width:0.25;" width="55" x="1148.75" y="723.5771"/><text fill="#000000" font-family="sans-serif" font-size="7" font-style="italic" lengthAdjust="spacing" textLength="31" x="1160.75" y="734.6309">&#171;domain&#187;</text><text fill="#000000" font-family="sans-serif" font-size="7" lengthAdjust="spacing" textLength="48" x="1152.25" y="743.9414">:ApplicationFile</text><rect fill="#E3E3E3" height="25.6211" rx="1.25" ry="1.25" style="stroke:#181818;stroke-width:0.25;" width="43.5" x="1208.75" y="35.5"/><text fill="#000000" font-family="sans-serif" font-size="7" font-style="italic" lengthAdjust="spacing" textLength="31" x="1215" y="46.5537">&#171;domain&#187;</text><text fill="#000000" font-family="sans-serif" font-size="7" lengthAdjust="spacing" textLength="36.5" x="1212.25" y="55.8643">:Notification</text><rect fill="#E3E3E3" height="25.6211" rx="1.25" ry="1.25" style="stroke:#181818;stroke-width:0.25;" width="43.5" x="1208.75" y="723.5771"/><text fill="#000000" font-family="sans-serif" font-size="7" font-style="italic" lengthAdjust="spacing" textLength="31" x="1215" y="734.6309">&#171;domain&#187;</text><text fill="#000000" font-family="sans-serif" font-size="7" lengthAdjust="spacing" textLength="36.5" x="1212.25" y="743.9414">:Notification</text><rect fill="#E3E3E3" height="25.6211" rx="1.25" ry="1.25" style="stroke:#181818;stroke-width:0.25;" width="77.5" x="1257.25" y="35.5"/><text fill="#000000" font-family="sans-serif" font-size="7" font-style="italic" lengthAdjust="spacing" textLength="39.5" x="1276.25" y="46.5537">&#171;repository&#187;</text><text fill="#000000" font-family="sans-serif" font-size="7" lengthAdjust="spacing" textLength="70.5" x="1260.75" y="55.8643">:NotificationRepository</text><rect fill="#E3E3E3" height="25.6211" rx="1.25" ry="1.25" style="stroke:#181818;stroke-width:0.25;" width="77.5" x="1257.25" y="723.5771"/><text fill="#000000" font-family="sans-serif" font-size="7" font-style="italic" lengthAdjust="spacing" textLength="39.5" x="1276.25" y="734.6309">&#171;repository&#187;</text><text fill="#000000" font-family="sans-serif" font-size="7" lengthAdjust="spacing" textLength="70.5" x="1260.75" y="743.9414">:NotificationRepository</text><rect fill="#FFFFFF" height="648.4561" style="stroke:#181818;stroke-width:0.5;" width="5" x="31.75" y="66.6211"/><rect fill="#FFFFFF" height="117.8486" style="stroke:#181818;stroke-width:0.5;" width="5" x="216.25" y="78.2666"/><rect fill="#FFFFFF" height="503.3164" style="stroke:#181818;stroke-width:0.5;" width="5" x="216.25" y="211.7607"/><rect fill="#FFFFFF" height="46.9365" style="stroke:#181818;stroke-width:0.5;" width="5" x="552.75" y="133.5332"/><rect fill="#FFFFFF" height="46.9365" style="stroke:#181818;stroke-width:0.5;" width="5" x="552.75" y="227.4063"/><rect fill="#FFFFFF" height="46.9365" style="stroke:#181818;stroke-width:0.5;" width="5" x="552.75" y="303.1338"/><rect fill="#FFFFFF" height="93.7031" style="stroke:#181818;stroke-width:0.5;" width="5" x="552.75" y="392.0068"/><rect fill="#FFFFFF" height="62.582" style="stroke:#181818;stroke-width:0.5;" width="5" x="552.75" y="501.3555"/><rect fill="#FFFFFF" height="78.0576" style="stroke:#181818;stroke-width:0.5;" width="5" x="552.75" y="590.083"/><rect fill="#FFFFFF" height="15.6455" style="stroke:#181818;stroke-width:0.5;" width="5" x="552.75" y="683.7861"/><rect fill="#FFFFFF" height="15.6455" style="stroke:#181818;stroke-width:0.5;" width="5" x="699.25" y="149.1787"/><rect fill="#FFFFFF" height="15.6455" style="stroke:#181818;stroke-width:0.5;" width="5" x="789" y="243.0518"/><rect fill="#FFFFFF" height="46.7666" style="stroke:#181818;stroke-width:0.5;" width="5" x="877.25" y="605.7285"/><rect fill="#FFFFFF" height="15.6455" style="stroke:#181818;stroke-width:0.5;" width="5" x="1039.5" y="438.7734"/><rect fill="#FFFFFF" height="15.6455" style="stroke:#181818;stroke-width:0.5;" width="5" x="1114" y="318.7793"/><rect fill="#FFFFFF" height="15.6455" style="stroke:#181818;stroke-width:0.5;" width="5" x="1228" y="517.001"/><polygon fill="#181818" points="210.25,76.2666,215.25,78.2666,210.25,80.2666,212.25,78.2666" style="stroke:#181818;stroke-width:0.5;"/><line style="stroke:#181818;stroke-width:0.5;" x1="36.75" x2="213.25" y1="78.2666" y2="78.2666"/><text fill="#000000" font-family="sans-serif" font-size="6.5" font-weight="bold" lengthAdjust="spacing" textLength="3.5" x="40.25" y="75.6353">1</text><text fill="#000000" font-family="sans-serif" font-size="6.5" lengthAdjust="spacing" textLength="138" x="45.75" y="75.6353">asks to verify the requirements for a job opening</text><polygon fill="#181818" points="460.25,91.9121,465.25,93.9121,460.25,95.9121,462.25,93.9121" style="stroke:#181818;stroke-width:0.5;"/><line style="stroke:#181818;stroke-width:0.5;" x1="221.25" x2="463.25" y1="93.9121" y2="93.9121"/><text fill="#000000" font-family="sans-serif" font-size="6.5" font-weight="bold" lengthAdjust="spacing" textLength="3.5" x="224.75" y="91.2808">2</text><text fill="#000000" font-family="sans-serif" font-size="6.5" lengthAdjust="spacing" textLength="18" x="230.25" y="91.2808">create</text><text fill="#000000" font-family="sans-serif" font-size="7" font-style="italic" lengthAdjust="spacing" textLength="42" x="532.75" y="105.8203">&#171;application&#187;</text><text fill="#000000" font-family="sans-serif" font-size="7" lengthAdjust="spacing" textLength="175" x="466.25" y="115.1309">:ExecuteVerificationRequirementsJobOpeningController</text><ellipse cx="555.25" cy="90.2666" fill="#E3E3E3" rx="6" ry="6" style="stroke:#181818;stroke-width:0.25;"/><polygon fill="#181818" points="553.25,84.2666,556.25,81.7666,555.25,84.2666,556.25,86.7666,553.25,84.2666" style="stroke:#181818;stroke-width:0.5;"/><polygon fill="#181818" points="546.75,131.5332,551.75,133.5332,546.75,135.5332,548.75,133.5332" style="stroke:#181818;stroke-width:0.5;"/><line style="stroke:#181818;stroke-width:0.5;" x1="221.25" x2="549.75" y1="133.5332" y2="133.5332"/><text fill="#000000" font-family="sans-serif" font-size="6.5" font-weight="bold" lengthAdjust="spacing" textLength="3.5" x="224.75" y="130.9019">3</text><text fill="#000000" font-family="sans-serif" font-size="6.5" lengthAdjust="spacing" textLength="126.5" x="230.25" y="130.9019">allActiveJobOpeningsByCustomerManager()</text><polygon fill="#181818" points="693.25,147.1787,698.25,149.1787,693.25,151.1787,695.25,149.1787" style="stroke:#181818;stroke-width:0.5;"/><line style="stroke:#181818;stroke-width:0.5;" x1="557.75" x2="696.25" y1="149.1787" y2="149.1787"/><text fill="#000000" font-family="sans-serif" font-size="6.5" font-weight="bold" lengthAdjust="spacing" textLength="3.5" x="561.25" y="146.5474">4</text><text fill="#000000" font-family="sans-serif" font-size="6.5" lengthAdjust="spacing" textLength="126.5" x="566.75" y="146.5474">allActiveJobOpeningsByCustomerManager()</text><polygon fill="#181818" points="563.25,162.8242,558.25,164.8242,563.25,166.8242,561.25,164.8242" style="stroke:#181818;stroke-width:0.5;"/><line style="stroke:#181818;stroke-width:0.5;stroke-dasharray:2.0,2.0;" x1="560.25" x2="701.25" y1="164.8242" y2="164.8242"/><text fill="#000000" font-family="sans-serif" font-size="6.5" font-weight="bold" lengthAdjust="spacing" textLength="3.5" x="566.25" y="162.1929">5</text><text fill="#000000" font-family="sans-serif" font-size="6.5" lengthAdjust="spacing" textLength="43" x="571.75" y="162.1929">jobOpeningList</text><polygon fill="#181818" points="226.75,178.4697,221.75,180.4697,226.75,182.4697,224.75,180.4697" style="stroke:#181818;stroke-width:0.5;"/><line style="stroke:#181818;stroke-width:0.5;stroke-dasharray:2.0,2.0;" x1="223.75" x2="554.75" y1="180.4697" y2="180.4697"/><text fill="#000000" font-family="sans-serif" font-size="6.5" font-weight="bold" lengthAdjust="spacing" textLength="3.5" x="229.75" y="177.8384">6</text><text fill="#000000" font-family="sans-serif" font-size="6.5" lengthAdjust="spacing" textLength="43" x="235.25" y="177.8384">jobOpeningList</text><polygon fill="#181818" points="42.25,194.1152,37.25,196.1152,42.25,198.1152,40.25,196.1152" style="stroke:#181818;stroke-width:0.5;"/><line style="stroke:#181818;stroke-width:0.5;stroke-dasharray:2.0,2.0;" x1="39.25" x2="218.25" y1="196.1152" y2="196.1152"/><text fill="#000000" font-family="sans-serif" font-size="6.5" font-weight="bold" lengthAdjust="spacing" textLength="3.5" x="45.25" y="193.4839">7</text><text fill="#000000" font-family="sans-serif" font-size="6.5" lengthAdjust="spacing" textLength="162" x="50.75" y="193.4839">shows list of all the job openings and asks to select one</text><polygon fill="#181818" points="210.25,209.7607,215.25,211.7607,210.25,213.7607,212.25,211.7607" style="stroke:#181818;stroke-width:0.5;"/><line style="stroke:#181818;stroke-width:0.5;" x1="36.75" x2="213.25" y1="211.7607" y2="211.7607"/><text fill="#000000" font-family="sans-serif" font-size="6.5" font-weight="bold" lengthAdjust="spacing" textLength="3.5" x="40.25" y="209.1294">8</text><text fill="#000000" font-family="sans-serif" font-size="6.5" lengthAdjust="spacing" textLength="61.5" x="45.75" y="209.1294">selects a job opening</text><polygon fill="#181818" points="546.75,225.4063,551.75,227.4063,546.75,229.4063,548.75,227.4063" style="stroke:#181818;stroke-width:0.5;"/><line style="stroke:#181818;stroke-width:0.5;" x1="221.25" x2="549.75" y1="227.4063" y2="227.4063"/><text fill="#000000" font-family="sans-serif" font-size="6.5" font-weight="bold" lengthAdjust="spacing" textLength="3.5" x="224.75" y="224.7749">9</text><text fill="#000000" font-family="sans-serif" font-size="6.5" lengthAdjust="spacing" textLength="168" x="230.25" y="224.7749">allWaitingApplicationsByJobOpening(jobOpeningSelected)</text><polygon fill="#181818" points="783,241.0518,788,243.0518,783,245.0518,785,243.0518" style="stroke:#181818;stroke-width:0.5;"/><line style="stroke:#181818;stroke-width:0.5;" x1="557.75" x2="786" y1="243.0518" y2="243.0518"/><text fill="#000000" font-family="sans-serif" font-size="6.5" font-weight="bold" lengthAdjust="spacing" textLength="7" x="561.25" y="240.4204">10</text><text fill="#000000" font-family="sans-serif" font-size="6.5" lengthAdjust="spacing" textLength="170" x="570.25" y="240.4204">allWaitingApplicationsByJobOpening(jobOpeningSelected))</text><polygon fill="#181818" points="563.25,256.6973,558.25,258.6973,563.25,260.6973,561.25,258.6973" style="stroke:#181818;stroke-width:0.5;"/><line style="stroke:#181818;stroke-width:0.5;stroke-dasharray:2.0,2.0;" x1="560.25" x2="791" y1="258.6973" y2="258.6973"/><text fill="#000000" font-family="sans-serif" font-size="6.5" font-weight="bold" lengthAdjust="spacing" textLength="7" x="566.25" y="256.0659">11</text><text fill="#000000" font-family="sans-serif" font-size="6.5" lengthAdjust="spacing" textLength="54.5" x="575.25" y="256.0659">jobApplicationsList</text><polygon fill="#181818" points="226.75,272.3428,221.75,274.3428,226.75,276.3428,224.75,274.3428" style="stroke:#181818;stroke-width:0.5;"/><line style="stroke:#181818;stroke-width:0.5;" x1="223.75" x2="554.75" y1="274.3428" y2="274.3428"/><text fill="#000000" font-family="sans-serif" font-size="6.5" font-weight="bold" lengthAdjust="spacing" textLength="7" x="229.75" y="271.7114">12</text><text fill="#000000" font-family="sans-serif" font-size="6.5" lengthAdjust="spacing" textLength="54.5" x="238.75" y="271.7114">jobApplicationsList</text><path d="M125.25,281.8428 L161.75,281.8428 L161.75,286.4883 L156.75,291.4883 L125.25,291.4883 L125.25,281.8428 " fill="#EEEEEE" style="stroke:#000000;stroke-width:0.75;"/><rect fill="none" height="293.0947" style="stroke:#000000;stroke-width:0.75;" width="1224.5" x="125.25" y="281.8428"/><text fill="#000000" font-family="sans-serif" font-size="6.5" font-weight="bold" lengthAdjust="spacing" textLength="14" x="132.75" y="289.3569">loop</text><text fill="#000000" font-family="sans-serif" font-size="5.5" font-weight="bold" lengthAdjust="spacing" textLength="57" x="169.25" y="288.7778">[jobApplicationsList]</text><polygon fill="#181818" points="546.75,301.1338,551.75,303.1338,546.75,305.1338,548.75,303.1338" style="stroke:#181818;stroke-width:0.5;"/><line style="stroke:#181818;stroke-width:0.5;" x1="221.25" x2="549.75" y1="303.1338" y2="303.1338"/><text fill="#000000" font-family="sans-serif" font-size="6.5" font-weight="bold" lengthAdjust="spacing" textLength="7" x="224.75" y="300.5024">13</text><text fill="#000000" font-family="sans-serif" font-size="6.5" lengthAdjust="spacing" textLength="109.5" x="233.75" y="300.5024">filePathsRequirements(jobApplication)</text><polygon fill="#181818" points="1108,316.7793,1113,318.7793,1108,320.7793,1110,318.7793" style="stroke:#181818;stroke-width:0.5;"/><line style="stroke:#181818;stroke-width:0.5;" x1="557.75" x2="1111" y1="318.7793" y2="318.7793"/><text fill="#000000" font-family="sans-serif" font-size="6.5" font-weight="bold" lengthAdjust="spacing" textLength="7" x="561.25" y="316.1479">14</text><text fill="#000000" font-family="sans-serif" font-size="6.5" lengthAdjust="spacing" textLength="69" x="570.25" y="316.1479">filePathsRequirements()</text><polygon fill="#181818" points="563.25,332.4248,558.25,334.4248,563.25,336.4248,561.25,334.4248" style="stroke:#181818;stroke-width:0.5;"/><line style="stroke:#181818;stroke-width:0.5;stroke-dasharray:2.0,2.0;" x1="560.25" x2="1116" y1="334.4248" y2="334.4248"/><text fill="#000000" font-family="sans-serif" font-size="6.5" font-weight="bold" lengthAdjust="spacing" textLength="7" x="566.25" y="331.7935">15</text><text fill="#000000" font-family="sans-serif" font-size="6.5" lengthAdjust="spacing" textLength="26" x="575.25" y="331.7935">reqPaths</text><polygon fill="#181818" points="226.75,348.0703,221.75,350.0703,226.75,352.0703,224.75,350.0703" style="stroke:#181818;stroke-width:0.5;"/><line style="stroke:#181818;stroke-width:0.5;" x1="223.75" x2="554.75" y1="350.0703" y2="350.0703"/><text fill="#000000" font-family="sans-serif" font-size="6.5" font-weight="bold" lengthAdjust="spacing" textLength="7" x="229.75" y="347.439">16</text><text fill="#000000" font-family="sans-serif" font-size="6.5" lengthAdjust="spacing" textLength="11.5" x="238.75" y="347.439">files</text><path d="M130.25,357.5703 L160.75,357.5703 L160.75,362.2158 L155.75,367.2158 L130.25,367.2158 L130.25,357.5703 " fill="#EEEEEE" style="stroke:#000000;stroke-width:0.75;"/><rect fill="none" height="213.8672" style="stroke:#000000;stroke-width:0.75;" width="1214.5" x="130.25" y="357.5703"/><text fill="#000000" font-family="sans-serif" font-size="6.5" font-weight="bold" lengthAdjust="spacing" textLength="8" x="137.75" y="365.0845">alt</text><text fill="#000000" font-family="sans-serif" font-size="5.5" font-weight="bold" lengthAdjust="spacing" textLength="39.5" x="168.25" y="364.5054">[reqPaths != 0]</text><path d="M135.25,370.7158 L171.75,370.7158 L171.75,375.3613 L166.75,380.3613 L135.25,380.3613 L135.25,370.7158 " fill="#EEEEEE" style="stroke:#000000;stroke-width:0.75;"/><rect fill="none" height="197.2217" style="stroke:#000000;stroke-width:0.75;" width="1204.5" x="135.25" y="370.7158"/><text fill="#000000" font-family="sans-serif" font-size="6.5" font-weight="bold" lengthAdjust="spacing" textLength="14" x="142.75" y="378.23">loop</text><text fill="#000000" font-family="sans-serif" font-size="5.5" font-weight="bold" lengthAdjust="spacing" textLength="12.5" x="179.25" y="377.6509">[file]</text><polygon fill="#181818" points="546.75,390.0068,551.75,392.0068,546.75,394.0068,548.75,392.0068" style="stroke:#181818;stroke-width:0.5;"/><line style="stroke:#181818;stroke-width:0.5;" x1="221.25" x2="549.75" y1="392.0068" y2="392.0068"/><text fill="#000000" font-family="sans-serif" font-size="6.5" font-weight="bold" lengthAdjust="spacing" textLength="7" x="224.75" y="389.3755">17</text><text fill="#000000" font-family="sans-serif" font-size="6.5" lengthAdjust="spacing" textLength="173" x="233.75" y="389.3755">verifyRequirements(file, jobApplication, jobOpeningSelected)</text><polygon fill="#181818" points="993.75,405.6523,998.75,407.6523,993.75,409.6523,995.75,407.6523" style="stroke:#181818;stroke-width:0.5;"/><line style="stroke:#181818;stroke-width:0.5;" x1="557.75" x2="996.75" y1="407.6523" y2="407.6523"/><text fill="#000000" font-family="sans-serif" font-size="6.5" font-weight="bold" lengthAdjust="spacing" textLength="7" x="561.25" y="405.021">18</text><text fill="#000000" font-family="sans-serif" font-size="6.5" lengthAdjust="spacing" textLength="18" x="570.25" y="405.021">create</text><rect fill="#E3E3E3" height="25.6211" rx="1.25" ry="1.25" style="stroke:#181818;stroke-width:0.25;" width="84.5" x="999.75" y="396.0068"/><text fill="#000000" font-family="sans-serif" font-size="7" font-style="italic" lengthAdjust="spacing" textLength="77.5" x="1003.25" y="407.0605">&#171;requirementsInterface&#187;</text><text fill="#000000" font-family="sans-serif" font-size="7" lengthAdjust="spacing" textLength="55" x="1014.5" y="416.3711">jarClass :jarClass</text><polygon fill="#181818" points="1033.5,436.7734,1038.5,438.7734,1033.5,440.7734,1035.5,438.7734" style="stroke:#181818;stroke-width:0.5;"/><line style="stroke:#181818;stroke-width:0.5;" x1="557.75" x2="1036.5" y1="438.7734" y2="438.7734"/><text fill="#000000" font-family="sans-serif" font-size="6.5" font-weight="bold" lengthAdjust="spacing" textLength="7" x="561.25" y="436.1421">19</text><text fill="#000000" font-family="sans-serif" font-size="6.5" lengthAdjust="spacing" textLength="66.5" x="570.25" y="436.1421">verifyRequirements(file)</text><polygon fill="#181818" points="563.25,452.4189,558.25,454.4189,563.25,456.4189,561.25,454.4189" style="stroke:#181818;stroke-width:0.5;"/><line style="stroke:#181818;stroke-width:0.5;stroke-dasharray:2.0,2.0;" x1="560.25" x2="1041.5" y1="454.4189" y2="454.4189"/><text fill="#000000" font-family="sans-serif" font-size="6.5" font-weight="bold" lengthAdjust="spacing" textLength="7" x="566.25" y="451.7876">20</text><text fill="#000000" font-family="sans-serif" font-size="6.5" lengthAdjust="spacing" textLength="11" x="575.25" y="451.7876">true</text><polygon fill="#181818" points="1110.5,468.0645,1115.5,470.0645,1110.5,472.0645,1112.5,470.0645" style="stroke:#181818;stroke-width:0.5;"/><line style="stroke:#181818;stroke-width:0.5;" x1="557.75" x2="1113.5" y1="470.0645" y2="470.0645"/><text fill="#000000" font-family="sans-serif" font-size="6.5" font-weight="bold" lengthAdjust="spacing" textLength="7" x="561.25" y="467.4331">21</text><text fill="#000000" font-family="sans-serif" font-size="6.5" lengthAdjust="spacing" textLength="59" x="570.25" y="467.4331">ApproveApplication()</text><polygon fill="#181818" points="226.75,483.71,221.75,485.71,226.75,487.71,224.75,485.71" style="stroke:#181818;stroke-width:0.5;"/><line style="stroke:#181818;stroke-width:0.5;stroke-dasharray:2.0,2.0;" x1="223.75" x2="554.75" y1="485.71" y2="485.71"/><text fill="#000000" font-family="sans-serif" font-size="6.5" font-weight="bold" lengthAdjust="spacing" textLength="7" x="229.75" y="483.0786">22</text><text fill="#000000" font-family="sans-serif" font-size="6.5" lengthAdjust="spacing" textLength="12.5" x="238.75" y="483.0786">valid</text><polygon fill="#181818" points="546.75,499.3555,551.75,501.3555,546.75,503.3555,548.75,501.3555" style="stroke:#181818;stroke-width:0.5;"/><line style="stroke:#181818;stroke-width:0.5;" x1="221.25" x2="549.75" y1="501.3555" y2="501.3555"/><text fill="#000000" font-family="sans-serif" font-size="6.5" font-weight="bold" lengthAdjust="spacing" textLength="7" x="224.75" y="498.7241">23</text><text fill="#000000" font-family="sans-serif" font-size="6.5" lengthAdjust="spacing" textLength="209.5" x="233.75" y="498.7241">notifyCandidate(message, customerManagerEmail, jobOpeningSelected)</text><polygon fill="#181818" points="1222,515.001,1227,517.001,1222,519.001,1224,517.001" style="stroke:#181818;stroke-width:0.5;"/><line style="stroke:#181818;stroke-width:0.5;" x1="557.75" x2="1225" y1="517.001" y2="517.001"/><text fill="#000000" font-family="sans-serif" font-size="6.5" font-weight="bold" lengthAdjust="spacing" textLength="7" x="561.25" y="514.3696">24</text><text fill="#000000" font-family="sans-serif" font-size="6.5" lengthAdjust="spacing" textLength="255" x="570.25" y="514.3696">notification(candidateEmail, customerManagerEmail, title, subject , notificationMessage)</text><polygon fill="#181818" points="563.25,530.6465,558.25,532.6465,563.25,534.6465,561.25,532.6465" style="stroke:#181818;stroke-width:0.5;"/><line style="stroke:#181818;stroke-width:0.5;stroke-dasharray:2.0,2.0;" x1="560.25" x2="1230" y1="532.6465" y2="532.6465"/><text fill="#000000" font-family="sans-serif" font-size="6.5" font-weight="bold" lengthAdjust="spacing" textLength="7" x="566.25" y="530.0151">25</text><text fill="#000000" font-family="sans-serif" font-size="6.5" lengthAdjust="spacing" textLength="31" x="575.25" y="530.0151">notification</text><polygon fill="#181818" points="1290,546.292,1295,548.292,1290,550.292,1292,548.292" style="stroke:#181818;stroke-width:0.5;"/><line style="stroke:#181818;stroke-width:0.5;" x1="557.75" x2="1293" y1="548.292" y2="548.292"/><text fill="#000000" font-family="sans-serif" font-size="6.5" font-weight="bold" lengthAdjust="spacing" textLength="7" x="561.25" y="545.6606">26</text><text fill="#000000" font-family="sans-serif" font-size="6.5" lengthAdjust="spacing" textLength="48" x="570.25" y="545.6606">save(notification)</text><polygon fill="#181818" points="226.75,561.9375,221.75,563.9375,226.75,565.9375,224.75,563.9375" style="stroke:#181818;stroke-width:0.5;"/><line style="stroke:#181818;stroke-width:0.5;stroke-dasharray:2.0,2.0;" x1="223.75" x2="554.75" y1="563.9375" y2="563.9375"/><text fill="#000000" font-family="sans-serif" font-size="6.5" font-weight="bold" lengthAdjust="spacing" textLength="7" x="229.75" y="561.3062">27</text><text fill="#000000" font-family="sans-serif" font-size="6.5" lengthAdjust="spacing" textLength="57.5" x="238.75" y="561.3062">notificationMessage</text><polygon fill="#181818" points="546.75,588.083,551.75,590.083,546.75,592.083,548.75,590.083" style="stroke:#181818;stroke-width:0.5;"/><line style="stroke:#181818;stroke-width:0.5;" x1="221.25" x2="549.75" y1="590.083" y2="590.083"/><text fill="#000000" font-family="sans-serif" font-size="6.5" font-weight="bold" lengthAdjust="spacing" textLength="7" x="224.75" y="587.4517">28</text><text fill="#000000" font-family="sans-serif" font-size="6.5" lengthAdjust="spacing" textLength="104.5" x="233.75" y="587.4517">transformToDto(jobApplicationsList))</text><polygon fill="#181818" points="871.25,603.7285,876.25,605.7285,871.25,607.7285,873.25,605.7285" style="stroke:#181818;stroke-width:0.5;"/><line style="stroke:#181818;stroke-width:0.5;" x1="557.75" x2="874.25" y1="605.7285" y2="605.7285"/><text fill="#000000" font-family="sans-serif" font-size="6.5" font-weight="bold" lengthAdjust="spacing" textLength="7" x="561.25" y="603.0972">29</text><text fill="#000000" font-family="sans-serif" font-size="6.5" lengthAdjust="spacing" textLength="104.5" x="570.25" y="603.0972">transformToDto(jobApplicationsList))</text><polygon fill="#181818" points="919.25,619.374,924.25,621.374,919.25,623.374,921.25,621.374" style="stroke:#181818;stroke-width:0.5;"/><line style="stroke:#181818;stroke-width:0.5;" x1="882.25" x2="922.25" y1="621.374" y2="621.374"/><text fill="#000000" font-family="sans-serif" font-size="6.5" font-weight="bold" lengthAdjust="spacing" textLength="7" x="885.75" y="618.7427">30</text><text fill="#000000" font-family="sans-serif" font-size="6.5" lengthAdjust="spacing" textLength="22" x="894.75" y="618.7427">create()</text><rect fill="#E3E3E3" height="25.6211" rx="1.25" ry="1.25" style="stroke:#181818;stroke-width:0.25;" width="69.5" x="925.25" y="609.7285"/><text fill="#000000" font-family="sans-serif" font-size="7" font-style="italic" lengthAdjust="spacing" textLength="31" x="944.5" y="620.7822">&#171;domain&#187;</text><text fill="#000000" font-family="sans-serif" font-size="7" lengthAdjust="spacing" textLength="62.5" x="928.75" y="630.0928">:JobApplicationDTO</text><polygon fill="#181818" points="563.25,650.4951,558.25,652.4951,563.25,654.4951,561.25,652.4951" style="stroke:#181818;stroke-width:0.5;"/><line style="stroke:#181818;stroke-width:0.5;stroke-dasharray:2.0,2.0;" x1="560.25" x2="879.25" y1="652.4951" y2="652.4951"/><text fill="#000000" font-family="sans-serif" font-size="6.5" font-weight="bold" lengthAdjust="spacing" textLength="7" x="566.25" y="649.8638">31</text><text fill="#000000" font-family="sans-serif" font-size="6.5" lengthAdjust="spacing" textLength="67.5" x="575.25" y="649.8638">jobApplicationsListDTO</text><polygon fill="#181818" points="226.75,666.1406,221.75,668.1406,226.75,670.1406,224.75,668.1406" style="stroke:#181818;stroke-width:0.5;"/><line style="stroke:#181818;stroke-width:0.5;" x1="223.75" x2="554.75" y1="668.1406" y2="668.1406"/><text fill="#000000" font-family="sans-serif" font-size="6.5" font-weight="bold" lengthAdjust="spacing" textLength="7" x="229.75" y="665.5093">32</text><text fill="#000000" font-family="sans-serif" font-size="6.5" lengthAdjust="spacing" textLength="67" x="238.75" y="665.5093">listJobApplicationsDTO</text><polygon fill="#181818" points="546.75,681.7861,551.75,683.7861,546.75,685.7861,548.75,683.7861" style="stroke:#181818;stroke-width:0.5;"/><line style="stroke:#181818;stroke-width:0.5;" x1="221.25" x2="549.75" y1="683.7861" y2="683.7861"/><text fill="#000000" font-family="sans-serif" font-size="6.5" font-weight="bold" lengthAdjust="spacing" textLength="7" x="224.75" y="681.1548">33</text><text fill="#000000" font-family="sans-serif" font-size="6.5" lengthAdjust="spacing" textLength="313" x="233.75" y="681.1548">notifyResultByEmail(output, input ,listJobApplicationsDTO, authz.session().get().authenticatedUser().email())</text><polygon fill="#181818" points="226.75,697.4316,221.75,699.4316,226.75,701.4316,224.75,699.4316" style="stroke:#181818;stroke-width:0.5;"/><line style="stroke:#181818;stroke-width:0.5;stroke-dasharray:2.0,2.0;" x1="223.75" x2="554.75" y1="699.4316" y2="699.4316"/><text fill="#000000" font-family="sans-serif" font-size="6.5" font-weight="bold" lengthAdjust="spacing" textLength="7" x="229.75" y="696.8003">34</text><text fill="#000000" font-family="sans-serif" font-size="6.5" lengthAdjust="spacing" textLength="17.5" x="238.75" y="696.8003">phase</text><polygon fill="#181818" points="39.75,713.0771,34.75,715.0771,39.75,717.0771,37.75,715.0771" style="stroke:#181818;stroke-width:0.5;"/><line style="stroke:#181818;stroke-width:0.5;stroke-dasharray:2.0,2.0;" x1="36.75" x2="218.25" y1="715.0771" y2="715.0771"/><text fill="#000000" font-family="sans-serif" font-size="6.5" font-weight="bold" lengthAdjust="spacing" textLength="7" x="42.75" y="712.4458">35</text><text fill="#000000" font-family="sans-serif" font-size="6.5" lengthAdjust="spacing" textLength="136.5" x="51.75" y="712.4458">shows notificationMessage and Application info</text><!--SRC=[dLTBa-8s4BxhLtIu1APWQlUI0xMXQfRPL95QiYaODcTX6j2CiHn9PfRy-hHaRCjOnh0-p4Fg_lhza7uJISeLFy119ZBQAtb0C2f3fikRb4TlV8TBSueH54Q69xlO9z1xlf7l8jd1biSQ6UEPaKbsMADYp0X3RBtLykE7Zx_126RmpXC3Pe-WJzhW0Oo4H1gnFK74autOS8Dwk3u17hY8Xo2tZbYXpc9J_7T49ROYuaR8158b8zIw1qlyDyCaGdWMV4UQiL_tOeEmbTAivG_68oCLzAQPDcIcWZbFo2xL0wvXEcTaZ16HIArwlV6N7nXb1hzxWXO4BnGUC37wJxd-bc92Hgzc3c0rWq-VKjAIRXtrPC8YcHWbutlGfZbBNAZrilXAk3nDupCRmTOLhNWNc4ejoCQJumrT086fyhyGrbCbgeaNlBmBSudgA29qWCl5TsBL-Ka7t_FBDyT3lubd8oat6gvuvMeQSwrXNFoLw_sqS1fMxfub1jMMTmeDcDqgVEmH_I7YtCABitRclsm1-5BzWzlOBg8Llch4oXQ5E5B9sGfWGDzq3gE9JUSnmRnfMvwksaxdCgpSI8MbWCEhN8FC4or7A25Ni_p0VWH8i3QV7nu8Eb9852nqRmN7yPC5mIg7zUTJKRZdkkqFBiHPvXBl_DapmWtMmfrolAyK6S9jK8U8HfMnh-NrLw5DWtk3zqbp5XSHl8BjuJh7iOjWM0Nd1A7tybr3JEos-PB7N1vuGTT0RRlC5OqnZGYG2UPmdfWY7RmCowdrHHPTIQBHf4gHVxWmHEuL6GMlyb6_CdxfnE1cm1eHp6rlfakurVsit6OArN8eA2oKHq72UYxvQjsGKBU9plsocjqjeUxUMChqEa8HuJ5igM7-pSrU-uEoNsV-kNX26xWNfHONiN0iYWYCRNzqkApJsvxNAkzQlJHZdOxaj0eLek2Nt-53tSKM9kJJl97NRBQamukO3E5QwNIu_39jRAtJ2FQxVWTfgvw386VbtwT5aC0k05wDkFKsHEU7Yg1QrHnDwf6qer_98tf7WPdXDsVN-uuy5XlMfScvDuUeghZc-_EqM9_x1rg7QNGD8QgFiY_vIdrBTE-8y6XIsrREwXIUA9Vwi_2mIkwPC0IThL_j-1ZMCEQvEIq-BRNqjGYJ-XIZSfGadNnUFEf2RlH9RO9eViI-BtF0Ef9b7FB6lPc3DAHjSwWTK1yfAKe2nhmvQnHFD2rwXnVvR6G_qBm7jtPXk-_V2DZUR0Y4COj4WFGOU7Wekag_aSD4TNqq4l-rsUL4jKz2knBL6u7k0AnxfN5HMu7pabwuL-_dawkIlinCcfaXqCCxene9Ap04Udxl_tlKb2Qk4ptkqD1FUqgTr5BYPgNjNlledjXzylU59dapBfQqTC_jg_vIt_PbCP2jRaVqPx18jZAu8OOEVT5pzZy0]--></g></svg>