<?xml version="1.0" encoding="us-ascii" standalone="no"?><svg xmlns="http://www.w3.org/2000/svg" xmlns:xlink="http://www.w3.org/1999/xlink" contentStyleType="text/css" height="962px" preserveAspectRatio="none" style="width:1155px;height:962px;background:#FFFFFF;" version="1.1" viewBox="0 0 1155 962" width="1155px" zoomAndPan="magnify"><defs/><g><text fill="#000000" font-family="sans-serif" font-size="14" font-weight="bold" lengthAdjust="spacing" textLength="822" x="168.25" y="30.1074">"US1016 - I want the system to notify candidates,by email, of the result of the verification process" Sequence Diagram</text><rect fill="#FFFFFF" height="680.1602" style="stroke:#181818;stroke-width:1.0;" width="10" x="168" y="169.4453"/><rect fill="#FFFFFF" height="31.291" style="stroke:#181818;stroke-width:1.0;" width="10" x="721" y="445.7734"/><rect fill="#FFFFFF" height="31.291" style="stroke:#181818;stroke-width:1.0;" width="10" x="984.5" y="205.7363"/><rect fill="#FFFFFF" height="31.291" style="stroke:#181818;stroke-width:1.0;" width="10" x="984.5" y="268.3184"/><rect fill="#FFFFFF" height="31.291" style="stroke:#181818;stroke-width:1.0;" width="10" x="1082" y="578.9375"/><rect fill="#FFFFFF" height="31.291" style="stroke:#181818;stroke-width:1.0;" width="10" x="1082" y="702.4414"/><rect fill="none" height="410.123" style="stroke:#000000;stroke-width:1.5;" width="1048" x="101.5" y="403.1914"/><rect fill="none" height="249.668" style="stroke:#000000;stroke-width:1.5;" width="1028" x="111.5" y="492.0645"/><rect fill="none" height="50.582" style="stroke:#000000;stroke-width:1.5;" width="833" x="111.5" y="755.7324"/><line style="stroke:#181818;stroke-width:0.5;stroke-dasharray:5.0,5.0;" x1="172.5" x2="172.5" y1="96.8633" y2="905.8965"/><line style="stroke:#181818;stroke-width:0.5;stroke-dasharray:5.0,5.0;" x1="725.5" x2="725.5" y1="96.8633" y2="905.8965"/><line style="stroke:#181818;stroke-width:0.5;stroke-dasharray:5.0,5.0;" x1="856.5" x2="856.5" y1="96.8633" y2="905.8965"/><line style="stroke:#181818;stroke-width:0.5;stroke-dasharray:5.0,5.0;" x1="989.5" x2="989.5" y1="96.8633" y2="905.8965"/><line style="stroke:#181818;stroke-width:0.5;stroke-dasharray:5.0,5.0;" x1="1086.5" x2="1086.5" y1="96.8633" y2="905.8965"/><rect fill="#E3E3E3" height="51.2422" rx="2.5" ry="2.5" style="stroke:#181818;stroke-width:0.5;" width="103" x="121.5" y="44.6211"/><text fill="#000000" font-family="sans-serif" font-size="14" font-style="italic" lengthAdjust="spacing" textLength="62" x="142" y="66.7285">&#171;System&#187;</text><text fill="#000000" font-family="sans-serif" font-size="14" lengthAdjust="spacing" textLength="89" x="128.5" y="85.3496">:ClientHandler</text><rect fill="#E3E3E3" height="51.2422" rx="2.5" ry="2.5" style="stroke:#181818;stroke-width:0.5;" width="103" x="121.5" y="904.8965"/><text fill="#000000" font-family="sans-serif" font-size="14" font-style="italic" lengthAdjust="spacing" textLength="62" x="142" y="927.0039">&#171;System&#187;</text><text fill="#000000" font-family="sans-serif" font-size="14" lengthAdjust="spacing" textLength="89" x="128.5" y="945.625">:ClientHandler</text><rect fill="#E3E3E3" height="51.2422" rx="2.5" ry="2.5" style="stroke:#181818;stroke-width:0.5;" width="87" x="682.5" y="44.6211"/><text fill="#000000" font-family="sans-serif" font-size="14" font-style="italic" lengthAdjust="spacing" textLength="62" x="695" y="66.7285">&#171;domain&#187;</text><text fill="#000000" font-family="sans-serif" font-size="14" lengthAdjust="spacing" textLength="73" x="689.5" y="85.3496">:Notification</text><rect fill="#E3E3E3" height="51.2422" rx="2.5" ry="2.5" style="stroke:#181818;stroke-width:0.5;" width="87" x="682.5" y="904.8965"/><text fill="#000000" font-family="sans-serif" font-size="14" font-style="italic" lengthAdjust="spacing" textLength="62" x="695" y="927.0039">&#171;domain&#187;</text><text fill="#000000" font-family="sans-serif" font-size="14" lengthAdjust="spacing" textLength="73" x="689.5" y="945.625">:Notification</text><rect fill="#E3E3E3" height="51.2422" rx="2.5" ry="2.5" style="stroke:#181818;stroke-width:0.5;" width="155" x="779.5" y="44.6211"/><text fill="#000000" font-family="sans-serif" font-size="14" font-style="italic" lengthAdjust="spacing" textLength="79" x="817.5" y="66.7285">&#171;repository&#187;</text><text fill="#000000" font-family="sans-serif" font-size="14" lengthAdjust="spacing" textLength="141" x="786.5" y="85.3496">:NotificationRepository</text><rect fill="#E3E3E3" height="51.2422" rx="2.5" ry="2.5" style="stroke:#181818;stroke-width:0.5;" width="155" x="779.5" y="904.8965"/><text fill="#000000" font-family="sans-serif" font-size="14" font-style="italic" lengthAdjust="spacing" textLength="79" x="817.5" y="927.0039">&#171;repository&#187;</text><text fill="#000000" font-family="sans-serif" font-size="14" lengthAdjust="spacing" textLength="141" x="786.5" y="945.625">:NotificationRepository</text><rect fill="#E3E3E3" height="51.2422" rx="2.5" ry="2.5" style="stroke:#181818;stroke-width:0.5;" width="90" x="944.5" y="44.6211"/><text fill="#000000" font-family="sans-serif" font-size="14" font-style="italic" lengthAdjust="spacing" textLength="62" x="958.5" y="66.7285">&#171;domain&#187;</text><text fill="#000000" font-family="sans-serif" font-size="14" lengthAdjust="spacing" textLength="76" x="951.5" y="85.3496">:SerializeUtil</text><rect fill="#E3E3E3" height="51.2422" rx="2.5" ry="2.5" style="stroke:#181818;stroke-width:0.5;" width="90" x="944.5" y="904.8965"/><text fill="#000000" font-family="sans-serif" font-size="14" font-style="italic" lengthAdjust="spacing" textLength="62" x="958.5" y="927.0039">&#171;domain&#187;</text><text fill="#000000" font-family="sans-serif" font-size="14" lengthAdjust="spacing" textLength="76" x="951.5" y="945.625">:SerializeUtil</text><rect fill="#E3E3E3" height="51.2422" rx="2.5" ry="2.5" style="stroke:#181818;stroke-width:0.5;" width="85" x="1044.5" y="44.6211"/><text fill="#000000" font-family="sans-serif" font-size="14" font-style="italic" lengthAdjust="spacing" textLength="62" x="1056" y="66.7285">&#171;domain&#187;</text><text fill="#000000" font-family="sans-serif" font-size="14" lengthAdjust="spacing" textLength="71" x="1051.5" y="85.3496">:SendEmail</text><rect fill="#E3E3E3" height="51.2422" rx="2.5" ry="2.5" style="stroke:#181818;stroke-width:0.5;" width="85" x="1044.5" y="904.8965"/><text fill="#000000" font-family="sans-serif" font-size="14" font-style="italic" lengthAdjust="spacing" textLength="62" x="1056" y="927.0039">&#171;domain&#187;</text><text fill="#000000" font-family="sans-serif" font-size="14" lengthAdjust="spacing" textLength="71" x="1051.5" y="945.625">:SendEmail</text><rect fill="#FFFFFF" height="680.1602" style="stroke:#181818;stroke-width:1.0;" width="10" x="168" y="169.4453"/><rect fill="#FFFFFF" height="31.291" style="stroke:#181818;stroke-width:1.0;" width="10" x="721" y="445.7734"/><rect fill="#FFFFFF" height="31.291" style="stroke:#181818;stroke-width:1.0;" width="10" x="984.5" y="205.7363"/><rect fill="#FFFFFF" height="31.291" style="stroke:#181818;stroke-width:1.0;" width="10" x="984.5" y="268.3184"/><rect fill="#FFFFFF" height="31.291" style="stroke:#181818;stroke-width:1.0;" width="10" x="1082" y="578.9375"/><rect fill="#FFFFFF" height="31.291" style="stroke:#181818;stroke-width:1.0;" width="10" x="1082" y="702.4414"/><polygon fill="#181818" points="161,126.1543,171,130.1543,161,134.1543,165,130.1543" style="stroke:#181818;stroke-width:1.0;"/><line style="stroke:#181818;stroke-width:1.0;" x1="0" x2="167" y1="130.1543" y2="130.1543"/><text fill="#000000" font-family="sans-serif" font-size="13" font-weight="bold" lengthAdjust="spacing" textLength="7" x="7" y="124.8916">1</text><text fill="#000000" font-family="sans-serif" font-size="13" lengthAdjust="spacing" textLength="124" x="18" y="124.8916">(tcp) sendPublishReq</text><line style="stroke:#181818;stroke-width:1.0;" x1="173" x2="220" y1="156.4453" y2="156.4453"/><line style="stroke:#181818;stroke-width:1.0;" x1="220" x2="220" y1="156.4453" y2="169.4453"/><line style="stroke:#181818;stroke-width:1.0;" x1="179" x2="220" y1="169.4453" y2="169.4453"/><polygon fill="#181818" points="189,165.4453,179,169.4453,189,173.4453,185,169.4453" style="stroke:#181818;stroke-width:1.0;"/><text fill="#000000" font-family="sans-serif" font-size="13" font-weight="bold" lengthAdjust="spacing" textLength="7" x="185" y="151.1826">2</text><text fill="#000000" font-family="sans-serif" font-size="13" lengthAdjust="spacing" textLength="211" x="196" y="151.1826">sendPublishReq(version, code, data)</text><polygon fill="#181818" points="972.5,201.7363,982.5,205.7363,972.5,209.7363,976.5,205.7363" style="stroke:#181818;stroke-width:1.0;"/><line style="stroke:#181818;stroke-width:1.0;" x1="178" x2="978.5" y1="205.7363" y2="205.7363"/><text fill="#000000" font-family="sans-serif" font-size="13" font-weight="bold" lengthAdjust="spacing" textLength="7" x="185" y="200.4736">3</text><text fill="#000000" font-family="sans-serif" font-size="13" lengthAdjust="spacing" textLength="153" x="196" y="200.4736">deserializeList(data.get(0))</text><polygon fill="#181818" points="189,233.0273,179,237.0273,189,241.0273,185,237.0273" style="stroke:#181818;stroke-width:1.0;"/><line style="stroke:#181818;stroke-width:1.0;stroke-dasharray:2.0,2.0;" x1="183" x2="988.5" y1="237.0273" y2="237.0273"/><text fill="#000000" font-family="sans-serif" font-size="13" font-weight="bold" lengthAdjust="spacing" textLength="7" x="195" y="231.7646">4</text><text fill="#000000" font-family="sans-serif" font-size="13" lengthAdjust="spacing" textLength="109" x="206" y="231.7646">jobApplicationsList</text><polygon fill="#181818" points="972.5,264.3184,982.5,268.3184,972.5,272.3184,976.5,268.3184" style="stroke:#181818;stroke-width:1.0;"/><line style="stroke:#181818;stroke-width:1.0;" x1="178" x2="978.5" y1="268.3184" y2="268.3184"/><text fill="#000000" font-family="sans-serif" font-size="13" font-weight="bold" lengthAdjust="spacing" textLength="7" x="185" y="263.0557">5</text><text fill="#000000" font-family="sans-serif" font-size="13" lengthAdjust="spacing" textLength="170" x="196" y="263.0557">deserializeObject(data.get(1))</text><polygon fill="#181818" points="189,295.6094,179,299.6094,189,303.6094,185,299.6094" style="stroke:#181818;stroke-width:1.0;"/><line style="stroke:#181818;stroke-width:1.0;stroke-dasharray:2.0,2.0;" x1="183" x2="988.5" y1="299.6094" y2="299.6094"/><text fill="#000000" font-family="sans-serif" font-size="13" font-weight="bold" lengthAdjust="spacing" textLength="7" x="195" y="294.3467">6</text><text fill="#000000" font-family="sans-serif" font-size="13" lengthAdjust="spacing" textLength="103" x="206" y="294.3467">customerM_email</text><line style="stroke:#181818;stroke-width:1.0;" x1="178" x2="220" y1="330.9004" y2="330.9004"/><line style="stroke:#181818;stroke-width:1.0;" x1="220" x2="220" y1="330.9004" y2="343.9004"/><line style="stroke:#181818;stroke-width:1.0;" x1="179" x2="220" y1="343.9004" y2="343.9004"/><polygon fill="#181818" points="189,339.9004,179,343.9004,189,347.9004,185,343.9004" style="stroke:#181818;stroke-width:1.0;"/><text fill="#000000" font-family="sans-serif" font-size="13" font-weight="bold" lengthAdjust="spacing" textLength="7" x="185" y="325.6377">7</text><text fill="#000000" font-family="sans-serif" font-size="13" lengthAdjust="spacing" textLength="308" x="196" y="325.6377">jobFunction = jobApplicationsList.get(0).jobFunction()</text><line style="stroke:#181818;stroke-width:1.0;" x1="178" x2="220" y1="375.1914" y2="375.1914"/><line style="stroke:#181818;stroke-width:1.0;" x1="220" x2="220" y1="375.1914" y2="388.1914"/><line style="stroke:#181818;stroke-width:1.0;" x1="179" x2="220" y1="388.1914" y2="388.1914"/><polygon fill="#181818" points="189,384.1914,179,388.1914,189,392.1914,185,388.1914" style="stroke:#181818;stroke-width:1.0;"/><text fill="#000000" font-family="sans-serif" font-size="13" font-weight="bold" lengthAdjust="spacing" textLength="7" x="185" y="369.9287">8</text><text fill="#000000" font-family="sans-serif" font-size="13" lengthAdjust="spacing" textLength="352" x="196" y="369.9287">companyName = jobApplicationsList.get(0).companyName();</text><path d="M101.5,403.1914 L174.5,403.1914 L174.5,412.4824 L164.5,422.4824 L101.5,422.4824 L101.5,403.1914 " fill="#EEEEEE" style="stroke:#000000;stroke-width:1.5;"/><rect fill="none" height="410.123" style="stroke:#000000;stroke-width:1.5;" width="1048" x="101.5" y="403.1914"/><text fill="#000000" font-family="sans-serif" font-size="13" font-weight="bold" lengthAdjust="spacing" textLength="28" x="116.5" y="418.2197">loop</text><text fill="#000000" font-family="sans-serif" font-size="11" font-weight="bold" lengthAdjust="spacing" textLength="257" x="189.5" y="417.0615">[for each JobApplicationDTO job in publishList]</text><polygon fill="#181818" points="709,441.7734,719,445.7734,709,449.7734,713,445.7734" style="stroke:#181818;stroke-width:1.0;"/><line style="stroke:#181818;stroke-width:1.0;" x1="178" x2="715" y1="445.7734" y2="445.7734"/><text fill="#000000" font-family="sans-serif" font-size="13" font-weight="bold" lengthAdjust="spacing" textLength="7" x="185" y="440.5107">9</text><text fill="#000000" font-family="sans-serif" font-size="13" lengthAdjust="spacing" textLength="459" x="196" y="440.5107">new Notification(customerM_email ,jobApplication.candidateEmail() ,"a","b","c")</text><polygon fill="#181818" points="189,473.0645,179,477.0645,189,481.0645,185,477.0645" style="stroke:#181818;stroke-width:1.0;"/><line style="stroke:#181818;stroke-width:1.0;stroke-dasharray:2.0,2.0;" x1="183" x2="725" y1="477.0645" y2="477.0645"/><text fill="#000000" font-family="sans-serif" font-size="13" font-weight="bold" lengthAdjust="spacing" textLength="14" x="195" y="471.8018">10</text><text fill="#000000" font-family="sans-serif" font-size="13" lengthAdjust="spacing" textLength="31" x="213" y="471.8018">notify</text><path d="M111.5,492.0645 L172.5,492.0645 L172.5,501.3555 L162.5,511.3555 L111.5,511.3555 L111.5,492.0645 " fill="#EEEEEE" style="stroke:#000000;stroke-width:1.5;"/><rect fill="none" height="249.668" style="stroke:#000000;stroke-width:1.5;" width="1028" x="111.5" y="492.0645"/><text fill="#000000" font-family="sans-serif" font-size="13" font-weight="bold" lengthAdjust="spacing" textLength="16" x="126.5" y="507.0928">alt</text><text fill="#000000" font-family="sans-serif" font-size="11" font-weight="bold" lengthAdjust="spacing" textLength="299" x="187.5" y="505.9346">[jobApplication.status().equals(StatusType.APPROVED]</text><line style="stroke:#181818;stroke-width:1.0;" x1="178" x2="220" y1="534.6465" y2="534.6465"/><line style="stroke:#181818;stroke-width:1.0;" x1="220" x2="220" y1="534.6465" y2="547.6465"/><line style="stroke:#181818;stroke-width:1.0;" x1="179" x2="220" y1="547.6465" y2="547.6465"/><polygon fill="#181818" points="189,543.6465,179,547.6465,189,551.6465,185,547.6465" style="stroke:#181818;stroke-width:1.0;"/><text fill="#000000" font-family="sans-serif" font-size="13" font-weight="bold" lengthAdjust="spacing" textLength="14" x="185" y="529.3838">11</text><text fill="#000000" font-family="sans-serif" font-size="13" lengthAdjust="spacing" textLength="511" x="203" y="529.3838">notify.approvedApplication(jobApplication.candidateName(), jobFunction, companyName)</text><polygon fill="#181818" points="1070,574.9375,1080,578.9375,1070,582.9375,1074,578.9375" style="stroke:#181818;stroke-width:1.0;"/><line style="stroke:#181818;stroke-width:1.0;" x1="178" x2="1076" y1="578.9375" y2="578.9375"/><text fill="#000000" font-family="sans-serif" font-size="13" font-weight="bold" lengthAdjust="spacing" textLength="14" x="185" y="573.6748">12</text><text fill="#000000" font-family="sans-serif" font-size="13" lengthAdjust="spacing" textLength="549" x="203" y="573.6748">sendEmail(notify.senderEmail().toString(), notify.receiverEmail().toString(), notify.emailFormat())</text><polygon fill="#181818" points="189,606.2285,179,610.2285,189,614.2285,185,610.2285" style="stroke:#181818;stroke-width:1.0;"/><line style="stroke:#181818;stroke-width:1.0;stroke-dasharray:2.0,2.0;" x1="183" x2="1086" y1="610.2285" y2="610.2285"/><text fill="#000000" font-family="sans-serif" font-size="13" font-weight="bold" lengthAdjust="spacing" textLength="14" x="195" y="604.9658">13</text><text fill="#000000" font-family="sans-serif" font-size="13" lengthAdjust="spacing" textLength="53" x="213" y="604.9658">response</text><line style="stroke:#000000;stroke-width:1.0;stroke-dasharray:2.0,2.0;" x1="111.5" x2="1139.5" y1="619.2285" y2="619.2285"/><text fill="#000000" font-family="sans-serif" font-size="11" font-weight="bold" lengthAdjust="spacing" textLength="298" x="116.5" y="631.0986">[jobApplication.status().equals(StatusType.REJECTED)]</text><line style="stroke:#181818;stroke-width:1.0;" x1="178" x2="220" y1="658.1504" y2="658.1504"/><line style="stroke:#181818;stroke-width:1.0;" x1="220" x2="220" y1="658.1504" y2="671.1504"/><line style="stroke:#181818;stroke-width:1.0;" x1="179" x2="220" y1="671.1504" y2="671.1504"/><polygon fill="#181818" points="189,667.1504,179,671.1504,189,675.1504,185,671.1504" style="stroke:#181818;stroke-width:1.0;"/><text fill="#000000" font-family="sans-serif" font-size="13" font-weight="bold" lengthAdjust="spacing" textLength="14" x="185" y="652.8877">14</text><text fill="#000000" font-family="sans-serif" font-size="13" lengthAdjust="spacing" textLength="506" x="203" y="652.8877">notify.rejectedApplication(jobApplication.candidateName(), jobFunction, companyName)</text><polygon fill="#181818" points="1070,698.4414,1080,702.4414,1070,706.4414,1074,702.4414" style="stroke:#181818;stroke-width:1.0;"/><line style="stroke:#181818;stroke-width:1.0;" x1="178" x2="1076" y1="702.4414" y2="702.4414"/><text fill="#000000" font-family="sans-serif" font-size="13" font-weight="bold" lengthAdjust="spacing" textLength="14" x="185" y="697.1787">15</text><text fill="#000000" font-family="sans-serif" font-size="13" lengthAdjust="spacing" textLength="549" x="203" y="697.1787">sendEmail(notify.senderEmail().toString(), notify.receiverEmail().toString(), notify.emailFormat())</text><polygon fill="#181818" points="189,729.7324,179,733.7324,189,737.7324,185,733.7324" style="stroke:#181818;stroke-width:1.0;"/><line style="stroke:#181818;stroke-width:1.0;stroke-dasharray:2.0,2.0;" x1="183" x2="1086" y1="733.7324" y2="733.7324"/><text fill="#000000" font-family="sans-serif" font-size="13" font-weight="bold" lengthAdjust="spacing" textLength="14" x="195" y="728.4697">16</text><text fill="#000000" font-family="sans-serif" font-size="13" lengthAdjust="spacing" textLength="53" x="213" y="728.4697">response</text><path d="M111.5,755.7324 L172.5,755.7324 L172.5,765.0234 L162.5,775.0234 L111.5,775.0234 L111.5,755.7324 " fill="#EEEEEE" style="stroke:#000000;stroke-width:1.5;"/><rect fill="none" height="50.582" style="stroke:#000000;stroke-width:1.5;" width="833" x="111.5" y="755.7324"/><text fill="#000000" font-family="sans-serif" font-size="13" font-weight="bold" lengthAdjust="spacing" textLength="16" x="126.5" y="770.7607">alt</text><text fill="#000000" font-family="sans-serif" font-size="11" font-weight="bold" lengthAdjust="spacing" textLength="103" x="187.5" y="769.6025">[response == true]</text><polygon fill="#181818" points="845,794.3145,855,798.3145,845,802.3145,849,798.3145" style="stroke:#181818;stroke-width:1.0;"/><line style="stroke:#181818;stroke-width:1.0;" x1="178" x2="851" y1="798.3145" y2="798.3145"/><text fill="#000000" font-family="sans-serif" font-size="13" font-weight="bold" lengthAdjust="spacing" textLength="14" x="185" y="793.0518">17</text><text fill="#000000" font-family="sans-serif" font-size="13" lengthAdjust="spacing" textLength="65" x="203" y="793.0518">save(notify)</text><line style="stroke:#181818;stroke-width:1.0;" x1="178" x2="220" y1="848.6055" y2="848.6055"/><line style="stroke:#181818;stroke-width:1.0;" x1="220" x2="220" y1="848.6055" y2="861.6055"/><line style="stroke:#181818;stroke-width:1.0;" x1="173" x2="220" y1="861.6055" y2="861.6055"/><polygon fill="#181818" points="183,857.6055,173,861.6055,183,865.6055,179,861.6055" style="stroke:#181818;stroke-width:1.0;"/><text fill="#000000" font-family="sans-serif" font-size="13" font-weight="bold" lengthAdjust="spacing" textLength="14" x="185" y="843.3428">18</text><text fill="#000000" font-family="sans-serif" font-size="13" lengthAdjust="spacing" textLength="335" x="203" y="843.3428">howMuchJobAppResp(version, code, jobApplicationsData)</text><polygon fill="#181818" points="11,883.8965,1,887.8965,11,891.8965,7,887.8965" style="stroke:#181818;stroke-width:1.0;"/><line style="stroke:#181818;stroke-width:1.0;stroke-dasharray:2.0,2.0;" x1="5" x2="172" y1="887.8965" y2="887.8965"/><text fill="#000000" font-family="sans-serif" font-size="13" font-weight="bold" lengthAdjust="spacing" textLength="14" x="17" y="882.6338">19</text><text fill="#000000" font-family="sans-serif" font-size="13" lengthAdjust="spacing" textLength="131" x="35" y="882.6338">(tcp) sendPublishResp</text><!--SRC=[xLPDRnen4BtxLuouT5TQK7FfWIQHAg1gexQ98EsrCju1d2psrlQIqb_VyNg_M21frMkHaDZrl3UVVeDzb2hdXczXgvKM6wEt2CuKo6npadFnoDUuSFiCmQ1mNAsphe7Ty5G_IRM65SyiCiOBfrMnNQ9Xp4b7iC7NnSNhYpSmX8_mn9K3jq6mU-jm2qw3qawkzY2uIcNA7TfakGVSSfabe5UbiK5RPAv-sg6HAocuarf1RhH0QmUmm1y5Ae4mbNnDaJ7sQYDJX9NMRgb_ClfGn4uAcViO1kD99b6v3-GsGpC0Red243TSNYxAuAwlsIkXbJCw8_DFqheRlRpDKL6smNGIJclyv7x-YT0ypxCgF4znwFMBpxOwzIHIOEERVXCyrPIxHvu7beZoHTU-vsbIM4STDNFCjPLEctq94qUlYSCq3ySyRT8zfeSJ1tskypdqoFwKWkeaUIP_uLSdixfoxPlpzLkWIcT-gYgGIijMDzPiU5qFm1WY9_8OB1dT5SjCsiqSVp1MdG-l6xj3YuXUMaej0Q5JJ82ccSSCk71oHuDTmLb31C5b6_qOKhJr2pzmaQSOhT55h-FO0_sdozTYgyDUEOPDLcFVhtVjQ5hFNu5IFCVvPw7UBXz86jfWB_uzs7fCFtylfU3bG2kBWt3hjDyNIfHgSNMg25LzHnt3YE8_PX9wIyEq_y999vzbwXX6yTigiaphdDJ80EMmWPi3zFJ-rlE1944BunIwqy-fl41ZKFW4tRiKzQe5oM5meqPSoniGnP0C-20PBEah1d6lKoLptQ6WCjtE1Bq-waU5ugJJFUVMSLVOA1wHGjEEY1Rby_q-nz6xkxlvxRVPj1s7Nic3in59gj4xJ3kqqRaKGzMJRj-JRkjYTiARLuDmdKE5Ah-sFAYADd9wuGp9dMUl36WbejmzQr9svBqsM-wYk77UcMFleesfrALXLune- -KqO5ZR75o206P8k_SlwZwVtSmczxDf_5BX3VgR_R_mvmklqaRgQFHh25nTXRzIDVOSGUUqBKkx3AaqV8TLLUeSWi_W-dWdRVJJvq9iWi3CAPx-Mke9rpHigKDf3NkAw2-7msOcJcn5cxEJmDy0]--></g></svg>