<?xml version="1.0" encoding="us-ascii" standalone="no"?><svg xmlns="http://www.w3.org/2000/svg" xmlns:xlink="http://www.w3.org/1999/xlink" contentStyleType="text/css" height="523px" preserveAspectRatio="none" style="width:828px;height:523px;background:#FFFFFF;" version="1.1" viewBox="0 0 828 523" width="828px" zoomAndPan="magnify"><defs><filter height="300%" id="fxsa0jauw5b4q" width="300%" x="-1" y="-1"><feGaussianBlur result="blurOut" stdDeviation="2.0"/><feColorMatrix in="blurOut" result="blurOut2" type="matrix" values="0 0 0 0 0 0 0 0 0 0 0 0 0 0 0 0 0 0 .4 0"/><feOffset dx="4.0" dy="4.0" in="blurOut2" result="blurOut3"/><feBlend in="SourceGraphic" in2="blurOut3" mode="normal"/></filter></defs><g><!--class ListApplicationsByOpeningUI--><g id="elem_ListApplicationsByOpeningUI"><rect codeLine="10" fill="#F1F1F1" filter="url(#fxsa0jauw5b4q)" height="85.2422" id="ListApplicationsByOpeningUI" rx="2.5" ry="2.5" style="stroke:#181818;stroke-width:0.5;" width="212" x="7" y="7"/><ellipse cx="22" cy="23" fill="#ADD1B2" rx="11" ry="11" style="stroke:#181818;stroke-width:1.0;"/><path d="M24.7656,18.875 Q24.9219,18.6563 25.1094,18.5469 Q25.2969,18.4375 25.5156,18.4375 Q25.8906,18.4375 26.125,18.7031 Q26.3594,18.9531 26.3594,19.5625 L26.3594,21.0156 Q26.3594,21.625 26.125,21.8906 Q25.8906,22.1563 25.5156,22.1563 Q25.1719,22.1563 24.9688,21.9531 Q24.7656,21.7656 24.6563,21.25 Q24.6094,20.8906 24.4219,20.7031 Q24.0938,20.3281 23.4844,20.1094 Q22.875,19.8906 22.25,19.8906 Q21.4844,19.8906 20.8438,20.2188 Q20.2188,20.5469 19.7188,21.2969 Q19.2344,22.0469 19.2344,23.0781 L19.2344,24.1719 Q19.2344,25.4063 20.125,26.2344 Q21.0156,27.0469 22.6094,27.0469 Q23.5469,27.0469 24.2031,26.7969 Q24.5938,26.6406 25.0156,26.2031 Q25.2813,25.9375 25.4219,25.8594 Q25.5781,25.7813 25.7813,25.7813 Q26.1094,25.7813 26.3594,26.0469 Q26.625,26.2969 26.625,26.6406 Q26.625,26.9844 26.2813,27.3906 Q25.7813,27.9688 24.9844,28.2969 Q23.9063,28.75 22.6094,28.75 Q21.0938,28.75 19.8906,28.125 Q18.9063,27.625 18.2188,26.5625 Q17.5313,25.4844 17.5313,24.2031 L17.5313,23.0469 Q17.5313,21.7188 18.1406,20.5781 Q18.7656,19.4219 19.8594,18.8125 Q20.9531,18.1875 22.1875,18.1875 Q22.9219,18.1875 23.5625,18.3594 Q24.2188,18.5156 24.7656,18.875 Z " fill="#000000"/><text fill="#000000" font-family="sans-serif" font-size="14" lengthAdjust="spacing" textLength="180" x="36" y="28.7969">ListApplicationsByOpeningUI</text><line style="stroke:#181818;stroke-width:0.5;" x1="8" x2="218" y1="39" y2="39"/><line style="stroke:#181818;stroke-width:0.5;" x1="8" x2="218" y1="47" y2="47"/><text fill="#000000" font-family="sans-serif" font-size="14" lengthAdjust="spacing" textLength="108" x="13" y="66.1074">-showOpenings()</text><text fill="#000000" font-family="sans-serif" font-size="14" lengthAdjust="spacing" textLength="123" x="13" y="84.7285">-showApplications()</text></g><!--class ListApplicationsByOpeningController--><g id="elem_ListApplicationsByOpeningController"><rect codeLine="14" fill="#F1F1F1" filter="url(#fxsa0jauw5b4q)" height="85.2422" id="ListApplicationsByOpeningController" rx="2.5" ry="2.5" style="stroke:#181818;stroke-width:0.5;" width="428" x="254" y="7"/><ellipse cx="348.75" cy="23" fill="#ADD1B2" rx="11" ry="11" style="stroke:#181818;stroke-width:1.0;"/><path d="M351.5156,18.875 Q351.6719,18.6563 351.8594,18.5469 Q352.0469,18.4375 352.2656,18.4375 Q352.6406,18.4375 352.875,18.7031 Q353.1094,18.9531 353.1094,19.5625 L353.1094,21.0156 Q353.1094,21.625 352.875,21.8906 Q352.6406,22.1563 352.2656,22.1563 Q351.9219,22.1563 351.7188,21.9531 Q351.5156,21.7656 351.4063,21.25 Q351.3594,20.8906 351.1719,20.7031 Q350.8438,20.3281 350.2344,20.1094 Q349.625,19.8906 349,19.8906 Q348.2344,19.8906 347.5938,20.2188 Q346.9688,20.5469 346.4688,21.2969 Q345.9844,22.0469 345.9844,23.0781 L345.9844,24.1719 Q345.9844,25.4063 346.875,26.2344 Q347.7656,27.0469 349.3594,27.0469 Q350.2969,27.0469 350.9531,26.7969 Q351.3438,26.6406 351.7656,26.2031 Q352.0313,25.9375 352.1719,25.8594 Q352.3281,25.7813 352.5313,25.7813 Q352.8594,25.7813 353.1094,26.0469 Q353.375,26.2969 353.375,26.6406 Q353.375,26.9844 353.0313,27.3906 Q352.5313,27.9688 351.7344,28.2969 Q350.6563,28.75 349.3594,28.75 Q347.8438,28.75 346.6406,28.125 Q345.6563,27.625 344.9688,26.5625 Q344.2813,25.4844 344.2813,24.2031 L344.2813,23.0469 Q344.2813,21.7188 344.8906,20.5781 Q345.5156,19.4219 346.6094,18.8125 Q347.7031,18.1875 348.9375,18.1875 Q349.6719,18.1875 350.3125,18.3594 Q350.9688,18.5156 351.5156,18.875 Z " fill="#000000"/><text fill="#000000" font-family="sans-serif" font-size="14" lengthAdjust="spacing" textLength="230" x="369.25" y="28.7969">ListApplicationsByOpeningController</text><line style="stroke:#181818;stroke-width:0.5;" x1="255" x2="681" y1="39" y2="39"/><line style="stroke:#181818;stroke-width:0.5;" x1="255" x2="681" y1="47" y2="47"/><text fill="#000000" font-family="sans-serif" font-size="14" lengthAdjust="spacing" textLength="243" x="260" y="66.1074">+getJobOpenings(): List&lt;JobOpening&gt;</text><text fill="#000000" font-family="sans-serif" font-size="14" lengthAdjust="spacing" textLength="416" x="260" y="84.7285">+getJobApplicationsByOpening(jobOpening): List&lt;JobApplication&gt;</text></g><!--class RepositoryFactory--><g id="elem_RepositoryFactory"><rect codeLine="20" fill="#F1F1F1" filter="url(#fxsa0jauw5b4q)" height="85.2422" id="RepositoryFactory" rx="2.5" ry="2.5" style="stroke:#181818;stroke-width:0.5;" width="292" x="322" y="171"/><ellipse cx="405.75" cy="187" fill="#ADD1B2" rx="11" ry="11" style="stroke:#181818;stroke-width:1.0;"/><path d="M408.5156,182.875 Q408.6719,182.6563 408.8594,182.5469 Q409.0469,182.4375 409.2656,182.4375 Q409.6406,182.4375 409.875,182.7031 Q410.1094,182.9531 410.1094,183.5625 L410.1094,185.0156 Q410.1094,185.625 409.875,185.8906 Q409.6406,186.1563 409.2656,186.1563 Q408.9219,186.1563 408.7188,185.9531 Q408.5156,185.7656 408.4063,185.25 Q408.3594,184.8906 408.1719,184.7031 Q407.8438,184.3281 407.2344,184.1094 Q406.625,183.8906 406,183.8906 Q405.2344,183.8906 404.5938,184.2188 Q403.9688,184.5469 403.4688,185.2969 Q402.9844,186.0469 402.9844,187.0781 L402.9844,188.1719 Q402.9844,189.4063 403.875,190.2344 Q404.7656,191.0469 406.3594,191.0469 Q407.2969,191.0469 407.9531,190.7969 Q408.3438,190.6406 408.7656,190.2031 Q409.0313,189.9375 409.1719,189.8594 Q409.3281,189.7813 409.5313,189.7813 Q409.8594,189.7813 410.1094,190.0469 Q410.375,190.2969 410.375,190.6406 Q410.375,190.9844 410.0313,191.3906 Q409.5313,191.9688 408.7344,192.2969 Q407.6563,192.75 406.3594,192.75 Q404.8438,192.75 403.6406,192.125 Q402.6563,191.625 401.9688,190.5625 Q401.2813,189.4844 401.2813,188.2031 L401.2813,187.0469 Q401.2813,185.7188 401.8906,184.5781 Q402.5156,183.4219 403.6094,182.8125 Q404.7031,182.1875 405.9375,182.1875 Q406.6719,182.1875 407.3125,182.3594 Q407.9688,182.5156 408.5156,182.875 Z " fill="#000000"/><text fill="#000000" font-family="sans-serif" font-size="14" lengthAdjust="spacing" textLength="116" x="426.25" y="192.7969">RepositoryFactory</text><line style="stroke:#181818;stroke-width:0.5;" x1="323" x2="613" y1="203" y2="203"/><line style="stroke:#181818;stroke-width:0.5;" x1="323" x2="613" y1="211" y2="211"/><text fill="#000000" font-family="sans-serif" font-size="14" lengthAdjust="spacing" textLength="250" x="328" y="230.1074">+jobOpenings(): JobOpeningRepository</text><text fill="#000000" font-family="sans-serif" font-size="14" lengthAdjust="spacing" textLength="280" x="328" y="248.7285">+jobApplications(): JobApplicationRepository</text></g><!--class JobOpeningRepository--><g id="elem_JobOpeningRepository"><rect codeLine="25" fill="#F1F1F1" filter="url(#fxsa0jauw5b4q)" height="66.6211" id="JobOpeningRepository" rx="2.5" ry="2.5" style="stroke:#181818;stroke-width:0.5;" width="255" x="171.5" y="317"/><ellipse cx="222.75" cy="333" fill="#ADD1B2" rx="11" ry="11" style="stroke:#181818;stroke-width:1.0;"/><path d="M225.5156,328.875 Q225.6719,328.6563 225.8594,328.5469 Q226.0469,328.4375 226.2656,328.4375 Q226.6406,328.4375 226.875,328.7031 Q227.1094,328.9531 227.1094,329.5625 L227.1094,331.0156 Q227.1094,331.625 226.875,331.8906 Q226.6406,332.1563 226.2656,332.1563 Q225.9219,332.1563 225.7188,331.9531 Q225.5156,331.7656 225.4063,331.25 Q225.3594,330.8906 225.1719,330.7031 Q224.8438,330.3281 224.2344,330.1094 Q223.625,329.8906 223,329.8906 Q222.2344,329.8906 221.5938,330.2188 Q220.9688,330.5469 220.4688,331.2969 Q219.9844,332.0469 219.9844,333.0781 L219.9844,334.1719 Q219.9844,335.4063 220.875,336.2344 Q221.7656,337.0469 223.3594,337.0469 Q224.2969,337.0469 224.9531,336.7969 Q225.3438,336.6406 225.7656,336.2031 Q226.0313,335.9375 226.1719,335.8594 Q226.3281,335.7813 226.5313,335.7813 Q226.8594,335.7813 227.1094,336.0469 Q227.375,336.2969 227.375,336.6406 Q227.375,336.9844 227.0313,337.3906 Q226.5313,337.9688 225.7344,338.2969 Q224.6563,338.75 223.3594,338.75 Q221.8438,338.75 220.6406,338.125 Q219.6563,337.625 218.9688,336.5625 Q218.2813,335.4844 218.2813,334.2031 L218.2813,333.0469 Q218.2813,331.7188 218.8906,330.5781 Q219.5156,329.4219 220.6094,328.8125 Q221.7031,328.1875 222.9375,328.1875 Q223.6719,328.1875 224.3125,328.3594 Q224.9688,328.5156 225.5156,328.875 Z " fill="#000000"/><text fill="#000000" font-family="sans-serif" font-size="14" lengthAdjust="spacing" textLength="144" x="243.25" y="338.7969">JobOpeningRepository</text><line style="stroke:#181818;stroke-width:0.5;" x1="172.5" x2="425.5" y1="349" y2="349"/><line style="stroke:#181818;stroke-width:0.5;" x1="172.5" x2="425.5" y1="357" y2="357"/><text fill="#000000" font-family="sans-serif" font-size="14" lengthAdjust="spacing" textLength="243" x="177.5" y="376.1074">+getJobOpenings(): List&lt;JobOpening&gt;</text></g><!--class JobApplicationRepository--><g id="elem_JobApplicationRepository"><rect codeLine="28" fill="#F1F1F1" filter="url(#fxsa0jauw5b4q)" height="66.6211" id="JobApplicationRepository" rx="2.5" ry="2.5" style="stroke:#181818;stroke-width:0.5;" width="355" x="461.5" y="317"/><ellipse cx="555.25" cy="333" fill="#ADD1B2" rx="11" ry="11" style="stroke:#181818;stroke-width:1.0;"/><path d="M558.0156,328.875 Q558.1719,328.6563 558.3594,328.5469 Q558.5469,328.4375 558.7656,328.4375 Q559.1406,328.4375 559.375,328.7031 Q559.6094,328.9531 559.6094,329.5625 L559.6094,331.0156 Q559.6094,331.625 559.375,331.8906 Q559.1406,332.1563 558.7656,332.1563 Q558.4219,332.1563 558.2188,331.9531 Q558.0156,331.7656 557.9063,331.25 Q557.8594,330.8906 557.6719,330.7031 Q557.3438,330.3281 556.7344,330.1094 Q556.125,329.8906 555.5,329.8906 Q554.7344,329.8906 554.0938,330.2188 Q553.4688,330.5469 552.9688,331.2969 Q552.4844,332.0469 552.4844,333.0781 L552.4844,334.1719 Q552.4844,335.4063 553.375,336.2344 Q554.2656,337.0469 555.8594,337.0469 Q556.7969,337.0469 557.4531,336.7969 Q557.8438,336.6406 558.2656,336.2031 Q558.5313,335.9375 558.6719,335.8594 Q558.8281,335.7813 559.0313,335.7813 Q559.3594,335.7813 559.6094,336.0469 Q559.875,336.2969 559.875,336.6406 Q559.875,336.9844 559.5313,337.3906 Q559.0313,337.9688 558.2344,338.2969 Q557.1563,338.75 555.8594,338.75 Q554.3438,338.75 553.1406,338.125 Q552.1563,337.625 551.4688,336.5625 Q550.7813,335.4844 550.7813,334.2031 L550.7813,333.0469 Q550.7813,331.7188 551.3906,330.5781 Q552.0156,329.4219 553.1094,328.8125 Q554.2031,328.1875 555.4375,328.1875 Q556.1719,328.1875 556.8125,328.3594 Q557.4688,328.5156 558.0156,328.875 Z " fill="#000000"/><text fill="#000000" font-family="sans-serif" font-size="14" lengthAdjust="spacing" textLength="159" x="575.75" y="338.7969">JobApplicationRepository</text><line style="stroke:#181818;stroke-width:0.5;" x1="462.5" x2="815.5" y1="349" y2="349"/><line style="stroke:#181818;stroke-width:0.5;" x1="462.5" x2="815.5" y1="357" y2="357"/><text fill="#000000" font-family="sans-serif" font-size="14" lengthAdjust="spacing" textLength="343" x="467.5" y="376.1074">+findByJobOpening(jobOpening): List&lt;JobApplication&gt;</text></g><!--class JobOpening--><g id="elem_JobOpening"><rect codeLine="32" fill="#F1F1F1" filter="url(#fxsa0jauw5b4q)" height="48" id="JobOpening" rx="2.5" ry="2.5" style="stroke:#181818;stroke-width:0.5;" width="108" x="245" y="463"/><ellipse cx="260" cy="479" fill="#ADD1B2" rx="11" ry="11" style="stroke:#181818;stroke-width:1.0;"/><path d="M262.7656,474.875 Q262.9219,474.6563 263.1094,474.5469 Q263.2969,474.4375 263.5156,474.4375 Q263.8906,474.4375 264.125,474.7031 Q264.3594,474.9531 264.3594,475.5625 L264.3594,477.0156 Q264.3594,477.625 264.125,477.8906 Q263.8906,478.1563 263.5156,478.1563 Q263.1719,478.1563 262.9688,477.9531 Q262.7656,477.7656 262.6563,477.25 Q262.6094,476.8906 262.4219,476.7031 Q262.0938,476.3281 261.4844,476.1094 Q260.875,475.8906 260.25,475.8906 Q259.4844,475.8906 258.8438,476.2188 Q258.2188,476.5469 257.7188,477.2969 Q257.2344,478.0469 257.2344,479.0781 L257.2344,480.1719 Q257.2344,481.4063 258.125,482.2344 Q259.0156,483.0469 260.6094,483.0469 Q261.5469,483.0469 262.2031,482.7969 Q262.5938,482.6406 263.0156,482.2031 Q263.2813,481.9375 263.4219,481.8594 Q263.5781,481.7813 263.7813,481.7813 Q264.1094,481.7813 264.3594,482.0469 Q264.625,482.2969 264.625,482.6406 Q264.625,482.9844 264.2813,483.3906 Q263.7813,483.9688 262.9844,484.2969 Q261.9063,484.75 260.6094,484.75 Q259.0938,484.75 257.8906,484.125 Q256.9063,483.625 256.2188,482.5625 Q255.5313,481.4844 255.5313,480.2031 L255.5313,479.0469 Q255.5313,477.7188 256.1406,476.5781 Q256.7656,475.4219 257.8594,474.8125 Q258.9531,474.1875 260.1875,474.1875 Q260.9219,474.1875 261.5625,474.3594 Q262.2188,474.5156 262.7656,474.875 Z " fill="#000000"/><text fill="#000000" font-family="sans-serif" font-size="14" lengthAdjust="spacing" textLength="76" x="274" y="484.7969">JobOpening</text><line style="stroke:#181818;stroke-width:0.5;" x1="246" x2="352" y1="495" y2="495"/><line style="stroke:#181818;stroke-width:0.5;" x1="246" x2="352" y1="503" y2="503"/></g><!--class JobApplication--><g id="elem_JobApplication"><rect codeLine="36" fill="#F1F1F1" filter="url(#fxsa0jauw5b4q)" height="48" id="JobApplication" rx="2.5" ry="2.5" style="stroke:#181818;stroke-width:0.5;" width="123" x="577.5" y="463"/><ellipse cx="592.5" cy="479" fill="#ADD1B2" rx="11" ry="11" style="stroke:#181818;stroke-width:1.0;"/><path d="M595.2656,474.875 Q595.4219,474.6563 595.6094,474.5469 Q595.7969,474.4375 596.0156,474.4375 Q596.3906,474.4375 596.625,474.7031 Q596.8594,474.9531 596.8594,475.5625 L596.8594,477.0156 Q596.8594,477.625 596.625,477.8906 Q596.3906,478.1563 596.0156,478.1563 Q595.6719,478.1563 595.4688,477.9531 Q595.2656,477.7656 595.1563,477.25 Q595.1094,476.8906 594.9219,476.7031 Q594.5938,476.3281 593.9844,476.1094 Q593.375,475.8906 592.75,475.8906 Q591.9844,475.8906 591.3438,476.2188 Q590.7188,476.5469 590.2188,477.2969 Q589.7344,478.0469 589.7344,479.0781 L589.7344,480.1719 Q589.7344,481.4063 590.625,482.2344 Q591.5156,483.0469 593.1094,483.0469 Q594.0469,483.0469 594.7031,482.7969 Q595.0938,482.6406 595.5156,482.2031 Q595.7813,481.9375 595.9219,481.8594 Q596.0781,481.7813 596.2813,481.7813 Q596.6094,481.7813 596.8594,482.0469 Q597.125,482.2969 597.125,482.6406 Q597.125,482.9844 596.7813,483.3906 Q596.2813,483.9688 595.4844,484.2969 Q594.4063,484.75 593.1094,484.75 Q591.5938,484.75 590.3906,484.125 Q589.4063,483.625 588.7188,482.5625 Q588.0313,481.4844 588.0313,480.2031 L588.0313,479.0469 Q588.0313,477.7188 588.6406,476.5781 Q589.2656,475.4219 590.3594,474.8125 Q591.4531,474.1875 592.6875,474.1875 Q593.4219,474.1875 594.0625,474.3594 Q594.7188,474.5156 595.2656,474.875 Z " fill="#000000"/><text fill="#000000" font-family="sans-serif" font-size="14" lengthAdjust="spacing" textLength="91" x="606.5" y="484.7969">JobApplication</text><line style="stroke:#181818;stroke-width:0.5;" x1="578.5" x2="699.5" y1="495" y2="495"/><line style="stroke:#181818;stroke-width:0.5;" x1="578.5" x2="699.5" y1="503" y2="503"/></g><!--link ListApplicationsByOpeningUI to ListApplicationsByOpeningController--><g id="link_ListApplicationsByOpeningUI_ListApplicationsByOpeningController"><path codeLine="40" d="M219.12,49.5 C226.64,49.5 231.33,49.5 231.33,49.5 C231.33,49.5 234.56,49.5 247.87,49.5 " fill="none" id="ListApplicationsByOpeningUI-to-ListApplicationsByOpeningController" style="stroke:#181818;stroke-width:1.0;stroke-dasharray:7.0,7.0;"/><polygon fill="#181818" points="253.87,49.5,244.87,45.5,248.87,49.5,244.87,53.5,253.87,49.5" style="stroke:#181818;stroke-width:1.0;"/></g><!--link ListApplicationsByOpeningController to RepositoryFactory--><g id="link_ListApplicationsByOpeningController_RepositoryFactory"><path codeLine="41" d="M468,92.22 C468,116.41 468,140.76 468,164.92 " fill="none" id="ListApplicationsByOpeningController-to-RepositoryFactory" style="stroke:#181818;stroke-width:1.0;stroke-dasharray:7.0,7.0;"/><polygon fill="#181818" points="468,170.92,472,161.92,468,165.92,464,161.92,468,170.92" style="stroke:#181818;stroke-width:1.0;"/><text fill="#000000" font-family="sans-serif" font-size="13" lengthAdjust="spacing" textLength="67" x="469" y="137.0283">repositories</text></g><!--link RepositoryFactory to RepositoryFactory--><g id="link_RepositoryFactory_RepositoryFactory"><path codeLine="42" d="M614.3,201.39 C635.06,203.34 649,207.38 649,213.5 C649,219.62 641.0337,223.0989 620.2737,225.0489 " fill="none" id="RepositoryFactory-to-RepositoryFactory" style="stroke:#181818;stroke-width:1.0;"/><polygon fill="#181818" points="614.3,225.61,623.6346,228.7508,619.2781,225.1424,622.8865,220.7859,614.3,225.61" style="stroke:#181818;stroke-width:1.0;"/><text fill="#000000" font-family="sans-serif" font-size="13" lengthAdjust="spacing" textLength="49" x="655" y="219.0283">instance</text></g><!--link RepositoryFactory to JobOpeningRepository--><g id="link_RepositoryFactory_JobOpeningRepository"><path codeLine="43" d="M415.92,256.11 C391.48,275.63 367.4582,294.8156 344.6082,313.0656 " fill="none" id="RepositoryFactory-to-JobOpeningRepository" style="stroke:#181818;stroke-width:1.0;"/><polygon fill="#181818" points="339.92,316.81,349.4486,314.3189,343.8268,313.6897,344.456,308.0679,339.92,316.81" style="stroke:#181818;stroke-width:1.0;"/><text fill="#000000" font-family="sans-serif" font-size="13" lengthAdjust="spacing" textLength="7" x="340.0532" y="305.8597">1</text></g><!--link RepositoryFactory to JobApplicationRepository--><g id="link_RepositoryFactory_JobApplicationRepository"><path codeLine="44" d="M520.7,256.11 C545.43,275.63 569.7597,294.8435 592.8897,313.0935 " fill="none" id="RepositoryFactory-to-JobApplicationRepository" style="stroke:#181818;stroke-width:1.0;"/><polygon fill="#181818" points="597.6,316.81,593.0122,308.095,593.6747,313.7129,588.0568,314.3754,597.6,316.81" style="stroke:#181818;stroke-width:1.0;"/><text fill="#000000" font-family="sans-serif" font-size="13" lengthAdjust="spacing" textLength="7" x="582.0409" y="305.8597">1</text></g><!--link JobOpeningRepository to JobOpening--><g id="link_JobOpeningRepository_JobOpening"><path codeLine="45" d="M299,384.06 C299,408.32 299,434.86 299,456.59 " fill="none" id="JobOpeningRepository-to-JobOpening" style="stroke:#181818;stroke-width:1.0;"/><polygon fill="#181818" points="299,462.59,303,453.59,299,457.59,295,453.59,299,462.59" style="stroke:#181818;stroke-width:1.0;"/><text fill="#000000" font-family="sans-serif" font-size="13" lengthAdjust="spacing" textLength="65" x="300" y="429.0283">jobOpening</text><text fill="#000000" font-family="sans-serif" font-size="13" lengthAdjust="spacing" textLength="7" x="291.3766" y="405.6399">1</text><text fill="#000000" font-family="sans-serif" font-size="13" lengthAdjust="spacing" textLength="5" x="293.3906" y="451.632">*</text></g><!--link JobApplicationRepository to JobApplication--><g id="link_JobApplicationRepository_JobApplication"><path codeLine="46" d="M639,384.06 C639,408.32 639,434.86 639,456.59 " fill="none" id="JobApplicationRepository-to-JobApplication" style="stroke:#181818;stroke-width:1.0;"/><polygon fill="#181818" points="639,462.59,643,453.59,639,457.59,635,453.59,639,462.59" style="stroke:#181818;stroke-width:1.0;"/><text fill="#000000" font-family="sans-serif" font-size="13" lengthAdjust="spacing" textLength="81" x="640" y="429.0283">jobApplication</text><text fill="#000000" font-family="sans-serif" font-size="13" lengthAdjust="spacing" textLength="7" x="631.3766" y="405.6399">1</text><text fill="#000000" font-family="sans-serif" font-size="13" lengthAdjust="spacing" textLength="5" x="633.3906" y="451.632">*</text></g><!--SRC=[bLFHQW8n47pFLmHVj2rA-of5q4B1KYXK-W4nhcSqPaEo8jVYlpTtd2PdKsllvRZTcTb9Pg_hDyfOuSIMRz6WN3dS0YUt0nOxLiYDA616fGRkG98mXKu1VYKMk5UcE6TgPO1A2zoYBgiFriqqqH6oheObSKBkLB4Ylb3L88M69N9I2-_7H4xDTmHJYMQcFe7VCrPt-AloDBPMAoaggf-KRnPCyFKnvL-CXwSVlEA-gVhUJL9CYQ5n-4lp2Gqvr1fSett72w0Nd4VrOSr-ZBLH2vYLxQrFw8IVG4V1sl70xs3HAq9NFWjPlKvMrcqVqKAaH6Jxw3KwAIMCmt5mJky_rt28Ejb99wsbCej96QdNNS-voI3NAYVufdLfTGQZQxQ0NRCfWw3rCxHX-AkQcWBFVWBwUPOoFloB4dACGEayTFB1NuJdayy6NZ5gvcqwA1YB8R5V4puZfv4CpvRo6m00]--></g></svg>