<?xml version="1.0" encoding="us-ascii" standalone="no"?><svg xmlns="http://www.w3.org/2000/svg" xmlns:xlink="http://www.w3.org/1999/xlink" contentStyleType="text/css" height="749px" preserveAspectRatio="none" style="width:1436px;height:749px;background:#FFFFFF;" version="1.1" viewBox="0 0 1436 749" width="1436px" zoomAndPan="magnify"><defs/><g><rect fill="#FFFFFF" height="555.2383" style="stroke:#181818;stroke-width:1.0;" width="10" x="63.5" y="93.6211"/><rect fill="#FFFFFF" height="281.6191" style="stroke:#181818;stroke-width:1.0;" width="10" x="509.5" y="116.9121"/><rect fill="#FFFFFF" height="219.0371" style="stroke:#181818;stroke-width:1.0;" width="10" x="509.5" y="429.8223"/><rect fill="#FFFFFF" height="187.7461" style="stroke:#181818;stroke-width:1.0;" width="10" x="802.5" y="179.4941"/><rect fill="#FFFFFF" height="156.4551" style="stroke:#181818;stroke-width:1.0;" width="10" x="802.5" y="461.1133"/><rect fill="#FFFFFF" height="31.291" style="stroke:#181818;stroke-width:1.0;" width="10" x="999.5" y="242.0762"/><rect fill="#FFFFFF" height="31.291" style="stroke:#181818;stroke-width:1.0;" width="10" x="999.5" y="492.4043"/><rect fill="#FFFFFF" height="31.291" style="stroke:#181818;stroke-width:1.0;" width="10" x="1157.5" y="304.6582"/><rect fill="#FFFFFF" height="31.291" style="stroke:#181818;stroke-width:1.0;" width="10" x="1337" y="554.9863"/><line style="stroke:#181818;stroke-width:0.5;stroke-dasharray:5.0,5.0;" x1="68" x2="68" y1="83.6211" y2="666.8594"/><line style="stroke:#181818;stroke-width:0.5;stroke-dasharray:5.0,5.0;" x1="514.5" x2="514.5" y1="83.6211" y2="666.8594"/><line style="stroke:#181818;stroke-width:0.5;stroke-dasharray:5.0,5.0;" x1="807.5" x2="807.5" y1="83.6211" y2="666.8594"/><line style="stroke:#181818;stroke-width:0.5;stroke-dasharray:5.0,5.0;" x1="1004.5" x2="1004.5" y1="83.6211" y2="666.8594"/><line style="stroke:#181818;stroke-width:0.5;stroke-dasharray:5.0,5.0;" x1="1162.5" x2="1162.5" y1="83.6211" y2="666.8594"/><line style="stroke:#181818;stroke-width:0.5;stroke-dasharray:5.0,5.0;" x1="1341.5" x2="1341.5" y1="83.6211" y2="666.8594"/><text fill="#000000" font-family="sans-serif" font-size="14" lengthAdjust="spacing" textLength="121" x="5" y="80.1074">Customer Manager</text><ellipse cx="68.5" cy="13.5" fill="#E3E3E3" rx="8" ry="8" style="stroke:#181818;stroke-width:0.5;"/><path d="M68.5,21.5 L68.5,48.5 M55.5,29.5 L81.5,29.5 M68.5,48.5 L55.5,63.5 M68.5,48.5 L81.5,63.5 " fill="none" style="stroke:#181818;stroke-width:0.5;"/><text fill="#000000" font-family="sans-serif" font-size="14" lengthAdjust="spacing" textLength="121" x="5" y="680.9668">Customer Manager</text><ellipse cx="68.5" cy="692.9805" fill="#E3E3E3" rx="8" ry="8" style="stroke:#181818;stroke-width:0.5;"/><path d="M68.5,700.9805 L68.5,727.9805 M55.5,708.9805 L81.5,708.9805 M68.5,727.9805 L55.5,742.9805 M68.5,727.9805 L81.5,742.9805 " fill="none" style="stroke:#181818;stroke-width:0.5;"/><rect fill="#E3E3E3" height="51.2422" rx="2.5" ry="2.5" style="stroke:#181818;stroke-width:0.5;" width="198" x="415.5" y="31.3789"/><text fill="#000000" font-family="sans-serif" font-size="14" font-style="italic" lengthAdjust="spacing" textLength="95" x="467" y="53.4863">&#171;presentation&#187;</text><text fill="#000000" font-family="sans-serif" font-size="14" lengthAdjust="spacing" textLength="184" x="422.5" y="72.1074">:ListApplicationsByOpeningUI</text><rect fill="#E3E3E3" height="51.2422" rx="2.5" ry="2.5" style="stroke:#181818;stroke-width:0.5;" width="198" x="415.5" y="665.8594"/><text fill="#000000" font-family="sans-serif" font-size="14" font-style="italic" lengthAdjust="spacing" textLength="95" x="467" y="687.9668">&#171;presentation&#187;</text><text fill="#000000" font-family="sans-serif" font-size="14" lengthAdjust="spacing" textLength="184" x="422.5" y="706.5879">:ListApplicationsByOpeningUI</text><text fill="#000000" font-family="sans-serif" font-size="14" font-style="italic" lengthAdjust="spacing" textLength="84" x="762.5" y="61.4863">&#171;application&#187;</text><text fill="#000000" font-family="sans-serif" font-size="14" lengthAdjust="spacing" textLength="234" x="687.5" y="80.1074">:ListApplicationsByOpeningController</text><ellipse cx="807.5" cy="30.3789" fill="#E3E3E3" rx="12" ry="12" style="stroke:#181818;stroke-width:0.5;"/><polygon fill="#181818" points="803.5,18.3789,809.5,13.3789,807.5,18.3789,809.5,23.3789,803.5,18.3789" style="stroke:#181818;stroke-width:1.0;"/><text fill="#000000" font-family="sans-serif" font-size="14" font-style="italic" lengthAdjust="spacing" textLength="84" x="762.5" y="680.9668">&#171;application&#187;</text><text fill="#000000" font-family="sans-serif" font-size="14" lengthAdjust="spacing" textLength="234" x="687.5" y="699.5879">:ListApplicationsByOpeningController</text><ellipse cx="807.5" cy="719.1016" fill="#E3E3E3" rx="12" ry="12" style="stroke:#181818;stroke-width:0.5;"/><polygon fill="#181818" points="803.5,707.1016,809.5,702.1016,807.5,707.1016,809.5,712.1016,803.5,707.1016" style="stroke:#181818;stroke-width:1.0;"/><rect fill="#E3E3E3" height="51.2422" rx="2.5" ry="2.5" style="stroke:#181818;stroke-width:0.5;" width="134" x="937.5" y="31.3789"/><text fill="#000000" font-family="sans-serif" font-size="14" font-style="italic" lengthAdjust="spacing" textLength="59" x="975" y="53.4863">&#171;factory&#187;</text><text fill="#000000" font-family="sans-serif" font-size="14" lengthAdjust="spacing" textLength="120" x="944.5" y="72.1074">:RepositoryFactory</text><rect fill="#E3E3E3" height="51.2422" rx="2.5" ry="2.5" style="stroke:#181818;stroke-width:0.5;" width="134" x="937.5" y="665.8594"/><text fill="#000000" font-family="sans-serif" font-size="14" font-style="italic" lengthAdjust="spacing" textLength="59" x="975" y="687.9668">&#171;factory&#187;</text><text fill="#000000" font-family="sans-serif" font-size="14" lengthAdjust="spacing" textLength="120" x="944.5" y="706.5879">:RepositoryFactory</text><rect fill="#E3E3E3" height="51.2422" rx="2.5" ry="2.5" style="stroke:#181818;stroke-width:0.5;" width="162" x="1081.5" y="31.3789"/><text fill="#000000" font-family="sans-serif" font-size="14" font-style="italic" lengthAdjust="spacing" textLength="79" x="1123" y="53.4863">&#171;repository&#187;</text><text fill="#000000" font-family="sans-serif" font-size="14" lengthAdjust="spacing" textLength="148" x="1088.5" y="72.1074">:JobOpeningRepository</text><rect fill="#E3E3E3" height="51.2422" rx="2.5" ry="2.5" style="stroke:#181818;stroke-width:0.5;" width="162" x="1081.5" y="665.8594"/><text fill="#000000" font-family="sans-serif" font-size="14" font-style="italic" lengthAdjust="spacing" textLength="79" x="1123" y="687.9668">&#171;repository&#187;</text><text fill="#000000" font-family="sans-serif" font-size="14" lengthAdjust="spacing" textLength="148" x="1088.5" y="706.5879">:JobOpeningRepository</text><rect fill="#E3E3E3" height="51.2422" rx="2.5" ry="2.5" style="stroke:#181818;stroke-width:0.5;" width="177" x="1253.5" y="31.3789"/><text fill="#000000" font-family="sans-serif" font-size="14" font-style="italic" lengthAdjust="spacing" textLength="79" x="1302.5" y="53.4863">&#171;repository&#187;</text><text fill="#000000" font-family="sans-serif" font-size="14" lengthAdjust="spacing" textLength="163" x="1260.5" y="72.1074">:JobApplicationRepository</text><rect fill="#E3E3E3" height="51.2422" rx="2.5" ry="2.5" style="stroke:#181818;stroke-width:0.5;" width="177" x="1253.5" y="665.8594"/><text fill="#000000" font-family="sans-serif" font-size="14" font-style="italic" lengthAdjust="spacing" textLength="79" x="1302.5" y="687.9668">&#171;repository&#187;</text><text fill="#000000" font-family="sans-serif" font-size="14" lengthAdjust="spacing" textLength="163" x="1260.5" y="706.5879">:JobApplicationRepository</text><rect fill="#FFFFFF" height="555.2383" style="stroke:#181818;stroke-width:1.0;" width="10" x="63.5" y="93.6211"/><rect fill="#FFFFFF" height="281.6191" style="stroke:#181818;stroke-width:1.0;" width="10" x="509.5" y="116.9121"/><rect fill="#FFFFFF" height="219.0371" style="stroke:#181818;stroke-width:1.0;" width="10" x="509.5" y="429.8223"/><rect fill="#FFFFFF" height="187.7461" style="stroke:#181818;stroke-width:1.0;" width="10" x="802.5" y="179.4941"/><rect fill="#FFFFFF" height="156.4551" style="stroke:#181818;stroke-width:1.0;" width="10" x="802.5" y="461.1133"/><rect fill="#FFFFFF" height="31.291" style="stroke:#181818;stroke-width:1.0;" width="10" x="999.5" y="242.0762"/><rect fill="#FFFFFF" height="31.291" style="stroke:#181818;stroke-width:1.0;" width="10" x="999.5" y="492.4043"/><rect fill="#FFFFFF" height="31.291" style="stroke:#181818;stroke-width:1.0;" width="10" x="1157.5" y="304.6582"/><rect fill="#FFFFFF" height="31.291" style="stroke:#181818;stroke-width:1.0;" width="10" x="1337" y="554.9863"/><polygon fill="#181818" points="497.5,112.9121,507.5,116.9121,497.5,120.9121,501.5,116.9121" style="stroke:#181818;stroke-width:1.0;"/><line style="stroke:#181818;stroke-width:1.0;" x1="73.5" x2="503.5" y1="116.9121" y2="116.9121"/><text fill="#000000" font-family="sans-serif" font-size="13" font-weight="bold" lengthAdjust="spacing" textLength="7" x="80.5" y="111.6494">1</text><text fill="#000000" font-family="sans-serif" font-size="13" lengthAdjust="spacing" textLength="322" x="91.5" y="111.6494">asks to list all job applications for a specific job opening</text><polygon fill="#181818" points="795.5,144.2031,805.5,148.2031,795.5,152.2031,799.5,148.2031" style="stroke:#181818;stroke-width:1.0;"/><line style="stroke:#181818;stroke-width:1.0;" x1="519.5" x2="801.5" y1="148.2031" y2="148.2031"/><text fill="#000000" font-family="sans-serif" font-size="13" font-weight="bold" lengthAdjust="spacing" textLength="7" x="526.5" y="142.9404">2</text><text fill="#000000" font-family="sans-serif" font-size="13" lengthAdjust="spacing" textLength="44" x="537.5" y="142.9404">create()</text><polygon fill="#181818" points="790.5,175.4941,800.5,179.4941,790.5,183.4941,794.5,179.4941" style="stroke:#181818;stroke-width:1.0;"/><line style="stroke:#181818;stroke-width:1.0;" x1="519.5" x2="796.5" y1="179.4941" y2="179.4941"/><text fill="#000000" font-family="sans-serif" font-size="13" font-weight="bold" lengthAdjust="spacing" textLength="7" x="526.5" y="174.2314">3</text><text fill="#000000" font-family="sans-serif" font-size="13" lengthAdjust="spacing" textLength="101" x="537.5" y="174.2314">getJobOpenings()</text><polygon fill="#181818" points="992.5,206.7852,1002.5,210.7852,992.5,214.7852,996.5,210.7852" style="stroke:#181818;stroke-width:1.0;"/><line style="stroke:#181818;stroke-width:1.0;" x1="812.5" x2="998.5" y1="210.7852" y2="210.7852"/><text fill="#000000" font-family="sans-serif" font-size="13" font-weight="bold" lengthAdjust="spacing" textLength="7" x="819.5" y="205.5225">4</text><text fill="#000000" font-family="sans-serif" font-size="13" lengthAdjust="spacing" textLength="44" x="830.5" y="205.5225">create()</text><polygon fill="#181818" points="987.5,238.0762,997.5,242.0762,987.5,246.0762,991.5,242.0762" style="stroke:#181818;stroke-width:1.0;"/><line style="stroke:#181818;stroke-width:1.0;" x1="812.5" x2="993.5" y1="242.0762" y2="242.0762"/><text fill="#000000" font-family="sans-serif" font-size="13" font-weight="bold" lengthAdjust="spacing" textLength="7" x="819.5" y="236.8135">5</text><text fill="#000000" font-family="sans-serif" font-size="13" lengthAdjust="spacing" textLength="80" x="830.5" y="236.8135">jobOpenings()</text><polygon fill="#181818" points="1150.5,269.3672,1160.5,273.3672,1150.5,277.3672,1154.5,273.3672" style="stroke:#181818;stroke-width:1.0;"/><line style="stroke:#181818;stroke-width:1.0;" x1="1004.5" x2="1156.5" y1="273.3672" y2="273.3672"/><text fill="#000000" font-family="sans-serif" font-size="13" font-weight="bold" lengthAdjust="spacing" textLength="7" x="1011.5" y="268.1045">6</text><text fill="#000000" font-family="sans-serif" font-size="13" lengthAdjust="spacing" textLength="44" x="1022.5" y="268.1045">create()</text><polygon fill="#181818" points="1145.5,300.6582,1155.5,304.6582,1145.5,308.6582,1149.5,304.6582" style="stroke:#181818;stroke-width:1.0;"/><line style="stroke:#181818;stroke-width:1.0;" x1="812.5" x2="1151.5" y1="304.6582" y2="304.6582"/><text fill="#000000" font-family="sans-serif" font-size="13" font-weight="bold" lengthAdjust="spacing" textLength="7" x="819.5" y="299.3955">7</text><text fill="#000000" font-family="sans-serif" font-size="13" lengthAdjust="spacing" textLength="101" x="830.5" y="299.3955">getJobOpenings()</text><polygon fill="#181818" points="823.5,331.9492,813.5,335.9492,823.5,339.9492,819.5,335.9492" style="stroke:#181818;stroke-width:1.0;"/><line style="stroke:#181818;stroke-width:1.0;stroke-dasharray:2.0,2.0;" x1="817.5" x2="1161.5" y1="335.9492" y2="335.9492"/><text fill="#000000" font-family="sans-serif" font-size="13" font-weight="bold" lengthAdjust="spacing" textLength="7" x="829.5" y="330.6865">8</text><text fill="#000000" font-family="sans-serif" font-size="13" lengthAdjust="spacing" textLength="66" x="840.5" y="330.6865">openingList</text><polygon fill="#181818" points="530.5,363.2402,520.5,367.2402,530.5,371.2402,526.5,367.2402" style="stroke:#181818;stroke-width:1.0;"/><line style="stroke:#181818;stroke-width:1.0;stroke-dasharray:2.0,2.0;" x1="524.5" x2="806.5" y1="367.2402" y2="367.2402"/><text fill="#000000" font-family="sans-serif" font-size="13" font-weight="bold" lengthAdjust="spacing" textLength="7" x="536.5" y="361.9775">9</text><text fill="#000000" font-family="sans-serif" font-size="13" lengthAdjust="spacing" textLength="66" x="547.5" y="361.9775">openingList</text><polygon fill="#181818" points="84.5,394.5313,74.5,398.5313,84.5,402.5313,80.5,398.5313" style="stroke:#181818;stroke-width:1.0;"/><line style="stroke:#181818;stroke-width:1.0;" x1="78.5" x2="513.5" y1="398.5313" y2="398.5313"/><text fill="#000000" font-family="sans-serif" font-size="13" font-weight="bold" lengthAdjust="spacing" textLength="14" x="90.5" y="393.2686">10</text><text fill="#000000" font-family="sans-serif" font-size="13" lengthAdjust="spacing" textLength="370" x="108.5" y="393.2686">show the list of all job openings and request the selection of one</text><polygon fill="#181818" points="497.5,425.8223,507.5,429.8223,497.5,433.8223,501.5,429.8223" style="stroke:#181818;stroke-width:1.0;"/><line style="stroke:#181818;stroke-width:1.0;" x1="73.5" x2="503.5" y1="429.8223" y2="429.8223"/><text fill="#000000" font-family="sans-serif" font-size="13" font-weight="bold" lengthAdjust="spacing" textLength="14" x="80.5" y="424.5596">11</text><text fill="#000000" font-family="sans-serif" font-size="13" lengthAdjust="spacing" textLength="252" x="98.5" y="424.5596">selects and send a job opening from the list</text><polygon fill="#181818" points="790.5,457.1133,800.5,461.1133,790.5,465.1133,794.5,461.1133" style="stroke:#181818;stroke-width:1.0;"/><line style="stroke:#181818;stroke-width:1.0;" x1="519.5" x2="796.5" y1="461.1133" y2="461.1133"/><text fill="#000000" font-family="sans-serif" font-size="13" font-weight="bold" lengthAdjust="spacing" textLength="14" x="526.5" y="455.8506">12</text><text fill="#000000" font-family="sans-serif" font-size="13" lengthAdjust="spacing" textLength="246" x="544.5" y="455.8506">getJobApplicationsByOpening(jobOpening)</text><polygon fill="#181818" points="987.5,488.4043,997.5,492.4043,987.5,496.4043,991.5,492.4043" style="stroke:#181818;stroke-width:1.0;"/><line style="stroke:#181818;stroke-width:1.0;" x1="812.5" x2="993.5" y1="492.4043" y2="492.4043"/><text fill="#000000" font-family="sans-serif" font-size="13" font-weight="bold" lengthAdjust="spacing" textLength="14" x="819.5" y="487.1416">13</text><text fill="#000000" font-family="sans-serif" font-size="13" lengthAdjust="spacing" textLength="96" x="837.5" y="487.1416">jobApplications()</text><polygon fill="#181818" points="1330,519.6953,1340,523.6953,1330,527.6953,1334,523.6953" style="stroke:#181818;stroke-width:1.0;"/><line style="stroke:#181818;stroke-width:1.0;" x1="1004.5" x2="1336" y1="523.6953" y2="523.6953"/><text fill="#000000" font-family="sans-serif" font-size="13" font-weight="bold" lengthAdjust="spacing" textLength="14" x="1011.5" y="518.4326">14</text><text fill="#000000" font-family="sans-serif" font-size="13" lengthAdjust="spacing" textLength="44" x="1029.5" y="518.4326">create()</text><polygon fill="#181818" points="1325,550.9863,1335,554.9863,1325,558.9863,1329,554.9863" style="stroke:#181818;stroke-width:1.0;"/><line style="stroke:#181818;stroke-width:1.0;" x1="812.5" x2="1331" y1="554.9863" y2="554.9863"/><text fill="#000000" font-family="sans-serif" font-size="13" font-weight="bold" lengthAdjust="spacing" textLength="14" x="819.5" y="549.7236">15</text><text fill="#000000" font-family="sans-serif" font-size="13" lengthAdjust="spacing" textLength="177" x="837.5" y="549.7236">findByJobOpening(jobOpening)</text><polygon fill="#181818" points="823.5,582.2773,813.5,586.2773,823.5,590.2773,819.5,586.2773" style="stroke:#181818;stroke-width:1.0;"/><line style="stroke:#181818;stroke-width:1.0;stroke-dasharray:2.0,2.0;" x1="817.5" x2="1341" y1="586.2773" y2="586.2773"/><text fill="#000000" font-family="sans-serif" font-size="13" font-weight="bold" lengthAdjust="spacing" textLength="14" x="829.5" y="581.0146">16</text><text fill="#000000" font-family="sans-serif" font-size="13" lengthAdjust="spacing" textLength="83" x="847.5" y="581.0146">applicationList</text><polygon fill="#181818" points="530.5,613.5684,520.5,617.5684,530.5,621.5684,526.5,617.5684" style="stroke:#181818;stroke-width:1.0;"/><line style="stroke:#181818;stroke-width:1.0;stroke-dasharray:2.0,2.0;" x1="524.5" x2="806.5" y1="617.5684" y2="617.5684"/><text fill="#000000" font-family="sans-serif" font-size="13" font-weight="bold" lengthAdjust="spacing" textLength="14" x="536.5" y="612.3057">17</text><text fill="#000000" font-family="sans-serif" font-size="13" lengthAdjust="spacing" textLength="83" x="554.5" y="612.3057">applicationList</text><polygon fill="#181818" points="79.5,644.8594,69.5,648.8594,79.5,652.8594,75.5,648.8594" style="stroke:#181818;stroke-width:1.0;"/><line style="stroke:#181818;stroke-width:1.0;stroke-dasharray:2.0,2.0;" x1="73.5" x2="513.5" y1="648.8594" y2="648.8594"/><text fill="#000000" font-family="sans-serif" font-size="13" font-weight="bold" lengthAdjust="spacing" textLength="14" x="85.5" y="643.5967">18</text><text fill="#000000" font-family="sans-serif" font-size="13" lengthAdjust="spacing" textLength="394" x="103.5" y="643.5967">show the list of all job applications made to the selected job opening</text><!--SRC=[tLRDRjf04BxlKuno8Jtm0bPagK5gHHLIAIqFiDXZs61stDqbAM_VsJNOYy6MYNAg3mXxvllcP-SRsswLhgIHEzYHfcnZQ8VWp1w5RIoLpBPoZR_SeKGmc3cfrsNiO3SoftUbrr38qg8GSkz8xtShD49CDYf7A8ZSYluAcJaoS3VRMyUH32oaPcfp1zB2yq8mdrEPggHsS9SyAUk-LbMfCkaKQVju-5cXvZZBUG0iv_3mK1cqg5tmI5EHaNQ6oY7qh7OfZs5dlr-Uc4UshanpdiWBLcGLPtxu5Weu1A3_py2YVdG1-a6hOy0M7d3HKuQRndYD8IgWmzAnT9byfzMRTEZR2i2_C4rznn9WzDQ28oYvGo3B4bvf1L7zbe_BW0HROQOAbGKxrLaBJmOD-N8UxfTp9W-DJ20po9RxBqBKlit5mLklDRgsGPQzeUTgGdbWhrTWPNP_9b4AuznVRql4WyIapyrW0VJ6entoxNNprtTqm4qu3OG5Fx9YqWz2dNj-CKJgivkcqOp59p84pF6ymY5VNridoEW3FUjbH348YFocqzI7JquJ6Pesih2nuK9zqpJ8PKoOA4Hxx5uKotd2wv7Uexw8LWlFYzeAReEr6gbe14cdgP3XrF_iaUtUqMB9IvXrwhr9e-XaSDJaIV794L0JMJz3CWu01I_z9eCUULyez-fclM-LD5RGuoKQH_nVPDfPuX-LwcTM6RVvKogjTyL5fONI-UEXNHcZPkViW3kKWw2ERxD3ehVUBNlabj3nBXaRhhjFBXTAHmtjl7YjXjK20xlbx6M_a_o1nfy3xMx1_EoLVoKhNWmYkkLlZ7y0]--></g></svg>