<?xml version="1.0" encoding="us-ascii" standalone="no"?><svg xmlns="http://www.w3.org/2000/svg" xmlns:xlink="http://www.w3.org/1999/xlink" contentStyleType="text/css" height="536.9px" preserveAspectRatio="none" style="width:1016px;height:536px;background:#FFFFFF;" version="1.1" viewBox="0 0 1016 536" width="1016.4px" zoomAndPan="magnify"><defs/><g><!--cluster Job Opening Aggregate--><g id="cluster_Job Opening Aggregate"><path d="M5.95,4.2096 L123.55,4.2096 A2.625,2.625 0 0 1 125.3,5.9596 L130.2,21.4443 L697.55,21.4443 A1.75,1.75 0 0 1 699.3,23.1943 L699.3,530.2596 A1.75,1.75 0 0 1 697.55,532.0096 L5.95,532.0096 A1.75,1.75 0 0 1 4.2,530.2596 L4.2,5.9596 A1.75,1.75 0 0 1 5.95,4.2096 " fill="none" style="stroke:#000000;stroke-width:1.0499999999999998;"/><line style="stroke:#000000;stroke-width:1.0499999999999998;" x1="4.2" x2="130.2" y1="21.4443" y2="21.4443"/><text fill="#000000" font-family="sans-serif" font-size="9.8" font-weight="bold" lengthAdjust="spacing" textLength="116.9" x="7" y="16.1848">Job Opening Aggregate</text></g><!--cluster JobApplication Aggregate--><g id="cluster_JobApplication Aggregate"><path d="M717.85,184.8096 L845.25,184.8096 A2.625,2.625 0 0 1 847,186.5596 L851.9,202.0443 L1009.75,202.0443 A1.75,1.75 0 0 1 1011.5,203.7943 L1011.5,390.2596 A1.75,1.75 0 0 1 1009.75,392.0096 L717.85,392.0096 A1.75,1.75 0 0 1 716.1,390.2596 L716.1,186.5596 A1.75,1.75 0 0 1 717.85,184.8096 " fill="none" style="stroke:#000000;stroke-width:1.0499999999999998;"/><line style="stroke:#000000;stroke-width:1.0499999999999998;" x1="716.1" x2="851.9" y1="202.0443" y2="202.0443"/><text fill="#000000" font-family="sans-serif" font-size="9.8" font-weight="bold" lengthAdjust="spacing" textLength="126.7" x="718.9" y="196.7848">JobApplication Aggregate</text></g><!--class RecruitmentProcess--><g id="elem_RecruitmentProcess"><rect codeLine="18" fill="#F1F1F1" height="57.3043" id="RecruitmentProcess" rx="1.75" ry="1.75" style="stroke:#181818;stroke-width:0.3499999999999999;" width="111.3" x="75.25" y="323.4096"/><ellipse cx="85.75" cy="339.9443" fill="#ADD1B2" rx="7.7" ry="7.7" style="stroke:#181818;stroke-width:0.6999999999999998;"/><path d="M87.6859,337.0568 Q87.7953,336.9037 87.9266,336.8271 Q88.0578,336.7506 88.2109,336.7506 Q88.4734,336.7506 88.6375,336.9365 Q88.8016,337.1115 88.8016,337.5381 L88.8016,338.5553 Q88.8016,338.9818 88.6375,339.1678 Q88.4734,339.3537 88.2109,339.3537 Q87.9703,339.3537 87.8281,339.2115 Q87.6859,339.0803 87.6094,338.7193 Q87.5766,338.4678 87.4453,338.3365 Q87.2156,338.074 86.7891,337.9209 Q86.3625,337.7678 85.925,337.7678 Q85.3891,337.7678 84.9406,337.9975 Q84.5031,338.2271 84.1531,338.7521 Q83.8141,339.2771 83.8141,339.999 L83.8141,340.7646 Q83.8141,341.6287 84.4375,342.2084 Q85.0609,342.7771 86.1766,342.7771 Q86.8328,342.7771 87.2922,342.6021 Q87.5656,342.4928 87.8609,342.1865 Q88.0469,342.0006 88.1453,341.9459 Q88.2547,341.8912 88.3969,341.8912 Q88.6266,341.8912 88.8016,342.0771 Q88.9875,342.2521 88.9875,342.4928 Q88.9875,342.7334 88.7469,343.0178 Q88.3969,343.4225 87.8391,343.6521 Q87.0844,343.9693 86.1766,343.9693 Q85.1156,343.9693 84.2734,343.5318 Q83.5844,343.1818 83.1031,342.4381 Q82.6219,341.6834 82.6219,340.7865 L82.6219,339.9771 Q82.6219,339.0475 83.0484,338.249 Q83.4859,337.4396 84.2516,337.0131 Q85.0172,336.5756 85.8812,336.5756 Q86.3953,336.5756 86.8437,336.6959 Q87.3031,336.8053 87.6859,337.0568 Z " fill="#000000"/><text fill="#000000" font-family="sans-serif" font-size="9.8" lengthAdjust="spacing" textLength="35" x="122.5" y="337.4848">&#171;entity&#187;</text><text fill="#000000" font-family="sans-serif" font-size="9.8" lengthAdjust="spacing" textLength="88.9" x="95.55" y="350.5195">RecruitmentProcess</text><line style="stroke:#181818;stroke-width:0.3499999999999999;" x1="75.95" x2="185.85" y1="356.4791" y2="356.4791"/><text fill="#000000" font-family="sans-serif" font-size="9.8" lengthAdjust="spacing" textLength="83.3" x="79.45" y="369.8543">HasInterviewPhase</text><line style="stroke:#181818;stroke-width:0.3499999999999999;" x1="75.95" x2="185.85" y1="375.1139" y2="375.1139"/></g><!--class Phase--><g id="elem_Phase"><rect codeLine="23" fill="#F1F1F1" height="83.3738" id="Phase" rx="1.75" ry="1.75" style="stroke:#181818;stroke-width:0.3499999999999999;" width="57.4" x="102.2" y="437.5096"/><ellipse cx="112.7" cy="454.0443" fill="#ADD1B2" rx="7.7" ry="7.7" style="stroke:#181818;stroke-width:0.6999999999999998;"/><path d="M114.6359,451.1568 Q114.7453,451.0037 114.8766,450.9271 Q115.0078,450.8506 115.1609,450.8506 Q115.4234,450.8506 115.5875,451.0365 Q115.7516,451.2115 115.7516,451.6381 L115.7516,452.6553 Q115.7516,453.0818 115.5875,453.2678 Q115.4234,453.4537 115.1609,453.4537 Q114.9203,453.4537 114.7781,453.3115 Q114.6359,453.1803 114.5594,452.8193 Q114.5266,452.5678 114.3953,452.4365 Q114.1656,452.174 113.7391,452.0209 Q113.3125,451.8678 112.875,451.8678 Q112.3391,451.8678 111.8906,452.0975 Q111.4531,452.3271 111.1031,452.8521 Q110.7641,453.3771 110.7641,454.099 L110.7641,454.8646 Q110.7641,455.7287 111.3875,456.3084 Q112.0109,456.8771 113.1266,456.8771 Q113.7828,456.8771 114.2422,456.7021 Q114.5156,456.5928 114.8109,456.2865 Q114.9969,456.1006 115.0953,456.0459 Q115.2047,455.9912 115.3469,455.9912 Q115.5766,455.9912 115.7516,456.1771 Q115.9375,456.3521 115.9375,456.5928 Q115.9375,456.8334 115.6969,457.1178 Q115.3469,457.5225 114.7891,457.7521 Q114.0344,458.0693 113.1266,458.0693 Q112.0656,458.0693 111.2234,457.6318 Q110.5344,457.2818 110.0531,456.5381 Q109.5719,455.7834 109.5719,454.8865 L109.5719,454.0771 Q109.5719,453.1475 109.9984,452.349 Q110.4359,451.5396 111.2016,451.1131 Q111.9672,450.6756 112.8312,450.6756 Q113.3453,450.6756 113.7937,450.7959 Q114.2531,450.9053 114.6359,451.1568 Z " fill="#000000"/><text fill="#000000" font-family="sans-serif" font-size="9.8" lengthAdjust="spacing" textLength="35" x="122.5" y="451.5848">&#171;entity&#187;</text><text fill="#000000" font-family="sans-serif" font-size="9.8" lengthAdjust="spacing" textLength="28" x="126" y="464.6195">Phase</text><line style="stroke:#181818;stroke-width:0.3499999999999999;" x1="102.9" x2="158.9" y1="470.5791" y2="470.5791"/><text fill="#000000" font-family="sans-serif" font-size="9.8" lengthAdjust="spacing" textLength="48.3" x="106.4" y="483.9543">description</text><text fill="#000000" font-family="sans-serif" font-size="9.8" lengthAdjust="spacing" textLength="45.5" x="106.4" y="496.9891">beginDate</text><text fill="#000000" font-family="sans-serif" font-size="9.8" lengthAdjust="spacing" textLength="39.2" x="106.4" y="510.0238">finalDate</text><line style="stroke:#181818;stroke-width:0.3499999999999999;" x1="102.9" x2="158.9" y1="515.2834" y2="515.2834"/></g><!--class JobOpening--><g id="elem_JobOpening"><rect codeLine="30" fill="#F1F1F1" height="57.3043" id="JobOpening" rx="1.75" ry="1.75" style="stroke:#181818;stroke-width:0.3499999999999999;" width="75.6" x="357" y="210.7096"/><ellipse cx="367.5" cy="233.7617" fill="#ADD1B2" rx="7.7" ry="7.7" style="stroke:#181818;stroke-width:0.6999999999999998;"/><path d="M369.4359,230.8742 Q369.5453,230.7211 369.6766,230.6445 Q369.8078,230.568 369.9609,230.568 Q370.2234,230.568 370.3875,230.7539 Q370.5516,230.9289 370.5516,231.3555 L370.5516,232.3727 Q370.5516,232.7992 370.3875,232.9852 Q370.2234,233.1711 369.9609,233.1711 Q369.7203,233.1711 369.5781,233.0289 Q369.4359,232.8977 369.3594,232.5367 Q369.3266,232.2852 369.1953,232.1539 Q368.9656,231.8914 368.5391,231.7383 Q368.1125,231.5852 367.675,231.5852 Q367.1391,231.5852 366.6906,231.8148 Q366.2531,232.0445 365.9031,232.5695 Q365.5641,233.0945 365.5641,233.8164 L365.5641,234.582 Q365.5641,235.4461 366.1875,236.0258 Q366.8109,236.5945 367.9266,236.5945 Q368.5828,236.5945 369.0422,236.4195 Q369.3156,236.3102 369.6109,236.0039 Q369.7969,235.818 369.8953,235.7633 Q370.0047,235.7086 370.1469,235.7086 Q370.3766,235.7086 370.5516,235.8945 Q370.7375,236.0695 370.7375,236.3102 Q370.7375,236.5508 370.4969,236.8352 Q370.1469,237.2398 369.5891,237.4695 Q368.8344,237.7867 367.9266,237.7867 Q366.8656,237.7867 366.0234,237.3492 Q365.3344,236.9992 364.8531,236.2555 Q364.3719,235.5008 364.3719,234.6039 L364.3719,233.7945 Q364.3719,232.8648 364.7984,232.0664 Q365.2359,231.257 366.0016,230.8305 Q366.7672,230.393 367.6312,230.393 Q368.1453,230.393 368.5937,230.5133 Q369.0531,230.6227 369.4359,230.8742 Z " fill="#000000"/><text fill="#000000" font-family="sans-serif" font-size="9.8" lengthAdjust="spacing" textLength="28.7" x="389.55" y="224.7848">&#171;root&#187;</text><text fill="#000000" font-family="sans-serif" font-size="9.8" lengthAdjust="spacing" textLength="35" x="385" y="237.8195">&#171;entity&#187;</text><text fill="#000000" font-family="sans-serif" font-size="9.8" lengthAdjust="spacing" textLength="53.2" x="377.3" y="250.8543">JobOpening</text><line style="stroke:#181818;stroke-width:0.3499999999999999;" x1="357.7" x2="431.9" y1="256.8139" y2="256.8139"/><line style="stroke:#181818;stroke-width:0.3499999999999999;" x1="357.7" x2="431.9" y1="262.4139" y2="262.4139"/></g><!--class SetupStatus--><g id="elem_SetupStatus"><rect codeLine="35" fill="#F1F1F1" height="44.2695" id="SetupStatus" rx="1.75" ry="1.75" style="stroke:#181818;stroke-width:0.3499999999999999;" width="86.8" x="211.4" y="330.0596"/><ellipse cx="221.9" cy="346.5943" fill="#ADD1B2" rx="7.7" ry="7.7" style="stroke:#181818;stroke-width:0.6999999999999998;"/><path d="M223.8359,343.7068 Q223.9453,343.5537 224.0766,343.4771 Q224.2078,343.4006 224.3609,343.4006 Q224.6234,343.4006 224.7875,343.5865 Q224.9516,343.7615 224.9516,344.1881 L224.9516,345.2053 Q224.9516,345.6318 224.7875,345.8178 Q224.6234,346.0037 224.3609,346.0037 Q224.1203,346.0037 223.9781,345.8615 Q223.8359,345.7303 223.7594,345.3693 Q223.7266,345.1178 223.5953,344.9865 Q223.3656,344.724 222.9391,344.5709 Q222.5125,344.4178 222.075,344.4178 Q221.5391,344.4178 221.0906,344.6475 Q220.6531,344.8771 220.3031,345.4021 Q219.9641,345.9271 219.9641,346.649 L219.9641,347.4146 Q219.9641,348.2787 220.5875,348.8584 Q221.2109,349.4271 222.3266,349.4271 Q222.9828,349.4271 223.4422,349.2521 Q223.7156,349.1428 224.0109,348.8365 Q224.1969,348.6506 224.2953,348.5959 Q224.4047,348.5412 224.5469,348.5412 Q224.7766,348.5412 224.9516,348.7271 Q225.1375,348.9021 225.1375,349.1428 Q225.1375,349.3834 224.8969,349.6678 Q224.5469,350.0725 223.9891,350.3021 Q223.2344,350.6193 222.3266,350.6193 Q221.2656,350.6193 220.4234,350.1818 Q219.7344,349.8318 219.2531,349.0881 Q218.7719,348.3334 218.7719,347.4365 L218.7719,346.6271 Q218.7719,345.6975 219.1984,344.899 Q219.6359,344.0896 220.4016,343.6631 Q221.1672,343.2256 222.0312,343.2256 Q222.5453,343.2256 222.9937,343.3459 Q223.4531,343.4553 223.8359,343.7068 Z " fill="#000000"/><text fill="#000000" font-family="sans-serif" font-size="9.8" lengthAdjust="spacing" textLength="64.4" x="231.7" y="344.1348">&#171;value object&#187;</text><text fill="#000000" font-family="sans-serif" font-size="9.8" lengthAdjust="spacing" textLength="53.9" x="236.95" y="357.1695">SetupStatus</text><line style="stroke:#181818;stroke-width:0.3499999999999999;" x1="212.1" x2="297.5" y1="363.1291" y2="363.1291"/><line style="stroke:#181818;stroke-width:0.3499999999999999;" x1="212.1" x2="297.5" y1="368.7291" y2="368.7291"/></g><!--class RequirementsStatus--><g id="elem_RequirementsStatus"><rect codeLine="38" fill="#F1F1F1" height="44.2695" id="RequirementsStatus" rx="1.75" ry="1.75" style="stroke:#181818;stroke-width:0.3499999999999999;" width="112" x="322.7" y="330.0596"/><ellipse cx="333.2" cy="346.5943" fill="#ADD1B2" rx="7.7" ry="7.7" style="stroke:#181818;stroke-width:0.6999999999999998;"/><path d="M335.1359,343.7068 Q335.2453,343.5537 335.3766,343.4771 Q335.5078,343.4006 335.6609,343.4006 Q335.9234,343.4006 336.0875,343.5865 Q336.2516,343.7615 336.2516,344.1881 L336.2516,345.2053 Q336.2516,345.6318 336.0875,345.8178 Q335.9234,346.0037 335.6609,346.0037 Q335.4203,346.0037 335.2781,345.8615 Q335.1359,345.7303 335.0594,345.3693 Q335.0266,345.1178 334.8953,344.9865 Q334.6656,344.724 334.2391,344.5709 Q333.8125,344.4178 333.375,344.4178 Q332.8391,344.4178 332.3906,344.6475 Q331.9531,344.8771 331.6031,345.4021 Q331.2641,345.9271 331.2641,346.649 L331.2641,347.4146 Q331.2641,348.2787 331.8875,348.8584 Q332.5109,349.4271 333.6266,349.4271 Q334.2828,349.4271 334.7422,349.2521 Q335.0156,349.1428 335.3109,348.8365 Q335.4969,348.6506 335.5953,348.5959 Q335.7047,348.5412 335.8469,348.5412 Q336.0766,348.5412 336.2516,348.7271 Q336.4375,348.9021 336.4375,349.1428 Q336.4375,349.3834 336.1969,349.6678 Q335.8469,350.0725 335.2891,350.3021 Q334.5344,350.6193 333.6266,350.6193 Q332.5656,350.6193 331.7234,350.1818 Q331.0344,349.8318 330.5531,349.0881 Q330.0719,348.3334 330.0719,347.4365 L330.0719,346.6271 Q330.0719,345.6975 330.4984,344.899 Q330.9359,344.0896 331.7016,343.6631 Q332.4672,343.2256 333.3312,343.2256 Q333.8453,343.2256 334.2937,343.3459 Q334.7531,343.4553 335.1359,343.7068 Z " fill="#000000"/><text fill="#000000" font-family="sans-serif" font-size="9.8" lengthAdjust="spacing" textLength="64.4" x="355.6" y="344.1348">&#171;value object&#187;</text><text fill="#000000" font-family="sans-serif" font-size="9.8" lengthAdjust="spacing" textLength="89.6" x="343" y="357.1695">RequirementsStatus</text><line style="stroke:#181818;stroke-width:0.3499999999999999;" x1="323.4" x2="434" y1="363.1291" y2="363.1291"/><line style="stroke:#181818;stroke-width:0.3499999999999999;" x1="323.4" x2="434" y1="368.7291" y2="368.7291"/></g><!--class InterviewPhaseStatus--><g id="elem_InterviewPhaseStatus"><rect codeLine="41" fill="#F1F1F1" height="44.2695" id="InterviewPhaseStatus" rx="1.75" ry="1.75" style="stroke:#181818;stroke-width:0.3499999999999999;" width="116.9" x="459.55" y="330.0596"/><ellipse cx="470.05" cy="346.5943" fill="#ADD1B2" rx="7.7" ry="7.7" style="stroke:#181818;stroke-width:0.6999999999999998;"/><path d="M471.9859,343.7068 Q472.0953,343.5537 472.2266,343.4771 Q472.3578,343.4006 472.5109,343.4006 Q472.7734,343.4006 472.9375,343.5865 Q473.1016,343.7615 473.1016,344.1881 L473.1016,345.2053 Q473.1016,345.6318 472.9375,345.8178 Q472.7734,346.0037 472.5109,346.0037 Q472.2703,346.0037 472.1281,345.8615 Q471.9859,345.7303 471.9094,345.3693 Q471.8766,345.1178 471.7453,344.9865 Q471.5156,344.724 471.0891,344.5709 Q470.6625,344.4178 470.225,344.4178 Q469.6891,344.4178 469.2406,344.6475 Q468.8031,344.8771 468.4531,345.4021 Q468.1141,345.9271 468.1141,346.649 L468.1141,347.4146 Q468.1141,348.2787 468.7375,348.8584 Q469.3609,349.4271 470.4766,349.4271 Q471.1328,349.4271 471.5922,349.2521 Q471.8656,349.1428 472.1609,348.8365 Q472.3469,348.6506 472.4453,348.5959 Q472.5547,348.5412 472.6969,348.5412 Q472.9266,348.5412 473.1016,348.7271 Q473.2875,348.9021 473.2875,349.1428 Q473.2875,349.3834 473.0469,349.6678 Q472.6969,350.0725 472.1391,350.3021 Q471.3844,350.6193 470.4766,350.6193 Q469.4156,350.6193 468.5734,350.1818 Q467.8844,349.8318 467.4031,349.0881 Q466.9219,348.3334 466.9219,347.4365 L466.9219,346.6271 Q466.9219,345.6975 467.3484,344.899 Q467.7859,344.0896 468.5516,343.6631 Q469.3172,343.2256 470.1812,343.2256 Q470.6953,343.2256 471.1437,343.3459 Q471.6031,343.4553 471.9859,343.7068 Z " fill="#000000"/><text fill="#000000" font-family="sans-serif" font-size="9.8" lengthAdjust="spacing" textLength="64.4" x="494.9" y="344.1348">&#171;value object&#187;</text><text fill="#000000" font-family="sans-serif" font-size="9.8" lengthAdjust="spacing" textLength="94.5" x="479.85" y="357.1695">InterviewPhaseStatus</text><line style="stroke:#181818;stroke-width:0.3499999999999999;" x1="460.25" x2="575.75" y1="363.1291" y2="363.1291"/><line style="stroke:#181818;stroke-width:0.3499999999999999;" x1="460.25" x2="575.75" y1="368.7291" y2="368.7291"/></g><!--class ContractType--><g id="elem_ContractType"><rect codeLine="44" fill="#F1F1F1" height="44.2695" id="ContractType" rx="1.75" ry="1.75" style="stroke:#181818;stroke-width:0.3499999999999999;" width="86.8" x="601.3" y="62.6596"/><ellipse cx="611.8" cy="79.1943" fill="#ADD1B2" rx="7.7" ry="7.7" style="stroke:#181818;stroke-width:0.6999999999999998;"/><path d="M613.7359,76.3068 Q613.8453,76.1537 613.9766,76.0771 Q614.1078,76.0006 614.2609,76.0006 Q614.5234,76.0006 614.6875,76.1865 Q614.8516,76.3615 614.8516,76.7881 L614.8516,77.8053 Q614.8516,78.2318 614.6875,78.4178 Q614.5234,78.6037 614.2609,78.6037 Q614.0203,78.6037 613.8781,78.4615 Q613.7359,78.3303 613.6594,77.9693 Q613.6266,77.7178 613.4953,77.5865 Q613.2656,77.324 612.8391,77.1709 Q612.4125,77.0178 611.975,77.0178 Q611.4391,77.0178 610.9906,77.2475 Q610.5531,77.4771 610.2031,78.0021 Q609.8641,78.5271 609.8641,79.249 L609.8641,80.0146 Q609.8641,80.8787 610.4875,81.4584 Q611.1109,82.0271 612.2266,82.0271 Q612.8828,82.0271 613.3422,81.8521 Q613.6156,81.7428 613.9109,81.4365 Q614.0969,81.2506 614.1953,81.1959 Q614.3047,81.1412 614.4469,81.1412 Q614.6766,81.1412 614.8516,81.3271 Q615.0375,81.5021 615.0375,81.7428 Q615.0375,81.9834 614.7969,82.2678 Q614.4469,82.6725 613.8891,82.9021 Q613.1344,83.2193 612.2266,83.2193 Q611.1656,83.2193 610.3234,82.7818 Q609.6344,82.4318 609.1531,81.6881 Q608.6719,80.9334 608.6719,80.0365 L608.6719,79.2271 Q608.6719,78.2975 609.0984,77.499 Q609.5359,76.6896 610.3016,76.2631 Q611.0672,75.8256 611.9312,75.8256 Q612.4453,75.8256 612.8937,75.9459 Q613.3531,76.0553 613.7359,76.3068 Z " fill="#000000"/><text fill="#000000" font-family="sans-serif" font-size="9.8" lengthAdjust="spacing" textLength="64.4" x="621.6" y="76.7348">&#171;value object&#187;</text><text fill="#000000" font-family="sans-serif" font-size="9.8" lengthAdjust="spacing" textLength="60.2" x="623.7" y="89.7695">ContractType</text><line style="stroke:#181818;stroke-width:0.3499999999999999;" x1="602" x2="687.4" y1="95.7291" y2="95.7291"/><line style="stroke:#181818;stroke-width:0.3499999999999999;" x1="602" x2="687.4" y1="101.3291" y2="101.3291"/></g><!--class Mode--><g id="elem_Mode"><rect codeLine="47" fill="#F1F1F1" height="57.3043" id="Mode" rx="1.75" ry="1.75" style="stroke:#181818;stroke-width:0.3499999999999999;" width="86.8" x="490" y="56.0096"/><ellipse cx="500.5" cy="72.5443" fill="#ADD1B2" rx="7.7" ry="7.7" style="stroke:#181818;stroke-width:0.6999999999999998;"/><path d="M502.4359,69.6568 Q502.5453,69.5037 502.6766,69.4271 Q502.8078,69.3506 502.9609,69.3506 Q503.2234,69.3506 503.3875,69.5365 Q503.5516,69.7115 503.5516,70.1381 L503.5516,71.1553 Q503.5516,71.5818 503.3875,71.7678 Q503.2234,71.9537 502.9609,71.9537 Q502.7203,71.9537 502.5781,71.8115 Q502.4359,71.6803 502.3594,71.3193 Q502.3266,71.0678 502.1953,70.9365 Q501.9656,70.674 501.5391,70.5209 Q501.1125,70.3678 500.675,70.3678 Q500.1391,70.3678 499.6906,70.5975 Q499.2531,70.8271 498.9031,71.3521 Q498.5641,71.8771 498.5641,72.599 L498.5641,73.3646 Q498.5641,74.2287 499.1875,74.8084 Q499.8109,75.3771 500.9266,75.3771 Q501.5828,75.3771 502.0422,75.2021 Q502.3156,75.0928 502.6109,74.7865 Q502.7969,74.6006 502.8953,74.5459 Q503.0047,74.4912 503.1469,74.4912 Q503.3766,74.4912 503.5516,74.6771 Q503.7375,74.8521 503.7375,75.0928 Q503.7375,75.3334 503.4969,75.6178 Q503.1469,76.0225 502.5891,76.2521 Q501.8344,76.5693 500.9266,76.5693 Q499.8656,76.5693 499.0234,76.1318 Q498.3344,75.7818 497.8531,75.0381 Q497.3719,74.2834 497.3719,73.3865 L497.3719,72.5771 Q497.3719,71.6475 497.7984,70.849 Q498.2359,70.0396 499.0016,69.6131 Q499.7672,69.1756 500.6312,69.1756 Q501.1453,69.1756 501.5937,69.2959 Q502.0531,69.4053 502.4359,69.6568 Z " fill="#000000"/><text fill="#000000" font-family="sans-serif" font-size="9.8" lengthAdjust="spacing" textLength="64.4" x="510.3" y="70.0848">&#171;value object&#187;</text><text fill="#000000" font-family="sans-serif" font-size="9.8" lengthAdjust="spacing" textLength="24.5" x="530.25" y="83.1195">Mode</text><line style="stroke:#181818;stroke-width:0.3499999999999999;" x1="490.7" x2="576.1" y1="89.0791" y2="89.0791"/><text fill="#000000" font-family="sans-serif" font-size="9.8" lengthAdjust="spacing" textLength="48.3" x="494.2" y="102.4543">description</text><line style="stroke:#181818;stroke-width:0.3499999999999999;" x1="490.7" x2="576.1" y1="107.7139" y2="107.7139"/></g><!--class JobFunction--><g id="elem_JobFunction"><rect codeLine="51" fill="#F1F1F1" height="57.3043" id="JobFunction" rx="1.75" ry="1.75" style="stroke:#181818;stroke-width:0.3499999999999999;" width="86.8" x="378.7" y="56.0096"/><ellipse cx="389.2" cy="72.5443" fill="#ADD1B2" rx="7.7" ry="7.7" style="stroke:#181818;stroke-width:0.6999999999999998;"/><path d="M391.1359,69.6568 Q391.2453,69.5037 391.3766,69.4271 Q391.5078,69.3506 391.6609,69.3506 Q391.9234,69.3506 392.0875,69.5365 Q392.2516,69.7115 392.2516,70.1381 L392.2516,71.1553 Q392.2516,71.5818 392.0875,71.7678 Q391.9234,71.9537 391.6609,71.9537 Q391.4203,71.9537 391.2781,71.8115 Q391.1359,71.6803 391.0594,71.3193 Q391.0266,71.0678 390.8953,70.9365 Q390.6656,70.674 390.2391,70.5209 Q389.8125,70.3678 389.375,70.3678 Q388.8391,70.3678 388.3906,70.5975 Q387.9531,70.8271 387.6031,71.3521 Q387.2641,71.8771 387.2641,72.599 L387.2641,73.3646 Q387.2641,74.2287 387.8875,74.8084 Q388.5109,75.3771 389.6266,75.3771 Q390.2828,75.3771 390.7422,75.2021 Q391.0156,75.0928 391.3109,74.7865 Q391.4969,74.6006 391.5953,74.5459 Q391.7047,74.4912 391.8469,74.4912 Q392.0766,74.4912 392.2516,74.6771 Q392.4375,74.8521 392.4375,75.0928 Q392.4375,75.3334 392.1969,75.6178 Q391.8469,76.0225 391.2891,76.2521 Q390.5344,76.5693 389.6266,76.5693 Q388.5656,76.5693 387.7234,76.1318 Q387.0344,75.7818 386.5531,75.0381 Q386.0719,74.2834 386.0719,73.3865 L386.0719,72.5771 Q386.0719,71.6475 386.4984,70.849 Q386.9359,70.0396 387.7016,69.6131 Q388.4672,69.1756 389.3312,69.1756 Q389.8453,69.1756 390.2937,69.2959 Q390.7531,69.4053 391.1359,69.6568 Z " fill="#000000"/><text fill="#000000" font-family="sans-serif" font-size="9.8" lengthAdjust="spacing" textLength="64.4" x="399" y="70.0848">&#171;value object&#187;</text><text fill="#000000" font-family="sans-serif" font-size="9.8" lengthAdjust="spacing" textLength="53.9" x="404.25" y="83.1195">JobFunction</text><line style="stroke:#181818;stroke-width:0.3499999999999999;" x1="379.4" x2="464.8" y1="89.0791" y2="89.0791"/><text fill="#000000" font-family="sans-serif" font-size="9.8" lengthAdjust="spacing" textLength="48.3" x="382.9" y="102.4543">description</text><line style="stroke:#181818;stroke-width:0.3499999999999999;" x1="379.4" x2="464.8" y1="107.7139" y2="107.7139"/></g><!--class NumberOfVacancies--><g id="elem_NumberOfVacancies"><rect codeLine="55" fill="#F1F1F1" height="44.2695" id="NumberOfVacancies" rx="1.75" ry="1.75" style="stroke:#181818;stroke-width:0.3499999999999999;" width="115.5" x="238.35" y="62.6596"/><ellipse cx="248.85" cy="79.1943" fill="#ADD1B2" rx="7.7" ry="7.7" style="stroke:#181818;stroke-width:0.6999999999999998;"/><path d="M250.7859,76.3068 Q250.8953,76.1537 251.0266,76.0771 Q251.1578,76.0006 251.3109,76.0006 Q251.5734,76.0006 251.7375,76.1865 Q251.9016,76.3615 251.9016,76.7881 L251.9016,77.8053 Q251.9016,78.2318 251.7375,78.4178 Q251.5734,78.6037 251.3109,78.6037 Q251.0703,78.6037 250.9281,78.4615 Q250.7859,78.3303 250.7094,77.9693 Q250.6766,77.7178 250.5453,77.5865 Q250.3156,77.324 249.8891,77.1709 Q249.4625,77.0178 249.025,77.0178 Q248.4891,77.0178 248.0406,77.2475 Q247.6031,77.4771 247.2531,78.0021 Q246.9141,78.5271 246.9141,79.249 L246.9141,80.0146 Q246.9141,80.8787 247.5375,81.4584 Q248.1609,82.0271 249.2766,82.0271 Q249.9328,82.0271 250.3922,81.8521 Q250.6656,81.7428 250.9609,81.4365 Q251.1469,81.2506 251.2453,81.1959 Q251.3547,81.1412 251.4969,81.1412 Q251.7266,81.1412 251.9016,81.3271 Q252.0875,81.5021 252.0875,81.7428 Q252.0875,81.9834 251.8469,82.2678 Q251.4969,82.6725 250.9391,82.9021 Q250.1844,83.2193 249.2766,83.2193 Q248.2156,83.2193 247.3734,82.7818 Q246.6844,82.4318 246.2031,81.6881 Q245.7219,80.9334 245.7219,80.0365 L245.7219,79.2271 Q245.7219,78.2975 246.1484,77.499 Q246.5859,76.6896 247.3516,76.2631 Q248.1172,75.8256 248.9812,75.8256 Q249.4953,75.8256 249.9437,75.9459 Q250.4031,76.0553 250.7859,76.3068 Z " fill="#000000"/><text fill="#000000" font-family="sans-serif" font-size="9.8" lengthAdjust="spacing" textLength="64.4" x="273" y="76.7348">&#171;value object&#187;</text><text fill="#000000" font-family="sans-serif" font-size="9.8" lengthAdjust="spacing" textLength="90.3" x="261.45" y="89.7695">NumberOfVacancies</text><line style="stroke:#181818;stroke-width:0.3499999999999999;" x1="239.05" x2="353.15" y1="95.7291" y2="95.7291"/><line style="stroke:#181818;stroke-width:0.3499999999999999;" x1="239.05" x2="353.15" y1="101.3291" y2="101.3291"/></g><!--class Description--><g id="elem_Description"><rect codeLine="59" fill="#F1F1F1" height="57.3043" id="Description" rx="1.75" ry="1.75" style="stroke:#181818;stroke-width:0.3499999999999999;" width="86.8" x="126.7" y="56.0096"/><ellipse cx="137.2" cy="72.5443" fill="#ADD1B2" rx="7.7" ry="7.7" style="stroke:#181818;stroke-width:0.6999999999999998;"/><path d="M139.1359,69.6568 Q139.2453,69.5037 139.3766,69.4271 Q139.5078,69.3506 139.6609,69.3506 Q139.9234,69.3506 140.0875,69.5365 Q140.2516,69.7115 140.2516,70.1381 L140.2516,71.1553 Q140.2516,71.5818 140.0875,71.7678 Q139.9234,71.9537 139.6609,71.9537 Q139.4203,71.9537 139.2781,71.8115 Q139.1359,71.6803 139.0594,71.3193 Q139.0266,71.0678 138.8953,70.9365 Q138.6656,70.674 138.2391,70.5209 Q137.8125,70.3678 137.375,70.3678 Q136.8391,70.3678 136.3906,70.5975 Q135.9531,70.8271 135.6031,71.3521 Q135.2641,71.8771 135.2641,72.599 L135.2641,73.3646 Q135.2641,74.2287 135.8875,74.8084 Q136.5109,75.3771 137.6266,75.3771 Q138.2828,75.3771 138.7422,75.2021 Q139.0156,75.0928 139.3109,74.7865 Q139.4969,74.6006 139.5953,74.5459 Q139.7047,74.4912 139.8469,74.4912 Q140.0766,74.4912 140.2516,74.6771 Q140.4375,74.8521 140.4375,75.0928 Q140.4375,75.3334 140.1969,75.6178 Q139.8469,76.0225 139.2891,76.2521 Q138.5344,76.5693 137.6266,76.5693 Q136.5656,76.5693 135.7234,76.1318 Q135.0344,75.7818 134.5531,75.0381 Q134.0719,74.2834 134.0719,73.3865 L134.0719,72.5771 Q134.0719,71.6475 134.4984,70.849 Q134.9359,70.0396 135.7016,69.6131 Q136.4672,69.1756 137.3312,69.1756 Q137.8453,69.1756 138.2937,69.2959 Q138.7531,69.4053 139.1359,69.6568 Z " fill="#000000"/><text fill="#000000" font-family="sans-serif" font-size="9.8" lengthAdjust="spacing" textLength="64.4" x="147" y="70.0848">&#171;value object&#187;</text><text fill="#000000" font-family="sans-serif" font-size="9.8" lengthAdjust="spacing" textLength="49.7" x="154.35" y="83.1195">Description</text><line style="stroke:#181818;stroke-width:0.3499999999999999;" x1="127.4" x2="212.8" y1="89.0791" y2="89.0791"/><text fill="#000000" font-family="sans-serif" font-size="9.8" lengthAdjust="spacing" textLength="48.3" x="130.9" y="102.4543">description</text><line style="stroke:#181818;stroke-width:0.3499999999999999;" x1="127.4" x2="212.8" y1="107.7139" y2="107.7139"/></g><!--class Address1--><g id="elem_Address1"><rect codeLine="64" fill="#F1F1F1" height="109.4434" id="Address1" rx="1.75" ry="1.75" style="stroke:#181818;stroke-width:0.3499999999999999;" width="86.8" x="15.4" y="30.1096"/><ellipse cx="25.9" cy="46.6443" fill="#ADD1B2" rx="7.7" ry="7.7" style="stroke:#181818;stroke-width:0.6999999999999998;"/><path d="M27.8359,43.7568 Q27.9453,43.6037 28.0766,43.5271 Q28.2078,43.4506 28.3609,43.4506 Q28.6234,43.4506 28.7875,43.6365 Q28.9516,43.8115 28.9516,44.2381 L28.9516,45.2553 Q28.9516,45.6818 28.7875,45.8678 Q28.6234,46.0537 28.3609,46.0537 Q28.1203,46.0537 27.9781,45.9115 Q27.8359,45.7803 27.7594,45.4193 Q27.7266,45.1678 27.5953,45.0365 Q27.3656,44.774 26.9391,44.6209 Q26.5125,44.4678 26.075,44.4678 Q25.5391,44.4678 25.0906,44.6975 Q24.6531,44.9271 24.3031,45.4521 Q23.9641,45.9771 23.9641,46.699 L23.9641,47.4646 Q23.9641,48.3287 24.5875,48.9084 Q25.2109,49.4771 26.3266,49.4771 Q26.9828,49.4771 27.4422,49.3021 Q27.7156,49.1928 28.0109,48.8865 Q28.1969,48.7006 28.2953,48.6459 Q28.4047,48.5912 28.5469,48.5912 Q28.7766,48.5912 28.9516,48.7771 Q29.1375,48.9521 29.1375,49.1928 Q29.1375,49.4334 28.8969,49.7178 Q28.5469,50.1225 27.9891,50.3521 Q27.2344,50.6693 26.3266,50.6693 Q25.2656,50.6693 24.4234,50.2318 Q23.7344,49.8818 23.2531,49.1381 Q22.7719,48.3834 22.7719,47.4865 L22.7719,46.6771 Q22.7719,45.7475 23.1984,44.949 Q23.6359,44.1396 24.4016,43.7131 Q25.1672,43.2756 26.0312,43.2756 Q26.5453,43.2756 26.9937,43.3959 Q27.4531,43.5053 27.8359,43.7568 Z " fill="#000000"/><text fill="#000000" font-family="sans-serif" font-size="9.8" lengthAdjust="spacing" textLength="64.4" x="35.7" y="44.1848">&#171;value object&#187;</text><text fill="#000000" font-family="sans-serif" font-size="9.8" lengthAdjust="spacing" textLength="36.4" x="49.7" y="57.2195">Address</text><line style="stroke:#181818;stroke-width:0.3499999999999999;" x1="16.1" x2="101.5" y1="63.1791" y2="63.1791"/><text fill="#000000" font-family="sans-serif" font-size="9.8" lengthAdjust="spacing" textLength="26.6" x="19.6" y="76.5543">Street</text><text fill="#000000" font-family="sans-serif" font-size="9.8" lengthAdjust="spacing" textLength="16.8" x="19.6" y="89.5891">City</text><text fill="#000000" font-family="sans-serif" font-size="9.8" lengthAdjust="spacing" textLength="23.1" x="19.6" y="102.6238">State</text><text fill="#000000" font-family="sans-serif" font-size="9.8" lengthAdjust="spacing" textLength="35" x="19.6" y="115.6586">Country</text><text fill="#000000" font-family="sans-serif" font-size="9.8" lengthAdjust="spacing" textLength="35" x="19.6" y="128.6934">Zipcode</text><line style="stroke:#181818;stroke-width:0.3499999999999999;" x1="16.1" x2="101.5" y1="133.9529" y2="133.9529"/></g><!--class JobReference--><g id="elem_JobReference"><rect codeLine="72" fill="#F1F1F1" height="57.3043" id="JobReference" rx="1.75" ry="1.75" style="stroke:#181818;stroke-width:0.3499999999999999;" width="86.8" x="601.3" y="323.4096"/><ellipse cx="611.8" cy="346.4617" fill="#ADD1B2" rx="7.7" ry="7.7" style="stroke:#181818;stroke-width:0.6999999999999998;"/><path d="M613.7359,343.5742 Q613.8453,343.4211 613.9766,343.3445 Q614.1078,343.268 614.2609,343.268 Q614.5234,343.268 614.6875,343.4539 Q614.8516,343.6289 614.8516,344.0555 L614.8516,345.0727 Q614.8516,345.4992 614.6875,345.6852 Q614.5234,345.8711 614.2609,345.8711 Q614.0203,345.8711 613.8781,345.7289 Q613.7359,345.5977 613.6594,345.2367 Q613.6266,344.9852 613.4953,344.8539 Q613.2656,344.5914 612.8391,344.4383 Q612.4125,344.2852 611.975,344.2852 Q611.4391,344.2852 610.9906,344.5148 Q610.5531,344.7445 610.2031,345.2695 Q609.8641,345.7945 609.8641,346.5164 L609.8641,347.282 Q609.8641,348.1461 610.4875,348.7258 Q611.1109,349.2945 612.2266,349.2945 Q612.8828,349.2945 613.3422,349.1195 Q613.6156,349.0102 613.9109,348.7039 Q614.0969,348.518 614.1953,348.4633 Q614.3047,348.4086 614.4469,348.4086 Q614.6766,348.4086 614.8516,348.5945 Q615.0375,348.7695 615.0375,349.0102 Q615.0375,349.2508 614.7969,349.5352 Q614.4469,349.9398 613.8891,350.1695 Q613.1344,350.4867 612.2266,350.4867 Q611.1656,350.4867 610.3234,350.0492 Q609.6344,349.6992 609.1531,348.9555 Q608.6719,348.2008 608.6719,347.3039 L608.6719,346.4945 Q608.6719,345.5648 609.0984,344.7664 Q609.5359,343.957 610.3016,343.5305 Q611.0672,343.093 611.9312,343.093 Q612.4453,343.093 612.8937,343.2133 Q613.3531,343.3227 613.7359,343.5742 Z " fill="#000000"/><text fill="#000000" font-family="sans-serif" font-size="9.8" lengthAdjust="spacing" textLength="64.4" x="621.6" y="337.4848">&#171;value object&#187;</text><text fill="#000000" font-family="sans-serif" font-size="9.8" lengthAdjust="spacing" textLength="49" x="629.3" y="350.5195">&#171;identifier&#187;</text><text fill="#000000" font-family="sans-serif" font-size="9.8" lengthAdjust="spacing" textLength="61.6" x="623" y="363.5543">JobReference</text><line style="stroke:#181818;stroke-width:0.3499999999999999;" x1="602" x2="687.4" y1="369.5139" y2="369.5139"/><line style="stroke:#181818;stroke-width:0.3499999999999999;" x1="602" x2="687.4" y1="375.1139" y2="375.1139"/></g><!--class JobApplication--><g id="elem_JobApplication"><rect codeLine="81" fill="#F1F1F1" height="57.3043" id="JobApplication" rx="1.75" ry="1.75" style="stroke:#181818;stroke-width:0.3499999999999999;" width="86.1" x="757.05" y="210.7096"/><ellipse cx="767.55" cy="233.7617" fill="#ADD1B2" rx="7.7" ry="7.7" style="stroke:#181818;stroke-width:0.6999999999999998;"/><path d="M769.4859,230.8742 Q769.5953,230.7211 769.7266,230.6445 Q769.8578,230.568 770.0109,230.568 Q770.2734,230.568 770.4375,230.7539 Q770.6016,230.9289 770.6016,231.3555 L770.6016,232.3727 Q770.6016,232.7992 770.4375,232.9852 Q770.2734,233.1711 770.0109,233.1711 Q769.7703,233.1711 769.6281,233.0289 Q769.4859,232.8977 769.4094,232.5367 Q769.3766,232.2852 769.2453,232.1539 Q769.0156,231.8914 768.5891,231.7383 Q768.1625,231.5852 767.725,231.5852 Q767.1891,231.5852 766.7406,231.8148 Q766.3031,232.0445 765.9531,232.5695 Q765.6141,233.0945 765.6141,233.8164 L765.6141,234.582 Q765.6141,235.4461 766.2375,236.0258 Q766.8609,236.5945 767.9766,236.5945 Q768.6328,236.5945 769.0922,236.4195 Q769.3656,236.3102 769.6609,236.0039 Q769.8469,235.818 769.9453,235.7633 Q770.0547,235.7086 770.1969,235.7086 Q770.4266,235.7086 770.6016,235.8945 Q770.7875,236.0695 770.7875,236.3102 Q770.7875,236.5508 770.5469,236.8352 Q770.1969,237.2398 769.6391,237.4695 Q768.8844,237.7867 767.9766,237.7867 Q766.9156,237.7867 766.0734,237.3492 Q765.3844,236.9992 764.9031,236.2555 Q764.4219,235.5008 764.4219,234.6039 L764.4219,233.7945 Q764.4219,232.8648 764.8484,232.0664 Q765.2859,231.257 766.0516,230.8305 Q766.8172,230.393 767.6812,230.393 Q768.1953,230.393 768.6437,230.5133 Q769.1031,230.6227 769.4859,230.8742 Z " fill="#000000"/><text fill="#000000" font-family="sans-serif" font-size="9.8" lengthAdjust="spacing" textLength="28.7" x="794.85" y="224.7848">&#171;root&#187;</text><text fill="#000000" font-family="sans-serif" font-size="9.8" lengthAdjust="spacing" textLength="35" x="791.7" y="237.8195">&#171;entity&#187;</text><text fill="#000000" font-family="sans-serif" font-size="9.8" lengthAdjust="spacing" textLength="63.7" x="777.35" y="250.8543">JobApplication</text><line style="stroke:#181818;stroke-width:0.3499999999999999;" x1="757.75" x2="842.45" y1="256.8139" y2="256.8139"/><line style="stroke:#181818;stroke-width:0.3499999999999999;" x1="757.75" x2="842.45" y1="262.4139" y2="262.4139"/></g><!--class Status--><g id="elem_Status"><rect codeLine="84" fill="#F1F1F1" height="33.6" id="Status" rx="1.75" ry="1.75" style="stroke:#181818;stroke-width:0.3499999999999999;" width="50.4" x="727.3" y="335.3096"/><ellipse cx="737.8" cy="346.5096" fill="#ADD1B2" rx="7.7" ry="7.7" style="stroke:#181818;stroke-width:0.6999999999999998;"/><path d="M739.7359,343.6221 Q739.8453,343.4689 739.9766,343.3924 Q740.1078,343.3158 740.2609,343.3158 Q740.5234,343.3158 740.6875,343.5018 Q740.8516,343.6768 740.8516,344.1033 L740.8516,345.1205 Q740.8516,345.5471 740.6875,345.733 Q740.5234,345.9189 740.2609,345.9189 Q740.0203,345.9189 739.8781,345.7768 Q739.7359,345.6455 739.6594,345.2846 Q739.6266,345.033 739.4953,344.9018 Q739.2656,344.6393 738.8391,344.4861 Q738.4125,344.333 737.975,344.333 Q737.4391,344.333 736.9906,344.5627 Q736.5531,344.7924 736.2031,345.3174 Q735.8641,345.8424 735.8641,346.5643 L735.8641,347.3299 Q735.8641,348.1939 736.4875,348.7736 Q737.1109,349.3424 738.2266,349.3424 Q738.8828,349.3424 739.3422,349.1674 Q739.6156,349.058 739.9109,348.7518 Q740.0969,348.5658 740.1953,348.5111 Q740.3047,348.4564 740.4469,348.4564 Q740.6766,348.4564 740.8516,348.6424 Q741.0375,348.8174 741.0375,349.058 Q741.0375,349.2986 740.7969,349.583 Q740.4469,349.9877 739.8891,350.2174 Q739.1344,350.5346 738.2266,350.5346 Q737.1656,350.5346 736.3234,350.0971 Q735.6344,349.7471 735.1531,349.0033 Q734.6719,348.2486 734.6719,347.3518 L734.6719,346.5424 Q734.6719,345.6127 735.0984,344.8143 Q735.5359,344.0049 736.3016,343.5783 Q737.0672,343.1408 737.9312,343.1408 Q738.4453,343.1408 738.8937,343.2611 Q739.3531,343.3705 739.7359,343.6221 Z " fill="#000000"/><text fill="#000000" font-family="sans-serif" font-size="9.8" lengthAdjust="spacing" textLength="28" x="747.6" y="350.5674">Status</text><line style="stroke:#181818;stroke-width:0.3499999999999999;" x1="728" x2="777" y1="357.7096" y2="357.7096"/><line style="stroke:#181818;stroke-width:0.3499999999999999;" x1="728" x2="777" y1="363.3096" y2="363.3096"/></g><!--class Curriculum--><g id="elem_Curriculum"><rect codeLine="89" fill="#F1F1F1" height="44.2695" id="Curriculum" rx="1.75" ry="1.75" style="stroke:#181818;stroke-width:0.3499999999999999;" width="86.8" x="802.2" y="330.0596"/><ellipse cx="812.7" cy="346.5943" fill="#ADD1B2" rx="7.7" ry="7.7" style="stroke:#181818;stroke-width:0.6999999999999998;"/><path d="M814.6359,343.7068 Q814.7453,343.5537 814.8766,343.4771 Q815.0078,343.4006 815.1609,343.4006 Q815.4234,343.4006 815.5875,343.5865 Q815.7516,343.7615 815.7516,344.1881 L815.7516,345.2053 Q815.7516,345.6318 815.5875,345.8178 Q815.4234,346.0037 815.1609,346.0037 Q814.9203,346.0037 814.7781,345.8615 Q814.6359,345.7303 814.5594,345.3693 Q814.5266,345.1178 814.3953,344.9865 Q814.1656,344.724 813.7391,344.5709 Q813.3125,344.4178 812.875,344.4178 Q812.3391,344.4178 811.8906,344.6475 Q811.4531,344.8771 811.1031,345.4021 Q810.7641,345.9271 810.7641,346.649 L810.7641,347.4146 Q810.7641,348.2787 811.3875,348.8584 Q812.0109,349.4271 813.1266,349.4271 Q813.7828,349.4271 814.2422,349.2521 Q814.5156,349.1428 814.8109,348.8365 Q814.9969,348.6506 815.0953,348.5959 Q815.2047,348.5412 815.3469,348.5412 Q815.5766,348.5412 815.7516,348.7271 Q815.9375,348.9021 815.9375,349.1428 Q815.9375,349.3834 815.6969,349.6678 Q815.3469,350.0725 814.7891,350.3021 Q814.0344,350.6193 813.1266,350.6193 Q812.0656,350.6193 811.2234,350.1818 Q810.5344,349.8318 810.0531,349.0881 Q809.5719,348.3334 809.5719,347.4365 L809.5719,346.6271 Q809.5719,345.6975 809.9984,344.899 Q810.4359,344.0896 811.2016,343.6631 Q811.9672,343.2256 812.8312,343.2256 Q813.3453,343.2256 813.7937,343.3459 Q814.2531,343.4553 814.6359,343.7068 Z " fill="#000000"/><text fill="#000000" font-family="sans-serif" font-size="9.8" lengthAdjust="spacing" textLength="64.4" x="822.5" y="344.1348">&#171;value object&#187;</text><text fill="#000000" font-family="sans-serif" font-size="9.8" lengthAdjust="spacing" textLength="47.6" x="830.9" y="357.1695">Curriculum</text><line style="stroke:#181818;stroke-width:0.3499999999999999;" x1="802.9" x2="888.3" y1="363.1291" y2="363.1291"/><line style="stroke:#181818;stroke-width:0.3499999999999999;" x1="802.9" x2="888.3" y1="368.7291" y2="368.7291"/></g><!--class Grade2--><g id="elem_Grade2"><rect codeLine="93" fill="#F1F1F1" height="57.3043" id="Grade2" rx="1.75" ry="1.75" style="stroke:#181818;stroke-width:0.3499999999999999;" width="86.8" x="913.5" y="323.4096"/><ellipse cx="924" cy="346.4617" fill="#ADD1B2" rx="7.7" ry="7.7" style="stroke:#181818;stroke-width:0.6999999999999998;"/><path d="M925.9359,343.5742 Q926.0453,343.4211 926.1766,343.3445 Q926.3078,343.268 926.4609,343.268 Q926.7234,343.268 926.8875,343.4539 Q927.0516,343.6289 927.0516,344.0555 L927.0516,345.0727 Q927.0516,345.4992 926.8875,345.6852 Q926.7234,345.8711 926.4609,345.8711 Q926.2203,345.8711 926.0781,345.7289 Q925.9359,345.5977 925.8594,345.2367 Q925.8266,344.9852 925.6953,344.8539 Q925.4656,344.5914 925.0391,344.4383 Q924.6125,344.2852 924.175,344.2852 Q923.6391,344.2852 923.1906,344.5148 Q922.7531,344.7445 922.4031,345.2695 Q922.0641,345.7945 922.0641,346.5164 L922.0641,347.282 Q922.0641,348.1461 922.6875,348.7258 Q923.3109,349.2945 924.4266,349.2945 Q925.0828,349.2945 925.5422,349.1195 Q925.8156,349.0102 926.1109,348.7039 Q926.2969,348.518 926.3953,348.4633 Q926.5047,348.4086 926.6469,348.4086 Q926.8766,348.4086 927.0516,348.5945 Q927.2375,348.7695 927.2375,349.0102 Q927.2375,349.2508 926.9969,349.5352 Q926.6469,349.9398 926.0891,350.1695 Q925.3344,350.4867 924.4266,350.4867 Q923.3656,350.4867 922.5234,350.0492 Q921.8344,349.6992 921.3531,348.9555 Q920.8719,348.2008 920.8719,347.3039 L920.8719,346.4945 Q920.8719,345.5648 921.2984,344.7664 Q921.7359,343.957 922.5016,343.5305 Q923.2672,343.093 924.1312,343.093 Q924.6453,343.093 925.0937,343.2133 Q925.5531,343.3227 925.9359,343.5742 Z " fill="#000000"/><text fill="#000000" font-family="sans-serif" font-size="9.8" lengthAdjust="spacing" textLength="64.4" x="933.8" y="337.4848">&#171;value object&#187;</text><text fill="#000000" font-family="sans-serif" font-size="9.8" lengthAdjust="spacing" textLength="56" x="938" y="350.5195">&#171;calculated&#187;</text><text fill="#000000" font-family="sans-serif" font-size="9.8" lengthAdjust="spacing" textLength="28" x="952" y="363.5543">Grade</text><line style="stroke:#181818;stroke-width:0.3499999999999999;" x1="914.2" x2="999.6" y1="369.5139" y2="369.5139"/><line style="stroke:#181818;stroke-width:0.3499999999999999;" x1="914.2" x2="999.6" y1="375.1139" y2="375.1139"/></g><!--link JobApplication to Curriculum--><g id="link_JobApplication_Curriculum"><path codeLine="98" d="M811.58,268.1936 C819.427,287.3876 828.0716,308.5389 835.2606,326.1229 " fill="none" id="JobApplication-to-Curriculum" style="stroke:#181818;stroke-width:0.6999999999999998;"/><polygon fill="#181818" points="836.85,330.0106,837.0576,323.1195,835.5255,326.7709,831.8741,325.2387,836.85,330.0106" style="stroke:#181818;stroke-width:0.6999999999999998;"/><text fill="#000000" font-family="sans-serif" font-size="9.1" lengthAdjust="spacing" textLength="33.6" x="824.6" y="299.6294">includes</text><text fill="#000000" font-family="sans-serif" font-size="9.1" lengthAdjust="spacing" textLength="4.9" x="808.0627" y="283.355">1</text><text fill="#000000" font-family="sans-serif" font-size="9.1" lengthAdjust="spacing" textLength="4.9" x="829.64" y="322.1488">1</text></g><!--reverse link Mode to JobOpening--><g id="link_Mode_JobOpening"><path codeLine="99" d="M505.1594,116.6441 C480.2324,144.2171 445.249,182.9126 420.294,210.5136 " fill="none" id="Mode-backto-JobOpening" style="stroke:#181818;stroke-width:0.6999999999999998;"/><polygon fill="#181818" points="507.976,113.5286,501.6741,116.3242,505.6288,116.1249,505.8282,120.0797,507.976,113.5286" style="stroke:#181818;stroke-width:0.6999999999999998;"/><text fill="#000000" font-family="sans-serif" font-size="9.1" lengthAdjust="spacing" textLength="33.6" x="464.8" y="170.8294">includes</text><text fill="#000000" font-family="sans-serif" font-size="9.1" lengthAdjust="spacing" textLength="4.9" x="498.8078" y="128.6953">1</text><text fill="#000000" font-family="sans-serif" font-size="9.1" lengthAdjust="spacing" textLength="4.9" x="419.0666" y="202.9037">1</text></g><!--reverse link JobFunction to JobOpening--><g id="link_JobFunction_JobOpening"><path codeLine="100" d="M416.3581,117.6634 C411.4441,145.2364 404.74,182.9126 399.819,210.5136 " fill="none" id="JobFunction-backto-JobOpening" style="stroke:#181818;stroke-width:0.6999999999999998;"/><polygon fill="#181818" points="417.095,113.5286,413.2331,119.2396,416.4809,116.9743,418.7462,120.2221,417.095,113.5286" style="stroke:#181818;stroke-width:0.6999999999999998;"/><text fill="#000000" font-family="sans-serif" font-size="9.1" lengthAdjust="spacing" textLength="33.6" x="408.8" y="170.8294">includes</text><text fill="#000000" font-family="sans-serif" font-size="9.1" lengthAdjust="spacing" textLength="4.9" x="411.0535" y="128.6953">1</text><text fill="#000000" font-family="sans-serif" font-size="9.1" lengthAdjust="spacing" textLength="4.9" x="395.3284" y="202.9037">1</text></g><!--reverse link NumberOfVacancies to JobOpening--><g id="link_NumberOfVacancies_JobOpening"><path codeLine="101" d="M312.304,110.5777 C329.79,137.7307 357.532,180.8196 376.754,210.6816 " fill="none" id="NumberOfVacancies-backto-JobOpening" style="stroke:#181818;stroke-width:0.6999999999999998;"/><polygon fill="#181818" points="310.03,107.0466,311.0869,113.8593,311.925,109.9892,315.7951,110.8273,310.03,107.0466" style="stroke:#181818;stroke-width:0.6999999999999998;"/><text fill="#000000" font-family="sans-serif" font-size="9.1" lengthAdjust="spacing" textLength="33.6" x="351.4" y="170.8294">includes</text><text fill="#000000" font-family="sans-serif" font-size="9.1" lengthAdjust="spacing" textLength="4.9" x="307.3184" y="122.2619">1</text><text fill="#000000" font-family="sans-serif" font-size="9.1" lengthAdjust="spacing" textLength="4.9" x="368.4593" y="202.8826">1</text></g><!--reverse link Description to JobOpening--><g id="link_Description_JobOpening"><path codeLine="102" d="M199.859,116.5678 C208.77,125.2688 215.999,131.6376 226.1,139.3096 C268.205,171.2716 321.398,201.0846 356.678,219.5576 " fill="none" id="Description-backto-JobOpening" style="stroke:#181818;stroke-width:0.6999999999999998;"/><polygon fill="#181818" points="196.854,113.6336,199.4054,120.0383,199.3582,116.0788,203.3177,116.0315,196.854,113.6336" style="stroke:#181818;stroke-width:0.6999999999999998;"/><text fill="#000000" font-family="sans-serif" font-size="9.1" lengthAdjust="spacing" textLength="33.6" x="275.1" y="170.8294">includes</text><text fill="#000000" font-family="sans-serif" font-size="9.1" lengthAdjust="spacing" textLength="4.9" x="195.6756" y="128.8164">1</text><text fill="#000000" font-family="sans-serif" font-size="9.1" lengthAdjust="spacing" textLength="4.9" x="346.5797" y="214.1907">1</text></g><!--reverse link Address1 to JobOpening--><g id="link_Address1_JobOpening"><path codeLine="103" d="M105.6067,133.0924 C109.6667,136.2844 110.551,136.6846 114.8,139.3096 C193.998,188.2676 300.713,217.6046 356.769,230.6456 " fill="none" id="Address1-backto-JobOpening" style="stroke:#181818;stroke-width:0.6999999999999998;"/><polygon fill="#181818" points="102.305,130.4966,105.527,136.5915,105.0565,132.6598,108.9882,132.1892,102.305,130.4966" style="stroke:#181818;stroke-width:0.6999999999999998;"/><text fill="#000000" font-family="sans-serif" font-size="9.1" lengthAdjust="spacing" textLength="33.6" x="179.9" y="170.8294">includes</text><text fill="#000000" font-family="sans-serif" font-size="9.1" lengthAdjust="spacing" textLength="4.9" x="107.9058" y="133.2691">1</text><text fill="#000000" font-family="sans-serif" font-size="9.1" lengthAdjust="spacing" textLength="4.9" x="346.4294" y="240.1074">1</text></g><!--reverse link ContractType to JobOpening--><g id="link_ContractType_JobOpening"><path codeLine="104" d="M622.6254,109.9781 C612.5384,120.5341 602.469,129.9296 589.4,139.3096 C538.93,175.5276 473.403,206.0826 432.733,223.4006 " fill="none" id="ContractType-backto-JobOpening" style="stroke:#181818;stroke-width:0.6999999999999998;"/><polygon fill="#181818" points="625.527,106.9416,619.1502,109.562,623.109,109.472,623.1989,113.4308,625.527,106.9416" style="stroke:#181818;stroke-width:0.6999999999999998;"/><text fill="#000000" font-family="sans-serif" font-size="9.1" lengthAdjust="spacing" textLength="33.6" x="555.1" y="170.8294">includes</text><text fill="#000000" font-family="sans-serif" font-size="9.1" lengthAdjust="spacing" textLength="4.9" x="616.37" y="122.3131">1</text><text fill="#000000" font-family="sans-serif" font-size="9.1" lengthAdjust="spacing" textLength="4.9" x="438.1595" y="218.3898">1</text></g><!--link JobOpening to JobReference--><g id="link_JobOpening_JobReference"><path codeLine="105" d="M432.621,255.5936 C471.912,271.8616 535.031,298.4896 588.7,323.4096 C592.739,325.2856 593.1447,325.4506 597.3237,327.4736 " fill="none" id="JobOpening-to-JobReference" style="stroke:#181818;stroke-width:0.6999999999999998;"/><polygon fill="#181818" points="601.104,329.3036,596.6535,324.0383,597.9537,327.7786,594.2135,329.0788,601.104,329.3036" style="stroke:#181818;stroke-width:0.6999999999999998;"/><text fill="#000000" font-family="sans-serif" font-size="9.1" lengthAdjust="spacing" textLength="33.6" x="541.8" y="299.6294">includes</text><text fill="#000000" font-family="sans-serif" font-size="9.1" lengthAdjust="spacing" textLength="4.9" x="438.2841" y="254.9736">1</text><text fill="#000000" font-family="sans-serif" font-size="9.1" lengthAdjust="spacing" textLength="4.9" x="590.8799" y="323.9158">1</text></g><!--link JobOpening to SetupStatus--><g id="link_JobOpening_SetupStatus"><path codeLine="107" d="M359.471,268.1936 C335.335,287.3876 307.1224,309.8125 285.0094,327.3965 " fill="none" id="JobOpening-to-SetupStatus" style="stroke:#181818;stroke-width:0.6999999999999998;"/><polygon fill="#181818" points="281.722,330.0106,288.3957,328.281,284.4615,327.8322,284.9103,323.8979,281.722,330.0106" style="stroke:#181818;stroke-width:0.6999999999999998;"/></g><!--link JobOpening to RequirementsStatus--><g id="link_JobOpening_RequirementsStatus"><path codeLine="108" d="M390.74,268.1936 C387.961,287.3876 384.9443,308.27 382.3963,325.854 " fill="none" id="JobOpening-to-RequirementsStatus" style="stroke:#181818;stroke-width:0.6999999999999998;"/><polygon fill="#181818" points="381.794,330.0106,385.4685,324.1772,382.2959,326.5467,379.9264,323.3741,381.794,330.0106" style="stroke:#181818;stroke-width:0.6999999999999998;"/></g><!--link JobOpening to InterviewPhaseStatus--><g id="link_JobOpening_InterviewPhaseStatus"><path codeLine="109" d="M425.887,268.1936 C447.132,287.3876 471.7357,309.6107 491.1957,327.1947 " fill="none" id="JobOpening-to-InterviewPhaseStatus" style="stroke:#181818;stroke-width:0.6999999999999998;"/><polygon fill="#181818" points="494.312,330.0106,491.5148,323.7093,491.7151,327.664,487.7604,327.8643,494.312,330.0106" style="stroke:#181818;stroke-width:0.6999999999999998;"/></g><!--link JobApplication to Status--><g id="link_JobApplication_Status"><path codeLine="110" d="M788.088,268.1936 C779.058,289.3196 768.6413,313.6678 761.1373,331.2168 " fill="none" id="JobApplication-to-Status" style="stroke:#181818;stroke-width:0.6999999999999998;"/><polygon fill="#181818" points="759.486,335.0786,764.5375,330.3868,760.8621,331.8604,759.3884,328.1851,759.486,335.0786" style="stroke:#181818;stroke-width:0.6999999999999998;"/></g><!--link JobApplication to Grade2--><g id="link_JobApplication_Grade2"><path codeLine="111" d="M839.664,268.1936 C863.436,285.0706 890.1532,304.0314 913.9182,320.9014 " fill="none" id="JobApplication-to-Grade2" style="stroke:#181818;stroke-width:0.6999999999999998;"/><polygon fill="#181818" points="917.343,323.3326,913.8265,317.4026,914.489,321.3066,910.585,321.969,917.343,323.3326" style="stroke:#181818;stroke-width:0.6999999999999998;"/><text fill="#000000" font-family="sans-serif" font-size="9.1" lengthAdjust="spacing" textLength="15.4" x="894.1161" y="315.5255">0..1</text></g><!--reverse link JobOpening to JobApplication--><g id="link_JobOpening_JobApplication"><path codeLine="112" d="M436.947,239.4096 C512.512,239.4096 677.166,239.4096 756.868,239.4096 " fill="none" id="JobOpening-backto-JobApplication" style="stroke:#181818;stroke-width:0.6999999999999998;"/><polygon fill="#181818" points="432.747,239.4096,439.047,242.2096,436.247,239.4096,439.047,236.6096,432.747,239.4096" style="stroke:#181818;stroke-width:0.6999999999999998;"/><text fill="#000000" font-family="sans-serif" font-size="9.1" lengthAdjust="spacing" textLength="32.9" x="578.375" y="234.5294">refers to</text><text fill="#000000" font-family="sans-serif" font-size="9.1" lengthAdjust="spacing" textLength="4.9" x="438.1753" y="236.55">1</text><text fill="#000000" font-family="sans-serif" font-size="9.1" lengthAdjust="spacing" textLength="3.5" x="747.8858" y="236.6225">*</text></g><!--reverse link RecruitmentProcess to Phase--><g id="link_RecruitmentProcess_Phase"><path codeLine="113" d="M130.9,389.4056 C130.9,406.0516 130.9,419.0086 130.9,437.4816 " fill="none" id="RecruitmentProcess-backto-Phase" style="stroke:#181818;stroke-width:0.6999999999999998;"/><polygon fill="#181818" points="130.9,381.0056,128.1,385.2056,130.9,389.4056,133.7,385.2056,130.9,381.0056" style="stroke:#181818;stroke-width:0.6999999999999998;"/><text fill="#000000" font-family="sans-serif" font-size="9.1" lengthAdjust="spacing" textLength="25.2" x="131.6" y="413.7294">part of</text><text fill="#000000" font-family="sans-serif" font-size="9.1" lengthAdjust="spacing" textLength="4.9" x="125.6248" y="396.1841">1</text><text fill="#000000" font-family="sans-serif" font-size="9.1" lengthAdjust="spacing" textLength="15.4" x="114.5616" y="429.6046">4..5</text></g><!--link JobOpening to RecruitmentProcess--><g id="link_JobOpening_RecruitmentProcess"><path codeLine="114" d="M356.993,256.0556 C312.382,274.8716 241.6879,304.6834 190.4689,326.2854 " fill="none" id="JobOpening-to-RecruitmentProcess" style="stroke:#181818;stroke-width:0.6999999999999998;"/><polygon fill="#181818" points="186.599,327.9176,193.4919,328.0493,189.8239,326.5574,191.3157,322.8894,186.599,327.9176" style="stroke:#181818;stroke-width:0.6999999999999998;"/><text fill="#000000" font-family="sans-serif" font-size="9.1" lengthAdjust="spacing" textLength="33.6" x="270.9" y="299.6294">includes</text><text fill="#000000" font-family="sans-serif" font-size="9.1" lengthAdjust="spacing" textLength="4.9" x="346.4319" y="255.5006">1</text><text fill="#000000" font-family="sans-serif" font-size="9.1" lengthAdjust="spacing" textLength="4.9" x="192.1413" y="322.9788">1</text></g><!--SRC=[ZLRDRjim3BxxAGXV1XH8i0pR9IW612ds1smjqc67eHT5fXsjZkJffqLXv8dw2BlboIRvJugTnF4X5YdgeyYFfACU6I-895jG6vA8PyOpI4ckC8hUv9Xgq08aopOQ4YQHQYPu53m5eOyaGuY_YJNS5iZT-KMMISo8nhYC8h0FpObI4EzVaMkcN_R_7lWAgJHCRwtcJWgAIiL050pLPONWdYz4VUKQvHF3vxiDiLTqsbrK-pZcfBAgSAkLXu845PMigCBfb6lC6B-nz_Qgb76IUrNhhFCbXT3Ea_SA3zpceab5vTkBPNDyrqDv8hb14Ei_Di4ExHwrAUurqQREIY13UH722lyQovVBemg0OAY_3EymyG7YiOq3oDEOIy6r95J_V2bgaa95sINyBCPtaTHdtSBpswTt3CPIzCdmghfRobhvJD6CeS8FirsZl4r_4KeuPTYGC52NbvN5ZVTV0GNo-LkUXrqaYMpxhrdFFDwzbeYw4vUso8Ezi5cMmbZ-_EvlLb3BoaMXxLzPuZeePIWRGbQOeaHEiMMaKtJrjHlCe4LHv8mI5_p161ffsifXSBPr6QWwZZnKhzf7GbmQAHarkTdMnTw9vMKqxLyfoUq16r3YvC-IDBLVhTwLJK9waSpYoUIZ_GqSmXmOfxcnbHAvlW6tVJsPkBSVLg5Lq0_ZneFo7ZyILFAuSLkZeuRXF6bXtUjaZAtM9oqikz0ujBQcuOJkRmr7Rj_Ys0pjqLWxERaJlvrExMthGkX5SZs9h_gjCGVfebBswnuDFxbLhgvihjvFfn_Y-ji9S_ilGOD8U-Yr-rby16NUPki_]--></g></svg>