<?xml version="1.0" encoding="us-ascii" standalone="no"?><svg xmlns="http://www.w3.org/2000/svg" xmlns:xlink="http://www.w3.org/1999/xlink" contentStyleType="text/css" height="1074px" preserveAspectRatio="none" style="width:2384px;height:1074px;background:#FFFFFF;" version="1.1" viewBox="0 0 2384 1074" width="2384px" zoomAndPan="magnify"><defs/><g><!--cluster JobApplication Aggregate--><g id="cluster_JobApplication Aggregate"><path d="M347.5,609.0137 L529.5,609.0137 A3.75,3.75 0 0 1 532,611.5137 L539,633.6348 L975.5,633.6348 A2.5,2.5 0 0 1 978,636.1348 L978,1065.0137 A2.5,2.5 0 0 1 975.5,1067.5137 L347.5,1067.5137 A2.5,2.5 0 0 1 345,1065.0137 L345,611.5137 A2.5,2.5 0 0 1 347.5,609.0137 " fill="none" style="stroke:#000000;stroke-width:1.5;"/><line style="stroke:#000000;stroke-width:1.5;" x1="345" x2="539" y1="633.6348" y2="633.6348"/><text fill="#000000" font-family="sans-serif" font-size="14" font-weight="bold" lengthAdjust="spacing" textLength="181" x="349" y="626.1211">JobApplication Aggregate</text></g><!--cluster Candidate Aggregate--><g id="cluster_Candidate Aggregate"><path d="M8.5,425.0137 L157.5,425.0137 A3.75,3.75 0 0 1 160,427.5137 L167,449.6348 L318.5,449.6348 A2.5,2.5 0 0 1 321,452.1348 L321,750.5137 A2.5,2.5 0 0 1 318.5,753.0137 L8.5,753.0137 A2.5,2.5 0 0 1 6,750.5137 L6,427.5137 A2.5,2.5 0 0 1 8.5,425.0137 " fill="none" style="stroke:#000000;stroke-width:1.5;"/><line style="stroke:#000000;stroke-width:1.5;" x1="6" x2="167" y1="449.6348" y2="449.6348"/><text fill="#000000" font-family="sans-serif" font-size="14" font-weight="bold" lengthAdjust="spacing" textLength="148" x="10" y="442.1211">Candidate Aggregate</text></g><!--cluster Job Opening Aggregate--><g id="cluster_Job Opening Aggregate"><path d="M1004.5,6.0137 L1172.5,6.0137 A3.75,3.75 0 0 1 1175,8.5137 L1182,30.6348 L2374.5,30.6348 A2.5,2.5 0 0 1 2377,33.1348 L2377,760.0137 A2.5,2.5 0 0 1 2374.5,762.5137 L1004.5,762.5137 A2.5,2.5 0 0 1 1002,760.0137 L1002,8.5137 A2.5,2.5 0 0 1 1004.5,6.0137 " fill="none" style="stroke:#000000;stroke-width:1.5;"/><line style="stroke:#000000;stroke-width:1.5;" x1="1002" x2="1182" y1="30.6348" y2="30.6348"/><text fill="#000000" font-family="sans-serif" font-size="14" font-weight="bold" lengthAdjust="spacing" textLength="167" x="1006" y="23.1211">Job Opening Aggregate</text></g><!--class JobApplication--><g id="elem_JobApplication"><rect codeLine="4" fill="#F1F1F1" height="81.8633" id="JobApplication" rx="2.5" ry="2.5" style="stroke:#181818;stroke-width:0.5;" width="123" x="679.5" y="646.0137"/><ellipse cx="694.5" cy="678.9453" fill="#ADD1B2" rx="11" ry="11" style="stroke:#181818;stroke-width:1.0;"/><path d="M697.2656,674.8203 Q697.4219,674.6016 697.6094,674.4922 Q697.7969,674.3828 698.0156,674.3828 Q698.3906,674.3828 698.625,674.6484 Q698.8594,674.8984 698.8594,675.5078 L698.8594,676.9609 Q698.8594,677.5703 698.625,677.8359 Q698.3906,678.1016 698.0156,678.1016 Q697.6719,678.1016 697.4688,677.8984 Q697.2656,677.7109 697.1563,677.1953 Q697.1094,676.8359 696.9219,676.6484 Q696.5938,676.2734 695.9844,676.0547 Q695.375,675.8359 694.75,675.8359 Q693.9844,675.8359 693.3438,676.1641 Q692.7188,676.4922 692.2188,677.2422 Q691.7344,677.9922 691.7344,679.0234 L691.7344,680.1172 Q691.7344,681.3516 692.625,682.1797 Q693.5156,682.9922 695.1094,682.9922 Q696.0469,682.9922 696.7031,682.7422 Q697.0938,682.5859 697.5156,682.1484 Q697.7813,681.8828 697.9219,681.8047 Q698.0781,681.7266 698.2813,681.7266 Q698.6094,681.7266 698.8594,681.9922 Q699.125,682.2422 699.125,682.5859 Q699.125,682.9297 698.7813,683.3359 Q698.2813,683.9141 697.4844,684.2422 Q696.4063,684.6953 695.1094,684.6953 Q693.5938,684.6953 692.3906,684.0703 Q691.4063,683.5703 690.7188,682.5078 Q690.0313,681.4297 690.0313,680.1484 L690.0313,678.9922 Q690.0313,677.6641 690.6406,676.5234 Q691.2656,675.3672 692.3594,674.7578 Q693.4531,674.1328 694.6875,674.1328 Q695.4219,674.1328 696.0625,674.3047 Q696.7188,674.4609 697.2656,674.8203 Z " fill="#000000"/><text fill="#000000" font-family="sans-serif" font-size="14" lengthAdjust="spacing" textLength="41" x="733.5" y="666.1211">&#171;root&#187;</text><text fill="#000000" font-family="sans-serif" font-size="14" lengthAdjust="spacing" textLength="50" x="729" y="684.7422">&#171;entity&#187;</text><text fill="#000000" font-family="sans-serif" font-size="14" lengthAdjust="spacing" textLength="91" x="708.5" y="703.3633">JobApplication</text><line style="stroke:#181818;stroke-width:0.5;" x1="680.5" x2="801.5" y1="711.877" y2="711.877"/><line style="stroke:#181818;stroke-width:0.5;" x1="680.5" x2="801.5" y1="719.877" y2="719.877"/></g><!--class Status--><g id="elem_Status"><rect codeLine="7" fill="#F1F1F1" height="63.2422" id="Status" rx="2.5" ry="2.5" style="stroke:#181818;stroke-width:0.5;" width="124" x="361" y="846.0137"/><ellipse cx="376" cy="869.6348" fill="#ADD1B2" rx="11" ry="11" style="stroke:#181818;stroke-width:1.0;"/><path d="M378.7656,865.5098 Q378.9219,865.291 379.1094,865.1816 Q379.2969,865.0723 379.5156,865.0723 Q379.8906,865.0723 380.125,865.3379 Q380.3594,865.5879 380.3594,866.1973 L380.3594,867.6504 Q380.3594,868.2598 380.125,868.5254 Q379.8906,868.791 379.5156,868.791 Q379.1719,868.791 378.9688,868.5879 Q378.7656,868.4004 378.6563,867.8848 Q378.6094,867.5254 378.4219,867.3379 Q378.0938,866.9629 377.4844,866.7441 Q376.875,866.5254 376.25,866.5254 Q375.4844,866.5254 374.8438,866.8535 Q374.2188,867.1816 373.7188,867.9316 Q373.2344,868.6816 373.2344,869.7129 L373.2344,870.8066 Q373.2344,872.041 374.125,872.8691 Q375.0156,873.6816 376.6094,873.6816 Q377.5469,873.6816 378.2031,873.4316 Q378.5938,873.2754 379.0156,872.8379 Q379.2813,872.5723 379.4219,872.4941 Q379.5781,872.416 379.7813,872.416 Q380.1094,872.416 380.3594,872.6816 Q380.625,872.9316 380.625,873.2754 Q380.625,873.6191 380.2813,874.0254 Q379.7813,874.6035 378.9844,874.9316 Q377.9063,875.3848 376.6094,875.3848 Q375.0938,875.3848 373.8906,874.7598 Q372.9063,874.2598 372.2188,873.1973 Q371.5313,872.1191 371.5313,870.8379 L371.5313,869.6816 Q371.5313,868.3535 372.1406,867.2129 Q372.7656,866.0566 373.8594,865.4473 Q374.9531,864.8223 376.1875,864.8223 Q376.9219,864.8223 377.5625,864.9941 Q378.2188,865.1504 378.7656,865.5098 Z " fill="#000000"/><text fill="#000000" font-family="sans-serif" font-size="14" lengthAdjust="spacing" textLength="92" x="390" y="866.1211">&#171;value object&#187;</text><text fill="#000000" font-family="sans-serif" font-size="14" lengthAdjust="spacing" textLength="40" x="416" y="884.7422">Status</text><line style="stroke:#181818;stroke-width:0.5;" x1="362" x2="484" y1="893.2559" y2="893.2559"/><line style="stroke:#181818;stroke-width:0.5;" x1="362" x2="484" y1="901.2559" y2="901.2559"/></g><!--class ID--><g id="elem_ID"><rect codeLine="10" fill="#F1F1F1" height="81.8633" id="ID" rx="2.5" ry="2.5" style="stroke:#181818;stroke-width:0.5;" width="124" x="520" y="836.5137"/><ellipse cx="535" cy="869.4453" fill="#ADD1B2" rx="11" ry="11" style="stroke:#181818;stroke-width:1.0;"/><path d="M537.7656,865.3203 Q537.9219,865.1016 538.1094,864.9922 Q538.2969,864.8828 538.5156,864.8828 Q538.8906,864.8828 539.125,865.1484 Q539.3594,865.3984 539.3594,866.0078 L539.3594,867.4609 Q539.3594,868.0703 539.125,868.3359 Q538.8906,868.6016 538.5156,868.6016 Q538.1719,868.6016 537.9688,868.3984 Q537.7656,868.2109 537.6563,867.6953 Q537.6094,867.3359 537.4219,867.1484 Q537.0938,866.7734 536.4844,866.5547 Q535.875,866.3359 535.25,866.3359 Q534.4844,866.3359 533.8438,866.6641 Q533.2188,866.9922 532.7188,867.7422 Q532.2344,868.4922 532.2344,869.5234 L532.2344,870.6172 Q532.2344,871.8516 533.125,872.6797 Q534.0156,873.4922 535.6094,873.4922 Q536.5469,873.4922 537.2031,873.2422 Q537.5938,873.0859 538.0156,872.6484 Q538.2813,872.3828 538.4219,872.3047 Q538.5781,872.2266 538.7813,872.2266 Q539.1094,872.2266 539.3594,872.4922 Q539.625,872.7422 539.625,873.0859 Q539.625,873.4297 539.2813,873.8359 Q538.7813,874.4141 537.9844,874.7422 Q536.9063,875.1953 535.6094,875.1953 Q534.0938,875.1953 532.8906,874.5703 Q531.9063,874.0703 531.2188,873.0078 Q530.5313,871.9297 530.5313,870.6484 L530.5313,869.4922 Q530.5313,868.1641 531.1406,867.0234 Q531.7656,865.8672 532.8594,865.2578 Q533.9531,864.6328 535.1875,864.6328 Q535.9219,864.6328 536.5625,864.8047 Q537.2188,864.9609 537.7656,865.3203 Z " fill="#000000"/><text fill="#000000" font-family="sans-serif" font-size="14" lengthAdjust="spacing" textLength="92" x="549" y="856.6211">&#171;value object&#187;</text><text fill="#000000" font-family="sans-serif" font-size="14" lengthAdjust="spacing" textLength="70" x="560" y="875.2422">&#171;identifier&#187;</text><text fill="#000000" font-family="sans-serif" font-size="14" lengthAdjust="spacing" textLength="11" x="589.5" y="893.8633">Id</text><line style="stroke:#181818;stroke-width:0.5;" x1="521" x2="643" y1="902.377" y2="902.377"/><line style="stroke:#181818;stroke-width:0.5;" x1="521" x2="643" y1="910.377" y2="910.377"/></g><!--class Grade--><g id="elem_Grade"><rect codeLine="13" fill="#F1F1F1" height="81.8633" id="Grade" rx="2.5" ry="2.5" style="stroke:#181818;stroke-width:0.5;" width="124" x="679" y="836.5137"/><ellipse cx="694" cy="869.4453" fill="#ADD1B2" rx="11" ry="11" style="stroke:#181818;stroke-width:1.0;"/><path d="M696.7656,865.3203 Q696.9219,865.1016 697.1094,864.9922 Q697.2969,864.8828 697.5156,864.8828 Q697.8906,864.8828 698.125,865.1484 Q698.3594,865.3984 698.3594,866.0078 L698.3594,867.4609 Q698.3594,868.0703 698.125,868.3359 Q697.8906,868.6016 697.5156,868.6016 Q697.1719,868.6016 696.9688,868.3984 Q696.7656,868.2109 696.6563,867.6953 Q696.6094,867.3359 696.4219,867.1484 Q696.0938,866.7734 695.4844,866.5547 Q694.875,866.3359 694.25,866.3359 Q693.4844,866.3359 692.8438,866.6641 Q692.2188,866.9922 691.7188,867.7422 Q691.2344,868.4922 691.2344,869.5234 L691.2344,870.6172 Q691.2344,871.8516 692.125,872.6797 Q693.0156,873.4922 694.6094,873.4922 Q695.5469,873.4922 696.2031,873.2422 Q696.5938,873.0859 697.0156,872.6484 Q697.2813,872.3828 697.4219,872.3047 Q697.5781,872.2266 697.7813,872.2266 Q698.1094,872.2266 698.3594,872.4922 Q698.625,872.7422 698.625,873.0859 Q698.625,873.4297 698.2813,873.8359 Q697.7813,874.4141 696.9844,874.7422 Q695.9063,875.1953 694.6094,875.1953 Q693.0938,875.1953 691.8906,874.5703 Q690.9063,874.0703 690.2188,873.0078 Q689.5313,871.9297 689.5313,870.6484 L689.5313,869.4922 Q689.5313,868.1641 690.1406,867.0234 Q690.7656,865.8672 691.8594,865.2578 Q692.9531,864.6328 694.1875,864.6328 Q694.9219,864.6328 695.5625,864.8047 Q696.2188,864.9609 696.7656,865.3203 Z " fill="#000000"/><text fill="#000000" font-family="sans-serif" font-size="14" lengthAdjust="spacing" textLength="92" x="708" y="856.6211">&#171;value object&#187;</text><text fill="#000000" font-family="sans-serif" font-size="14" lengthAdjust="spacing" textLength="80" x="714" y="875.2422">&#171;calculated&#187;</text><text fill="#000000" font-family="sans-serif" font-size="14" lengthAdjust="spacing" textLength="40" x="734" y="893.8633">Grade</text><line style="stroke:#181818;stroke-width:0.5;" x1="680" x2="802" y1="902.377" y2="902.377"/><line style="stroke:#181818;stroke-width:0.5;" x1="680" x2="802" y1="910.377" y2="910.377"/></g><!--class ApplicationFile--><g id="elem_ApplicationFile"><rect codeLine="15" fill="#F1F1F1" height="100.4844" id="ApplicationFile" rx="2.5" ry="2.5" style="stroke:#181818;stroke-width:0.5;" width="124" x="838" y="827.5137"/><ellipse cx="853" cy="851.1348" fill="#ADD1B2" rx="11" ry="11" style="stroke:#181818;stroke-width:1.0;"/><path d="M855.7656,847.0098 Q855.9219,846.791 856.1094,846.6816 Q856.2969,846.5723 856.5156,846.5723 Q856.8906,846.5723 857.125,846.8379 Q857.3594,847.0879 857.3594,847.6973 L857.3594,849.1504 Q857.3594,849.7598 857.125,850.0254 Q856.8906,850.291 856.5156,850.291 Q856.1719,850.291 855.9688,850.0879 Q855.7656,849.9004 855.6563,849.3848 Q855.6094,849.0254 855.4219,848.8379 Q855.0938,848.4629 854.4844,848.2441 Q853.875,848.0254 853.25,848.0254 Q852.4844,848.0254 851.8438,848.3535 Q851.2188,848.6816 850.7188,849.4316 Q850.2344,850.1816 850.2344,851.2129 L850.2344,852.3066 Q850.2344,853.541 851.125,854.3691 Q852.0156,855.1816 853.6094,855.1816 Q854.5469,855.1816 855.2031,854.9316 Q855.5938,854.7754 856.0156,854.3379 Q856.2813,854.0723 856.4219,853.9941 Q856.5781,853.916 856.7813,853.916 Q857.1094,853.916 857.3594,854.1816 Q857.625,854.4316 857.625,854.7754 Q857.625,855.1191 857.2813,855.5254 Q856.7813,856.1035 855.9844,856.4316 Q854.9063,856.8848 853.6094,856.8848 Q852.0938,856.8848 850.8906,856.2598 Q849.9063,855.7598 849.2188,854.6973 Q848.5313,853.6191 848.5313,852.3379 L848.5313,851.1816 Q848.5313,849.8535 849.1406,848.7129 Q849.7656,847.5566 850.8594,846.9473 Q851.9531,846.3223 853.1875,846.3223 Q853.9219,846.3223 854.5625,846.4941 Q855.2188,846.6504 855.7656,847.0098 Z " fill="#000000"/><text fill="#000000" font-family="sans-serif" font-size="14" lengthAdjust="spacing" textLength="92" x="867" y="847.6211">&#171;value object&#187;</text><text fill="#000000" font-family="sans-serif" font-size="14" lengthAdjust="spacing" textLength="92" x="867" y="866.2422">ApplicationFile</text><line style="stroke:#181818;stroke-width:0.5;" x1="839" x2="961" y1="874.7559" y2="874.7559"/><text fill="#000000" font-family="sans-serif" font-size="14" lengthAdjust="spacing" textLength="98" x="844" y="893.8633">relativeFilePath</text><text fill="#000000" font-family="sans-serif" font-size="14" lengthAdjust="spacing" textLength="68" x="844" y="912.4844">fileContent</text><line style="stroke:#181818;stroke-width:0.5;" x1="839" x2="961" y1="919.998" y2="919.998"/></g><!--class Type--><g id="elem_Type"><rect codeLine="22" fill="#F1F1F1" height="63.2422" id="Type" rx="2.5" ry="2.5" style="stroke:#181818;stroke-width:0.5;" width="124" x="838" y="988.5137"/><ellipse cx="853" cy="1012.1348" fill="#ADD1B2" rx="11" ry="11" style="stroke:#181818;stroke-width:1.0;"/><path d="M855.7656,1008.0098 Q855.9219,1007.791 856.1094,1007.6816 Q856.2969,1007.5723 856.5156,1007.5723 Q856.8906,1007.5723 857.125,1007.8379 Q857.3594,1008.0879 857.3594,1008.6973 L857.3594,1010.1504 Q857.3594,1010.7598 857.125,1011.0254 Q856.8906,1011.291 856.5156,1011.291 Q856.1719,1011.291 855.9688,1011.0879 Q855.7656,1010.9004 855.6563,1010.3848 Q855.6094,1010.0254 855.4219,1009.8379 Q855.0938,1009.4629 854.4844,1009.2441 Q853.875,1009.0254 853.25,1009.0254 Q852.4844,1009.0254 851.8438,1009.3535 Q851.2188,1009.6816 850.7188,1010.4316 Q850.2344,1011.1816 850.2344,1012.2129 L850.2344,1013.3066 Q850.2344,1014.541 851.125,1015.3691 Q852.0156,1016.1816 853.6094,1016.1816 Q854.5469,1016.1816 855.2031,1015.9316 Q855.5938,1015.7754 856.0156,1015.3379 Q856.2813,1015.0723 856.4219,1014.9941 Q856.5781,1014.916 856.7813,1014.916 Q857.1094,1014.916 857.3594,1015.1816 Q857.625,1015.4316 857.625,1015.7754 Q857.625,1016.1191 857.2813,1016.5254 Q856.7813,1017.1035 855.9844,1017.4316 Q854.9063,1017.8848 853.6094,1017.8848 Q852.0938,1017.8848 850.8906,1017.2598 Q849.9063,1016.7598 849.2188,1015.6973 Q848.5313,1014.6191 848.5313,1013.3379 L848.5313,1012.1816 Q848.5313,1010.8535 849.1406,1009.7129 Q849.7656,1008.5566 850.8594,1007.9473 Q851.9531,1007.3223 853.1875,1007.3223 Q853.9219,1007.3223 854.5625,1007.4941 Q855.2188,1007.6504 855.7656,1008.0098 Z " fill="#000000"/><text fill="#000000" font-family="sans-serif" font-size="14" lengthAdjust="spacing" textLength="92" x="867" y="1008.6211">&#171;value object&#187;</text><text fill="#000000" font-family="sans-serif" font-size="14" lengthAdjust="spacing" textLength="32" x="897" y="1027.2422">Type</text><line style="stroke:#181818;stroke-width:0.5;" x1="839" x2="961" y1="1035.7559" y2="1035.7559"/><line style="stroke:#181818;stroke-width:0.5;" x1="839" x2="961" y1="1043.7559" y2="1043.7559"/></g><!--class Candidate--><g id="elem_Candidate"><rect codeLine="27" fill="#F1F1F1" height="81.8633" id="Candidate" rx="2.5" ry="2.5" style="stroke:#181818;stroke-width:0.5;" width="97" x="203.5" y="462.0137"/><ellipse cx="218.5" cy="494.9453" fill="#ADD1B2" rx="11" ry="11" style="stroke:#181818;stroke-width:1.0;"/><path d="M221.2656,490.8203 Q221.4219,490.6016 221.6094,490.4922 Q221.7969,490.3828 222.0156,490.3828 Q222.3906,490.3828 222.625,490.6484 Q222.8594,490.8984 222.8594,491.5078 L222.8594,492.9609 Q222.8594,493.5703 222.625,493.8359 Q222.3906,494.1016 222.0156,494.1016 Q221.6719,494.1016 221.4688,493.8984 Q221.2656,493.7109 221.1563,493.1953 Q221.1094,492.8359 220.9219,492.6484 Q220.5938,492.2734 219.9844,492.0547 Q219.375,491.8359 218.75,491.8359 Q217.9844,491.8359 217.3438,492.1641 Q216.7188,492.4922 216.2188,493.2422 Q215.7344,493.9922 215.7344,495.0234 L215.7344,496.1172 Q215.7344,497.3516 216.625,498.1797 Q217.5156,498.9922 219.1094,498.9922 Q220.0469,498.9922 220.7031,498.7422 Q221.0938,498.5859 221.5156,498.1484 Q221.7813,497.8828 221.9219,497.8047 Q222.0781,497.7266 222.2813,497.7266 Q222.6094,497.7266 222.8594,497.9922 Q223.125,498.2422 223.125,498.5859 Q223.125,498.9297 222.7813,499.3359 Q222.2813,499.9141 221.4844,500.2422 Q220.4063,500.6953 219.1094,500.6953 Q217.5938,500.6953 216.3906,500.0703 Q215.4063,499.5703 214.7188,498.5078 Q214.0313,497.4297 214.0313,496.1484 L214.0313,494.9922 Q214.0313,493.6641 214.6406,492.5234 Q215.2656,491.3672 216.3594,490.7578 Q217.4531,490.1328 218.6875,490.1328 Q219.4219,490.1328 220.0625,490.3047 Q220.7188,490.4609 221.2656,490.8203 Z " fill="#000000"/><text fill="#000000" font-family="sans-serif" font-size="14" lengthAdjust="spacing" textLength="41" x="244.5" y="482.1211">&#171;root&#187;</text><text fill="#000000" font-family="sans-serif" font-size="14" lengthAdjust="spacing" textLength="50" x="240" y="500.7422">&#171;entity&#187;</text><text fill="#000000" font-family="sans-serif" font-size="14" lengthAdjust="spacing" textLength="65" x="232.5" y="519.3633">Candidate</text><line style="stroke:#181818;stroke-width:0.5;" x1="204.5" x2="299.5" y1="527.877" y2="527.877"/><line style="stroke:#181818;stroke-width:0.5;" x1="204.5" x2="299.5" y1="535.877" y2="535.877"/></g><!--class Name2--><g id="elem_Name2"><rect codeLine="31" fill="#F1F1F1" height="100.4844" id="Name2" rx="2.5" ry="2.5" style="stroke:#181818;stroke-width:0.5;" width="124" x="22" y="637.0137"/><ellipse cx="37" cy="660.6348" fill="#ADD1B2" rx="11" ry="11" style="stroke:#181818;stroke-width:1.0;"/><path d="M39.7656,656.5098 Q39.9219,656.291 40.1094,656.1816 Q40.2969,656.0723 40.5156,656.0723 Q40.8906,656.0723 41.125,656.3379 Q41.3594,656.5879 41.3594,657.1973 L41.3594,658.6504 Q41.3594,659.2598 41.125,659.5254 Q40.8906,659.791 40.5156,659.791 Q40.1719,659.791 39.9688,659.5879 Q39.7656,659.4004 39.6563,658.8848 Q39.6094,658.5254 39.4219,658.3379 Q39.0938,657.9629 38.4844,657.7441 Q37.875,657.5254 37.25,657.5254 Q36.4844,657.5254 35.8438,657.8535 Q35.2188,658.1816 34.7188,658.9316 Q34.2344,659.6816 34.2344,660.7129 L34.2344,661.8066 Q34.2344,663.041 35.125,663.8691 Q36.0156,664.6816 37.6094,664.6816 Q38.5469,664.6816 39.2031,664.4316 Q39.5938,664.2754 40.0156,663.8379 Q40.2813,663.5723 40.4219,663.4941 Q40.5781,663.416 40.7813,663.416 Q41.1094,663.416 41.3594,663.6816 Q41.625,663.9316 41.625,664.2754 Q41.625,664.6191 41.2813,665.0254 Q40.7813,665.6035 39.9844,665.9316 Q38.9063,666.3848 37.6094,666.3848 Q36.0938,666.3848 34.8906,665.7598 Q33.9063,665.2598 33.2188,664.1973 Q32.5313,663.1191 32.5313,661.8379 L32.5313,660.6816 Q32.5313,659.3535 33.1406,658.2129 Q33.7656,657.0566 34.8594,656.4473 Q35.9531,655.8223 37.1875,655.8223 Q37.9219,655.8223 38.5625,655.9941 Q39.2188,656.1504 39.7656,656.5098 Z " fill="#000000"/><text fill="#000000" font-family="sans-serif" font-size="14" lengthAdjust="spacing" textLength="92" x="51" y="657.1211">&#171;value object&#187;</text><text fill="#000000" font-family="sans-serif" font-size="14" lengthAdjust="spacing" textLength="36" x="79" y="675.7422">Name</text><line style="stroke:#181818;stroke-width:0.5;" x1="23" x2="145" y1="684.2559" y2="684.2559"/><text fill="#000000" font-family="sans-serif" font-size="14" lengthAdjust="spacing" textLength="59" x="28" y="703.3633">firstName</text><text fill="#000000" font-family="sans-serif" font-size="14" lengthAdjust="spacing" textLength="58" x="28" y="721.9844">lastName</text><line style="stroke:#181818;stroke-width:0.5;" x1="23" x2="145" y1="729.498" y2="729.498"/></g><!--class PhoneNumber--><g id="elem_PhoneNumber"><rect codeLine="36" fill="#F1F1F1" height="63.2422" id="PhoneNumber" rx="2.5" ry="2.5" style="stroke:#181818;stroke-width:0.5;" width="124" x="22" y="471.5137"/><ellipse cx="37" cy="495.1348" fill="#ADD1B2" rx="11" ry="11" style="stroke:#181818;stroke-width:1.0;"/><path d="M39.7656,491.0098 Q39.9219,490.791 40.1094,490.6816 Q40.2969,490.5723 40.5156,490.5723 Q40.8906,490.5723 41.125,490.8379 Q41.3594,491.0879 41.3594,491.6973 L41.3594,493.1504 Q41.3594,493.7598 41.125,494.0254 Q40.8906,494.291 40.5156,494.291 Q40.1719,494.291 39.9688,494.0879 Q39.7656,493.9004 39.6563,493.3848 Q39.6094,493.0254 39.4219,492.8379 Q39.0938,492.4629 38.4844,492.2441 Q37.875,492.0254 37.25,492.0254 Q36.4844,492.0254 35.8438,492.3535 Q35.2188,492.6816 34.7188,493.4316 Q34.2344,494.1816 34.2344,495.2129 L34.2344,496.3066 Q34.2344,497.541 35.125,498.3691 Q36.0156,499.1816 37.6094,499.1816 Q38.5469,499.1816 39.2031,498.9316 Q39.5938,498.7754 40.0156,498.3379 Q40.2813,498.0723 40.4219,497.9941 Q40.5781,497.916 40.7813,497.916 Q41.1094,497.916 41.3594,498.1816 Q41.625,498.4316 41.625,498.7754 Q41.625,499.1191 41.2813,499.5254 Q40.7813,500.1035 39.9844,500.4316 Q38.9063,500.8848 37.6094,500.8848 Q36.0938,500.8848 34.8906,500.2598 Q33.9063,499.7598 33.2188,498.6973 Q32.5313,497.6191 32.5313,496.3379 L32.5313,495.1816 Q32.5313,493.8535 33.1406,492.7129 Q33.7656,491.5566 34.8594,490.9473 Q35.9531,490.3223 37.1875,490.3223 Q37.9219,490.3223 38.5625,490.4941 Q39.2188,490.6504 39.7656,491.0098 Z " fill="#000000"/><text fill="#000000" font-family="sans-serif" font-size="14" lengthAdjust="spacing" textLength="92" x="51" y="491.6211">&#171;value object&#187;</text><text fill="#000000" font-family="sans-serif" font-size="14" lengthAdjust="spacing" textLength="90" x="52" y="510.2422">PhoneNumber</text><line style="stroke:#181818;stroke-width:0.5;" x1="23" x2="145" y1="518.7559" y2="518.7559"/><line style="stroke:#181818;stroke-width:0.5;" x1="23" x2="145" y1="526.7559" y2="526.7559"/></g><!--class EMail2--><g id="elem_EMail2"><rect codeLine="39" fill="#F1F1F1" height="81.8633" id="EMail2" rx="2.5" ry="2.5" style="stroke:#181818;stroke-width:0.5;" width="124" x="181" y="646.0137"/><ellipse cx="196" cy="678.9453" fill="#ADD1B2" rx="11" ry="11" style="stroke:#181818;stroke-width:1.0;"/><path d="M198.7656,674.8203 Q198.9219,674.6016 199.1094,674.4922 Q199.2969,674.3828 199.5156,674.3828 Q199.8906,674.3828 200.125,674.6484 Q200.3594,674.8984 200.3594,675.5078 L200.3594,676.9609 Q200.3594,677.5703 200.125,677.8359 Q199.8906,678.1016 199.5156,678.1016 Q199.1719,678.1016 198.9688,677.8984 Q198.7656,677.7109 198.6563,677.1953 Q198.6094,676.8359 198.4219,676.6484 Q198.0938,676.2734 197.4844,676.0547 Q196.875,675.8359 196.25,675.8359 Q195.4844,675.8359 194.8438,676.1641 Q194.2188,676.4922 193.7188,677.2422 Q193.2344,677.9922 193.2344,679.0234 L193.2344,680.1172 Q193.2344,681.3516 194.125,682.1797 Q195.0156,682.9922 196.6094,682.9922 Q197.5469,682.9922 198.2031,682.7422 Q198.5938,682.5859 199.0156,682.1484 Q199.2813,681.8828 199.4219,681.8047 Q199.5781,681.7266 199.7813,681.7266 Q200.1094,681.7266 200.3594,681.9922 Q200.625,682.2422 200.625,682.5859 Q200.625,682.9297 200.2813,683.3359 Q199.7813,683.9141 198.9844,684.2422 Q197.9063,684.6953 196.6094,684.6953 Q195.0938,684.6953 193.8906,684.0703 Q192.9063,683.5703 192.2188,682.5078 Q191.5313,681.4297 191.5313,680.1484 L191.5313,678.9922 Q191.5313,677.6641 192.1406,676.5234 Q192.7656,675.3672 193.8594,674.7578 Q194.9531,674.1328 196.1875,674.1328 Q196.9219,674.1328 197.5625,674.3047 Q198.2188,674.4609 198.7656,674.8203 Z " fill="#000000"/><text fill="#000000" font-family="sans-serif" font-size="14" lengthAdjust="spacing" textLength="92" x="210" y="666.1211">&#171;value object&#187;</text><text fill="#000000" font-family="sans-serif" font-size="14" lengthAdjust="spacing" textLength="70" x="221" y="684.7422">&#171;identifier&#187;</text><text fill="#000000" font-family="sans-serif" font-size="14" lengthAdjust="spacing" textLength="39" x="236.5" y="703.3633">E-Mail</text><line style="stroke:#181818;stroke-width:0.5;" x1="182" x2="304" y1="711.877" y2="711.877"/><line style="stroke:#181818;stroke-width:0.5;" x1="182" x2="304" y1="719.877" y2="719.877"/></g><!--class RecruitmentProcess--><g id="elem_RecruitmentProcess"><rect codeLine="47" fill="#F1F1F1" height="81.8633" id="RecruitmentProcess" rx="2.5" ry="2.5" style="stroke:#181818;stroke-width:0.5;" width="159" x="1180.5" y="462.0137"/><ellipse cx="1195.5" cy="485.6348" fill="#ADD1B2" rx="11" ry="11" style="stroke:#181818;stroke-width:1.0;"/><path d="M1198.2656,481.5098 Q1198.4219,481.291 1198.6094,481.1816 Q1198.7969,481.0723 1199.0156,481.0723 Q1199.3906,481.0723 1199.625,481.3379 Q1199.8594,481.5879 1199.8594,482.1973 L1199.8594,483.6504 Q1199.8594,484.2598 1199.625,484.5254 Q1199.3906,484.791 1199.0156,484.791 Q1198.6719,484.791 1198.4688,484.5879 Q1198.2656,484.4004 1198.1563,483.8848 Q1198.1094,483.5254 1197.9219,483.3379 Q1197.5938,482.9629 1196.9844,482.7441 Q1196.375,482.5254 1195.75,482.5254 Q1194.9844,482.5254 1194.3438,482.8535 Q1193.7188,483.1816 1193.2188,483.9316 Q1192.7344,484.6816 1192.7344,485.7129 L1192.7344,486.8066 Q1192.7344,488.041 1193.625,488.8691 Q1194.5156,489.6816 1196.1094,489.6816 Q1197.0469,489.6816 1197.7031,489.4316 Q1198.0938,489.2754 1198.5156,488.8379 Q1198.7813,488.5723 1198.9219,488.4941 Q1199.0781,488.416 1199.2813,488.416 Q1199.6094,488.416 1199.8594,488.6816 Q1200.125,488.9316 1200.125,489.2754 Q1200.125,489.6191 1199.7813,490.0254 Q1199.2813,490.6035 1198.4844,490.9316 Q1197.4063,491.3848 1196.1094,491.3848 Q1194.5938,491.3848 1193.3906,490.7598 Q1192.4063,490.2598 1191.7188,489.1973 Q1191.0313,488.1191 1191.0313,486.8379 L1191.0313,485.6816 Q1191.0313,484.3535 1191.6406,483.2129 Q1192.2656,482.0566 1193.3594,481.4473 Q1194.4531,480.8223 1195.6875,480.8223 Q1196.4219,480.8223 1197.0625,480.9941 Q1197.7188,481.1504 1198.2656,481.5098 Z " fill="#000000"/><text fill="#000000" font-family="sans-serif" font-size="14" lengthAdjust="spacing" textLength="50" x="1248" y="482.1211">&#171;entity&#187;</text><text fill="#000000" font-family="sans-serif" font-size="14" lengthAdjust="spacing" textLength="127" x="1209.5" y="500.7422">RecruitmentProcess</text><line style="stroke:#181818;stroke-width:0.5;" x1="1181.5" x2="1338.5" y1="509.2559" y2="509.2559"/><text fill="#000000" font-family="sans-serif" font-size="14" lengthAdjust="spacing" textLength="119" x="1186.5" y="528.3633">HasInterviewPhase</text><line style="stroke:#181818;stroke-width:0.5;" x1="1181.5" x2="1338.5" y1="535.877" y2="535.877"/></g><!--class Phase--><g id="elem_Phase"><rect codeLine="51" fill="#F1F1F1" height="119.1055" id="Phase" rx="2.5" ry="2.5" style="stroke:#181818;stroke-width:0.5;" width="87" x="1937.5" y="627.5137"/><ellipse cx="1954.75" cy="651.1348" fill="#ADD1B2" rx="11" ry="11" style="stroke:#181818;stroke-width:1.0;"/><path d="M1957.5156,647.0098 Q1957.6719,646.791 1957.8594,646.6816 Q1958.0469,646.5723 1958.2656,646.5723 Q1958.6406,646.5723 1958.875,646.8379 Q1959.1094,647.0879 1959.1094,647.6973 L1959.1094,649.1504 Q1959.1094,649.7598 1958.875,650.0254 Q1958.6406,650.291 1958.2656,650.291 Q1957.9219,650.291 1957.7188,650.0879 Q1957.5156,649.9004 1957.4063,649.3848 Q1957.3594,649.0254 1957.1719,648.8379 Q1956.8438,648.4629 1956.2344,648.2441 Q1955.625,648.0254 1955,648.0254 Q1954.2344,648.0254 1953.5938,648.3535 Q1952.9688,648.6816 1952.4688,649.4316 Q1951.9844,650.1816 1951.9844,651.2129 L1951.9844,652.3066 Q1951.9844,653.541 1952.875,654.3691 Q1953.7656,655.1816 1955.3594,655.1816 Q1956.2969,655.1816 1956.9531,654.9316 Q1957.3438,654.7754 1957.7656,654.3379 Q1958.0313,654.0723 1958.1719,653.9941 Q1958.3281,653.916 1958.5313,653.916 Q1958.8594,653.916 1959.1094,654.1816 Q1959.375,654.4316 1959.375,654.7754 Q1959.375,655.1191 1959.0313,655.5254 Q1958.5313,656.1035 1957.7344,656.4316 Q1956.6563,656.8848 1955.3594,656.8848 Q1953.8438,656.8848 1952.6406,656.2598 Q1951.6563,655.7598 1950.9688,654.6973 Q1950.2813,653.6191 1950.2813,652.3379 L1950.2813,651.1816 Q1950.2813,649.8535 1950.8906,648.7129 Q1951.5156,647.5566 1952.6094,646.9473 Q1953.7031,646.3223 1954.9375,646.3223 Q1955.6719,646.3223 1956.3125,646.4941 Q1956.9688,646.6504 1957.5156,647.0098 Z " fill="#000000"/><text fill="#000000" font-family="sans-serif" font-size="14" lengthAdjust="spacing" textLength="50" x="1969.25" y="647.6211">&#171;entity&#187;</text><text fill="#000000" font-family="sans-serif" font-size="14" lengthAdjust="spacing" textLength="40" x="1974.25" y="666.2422">Phase</text><line style="stroke:#181818;stroke-width:0.5;" x1="1938.5" x2="2023.5" y1="674.7559" y2="674.7559"/><text fill="#000000" font-family="sans-serif" font-size="14" lengthAdjust="spacing" textLength="75" x="1943.5" y="693.8633">phaseName</text><text fill="#000000" font-family="sans-serif" font-size="14" lengthAdjust="spacing" textLength="58" x="1943.5" y="712.4844">startDate</text><text fill="#000000" font-family="sans-serif" font-size="14" lengthAdjust="spacing" textLength="54" x="1943.5" y="731.1055">endDate</text><line style="stroke:#181818;stroke-width:0.5;" x1="1938.5" x2="2023.5" y1="738.6191" y2="738.6191"/></g><!--class PhaseNames--><g id="elem_PhaseNames"><rect codeLine="57" fill="#F1F1F1" height="63.2422" id="PhaseNames" rx="2.5" ry="2.5" style="stroke:#181818;stroke-width:0.5;" width="124" x="1424" y="471.5137"/><ellipse cx="1439" cy="495.1348" fill="#ADD1B2" rx="11" ry="11" style="stroke:#181818;stroke-width:1.0;"/><path d="M1441.7656,491.0098 Q1441.9219,490.791 1442.1094,490.6816 Q1442.2969,490.5723 1442.5156,490.5723 Q1442.8906,490.5723 1443.125,490.8379 Q1443.3594,491.0879 1443.3594,491.6973 L1443.3594,493.1504 Q1443.3594,493.7598 1443.125,494.0254 Q1442.8906,494.291 1442.5156,494.291 Q1442.1719,494.291 1441.9688,494.0879 Q1441.7656,493.9004 1441.6563,493.3848 Q1441.6094,493.0254 1441.4219,492.8379 Q1441.0938,492.4629 1440.4844,492.2441 Q1439.875,492.0254 1439.25,492.0254 Q1438.4844,492.0254 1437.8438,492.3535 Q1437.2188,492.6816 1436.7188,493.4316 Q1436.2344,494.1816 1436.2344,495.2129 L1436.2344,496.3066 Q1436.2344,497.541 1437.125,498.3691 Q1438.0156,499.1816 1439.6094,499.1816 Q1440.5469,499.1816 1441.2031,498.9316 Q1441.5938,498.7754 1442.0156,498.3379 Q1442.2813,498.0723 1442.4219,497.9941 Q1442.5781,497.916 1442.7813,497.916 Q1443.1094,497.916 1443.3594,498.1816 Q1443.625,498.4316 1443.625,498.7754 Q1443.625,499.1191 1443.2813,499.5254 Q1442.7813,500.1035 1441.9844,500.4316 Q1440.9063,500.8848 1439.6094,500.8848 Q1438.0938,500.8848 1436.8906,500.2598 Q1435.9063,499.7598 1435.2188,498.6973 Q1434.5313,497.6191 1434.5313,496.3379 L1434.5313,495.1816 Q1434.5313,493.8535 1435.1406,492.7129 Q1435.7656,491.5566 1436.8594,490.9473 Q1437.9531,490.3223 1439.1875,490.3223 Q1439.9219,490.3223 1440.5625,490.4941 Q1441.2188,490.6504 1441.7656,491.0098 Z " fill="#000000"/><text fill="#000000" font-family="sans-serif" font-size="14" lengthAdjust="spacing" textLength="92" x="1453" y="491.6211">&#171;value object&#187;</text><text fill="#000000" font-family="sans-serif" font-size="14" lengthAdjust="spacing" textLength="83" x="1457.5" y="510.2422">PhaseNames</text><line style="stroke:#181818;stroke-width:0.5;" x1="1425" x2="1547" y1="518.7559" y2="518.7559"/><line style="stroke:#181818;stroke-width:0.5;" x1="1425" x2="1547" y1="526.7559" y2="526.7559"/></g><!--class ScreeningPhase--><g id="elem_ScreeningPhase"><rect codeLine="62" fill="#F1F1F1" height="63.2422" id="ScreeningPhase" rx="2.5" ry="2.5" style="stroke:#181818;stroke-width:0.5;" width="136" x="2225" y="471.5137"/><ellipse cx="2240" cy="495.1348" fill="#ADD1B2" rx="11" ry="11" style="stroke:#181818;stroke-width:1.0;"/><path d="M2242.7656,491.0098 Q2242.9219,490.791 2243.1094,490.6816 Q2243.2969,490.5723 2243.5156,490.5723 Q2243.8906,490.5723 2244.125,490.8379 Q2244.3594,491.0879 2244.3594,491.6973 L2244.3594,493.1504 Q2244.3594,493.7598 2244.125,494.0254 Q2243.8906,494.291 2243.5156,494.291 Q2243.1719,494.291 2242.9688,494.0879 Q2242.7656,493.9004 2242.6563,493.3848 Q2242.6094,493.0254 2242.4219,492.8379 Q2242.0938,492.4629 2241.4844,492.2441 Q2240.875,492.0254 2240.25,492.0254 Q2239.4844,492.0254 2238.8438,492.3535 Q2238.2188,492.6816 2237.7188,493.4316 Q2237.2344,494.1816 2237.2344,495.2129 L2237.2344,496.3066 Q2237.2344,497.541 2238.125,498.3691 Q2239.0156,499.1816 2240.6094,499.1816 Q2241.5469,499.1816 2242.2031,498.9316 Q2242.5938,498.7754 2243.0156,498.3379 Q2243.2813,498.0723 2243.4219,497.9941 Q2243.5781,497.916 2243.7813,497.916 Q2244.1094,497.916 2244.3594,498.1816 Q2244.625,498.4316 2244.625,498.7754 Q2244.625,499.1191 2244.2813,499.5254 Q2243.7813,500.1035 2242.9844,500.4316 Q2241.9063,500.8848 2240.6094,500.8848 Q2239.0938,500.8848 2237.8906,500.2598 Q2236.9063,499.7598 2236.2188,498.6973 Q2235.5313,497.6191 2235.5313,496.3379 L2235.5313,495.1816 Q2235.5313,493.8535 2236.1406,492.7129 Q2236.7656,491.5566 2237.8594,490.9473 Q2238.9531,490.3223 2240.1875,490.3223 Q2240.9219,490.3223 2241.5625,490.4941 Q2242.2188,490.6504 2242.7656,491.0098 Z " fill="#000000"/><text fill="#000000" font-family="sans-serif" font-size="14" lengthAdjust="spacing" textLength="50" x="2281" y="491.6211">&#171;entity&#187;</text><text fill="#000000" font-family="sans-serif" font-size="14" lengthAdjust="spacing" textLength="104" x="2254" y="510.2422">ScreeningPhase</text><line style="stroke:#181818;stroke-width:0.5;" x1="2226" x2="2360" y1="518.7559" y2="518.7559"/><line style="stroke:#181818;stroke-width:0.5;" x1="2226" x2="2360" y1="526.7559" y2="526.7559"/></g><!--class ResultPhase--><g id="elem_ResultPhase"><rect codeLine="66" fill="#F1F1F1" height="63.2422" id="ResultPhase" rx="2.5" ry="2.5" style="stroke:#181818;stroke-width:0.5;" width="112" x="2078" y="471.5137"/><ellipse cx="2093" cy="495.1348" fill="#ADD1B2" rx="11" ry="11" style="stroke:#181818;stroke-width:1.0;"/><path d="M2095.7656,491.0098 Q2095.9219,490.791 2096.1094,490.6816 Q2096.2969,490.5723 2096.5156,490.5723 Q2096.8906,490.5723 2097.125,490.8379 Q2097.3594,491.0879 2097.3594,491.6973 L2097.3594,493.1504 Q2097.3594,493.7598 2097.125,494.0254 Q2096.8906,494.291 2096.5156,494.291 Q2096.1719,494.291 2095.9688,494.0879 Q2095.7656,493.9004 2095.6563,493.3848 Q2095.6094,493.0254 2095.4219,492.8379 Q2095.0938,492.4629 2094.4844,492.2441 Q2093.875,492.0254 2093.25,492.0254 Q2092.4844,492.0254 2091.8438,492.3535 Q2091.2188,492.6816 2090.7188,493.4316 Q2090.2344,494.1816 2090.2344,495.2129 L2090.2344,496.3066 Q2090.2344,497.541 2091.125,498.3691 Q2092.0156,499.1816 2093.6094,499.1816 Q2094.5469,499.1816 2095.2031,498.9316 Q2095.5938,498.7754 2096.0156,498.3379 Q2096.2813,498.0723 2096.4219,497.9941 Q2096.5781,497.916 2096.7813,497.916 Q2097.1094,497.916 2097.3594,498.1816 Q2097.625,498.4316 2097.625,498.7754 Q2097.625,499.1191 2097.2813,499.5254 Q2096.7813,500.1035 2095.9844,500.4316 Q2094.9063,500.8848 2093.6094,500.8848 Q2092.0938,500.8848 2090.8906,500.2598 Q2089.9063,499.7598 2089.2188,498.6973 Q2088.5313,497.6191 2088.5313,496.3379 L2088.5313,495.1816 Q2088.5313,493.8535 2089.1406,492.7129 Q2089.7656,491.5566 2090.8594,490.9473 Q2091.9531,490.3223 2093.1875,490.3223 Q2093.9219,490.3223 2094.5625,490.4941 Q2095.2188,490.6504 2095.7656,491.0098 Z " fill="#000000"/><text fill="#000000" font-family="sans-serif" font-size="14" lengthAdjust="spacing" textLength="50" x="2122" y="491.6211">&#171;entity&#187;</text><text fill="#000000" font-family="sans-serif" font-size="14" lengthAdjust="spacing" textLength="80" x="2107" y="510.2422">ResultPhase</text><line style="stroke:#181818;stroke-width:0.5;" x1="2079" x2="2189" y1="518.7559" y2="518.7559"/><line style="stroke:#181818;stroke-width:0.5;" x1="2079" x2="2189" y1="526.7559" y2="526.7559"/></g><!--class AnalysisPhase--><g id="elem_AnalysisPhase"><rect codeLine="69" fill="#F1F1F1" height="63.2422" id="AnalysisPhase" rx="2.5" ry="2.5" style="stroke:#181818;stroke-width:0.5;" width="124" x="1919" y="471.5137"/><ellipse cx="1934" cy="495.1348" fill="#ADD1B2" rx="11" ry="11" style="stroke:#181818;stroke-width:1.0;"/><path d="M1936.7656,491.0098 Q1936.9219,490.791 1937.1094,490.6816 Q1937.2969,490.5723 1937.5156,490.5723 Q1937.8906,490.5723 1938.125,490.8379 Q1938.3594,491.0879 1938.3594,491.6973 L1938.3594,493.1504 Q1938.3594,493.7598 1938.125,494.0254 Q1937.8906,494.291 1937.5156,494.291 Q1937.1719,494.291 1936.9688,494.0879 Q1936.7656,493.9004 1936.6563,493.3848 Q1936.6094,493.0254 1936.4219,492.8379 Q1936.0938,492.4629 1935.4844,492.2441 Q1934.875,492.0254 1934.25,492.0254 Q1933.4844,492.0254 1932.8438,492.3535 Q1932.2188,492.6816 1931.7188,493.4316 Q1931.2344,494.1816 1931.2344,495.2129 L1931.2344,496.3066 Q1931.2344,497.541 1932.125,498.3691 Q1933.0156,499.1816 1934.6094,499.1816 Q1935.5469,499.1816 1936.2031,498.9316 Q1936.5938,498.7754 1937.0156,498.3379 Q1937.2813,498.0723 1937.4219,497.9941 Q1937.5781,497.916 1937.7813,497.916 Q1938.1094,497.916 1938.3594,498.1816 Q1938.625,498.4316 1938.625,498.7754 Q1938.625,499.1191 1938.2813,499.5254 Q1937.7813,500.1035 1936.9844,500.4316 Q1935.9063,500.8848 1934.6094,500.8848 Q1933.0938,500.8848 1931.8906,500.2598 Q1930.9063,499.7598 1930.2188,498.6973 Q1929.5313,497.6191 1929.5313,496.3379 L1929.5313,495.1816 Q1929.5313,493.8535 1930.1406,492.7129 Q1930.7656,491.5566 1931.8594,490.9473 Q1932.9531,490.3223 1934.1875,490.3223 Q1934.9219,490.3223 1935.5625,490.4941 Q1936.2188,490.6504 1936.7656,491.0098 Z " fill="#000000"/><text fill="#000000" font-family="sans-serif" font-size="14" lengthAdjust="spacing" textLength="50" x="1969" y="491.6211">&#171;entity&#187;</text><text fill="#000000" font-family="sans-serif" font-size="14" lengthAdjust="spacing" textLength="92" x="1948" y="510.2422">AnalysisPhase</text><line style="stroke:#181818;stroke-width:0.5;" x1="1920" x2="2042" y1="518.7559" y2="518.7559"/><line style="stroke:#181818;stroke-width:0.5;" x1="1920" x2="2042" y1="526.7559" y2="526.7559"/></g><!--class JobOpening--><g id="elem_JobOpening"><rect codeLine="73" fill="#F1F1F1" height="81.8633" id="JobOpening" rx="2.5" ry="2.5" style="stroke:#181818;stroke-width:0.5;" width="108" x="1365" y="278.0137"/><ellipse cx="1380" cy="310.9453" fill="#ADD1B2" rx="11" ry="11" style="stroke:#181818;stroke-width:1.0;"/><path d="M1382.7656,306.8203 Q1382.9219,306.6016 1383.1094,306.4922 Q1383.2969,306.3828 1383.5156,306.3828 Q1383.8906,306.3828 1384.125,306.6484 Q1384.3594,306.8984 1384.3594,307.5078 L1384.3594,308.9609 Q1384.3594,309.5703 1384.125,309.8359 Q1383.8906,310.1016 1383.5156,310.1016 Q1383.1719,310.1016 1382.9688,309.8984 Q1382.7656,309.7109 1382.6563,309.1953 Q1382.6094,308.8359 1382.4219,308.6484 Q1382.0938,308.2734 1381.4844,308.0547 Q1380.875,307.8359 1380.25,307.8359 Q1379.4844,307.8359 1378.8438,308.1641 Q1378.2188,308.4922 1377.7188,309.2422 Q1377.2344,309.9922 1377.2344,311.0234 L1377.2344,312.1172 Q1377.2344,313.3516 1378.125,314.1797 Q1379.0156,314.9922 1380.6094,314.9922 Q1381.5469,314.9922 1382.2031,314.7422 Q1382.5938,314.5859 1383.0156,314.1484 Q1383.2813,313.8828 1383.4219,313.8047 Q1383.5781,313.7266 1383.7813,313.7266 Q1384.1094,313.7266 1384.3594,313.9922 Q1384.625,314.2422 1384.625,314.5859 Q1384.625,314.9297 1384.2813,315.3359 Q1383.7813,315.9141 1382.9844,316.2422 Q1381.9063,316.6953 1380.6094,316.6953 Q1379.0938,316.6953 1377.8906,316.0703 Q1376.9063,315.5703 1376.2188,314.5078 Q1375.5313,313.4297 1375.5313,312.1484 L1375.5313,310.9922 Q1375.5313,309.6641 1376.1406,308.5234 Q1376.7656,307.3672 1377.8594,306.7578 Q1378.9531,306.1328 1380.1875,306.1328 Q1380.9219,306.1328 1381.5625,306.3047 Q1382.2188,306.4609 1382.7656,306.8203 Z " fill="#000000"/><text fill="#000000" font-family="sans-serif" font-size="14" lengthAdjust="spacing" textLength="41" x="1411.5" y="298.1211">&#171;root&#187;</text><text fill="#000000" font-family="sans-serif" font-size="14" lengthAdjust="spacing" textLength="50" x="1405" y="316.7422">&#171;entity&#187;</text><text fill="#000000" font-family="sans-serif" font-size="14" lengthAdjust="spacing" textLength="76" x="1394" y="335.3633">JobOpening</text><line style="stroke:#181818;stroke-width:0.5;" x1="1366" x2="1472" y1="343.877" y2="343.877"/><line style="stroke:#181818;stroke-width:0.5;" x1="1366" x2="1472" y1="351.877" y2="351.877"/></g><!--class JogOpeningState--><g id="elem_JogOpeningState"><rect codeLine="78" fill="#F1F1F1" height="63.2422" id="JogOpeningState" rx="2.5" ry="2.5" style="stroke:#181818;stroke-width:0.5;" width="141" x="1583.5" y="471.5137"/><ellipse cx="1598.5" cy="495.1348" fill="#ADD1B2" rx="11" ry="11" style="stroke:#181818;stroke-width:1.0;"/><path d="M1601.2656,491.0098 Q1601.4219,490.791 1601.6094,490.6816 Q1601.7969,490.5723 1602.0156,490.5723 Q1602.3906,490.5723 1602.625,490.8379 Q1602.8594,491.0879 1602.8594,491.6973 L1602.8594,493.1504 Q1602.8594,493.7598 1602.625,494.0254 Q1602.3906,494.291 1602.0156,494.291 Q1601.6719,494.291 1601.4688,494.0879 Q1601.2656,493.9004 1601.1563,493.3848 Q1601.1094,493.0254 1600.9219,492.8379 Q1600.5938,492.4629 1599.9844,492.2441 Q1599.375,492.0254 1598.75,492.0254 Q1597.9844,492.0254 1597.3438,492.3535 Q1596.7188,492.6816 1596.2188,493.4316 Q1595.7344,494.1816 1595.7344,495.2129 L1595.7344,496.3066 Q1595.7344,497.541 1596.625,498.3691 Q1597.5156,499.1816 1599.1094,499.1816 Q1600.0469,499.1816 1600.7031,498.9316 Q1601.0938,498.7754 1601.5156,498.3379 Q1601.7813,498.0723 1601.9219,497.9941 Q1602.0781,497.916 1602.2813,497.916 Q1602.6094,497.916 1602.8594,498.1816 Q1603.125,498.4316 1603.125,498.7754 Q1603.125,499.1191 1602.7813,499.5254 Q1602.2813,500.1035 1601.4844,500.4316 Q1600.4063,500.8848 1599.1094,500.8848 Q1597.5938,500.8848 1596.3906,500.2598 Q1595.4063,499.7598 1594.7188,498.6973 Q1594.0313,497.6191 1594.0313,496.3379 L1594.0313,495.1816 Q1594.0313,493.8535 1594.6406,492.7129 Q1595.2656,491.5566 1596.3594,490.9473 Q1597.4531,490.3223 1598.6875,490.3223 Q1599.4219,490.3223 1600.0625,490.4941 Q1600.7188,490.6504 1601.2656,491.0098 Z " fill="#000000"/><text fill="#000000" font-family="sans-serif" font-size="14" lengthAdjust="spacing" textLength="92" x="1621" y="491.6211">&#171;value object&#187;</text><text fill="#000000" font-family="sans-serif" font-size="14" lengthAdjust="spacing" textLength="109" x="1612.5" y="510.2422">JogOpeningState</text><line style="stroke:#181818;stroke-width:0.5;" x1="1584.5" x2="1723.5" y1="518.7559" y2="518.7559"/><line style="stroke:#181818;stroke-width:0.5;" x1="1584.5" x2="1723.5" y1="526.7559" y2="526.7559"/></g><!--class ContractType--><g id="elem_ContractType"><rect codeLine="81" fill="#F1F1F1" height="63.2422" id="ContractType" rx="2.5" ry="2.5" style="stroke:#181818;stroke-width:0.5;" width="124" x="1855" y="89.5137"/><ellipse cx="1870" cy="113.1348" fill="#ADD1B2" rx="11" ry="11" style="stroke:#181818;stroke-width:1.0;"/><path d="M1872.7656,109.0098 Q1872.9219,108.791 1873.1094,108.6816 Q1873.2969,108.5723 1873.5156,108.5723 Q1873.8906,108.5723 1874.125,108.8379 Q1874.3594,109.0879 1874.3594,109.6973 L1874.3594,111.1504 Q1874.3594,111.7598 1874.125,112.0254 Q1873.8906,112.291 1873.5156,112.291 Q1873.1719,112.291 1872.9688,112.0879 Q1872.7656,111.9004 1872.6563,111.3848 Q1872.6094,111.0254 1872.4219,110.8379 Q1872.0938,110.4629 1871.4844,110.2441 Q1870.875,110.0254 1870.25,110.0254 Q1869.4844,110.0254 1868.8438,110.3535 Q1868.2188,110.6816 1867.7188,111.4316 Q1867.2344,112.1816 1867.2344,113.2129 L1867.2344,114.3066 Q1867.2344,115.541 1868.125,116.3691 Q1869.0156,117.1816 1870.6094,117.1816 Q1871.5469,117.1816 1872.2031,116.9316 Q1872.5938,116.7754 1873.0156,116.3379 Q1873.2813,116.0723 1873.4219,115.9941 Q1873.5781,115.916 1873.7813,115.916 Q1874.1094,115.916 1874.3594,116.1816 Q1874.625,116.4316 1874.625,116.7754 Q1874.625,117.1191 1874.2813,117.5254 Q1873.7813,118.1035 1872.9844,118.4316 Q1871.9063,118.8848 1870.6094,118.8848 Q1869.0938,118.8848 1867.8906,118.2598 Q1866.9063,117.7598 1866.2188,116.6973 Q1865.5313,115.6191 1865.5313,114.3379 L1865.5313,113.1816 Q1865.5313,111.8535 1866.1406,110.7129 Q1866.7656,109.5566 1867.8594,108.9473 Q1868.9531,108.3223 1870.1875,108.3223 Q1870.9219,108.3223 1871.5625,108.4941 Q1872.2188,108.6504 1872.7656,109.0098 Z " fill="#000000"/><text fill="#000000" font-family="sans-serif" font-size="14" lengthAdjust="spacing" textLength="92" x="1884" y="109.6211">&#171;value object&#187;</text><text fill="#000000" font-family="sans-serif" font-size="14" lengthAdjust="spacing" textLength="86" x="1887" y="128.2422">ContractType</text><line style="stroke:#181818;stroke-width:0.5;" x1="1856" x2="1978" y1="136.7559" y2="136.7559"/><line style="stroke:#181818;stroke-width:0.5;" x1="1856" x2="1978" y1="144.7559" y2="144.7559"/></g><!--class Mode--><g id="elem_Mode"><rect codeLine="84" fill="#F1F1F1" height="63.2422" id="Mode" rx="2.5" ry="2.5" style="stroke:#181818;stroke-width:0.5;" width="124" x="1696" y="89.5137"/><ellipse cx="1711" cy="113.1348" fill="#ADD1B2" rx="11" ry="11" style="stroke:#181818;stroke-width:1.0;"/><path d="M1713.7656,109.0098 Q1713.9219,108.791 1714.1094,108.6816 Q1714.2969,108.5723 1714.5156,108.5723 Q1714.8906,108.5723 1715.125,108.8379 Q1715.3594,109.0879 1715.3594,109.6973 L1715.3594,111.1504 Q1715.3594,111.7598 1715.125,112.0254 Q1714.8906,112.291 1714.5156,112.291 Q1714.1719,112.291 1713.9688,112.0879 Q1713.7656,111.9004 1713.6563,111.3848 Q1713.6094,111.0254 1713.4219,110.8379 Q1713.0938,110.4629 1712.4844,110.2441 Q1711.875,110.0254 1711.25,110.0254 Q1710.4844,110.0254 1709.8438,110.3535 Q1709.2188,110.6816 1708.7188,111.4316 Q1708.2344,112.1816 1708.2344,113.2129 L1708.2344,114.3066 Q1708.2344,115.541 1709.125,116.3691 Q1710.0156,117.1816 1711.6094,117.1816 Q1712.5469,117.1816 1713.2031,116.9316 Q1713.5938,116.7754 1714.0156,116.3379 Q1714.2813,116.0723 1714.4219,115.9941 Q1714.5781,115.916 1714.7813,115.916 Q1715.1094,115.916 1715.3594,116.1816 Q1715.625,116.4316 1715.625,116.7754 Q1715.625,117.1191 1715.2813,117.5254 Q1714.7813,118.1035 1713.9844,118.4316 Q1712.9063,118.8848 1711.6094,118.8848 Q1710.0938,118.8848 1708.8906,118.2598 Q1707.9063,117.7598 1707.2188,116.6973 Q1706.5313,115.6191 1706.5313,114.3379 L1706.5313,113.1816 Q1706.5313,111.8535 1707.1406,110.7129 Q1707.7656,109.5566 1708.8594,108.9473 Q1709.9531,108.3223 1711.1875,108.3223 Q1711.9219,108.3223 1712.5625,108.4941 Q1713.2188,108.6504 1713.7656,109.0098 Z " fill="#000000"/><text fill="#000000" font-family="sans-serif" font-size="14" lengthAdjust="spacing" textLength="92" x="1725" y="109.6211">&#171;value object&#187;</text><text fill="#000000" font-family="sans-serif" font-size="14" lengthAdjust="spacing" textLength="35" x="1753.5" y="128.2422">Mode</text><line style="stroke:#181818;stroke-width:0.5;" x1="1697" x2="1819" y1="136.7559" y2="136.7559"/><line style="stroke:#181818;stroke-width:0.5;" x1="1697" x2="1819" y1="144.7559" y2="144.7559"/></g><!--class JobFunction--><g id="elem_JobFunction"><rect codeLine="88" fill="#F1F1F1" height="63.2422" id="JobFunction" rx="2.5" ry="2.5" style="stroke:#181818;stroke-width:0.5;" width="124" x="1537" y="89.5137"/><ellipse cx="1552" cy="113.1348" fill="#ADD1B2" rx="11" ry="11" style="stroke:#181818;stroke-width:1.0;"/><path d="M1554.7656,109.0098 Q1554.9219,108.791 1555.1094,108.6816 Q1555.2969,108.5723 1555.5156,108.5723 Q1555.8906,108.5723 1556.125,108.8379 Q1556.3594,109.0879 1556.3594,109.6973 L1556.3594,111.1504 Q1556.3594,111.7598 1556.125,112.0254 Q1555.8906,112.291 1555.5156,112.291 Q1555.1719,112.291 1554.9688,112.0879 Q1554.7656,111.9004 1554.6563,111.3848 Q1554.6094,111.0254 1554.4219,110.8379 Q1554.0938,110.4629 1553.4844,110.2441 Q1552.875,110.0254 1552.25,110.0254 Q1551.4844,110.0254 1550.8438,110.3535 Q1550.2188,110.6816 1549.7188,111.4316 Q1549.2344,112.1816 1549.2344,113.2129 L1549.2344,114.3066 Q1549.2344,115.541 1550.125,116.3691 Q1551.0156,117.1816 1552.6094,117.1816 Q1553.5469,117.1816 1554.2031,116.9316 Q1554.5938,116.7754 1555.0156,116.3379 Q1555.2813,116.0723 1555.4219,115.9941 Q1555.5781,115.916 1555.7813,115.916 Q1556.1094,115.916 1556.3594,116.1816 Q1556.625,116.4316 1556.625,116.7754 Q1556.625,117.1191 1556.2813,117.5254 Q1555.7813,118.1035 1554.9844,118.4316 Q1553.9063,118.8848 1552.6094,118.8848 Q1551.0938,118.8848 1549.8906,118.2598 Q1548.9063,117.7598 1548.2188,116.6973 Q1547.5313,115.6191 1547.5313,114.3379 L1547.5313,113.1816 Q1547.5313,111.8535 1548.1406,110.7129 Q1548.7656,109.5566 1549.8594,108.9473 Q1550.9531,108.3223 1552.1875,108.3223 Q1552.9219,108.3223 1553.5625,108.4941 Q1554.2188,108.6504 1554.7656,109.0098 Z " fill="#000000"/><text fill="#000000" font-family="sans-serif" font-size="14" lengthAdjust="spacing" textLength="92" x="1566" y="109.6211">&#171;value object&#187;</text><text fill="#000000" font-family="sans-serif" font-size="14" lengthAdjust="spacing" textLength="77" x="1573.5" y="128.2422">JobFunction</text><line style="stroke:#181818;stroke-width:0.5;" x1="1538" x2="1660" y1="136.7559" y2="136.7559"/><line style="stroke:#181818;stroke-width:0.5;" x1="1538" x2="1660" y1="144.7559" y2="144.7559"/></g><!--class NumberOfVacancies--><g id="elem_NumberOfVacancies"><rect codeLine="92" fill="#F1F1F1" height="63.2422" id="NumberOfVacancies" rx="2.5" ry="2.5" style="stroke:#181818;stroke-width:0.5;" width="165" x="1336.5" y="89.5137"/><ellipse cx="1351.5" cy="113.1348" fill="#ADD1B2" rx="11" ry="11" style="stroke:#181818;stroke-width:1.0;"/><path d="M1354.2656,109.0098 Q1354.4219,108.791 1354.6094,108.6816 Q1354.7969,108.5723 1355.0156,108.5723 Q1355.3906,108.5723 1355.625,108.8379 Q1355.8594,109.0879 1355.8594,109.6973 L1355.8594,111.1504 Q1355.8594,111.7598 1355.625,112.0254 Q1355.3906,112.291 1355.0156,112.291 Q1354.6719,112.291 1354.4688,112.0879 Q1354.2656,111.9004 1354.1563,111.3848 Q1354.1094,111.0254 1353.9219,110.8379 Q1353.5938,110.4629 1352.9844,110.2441 Q1352.375,110.0254 1351.75,110.0254 Q1350.9844,110.0254 1350.3438,110.3535 Q1349.7188,110.6816 1349.2188,111.4316 Q1348.7344,112.1816 1348.7344,113.2129 L1348.7344,114.3066 Q1348.7344,115.541 1349.625,116.3691 Q1350.5156,117.1816 1352.1094,117.1816 Q1353.0469,117.1816 1353.7031,116.9316 Q1354.0938,116.7754 1354.5156,116.3379 Q1354.7813,116.0723 1354.9219,115.9941 Q1355.0781,115.916 1355.2813,115.916 Q1355.6094,115.916 1355.8594,116.1816 Q1356.125,116.4316 1356.125,116.7754 Q1356.125,117.1191 1355.7813,117.5254 Q1355.2813,118.1035 1354.4844,118.4316 Q1353.4063,118.8848 1352.1094,118.8848 Q1350.5938,118.8848 1349.3906,118.2598 Q1348.4063,117.7598 1347.7188,116.6973 Q1347.0313,115.6191 1347.0313,114.3379 L1347.0313,113.1816 Q1347.0313,111.8535 1347.6406,110.7129 Q1348.2656,109.5566 1349.3594,108.9473 Q1350.4531,108.3223 1351.6875,108.3223 Q1352.4219,108.3223 1353.0625,108.4941 Q1353.7188,108.6504 1354.2656,109.0098 Z " fill="#000000"/><text fill="#000000" font-family="sans-serif" font-size="14" lengthAdjust="spacing" textLength="92" x="1386" y="109.6211">&#171;value object&#187;</text><text fill="#000000" font-family="sans-serif" font-size="14" lengthAdjust="spacing" textLength="129" x="1369.5" y="128.2422">NumberOfVacancies</text><line style="stroke:#181818;stroke-width:0.5;" x1="1337.5" x2="1500.5" y1="136.7559" y2="136.7559"/><line style="stroke:#181818;stroke-width:0.5;" x1="1337.5" x2="1500.5" y1="144.7559" y2="144.7559"/></g><!--class Description--><g id="elem_Description"><rect codeLine="96" fill="#F1F1F1" height="63.2422" id="Description" rx="2.5" ry="2.5" style="stroke:#181818;stroke-width:0.5;" width="124" x="1177" y="89.5137"/><ellipse cx="1192" cy="113.1348" fill="#ADD1B2" rx="11" ry="11" style="stroke:#181818;stroke-width:1.0;"/><path d="M1194.7656,109.0098 Q1194.9219,108.791 1195.1094,108.6816 Q1195.2969,108.5723 1195.5156,108.5723 Q1195.8906,108.5723 1196.125,108.8379 Q1196.3594,109.0879 1196.3594,109.6973 L1196.3594,111.1504 Q1196.3594,111.7598 1196.125,112.0254 Q1195.8906,112.291 1195.5156,112.291 Q1195.1719,112.291 1194.9688,112.0879 Q1194.7656,111.9004 1194.6563,111.3848 Q1194.6094,111.0254 1194.4219,110.8379 Q1194.0938,110.4629 1193.4844,110.2441 Q1192.875,110.0254 1192.25,110.0254 Q1191.4844,110.0254 1190.8438,110.3535 Q1190.2188,110.6816 1189.7188,111.4316 Q1189.2344,112.1816 1189.2344,113.2129 L1189.2344,114.3066 Q1189.2344,115.541 1190.125,116.3691 Q1191.0156,117.1816 1192.6094,117.1816 Q1193.5469,117.1816 1194.2031,116.9316 Q1194.5938,116.7754 1195.0156,116.3379 Q1195.2813,116.0723 1195.4219,115.9941 Q1195.5781,115.916 1195.7813,115.916 Q1196.1094,115.916 1196.3594,116.1816 Q1196.625,116.4316 1196.625,116.7754 Q1196.625,117.1191 1196.2813,117.5254 Q1195.7813,118.1035 1194.9844,118.4316 Q1193.9063,118.8848 1192.6094,118.8848 Q1191.0938,118.8848 1189.8906,118.2598 Q1188.9063,117.7598 1188.2188,116.6973 Q1187.5313,115.6191 1187.5313,114.3379 L1187.5313,113.1816 Q1187.5313,111.8535 1188.1406,110.7129 Q1188.7656,109.5566 1189.8594,108.9473 Q1190.9531,108.3223 1192.1875,108.3223 Q1192.9219,108.3223 1193.5625,108.4941 Q1194.2188,108.6504 1194.7656,109.0098 Z " fill="#000000"/><text fill="#000000" font-family="sans-serif" font-size="14" lengthAdjust="spacing" textLength="92" x="1206" y="109.6211">&#171;value object&#187;</text><text fill="#000000" font-family="sans-serif" font-size="14" lengthAdjust="spacing" textLength="71" x="1216.5" y="128.2422">Description</text><line style="stroke:#181818;stroke-width:0.5;" x1="1178" x2="1300" y1="136.7559" y2="136.7559"/><line style="stroke:#181818;stroke-width:0.5;" x1="1178" x2="1300" y1="144.7559" y2="144.7559"/></g><!--class Address1--><g id="elem_Address1"><rect codeLine="101" fill="#F1F1F1" height="156.3477" id="Address1" rx="2.5" ry="2.5" style="stroke:#181818;stroke-width:0.5;" width="124" x="1018" y="43.0137"/><ellipse cx="1033" cy="66.6348" fill="#ADD1B2" rx="11" ry="11" style="stroke:#181818;stroke-width:1.0;"/><path d="M1035.7656,62.5098 Q1035.9219,62.291 1036.1094,62.1816 Q1036.2969,62.0723 1036.5156,62.0723 Q1036.8906,62.0723 1037.125,62.3379 Q1037.3594,62.5879 1037.3594,63.1973 L1037.3594,64.6504 Q1037.3594,65.2598 1037.125,65.5254 Q1036.8906,65.791 1036.5156,65.791 Q1036.1719,65.791 1035.9688,65.5879 Q1035.7656,65.4004 1035.6563,64.8848 Q1035.6094,64.5254 1035.4219,64.3379 Q1035.0938,63.9629 1034.4844,63.7441 Q1033.875,63.5254 1033.25,63.5254 Q1032.4844,63.5254 1031.8438,63.8535 Q1031.2188,64.1816 1030.7188,64.9316 Q1030.2344,65.6816 1030.2344,66.7129 L1030.2344,67.8066 Q1030.2344,69.041 1031.125,69.8691 Q1032.0156,70.6816 1033.6094,70.6816 Q1034.5469,70.6816 1035.2031,70.4316 Q1035.5938,70.2754 1036.0156,69.8379 Q1036.2813,69.5723 1036.4219,69.4941 Q1036.5781,69.416 1036.7813,69.416 Q1037.1094,69.416 1037.3594,69.6816 Q1037.625,69.9316 1037.625,70.2754 Q1037.625,70.6191 1037.2813,71.0254 Q1036.7813,71.6035 1035.9844,71.9316 Q1034.9063,72.3848 1033.6094,72.3848 Q1032.0938,72.3848 1030.8906,71.7598 Q1029.9063,71.2598 1029.2188,70.1973 Q1028.5313,69.1191 1028.5313,67.8379 L1028.5313,66.6816 Q1028.5313,65.3535 1029.1406,64.2129 Q1029.7656,63.0566 1030.8594,62.4473 Q1031.9531,61.8223 1033.1875,61.8223 Q1033.9219,61.8223 1034.5625,61.9941 Q1035.2188,62.1504 1035.7656,62.5098 Z " fill="#000000"/><text fill="#000000" font-family="sans-serif" font-size="14" lengthAdjust="spacing" textLength="92" x="1047" y="63.1211">&#171;value object&#187;</text><text fill="#000000" font-family="sans-serif" font-size="14" lengthAdjust="spacing" textLength="52" x="1067" y="81.7422">Address</text><line style="stroke:#181818;stroke-width:0.5;" x1="1019" x2="1141" y1="90.2559" y2="90.2559"/><text fill="#000000" font-family="sans-serif" font-size="14" lengthAdjust="spacing" textLength="38" x="1024" y="109.3633">Street</text><text fill="#000000" font-family="sans-serif" font-size="14" lengthAdjust="spacing" textLength="24" x="1024" y="127.9844">City</text><text fill="#000000" font-family="sans-serif" font-size="14" lengthAdjust="spacing" textLength="33" x="1024" y="146.6055">State</text><text fill="#000000" font-family="sans-serif" font-size="14" lengthAdjust="spacing" textLength="50" x="1024" y="165.2266">Country</text><text fill="#000000" font-family="sans-serif" font-size="14" lengthAdjust="spacing" textLength="50" x="1024" y="183.8477">Zipcode</text><line style="stroke:#181818;stroke-width:0.5;" x1="1019" x2="1141" y1="191.3613" y2="191.3613"/></g><!--class JobReference--><g id="elem_JobReference"><rect codeLine="109" fill="#F1F1F1" height="81.8633" id="JobReference" rx="2.5" ry="2.5" style="stroke:#181818;stroke-width:0.5;" width="124" x="1760" y="462.0137"/><ellipse cx="1775" cy="494.9453" fill="#ADD1B2" rx="11" ry="11" style="stroke:#181818;stroke-width:1.0;"/><path d="M1777.7656,490.8203 Q1777.9219,490.6016 1778.1094,490.4922 Q1778.2969,490.3828 1778.5156,490.3828 Q1778.8906,490.3828 1779.125,490.6484 Q1779.3594,490.8984 1779.3594,491.5078 L1779.3594,492.9609 Q1779.3594,493.5703 1779.125,493.8359 Q1778.8906,494.1016 1778.5156,494.1016 Q1778.1719,494.1016 1777.9688,493.8984 Q1777.7656,493.7109 1777.6563,493.1953 Q1777.6094,492.8359 1777.4219,492.6484 Q1777.0938,492.2734 1776.4844,492.0547 Q1775.875,491.8359 1775.25,491.8359 Q1774.4844,491.8359 1773.8438,492.1641 Q1773.2188,492.4922 1772.7188,493.2422 Q1772.2344,493.9922 1772.2344,495.0234 L1772.2344,496.1172 Q1772.2344,497.3516 1773.125,498.1797 Q1774.0156,498.9922 1775.6094,498.9922 Q1776.5469,498.9922 1777.2031,498.7422 Q1777.5938,498.5859 1778.0156,498.1484 Q1778.2813,497.8828 1778.4219,497.8047 Q1778.5781,497.7266 1778.7813,497.7266 Q1779.1094,497.7266 1779.3594,497.9922 Q1779.625,498.2422 1779.625,498.5859 Q1779.625,498.9297 1779.2813,499.3359 Q1778.7813,499.9141 1777.9844,500.2422 Q1776.9063,500.6953 1775.6094,500.6953 Q1774.0938,500.6953 1772.8906,500.0703 Q1771.9063,499.5703 1771.2188,498.5078 Q1770.5313,497.4297 1770.5313,496.1484 L1770.5313,494.9922 Q1770.5313,493.6641 1771.1406,492.5234 Q1771.7656,491.3672 1772.8594,490.7578 Q1773.9531,490.1328 1775.1875,490.1328 Q1775.9219,490.1328 1776.5625,490.3047 Q1777.2188,490.4609 1777.7656,490.8203 Z " fill="#000000"/><text fill="#000000" font-family="sans-serif" font-size="14" lengthAdjust="spacing" textLength="92" x="1789" y="482.1211">&#171;value object&#187;</text><text fill="#000000" font-family="sans-serif" font-size="14" lengthAdjust="spacing" textLength="70" x="1800" y="500.7422">&#171;identifier&#187;</text><text fill="#000000" font-family="sans-serif" font-size="14" lengthAdjust="spacing" textLength="88" x="1791" y="519.3633">JobReference</text><line style="stroke:#181818;stroke-width:0.5;" x1="1761" x2="1883" y1="527.877" y2="527.877"/><line style="stroke:#181818;stroke-width:0.5;" x1="1761" x2="1883" y1="535.877" y2="535.877"/></g><!--class InterviewPhase--><g id="elem_InterviewPhase"><rect codeLine="112" fill="#F1F1F1" height="63.2422" id="InterviewPhase" rx="2.5" ry="2.5" style="stroke:#181818;stroke-width:0.5;" width="127" x="1018.5" y="471.5137"/><ellipse cx="1033.5" cy="495.1348" fill="#ADD1B2" rx="11" ry="11" style="stroke:#181818;stroke-width:1.0;"/><path d="M1036.2656,491.0098 Q1036.4219,490.791 1036.6094,490.6816 Q1036.7969,490.5723 1037.0156,490.5723 Q1037.3906,490.5723 1037.625,490.8379 Q1037.8594,491.0879 1037.8594,491.6973 L1037.8594,493.1504 Q1037.8594,493.7598 1037.625,494.0254 Q1037.3906,494.291 1037.0156,494.291 Q1036.6719,494.291 1036.4688,494.0879 Q1036.2656,493.9004 1036.1563,493.3848 Q1036.1094,493.0254 1035.9219,492.8379 Q1035.5938,492.4629 1034.9844,492.2441 Q1034.375,492.0254 1033.75,492.0254 Q1032.9844,492.0254 1032.3438,492.3535 Q1031.7188,492.6816 1031.2188,493.4316 Q1030.7344,494.1816 1030.7344,495.2129 L1030.7344,496.3066 Q1030.7344,497.541 1031.625,498.3691 Q1032.5156,499.1816 1034.1094,499.1816 Q1035.0469,499.1816 1035.7031,498.9316 Q1036.0938,498.7754 1036.5156,498.3379 Q1036.7813,498.0723 1036.9219,497.9941 Q1037.0781,497.916 1037.2813,497.916 Q1037.6094,497.916 1037.8594,498.1816 Q1038.125,498.4316 1038.125,498.7754 Q1038.125,499.1191 1037.7813,499.5254 Q1037.2813,500.1035 1036.4844,500.4316 Q1035.4063,500.8848 1034.1094,500.8848 Q1032.5938,500.8848 1031.3906,500.2598 Q1030.4063,499.7598 1029.7188,498.6973 Q1029.0313,497.6191 1029.0313,496.3379 L1029.0313,495.1816 Q1029.0313,493.8535 1029.6406,492.7129 Q1030.2656,491.5566 1031.3594,490.9473 Q1032.4531,490.3223 1033.6875,490.3223 Q1034.4219,490.3223 1035.0625,490.4941 Q1035.7188,490.6504 1036.2656,491.0098 Z " fill="#000000"/><text fill="#000000" font-family="sans-serif" font-size="14" lengthAdjust="spacing" textLength="50" x="1070" y="491.6211">&#171;entity&#187;</text><text fill="#000000" font-family="sans-serif" font-size="14" lengthAdjust="spacing" textLength="95" x="1047.5" y="510.2422">InterviewPhase</text><line style="stroke:#181818;stroke-width:0.5;" x1="1019.5" x2="1144.5" y1="518.7559" y2="518.7559"/><line style="stroke:#181818;stroke-width:0.5;" x1="1019.5" x2="1144.5" y1="526.7559" y2="526.7559"/></g><!--link ApplicationFile to Type--><g id="link_ApplicationFile_Type"><path codeLine="122" d="M900,927.6537 C900,947.7537 900,964.3937 900,982.1137 " fill="none" id="ApplicationFile-to-Type" style="stroke:#181818;stroke-width:1.0;"/><polygon fill="#181818" points="900,988.1137,904,979.1137,900,983.1137,896,979.1137,900,988.1137" style="stroke:#181818;stroke-width:1.0;"/><text fill="#000000" font-family="sans-serif" font-size="13" lengthAdjust="spacing" textLength="7" x="892.5078" y="949.9146">1</text><text fill="#000000" font-family="sans-serif" font-size="13" lengthAdjust="spacing" textLength="7" x="892.3109" y="977.193">1</text></g><!--link JobApplication to ApplicationFile--><g id="link_JobApplication_ApplicationFile"><path codeLine="123" d="M775.11,728.4537 C799.56,757.4437 828.7717,792.0671 854.7317,822.8471 " fill="none" id="JobApplication-to-ApplicationFile" style="stroke:#181818;stroke-width:1.0;"/><polygon fill="#181818" points="858.6,827.4337,855.8552,817.975,855.3764,823.6116,849.7399,823.1327,858.6,827.4337" style="stroke:#181818;stroke-width:1.0;"/><text fill="#000000" font-family="sans-serif" font-size="13" lengthAdjust="spacing" textLength="7" x="772.6058" y="749.8483">1</text><text fill="#000000" font-family="sans-serif" font-size="13" lengthAdjust="spacing" textLength="20" x="831.3719" y="816.2106">1..*</text></g><!--link JobOpening to JogOpeningState--><g id="link_JobOpening_JogOpeningState"><path codeLine="124" d="M1473.04,352.3037 C1501.57,370.1837 1536.65,393.4937 1566,417.0137 C1586.88,433.7537 1604.3217,450.3269 1620.9117,467.1869 " fill="none" id="JobOpening-to-JogOpeningState" style="stroke:#181818;stroke-width:1.0;"/><polygon fill="#181818" points="1625.12,471.4637,1621.6588,462.243,1621.6131,467.8997,1615.9564,467.8541,1625.12,471.4637" style="stroke:#181818;stroke-width:1.0;"/><text fill="#000000" font-family="sans-serif" font-size="13" lengthAdjust="spacing" textLength="48" x="1555" y="405.042">includes</text><text fill="#000000" font-family="sans-serif" font-size="13" lengthAdjust="spacing" textLength="7" x="1481.1316" y="352.8482">1</text><text fill="#000000" font-family="sans-serif" font-size="13" lengthAdjust="spacing" textLength="7" x="1611.4416" y="460.2367">1</text></g><!--link Candidate to EMail2--><g id="link_Candidate_EMail2"><path codeLine="126" d="M250,544.4037 C248.51,574.5637 246.7764,609.611 245.2864,639.741 " fill="none" id="Candidate-to-EMail2" style="stroke:#181818;stroke-width:1.0;"/><polygon fill="#181818" points="244.99,645.7337,249.4296,636.9422,245.237,640.7398,241.4394,636.5471,244.99,645.7337" style="stroke:#181818;stroke-width:1.0;"/><text fill="#000000" font-family="sans-serif" font-size="13" lengthAdjust="spacing" textLength="69" x="250" y="589.042">identified by</text><text fill="#000000" font-family="sans-serif" font-size="13" lengthAdjust="spacing" textLength="7" x="242.1922" y="565.791">1</text><text fill="#000000" font-family="sans-serif" font-size="13" lengthAdjust="spacing" textLength="7" x="237.7493" y="634.8624">1</text></g><!--reverse link PhoneNumber to Candidate--><g id="link_PhoneNumber_Candidate"><path codeLine="127" d="M152.08,503.0137 C170.96,503.0137 185.43,503.0137 203.3,503.0137 " fill="none" id="PhoneNumber-backto-Candidate" style="stroke:#181818;stroke-width:1.0;"/><polygon fill="#181818" points="146.08,503.0137,155.08,507.0137,151.08,503.0137,155.08,499.0137,146.08,503.0137" style="stroke:#181818;stroke-width:1.0;"/><text fill="#000000" font-family="sans-serif" font-size="13" lengthAdjust="spacing" textLength="21" x="164.25" y="496.042">has</text><text fill="#000000" font-family="sans-serif" font-size="13" lengthAdjust="spacing" textLength="7" x="154.0726" y="499.009">1</text><text fill="#000000" font-family="sans-serif" font-size="13" lengthAdjust="spacing" textLength="7" x="188.6331" y="498.825">1</text></g><!--reverse link Candidate to JobApplication--><g id="link_Candidate_JobApplication"><path codeLine="128" d="M306.2932,524.2263 C395.8032,557.5363 580.72,626.3637 679.2,663.0137 " fill="none" id="Candidate-backto-JobApplication" style="stroke:#181818;stroke-width:1.0;"/><polygon fill="#181818" points="300.67,522.1337,307.7098,529.0214,305.356,523.8775,310.5,521.5238,300.67,522.1337" style="stroke:#181818;stroke-width:1.0;"/><text fill="#000000" font-family="sans-serif" font-size="13" lengthAdjust="spacing" textLength="47" x="482" y="589.042">refers to</text><text fill="#000000" font-family="sans-serif" font-size="13" lengthAdjust="spacing" textLength="7" x="308.6585" y="520.8209">1</text><text fill="#000000" font-family="sans-serif" font-size="13" lengthAdjust="spacing" textLength="7" x="664.6497" y="656.3089">1</text></g><!--reverse link JobOpening to JobApplication--><g id="link_JobOpening_JobApplication"><path codeLine="129" d="M1358.6212,320.724 C1225.5512,323.394 895.13,337.8937 823,417.0137 C763.96,481.7837 747.4,587.9737 742.77,645.6537 " fill="none" id="JobOpening-backto-JobApplication" style="stroke:#181818;stroke-width:1.0;"/><polygon fill="#181818" points="1364.62,320.6037,1355.5416,316.785,1359.621,320.704,1355.7021,324.7834,1364.62,320.6037" style="stroke:#181818;stroke-width:1.0;"/><text fill="#000000" font-family="sans-serif" font-size="13" lengthAdjust="spacing" textLength="47" x="824" y="508.542">refers to</text><text fill="#000000" font-family="sans-serif" font-size="13" lengthAdjust="spacing" textLength="7" x="1349.8424" y="316.7322">1</text><text fill="#000000" font-family="sans-serif" font-size="13" lengthAdjust="spacing" textLength="5" x="737.6537" y="634.7696">*</text></g><!--reverse link JobOpening to JobApplication--><g id="link_JobOpening_JobApplication"><path codeLine="144" d="M1358.9987,326.434 C1250.7887,338.784 1018.13,369.9837 952,417.0137 C898.39,455.1337 915.79,491.6337 876,544.0137 C848.01,580.8537 811.66,618.6237 783.73,645.9437 " fill="none" id="JobOpening-backto-JobApplication-1" style="stroke:#181818;stroke-width:1.0;"/><polygon fill="#181818" points="1364.96,325.7537,1355.5645,322.8,1359.9922,326.3206,1356.4716,330.7484,1364.96,325.7537" style="stroke:#181818;stroke-width:1.0;"/><text fill="#000000" font-family="sans-serif" font-size="13" lengthAdjust="spacing" textLength="47" x="953" y="508.542">refers to</text><text fill="#000000" font-family="sans-serif" font-size="13" lengthAdjust="spacing" textLength="7" x="1349.8684" y="341.9552">1</text><text fill="#000000" font-family="sans-serif" font-size="13" lengthAdjust="spacing" textLength="5" x="785.3931" y="634.7974">*</text></g><!--reverse link RecruitmentProcess to Phase--><g id="link_RecruitmentProcess_Phase"><path codeLine="130" d="M1351.2086,529.1957 C1373.0286,535.1357 1385.11,538.3337 1407,544.0137 C1604.48,595.3037 1841.3,652.5437 1937.35,675.5837 " fill="none" id="RecruitmentProcess-backto-Phase" style="stroke:#181818;stroke-width:1.0;"/><polygon fill="#181818" points="1339.63,526.0437,1344.3686,531.4792,1351.2086,529.1957,1346.47,523.7601,1339.63,526.0437" style="stroke:#181818;stroke-width:1.0;"/><text fill="#000000" font-family="sans-serif" font-size="13" lengthAdjust="spacing" textLength="36" x="1597" y="589.042">part of</text><text fill="#000000" font-family="sans-serif" font-size="13" lengthAdjust="spacing" textLength="7" x="1347.5533" y="524.4773">1</text><text fill="#000000" font-family="sans-serif" font-size="13" lengthAdjust="spacing" textLength="22" x="1907.6648" y="669.8224">4..5</text></g><!--link RecruitmentProcess to PhaseNames--><g id="link_RecruitmentProcess_PhaseNames"><path codeLine="131" d="M1339.68,503.0137 C1367.26,503.0137 1391.74,503.0137 1417.72,503.0137 " fill="none" id="RecruitmentProcess-to-PhaseNames" style="stroke:#181818;stroke-width:1.0;"/><polygon fill="#181818" points="1423.72,503.0137,1414.72,499.0137,1418.72,503.0137,1414.72,507.0137,1423.72,503.0137" style="stroke:#181818;stroke-width:1.0;"/><text fill="#000000" font-family="sans-serif" font-size="13" lengthAdjust="spacing" textLength="48" x="1357.75" y="496.042">includes</text><text fill="#000000" font-family="sans-serif" font-size="13" lengthAdjust="spacing" textLength="7" x="1347.6081" y="499.2522">1</text><text fill="#000000" font-family="sans-serif" font-size="13" lengthAdjust="spacing" textLength="7" x="1409.1142" y="499.062">1</text></g><!--link JobOpening to RecruitmentProcess--><g id="link_JobOpening_RecruitmentProcess"><path codeLine="132" d="M1383.71,360.4037 C1357.36,390.5637 1325.4573,427.085 1299.1373,457.215 " fill="none" id="JobOpening-to-RecruitmentProcess" style="stroke:#181818;stroke-width:1.0;"/><polygon fill="#181818" points="1295.19,461.7337,1304.1234,457.5871,1298.4794,457.9681,1298.0985,452.3241,1295.19,461.7337" style="stroke:#181818;stroke-width:1.0;"/><text fill="#000000" font-family="sans-serif" font-size="13" lengthAdjust="spacing" textLength="48" x="1354" y="405.042">includes</text><text fill="#000000" font-family="sans-serif" font-size="13" lengthAdjust="spacing" textLength="7" x="1371.0127" y="381.791">1</text><text fill="#000000" font-family="sans-serif" font-size="13" lengthAdjust="spacing" textLength="7" x="1293.2406" y="450.8624">1</text></g><!--link JobApplication to Grade--><g id="link_JobApplication_Grade"><path codeLine="134" d="M741,728.4537 C741,760.3637 741,798.6537 741,830.4637 " fill="none" id="JobApplication-to-Grade" style="stroke:#181818;stroke-width:1.0;"/><polygon fill="#181818" points="741,836.4637,745,827.4637,741,831.4637,737,827.4637,741,836.4637" style="stroke:#181818;stroke-width:1.0;"/><text fill="#000000" font-family="sans-serif" font-size="13" lengthAdjust="spacing" textLength="48" x="742" y="793.542">includes</text><text fill="#000000" font-family="sans-serif" font-size="13" lengthAdjust="spacing" textLength="22" x="717.1781" y="825.3207">0..1</text></g><!--reverse link Mode to JobOpening--><g id="link_Mode_JobOpening"><path codeLine="136" d="M1727.0921,157.0975 C1712.6921,172.3575 1698.11,185.9137 1679,199.0137 C1613.28,244.0637 1527.77,279.4037 1473.12,299.4937 " fill="none" id="Mode-backto-JobOpening" style="stroke:#181818;stroke-width:1.0;"/><polygon fill="#181818" points="1731.21,152.7337,1722.1239,156.5341,1727.7784,156.3702,1727.9424,162.0247,1731.21,152.7337" style="stroke:#181818;stroke-width:1.0;"/><text fill="#000000" font-family="sans-serif" font-size="13" lengthAdjust="spacing" textLength="48" x="1626" y="244.042">includes</text><text fill="#000000" font-family="sans-serif" font-size="13" lengthAdjust="spacing" textLength="7" x="1718.2467" y="174.6851">1</text><text fill="#000000" font-family="sans-serif" font-size="13" lengthAdjust="spacing" textLength="7" x="1480.8627" y="292.7855">1</text></g><!--reverse link JobFunction to JobOpening--><g id="link_JobFunction_JobOpening"><path codeLine="137" d="M1566.8215,157.0528 C1535.8715,190.7528 1490.06,240.6437 1455.97,277.7537 " fill="none" id="JobFunction-backto-JobOpening" style="stroke:#181818;stroke-width:1.0;"/><polygon fill="#181818" points="1570.88,152.6337,1561.8462,156.5567,1567.4979,156.3163,1567.7383,161.968,1570.88,152.6337" style="stroke:#181818;stroke-width:1.0;"/><text fill="#000000" font-family="sans-serif" font-size="13" lengthAdjust="spacing" textLength="48" x="1499" y="244.042">includes</text><text fill="#000000" font-family="sans-serif" font-size="13" lengthAdjust="spacing" textLength="7" x="1557.3584" y="174.9418">1</text><text fill="#000000" font-family="sans-serif" font-size="13" lengthAdjust="spacing" textLength="7" x="1454.3043" y="266.8856">1</text></g><!--reverse link NumberOfVacancies to JobOpening--><g id="link_NumberOfVacancies_JobOpening"><path codeLine="138" d="M1419,158.6337 C1419,192.3337 1419,240.6437 1419,277.7537 " fill="none" id="NumberOfVacancies-backto-JobOpening" style="stroke:#181818;stroke-width:1.0;"/><polygon fill="#181818" points="1419,152.6337,1415,161.6337,1419,157.6337,1423,161.6337,1419,152.6337" style="stroke:#181818;stroke-width:1.0;"/><text fill="#000000" font-family="sans-serif" font-size="13" lengthAdjust="spacing" textLength="48" x="1420" y="244.042">includes</text><text fill="#000000" font-family="sans-serif" font-size="13" lengthAdjust="spacing" textLength="7" x="1411.2781" y="174.9418">1</text><text fill="#000000" font-family="sans-serif" font-size="13" lengthAdjust="spacing" textLength="7" x="1411.4422" y="266.8856">1</text></g><!--reverse link Description to JobOpening--><g id="link_Description_JobOpening"><path codeLine="139" d="M1271.1785,157.0528 C1302.1285,190.7528 1347.94,240.6437 1382.03,277.7537 " fill="none" id="Description-backto-JobOpening" style="stroke:#181818;stroke-width:1.0;"/><polygon fill="#181818" points="1267.12,152.6337,1270.2617,161.968,1270.5021,156.3163,1276.1538,156.5567,1267.12,152.6337" style="stroke:#181818;stroke-width:1.0;"/><text fill="#000000" font-family="sans-serif" font-size="13" lengthAdjust="spacing" textLength="48" x="1351" y="244.042">includes</text><text fill="#000000" font-family="sans-serif" font-size="13" lengthAdjust="spacing" textLength="7" x="1265.1979" y="174.9418">1</text><text fill="#000000" font-family="sans-serif" font-size="13" lengthAdjust="spacing" textLength="7" x="1368.5801" y="266.8856">1</text></g><!--reverse link Address1 to JobOpening--><g id="link_Address1_JobOpening"><path codeLine="140" d="M1146.7,189.2699 C1152.56,194.0999 1153.95,194.8837 1160,199.0137 C1225.52,243.6937 1310.5,279.0637 1364.9,299.2737 " fill="none" id="Address1-backto-JobOpening" style="stroke:#181818;stroke-width:1.0;"/><polygon fill="#181818" points="1142.07,185.4537,1146.4709,194.2646,1145.9283,188.6338,1151.5591,188.0913,1142.07,185.4537" style="stroke:#181818;stroke-width:1.0;"/><text fill="#000000" font-family="sans-serif" font-size="13" lengthAdjust="spacing" textLength="48" x="1242" y="244.042">includes</text><text fill="#000000" font-family="sans-serif" font-size="13" lengthAdjust="spacing" textLength="7" x="1150.0613" y="189.2962">1</text><text fill="#000000" font-family="sans-serif" font-size="13" lengthAdjust="spacing" textLength="7" x="1350.16" y="292.536">1</text></g><!--reverse link ContractType to JobOpening--><g id="link_ContractType_JobOpening"><path codeLine="141" d="M1887.8633,157.0327 C1873.5133,172.8127 1858.38,186.8137 1838,199.0137 C1719.42,269.9937 1556.62,300.2737 1473.16,311.7937 " fill="none" id="ContractType-backto-JobOpening" style="stroke:#181818;stroke-width:1.0;"/><polygon fill="#181818" points="1891.9,152.5937,1882.8856,156.561,1888.5361,156.2928,1888.8042,161.9433,1891.9,152.5937" style="stroke:#181818;stroke-width:1.0;"/><text fill="#000000" font-family="sans-serif" font-size="13" lengthAdjust="spacing" textLength="48" x="1776" y="244.042">includes</text><text fill="#000000" font-family="sans-serif" font-size="13" lengthAdjust="spacing" textLength="7" x="1879.0013" y="174.8935">1</text><text fill="#000000" font-family="sans-serif" font-size="13" lengthAdjust="spacing" textLength="7" x="1480.9081" y="306.7384">1</text></g><!--link InterviewPhase to Phase--><g id="link_InterviewPhase_Phase"><path codeLine="145" d="M1138.67,534.5237 C1146.69,538.0937 1154.95,541.3837 1163,544.0137 C1449.4,637.4237 1795.427,671.5326 1919.427,681.4226 " fill="none" id="InterviewPhase-to-Phase" style="stroke:#181818;stroke-width:1.0;"/><polygon fill="none" points="1937.37,682.8537,1919.904,675.4416,1918.9499,687.4036,1937.37,682.8537" style="stroke:#181818;stroke-width:1.0;"/></g><!--link JobOpening to JobReference--><g id="link_JobOpening_JobReference"><path codeLine="146" d="M1473.13,327.4337 C1540.32,338.5437 1656.47,364.1337 1742,417.0137 C1760.79,428.6337 1774.163,441.2187 1787.823,457.0687 " fill="none" id="JobOpening-to-JobReference" style="stroke:#181818;stroke-width:1.0;"/><polygon fill="#181818" points="1791.74,461.6137,1788.8945,452.1848,1788.4758,457.8262,1782.8345,457.4075,1791.74,461.6137" style="stroke:#181818;stroke-width:1.0;"/><text fill="#000000" font-family="sans-serif" font-size="13" lengthAdjust="spacing" textLength="69" x="1727" y="405.042">identified by</text><text fill="#000000" font-family="sans-serif" font-size="13" lengthAdjust="spacing" textLength="7" x="1480.874" y="324.48">1</text><text fill="#000000" font-family="sans-serif" font-size="13" lengthAdjust="spacing" textLength="7" x="1779.3595" y="450.7233">1</text></g><!--link AnalysisPhase to Phase--><g id="link_AnalysisPhase_Phase"><path codeLine="147" d="M1981,534.8837 C1981,560.1437 1981,578.5737 1981,609.3437 " fill="none" id="AnalysisPhase-to-Phase" style="stroke:#181818;stroke-width:1.0;"/><polygon fill="none" points="1981,627.3437,1987,609.3437,1975,609.3437,1981,627.3437" style="stroke:#181818;stroke-width:1.0;"/></g><!--link ResultPhase to Phase--><g id="link_ResultPhase_Phase"><path codeLine="148" d="M2108.05,534.8837 C2085.28,561.9637 2063.2933,588.1259 2036.3733,620.1459 " fill="none" id="ResultPhase-to-Phase" style="stroke:#181818;stroke-width:1.0;"/><polygon fill="none" points="2024.79,633.9237,2040.9659,624.007,2031.7807,616.2848,2024.79,633.9237" style="stroke:#181818;stroke-width:1.0;"/></g><!--link ScreeningPhase to Phase--><g id="link_ScreeningPhase_Phase"><path codeLine="149" d="M2240.43,534.6837 C2179.82,570.0337 2096.8481,618.4342 2040.2581,651.4442 " fill="none" id="ScreeningPhase-to-Phase" style="stroke:#181818;stroke-width:1.0;"/><polygon fill="none" points="2024.71,660.5137,2043.2813,656.6269,2037.235,646.2615,2024.71,660.5137" style="stroke:#181818;stroke-width:1.0;"/></g><!--link Candidate to Name2--><g id="link_Candidate_Name2"><path codeLine="150" d="M214.72,544.4037 C189.48,571.7337 160.0797,603.5949 133.3197,632.5849 " fill="none" id="Candidate-to-Name2" style="stroke:#181818;stroke-width:1.0;"/><polygon fill="#181818" points="129.25,636.9937,138.2937,633.0936,132.6414,633.3197,132.4153,627.6673,129.25,636.9937" style="stroke:#181818;stroke-width:1.0;"/><text fill="#000000" font-family="sans-serif" font-size="13" lengthAdjust="spacing" textLength="21" x="185" y="589.042">has</text></g><!--link JobApplication to ID--><g id="link_JobApplication_ID"><path codeLine="152" d="M705.32,728.3137 C691.65,743.8937 675.99,761.9437 662,778.5137 C646.13,797.3137 632.62,813.7541 618.18,831.5541 " fill="none" id="JobApplication-to-ID" style="stroke:#181818;stroke-width:1.0;"/><polygon fill="#181818" points="614.4,836.2137,623.1764,831.7443,617.55,832.3307,616.9636,826.7043,614.4,836.2137" style="stroke:#181818;stroke-width:1.0;"/><text fill="#000000" font-family="sans-serif" font-size="13" lengthAdjust="spacing" textLength="69" x="663" y="793.542">identified by</text><text fill="#000000" font-family="sans-serif" font-size="13" lengthAdjust="spacing" textLength="7" x="692.3206" y="750.0004">1</text><text fill="#000000" font-family="sans-serif" font-size="13" lengthAdjust="spacing" textLength="7" x="612.0059" y="825.3392">1</text></g><!--link JobApplication to Status--><g id="link_JobApplication_Status"><path codeLine="153" d="M679.17,723.8137 C631.01,751.8037 562.57,791.8137 503,827.5137 C493.22,833.3737 487.9303,836.566 477.9603,842.656 " fill="none" id="JobApplication-to-Status" style="stroke:#181818;stroke-width:1.0;"/><polygon fill="#181818" points="472.84,845.7837,482.6056,844.5057,477.1069,843.1773,478.4354,837.6786,472.84,845.7837" style="stroke:#181818;stroke-width:1.0;"/><text fill="#000000" font-family="sans-serif" font-size="13" lengthAdjust="spacing" textLength="21" x="582" y="793.542">has</text><text fill="#000000" font-family="sans-serif" font-size="13" lengthAdjust="spacing" textLength="7" x="664.6162" y="724.1389">1</text><text fill="#000000" font-family="sans-serif" font-size="13" lengthAdjust="spacing" textLength="7" x="475.3976" y="834.5196">1</text></g><!--SRC=[dLRTQjim5BxNKmZV30fErxBTc588IRkbq3QqOnTZDugi9DeSsqXoH_3wH7s4tUN9fZzRafqVRwKGdUDpFXrzvqTwjnQYvCdvUPcXN5IRR8IBpJdE4ETnIj6AeGq09S8_qOh0wAvOZCioenW9MkHml5eniaA2H3M0ya-xmMZtnef2xFvyptTl91TKRDKwz8qWuZ1KrK23l8PGBoYh22mMFmZMaCy2YOfhTxEihPV-EUotUwEf2cP92LFoBDKOiwdnRm2E-6EKuIgJfqsL_8cXb6W8lQgb_q5Vxv2tD3DU7Ps9WX69Jr-8qioHM6lbKWgJ8XSoUW30a5Y_R4kpYLeq_BnwUPoWFAMfFCg_fR1rq-2jL0-BwW5jZADQN4BBkpuWuq8fMus4S8fJkFDraPE7QhCWJCDxyd_MnaryZsYcmMxKwjBLYFmFsW4-bYId-IeWCepNyVT4CAkes4ZDd1MOS5F7VRNZvZFYCvbwzaB9h_aQSRB_H6uFRMHva2k7L2enO9aBnCHKXjngI9uw-JJl5f2xxRJewW7iY_0PCw8vSw66AklV2y0dabUPSFwUN8FZhkCSPLjEkNCED0TgkTyDK4yqc_rccbcn7jYdTyNAUgXHHYnAe8C3IrWD28QmQ5lVLmmSSVU5dMXgKGyzmkAsoh4_qXjv808qhVgu_8emoZ6rvTHN3yIR4euPBTk8FDalp6CGupHbJNFQzOLhf6SXYrMquaIMW_VDRwT9KSaakA_VQ8abjM3OVHFE94di4raIHdBS58fJx2dwiEh36M9kla3bKQDd7EZSJp2wY60SN-jVLLEWynPmtqUZiwXxlG7N7CfI6YhxRgqdaEOugrB20N1NbBCtmnWcBJCfN6o1D- -LxLMiJ9rx8eyNei6hE8Pc_-082LDySYYAJhZIFexEkg-V13hx_WZN6vn9lm-ZqSV8J4UOb7BYmc9voDxowqQfJqaOKvECFKY9Ox4JilPvFnf9T_rg2HXNNU_Ju-qNHj4q-6dZNW-VTl7QzRHnqvmd3VrfsC3Q2jXZ3VhvFvx-i9SapR-lJH8FrRrhNRLlKCx1TUH3UPUShmxlJl-BAtgLT_FgIg1gXqvTcCWqBxDfBw1-ezjZcFUtXVmB]--></g></svg>