<?xml version="1.0" encoding="us-ascii" standalone="no"?><svg xmlns="http://www.w3.org/2000/svg" xmlns:xlink="http://www.w3.org/1999/xlink" contentStyleType="text/css" height="760px" preserveAspectRatio="none" style="width:1431px;height:760px;background:#FFFFFF;" version="1.1" viewBox="0 0 1431 760" width="1431px" zoomAndPan="magnify"><defs/><g><text fill="#000000" font-family="sans-serif" font-size="14" font-weight="bold" lengthAdjust="spacing" textLength="465" x="482.25" y="30.1074">"US1021 - Display all the data of an application" Sequence Diagram</text><rect fill="#FFFFFF" height="526.6074" style="stroke:#181818;stroke-width:1.0;" width="10" x="63.5" y="133.2422"/><rect fill="#FFFFFF" height="235.6973" style="stroke:#181818;stroke-width:1.0;" width="10" x="432.5" y="156.5332"/><rect fill="#FFFFFF" height="173.7461" style="stroke:#181818;stroke-width:1.0;" width="10" x="432.5" y="423.5215"/><rect fill="#FFFFFF" height="31.291" style="stroke:#181818;stroke-width:1.0;" width="10" x="432.5" y="628.5586"/><rect fill="#FFFFFF" height="93.873" style="stroke:#181818;stroke-width:1.0;" width="10" x="792.5" y="267.0664"/><rect fill="#FFFFFF" height="93.873" style="stroke:#181818;stroke-width:1.0;" width="10" x="792.5" y="454.8125"/><rect fill="#FFFFFF" height="31.291" style="stroke:#181818;stroke-width:1.0;" width="10" x="1152.5" y="298.3574"/><rect fill="#FFFFFF" height="31.291" style="stroke:#181818;stroke-width:1.0;" width="10" x="1332" y="486.1035"/><line style="stroke:#181818;stroke-width:0.5;stroke-dasharray:5.0,5.0;" x1="68" x2="68" y1="123.2422" y2="677.8496"/><line style="stroke:#181818;stroke-width:0.5;stroke-dasharray:5.0,5.0;" x1="437" x2="437" y1="123.2422" y2="677.8496"/><line style="stroke:#181818;stroke-width:0.5;stroke-dasharray:5.0,5.0;" x1="797" x2="797" y1="214.1543" y2="677.8496"/><line style="stroke:#181818;stroke-width:0.5;stroke-dasharray:5.0,5.0;" x1="1157.5" x2="1157.5" y1="123.2422" y2="677.8496"/><line style="stroke:#181818;stroke-width:0.5;stroke-dasharray:5.0,5.0;" x1="1336.5" x2="1336.5" y1="123.2422" y2="677.8496"/><text fill="#000000" font-family="sans-serif" font-size="14" lengthAdjust="spacing" textLength="121" x="5" y="119.7285">Customer Manager</text><ellipse cx="68.5" cy="53.1211" fill="#E3E3E3" rx="8" ry="8" style="stroke:#181818;stroke-width:0.5;"/><path d="M68.5,61.1211 L68.5,88.1211 M55.5,69.1211 L81.5,69.1211 M68.5,88.1211 L55.5,103.1211 M68.5,88.1211 L81.5,103.1211 " fill="none" style="stroke:#181818;stroke-width:0.5;"/><text fill="#000000" font-family="sans-serif" font-size="14" lengthAdjust="spacing" textLength="121" x="5" y="691.957">Customer Manager</text><ellipse cx="68.5" cy="703.9707" fill="#E3E3E3" rx="8" ry="8" style="stroke:#181818;stroke-width:0.5;"/><path d="M68.5,711.9707 L68.5,738.9707 M55.5,719.9707 L81.5,719.9707 M68.5,738.9707 L55.5,753.9707 M68.5,738.9707 L81.5,753.9707 " fill="none" style="stroke:#181818;stroke-width:0.5;"/><rect fill="#E3E3E3" height="51.2422" rx="2.5" ry="2.5" style="stroke:#181818;stroke-width:0.5;" width="197" x="339" y="71"/><text fill="#000000" font-family="sans-serif" font-size="14" font-style="italic" lengthAdjust="spacing" textLength="95" x="390" y="93.1074">&#171;presentation&#187;</text><text fill="#000000" font-family="sans-serif" font-size="14" lengthAdjust="spacing" textLength="183" x="346" y="111.7285">:DisplayJobApplicationDataUI</text><rect fill="#E3E3E3" height="51.2422" rx="2.5" ry="2.5" style="stroke:#181818;stroke-width:0.5;" width="197" x="339" y="676.8496"/><text fill="#000000" font-family="sans-serif" font-size="14" font-style="italic" lengthAdjust="spacing" textLength="95" x="390" y="698.957">&#171;presentation&#187;</text><text fill="#000000" font-family="sans-serif" font-size="14" lengthAdjust="spacing" textLength="183" x="346" y="717.5781">:DisplayJobApplicationDataUI</text><text fill="#000000" font-family="sans-serif" font-size="14" font-style="italic" lengthAdjust="spacing" textLength="84" x="752.5" y="691.957">&#171;application&#187;</text><text fill="#000000" font-family="sans-serif" font-size="14" lengthAdjust="spacing" textLength="229" x="680" y="710.5781">DisplayJobApplicationDataController</text><ellipse cx="797.5" cy="730.0918" fill="#E3E3E3" rx="12" ry="12" style="stroke:#181818;stroke-width:0.5;"/><polygon fill="#181818" points="793.5,718.0918,799.5,713.0918,797.5,718.0918,799.5,723.0918,793.5,718.0918" style="stroke:#181818;stroke-width:1.0;"/><rect fill="#E3E3E3" height="51.2422" rx="2.5" ry="2.5" style="stroke:#181818;stroke-width:0.5;" width="162" x="1076.5" y="71"/><text fill="#000000" font-family="sans-serif" font-size="14" font-style="italic" lengthAdjust="spacing" textLength="79" x="1118" y="93.1074">&#171;repository&#187;</text><text fill="#000000" font-family="sans-serif" font-size="14" lengthAdjust="spacing" textLength="148" x="1083.5" y="111.7285">:JobOpeningRepository</text><rect fill="#E3E3E3" height="51.2422" rx="2.5" ry="2.5" style="stroke:#181818;stroke-width:0.5;" width="162" x="1076.5" y="676.8496"/><text fill="#000000" font-family="sans-serif" font-size="14" font-style="italic" lengthAdjust="spacing" textLength="79" x="1118" y="698.957">&#171;repository&#187;</text><text fill="#000000" font-family="sans-serif" font-size="14" lengthAdjust="spacing" textLength="148" x="1083.5" y="717.5781">:JobOpeningRepository</text><rect fill="#E3E3E3" height="51.2422" rx="2.5" ry="2.5" style="stroke:#181818;stroke-width:0.5;" width="177" x="1248.5" y="71"/><text fill="#000000" font-family="sans-serif" font-size="14" font-style="italic" lengthAdjust="spacing" textLength="79" x="1297.5" y="93.1074">&#171;repository&#187;</text><text fill="#000000" font-family="sans-serif" font-size="14" lengthAdjust="spacing" textLength="163" x="1255.5" y="111.7285">:JobApplicationRepository</text><rect fill="#E3E3E3" height="51.2422" rx="2.5" ry="2.5" style="stroke:#181818;stroke-width:0.5;" width="177" x="1248.5" y="676.8496"/><text fill="#000000" font-family="sans-serif" font-size="14" font-style="italic" lengthAdjust="spacing" textLength="79" x="1297.5" y="698.957">&#171;repository&#187;</text><text fill="#000000" font-family="sans-serif" font-size="14" lengthAdjust="spacing" textLength="163" x="1255.5" y="717.5781">:JobApplicationRepository</text><rect fill="#FFFFFF" height="526.6074" style="stroke:#181818;stroke-width:1.0;" width="10" x="63.5" y="133.2422"/><rect fill="#FFFFFF" height="235.6973" style="stroke:#181818;stroke-width:1.0;" width="10" x="432.5" y="156.5332"/><rect fill="#FFFFFF" height="173.7461" style="stroke:#181818;stroke-width:1.0;" width="10" x="432.5" y="423.5215"/><rect fill="#FFFFFF" height="31.291" style="stroke:#181818;stroke-width:1.0;" width="10" x="432.5" y="628.5586"/><rect fill="#FFFFFF" height="93.873" style="stroke:#181818;stroke-width:1.0;" width="10" x="792.5" y="267.0664"/><rect fill="#FFFFFF" height="93.873" style="stroke:#181818;stroke-width:1.0;" width="10" x="792.5" y="454.8125"/><rect fill="#FFFFFF" height="31.291" style="stroke:#181818;stroke-width:1.0;" width="10" x="1152.5" y="298.3574"/><rect fill="#FFFFFF" height="31.291" style="stroke:#181818;stroke-width:1.0;" width="10" x="1332" y="486.1035"/><polygon fill="#181818" points="420.5,152.5332,430.5,156.5332,420.5,160.5332,424.5,156.5332" style="stroke:#181818;stroke-width:1.0;"/><line style="stroke:#181818;stroke-width:1.0;" x1="73.5" x2="426.5" y1="156.5332" y2="156.5332"/><text fill="#000000" font-family="sans-serif" font-size="13" font-weight="bold" lengthAdjust="spacing" textLength="7" x="80.5" y="151.2705">1</text><text fill="#000000" font-family="sans-serif" font-size="13" lengthAdjust="spacing" textLength="258" x="91.5" y="151.2705">asks to display all the data of an application.</text><polygon fill="#181818" points="668,183.8242,678,187.8242,668,191.8242,672,187.8242" style="stroke:#181818;stroke-width:1.0;"/><line style="stroke:#181818;stroke-width:1.0;" x1="442.5" x2="674" y1="187.8242" y2="187.8242"/><text fill="#000000" font-family="sans-serif" font-size="13" font-weight="bold" lengthAdjust="spacing" textLength="7" x="449.5" y="182.5615">2</text><text fill="#000000" font-family="sans-serif" font-size="13" lengthAdjust="spacing" textLength="36" x="460.5" y="182.5615">create</text><text fill="#000000" font-family="sans-serif" font-size="14" font-style="italic" lengthAdjust="spacing" textLength="84" x="752.5" y="211.6406">&#171;application&#187;</text><text fill="#000000" font-family="sans-serif" font-size="14" lengthAdjust="spacing" textLength="229" x="680" y="230.2617">DisplayJobApplicationDataController</text><ellipse cx="797.5" cy="180.5332" fill="#E3E3E3" rx="12" ry="12" style="stroke:#181818;stroke-width:0.5;"/><polygon fill="#181818" points="793.5,168.5332,799.5,163.5332,797.5,168.5332,799.5,173.5332,793.5,168.5332" style="stroke:#181818;stroke-width:1.0;"/><polygon fill="#181818" points="780.5,263.0664,790.5,267.0664,780.5,271.0664,784.5,267.0664" style="stroke:#181818;stroke-width:1.0;"/><line style="stroke:#181818;stroke-width:1.0;" x1="442.5" x2="786.5" y1="267.0664" y2="267.0664"/><text fill="#000000" font-family="sans-serif" font-size="13" font-weight="bold" lengthAdjust="spacing" textLength="7" x="449.5" y="261.8037">3</text><text fill="#000000" font-family="sans-serif" font-size="13" lengthAdjust="spacing" textLength="118" x="460.5" y="261.8037">findAllJobOpenings()</text><polygon fill="#181818" points="1140.5,294.3574,1150.5,298.3574,1140.5,302.3574,1144.5,298.3574" style="stroke:#181818;stroke-width:1.0;"/><line style="stroke:#181818;stroke-width:1.0;" x1="802.5" x2="1146.5" y1="298.3574" y2="298.3574"/><text fill="#000000" font-family="sans-serif" font-size="13" font-weight="bold" lengthAdjust="spacing" textLength="7" x="809.5" y="293.0947">4</text><text fill="#000000" font-family="sans-serif" font-size="13" lengthAdjust="spacing" textLength="320" x="820.5" y="293.0947">allActiveJobOpeningsByCustomerManager(currentUser)</text><polygon fill="#181818" points="813.5,325.6484,803.5,329.6484,813.5,333.6484,809.5,329.6484" style="stroke:#181818;stroke-width:1.0;"/><line style="stroke:#181818;stroke-width:1.0;stroke-dasharray:2.0,2.0;" x1="807.5" x2="1156.5" y1="329.6484" y2="329.6484"/><text fill="#000000" font-family="sans-serif" font-size="13" font-weight="bold" lengthAdjust="spacing" textLength="7" x="819.5" y="324.3857">5</text><text fill="#000000" font-family="sans-serif" font-size="13" lengthAdjust="spacing" textLength="148" x="830.5" y="324.3857">jobOpeningsWithInterview</text><polygon fill="#181818" points="453.5,356.9395,443.5,360.9395,453.5,364.9395,449.5,360.9395" style="stroke:#181818;stroke-width:1.0;"/><line style="stroke:#181818;stroke-width:1.0;stroke-dasharray:2.0,2.0;" x1="447.5" x2="796.5" y1="360.9395" y2="360.9395"/><text fill="#000000" font-family="sans-serif" font-size="13" font-weight="bold" lengthAdjust="spacing" textLength="7" x="459.5" y="355.6768">6</text><text fill="#000000" font-family="sans-serif" font-size="13" lengthAdjust="spacing" textLength="148" x="470.5" y="355.6768">jobOpeningsWithInterview</text><polygon fill="#181818" points="84.5,388.2305,74.5,392.2305,84.5,396.2305,80.5,392.2305" style="stroke:#181818;stroke-width:1.0;"/><line style="stroke:#181818;stroke-width:1.0;stroke-dasharray:2.0,2.0;" x1="78.5" x2="436.5" y1="392.2305" y2="392.2305"/><text fill="#000000" font-family="sans-serif" font-size="13" font-weight="bold" lengthAdjust="spacing" textLength="7" x="90.5" y="386.9678">7</text><text fill="#000000" font-family="sans-serif" font-size="13" lengthAdjust="spacing" textLength="324" x="101.5" y="386.9678">shows list of all the job openings and asks to select one</text><polygon fill="#181818" points="420.5,419.5215,430.5,423.5215,420.5,427.5215,424.5,423.5215" style="stroke:#181818;stroke-width:1.0;"/><line style="stroke:#181818;stroke-width:1.0;" x1="73.5" x2="426.5" y1="423.5215" y2="423.5215"/><text fill="#000000" font-family="sans-serif" font-size="13" font-weight="bold" lengthAdjust="spacing" textLength="7" x="80.5" y="418.2588">8</text><text fill="#000000" font-family="sans-serif" font-size="13" lengthAdjust="spacing" textLength="129" x="91.5" y="418.2588">selects a Job Opening</text><polygon fill="#181818" points="780.5,450.8125,790.5,454.8125,780.5,458.8125,784.5,454.8125" style="stroke:#181818;stroke-width:1.0;"/><line style="stroke:#181818;stroke-width:1.0;" x1="442.5" x2="786.5" y1="454.8125" y2="454.8125"/><text fill="#000000" font-family="sans-serif" font-size="13" font-weight="bold" lengthAdjust="spacing" textLength="7" x="449.5" y="449.5498">9</text><text fill="#000000" font-family="sans-serif" font-size="13" lengthAdjust="spacing" textLength="320" x="460.5" y="449.5498">findJobApplicationsByJobOpening(selectedJobOpening)</text><polygon fill="#181818" points="1320,482.1035,1330,486.1035,1320,490.1035,1324,486.1035" style="stroke:#181818;stroke-width:1.0;"/><line style="stroke:#181818;stroke-width:1.0;" x1="802.5" x2="1326" y1="486.1035" y2="486.1035"/><text fill="#000000" font-family="sans-serif" font-size="13" font-weight="bold" lengthAdjust="spacing" textLength="14" x="809.5" y="480.8408">10</text><text fill="#000000" font-family="sans-serif" font-size="13" lengthAdjust="spacing" textLength="229" x="827.5" y="480.8408">findByJobOpening(selectedJobOpening)</text><polygon fill="#181818" points="813.5,513.3945,803.5,517.3945,813.5,521.3945,809.5,517.3945" style="stroke:#181818;stroke-width:1.0;"/><line style="stroke:#181818;stroke-width:1.0;stroke-dasharray:2.0,2.0;" x1="807.5" x2="1336" y1="517.3945" y2="517.3945"/><text fill="#000000" font-family="sans-serif" font-size="13" font-weight="bold" lengthAdjust="spacing" textLength="14" x="819.5" y="512.1318">11</text><text fill="#000000" font-family="sans-serif" font-size="13" lengthAdjust="spacing" textLength="88" x="837.5" y="512.1318">jobApplications</text><polygon fill="#181818" points="453.5,544.6855,443.5,548.6855,453.5,552.6855,449.5,548.6855" style="stroke:#181818;stroke-width:1.0;"/><line style="stroke:#181818;stroke-width:1.0;stroke-dasharray:2.0,2.0;" x1="447.5" x2="796.5" y1="548.6855" y2="548.6855"/><text fill="#000000" font-family="sans-serif" font-size="13" font-weight="bold" lengthAdjust="spacing" textLength="14" x="459.5" y="543.4229">12</text><text fill="#000000" font-family="sans-serif" font-size="13" lengthAdjust="spacing" textLength="88" x="477.5" y="543.4229">jobApplications</text><polygon fill="#181818" points="84.5,593.2676,74.5,597.2676,84.5,601.2676,80.5,597.2676" style="stroke:#181818;stroke-width:1.0;"/><line style="stroke:#181818;stroke-width:1.0;stroke-dasharray:2.0,2.0;" x1="78.5" x2="436.5" y1="597.2676" y2="597.2676"/><text fill="#000000" font-family="sans-serif" font-size="13" font-weight="bold" lengthAdjust="spacing" textLength="14" x="90.5" y="583.3594">13</text><text fill="#000000" font-family="sans-serif" font-size="13" lengthAdjust="spacing" textLength="188" x="108.5" y="574.7139">shows all the job applications for</text><text fill="#000000" font-family="sans-serif" font-size="13" lengthAdjust="spacing" textLength="302" x="112.5" y="592.0049">the selected job opening and asks you to select one</text><polygon fill="#181818" points="420.5,624.5586,430.5,628.5586,420.5,632.5586,424.5,628.5586" style="stroke:#181818;stroke-width:1.0;"/><line style="stroke:#181818;stroke-width:1.0;" x1="73.5" x2="426.5" y1="628.5586" y2="628.5586"/><text fill="#000000" font-family="sans-serif" font-size="13" font-weight="bold" lengthAdjust="spacing" textLength="14" x="80.5" y="623.2959">14</text><text fill="#000000" font-family="sans-serif" font-size="13" lengthAdjust="spacing" textLength="145" x="98.5" y="623.2959">selects a Job Application</text><polygon fill="#181818" points="79.5,655.8496,69.5,659.8496,79.5,663.8496,75.5,659.8496" style="stroke:#181818;stroke-width:1.0;"/><line style="stroke:#181818;stroke-width:1.0;stroke-dasharray:2.0,2.0;" x1="73.5" x2="436.5" y1="659.8496" y2="659.8496"/><text fill="#000000" font-family="sans-serif" font-size="13" font-weight="bold" lengthAdjust="spacing" textLength="14" x="85.5" y="654.5869">15</text><text fill="#000000" font-family="sans-serif" font-size="13" lengthAdjust="spacing" textLength="281" x="103.5" y="654.5869">shows all the data of the selected job application</text><!--SRC=[ZPHFR-8m4CNl_XIZN9PMOjNk4LL8ARrGBQe46-rbBoOPY8knixPJDjz-9_yTGYavslEUtypFZZq8bN73Zt3KIiUfqKS4Pt9ajjl9U7pWUzouGY8OZ1rNU-aNs9Gd-YJK7dPSMcICvqwh_BX5mvWJZcH1j7by-F48KtWHDfEy02ubk1GXuOw3tW5NmBDCYfWxeLK06_oReugH17nFfp3sBHK9mavhjzN_68-TDX0iSkieiu4LLnJI1C0jB5QCaZaHYumh1y6iEVHLRyF-Z1SwELfMWcW9Jq-PGOlALNlpEOkrSaPB23uLB-eAsPxwQ_sJRBmko6MOWppUCbGqgZLcsWfgeQYqhszhaffkyPBIE_rS7OxKh1oG-E0Eosame6-nWkcyR7L6ceC5fo6v2SRtMjyPHijweVp8ZapBrk_loJWsI1NiqZxjxeHAGYdxATZ9NLVPvwNYng7IaRuSpwnC6PP5w1ay5-qDQ2x09CwD8OoHHNCtp4qkjMrfD-rYlVTkluLBbygX-H1ugaeJ7ClRhqxNplIgpPcLrs8xf3BEYcnigayMfB2k0j608NFGZJlHIJg25YMzID0AsNdU5fF7lQuc1w0HGXFt0jmHjU7rewdt22QrAIRz4itzhDK1p73Tk7vjCy0NjlZ2Ctn-j16ry2jg8_LbMDTm-PYyXsFfRsN-g6ghRSz7sPCiT7u3pUiulJx6I6y8tpx-KLgleyzZ3TVyyQtOVm00]--></g></svg>