<?xml version="1.0" encoding="us-ascii" standalone="no"?><svg xmlns="http://www.w3.org/2000/svg" xmlns:xlink="http://www.w3.org/1999/xlink" contentStyleType="text/css" height="1438px" preserveAspectRatio="none" style="width:3864px;height:1438px;background:#FFFFFF;" version="1.1" viewBox="0 0 3864 1438" width="3864px" zoomAndPan="magnify"><defs/><g><text fill="#000000" font-family="sans-serif" font-size="14" font-weight="bold" lengthAdjust="spacing" textLength="645" x="1602.5" y="22.6738">US 1007  As Customer Manager, I want to setup the phases of the process for a job opening.</text><!--class UI--><g id="elem_UI"><rect codeLine="4" fill="#F1F1F1" height="141.8438" id="UI" rx="2.5" ry="2.5" style="stroke:#181818;stroke-width:0.5;" width="492" x="2095" y="43.6406"/><ellipse cx="2250.75" cy="59.6406" fill="#ADD1B2" rx="11" ry="11" style="stroke:#181818;stroke-width:1.0;"/><path d="M2253.5156,55.5156 Q2253.6719,55.2969 2253.8594,55.1875 Q2254.0469,55.0781 2254.2656,55.0781 Q2254.6406,55.0781 2254.875,55.3438 Q2255.1094,55.5938 2255.1094,56.2031 L2255.1094,57.6563 Q2255.1094,58.2656 2254.875,58.5313 Q2254.6406,58.7969 2254.2656,58.7969 Q2253.9219,58.7969 2253.7188,58.5938 Q2253.5156,58.4063 2253.4063,57.8906 Q2253.3594,57.5313 2253.1719,57.3438 Q2252.8438,56.9688 2252.2344,56.75 Q2251.625,56.5313 2251,56.5313 Q2250.2344,56.5313 2249.5938,56.8594 Q2248.9688,57.1875 2248.4688,57.9375 Q2247.9844,58.6875 2247.9844,59.7188 L2247.9844,60.8125 Q2247.9844,62.0469 2248.875,62.875 Q2249.7656,63.6875 2251.3594,63.6875 Q2252.2969,63.6875 2252.9531,63.4375 Q2253.3438,63.2813 2253.7656,62.8438 Q2254.0313,62.5781 2254.1719,62.5 Q2254.3281,62.4219 2254.5313,62.4219 Q2254.8594,62.4219 2255.1094,62.6875 Q2255.375,62.9375 2255.375,63.2813 Q2255.375,63.625 2255.0313,64.0313 Q2254.5313,64.6094 2253.7344,64.9375 Q2252.6563,65.3906 2251.3594,65.3906 Q2249.8438,65.3906 2248.6406,64.7656 Q2247.6563,64.2656 2246.9688,63.2031 Q2246.2813,62.125 2246.2813,60.8438 L2246.2813,59.6875 Q2246.2813,58.3594 2246.8906,57.2188 Q2247.5156,56.0625 2248.6094,55.4531 Q2249.7031,54.8281 2250.9375,54.8281 Q2251.6719,54.8281 2252.3125,55 Q2252.9688,55.1563 2253.5156,55.5156 Z " fill="#000000"/><text fill="#000000" font-family="sans-serif" font-size="14" lengthAdjust="spacing" textLength="172" x="2271.25" y="64.4941">SetupPhasesJobOpeningUI</text><line style="stroke:#181818;stroke-width:0.5;" x1="2096" x2="2586" y1="75.6406" y2="75.6406"/><line style="stroke:#181818;stroke-width:0.5;" x1="2096" x2="2586" y1="83.6406" y2="83.6406"/><rect fill="#F24D5C" height="6" style="stroke:#C82930;stroke-width:1.0;" width="6" x="2103" y="93.9609"/><text fill="#000000" font-family="sans-serif" font-size="14" lengthAdjust="spacing" textLength="197" x="2115" y="100.3145">selectHaveInterview() : boolean</text><rect fill="#F24D5C" height="6" style="stroke:#C82930;stroke-width:1.0;" width="6" x="2103" y="109.6016"/><text fill="#000000" font-family="sans-serif" font-size="14" lengthAdjust="spacing" textLength="252" x="2115" y="115.9551">selectDates(hasInterview) : List&lt;Phase&gt;</text><rect fill="#F24D5C" height="6" style="stroke:#C82930;stroke-width:1.0;" width="6" x="2103" y="125.2422"/><text fill="#000000" font-family="sans-serif" font-size="14" lengthAdjust="spacing" textLength="466" x="2115" y="131.5957">checkTimePeriodBetweenPhase(phases, timePeriodApplication) : boolean</text><rect fill="#F24D5C" height="6" style="stroke:#C82930;stroke-width:1.0;" width="6" x="2103" y="140.8828"/><text fill="#000000" font-family="sans-serif" font-size="14" lengthAdjust="spacing" textLength="266" x="2115" y="147.2363">setTimePeriod(message) : List&lt;Calendar&gt;</text><rect fill="#F24D5C" height="6" style="stroke:#C82930;stroke-width:1.0;" width="6" x="2103" y="156.5234"/><text fill="#000000" font-family="sans-serif" font-size="14" lengthAdjust="spacing" textLength="295" x="2115" y="162.877">getDateFromUser(prompt, scanner) : Calendar</text><rect fill="#F24D5C" height="6" style="stroke:#C82930;stroke-width:1.0;" width="6" x="2103" y="172.1641"/><text fill="#000000" font-family="sans-serif" font-size="14" lengthAdjust="spacing" textLength="291" x="2115" y="178.5176">selectJobOpening(jobOpenings) : JobOpening</text></g><!--class PersistenceContext--><g id="elem_PersistenceContext"><rect codeLine="14" fill="#F1F1F1" height="63.6406" id="PersistenceContext" rx="2.5" ry="2.5" style="stroke:#181818;stroke-width:0.5;" width="154" x="2057" y="394.1406"/><ellipse cx="2072" cy="410.1406" fill="#ADD1B2" rx="11" ry="11" style="stroke:#181818;stroke-width:1.0;"/><path d="M2074.7656,406.0156 Q2074.9219,405.7969 2075.1094,405.6875 Q2075.2969,405.5781 2075.5156,405.5781 Q2075.8906,405.5781 2076.125,405.8438 Q2076.3594,406.0938 2076.3594,406.7031 L2076.3594,408.1563 Q2076.3594,408.7656 2076.125,409.0313 Q2075.8906,409.2969 2075.5156,409.2969 Q2075.1719,409.2969 2074.9688,409.0938 Q2074.7656,408.9063 2074.6563,408.3906 Q2074.6094,408.0313 2074.4219,407.8438 Q2074.0938,407.4688 2073.4844,407.25 Q2072.875,407.0313 2072.25,407.0313 Q2071.4844,407.0313 2070.8438,407.3594 Q2070.2188,407.6875 2069.7188,408.4375 Q2069.2344,409.1875 2069.2344,410.2188 L2069.2344,411.3125 Q2069.2344,412.5469 2070.125,413.375 Q2071.0156,414.1875 2072.6094,414.1875 Q2073.5469,414.1875 2074.2031,413.9375 Q2074.5938,413.7813 2075.0156,413.3438 Q2075.2813,413.0781 2075.4219,413 Q2075.5781,412.9219 2075.7813,412.9219 Q2076.1094,412.9219 2076.3594,413.1875 Q2076.625,413.4375 2076.625,413.7813 Q2076.625,414.125 2076.2813,414.5313 Q2075.7813,415.1094 2074.9844,415.4375 Q2073.9063,415.8906 2072.6094,415.8906 Q2071.0938,415.8906 2069.8906,415.2656 Q2068.9063,414.7656 2068.2188,413.7031 Q2067.5313,412.625 2067.5313,411.3438 L2067.5313,410.1875 Q2067.5313,408.8594 2068.1406,407.7188 Q2068.7656,406.5625 2069.8594,405.9531 Q2070.9531,405.3281 2072.1875,405.3281 Q2072.9219,405.3281 2073.5625,405.5 Q2074.2188,405.6563 2074.7656,406.0156 Z " fill="#000000"/><text fill="#000000" font-family="sans-serif" font-size="14" lengthAdjust="spacing" textLength="122" x="2086" y="414.9941">PersistenceContext</text><line style="stroke:#181818;stroke-width:0.5;" x1="2058" x2="2210" y1="426.1406" y2="426.1406"/><line style="stroke:#181818;stroke-width:0.5;" x1="2058" x2="2210" y1="434.1406" y2="434.1406"/><text fill="#000000" font-family="sans-serif" font-size="14" lengthAdjust="spacing" textLength="84" x="2063" y="450.8145">repositories()</text></g><!--class Controller--><g id="elem_Controller"><rect codeLine="18" fill="#F1F1F1" height="79.2813" id="Controller" rx="2.5" ry="2.5" style="stroke:#181818;stroke-width:0.5;" width="485" x="2098.5" y="246.6406"/><ellipse cx="2225.75" cy="262.6406" fill="#ADD1B2" rx="11" ry="11" style="stroke:#181818;stroke-width:1.0;"/><path d="M2228.5156,258.5156 Q2228.6719,258.2969 2228.8594,258.1875 Q2229.0469,258.0781 2229.2656,258.0781 Q2229.6406,258.0781 2229.875,258.3438 Q2230.1094,258.5938 2230.1094,259.2031 L2230.1094,260.6563 Q2230.1094,261.2656 2229.875,261.5313 Q2229.6406,261.7969 2229.2656,261.7969 Q2228.9219,261.7969 2228.7188,261.5938 Q2228.5156,261.4063 2228.4063,260.8906 Q2228.3594,260.5313 2228.1719,260.3438 Q2227.8438,259.9688 2227.2344,259.75 Q2226.625,259.5313 2226,259.5313 Q2225.2344,259.5313 2224.5938,259.8594 Q2223.9688,260.1875 2223.4688,260.9375 Q2222.9844,261.6875 2222.9844,262.7188 L2222.9844,263.8125 Q2222.9844,265.0469 2223.875,265.875 Q2224.7656,266.6875 2226.3594,266.6875 Q2227.2969,266.6875 2227.9531,266.4375 Q2228.3438,266.2813 2228.7656,265.8438 Q2229.0313,265.5781 2229.1719,265.5 Q2229.3281,265.4219 2229.5313,265.4219 Q2229.8594,265.4219 2230.1094,265.6875 Q2230.375,265.9375 2230.375,266.2813 Q2230.375,266.625 2230.0313,267.0313 Q2229.5313,267.6094 2228.7344,267.9375 Q2227.6563,268.3906 2226.3594,268.3906 Q2224.8438,268.3906 2223.6406,267.7656 Q2222.6563,267.2656 2221.9688,266.2031 Q2221.2813,265.125 2221.2813,263.8438 L2221.2813,262.6875 Q2221.2813,261.3594 2221.8906,260.2188 Q2222.5156,259.0625 2223.6094,258.4531 Q2224.7031,257.8281 2225.9375,257.8281 Q2226.6719,257.8281 2227.3125,258 Q2227.9688,258.1563 2228.5156,258.5156 Z " fill="#000000"/><text fill="#000000" font-family="sans-serif" font-size="14" lengthAdjust="spacing" textLength="222" x="2246.25" y="267.4941">SetupPhasesJobOpeningController</text><line style="stroke:#181818;stroke-width:0.5;" x1="2099.5" x2="2582.5" y1="278.6406" y2="278.6406"/><line style="stroke:#181818;stroke-width:0.5;" x1="2099.5" x2="2582.5" y1="286.6406" y2="286.6406"/><ellipse cx="2109.5" cy="299.9609" fill="#84BE84" rx="3" ry="3" style="stroke:#038048;stroke-width:1.0;"/><text fill="#000000" font-family="sans-serif" font-size="14" lengthAdjust="spacing" textLength="459" x="2118.5" y="303.3145">setUpPhasesJobOpening(jobOpening, dates, hasInterview) : JobOpening</text><ellipse cx="2109.5" cy="315.6016" fill="#84BE84" rx="3" ry="3" style="stroke:#038048;stroke-width:1.0;"/><text fill="#000000" font-family="sans-serif" font-size="14" lengthAdjust="spacing" textLength="342" x="2118.5" y="318.9551">jobOpeningByCustomerManager() : List&lt;JobOpening&gt;</text></g><!--class Factory--><g id="elem_Factory"><rect codeLine="23" fill="#F1F1F1" height="79.2813" id="Factory" rx="2.5" ry="2.5" style="stroke:#181818;stroke-width:0.5;" width="250" x="2246" y="386.6406"/><ellipse cx="2308.75" cy="402.6406" fill="#B4A7E5" rx="11" ry="11" style="stroke:#181818;stroke-width:1.0;"/><path d="M2309.7031,399.2813 L2309.7031,405.9375 L2311.4219,405.9375 Q2312.0313,405.9375 2312.2969,406.1719 Q2312.5625,406.4063 2312.5625,406.7969 Q2312.5625,407.1719 2312.2969,407.4063 Q2312.0313,407.6406 2311.4219,407.6406 L2306.2813,407.6406 Q2305.6719,407.6406 2305.4063,407.4063 Q2305.1406,407.1719 2305.1406,406.7813 Q2305.1406,406.4063 2305.4063,406.1719 Q2305.6719,405.9375 2306.2813,405.9375 L2308,405.9375 L2308,399.2813 L2306.2813,399.2813 Q2305.6719,399.2813 2305.4063,399.0469 Q2305.1406,398.8125 2305.1406,398.4219 Q2305.1406,398.0469 2305.4063,397.8125 Q2305.6719,397.5781 2306.2813,397.5781 L2311.4219,397.5781 Q2312.0313,397.5781 2312.2969,397.8125 Q2312.5625,398.0469 2312.5625,398.4219 Q2312.5625,398.8125 2312.2969,399.0469 Q2312.0313,399.2813 2311.4219,399.2813 L2309.7031,399.2813 Z " fill="#000000"/><text fill="#000000" font-family="sans-serif" font-size="14" font-style="italic" lengthAdjust="spacing" textLength="116" x="2329.25" y="407.4941">RepositoryFactory</text><line style="stroke:#181818;stroke-width:0.5;" x1="2247" x2="2495" y1="418.6406" y2="418.6406"/><line style="stroke:#181818;stroke-width:0.5;" x1="2247" x2="2495" y1="426.6406" y2="426.6406"/><text fill="#000000" font-family="sans-serif" font-size="14" lengthAdjust="spacing" textLength="90" x="2252" y="443.3145">jobOpenings()</text><text fill="#000000" font-family="sans-serif" font-size="14" lengthAdjust="spacing" textLength="238" x="2252" y="458.9551">jobOpenings(TransactionalContext tx)</text></g><!--class JobOpeningRepository--><g id="elem_JobOpeningRepository"><rect codeLine="29" fill="#F1F1F1" height="79.2813" id="JobOpeningRepository" rx="2.5" ry="2.5" style="stroke:#181818;stroke-width:0.5;" width="177" x="2371.5" y="526.6406"/><ellipse cx="2386.5" cy="542.6406" fill="#B4A7E5" rx="11" ry="11" style="stroke:#181818;stroke-width:1.0;"/><path d="M2387.4531,539.2813 L2387.4531,545.9375 L2389.1719,545.9375 Q2389.7813,545.9375 2390.0469,546.1719 Q2390.3125,546.4063 2390.3125,546.7969 Q2390.3125,547.1719 2390.0469,547.4063 Q2389.7813,547.6406 2389.1719,547.6406 L2384.0313,547.6406 Q2383.4219,547.6406 2383.1563,547.4063 Q2382.8906,547.1719 2382.8906,546.7813 Q2382.8906,546.4063 2383.1563,546.1719 Q2383.4219,545.9375 2384.0313,545.9375 L2385.75,545.9375 L2385.75,539.2813 L2384.0313,539.2813 Q2383.4219,539.2813 2383.1563,539.0469 Q2382.8906,538.8125 2382.8906,538.4219 Q2382.8906,538.0469 2383.1563,537.8125 Q2383.4219,537.5781 2384.0313,537.5781 L2389.1719,537.5781 Q2389.7813,537.5781 2390.0469,537.8125 Q2390.3125,538.0469 2390.3125,538.4219 Q2390.3125,538.8125 2390.0469,539.0469 Q2389.7813,539.2813 2389.1719,539.2813 L2387.4531,539.2813 Z " fill="#000000"/><text fill="#000000" font-family="sans-serif" font-size="14" font-style="italic" lengthAdjust="spacing" textLength="145" x="2400.5" y="547.4941">JobOpeningRepository</text><line style="stroke:#181818;stroke-width:0.5;" x1="2372.5" x2="2547.5" y1="558.6406" y2="558.6406"/><line style="stroke:#181818;stroke-width:0.5;" x1="2372.5" x2="2547.5" y1="566.6406" y2="566.6406"/><text fill="#000000" font-family="sans-serif" font-size="14" lengthAdjust="spacing" textLength="90" x="2377.5" y="583.3145">jobOpenings()</text><text fill="#000000" font-family="sans-serif" font-size="14" lengthAdjust="spacing" textLength="48" x="2377.5" y="598.9551">findAll()</text></g><!--class JobOpening--><g id="elem_JobOpening"><rect codeLine="35" fill="#F1F1F1" height="251.3281" id="JobOpening" rx="2.5" ry="2.5" style="stroke:#181818;stroke-width:0.5;" width="304" x="2308" y="681.6406"/><ellipse cx="2417.75" cy="697.6406" fill="#ADD1B2" rx="11" ry="11" style="stroke:#181818;stroke-width:1.0;"/><path d="M2420.5156,693.5156 Q2420.6719,693.2969 2420.8594,693.1875 Q2421.0469,693.0781 2421.2656,693.0781 Q2421.6406,693.0781 2421.875,693.3438 Q2422.1094,693.5938 2422.1094,694.2031 L2422.1094,695.6563 Q2422.1094,696.2656 2421.875,696.5313 Q2421.6406,696.7969 2421.2656,696.7969 Q2420.9219,696.7969 2420.7188,696.5938 Q2420.5156,696.4063 2420.4063,695.8906 Q2420.3594,695.5313 2420.1719,695.3438 Q2419.8438,694.9688 2419.2344,694.75 Q2418.625,694.5313 2418,694.5313 Q2417.2344,694.5313 2416.5938,694.8594 Q2415.9688,695.1875 2415.4688,695.9375 Q2414.9844,696.6875 2414.9844,697.7188 L2414.9844,698.8125 Q2414.9844,700.0469 2415.875,700.875 Q2416.7656,701.6875 2418.3594,701.6875 Q2419.2969,701.6875 2419.9531,701.4375 Q2420.3438,701.2813 2420.7656,700.8438 Q2421.0313,700.5781 2421.1719,700.5 Q2421.3281,700.4219 2421.5313,700.4219 Q2421.8594,700.4219 2422.1094,700.6875 Q2422.375,700.9375 2422.375,701.2813 Q2422.375,701.625 2422.0313,702.0313 Q2421.5313,702.6094 2420.7344,702.9375 Q2419.6563,703.3906 2418.3594,703.3906 Q2416.8438,703.3906 2415.6406,702.7656 Q2414.6563,702.2656 2413.9688,701.2031 Q2413.2813,700.125 2413.2813,698.8438 L2413.2813,697.6875 Q2413.2813,696.3594 2413.8906,695.2188 Q2414.5156,694.0625 2415.6094,693.4531 Q2416.7031,692.8281 2417.9375,692.8281 Q2418.6719,692.8281 2419.3125,693 Q2419.9688,693.1563 2420.5156,693.5156 Z " fill="#000000"/><text fill="#000000" font-family="sans-serif" font-size="14" lengthAdjust="spacing" textLength="76" x="2438.25" y="702.4941">JobOpening</text><line style="stroke:#181818;stroke-width:0.5;" x1="2309" x2="2611" y1="713.6406" y2="713.6406"/><rect fill="none" height="6" style="stroke:#C82930;stroke-width:1.0;" width="6" x="2316" y="723.9609"/><text fill="#000000" font-family="sans-serif" font-size="14" lengthAdjust="spacing" textLength="185" x="2328" y="730.3145">jobReference : JobReference</text><rect fill="none" height="6" style="stroke:#C82930;stroke-width:1.0;" width="6" x="2316" y="739.6016"/><text fill="#000000" font-family="sans-serif" font-size="14" lengthAdjust="spacing" textLength="269" x="2328" y="745.9551">numberOfVacancies : NumberOfVacancies</text><rect fill="none" height="6" style="stroke:#C82930;stroke-width:1.0;" width="6" x="2316" y="755.2422"/><text fill="#000000" font-family="sans-serif" font-size="14" lengthAdjust="spacing" textLength="163" x="2328" y="761.5957">jobFunction : JobFunction</text><rect fill="none" height="6" style="stroke:#C82930;stroke-width:1.0;" width="6" x="2316" y="770.8828"/><text fill="#000000" font-family="sans-serif" font-size="14" lengthAdjust="spacing" textLength="181" x="2328" y="777.2363">contractType : ContractType</text><rect fill="none" height="6" style="stroke:#C82930;stroke-width:1.0;" width="6" x="2316" y="786.5234"/><text fill="#000000" font-family="sans-serif" font-size="14" lengthAdjust="spacing" textLength="82" x="2328" y="792.877">mode : Mode</text><rect fill="none" height="6" style="stroke:#C82930;stroke-width:1.0;" width="6" x="2316" y="802.1641"/><text fill="#000000" font-family="sans-serif" font-size="14" lengthAdjust="spacing" textLength="115" x="2328" y="808.5176">address : Address</text><rect fill="none" height="6" style="stroke:#C82930;stroke-width:1.0;" width="6" x="2316" y="817.8047"/><text fill="#000000" font-family="sans-serif" font-size="14" lengthAdjust="spacing" textLength="166" x="2328" y="824.1582">companyName : Customer</text><rect fill="none" height="6" style="stroke:#C82930;stroke-width:1.0;" width="6" x="2316" y="833.4453"/><text fill="#000000" font-family="sans-serif" font-size="14" lengthAdjust="spacing" textLength="148" x="2328" y="839.7988">description :Description</text><rect fill="none" height="6" style="stroke:#C82930;stroke-width:1.0;" width="6" x="2316" y="849.0859"/><text fill="#000000" font-family="sans-serif" font-size="14" lengthAdjust="spacing" textLength="171" x="2328" y="855.4395">registrationDate : Calendar</text><rect fill="none" height="6" style="stroke:#C82930;stroke-width:1.0;" width="6" x="2316" y="864.7266"/><text fill="#000000" font-family="sans-serif" font-size="14" lengthAdjust="spacing" textLength="261" x="2328" y="871.0801">recruitmentProcess : RecruitmentProcess</text><rect fill="none" height="6" style="stroke:#C82930;stroke-width:1.0;" width="6" x="2316" y="880.3672"/><text fill="#000000" font-family="sans-serif" font-size="14" lengthAdjust="spacing" textLength="173" x="2328" y="886.7207">requirementsPlugin : Plugin</text><rect fill="none" height="6" style="stroke:#C82930;stroke-width:1.0;" width="6" x="2316" y="896.0078"/><text fill="#000000" font-family="sans-serif" font-size="14" lengthAdjust="spacing" textLength="145" x="2328" y="902.3613">interviewPlugin : Plugin</text><line style="stroke:#181818;stroke-width:0.5;" x1="2309" x2="2611" y1="909.3281" y2="909.3281"/><ellipse cx="2319" cy="922.6484" fill="#84BE84" rx="3" ry="3" style="stroke:#038048;stroke-width:1.0;"/><text fill="#000000" font-family="sans-serif" font-size="14" lengthAdjust="spacing" textLength="278" x="2328" y="926.002">setRecruitmentProcess(recruitmentProcess)</text></g><!--class JobReference--><g id="elem_JobReference"><rect codeLine="54" fill="#F1F1F1" height="63.6406" id="JobReference" rx="2.5" ry="2.5" style="stroke:#181818;stroke-width:0.5;" width="167" x="1478.5" y="1032.6406"/><ellipse cx="1514.65" cy="1048.6406" fill="#ADD1B2" rx="11" ry="11" style="stroke:#181818;stroke-width:1.0;"/><path d="M1517.4156,1044.5156 Q1517.5719,1044.2969 1517.7594,1044.1875 Q1517.9469,1044.0781 1518.1656,1044.0781 Q1518.5406,1044.0781 1518.775,1044.3438 Q1519.0094,1044.5938 1519.0094,1045.2031 L1519.0094,1046.6563 Q1519.0094,1047.2656 1518.775,1047.5313 Q1518.5406,1047.7969 1518.1656,1047.7969 Q1517.8219,1047.7969 1517.6188,1047.5938 Q1517.4156,1047.4063 1517.3063,1046.8906 Q1517.2594,1046.5313 1517.0719,1046.3438 Q1516.7438,1045.9688 1516.1344,1045.75 Q1515.525,1045.5313 1514.9,1045.5313 Q1514.1344,1045.5313 1513.4938,1045.8594 Q1512.8688,1046.1875 1512.3688,1046.9375 Q1511.8844,1047.6875 1511.8844,1048.7188 L1511.8844,1049.8125 Q1511.8844,1051.0469 1512.775,1051.875 Q1513.6656,1052.6875 1515.2594,1052.6875 Q1516.1969,1052.6875 1516.8531,1052.4375 Q1517.2438,1052.2813 1517.6656,1051.8438 Q1517.9313,1051.5781 1518.0719,1051.5 Q1518.2281,1051.4219 1518.4313,1051.4219 Q1518.7594,1051.4219 1519.0094,1051.6875 Q1519.275,1051.9375 1519.275,1052.2813 Q1519.275,1052.625 1518.9313,1053.0313 Q1518.4313,1053.6094 1517.6344,1053.9375 Q1516.5563,1054.3906 1515.2594,1054.3906 Q1513.7438,1054.3906 1512.5406,1053.7656 Q1511.5563,1053.2656 1510.8688,1052.2031 Q1510.1813,1051.125 1510.1813,1049.8438 L1510.1813,1048.6875 Q1510.1813,1047.3594 1510.7906,1046.2188 Q1511.4156,1045.0625 1512.5094,1044.4531 Q1513.6031,1043.8281 1514.8375,1043.8281 Q1515.5719,1043.8281 1516.2125,1044 Q1516.8688,1044.1563 1517.4156,1044.5156 Z " fill="#000000"/><text fill="#000000" font-family="sans-serif" font-size="14" lengthAdjust="spacing" textLength="88" x="1533.35" y="1053.4941">JobReference</text><line style="stroke:#181818;stroke-width:0.5;" x1="1479.5" x2="1644.5" y1="1064.6406" y2="1064.6406"/><rect fill="none" height="6" style="stroke:#C82930;stroke-width:1.0;" width="6" x="1486.5" y="1074.9609"/><text fill="#000000" font-family="sans-serif" font-size="14" lengthAdjust="spacing" textLength="141" x="1498.5" y="1081.3145">jobReference : Integer</text><line style="stroke:#181818;stroke-width:0.5;" x1="1479.5" x2="1644.5" y1="1088.2813" y2="1088.2813"/></g><!--class JobFunction--><g id="elem_JobFunction"><rect codeLine="58" fill="#F1F1F1" height="63.6406" id="JobFunction" rx="2.5" ry="2.5" style="stroke:#181818;stroke-width:0.5;" width="165" x="1680.5" y="1032.6406"/><ellipse cx="1720.7" cy="1048.6406" fill="#ADD1B2" rx="11" ry="11" style="stroke:#181818;stroke-width:1.0;"/><path d="M1723.4656,1044.5156 Q1723.6219,1044.2969 1723.8094,1044.1875 Q1723.9969,1044.0781 1724.2156,1044.0781 Q1724.5906,1044.0781 1724.825,1044.3438 Q1725.0594,1044.5938 1725.0594,1045.2031 L1725.0594,1046.6563 Q1725.0594,1047.2656 1724.825,1047.5313 Q1724.5906,1047.7969 1724.2156,1047.7969 Q1723.8719,1047.7969 1723.6688,1047.5938 Q1723.4656,1047.4063 1723.3563,1046.8906 Q1723.3094,1046.5313 1723.1219,1046.3438 Q1722.7938,1045.9688 1722.1844,1045.75 Q1721.575,1045.5313 1720.95,1045.5313 Q1720.1844,1045.5313 1719.5438,1045.8594 Q1718.9188,1046.1875 1718.4188,1046.9375 Q1717.9344,1047.6875 1717.9344,1048.7188 L1717.9344,1049.8125 Q1717.9344,1051.0469 1718.825,1051.875 Q1719.7156,1052.6875 1721.3094,1052.6875 Q1722.2469,1052.6875 1722.9031,1052.4375 Q1723.2938,1052.2813 1723.7156,1051.8438 Q1723.9813,1051.5781 1724.1219,1051.5 Q1724.2781,1051.4219 1724.4813,1051.4219 Q1724.8094,1051.4219 1725.0594,1051.6875 Q1725.325,1051.9375 1725.325,1052.2813 Q1725.325,1052.625 1724.9813,1053.0313 Q1724.4813,1053.6094 1723.6844,1053.9375 Q1722.6063,1054.3906 1721.3094,1054.3906 Q1719.7938,1054.3906 1718.5906,1053.7656 Q1717.6063,1053.2656 1716.9188,1052.2031 Q1716.2313,1051.125 1716.2313,1049.8438 L1716.2313,1048.6875 Q1716.2313,1047.3594 1716.8406,1046.2188 Q1717.4656,1045.0625 1718.5594,1044.4531 Q1719.6531,1043.8281 1720.8875,1043.8281 Q1721.6219,1043.8281 1722.2625,1044 Q1722.9188,1044.1563 1723.4656,1044.5156 Z " fill="#000000"/><text fill="#000000" font-family="sans-serif" font-size="14" lengthAdjust="spacing" textLength="77" x="1740.3" y="1053.4941">JobFunction</text><line style="stroke:#181818;stroke-width:0.5;" x1="1681.5" x2="1844.5" y1="1064.6406" y2="1064.6406"/><rect fill="none" height="6" style="stroke:#C82930;stroke-width:1.0;" width="6" x="1688.5" y="1074.9609"/><text fill="#000000" font-family="sans-serif" font-size="14" lengthAdjust="spacing" textLength="139" x="1700.5" y="1081.3145">jobDescription : String</text><line style="stroke:#181818;stroke-width:0.5;" x1="1681.5" x2="1844.5" y1="1088.2813" y2="1088.2813"/></g><!--class NumberOfVacancies--><g id="elem_NumberOfVacancies"><rect codeLine="62" fill="#F1F1F1" height="63.6406" id="NumberOfVacancies" rx="2.5" ry="2.5" style="stroke:#181818;stroke-width:0.5;" width="161" x="1880.5" y="1032.6406"/><ellipse cx="1895.5" cy="1048.6406" fill="#ADD1B2" rx="11" ry="11" style="stroke:#181818;stroke-width:1.0;"/><path d="M1898.2656,1044.5156 Q1898.4219,1044.2969 1898.6094,1044.1875 Q1898.7969,1044.0781 1899.0156,1044.0781 Q1899.3906,1044.0781 1899.625,1044.3438 Q1899.8594,1044.5938 1899.8594,1045.2031 L1899.8594,1046.6563 Q1899.8594,1047.2656 1899.625,1047.5313 Q1899.3906,1047.7969 1899.0156,1047.7969 Q1898.6719,1047.7969 1898.4688,1047.5938 Q1898.2656,1047.4063 1898.1563,1046.8906 Q1898.1094,1046.5313 1897.9219,1046.3438 Q1897.5938,1045.9688 1896.9844,1045.75 Q1896.375,1045.5313 1895.75,1045.5313 Q1894.9844,1045.5313 1894.3438,1045.8594 Q1893.7188,1046.1875 1893.2188,1046.9375 Q1892.7344,1047.6875 1892.7344,1048.7188 L1892.7344,1049.8125 Q1892.7344,1051.0469 1893.625,1051.875 Q1894.5156,1052.6875 1896.1094,1052.6875 Q1897.0469,1052.6875 1897.7031,1052.4375 Q1898.0938,1052.2813 1898.5156,1051.8438 Q1898.7813,1051.5781 1898.9219,1051.5 Q1899.0781,1051.4219 1899.2813,1051.4219 Q1899.6094,1051.4219 1899.8594,1051.6875 Q1900.125,1051.9375 1900.125,1052.2813 Q1900.125,1052.625 1899.7813,1053.0313 Q1899.2813,1053.6094 1898.4844,1053.9375 Q1897.4063,1054.3906 1896.1094,1054.3906 Q1894.5938,1054.3906 1893.3906,1053.7656 Q1892.4063,1053.2656 1891.7188,1052.2031 Q1891.0313,1051.125 1891.0313,1049.8438 L1891.0313,1048.6875 Q1891.0313,1047.3594 1891.6406,1046.2188 Q1892.2656,1045.0625 1893.3594,1044.4531 Q1894.4531,1043.8281 1895.6875,1043.8281 Q1896.4219,1043.8281 1897.0625,1044 Q1897.7188,1044.1563 1898.2656,1044.5156 Z " fill="#000000"/><text fill="#000000" font-family="sans-serif" font-size="14" lengthAdjust="spacing" textLength="129" x="1909.5" y="1053.4941">NumberOfVacancies</text><line style="stroke:#181818;stroke-width:0.5;" x1="1881.5" x2="2040.5" y1="1064.6406" y2="1064.6406"/><rect fill="none" height="6" style="stroke:#C82930;stroke-width:1.0;" width="6" x="1888.5" y="1074.9609"/><text fill="#000000" font-family="sans-serif" font-size="14" lengthAdjust="spacing" textLength="104" x="1900.5" y="1081.3145">number : Integer</text><line style="stroke:#181818;stroke-width:0.5;" x1="1881.5" x2="2040.5" y1="1088.2813" y2="1088.2813"/></g><!--class ContractType--><g id="elem_ContractType"><rect codeLine="66" fill="#F1F1F1" height="63.6406" id="ContractType" rx="2.5" ry="2.5" style="stroke:#181818;stroke-width:0.5;" width="158" x="2077" y="1032.6406"/><ellipse cx="2110" cy="1048.6406" fill="#ADD1B2" rx="11" ry="11" style="stroke:#181818;stroke-width:1.0;"/><path d="M2112.7656,1044.5156 Q2112.9219,1044.2969 2113.1094,1044.1875 Q2113.2969,1044.0781 2113.5156,1044.0781 Q2113.8906,1044.0781 2114.125,1044.3438 Q2114.3594,1044.5938 2114.3594,1045.2031 L2114.3594,1046.6563 Q2114.3594,1047.2656 2114.125,1047.5313 Q2113.8906,1047.7969 2113.5156,1047.7969 Q2113.1719,1047.7969 2112.9688,1047.5938 Q2112.7656,1047.4063 2112.6563,1046.8906 Q2112.6094,1046.5313 2112.4219,1046.3438 Q2112.0938,1045.9688 2111.4844,1045.75 Q2110.875,1045.5313 2110.25,1045.5313 Q2109.4844,1045.5313 2108.8438,1045.8594 Q2108.2188,1046.1875 2107.7188,1046.9375 Q2107.2344,1047.6875 2107.2344,1048.7188 L2107.2344,1049.8125 Q2107.2344,1051.0469 2108.125,1051.875 Q2109.0156,1052.6875 2110.6094,1052.6875 Q2111.5469,1052.6875 2112.2031,1052.4375 Q2112.5938,1052.2813 2113.0156,1051.8438 Q2113.2813,1051.5781 2113.4219,1051.5 Q2113.5781,1051.4219 2113.7813,1051.4219 Q2114.1094,1051.4219 2114.3594,1051.6875 Q2114.625,1051.9375 2114.625,1052.2813 Q2114.625,1052.625 2114.2813,1053.0313 Q2113.7813,1053.6094 2112.9844,1053.9375 Q2111.9063,1054.3906 2110.6094,1054.3906 Q2109.0938,1054.3906 2107.8906,1053.7656 Q2106.9063,1053.2656 2106.2188,1052.2031 Q2105.5313,1051.125 2105.5313,1049.8438 L2105.5313,1048.6875 Q2105.5313,1047.3594 2106.1406,1046.2188 Q2106.7656,1045.0625 2107.8594,1044.4531 Q2108.9531,1043.8281 2110.1875,1043.8281 Q2110.9219,1043.8281 2111.5625,1044 Q2112.2188,1044.1563 2112.7656,1044.5156 Z " fill="#000000"/><text fill="#000000" font-family="sans-serif" font-size="14" lengthAdjust="spacing" textLength="86" x="2128" y="1053.4941">ContractType</text><line style="stroke:#181818;stroke-width:0.5;" x1="2078" x2="2234" y1="1064.6406" y2="1064.6406"/><rect fill="none" height="6" style="stroke:#C82930;stroke-width:1.0;" width="6" x="2085" y="1074.9609"/><text fill="#000000" font-family="sans-serif" font-size="14" lengthAdjust="spacing" textLength="132" x="2097" y="1081.3145">contractType : String</text><line style="stroke:#181818;stroke-width:0.5;" x1="2078" x2="2234" y1="1088.2813" y2="1088.2813"/></g><!--class Mode--><g id="elem_Mode"><rect codeLine="71" fill="#F1F1F1" height="63.6406" id="Mode" rx="2.5" ry="2.5" style="stroke:#181818;stroke-width:0.5;" width="181" x="2270.5" y="1032.6406"/><ellipse cx="2339.25" cy="1048.6406" fill="#ADD1B2" rx="11" ry="11" style="stroke:#181818;stroke-width:1.0;"/><path d="M2342.0156,1044.5156 Q2342.1719,1044.2969 2342.3594,1044.1875 Q2342.5469,1044.0781 2342.7656,1044.0781 Q2343.1406,1044.0781 2343.375,1044.3438 Q2343.6094,1044.5938 2343.6094,1045.2031 L2343.6094,1046.6563 Q2343.6094,1047.2656 2343.375,1047.5313 Q2343.1406,1047.7969 2342.7656,1047.7969 Q2342.4219,1047.7969 2342.2188,1047.5938 Q2342.0156,1047.4063 2341.9063,1046.8906 Q2341.8594,1046.5313 2341.6719,1046.3438 Q2341.3438,1045.9688 2340.7344,1045.75 Q2340.125,1045.5313 2339.5,1045.5313 Q2338.7344,1045.5313 2338.0938,1045.8594 Q2337.4688,1046.1875 2336.9688,1046.9375 Q2336.4844,1047.6875 2336.4844,1048.7188 L2336.4844,1049.8125 Q2336.4844,1051.0469 2337.375,1051.875 Q2338.2656,1052.6875 2339.8594,1052.6875 Q2340.7969,1052.6875 2341.4531,1052.4375 Q2341.8438,1052.2813 2342.2656,1051.8438 Q2342.5313,1051.5781 2342.6719,1051.5 Q2342.8281,1051.4219 2343.0313,1051.4219 Q2343.3594,1051.4219 2343.6094,1051.6875 Q2343.875,1051.9375 2343.875,1052.2813 Q2343.875,1052.625 2343.5313,1053.0313 Q2343.0313,1053.6094 2342.2344,1053.9375 Q2341.1563,1054.3906 2339.8594,1054.3906 Q2338.3438,1054.3906 2337.1406,1053.7656 Q2336.1563,1053.2656 2335.4688,1052.2031 Q2334.7813,1051.125 2334.7813,1049.8438 L2334.7813,1048.6875 Q2334.7813,1047.3594 2335.3906,1046.2188 Q2336.0156,1045.0625 2337.1094,1044.4531 Q2338.2031,1043.8281 2339.4375,1043.8281 Q2340.1719,1043.8281 2340.8125,1044 Q2341.4688,1044.1563 2342.0156,1044.5156 Z " fill="#000000"/><text fill="#000000" font-family="sans-serif" font-size="14" lengthAdjust="spacing" textLength="35" x="2359.75" y="1053.4941">Mode</text><line style="stroke:#181818;stroke-width:0.5;" x1="2271.5" x2="2450.5" y1="1064.6406" y2="1064.6406"/><rect fill="none" height="6" style="stroke:#C82930;stroke-width:1.0;" width="6" x="2278.5" y="1074.9609"/><text fill="#000000" font-family="sans-serif" font-size="14" lengthAdjust="spacing" textLength="155" x="2290.5" y="1081.3145">modeDescription : String</text><line style="stroke:#181818;stroke-width:0.5;" x1="2271.5" x2="2450.5" y1="1088.2813" y2="1088.2813"/></g><!--class Description--><g id="elem_Description"><rect codeLine="75" fill="#F1F1F1" height="63.6406" id="Description" rx="2.5" ry="2.5" style="stroke:#181818;stroke-width:0.5;" width="144" x="2487" y="1032.6406"/><ellipse cx="2520.45" cy="1048.6406" fill="#ADD1B2" rx="11" ry="11" style="stroke:#181818;stroke-width:1.0;"/><path d="M2523.2156,1044.5156 Q2523.3719,1044.2969 2523.5594,1044.1875 Q2523.7469,1044.0781 2523.9656,1044.0781 Q2524.3406,1044.0781 2524.575,1044.3438 Q2524.8094,1044.5938 2524.8094,1045.2031 L2524.8094,1046.6563 Q2524.8094,1047.2656 2524.575,1047.5313 Q2524.3406,1047.7969 2523.9656,1047.7969 Q2523.6219,1047.7969 2523.4188,1047.5938 Q2523.2156,1047.4063 2523.1063,1046.8906 Q2523.0594,1046.5313 2522.8719,1046.3438 Q2522.5438,1045.9688 2521.9344,1045.75 Q2521.325,1045.5313 2520.7,1045.5313 Q2519.9344,1045.5313 2519.2938,1045.8594 Q2518.6688,1046.1875 2518.1688,1046.9375 Q2517.6844,1047.6875 2517.6844,1048.7188 L2517.6844,1049.8125 Q2517.6844,1051.0469 2518.575,1051.875 Q2519.4656,1052.6875 2521.0594,1052.6875 Q2521.9969,1052.6875 2522.6531,1052.4375 Q2523.0438,1052.2813 2523.4656,1051.8438 Q2523.7313,1051.5781 2523.8719,1051.5 Q2524.0281,1051.4219 2524.2313,1051.4219 Q2524.5594,1051.4219 2524.8094,1051.6875 Q2525.075,1051.9375 2525.075,1052.2813 Q2525.075,1052.625 2524.7313,1053.0313 Q2524.2313,1053.6094 2523.4344,1053.9375 Q2522.3563,1054.3906 2521.0594,1054.3906 Q2519.5438,1054.3906 2518.3406,1053.7656 Q2517.3563,1053.2656 2516.6688,1052.2031 Q2515.9813,1051.125 2515.9813,1049.8438 L2515.9813,1048.6875 Q2515.9813,1047.3594 2516.5906,1046.2188 Q2517.2156,1045.0625 2518.3094,1044.4531 Q2519.4031,1043.8281 2520.6375,1043.8281 Q2521.3719,1043.8281 2522.0125,1044 Q2522.6688,1044.1563 2523.2156,1044.5156 Z " fill="#000000"/><text fill="#000000" font-family="sans-serif" font-size="14" lengthAdjust="spacing" textLength="71" x="2538.55" y="1053.4941">Description</text><line style="stroke:#181818;stroke-width:0.5;" x1="2488" x2="2630" y1="1064.6406" y2="1064.6406"/><rect fill="none" height="6" style="stroke:#C82930;stroke-width:1.0;" width="6" x="2495" y="1074.9609"/><text fill="#000000" font-family="sans-serif" font-size="14" lengthAdjust="spacing" textLength="118" x="2507" y="1081.3145">description : String</text><line style="stroke:#181818;stroke-width:0.5;" x1="2488" x2="2630" y1="1088.2813" y2="1088.2813"/></g><!--class Plugin--><g id="elem_Plugin"><rect codeLine="79" fill="#F1F1F1" height="126.2031" id="Plugin" rx="2.5" ry="2.5" style="stroke:#181818;stroke-width:0.5;" width="317" x="2666.5" y="1001.6406"/><ellipse cx="2801.25" cy="1017.6406" fill="#ADD1B2" rx="11" ry="11" style="stroke:#181818;stroke-width:1.0;"/><path d="M2804.0156,1013.5156 Q2804.1719,1013.2969 2804.3594,1013.1875 Q2804.5469,1013.0781 2804.7656,1013.0781 Q2805.1406,1013.0781 2805.375,1013.3438 Q2805.6094,1013.5938 2805.6094,1014.2031 L2805.6094,1015.6563 Q2805.6094,1016.2656 2805.375,1016.5313 Q2805.1406,1016.7969 2804.7656,1016.7969 Q2804.4219,1016.7969 2804.2188,1016.5938 Q2804.0156,1016.4063 2803.9063,1015.8906 Q2803.8594,1015.5313 2803.6719,1015.3438 Q2803.3438,1014.9688 2802.7344,1014.75 Q2802.125,1014.5313 2801.5,1014.5313 Q2800.7344,1014.5313 2800.0938,1014.8594 Q2799.4688,1015.1875 2798.9688,1015.9375 Q2798.4844,1016.6875 2798.4844,1017.7188 L2798.4844,1018.8125 Q2798.4844,1020.0469 2799.375,1020.875 Q2800.2656,1021.6875 2801.8594,1021.6875 Q2802.7969,1021.6875 2803.4531,1021.4375 Q2803.8438,1021.2813 2804.2656,1020.8438 Q2804.5313,1020.5781 2804.6719,1020.5 Q2804.8281,1020.4219 2805.0313,1020.4219 Q2805.3594,1020.4219 2805.6094,1020.6875 Q2805.875,1020.9375 2805.875,1021.2813 Q2805.875,1021.625 2805.5313,1022.0313 Q2805.0313,1022.6094 2804.2344,1022.9375 Q2803.1563,1023.3906 2801.8594,1023.3906 Q2800.3438,1023.3906 2799.1406,1022.7656 Q2798.1563,1022.2656 2797.4688,1021.2031 Q2796.7813,1020.125 2796.7813,1018.8438 L2796.7813,1017.6875 Q2796.7813,1016.3594 2797.3906,1015.2188 Q2798.0156,1014.0625 2799.1094,1013.4531 Q2800.2031,1012.8281 2801.4375,1012.8281 Q2802.1719,1012.8281 2802.8125,1013 Q2803.4688,1013.1563 2804.0156,1013.5156 Z " fill="#000000"/><text fill="#000000" font-family="sans-serif" font-size="14" lengthAdjust="spacing" textLength="39" x="2821.75" y="1022.4941">Plugin</text><line style="stroke:#181818;stroke-width:0.5;" x1="2667.5" x2="2982.5" y1="1033.6406" y2="1033.6406"/><rect fill="none" height="6" style="stroke:#C82930;stroke-width:1.0;" width="6" x="2674.5" y="1043.9609"/><text fill="#000000" font-family="sans-serif" font-size="14" lengthAdjust="spacing" textLength="156" x="2686.5" y="1050.3145">pluginID : PluginIdentifier</text><rect fill="none" height="6" style="stroke:#C82930;stroke-width:1.0;" width="6" x="2674.5" y="1059.6016"/><text fill="#000000" font-family="sans-serif" font-size="14" lengthAdjust="spacing" textLength="153" x="2686.5" y="1065.9551">pluginType : PluginType</text><rect fill="none" height="6" style="stroke:#C82930;stroke-width:1.0;" width="6" x="2674.5" y="1075.2422"/><text fill="#000000" font-family="sans-serif" font-size="14" lengthAdjust="spacing" textLength="152" x="2686.5" y="1081.5957">description : Description</text><rect fill="none" height="6" style="stroke:#C82930;stroke-width:1.0;" width="6" x="2674.5" y="1090.8828"/><text fill="#000000" font-family="sans-serif" font-size="14" lengthAdjust="spacing" textLength="291" x="2686.5" y="1097.2363">pluginMainClassName : PluginMainClassName</text><rect fill="none" height="6" style="stroke:#C82930;stroke-width:1.0;" width="6" x="2674.5" y="1106.5234"/><text fill="#000000" font-family="sans-serif" font-size="14" lengthAdjust="spacing" textLength="165" x="2686.5" y="1112.877">jarFileName : JarFileName</text><line style="stroke:#181818;stroke-width:0.5;" x1="2667.5" x2="2982.5" y1="1119.8438" y2="1119.8438"/></g><!--class Customer--><g id="elem_Customer"><rect codeLine="88" fill="#F1F1F1" height="110.5625" id="Customer" rx="2.5" ry="2.5" style="stroke:#181818;stroke-width:0.5;" width="227" x="3018.5" y="1009.1406"/><ellipse cx="3097.25" cy="1025.1406" fill="#ADD1B2" rx="11" ry="11" style="stroke:#181818;stroke-width:1.0;"/><path d="M3100.0156,1021.0156 Q3100.1719,1020.7969 3100.3594,1020.6875 Q3100.5469,1020.5781 3100.7656,1020.5781 Q3101.1406,1020.5781 3101.375,1020.8438 Q3101.6094,1021.0938 3101.6094,1021.7031 L3101.6094,1023.1563 Q3101.6094,1023.7656 3101.375,1024.0313 Q3101.1406,1024.2969 3100.7656,1024.2969 Q3100.4219,1024.2969 3100.2188,1024.0938 Q3100.0156,1023.9063 3099.9063,1023.3906 Q3099.8594,1023.0313 3099.6719,1022.8438 Q3099.3438,1022.4688 3098.7344,1022.25 Q3098.125,1022.0313 3097.5,1022.0313 Q3096.7344,1022.0313 3096.0938,1022.3594 Q3095.4688,1022.6875 3094.9688,1023.4375 Q3094.4844,1024.1875 3094.4844,1025.2188 L3094.4844,1026.3125 Q3094.4844,1027.5469 3095.375,1028.375 Q3096.2656,1029.1875 3097.8594,1029.1875 Q3098.7969,1029.1875 3099.4531,1028.9375 Q3099.8438,1028.7813 3100.2656,1028.3438 Q3100.5313,1028.0781 3100.6719,1028 Q3100.8281,1027.9219 3101.0313,1027.9219 Q3101.3594,1027.9219 3101.6094,1028.1875 Q3101.875,1028.4375 3101.875,1028.7813 Q3101.875,1029.125 3101.5313,1029.5313 Q3101.0313,1030.1094 3100.2344,1030.4375 Q3099.1563,1030.8906 3097.8594,1030.8906 Q3096.3438,1030.8906 3095.1406,1030.2656 Q3094.1563,1029.7656 3093.4688,1028.7031 Q3092.7813,1027.625 3092.7813,1026.3438 L3092.7813,1025.1875 Q3092.7813,1023.8594 3093.3906,1022.7188 Q3094.0156,1021.5625 3095.1094,1020.9531 Q3096.2031,1020.3281 3097.4375,1020.3281 Q3098.1719,1020.3281 3098.8125,1020.5 Q3099.4688,1020.6563 3100.0156,1021.0156 Z " fill="#000000"/><text fill="#000000" font-family="sans-serif" font-size="14" lengthAdjust="spacing" textLength="61" x="3117.75" y="1029.9941">Customer</text><line style="stroke:#181818;stroke-width:0.5;" x1="3019.5" x2="3244.5" y1="1041.1406" y2="1041.1406"/><rect fill="none" height="6" style="stroke:#C82930;stroke-width:1.0;" width="6" x="3026.5" y="1051.4609"/><text fill="#000000" font-family="sans-serif" font-size="14" lengthAdjust="spacing" textLength="160" x="3038.5" y="1057.8145">systemUser : SystemUser</text><rect fill="none" height="6" style="stroke:#C82930;stroke-width:1.0;" width="6" x="3026.5" y="1067.1016"/><text fill="#000000" font-family="sans-serif" font-size="14" lengthAdjust="spacing" textLength="77" x="3038.5" y="1073.4551">code : Code</text><rect fill="none" height="6" style="stroke:#C82930;stroke-width:1.0;" width="6" x="3026.5" y="1082.7422"/><text fill="#000000" font-family="sans-serif" font-size="14" lengthAdjust="spacing" textLength="115" x="3038.5" y="1089.0957">address : Address</text><rect fill="none" height="6" style="stroke:#C82930;stroke-width:1.0;" width="6" x="3026.5" y="1098.3828"/><text fill="#000000" font-family="sans-serif" font-size="14" lengthAdjust="spacing" textLength="201" x="3038.5" y="1104.7363">customerManager : SystemUser</text><line style="stroke:#181818;stroke-width:0.5;" x1="3019.5" x2="3244.5" y1="1111.7031" y2="1111.7031"/></g><!--class RecruitmentProcess--><g id="elem_RecruitmentProcess"><rect codeLine="95" fill="#F1F1F1" height="94.9219" id="RecruitmentProcess" rx="2.5" ry="2.5" style="stroke:#181818;stroke-width:0.5;" width="295" x="3280.5" y="1017.1406"/><ellipse cx="3360.25" cy="1033.1406" fill="#ADD1B2" rx="11" ry="11" style="stroke:#181818;stroke-width:1.0;"/><path d="M3363.0156,1029.0156 Q3363.1719,1028.7969 3363.3594,1028.6875 Q3363.5469,1028.5781 3363.7656,1028.5781 Q3364.1406,1028.5781 3364.375,1028.8438 Q3364.6094,1029.0938 3364.6094,1029.7031 L3364.6094,1031.1563 Q3364.6094,1031.7656 3364.375,1032.0313 Q3364.1406,1032.2969 3363.7656,1032.2969 Q3363.4219,1032.2969 3363.2188,1032.0938 Q3363.0156,1031.9063 3362.9063,1031.3906 Q3362.8594,1031.0313 3362.6719,1030.8438 Q3362.3438,1030.4688 3361.7344,1030.25 Q3361.125,1030.0313 3360.5,1030.0313 Q3359.7344,1030.0313 3359.0938,1030.3594 Q3358.4688,1030.6875 3357.9688,1031.4375 Q3357.4844,1032.1875 3357.4844,1033.2188 L3357.4844,1034.3125 Q3357.4844,1035.5469 3358.375,1036.375 Q3359.2656,1037.1875 3360.8594,1037.1875 Q3361.7969,1037.1875 3362.4531,1036.9375 Q3362.8438,1036.7813 3363.2656,1036.3438 Q3363.5313,1036.0781 3363.6719,1036 Q3363.8281,1035.9219 3364.0313,1035.9219 Q3364.3594,1035.9219 3364.6094,1036.1875 Q3364.875,1036.4375 3364.875,1036.7813 Q3364.875,1037.125 3364.5313,1037.5313 Q3364.0313,1038.1094 3363.2344,1038.4375 Q3362.1563,1038.8906 3360.8594,1038.8906 Q3359.3438,1038.8906 3358.1406,1038.2656 Q3357.1563,1037.7656 3356.4688,1036.7031 Q3355.7813,1035.625 3355.7813,1034.3438 L3355.7813,1033.1875 Q3355.7813,1031.8594 3356.3906,1030.7188 Q3357.0156,1029.5625 3358.1094,1028.9531 Q3359.2031,1028.3281 3360.4375,1028.3281 Q3361.1719,1028.3281 3361.8125,1028.5 Q3362.4688,1028.6563 3363.0156,1029.0156 Z " fill="#000000"/><text fill="#000000" font-family="sans-serif" font-size="14" lengthAdjust="spacing" textLength="127" x="3380.75" y="1037.9941">RecruitmentProcess</text><line style="stroke:#181818;stroke-width:0.5;" x1="3281.5" x2="3574.5" y1="1049.1406" y2="1049.1406"/><rect fill="none" height="6" style="stroke:#C82930;stroke-width:1.0;" width="6" x="3288.5" y="1059.4609"/><text fill="#000000" font-family="sans-serif" font-size="14" lengthAdjust="spacing" textLength="141" x="3300.5" y="1065.8145">hasInterview : boolean</text><rect fill="none" height="6" style="stroke:#C82930;stroke-width:1.0;" width="6" x="3288.5" y="1075.1016"/><text fill="#000000" font-family="sans-serif" font-size="14" lengthAdjust="spacing" textLength="136" x="3300.5" y="1081.4551">phases : List&lt;Phase&gt;</text><line style="stroke:#181818;stroke-width:0.5;" x1="3281.5" x2="3574.5" y1="1088.4219" y2="1088.4219"/><ellipse cx="3291.5" cy="1101.7422" fill="#84BE84" rx="3" ry="3" style="stroke:#038048;stroke-width:1.0;"/><text fill="#000000" font-family="sans-serif" font-size="14" lengthAdjust="spacing" textLength="269" x="3300.5" y="1105.0957">RecruitmentProcess(hasInterview, phases)</text></g><!--class Phase--><g id="elem_Phase"><rect codeLine="101" fill="#F1F1F1" height="79.2813" id="Phase" rx="2.5" ry="2.5" style="stroke:#181818;stroke-width:0.5;" width="207" x="773.5" y="1196.6406"/><ellipse cx="852.75" cy="1212.6406" fill="#A9DCDF" rx="11" ry="11" style="stroke:#181818;stroke-width:1.0;"/><path d="M854.9375,1214.4063 L850.7969,1214.4063 L850.375,1215.4375 L850.7969,1215.4375 Q851.4063,1215.4375 851.6719,1215.6719 Q851.9375,1215.9063 851.9375,1216.2969 Q851.9375,1216.6719 851.6719,1216.9063 Q851.4063,1217.1406 850.7969,1217.1406 L848.5,1217.1406 Q847.8906,1217.1406 847.6406,1216.9063 Q847.375,1216.6719 847.375,1216.2813 Q847.375,1215.9063 847.6563,1215.6719 Q847.9219,1215.4219 848.5469,1215.4375 L851.2188,1208.7813 L850.1094,1208.7813 Q849.5,1208.7813 849.2344,1208.5469 Q848.9688,1208.3125 848.9688,1207.9219 Q848.9688,1207.5469 849.2344,1207.3125 Q849.5,1207.0781 850.1094,1207.0781 L853.7813,1207.0781 L857.1719,1215.4375 Q857.7656,1215.4375 857.9531,1215.5781 Q858.3438,1215.8438 858.3438,1216.2969 Q858.3438,1216.6719 858.0781,1216.9063 Q857.8281,1217.1406 857.2188,1217.1406 L854.9219,1217.1406 Q854.3125,1217.1406 854.0469,1216.9063 Q853.7813,1216.6719 853.7813,1216.2813 Q853.7813,1215.9063 854.0469,1215.6719 Q854.3125,1215.4375 854.9219,1215.4375 L855.3438,1215.4375 L854.9375,1214.4063 Z M854.2188,1212.7031 L852.8594,1209.3281 L851.4844,1212.7031 L854.2188,1212.7031 Z " fill="#000000"/><text fill="#000000" font-family="sans-serif" font-size="14" font-style="italic" lengthAdjust="spacing" textLength="40" x="873.25" y="1217.4941">Phase</text><line style="stroke:#181818;stroke-width:0.5;" x1="774.5" x2="979.5" y1="1228.6406" y2="1228.6406"/><rect fill="none" height="6" style="stroke:#C82930;stroke-width:1.0;" width="6" x="781.5" y="1238.9609"/><text fill="#000000" font-family="sans-serif" font-size="14" lengthAdjust="spacing" textLength="143" x="793.5" y="1245.3145">TimePeriod timePeriod</text><line style="stroke:#181818;stroke-width:0.5;" x1="774.5" x2="979.5" y1="1252.2813" y2="1252.2813"/><ellipse cx="784.5" cy="1265.6016" fill="#84BE84" rx="3" ry="3" style="stroke:#038048;stroke-width:1.0;"/><text fill="#000000" font-family="sans-serif" font-size="14" lengthAdjust="spacing" textLength="181" x="793.5" y="1268.9551">Phase (beginDate, endDate)</text></g><!--class TimePeriod--><g id="elem_TimePeriod"><rect codeLine="106" fill="#F1F1F1" height="94.9219" id="TimePeriod" rx="2.5" ry="2.5" style="stroke:#181818;stroke-width:0.5;" width="235" x="759.5" y="1336.6406"/><ellipse cx="836.75" cy="1352.6406" fill="#ADD1B2" rx="11" ry="11" style="stroke:#181818;stroke-width:1.0;"/><path d="M839.5156,1348.5156 Q839.6719,1348.2969 839.8594,1348.1875 Q840.0469,1348.0781 840.2656,1348.0781 Q840.6406,1348.0781 840.875,1348.3438 Q841.1094,1348.5938 841.1094,1349.2031 L841.1094,1350.6563 Q841.1094,1351.2656 840.875,1351.5313 Q840.6406,1351.7969 840.2656,1351.7969 Q839.9219,1351.7969 839.7188,1351.5938 Q839.5156,1351.4063 839.4063,1350.8906 Q839.3594,1350.5313 839.1719,1350.3438 Q838.8438,1349.9688 838.2344,1349.75 Q837.625,1349.5313 837,1349.5313 Q836.2344,1349.5313 835.5938,1349.8594 Q834.9688,1350.1875 834.4688,1350.9375 Q833.9844,1351.6875 833.9844,1352.7188 L833.9844,1353.8125 Q833.9844,1355.0469 834.875,1355.875 Q835.7656,1356.6875 837.3594,1356.6875 Q838.2969,1356.6875 838.9531,1356.4375 Q839.3438,1356.2813 839.7656,1355.8438 Q840.0313,1355.5781 840.1719,1355.5 Q840.3281,1355.4219 840.5313,1355.4219 Q840.8594,1355.4219 841.1094,1355.6875 Q841.375,1355.9375 841.375,1356.2813 Q841.375,1356.625 841.0313,1357.0313 Q840.5313,1357.6094 839.7344,1357.9375 Q838.6563,1358.3906 837.3594,1358.3906 Q835.8438,1358.3906 834.6406,1357.7656 Q833.6563,1357.2656 832.9688,1356.2031 Q832.2813,1355.125 832.2813,1353.8438 L832.2813,1352.6875 Q832.2813,1351.3594 832.8906,1350.2188 Q833.5156,1349.0625 834.6094,1348.4531 Q835.7031,1347.8281 836.9375,1347.8281 Q837.6719,1347.8281 838.3125,1348 Q838.9688,1348.1563 839.5156,1348.5156 Z " fill="#000000"/><text fill="#000000" font-family="sans-serif" font-size="14" lengthAdjust="spacing" textLength="72" x="857.25" y="1357.4941">TimePeriod</text><line style="stroke:#181818;stroke-width:0.5;" x1="760.5" x2="993.5" y1="1368.6406" y2="1368.6406"/><rect fill="none" height="6" style="stroke:#C82930;stroke-width:1.0;" width="6" x="767.5" y="1378.9609"/><text fill="#000000" font-family="sans-serif" font-size="14" lengthAdjust="spacing" textLength="127" x="779.5" y="1385.3145">Calendar beginDate</text><rect fill="none" height="6" style="stroke:#C82930;stroke-width:1.0;" width="6" x="767.5" y="1394.6016"/><text fill="#000000" font-family="sans-serif" font-size="14" lengthAdjust="spacing" textLength="116" x="779.5" y="1400.9551">Calendar endDate</text><line style="stroke:#181818;stroke-width:0.5;" x1="760.5" x2="993.5" y1="1407.9219" y2="1407.9219"/><ellipse cx="770.5" cy="1421.2422" fill="#84BE84" rx="3" ry="3" style="stroke:#038048;stroke-width:1.0;"/><text fill="#000000" font-family="sans-serif" font-size="14" lengthAdjust="spacing" textLength="209" x="779.5" y="1424.5957">TimePeriod(beginDate, endDate)</text></g><!--class ApplicationPhase--><g id="elem_ApplicationPhase"><rect codeLine="112" fill="#F1F1F1" height="63.6406" id="ApplicationPhase" rx="2.5" ry="2.5" style="stroke:#181818;stroke-width:0.5;" width="272" x="7" y="1032.6406"/><ellipse cx="84.25" cy="1048.6406" fill="#ADD1B2" rx="11" ry="11" style="stroke:#181818;stroke-width:1.0;"/><path d="M87.0156,1044.5156 Q87.1719,1044.2969 87.3594,1044.1875 Q87.5469,1044.0781 87.7656,1044.0781 Q88.1406,1044.0781 88.375,1044.3438 Q88.6094,1044.5938 88.6094,1045.2031 L88.6094,1046.6563 Q88.6094,1047.2656 88.375,1047.5313 Q88.1406,1047.7969 87.7656,1047.7969 Q87.4219,1047.7969 87.2188,1047.5938 Q87.0156,1047.4063 86.9063,1046.8906 Q86.8594,1046.5313 86.6719,1046.3438 Q86.3438,1045.9688 85.7344,1045.75 Q85.125,1045.5313 84.5,1045.5313 Q83.7344,1045.5313 83.0938,1045.8594 Q82.4688,1046.1875 81.9688,1046.9375 Q81.4844,1047.6875 81.4844,1048.7188 L81.4844,1049.8125 Q81.4844,1051.0469 82.375,1051.875 Q83.2656,1052.6875 84.8594,1052.6875 Q85.7969,1052.6875 86.4531,1052.4375 Q86.8438,1052.2813 87.2656,1051.8438 Q87.5313,1051.5781 87.6719,1051.5 Q87.8281,1051.4219 88.0313,1051.4219 Q88.3594,1051.4219 88.6094,1051.6875 Q88.875,1051.9375 88.875,1052.2813 Q88.875,1052.625 88.5313,1053.0313 Q88.0313,1053.6094 87.2344,1053.9375 Q86.1563,1054.3906 84.8594,1054.3906 Q83.3438,1054.3906 82.1406,1053.7656 Q81.1563,1053.2656 80.4688,1052.2031 Q79.7813,1051.125 79.7813,1049.8438 L79.7813,1048.6875 Q79.7813,1047.3594 80.3906,1046.2188 Q81.0156,1045.0625 82.1094,1044.4531 Q83.2031,1043.8281 84.4375,1043.8281 Q85.1719,1043.8281 85.8125,1044 Q86.4688,1044.1563 87.0156,1044.5156 Z " fill="#000000"/><text fill="#000000" font-family="sans-serif" font-size="14" lengthAdjust="spacing" textLength="109" x="104.75" y="1053.4941">ApplicationPhase</text><line style="stroke:#181818;stroke-width:0.5;" x1="8" x2="278" y1="1064.6406" y2="1064.6406"/><line style="stroke:#181818;stroke-width:0.5;" x1="8" x2="278" y1="1072.6406" y2="1072.6406"/><ellipse cx="18" cy="1085.9609" fill="#84BE84" rx="3" ry="3" style="stroke:#038048;stroke-width:1.0;"/><text fill="#000000" font-family="sans-serif" font-size="14" lengthAdjust="spacing" textLength="246" x="27" y="1089.3145">ApplicationPhase(beginDate, endDate)</text></g><!--class AnalysisPhase--><g id="elem_AnalysisPhase"><rect codeLine="116" fill="#F1F1F1" height="63.6406" id="AnalysisPhase" rx="2.5" ry="2.5" style="stroke:#181818;stroke-width:0.5;" width="255" x="314.5" y="1032.6406"/><ellipse cx="391.75" cy="1048.6406" fill="#ADD1B2" rx="11" ry="11" style="stroke:#181818;stroke-width:1.0;"/><path d="M394.5156,1044.5156 Q394.6719,1044.2969 394.8594,1044.1875 Q395.0469,1044.0781 395.2656,1044.0781 Q395.6406,1044.0781 395.875,1044.3438 Q396.1094,1044.5938 396.1094,1045.2031 L396.1094,1046.6563 Q396.1094,1047.2656 395.875,1047.5313 Q395.6406,1047.7969 395.2656,1047.7969 Q394.9219,1047.7969 394.7188,1047.5938 Q394.5156,1047.4063 394.4063,1046.8906 Q394.3594,1046.5313 394.1719,1046.3438 Q393.8438,1045.9688 393.2344,1045.75 Q392.625,1045.5313 392,1045.5313 Q391.2344,1045.5313 390.5938,1045.8594 Q389.9688,1046.1875 389.4688,1046.9375 Q388.9844,1047.6875 388.9844,1048.7188 L388.9844,1049.8125 Q388.9844,1051.0469 389.875,1051.875 Q390.7656,1052.6875 392.3594,1052.6875 Q393.2969,1052.6875 393.9531,1052.4375 Q394.3438,1052.2813 394.7656,1051.8438 Q395.0313,1051.5781 395.1719,1051.5 Q395.3281,1051.4219 395.5313,1051.4219 Q395.8594,1051.4219 396.1094,1051.6875 Q396.375,1051.9375 396.375,1052.2813 Q396.375,1052.625 396.0313,1053.0313 Q395.5313,1053.6094 394.7344,1053.9375 Q393.6563,1054.3906 392.3594,1054.3906 Q390.8438,1054.3906 389.6406,1053.7656 Q388.6563,1053.2656 387.9688,1052.2031 Q387.2813,1051.125 387.2813,1049.8438 L387.2813,1048.6875 Q387.2813,1047.3594 387.8906,1046.2188 Q388.5156,1045.0625 389.6094,1044.4531 Q390.7031,1043.8281 391.9375,1043.8281 Q392.6719,1043.8281 393.3125,1044 Q393.9688,1044.1563 394.5156,1044.5156 Z " fill="#000000"/><text fill="#000000" font-family="sans-serif" font-size="14" lengthAdjust="spacing" textLength="92" x="412.25" y="1053.4941">AnalysisPhase</text><line style="stroke:#181818;stroke-width:0.5;" x1="315.5" x2="568.5" y1="1064.6406" y2="1064.6406"/><line style="stroke:#181818;stroke-width:0.5;" x1="315.5" x2="568.5" y1="1072.6406" y2="1072.6406"/><ellipse cx="325.5" cy="1085.9609" fill="#84BE84" rx="3" ry="3" style="stroke:#038048;stroke-width:1.0;"/><text fill="#000000" font-family="sans-serif" font-size="14" lengthAdjust="spacing" textLength="229" x="334.5" y="1089.3145">AnalysisPhase(beginDate, endDate)</text></g><!--class InterviewPhase--><g id="elem_InterviewPhase"><rect codeLine="120" fill="#F1F1F1" height="63.6406" id="InterviewPhase" rx="2.5" ry="2.5" style="stroke:#181818;stroke-width:0.5;" width="258" x="605" y="1032.6406"/><ellipse cx="682.25" cy="1048.6406" fill="#ADD1B2" rx="11" ry="11" style="stroke:#181818;stroke-width:1.0;"/><path d="M685.0156,1044.5156 Q685.1719,1044.2969 685.3594,1044.1875 Q685.5469,1044.0781 685.7656,1044.0781 Q686.1406,1044.0781 686.375,1044.3438 Q686.6094,1044.5938 686.6094,1045.2031 L686.6094,1046.6563 Q686.6094,1047.2656 686.375,1047.5313 Q686.1406,1047.7969 685.7656,1047.7969 Q685.4219,1047.7969 685.2188,1047.5938 Q685.0156,1047.4063 684.9063,1046.8906 Q684.8594,1046.5313 684.6719,1046.3438 Q684.3438,1045.9688 683.7344,1045.75 Q683.125,1045.5313 682.5,1045.5313 Q681.7344,1045.5313 681.0938,1045.8594 Q680.4688,1046.1875 679.9688,1046.9375 Q679.4844,1047.6875 679.4844,1048.7188 L679.4844,1049.8125 Q679.4844,1051.0469 680.375,1051.875 Q681.2656,1052.6875 682.8594,1052.6875 Q683.7969,1052.6875 684.4531,1052.4375 Q684.8438,1052.2813 685.2656,1051.8438 Q685.5313,1051.5781 685.6719,1051.5 Q685.8281,1051.4219 686.0313,1051.4219 Q686.3594,1051.4219 686.6094,1051.6875 Q686.875,1051.9375 686.875,1052.2813 Q686.875,1052.625 686.5313,1053.0313 Q686.0313,1053.6094 685.2344,1053.9375 Q684.1563,1054.3906 682.8594,1054.3906 Q681.3438,1054.3906 680.1406,1053.7656 Q679.1563,1053.2656 678.4688,1052.2031 Q677.7813,1051.125 677.7813,1049.8438 L677.7813,1048.6875 Q677.7813,1047.3594 678.3906,1046.2188 Q679.0156,1045.0625 680.1094,1044.4531 Q681.2031,1043.8281 682.4375,1043.8281 Q683.1719,1043.8281 683.8125,1044 Q684.4688,1044.1563 685.0156,1044.5156 Z " fill="#000000"/><text fill="#000000" font-family="sans-serif" font-size="14" lengthAdjust="spacing" textLength="95" x="702.75" y="1053.4941">InterviewPhase</text><line style="stroke:#181818;stroke-width:0.5;" x1="606" x2="862" y1="1064.6406" y2="1064.6406"/><line style="stroke:#181818;stroke-width:0.5;" x1="606" x2="862" y1="1072.6406" y2="1072.6406"/><ellipse cx="616" cy="1085.9609" fill="#84BE84" rx="3" ry="3" style="stroke:#038048;stroke-width:1.0;"/><text fill="#000000" font-family="sans-serif" font-size="14" lengthAdjust="spacing" textLength="232" x="625" y="1089.3145">InterviewPhase(beginDate, endDate)</text></g><!--class ResultPhase--><g id="elem_ResultPhase"><rect codeLine="124" fill="#F1F1F1" height="63.6406" id="ResultPhase" rx="2.5" ry="2.5" style="stroke:#181818;stroke-width:0.5;" width="243" x="898.5" y="1032.6406"/><ellipse cx="975.75" cy="1048.6406" fill="#ADD1B2" rx="11" ry="11" style="stroke:#181818;stroke-width:1.0;"/><path d="M978.5156,1044.5156 Q978.6719,1044.2969 978.8594,1044.1875 Q979.0469,1044.0781 979.2656,1044.0781 Q979.6406,1044.0781 979.875,1044.3438 Q980.1094,1044.5938 980.1094,1045.2031 L980.1094,1046.6563 Q980.1094,1047.2656 979.875,1047.5313 Q979.6406,1047.7969 979.2656,1047.7969 Q978.9219,1047.7969 978.7188,1047.5938 Q978.5156,1047.4063 978.4063,1046.8906 Q978.3594,1046.5313 978.1719,1046.3438 Q977.8438,1045.9688 977.2344,1045.75 Q976.625,1045.5313 976,1045.5313 Q975.2344,1045.5313 974.5938,1045.8594 Q973.9688,1046.1875 973.4688,1046.9375 Q972.9844,1047.6875 972.9844,1048.7188 L972.9844,1049.8125 Q972.9844,1051.0469 973.875,1051.875 Q974.7656,1052.6875 976.3594,1052.6875 Q977.2969,1052.6875 977.9531,1052.4375 Q978.3438,1052.2813 978.7656,1051.8438 Q979.0313,1051.5781 979.1719,1051.5 Q979.3281,1051.4219 979.5313,1051.4219 Q979.8594,1051.4219 980.1094,1051.6875 Q980.375,1051.9375 980.375,1052.2813 Q980.375,1052.625 980.0313,1053.0313 Q979.5313,1053.6094 978.7344,1053.9375 Q977.6563,1054.3906 976.3594,1054.3906 Q974.8438,1054.3906 973.6406,1053.7656 Q972.6563,1053.2656 971.9688,1052.2031 Q971.2813,1051.125 971.2813,1049.8438 L971.2813,1048.6875 Q971.2813,1047.3594 971.8906,1046.2188 Q972.5156,1045.0625 973.6094,1044.4531 Q974.7031,1043.8281 975.9375,1043.8281 Q976.6719,1043.8281 977.3125,1044 Q977.9688,1044.1563 978.5156,1044.5156 Z " fill="#000000"/><text fill="#000000" font-family="sans-serif" font-size="14" lengthAdjust="spacing" textLength="80" x="996.25" y="1053.4941">ResultPhase</text><line style="stroke:#181818;stroke-width:0.5;" x1="899.5" x2="1140.5" y1="1064.6406" y2="1064.6406"/><line style="stroke:#181818;stroke-width:0.5;" x1="899.5" x2="1140.5" y1="1072.6406" y2="1072.6406"/><ellipse cx="909.5" cy="1085.9609" fill="#84BE84" rx="3" ry="3" style="stroke:#038048;stroke-width:1.0;"/><text fill="#000000" font-family="sans-serif" font-size="14" lengthAdjust="spacing" textLength="217" x="918.5" y="1089.3145">ResultPhase(beginDate, endDate)</text></g><!--class ScreeningPhase--><g id="elem_ScreeningPhase"><rect codeLine="128" fill="#F1F1F1" height="63.6406" id="ScreeningPhase" rx="2.5" ry="2.5" style="stroke:#181818;stroke-width:0.5;" width="267" x="1176.5" y="1032.6406"/><ellipse cx="1253.75" cy="1048.6406" fill="#ADD1B2" rx="11" ry="11" style="stroke:#181818;stroke-width:1.0;"/><path d="M1256.5156,1044.5156 Q1256.6719,1044.2969 1256.8594,1044.1875 Q1257.0469,1044.0781 1257.2656,1044.0781 Q1257.6406,1044.0781 1257.875,1044.3438 Q1258.1094,1044.5938 1258.1094,1045.2031 L1258.1094,1046.6563 Q1258.1094,1047.2656 1257.875,1047.5313 Q1257.6406,1047.7969 1257.2656,1047.7969 Q1256.9219,1047.7969 1256.7188,1047.5938 Q1256.5156,1047.4063 1256.4063,1046.8906 Q1256.3594,1046.5313 1256.1719,1046.3438 Q1255.8438,1045.9688 1255.2344,1045.75 Q1254.625,1045.5313 1254,1045.5313 Q1253.2344,1045.5313 1252.5938,1045.8594 Q1251.9688,1046.1875 1251.4688,1046.9375 Q1250.9844,1047.6875 1250.9844,1048.7188 L1250.9844,1049.8125 Q1250.9844,1051.0469 1251.875,1051.875 Q1252.7656,1052.6875 1254.3594,1052.6875 Q1255.2969,1052.6875 1255.9531,1052.4375 Q1256.3438,1052.2813 1256.7656,1051.8438 Q1257.0313,1051.5781 1257.1719,1051.5 Q1257.3281,1051.4219 1257.5313,1051.4219 Q1257.8594,1051.4219 1258.1094,1051.6875 Q1258.375,1051.9375 1258.375,1052.2813 Q1258.375,1052.625 1258.0313,1053.0313 Q1257.5313,1053.6094 1256.7344,1053.9375 Q1255.6563,1054.3906 1254.3594,1054.3906 Q1252.8438,1054.3906 1251.6406,1053.7656 Q1250.6563,1053.2656 1249.9688,1052.2031 Q1249.2813,1051.125 1249.2813,1049.8438 L1249.2813,1048.6875 Q1249.2813,1047.3594 1249.8906,1046.2188 Q1250.5156,1045.0625 1251.6094,1044.4531 Q1252.7031,1043.8281 1253.9375,1043.8281 Q1254.6719,1043.8281 1255.3125,1044 Q1255.9688,1044.1563 1256.5156,1044.5156 Z " fill="#000000"/><text fill="#000000" font-family="sans-serif" font-size="14" lengthAdjust="spacing" textLength="104" x="1274.25" y="1053.4941">ScreeningPhase</text><line style="stroke:#181818;stroke-width:0.5;" x1="1177.5" x2="1442.5" y1="1064.6406" y2="1064.6406"/><line style="stroke:#181818;stroke-width:0.5;" x1="1177.5" x2="1442.5" y1="1072.6406" y2="1072.6406"/><ellipse cx="1187.5" cy="1085.9609" fill="#84BE84" rx="3" ry="3" style="stroke:#038048;stroke-width:1.0;"/><text fill="#000000" font-family="sans-serif" font-size="14" lengthAdjust="spacing" textLength="241" x="1196.5" y="1089.3145">ScreeningPhase(beginDate, endDate)</text></g><!--class Address--><g id="elem_Address"><rect codeLine="133" fill="#F1F1F1" height="141.8438" id="Address" rx="2.5" ry="2.5" style="stroke:#181818;stroke-width:0.5;" width="246" x="3611" y="993.6406"/><ellipse cx="3703.75" cy="1009.6406" fill="#ADD1B2" rx="11" ry="11" style="stroke:#181818;stroke-width:1.0;"/><path d="M3706.5156,1005.5156 Q3706.6719,1005.2969 3706.8594,1005.1875 Q3707.0469,1005.0781 3707.2656,1005.0781 Q3707.6406,1005.0781 3707.875,1005.3438 Q3708.1094,1005.5938 3708.1094,1006.2031 L3708.1094,1007.6563 Q3708.1094,1008.2656 3707.875,1008.5313 Q3707.6406,1008.7969 3707.2656,1008.7969 Q3706.9219,1008.7969 3706.7188,1008.5938 Q3706.5156,1008.4063 3706.4063,1007.8906 Q3706.3594,1007.5313 3706.1719,1007.3438 Q3705.8438,1006.9688 3705.2344,1006.75 Q3704.625,1006.5313 3704,1006.5313 Q3703.2344,1006.5313 3702.5938,1006.8594 Q3701.9688,1007.1875 3701.4688,1007.9375 Q3700.9844,1008.6875 3700.9844,1009.7188 L3700.9844,1010.8125 Q3700.9844,1012.0469 3701.875,1012.875 Q3702.7656,1013.6875 3704.3594,1013.6875 Q3705.2969,1013.6875 3705.9531,1013.4375 Q3706.3438,1013.2813 3706.7656,1012.8438 Q3707.0313,1012.5781 3707.1719,1012.5 Q3707.3281,1012.4219 3707.5313,1012.4219 Q3707.8594,1012.4219 3708.1094,1012.6875 Q3708.375,1012.9375 3708.375,1013.2813 Q3708.375,1013.625 3708.0313,1014.0313 Q3707.5313,1014.6094 3706.7344,1014.9375 Q3705.6563,1015.3906 3704.3594,1015.3906 Q3702.8438,1015.3906 3701.6406,1014.7656 Q3700.6563,1014.2656 3699.9688,1013.2031 Q3699.2813,1012.125 3699.2813,1010.8438 L3699.2813,1009.6875 Q3699.2813,1008.3594 3699.8906,1007.2188 Q3700.5156,1006.0625 3701.6094,1005.4531 Q3702.7031,1004.8281 3703.9375,1004.8281 Q3704.6719,1004.8281 3705.3125,1005 Q3705.9688,1005.1563 3706.5156,1005.5156 Z " fill="#000000"/><text fill="#000000" font-family="sans-serif" font-size="14" lengthAdjust="spacing" textLength="52" x="3724.25" y="1014.4941">Address</text><line style="stroke:#181818;stroke-width:0.5;" x1="3612" x2="3856" y1="1025.6406" y2="1025.6406"/><rect fill="none" height="6" style="stroke:#C82930;stroke-width:1.0;" width="6" x="3619" y="1035.9609"/><text fill="#000000" font-family="sans-serif" font-size="14" lengthAdjust="spacing" textLength="85" x="3631" y="1042.3145">street : String</text><rect fill="none" height="6" style="stroke:#C82930;stroke-width:1.0;" width="6" x="3619" y="1051.6016"/><text fill="#000000" font-family="sans-serif" font-size="14" lengthAdjust="spacing" textLength="70" x="3631" y="1057.9551">city : String</text><rect fill="none" height="6" style="stroke:#C82930;stroke-width:1.0;" width="6" x="3619" y="1067.2422"/><text fill="#000000" font-family="sans-serif" font-size="14" lengthAdjust="spacing" textLength="80" x="3631" y="1073.5957">state : String</text><rect fill="none" height="6" style="stroke:#C82930;stroke-width:1.0;" width="6" x="3619" y="1082.8828"/><text fill="#000000" font-family="sans-serif" font-size="14" lengthAdjust="spacing" textLength="96" x="3631" y="1089.2363">country : String</text><rect fill="none" height="6" style="stroke:#C82930;stroke-width:1.0;" width="6" x="3619" y="1098.5234"/><text fill="#000000" font-family="sans-serif" font-size="14" lengthAdjust="spacing" textLength="97" x="3631" y="1104.877">zipcode : String</text><line style="stroke:#181818;stroke-width:0.5;" x1="3612" x2="3856" y1="1111.8438" y2="1111.8438"/><rect fill="#F24D5C" height="6" style="stroke:#C82930;stroke-width:1.0;" width="6" x="3619" y="1122.1641"/><text fill="#000000" font-family="sans-serif" font-size="14" lengthAdjust="spacing" textLength="220" x="3631" y="1128.5176">validateZipcode(zipcode) : boolean</text></g><!--link UI to Controller--><g id="link_UI_Controller"><path codeLine="143" d="M2341,186.0506 C2341,206.6106 2341,222.3206 2341,240.1706 " fill="none" id="UI-to-Controller" style="stroke:#181818;stroke-width:1.0;stroke-dasharray:7.0,7.0;"/><polygon fill="#181818" points="2341,246.1706,2345,237.1706,2341,241.1706,2337,237.1706,2341,246.1706" style="stroke:#181818;stroke-width:1.0;"/></g><!--link Controller to PersistenceContext--><g id="link_Controller_PersistenceContext"><path codeLine="145" d="M2283.06,325.7606 C2250.77,347.2906 2216.0723,370.4224 2185.7723,390.6224 " fill="none" id="Controller-to-PersistenceContext" style="stroke:#181818;stroke-width:1.0;stroke-dasharray:7.0,7.0;"/><polygon fill="#181818" points="2180.78,393.9506,2190.4873,392.2865,2184.9403,391.1771,2186.0497,385.6301,2180.78,393.9506" style="stroke:#181818;stroke-width:1.0;"/></g><!--link Controller to JobOpeningRepository--><g id="link_Controller_JobOpeningRepository"><path codeLine="146" d="M2446.85,325.7306 C2473.05,340.5906 2497.92,360.4906 2513,386.6406 C2538.6,431.0206 2515.3901,483.8016 2491.5601,521.4316 " fill="none" id="Controller-to-JobOpeningRepository" style="stroke:#181818;stroke-width:1.0;stroke-dasharray:7.0,7.0;"/><polygon fill="#181818" points="2488.35,526.5006,2496.5445,521.0371,2491.0251,522.2764,2489.7858,516.757,2488.35,526.5006" style="stroke:#181818;stroke-width:1.0;"/></g><!--link PersistenceContext to Factory--><g id="link_PersistenceContext_Factory"><path codeLine="148" d="M2211.3,426.1406 C2222.84,426.1406 2228.38,426.1406 2239.92,426.1406 " fill="none" id="PersistenceContext-to-Factory" style="stroke:#181818;stroke-width:1.0;"/><polygon fill="#181818" points="2245.92,426.1406,2236.92,422.1406,2240.92,426.1406,2236.92,430.1406,2245.92,426.1406" style="stroke:#181818;stroke-width:1.0;"/></g><!--link Factory to JobOpeningRepository--><g id="link_Factory_JobOpeningRepository"><path codeLine="149" d="M2396.03,465.9506 C2408.26,484.9206 2419.6978,502.6485 2431.9078,521.5785 " fill="none" id="Factory-to-JobOpeningRepository" style="stroke:#181818;stroke-width:1.0;stroke-dasharray:7.0,7.0;"/><polygon fill="#181818" points="2435.16,526.6206,2433.6431,516.8893,2432.4498,522.4188,2426.9203,521.2256,2435.16,526.6206" style="stroke:#181818;stroke-width:1.0;"/></g><!--link JobOpeningRepository to JobOpening--><g id="link_JobOpeningRepository_JobOpening"><path codeLine="151" d="M2460,605.8106 C2460,626.7506 2460,647.9206 2460,675.4606 " fill="none" id="JobOpeningRepository-to-JobOpening" style="stroke:#181818;stroke-width:1.0;"/><polygon fill="#181818" points="2460,681.4606,2464,672.4606,2460,676.4606,2456,672.4606,2460,681.4606" style="stroke:#181818;stroke-width:1.0;"/><text fill="#000000" font-family="sans-serif" font-size="13" lengthAdjust="spacing" textLength="36" x="2461" y="648.4092">stores</text><text fill="#000000" font-family="sans-serif" font-size="13" lengthAdjust="spacing" textLength="5" x="2454.8398" y="670.7356">*</text></g><!--link JobOpening to Address--><g id="link_JobOpening_Address"><path codeLine="154" d="M2612.28,818.5906 C2833.02,836.9606 3252.68,884.0506 3593,993.6406 C3598.85,995.5206 3599.1626,995.4858 3605.0726,997.7358 " fill="none" id="JobOpening-to-Address" style="stroke:#181818;stroke-width:1.0;"/><polygon fill="#181818" points="3610.68,999.8706,3603.6921,992.9302,3606.0072,998.0916,3600.8457,1000.4067,3610.68,999.8706" style="stroke:#181818;stroke-width:1.0;"/></g><!--link JobOpening to Mode--><g id="link_JobOpening_Mode"><path codeLine="155" d="M2411.66,932.9006 C2397.33,969.8806 2385.0398,1001.6167 2375.2498,1026.8567 " fill="none" id="JobOpening-to-Mode" style="stroke:#181818;stroke-width:1.0;"/><polygon fill="#181818" points="2373.08,1032.4506,2380.0639,1025.5062,2374.8881,1027.789,2372.6053,1022.6132,2373.08,1032.4506" style="stroke:#181818;stroke-width:1.0;"/></g><!--link JobOpening to Customer--><g id="link_JobOpening_Customer"><path codeLine="156" d="M2612.01,853.0706 C2721.82,887.2606 2872.75,937.8206 3001,993.6406 C3011.76,998.3206 3017.4585,1000.8772 3028.3885,1006.3172 " fill="none" id="JobOpening-to-Customer" style="stroke:#181818;stroke-width:1.0;"/><polygon fill="#181818" points="3033.76,1008.9906,3027.4851,1001.3995,3029.2838,1006.7628,3023.9205,1008.5614,3033.76,1008.9906" style="stroke:#181818;stroke-width:1.0;"/></g><!--link JobOpening to ContractType--><g id="link_JobOpening_ContractType"><path codeLine="157" d="M2311.56,932.9006 C2267.55,969.8806 2227.7331,1003.3501 2197.7031,1028.5901 " fill="none" id="JobOpening-to-ContractType" style="stroke:#181818;stroke-width:1.0;"/><polygon fill="#181818" points="2193.11,1032.4506,2202.5733,1029.722,2196.9376,1029.2336,2197.426,1023.5978,2193.11,1032.4506" style="stroke:#181818;stroke-width:1.0;"/></g><!--link JobOpening to JobFunction--><g id="link_JobOpening_JobFunction"><path codeLine="158" d="M2307.89,841.5606 C2184.22,871.9606 2007.22,922.9106 1863,993.6406 C1841.5,1004.1906 1824.3103,1015.4744 1806.4303,1028.8044 " fill="none" id="JobOpening-to-JobFunction" style="stroke:#181818;stroke-width:1.0;"/><polygon fill="#181818" points="1801.62,1032.3906,1811.2263,1030.2182,1805.6286,1029.4021,1806.4447,1023.8044,1801.62,1032.3906" style="stroke:#181818;stroke-width:1.0;"/></g><!--link JobOpening to JobReference--><g id="link_JobOpening_JobReference"><path codeLine="159" d="M2307.71,826.2006 C2143.17,849.6306 1875.99,899.2006 1663,993.6406 C1640.57,1003.5906 1622.704,1015.1126 1604.554,1028.7726 " fill="none" id="JobOpening-to-JobReference" style="stroke:#181818;stroke-width:1.0;"/><polygon fill="#181818" points="1599.76,1032.3806,1609.3563,1030.1646,1603.755,1029.3739,1604.5456,1023.7726,1599.76,1032.3806" style="stroke:#181818;stroke-width:1.0;"/></g><!--link JobOpening to Description--><g id="link_JobOpening_Description"><path codeLine="160" d="M2508.34,932.9006 C2522.67,969.8806 2534.9602,1001.6167 2544.7502,1026.8567 " fill="none" id="JobOpening-to-Description" style="stroke:#181818;stroke-width:1.0;"/><polygon fill="#181818" points="2546.92,1032.4506,2547.3947,1022.6132,2545.1119,1027.789,2539.9361,1025.5062,2546.92,1032.4506" style="stroke:#181818;stroke-width:1.0;"/></g><!--link JobOpening to NumberOfVacancies--><g id="link_JobOpening_NumberOfVacancies"><path codeLine="161" d="M2307.62,870.6006 C2231.26,903.8906 2138.4,947.4606 2059,993.6406 C2039.12,1005.2006 2023.0539,1016.1827 2005.6939,1029.0227 " fill="none" id="JobOpening-to-NumberOfVacancies" style="stroke:#181818;stroke-width:1.0;"/><polygon fill="#181818" points="2000.87,1032.5906,2010.4845,1030.4547,2004.8899,1029.6174,2005.7272,1024.0228,2000.87,1032.5906" style="stroke:#181818;stroke-width:1.0;"/></g><!--link JobOpening to RecruitmentProcess--><g id="link_JobOpening_RecruitmentProcess"><path codeLine="162" d="M2612.36,835.1206 C2775.48,865.9106 3040.85,921.4706 3263,993.6406 C3283.72,1000.3706 3299.8915,1006.3672 3320.5215,1014.8572 " fill="none" id="JobOpening-to-RecruitmentProcess" style="stroke:#181818;stroke-width:1.0;"/><polygon fill="#181818" points="3326.07,1017.1406,3319.2695,1010.0165,3321.4462,1015.2378,3316.225,1017.4145,3326.07,1017.1406" style="stroke:#181818;stroke-width:1.0;"/></g><!--link JobOpening to Plugin--><g id="link_JobOpening_Plugin"><path codeLine="163" d="M2612.15,914.6406 C2654.4,944.2206 2693.9748,971.9196 2731.2848,998.0396 " fill="none" id="JobOpening-to-Plugin" style="stroke:#181818;stroke-width:1.0;"/><polygon fill="#181818" points="2736.2,1001.4806,2731.1212,993.0423,2732.104,998.6131,2726.5332,999.5959,2736.2,1001.4806" style="stroke:#181818;stroke-width:1.0;"/><text fill="#000000" font-family="sans-serif" font-size="13" lengthAdjust="spacing" textLength="22" x="2702.0369" y="990.7179">0..2</text></g><!--reverse link RecruitmentProcess to Phase--><g id="link_RecruitmentProcess_Phase"><path codeLine="165" d="M3323.3082,1116.7701 C3300.4682,1126.2001 3286.83,1130.2706 3263,1135.6406 C2818.71,1235.6706 1379.84,1237.2906 980.58,1235.7406 " fill="none" id="RecruitmentProcess-backto-Phase" style="stroke:#181818;stroke-width:1.0;"/><polygon fill="#181818" points="3334.4,1112.1906,3327.3276,1110.7831,3323.3082,1116.7701,3330.3806,1118.1776,3334.4,1112.1906" style="stroke:#181818;stroke-width:1.0;"/></g><!--link Phase to TimePeriod--><g id="link_Phase_TimePeriod"><path codeLine="166" d="M877,1275.8806 C877,1294.4706 877,1310.8806 877,1330.4106 " fill="none" id="Phase-to-TimePeriod" style="stroke:#181818;stroke-width:1.0;"/><polygon fill="#181818" points="877,1336.4106,881,1327.4106,877,1331.4106,873,1327.4106,877,1336.4106" style="stroke:#181818;stroke-width:1.0;"/></g><!--link AnalysisPhase to Phase--><g id="link_AnalysisPhase_Phase"><path codeLine="167" d="M502.3,1096.7406 C528.07,1109.5106 558.69,1124.0006 587,1135.6406 C647.8,1160.6406 700.3157,1179.1037 756.1057,1197.2837 " fill="none" id="AnalysisPhase-to-Phase" style="stroke:#181818;stroke-width:1.0;"/><polygon fill="none" points="773.22,1202.8606,757.9647,1191.5789,754.2468,1202.9884,773.22,1202.8606" style="stroke:#181818;stroke-width:1.0;"/></g><!--link ResultPhase to Phase--><g id="link_ResultPhase_Phase"><path codeLine="168" d="M993.77,1096.7306 C970.07,1124.8306 946.6855,1152.5316 921.1955,1182.7516 " fill="none" id="ResultPhase-to-Phase" style="stroke:#181818;stroke-width:1.0;"/><polygon fill="none" points="909.59,1196.5106,925.7819,1186.6201,916.6092,1178.883,909.59,1196.5106" style="stroke:#181818;stroke-width:1.0;"/></g><!--link ScreeningPhase to Phase--><g id="link_ScreeningPhase_Phase"><path codeLine="169" d="M1246.3,1096.8006 C1219.58,1109.4406 1188.04,1123.8206 1159,1135.6406 C1100.7,1159.3806 1051.403,1177.1596 997.723,1195.3996 " fill="none" id="ScreeningPhase-to-Phase" style="stroke:#181818;stroke-width:1.0;"/><polygon fill="none" points="980.68,1201.1906,999.6533,1201.0806,995.7926,1189.7186,980.68,1201.1906" style="stroke:#181818;stroke-width:1.0;"/></g><!--link ApplicationPhase to Phase--><g id="link_ApplicationPhase_Phase"><path codeLine="170" d="M201.94,1096.7406 C230.06,1110.4506 264.58,1125.6706 297,1135.6406 C459.47,1185.5906 637.8462,1210.6885 755.3562,1223.5085 " fill="none" id="ApplicationPhase-to-Phase" style="stroke:#181818;stroke-width:1.0;"/><polygon fill="none" points="773.25,1225.4606,756.0069,1217.5439,754.7055,1229.4731,773.25,1225.4606" style="stroke:#181818;stroke-width:1.0;"/></g><!--link InterviewPhase to Phase--><g id="link_InterviewPhase_Phase"><path codeLine="171" d="M760.23,1096.7306 C783.93,1124.8306 807.3145,1152.5316 832.8045,1182.7516 " fill="none" id="InterviewPhase-to-Phase" style="stroke:#181818;stroke-width:1.0;"/><polygon fill="none" points="844.41,1196.5106,837.3908,1178.883,828.2181,1186.6201,844.41,1196.5106" style="stroke:#181818;stroke-width:1.0;"/></g><!--SRC=[XLPBR-Cs4BxhLmnyKZQMaVPI82WCP1q4zQBPDPAuXxtHqjXXLfPKaaxMxVQ_T_WGIL5UnnUBC_FD3ET9nLMDC5a_mYzNLxy1t4XO7AHgzoZWdZLiXs8AItXZZGBLWaHrw40z8tJFJAA4TcjFeYrHIjYs0XYyj1jeEsnuivjDigoi6R4cZngxCh1FxUQBvQ-N4s0Irij_Cw1V8R76Klt1Nd7PA1Il7D_o2xY6JTlMo9fOw9Ofb3dfyv9Qy4ykrU_6ojmAbyzOVdlYUroXu6tr4TKROcCaSdk9AIZFlkcwcfTCyROvOLO5FVcUxalXyJONhCQcOiAPtQ5ny4wq-xL4aLE4zfsQWYnPqw3Gi1uHNof49d_ndr9B1qwM_TS7bNoHP1oR4XSjXU6xid4KsBMIgrPm2j55a3-T10qLRLsZCCa8HwliaYw-7e4Y_wPGwLnC8Kr6vBDH520VZtsPkIhBVI03QAuTvrhXbfLKfG_zhOvthDH_nbttRNsDWaRtJYbFWZMIn2cxh7O10_NT12Wo53m85d-cVikRwgQkwHIY7F10i8903xX5eRDaW-AFn6qE-msABzk_65L6IVaYaSyfpMgvEpJ6TwkaFn6lr1cZUpqTEsrX4Hs9ksyhJRsdFpgngXAwLQ_XnduP_BvZpV4psnkuommnAfIbu9qrUXiEn1Auesm9qogwqWS5JTnI7BZQOwDMRZPSmyE8Q2J_Fd21cYXNzM77zVNi1t5vNqufAyjCNOvLvcFJb1kWv83FZe-_pIeKaEH8L_5EHs00woCUesxZ2C6Z4gRO0soKIW-sYJzjBCwW1oHPZcprC9rYBMvI_fvd4T-RgDx1sE2xMGsTEIrlVLQM5GMTRpcAWOHpUEKFsIbhW_AAqFUCDmjjtPNdQanryYzCtF4QdTodS1halozlVsbvf0bgfhI-ip-4i5UsgIhiIITwoCaEXrgYB_WmBbllJJn3amsaGsBNxdZFmUM9LeXrJHtsmlZ1DjBK4XWLu38Qrbkq4ktejdBvXhhUjFiKgDNrHxHT8dXV8lr800zC6KwDjHBjrxEMeZKTN-0ofR-ZXRR0aVRdK4LCF8_tiHqe65BFQtX0UQZL01wHpcCVIu5coGpWG-hFDFHrwCetj88Yj8fQtvKrLySHKIexzHFHza1JQYpz3-zS8pbwptXbDTVFXwzM87U2WzSNURnUmcmsZzucMHQ-3Mly5aebJktrB1lZYhbxKsJk_mpw51MAOWwJ3vFu8N1DWu52dSK88zTFa8HijdL2yuivfSVxFk753uKnApn44buyZ1FM-76I29nOyud4v6es-tNYL_aO01-Amewcp5QtHeNXa0qxjoX-p9rqt50HEUcLY3EQ914lwU-8Gx__0G00]--></g></svg>