<?xml version="1.0" encoding="us-ascii" standalone="no"?><svg xmlns="http://www.w3.org/2000/svg" xmlns:xlink="http://www.w3.org/1999/xlink" contentStyleType="text/css" height="1036px" preserveAspectRatio="none" style="width:1391px;height:1036px;background:#FFFFFF;" version="1.1" viewBox="0 0 1391 1036" width="1391px" zoomAndPan="magnify"><defs/><g><rect fill="#FFFFFF" height="856.8906" style="stroke:#181818;stroke-width:1.0;" width="10" x="76.5" y="90.6406"/><rect fill="#FFFFFF" height="387.0391" style="stroke:#181818;stroke-width:1.0;" width="10" x="377.5" y="111.1641"/><rect fill="#FFFFFF" height="70.0469" style="stroke:#181818;stroke-width:1.0;" width="10" x="377.5" y="526.7266"/><rect fill="#FFFFFF" height="135.0938" style="stroke:#181818;stroke-width:1.0;" width="10" x="377.5" y="625.2969"/><rect fill="#FFFFFF" height="149.6172" style="stroke:#181818;stroke-width:1.0;" width="10" x="377.5" y="788.9141"/><rect fill="#FFFFFF" height="256.7109" style="stroke:#181818;stroke-width:1.0;" width="10" x="686.5" y="212.9688"/><rect fill="#FFFFFF" height="85.5703" style="stroke:#181818;stroke-width:1.0;" width="10" x="686.5" y="824.4375"/><rect fill="#FFFFFF" height="57.0469" style="stroke:#181818;stroke-width:1.0;" width="10" x="880.5" y="241.4922"/><rect fill="#FFFFFF" height="57.0469" style="stroke:#181818;stroke-width:1.0;" width="10" x="1023.5" y="327.0625"/><rect fill="#FFFFFF" height="28.5234" style="stroke:#181818;stroke-width:1.0;" width="10" x="1183.5" y="412.6328"/><rect fill="none" height="73.5703" style="stroke:#000000;stroke-width:1.5;" width="477.5" x="10" y="723.3438"/><line style="stroke:#181818;stroke-width:0.5;stroke-dasharray:5.0,5.0;" x1="81" x2="81" y1="80.6406" y2="956.5313"/><line style="stroke:#181818;stroke-width:0.5;stroke-dasharray:5.0,5.0;" x1="382.5" x2="382.5" y1="80.6406" y2="956.5313"/><line style="stroke:#181818;stroke-width:0.5;stroke-dasharray:5.0,5.0;" x1="691.5" x2="691.5" y1="165.8047" y2="956.5313"/><line style="stroke:#181818;stroke-width:0.5;stroke-dasharray:5.0,5.0;" x1="885.5" x2="885.5" y1="80.6406" y2="956.5313"/><line style="stroke:#181818;stroke-width:0.5;stroke-dasharray:5.0,5.0;" x1="1028.5" x2="1028.5" y1="80.6406" y2="956.5313"/><line style="stroke:#181818;stroke-width:0.5;stroke-dasharray:5.0,5.0;" x1="1188.5" x2="1188.5" y1="80.6406" y2="956.5313"/><line style="stroke:#181818;stroke-width:0.5;stroke-dasharray:5.0,5.0;" x1="1334.5" x2="1334.5" y1="80.6406" y2="956.5313"/><text fill="#000000" font-family="sans-serif" font-size="14" lengthAdjust="spacing" textLength="117" x="20" y="77.6738">CustomerManager</text><ellipse cx="81.5" cy="13.5" fill="#E3E3E3" rx="8" ry="8" style="stroke:#181818;stroke-width:0.5;"/><path d="M81.5,21.5 L81.5,48.5 M68.5,29.5 L94.5,29.5 M81.5,48.5 L68.5,63.5 M81.5,48.5 L94.5,63.5 " fill="none" style="stroke:#181818;stroke-width:0.5;"/><text fill="#000000" font-family="sans-serif" font-size="14" lengthAdjust="spacing" textLength="117" x="20" y="968.2051">CustomerManager</text><ellipse cx="81.5" cy="979.6719" fill="#E3E3E3" rx="8" ry="8" style="stroke:#181818;stroke-width:0.5;"/><path d="M81.5,987.6719 L81.5,1014.6719 M68.5,995.6719 L94.5,995.6719 M81.5,1014.6719 L68.5,1029.6719 M81.5,1014.6719 L94.5,1029.6719 " fill="none" style="stroke:#181818;stroke-width:0.5;"/><rect fill="#E3E3E3" height="45.2813" rx="2.5" ry="2.5" style="stroke:#181818;stroke-width:0.5;" width="190" x="287.5" y="34.3594"/><text fill="#000000" font-family="sans-serif" font-size="14" font-style="italic" lengthAdjust="spacing" textLength="95" x="335" y="54.0332">&#171;presentation&#187;</text><text fill="#000000" font-family="sans-serif" font-size="14" lengthAdjust="spacing" textLength="176" x="294.5" y="69.6738">:SetupPhasesJobOpeningUI</text><rect fill="#E3E3E3" height="45.2813" rx="2.5" ry="2.5" style="stroke:#181818;stroke-width:0.5;" width="190" x="287.5" y="955.5313"/><text fill="#000000" font-family="sans-serif" font-size="14" font-style="italic" lengthAdjust="spacing" textLength="95" x="335" y="975.2051">&#171;presentation&#187;</text><text fill="#000000" font-family="sans-serif" font-size="14" lengthAdjust="spacing" textLength="176" x="294.5" y="990.8457">:SetupPhasesJobOpeningUI</text><text fill="#000000" font-family="sans-serif" font-size="14" font-style="italic" lengthAdjust="spacing" textLength="84" x="646.5" y="968.2051">&#171;application&#187;</text><text fill="#000000" font-family="sans-serif" font-size="14" lengthAdjust="spacing" textLength="226" x="575.5" y="983.8457">:SetupPhasesJobOpeningController</text><ellipse cx="691.5" cy="1002.8125" fill="#E3E3E3" rx="12" ry="12" style="stroke:#181818;stroke-width:0.5;"/><polygon fill="#181818" points="687.5,990.8125,693.5,985.8125,691.5,990.8125,693.5,995.8125,687.5,990.8125" style="stroke:#181818;stroke-width:1.0;"/><rect fill="#E3E3E3" height="45.2813" rx="2.5" ry="2.5" style="stroke:#181818;stroke-width:0.5;" width="136" x="817.5" y="34.3594"/><text fill="#000000" font-family="sans-serif" font-size="14" font-style="italic" lengthAdjust="spacing" textLength="89" x="841" y="54.0332">&#171;persistence&#187;</text><text fill="#000000" font-family="sans-serif" font-size="14" lengthAdjust="spacing" textLength="122" x="824.5" y="69.6738">PersistenceContext</text><rect fill="#E3E3E3" height="45.2813" rx="2.5" ry="2.5" style="stroke:#181818;stroke-width:0.5;" width="136" x="817.5" y="955.5313"/><text fill="#000000" font-family="sans-serif" font-size="14" font-style="italic" lengthAdjust="spacing" textLength="89" x="841" y="975.2051">&#171;persistence&#187;</text><text fill="#000000" font-family="sans-serif" font-size="14" lengthAdjust="spacing" textLength="122" x="824.5" y="990.8457">PersistenceContext</text><rect fill="#E3E3E3" height="45.2813" rx="2.5" ry="2.5" style="stroke:#181818;stroke-width:0.5;" width="130" x="963.5" y="34.3594"/><text fill="#000000" font-family="sans-serif" font-size="14" font-style="italic" lengthAdjust="spacing" textLength="89" x="984" y="54.0332">&#171;persistence&#187;</text><text fill="#000000" font-family="sans-serif" font-size="14" lengthAdjust="spacing" textLength="116" x="970.5" y="69.6738">RepositoryFactory</text><rect fill="#E3E3E3" height="45.2813" rx="2.5" ry="2.5" style="stroke:#181818;stroke-width:0.5;" width="130" x="963.5" y="955.5313"/><text fill="#000000" font-family="sans-serif" font-size="14" font-style="italic" lengthAdjust="spacing" textLength="89" x="984" y="975.2051">&#171;persistence&#187;</text><text fill="#000000" font-family="sans-serif" font-size="14" lengthAdjust="spacing" textLength="116" x="970.5" y="990.8457">RepositoryFactory</text><rect fill="#E3E3E3" height="45.2813" rx="2.5" ry="2.5" style="stroke:#181818;stroke-width:0.5;" width="170" x="1103.5" y="34.3594"/><text fill="#000000" font-family="sans-serif" font-size="14" font-style="italic" lengthAdjust="spacing" textLength="79" x="1149" y="54.0332">&#171;repository&#187;</text><text fill="#000000" font-family="sans-serif" font-size="14" lengthAdjust="spacing" textLength="156" x="1110.5" y="69.6738">:JobOpenningRepository</text><rect fill="#E3E3E3" height="45.2813" rx="2.5" ry="2.5" style="stroke:#181818;stroke-width:0.5;" width="170" x="1103.5" y="955.5313"/><text fill="#000000" font-family="sans-serif" font-size="14" font-style="italic" lengthAdjust="spacing" textLength="79" x="1149" y="975.2051">&#171;repository&#187;</text><text fill="#000000" font-family="sans-serif" font-size="14" lengthAdjust="spacing" textLength="156" x="1110.5" y="990.8457">:JobOpenningRepository</text><rect fill="#E3E3E3" height="45.2813" rx="2.5" ry="2.5" style="stroke:#181818;stroke-width:0.5;" width="102" x="1283.5" y="34.3594"/><text fill="#000000" font-family="sans-serif" font-size="14" font-style="italic" lengthAdjust="spacing" textLength="62" x="1303.5" y="54.0332">&#171;domain&#187;</text><text fill="#000000" font-family="sans-serif" font-size="14" lengthAdjust="spacing" textLength="88" x="1290.5" y="69.6738">:JobOpenning</text><rect fill="#E3E3E3" height="45.2813" rx="2.5" ry="2.5" style="stroke:#181818;stroke-width:0.5;" width="102" x="1283.5" y="955.5313"/><text fill="#000000" font-family="sans-serif" font-size="14" font-style="italic" lengthAdjust="spacing" textLength="62" x="1303.5" y="975.2051">&#171;domain&#187;</text><text fill="#000000" font-family="sans-serif" font-size="14" lengthAdjust="spacing" textLength="88" x="1290.5" y="990.8457">:JobOpenning</text><rect fill="#FFFFFF" height="856.8906" style="stroke:#181818;stroke-width:1.0;" width="10" x="76.5" y="90.6406"/><rect fill="#FFFFFF" height="387.0391" style="stroke:#181818;stroke-width:1.0;" width="10" x="377.5" y="111.1641"/><rect fill="#FFFFFF" height="70.0469" style="stroke:#181818;stroke-width:1.0;" width="10" x="377.5" y="526.7266"/><rect fill="#FFFFFF" height="135.0938" style="stroke:#181818;stroke-width:1.0;" width="10" x="377.5" y="625.2969"/><rect fill="#FFFFFF" height="149.6172" style="stroke:#181818;stroke-width:1.0;" width="10" x="377.5" y="788.9141"/><rect fill="#FFFFFF" height="256.7109" style="stroke:#181818;stroke-width:1.0;" width="10" x="686.5" y="212.9688"/><rect fill="#FFFFFF" height="85.5703" style="stroke:#181818;stroke-width:1.0;" width="10" x="686.5" y="824.4375"/><rect fill="#FFFFFF" height="57.0469" style="stroke:#181818;stroke-width:1.0;" width="10" x="880.5" y="241.4922"/><rect fill="#FFFFFF" height="57.0469" style="stroke:#181818;stroke-width:1.0;" width="10" x="1023.5" y="327.0625"/><rect fill="#FFFFFF" height="28.5234" style="stroke:#181818;stroke-width:1.0;" width="10" x="1183.5" y="412.6328"/><polygon fill="#181818" points="365.5,107.1641,375.5,111.1641,365.5,115.1641,369.5,111.1641" style="stroke:#181818;stroke-width:1.0;"/><line style="stroke:#181818;stroke-width:1.0;" x1="86.5" x2="371.5" y1="111.1641" y2="111.1641"/><text fill="#000000" font-family="sans-serif" font-size="13" font-weight="bold" lengthAdjust="spacing" textLength="7" x="93.5" y="106.4092">1</text><text fill="#000000" font-family="sans-serif" font-size="13" lengthAdjust="spacing" textLength="261" x="104.5" y="106.4092">request to setup the phases for a job opening</text><polygon fill="#181818" points="563.5,135.6875,573.5,139.6875,563.5,143.6875,567.5,139.6875" style="stroke:#181818;stroke-width:1.0;"/><line style="stroke:#181818;stroke-width:1.0;" x1="387.5" x2="569.5" y1="139.6875" y2="139.6875"/><text fill="#000000" font-family="sans-serif" font-size="13" font-weight="bold" lengthAdjust="spacing" textLength="7" x="394.5" y="134.9326">2</text><text fill="#000000" font-family="sans-serif" font-size="13" lengthAdjust="spacing" textLength="36" x="405.5" y="134.9326">create</text><text fill="#000000" font-family="sans-serif" font-size="14" font-style="italic" lengthAdjust="spacing" textLength="84" x="646.5" y="163.8379">&#171;application&#187;</text><text fill="#000000" font-family="sans-serif" font-size="14" lengthAdjust="spacing" textLength="226" x="575.5" y="179.4785">:SetupPhasesJobOpeningController</text><ellipse cx="691.5" cy="135.1641" fill="#E3E3E3" rx="12" ry="12" style="stroke:#181818;stroke-width:0.5;"/><polygon fill="#181818" points="687.5,123.1641,693.5,118.1641,691.5,123.1641,693.5,128.1641,687.5,123.1641" style="stroke:#181818;stroke-width:1.0;"/><polygon fill="#181818" points="674.5,208.9688,684.5,212.9688,674.5,216.9688,678.5,212.9688" style="stroke:#181818;stroke-width:1.0;"/><line style="stroke:#181818;stroke-width:1.0;" x1="387.5" x2="680.5" y1="212.9688" y2="212.9688"/><text fill="#000000" font-family="sans-serif" font-size="13" font-weight="bold" lengthAdjust="spacing" textLength="7" x="394.5" y="208.2139">3</text><text fill="#000000" font-family="sans-serif" font-size="13" lengthAdjust="spacing" textLength="195" x="405.5" y="208.2139">jobOpeningByCustomerManager()</text><polygon fill="#181818" points="868.5,237.4922,878.5,241.4922,868.5,245.4922,872.5,241.4922" style="stroke:#181818;stroke-width:1.0;"/><line style="stroke:#181818;stroke-width:1.0;" x1="696.5" x2="874.5" y1="241.4922" y2="241.4922"/><text fill="#000000" font-family="sans-serif" font-size="13" font-weight="bold" lengthAdjust="spacing" textLength="7" x="703.5" y="236.7373">4</text><text fill="#000000" font-family="sans-serif" font-size="13" lengthAdjust="spacing" textLength="75" x="714.5" y="236.7373">repositories()</text><polygon fill="#181818" points="1016.5,266.0156,1026.5,270.0156,1016.5,274.0156,1020.5,270.0156" style="stroke:#181818;stroke-width:1.0;"/><line style="stroke:#181818;stroke-width:1.0;" x1="890.5" x2="1022.5" y1="270.0156" y2="270.0156"/><text fill="#000000" font-family="sans-serif" font-size="13" font-weight="bold" lengthAdjust="spacing" textLength="7" x="897.5" y="265.2607">5</text><text fill="#000000" font-family="sans-serif" font-size="13" lengthAdjust="spacing" textLength="44" x="908.5" y="265.2607">create()</text><polygon fill="#181818" points="707.5,294.5391,697.5,298.5391,707.5,302.5391,703.5,298.5391" style="stroke:#181818;stroke-width:1.0;"/><line style="stroke:#181818;stroke-width:1.0;stroke-dasharray:2.0,2.0;" x1="701.5" x2="884.5" y1="298.5391" y2="298.5391"/><text fill="#000000" font-family="sans-serif" font-size="13" font-weight="bold" lengthAdjust="spacing" textLength="7" x="713.5" y="293.7842">6</text><text fill="#000000" font-family="sans-serif" font-size="13" lengthAdjust="spacing" textLength="39" x="724.5" y="293.7842">factory</text><polygon fill="#181818" points="1011.5,323.0625,1021.5,327.0625,1011.5,331.0625,1015.5,327.0625" style="stroke:#181818;stroke-width:1.0;"/><line style="stroke:#181818;stroke-width:1.0;" x1="696.5" x2="1017.5" y1="327.0625" y2="327.0625"/><text fill="#000000" font-family="sans-serif" font-size="13" font-weight="bold" lengthAdjust="spacing" textLength="7" x="703.5" y="322.3076">7</text><text fill="#000000" font-family="sans-serif" font-size="13" lengthAdjust="spacing" textLength="90" x="714.5" y="322.3076">JobOpennings()</text><polygon fill="#181818" points="1176.5,351.5859,1186.5,355.5859,1176.5,359.5859,1180.5,355.5859" style="stroke:#181818;stroke-width:1.0;"/><line style="stroke:#181818;stroke-width:1.0;stroke-dasharray:2.0,2.0;" x1="1033.5" x2="1182.5" y1="355.5859" y2="355.5859"/><text fill="#000000" font-family="sans-serif" font-size="13" font-weight="bold" lengthAdjust="spacing" textLength="7" x="1040.5" y="350.8311">8</text><text fill="#000000" font-family="sans-serif" font-size="13" lengthAdjust="spacing" textLength="44" x="1051.5" y="350.8311">create()</text><polygon fill="#181818" points="707.5,380.1094,697.5,384.1094,707.5,388.1094,703.5,384.1094" style="stroke:#181818;stroke-width:1.0;"/><line style="stroke:#181818;stroke-width:1.0;" x1="701.5" x2="1027.5" y1="384.1094" y2="384.1094"/><text fill="#000000" font-family="sans-serif" font-size="13" font-weight="bold" lengthAdjust="spacing" textLength="7" x="713.5" y="379.3545">9</text><text fill="#000000" font-family="sans-serif" font-size="13" lengthAdjust="spacing" textLength="137" x="724.5" y="379.3545">JobOpenningRepository</text><polygon fill="#181818" points="1171.5,408.6328,1181.5,412.6328,1171.5,416.6328,1175.5,412.6328" style="stroke:#181818;stroke-width:1.0;"/><line style="stroke:#181818;stroke-width:1.0;" x1="696.5" x2="1177.5" y1="412.6328" y2="412.6328"/><text fill="#000000" font-family="sans-serif" font-size="13" font-weight="bold" lengthAdjust="spacing" textLength="14" x="703.5" y="407.8779">10</text><text fill="#000000" font-family="sans-serif" font-size="13" lengthAdjust="spacing" textLength="43" x="721.5" y="407.8779">findAll()</text><polygon fill="#181818" points="707.5,437.1563,697.5,441.1563,707.5,445.1563,703.5,441.1563" style="stroke:#181818;stroke-width:1.0;"/><line style="stroke:#181818;stroke-width:1.0;stroke-dasharray:2.0,2.0;" x1="701.5" x2="1187.5" y1="441.1563" y2="441.1563"/><text fill="#000000" font-family="sans-serif" font-size="13" font-weight="bold" lengthAdjust="spacing" textLength="14" x="713.5" y="436.4014">11</text><text fill="#000000" font-family="sans-serif" font-size="13" lengthAdjust="spacing" textLength="72" x="731.5" y="436.4014">jobOpenings</text><polygon fill="#181818" points="398.5,465.6797,388.5,469.6797,398.5,473.6797,394.5,469.6797" style="stroke:#181818;stroke-width:1.0;"/><line style="stroke:#181818;stroke-width:1.0;stroke-dasharray:2.0,2.0;" x1="392.5" x2="690.5" y1="469.6797" y2="469.6797"/><text fill="#000000" font-family="sans-serif" font-size="13" font-weight="bold" lengthAdjust="spacing" textLength="14" x="404.5" y="464.9248">12</text><text fill="#000000" font-family="sans-serif" font-size="13" lengthAdjust="spacing" textLength="120" x="422.5" y="464.9248">filteredJobOpennings</text><polygon fill="#181818" points="97.5,494.2031,87.5,498.2031,97.5,502.2031,93.5,498.2031" style="stroke:#181818;stroke-width:1.0;"/><line style="stroke:#181818;stroke-width:1.0;stroke-dasharray:2.0,2.0;" x1="91.5" x2="381.5" y1="498.2031" y2="498.2031"/><text fill="#000000" font-family="sans-serif" font-size="13" font-weight="bold" lengthAdjust="spacing" textLength="14" x="103.5" y="493.4482">13</text><text fill="#000000" font-family="sans-serif" font-size="13" lengthAdjust="spacing" textLength="4" x="121.5" y="493.4482">&#160;</text><polygon fill="#181818" points="365.5,522.7266,375.5,526.7266,365.5,530.7266,369.5,526.7266" style="stroke:#181818;stroke-width:1.0;"/><line style="stroke:#181818;stroke-width:1.0;" x1="86.5" x2="371.5" y1="526.7266" y2="526.7266"/><text fill="#000000" font-family="sans-serif" font-size="13" font-weight="bold" lengthAdjust="spacing" textLength="14" x="93.5" y="521.9717">14</text><text fill="#000000" font-family="sans-serif" font-size="13" lengthAdjust="spacing" textLength="129" x="111.5" y="521.9717">choose a Job Opening</text><line style="stroke:#181818;stroke-width:1.0;" x1="387.5" x2="429.5" y1="555.25" y2="555.25"/><line style="stroke:#181818;stroke-width:1.0;" x1="429.5" x2="429.5" y1="555.25" y2="568.25"/><line style="stroke:#181818;stroke-width:1.0;" x1="388.5" x2="429.5" y1="568.25" y2="568.25"/><polygon fill="#181818" points="398.5,564.25,388.5,568.25,398.5,572.25,394.5,568.25" style="stroke:#181818;stroke-width:1.0;"/><text fill="#000000" font-family="sans-serif" font-size="13" font-weight="bold" lengthAdjust="spacing" textLength="14" x="394.5" y="550.4951">15</text><text fill="#000000" font-family="sans-serif" font-size="13" lengthAdjust="spacing" textLength="203" x="412.5" y="550.4951">selectJobOpening(listJobOpenings)</text><polygon fill="#181818" points="97.5,592.7734,87.5,596.7734,97.5,600.7734,93.5,596.7734" style="stroke:#181818;stroke-width:1.0;"/><line style="stroke:#181818;stroke-width:1.0;stroke-dasharray:2.0,2.0;" x1="91.5" x2="381.5" y1="596.7734" y2="596.7734"/><text fill="#000000" font-family="sans-serif" font-size="13" font-weight="bold" lengthAdjust="spacing" textLength="14" x="103.5" y="592.0186">16</text><text fill="#000000" font-family="sans-serif" font-size="13" lengthAdjust="spacing" textLength="116" x="121.5" y="592.0186">asks if has interview</text><polygon fill="#181818" points="365.5,621.2969,375.5,625.2969,365.5,629.2969,369.5,625.2969" style="stroke:#181818;stroke-width:1.0;"/><line style="stroke:#181818;stroke-width:1.0;stroke-dasharray:2.0,2.0;" x1="86.5" x2="371.5" y1="625.2969" y2="625.2969"/><text fill="#000000" font-family="sans-serif" font-size="13" font-weight="bold" lengthAdjust="spacing" textLength="14" x="93.5" y="620.542">17</text><text fill="#000000" font-family="sans-serif" font-size="13" lengthAdjust="spacing" textLength="103" x="111.5" y="620.542">answer Yes or No</text><line style="stroke:#181818;stroke-width:1.0;" x1="387.5" x2="429.5" y1="653.8203" y2="653.8203"/><line style="stroke:#181818;stroke-width:1.0;" x1="429.5" x2="429.5" y1="653.8203" y2="666.8203"/><line style="stroke:#181818;stroke-width:1.0;" x1="388.5" x2="429.5" y1="666.8203" y2="666.8203"/><polygon fill="#181818" points="398.5,662.8203,388.5,666.8203,398.5,670.8203,394.5,666.8203" style="stroke:#181818;stroke-width:1.0;"/><text fill="#000000" font-family="sans-serif" font-size="13" font-weight="bold" lengthAdjust="spacing" textLength="14" x="394.5" y="649.0654">18</text><text fill="#000000" font-family="sans-serif" font-size="13" lengthAdjust="spacing" textLength="120" x="412.5" y="649.0654">selectHaveInterview()</text><line style="stroke:#181818;stroke-width:1.0;" x1="387.5" x2="429.5" y1="695.3438" y2="695.3438"/><line style="stroke:#181818;stroke-width:1.0;" x1="429.5" x2="429.5" y1="695.3438" y2="708.3438"/><line style="stroke:#181818;stroke-width:1.0;" x1="388.5" x2="429.5" y1="708.3438" y2="708.3438"/><polygon fill="#181818" points="398.5,704.3438,388.5,708.3438,398.5,712.3438,394.5,708.3438" style="stroke:#181818;stroke-width:1.0;"/><text fill="#000000" font-family="sans-serif" font-size="13" font-weight="bold" lengthAdjust="spacing" textLength="14" x="394.5" y="690.5889">19</text><text fill="#000000" font-family="sans-serif" font-size="13" lengthAdjust="spacing" textLength="147" x="412.5" y="690.5889">selectDates(hasInterview)</text><path d="M10,723.3438 L83,723.3438 L83,729.8672 L73,739.8672 L10,739.8672 L10,723.3438 " fill="#EEEEEE" style="stroke:#000000;stroke-width:1.5;"/><rect fill="none" height="73.5703" style="stroke:#000000;stroke-width:1.5;" width="477.5" x="10" y="723.3438"/><text fill="#000000" font-family="sans-serif" font-size="13" font-weight="bold" lengthAdjust="spacing" textLength="28" x="25" y="736.1123">loop</text><text fill="#000000" font-family="sans-serif" font-size="11" font-weight="bold" lengthAdjust="spacing" textLength="84" x="98" y="735.3018">[setup phases]</text><polygon fill="#181818" points="97.5,756.3906,87.5,760.3906,97.5,764.3906,93.5,760.3906" style="stroke:#181818;stroke-width:1.0;"/><line style="stroke:#181818;stroke-width:1.0;stroke-dasharray:2.0,2.0;" x1="91.5" x2="381.5" y1="760.3906" y2="760.3906"/><text fill="#000000" font-family="sans-serif" font-size="13" font-weight="bold" lengthAdjust="spacing" textLength="14" x="103.5" y="755.6357">20</text><text fill="#000000" font-family="sans-serif" font-size="13" lengthAdjust="spacing" textLength="180" x="121.5" y="755.6357">request to insert date for phase</text><polygon fill="#181818" points="365.5,784.9141,375.5,788.9141,365.5,792.9141,369.5,788.9141" style="stroke:#181818;stroke-width:1.0;"/><line style="stroke:#181818;stroke-width:1.0;" x1="86.5" x2="371.5" y1="788.9141" y2="788.9141"/><text fill="#000000" font-family="sans-serif" font-size="13" font-weight="bold" lengthAdjust="spacing" textLength="14" x="93.5" y="784.1592">21</text><text fill="#000000" font-family="sans-serif" font-size="13" lengthAdjust="spacing" textLength="61" x="111.5" y="784.1592">insert data</text><polygon fill="#181818" points="674.5,820.4375,684.5,824.4375,674.5,828.4375,678.5,824.4375" style="stroke:#181818;stroke-width:1.0;"/><line style="stroke:#181818;stroke-width:1.0;" x1="387.5" x2="680.5" y1="824.4375" y2="824.4375"/><text fill="#000000" font-family="sans-serif" font-size="13" font-weight="bold" lengthAdjust="spacing" textLength="14" x="394.5" y="819.6826">22</text><text fill="#000000" font-family="sans-serif" font-size="13" lengthAdjust="spacing" textLength="262" x="412.5" y="819.6826">SetupPhasesJobOpening(JobOpening, dates)</text><polygon fill="#181818" points="1322.5,848.9609,1332.5,852.9609,1322.5,856.9609,1326.5,852.9609" style="stroke:#181818;stroke-width:1.0;"/><line style="stroke:#181818;stroke-width:1.0;" x1="696.5" x2="1328.5" y1="852.9609" y2="852.9609"/><text fill="#000000" font-family="sans-serif" font-size="13" font-weight="bold" lengthAdjust="spacing" textLength="14" x="703.5" y="848.2061">23</text><text fill="#000000" font-family="sans-serif" font-size="13" lengthAdjust="spacing" textLength="257" x="721.5" y="848.2061">setRecruitmentProcess(recruitmentProcess)</text><polygon fill="#181818" points="1176.5,877.4844,1186.5,881.4844,1176.5,885.4844,1180.5,881.4844" style="stroke:#181818;stroke-width:1.0;"/><line style="stroke:#181818;stroke-width:1.0;" x1="696.5" x2="1182.5" y1="881.4844" y2="881.4844"/><text fill="#000000" font-family="sans-serif" font-size="13" font-weight="bold" lengthAdjust="spacing" textLength="14" x="703.5" y="876.7295">24</text><text fill="#000000" font-family="sans-serif" font-size="13" lengthAdjust="spacing" textLength="99" x="721.5" y="876.7295">save(jobOpening)</text><polygon fill="#181818" points="398.5,906.0078,388.5,910.0078,398.5,914.0078,394.5,910.0078" style="stroke:#181818;stroke-width:1.0;"/><line style="stroke:#181818;stroke-width:1.0;" x1="392.5" x2="690.5" y1="910.0078" y2="910.0078"/><text fill="#000000" font-family="sans-serif" font-size="13" font-weight="bold" lengthAdjust="spacing" textLength="14" x="404.5" y="905.2529">25</text><text fill="#000000" font-family="sans-serif" font-size="13" lengthAdjust="spacing" textLength="65" x="422.5" y="905.2529">jobOpening</text><polygon fill="#181818" points="97.5,934.5313,87.5,938.5313,97.5,942.5313,93.5,938.5313" style="stroke:#181818;stroke-width:1.0;"/><line style="stroke:#181818;stroke-width:1.0;stroke-dasharray:2.0,2.0;" x1="91.5" x2="381.5" y1="938.5313" y2="938.5313"/><text fill="#000000" font-family="sans-serif" font-size="13" font-weight="bold" lengthAdjust="spacing" textLength="14" x="103.5" y="933.7764">26</text><text fill="#000000" font-family="sans-serif" font-size="13" lengthAdjust="spacing" textLength="140" x="121.5" y="933.7764">show success message</text><!--SRC=[ZLLDZvim4BtxLrXxALcLxXsjaBPRLKsbTbUxog571oR1NR2fnsoQVz-n8U1W4ZM72EnvRzvyyg6ojiNixgwjXR9TKtygT7E7yAS3LK1QIh4tec4CtwHg1JtoHYjTL4OtmAtf8BXfHV4czl1gZpLm0uKLQb-71bY9KX-aslETg14O4vtLgcksOEYviDhmnmujKPiVGX6LuGBvWxjWn61b8LjIoM-oLx1T-rm91FokjqyjA6BTh6-S_MRDx-zR0mZA2YkrodDMQ6MDhYyX7_lh6endc5w9IRHjBOiJqPcCPp0eqRfCEGZyjHuU73ibqziS_mAjHadH7R_ww8yU7frU9yc6C5mS4zGpBTuGcnbVhf7DAGXOwaP8bmPVBlakB0pbuVJpJppDNGKoQW3g8RJSQeukvznMm5kVUBuZEy5_wotNVG4yVgJShCc1EzciYMsgnkqjyHO6o6OmSAxEJ3B7EbJryt7MJSbgG8sU9k1mCnsaUL37R4oP12IQSvR0iBy93j8ygcVMXt2Y2OtJF0nbrzltPYKi-blG7JiConZBZ-px- -YOr2rsr2oU61S4nRFbhcHHaB6gED9bENmdLVbGrt6vbrrxc-LPIS-QYuVTXP7YQu45gjDyitOQQmi6oh0o4MFKdZGGQUxdB6CiC7GJCuwWS-06fT8QWUQCNF2d2tCM39478TIqkAVDcDJKQDChheAv8qm_yXbjYZVaSiTflBcaJMZU9HoYS4ugJvlYv5GeF51sVz5ceEEVUbQr4HRf_2RUONrobwmkcNqX5an8ssYx6kQcrheTrbE_cjWio-4Qamh1M5uwJMw3UGIx46DOYGaes69ae4elPTfwPqst-CrAfiUFNXEksANTDf-RixNkicHVe32Tj0rzCv-DBW0nCT6HonfZ_pM4ZfMAaqppiegWOvKc8tPb0ABIOAKF7Bl2IUCD_T6EPqlrw7__0000]--></g></svg>