<?xml version="1.0" encoding="us-ascii" standalone="no"?><svg xmlns="http://www.w3.org/2000/svg" xmlns:xlink="http://www.w3.org/1999/xlink" contentStyleType="text/css" height="315px" preserveAspectRatio="none" style="width:411px;height:315px;background:#FFFFFF;" version="1.1" viewBox="0 0 411 315" width="411px" zoomAndPan="magnify"><defs/><g><!--cluster Candidate Aggregate--><g id="cluster_Candidate Aggregate"><path d="M4.25,87.5 L78.75,87.5 A1.875,1.875 0 0 1 80,88.75 L83.5,98.3203 L157.25,98.3203 A1.25,1.25 0 0 1 158.5,99.5703 L158.5,234.75 A1.25,1.25 0 0 1 157.25,236 L4.25,236 A1.25,1.25 0 0 1 3,234.75 L3,88.75 A1.25,1.25 0 0 1 4.25,87.5 " fill="none" style="stroke:#000000;stroke-width:0.75;"/><line style="stroke:#000000;stroke-width:0.75;" x1="3" x2="83.5" y1="98.3203" y2="98.3203"/><text fill="#000000" font-family="sans-serif" font-size="7" font-weight="bold" lengthAdjust="spacing" textLength="74" x="5" y="94.8369">Candidate Aggregate</text></g><!--cluster Job Opening Aggregate--><g id="cluster_Job Opening Aggregate"><path d="M178.25,3 L262.25,3 A1.875,1.875 0 0 1 263.5,4.25 L267,13.8203 L267.25,13.8203 A1.25,1.25 0 0 1 268.5,15.0703 L268.5,147.75 A1.25,1.25 0 0 1 267.25,149 L178.25,149 A1.25,1.25 0 0 1 177,147.75 L177,4.25 A1.25,1.25 0 0 1 178.25,3 " fill="none" style="stroke:#000000;stroke-width:0.75;"/><line style="stroke:#000000;stroke-width:0.75;" x1="177" x2="267" y1="13.8203" y2="13.8203"/><text fill="#000000" font-family="sans-serif" font-size="7" font-weight="bold" lengthAdjust="spacing" textLength="83.5" x="179" y="10.3369">Job Opening Aggregate</text></g><!--cluster JobApplication Aggregate--><g id="cluster_JobApplication Aggregate"><path d="M171.75,173 L262.75,173 A1.875,1.875 0 0 1 264,174.25 L267.5,183.8203 L406.25,183.8203 A1.25,1.25 0 0 1 407.5,185.0703 L407.5,310.25 A1.25,1.25 0 0 1 406.25,311.5 L171.75,311.5 A1.25,1.25 0 0 1 170.5,310.25 L170.5,174.25 A1.25,1.25 0 0 1 171.75,173 " fill="none" style="stroke:#000000;stroke-width:0.75;"/><line style="stroke:#000000;stroke-width:0.75;" x1="170.5" x2="267.5" y1="183.8203" y2="183.8203"/><text fill="#000000" font-family="sans-serif" font-size="7" font-weight="bold" lengthAdjust="spacing" textLength="90.5" x="172.5" y="180.3369">JobApplication Aggregate</text></g><!--class Candidate--><g id="elem_Candidate"><rect codeLine="5" fill="#F1F1F1" height="36.4609" id="Candidate" rx="1.25" ry="1.25" style="stroke:#181818;stroke-width:0.25;" width="48.5" x="101.75" y="104.5"/><ellipse cx="109.25" cy="118.7305" fill="#ADD1B2" rx="5.5" ry="5.5" style="stroke:#181818;stroke-width:0.5;"/><path d="M110.6328,116.668 Q110.7109,116.5586 110.8047,116.5039 Q110.8984,116.4492 111.0078,116.4492 Q111.1953,116.4492 111.3125,116.582 Q111.4297,116.707 111.4297,117.0117 L111.4297,117.7383 Q111.4297,118.043 111.3125,118.1758 Q111.1953,118.3086 111.0078,118.3086 Q110.8359,118.3086 110.7344,118.207 Q110.6328,118.1133 110.5781,117.8555 Q110.5547,117.6758 110.4609,117.582 Q110.2969,117.3945 109.9922,117.2852 Q109.6875,117.1758 109.375,117.1758 Q108.9922,117.1758 108.6719,117.3398 Q108.3594,117.5039 108.1094,117.8789 Q107.8672,118.2539 107.8672,118.7695 L107.8672,119.3164 Q107.8672,119.9336 108.3125,120.3477 Q108.7578,120.7539 109.5547,120.7539 Q110.0234,120.7539 110.3516,120.6289 Q110.5469,120.5508 110.7578,120.332 Q110.8906,120.1992 110.9609,120.1602 Q111.0391,120.1211 111.1406,120.1211 Q111.3047,120.1211 111.4297,120.2539 Q111.5625,120.3789 111.5625,120.5508 Q111.5625,120.7227 111.3906,120.9258 Q111.1406,121.2148 110.7422,121.3789 Q110.2031,121.6055 109.5547,121.6055 Q108.7969,121.6055 108.1953,121.293 Q107.7031,121.043 107.3594,120.5117 Q107.0156,119.9727 107.0156,119.332 L107.0156,118.7539 Q107.0156,118.0898 107.3203,117.5195 Q107.6328,116.9414 108.1797,116.6367 Q108.7266,116.3242 109.3438,116.3242 Q109.7109,116.3242 110.0313,116.4102 Q110.3594,116.4883 110.6328,116.668 Z " fill="#000000"/><text fill="#000000" font-family="sans-serif" font-size="7" lengthAdjust="spacing" textLength="20.5" x="122.25" y="113.3369">&#171;root&#187;</text><text fill="#000000" font-family="sans-serif" font-size="7" lengthAdjust="spacing" textLength="25" x="120" y="121.1572">&#171;entity&#187;</text><text fill="#000000" font-family="sans-serif" font-size="7" lengthAdjust="spacing" textLength="32.5" x="116.25" y="128.9775">Candidate</text><line style="stroke:#181818;stroke-width:0.25;" x1="102.25" x2="149.75" y1="132.9609" y2="132.9609"/><line style="stroke:#181818;stroke-width:0.25;" x1="102.25" x2="149.75" y1="136.9609" y2="136.9609"/></g><!--class Name2--><g id="elem_Name2"><rect codeLine="9" fill="#F1F1F1" height="39.6406" id="Name2" rx="1.25" ry="1.25" style="stroke:#181818;stroke-width:0.25;" width="35.5" x="32.75" y="188.5"/><ellipse cx="40.925" cy="196.5" fill="#ADD1B2" rx="5.5" ry="5.5" style="stroke:#181818;stroke-width:0.5;"/><path d="M42.3078,194.4375 Q42.3859,194.3281 42.4797,194.2734 Q42.5734,194.2188 42.6828,194.2188 Q42.8703,194.2188 42.9875,194.3516 Q43.1047,194.4766 43.1047,194.7813 L43.1047,195.5078 Q43.1047,195.8125 42.9875,195.9453 Q42.8703,196.0781 42.6828,196.0781 Q42.5109,196.0781 42.4094,195.9766 Q42.3078,195.8828 42.2531,195.625 Q42.2297,195.4453 42.1359,195.3516 Q41.9719,195.1641 41.6672,195.0547 Q41.3625,194.9453 41.05,194.9453 Q40.6672,194.9453 40.3469,195.1094 Q40.0344,195.2734 39.7844,195.6484 Q39.5422,196.0234 39.5422,196.5391 L39.5422,197.0859 Q39.5422,197.7031 39.9875,198.1172 Q40.4328,198.5234 41.2297,198.5234 Q41.6984,198.5234 42.0266,198.3984 Q42.2219,198.3203 42.4328,198.1016 Q42.5656,197.9688 42.6359,197.9297 Q42.7141,197.8906 42.8156,197.8906 Q42.9797,197.8906 43.1047,198.0234 Q43.2375,198.1484 43.2375,198.3203 Q43.2375,198.4922 43.0656,198.6953 Q42.8156,198.9844 42.4172,199.1484 Q41.8781,199.375 41.2297,199.375 Q40.4719,199.375 39.8703,199.0625 Q39.3781,198.8125 39.0344,198.2813 Q38.6906,197.7422 38.6906,197.1016 L38.6906,196.5234 Q38.6906,195.8594 38.9953,195.2891 Q39.3078,194.7109 39.8547,194.4063 Q40.4016,194.0938 41.0188,194.0938 Q41.3859,194.0938 41.7063,194.1797 Q42.0344,194.2578 42.3078,194.4375 Z " fill="#000000"/><text fill="#000000" font-family="sans-serif" font-size="7" lengthAdjust="spacing" textLength="18" x="48.075" y="198.9268">Name</text><line style="stroke:#181818;stroke-width:0.25;" x1="33.25" x2="67.75" y1="204.5" y2="204.5"/><text fill="#000000" font-family="sans-serif" font-size="7" lengthAdjust="spacing" textLength="29.5" x="35.75" y="212.8369">firstName</text><text fill="#000000" font-family="sans-serif" font-size="7" lengthAdjust="spacing" textLength="29" x="35.75" y="220.6572">lastName</text><line style="stroke:#181818;stroke-width:0.25;" x1="33.25" x2="67.75" y1="224.1406" y2="224.1406"/></g><!--class PhoneNumber--><g id="elem_PhoneNumber"><rect codeLine="14" fill="#F1F1F1" height="28.6406" id="PhoneNumber" rx="1.25" ry="1.25" style="stroke:#181818;stroke-width:0.25;" width="62" x="11" y="108.5"/><ellipse cx="18.5" cy="118.8203" fill="#ADD1B2" rx="5.5" ry="5.5" style="stroke:#181818;stroke-width:0.5;"/><path d="M19.8828,116.7578 Q19.9609,116.6484 20.0547,116.5938 Q20.1484,116.5391 20.2578,116.5391 Q20.4453,116.5391 20.5625,116.6719 Q20.6797,116.7969 20.6797,117.1016 L20.6797,117.8281 Q20.6797,118.1328 20.5625,118.2656 Q20.4453,118.3984 20.2578,118.3984 Q20.0859,118.3984 19.9844,118.2969 Q19.8828,118.2031 19.8281,117.9453 Q19.8047,117.7656 19.7109,117.6719 Q19.5469,117.4844 19.2422,117.375 Q18.9375,117.2656 18.625,117.2656 Q18.2422,117.2656 17.9219,117.4297 Q17.6094,117.5938 17.3594,117.9688 Q17.1172,118.3438 17.1172,118.8594 L17.1172,119.4063 Q17.1172,120.0234 17.5625,120.4375 Q18.0078,120.8438 18.8047,120.8438 Q19.2734,120.8438 19.6016,120.7188 Q19.7969,120.6406 20.0078,120.4219 Q20.1406,120.2891 20.2109,120.25 Q20.2891,120.2109 20.3906,120.2109 Q20.5547,120.2109 20.6797,120.3438 Q20.8125,120.4688 20.8125,120.6406 Q20.8125,120.8125 20.6406,121.0156 Q20.3906,121.3047 19.9922,121.4688 Q19.4531,121.6953 18.8047,121.6953 Q18.0469,121.6953 17.4453,121.3828 Q16.9531,121.1328 16.6094,120.6016 Q16.2656,120.0625 16.2656,119.4219 L16.2656,118.8438 Q16.2656,118.1797 16.5703,117.6094 Q16.8828,117.0313 17.4297,116.7266 Q17.9766,116.4141 18.5938,116.4141 Q18.9609,116.4141 19.2813,116.5 Q19.6094,116.5781 19.8828,116.7578 Z " fill="#000000"/><text fill="#000000" font-family="sans-serif" font-size="7" lengthAdjust="spacing" textLength="46" x="25.5" y="117.3369">&#171;value object&#187;</text><text fill="#000000" font-family="sans-serif" font-size="7" lengthAdjust="spacing" textLength="45" x="26" y="125.1572">PhoneNumber</text><line style="stroke:#181818;stroke-width:0.25;" x1="11.5" x2="72.5" y1="129.1406" y2="129.1406"/><line style="stroke:#181818;stroke-width:0.25;" x1="11.5" x2="72.5" y1="133.1406" y2="133.1406"/></g><!--class EMail2--><g id="elem_EMail2"><rect codeLine="17" fill="#F1F1F1" height="28.6406" id="EMail2" rx="1.25" ry="1.25" style="stroke:#181818;stroke-width:0.25;" width="62" x="86" y="194"/><ellipse cx="93.5" cy="204.3203" fill="#ADD1B2" rx="5.5" ry="5.5" style="stroke:#181818;stroke-width:0.5;"/><path d="M94.8828,202.2578 Q94.9609,202.1484 95.0547,202.0938 Q95.1484,202.0391 95.2578,202.0391 Q95.4453,202.0391 95.5625,202.1719 Q95.6797,202.2969 95.6797,202.6016 L95.6797,203.3281 Q95.6797,203.6328 95.5625,203.7656 Q95.4453,203.8984 95.2578,203.8984 Q95.0859,203.8984 94.9844,203.7969 Q94.8828,203.7031 94.8281,203.4453 Q94.8047,203.2656 94.7109,203.1719 Q94.5469,202.9844 94.2422,202.875 Q93.9375,202.7656 93.625,202.7656 Q93.2422,202.7656 92.9219,202.9297 Q92.6094,203.0938 92.3594,203.4688 Q92.1172,203.8438 92.1172,204.3594 L92.1172,204.9063 Q92.1172,205.5234 92.5625,205.9375 Q93.0078,206.3438 93.8047,206.3438 Q94.2734,206.3438 94.6016,206.2188 Q94.7969,206.1406 95.0078,205.9219 Q95.1406,205.7891 95.2109,205.75 Q95.2891,205.7109 95.3906,205.7109 Q95.5547,205.7109 95.6797,205.8438 Q95.8125,205.9688 95.8125,206.1406 Q95.8125,206.3125 95.6406,206.5156 Q95.3906,206.8047 94.9922,206.9688 Q94.4531,207.1953 93.8047,207.1953 Q93.0469,207.1953 92.4453,206.8828 Q91.9531,206.6328 91.6094,206.1016 Q91.2656,205.5625 91.2656,204.9219 L91.2656,204.3438 Q91.2656,203.6797 91.5703,203.1094 Q91.8828,202.5313 92.4297,202.2266 Q92.9766,201.9141 93.5938,201.9141 Q93.9609,201.9141 94.2813,202 Q94.6094,202.0781 94.8828,202.2578 Z " fill="#000000"/><text fill="#000000" font-family="sans-serif" font-size="7" lengthAdjust="spacing" textLength="46" x="100.5" y="202.8369">&#171;value object&#187;</text><text fill="#000000" font-family="sans-serif" font-size="7" lengthAdjust="spacing" textLength="19.5" x="113.75" y="210.6572">E-Mail</text><line style="stroke:#181818;stroke-width:0.25;" x1="86.5" x2="147.5" y1="214.6406" y2="214.6406"/><line style="stroke:#181818;stroke-width:0.25;" x1="86.5" x2="147.5" y1="218.6406" y2="218.6406"/></g><!--class JobOpening--><g id="elem_JobOpening"><rect codeLine="29" fill="#F1F1F1" height="36.4609" id="JobOpening" rx="1.25" ry="1.25" style="stroke:#181818;stroke-width:0.25;" width="54" x="195.5" y="20"/><ellipse cx="203" cy="34.2305" fill="#ADD1B2" rx="5.5" ry="5.5" style="stroke:#181818;stroke-width:0.5;"/><path d="M204.3828,32.168 Q204.4609,32.0586 204.5547,32.0039 Q204.6484,31.9492 204.7578,31.9492 Q204.9453,31.9492 205.0625,32.082 Q205.1797,32.207 205.1797,32.5117 L205.1797,33.2383 Q205.1797,33.543 205.0625,33.6758 Q204.9453,33.8086 204.7578,33.8086 Q204.5859,33.8086 204.4844,33.707 Q204.3828,33.6133 204.3281,33.3555 Q204.3047,33.1758 204.2109,33.082 Q204.0469,32.8945 203.7422,32.7852 Q203.4375,32.6758 203.125,32.6758 Q202.7422,32.6758 202.4219,32.8398 Q202.1094,33.0039 201.8594,33.3789 Q201.6172,33.7539 201.6172,34.2695 L201.6172,34.8164 Q201.6172,35.4336 202.0625,35.8477 Q202.5078,36.2539 203.3047,36.2539 Q203.7734,36.2539 204.1016,36.1289 Q204.2969,36.0508 204.5078,35.832 Q204.6406,35.6992 204.7109,35.6602 Q204.7891,35.6211 204.8906,35.6211 Q205.0547,35.6211 205.1797,35.7539 Q205.3125,35.8789 205.3125,36.0508 Q205.3125,36.2227 205.1406,36.4258 Q204.8906,36.7148 204.4922,36.8789 Q203.9531,37.1055 203.3047,37.1055 Q202.5469,37.1055 201.9453,36.793 Q201.4531,36.543 201.1094,36.0117 Q200.7656,35.4727 200.7656,34.832 L200.7656,34.2539 Q200.7656,33.5898 201.0703,33.0195 Q201.3828,32.4414 201.9297,32.1367 Q202.4766,31.8242 203.0938,31.8242 Q203.4609,31.8242 203.7813,31.9102 Q204.1094,31.9883 204.3828,32.168 Z " fill="#000000"/><text fill="#000000" font-family="sans-serif" font-size="7" lengthAdjust="spacing" textLength="20.5" x="218.75" y="28.8369">&#171;root&#187;</text><text fill="#000000" font-family="sans-serif" font-size="7" lengthAdjust="spacing" textLength="25" x="215.5" y="36.6572">&#171;entity&#187;</text><text fill="#000000" font-family="sans-serif" font-size="7" lengthAdjust="spacing" textLength="38" x="210" y="44.4775">JobOpening</text><line style="stroke:#181818;stroke-width:0.25;" x1="196" x2="249" y1="48.4609" y2="48.4609"/><line style="stroke:#181818;stroke-width:0.25;" x1="196" x2="249" y1="52.4609" y2="52.4609"/></g><!--class JobReference--><g id="elem_JobReference"><rect codeLine="34" fill="#F1F1F1" height="36.4609" id="JobReference" rx="1.25" ry="1.25" style="stroke:#181818;stroke-width:0.25;" width="62" x="188.5" y="104.5"/><ellipse cx="196" cy="118.7305" fill="#ADD1B2" rx="5.5" ry="5.5" style="stroke:#181818;stroke-width:0.5;"/><path d="M197.3828,116.668 Q197.4609,116.5586 197.5547,116.5039 Q197.6484,116.4492 197.7578,116.4492 Q197.9453,116.4492 198.0625,116.582 Q198.1797,116.707 198.1797,117.0117 L198.1797,117.7383 Q198.1797,118.043 198.0625,118.1758 Q197.9453,118.3086 197.7578,118.3086 Q197.5859,118.3086 197.4844,118.207 Q197.3828,118.1133 197.3281,117.8555 Q197.3047,117.6758 197.2109,117.582 Q197.0469,117.3945 196.7422,117.2852 Q196.4375,117.1758 196.125,117.1758 Q195.7422,117.1758 195.4219,117.3398 Q195.1094,117.5039 194.8594,117.8789 Q194.6172,118.2539 194.6172,118.7695 L194.6172,119.3164 Q194.6172,119.9336 195.0625,120.3477 Q195.5078,120.7539 196.3047,120.7539 Q196.7734,120.7539 197.1016,120.6289 Q197.2969,120.5508 197.5078,120.332 Q197.6406,120.1992 197.7109,120.1602 Q197.7891,120.1211 197.8906,120.1211 Q198.0547,120.1211 198.1797,120.2539 Q198.3125,120.3789 198.3125,120.5508 Q198.3125,120.7227 198.1406,120.9258 Q197.8906,121.2148 197.4922,121.3789 Q196.9531,121.6055 196.3047,121.6055 Q195.5469,121.6055 194.9453,121.293 Q194.4531,121.043 194.1094,120.5117 Q193.7656,119.9727 193.7656,119.332 L193.7656,118.7539 Q193.7656,118.0898 194.0703,117.5195 Q194.3828,116.9414 194.9297,116.6367 Q195.4766,116.3242 196.0938,116.3242 Q196.4609,116.3242 196.7813,116.4102 Q197.1094,116.4883 197.3828,116.668 Z " fill="#000000"/><text fill="#000000" font-family="sans-serif" font-size="7" lengthAdjust="spacing" textLength="46" x="203" y="113.3369">&#171;value object&#187;</text><text fill="#000000" font-family="sans-serif" font-size="7" lengthAdjust="spacing" textLength="35" x="208.5" y="121.1572">&#171;identifier&#187;</text><text fill="#000000" font-family="sans-serif" font-size="7" lengthAdjust="spacing" textLength="44" x="204" y="128.9775">JobReference</text><line style="stroke:#181818;stroke-width:0.25;" x1="189" x2="250" y1="132.9609" y2="132.9609"/><line style="stroke:#181818;stroke-width:0.25;" x1="189" x2="250" y1="136.9609" y2="136.9609"/></g><!--class JobApplication--><g id="elem_JobApplication"><rect codeLine="41" fill="#F1F1F1" height="36.4609" id="JobApplication" rx="1.25" ry="1.25" style="stroke:#181818;stroke-width:0.25;" width="61.5" x="254.75" y="190"/><ellipse cx="262.25" cy="204.2305" fill="#ADD1B2" rx="5.5" ry="5.5" style="stroke:#181818;stroke-width:0.5;"/><path d="M263.6328,202.168 Q263.7109,202.0586 263.8047,202.0039 Q263.8984,201.9492 264.0078,201.9492 Q264.1953,201.9492 264.3125,202.082 Q264.4297,202.207 264.4297,202.5117 L264.4297,203.2383 Q264.4297,203.543 264.3125,203.6758 Q264.1953,203.8086 264.0078,203.8086 Q263.8359,203.8086 263.7344,203.707 Q263.6328,203.6133 263.5781,203.3555 Q263.5547,203.1758 263.4609,203.082 Q263.2969,202.8945 262.9922,202.7852 Q262.6875,202.6758 262.375,202.6758 Q261.9922,202.6758 261.6719,202.8398 Q261.3594,203.0039 261.1094,203.3789 Q260.8672,203.7539 260.8672,204.2695 L260.8672,204.8164 Q260.8672,205.4336 261.3125,205.8477 Q261.7578,206.2539 262.5547,206.2539 Q263.0234,206.2539 263.3516,206.1289 Q263.5469,206.0508 263.7578,205.832 Q263.8906,205.6992 263.9609,205.6602 Q264.0391,205.6211 264.1406,205.6211 Q264.3047,205.6211 264.4297,205.7539 Q264.5625,205.8789 264.5625,206.0508 Q264.5625,206.2227 264.3906,206.4258 Q264.1406,206.7148 263.7422,206.8789 Q263.2031,207.1055 262.5547,207.1055 Q261.7969,207.1055 261.1953,206.793 Q260.7031,206.543 260.3594,206.0117 Q260.0156,205.4727 260.0156,204.832 L260.0156,204.2539 Q260.0156,203.5898 260.3203,203.0195 Q260.6328,202.4414 261.1797,202.1367 Q261.7266,201.8242 262.3438,201.8242 Q262.7109,201.8242 263.0313,201.9102 Q263.3594,201.9883 263.6328,202.168 Z " fill="#000000"/><text fill="#000000" font-family="sans-serif" font-size="7" lengthAdjust="spacing" textLength="20.5" x="281.75" y="198.8369">&#171;root&#187;</text><text fill="#000000" font-family="sans-serif" font-size="7" lengthAdjust="spacing" textLength="25" x="279.5" y="206.6572">&#171;entity&#187;</text><text fill="#000000" font-family="sans-serif" font-size="7" lengthAdjust="spacing" textLength="45.5" x="269.25" y="214.4775">JobApplication</text><line style="stroke:#181818;stroke-width:0.25;" x1="255.25" x2="315.75" y1="218.4609" y2="218.4609"/><line style="stroke:#181818;stroke-width:0.25;" x1="255.25" x2="315.75" y1="222.4609" y2="222.4609"/></g><!--class Status--><g id="elem_Status"><rect codeLine="44" fill="#F1F1F1" height="28.6406" id="Status" rx="1.25" ry="1.25" style="stroke:#181818;stroke-width:0.25;" width="62" x="178.5" y="271"/><ellipse cx="186" cy="281.3203" fill="#ADD1B2" rx="5.5" ry="5.5" style="stroke:#181818;stroke-width:0.5;"/><path d="M187.3828,279.2578 Q187.4609,279.1484 187.5547,279.0938 Q187.6484,279.0391 187.7578,279.0391 Q187.9453,279.0391 188.0625,279.1719 Q188.1797,279.2969 188.1797,279.6016 L188.1797,280.3281 Q188.1797,280.6328 188.0625,280.7656 Q187.9453,280.8984 187.7578,280.8984 Q187.5859,280.8984 187.4844,280.7969 Q187.3828,280.7031 187.3281,280.4453 Q187.3047,280.2656 187.2109,280.1719 Q187.0469,279.9844 186.7422,279.875 Q186.4375,279.7656 186.125,279.7656 Q185.7422,279.7656 185.4219,279.9297 Q185.1094,280.0938 184.8594,280.4688 Q184.6172,280.8438 184.6172,281.3594 L184.6172,281.9063 Q184.6172,282.5234 185.0625,282.9375 Q185.5078,283.3438 186.3047,283.3438 Q186.7734,283.3438 187.1016,283.2188 Q187.2969,283.1406 187.5078,282.9219 Q187.6406,282.7891 187.7109,282.75 Q187.7891,282.7109 187.8906,282.7109 Q188.0547,282.7109 188.1797,282.8438 Q188.3125,282.9688 188.3125,283.1406 Q188.3125,283.3125 188.1406,283.5156 Q187.8906,283.8047 187.4922,283.9688 Q186.9531,284.1953 186.3047,284.1953 Q185.5469,284.1953 184.9453,283.8828 Q184.4531,283.6328 184.1094,283.1016 Q183.7656,282.5625 183.7656,281.9219 L183.7656,281.3438 Q183.7656,280.6797 184.0703,280.1094 Q184.3828,279.5313 184.9297,279.2266 Q185.4766,278.9141 186.0938,278.9141 Q186.4609,278.9141 186.7813,279 Q187.1094,279.0781 187.3828,279.2578 Z " fill="#000000"/><text fill="#000000" font-family="sans-serif" font-size="7" lengthAdjust="spacing" textLength="46" x="193" y="279.8369">&#171;value object&#187;</text><text fill="#000000" font-family="sans-serif" font-size="7" lengthAdjust="spacing" textLength="20" x="206" y="287.6572">Status</text><line style="stroke:#181818;stroke-width:0.25;" x1="179" x2="240" y1="291.6406" y2="291.6406"/><line style="stroke:#181818;stroke-width:0.25;" x1="179" x2="240" y1="295.6406" y2="295.6406"/></g><!--class Curriculum--><g id="elem_Curriculum"><rect codeLine="49" fill="#F1F1F1" height="28.6406" id="Curriculum" rx="1.25" ry="1.25" style="stroke:#181818;stroke-width:0.25;" width="62" x="258" y="271"/><ellipse cx="265.5" cy="281.3203" fill="#ADD1B2" rx="5.5" ry="5.5" style="stroke:#181818;stroke-width:0.5;"/><path d="M266.8828,279.2578 Q266.9609,279.1484 267.0547,279.0938 Q267.1484,279.0391 267.2578,279.0391 Q267.4453,279.0391 267.5625,279.1719 Q267.6797,279.2969 267.6797,279.6016 L267.6797,280.3281 Q267.6797,280.6328 267.5625,280.7656 Q267.4453,280.8984 267.2578,280.8984 Q267.0859,280.8984 266.9844,280.7969 Q266.8828,280.7031 266.8281,280.4453 Q266.8047,280.2656 266.7109,280.1719 Q266.5469,279.9844 266.2422,279.875 Q265.9375,279.7656 265.625,279.7656 Q265.2422,279.7656 264.9219,279.9297 Q264.6094,280.0938 264.3594,280.4688 Q264.1172,280.8438 264.1172,281.3594 L264.1172,281.9063 Q264.1172,282.5234 264.5625,282.9375 Q265.0078,283.3438 265.8047,283.3438 Q266.2734,283.3438 266.6016,283.2188 Q266.7969,283.1406 267.0078,282.9219 Q267.1406,282.7891 267.2109,282.75 Q267.2891,282.7109 267.3906,282.7109 Q267.5547,282.7109 267.6797,282.8438 Q267.8125,282.9688 267.8125,283.1406 Q267.8125,283.3125 267.6406,283.5156 Q267.3906,283.8047 266.9922,283.9688 Q266.4531,284.1953 265.8047,284.1953 Q265.0469,284.1953 264.4453,283.8828 Q263.9531,283.6328 263.6094,283.1016 Q263.2656,282.5625 263.2656,281.9219 L263.2656,281.3438 Q263.2656,280.6797 263.5703,280.1094 Q263.8828,279.5313 264.4297,279.2266 Q264.9766,278.9141 265.5938,278.9141 Q265.9609,278.9141 266.2813,279 Q266.6094,279.0781 266.8828,279.2578 Z " fill="#000000"/><text fill="#000000" font-family="sans-serif" font-size="7" lengthAdjust="spacing" textLength="46" x="272.5" y="279.8369">&#171;value object&#187;</text><text fill="#000000" font-family="sans-serif" font-size="7" lengthAdjust="spacing" textLength="34" x="278.5" y="287.6572">Curriculum</text><line style="stroke:#181818;stroke-width:0.25;" x1="258.5" x2="319.5" y1="291.6406" y2="291.6406"/><line style="stroke:#181818;stroke-width:0.25;" x1="258.5" x2="319.5" y1="295.6406" y2="295.6406"/></g><!--class Grade2--><g id="elem_Grade2"><rect codeLine="53" fill="#F1F1F1" height="36.4609" id="Grade2" rx="1.25" ry="1.25" style="stroke:#181818;stroke-width:0.25;" width="62" x="337.5" y="267"/><ellipse cx="345" cy="281.2305" fill="#ADD1B2" rx="5.5" ry="5.5" style="stroke:#181818;stroke-width:0.5;"/><path d="M346.3828,279.168 Q346.4609,279.0586 346.5547,279.0039 Q346.6484,278.9492 346.7578,278.9492 Q346.9453,278.9492 347.0625,279.082 Q347.1797,279.207 347.1797,279.5117 L347.1797,280.2383 Q347.1797,280.543 347.0625,280.6758 Q346.9453,280.8086 346.7578,280.8086 Q346.5859,280.8086 346.4844,280.707 Q346.3828,280.6133 346.3281,280.3555 Q346.3047,280.1758 346.2109,280.082 Q346.0469,279.8945 345.7422,279.7852 Q345.4375,279.6758 345.125,279.6758 Q344.7422,279.6758 344.4219,279.8398 Q344.1094,280.0039 343.8594,280.3789 Q343.6172,280.7539 343.6172,281.2695 L343.6172,281.8164 Q343.6172,282.4336 344.0625,282.8477 Q344.5078,283.2539 345.3047,283.2539 Q345.7734,283.2539 346.1016,283.1289 Q346.2969,283.0508 346.5078,282.832 Q346.6406,282.6992 346.7109,282.6602 Q346.7891,282.6211 346.8906,282.6211 Q347.0547,282.6211 347.1797,282.7539 Q347.3125,282.8789 347.3125,283.0508 Q347.3125,283.2227 347.1406,283.4258 Q346.8906,283.7148 346.4922,283.8789 Q345.9531,284.1055 345.3047,284.1055 Q344.5469,284.1055 343.9453,283.793 Q343.4531,283.543 343.1094,283.0117 Q342.7656,282.4727 342.7656,281.832 L342.7656,281.2539 Q342.7656,280.5898 343.0703,280.0195 Q343.3828,279.4414 343.9297,279.1367 Q344.4766,278.8242 345.0938,278.8242 Q345.4609,278.8242 345.7813,278.9102 Q346.1094,278.9883 346.3828,279.168 Z " fill="#000000"/><text fill="#000000" font-family="sans-serif" font-size="7" lengthAdjust="spacing" textLength="46" x="352" y="275.8369">&#171;value object&#187;</text><text fill="#000000" font-family="sans-serif" font-size="7" lengthAdjust="spacing" textLength="40" x="355" y="283.6572">&#171;calculated&#187;</text><text fill="#000000" font-family="sans-serif" font-size="7" lengthAdjust="spacing" textLength="20" x="365" y="291.4775">Grade</text><line style="stroke:#181818;stroke-width:0.25;" x1="338" x2="399" y1="295.4609" y2="295.4609"/><line style="stroke:#181818;stroke-width:0.25;" x1="338" x2="399" y1="299.4609" y2="299.4609"/></g><!--link JobApplication to Curriculum--><g id="link_JobApplication_Curriculum"><path codeLine="58" d="M286.32,226.57 C286.945,240.08 287.6465,255.3932 288.2215,267.8382 " fill="none" id="JobApplication-to-Curriculum" style="stroke:#181818;stroke-width:0.5;"/><polygon fill="#181818" points="288.36,270.835,290.1502,266.2475,288.2446,268.3377,286.1544,266.4321,288.36,270.835" style="stroke:#181818;stroke-width:0.5;"/><text fill="#000000" font-family="sans-serif" font-size="6.5" lengthAdjust="spacing" textLength="24" x="287.5" y="250.3843">includes</text><text fill="#000000" font-family="sans-serif" font-size="6.5" lengthAdjust="spacing" textLength="3.5" x="282.6543" y="236.3678">1</text><text fill="#000000" font-family="sans-serif" font-size="6.5" lengthAdjust="spacing" textLength="3.5" x="284.3073" y="265.5904">1</text></g><!--link JobApplication to Grade2--><g id="link_JobApplication_Grade2"><path codeLine="59" d="M304.96,226.57 C318.23,238.72 333.527,252.7295 346.807,264.8845 " fill="none" id="JobApplication-to-Grade2" style="stroke:#181818;stroke-width:0.5;"/><polygon fill="#181818" points="349.02,266.91,347.0509,262.3964,347.1758,265.2221,344.3502,265.3471,349.02,266.91" style="stroke:#181818;stroke-width:0.5;"/><text fill="#000000" font-family="sans-serif" font-size="6.5" lengthAdjust="spacing" textLength="24" x="332" y="250.3843">includes</text><text fill="#000000" font-family="sans-serif" font-size="6.5" lengthAdjust="spacing" textLength="11" x="333.2582" y="261.6597">0..1</text></g><!--link JobApplication to Status--><g id="link_JobApplication_Status"><path codeLine="60" d="M267.68,226.57 C254.17,240.08 237.9813,256.2687 225.5363,268.7137 " fill="none" id="JobApplication-to-Status" style="stroke:#181818;stroke-width:0.5;"/><polygon fill="#181818" points="223.415,270.835,228.0112,269.0672,225.1828,269.0672,225.1828,266.2388,223.415,270.835" style="stroke:#181818;stroke-width:0.5;"/><text fill="#000000" font-family="sans-serif" font-size="6.5" lengthAdjust="spacing" textLength="10.5" x="250" y="250.3843">has</text><text fill="#000000" font-family="sans-serif" font-size="6.5" lengthAdjust="spacing" textLength="3.5" x="260.6941" y="236.3678">1</text><text fill="#000000" font-family="sans-serif" font-size="6.5" lengthAdjust="spacing" textLength="3.5" x="222.7282" y="265.5904">1</text></g><!--link JobOpening to JobReference--><g id="link_JobOpening_JobReference"><path codeLine="62" d="M221.855,56.665 C221.35,70.75 220.7575,87.2869 220.2525,101.3669 " fill="none" id="JobOpening-to-JobReference" style="stroke:#181818;stroke-width:0.5;"/><polygon fill="#181818" points="220.145,104.365,222.305,99.9396,220.2346,101.8666,218.3076,99.7962,220.145,104.365" style="stroke:#181818;stroke-width:0.5;"/><text fill="#000000" font-family="sans-serif" font-size="6.5" lengthAdjust="spacing" textLength="24" x="222" y="77.8843">includes</text><text fill="#000000" font-family="sans-serif" font-size="6.5" lengthAdjust="spacing" textLength="3.5" x="217.9434" y="66.3418">1</text><text fill="#000000" font-family="sans-serif" font-size="6.5" lengthAdjust="spacing" textLength="3.5" x="216.4344" y="99.1061">1</text></g><!--reverse link JobOpening to JobApplication--><g id="link_JobOpening_JobApplication"><path codeLine="63" d="M242.9987,58.8278 C249.8637,66.4778 255.055,73.675 259.5,83.5 C275.625,119.14 281.89,165.09 284.215,189.92 " fill="none" id="JobOpening-backto-JobApplication" style="stroke:#181818;stroke-width:0.5;"/><polygon fill="#181818" points="240.995,56.595,242.512,61.28,242.6647,58.4557,245.489,58.6084,240.995,56.595" style="stroke:#181818;stroke-width:0.5;"/><text fill="#000000" font-family="sans-serif" font-size="6.5" lengthAdjust="spacing" textLength="23.5" x="279.5" y="125.1343">refers to</text><text fill="#000000" font-family="sans-serif" font-size="6.5" lengthAdjust="spacing" textLength="3.5" x="240.4777" y="66.3972">1</text><text fill="#000000" font-family="sans-serif" font-size="6.5" lengthAdjust="spacing" textLength="2.5" x="281.2318" y="184.6716">*</text></g><!--link Candidate to EMail2--><g id="link_Candidate_EMail2"><path codeLine="68" d="M124.09,141.17 C122.415,156.915 120.3281,176.5169 118.7931,190.9119 " fill="none" id="Candidate-to-EMail2" style="stroke:#181818;stroke-width:0.5;"/><polygon fill="#181818" points="118.475,193.895,120.9409,189.6324,118.7401,191.4091,116.9634,189.2083,118.475,193.895" style="stroke:#181818;stroke-width:0.5;"/><text fill="#000000" font-family="sans-serif" font-size="6.5" lengthAdjust="spacing" textLength="34.5" x="123" y="163.3843">identified by</text><text fill="#000000" font-family="sans-serif" font-size="6.5" lengthAdjust="spacing" textLength="3.5" x="119.9609" y="150.8476">1</text><text fill="#000000" font-family="sans-serif" font-size="6.5" lengthAdjust="spacing" textLength="3.5" x="114.9114" y="188.6643">1</text></g><!--reverse link PhoneNumber to Candidate--><g id="link_PhoneNumber_Candidate"><path codeLine="69" d="M76.04,122.75 C85.48,122.75 92.715,122.75 101.65,122.75 " fill="none" id="PhoneNumber-backto-Candidate" style="stroke:#181818;stroke-width:0.5;"/><polygon fill="#181818" points="73.04,122.75,77.54,124.75,75.54,122.75,77.54,120.75,73.04,122.75" style="stroke:#181818;stroke-width:0.5;"/><text fill="#000000" font-family="sans-serif" font-size="6.5" lengthAdjust="spacing" textLength="10.5" x="82.125" y="119.6343">has</text><text fill="#000000" font-family="sans-serif" font-size="6.5" lengthAdjust="spacing" textLength="3.5" x="77.0363" y="121.2151">1</text><text fill="#000000" font-family="sans-serif" font-size="6.5" lengthAdjust="spacing" textLength="3.5" x="94.3166" y="121.1423">1</text></g><!--reverse link Candidate to JobApplication--><g id="link_Candidate_JobApplication"><path codeLine="70" d="M152.9963,138.121 C162.3913,143.266 170.61,147.72 180.5,153 C205.35,166.26 233.675,181.005 254.635,191.855 " fill="none" id="Candidate-backto-JobApplication" style="stroke:#181818;stroke-width:0.5;"/><polygon fill="#181818" points="150.365,136.68,153.3513,140.5956,152.5577,137.8808,155.2726,137.0873,150.365,136.68" style="stroke:#181818;stroke-width:0.5;"/><text fill="#000000" font-family="sans-serif" font-size="6.5" lengthAdjust="spacing" textLength="23.5" x="201.5" y="163.3843">refers to</text><text fill="#000000" font-family="sans-serif" font-size="6.5" lengthAdjust="spacing" textLength="3.5" x="154.2006" y="137.1183">1</text><text fill="#000000" font-family="sans-serif" font-size="6.5" lengthAdjust="spacing" textLength="3.5" x="247.16" y="188.3329">1</text></g><!--link Candidate to Name2--><g id="link_Candidate_Name2"><path codeLine="71" d="M104.995,141.005 C95.935,149.12 85.495,159.115 77,169 C71.85,174.995 68.4645,179.5174 64.1745,185.9224 " fill="none" id="Candidate-to-Name2" style="stroke:#181818;stroke-width:0.5;"/><polygon fill="#181818" points="62.505,188.415,66.6709,185.7892,63.8962,186.3379,63.3475,183.5632,62.505,188.415" style="stroke:#181818;stroke-width:0.5;"/><text fill="#000000" font-family="sans-serif" font-size="6.5" lengthAdjust="spacing" textLength="10.5" x="87.5" y="163.3843">has</text></g><!--SRC=[bLHDQzmm4BthLmo-10BUJVTeIY64K2Wq3UqrbrbPwrKYoqQI2y7a5-rFwCs_hFhmIh8XczOioypmtjFCqzXNHsDwNMstlK1fXbPiQDTkgK2jovfZex0bXFH8Nx1XKDoXh7cDXi5jqoZMsAWO2TZ7Kw2OJghhpFJdIKud9WqthowEj09GGyn6ugbl95Tum3R0NB23eEwU0rVQk6AiM48gB5McqsyK0uDk_yoex-Vns4dsCBHxfhnybe-vmFiAz-LtvCAJxrsqctkpHFlBRVhMxU57poINpS8eGZxo2fwa9SzSVrHAarsN9vrEl7Pw1ywKowt2JtPWYadApfAn46T_Mmrms_U2KpIya_ztsKlk-S2i5EUuECKlWsRGdXx2sEa7uzyDId4wYA4DsnRJyL_jeoWimOvRk_ohmZhuvgFTE9krclDJKPPVx7zs85J09HL3pVGA3HOBnSrcO_51zG8sIGSZBFI8sZTmNh84oUzsfPc1FvTbMLolhxa2vQWQJEVtERtjIJziFbHnnMhOlvBiPGhoteX8hro_2pMm7S3SxwA5r472ExF2rs2Ud92_]--></g></svg>