<?xml version="1.0" encoding="us-ascii" standalone="no"?><svg xmlns="http://www.w3.org/2000/svg" xmlns:xlink="http://www.w3.org/1999/xlink" contentStyleType="text/css" height="312px" preserveAspectRatio="none" style="width:507px;height:312px;background:#FFFFFF;" version="1.1" viewBox="0 0 507 312" width="507px" zoomAndPan="magnify"><defs/><g><!--cluster Candidate Aggregate--><g id="cluster_Candidate Aggregate"><path d="M8.5,6.0137 L157.5,6.0137 A3.75,3.75 0 0 1 160,8.5137 L167,30.6348 L370.5,30.6348 A2.5,2.5 0 0 1 373,33.1348 L373,302.5137 A2.5,2.5 0 0 1 370.5,305.0137 L8.5,305.0137 A2.5,2.5 0 0 1 6,302.5137 L6,8.5137 A2.5,2.5 0 0 1 8.5,6.0137 " fill="none" style="stroke:#000000;stroke-width:1.5;"/><line style="stroke:#000000;stroke-width:1.5;" x1="6" x2="167" y1="30.6348" y2="30.6348"/><text fill="#000000" font-family="sans-serif" font-size="14" font-weight="bold" lengthAdjust="spacing" textLength="148" x="10" y="23.1211">Candidate Aggregate</text></g><!--class Candidate--><g id="elem_Candidate"><rect codeLine="4" fill="#F1F1F1" height="81.8633" id="Candidate" rx="2.5" ry="2.5" style="stroke:#181818;stroke-width:0.5;" width="97" x="259.5" y="43.0137"/><ellipse cx="274.5" cy="75.9453" fill="#ADD1B2" rx="11" ry="11" style="stroke:#181818;stroke-width:1.0;"/><path d="M277.2656,71.8203 Q277.4219,71.6016 277.6094,71.4922 Q277.7969,71.3828 278.0156,71.3828 Q278.3906,71.3828 278.625,71.6484 Q278.8594,71.8984 278.8594,72.5078 L278.8594,73.9609 Q278.8594,74.5703 278.625,74.8359 Q278.3906,75.1016 278.0156,75.1016 Q277.6719,75.1016 277.4688,74.8984 Q277.2656,74.7109 277.1563,74.1953 Q277.1094,73.8359 276.9219,73.6484 Q276.5938,73.2734 275.9844,73.0547 Q275.375,72.8359 274.75,72.8359 Q273.9844,72.8359 273.3438,73.1641 Q272.7188,73.4922 272.2188,74.2422 Q271.7344,74.9922 271.7344,76.0234 L271.7344,77.1172 Q271.7344,78.3516 272.625,79.1797 Q273.5156,79.9922 275.1094,79.9922 Q276.0469,79.9922 276.7031,79.7422 Q277.0938,79.5859 277.5156,79.1484 Q277.7813,78.8828 277.9219,78.8047 Q278.0781,78.7266 278.2813,78.7266 Q278.6094,78.7266 278.8594,78.9922 Q279.125,79.2422 279.125,79.5859 Q279.125,79.9297 278.7813,80.3359 Q278.2813,80.9141 277.4844,81.2422 Q276.4063,81.6953 275.1094,81.6953 Q273.5938,81.6953 272.3906,81.0703 Q271.4063,80.5703 270.7188,79.5078 Q270.0313,78.4297 270.0313,77.1484 L270.0313,75.9922 Q270.0313,74.6641 270.6406,73.5234 Q271.2656,72.3672 272.3594,71.7578 Q273.4531,71.1328 274.6875,71.1328 Q275.4219,71.1328 276.0625,71.3047 Q276.7188,71.4609 277.2656,71.8203 Z " fill="#000000"/><text fill="#000000" font-family="sans-serif" font-size="14" lengthAdjust="spacing" textLength="41" x="300.5" y="63.1211">&#171;root&#187;</text><text fill="#000000" font-family="sans-serif" font-size="14" lengthAdjust="spacing" textLength="50" x="296" y="81.7422">&#171;entity&#187;</text><text fill="#000000" font-family="sans-serif" font-size="14" lengthAdjust="spacing" textLength="65" x="288.5" y="100.3633">Candidate</text><line style="stroke:#181818;stroke-width:0.5;" x1="260.5" x2="355.5" y1="108.877" y2="108.877"/><line style="stroke:#181818;stroke-width:0.5;" x1="260.5" x2="355.5" y1="116.877" y2="116.877"/></g><g id="elem_EmailCandidate"><path d="M181.5,233.0137 L181.5,242.5137 L146.13,246.5137 L181.5,250.5137 L181.5,260.3047 A0,0 0 0 0 181.5,260.3047 L250.5,260.3047 A0,0 0 0 0 250.5,260.3047 L250.5,243.0137 L240.5,233.0137 L181.5,233.0137 A0,0 0 0 0 181.5,233.0137 " fill="#FEFFDD" style="stroke:#181818;stroke-width:0.5;"/><path d="M240.5,233.0137 L240.5,243.0137 L250.5,243.0137 L240.5,233.0137 " fill="#FEFFDD" style="stroke:#181818;stroke-width:0.5;"/><text fill="#000000" font-family="sans-serif" font-size="13" lengthAdjust="spacing" textLength="48" x="187.5" y="252.042">Identifier</text></g><!--class Name--><g id="elem_Name"><rect codeLine="12" fill="#F1F1F1" height="85.2422" id="Name" rx="2.5" ry="2.5" style="stroke:#181818;stroke-width:0.5;" width="71" x="285.5" y="204.0137"/><ellipse cx="301.85" cy="220.0137" fill="#ADD1B2" rx="11" ry="11" style="stroke:#181818;stroke-width:1.0;"/><path d="M304.6156,215.8887 Q304.7719,215.6699 304.9594,215.5605 Q305.1469,215.4512 305.3656,215.4512 Q305.7406,215.4512 305.975,215.7168 Q306.2094,215.9668 306.2094,216.5762 L306.2094,218.0293 Q306.2094,218.6387 305.975,218.9043 Q305.7406,219.1699 305.3656,219.1699 Q305.0219,219.1699 304.8188,218.9668 Q304.6156,218.7793 304.5063,218.2637 Q304.4594,217.9043 304.2719,217.7168 Q303.9438,217.3418 303.3344,217.123 Q302.725,216.9043 302.1,216.9043 Q301.3344,216.9043 300.6938,217.2324 Q300.0688,217.5605 299.5688,218.3105 Q299.0844,219.0605 299.0844,220.0918 L299.0844,221.1855 Q299.0844,222.4199 299.975,223.248 Q300.8656,224.0605 302.4594,224.0605 Q303.3969,224.0605 304.0531,223.8105 Q304.4438,223.6543 304.8656,223.2168 Q305.1313,222.9512 305.2719,222.873 Q305.4281,222.7949 305.6313,222.7949 Q305.9594,222.7949 306.2094,223.0605 Q306.475,223.3105 306.475,223.6543 Q306.475,223.998 306.1313,224.4043 Q305.6313,224.9824 304.8344,225.3105 Q303.7563,225.7637 302.4594,225.7637 Q300.9438,225.7637 299.7406,225.1387 Q298.7563,224.6387 298.0688,223.5762 Q297.3813,222.498 297.3813,221.2168 L297.3813,220.0605 Q297.3813,218.7324 297.9906,217.5918 Q298.6156,216.4355 299.7094,215.8262 Q300.8031,215.2012 302.0375,215.2012 Q302.7719,215.2012 303.4125,215.373 Q304.0688,215.5293 304.6156,215.8887 Z " fill="#000000"/><text fill="#000000" font-family="sans-serif" font-size="14" lengthAdjust="spacing" textLength="36" x="316.15" y="225.8105">Name</text><line style="stroke:#181818;stroke-width:0.5;" x1="286.5" x2="355.5" y1="236.0137" y2="236.0137"/><text fill="#000000" font-family="sans-serif" font-size="14" lengthAdjust="spacing" textLength="59" x="291.5" y="255.1211">firstName</text><text fill="#000000" font-family="sans-serif" font-size="14" lengthAdjust="spacing" textLength="58" x="291.5" y="273.7422">lastName</text><line style="stroke:#181818;stroke-width:0.5;" x1="286.5" x2="355.5" y1="281.2559" y2="281.2559"/></g><!--class PhoneNumber--><g id="elem_PhoneNumber"><rect codeLine="17" fill="#F1F1F1" height="81.8633" id="PhoneNumber" rx="2.5" ry="2.5" style="stroke:#181818;stroke-width:0.5;" width="124" x="78" y="43.0137"/><ellipse cx="93" cy="66.6348" fill="#ADD1B2" rx="11" ry="11" style="stroke:#181818;stroke-width:1.0;"/><path d="M95.7656,62.5098 Q95.9219,62.291 96.1094,62.1816 Q96.2969,62.0723 96.5156,62.0723 Q96.8906,62.0723 97.125,62.3379 Q97.3594,62.5879 97.3594,63.1973 L97.3594,64.6504 Q97.3594,65.2598 97.125,65.5254 Q96.8906,65.791 96.5156,65.791 Q96.1719,65.791 95.9688,65.5879 Q95.7656,65.4004 95.6563,64.8848 Q95.6094,64.5254 95.4219,64.3379 Q95.0938,63.9629 94.4844,63.7441 Q93.875,63.5254 93.25,63.5254 Q92.4844,63.5254 91.8438,63.8535 Q91.2188,64.1816 90.7188,64.9316 Q90.2344,65.6816 90.2344,66.7129 L90.2344,67.8066 Q90.2344,69.041 91.125,69.8691 Q92.0156,70.6816 93.6094,70.6816 Q94.5469,70.6816 95.2031,70.4316 Q95.5938,70.2754 96.0156,69.8379 Q96.2813,69.5723 96.4219,69.4941 Q96.5781,69.416 96.7813,69.416 Q97.1094,69.416 97.3594,69.6816 Q97.625,69.9316 97.625,70.2754 Q97.625,70.6191 97.2813,71.0254 Q96.7813,71.6035 95.9844,71.9316 Q94.9063,72.3848 93.6094,72.3848 Q92.0938,72.3848 90.8906,71.7598 Q89.9063,71.2598 89.2188,70.1973 Q88.5313,69.1191 88.5313,67.8379 L88.5313,66.6816 Q88.5313,65.3535 89.1406,64.2129 Q89.7656,63.0566 90.8594,62.4473 Q91.9531,61.8223 93.1875,61.8223 Q93.9219,61.8223 94.5625,61.9941 Q95.2188,62.1504 95.7656,62.5098 Z " fill="#000000"/><text fill="#000000" font-family="sans-serif" font-size="14" lengthAdjust="spacing" textLength="92" x="107" y="63.1211">&#171;value object&#187;</text><text fill="#000000" font-family="sans-serif" font-size="14" lengthAdjust="spacing" textLength="90" x="108" y="81.7422">PhoneNumber</text><line style="stroke:#181818;stroke-width:0.5;" x1="79" x2="201" y1="90.2559" y2="90.2559"/><text fill="#000000" font-family="sans-serif" font-size="14" lengthAdjust="spacing" textLength="89" x="84" y="109.3633">phoneNumber</text><line style="stroke:#181818;stroke-width:0.5;" x1="79" x2="201" y1="116.877" y2="116.877"/></g><!--class EMail--><g id="elem_EMail"><rect codeLine="21" fill="#F1F1F1" height="81.8633" id="EMail" rx="2.5" ry="2.5" style="stroke:#181818;stroke-width:0.5;" width="124" x="22" y="205.5137"/><ellipse cx="37" cy="229.1348" fill="#ADD1B2" rx="11" ry="11" style="stroke:#181818;stroke-width:1.0;"/><path d="M39.7656,225.0098 Q39.9219,224.791 40.1094,224.6816 Q40.2969,224.5723 40.5156,224.5723 Q40.8906,224.5723 41.125,224.8379 Q41.3594,225.0879 41.3594,225.6973 L41.3594,227.1504 Q41.3594,227.7598 41.125,228.0254 Q40.8906,228.291 40.5156,228.291 Q40.1719,228.291 39.9688,228.0879 Q39.7656,227.9004 39.6563,227.3848 Q39.6094,227.0254 39.4219,226.8379 Q39.0938,226.4629 38.4844,226.2441 Q37.875,226.0254 37.25,226.0254 Q36.4844,226.0254 35.8438,226.3535 Q35.2188,226.6816 34.7188,227.4316 Q34.2344,228.1816 34.2344,229.2129 L34.2344,230.3066 Q34.2344,231.541 35.125,232.3691 Q36.0156,233.1816 37.6094,233.1816 Q38.5469,233.1816 39.2031,232.9316 Q39.5938,232.7754 40.0156,232.3379 Q40.2813,232.0723 40.4219,231.9941 Q40.5781,231.916 40.7813,231.916 Q41.1094,231.916 41.3594,232.1816 Q41.625,232.4316 41.625,232.7754 Q41.625,233.1191 41.2813,233.5254 Q40.7813,234.1035 39.9844,234.4316 Q38.9063,234.8848 37.6094,234.8848 Q36.0938,234.8848 34.8906,234.2598 Q33.9063,233.7598 33.2188,232.6973 Q32.5313,231.6191 32.5313,230.3379 L32.5313,229.1816 Q32.5313,227.8535 33.1406,226.7129 Q33.7656,225.5566 34.8594,224.9473 Q35.9531,224.3223 37.1875,224.3223 Q37.9219,224.3223 38.5625,224.4941 Q39.2188,224.6504 39.7656,225.0098 Z " fill="#000000"/><text fill="#000000" font-family="sans-serif" font-size="14" lengthAdjust="spacing" textLength="92" x="51" y="225.6211">&#171;value object&#187;</text><text fill="#000000" font-family="sans-serif" font-size="14" lengthAdjust="spacing" textLength="39" x="77.5" y="244.2422">E-Mail</text><line style="stroke:#181818;stroke-width:0.5;" x1="23" x2="145" y1="252.7559" y2="252.7559"/><text fill="#000000" font-family="sans-serif" font-size="14" lengthAdjust="spacing" textLength="33" x="28" y="271.8633">email</text><line style="stroke:#181818;stroke-width:0.5;" x1="23" x2="145" y1="279.377" y2="279.377"/></g><!--class UserDomain--><g id="elem_UserDomain"><rect codeLine="27" fill="#F1F1F1" height="48" id="UserDomain" rx="2.5" ry="2.5" style="stroke:#181818;stroke-width:0.5;" width="109" x="391.5" y="222.5137"/><ellipse cx="406.5" cy="238.5137" fill="#ADD1B2" rx="11" ry="11" style="stroke:#181818;stroke-width:1.0;"/><path d="M409.2656,234.3887 Q409.4219,234.1699 409.6094,234.0605 Q409.7969,233.9512 410.0156,233.9512 Q410.3906,233.9512 410.625,234.2168 Q410.8594,234.4668 410.8594,235.0762 L410.8594,236.5293 Q410.8594,237.1387 410.625,237.4043 Q410.3906,237.6699 410.0156,237.6699 Q409.6719,237.6699 409.4688,237.4668 Q409.2656,237.2793 409.1563,236.7637 Q409.1094,236.4043 408.9219,236.2168 Q408.5938,235.8418 407.9844,235.623 Q407.375,235.4043 406.75,235.4043 Q405.9844,235.4043 405.3438,235.7324 Q404.7188,236.0605 404.2188,236.8105 Q403.7344,237.5605 403.7344,238.5918 L403.7344,239.6855 Q403.7344,240.9199 404.625,241.748 Q405.5156,242.5605 407.1094,242.5605 Q408.0469,242.5605 408.7031,242.3105 Q409.0938,242.1543 409.5156,241.7168 Q409.7813,241.4512 409.9219,241.373 Q410.0781,241.2949 410.2813,241.2949 Q410.6094,241.2949 410.8594,241.5605 Q411.125,241.8105 411.125,242.1543 Q411.125,242.498 410.7813,242.9043 Q410.2813,243.4824 409.4844,243.8105 Q408.4063,244.2637 407.1094,244.2637 Q405.5938,244.2637 404.3906,243.6387 Q403.4063,243.1387 402.7188,242.0762 Q402.0313,240.998 402.0313,239.7168 L402.0313,238.5605 Q402.0313,237.2324 402.6406,236.0918 Q403.2656,234.9355 404.3594,234.3262 Q405.4531,233.7012 406.6875,233.7012 Q407.4219,233.7012 408.0625,233.873 Q408.7188,234.0293 409.2656,234.3887 Z " fill="#000000"/><text fill="#000000" font-family="sans-serif" font-size="14" lengthAdjust="spacing" textLength="77" x="420.5" y="244.3105">UserDomain</text><line style="stroke:#181818;stroke-width:0.5;" x1="392.5" x2="499.5" y1="254.5137" y2="254.5137"/><line style="stroke:#181818;stroke-width:0.5;" x1="392.5" x2="499.5" y1="262.5137" y2="262.5137"/></g><!--link Candidate to EMail--><g id="link_Candidate_EMail"><path codeLine="30" d="M259.4,119.8437 C224.27,145.0137 181.6067,175.5682 144.8867,201.8882 " fill="none" id="Candidate-to-EMail" style="stroke:#181818;stroke-width:1.0;"/><polygon fill="#181818" points="140.01,205.3837,149.6553,203.3916,144.0739,202.4708,144.9947,196.8894,140.01,205.3837" style="stroke:#181818;stroke-width:1.0;"/><text fill="#000000" font-family="sans-serif" font-size="13" lengthAdjust="spacing" textLength="69" x="211" y="170.042">identified by</text><text fill="#000000" font-family="sans-serif" font-size="13" lengthAdjust="spacing" textLength="7" x="244.4222" y="121.0896">1</text><text fill="#000000" font-family="sans-serif" font-size="13" lengthAdjust="spacing" textLength="7" x="141.707" y="194.2274">1</text></g><!--reverse link PhoneNumber to Candidate--><g id="link_PhoneNumber_Candidate"><path codeLine="31" d="M208.08,84.0137 C226.96,84.0137 241.43,84.0137 259.3,84.0137 " fill="none" id="PhoneNumber-backto-Candidate" style="stroke:#181818;stroke-width:1.0;"/><polygon fill="#181818" points="202.08,84.0137,211.08,88.0137,207.08,84.0137,211.08,80.0137,202.08,84.0137" style="stroke:#181818;stroke-width:1.0;"/><text fill="#000000" font-family="sans-serif" font-size="13" lengthAdjust="spacing" textLength="21" x="220.25" y="77.042">has</text><text fill="#000000" font-family="sans-serif" font-size="13" lengthAdjust="spacing" textLength="7" x="210.0726" y="80.0321">1</text><text fill="#000000" font-family="sans-serif" font-size="13" lengthAdjust="spacing" textLength="7" x="244.6331" y="79.825">1</text></g><!--link Candidate to Name--><g id="link_Candidate_Name"><path codeLine="32" d="M311.25,125.1037 C313.19,149.1437 315.1852,173.7033 317.1552,198.0033 " fill="none" id="Candidate-to-Name" style="stroke:#181818;stroke-width:1.0;"/><polygon fill="#181818" points="317.64,203.9837,320.8997,194.6899,317.236,199,312.9258,195.3363,317.64,203.9837" style="stroke:#181818;stroke-width:1.0;"/><text fill="#000000" font-family="sans-serif" font-size="13" lengthAdjust="spacing" textLength="21" x="315" y="170.042">has</text><text fill="#000000" font-family="sans-serif" font-size="13" lengthAdjust="spacing" textLength="7" x="304.2117" y="146.7582">1</text><text fill="#000000" font-family="sans-serif" font-size="13" lengthAdjust="spacing" textLength="7" x="309.5467" y="192.883">1</text></g><!--link Candidate to UserDomain--><g id="link_Candidate_UserDomain"><path codeLine="34" d="M342.47,125.1037 C368.81,155.7437 400.2992,192.3533 422.1292,217.7533 " fill="none" id="Candidate-to-UserDomain" style="stroke:#181818;stroke-width:1.0;stroke-dasharray:7.0,7.0;"/><polygon fill="#181818" points="426.04,222.3037,423.2074,212.8709,422.781,218.5117,417.1402,218.0853,426.04,222.3037" style="stroke:#181818;stroke-width:1.0;"/><text fill="#000000" font-family="sans-serif" font-size="13" lengthAdjust="spacing" textLength="7" x="340.2123" y="146.7582">1</text><text fill="#000000" font-family="sans-serif" font-size="13" lengthAdjust="spacing" textLength="7" x="413.3216" y="211.3944">1</text></g><!--SRC=[TP7FJeGm4CRlVOg6YoSWNeanCSh1WnilthmCT1Qgj2LjCTcGVQ9z16yycVsZ5A8sf9dEVD-lq-6gjtOqLLcE0qWxYQ5ebIZR0Op96OTEWo1aXFOTEgJPFKZ66LYaTrsdiNDHDXFgLd3GRBbefUpo-IgN2qhBxSd7gosZOEXwcacmdiCkbQEwQYs03wiab7wlH-RXHuxwRm5A5e24R9ixW8WT-83Eg_N8jR4-jsQSFYNEPF_23nWcfAfvmpQyzBbN4W-JQ507-kOSxnXJOWlydrZdJsu80LRxwBjLzAE9eKEuBm9U3Ee7vMfoTidz_8hW9-c_PTTPdj-wFP9fnNz6oMXp8flUlVGczyhahdem2UPh3kQ5SQGLzVNzRKKHRajDaYy0]--></g></svg>