<?xml version="1.0" encoding="us-ascii" standalone="no"?><svg xmlns="http://www.w3.org/2000/svg" xmlns:xlink="http://www.w3.org/1999/xlink" contentStyleType="text/css" height="1525px" preserveAspectRatio="none" style="width:2340px;height:1525px;background:#FFFFFF;" version="1.1" viewBox="0 0 2340 1525" width="2340px" zoomAndPan="magnify"><defs/><g><rect fill="#FFFFFF" height="1345.2656" style="stroke:#181818;stroke-width:1.0;" width="10" x="46.5" y="90.6406"/><rect fill="#FFFFFF" height="200.375" style="stroke:#181818;stroke-width:1.0;" width="10" x="338.5" y="111.1641"/><rect fill="#FFFFFF" height="552.4219" style="stroke:#181818;stroke-width:1.0;" width="10" x="338.5" y="340.0625"/><rect fill="#FFFFFF" height="498.8984" style="stroke:#181818;stroke-width:1.0;" width="10" x="338.5" y="921.0078"/><rect fill="#FFFFFF" height="70.0469" style="stroke:#181818;stroke-width:1.0;" width="10" x="1133.5" y="212.9688"/><rect fill="#FFFFFF" height="70.0469" style="stroke:#181818;stroke-width:1.0;" width="10" x="1133.5" y="410.1094"/><rect fill="#FFFFFF" height="70.0469" style="stroke:#181818;stroke-width:1.0;" width="10" x="1133.5" y="508.6797"/><rect fill="#FFFFFF" height="256.7109" style="stroke:#181818;stroke-width:1.0;" width="10" x="1133.5" y="607.25"/><rect fill="#FFFFFF" height="400.3281" style="stroke:#181818;stroke-width:1.0;" width="10" x="1133.5" y="991.0547"/><rect fill="#FFFFFF" height="63.0469" style="stroke:#181818;stroke-width:1.0;" width="10" x="1458.5" y="1100.1484"/><rect fill="#FFFFFF" height="57.0469" style="stroke:#181818;stroke-width:1.0;" width="10" x="1591" y="635.7734"/><rect fill="#FFFFFF" height="57.0469" style="stroke:#181818;stroke-width:1.0;" width="10" x="1591" y="1191.7188"/><rect fill="#FFFFFF" height="57.0469" style="stroke:#181818;stroke-width:1.0;" width="10" x="1734" y="721.3438"/><rect fill="#FFFFFF" height="57.0469" style="stroke:#181818;stroke-width:1.0;" width="10" x="1734" y="1277.2891"/><rect fill="#FFFFFF" height="28.5234" style="stroke:#181818;stroke-width:1.0;" width="10" x="1884.5" y="1019.5781"/><rect fill="none" height="364.8047" style="stroke:#000000;stroke-width:1.5;" width="2324" x="10" y="1063.1016"/><line style="stroke:#181818;stroke-width:0.5;stroke-dasharray:5.0,5.0;" x1="51" x2="51" y1="80.6406" y2="1444.9063"/><line style="stroke:#181818;stroke-width:0.5;stroke-dasharray:5.0,5.0;" x1="343.5" x2="343.5" y1="80.6406" y2="1444.9063"/><line style="stroke:#181818;stroke-width:0.5;stroke-dasharray:5.0,5.0;" x1="1138.5" x2="1138.5" y1="165.8047" y2="1444.9063"/><line style="stroke:#181818;stroke-width:0.5;stroke-dasharray:5.0,5.0;" x1="1321.5" x2="1321.5" y1="80.6406" y2="1444.9063"/><line style="stroke:#181818;stroke-width:0.5;stroke-dasharray:5.0,5.0;" x1="1463" x2="1463" y1="80.6406" y2="1444.9063"/><line style="stroke:#181818;stroke-width:0.5;stroke-dasharray:5.0,5.0;" x1="1596" x2="1596" y1="80.6406" y2="1444.9063"/><line style="stroke:#181818;stroke-width:0.5;stroke-dasharray:5.0,5.0;" x1="1739" x2="1739" y1="80.6406" y2="1444.9063"/><line style="stroke:#181818;stroke-width:0.5;stroke-dasharray:5.0,5.0;" x1="1889" x2="1889" y1="80.6406" y2="1444.9063"/><line style="stroke:#181818;stroke-width:0.5;stroke-dasharray:5.0,5.0;" x1="2056" x2="2056" y1="80.6406" y2="1444.9063"/><line style="stroke:#181818;stroke-width:0.5;stroke-dasharray:5.0,5.0;" x1="2235" x2="2235" y1="80.6406" y2="1444.9063"/><text fill="#000000" font-family="sans-serif" font-size="14" lengthAdjust="spacing" textLength="57" x="20" y="77.6738">Operator</text><ellipse cx="51.5" cy="13.5" fill="#E3E3E3" rx="8" ry="8" style="stroke:#181818;stroke-width:0.5;"/><path d="M51.5,21.5 L51.5,48.5 M38.5,29.5 L64.5,29.5 M51.5,48.5 L38.5,63.5 M51.5,48.5 L64.5,63.5 " fill="none" style="stroke:#181818;stroke-width:0.5;"/><text fill="#000000" font-family="sans-serif" font-size="14" lengthAdjust="spacing" textLength="57" x="20" y="1456.5801">Operator</text><ellipse cx="51.5" cy="1468.0469" fill="#E3E3E3" rx="8" ry="8" style="stroke:#181818;stroke-width:0.5;"/><path d="M51.5,1476.0469 L51.5,1503.0469 M38.5,1484.0469 L64.5,1484.0469 M51.5,1503.0469 L38.5,1518.0469 M51.5,1503.0469 L64.5,1518.0469 " fill="none" style="stroke:#181818;stroke-width:0.5;"/><rect fill="#E3E3E3" height="45.2813" rx="2.5" ry="2.5" style="stroke:#181818;stroke-width:0.5;" width="174" x="256.5" y="34.3594"/><text fill="#000000" font-family="sans-serif" font-size="14" font-style="italic" lengthAdjust="spacing" textLength="95" x="296" y="54.0332">&#171;presentation&#187;</text><text fill="#000000" font-family="sans-serif" font-size="14" lengthAdjust="spacing" textLength="160" x="263.5" y="69.6738">:RegisterJobApplicationUI</text><rect fill="#E3E3E3" height="45.2813" rx="2.5" ry="2.5" style="stroke:#181818;stroke-width:0.5;" width="174" x="256.5" y="1443.9063"/><text fill="#000000" font-family="sans-serif" font-size="14" font-style="italic" lengthAdjust="spacing" textLength="95" x="296" y="1463.5801">&#171;presentation&#187;</text><text fill="#000000" font-family="sans-serif" font-size="14" lengthAdjust="spacing" textLength="160" x="263.5" y="1479.2207">:RegisterJobApplicationUI</text><text fill="#000000" font-family="sans-serif" font-size="14" font-style="italic" lengthAdjust="spacing" textLength="84" x="1093.5" y="1456.5801">&#171;application&#187;</text><text fill="#000000" font-family="sans-serif" font-size="14" lengthAdjust="spacing" textLength="210" x="1030.5" y="1472.2207">:RegisterJobApplicationController</text><ellipse cx="1138.5" cy="1491.1875" fill="#E3E3E3" rx="12" ry="12" style="stroke:#181818;stroke-width:0.5;"/><polygon fill="#181818" points="1134.5,1479.1875,1140.5,1474.1875,1138.5,1479.1875,1140.5,1484.1875,1134.5,1479.1875" style="stroke:#181818;stroke-width:1.0;"/><rect fill="#E3E3E3" height="45.2813" rx="2.5" ry="2.5" style="stroke:#181818;stroke-width:0.5;" width="131" x="1256.5" y="34.3594"/><text fill="#000000" font-family="sans-serif" font-size="14" font-style="italic" lengthAdjust="spacing" textLength="84" x="1280" y="54.0332">&#171;application&#187;</text><text fill="#000000" font-family="sans-serif" font-size="14" lengthAdjust="spacing" textLength="117" x="1263.5" y="69.6738">:ApplicationFileBot</text><rect fill="#E3E3E3" height="45.2813" rx="2.5" ry="2.5" style="stroke:#181818;stroke-width:0.5;" width="131" x="1256.5" y="1443.9063"/><text fill="#000000" font-family="sans-serif" font-size="14" font-style="italic" lengthAdjust="spacing" textLength="84" x="1280" y="1463.5801">&#171;application&#187;</text><text fill="#000000" font-family="sans-serif" font-size="14" lengthAdjust="spacing" textLength="117" x="1263.5" y="1479.2207">:ApplicationFileBot</text><rect fill="#E3E3E3" height="45.2813" rx="2.5" ry="2.5" style="stroke:#181818;stroke-width:0.5;" width="109" x="1409" y="34.3594"/><text fill="#000000" font-family="sans-serif" font-size="14" font-style="italic" lengthAdjust="spacing" textLength="62" x="1432.5" y="54.0332">&#171;domain&#187;</text><text fill="#000000" font-family="sans-serif" font-size="14" lengthAdjust="spacing" textLength="95" x="1416" y="69.6738">:JobApplication</text><rect fill="#E3E3E3" height="45.2813" rx="2.5" ry="2.5" style="stroke:#181818;stroke-width:0.5;" width="109" x="1409" y="1443.9063"/><text fill="#000000" font-family="sans-serif" font-size="14" font-style="italic" lengthAdjust="spacing" textLength="62" x="1432.5" y="1463.5801">&#171;domain&#187;</text><text fill="#000000" font-family="sans-serif" font-size="14" lengthAdjust="spacing" textLength="95" x="1416" y="1479.2207">:JobApplication</text><rect fill="#E3E3E3" height="45.2813" rx="2.5" ry="2.5" style="stroke:#181818;stroke-width:0.5;" width="136" x="1528" y="34.3594"/><text fill="#000000" font-family="sans-serif" font-size="14" font-style="italic" lengthAdjust="spacing" textLength="89" x="1551.5" y="54.0332">&#171;persistence&#187;</text><text fill="#000000" font-family="sans-serif" font-size="14" lengthAdjust="spacing" textLength="122" x="1535" y="69.6738">PersistenceContext</text><rect fill="#E3E3E3" height="45.2813" rx="2.5" ry="2.5" style="stroke:#181818;stroke-width:0.5;" width="136" x="1528" y="1443.9063"/><text fill="#000000" font-family="sans-serif" font-size="14" font-style="italic" lengthAdjust="spacing" textLength="89" x="1551.5" y="1463.5801">&#171;persistence&#187;</text><text fill="#000000" font-family="sans-serif" font-size="14" lengthAdjust="spacing" textLength="122" x="1535" y="1479.2207">PersistenceContext</text><rect fill="#E3E3E3" height="29.6406" rx="2.5" ry="2.5" style="stroke:#181818;stroke-width:0.5;" width="130" x="1674" y="50"/><text fill="#000000" font-family="sans-serif" font-size="14" lengthAdjust="spacing" textLength="116" x="1681" y="69.6738">RepositoryFactory</text><rect fill="#E3E3E3" height="29.6406" rx="2.5" ry="2.5" style="stroke:#181818;stroke-width:0.5;" width="130" x="1674" y="1443.9063"/><text fill="#000000" font-family="sans-serif" font-size="14" lengthAdjust="spacing" textLength="116" x="1681" y="1463.5801">RepositoryFactory</text><rect fill="#E3E3E3" height="45.2813" rx="2.5" ry="2.5" style="stroke:#181818;stroke-width:0.5;" width="151" x="1814" y="34.3594"/><text fill="#000000" font-family="sans-serif" font-size="14" font-style="italic" lengthAdjust="spacing" textLength="79" x="1850" y="54.0332">&#171;repository&#187;</text><text fill="#000000" font-family="sans-serif" font-size="14" lengthAdjust="spacing" textLength="137" x="1821" y="69.6738">:CandidateRepository</text><rect fill="#E3E3E3" height="45.2813" rx="2.5" ry="2.5" style="stroke:#181818;stroke-width:0.5;" width="151" x="1814" y="1443.9063"/><text fill="#000000" font-family="sans-serif" font-size="14" font-style="italic" lengthAdjust="spacing" textLength="79" x="1850" y="1463.5801">&#171;repository&#187;</text><text fill="#000000" font-family="sans-serif" font-size="14" lengthAdjust="spacing" textLength="137" x="1821" y="1479.2207">:CandidateRepository</text><rect fill="#E3E3E3" height="45.2813" rx="2.5" ry="2.5" style="stroke:#181818;stroke-width:0.5;" width="162" x="1975" y="34.3594"/><text fill="#000000" font-family="sans-serif" font-size="14" font-style="italic" lengthAdjust="spacing" textLength="79" x="2016.5" y="54.0332">&#171;repository&#187;</text><text fill="#000000" font-family="sans-serif" font-size="14" lengthAdjust="spacing" textLength="148" x="1982" y="69.6738">:JobOpeningRepository</text><rect fill="#E3E3E3" height="45.2813" rx="2.5" ry="2.5" style="stroke:#181818;stroke-width:0.5;" width="162" x="1975" y="1443.9063"/><text fill="#000000" font-family="sans-serif" font-size="14" font-style="italic" lengthAdjust="spacing" textLength="79" x="2016.5" y="1463.5801">&#171;repository&#187;</text><text fill="#000000" font-family="sans-serif" font-size="14" lengthAdjust="spacing" textLength="148" x="1982" y="1479.2207">:JobOpeningRepository</text><rect fill="#E3E3E3" height="45.2813" rx="2.5" ry="2.5" style="stroke:#181818;stroke-width:0.5;" width="177" x="2147" y="34.3594"/><text fill="#000000" font-family="sans-serif" font-size="14" font-style="italic" lengthAdjust="spacing" textLength="79" x="2196" y="54.0332">&#171;repository&#187;</text><text fill="#000000" font-family="sans-serif" font-size="14" lengthAdjust="spacing" textLength="163" x="2154" y="69.6738">:JobApplicationRepository</text><rect fill="#E3E3E3" height="45.2813" rx="2.5" ry="2.5" style="stroke:#181818;stroke-width:0.5;" width="177" x="2147" y="1443.9063"/><text fill="#000000" font-family="sans-serif" font-size="14" font-style="italic" lengthAdjust="spacing" textLength="79" x="2196" y="1463.5801">&#171;repository&#187;</text><text fill="#000000" font-family="sans-serif" font-size="14" lengthAdjust="spacing" textLength="163" x="2154" y="1479.2207">:JobApplicationRepository</text><rect fill="#FFFFFF" height="1345.2656" style="stroke:#181818;stroke-width:1.0;" width="10" x="46.5" y="90.6406"/><rect fill="#FFFFFF" height="200.375" style="stroke:#181818;stroke-width:1.0;" width="10" x="338.5" y="111.1641"/><rect fill="#FFFFFF" height="552.4219" style="stroke:#181818;stroke-width:1.0;" width="10" x="338.5" y="340.0625"/><rect fill="#FFFFFF" height="498.8984" style="stroke:#181818;stroke-width:1.0;" width="10" x="338.5" y="921.0078"/><rect fill="#FFFFFF" height="70.0469" style="stroke:#181818;stroke-width:1.0;" width="10" x="1133.5" y="212.9688"/><rect fill="#FFFFFF" height="70.0469" style="stroke:#181818;stroke-width:1.0;" width="10" x="1133.5" y="410.1094"/><rect fill="#FFFFFF" height="70.0469" style="stroke:#181818;stroke-width:1.0;" width="10" x="1133.5" y="508.6797"/><rect fill="#FFFFFF" height="256.7109" style="stroke:#181818;stroke-width:1.0;" width="10" x="1133.5" y="607.25"/><rect fill="#FFFFFF" height="400.3281" style="stroke:#181818;stroke-width:1.0;" width="10" x="1133.5" y="991.0547"/><rect fill="#FFFFFF" height="63.0469" style="stroke:#181818;stroke-width:1.0;" width="10" x="1458.5" y="1100.1484"/><rect fill="#FFFFFF" height="57.0469" style="stroke:#181818;stroke-width:1.0;" width="10" x="1591" y="635.7734"/><rect fill="#FFFFFF" height="57.0469" style="stroke:#181818;stroke-width:1.0;" width="10" x="1591" y="1191.7188"/><rect fill="#FFFFFF" height="57.0469" style="stroke:#181818;stroke-width:1.0;" width="10" x="1734" y="721.3438"/><rect fill="#FFFFFF" height="57.0469" style="stroke:#181818;stroke-width:1.0;" width="10" x="1734" y="1277.2891"/><rect fill="#FFFFFF" height="28.5234" style="stroke:#181818;stroke-width:1.0;" width="10" x="1884.5" y="1019.5781"/><polygon fill="#181818" points="326.5,107.1641,336.5,111.1641,326.5,115.1641,330.5,111.1641" style="stroke:#181818;stroke-width:1.0;"/><line style="stroke:#181818;stroke-width:1.0;" x1="56.5" x2="332.5" y1="111.1641" y2="111.1641"/><text fill="#000000" font-family="sans-serif" font-size="13" font-weight="bold" lengthAdjust="spacing" textLength="7" x="63.5" y="106.4092">1</text><text fill="#000000" font-family="sans-serif" font-size="13" lengthAdjust="spacing" textLength="189" x="74.5" y="106.4092">request to register an application</text><polygon fill="#181818" points="1018.5,135.6875,1028.5,139.6875,1018.5,143.6875,1022.5,139.6875" style="stroke:#181818;stroke-width:1.0;"/><line style="stroke:#181818;stroke-width:1.0;" x1="348.5" x2="1024.5" y1="139.6875" y2="139.6875"/><text fill="#000000" font-family="sans-serif" font-size="13" font-weight="bold" lengthAdjust="spacing" textLength="7" x="355.5" y="134.9326">2</text><text fill="#000000" font-family="sans-serif" font-size="13" lengthAdjust="spacing" textLength="36" x="366.5" y="134.9326">create</text><text fill="#000000" font-family="sans-serif" font-size="14" font-style="italic" lengthAdjust="spacing" textLength="84" x="1093.5" y="163.8379">&#171;application&#187;</text><text fill="#000000" font-family="sans-serif" font-size="14" lengthAdjust="spacing" textLength="210" x="1030.5" y="179.4785">:RegisterJobApplicationController</text><ellipse cx="1138.5" cy="135.1641" fill="#E3E3E3" rx="12" ry="12" style="stroke:#181818;stroke-width:0.5;"/><polygon fill="#181818" points="1134.5,123.1641,1140.5,118.1641,1138.5,123.1641,1140.5,128.1641,1134.5,123.1641" style="stroke:#181818;stroke-width:1.0;"/><polygon fill="#181818" points="1121.5,208.9688,1131.5,212.9688,1121.5,216.9688,1125.5,212.9688" style="stroke:#181818;stroke-width:1.0;"/><line style="stroke:#181818;stroke-width:1.0;" x1="348.5" x2="1127.5" y1="212.9688" y2="212.9688"/><text fill="#000000" font-family="sans-serif" font-size="13" font-weight="bold" lengthAdjust="spacing" textLength="7" x="355.5" y="208.2139">3</text><text fill="#000000" font-family="sans-serif" font-size="13" lengthAdjust="spacing" textLength="69" x="366.5" y="208.2139">getFolders()</text><line style="stroke:#181818;stroke-width:1.0;" x1="1143.5" x2="1185.5" y1="241.4922" y2="241.4922"/><line style="stroke:#181818;stroke-width:1.0;" x1="1185.5" x2="1185.5" y1="241.4922" y2="254.4922"/><line style="stroke:#181818;stroke-width:1.0;" x1="1144.5" x2="1185.5" y1="254.4922" y2="254.4922"/><polygon fill="#181818" points="1154.5,250.4922,1144.5,254.4922,1154.5,258.4922,1150.5,254.4922" style="stroke:#181818;stroke-width:1.0;"/><text fill="#000000" font-family="sans-serif" font-size="13" font-weight="bold" lengthAdjust="spacing" textLength="7" x="1150.5" y="236.7373">4</text><text fill="#000000" font-family="sans-serif" font-size="13" lengthAdjust="spacing" textLength="69" x="1161.5" y="236.7373">getFolders()</text><polygon fill="#181818" points="359.5,279.0156,349.5,283.0156,359.5,287.0156,355.5,283.0156" style="stroke:#181818;stroke-width:1.0;"/><line style="stroke:#181818;stroke-width:1.0;stroke-dasharray:2.0,2.0;" x1="353.5" x2="1137.5" y1="283.0156" y2="283.0156"/><text fill="#000000" font-family="sans-serif" font-size="13" font-weight="bold" lengthAdjust="spacing" textLength="7" x="365.5" y="278.2607">5</text><text fill="#000000" font-family="sans-serif" font-size="13" lengthAdjust="spacing" textLength="77" x="376.5" y="278.2607">FoldersName</text><polygon fill="#181818" points="67.5,307.5391,57.5,311.5391,67.5,315.5391,63.5,311.5391" style="stroke:#181818;stroke-width:1.0;"/><line style="stroke:#181818;stroke-width:1.0;stroke-dasharray:2.0,2.0;" x1="61.5" x2="342.5" y1="311.5391" y2="311.5391"/><text fill="#000000" font-family="sans-serif" font-size="13" font-weight="bold" lengthAdjust="spacing" textLength="7" x="73.5" y="306.7842">6</text><text fill="#000000" font-family="sans-serif" font-size="13" lengthAdjust="spacing" textLength="247" x="84.5" y="306.7842">request to select a folder to import the files</text><polygon fill="#181818" points="326.5,336.0625,336.5,340.0625,326.5,344.0625,330.5,340.0625" style="stroke:#181818;stroke-width:1.0;"/><line style="stroke:#181818;stroke-width:1.0;" x1="56.5" x2="332.5" y1="340.0625" y2="340.0625"/><text fill="#000000" font-family="sans-serif" font-size="13" font-weight="bold" lengthAdjust="spacing" textLength="7" x="63.5" y="335.3076">7</text><text fill="#000000" font-family="sans-serif" font-size="13" lengthAdjust="spacing" textLength="74" x="74.5" y="335.3076">shared folder</text><line style="stroke:#181818;stroke-width:1.0;" x1="348.5" x2="390.5" y1="368.5859" y2="368.5859"/><line style="stroke:#181818;stroke-width:1.0;" x1="390.5" x2="390.5" y1="368.5859" y2="381.5859"/><line style="stroke:#181818;stroke-width:1.0;" x1="349.5" x2="390.5" y1="381.5859" y2="381.5859"/><polygon fill="#181818" points="359.5,377.5859,349.5,381.5859,359.5,385.5859,355.5,381.5859" style="stroke:#181818;stroke-width:1.0;"/><text fill="#000000" font-family="sans-serif" font-size="13" font-weight="bold" lengthAdjust="spacing" textLength="7" x="355.5" y="363.8311">8</text><text fill="#000000" font-family="sans-serif" font-size="13" lengthAdjust="spacing" textLength="156" x="366.5" y="363.8311">selectFolder(FoldersName)</text><polygon fill="#181818" points="1121.5,406.1094,1131.5,410.1094,1121.5,414.1094,1125.5,410.1094" style="stroke:#181818;stroke-width:1.0;"/><line style="stroke:#181818;stroke-width:1.0;" x1="348.5" x2="1127.5" y1="410.1094" y2="410.1094"/><text fill="#000000" font-family="sans-serif" font-size="13" font-weight="bold" lengthAdjust="spacing" textLength="7" x="355.5" y="405.3545">9</text><text fill="#000000" font-family="sans-serif" font-size="13" lengthAdjust="spacing" textLength="119" x="366.5" y="405.3545">getFilesName(folder)</text><line style="stroke:#181818;stroke-width:1.0;" x1="1143.5" x2="1185.5" y1="438.6328" y2="438.6328"/><line style="stroke:#181818;stroke-width:1.0;" x1="1185.5" x2="1185.5" y1="438.6328" y2="451.6328"/><line style="stroke:#181818;stroke-width:1.0;" x1="1144.5" x2="1185.5" y1="451.6328" y2="451.6328"/><polygon fill="#181818" points="1154.5,447.6328,1144.5,451.6328,1154.5,455.6328,1150.5,451.6328" style="stroke:#181818;stroke-width:1.0;"/><text fill="#000000" font-family="sans-serif" font-size="13" font-weight="bold" lengthAdjust="spacing" textLength="14" x="1150.5" y="433.8779">10</text><text fill="#000000" font-family="sans-serif" font-size="13" lengthAdjust="spacing" textLength="119" x="1168.5" y="433.8779">getFilesName(folder)</text><polygon fill="#181818" points="359.5,476.1563,349.5,480.1563,359.5,484.1563,355.5,480.1563" style="stroke:#181818;stroke-width:1.0;"/><line style="stroke:#181818;stroke-width:1.0;stroke-dasharray:2.0,2.0;" x1="353.5" x2="1137.5" y1="480.1563" y2="480.1563"/><text fill="#000000" font-family="sans-serif" font-size="13" font-weight="bold" lengthAdjust="spacing" textLength="14" x="365.5" y="475.4014">11</text><text fill="#000000" font-family="sans-serif" font-size="13" lengthAdjust="spacing" textLength="50" x="383.5" y="475.4014">filesData</text><polygon fill="#181818" points="1121.5,504.6797,1131.5,508.6797,1121.5,512.6797,1125.5,508.6797" style="stroke:#181818;stroke-width:1.0;"/><line style="stroke:#181818;stroke-width:1.0;" x1="348.5" x2="1127.5" y1="508.6797" y2="508.6797"/><text fill="#000000" font-family="sans-serif" font-size="13" font-weight="bold" lengthAdjust="spacing" textLength="14" x="355.5" y="503.9248">12</text><text fill="#000000" font-family="sans-serif" font-size="13" lengthAdjust="spacing" textLength="115" x="373.5" y="503.9248">readFileContent(file)</text><line style="stroke:#181818;stroke-width:1.0;" x1="1143.5" x2="1185.5" y1="537.2031" y2="537.2031"/><line style="stroke:#181818;stroke-width:1.0;" x1="1185.5" x2="1185.5" y1="537.2031" y2="550.2031"/><line style="stroke:#181818;stroke-width:1.0;" x1="1144.5" x2="1185.5" y1="550.2031" y2="550.2031"/><polygon fill="#181818" points="1154.5,546.2031,1144.5,550.2031,1154.5,554.2031,1150.5,550.2031" style="stroke:#181818;stroke-width:1.0;"/><text fill="#000000" font-family="sans-serif" font-size="13" font-weight="bold" lengthAdjust="spacing" textLength="14" x="1150.5" y="532.4482">13</text><text fill="#000000" font-family="sans-serif" font-size="13" lengthAdjust="spacing" textLength="115" x="1168.5" y="532.4482">readFileContent(file)</text><polygon fill="#181818" points="359.5,574.7266,349.5,578.7266,359.5,582.7266,355.5,578.7266" style="stroke:#181818;stroke-width:1.0;"/><line style="stroke:#181818;stroke-width:1.0;stroke-dasharray:2.0,2.0;" x1="353.5" x2="1137.5" y1="578.7266" y2="578.7266"/><text fill="#000000" font-family="sans-serif" font-size="13" font-weight="bold" lengthAdjust="spacing" textLength="14" x="365.5" y="573.9717">14</text><text fill="#000000" font-family="sans-serif" font-size="13" lengthAdjust="spacing" textLength="83" x="383.5" y="573.9717">candidateData</text><polygon fill="#181818" points="1121.5,603.25,1131.5,607.25,1121.5,611.25,1125.5,607.25" style="stroke:#181818;stroke-width:1.0;"/><line style="stroke:#181818;stroke-width:1.0;" x1="348.5" x2="1127.5" y1="607.25" y2="607.25"/><text fill="#000000" font-family="sans-serif" font-size="13" font-weight="bold" lengthAdjust="spacing" textLength="14" x="355.5" y="602.4951">15</text><text fill="#000000" font-family="sans-serif" font-size="13" lengthAdjust="spacing" textLength="118" x="373.5" y="602.4951">findAllJobOpenings()</text><polygon fill="#181818" points="1579,631.7734,1589,635.7734,1579,639.7734,1583,635.7734" style="stroke:#181818;stroke-width:1.0;"/><line style="stroke:#181818;stroke-width:1.0;" x1="1143.5" x2="1585" y1="635.7734" y2="635.7734"/><text fill="#000000" font-family="sans-serif" font-size="13" font-weight="bold" lengthAdjust="spacing" textLength="14" x="1150.5" y="631.0186">16</text><text fill="#000000" font-family="sans-serif" font-size="13" lengthAdjust="spacing" textLength="75" x="1168.5" y="631.0186">repositories()</text><polygon fill="#181818" points="1727,660.2969,1737,664.2969,1727,668.2969,1731,664.2969" style="stroke:#181818;stroke-width:1.0;"/><line style="stroke:#181818;stroke-width:1.0;" x1="1601" x2="1733" y1="664.2969" y2="664.2969"/><text fill="#000000" font-family="sans-serif" font-size="13" font-weight="bold" lengthAdjust="spacing" textLength="14" x="1608" y="659.542">17</text><text fill="#000000" font-family="sans-serif" font-size="13" lengthAdjust="spacing" textLength="44" x="1626" y="659.542">create()</text><polygon fill="#181818" points="1154.5,688.8203,1144.5,692.8203,1154.5,696.8203,1150.5,692.8203" style="stroke:#181818;stroke-width:1.0;"/><line style="stroke:#181818;stroke-width:1.0;stroke-dasharray:2.0,2.0;" x1="1148.5" x2="1595" y1="692.8203" y2="692.8203"/><text fill="#000000" font-family="sans-serif" font-size="13" font-weight="bold" lengthAdjust="spacing" textLength="14" x="1160.5" y="688.0654">18</text><text fill="#000000" font-family="sans-serif" font-size="13" lengthAdjust="spacing" textLength="39" x="1178.5" y="688.0654">factory</text><polygon fill="#181818" points="1722,717.3438,1732,721.3438,1722,725.3438,1726,721.3438" style="stroke:#181818;stroke-width:1.0;"/><line style="stroke:#181818;stroke-width:1.0;" x1="1143.5" x2="1728" y1="721.3438" y2="721.3438"/><text fill="#000000" font-family="sans-serif" font-size="13" font-weight="bold" lengthAdjust="spacing" textLength="14" x="1150.5" y="716.5889">19</text><text fill="#000000" font-family="sans-serif" font-size="13" lengthAdjust="spacing" textLength="90" x="1168.5" y="716.5889">JobOpennings()</text><polygon fill="#181818" points="2044,745.8672,2054,749.8672,2044,753.8672,2048,749.8672" style="stroke:#181818;stroke-width:1.0;"/><line style="stroke:#181818;stroke-width:1.0;" x1="1744" x2="2050" y1="749.8672" y2="749.8672"/><text fill="#000000" font-family="sans-serif" font-size="13" font-weight="bold" lengthAdjust="spacing" textLength="14" x="1751" y="745.1123">20</text><text fill="#000000" font-family="sans-serif" font-size="13" lengthAdjust="spacing" textLength="44" x="1769" y="745.1123">create()</text><polygon fill="#181818" points="1154.5,774.3906,1144.5,778.3906,1154.5,782.3906,1150.5,778.3906" style="stroke:#181818;stroke-width:1.0;"/><line style="stroke:#181818;stroke-width:1.0;stroke-dasharray:2.0,2.0;" x1="1148.5" x2="1738" y1="778.3906" y2="778.3906"/><text fill="#000000" font-family="sans-serif" font-size="13" font-weight="bold" lengthAdjust="spacing" textLength="14" x="1160.5" y="773.6357">21</text><text fill="#000000" font-family="sans-serif" font-size="13" lengthAdjust="spacing" textLength="130" x="1178.5" y="773.6357">JobOpeningRepository</text><polygon fill="#181818" points="2044,802.9141,2054,806.9141,2044,810.9141,2048,806.9141" style="stroke:#181818;stroke-width:1.0;"/><line style="stroke:#181818;stroke-width:1.0;" x1="1143.5" x2="2050" y1="806.9141" y2="806.9141"/><text fill="#000000" font-family="sans-serif" font-size="13" font-weight="bold" lengthAdjust="spacing" textLength="14" x="1150.5" y="802.1592">22</text><text fill="#000000" font-family="sans-serif" font-size="13" lengthAdjust="spacing" textLength="80" x="1168.5" y="802.1592">jobOpenings()</text><polygon fill="#181818" points="1154.5,831.4375,1144.5,835.4375,1154.5,839.4375,1150.5,835.4375" style="stroke:#181818;stroke-width:1.0;"/><line style="stroke:#181818;stroke-width:1.0;stroke-dasharray:2.0,2.0;" x1="1148.5" x2="2055" y1="835.4375" y2="835.4375"/><text fill="#000000" font-family="sans-serif" font-size="13" font-weight="bold" lengthAdjust="spacing" textLength="14" x="1160.5" y="830.6826">23</text><text fill="#000000" font-family="sans-serif" font-size="13" lengthAdjust="spacing" textLength="72" x="1178.5" y="830.6826">jobOpenings</text><polygon fill="#181818" points="359.5,859.9609,349.5,863.9609,359.5,867.9609,355.5,863.9609" style="stroke:#181818;stroke-width:1.0;"/><line style="stroke:#181818;stroke-width:1.0;stroke-dasharray:2.0,2.0;" x1="353.5" x2="1137.5" y1="863.9609" y2="863.9609"/><text fill="#000000" font-family="sans-serif" font-size="13" font-weight="bold" lengthAdjust="spacing" textLength="14" x="365.5" y="859.2061">24</text><text fill="#000000" font-family="sans-serif" font-size="13" lengthAdjust="spacing" textLength="4" x="383.5" y="859.2061">&#160;</text><polygon fill="#181818" points="67.5,888.4844,57.5,892.4844,67.5,896.4844,63.5,892.4844" style="stroke:#181818;stroke-width:1.0;"/><line style="stroke:#181818;stroke-width:1.0;stroke-dasharray:2.0,2.0;" x1="61.5" x2="342.5" y1="892.4844" y2="892.4844"/><text fill="#000000" font-family="sans-serif" font-size="13" font-weight="bold" lengthAdjust="spacing" textLength="14" x="73.5" y="887.7295">25</text><text fill="#000000" font-family="sans-serif" font-size="13" lengthAdjust="spacing" textLength="4" x="91.5" y="887.7295">&#160;</text><polygon fill="#181818" points="326.5,917.0078,336.5,921.0078,326.5,925.0078,330.5,921.0078" style="stroke:#181818;stroke-width:1.0;"/><line style="stroke:#181818;stroke-width:1.0;" x1="56.5" x2="332.5" y1="921.0078" y2="921.0078"/><text fill="#000000" font-family="sans-serif" font-size="13" font-weight="bold" lengthAdjust="spacing" textLength="14" x="63.5" y="916.2529">26</text><text fill="#000000" font-family="sans-serif" font-size="13" lengthAdjust="spacing" textLength="129" x="81.5" y="916.2529">choose a Job Opening</text><line style="stroke:#181818;stroke-width:1.0;" x1="348.5" x2="390.5" y1="949.5313" y2="949.5313"/><line style="stroke:#181818;stroke-width:1.0;" x1="390.5" x2="390.5" y1="949.5313" y2="962.5313"/><line style="stroke:#181818;stroke-width:1.0;" x1="349.5" x2="390.5" y1="962.5313" y2="962.5313"/><polygon fill="#181818" points="359.5,958.5313,349.5,962.5313,359.5,966.5313,355.5,962.5313" style="stroke:#181818;stroke-width:1.0;"/><text fill="#000000" font-family="sans-serif" font-size="13" font-weight="bold" lengthAdjust="spacing" textLength="14" x="355.5" y="944.7764">27</text><text fill="#000000" font-family="sans-serif" font-size="13" lengthAdjust="spacing" textLength="210" x="373.5" y="944.7764">selectJobOpening(listJobOpennings)</text><polygon fill="#181818" points="1121.5,987.0547,1131.5,991.0547,1121.5,995.0547,1125.5,991.0547" style="stroke:#181818;stroke-width:1.0;"/><line style="stroke:#181818;stroke-width:1.0;" x1="348.5" x2="1127.5" y1="991.0547" y2="991.0547"/><text fill="#000000" font-family="sans-serif" font-size="13" font-weight="bold" lengthAdjust="spacing" textLength="14" x="355.5" y="986.2998">28</text><text fill="#000000" font-family="sans-serif" font-size="13" lengthAdjust="spacing" textLength="748" x="373.5" y="986.2998">registerJobApplication(candidateEmail, candidateFirstName,candidateLastName,  candidatePhoneNumber, jobOpening, filesData)</text><polygon fill="#181818" points="1872.5,1015.5781,1882.5,1019.5781,1872.5,1023.5781,1876.5,1019.5781" style="stroke:#181818;stroke-width:1.0;"/><line style="stroke:#181818;stroke-width:1.0;" x1="1143.5" x2="1878.5" y1="1019.5781" y2="1019.5781"/><text fill="#000000" font-family="sans-serif" font-size="13" font-weight="bold" lengthAdjust="spacing" textLength="14" x="1150.5" y="1014.8232">29</text><text fill="#000000" font-family="sans-serif" font-size="13" lengthAdjust="spacing" textLength="166" x="1168.5" y="1014.8232">findByEmail(candidateEmail)</text><polygon fill="#181818" points="1154.5,1044.1016,1144.5,1048.1016,1154.5,1052.1016,1150.5,1048.1016" style="stroke:#181818;stroke-width:1.0;"/><line style="stroke:#181818;stroke-width:1.0;stroke-dasharray:2.0,2.0;" x1="1148.5" x2="1888.5" y1="1048.1016" y2="1048.1016"/><text fill="#000000" font-family="sans-serif" font-size="13" font-weight="bold" lengthAdjust="spacing" textLength="14" x="1160.5" y="1043.3467">30</text><text fill="#000000" font-family="sans-serif" font-size="13" lengthAdjust="spacing" textLength="58" x="1178.5" y="1043.3467">Candidate</text><path d="M10,1063.1016 L71,1063.1016 L71,1069.625 L61,1079.625 L10,1079.625 L10,1063.1016 " fill="#EEEEEE" style="stroke:#000000;stroke-width:1.5;"/><rect fill="none" height="364.8047" style="stroke:#000000;stroke-width:1.5;" width="2324" x="10" y="1063.1016"/><text fill="#000000" font-family="sans-serif" font-size="13" font-weight="bold" lengthAdjust="spacing" textLength="16" x="25" y="1075.8701">alt</text><text fill="#000000" font-family="sans-serif" font-size="11" font-weight="bold" lengthAdjust="spacing" textLength="98" x="86" y="1075.0596">[Candidate != null]</text><polygon fill="#181818" points="1446.5,1096.1484,1456.5,1100.1484,1446.5,1104.1484,1450.5,1100.1484" style="stroke:#181818;stroke-width:1.0;"/><line style="stroke:#181818;stroke-width:1.0;" x1="1143.5" x2="1452.5" y1="1100.1484" y2="1100.1484"/><text fill="#000000" font-family="sans-serif" font-size="13" font-weight="bold" lengthAdjust="spacing" textLength="14" x="1150.5" y="1095.3936">31</text><text fill="#000000" font-family="sans-serif" font-size="13" lengthAdjust="spacing" textLength="278" x="1168.5" y="1095.3936">jobApplication(Candidate, jobOpening, filesData)</text><path d="M1473,1113.1484 L1473,1137.1484 L1883,1137.1484 L1883,1123.1484 L1873,1113.1484 L1473,1113.1484 " fill="#FAFAFA" style="stroke:#181818;stroke-width:0.5;"/><path d="M1873,1113.1484 L1873,1123.1484 L1883,1123.1484 L1873,1113.1484 " fill="#FAFAFA" style="stroke:#181818;stroke-width:0.5;"/><text fill="#000000" font-family="sans-serif" font-size="13" lengthAdjust="spacing" textLength="389" x="1479" y="1129.917">If the Candidate doesn't exist, the system will create it using events</text><polygon fill="#181818" points="1154.5,1159.1953,1144.5,1163.1953,1154.5,1167.1953,1150.5,1163.1953" style="stroke:#181818;stroke-width:1.0;"/><line style="stroke:#181818;stroke-width:1.0;stroke-dasharray:2.0,2.0;" x1="1148.5" x2="1462.5" y1="1163.1953" y2="1163.1953"/><text fill="#000000" font-family="sans-serif" font-size="13" font-weight="bold" lengthAdjust="spacing" textLength="14" x="1160.5" y="1158.4404">32</text><text fill="#000000" font-family="sans-serif" font-size="13" lengthAdjust="spacing" textLength="84" x="1178.5" y="1158.4404">JobApplication</text><polygon fill="#181818" points="1579,1187.7188,1589,1191.7188,1579,1195.7188,1583,1191.7188" style="stroke:#181818;stroke-width:1.0;"/><line style="stroke:#181818;stroke-width:1.0;" x1="1143.5" x2="1585" y1="1191.7188" y2="1191.7188"/><text fill="#000000" font-family="sans-serif" font-size="13" font-weight="bold" lengthAdjust="spacing" textLength="14" x="1150.5" y="1186.9639">33</text><text fill="#000000" font-family="sans-serif" font-size="13" lengthAdjust="spacing" textLength="75" x="1168.5" y="1186.9639">repositories()</text><polygon fill="#181818" points="1727,1216.2422,1737,1220.2422,1727,1224.2422,1731,1220.2422" style="stroke:#181818;stroke-width:1.0;"/><line style="stroke:#181818;stroke-width:1.0;" x1="1601" x2="1733" y1="1220.2422" y2="1220.2422"/><text fill="#000000" font-family="sans-serif" font-size="13" font-weight="bold" lengthAdjust="spacing" textLength="14" x="1608" y="1215.4873">34</text><text fill="#000000" font-family="sans-serif" font-size="13" lengthAdjust="spacing" textLength="44" x="1626" y="1215.4873">create()</text><polygon fill="#181818" points="1154.5,1244.7656,1144.5,1248.7656,1154.5,1252.7656,1150.5,1248.7656" style="stroke:#181818;stroke-width:1.0;"/><line style="stroke:#181818;stroke-width:1.0;stroke-dasharray:2.0,2.0;" x1="1148.5" x2="1595" y1="1248.7656" y2="1248.7656"/><text fill="#000000" font-family="sans-serif" font-size="13" font-weight="bold" lengthAdjust="spacing" textLength="14" x="1160.5" y="1244.0107">35</text><text fill="#000000" font-family="sans-serif" font-size="13" lengthAdjust="spacing" textLength="39" x="1178.5" y="1244.0107">factory</text><polygon fill="#181818" points="1722,1273.2891,1732,1277.2891,1722,1281.2891,1726,1277.2891" style="stroke:#181818;stroke-width:1.0;"/><line style="stroke:#181818;stroke-width:1.0;" x1="1143.5" x2="1728" y1="1277.2891" y2="1277.2891"/><text fill="#000000" font-family="sans-serif" font-size="13" font-weight="bold" lengthAdjust="spacing" textLength="14" x="1150.5" y="1272.5342">36</text><text fill="#000000" font-family="sans-serif" font-size="13" lengthAdjust="spacing" textLength="89" x="1168.5" y="1272.5342">jobApplication()</text><polygon fill="#181818" points="2223.5,1301.8125,2233.5,1305.8125,2223.5,1309.8125,2227.5,1305.8125" style="stroke:#181818;stroke-width:1.0;"/><line style="stroke:#181818;stroke-width:1.0;" x1="1744" x2="2229.5" y1="1305.8125" y2="1305.8125"/><text fill="#000000" font-family="sans-serif" font-size="13" font-weight="bold" lengthAdjust="spacing" textLength="14" x="1751" y="1301.0576">37</text><text fill="#000000" font-family="sans-serif" font-size="13" lengthAdjust="spacing" textLength="44" x="1769" y="1301.0576">create()</text><polygon fill="#181818" points="1154.5,1330.3359,1144.5,1334.3359,1154.5,1338.3359,1150.5,1334.3359" style="stroke:#181818;stroke-width:1.0;"/><line style="stroke:#181818;stroke-width:1.0;stroke-dasharray:2.0,2.0;" x1="1148.5" x2="1738" y1="1334.3359" y2="1334.3359"/><text fill="#000000" font-family="sans-serif" font-size="13" font-weight="bold" lengthAdjust="spacing" textLength="14" x="1160.5" y="1329.5811">38</text><text fill="#000000" font-family="sans-serif" font-size="13" lengthAdjust="spacing" textLength="146" x="1178.5" y="1329.5811">JobApplicationRepository</text><polygon fill="#181818" points="2223.5,1358.8594,2233.5,1362.8594,2223.5,1366.8594,2227.5,1362.8594" style="stroke:#181818;stroke-width:1.0;"/><line style="stroke:#181818;stroke-width:1.0;" x1="1143.5" x2="2229.5" y1="1362.8594" y2="1362.8594"/><text fill="#000000" font-family="sans-serif" font-size="13" font-weight="bold" lengthAdjust="spacing" textLength="14" x="1150.5" y="1358.1045">39</text><text fill="#000000" font-family="sans-serif" font-size="13" lengthAdjust="spacing" textLength="118" x="1168.5" y="1358.1045">save(JobApplication)</text><polygon fill="#181818" points="359.5,1387.3828,349.5,1391.3828,359.5,1395.3828,355.5,1391.3828" style="stroke:#181818;stroke-width:1.0;"/><line style="stroke:#181818;stroke-width:1.0;stroke-dasharray:2.0,2.0;" x1="353.5" x2="1137.5" y1="1391.3828" y2="1391.3828"/><text fill="#000000" font-family="sans-serif" font-size="13" font-weight="bold" lengthAdjust="spacing" textLength="14" x="365.5" y="1386.6279">40</text><text fill="#000000" font-family="sans-serif" font-size="13" lengthAdjust="spacing" textLength="106" x="383.5" y="1386.6279">success message</text><polygon fill="#181818" points="67.5,1415.9063,57.5,1419.9063,67.5,1423.9063,63.5,1419.9063" style="stroke:#181818;stroke-width:1.0;"/><line style="stroke:#181818;stroke-width:1.0;stroke-dasharray:2.0,2.0;" x1="61.5" x2="342.5" y1="1419.9063" y2="1419.9063"/><text fill="#000000" font-family="sans-serif" font-size="13" font-weight="bold" lengthAdjust="spacing" textLength="14" x="73.5" y="1415.1514">41</text><text fill="#000000" font-family="sans-serif" font-size="13" lengthAdjust="spacing" textLength="154" x="91.5" y="1415.1514">show message of success</text><!--SRC=[rLVTJjim5BxFKtZSqA9st4Ui4h0XTPeOOke3cEIqzN3ip7Q1llsEdRHsR8UYtOsBAZa_t_dnEL_C-TQOLfUNbosdmkmQ_hcIpQM6FpiG5SnhHZUADaMXdvbeAJwIHWfPRPLiW1YrWq3JqkgPRk2NsNCW2Yf3nOQ71dfBQ_dAn8QiATTG57HdfDWrJw3mkJ9IaPyjA6eVg2RNLbAWgs4LQp4zSbO-mePf0-gxVBfkMyugQfWKg-MPTLWjoTLLgq23C4w-M1IL54P9Fkfws-avA0VXNn6AUZD46YOIGDmn3ZVIEFzKdE2S3u0m6wnP2EoA0mZUqREM3MLfy6491xz0DEhw04hRBk3XsbBXhKix4DiM-hVO_n5QgHcUo_xE7TZUkIVIADzRAcfMKmFUiEjsAiVmwlYIAzns1viJ8UKK9w62XgLmMMKCQQUMlM01_R0I_7DFPBwmurZY7k0gQKECnCTk00aL91Y9mdaTWLRBJh1Q8eGVnuiB1AiKe8dNUtL9Dc3k9A_nw2RJ2DARERb_3H583Y8mdIzMovBq-dlQW3Ee8HUbJv2WKzUEGHyqS2G7GidQWLaHQrgfKBa5iiQrqJ4sDYLgRMdPH47TWxpJH7SCNSmk-qbGn7IycJOFQpBf8an7UrgyqzKHg5npCKjN-rTgQ76wkSCeE1Yr3UEMMfY9HPh-snJaeTACk_ck3YjyCcsdSrCHphKjMjJNdFiDFaxVEzqUf1-mLtbSJmOMPu0Is3b5y3vV91nMTjlMWuIsmzQlUygBIe-33J9EWuN4VqZSPvuIhDCdulaYHuJ3IZ9UqGJaCFgs1mMcEQLrPhCXlpD7dREC6XsufQ4SFIKvncjZzsQ-w2YfA8O4uncctyPgAwK6v2dCZVIHKvxnD5Ds9EChcN0SWF1SfuMdnd09tDRbRYUJutfzmwyvd_brksDA6yifiwFe1-qbn9izRAM0UtV5cWKDd7cgUUTZaV94vdlTBV3DtYKOvHipKEhUXKZbqT4VBHA2oK1sGRdnIlBf2n4xpgE2x24C- -s6BEp_4MAqUuCAXsXEvtw4HALYcwqXSft4NAxTby-dMqlGujmGUCEPc3cbtkDqDEILSTvV0mWpPAVjFH5UaATrFrlHHN0UiMqcmw2TaVP_vDhY9DUIv9IZtFDicoVR_3NnS5NhaJ_2k5cWv8CwGheHvsQny194Ns0oL8zysD5sLrMWDMdm1_-f-yY5v42iU3EJhmT7E-yzLZ5ogmDH5_tVNm00]--></g></svg>