<?xml version="1.0" encoding="us-ascii" standalone="no"?><svg xmlns="http://www.w3.org/2000/svg" xmlns:xlink="http://www.w3.org/1999/xlink" contentStyleType="text/css" height="1066px" preserveAspectRatio="none" style="width:1002px;height:1066px;background:#FFFFFF;" version="1.1" viewBox="0 0 1002 1066" width="1002px" zoomAndPan="magnify"><defs/><g><text fill="#000000" font-family="sans-serif" font-size="14" font-weight="bold" lengthAdjust="spacing" textLength="803" x="92.5" y="22.6738">US 2002  As Operator, I want to register an application of a candidate for a job opening and import all files received</text><!--class UI--><g id="elem_UI"><rect codeLine="5" fill="#F1F1F1" height="79.2813" id="UI" rx="2.5" ry="2.5" style="stroke:#181818;stroke-width:0.5;" width="337" x="313" y="43.6406"/><ellipse cx="399.25" cy="59.6406" fill="#ADD1B2" rx="11" ry="11" style="stroke:#181818;stroke-width:1.0;"/><path d="M402.0156,55.5156 Q402.1719,55.2969 402.3594,55.1875 Q402.5469,55.0781 402.7656,55.0781 Q403.1406,55.0781 403.375,55.3438 Q403.6094,55.5938 403.6094,56.2031 L403.6094,57.6563 Q403.6094,58.2656 403.375,58.5313 Q403.1406,58.7969 402.7656,58.7969 Q402.4219,58.7969 402.2188,58.5938 Q402.0156,58.4063 401.9063,57.8906 Q401.8594,57.5313 401.6719,57.3438 Q401.3438,56.9688 400.7344,56.75 Q400.125,56.5313 399.5,56.5313 Q398.7344,56.5313 398.0938,56.8594 Q397.4688,57.1875 396.9688,57.9375 Q396.4844,58.6875 396.4844,59.7188 L396.4844,60.8125 Q396.4844,62.0469 397.375,62.875 Q398.2656,63.6875 399.8594,63.6875 Q400.7969,63.6875 401.4531,63.4375 Q401.8438,63.2813 402.2656,62.8438 Q402.5313,62.5781 402.6719,62.5 Q402.8281,62.4219 403.0313,62.4219 Q403.3594,62.4219 403.6094,62.6875 Q403.875,62.9375 403.875,63.2813 Q403.875,63.625 403.5313,64.0313 Q403.0313,64.6094 402.2344,64.9375 Q401.1563,65.3906 399.8594,65.3906 Q398.3438,65.3906 397.1406,64.7656 Q396.1563,64.2656 395.4688,63.2031 Q394.7813,62.125 394.7813,60.8438 L394.7813,59.6875 Q394.7813,58.3594 395.3906,57.2188 Q396.0156,56.0625 397.1094,55.4531 Q398.2031,54.8281 399.4375,54.8281 Q400.1719,54.8281 400.8125,55 Q401.4688,55.1563 402.0156,55.5156 Z " fill="#000000"/><text fill="#000000" font-family="sans-serif" font-size="14" lengthAdjust="spacing" textLength="156" x="419.75" y="64.4941">RegisterJobApplicationUI</text><line style="stroke:#181818;stroke-width:0.5;" x1="314" x2="649" y1="75.6406" y2="75.6406"/><line style="stroke:#181818;stroke-width:0.5;" x1="314" x2="649" y1="83.6406" y2="83.6406"/><ellipse cx="324" cy="96.9609" fill="#84BE84" rx="3" ry="3" style="stroke:#038048;stroke-width:1.0;"/><text fill="#000000" font-family="sans-serif" font-size="14" lengthAdjust="spacing" textLength="221" x="333" y="100.3145">selectFolder(FoldersName) : String</text><ellipse cx="324" cy="112.6016" fill="#84BE84" rx="3" ry="3" style="stroke:#038048;stroke-width:1.0;"/><text fill="#000000" font-family="sans-serif" font-size="14" lengthAdjust="spacing" textLength="311" x="333" y="115.9551">selectJobOpening(listJobOpenings) : JobOpening</text></g><!--class PersistenceContext--><g id="elem_PersistenceContext"><rect codeLine="10" fill="#F1F1F1" height="63.6406" id="PersistenceContext" rx="2.5" ry="2.5" style="stroke:#181818;stroke-width:0.5;" width="154" x="239.5" y="410.1406"/><ellipse cx="254.5" cy="426.1406" fill="#ADD1B2" rx="11" ry="11" style="stroke:#181818;stroke-width:1.0;"/><path d="M257.2656,422.0156 Q257.4219,421.7969 257.6094,421.6875 Q257.7969,421.5781 258.0156,421.5781 Q258.3906,421.5781 258.625,421.8438 Q258.8594,422.0938 258.8594,422.7031 L258.8594,424.1563 Q258.8594,424.7656 258.625,425.0313 Q258.3906,425.2969 258.0156,425.2969 Q257.6719,425.2969 257.4688,425.0938 Q257.2656,424.9063 257.1563,424.3906 Q257.1094,424.0313 256.9219,423.8438 Q256.5938,423.4688 255.9844,423.25 Q255.375,423.0313 254.75,423.0313 Q253.9844,423.0313 253.3438,423.3594 Q252.7188,423.6875 252.2188,424.4375 Q251.7344,425.1875 251.7344,426.2188 L251.7344,427.3125 Q251.7344,428.5469 252.625,429.375 Q253.5156,430.1875 255.1094,430.1875 Q256.0469,430.1875 256.7031,429.9375 Q257.0938,429.7813 257.5156,429.3438 Q257.7813,429.0781 257.9219,429 Q258.0781,428.9219 258.2813,428.9219 Q258.6094,428.9219 258.8594,429.1875 Q259.125,429.4375 259.125,429.7813 Q259.125,430.125 258.7813,430.5313 Q258.2813,431.1094 257.4844,431.4375 Q256.4063,431.8906 255.1094,431.8906 Q253.5938,431.8906 252.3906,431.2656 Q251.4063,430.7656 250.7188,429.7031 Q250.0313,428.625 250.0313,427.3438 L250.0313,426.1875 Q250.0313,424.8594 250.6406,423.7188 Q251.2656,422.5625 252.3594,421.9531 Q253.4531,421.3281 254.6875,421.3281 Q255.4219,421.3281 256.0625,421.5 Q256.7188,421.6563 257.2656,422.0156 Z " fill="#000000"/><text fill="#000000" font-family="sans-serif" font-size="14" lengthAdjust="spacing" textLength="122" x="268.5" y="430.9941">PersistenceContext</text><line style="stroke:#181818;stroke-width:0.5;" x1="240.5" x2="392.5" y1="442.1406" y2="442.1406"/><line style="stroke:#181818;stroke-width:0.5;" x1="240.5" x2="392.5" y1="450.1406" y2="450.1406"/><text fill="#000000" font-family="sans-serif" font-size="14" lengthAdjust="spacing" textLength="84" x="245.5" y="466.8145">repositories()</text></g><!--class Controller--><g id="elem_Controller"><rect codeLine="14" fill="#F1F1F1" height="141.8438" id="Controller" rx="2.5" ry="2.5" style="stroke:#181818;stroke-width:0.5;" width="949" x="7" y="183.6406"/><ellipse cx="374.25" cy="199.6406" fill="#ADD1B2" rx="11" ry="11" style="stroke:#181818;stroke-width:1.0;"/><path d="M377.0156,195.5156 Q377.1719,195.2969 377.3594,195.1875 Q377.5469,195.0781 377.7656,195.0781 Q378.1406,195.0781 378.375,195.3438 Q378.6094,195.5938 378.6094,196.2031 L378.6094,197.6563 Q378.6094,198.2656 378.375,198.5313 Q378.1406,198.7969 377.7656,198.7969 Q377.4219,198.7969 377.2188,198.5938 Q377.0156,198.4063 376.9063,197.8906 Q376.8594,197.5313 376.6719,197.3438 Q376.3438,196.9688 375.7344,196.75 Q375.125,196.5313 374.5,196.5313 Q373.7344,196.5313 373.0938,196.8594 Q372.4688,197.1875 371.9688,197.9375 Q371.4844,198.6875 371.4844,199.7188 L371.4844,200.8125 Q371.4844,202.0469 372.375,202.875 Q373.2656,203.6875 374.8594,203.6875 Q375.7969,203.6875 376.4531,203.4375 Q376.8438,203.2813 377.2656,202.8438 Q377.5313,202.5781 377.6719,202.5 Q377.8281,202.4219 378.0313,202.4219 Q378.3594,202.4219 378.6094,202.6875 Q378.875,202.9375 378.875,203.2813 Q378.875,203.625 378.5313,204.0313 Q378.0313,204.6094 377.2344,204.9375 Q376.1563,205.3906 374.8594,205.3906 Q373.3438,205.3906 372.1406,204.7656 Q371.1563,204.2656 370.4688,203.2031 Q369.7813,202.125 369.7813,200.8438 L369.7813,199.6875 Q369.7813,198.3594 370.3906,197.2188 Q371.0156,196.0625 372.1094,195.4531 Q373.2031,194.8281 374.4375,194.8281 Q375.1719,194.8281 375.8125,195 Q376.4688,195.1563 377.0156,195.5156 Z " fill="#000000"/><text fill="#000000" font-family="sans-serif" font-size="14" lengthAdjust="spacing" textLength="206" x="394.75" y="204.4941">RegisterJobApplicationController</text><line style="stroke:#181818;stroke-width:0.5;" x1="8" x2="955" y1="215.6406" y2="215.6406"/><line style="stroke:#181818;stroke-width:0.5;" x1="8" x2="955" y1="223.6406" y2="223.6406"/><ellipse cx="18" cy="236.9609" fill="#84BE84" rx="3" ry="3" style="stroke:#038048;stroke-width:1.0;"/><text fill="#000000" font-family="sans-serif" font-size="14" lengthAdjust="spacing" textLength="165" x="27" y="240.3145">getFolders() : List&lt;String&gt;</text><ellipse cx="18" cy="252.6016" fill="#84BE84" rx="3" ry="3" style="stroke:#038048;stroke-width:1.0;"/><text fill="#000000" font-family="sans-serif" font-size="14" lengthAdjust="spacing" textLength="219" x="27" y="255.9551">getFilesName(folder) : List&lt;String&gt;</text><ellipse cx="18" cy="268.2422" fill="#84BE84" rx="3" ry="3" style="stroke:#038048;stroke-width:1.0;"/><text fill="#000000" font-family="sans-serif" font-size="14" lengthAdjust="spacing" textLength="213" x="27" y="271.5957">readFileContent(file) :List&lt;String&gt;</text><ellipse cx="18" cy="283.8828" fill="#84BE84" rx="3" ry="3" style="stroke:#038048;stroke-width:1.0;"/><text fill="#000000" font-family="sans-serif" font-size="14" lengthAdjust="spacing" textLength="282" x="27" y="287.2363">findAllJobOpenings() : Iterable&lt;JobOpening&gt;</text><ellipse cx="18" cy="299.5234" fill="#84BE84" rx="3" ry="3" style="stroke:#038048;stroke-width:1.0;"/><text fill="#000000" font-family="sans-serif" font-size="14" lengthAdjust="spacing" textLength="923" x="27" y="302.877">registerJobApplication(candidateEmail, candidateFirstName, candidateLastName,  candidatePhoneNumber, jobOpening, filesData) : JobApplication</text><ellipse cx="18" cy="315.1641" fill="#84BE84" rx="3" ry="3" style="stroke:#038048;stroke-width:1.0;"/><text fill="#000000" font-family="sans-serif" font-size="14" lengthAdjust="spacing" textLength="498" x="27" y="318.5176">addUser(email, password, firstName, lastName, roles, createdOn) : SystemUser</text></g><!--class Factory--><g id="elem_Factory"><rect codeLine="24" fill="#F1F1F1" height="110.5625" id="Factory" rx="2.5" ry="2.5" style="stroke:#181818;stroke-width:0.5;" width="265" x="571" y="386.6406"/><ellipse cx="641.25" cy="402.6406" fill="#B4A7E5" rx="11" ry="11" style="stroke:#181818;stroke-width:1.0;"/><path d="M642.2031,399.2813 L642.2031,405.9375 L643.9219,405.9375 Q644.5313,405.9375 644.7969,406.1719 Q645.0625,406.4063 645.0625,406.7969 Q645.0625,407.1719 644.7969,407.4063 Q644.5313,407.6406 643.9219,407.6406 L638.7813,407.6406 Q638.1719,407.6406 637.9063,407.4063 Q637.6406,407.1719 637.6406,406.7813 Q637.6406,406.4063 637.9063,406.1719 Q638.1719,405.9375 638.7813,405.9375 L640.5,405.9375 L640.5,399.2813 L638.7813,399.2813 Q638.1719,399.2813 637.9063,399.0469 Q637.6406,398.8125 637.6406,398.4219 Q637.6406,398.0469 637.9063,397.8125 Q638.1719,397.5781 638.7813,397.5781 L643.9219,397.5781 Q644.5313,397.5781 644.7969,397.8125 Q645.0625,398.0469 645.0625,398.4219 Q645.0625,398.8125 644.7969,399.0469 Q644.5313,399.2813 643.9219,399.2813 L642.2031,399.2813 Z " fill="#000000"/><text fill="#000000" font-family="sans-serif" font-size="14" font-style="italic" lengthAdjust="spacing" textLength="116" x="661.75" y="407.4941">RepositoryFactory</text><line style="stroke:#181818;stroke-width:0.5;" x1="572" x2="835" y1="418.6406" y2="418.6406"/><line style="stroke:#181818;stroke-width:0.5;" x1="572" x2="835" y1="426.6406" y2="426.6406"/><text fill="#000000" font-family="sans-serif" font-size="14" lengthAdjust="spacing" textLength="94" x="577" y="443.3145">jobOpenings();</text><text fill="#000000" font-family="sans-serif" font-size="14" lengthAdjust="spacing" textLength="238" x="577" y="458.9551">jobOpenings(TransactionalContext tx)</text><text fill="#000000" font-family="sans-serif" font-size="14" lengthAdjust="spacing" textLength="109" x="577" y="474.5957">jobApplications();</text><text fill="#000000" font-family="sans-serif" font-size="14" lengthAdjust="spacing" textLength="253" x="577" y="490.2363">jobApplications(TransactionalContext tx)</text></g><!--class JobOpeningRepository--><g id="elem_JobOpeningRepository"><rect codeLine="32" fill="#F1F1F1" height="63.6406" id="JobOpeningRepository" rx="2.5" ry="2.5" style="stroke:#181818;stroke-width:0.5;" width="177" x="358" y="558.6406"/><ellipse cx="373" cy="574.6406" fill="#B4A7E5" rx="11" ry="11" style="stroke:#181818;stroke-width:1.0;"/><path d="M373.9531,571.2813 L373.9531,577.9375 L375.6719,577.9375 Q376.2813,577.9375 376.5469,578.1719 Q376.8125,578.4063 376.8125,578.7969 Q376.8125,579.1719 376.5469,579.4063 Q376.2813,579.6406 375.6719,579.6406 L370.5313,579.6406 Q369.9219,579.6406 369.6563,579.4063 Q369.3906,579.1719 369.3906,578.7813 Q369.3906,578.4063 369.6563,578.1719 Q369.9219,577.9375 370.5313,577.9375 L372.25,577.9375 L372.25,571.2813 L370.5313,571.2813 Q369.9219,571.2813 369.6563,571.0469 Q369.3906,570.8125 369.3906,570.4219 Q369.3906,570.0469 369.6563,569.8125 Q369.9219,569.5781 370.5313,569.5781 L375.6719,569.5781 Q376.2813,569.5781 376.5469,569.8125 Q376.8125,570.0469 376.8125,570.4219 Q376.8125,570.8125 376.5469,571.0469 Q376.2813,571.2813 375.6719,571.2813 L373.9531,571.2813 Z " fill="#000000"/><text fill="#000000" font-family="sans-serif" font-size="14" font-style="italic" lengthAdjust="spacing" textLength="145" x="387" y="579.4941">JobOpeningRepository</text><line style="stroke:#181818;stroke-width:0.5;" x1="359" x2="534" y1="590.6406" y2="590.6406"/><line style="stroke:#181818;stroke-width:0.5;" x1="359" x2="534" y1="598.6406" y2="598.6406"/><text fill="#000000" font-family="sans-serif" font-size="14" lengthAdjust="spacing" textLength="94" x="364" y="615.3145">jobOpenings();</text></g><!--class JobApplicationRepository--><g id="elem_JobApplicationRepository"><rect codeLine="36" fill="#F1F1F1" height="63.6406" id="JobApplicationRepository" rx="2.5" ry="2.5" style="stroke:#181818;stroke-width:0.5;" width="192" x="793.5" y="558.6406"/><ellipse cx="808.5" cy="574.6406" fill="#B4A7E5" rx="11" ry="11" style="stroke:#181818;stroke-width:1.0;"/><path d="M809.4531,571.2813 L809.4531,577.9375 L811.1719,577.9375 Q811.7813,577.9375 812.0469,578.1719 Q812.3125,578.4063 812.3125,578.7969 Q812.3125,579.1719 812.0469,579.4063 Q811.7813,579.6406 811.1719,579.6406 L806.0313,579.6406 Q805.4219,579.6406 805.1563,579.4063 Q804.8906,579.1719 804.8906,578.7813 Q804.8906,578.4063 805.1563,578.1719 Q805.4219,577.9375 806.0313,577.9375 L807.75,577.9375 L807.75,571.2813 L806.0313,571.2813 Q805.4219,571.2813 805.1563,571.0469 Q804.8906,570.8125 804.8906,570.4219 Q804.8906,570.0469 805.1563,569.8125 Q805.4219,569.5781 806.0313,569.5781 L811.1719,569.5781 Q811.7813,569.5781 812.0469,569.8125 Q812.3125,570.0469 812.3125,570.4219 Q812.3125,570.8125 812.0469,571.0469 Q811.7813,571.2813 811.1719,571.2813 L809.4531,571.2813 Z " fill="#000000"/><text fill="#000000" font-family="sans-serif" font-size="14" font-style="italic" lengthAdjust="spacing" textLength="160" x="822.5" y="579.4941">JobApplicationRepository</text><line style="stroke:#181818;stroke-width:0.5;" x1="794.5" x2="984.5" y1="590.6406" y2="590.6406"/><line style="stroke:#181818;stroke-width:0.5;" x1="794.5" x2="984.5" y1="598.6406" y2="598.6406"/><text fill="#000000" font-family="sans-serif" font-size="14" lengthAdjust="spacing" textLength="109" x="799.5" y="615.3145">jobApplications();</text></g><!--class CandidateRepository--><g id="elem_CandidateRepository"><rect codeLine="40" fill="#F1F1F1" height="63.6406" id="CandidateRepository" rx="2.5" ry="2.5" style="stroke:#181818;stroke-width:0.5;" width="165" x="582" y="558.6406"/><ellipse cx="597" cy="574.6406" fill="#B4A7E5" rx="11" ry="11" style="stroke:#181818;stroke-width:1.0;"/><path d="M597.9531,571.2813 L597.9531,577.9375 L599.6719,577.9375 Q600.2813,577.9375 600.5469,578.1719 Q600.8125,578.4063 600.8125,578.7969 Q600.8125,579.1719 600.5469,579.4063 Q600.2813,579.6406 599.6719,579.6406 L594.5313,579.6406 Q593.9219,579.6406 593.6563,579.4063 Q593.3906,579.1719 593.3906,578.7813 Q593.3906,578.4063 593.6563,578.1719 Q593.9219,577.9375 594.5313,577.9375 L596.25,577.9375 L596.25,571.2813 L594.5313,571.2813 Q593.9219,571.2813 593.6563,571.0469 Q593.3906,570.8125 593.3906,570.4219 Q593.3906,570.0469 593.6563,569.8125 Q593.9219,569.5781 594.5313,569.5781 L599.6719,569.5781 Q600.2813,569.5781 600.5469,569.8125 Q600.8125,570.0469 600.8125,570.4219 Q600.8125,570.8125 600.5469,571.0469 Q600.2813,571.2813 599.6719,571.2813 L597.9531,571.2813 Z " fill="#000000"/><text fill="#000000" font-family="sans-serif" font-size="14" font-style="italic" lengthAdjust="spacing" textLength="133" x="611" y="579.4941">CandidateRepository</text><line style="stroke:#181818;stroke-width:0.5;" x1="583" x2="746" y1="590.6406" y2="590.6406"/><line style="stroke:#181818;stroke-width:0.5;" x1="583" x2="746" y1="598.6406" y2="598.6406"/><text fill="#000000" font-family="sans-serif" font-size="14" lengthAdjust="spacing" textLength="83" x="588" y="615.3145">candidates();</text></g><!--class JobApplication--><g id="elem_JobApplication"><rect codeLine="44" fill="#F1F1F1" height="110.5625" id="JobApplication" rx="2.5" ry="2.5" style="stroke:#181818;stroke-width:0.5;" width="187" x="808" y="761.1406"/><ellipse cx="851.8" cy="777.1406" fill="#ADD1B2" rx="11" ry="11" style="stroke:#181818;stroke-width:1.0;"/><path d="M854.5656,773.0156 Q854.7219,772.7969 854.9094,772.6875 Q855.0969,772.5781 855.3156,772.5781 Q855.6906,772.5781 855.925,772.8438 Q856.1594,773.0938 856.1594,773.7031 L856.1594,775.1563 Q856.1594,775.7656 855.925,776.0313 Q855.6906,776.2969 855.3156,776.2969 Q854.9719,776.2969 854.7688,776.0938 Q854.5656,775.9063 854.4563,775.3906 Q854.4094,775.0313 854.2219,774.8438 Q853.8938,774.4688 853.2844,774.25 Q852.675,774.0313 852.05,774.0313 Q851.2844,774.0313 850.6438,774.3594 Q850.0188,774.6875 849.5188,775.4375 Q849.0344,776.1875 849.0344,777.2188 L849.0344,778.3125 Q849.0344,779.5469 849.925,780.375 Q850.8156,781.1875 852.4094,781.1875 Q853.3469,781.1875 854.0031,780.9375 Q854.3938,780.7813 854.8156,780.3438 Q855.0813,780.0781 855.2219,780 Q855.3781,779.9219 855.5813,779.9219 Q855.9094,779.9219 856.1594,780.1875 Q856.425,780.4375 856.425,780.7813 Q856.425,781.125 856.0813,781.5313 Q855.5813,782.1094 854.7844,782.4375 Q853.7063,782.8906 852.4094,782.8906 Q850.8938,782.8906 849.6906,782.2656 Q848.7063,781.7656 848.0188,780.7031 Q847.3313,779.625 847.3313,778.3438 L847.3313,777.1875 Q847.3313,775.8594 847.9406,774.7188 Q848.5656,773.5625 849.6594,772.9531 Q850.7531,772.3281 851.9875,772.3281 Q852.7219,772.3281 853.3625,772.5 Q854.0188,772.6563 854.5656,773.0156 Z " fill="#000000"/><text fill="#000000" font-family="sans-serif" font-size="14" lengthAdjust="spacing" textLength="91" x="872.2" y="781.9941">JobApplication</text><line style="stroke:#181818;stroke-width:0.5;" x1="809" x2="994" y1="793.1406" y2="793.1406"/><rect fill="none" height="6" style="stroke:#C82930;stroke-width:1.0;" width="6" x="816" y="803.4609"/><text fill="#000000" font-family="sans-serif" font-size="14" lengthAdjust="spacing" textLength="139" x="828" y="809.8145">candidate : Candidate</text><rect fill="none" height="6" style="stroke:#C82930;stroke-width:1.0;" width="6" x="816" y="819.1016"/><text fill="#000000" font-family="sans-serif" font-size="14" lengthAdjust="spacing" textLength="161" x="828" y="825.4551">jobOpening : JobOpening</text><rect fill="none" height="6" style="stroke:#C82930;stroke-width:1.0;" width="6" x="816" y="834.7422"/><text fill="#000000" font-family="sans-serif" font-size="14" lengthAdjust="spacing" textLength="133" x="828" y="841.0957">filePaths List&lt;String&gt;</text><rect fill="none" height="6" style="stroke:#C82930;stroke-width:1.0;" width="6" x="816" y="850.3828"/><text fill="#000000" font-family="sans-serif" font-size="14" lengthAdjust="spacing" textLength="90" x="828" y="856.7363">status : Status</text><line style="stroke:#181818;stroke-width:0.5;" x1="809" x2="994" y1="863.7031" y2="863.7031"/></g><!--class Status--><g id="elem_Status"><rect codeLine="52" fill="#F1F1F1" height="63.6406" id="Status" rx="2.5" ry="2.5" style="stroke:#181818;stroke-width:0.5;" width="186" x="808.5" y="995.6406"/><ellipse cx="877.25" cy="1011.6406" fill="#ADD1B2" rx="11" ry="11" style="stroke:#181818;stroke-width:1.0;"/><path d="M880.0156,1007.5156 Q880.1719,1007.2969 880.3594,1007.1875 Q880.5469,1007.0781 880.7656,1007.0781 Q881.1406,1007.0781 881.375,1007.3438 Q881.6094,1007.5938 881.6094,1008.2031 L881.6094,1009.6563 Q881.6094,1010.2656 881.375,1010.5313 Q881.1406,1010.7969 880.7656,1010.7969 Q880.4219,1010.7969 880.2188,1010.5938 Q880.0156,1010.4063 879.9063,1009.8906 Q879.8594,1009.5313 879.6719,1009.3438 Q879.3438,1008.9688 878.7344,1008.75 Q878.125,1008.5313 877.5,1008.5313 Q876.7344,1008.5313 876.0938,1008.8594 Q875.4688,1009.1875 874.9688,1009.9375 Q874.4844,1010.6875 874.4844,1011.7188 L874.4844,1012.8125 Q874.4844,1014.0469 875.375,1014.875 Q876.2656,1015.6875 877.8594,1015.6875 Q878.7969,1015.6875 879.4531,1015.4375 Q879.8438,1015.2813 880.2656,1014.8438 Q880.5313,1014.5781 880.6719,1014.5 Q880.8281,1014.4219 881.0313,1014.4219 Q881.3594,1014.4219 881.6094,1014.6875 Q881.875,1014.9375 881.875,1015.2813 Q881.875,1015.625 881.5313,1016.0313 Q881.0313,1016.6094 880.2344,1016.9375 Q879.1563,1017.3906 877.8594,1017.3906 Q876.3438,1017.3906 875.1406,1016.7656 Q874.1563,1016.2656 873.4688,1015.2031 Q872.7813,1014.125 872.7813,1012.8438 L872.7813,1011.6875 Q872.7813,1010.3594 873.3906,1009.2188 Q874.0156,1008.0625 875.1094,1007.4531 Q876.2031,1006.8281 877.4375,1006.8281 Q878.1719,1006.8281 878.8125,1007 Q879.4688,1007.1563 880.0156,1007.5156 Z " fill="#000000"/><text fill="#000000" font-family="sans-serif" font-size="14" lengthAdjust="spacing" textLength="40" x="897.75" y="1016.4941">Status</text><line style="stroke:#181818;stroke-width:0.5;" x1="809.5" x2="993.5" y1="1027.6406" y2="1027.6406"/><rect fill="none" height="6" style="stroke:#C82930;stroke-width:1.0;" width="6" x="816.5" y="1037.9609"/><text fill="#000000" font-family="sans-serif" font-size="14" lengthAdjust="spacing" textLength="160" x="828.5" y="1044.3145">StatusDescription : String</text><line style="stroke:#181818;stroke-width:0.5;" x1="809.5" x2="993.5" y1="1051.2813" y2="1051.2813"/></g><!--class Candidate--><g id="elem_Candidate"><rect codeLine="59" fill="#F1F1F1" height="94.9219" id="Candidate" rx="2.5" ry="2.5" style="stroke:#181818;stroke-width:0.5;" width="217" x="556" y="769.1406"/><ellipse cx="627.75" cy="785.1406" fill="#ADD1B2" rx="11" ry="11" style="stroke:#181818;stroke-width:1.0;"/><path d="M630.5156,781.0156 Q630.6719,780.7969 630.8594,780.6875 Q631.0469,780.5781 631.2656,780.5781 Q631.6406,780.5781 631.875,780.8438 Q632.1094,781.0938 632.1094,781.7031 L632.1094,783.1563 Q632.1094,783.7656 631.875,784.0313 Q631.6406,784.2969 631.2656,784.2969 Q630.9219,784.2969 630.7188,784.0938 Q630.5156,783.9063 630.4063,783.3906 Q630.3594,783.0313 630.1719,782.8438 Q629.8438,782.4688 629.2344,782.25 Q628.625,782.0313 628,782.0313 Q627.2344,782.0313 626.5938,782.3594 Q625.9688,782.6875 625.4688,783.4375 Q624.9844,784.1875 624.9844,785.2188 L624.9844,786.3125 Q624.9844,787.5469 625.875,788.375 Q626.7656,789.1875 628.3594,789.1875 Q629.2969,789.1875 629.9531,788.9375 Q630.3438,788.7813 630.7656,788.3438 Q631.0313,788.0781 631.1719,788 Q631.3281,787.9219 631.5313,787.9219 Q631.8594,787.9219 632.1094,788.1875 Q632.375,788.4375 632.375,788.7813 Q632.375,789.125 632.0313,789.5313 Q631.5313,790.1094 630.7344,790.4375 Q629.6563,790.8906 628.3594,790.8906 Q626.8438,790.8906 625.6406,790.2656 Q624.6563,789.7656 623.9688,788.7031 Q623.2813,787.625 623.2813,786.3438 L623.2813,785.1875 Q623.2813,783.8594 623.8906,782.7188 Q624.5156,781.5625 625.6094,780.9531 Q626.7031,780.3281 627.9375,780.3281 Q628.6719,780.3281 629.3125,780.5 Q629.9688,780.6563 630.5156,781.0156 Z " fill="#000000"/><text fill="#000000" font-family="sans-serif" font-size="14" lengthAdjust="spacing" textLength="65" x="648.25" y="789.9941">Candidate</text><line style="stroke:#181818;stroke-width:0.5;" x1="557" x2="772" y1="801.1406" y2="801.1406"/><rect fill="none" height="6" style="stroke:#C82930;stroke-width:1.0;" width="6" x="564" y="811.4609"/><text fill="#000000" font-family="sans-serif" font-size="14" lengthAdjust="spacing" textLength="160" x="576" y="817.8145">systemUser : SystemUser</text><rect fill="none" height="6" style="stroke:#C82930;stroke-width:1.0;" width="6" x="564" y="827.1016"/><text fill="#000000" font-family="sans-serif" font-size="14" lengthAdjust="spacing" textLength="191" x="576" y="833.4551">phoneNumber : PhoneNumber</text><rect fill="none" height="6" style="stroke:#C82930;stroke-width:1.0;" width="6" x="564" y="842.7422"/><text fill="#000000" font-family="sans-serif" font-size="14" lengthAdjust="spacing" textLength="109" x="576" y="849.0957">id : EmailAddress</text><line style="stroke:#181818;stroke-width:0.5;" x1="557" x2="772" y1="856.0625" y2="856.0625"/></g><!--class JobOpening--><g id="elem_JobOpening"><rect codeLine="65" fill="#F1F1F1" height="235.6875" id="JobOpening" rx="2.5" ry="2.5" style="stroke:#181818;stroke-width:0.5;" width="295" x="226" y="698.6406"/><ellipse cx="331.25" cy="714.6406" fill="#ADD1B2" rx="11" ry="11" style="stroke:#181818;stroke-width:1.0;"/><path d="M334.0156,710.5156 Q334.1719,710.2969 334.3594,710.1875 Q334.5469,710.0781 334.7656,710.0781 Q335.1406,710.0781 335.375,710.3438 Q335.6094,710.5938 335.6094,711.2031 L335.6094,712.6563 Q335.6094,713.2656 335.375,713.5313 Q335.1406,713.7969 334.7656,713.7969 Q334.4219,713.7969 334.2188,713.5938 Q334.0156,713.4063 333.9063,712.8906 Q333.8594,712.5313 333.6719,712.3438 Q333.3438,711.9688 332.7344,711.75 Q332.125,711.5313 331.5,711.5313 Q330.7344,711.5313 330.0938,711.8594 Q329.4688,712.1875 328.9688,712.9375 Q328.4844,713.6875 328.4844,714.7188 L328.4844,715.8125 Q328.4844,717.0469 329.375,717.875 Q330.2656,718.6875 331.8594,718.6875 Q332.7969,718.6875 333.4531,718.4375 Q333.8438,718.2813 334.2656,717.8438 Q334.5313,717.5781 334.6719,717.5 Q334.8281,717.4219 335.0313,717.4219 Q335.3594,717.4219 335.6094,717.6875 Q335.875,717.9375 335.875,718.2813 Q335.875,718.625 335.5313,719.0313 Q335.0313,719.6094 334.2344,719.9375 Q333.1563,720.3906 331.8594,720.3906 Q330.3438,720.3906 329.1406,719.7656 Q328.1563,719.2656 327.4688,718.2031 Q326.7813,717.125 326.7813,715.8438 L326.7813,714.6875 Q326.7813,713.3594 327.3906,712.2188 Q328.0156,711.0625 329.1094,710.4531 Q330.2031,709.8281 331.4375,709.8281 Q332.1719,709.8281 332.8125,710 Q333.4688,710.1563 334.0156,710.5156 Z " fill="#000000"/><text fill="#000000" font-family="sans-serif" font-size="14" lengthAdjust="spacing" textLength="76" x="351.75" y="719.4941">JobOpening</text><line style="stroke:#181818;stroke-width:0.5;" x1="227" x2="520" y1="730.6406" y2="730.6406"/><rect fill="none" height="6" style="stroke:#C82930;stroke-width:1.0;" width="6" x="234" y="740.9609"/><text fill="#000000" font-family="sans-serif" font-size="14" lengthAdjust="spacing" textLength="185" x="246" y="747.3145">jobReference : JobReference</text><rect fill="none" height="6" style="stroke:#C82930;stroke-width:1.0;" width="6" x="234" y="756.6016"/><text fill="#000000" font-family="sans-serif" font-size="14" lengthAdjust="spacing" textLength="269" x="246" y="762.9551">numberOfVacancies : NumberOfVacancies</text><rect fill="none" height="6" style="stroke:#C82930;stroke-width:1.0;" width="6" x="234" y="772.2422"/><text fill="#000000" font-family="sans-serif" font-size="14" lengthAdjust="spacing" textLength="163" x="246" y="778.5957">jobFunction : JobFunction</text><rect fill="none" height="6" style="stroke:#C82930;stroke-width:1.0;" width="6" x="234" y="787.8828"/><text fill="#000000" font-family="sans-serif" font-size="14" lengthAdjust="spacing" textLength="181" x="246" y="794.2363">contractType : ContractType</text><rect fill="none" height="6" style="stroke:#C82930;stroke-width:1.0;" width="6" x="234" y="803.5234"/><text fill="#000000" font-family="sans-serif" font-size="14" lengthAdjust="spacing" textLength="82" x="246" y="809.877">mode : Mode</text><rect fill="none" height="6" style="stroke:#C82930;stroke-width:1.0;" width="6" x="234" y="819.1641"/><text fill="#000000" font-family="sans-serif" font-size="14" lengthAdjust="spacing" textLength="115" x="246" y="825.5176">address : Address</text><rect fill="none" height="6" style="stroke:#C82930;stroke-width:1.0;" width="6" x="234" y="834.8047"/><text fill="#000000" font-family="sans-serif" font-size="14" lengthAdjust="spacing" textLength="166" x="246" y="841.1582">companyName : Customer</text><rect fill="none" height="6" style="stroke:#C82930;stroke-width:1.0;" width="6" x="234" y="850.4453"/><text fill="#000000" font-family="sans-serif" font-size="14" lengthAdjust="spacing" textLength="148" x="246" y="856.7988">description :Description</text><rect fill="none" height="6" style="stroke:#C82930;stroke-width:1.0;" width="6" x="234" y="866.0859"/><text fill="#000000" font-family="sans-serif" font-size="14" lengthAdjust="spacing" textLength="171" x="246" y="872.4395">registrationDate : Calendar</text><rect fill="none" height="6" style="stroke:#C82930;stroke-width:1.0;" width="6" x="234" y="881.7266"/><text fill="#000000" font-family="sans-serif" font-size="14" lengthAdjust="spacing" textLength="261" x="246" y="888.0801">recruitmentProcess : RecruitmentProcess</text><rect fill="none" height="6" style="stroke:#C82930;stroke-width:1.0;" width="6" x="234" y="897.3672"/><text fill="#000000" font-family="sans-serif" font-size="14" lengthAdjust="spacing" textLength="173" x="246" y="903.7207">requirementsPlugin : Plugin</text><rect fill="none" height="6" style="stroke:#C82930;stroke-width:1.0;" width="6" x="234" y="913.0078"/><text fill="#000000" font-family="sans-serif" font-size="14" lengthAdjust="spacing" textLength="145" x="246" y="919.3613">interviewPlugin : Plugin</text><line style="stroke:#181818;stroke-width:0.5;" x1="227" x2="520" y1="926.3281" y2="926.3281"/></g><!--link UI to Controller--><g id="link_UI_Controller"><path codeLine="85" d="M481.5,123.0306 C481.5,140.9106 481.5,156.7006 481.5,177.3106 " fill="none" id="UI-to-Controller" style="stroke:#181818;stroke-width:1.0;stroke-dasharray:7.0,7.0;"/><polygon fill="#181818" points="481.5,183.3106,485.5,174.3106,481.5,178.3106,477.5,174.3106,481.5,183.3106" style="stroke:#181818;stroke-width:1.0;"/></g><!--link Controller to PersistenceContext--><g id="link_Controller_PersistenceContext"><path codeLine="86" d="M419.12,325.7706 C393.39,354.7006 368.8575,382.2774 348.4275,405.2474 " fill="none" id="Controller-to-PersistenceContext" style="stroke:#181818;stroke-width:1.0;stroke-dasharray:7.0,7.0;"/><polygon fill="#181818" points="344.44,409.7306,353.4101,405.6641,347.7629,405.9946,347.4324,400.3474,344.44,409.7306" style="stroke:#181818;stroke-width:1.0;"/></g><!--link PersistenceContext to Factory--><g id="link_PersistenceContext_Factory"><path codeLine="87" d="M393.6,442.1406 C452.71,442.1406 505.83,442.1406 564.94,442.1406 " fill="none" id="PersistenceContext-to-Factory" style="stroke:#181818;stroke-width:1.0;"/><polygon fill="#181818" points="570.94,442.1406,561.94,438.1406,565.94,442.1406,561.94,446.1406,570.94,442.1406" style="stroke:#181818;stroke-width:1.0;"/></g><!--link Factory to JobOpeningRepository--><g id="link_Factory_JobOpeningRepository"><path codeLine="89" d="M607.8,497.6906 C571.84,518.1906 537.4126,537.8192 506.4326,555.4792 " fill="none" id="Factory-to-JobOpeningRepository" style="stroke:#181818;stroke-width:1.0;stroke-dasharray:7.0,7.0;"/><polygon fill="#181818" points="501.22,558.4506,511.0198,557.4686,505.5638,555.9745,507.0579,550.5185,501.22,558.4506" style="stroke:#181818;stroke-width:1.0;"/></g><!--link Factory to JobApplicationRepository--><g id="link_Factory_JobApplicationRepository"><path codeLine="90" d="M772.76,497.6906 C798.79,518.1906 822.7558,537.079 845.1858,554.739 " fill="none" id="Factory-to-JobApplicationRepository" style="stroke:#181818;stroke-width:1.0;stroke-dasharray:7.0,7.0;"/><polygon fill="#181818" points="849.9,558.4506,845.3032,549.7403,845.9715,555.3576,840.3543,556.0259,849.9,558.4506" style="stroke:#181818;stroke-width:1.0;"/></g><!--link Factory to CandidateRepository--><g id="link_Factory_CandidateRepository"><path codeLine="91" d="M688.98,497.6906 C683.52,518.1906 679.0562,534.9933 674.3462,552.6533 " fill="none" id="Factory-to-CandidateRepository" style="stroke:#181818;stroke-width:1.0;stroke-dasharray:7.0,7.0;"/><polygon fill="#181818" points="672.8,558.4506,678.9842,550.7854,674.0885,553.6195,671.2544,548.7238,672.8,558.4506" style="stroke:#181818;stroke-width:1.0;"/></g><!--link JobOpeningRepository to JobOpening--><g id="link_JobOpeningRepository_JobOpening"><path codeLine="93" d="M436.35,622.7906 C429.79,642.9206 422.6482,664.8156 413.5182,692.8456 " fill="none" id="JobOpeningRepository-to-JobOpening" style="stroke:#181818;stroke-width:1.0;"/><polygon fill="#181818" points="411.66,698.5506,418.2507,691.232,413.2085,693.7965,410.644,688.7543,411.66,698.5506" style="stroke:#181818;stroke-width:1.0;"/><text fill="#000000" font-family="sans-serif" font-size="13" lengthAdjust="spacing" textLength="36" x="426.5" y="665.4092">stores</text><text fill="#000000" font-family="sans-serif" font-size="13" lengthAdjust="spacing" textLength="5" x="409.0559" y="687.9428">*</text></g><!--link JobApplicationRepository to JobApplication--><g id="link_JobApplicationRepository_JobApplication"><path codeLine="94" d="M891.17,622.7906 C893.08,658.4906 895.9284,711.6692 898.2584,755.0792 " fill="none" id="JobApplicationRepository-to-JobApplication" style="stroke:#181818;stroke-width:1.0;"/><polygon fill="#181818" points="898.58,761.0706,902.0919,751.8692,898.312,756.0778,894.1034,752.2979,898.58,761.0706" style="stroke:#181818;stroke-width:1.0;"/><text fill="#000000" font-family="sans-serif" font-size="13" lengthAdjust="spacing" textLength="36" x="893.5" y="665.4092">stores</text><text fill="#000000" font-family="sans-serif" font-size="13" lengthAdjust="spacing" textLength="5" x="892.8517" y="750.4959">*</text></g><!--link CandidateRepository to Candidate--><g id="link_CandidateRepository_Candidate"><path codeLine="95" d="M664.5,622.7906 C664.5,660.6506 664.5,718.9206 664.5,762.7806 " fill="none" id="CandidateRepository-to-Candidate" style="stroke:#181818;stroke-width:1.0;"/><polygon fill="#181818" points="664.5,768.7806,668.5,759.7806,664.5,763.7806,660.5,759.7806,664.5,768.7806" style="stroke:#181818;stroke-width:1.0;"/><text fill="#000000" font-family="sans-serif" font-size="13" lengthAdjust="spacing" textLength="36" x="665.5" y="665.4092">stores</text><text fill="#000000" font-family="sans-serif" font-size="13" lengthAdjust="spacing" textLength="5" x="659.1328" y="758.5358">*</text></g><!--link Controller to JobOpeningRepository--><g id="link_Controller_JobOpeningRepository"><path codeLine="97" d="M474.16,325.6606 C466.65,397.3906 455.925,499.6933 450.395,552.4933 " fill="none" id="Controller-to-JobOpeningRepository" style="stroke:#181818;stroke-width:1.0;stroke-dasharray:7.0,7.0;"/><polygon fill="#181818" points="449.77,558.4606,454.6857,549.9262,450.2908,553.4878,446.7292,549.0929,449.77,558.4606" style="stroke:#181818;stroke-width:1.0;"/></g><!--link Controller to JobApplicationRepository--><g id="link_Controller_JobApplicationRepository"><path codeLine="98" d="M778.39,325.7006 C806.68,341.9506 832.56,361.9806 853.5,386.6406 C894.85,435.3506 896.4609,508.8354 893.3909,552.4954 " fill="none" id="Controller-to-JobApplicationRepository" style="stroke:#181818;stroke-width:1.0;stroke-dasharray:7.0,7.0;"/><polygon fill="#181818" points="892.97,558.4806,897.5914,549.7834,893.3207,553.4929,889.6111,549.2222,892.97,558.4806" style="stroke:#181818;stroke-width:1.0;"/></g><!--link Controller to CandidateRepository--><g id="link_Controller_CandidateRepository"><path codeLine="99" d="M491.15,325.7106 C500.72,376.6906 519.12,445.6206 553.5,497.6406 C569.37,521.6506 588.5395,539.1153 610.1795,554.9653 " fill="none" id="Controller-to-CandidateRepository" style="stroke:#181818;stroke-width:1.0;stroke-dasharray:7.0,7.0;"/><polygon fill="#181818" points="615.02,558.5106,610.1228,549.9656,610.9863,555.5562,605.3957,556.4196,615.02,558.5106" style="stroke:#181818;stroke-width:1.0;"/></g><!--link JobApplication to Status--><g id="link_JobApplication_Status"><path codeLine="101" d="M901.5,872.2806 C901.5,911.5906 901.5,957.1906 901.5,989.6406 " fill="none" id="JobApplication-to-Status" style="stroke:#181818;stroke-width:1.0;"/><polygon fill="#181818" points="901.5,995.6406,905.5,986.6406,901.5,990.6406,897.5,986.6406,901.5,995.6406" style="stroke:#181818;stroke-width:1.0;"/></g><!--SRC=[TLLBRnen4BxxLrYSI1kYACSqGa99aOZIW9BIkraFn97Ntjec3rNvxnq_TcsMXSlQCz_CVFFmu8IJG4VhPtfrUNb5wSpIPGE6EMtEwOA-C-MeqzJ0JbW7XZ95MTD8KJ4djA9wIncjcEA2CmTqgn51N_M6wWQKK3l4SohgHXj7cPHqAoHOz5Q1U0C-8eHKabbBHqyfmBtUpBB_zM94cQNhnJz2yVVTWeJApRNaOCRnOnzP3MVqcZuxWm5B7FfQHXfZYSxprNfylfAlbiOA_NaQge9RhHnyk1ZOGAEjm9e8iEEpZ3z1sziQBIMOG3zVKnexI3cWCsJoW2vk8lrf1lXA-Tp6sm0T1XfWt2C3M-N6lhw8F0PkXU8pAOiQXD0BvCus4cwoelCybDcuw_NFcWbvddi_5yOwpxUGFR1Mb6Mh5wtWSLzl00VijOjw7aVZZZcMcbD4ZOmOvskBVOSOkS46l6l3lMKNMdOHiU1WaGjMo05VgZ0YdvXHxPqGtqE1DJDRLe7lOshmvvnL_XCQbywnQwzbwNuSYNuRfYpYaIwJQNYe-pXhWKKwfVs1-AGF95kmpRtAj0SvVlMiYc03bds61zQtRV_wXbrZMvluCWwZHUYas1JNsMFIPUw7ZpDg_NIic7knnuzWGgrZRc_33l27KAv88mfe6pzUxy1MHZHXWNLxmzkqLXsrrivsWtCuHL7Rv956TJ7WIIyuYiDxcN5kmDg3ChL9frXOXYVOWl4xA1QYkqQ02gwNspyCgrdXGaBKOr_M-PhlLPKIlS-tgAxyNi9n-_tPX8OKrmYeDVUAN_Y90XRvewpD93cg6wO-_SFpVlRMwRhDdfV5BYeVjN7Bc30aT-rSI52ScHPGcRrmDIwtbT5L3Fvq96p1V_V2W9VRbTplX4yx7Y8WpFERWFU-DhMVh1Vquc9QR6oIZq5p_0z1ZaMJQTeSXAH3i1rwjtt0u1Cz00syH4A6NDF9P4f7tqRba5rZQx1lv5IaqgO0T7O3mJkJs_ou4xfVlC4276E6Qz33dIf3OUo9fOr0o7y0]--></g></svg>