<?xml version="1.0" encoding="us-ascii" standalone="no"?><svg xmlns="http://www.w3.org/2000/svg" xmlns:xlink="http://www.w3.org/1999/xlink" contentStyleType="text/css" height="525.7px" preserveAspectRatio="none" style="width:1412px;height:525px;background:#FFFFFF;" version="1.1" viewBox="0 0 1412 525" width="1412.6px" zoomAndPan="magnify"><defs/><g><!--cluster Candidate Aggregate--><g id="cluster_Candidate Aggregate"><path d="M5.95,184.8096 L110.25,184.8096 A2.625,2.625 0 0 1 112,186.5596 L116.9,202.0443 L259.35,202.0443 A1.75,1.75 0 0 1 261.1,203.7943 L261.1,392.3596 A1.75,1.75 0 0 1 259.35,394.1096 L5.95,394.1096 A1.75,1.75 0 0 1 4.2,392.3596 L4.2,186.5596 A1.75,1.75 0 0 1 5.95,184.8096 " fill="none" style="stroke:#000000;stroke-width:1.0499999999999998;"/><line style="stroke:#000000;stroke-width:1.0499999999999998;" x1="4.2" x2="116.9" y1="202.0443" y2="202.0443"/><text fill="#000000" font-family="sans-serif" font-size="9.8" font-weight="bold" lengthAdjust="spacing" textLength="103.6" x="7" y="196.7848">Candidate Aggregate</text></g><!--cluster JobApplication Aggregate--><g id="cluster_JobApplication Aggregate"><path d="M365.75,184.8096 L493.15,184.8096 A2.625,2.625 0 0 1 494.9,186.5596 L499.8,202.0443 L694.05,202.0443 A1.75,1.75 0 0 1 695.8,203.7943 L695.8,391.3096 A1.75,1.75 0 0 1 694.05,393.0596 L365.75,393.0596 A1.75,1.75 0 0 1 364,391.3096 L364,186.5596 A1.75,1.75 0 0 1 365.75,184.8096 " fill="none" style="stroke:#000000;stroke-width:1.0499999999999998;"/><line style="stroke:#000000;stroke-width:1.0499999999999998;" x1="364" x2="499.8" y1="202.0443" y2="202.0443"/><text fill="#000000" font-family="sans-serif" font-size="9.8" font-weight="bold" lengthAdjust="spacing" textLength="126.7" x="366.8" y="196.7848">JobApplication Aggregate</text></g><!--cluster Job Opening Aggregate--><g id="cluster_Job Opening Aggregate"><path d="M714.35,4.2096 L831.95,4.2096 A2.625,2.625 0 0 1 833.7,5.9596 L838.6,21.4443 L1405.95,21.4443 A1.75,1.75 0 0 1 1407.7,23.1943 L1407.7,519.0596 A1.75,1.75 0 0 1 1405.95,520.8096 L714.35,520.8096 A1.75,1.75 0 0 1 712.6,519.0596 L712.6,5.9596 A1.75,1.75 0 0 1 714.35,4.2096 " fill="none" style="stroke:#000000;stroke-width:1.0499999999999998;"/><line style="stroke:#000000;stroke-width:1.0499999999999998;" x1="712.6" x2="838.6" y1="21.4443" y2="21.4443"/><text fill="#000000" font-family="sans-serif" font-size="9.8" font-weight="bold" lengthAdjust="spacing" textLength="116.9" x="715.4" y="16.1848">Job Opening Aggregate</text></g><!--class Candidate--><g id="elem_Candidate"><rect codeLine="4" fill="#F1F1F1" height="57.3043" id="Candidate" rx="1.75" ry="1.75" style="stroke:#181818;stroke-width:0.3499999999999999;" width="67.9" x="181.65" y="210.7096"/><ellipse cx="192.15" cy="233.7617" fill="#ADD1B2" rx="7.7" ry="7.7" style="stroke:#181818;stroke-width:0.6999999999999998;"/><path d="M194.0859,230.8742 Q194.1953,230.7211 194.3266,230.6445 Q194.4578,230.568 194.6109,230.568 Q194.8734,230.568 195.0375,230.7539 Q195.2016,230.9289 195.2016,231.3555 L195.2016,232.3727 Q195.2016,232.7992 195.0375,232.9852 Q194.8734,233.1711 194.6109,233.1711 Q194.3703,233.1711 194.2281,233.0289 Q194.0859,232.8977 194.0094,232.5367 Q193.9766,232.2852 193.8453,232.1539 Q193.6156,231.8914 193.1891,231.7383 Q192.7625,231.5852 192.325,231.5852 Q191.7891,231.5852 191.3406,231.8148 Q190.9031,232.0445 190.5531,232.5695 Q190.2141,233.0945 190.2141,233.8164 L190.2141,234.582 Q190.2141,235.4461 190.8375,236.0258 Q191.4609,236.5945 192.5766,236.5945 Q193.2328,236.5945 193.6922,236.4195 Q193.9656,236.3102 194.2609,236.0039 Q194.4469,235.818 194.5453,235.7633 Q194.6547,235.7086 194.7969,235.7086 Q195.0266,235.7086 195.2016,235.8945 Q195.3875,236.0695 195.3875,236.3102 Q195.3875,236.5508 195.1469,236.8352 Q194.7969,237.2398 194.2391,237.4695 Q193.4844,237.7867 192.5766,237.7867 Q191.5156,237.7867 190.6734,237.3492 Q189.9844,236.9992 189.5031,236.2555 Q189.0219,235.5008 189.0219,234.6039 L189.0219,233.7945 Q189.0219,232.8648 189.4484,232.0664 Q189.8859,231.257 190.6516,230.8305 Q191.4172,230.393 192.2812,230.393 Q192.7953,230.393 193.2437,230.5133 Q193.7031,230.6227 194.0859,230.8742 Z " fill="#000000"/><text fill="#000000" font-family="sans-serif" font-size="9.8" lengthAdjust="spacing" textLength="28.7" x="210.35" y="224.7848">&#171;root&#187;</text><text fill="#000000" font-family="sans-serif" font-size="9.8" lengthAdjust="spacing" textLength="35" x="207.2" y="237.8195">&#171;entity&#187;</text><text fill="#000000" font-family="sans-serif" font-size="9.8" lengthAdjust="spacing" textLength="45.5" x="201.95" y="250.8543">Candidate</text><line style="stroke:#181818;stroke-width:0.3499999999999999;" x1="182.35" x2="248.85" y1="256.8139" y2="256.8139"/><line style="stroke:#181818;stroke-width:0.3499999999999999;" x1="182.35" x2="248.85" y1="262.4139" y2="262.4139"/></g><g id="elem_EmailCandidate"><path d="M127.05,343.7096 L127.05,350.3596 L102.291,353.1596 L127.05,355.9596 L127.05,362.8133 A0,0 0 0 0 127.05,362.8133 L175.35,362.8133 A0,0 0 0 0 175.35,362.8133 L175.35,350.7096 L168.35,343.7096 L127.05,343.7096 A0,0 0 0 0 127.05,343.7096 " fill="#FEFFDD" style="stroke:#181818;stroke-width:0.3499999999999999;"/><path d="M168.35,343.7096 L168.35,350.7096 L175.35,350.7096 L168.35,343.7096 " fill="#FEFFDD" style="stroke:#181818;stroke-width:0.3499999999999999;"/><text fill="#000000" font-family="sans-serif" font-size="9.1" lengthAdjust="spacing" textLength="33.6" x="131.25" y="357.0294">Identifire</text></g><!--class Name--><g id="elem_Name"><rect codeLine="12" fill="#F1F1F1" height="59.6695" id="Name" rx="1.75" ry="1.75" style="stroke:#181818;stroke-width:0.3499999999999999;" width="49.7" x="199.85" y="323.4096"/><ellipse cx="211.295" cy="334.6096" fill="#ADD1B2" rx="7.7" ry="7.7" style="stroke:#181818;stroke-width:0.6999999999999998;"/><path d="M213.2309,331.7221 Q213.3403,331.5689 213.4716,331.4924 Q213.6028,331.4158 213.7559,331.4158 Q214.0184,331.4158 214.1825,331.6018 Q214.3466,331.7768 214.3466,332.2033 L214.3466,333.2205 Q214.3466,333.6471 214.1825,333.833 Q214.0184,334.0189 213.7559,334.0189 Q213.5153,334.0189 213.3731,333.8768 Q213.2309,333.7455 213.1544,333.3846 Q213.1216,333.133 212.9903,333.0018 Q212.7606,332.7393 212.3341,332.5861 Q211.9075,332.433 211.47,332.433 Q210.9341,332.433 210.4856,332.6627 Q210.0481,332.8924 209.6981,333.4174 Q209.3591,333.9424 209.3591,334.6643 L209.3591,335.4299 Q209.3591,336.2939 209.9825,336.8736 Q210.6059,337.4424 211.7216,337.4424 Q212.3778,337.4424 212.8372,337.2674 Q213.1106,337.158 213.4059,336.8518 Q213.5919,336.6658 213.6903,336.6111 Q213.7997,336.5564 213.9419,336.5564 Q214.1716,336.5564 214.3466,336.7424 Q214.5325,336.9174 214.5325,337.158 Q214.5325,337.3986 214.2919,337.683 Q213.9419,338.0877 213.3841,338.3174 Q212.6294,338.6346 211.7216,338.6346 Q210.6606,338.6346 209.8184,338.1971 Q209.1294,337.8471 208.6481,337.1033 Q208.1669,336.3486 208.1669,335.4518 L208.1669,334.6424 Q208.1669,333.7127 208.5934,332.9143 Q209.0309,332.1049 209.7966,331.6783 Q210.5622,331.2408 211.4262,331.2408 Q211.9403,331.2408 212.3887,331.3611 Q212.8481,331.4705 213.2309,331.7221 Z " fill="#000000"/><text fill="#000000" font-family="sans-serif" font-size="9.8" lengthAdjust="spacing" textLength="25.2" x="221.305" y="338.6674">Name</text><line style="stroke:#181818;stroke-width:0.3499999999999999;" x1="200.55" x2="248.85" y1="345.8096" y2="345.8096"/><text fill="#000000" font-family="sans-serif" font-size="9.8" lengthAdjust="spacing" textLength="41.3" x="204.05" y="359.1848">firstName</text><text fill="#000000" font-family="sans-serif" font-size="9.8" lengthAdjust="spacing" textLength="40.6" x="204.05" y="372.2195">lastName</text><line style="stroke:#181818;stroke-width:0.3499999999999999;" x1="200.55" x2="248.85" y1="377.4791" y2="377.4791"/></g><!--class PhoneNumber--><g id="elem_PhoneNumber"><rect codeLine="17" fill="#F1F1F1" height="57.3043" id="PhoneNumber" rx="1.75" ry="1.75" style="stroke:#181818;stroke-width:0.3499999999999999;" width="86.8" x="54.6" y="210.7096"/><ellipse cx="65.1" cy="227.2443" fill="#ADD1B2" rx="7.7" ry="7.7" style="stroke:#181818;stroke-width:0.6999999999999998;"/><path d="M67.0359,224.3568 Q67.1453,224.2037 67.2766,224.1271 Q67.4078,224.0506 67.5609,224.0506 Q67.8234,224.0506 67.9875,224.2365 Q68.1516,224.4115 68.1516,224.8381 L68.1516,225.8553 Q68.1516,226.2818 67.9875,226.4678 Q67.8234,226.6537 67.5609,226.6537 Q67.3203,226.6537 67.1781,226.5115 Q67.0359,226.3803 66.9594,226.0193 Q66.9266,225.7678 66.7953,225.6365 Q66.5656,225.374 66.1391,225.2209 Q65.7125,225.0678 65.275,225.0678 Q64.7391,225.0678 64.2906,225.2975 Q63.8531,225.5271 63.5031,226.0521 Q63.1641,226.5771 63.1641,227.299 L63.1641,228.0646 Q63.1641,228.9287 63.7875,229.5084 Q64.4109,230.0771 65.5266,230.0771 Q66.1828,230.0771 66.6422,229.9021 Q66.9156,229.7928 67.2109,229.4865 Q67.3969,229.3006 67.4953,229.2459 Q67.6047,229.1912 67.7469,229.1912 Q67.9766,229.1912 68.1516,229.3771 Q68.3375,229.5521 68.3375,229.7928 Q68.3375,230.0334 68.0969,230.3178 Q67.7469,230.7225 67.1891,230.9521 Q66.4344,231.2693 65.5266,231.2693 Q64.4656,231.2693 63.6234,230.8318 Q62.9344,230.4818 62.4531,229.7381 Q61.9719,228.9834 61.9719,228.0865 L61.9719,227.2771 Q61.9719,226.3475 62.3984,225.549 Q62.8359,224.7396 63.6016,224.3131 Q64.3672,223.8756 65.2312,223.8756 Q65.7453,223.8756 66.1937,223.9959 Q66.6531,224.1053 67.0359,224.3568 Z " fill="#000000"/><text fill="#000000" font-family="sans-serif" font-size="9.8" lengthAdjust="spacing" textLength="64.4" x="74.9" y="224.7848">&#171;value object&#187;</text><text fill="#000000" font-family="sans-serif" font-size="9.8" lengthAdjust="spacing" textLength="63" x="75.6" y="237.8195">PhoneNumber</text><line style="stroke:#181818;stroke-width:0.3499999999999999;" x1="55.3" x2="140.7" y1="243.7791" y2="243.7791"/><text fill="#000000" font-family="sans-serif" font-size="9.8" lengthAdjust="spacing" textLength="62.3" x="58.8" y="257.1543">phoneNumber</text><line style="stroke:#181818;stroke-width:0.3499999999999999;" x1="55.3" x2="140.7" y1="262.4139" y2="262.4139"/></g><!--class EMail--><g id="elem_EMail"><rect codeLine="21" fill="#F1F1F1" height="57.3043" id="EMail" rx="1.75" ry="1.75" style="stroke:#181818;stroke-width:0.3499999999999999;" width="86.8" x="15.4" y="324.4596"/><ellipse cx="25.9" cy="340.9943" fill="#ADD1B2" rx="7.7" ry="7.7" style="stroke:#181818;stroke-width:0.6999999999999998;"/><path d="M27.8359,338.1068 Q27.9453,337.9537 28.0766,337.8771 Q28.2078,337.8006 28.3609,337.8006 Q28.6234,337.8006 28.7875,337.9865 Q28.9516,338.1615 28.9516,338.5881 L28.9516,339.6053 Q28.9516,340.0318 28.7875,340.2178 Q28.6234,340.4037 28.3609,340.4037 Q28.1203,340.4037 27.9781,340.2615 Q27.8359,340.1303 27.7594,339.7693 Q27.7266,339.5178 27.5953,339.3865 Q27.3656,339.124 26.9391,338.9709 Q26.5125,338.8178 26.075,338.8178 Q25.5391,338.8178 25.0906,339.0475 Q24.6531,339.2771 24.3031,339.8021 Q23.9641,340.3271 23.9641,341.049 L23.9641,341.8146 Q23.9641,342.6787 24.5875,343.2584 Q25.2109,343.8271 26.3266,343.8271 Q26.9828,343.8271 27.4422,343.6521 Q27.7156,343.5428 28.0109,343.2365 Q28.1969,343.0506 28.2953,342.9959 Q28.4047,342.9412 28.5469,342.9412 Q28.7766,342.9412 28.9516,343.1271 Q29.1375,343.3021 29.1375,343.5428 Q29.1375,343.7834 28.8969,344.0678 Q28.5469,344.4725 27.9891,344.7021 Q27.2344,345.0193 26.3266,345.0193 Q25.2656,345.0193 24.4234,344.5818 Q23.7344,344.2318 23.2531,343.4881 Q22.7719,342.7334 22.7719,341.8365 L22.7719,341.0271 Q22.7719,340.0975 23.1984,339.299 Q23.6359,338.4896 24.4016,338.0631 Q25.1672,337.6256 26.0312,337.6256 Q26.5453,337.6256 26.9937,337.7459 Q27.4531,337.8553 27.8359,338.1068 Z " fill="#000000"/><text fill="#000000" font-family="sans-serif" font-size="9.8" lengthAdjust="spacing" textLength="64.4" x="35.7" y="338.5348">&#171;value object&#187;</text><text fill="#000000" font-family="sans-serif" font-size="9.8" lengthAdjust="spacing" textLength="27.3" x="54.25" y="351.5695">E-Mail</text><line style="stroke:#181818;stroke-width:0.3499999999999999;" x1="16.1" x2="101.5" y1="357.5291" y2="357.5291"/><text fill="#000000" font-family="sans-serif" font-size="9.8" lengthAdjust="spacing" textLength="23.1" x="19.6" y="370.9043">email</text><line style="stroke:#181818;stroke-width:0.3499999999999999;" x1="16.1" x2="101.5" y1="376.1639" y2="376.1639"/></g><!--class JobApplication--><g id="elem_JobApplication"><rect codeLine="28" fill="#F1F1F1" height="57.3043" id="JobApplication" rx="1.75" ry="1.75" style="stroke:#181818;stroke-width:0.3499999999999999;" width="86.1" x="486.85" y="210.7096"/><ellipse cx="497.35" cy="233.7617" fill="#ADD1B2" rx="7.7" ry="7.7" style="stroke:#181818;stroke-width:0.6999999999999998;"/><path d="M499.2859,230.8742 Q499.3953,230.7211 499.5266,230.6445 Q499.6578,230.568 499.8109,230.568 Q500.0734,230.568 500.2375,230.7539 Q500.4016,230.9289 500.4016,231.3555 L500.4016,232.3727 Q500.4016,232.7992 500.2375,232.9852 Q500.0734,233.1711 499.8109,233.1711 Q499.5703,233.1711 499.4281,233.0289 Q499.2859,232.8977 499.2094,232.5367 Q499.1766,232.2852 499.0453,232.1539 Q498.8156,231.8914 498.3891,231.7383 Q497.9625,231.5852 497.525,231.5852 Q496.9891,231.5852 496.5406,231.8148 Q496.1031,232.0445 495.7531,232.5695 Q495.4141,233.0945 495.4141,233.8164 L495.4141,234.582 Q495.4141,235.4461 496.0375,236.0258 Q496.6609,236.5945 497.7766,236.5945 Q498.4328,236.5945 498.8922,236.4195 Q499.1656,236.3102 499.4609,236.0039 Q499.6469,235.818 499.7453,235.7633 Q499.8547,235.7086 499.9969,235.7086 Q500.2266,235.7086 500.4016,235.8945 Q500.5875,236.0695 500.5875,236.3102 Q500.5875,236.5508 500.3469,236.8352 Q499.9969,237.2398 499.4391,237.4695 Q498.6844,237.7867 497.7766,237.7867 Q496.7156,237.7867 495.8734,237.3492 Q495.1844,236.9992 494.7031,236.2555 Q494.2219,235.5008 494.2219,234.6039 L494.2219,233.7945 Q494.2219,232.8648 494.6484,232.0664 Q495.0859,231.257 495.8516,230.8305 Q496.6172,230.393 497.4812,230.393 Q497.9953,230.393 498.4437,230.5133 Q498.9031,230.6227 499.2859,230.8742 Z " fill="#000000"/><text fill="#000000" font-family="sans-serif" font-size="9.8" lengthAdjust="spacing" textLength="28.7" x="524.65" y="224.7848">&#171;root&#187;</text><text fill="#000000" font-family="sans-serif" font-size="9.8" lengthAdjust="spacing" textLength="35" x="521.5" y="237.8195">&#171;entity&#187;</text><text fill="#000000" font-family="sans-serif" font-size="9.8" lengthAdjust="spacing" textLength="63.7" x="507.15" y="250.8543">JobApplication</text><line style="stroke:#181818;stroke-width:0.3499999999999999;" x1="487.55" x2="572.25" y1="256.8139" y2="256.8139"/><line style="stroke:#181818;stroke-width:0.3499999999999999;" x1="487.55" x2="572.25" y1="262.4139" y2="262.4139"/></g><!--class Status--><g id="elem_Status"><rect codeLine="31" fill="#F1F1F1" height="44.2695" id="Status" rx="1.75" ry="1.75" style="stroke:#181818;stroke-width:0.3499999999999999;" width="86.8" x="375.2" y="331.1096"/><ellipse cx="385.7" cy="347.6443" fill="#ADD1B2" rx="7.7" ry="7.7" style="stroke:#181818;stroke-width:0.6999999999999998;"/><path d="M387.6359,344.7568 Q387.7453,344.6037 387.8766,344.5271 Q388.0078,344.4506 388.1609,344.4506 Q388.4234,344.4506 388.5875,344.6365 Q388.7516,344.8115 388.7516,345.2381 L388.7516,346.2553 Q388.7516,346.6818 388.5875,346.8678 Q388.4234,347.0537 388.1609,347.0537 Q387.9203,347.0537 387.7781,346.9115 Q387.6359,346.7803 387.5594,346.4193 Q387.5266,346.1678 387.3953,346.0365 Q387.1656,345.774 386.7391,345.6209 Q386.3125,345.4678 385.875,345.4678 Q385.3391,345.4678 384.8906,345.6975 Q384.4531,345.9271 384.1031,346.4521 Q383.7641,346.9771 383.7641,347.699 L383.7641,348.4646 Q383.7641,349.3287 384.3875,349.9084 Q385.0109,350.4771 386.1266,350.4771 Q386.7828,350.4771 387.2422,350.3021 Q387.5156,350.1928 387.8109,349.8865 Q387.9969,349.7006 388.0953,349.6459 Q388.2047,349.5912 388.3469,349.5912 Q388.5766,349.5912 388.7516,349.7771 Q388.9375,349.9521 388.9375,350.1928 Q388.9375,350.4334 388.6969,350.7178 Q388.3469,351.1225 387.7891,351.3521 Q387.0344,351.6693 386.1266,351.6693 Q385.0656,351.6693 384.2234,351.2318 Q383.5344,350.8818 383.0531,350.1381 Q382.5719,349.3834 382.5719,348.4865 L382.5719,347.6771 Q382.5719,346.7475 382.9984,345.949 Q383.4359,345.1396 384.2016,344.7131 Q384.9672,344.2756 385.8312,344.2756 Q386.3453,344.2756 386.7937,344.3959 Q387.2531,344.5053 387.6359,344.7568 Z " fill="#000000"/><text fill="#000000" font-family="sans-serif" font-size="9.8" lengthAdjust="spacing" textLength="64.4" x="395.5" y="345.1848">&#171;value object&#187;</text><text fill="#000000" font-family="sans-serif" font-size="9.8" lengthAdjust="spacing" textLength="28" x="413.7" y="358.2195">Status</text><line style="stroke:#181818;stroke-width:0.3499999999999999;" x1="375.9" x2="461.3" y1="364.1791" y2="364.1791"/><line style="stroke:#181818;stroke-width:0.3499999999999999;" x1="375.9" x2="461.3" y1="369.7791" y2="369.7791"/></g><!--class Curriculum--><g id="elem_Curriculum"><rect codeLine="36" fill="#F1F1F1" height="44.2695" id="Curriculum" rx="1.75" ry="1.75" style="stroke:#181818;stroke-width:0.3499999999999999;" width="86.8" x="486.5" y="331.1096"/><ellipse cx="497" cy="347.6443" fill="#ADD1B2" rx="7.7" ry="7.7" style="stroke:#181818;stroke-width:0.6999999999999998;"/><path d="M498.9359,344.7568 Q499.0453,344.6037 499.1766,344.5271 Q499.3078,344.4506 499.4609,344.4506 Q499.7234,344.4506 499.8875,344.6365 Q500.0516,344.8115 500.0516,345.2381 L500.0516,346.2553 Q500.0516,346.6818 499.8875,346.8678 Q499.7234,347.0537 499.4609,347.0537 Q499.2203,347.0537 499.0781,346.9115 Q498.9359,346.7803 498.8594,346.4193 Q498.8266,346.1678 498.6953,346.0365 Q498.4656,345.774 498.0391,345.6209 Q497.6125,345.4678 497.175,345.4678 Q496.6391,345.4678 496.1906,345.6975 Q495.7531,345.9271 495.4031,346.4521 Q495.0641,346.9771 495.0641,347.699 L495.0641,348.4646 Q495.0641,349.3287 495.6875,349.9084 Q496.3109,350.4771 497.4266,350.4771 Q498.0828,350.4771 498.5422,350.3021 Q498.8156,350.1928 499.1109,349.8865 Q499.2969,349.7006 499.3953,349.6459 Q499.5047,349.5912 499.6469,349.5912 Q499.8766,349.5912 500.0516,349.7771 Q500.2375,349.9521 500.2375,350.1928 Q500.2375,350.4334 499.9969,350.7178 Q499.6469,351.1225 499.0891,351.3521 Q498.3344,351.6693 497.4266,351.6693 Q496.3656,351.6693 495.5234,351.2318 Q494.8344,350.8818 494.3531,350.1381 Q493.8719,349.3834 493.8719,348.4865 L493.8719,347.6771 Q493.8719,346.7475 494.2984,345.949 Q494.7359,345.1396 495.5016,344.7131 Q496.2672,344.2756 497.1312,344.2756 Q497.6453,344.2756 498.0937,344.3959 Q498.5531,344.5053 498.9359,344.7568 Z " fill="#000000"/><text fill="#000000" font-family="sans-serif" font-size="9.8" lengthAdjust="spacing" textLength="64.4" x="506.8" y="345.1848">&#171;value object&#187;</text><text fill="#000000" font-family="sans-serif" font-size="9.8" lengthAdjust="spacing" textLength="47.6" x="515.2" y="358.2195">Curriculum</text><line style="stroke:#181818;stroke-width:0.3499999999999999;" x1="487.2" x2="572.6" y1="364.1791" y2="364.1791"/><line style="stroke:#181818;stroke-width:0.3499999999999999;" x1="487.2" x2="572.6" y1="369.7791" y2="369.7791"/></g><!--class Grade2--><g id="elem_Grade2"><rect codeLine="40" fill="#F1F1F1" height="57.3043" id="Grade2" rx="1.75" ry="1.75" style="stroke:#181818;stroke-width:0.3499999999999999;" width="86.8" x="597.8" y="324.4596"/><ellipse cx="608.3" cy="347.5117" fill="#ADD1B2" rx="7.7" ry="7.7" style="stroke:#181818;stroke-width:0.6999999999999998;"/><path d="M610.2359,344.6242 Q610.3453,344.4711 610.4766,344.3945 Q610.6078,344.318 610.7609,344.318 Q611.0234,344.318 611.1875,344.5039 Q611.3516,344.6789 611.3516,345.1055 L611.3516,346.1227 Q611.3516,346.5492 611.1875,346.7352 Q611.0234,346.9211 610.7609,346.9211 Q610.5203,346.9211 610.3781,346.7789 Q610.2359,346.6477 610.1594,346.2867 Q610.1266,346.0352 609.9953,345.9039 Q609.7656,345.6414 609.3391,345.4883 Q608.9125,345.3352 608.475,345.3352 Q607.9391,345.3352 607.4906,345.5648 Q607.0531,345.7945 606.7031,346.3195 Q606.3641,346.8445 606.3641,347.5664 L606.3641,348.332 Q606.3641,349.1961 606.9875,349.7758 Q607.6109,350.3445 608.7266,350.3445 Q609.3828,350.3445 609.8422,350.1695 Q610.1156,350.0602 610.4109,349.7539 Q610.5969,349.568 610.6953,349.5133 Q610.8047,349.4586 610.9469,349.4586 Q611.1766,349.4586 611.3516,349.6445 Q611.5375,349.8195 611.5375,350.0602 Q611.5375,350.3008 611.2969,350.5852 Q610.9469,350.9898 610.3891,351.2195 Q609.6344,351.5367 608.7266,351.5367 Q607.6656,351.5367 606.8234,351.0992 Q606.1344,350.7492 605.6531,350.0055 Q605.1719,349.2508 605.1719,348.3539 L605.1719,347.5445 Q605.1719,346.6148 605.5984,345.8164 Q606.0359,345.007 606.8016,344.5805 Q607.5672,344.143 608.4312,344.143 Q608.9453,344.143 609.3937,344.2633 Q609.8531,344.3727 610.2359,344.6242 Z " fill="#000000"/><text fill="#000000" font-family="sans-serif" font-size="9.8" lengthAdjust="spacing" textLength="64.4" x="618.1" y="338.5348">&#171;value object&#187;</text><text fill="#000000" font-family="sans-serif" font-size="9.8" lengthAdjust="spacing" textLength="56" x="622.3" y="351.5695">&#171;calculated&#187;</text><text fill="#000000" font-family="sans-serif" font-size="9.8" lengthAdjust="spacing" textLength="28" x="636.3" y="364.6043">Grade</text><line style="stroke:#181818;stroke-width:0.3499999999999999;" x1="598.5" x2="683.9" y1="370.5639" y2="370.5639"/><line style="stroke:#181818;stroke-width:0.3499999999999999;" x1="598.5" x2="683.9" y1="376.1639" y2="376.1639"/></g><!--class RecruitmentProcess--><g id="elem_RecruitmentProcess"><rect codeLine="50" fill="#F1F1F1" height="57.3043" id="RecruitmentProcess" rx="1.75" ry="1.75" style="stroke:#181818;stroke-width:0.3499999999999999;" width="111.3" x="724.15" y="324.4596"/><ellipse cx="734.65" cy="340.9943" fill="#ADD1B2" rx="7.7" ry="7.7" style="stroke:#181818;stroke-width:0.6999999999999998;"/><path d="M736.5859,338.1068 Q736.6953,337.9537 736.8266,337.8771 Q736.9578,337.8006 737.1109,337.8006 Q737.3734,337.8006 737.5375,337.9865 Q737.7016,338.1615 737.7016,338.5881 L737.7016,339.6053 Q737.7016,340.0318 737.5375,340.2178 Q737.3734,340.4037 737.1109,340.4037 Q736.8703,340.4037 736.7281,340.2615 Q736.5859,340.1303 736.5094,339.7693 Q736.4766,339.5178 736.3453,339.3865 Q736.1156,339.124 735.6891,338.9709 Q735.2625,338.8178 734.825,338.8178 Q734.2891,338.8178 733.8406,339.0475 Q733.4031,339.2771 733.0531,339.8021 Q732.7141,340.3271 732.7141,341.049 L732.7141,341.8146 Q732.7141,342.6787 733.3375,343.2584 Q733.9609,343.8271 735.0766,343.8271 Q735.7328,343.8271 736.1922,343.6521 Q736.4656,343.5428 736.7609,343.2365 Q736.9469,343.0506 737.0453,342.9959 Q737.1547,342.9412 737.2969,342.9412 Q737.5266,342.9412 737.7016,343.1271 Q737.8875,343.3021 737.8875,343.5428 Q737.8875,343.7834 737.6469,344.0678 Q737.2969,344.4725 736.7391,344.7021 Q735.9844,345.0193 735.0766,345.0193 Q734.0156,345.0193 733.1734,344.5818 Q732.4844,344.2318 732.0031,343.4881 Q731.5219,342.7334 731.5219,341.8365 L731.5219,341.0271 Q731.5219,340.0975 731.9484,339.299 Q732.3859,338.4896 733.1516,338.0631 Q733.9172,337.6256 734.7812,337.6256 Q735.2953,337.6256 735.7437,337.7459 Q736.2031,337.8553 736.5859,338.1068 Z " fill="#000000"/><text fill="#000000" font-family="sans-serif" font-size="9.8" lengthAdjust="spacing" textLength="35" x="771.4" y="338.5348">&#171;entity&#187;</text><text fill="#000000" font-family="sans-serif" font-size="9.8" lengthAdjust="spacing" textLength="88.9" x="744.45" y="351.5695">RecruitmentProcess</text><line style="stroke:#181818;stroke-width:0.3499999999999999;" x1="724.85" x2="834.75" y1="357.5291" y2="357.5291"/><text fill="#000000" font-family="sans-serif" font-size="9.8" lengthAdjust="spacing" textLength="83.3" x="728.35" y="370.9043">HasInterviewPhase</text><line style="stroke:#181818;stroke-width:0.3499999999999999;" x1="724.85" x2="834.75" y1="376.1639" y2="376.1639"/></g><!--class Phase--><g id="elem_Phase"><rect codeLine="55" fill="#F1F1F1" height="70.3391" id="Phase" rx="1.75" ry="1.75" style="stroke:#181818;stroke-width:0.3499999999999999;" width="57.4" x="751.1" y="439.6096"/><ellipse cx="761.6" cy="456.1443" fill="#ADD1B2" rx="7.7" ry="7.7" style="stroke:#181818;stroke-width:0.6999999999999998;"/><path d="M763.5359,453.2568 Q763.6453,453.1037 763.7766,453.0271 Q763.9078,452.9506 764.0609,452.9506 Q764.3234,452.9506 764.4875,453.1365 Q764.6516,453.3115 764.6516,453.7381 L764.6516,454.7553 Q764.6516,455.1818 764.4875,455.3678 Q764.3234,455.5537 764.0609,455.5537 Q763.8203,455.5537 763.6781,455.4115 Q763.5359,455.2803 763.4594,454.9193 Q763.4266,454.6678 763.2953,454.5365 Q763.0656,454.274 762.6391,454.1209 Q762.2125,453.9678 761.775,453.9678 Q761.2391,453.9678 760.7906,454.1975 Q760.3531,454.4271 760.0031,454.9521 Q759.6641,455.4771 759.6641,456.199 L759.6641,456.9646 Q759.6641,457.8287 760.2875,458.4084 Q760.9109,458.9771 762.0266,458.9771 Q762.6828,458.9771 763.1422,458.8021 Q763.4156,458.6928 763.7109,458.3865 Q763.8969,458.2006 763.9953,458.1459 Q764.1047,458.0912 764.2469,458.0912 Q764.4766,458.0912 764.6516,458.2771 Q764.8375,458.4521 764.8375,458.6928 Q764.8375,458.9334 764.5969,459.2178 Q764.2469,459.6225 763.6891,459.8521 Q762.9344,460.1693 762.0266,460.1693 Q760.9656,460.1693 760.1234,459.7318 Q759.4344,459.3818 758.9531,458.6381 Q758.4719,457.8834 758.4719,456.9865 L758.4719,456.1771 Q758.4719,455.2475 758.8984,454.449 Q759.3359,453.6396 760.1016,453.2131 Q760.8672,452.7756 761.7312,452.7756 Q762.2453,452.7756 762.6937,452.8959 Q763.1531,453.0053 763.5359,453.2568 Z " fill="#000000"/><text fill="#000000" font-family="sans-serif" font-size="9.8" lengthAdjust="spacing" textLength="35" x="771.4" y="453.6848">&#171;entity&#187;</text><text fill="#000000" font-family="sans-serif" font-size="9.8" lengthAdjust="spacing" textLength="28" x="774.9" y="466.7195">Phase</text><line style="stroke:#181818;stroke-width:0.3499999999999999;" x1="751.8" x2="807.8" y1="472.6791" y2="472.6791"/><text fill="#000000" font-family="sans-serif" font-size="9.8" lengthAdjust="spacing" textLength="45.5" x="755.3" y="486.0543">beginDate</text><text fill="#000000" font-family="sans-serif" font-size="9.8" lengthAdjust="spacing" textLength="39.2" x="755.3" y="499.0891">finalDate</text><line style="stroke:#181818;stroke-width:0.3499999999999999;" x1="751.8" x2="807.8" y1="504.3486" y2="504.3486"/></g><!--class JobOpening--><g id="elem_JobOpening"><rect codeLine="61" fill="#F1F1F1" height="57.3043" id="JobOpening" rx="1.75" ry="1.75" style="stroke:#181818;stroke-width:0.3499999999999999;" width="75.6" x="975.1" y="210.7096"/><ellipse cx="985.6" cy="233.7617" fill="#ADD1B2" rx="7.7" ry="7.7" style="stroke:#181818;stroke-width:0.6999999999999998;"/><path d="M987.5359,230.8742 Q987.6453,230.7211 987.7766,230.6445 Q987.9078,230.568 988.0609,230.568 Q988.3234,230.568 988.4875,230.7539 Q988.6516,230.9289 988.6516,231.3555 L988.6516,232.3727 Q988.6516,232.7992 988.4875,232.9852 Q988.3234,233.1711 988.0609,233.1711 Q987.8203,233.1711 987.6781,233.0289 Q987.5359,232.8977 987.4594,232.5367 Q987.4266,232.2852 987.2953,232.1539 Q987.0656,231.8914 986.6391,231.7383 Q986.2125,231.5852 985.775,231.5852 Q985.2391,231.5852 984.7906,231.8148 Q984.3531,232.0445 984.0031,232.5695 Q983.6641,233.0945 983.6641,233.8164 L983.6641,234.582 Q983.6641,235.4461 984.2875,236.0258 Q984.9109,236.5945 986.0266,236.5945 Q986.6828,236.5945 987.1422,236.4195 Q987.4156,236.3102 987.7109,236.0039 Q987.8969,235.818 987.9953,235.7633 Q988.1047,235.7086 988.2469,235.7086 Q988.4766,235.7086 988.6516,235.8945 Q988.8375,236.0695 988.8375,236.3102 Q988.8375,236.5508 988.5969,236.8352 Q988.2469,237.2398 987.6891,237.4695 Q986.9344,237.7867 986.0266,237.7867 Q984.9656,237.7867 984.1234,237.3492 Q983.4344,236.9992 982.9531,236.2555 Q982.4719,235.5008 982.4719,234.6039 L982.4719,233.7945 Q982.4719,232.8648 982.8984,232.0664 Q983.3359,231.257 984.1016,230.8305 Q984.8672,230.393 985.7312,230.393 Q986.2453,230.393 986.6937,230.5133 Q987.1531,230.6227 987.5359,230.8742 Z " fill="#000000"/><text fill="#000000" font-family="sans-serif" font-size="9.8" lengthAdjust="spacing" textLength="28.7" x="1007.65" y="224.7848">&#171;root&#187;</text><text fill="#000000" font-family="sans-serif" font-size="9.8" lengthAdjust="spacing" textLength="35" x="1003.1" y="237.8195">&#171;entity&#187;</text><text fill="#000000" font-family="sans-serif" font-size="9.8" lengthAdjust="spacing" textLength="53.2" x="995.4" y="250.8543">JobOpening</text><line style="stroke:#181818;stroke-width:0.3499999999999999;" x1="975.8" x2="1050" y1="256.8139" y2="256.8139"/><line style="stroke:#181818;stroke-width:0.3499999999999999;" x1="975.8" x2="1050" y1="262.4139" y2="262.4139"/></g><!--class SetupStatus--><g id="elem_SetupStatus"><rect codeLine="66" fill="#F1F1F1" height="44.2695" id="SetupStatus" rx="1.75" ry="1.75" style="stroke:#181818;stroke-width:0.3499999999999999;" width="86.8" x="860.3" y="331.1096"/><ellipse cx="870.8" cy="347.6443" fill="#ADD1B2" rx="7.7" ry="7.7" style="stroke:#181818;stroke-width:0.6999999999999998;"/><path d="M872.7359,344.7568 Q872.8453,344.6037 872.9766,344.5271 Q873.1078,344.4506 873.2609,344.4506 Q873.5234,344.4506 873.6875,344.6365 Q873.8516,344.8115 873.8516,345.2381 L873.8516,346.2553 Q873.8516,346.6818 873.6875,346.8678 Q873.5234,347.0537 873.2609,347.0537 Q873.0203,347.0537 872.8781,346.9115 Q872.7359,346.7803 872.6594,346.4193 Q872.6266,346.1678 872.4953,346.0365 Q872.2656,345.774 871.8391,345.6209 Q871.4125,345.4678 870.975,345.4678 Q870.4391,345.4678 869.9906,345.6975 Q869.5531,345.9271 869.2031,346.4521 Q868.8641,346.9771 868.8641,347.699 L868.8641,348.4646 Q868.8641,349.3287 869.4875,349.9084 Q870.1109,350.4771 871.2266,350.4771 Q871.8828,350.4771 872.3422,350.3021 Q872.6156,350.1928 872.9109,349.8865 Q873.0969,349.7006 873.1953,349.6459 Q873.3047,349.5912 873.4469,349.5912 Q873.6766,349.5912 873.8516,349.7771 Q874.0375,349.9521 874.0375,350.1928 Q874.0375,350.4334 873.7969,350.7178 Q873.4469,351.1225 872.8891,351.3521 Q872.1344,351.6693 871.2266,351.6693 Q870.1656,351.6693 869.3234,351.2318 Q868.6344,350.8818 868.1531,350.1381 Q867.6719,349.3834 867.6719,348.4865 L867.6719,347.6771 Q867.6719,346.7475 868.0984,345.949 Q868.5359,345.1396 869.3016,344.7131 Q870.0672,344.2756 870.9312,344.2756 Q871.4453,344.2756 871.8937,344.3959 Q872.3531,344.5053 872.7359,344.7568 Z " fill="#000000"/><text fill="#000000" font-family="sans-serif" font-size="9.8" lengthAdjust="spacing" textLength="64.4" x="880.6" y="345.1848">&#171;value object&#187;</text><text fill="#000000" font-family="sans-serif" font-size="9.8" lengthAdjust="spacing" textLength="53.9" x="885.85" y="358.2195">SetupStatus</text><line style="stroke:#181818;stroke-width:0.3499999999999999;" x1="861" x2="946.4" y1="364.1791" y2="364.1791"/><line style="stroke:#181818;stroke-width:0.3499999999999999;" x1="861" x2="946.4" y1="369.7791" y2="369.7791"/></g><!--class RequirementsStatus--><g id="elem_RequirementsStatus"><rect codeLine="69" fill="#F1F1F1" height="44.2695" id="RequirementsStatus" rx="1.75" ry="1.75" style="stroke:#181818;stroke-width:0.3499999999999999;" width="112" x="971.6" y="331.1096"/><ellipse cx="982.1" cy="347.6443" fill="#ADD1B2" rx="7.7" ry="7.7" style="stroke:#181818;stroke-width:0.6999999999999998;"/><path d="M984.0359,344.7568 Q984.1453,344.6037 984.2766,344.5271 Q984.4078,344.4506 984.5609,344.4506 Q984.8234,344.4506 984.9875,344.6365 Q985.1516,344.8115 985.1516,345.2381 L985.1516,346.2553 Q985.1516,346.6818 984.9875,346.8678 Q984.8234,347.0537 984.5609,347.0537 Q984.3203,347.0537 984.1781,346.9115 Q984.0359,346.7803 983.9594,346.4193 Q983.9266,346.1678 983.7953,346.0365 Q983.5656,345.774 983.1391,345.6209 Q982.7125,345.4678 982.275,345.4678 Q981.7391,345.4678 981.2906,345.6975 Q980.8531,345.9271 980.5031,346.4521 Q980.1641,346.9771 980.1641,347.699 L980.1641,348.4646 Q980.1641,349.3287 980.7875,349.9084 Q981.4109,350.4771 982.5266,350.4771 Q983.1828,350.4771 983.6422,350.3021 Q983.9156,350.1928 984.2109,349.8865 Q984.3969,349.7006 984.4953,349.6459 Q984.6047,349.5912 984.7469,349.5912 Q984.9766,349.5912 985.1516,349.7771 Q985.3375,349.9521 985.3375,350.1928 Q985.3375,350.4334 985.0969,350.7178 Q984.7469,351.1225 984.1891,351.3521 Q983.4344,351.6693 982.5266,351.6693 Q981.4656,351.6693 980.6234,351.2318 Q979.9344,350.8818 979.4531,350.1381 Q978.9719,349.3834 978.9719,348.4865 L978.9719,347.6771 Q978.9719,346.7475 979.3984,345.949 Q979.8359,345.1396 980.6016,344.7131 Q981.3672,344.2756 982.2312,344.2756 Q982.7453,344.2756 983.1937,344.3959 Q983.6531,344.5053 984.0359,344.7568 Z " fill="#000000"/><text fill="#000000" font-family="sans-serif" font-size="9.8" lengthAdjust="spacing" textLength="64.4" x="1004.5" y="345.1848">&#171;value object&#187;</text><text fill="#000000" font-family="sans-serif" font-size="9.8" lengthAdjust="spacing" textLength="89.6" x="991.9" y="358.2195">RequirementsStatus</text><line style="stroke:#181818;stroke-width:0.3499999999999999;" x1="972.3" x2="1082.9" y1="364.1791" y2="364.1791"/><line style="stroke:#181818;stroke-width:0.3499999999999999;" x1="972.3" x2="1082.9" y1="369.7791" y2="369.7791"/></g><!--class InterviewPhaseStatus--><g id="elem_InterviewPhaseStatus"><rect codeLine="72" fill="#F1F1F1" height="44.2695" id="InterviewPhaseStatus" rx="1.75" ry="1.75" style="stroke:#181818;stroke-width:0.3499999999999999;" width="116.9" x="1108.45" y="331.1096"/><ellipse cx="1118.95" cy="347.6443" fill="#ADD1B2" rx="7.7" ry="7.7" style="stroke:#181818;stroke-width:0.6999999999999998;"/><path d="M1120.8859,344.7568 Q1120.9953,344.6037 1121.1266,344.5271 Q1121.2578,344.4506 1121.4109,344.4506 Q1121.6734,344.4506 1121.8375,344.6365 Q1122.0016,344.8115 1122.0016,345.2381 L1122.0016,346.2553 Q1122.0016,346.6818 1121.8375,346.8678 Q1121.6734,347.0537 1121.4109,347.0537 Q1121.1703,347.0537 1121.0281,346.9115 Q1120.8859,346.7803 1120.8094,346.4193 Q1120.7766,346.1678 1120.6453,346.0365 Q1120.4156,345.774 1119.9891,345.6209 Q1119.5625,345.4678 1119.125,345.4678 Q1118.5891,345.4678 1118.1406,345.6975 Q1117.7031,345.9271 1117.3531,346.4521 Q1117.0141,346.9771 1117.0141,347.699 L1117.0141,348.4646 Q1117.0141,349.3287 1117.6375,349.9084 Q1118.2609,350.4771 1119.3766,350.4771 Q1120.0328,350.4771 1120.4922,350.3021 Q1120.7656,350.1928 1121.0609,349.8865 Q1121.2469,349.7006 1121.3453,349.6459 Q1121.4547,349.5912 1121.5969,349.5912 Q1121.8266,349.5912 1122.0016,349.7771 Q1122.1875,349.9521 1122.1875,350.1928 Q1122.1875,350.4334 1121.9469,350.7178 Q1121.5969,351.1225 1121.0391,351.3521 Q1120.2844,351.6693 1119.3766,351.6693 Q1118.3156,351.6693 1117.4734,351.2318 Q1116.7844,350.8818 1116.3031,350.1381 Q1115.8219,349.3834 1115.8219,348.4865 L1115.8219,347.6771 Q1115.8219,346.7475 1116.2484,345.949 Q1116.6859,345.1396 1117.4516,344.7131 Q1118.2172,344.2756 1119.0812,344.2756 Q1119.5953,344.2756 1120.0437,344.3959 Q1120.5031,344.5053 1120.8859,344.7568 Z " fill="#000000"/><text fill="#000000" font-family="sans-serif" font-size="9.8" lengthAdjust="spacing" textLength="64.4" x="1143.8" y="345.1848">&#171;value object&#187;</text><text fill="#000000" font-family="sans-serif" font-size="9.8" lengthAdjust="spacing" textLength="94.5" x="1128.75" y="358.2195">InterviewPhaseStatus</text><line style="stroke:#181818;stroke-width:0.3499999999999999;" x1="1109.15" x2="1224.65" y1="364.1791" y2="364.1791"/><line style="stroke:#181818;stroke-width:0.3499999999999999;" x1="1109.15" x2="1224.65" y1="369.7791" y2="369.7791"/></g><!--class ContractType--><g id="elem_ContractType"><rect codeLine="75" fill="#F1F1F1" height="44.2695" id="ContractType" rx="1.75" ry="1.75" style="stroke:#181818;stroke-width:0.3499999999999999;" width="86.8" x="1309.7" y="62.6596"/><ellipse cx="1320.2" cy="79.1943" fill="#ADD1B2" rx="7.7" ry="7.7" style="stroke:#181818;stroke-width:0.6999999999999998;"/><path d="M1322.1359,76.3068 Q1322.2453,76.1537 1322.3766,76.0771 Q1322.5078,76.0006 1322.6609,76.0006 Q1322.9234,76.0006 1323.0875,76.1865 Q1323.2516,76.3615 1323.2516,76.7881 L1323.2516,77.8053 Q1323.2516,78.2318 1323.0875,78.4178 Q1322.9234,78.6037 1322.6609,78.6037 Q1322.4203,78.6037 1322.2781,78.4615 Q1322.1359,78.3303 1322.0594,77.9693 Q1322.0266,77.7178 1321.8953,77.5865 Q1321.6656,77.324 1321.2391,77.1709 Q1320.8125,77.0178 1320.375,77.0178 Q1319.8391,77.0178 1319.3906,77.2475 Q1318.9531,77.4771 1318.6031,78.0021 Q1318.2641,78.5271 1318.2641,79.249 L1318.2641,80.0146 Q1318.2641,80.8787 1318.8875,81.4584 Q1319.5109,82.0271 1320.6266,82.0271 Q1321.2828,82.0271 1321.7422,81.8521 Q1322.0156,81.7428 1322.3109,81.4365 Q1322.4969,81.2506 1322.5953,81.1959 Q1322.7047,81.1412 1322.8469,81.1412 Q1323.0766,81.1412 1323.2516,81.3271 Q1323.4375,81.5021 1323.4375,81.7428 Q1323.4375,81.9834 1323.1969,82.2678 Q1322.8469,82.6725 1322.2891,82.9021 Q1321.5344,83.2193 1320.6266,83.2193 Q1319.5656,83.2193 1318.7234,82.7818 Q1318.0344,82.4318 1317.5531,81.6881 Q1317.0719,80.9334 1317.0719,80.0365 L1317.0719,79.2271 Q1317.0719,78.2975 1317.4984,77.499 Q1317.9359,76.6896 1318.7016,76.2631 Q1319.4672,75.8256 1320.3312,75.8256 Q1320.8453,75.8256 1321.2937,75.9459 Q1321.7531,76.0553 1322.1359,76.3068 Z " fill="#000000"/><text fill="#000000" font-family="sans-serif" font-size="9.8" lengthAdjust="spacing" textLength="64.4" x="1330" y="76.7348">&#171;value object&#187;</text><text fill="#000000" font-family="sans-serif" font-size="9.8" lengthAdjust="spacing" textLength="60.2" x="1332.1" y="89.7695">ContractType</text><line style="stroke:#181818;stroke-width:0.3499999999999999;" x1="1310.4" x2="1395.8" y1="95.7291" y2="95.7291"/><line style="stroke:#181818;stroke-width:0.3499999999999999;" x1="1310.4" x2="1395.8" y1="101.3291" y2="101.3291"/></g><!--class Mode--><g id="elem_Mode"><rect codeLine="78" fill="#F1F1F1" height="57.3043" id="Mode" rx="1.75" ry="1.75" style="stroke:#181818;stroke-width:0.3499999999999999;" width="86.8" x="1198.4" y="56.0096"/><ellipse cx="1208.9" cy="72.5443" fill="#ADD1B2" rx="7.7" ry="7.7" style="stroke:#181818;stroke-width:0.6999999999999998;"/><path d="M1210.8359,69.6568 Q1210.9453,69.5037 1211.0766,69.4271 Q1211.2078,69.3506 1211.3609,69.3506 Q1211.6234,69.3506 1211.7875,69.5365 Q1211.9516,69.7115 1211.9516,70.1381 L1211.9516,71.1553 Q1211.9516,71.5818 1211.7875,71.7678 Q1211.6234,71.9537 1211.3609,71.9537 Q1211.1203,71.9537 1210.9781,71.8115 Q1210.8359,71.6803 1210.7594,71.3193 Q1210.7266,71.0678 1210.5953,70.9365 Q1210.3656,70.674 1209.9391,70.5209 Q1209.5125,70.3678 1209.075,70.3678 Q1208.5391,70.3678 1208.0906,70.5975 Q1207.6531,70.8271 1207.3031,71.3521 Q1206.9641,71.8771 1206.9641,72.599 L1206.9641,73.3646 Q1206.9641,74.2287 1207.5875,74.8084 Q1208.2109,75.3771 1209.3266,75.3771 Q1209.9828,75.3771 1210.4422,75.2021 Q1210.7156,75.0928 1211.0109,74.7865 Q1211.1969,74.6006 1211.2953,74.5459 Q1211.4047,74.4912 1211.5469,74.4912 Q1211.7766,74.4912 1211.9516,74.6771 Q1212.1375,74.8521 1212.1375,75.0928 Q1212.1375,75.3334 1211.8969,75.6178 Q1211.5469,76.0225 1210.9891,76.2521 Q1210.2344,76.5693 1209.3266,76.5693 Q1208.2656,76.5693 1207.4234,76.1318 Q1206.7344,75.7818 1206.2531,75.0381 Q1205.7719,74.2834 1205.7719,73.3865 L1205.7719,72.5771 Q1205.7719,71.6475 1206.1984,70.849 Q1206.6359,70.0396 1207.4016,69.6131 Q1208.1672,69.1756 1209.0312,69.1756 Q1209.5453,69.1756 1209.9937,69.2959 Q1210.4531,69.4053 1210.8359,69.6568 Z " fill="#000000"/><text fill="#000000" font-family="sans-serif" font-size="9.8" lengthAdjust="spacing" textLength="64.4" x="1218.7" y="70.0848">&#171;value object&#187;</text><text fill="#000000" font-family="sans-serif" font-size="9.8" lengthAdjust="spacing" textLength="24.5" x="1238.65" y="83.1195">Mode</text><line style="stroke:#181818;stroke-width:0.3499999999999999;" x1="1199.1" x2="1284.5" y1="89.0791" y2="89.0791"/><text fill="#000000" font-family="sans-serif" font-size="9.8" lengthAdjust="spacing" textLength="48.3" x="1202.6" y="102.4543">description</text><line style="stroke:#181818;stroke-width:0.3499999999999999;" x1="1199.1" x2="1284.5" y1="107.7139" y2="107.7139"/></g><!--class JobFunction--><g id="elem_JobFunction"><rect codeLine="82" fill="#F1F1F1" height="57.3043" id="JobFunction" rx="1.75" ry="1.75" style="stroke:#181818;stroke-width:0.3499999999999999;" width="86.8" x="1087.1" y="56.0096"/><ellipse cx="1097.6" cy="72.5443" fill="#ADD1B2" rx="7.7" ry="7.7" style="stroke:#181818;stroke-width:0.6999999999999998;"/><path d="M1099.5359,69.6568 Q1099.6453,69.5037 1099.7766,69.4271 Q1099.9078,69.3506 1100.0609,69.3506 Q1100.3234,69.3506 1100.4875,69.5365 Q1100.6516,69.7115 1100.6516,70.1381 L1100.6516,71.1553 Q1100.6516,71.5818 1100.4875,71.7678 Q1100.3234,71.9537 1100.0609,71.9537 Q1099.8203,71.9537 1099.6781,71.8115 Q1099.5359,71.6803 1099.4594,71.3193 Q1099.4266,71.0678 1099.2953,70.9365 Q1099.0656,70.674 1098.6391,70.5209 Q1098.2125,70.3678 1097.775,70.3678 Q1097.2391,70.3678 1096.7906,70.5975 Q1096.3531,70.8271 1096.0031,71.3521 Q1095.6641,71.8771 1095.6641,72.599 L1095.6641,73.3646 Q1095.6641,74.2287 1096.2875,74.8084 Q1096.9109,75.3771 1098.0266,75.3771 Q1098.6828,75.3771 1099.1422,75.2021 Q1099.4156,75.0928 1099.7109,74.7865 Q1099.8969,74.6006 1099.9953,74.5459 Q1100.1047,74.4912 1100.2469,74.4912 Q1100.4766,74.4912 1100.6516,74.6771 Q1100.8375,74.8521 1100.8375,75.0928 Q1100.8375,75.3334 1100.5969,75.6178 Q1100.2469,76.0225 1099.6891,76.2521 Q1098.9344,76.5693 1098.0266,76.5693 Q1096.9656,76.5693 1096.1234,76.1318 Q1095.4344,75.7818 1094.9531,75.0381 Q1094.4719,74.2834 1094.4719,73.3865 L1094.4719,72.5771 Q1094.4719,71.6475 1094.8984,70.849 Q1095.3359,70.0396 1096.1016,69.6131 Q1096.8672,69.1756 1097.7312,69.1756 Q1098.2453,69.1756 1098.6937,69.2959 Q1099.1531,69.4053 1099.5359,69.6568 Z " fill="#000000"/><text fill="#000000" font-family="sans-serif" font-size="9.8" lengthAdjust="spacing" textLength="64.4" x="1107.4" y="70.0848">&#171;value object&#187;</text><text fill="#000000" font-family="sans-serif" font-size="9.8" lengthAdjust="spacing" textLength="53.9" x="1112.65" y="83.1195">JobFunction</text><line style="stroke:#181818;stroke-width:0.3499999999999999;" x1="1087.8" x2="1173.2" y1="89.0791" y2="89.0791"/><text fill="#000000" font-family="sans-serif" font-size="9.8" lengthAdjust="spacing" textLength="48.3" x="1091.3" y="102.4543">description</text><line style="stroke:#181818;stroke-width:0.3499999999999999;" x1="1087.8" x2="1173.2" y1="107.7139" y2="107.7139"/></g><!--class NumberOfVacancies--><g id="elem_NumberOfVacancies"><rect codeLine="86" fill="#F1F1F1" height="44.2695" id="NumberOfVacancies" rx="1.75" ry="1.75" style="stroke:#181818;stroke-width:0.3499999999999999;" width="115.5" x="946.75" y="62.6596"/><ellipse cx="957.25" cy="79.1943" fill="#ADD1B2" rx="7.7" ry="7.7" style="stroke:#181818;stroke-width:0.6999999999999998;"/><path d="M959.1859,76.3068 Q959.2953,76.1537 959.4266,76.0771 Q959.5578,76.0006 959.7109,76.0006 Q959.9734,76.0006 960.1375,76.1865 Q960.3016,76.3615 960.3016,76.7881 L960.3016,77.8053 Q960.3016,78.2318 960.1375,78.4178 Q959.9734,78.6037 959.7109,78.6037 Q959.4703,78.6037 959.3281,78.4615 Q959.1859,78.3303 959.1094,77.9693 Q959.0766,77.7178 958.9453,77.5865 Q958.7156,77.324 958.2891,77.1709 Q957.8625,77.0178 957.425,77.0178 Q956.8891,77.0178 956.4406,77.2475 Q956.0031,77.4771 955.6531,78.0021 Q955.3141,78.5271 955.3141,79.249 L955.3141,80.0146 Q955.3141,80.8787 955.9375,81.4584 Q956.5609,82.0271 957.6766,82.0271 Q958.3328,82.0271 958.7922,81.8521 Q959.0656,81.7428 959.3609,81.4365 Q959.5469,81.2506 959.6453,81.1959 Q959.7547,81.1412 959.8969,81.1412 Q960.1266,81.1412 960.3016,81.3271 Q960.4875,81.5021 960.4875,81.7428 Q960.4875,81.9834 960.2469,82.2678 Q959.8969,82.6725 959.3391,82.9021 Q958.5844,83.2193 957.6766,83.2193 Q956.6156,83.2193 955.7734,82.7818 Q955.0844,82.4318 954.6031,81.6881 Q954.1219,80.9334 954.1219,80.0365 L954.1219,79.2271 Q954.1219,78.2975 954.5484,77.499 Q954.9859,76.6896 955.7516,76.2631 Q956.5172,75.8256 957.3812,75.8256 Q957.8953,75.8256 958.3437,75.9459 Q958.8031,76.0553 959.1859,76.3068 Z " fill="#000000"/><text fill="#000000" font-family="sans-serif" font-size="9.8" lengthAdjust="spacing" textLength="64.4" x="981.4" y="76.7348">&#171;value object&#187;</text><text fill="#000000" font-family="sans-serif" font-size="9.8" lengthAdjust="spacing" textLength="90.3" x="969.85" y="89.7695">NumberOfVacancies</text><line style="stroke:#181818;stroke-width:0.3499999999999999;" x1="947.45" x2="1061.55" y1="95.7291" y2="95.7291"/><line style="stroke:#181818;stroke-width:0.3499999999999999;" x1="947.45" x2="1061.55" y1="101.3291" y2="101.3291"/></g><!--class Description--><g id="elem_Description"><rect codeLine="90" fill="#F1F1F1" height="57.3043" id="Description" rx="1.75" ry="1.75" style="stroke:#181818;stroke-width:0.3499999999999999;" width="86.8" x="835.1" y="56.0096"/><ellipse cx="845.6" cy="72.5443" fill="#ADD1B2" rx="7.7" ry="7.7" style="stroke:#181818;stroke-width:0.6999999999999998;"/><path d="M847.5359,69.6568 Q847.6453,69.5037 847.7766,69.4271 Q847.9078,69.3506 848.0609,69.3506 Q848.3234,69.3506 848.4875,69.5365 Q848.6516,69.7115 848.6516,70.1381 L848.6516,71.1553 Q848.6516,71.5818 848.4875,71.7678 Q848.3234,71.9537 848.0609,71.9537 Q847.8203,71.9537 847.6781,71.8115 Q847.5359,71.6803 847.4594,71.3193 Q847.4266,71.0678 847.2953,70.9365 Q847.0656,70.674 846.6391,70.5209 Q846.2125,70.3678 845.775,70.3678 Q845.2391,70.3678 844.7906,70.5975 Q844.3531,70.8271 844.0031,71.3521 Q843.6641,71.8771 843.6641,72.599 L843.6641,73.3646 Q843.6641,74.2287 844.2875,74.8084 Q844.9109,75.3771 846.0266,75.3771 Q846.6828,75.3771 847.1422,75.2021 Q847.4156,75.0928 847.7109,74.7865 Q847.8969,74.6006 847.9953,74.5459 Q848.1047,74.4912 848.2469,74.4912 Q848.4766,74.4912 848.6516,74.6771 Q848.8375,74.8521 848.8375,75.0928 Q848.8375,75.3334 848.5969,75.6178 Q848.2469,76.0225 847.6891,76.2521 Q846.9344,76.5693 846.0266,76.5693 Q844.9656,76.5693 844.1234,76.1318 Q843.4344,75.7818 842.9531,75.0381 Q842.4719,74.2834 842.4719,73.3865 L842.4719,72.5771 Q842.4719,71.6475 842.8984,70.849 Q843.3359,70.0396 844.1016,69.6131 Q844.8672,69.1756 845.7312,69.1756 Q846.2453,69.1756 846.6937,69.2959 Q847.1531,69.4053 847.5359,69.6568 Z " fill="#000000"/><text fill="#000000" font-family="sans-serif" font-size="9.8" lengthAdjust="spacing" textLength="64.4" x="855.4" y="70.0848">&#171;value object&#187;</text><text fill="#000000" font-family="sans-serif" font-size="9.8" lengthAdjust="spacing" textLength="49.7" x="862.75" y="83.1195">Description</text><line style="stroke:#181818;stroke-width:0.3499999999999999;" x1="835.8" x2="921.2" y1="89.0791" y2="89.0791"/><text fill="#000000" font-family="sans-serif" font-size="9.8" lengthAdjust="spacing" textLength="48.3" x="839.3" y="102.4543">description</text><line style="stroke:#181818;stroke-width:0.3499999999999999;" x1="835.8" x2="921.2" y1="107.7139" y2="107.7139"/></g><!--class Address1--><g id="elem_Address1"><rect codeLine="95" fill="#F1F1F1" height="109.4434" id="Address1" rx="1.75" ry="1.75" style="stroke:#181818;stroke-width:0.3499999999999999;" width="86.8" x="723.8" y="30.1096"/><ellipse cx="734.3" cy="46.6443" fill="#ADD1B2" rx="7.7" ry="7.7" style="stroke:#181818;stroke-width:0.6999999999999998;"/><path d="M736.2359,43.7568 Q736.3453,43.6037 736.4766,43.5271 Q736.6078,43.4506 736.7609,43.4506 Q737.0234,43.4506 737.1875,43.6365 Q737.3516,43.8115 737.3516,44.2381 L737.3516,45.2553 Q737.3516,45.6818 737.1875,45.8678 Q737.0234,46.0537 736.7609,46.0537 Q736.5203,46.0537 736.3781,45.9115 Q736.2359,45.7803 736.1594,45.4193 Q736.1266,45.1678 735.9953,45.0365 Q735.7656,44.774 735.3391,44.6209 Q734.9125,44.4678 734.475,44.4678 Q733.9391,44.4678 733.4906,44.6975 Q733.0531,44.9271 732.7031,45.4521 Q732.3641,45.9771 732.3641,46.699 L732.3641,47.4646 Q732.3641,48.3287 732.9875,48.9084 Q733.6109,49.4771 734.7266,49.4771 Q735.3828,49.4771 735.8422,49.3021 Q736.1156,49.1928 736.4109,48.8865 Q736.5969,48.7006 736.6953,48.6459 Q736.8047,48.5912 736.9469,48.5912 Q737.1766,48.5912 737.3516,48.7771 Q737.5375,48.9521 737.5375,49.1928 Q737.5375,49.4334 737.2969,49.7178 Q736.9469,50.1225 736.3891,50.3521 Q735.6344,50.6693 734.7266,50.6693 Q733.6656,50.6693 732.8234,50.2318 Q732.1344,49.8818 731.6531,49.1381 Q731.1719,48.3834 731.1719,47.4865 L731.1719,46.6771 Q731.1719,45.7475 731.5984,44.949 Q732.0359,44.1396 732.8016,43.7131 Q733.5672,43.2756 734.4312,43.2756 Q734.9453,43.2756 735.3937,43.3959 Q735.8531,43.5053 736.2359,43.7568 Z " fill="#000000"/><text fill="#000000" font-family="sans-serif" font-size="9.8" lengthAdjust="spacing" textLength="64.4" x="744.1" y="44.1848">&#171;value object&#187;</text><text fill="#000000" font-family="sans-serif" font-size="9.8" lengthAdjust="spacing" textLength="36.4" x="758.1" y="57.2195">Address</text><line style="stroke:#181818;stroke-width:0.3499999999999999;" x1="724.5" x2="809.9" y1="63.1791" y2="63.1791"/><text fill="#000000" font-family="sans-serif" font-size="9.8" lengthAdjust="spacing" textLength="26.6" x="728" y="76.5543">Street</text><text fill="#000000" font-family="sans-serif" font-size="9.8" lengthAdjust="spacing" textLength="16.8" x="728" y="89.5891">City</text><text fill="#000000" font-family="sans-serif" font-size="9.8" lengthAdjust="spacing" textLength="23.1" x="728" y="102.6238">State</text><text fill="#000000" font-family="sans-serif" font-size="9.8" lengthAdjust="spacing" textLength="35" x="728" y="115.6586">Country</text><text fill="#000000" font-family="sans-serif" font-size="9.8" lengthAdjust="spacing" textLength="35" x="728" y="128.6934">Zipcode</text><line style="stroke:#181818;stroke-width:0.3499999999999999;" x1="724.5" x2="809.9" y1="133.9529" y2="133.9529"/></g><!--class JobReference--><g id="elem_JobReference"><rect codeLine="103" fill="#F1F1F1" height="57.3043" id="JobReference" rx="1.75" ry="1.75" style="stroke:#181818;stroke-width:0.3499999999999999;" width="86.8" x="1250.2" y="324.4596"/><ellipse cx="1260.7" cy="347.5117" fill="#ADD1B2" rx="7.7" ry="7.7" style="stroke:#181818;stroke-width:0.6999999999999998;"/><path d="M1262.6359,344.6242 Q1262.7453,344.4711 1262.8766,344.3945 Q1263.0078,344.318 1263.1609,344.318 Q1263.4234,344.318 1263.5875,344.5039 Q1263.7516,344.6789 1263.7516,345.1055 L1263.7516,346.1227 Q1263.7516,346.5492 1263.5875,346.7352 Q1263.4234,346.9211 1263.1609,346.9211 Q1262.9203,346.9211 1262.7781,346.7789 Q1262.6359,346.6477 1262.5594,346.2867 Q1262.5266,346.0352 1262.3953,345.9039 Q1262.1656,345.6414 1261.7391,345.4883 Q1261.3125,345.3352 1260.875,345.3352 Q1260.3391,345.3352 1259.8906,345.5648 Q1259.4531,345.7945 1259.1031,346.3195 Q1258.7641,346.8445 1258.7641,347.5664 L1258.7641,348.332 Q1258.7641,349.1961 1259.3875,349.7758 Q1260.0109,350.3445 1261.1266,350.3445 Q1261.7828,350.3445 1262.2422,350.1695 Q1262.5156,350.0602 1262.8109,349.7539 Q1262.9969,349.568 1263.0953,349.5133 Q1263.2047,349.4586 1263.3469,349.4586 Q1263.5766,349.4586 1263.7516,349.6445 Q1263.9375,349.8195 1263.9375,350.0602 Q1263.9375,350.3008 1263.6969,350.5852 Q1263.3469,350.9898 1262.7891,351.2195 Q1262.0344,351.5367 1261.1266,351.5367 Q1260.0656,351.5367 1259.2234,351.0992 Q1258.5344,350.7492 1258.0531,350.0055 Q1257.5719,349.2508 1257.5719,348.3539 L1257.5719,347.5445 Q1257.5719,346.6148 1257.9984,345.8164 Q1258.4359,345.007 1259.2016,344.5805 Q1259.9672,344.143 1260.8312,344.143 Q1261.3453,344.143 1261.7937,344.2633 Q1262.2531,344.3727 1262.6359,344.6242 Z " fill="#000000"/><text fill="#000000" font-family="sans-serif" font-size="9.8" lengthAdjust="spacing" textLength="64.4" x="1270.5" y="338.5348">&#171;value object&#187;</text><text fill="#000000" font-family="sans-serif" font-size="9.8" lengthAdjust="spacing" textLength="49" x="1278.2" y="351.5695">&#171;identifier&#187;</text><text fill="#000000" font-family="sans-serif" font-size="9.8" lengthAdjust="spacing" textLength="61.6" x="1271.9" y="364.6043">JobReference</text><line style="stroke:#181818;stroke-width:0.3499999999999999;" x1="1250.9" x2="1336.3" y1="370.5639" y2="370.5639"/><line style="stroke:#181818;stroke-width:0.3499999999999999;" x1="1250.9" x2="1336.3" y1="376.1639" y2="376.1639"/></g><!--class UserDomain--><g id="elem_UserDomain"><rect codeLine="45" fill="#F1F1F1" height="33.6" id="UserDomain" rx="1.75" ry="1.75" style="stroke:#181818;stroke-width:0.3499999999999999;" width="76.3" x="274.05" y="336.3596"/><ellipse cx="284.55" cy="347.5596" fill="#ADD1B2" rx="7.7" ry="7.7" style="stroke:#181818;stroke-width:0.6999999999999998;"/><path d="M286.4859,344.6721 Q286.5953,344.5189 286.7266,344.4424 Q286.8578,344.3658 287.0109,344.3658 Q287.2734,344.3658 287.4375,344.5518 Q287.6016,344.7268 287.6016,345.1533 L287.6016,346.1705 Q287.6016,346.5971 287.4375,346.783 Q287.2734,346.9689 287.0109,346.9689 Q286.7703,346.9689 286.6281,346.8268 Q286.4859,346.6955 286.4094,346.3346 Q286.3766,346.083 286.2453,345.9518 Q286.0156,345.6893 285.5891,345.5361 Q285.1625,345.383 284.725,345.383 Q284.1891,345.383 283.7406,345.6127 Q283.3031,345.8424 282.9531,346.3674 Q282.6141,346.8924 282.6141,347.6143 L282.6141,348.3799 Q282.6141,349.2439 283.2375,349.8236 Q283.8609,350.3924 284.9766,350.3924 Q285.6328,350.3924 286.0922,350.2174 Q286.3656,350.108 286.6609,349.8018 Q286.8469,349.6158 286.9453,349.5611 Q287.0547,349.5064 287.1969,349.5064 Q287.4266,349.5064 287.6016,349.6924 Q287.7875,349.8674 287.7875,350.108 Q287.7875,350.3486 287.5469,350.633 Q287.1969,351.0377 286.6391,351.2674 Q285.8844,351.5846 284.9766,351.5846 Q283.9156,351.5846 283.0734,351.1471 Q282.3844,350.7971 281.9031,350.0533 Q281.4219,349.2986 281.4219,348.4018 L281.4219,347.5924 Q281.4219,346.6627 281.8484,345.8643 Q282.2859,345.0549 283.0516,344.6283 Q283.8172,344.1908 284.6812,344.1908 Q285.1953,344.1908 285.6437,344.3111 Q286.1031,344.4205 286.4859,344.6721 Z " fill="#000000"/><text fill="#000000" font-family="sans-serif" font-size="9.8" lengthAdjust="spacing" textLength="53.9" x="294.35" y="351.6174">UserDomain</text><line style="stroke:#181818;stroke-width:0.3499999999999999;" x1="274.75" x2="349.65" y1="358.7596" y2="358.7596"/><line style="stroke:#181818;stroke-width:0.3499999999999999;" x1="274.75" x2="349.65" y1="364.3596" y2="364.3596"/></g><!--link Candidate to EMail--><g id="link_Candidate_EMail"><path codeLine="112" d="M181.58,264.4906 C156.989,282.1096 127.1247,303.4977 101.4207,321.9217 " fill="none" id="Candidate-to-EMail" style="stroke:#181818;stroke-width:0.6999999999999998;"/><polygon fill="#181818" points="98.007,324.3686,104.7587,322.9741,100.8517,322.3295,101.4963,318.4226,98.007,324.3686" style="stroke:#181818;stroke-width:0.6999999999999998;"/><text fill="#000000" font-family="sans-serif" font-size="9.1" lengthAdjust="spacing" textLength="48.3" x="147.7" y="299.6294">identified by</text><text fill="#000000" font-family="sans-serif" font-size="9.1" lengthAdjust="spacing" textLength="4.9" x="171.0955" y="265.3628">1</text><text fill="#000000" font-family="sans-serif" font-size="9.1" lengthAdjust="spacing" textLength="4.9" x="99.1949" y="316.5592">1</text></g><!--reverse link PhoneNumber to Candidate--><g id="link_PhoneNumber_Candidate"><path codeLine="113" d="M145.656,239.4096 C158.872,239.4096 169.001,239.4096 181.51,239.4096 " fill="none" id="PhoneNumber-backto-Candidate" style="stroke:#181818;stroke-width:0.6999999999999998;"/><polygon fill="#181818" points="141.456,239.4096,147.756,242.2096,144.956,239.4096,147.756,236.6096,141.456,239.4096" style="stroke:#181818;stroke-width:0.6999999999999998;"/><text fill="#000000" font-family="sans-serif" font-size="9.1" lengthAdjust="spacing" textLength="14.7" x="154.175" y="234.5294">has</text><text fill="#000000" font-family="sans-serif" font-size="9.1" lengthAdjust="spacing" textLength="4.9" x="147.0508" y="236.6225">1</text><text fill="#000000" font-family="sans-serif" font-size="9.1" lengthAdjust="spacing" textLength="4.9" x="171.2432" y="236.4775">1</text></g><!--link Candidate to Name--><g id="link_Candidate_Name"><path codeLine="114" d="M217.875,268.1726 C219.233,285.0006 220.6296,302.1923 222.0086,319.2023 " fill="none" id="Candidate-to-Name" style="stroke:#181818;stroke-width:0.6999999999999998;"/><polygon fill="#181818" points="222.348,323.3886,224.6298,316.8829,222.0652,319.9,219.0481,317.3354,222.348,323.3886" style="stroke:#181818;stroke-width:0.6999999999999998;"/><text fill="#000000" font-family="sans-serif" font-size="9.1" lengthAdjust="spacing" textLength="14.7" x="220.5" y="299.6294">has</text><text fill="#000000" font-family="sans-serif" font-size="9.1" lengthAdjust="spacing" textLength="4.9" x="212.9482" y="283.3307">1</text><text fill="#000000" font-family="sans-serif" font-size="9.1" lengthAdjust="spacing" textLength="4.9" x="216.6827" y="315.6181">1</text></g><!--link Candidate to UserDomain--><g id="link_Candidate_UserDomain"><path codeLine="116" d="M239.729,268.1726 C258.167,289.6206 280.2094,315.2473 295.4904,333.0273 " fill="none" id="Candidate-to-UserDomain" style="stroke:#181818;stroke-width:0.6999999999999998;stroke-dasharray:7.0,7.0;"/><polygon fill="#181818" points="298.228,336.2126,296.2452,329.6097,295.9467,333.5582,291.9982,333.2597,298.228,336.2126" style="stroke:#181818;stroke-width:0.6999999999999998;"/><text fill="#000000" font-family="sans-serif" font-size="9.1" lengthAdjust="spacing" textLength="4.9" x="238.1486" y="283.3307">1</text><text fill="#000000" font-family="sans-serif" font-size="9.1" lengthAdjust="spacing" textLength="4.9" x="289.3251" y="328.5761">1</text></g><!--link JobApplication to Curriculum--><g id="link_JobApplication_Curriculum"><path codeLine="118" d="M529.9,268.1726 C529.9,287.6676 529.9,309.0526 529.9,326.9026 " fill="none" id="JobApplication-to-Curriculum" style="stroke:#181818;stroke-width:0.6999999999999998;"/><polygon fill="#181818" points="529.9,331.1026,532.7,324.8026,529.9,327.6026,527.1,324.8026,529.9,331.1026" style="stroke:#181818;stroke-width:0.6999999999999998;"/><text fill="#000000" font-family="sans-serif" font-size="9.1" lengthAdjust="spacing" textLength="33.6" x="530.6" y="299.6294">includes</text><text fill="#000000" font-family="sans-serif" font-size="9.1" lengthAdjust="spacing" textLength="4.9" x="524.6248" y="283.3307">1</text><text fill="#000000" font-family="sans-serif" font-size="9.1" lengthAdjust="spacing" textLength="4.9" x="524.4947" y="323.2495">1</text></g><!--link JobApplication to Grade2--><g id="link_JobApplication_Grade2"><path codeLine="119" d="M557.697,268.1726 C574.7,285.3296 593.4092,304.2208 610.4122,321.3848 " fill="none" id="JobApplication-to-Grade2" style="stroke:#181818;stroke-width:0.6999999999999998;"/><polygon fill="#181818" points="613.368,324.3686,610.9235,317.9223,610.9048,321.8821,606.9451,321.8634,613.368,324.3686" style="stroke:#181818;stroke-width:0.6999999999999998;"/><text fill="#000000" font-family="sans-serif" font-size="9.1" lengthAdjust="spacing" textLength="33.6" x="589.4" y="299.6294">includes</text><text fill="#000000" font-family="sans-serif" font-size="9.1" lengthAdjust="spacing" textLength="15.4" x="592.083" y="316.5592">0..1</text></g><!--link JobApplication to Status--><g id="link_JobApplication_Status"><path codeLine="120" d="M502.103,268.1726 C482.783,287.6676 460.3912,310.2681 442.7162,328.1181 " fill="none" id="JobApplication-to-Status" style="stroke:#181818;stroke-width:0.6999999999999998;"/><polygon fill="#181818" points="439.761,331.1026,446.1834,328.596,442.2237,328.6155,442.2041,324.6558,439.761,331.1026" style="stroke:#181818;stroke-width:0.6999999999999998;"/><text fill="#000000" font-family="sans-serif" font-size="9.1" lengthAdjust="spacing" textLength="14.7" x="481.6" y="299.6294">has</text><text fill="#000000" font-family="sans-serif" font-size="9.1" lengthAdjust="spacing" textLength="4.9" x="492.5714" y="283.3307">1</text><text fill="#000000" font-family="sans-serif" font-size="9.1" lengthAdjust="spacing" textLength="4.9" x="438.7201" y="323.2495">1</text></g><!--link JobApplication to Candidate--><g id="link_JobApplication_Candidate"><path codeLine="121" d="M486.703,239.4096 C423.584,239.4096 311.626,239.4096 254.037,239.4096 " fill="none" id="JobApplication-to-Candidate" style="stroke:#181818;stroke-width:0.6999999999999998;"/><polygon fill="#181818" points="249.837,239.4096,256.137,242.2096,253.337,239.4096,256.137,236.6096,249.837,239.4096" style="stroke:#181818;stroke-width:0.6999999999999998;"/><text fill="#000000" font-family="sans-serif" font-size="9.1" lengthAdjust="spacing" textLength="32.9" x="351.75" y="234.5294">refers to</text><text fill="#000000" font-family="sans-serif" font-size="9.1" lengthAdjust="spacing" textLength="4.9" x="476.2398" y="236.6225">1</text><text fill="#000000" font-family="sans-serif" font-size="9.1" lengthAdjust="spacing" textLength="4.9" x="255.2254" y="236.4775">1</text></g><!--reverse link Mode to JobOpening--><g id="link_Mode_JobOpening"><path codeLine="123" d="M1212.7784,116.4096 C1203.9234,125.1946 1196.671,131.6376 1186.5,139.3096 C1142.834,172.2516 1087.184,202.2816 1050.833,220.5166 " fill="none" id="Mode-backto-JobOpening" style="stroke:#181818;stroke-width:0.6999999999999998;"/><polygon fill="#181818" points="1215.76,113.4516,1209.3156,115.9009,1213.2753,115.9166,1213.2596,119.8764,1215.76,113.4516" style="stroke:#181818;stroke-width:0.6999999999999998;"/><text fill="#000000" font-family="sans-serif" font-size="9.1" lengthAdjust="spacing" textLength="33.6" x="1155.7" y="170.8294">includes</text><text fill="#000000" font-family="sans-serif" font-size="9.1" lengthAdjust="spacing" textLength="4.9" x="1206.3194" y="128.8243">1</text><text fill="#000000" font-family="sans-serif" font-size="9.1" lengthAdjust="spacing" textLength="4.9" x="1056.2595" y="215.1182">1</text></g><!--reverse link JobFunction to JobOpening--><g id="link_JobFunction_JobOpening"><path codeLine="124" d="M1106.3765,116.8609 C1085.2225,144.4339 1055.705,182.9126 1034.53,210.5136 " fill="none" id="JobFunction-backto-JobOpening" style="stroke:#181818;stroke-width:0.6999999999999998;"/><polygon fill="#181818" points="1108.933,113.5286,1102.8767,116.8226,1106.8026,116.3055,1107.3197,120.2314,1108.933,113.5286" style="stroke:#181818;stroke-width:0.6999999999999998;"/><text fill="#000000" font-family="sans-serif" font-size="9.1" lengthAdjust="spacing" textLength="33.6" x="1072.4" y="170.8294">includes</text><text fill="#000000" font-family="sans-serif" font-size="9.1" lengthAdjust="spacing" textLength="4.9" x="1100.3554" y="128.6953">1</text><text fill="#000000" font-family="sans-serif" font-size="9.1" lengthAdjust="spacing" textLength="4.9" x="1032.6868" y="202.9037">1</text></g><!--reverse link NumberOfVacancies to JobOpening--><g id="link_NumberOfVacancies_JobOpening"><path codeLine="125" d="M1005.9133,111.2403 C1007.4043,138.3933 1009.729,180.8196 1011.367,210.6816 " fill="none" id="NumberOfVacancies-backto-JobOpening" style="stroke:#181818;stroke-width:0.6999999999999998;"/><polygon fill="#181818" points="1005.683,107.0466,1003.2326,113.4906,1005.8749,110.5413,1008.8242,113.1836,1005.683,107.0466" style="stroke:#181818;stroke-width:0.6999999999999998;"/><text fill="#000000" font-family="sans-serif" font-size="9.1" lengthAdjust="spacing" textLength="33.6" x="1009.4" y="170.8294">includes</text><text fill="#000000" font-family="sans-serif" font-size="9.1" lengthAdjust="spacing" textLength="4.9" x="1000.5415" y="122.2619">1</text><text fill="#000000" font-family="sans-serif" font-size="9.1" lengthAdjust="spacing" textLength="4.9" x="1005.8073" y="202.8826">1</text></g><!--reverse link Description to JobOpening--><g id="link_Description_JobOpening"><path codeLine="126" d="M905.9226,116.6869 C930.0936,144.2599 963.977,182.9126 988.176,210.5136 " fill="none" id="Description-backto-JobOpening" style="stroke:#181818;stroke-width:0.6999999999999998;"/><polygon fill="#181818" points="903.154,113.5286,905.2014,120.1117,905.4612,116.1605,909.4124,116.4203,903.154,113.5286" style="stroke:#181818;stroke-width:0.6999999999999998;"/><text fill="#000000" font-family="sans-serif" font-size="9.1" lengthAdjust="spacing" textLength="33.6" x="954.1" y="170.8294">includes</text><text fill="#000000" font-family="sans-serif" font-size="9.1" lengthAdjust="spacing" textLength="4.9" x="901.654" y="128.6953">1</text><text fill="#000000" font-family="sans-serif" font-size="9.1" lengthAdjust="spacing" textLength="4.9" x="978.9451" y="202.9037">1</text></g><!--reverse link Address1 to JobOpening--><g id="link_Address1_JobOpening"><path codeLine="127" d="M814.0249,132.2905 C818.0919,135.7275 819.042,136.3136 823.2,139.3096 C872.214,174.6386 935.438,205.1656 975.086,222.7566 " fill="none" id="Address1-backto-JobOpening" style="stroke:#181818;stroke-width:0.6999999999999998;"/><polygon fill="#181818" points="810.817,129.5796,813.8215,135.7846,813.4902,131.8387,817.4362,131.5074,810.817,129.5796" style="stroke:#181818;stroke-width:0.6999999999999998;"/><text fill="#000000" font-family="sans-serif" font-size="9.1" lengthAdjust="spacing" textLength="33.6" x="872.9" y="170.8294">includes</text><text fill="#000000" font-family="sans-serif" font-size="9.1" lengthAdjust="spacing" textLength="4.9" x="816.1435" y="131.9972">1</text><text fill="#000000" font-family="sans-serif" font-size="9.1" lengthAdjust="spacing" textLength="4.9" x="964.5239" y="217.5189">1</text></g><!--reverse link ContractType to JobOpening--><g id="link_ContractType_JobOpening"><path codeLine="128" d="M1332.3445,110.0055 C1322.2925,120.9395 1311.821,130.6296 1297.8,139.3096 C1217.062,189.2756 1107.834,218.3116 1050.931,231.0166 " fill="none" id="ContractType-backto-JobOpening" style="stroke:#181818;stroke-width:0.6999999999999998;"/><polygon fill="#181818" points="1335.187,106.9136,1328.8619,109.6565,1332.8182,109.4902,1332.9845,113.4465,1335.187,106.9136" style="stroke:#181818;stroke-width:0.6999999999999998;"/><text fill="#000000" font-family="sans-serif" font-size="9.1" lengthAdjust="spacing" textLength="33.6" x="1255.1" y="170.8294">includes</text><text fill="#000000" font-family="sans-serif" font-size="9.1" lengthAdjust="spacing" textLength="4.9" x="1326.278" y="122.2796">1</text><text fill="#000000" font-family="sans-serif" font-size="9.1" lengthAdjust="spacing" textLength="4.9" x="1056.3706" y="227.0292">1</text></g><!--link JobOpening to JobReference--><g id="link_JobOpening_JobReference"><path codeLine="129" d="M1050.84,252.5696 C1095.976,267.7596 1173.305,294.9476 1237.6,323.4096 C1241.709,325.2296 1242.1523,325.3751 1246.3593,327.4191 " fill="none" id="JobOpening-to-JobReference" style="stroke:#181818;stroke-width:0.6999999999999998;"/><polygon fill="#181818" points="1250.137,329.2546,1245.694,323.9829,1246.9889,327.725,1243.2468,329.0199,1250.137,329.2546" style="stroke:#181818;stroke-width:0.6999999999999998;"/><text fill="#000000" font-family="sans-serif" font-size="9.1" lengthAdjust="spacing" textLength="33.6" x="1183.7" y="299.6294">includes</text><text fill="#000000" font-family="sans-serif" font-size="9.1" lengthAdjust="spacing" textLength="4.9" x="1056.2674" y="251.4784">1</text><text fill="#000000" font-family="sans-serif" font-size="9.1" lengthAdjust="spacing" textLength="4.9" x="1239.6414" y="323.5541">1</text></g><!--link JobOpening to SetupStatus--><g id="link_JobOpening_SetupStatus"><path codeLine="130" d="M985.628,268.1726 C966.672,287.6676 944.728,310.2405 927.382,328.0905 " fill="none" id="JobOpening-to-SetupStatus" style="stroke:#181818;stroke-width:0.6999999999999998;"/><polygon fill="#181818" points="924.455,331.1026,930.8536,328.5358,926.8942,328.5925,926.8375,324.6331,924.455,331.1026" style="stroke:#181818;stroke-width:0.6999999999999998;"/><text fill="#000000" font-family="sans-serif" font-size="9.1" lengthAdjust="spacing" textLength="33.6" x="965.3" y="299.6294">includes</text><text fill="#000000" font-family="sans-serif" font-size="9.1" lengthAdjust="spacing" textLength="4.9" x="976.1768" y="283.3307">1</text><text fill="#000000" font-family="sans-serif" font-size="9.1" lengthAdjust="spacing" textLength="4.9" x="923.3304" y="323.2495">1</text></g><!--link JobOpening to RequirementsStatus--><g id="link_JobOpening_RequirementsStatus"><path codeLine="131" d="M1016.575,268.1726 C1019.123,287.6676 1021.9235,309.0881 1024.2615,326.9381 " fill="none" id="JobOpening-to-RequirementsStatus" style="stroke:#181818;stroke-width:0.6999999999999998;"/><polygon fill="#181818" points="1024.807,331.1026,1026.7651,324.4923,1024.3525,327.6322,1021.2125,325.2196,1024.807,331.1026" style="stroke:#181818;stroke-width:0.6999999999999998;"/><text fill="#000000" font-family="sans-serif" font-size="9.1" lengthAdjust="spacing" textLength="33.6" x="1021.3" y="299.6294">includes</text><text fill="#000000" font-family="sans-serif" font-size="9.1" lengthAdjust="spacing" textLength="4.9" x="1011.8626" y="283.3307">1</text><text fill="#000000" font-family="sans-serif" font-size="9.1" lengthAdjust="spacing" textLength="4.9" x="1018.8256" y="323.2495">1</text></g><!--link JobOpening to InterviewPhaseStatus--><g id="link_JobOpening_InterviewPhaseStatus"><path codeLine="132" d="M1050.77,267.7386 C1077.489,287.2266 1109.3685,310.4908 1134.0085,328.4598 " fill="none" id="JobOpening-to-InterviewPhaseStatus" style="stroke:#181818;stroke-width:0.6999999999999998;"/><polygon fill="#181818" points="1137.402,330.9346,1133.9616,324.9602,1134.5741,328.8723,1130.662,329.4848,1137.402,330.9346" style="stroke:#181818;stroke-width:0.6999999999999998;"/><text fill="#000000" font-family="sans-serif" font-size="9.1" lengthAdjust="spacing" textLength="33.6" x="1094.8" y="299.6294">includes</text><text fill="#000000" font-family="sans-serif" font-size="9.1" lengthAdjust="spacing" textLength="4.9" x="1051.9578" y="283.4758">1</text><text fill="#000000" font-family="sans-serif" font-size="9.1" lengthAdjust="spacing" textLength="4.9" x="1126.2122" y="323.3108">1</text></g><!--link JobApplication to JobOpening--><g id="link_JobApplication_JobOpening"><path codeLine="133" d="M572.978,239.4096 C666.386,239.4096 882.091,239.4096 970.704,239.4096 " fill="none" id="JobApplication-to-JobOpening" style="stroke:#181818;stroke-width:0.6999999999999998;"/><polygon fill="#181818" points="974.904,239.4096,968.604,236.6096,971.404,239.4096,968.604,242.2096,974.904,239.4096" style="stroke:#181818;stroke-width:0.6999999999999998;"/><text fill="#000000" font-family="sans-serif" font-size="9.1" lengthAdjust="spacing" textLength="32.9" x="757.575" y="234.5294">refers to</text><text fill="#000000" font-family="sans-serif" font-size="9.1" lengthAdjust="spacing" textLength="3.5" x="578.4414" y="236.6225">*</text><text fill="#000000" font-family="sans-serif" font-size="9.1" lengthAdjust="spacing" textLength="4.9" x="964.5691" y="236.55">1</text></g><!--link JobOpening to RecruitmentProcess--><g id="link_JobOpening_RecruitmentProcess"><path codeLine="134" d="M974.932,258.4076 C937.132,276.6286 882.4725,302.9731 839.3945,323.7351 " fill="none" id="JobOpening-to-RecruitmentProcess" style="stroke:#181818;stroke-width:0.6999999999999998;"/><polygon fill="#181818" points="835.611,325.5586,842.5019,325.3456,838.7639,324.039,840.0706,320.301,835.611,325.5586" style="stroke:#181818;stroke-width:0.6999999999999998;"/><text fill="#000000" font-family="sans-serif" font-size="9.1" lengthAdjust="spacing" textLength="33.6" x="910.7" y="299.6294">includes</text><text fill="#000000" font-family="sans-serif" font-size="9.1" lengthAdjust="spacing" textLength="4.9" x="964.6008" y="258.1008">1</text><text fill="#000000" font-family="sans-serif" font-size="9.1" lengthAdjust="spacing" textLength="4.9" x="840.9819" y="320.3992">1</text></g><!--reverse link RecruitmentProcess to Phase--><g id="link_RecruitmentProcess_Phase"><path codeLine="135" d="M779.8,390.4066 C779.8,407.5916 779.8,421.2906 779.8,439.5116 " fill="none" id="RecruitmentProcess-backto-Phase" style="stroke:#181818;stroke-width:0.6999999999999998;"/><polygon fill="#181818" points="779.8,382.0066,777,386.2066,779.8,390.4066,782.6,386.2066,779.8,382.0066" style="stroke:#181818;stroke-width:0.6999999999999998;"/><text fill="#000000" font-family="sans-serif" font-size="9.1" lengthAdjust="spacing" textLength="25.2" x="780.5" y="415.8294">part of</text><text fill="#000000" font-family="sans-serif" font-size="9.1" lengthAdjust="spacing" textLength="4.9" x="774.5248" y="397.1776">1</text><text fill="#000000" font-family="sans-serif" font-size="9.1" lengthAdjust="spacing" textLength="15.4" x="763.3172" y="431.6495">4..5</text></g><!--SRC=[bLLBRjim4Dtp58Gs1G9OQOfsOmG50YTjKo0V96qNHJSqDLROIgHAKIa28IVo4RBpoSgF95AMRIbUo3F3cJUSBzyyA5MKy-FZ8YDSLNaMKv4VquoKvInX99KaHwWWz0z90KSBmXEM40NuB4qbf9gAQeJrprhWQBEMGgZDoo- -MGDNJ3qPkZEBC2bnnzN8cZxRBnSQLPzUv8HbdOez6luk4mE-OdAF0l340Y8KNkwQvEu6Xi1rPwfnIcLadKJhUy4pwaVuIB8Ai5Z-1ceZlNqG7AwhV0dIeWUyyr5uGGYu7_5YTgMJOC4k3DLS5Kng7AaXdeEwV1NBiwB862MA2VwwulHjhTE-g5UclNU-LqHLfJLtPDt6EfA-HIKberLMvQuxEjO37BJVh2d9j84EDp7yPqaILsPBlQjThf03-5w2F1SwaJgihGpYcm8uusalVNtVFcjtG6N5LAubjr9GA5teGx5lio-alEGAv2E3VxSFf8HUVBkSMAscfpJbeV0IKiRFUmEoOfnaNZJ8sx3ss1Q_YRejVCFM24rg_djGLH7MtlEudeHm1tyhFSWcPMK0X8VoQNZz70U8kmxgQGEv45n9GjMtfwBPOO6WxX9-4EDAD6rf25_A14egMM46RL9ukaIVAax3MMtve3zUYuhTUhfP_I2KSCgWAS90N4zhYtFltm85_E5R7eOzInBPZbf3dtYyUoK1LCSkT9C7P-6mB4Ibw-TFVxA2wgfC2cspPith0x8fo1siG0Adq5Qa4tJzPVSWwZzkiLtko3-gqKaqcttKNxVsyRppbE3b4meU5gDwEZEQtdgkszg3cJCDPXJTUpV7vhplBOwjDxyK4Tfw3heR-RsiaHYdMQMhjwNj7BwDOwtlbky1NG_Th0jtmQ4MRg888fKcloLM0Y4pJVRuT3Op_tw5RVbkfsHSUT3quoP1VuyhjvqxgXXkcHRM_EsDiPNwt8RDEAeSBkyntU5w7ZNPjO0FDSXHPErwqVhAzrsqlJvyWFKKjGvs71hJ8vtLzt7y8NBFB9uNH2eiLkW_]--></g></svg>