<?xml version="1.0" encoding="us-ascii" standalone="no"?><svg xmlns="http://www.w3.org/2000/svg" xmlns:xlink="http://www.w3.org/1999/xlink" contentStyleType="text/css" height="863px" preserveAspectRatio="none" style="width:1143px;height:863px;background:#FFFFFF;" version="1.1" viewBox="0 0 1143 863" width="1143px" zoomAndPan="magnify"><defs/><g><text fill="#000000" font-family="sans-serif" font-size="14" font-weight="bold" lengthAdjust="spacing" textLength="427" x="357" y="30.1074">"US2000b - As Operator, I want to enable/disable a candidate.</text><rect fill="#FFFFFF" height="629.1895" style="stroke:#181818;stroke-width:1.0;" width="10" x="31.5" y="133.2422"/><rect fill="#FFFFFF" height="342.5703" style="stroke:#181818;stroke-width:1.0;" width="10" x="434.5" y="156.5332"/><rect fill="#FFFFFF" height="232.0371" style="stroke:#181818;stroke-width:1.0;" width="10" x="434.5" y="530.3945"/><rect fill="#FFFFFF" height="200.7461" style="stroke:#181818;stroke-width:1.0;" width="10" x="651.5" y="267.0664"/><rect fill="#FFFFFF" height="169.4551" style="stroke:#181818;stroke-width:1.0;" width="10" x="651.5" y="561.6855"/><rect fill="#FFFFFF" height="138.1641" style="stroke:#181818;stroke-width:1.0;" width="10" x="863.5" y="298.3574"/><rect fill="#FFFFFF" height="106.873" style="stroke:#181818;stroke-width:1.0;" width="10" x="863.5" y="592.9766"/><rect fill="#FFFFFF" height="31.291" style="stroke:#181818;stroke-width:1.0;" width="10" x="1074.5" y="329.6484"/><line style="stroke:#181818;stroke-width:0.5;stroke-dasharray:5.0,5.0;" x1="36" x2="36" y1="123.2422" y2="780.4316"/><line style="stroke:#181818;stroke-width:0.5;stroke-dasharray:5.0,5.0;" x1="439.5" x2="439.5" y1="123.2422" y2="780.4316"/><line style="stroke:#181818;stroke-width:0.5;stroke-dasharray:5.0,5.0;" x1="656.5" x2="656.5" y1="214.1543" y2="780.4316"/><line style="stroke:#181818;stroke-width:0.5;stroke-dasharray:5.0,5.0;" x1="868.5" x2="868.5" y1="123.2422" y2="780.4316"/><line style="stroke:#181818;stroke-width:0.5;stroke-dasharray:5.0,5.0;" x1="1079" x2="1079" y1="123.2422" y2="780.4316"/><text fill="#000000" font-family="sans-serif" font-size="14" lengthAdjust="spacing" textLength="57" x="5" y="119.7285">Operator</text><ellipse cx="36.5" cy="53.1211" fill="#E3E3E3" rx="8" ry="8" style="stroke:#181818;stroke-width:0.5;"/><path d="M36.5,61.1211 L36.5,88.1211 M23.5,69.1211 L49.5,69.1211 M36.5,88.1211 L23.5,103.1211 M36.5,88.1211 L49.5,103.1211 " fill="none" style="stroke:#181818;stroke-width:0.5;"/><text fill="#000000" font-family="sans-serif" font-size="14" lengthAdjust="spacing" textLength="57" x="5" y="794.5391">Operator</text><ellipse cx="36.5" cy="806.5527" fill="#E3E3E3" rx="8" ry="8" style="stroke:#181818;stroke-width:0.5;"/><path d="M36.5,814.5527 L36.5,841.5527 M23.5,822.5527 L49.5,822.5527 M36.5,841.5527 L23.5,856.5527 M36.5,841.5527 L49.5,856.5527 " fill="none" style="stroke:#181818;stroke-width:0.5;"/><rect fill="#E3E3E3" height="51.2422" rx="2.5" ry="2.5" style="stroke:#181818;stroke-width:0.5;" width="186" x="346.5" y="71"/><text fill="#000000" font-family="sans-serif" font-size="14" font-style="italic" lengthAdjust="spacing" textLength="95" x="392" y="93.1074">&#171;presentation&#187;</text><text fill="#000000" font-family="sans-serif" font-size="14" lengthAdjust="spacing" textLength="172" x="353.5" y="111.7285">:EnableDisableCandidateUI</text><rect fill="#E3E3E3" height="51.2422" rx="2.5" ry="2.5" style="stroke:#181818;stroke-width:0.5;" width="186" x="346.5" y="779.4316"/><text fill="#000000" font-family="sans-serif" font-size="14" font-style="italic" lengthAdjust="spacing" textLength="95" x="392" y="801.5391">&#171;presentation&#187;</text><text fill="#000000" font-family="sans-serif" font-size="14" lengthAdjust="spacing" textLength="172" x="353.5" y="820.1602">:EnableDisableCandidateUI</text><text fill="#000000" font-family="sans-serif" font-size="14" font-style="italic" lengthAdjust="spacing" textLength="84" x="611.5" y="794.5391">&#171;application&#187;</text><text fill="#000000" font-family="sans-serif" font-size="14" lengthAdjust="spacing" textLength="222" x="542.5" y="813.1602">:EnableDisableCandidateController</text><ellipse cx="656.5" cy="832.6738" fill="#E3E3E3" rx="12" ry="12" style="stroke:#181818;stroke-width:0.5;"/><polygon fill="#181818" points="652.5,820.6738,658.5,815.6738,656.5,820.6738,658.5,825.6738,652.5,820.6738" style="stroke:#181818;stroke-width:1.0;"/><rect fill="#E3E3E3" height="51.2422" rx="2.5" ry="2.5" style="stroke:#181818;stroke-width:0.5;" width="176" x="780.5" y="71"/><text fill="#000000" font-family="sans-serif" font-size="14" font-style="italic" lengthAdjust="spacing" textLength="84" x="826.5" y="93.1074">&#171;application&#187;</text><text fill="#000000" font-family="sans-serif" font-size="14" lengthAdjust="spacing" textLength="162" x="787.5" y="111.7285">:UserManagementService</text><rect fill="#E3E3E3" height="51.2422" rx="2.5" ry="2.5" style="stroke:#181818;stroke-width:0.5;" width="176" x="780.5" y="779.4316"/><text fill="#000000" font-family="sans-serif" font-size="14" font-style="italic" lengthAdjust="spacing" textLength="84" x="826.5" y="801.5391">&#171;application&#187;</text><text fill="#000000" font-family="sans-serif" font-size="14" lengthAdjust="spacing" textLength="162" x="787.5" y="820.1602">:UserManagementService</text><rect fill="#E3E3E3" height="51.2422" rx="2.5" ry="2.5" style="stroke:#181818;stroke-width:0.5;" width="115" x="1022" y="71"/><text fill="#000000" font-family="sans-serif" font-size="14" font-style="italic" lengthAdjust="spacing" textLength="79" x="1040" y="93.1074">&#171;repository&#187;</text><text fill="#000000" font-family="sans-serif" font-size="14" lengthAdjust="spacing" textLength="101" x="1029" y="111.7285">:UserRepository</text><rect fill="#E3E3E3" height="51.2422" rx="2.5" ry="2.5" style="stroke:#181818;stroke-width:0.5;" width="115" x="1022" y="779.4316"/><text fill="#000000" font-family="sans-serif" font-size="14" font-style="italic" lengthAdjust="spacing" textLength="79" x="1040" y="801.5391">&#171;repository&#187;</text><text fill="#000000" font-family="sans-serif" font-size="14" lengthAdjust="spacing" textLength="101" x="1029" y="820.1602">:UserRepository</text><rect fill="#FFFFFF" height="629.1895" style="stroke:#181818;stroke-width:1.0;" width="10" x="31.5" y="133.2422"/><rect fill="#FFFFFF" height="342.5703" style="stroke:#181818;stroke-width:1.0;" width="10" x="434.5" y="156.5332"/><rect fill="#FFFFFF" height="232.0371" style="stroke:#181818;stroke-width:1.0;" width="10" x="434.5" y="530.3945"/><rect fill="#FFFFFF" height="200.7461" style="stroke:#181818;stroke-width:1.0;" width="10" x="651.5" y="267.0664"/><rect fill="#FFFFFF" height="169.4551" style="stroke:#181818;stroke-width:1.0;" width="10" x="651.5" y="561.6855"/><rect fill="#FFFFFF" height="138.1641" style="stroke:#181818;stroke-width:1.0;" width="10" x="863.5" y="298.3574"/><rect fill="#FFFFFF" height="106.873" style="stroke:#181818;stroke-width:1.0;" width="10" x="863.5" y="592.9766"/><rect fill="#FFFFFF" height="31.291" style="stroke:#181818;stroke-width:1.0;" width="10" x="1074.5" y="329.6484"/><polygon fill="#181818" points="422.5,152.5332,432.5,156.5332,422.5,160.5332,426.5,156.5332" style="stroke:#181818;stroke-width:1.0;"/><line style="stroke:#181818;stroke-width:1.0;" x1="41.5" x2="428.5" y1="156.5332" y2="156.5332"/><text fill="#000000" font-family="sans-serif" font-size="13" font-weight="bold" lengthAdjust="spacing" textLength="7" x="48.5" y="151.2705">1</text><text fill="#000000" font-family="sans-serif" font-size="13" lengthAdjust="spacing" textLength="298" x="59.5" y="151.2705">asks to disable a candidate's access to the system</text><polygon fill="#181818" points="530.5,183.8242,540.5,187.8242,530.5,191.8242,534.5,187.8242" style="stroke:#181818;stroke-width:1.0;"/><line style="stroke:#181818;stroke-width:1.0;" x1="444.5" x2="536.5" y1="187.8242" y2="187.8242"/><text fill="#000000" font-family="sans-serif" font-size="13" font-weight="bold" lengthAdjust="spacing" textLength="7" x="451.5" y="182.5615">2</text><text fill="#000000" font-family="sans-serif" font-size="13" lengthAdjust="spacing" textLength="36" x="462.5" y="182.5615">create</text><text fill="#000000" font-family="sans-serif" font-size="14" font-style="italic" lengthAdjust="spacing" textLength="84" x="611.5" y="211.6406">&#171;application&#187;</text><text fill="#000000" font-family="sans-serif" font-size="14" lengthAdjust="spacing" textLength="222" x="542.5" y="230.2617">:EnableDisableCandidateController</text><ellipse cx="656.5" cy="180.5332" fill="#E3E3E3" rx="12" ry="12" style="stroke:#181818;stroke-width:0.5;"/><polygon fill="#181818" points="652.5,168.5332,658.5,163.5332,656.5,168.5332,658.5,173.5332,652.5,168.5332" style="stroke:#181818;stroke-width:1.0;"/><polygon fill="#181818" points="639.5,263.0664,649.5,267.0664,639.5,271.0664,643.5,267.0664" style="stroke:#181818;stroke-width:1.0;"/><line style="stroke:#181818;stroke-width:1.0;" x1="444.5" x2="645.5" y1="267.0664" y2="267.0664"/><text fill="#000000" font-family="sans-serif" font-size="13" font-weight="bold" lengthAdjust="spacing" textLength="7" x="451.5" y="261.8037">3</text><text fill="#000000" font-family="sans-serif" font-size="13" lengthAdjust="spacing" textLength="121" x="462.5" y="261.8037">allActiveCandidates()</text><polygon fill="#181818" points="851.5,294.3574,861.5,298.3574,851.5,302.3574,855.5,298.3574" style="stroke:#181818;stroke-width:1.0;"/><line style="stroke:#181818;stroke-width:1.0;" x1="661.5" x2="857.5" y1="298.3574" y2="298.3574"/><text fill="#000000" font-family="sans-serif" font-size="13" font-weight="bold" lengthAdjust="spacing" textLength="7" x="668.5" y="293.0947">4</text><text fill="#000000" font-family="sans-serif" font-size="13" lengthAdjust="spacing" textLength="121" x="679.5" y="293.0947">allActiveCandidates()</text><polygon fill="#181818" points="1062.5,325.6484,1072.5,329.6484,1062.5,333.6484,1066.5,329.6484" style="stroke:#181818;stroke-width:1.0;"/><line style="stroke:#181818;stroke-width:1.0;" x1="873.5" x2="1068.5" y1="329.6484" y2="329.6484"/><text fill="#000000" font-family="sans-serif" font-size="13" font-weight="bold" lengthAdjust="spacing" textLength="7" x="880.5" y="324.3857">5</text><text fill="#000000" font-family="sans-serif" font-size="13" lengthAdjust="spacing" textLength="97" x="891.5" y="324.3857">activeUsers(true)</text><polygon fill="#181818" points="884.5,356.9395,874.5,360.9395,884.5,364.9395,880.5,360.9395" style="stroke:#181818;stroke-width:1.0;"/><line style="stroke:#181818;stroke-width:1.0;stroke-dasharray:2.0,2.0;" x1="878.5" x2="1078.5" y1="360.9395" y2="360.9395"/><text fill="#000000" font-family="sans-serif" font-size="13" font-weight="bold" lengthAdjust="spacing" textLength="7" x="890.5" y="355.6768">6</text><text fill="#000000" font-family="sans-serif" font-size="13" lengthAdjust="spacing" textLength="32" x="901.5" y="355.6768">users</text><line style="stroke:#181818;stroke-width:1.0;" x1="661.5" x2="703.5" y1="392.2305" y2="392.2305"/><line style="stroke:#181818;stroke-width:1.0;" x1="703.5" x2="703.5" y1="392.2305" y2="405.2305"/><line style="stroke:#181818;stroke-width:1.0;" x1="662.5" x2="703.5" y1="405.2305" y2="405.2305"/><polygon fill="#181818" points="672.5,401.2305,662.5,405.2305,672.5,409.2305,668.5,405.2305" style="stroke:#181818;stroke-width:1.0;"/><text fill="#000000" font-family="sans-serif" font-size="13" font-weight="bold" lengthAdjust="spacing" textLength="7" x="668.5" y="386.9678">7</text><text fill="#000000" font-family="sans-serif" font-size="13" lengthAdjust="spacing" textLength="129" x="679.5" y="386.9678">filterCandidates(users)</text><polygon fill="#181818" points="672.5,432.5215,662.5,436.5215,672.5,440.5215,668.5,436.5215" style="stroke:#181818;stroke-width:1.0;"/><line style="stroke:#181818;stroke-width:1.0;stroke-dasharray:2.0,2.0;" x1="666.5" x2="867.5" y1="436.5215" y2="436.5215"/><text fill="#000000" font-family="sans-serif" font-size="13" font-weight="bold" lengthAdjust="spacing" textLength="7" x="678.5" y="431.2588">8</text><text fill="#000000" font-family="sans-serif" font-size="13" lengthAdjust="spacing" textLength="63" x="689.5" y="431.2588">candidates</text><polygon fill="#181818" points="455.5,463.8125,445.5,467.8125,455.5,471.8125,451.5,467.8125" style="stroke:#181818;stroke-width:1.0;"/><line style="stroke:#181818;stroke-width:1.0;stroke-dasharray:2.0,2.0;" x1="449.5" x2="655.5" y1="467.8125" y2="467.8125"/><text fill="#000000" font-family="sans-serif" font-size="13" font-weight="bold" lengthAdjust="spacing" textLength="7" x="461.5" y="462.5498">9</text><text fill="#000000" font-family="sans-serif" font-size="13" lengthAdjust="spacing" textLength="63" x="472.5" y="462.5498">candidates</text><polygon fill="#181818" points="52.5,495.1035,42.5,499.1035,52.5,503.1035,48.5,499.1035" style="stroke:#181818;stroke-width:1.0;"/><line style="stroke:#181818;stroke-width:1.0;stroke-dasharray:2.0,2.0;" x1="46.5" x2="438.5" y1="499.1035" y2="499.1035"/><text fill="#000000" font-family="sans-serif" font-size="13" font-weight="bold" lengthAdjust="spacing" textLength="14" x="58.5" y="493.8408">10</text><text fill="#000000" font-family="sans-serif" font-size="13" lengthAdjust="spacing" textLength="351" x="76.5" y="493.8408">shows list of all the active candidates and asks to select one</text><polygon fill="#181818" points="422.5,526.3945,432.5,530.3945,422.5,534.3945,426.5,530.3945" style="stroke:#181818;stroke-width:1.0;"/><line style="stroke:#181818;stroke-width:1.0;" x1="41.5" x2="428.5" y1="530.3945" y2="530.3945"/><text fill="#000000" font-family="sans-serif" font-size="13" font-weight="bold" lengthAdjust="spacing" textLength="14" x="48.5" y="525.1318">11</text><text fill="#000000" font-family="sans-serif" font-size="13" lengthAdjust="spacing" textLength="113" x="66.5" y="525.1318">selects a candidate</text><polygon fill="#181818" points="639.5,557.6855,649.5,561.6855,639.5,565.6855,643.5,561.6855" style="stroke:#181818;stroke-width:1.0;"/><line style="stroke:#181818;stroke-width:1.0;" x1="444.5" x2="645.5" y1="561.6855" y2="561.6855"/><text fill="#000000" font-family="sans-serif" font-size="13" font-weight="bold" lengthAdjust="spacing" textLength="14" x="451.5" y="556.4229">12</text><text fill="#000000" font-family="sans-serif" font-size="13" lengthAdjust="spacing" textLength="118" x="469.5" y="556.4229">deactivateUser(user)</text><polygon fill="#181818" points="851.5,588.9766,861.5,592.9766,851.5,596.9766,855.5,592.9766" style="stroke:#181818;stroke-width:1.0;"/><line style="stroke:#181818;stroke-width:1.0;" x1="661.5" x2="857.5" y1="592.9766" y2="592.9766"/><text fill="#000000" font-family="sans-serif" font-size="13" font-weight="bold" lengthAdjust="spacing" textLength="14" x="668.5" y="587.7139">13</text><text fill="#000000" font-family="sans-serif" font-size="13" lengthAdjust="spacing" textLength="118" x="686.5" y="587.7139">deactivateUser(user)</text><line style="stroke:#181818;stroke-width:1.0;" x1="873.5" x2="915.5" y1="624.2676" y2="624.2676"/><line style="stroke:#181818;stroke-width:1.0;" x1="915.5" x2="915.5" y1="624.2676" y2="637.2676"/><line style="stroke:#181818;stroke-width:1.0;" x1="874.5" x2="915.5" y1="637.2676" y2="637.2676"/><polygon fill="#181818" points="884.5,633.2676,874.5,637.2676,884.5,641.2676,880.5,637.2676" style="stroke:#181818;stroke-width:1.0;"/><text fill="#000000" font-family="sans-serif" font-size="13" font-weight="bold" lengthAdjust="spacing" textLength="14" x="880.5" y="619.0049">14</text><text fill="#000000" font-family="sans-serif" font-size="13" lengthAdjust="spacing" textLength="169" x="898.5" y="619.0049">user.deactivate(CurrentTime);</text><polygon fill="#181818" points="1067.5,664.5586,1077.5,668.5586,1067.5,672.5586,1071.5,668.5586" style="stroke:#181818;stroke-width:1.0;"/><line style="stroke:#181818;stroke-width:1.0;" x1="873.5" x2="1073.5" y1="668.5586" y2="668.5586"/><text fill="#000000" font-family="sans-serif" font-size="13" font-weight="bold" lengthAdjust="spacing" textLength="14" x="880.5" y="663.2959">15</text><text fill="#000000" font-family="sans-serif" font-size="13" lengthAdjust="spacing" textLength="59" x="898.5" y="663.2959">save(user)</text><polygon fill="#181818" points="672.5,695.8496,662.5,699.8496,672.5,703.8496,668.5,699.8496" style="stroke:#181818;stroke-width:1.0;"/><line style="stroke:#181818;stroke-width:1.0;stroke-dasharray:2.0,2.0;" x1="666.5" x2="867.5" y1="699.8496" y2="699.8496"/><text fill="#000000" font-family="sans-serif" font-size="13" font-weight="bold" lengthAdjust="spacing" textLength="14" x="678.5" y="694.5869">16</text><text fill="#000000" font-family="sans-serif" font-size="13" lengthAdjust="spacing" textLength="49" x="696.5" y="694.5869">success</text><polygon fill="#181818" points="455.5,727.1406,445.5,731.1406,455.5,735.1406,451.5,731.1406" style="stroke:#181818;stroke-width:1.0;"/><line style="stroke:#181818;stroke-width:1.0;stroke-dasharray:2.0,2.0;" x1="449.5" x2="655.5" y1="731.1406" y2="731.1406"/><text fill="#000000" font-family="sans-serif" font-size="13" font-weight="bold" lengthAdjust="spacing" textLength="14" x="461.5" y="725.8779">17</text><text fill="#000000" font-family="sans-serif" font-size="13" lengthAdjust="spacing" textLength="49" x="479.5" y="725.8779">success</text><polygon fill="#181818" points="47.5,758.4316,37.5,762.4316,47.5,766.4316,43.5,762.4316" style="stroke:#181818;stroke-width:1.0;"/><line style="stroke:#181818;stroke-width:1.0;stroke-dasharray:2.0,2.0;" x1="41.5" x2="438.5" y1="762.4316" y2="762.4316"/><text fill="#000000" font-family="sans-serif" font-size="13" font-weight="bold" lengthAdjust="spacing" textLength="14" x="53.5" y="757.1689">18</text><text fill="#000000" font-family="sans-serif" font-size="13" lengthAdjust="spacing" textLength="49" x="71.5" y="757.1689">success</text><!--SRC=[ZPJ1Zjem48RlVeeHbuLLiqKzqXNIYlOGgQZIxkO1Z3E0XMD77WVAszTEGXB0BEG2yVZ_PlpFnBIJkkIM5r0ORSJMcWB1sGePTP6IYntVu8SxAWIBmd6zKSCDjEMvEKYzWJLNX8pnoXbT5IkqZ3dfl6oKVVoOJgShIE2Du6-9bZjZlq4A1wuTE0Ee-KhXzrnI-0KEWkjSvjpX2tlQoXnXROnRcN-C2o-5qGao0awmM39VYvD2be4tclskSRyQskA4oj9wTvR2wsjfaL0xxgJHypaJHZjhr4tfeeahR1D-ll_n45wMIeeJuxo4ZD0kkVRM5JxF1zgz5DZaZqKUeBrZQKZwCnzhJF_gjRPxyL8MJ99xNtPmXe5_5aj8vk7aCo_TKR0yulKJ0HS2gOwxBG8ToM7H83fcbZOBuV54pmrsF3zxjh3eTx1OF6HMwYr0UbjfF3bdXvrjnK4JQewwzH0iAcNHrMJUspbh21WsqZXy3fFkF6VyNd8MxvUJP1xDDeCgiCzKETxZdXnftLnBvT0EJbypcrBZfYMTkEjuKyCWTzopI1sdSRf0NU2QVbuCH2XZwQMqDGS29Sc1MOU6rZFNc3_WWl_NJIsXydSG6DqMDImzlPhrPZSDP_nwbhEqDxN71IDgImVDFp_MLMDkzFf1PjpvRj-DbjxC6jAyzAd7YyfQ7_-K1Kv-Fe0TVW_4zzZMVLVPUkb5LNsLiDY4tvkomOXz3UhlYwlXQbMnAOaj3g5BzXy0]--></g></svg>