<?xml version="1.0" encoding="us-ascii" standalone="no"?><svg xmlns="http://www.w3.org/2000/svg" xmlns:xlink="http://www.w3.org/1999/xlink" contentStyleType="text/css" height="909px" preserveAspectRatio="none" style="width:448px;height:909px;background:#FFFFFF;" version="1.1" viewBox="0 0 448 909" width="448px" zoomAndPan="magnify"><defs/><g><text fill="#000000" font-family="sans-serif" font-size="14" font-weight="bold" lengthAdjust="spacing" textLength="420" x="10" y="25.1074">US2000b - As Operator, I want to enable/disable a candidate.</text><!--class EnableDisableCandidateUI--><g id="elem_EnableDisableCandidateUI"><rect codeLine="4" fill="#F1F1F1" height="103.8633" id="EnableDisableCandidateUI" rx="2.5" ry="2.5" style="stroke:#181818;stroke-width:0.5;" width="296" x="79" y="46.6211"/><ellipse cx="138.75" cy="62.6211" fill="#ADD1B2" rx="11" ry="11" style="stroke:#181818;stroke-width:1.0;"/><path d="M141.5156,58.4961 Q141.6719,58.2773 141.8594,58.168 Q142.0469,58.0586 142.2656,58.0586 Q142.6406,58.0586 142.875,58.3242 Q143.1094,58.5742 143.1094,59.1836 L143.1094,60.6367 Q143.1094,61.2461 142.875,61.5117 Q142.6406,61.7773 142.2656,61.7773 Q141.9219,61.7773 141.7188,61.5742 Q141.5156,61.3867 141.4063,60.8711 Q141.3594,60.5117 141.1719,60.3242 Q140.8438,59.9492 140.2344,59.7305 Q139.625,59.5117 139,59.5117 Q138.2344,59.5117 137.5938,59.8398 Q136.9688,60.168 136.4688,60.918 Q135.9844,61.668 135.9844,62.6992 L135.9844,63.793 Q135.9844,65.0273 136.875,65.8555 Q137.7656,66.668 139.3594,66.668 Q140.2969,66.668 140.9531,66.418 Q141.3438,66.2617 141.7656,65.8242 Q142.0313,65.5586 142.1719,65.4805 Q142.3281,65.4023 142.5313,65.4023 Q142.8594,65.4023 143.1094,65.668 Q143.375,65.918 143.375,66.2617 Q143.375,66.6055 143.0313,67.0117 Q142.5313,67.5898 141.7344,67.918 Q140.6563,68.3711 139.3594,68.3711 Q137.8438,68.3711 136.6406,67.7461 Q135.6563,67.2461 134.9688,66.1836 Q134.2813,65.1055 134.2813,63.8242 L134.2813,62.668 Q134.2813,61.3398 134.8906,60.1992 Q135.5156,59.043 136.6094,58.4336 Q137.7031,57.8086 138.9375,57.8086 Q139.6719,57.8086 140.3125,57.9805 Q140.9688,58.1367 141.5156,58.4961 Z " fill="#000000"/><text fill="#000000" font-family="sans-serif" font-size="14" lengthAdjust="spacing" textLength="168" x="159.25" y="68.418">EnableDisableCandidateUI</text><line style="stroke:#181818;stroke-width:0.5;" x1="80" x2="374" y1="78.6211" y2="78.6211"/><line style="stroke:#181818;stroke-width:0.5;" x1="80" x2="374" y1="86.6211" y2="86.6211"/><rect fill="#F24D5C" height="6" style="stroke:#C82930;stroke-width:1.0;" width="6" x="87" y="98.4316"/><text fill="#000000" font-family="sans-serif" font-size="14" lengthAdjust="spacing" textLength="193" x="99" y="105.7285">enableCandidateUI() : boolean</text><rect fill="#F24D5C" height="6" style="stroke:#C82930;stroke-width:1.0;" width="6" x="87" y="117.0527"/><text fill="#000000" font-family="sans-serif" font-size="14" lengthAdjust="spacing" textLength="195" x="99" y="124.3496">disableCandidateUI() : boolean</text><rect fill="#F24D5C" height="6" style="stroke:#C82930;stroke-width:1.0;" width="6" x="87" y="135.6738"/><text fill="#000000" font-family="sans-serif" font-size="14" lengthAdjust="spacing" textLength="270" x="99" y="142.9707">displayAndSelectCandidate() : SystemUser</text></g><!--class EnableDisableCandidateController--><g id="elem_EnableDisableCandidateController"><rect codeLine="11" fill="#F1F1F1" height="141.1055" id="EnableDisableCandidateController" rx="2.5" ry="2.5" style="stroke:#181818;stroke-width:0.5;" width="354" x="50" y="211.6211"/><ellipse cx="113.75" cy="227.6211" fill="#ADD1B2" rx="11" ry="11" style="stroke:#181818;stroke-width:1.0;"/><path d="M116.5156,223.4961 Q116.6719,223.2773 116.8594,223.168 Q117.0469,223.0586 117.2656,223.0586 Q117.6406,223.0586 117.875,223.3242 Q118.1094,223.5742 118.1094,224.1836 L118.1094,225.6367 Q118.1094,226.2461 117.875,226.5117 Q117.6406,226.7773 117.2656,226.7773 Q116.9219,226.7773 116.7188,226.5742 Q116.5156,226.3867 116.4063,225.8711 Q116.3594,225.5117 116.1719,225.3242 Q115.8438,224.9492 115.2344,224.7305 Q114.625,224.5117 114,224.5117 Q113.2344,224.5117 112.5938,224.8398 Q111.9688,225.168 111.4688,225.918 Q110.9844,226.668 110.9844,227.6992 L110.9844,228.793 Q110.9844,230.0273 111.875,230.8555 Q112.7656,231.668 114.3594,231.668 Q115.2969,231.668 115.9531,231.418 Q116.3438,231.2617 116.7656,230.8242 Q117.0313,230.5586 117.1719,230.4805 Q117.3281,230.4023 117.5313,230.4023 Q117.8594,230.4023 118.1094,230.668 Q118.375,230.918 118.375,231.2617 Q118.375,231.6055 118.0313,232.0117 Q117.5313,232.5898 116.7344,232.918 Q115.6563,233.3711 114.3594,233.3711 Q112.8438,233.3711 111.6406,232.7461 Q110.6563,232.2461 109.9688,231.1836 Q109.2813,230.1055 109.2813,228.8242 L109.2813,227.668 Q109.2813,226.3398 109.8906,225.1992 Q110.5156,224.043 111.6094,223.4336 Q112.7031,222.8086 113.9375,222.8086 Q114.6719,222.8086 115.3125,222.9805 Q115.9688,223.1367 116.5156,223.4961 Z " fill="#000000"/><text fill="#000000" font-family="sans-serif" font-size="14" lengthAdjust="spacing" textLength="218" x="134.25" y="233.418">EnableDisableCandidateController</text><line style="stroke:#181818;stroke-width:0.5;" x1="51" x2="403" y1="243.6211" y2="243.6211"/><rect fill="none" height="6" style="stroke:#C82930;stroke-width:1.0;" width="6" x="58" y="255.4316"/><text fill="#000000" font-family="sans-serif" font-size="14" lengthAdjust="spacing" textLength="221" x="70" y="262.7285">userSvc : UserManagementService</text><line style="stroke:#181818;stroke-width:0.5;" x1="51" x2="403" y1="270.2422" y2="270.2422"/><ellipse cx="61" cy="285.0527" fill="#84BE84" rx="3" ry="3" style="stroke:#038048;stroke-width:1.0;"/><text fill="#000000" font-family="sans-serif" font-size="14" lengthAdjust="spacing" textLength="284" x="70" y="289.3496">allActiveCandidates() : Iterable&lt;SystemUser&gt;</text><ellipse cx="61" cy="303.6738" fill="#84BE84" rx="3" ry="3" style="stroke:#038048;stroke-width:1.0;"/><text fill="#000000" font-family="sans-serif" font-size="14" lengthAdjust="spacing" textLength="305" x="70" y="307.9707">allNotActiveCandidates() : Iterable&lt;SystemUser&gt;</text><ellipse cx="61" cy="322.2949" fill="#84BE84" rx="3" ry="3" style="stroke:#038048;stroke-width:1.0;"/><text fill="#000000" font-family="sans-serif" font-size="14" lengthAdjust="spacing" textLength="312" x="70" y="326.5918">activateUser(final SystemUser user) : SystemUser</text><ellipse cx="61" cy="340.916" fill="#84BE84" rx="3" ry="3" style="stroke:#038048;stroke-width:1.0;"/><text fill="#000000" font-family="sans-serif" font-size="14" lengthAdjust="spacing" textLength="328" x="70" y="345.2129">deactivateUser(final SystemUser user) : SystemUser</text></g><!--class UserManagementService--><g id="elem_UserManagementService"><rect codeLine="23" fill="#F1F1F1" height="141.1055" id="UserManagementService" rx="2.5" ry="2.5" style="stroke:#181818;stroke-width:0.5;" width="354" x="50" y="413.6211"/><ellipse cx="143.75" cy="429.6211" fill="#ADD1B2" rx="11" ry="11" style="stroke:#181818;stroke-width:1.0;"/><path d="M146.5156,425.4961 Q146.6719,425.2773 146.8594,425.168 Q147.0469,425.0586 147.2656,425.0586 Q147.6406,425.0586 147.875,425.3242 Q148.1094,425.5742 148.1094,426.1836 L148.1094,427.6367 Q148.1094,428.2461 147.875,428.5117 Q147.6406,428.7773 147.2656,428.7773 Q146.9219,428.7773 146.7188,428.5742 Q146.5156,428.3867 146.4063,427.8711 Q146.3594,427.5117 146.1719,427.3242 Q145.8438,426.9492 145.2344,426.7305 Q144.625,426.5117 144,426.5117 Q143.2344,426.5117 142.5938,426.8398 Q141.9688,427.168 141.4688,427.918 Q140.9844,428.668 140.9844,429.6992 L140.9844,430.793 Q140.9844,432.0273 141.875,432.8555 Q142.7656,433.668 144.3594,433.668 Q145.2969,433.668 145.9531,433.418 Q146.3438,433.2617 146.7656,432.8242 Q147.0313,432.5586 147.1719,432.4805 Q147.3281,432.4023 147.5313,432.4023 Q147.8594,432.4023 148.1094,432.668 Q148.375,432.918 148.375,433.2617 Q148.375,433.6055 148.0313,434.0117 Q147.5313,434.5898 146.7344,434.918 Q145.6563,435.3711 144.3594,435.3711 Q142.8438,435.3711 141.6406,434.7461 Q140.6563,434.2461 139.9688,433.1836 Q139.2813,432.1055 139.2813,430.8242 L139.2813,429.668 Q139.2813,428.3398 139.8906,427.1992 Q140.5156,426.043 141.6094,425.4336 Q142.7031,424.8086 143.9375,424.8086 Q144.6719,424.8086 145.3125,424.9805 Q145.9688,425.1367 146.5156,425.4961 Z " fill="#000000"/><text fill="#000000" font-family="sans-serif" font-size="14" lengthAdjust="spacing" textLength="158" x="164.25" y="435.418">UserManagementService</text><line style="stroke:#181818;stroke-width:0.5;" x1="51" x2="403" y1="445.6211" y2="445.6211"/><rect fill="none" height="6" style="stroke:#C82930;stroke-width:1.0;" width="6" x="58" y="457.4316"/><text fill="#000000" font-family="sans-serif" font-size="14" lengthAdjust="spacing" textLength="205" x="70" y="464.7285">userRepository : UserRepository</text><line style="stroke:#181818;stroke-width:0.5;" x1="51" x2="403" y1="472.2422" y2="472.2422"/><ellipse cx="61" cy="487.0527" fill="#84BE84" rx="3" ry="3" style="stroke:#038048;stroke-width:1.0;"/><text fill="#000000" font-family="sans-serif" font-size="14" lengthAdjust="spacing" textLength="284" x="70" y="491.3496">allActiveCandidates() : Iterable&lt;SystemUser&gt;</text><ellipse cx="61" cy="505.6738" fill="#84BE84" rx="3" ry="3" style="stroke:#038048;stroke-width:1.0;"/><text fill="#000000" font-family="sans-serif" font-size="14" lengthAdjust="spacing" textLength="305" x="70" y="509.9707">allNotActiveCandidates() : Iterable&lt;SystemUser&gt;</text><ellipse cx="61" cy="524.2949" fill="#84BE84" rx="3" ry="3" style="stroke:#038048;stroke-width:1.0;"/><text fill="#000000" font-family="sans-serif" font-size="14" lengthAdjust="spacing" textLength="312" x="70" y="528.5918">activateUser(final SystemUser user) : SystemUser</text><ellipse cx="61" cy="542.916" fill="#84BE84" rx="3" ry="3" style="stroke:#038048;stroke-width:1.0;"/><text fill="#000000" font-family="sans-serif" font-size="14" lengthAdjust="spacing" textLength="328" x="70" y="547.2129">deactivateUser(final SystemUser user) : SystemUser</text></g><!--class SystemUser--><g id="elem_SystemUser"><rect codeLine="34" fill="#F1F1F1" height="122.4844" id="SystemUser" rx="2.5" ry="2.5" style="stroke:#181818;stroke-width:0.5;" width="167" x="143.5" y="779.6211"/><ellipse cx="185.5" cy="795.6211" fill="#ADD1B2" rx="11" ry="11" style="stroke:#181818;stroke-width:1.0;"/><path d="M188.2656,791.4961 Q188.4219,791.2773 188.6094,791.168 Q188.7969,791.0586 189.0156,791.0586 Q189.3906,791.0586 189.625,791.3242 Q189.8594,791.5742 189.8594,792.1836 L189.8594,793.6367 Q189.8594,794.2461 189.625,794.5117 Q189.3906,794.7773 189.0156,794.7773 Q188.6719,794.7773 188.4688,794.5742 Q188.2656,794.3867 188.1563,793.8711 Q188.1094,793.5117 187.9219,793.3242 Q187.5938,792.9492 186.9844,792.7305 Q186.375,792.5117 185.75,792.5117 Q184.9844,792.5117 184.3438,792.8398 Q183.7188,793.168 183.2188,793.918 Q182.7344,794.668 182.7344,795.6992 L182.7344,796.793 Q182.7344,798.0273 183.625,798.8555 Q184.5156,799.668 186.1094,799.668 Q187.0469,799.668 187.7031,799.418 Q188.0938,799.2617 188.5156,798.8242 Q188.7813,798.5586 188.9219,798.4805 Q189.0781,798.4023 189.2813,798.4023 Q189.6094,798.4023 189.8594,798.668 Q190.125,798.918 190.125,799.2617 Q190.125,799.6055 189.7813,800.0117 Q189.2813,800.5898 188.4844,800.918 Q187.4063,801.3711 186.1094,801.3711 Q184.5938,801.3711 183.3906,800.7461 Q182.4063,800.2461 181.7188,799.1836 Q181.0313,798.1055 181.0313,796.8242 L181.0313,795.668 Q181.0313,794.3398 181.6406,793.1992 Q182.2656,792.043 183.3594,791.4336 Q184.4531,790.8086 185.6875,790.8086 Q186.4219,790.8086 187.0625,790.9805 Q187.7188,791.1367 188.2656,791.4961 Z " fill="#000000"/><text fill="#000000" font-family="sans-serif" font-size="14" lengthAdjust="spacing" textLength="75" x="205.5" y="801.418">SystemUser</text><line style="stroke:#181818;stroke-width:0.5;" x1="144.5" x2="309.5" y1="811.6211" y2="811.6211"/><rect fill="none" height="6" style="stroke:#C82930;stroke-width:1.0;" width="6" x="151.5" y="823.4316"/><text fill="#000000" font-family="sans-serif" font-size="14" lengthAdjust="spacing" textLength="83" x="163.5" y="830.7285">name : Name</text><rect fill="none" height="6" style="stroke:#C82930;stroke-width:1.0;" width="6" x="151.5" y="842.0527"/><text fill="#000000" font-family="sans-serif" font-size="14" lengthAdjust="spacing" textLength="131" x="163.5" y="849.3496">email : EmailAddress</text><line style="stroke:#181818;stroke-width:0.5;" x1="144.5" x2="309.5" y1="856.8633" y2="856.8633"/><ellipse cx="154.5" cy="871.6738" fill="#84BE84" rx="3" ry="3" style="stroke:#038048;stroke-width:1.0;"/><text fill="#000000" font-family="sans-serif" font-size="14" lengthAdjust="spacing" textLength="141" x="163.5" y="875.9707">email() : EmailAddress</text><ellipse cx="154.5" cy="890.2949" fill="#84BE84" rx="3" ry="3" style="stroke:#038048;stroke-width:1.0;"/><text fill="#000000" font-family="sans-serif" font-size="14" lengthAdjust="spacing" textLength="93" x="163.5" y="894.5918">name() : Name</text></g><!--class UserRepository--><g id="elem_UserRepository"><rect codeLine="42" fill="#F1F1F1" height="85.2422" id="UserRepository" rx="2.5" ry="2.5" style="stroke:#181818;stroke-width:0.5;" width="322" x="66" y="615.6211"/><ellipse cx="173.75" cy="631.6211" fill="#B4A7E5" rx="11" ry="11" style="stroke:#181818;stroke-width:1.0;"/><path d="M174.7031,628.2617 L174.7031,634.918 L176.4219,634.918 Q177.0313,634.918 177.2969,635.1523 Q177.5625,635.3867 177.5625,635.7773 Q177.5625,636.1523 177.2969,636.3867 Q177.0313,636.6211 176.4219,636.6211 L171.2813,636.6211 Q170.6719,636.6211 170.4063,636.3867 Q170.1406,636.1523 170.1406,635.7617 Q170.1406,635.3867 170.4063,635.1523 Q170.6719,634.918 171.2813,634.918 L173,634.918 L173,628.2617 L171.2813,628.2617 Q170.6719,628.2617 170.4063,628.0273 Q170.1406,627.793 170.1406,627.4023 Q170.1406,627.0273 170.4063,626.793 Q170.6719,626.5586 171.2813,626.5586 L176.4219,626.5586 Q177.0313,626.5586 177.2969,626.793 Q177.5625,627.0273 177.5625,627.4023 Q177.5625,627.793 177.2969,628.0273 Q177.0313,628.2617 176.4219,628.2617 L174.7031,628.2617 Z " fill="#000000"/><text fill="#000000" font-family="sans-serif" font-size="14" font-style="italic" lengthAdjust="spacing" textLength="98" x="194.25" y="637.418">UserRepository</text><line style="stroke:#181818;stroke-width:0.5;" x1="67" x2="387" y1="647.6211" y2="647.6211"/><line style="stroke:#181818;stroke-width:0.5;" x1="67" x2="387" y1="655.6211" y2="655.6211"/><text fill="#000000" font-family="sans-serif" font-size="14" lengthAdjust="spacing" textLength="310" x="72" y="674.7285">findByActiveWhereRollCandidate(boolean active)</text><text fill="#000000" font-family="sans-serif" font-size="14" lengthAdjust="spacing" textLength="115" x="72" y="693.3496">save(SystemUser)</text></g><!--link EnableDisableCandidateUI to EnableDisableCandidateController--><g id="link_EnableDisableCandidateUI_EnableDisableCandidateController"><path codeLine="51" d="M227,150.6611 C227,169.5311 227,185.2611 227,205.5011 " fill="none" id="EnableDisableCandidateUI-to-EnableDisableCandidateController" style="stroke:#181818;stroke-width:1.0;stroke-dasharray:7.0,7.0;"/><polygon fill="#181818" points="227,211.5011,231,202.5011,227,206.5011,223,202.5011,227,211.5011" style="stroke:#181818;stroke-width:1.0;"/></g><!--link EnableDisableCandidateController to UserManagementService--><g id="link_EnableDisableCandidateController_UserManagementService"><path codeLine="52" d="M227,352.7911 C227,372.4111 227,387.7411 227,407.3611 " fill="none" id="EnableDisableCandidateController-to-UserManagementService" style="stroke:#181818;stroke-width:1.0;stroke-dasharray:7.0,7.0;"/><polygon fill="#181818" points="227,413.3611,231,404.3611,227,408.3611,223,404.3611,227,413.3611" style="stroke:#181818;stroke-width:1.0;"/></g><!--link UserManagementService to UserRepository--><g id="link_UserManagementService_UserRepository"><path codeLine="55" d="M227,555.0811 C227,575.5411 227,591.2611 227,609.3711 " fill="none" id="UserManagementService-to-UserRepository" style="stroke:#181818;stroke-width:1.0;stroke-dasharray:7.0,7.0;"/><polygon fill="#181818" points="227,615.3711,231,606.3711,227,610.3711,223,606.3711,227,615.3711" style="stroke:#181818;stroke-width:1.0;"/></g><!--link UserRepository to SystemUser--><g id="link_UserRepository_SystemUser"><path codeLine="58" d="M227,700.9811 C227,724.3111 227,747.7611 227,773.5211 " fill="none" id="UserRepository-to-SystemUser" style="stroke:#181818;stroke-width:1.0;"/><polygon fill="#181818" points="227,779.5211,231,770.5211,227,774.5211,223,770.5211,227,779.5211" style="stroke:#181818;stroke-width:1.0;"/><text fill="#000000" font-family="sans-serif" font-size="13" lengthAdjust="spacing" textLength="36" x="228" y="745.6494">stores</text><text fill="#000000" font-family="sans-serif" font-size="13" lengthAdjust="spacing" textLength="5" x="221.7109" y="768.4907">*</text></g><!--SRC=[tLDDRy8m3BtdLrWzmLWPsX5DI8nnu30cKQ6TJMEsI6cAcgnJLUs_pqqxsl4nn7MvH7b-px5V7AUS9WZMqVreDDf025CBBplAqANPBIpW4uq3bm8Pt6YwayfMEo34QAIIw6WO215hj1RcdlDKKsO_yVMY566Zxu2zFenXawQQq71S7gcE2JkDnTJ8Y3J5Ri_qlAYmZfArfKnyYR_hcQN6PQdMb9M2ytwm9ifZpb6fdz7W6oLaN4HPhcBYP0D0hQUnKtcRnFfR5uwDujmFxVMJchvCtLMAYbjrpUVULXdKdOvyYGTD3a3IrQBAcjgPawsMZHihsgLMyViNZIajyC_CQDneKRR0O4BCNF8cGafGQJxDgtqgPKRMiWSUzYty2WmghOUzcYzGXblSOam7FfQ2IvIFHMtBwpjbjEAHR6UwcVlQ2-eBYpdrsZhxldfUvxuS38UJY_ClBX5ybdFVuYI-LtHdHlm680md4Dm4tGSQW-KGMV4D]--></g></svg>