<?xml version="1.0" encoding="us-ascii" standalone="no"?><svg xmlns="http://www.w3.org/2000/svg" xmlns:xlink="http://www.w3.org/1999/xlink" contentStyleType="text/css" height="819px" preserveAspectRatio="none" style="width:1128px;height:819px;background:#FFFFFF;" version="1.1" viewBox="0 0 1128 819" width="1128px" zoomAndPan="magnify"><defs/><g><text fill="#000000" font-family="sans-serif" font-size="14" font-weight="bold" lengthAdjust="spacing" textLength="427" x="349.5" y="30.1074">"US2000b - As Operator, I want to enable/disable a candidate.</text><rect fill="#FFFFFF" height="584.8984" style="stroke:#181818;stroke-width:1.0;" width="10" x="31.5" y="133.2422"/><rect fill="#FFFFFF" height="298.2793" style="stroke:#181818;stroke-width:1.0;" width="10" x="366.5" y="156.5332"/><rect fill="#FFFFFF" height="232.0371" style="stroke:#181818;stroke-width:1.0;" width="10" x="366.5" y="486.1035"/><rect fill="#FFFFFF" height="156.4551" style="stroke:#181818;stroke-width:1.0;" width="10" x="583.5" y="267.0664"/><rect fill="#FFFFFF" height="169.4551" style="stroke:#181818;stroke-width:1.0;" width="10" x="583.5" y="517.3945"/><rect fill="#FFFFFF" height="93.873" style="stroke:#181818;stroke-width:1.0;" width="10" x="795.5" y="298.3574"/><rect fill="#FFFFFF" height="106.873" style="stroke:#181818;stroke-width:1.0;" width="10" x="795.5" y="548.6855"/><rect fill="#FFFFFF" height="31.291" style="stroke:#181818;stroke-width:1.0;" width="10" x="1059.5" y="329.6484"/><line style="stroke:#181818;stroke-width:0.5;stroke-dasharray:5.0,5.0;" x1="36" x2="36" y1="123.2422" y2="736.1406"/><line style="stroke:#181818;stroke-width:0.5;stroke-dasharray:5.0,5.0;" x1="371.5" x2="371.5" y1="123.2422" y2="736.1406"/><line style="stroke:#181818;stroke-width:0.5;stroke-dasharray:5.0,5.0;" x1="588.5" x2="588.5" y1="214.1543" y2="736.1406"/><line style="stroke:#181818;stroke-width:0.5;stroke-dasharray:5.0,5.0;" x1="800.5" x2="800.5" y1="123.2422" y2="736.1406"/><line style="stroke:#181818;stroke-width:0.5;stroke-dasharray:5.0,5.0;" x1="1064" x2="1064" y1="123.2422" y2="736.1406"/><text fill="#000000" font-family="sans-serif" font-size="14" lengthAdjust="spacing" textLength="57" x="5" y="119.7285">Operator</text><ellipse cx="36.5" cy="53.1211" fill="#E3E3E3" rx="8" ry="8" style="stroke:#181818;stroke-width:0.5;"/><path d="M36.5,61.1211 L36.5,88.1211 M23.5,69.1211 L49.5,69.1211 M36.5,88.1211 L23.5,103.1211 M36.5,88.1211 L49.5,103.1211 " fill="none" style="stroke:#181818;stroke-width:0.5;"/><text fill="#000000" font-family="sans-serif" font-size="14" lengthAdjust="spacing" textLength="57" x="5" y="750.248">Operator</text><ellipse cx="36.5" cy="762.2617" fill="#E3E3E3" rx="8" ry="8" style="stroke:#181818;stroke-width:0.5;"/><path d="M36.5,770.2617 L36.5,797.2617 M23.5,778.2617 L49.5,778.2617 M36.5,797.2617 L23.5,812.2617 M36.5,797.2617 L49.5,812.2617 " fill="none" style="stroke:#181818;stroke-width:0.5;"/><rect fill="#E3E3E3" height="51.2422" rx="2.5" ry="2.5" style="stroke:#181818;stroke-width:0.5;" width="186" x="278.5" y="71"/><text fill="#000000" font-family="sans-serif" font-size="14" font-style="italic" lengthAdjust="spacing" textLength="95" x="324" y="93.1074">&#171;presentation&#187;</text><text fill="#000000" font-family="sans-serif" font-size="14" lengthAdjust="spacing" textLength="172" x="285.5" y="111.7285">:EnableDisableCandidateUI</text><rect fill="#E3E3E3" height="51.2422" rx="2.5" ry="2.5" style="stroke:#181818;stroke-width:0.5;" width="186" x="278.5" y="735.1406"/><text fill="#000000" font-family="sans-serif" font-size="14" font-style="italic" lengthAdjust="spacing" textLength="95" x="324" y="757.248">&#171;presentation&#187;</text><text fill="#000000" font-family="sans-serif" font-size="14" lengthAdjust="spacing" textLength="172" x="285.5" y="775.8691">:EnableDisableCandidateUI</text><text fill="#000000" font-family="sans-serif" font-size="14" font-style="italic" lengthAdjust="spacing" textLength="84" x="543.5" y="750.248">&#171;application&#187;</text><text fill="#000000" font-family="sans-serif" font-size="14" lengthAdjust="spacing" textLength="222" x="474.5" y="768.8691">:EnableDisableCandidateController</text><ellipse cx="588.5" cy="788.3828" fill="#E3E3E3" rx="12" ry="12" style="stroke:#181818;stroke-width:0.5;"/><polygon fill="#181818" points="584.5,776.3828,590.5,771.3828,588.5,776.3828,590.5,781.3828,584.5,776.3828" style="stroke:#181818;stroke-width:1.0;"/><rect fill="#E3E3E3" height="51.2422" rx="2.5" ry="2.5" style="stroke:#181818;stroke-width:0.5;" width="176" x="712.5" y="71"/><text fill="#000000" font-family="sans-serif" font-size="14" font-style="italic" lengthAdjust="spacing" textLength="84" x="758.5" y="93.1074">&#171;application&#187;</text><text fill="#000000" font-family="sans-serif" font-size="14" lengthAdjust="spacing" textLength="162" x="719.5" y="111.7285">:UserManagementService</text><rect fill="#E3E3E3" height="51.2422" rx="2.5" ry="2.5" style="stroke:#181818;stroke-width:0.5;" width="176" x="712.5" y="735.1406"/><text fill="#000000" font-family="sans-serif" font-size="14" font-style="italic" lengthAdjust="spacing" textLength="84" x="758.5" y="757.248">&#171;application&#187;</text><text fill="#000000" font-family="sans-serif" font-size="14" lengthAdjust="spacing" textLength="162" x="719.5" y="775.8691">:UserManagementService</text><rect fill="#E3E3E3" height="51.2422" rx="2.5" ry="2.5" style="stroke:#181818;stroke-width:0.5;" width="115" x="1007" y="71"/><text fill="#000000" font-family="sans-serif" font-size="14" font-style="italic" lengthAdjust="spacing" textLength="79" x="1025" y="93.1074">&#171;repository&#187;</text><text fill="#000000" font-family="sans-serif" font-size="14" lengthAdjust="spacing" textLength="101" x="1014" y="111.7285">:UserRepository</text><rect fill="#E3E3E3" height="51.2422" rx="2.5" ry="2.5" style="stroke:#181818;stroke-width:0.5;" width="115" x="1007" y="735.1406"/><text fill="#000000" font-family="sans-serif" font-size="14" font-style="italic" lengthAdjust="spacing" textLength="79" x="1025" y="757.248">&#171;repository&#187;</text><text fill="#000000" font-family="sans-serif" font-size="14" lengthAdjust="spacing" textLength="101" x="1014" y="775.8691">:UserRepository</text><rect fill="#FFFFFF" height="584.8984" style="stroke:#181818;stroke-width:1.0;" width="10" x="31.5" y="133.2422"/><rect fill="#FFFFFF" height="298.2793" style="stroke:#181818;stroke-width:1.0;" width="10" x="366.5" y="156.5332"/><rect fill="#FFFFFF" height="232.0371" style="stroke:#181818;stroke-width:1.0;" width="10" x="366.5" y="486.1035"/><rect fill="#FFFFFF" height="156.4551" style="stroke:#181818;stroke-width:1.0;" width="10" x="583.5" y="267.0664"/><rect fill="#FFFFFF" height="169.4551" style="stroke:#181818;stroke-width:1.0;" width="10" x="583.5" y="517.3945"/><rect fill="#FFFFFF" height="93.873" style="stroke:#181818;stroke-width:1.0;" width="10" x="795.5" y="298.3574"/><rect fill="#FFFFFF" height="106.873" style="stroke:#181818;stroke-width:1.0;" width="10" x="795.5" y="548.6855"/><rect fill="#FFFFFF" height="31.291" style="stroke:#181818;stroke-width:1.0;" width="10" x="1059.5" y="329.6484"/><polygon fill="#181818" points="354.5,152.5332,364.5,156.5332,354.5,160.5332,358.5,156.5332" style="stroke:#181818;stroke-width:1.0;"/><line style="stroke:#181818;stroke-width:1.0;" x1="41.5" x2="360.5" y1="156.5332" y2="156.5332"/><text fill="#000000" font-family="sans-serif" font-size="13" font-weight="bold" lengthAdjust="spacing" textLength="7" x="48.5" y="151.2705">1</text><text fill="#000000" font-family="sans-serif" font-size="13" lengthAdjust="spacing" textLength="295" x="59.5" y="151.2705">asks to enable a candidate's access to the system</text><polygon fill="#181818" points="462.5,183.8242,472.5,187.8242,462.5,191.8242,466.5,187.8242" style="stroke:#181818;stroke-width:1.0;"/><line style="stroke:#181818;stroke-width:1.0;" x1="376.5" x2="468.5" y1="187.8242" y2="187.8242"/><text fill="#000000" font-family="sans-serif" font-size="13" font-weight="bold" lengthAdjust="spacing" textLength="7" x="383.5" y="182.5615">2</text><text fill="#000000" font-family="sans-serif" font-size="13" lengthAdjust="spacing" textLength="36" x="394.5" y="182.5615">create</text><text fill="#000000" font-family="sans-serif" font-size="14" font-style="italic" lengthAdjust="spacing" textLength="84" x="543.5" y="211.6406">&#171;application&#187;</text><text fill="#000000" font-family="sans-serif" font-size="14" lengthAdjust="spacing" textLength="222" x="474.5" y="230.2617">:EnableDisableCandidateController</text><ellipse cx="588.5" cy="180.5332" fill="#E3E3E3" rx="12" ry="12" style="stroke:#181818;stroke-width:0.5;"/><polygon fill="#181818" points="584.5,168.5332,590.5,163.5332,588.5,168.5332,590.5,173.5332,584.5,168.5332" style="stroke:#181818;stroke-width:1.0;"/><polygon fill="#181818" points="571.5,263.0664,581.5,267.0664,571.5,271.0664,575.5,267.0664" style="stroke:#181818;stroke-width:1.0;"/><line style="stroke:#181818;stroke-width:1.0;" x1="376.5" x2="577.5" y1="267.0664" y2="267.0664"/><text fill="#000000" font-family="sans-serif" font-size="13" font-weight="bold" lengthAdjust="spacing" textLength="7" x="383.5" y="261.8037">3</text><text fill="#000000" font-family="sans-serif" font-size="13" lengthAdjust="spacing" textLength="141" x="394.5" y="261.8037">allNotActiveCandidates()</text><polygon fill="#181818" points="783.5,294.3574,793.5,298.3574,783.5,302.3574,787.5,298.3574" style="stroke:#181818;stroke-width:1.0;"/><line style="stroke:#181818;stroke-width:1.0;" x1="593.5" x2="789.5" y1="298.3574" y2="298.3574"/><text fill="#000000" font-family="sans-serif" font-size="13" font-weight="bold" lengthAdjust="spacing" textLength="7" x="600.5" y="293.0947">4</text><text fill="#000000" font-family="sans-serif" font-size="13" lengthAdjust="spacing" textLength="141" x="611.5" y="293.0947">allNotActiveCandidates()</text><polygon fill="#181818" points="1047.5,325.6484,1057.5,329.6484,1047.5,333.6484,1051.5,329.6484" style="stroke:#181818;stroke-width:1.0;"/><line style="stroke:#181818;stroke-width:1.0;" x1="805.5" x2="1053.5" y1="329.6484" y2="329.6484"/><text fill="#000000" font-family="sans-serif" font-size="13" font-weight="bold" lengthAdjust="spacing" textLength="7" x="812.5" y="324.3857">5</text><text fill="#000000" font-family="sans-serif" font-size="13" lengthAdjust="spacing" textLength="224" x="823.5" y="324.3857">findByActiveWhereRollCandidate(false)</text><polygon fill="#181818" points="816.5,356.9395,806.5,360.9395,816.5,364.9395,812.5,360.9395" style="stroke:#181818;stroke-width:1.0;"/><line style="stroke:#181818;stroke-width:1.0;stroke-dasharray:2.0,2.0;" x1="810.5" x2="1063.5" y1="360.9395" y2="360.9395"/><text fill="#000000" font-family="sans-serif" font-size="13" font-weight="bold" lengthAdjust="spacing" textLength="7" x="822.5" y="355.6768">6</text><text fill="#000000" font-family="sans-serif" font-size="13" lengthAdjust="spacing" textLength="63" x="833.5" y="355.6768">candidates</text><polygon fill="#181818" points="604.5,388.2305,594.5,392.2305,604.5,396.2305,600.5,392.2305" style="stroke:#181818;stroke-width:1.0;"/><line style="stroke:#181818;stroke-width:1.0;stroke-dasharray:2.0,2.0;" x1="598.5" x2="799.5" y1="392.2305" y2="392.2305"/><text fill="#000000" font-family="sans-serif" font-size="13" font-weight="bold" lengthAdjust="spacing" textLength="7" x="610.5" y="386.9678">7</text><text fill="#000000" font-family="sans-serif" font-size="13" lengthAdjust="spacing" textLength="63" x="621.5" y="386.9678">candidates</text><polygon fill="#181818" points="387.5,419.5215,377.5,423.5215,387.5,427.5215,383.5,423.5215" style="stroke:#181818;stroke-width:1.0;"/><line style="stroke:#181818;stroke-width:1.0;stroke-dasharray:2.0,2.0;" x1="381.5" x2="587.5" y1="423.5215" y2="423.5215"/><text fill="#000000" font-family="sans-serif" font-size="13" font-weight="bold" lengthAdjust="spacing" textLength="7" x="393.5" y="418.2588">8</text><text fill="#000000" font-family="sans-serif" font-size="13" lengthAdjust="spacing" textLength="63" x="404.5" y="418.2588">candidates</text><polygon fill="#181818" points="788.5,450.8125,798.5,454.8125,788.5,458.8125,792.5,454.8125" style="stroke:#181818;stroke-width:1.0;"/><line style="stroke:#181818;stroke-width:1.0;stroke-dasharray:2.0,2.0;" x1="371.5" x2="794.5" y1="454.8125" y2="454.8125"/><text fill="#000000" font-family="sans-serif" font-size="13" font-weight="bold" lengthAdjust="spacing" textLength="7" x="378.5" y="449.5498">9</text><text fill="#000000" font-family="sans-serif" font-size="13" lengthAdjust="spacing" textLength="365" x="389.5" y="449.5498">shows list of all the unactive candidates and asks to select one</text><polygon fill="#181818" points="354.5,482.1035,364.5,486.1035,354.5,490.1035,358.5,486.1035" style="stroke:#181818;stroke-width:1.0;"/><line style="stroke:#181818;stroke-width:1.0;" x1="41.5" x2="360.5" y1="486.1035" y2="486.1035"/><text fill="#000000" font-family="sans-serif" font-size="13" font-weight="bold" lengthAdjust="spacing" textLength="14" x="48.5" y="480.8408">10</text><text fill="#000000" font-family="sans-serif" font-size="13" lengthAdjust="spacing" textLength="113" x="66.5" y="480.8408">selects a candidate</text><polygon fill="#181818" points="571.5,513.3945,581.5,517.3945,571.5,521.3945,575.5,517.3945" style="stroke:#181818;stroke-width:1.0;"/><line style="stroke:#181818;stroke-width:1.0;" x1="376.5" x2="577.5" y1="517.3945" y2="517.3945"/><text fill="#000000" font-family="sans-serif" font-size="13" font-weight="bold" lengthAdjust="spacing" textLength="14" x="383.5" y="512.1318">11</text><text fill="#000000" font-family="sans-serif" font-size="13" lengthAdjust="spacing" textLength="104" x="401.5" y="512.1318">activateUser(user)</text><polygon fill="#181818" points="783.5,544.6855,793.5,548.6855,783.5,552.6855,787.5,548.6855" style="stroke:#181818;stroke-width:1.0;"/><line style="stroke:#181818;stroke-width:1.0;" x1="593.5" x2="789.5" y1="548.6855" y2="548.6855"/><text fill="#000000" font-family="sans-serif" font-size="13" font-weight="bold" lengthAdjust="spacing" textLength="14" x="600.5" y="543.4229">12</text><text fill="#000000" font-family="sans-serif" font-size="13" lengthAdjust="spacing" textLength="104" x="618.5" y="543.4229">activateUser(user)</text><line style="stroke:#181818;stroke-width:1.0;" x1="805.5" x2="847.5" y1="579.9766" y2="579.9766"/><line style="stroke:#181818;stroke-width:1.0;" x1="847.5" x2="847.5" y1="579.9766" y2="592.9766"/><line style="stroke:#181818;stroke-width:1.0;" x1="806.5" x2="847.5" y1="592.9766" y2="592.9766"/><polygon fill="#181818" points="816.5,588.9766,806.5,592.9766,816.5,596.9766,812.5,592.9766" style="stroke:#181818;stroke-width:1.0;"/><text fill="#000000" font-family="sans-serif" font-size="13" font-weight="bold" lengthAdjust="spacing" textLength="14" x="812.5" y="574.7139">13</text><text fill="#000000" font-family="sans-serif" font-size="13" lengthAdjust="spacing" textLength="155" x="830.5" y="574.7139">user.activate(CurrentTime);</text><polygon fill="#181818" points="1052.5,620.2676,1062.5,624.2676,1052.5,628.2676,1056.5,624.2676" style="stroke:#181818;stroke-width:1.0;"/><line style="stroke:#181818;stroke-width:1.0;" x1="805.5" x2="1058.5" y1="624.2676" y2="624.2676"/><text fill="#000000" font-family="sans-serif" font-size="13" font-weight="bold" lengthAdjust="spacing" textLength="14" x="812.5" y="619.0049">14</text><text fill="#000000" font-family="sans-serif" font-size="13" lengthAdjust="spacing" textLength="59" x="830.5" y="619.0049">save(user)</text><polygon fill="#181818" points="604.5,651.5586,594.5,655.5586,604.5,659.5586,600.5,655.5586" style="stroke:#181818;stroke-width:1.0;"/><line style="stroke:#181818;stroke-width:1.0;stroke-dasharray:2.0,2.0;" x1="598.5" x2="799.5" y1="655.5586" y2="655.5586"/><text fill="#000000" font-family="sans-serif" font-size="13" font-weight="bold" lengthAdjust="spacing" textLength="14" x="610.5" y="650.2959">15</text><text fill="#000000" font-family="sans-serif" font-size="13" lengthAdjust="spacing" textLength="49" x="628.5" y="650.2959">success</text><polygon fill="#181818" points="387.5,682.8496,377.5,686.8496,387.5,690.8496,383.5,686.8496" style="stroke:#181818;stroke-width:1.0;"/><line style="stroke:#181818;stroke-width:1.0;stroke-dasharray:2.0,2.0;" x1="381.5" x2="587.5" y1="686.8496" y2="686.8496"/><text fill="#000000" font-family="sans-serif" font-size="13" font-weight="bold" lengthAdjust="spacing" textLength="14" x="393.5" y="681.5869">16</text><text fill="#000000" font-family="sans-serif" font-size="13" lengthAdjust="spacing" textLength="49" x="411.5" y="681.5869">success</text><polygon fill="#181818" points="47.5,714.1406,37.5,718.1406,47.5,722.1406,43.5,718.1406" style="stroke:#181818;stroke-width:1.0;"/><line style="stroke:#181818;stroke-width:1.0;stroke-dasharray:2.0,2.0;" x1="41.5" x2="370.5" y1="718.1406" y2="718.1406"/><text fill="#000000" font-family="sans-serif" font-size="13" font-weight="bold" lengthAdjust="spacing" textLength="14" x="53.5" y="712.8779">17</text><text fill="#000000" font-family="sans-serif" font-size="13" lengthAdjust="spacing" textLength="49" x="71.5" y="712.8779">success</text><!--SRC=[ZPJ1Zjem48RlVeeHbuLLiqKzqbMaBUqXKcabs6ZFnXc8HM97jWFbxMid8N5OiqiEG3oURyR__5WVkAYeeYMKKaYMAraY65KZqNsaekn0zxWnvm918JDKx0j_Wyvf9azSx6572us4qDf8KPTRL8GORcpQ9Drycy_dMuZWHSFV2XKrKds114vK630IKD1jWLyphjqtK61KP3oZ1f_8GyupX9sKPYl_4SfiAamka0bG3SiLiRqOpdZbU9F5hmRtiwKjBwWqQNQd2Jm_Lmer2aCDboAE2PF2A5dSJ5ssyGAxWg_htnP2gwhWxC8Ojv1gL2igh7IbhRD1TUGCs_gXo1sqDLPIStlcSuCPNcskwbziAd4YyQDjsob3m3xB5KInE_d2fXxq8BalzOC6oXZg9cno17tM1ikMq2FJf5rmZmLQh5FZyT6YcKAxWuJYhd1H_97cnN46OVLqDiQxpLtFBirr7TJhNbumcmHNetZGT04xBh8VvnR_bgF2jPr_NsVQc7tMdtHKSy2CuiDo5CN13XR3CFGeDSDRyB0wKI_x5T03XPKPbMr7S75Ee3SFrmxkQlWVZ4_dygIXuDg0tBbXDfQhHGD4hnZONxrhDHRs3W8fkaxzyoJllDxkrhx9tvivJJoFTW7NzBIs7zw4noUzqkZ6EUyaXaVHxxinuvirNPcd2towh9MoqLTUukpx7L3_Jw3f4RkkFytiLBH9TNEBa91xFpETvxYFGSCzuNdDZdx82laZjEX3L-G_]--></g></svg>